M48
; DRILL file {KiCad 9.0.7} date 2026-06-05T15:35:10+0200
; FORMAT={-:-/ absolute / metric / decimal}
; #@! TF.CreationDate,2026-06-05T15:35:10+02:00
; #@! TF.GenerationSoftware,Kicad,Pcbnew,9.0.7
; #@! TF.FileFunction,Plated,1,2,PTH
FMAT,2
METRIC
; #@! TA.AperFunction,Plated,PTH,ComponentDrill
T1C1.000
%
G90
G05
T1
X1.87Y-2.73
X1.87Y-5.27
X1.87Y-10.35
X1.87Y-12.89
X1.87Y-22.73
X1.87Y-25.27
X1.87Y-30.35
X1.87Y-32.89
X4.41Y-2.73
X4.41Y-5.27
X4.41Y-10.35
X4.41Y-12.89
X4.41Y-22.73
X4.41Y-25.27
X4.41Y-30.35
X4.41Y-32.89
X6.95Y-2.73
X6.95Y-5.27
X6.95Y-10.35
X6.95Y-12.89
X6.95Y-22.73
X6.95Y-25.27
X6.95Y-30.35
X6.95Y-32.89
X9.49Y-2.73
X9.49Y-5.27
X9.49Y-10.35
X9.49Y-12.89
X9.49Y-22.73
X9.49Y-25.27
X9.49Y-30.35
X9.49Y-32.89
X12.03Y-2.73
X12.03Y-5.27
X12.03Y-10.35
X12.03Y-12.89
X12.03Y-22.73
X12.03Y-25.27
X12.03Y-30.35
X12.03Y-32.89
X14.57Y-2.73
X14.57Y-5.27
X14.57Y-10.35
X14.57Y-12.89
X14.57Y-22.73
X14.57Y-25.27
X14.57Y-30.35
X14.57Y-32.89
X17.11Y-2.73
X17.11Y-5.27
X17.11Y-10.35
X17.11Y-12.89
X17.11Y-22.73
X17.11Y-25.27
X17.11Y-30.35
X17.11Y-32.89
X19.65Y-2.73
X19.65Y-5.27
X19.65Y-10.35
X19.65Y-12.89
X19.65Y-22.73
X19.65Y-25.27
X19.65Y-30.35
X19.65Y-32.89
X22.19Y-2.73
X22.19Y-5.27
X22.19Y-10.35
X22.19Y-12.89
X22.19Y-22.73
X22.19Y-25.27
X22.19Y-30.35
X22.19Y-32.89
X24.73Y-2.73
X24.73Y-5.27
X24.73Y-10.35
X24.73Y-12.89
X24.73Y-22.73
X24.73Y-25.27
X24.73Y-30.35
X24.73Y-32.89
X27.27Y-2.73
X27.27Y-5.27
X27.27Y-10.35
X27.27Y-12.89
X27.27Y-22.73
X27.27Y-25.27
X27.27Y-30.35
X27.27Y-32.89
X29.81Y-2.73
X29.81Y-5.27
X29.81Y-10.35
X29.81Y-12.89
X29.81Y-22.73
X29.81Y-25.27
X29.81Y-30.35
X29.81Y-32.89
X32.35Y-2.73
X32.35Y-5.27
X32.35Y-10.35
X32.35Y-12.89
X32.35Y-22.73
X32.35Y-25.27
X32.35Y-30.35
X32.35Y-32.89
X34.89Y-2.73
X34.89Y-5.27
X34.89Y-10.35
X34.89Y-12.89
X34.89Y-22.73
X34.89Y-25.27
X34.89Y-30.35
X34.89Y-32.89
X37.43Y-2.73
X37.43Y-5.27
X37.43Y-10.35
X37.43Y-12.89
X37.43Y-22.73
X37.43Y-25.27
X37.43Y-30.35
X37.43Y-32.89
X39.97Y-2.73
X39.97Y-5.27
X39.97Y-10.35
X39.97Y-12.89
X39.97Y-22.73
X39.97Y-25.27
X39.97Y-30.35
X39.97Y-32.89
X42.51Y-2.73
X42.51Y-5.27
X42.51Y-10.35
X42.51Y-12.89
X42.51Y-22.73
X42.51Y-25.27
X42.51Y-30.35
X42.51Y-32.89
X45.05Y-2.73
X45.05Y-5.27
X45.05Y-10.35
X45.05Y-12.89
X45.05Y-22.73
X45.05Y-25.27
X45.05Y-30.35
X45.05Y-32.89
X47.59Y-2.73
X47.59Y-5.27
X47.59Y-10.35
X47.59Y-12.89
X47.59Y-22.73
X47.59Y-25.27
X47.59Y-30.35
X47.59Y-32.89
X50.13Y-2.73
X50.13Y-5.27
X50.13Y-10.35
X50.13Y-12.89
X50.13Y-22.73
X50.13Y-25.27
X50.13Y-30.35
X50.13Y-32.89
M30
