%TF.GenerationSoftware,KiCad,Pcbnew,9.0.7*%
%TF.CreationDate,2026-05-29T19:15:42+02:00*%
%TF.ProjectId,BarePi_RTC,42617265-5069-45f5-9254-432e6b696361,rev?*%
%TF.SameCoordinates,Original*%
%TF.FileFunction,Copper,L2,Bot*%
%TF.FilePolarity,Positive*%
%FSLAX46Y46*%
G04 Gerber Fmt 4.6, Leading zero omitted, Abs format (unit mm)*
G04 Created by KiCad (PCBNEW 9.0.7) date 2026-05-29 19:15:42*
%MOMM*%
%LPD*%
G01*
G04 APERTURE LIST*
G04 Aperture macros list*
%AMOutline4P*
0 Free polygon, 4 corners , with rotation*
0 The origin of the aperture is its center*
0 number of corners: always 4*
0 $1 to $8 corner X, Y*
0 $9 Rotation angle, in degrees counterclockwise*
0 create outline with 4 corners*
4,1,4,$1,$2,$3,$4,$5,$6,$7,$8,$1,$2,$9*%
G04 Aperture macros list end*
%ADD10C,0.150000*%
%TA.AperFunction,NonConductor*%
%ADD11C,0.150000*%
%TD*%
%ADD12C,0.375000*%
%ADD13C,0.500000*%
%TA.AperFunction,ComponentPad*%
%ADD14Outline4P,-1.600000X-0.800000X1.600000X-0.800000X1.600000X0.800000X-1.600000X0.800000X0.000000*%
%TD*%
%TA.AperFunction,ComponentPad*%
%ADD15O,3.200000X1.600000*%
%TD*%
%TA.AperFunction,ComponentPad*%
%ADD16Outline4P,-1.500000X-0.800000X1.500000X-0.800000X1.500000X0.800000X-1.500000X0.800000X270.000000*%
%TD*%
%TA.AperFunction,ComponentPad*%
%ADD17O,1.600000X3.000000*%
%TD*%
%TA.AperFunction,ComponentPad*%
%ADD18R,3.000000X3.000000*%
%TD*%
%TA.AperFunction,ComponentPad*%
%ADD19C,3.000000*%
%TD*%
%TA.AperFunction,ViaPad*%
%ADD20C,1.600000*%
%TD*%
%TA.AperFunction,Conductor*%
%ADD21C,0.800000*%
%TD*%
%TA.AperFunction,Conductor*%
%ADD22C,0.600000*%
%TD*%
%TA.AperFunction,Conductor*%
%ADD23C,0.330000*%
%TD*%
G04 APERTURE END LIST*
D10*
D11*
X1706395Y-19566077D02*
X1737347Y-19627982D01*
X1737347Y-19627982D02*
X1737347Y-19720839D01*
X1737347Y-19720839D02*
X1706395Y-19813696D01*
X1706395Y-19813696D02*
X1644490Y-19875601D01*
X1644490Y-19875601D02*
X1582585Y-19906554D01*
X1582585Y-19906554D02*
X1458776Y-19937506D01*
X1458776Y-19937506D02*
X1365919Y-19937506D01*
X1365919Y-19937506D02*
X1242109Y-19906554D01*
X1242109Y-19906554D02*
X1180204Y-19875601D01*
X1180204Y-19875601D02*
X1118300Y-19813696D01*
X1118300Y-19813696D02*
X1087347Y-19720839D01*
X1087347Y-19720839D02*
X1087347Y-19658935D01*
X1087347Y-19658935D02*
X1118300Y-19566077D01*
X1118300Y-19566077D02*
X1149252Y-19535125D01*
X1149252Y-19535125D02*
X1365919Y-19535125D01*
X1365919Y-19535125D02*
X1365919Y-19658935D01*
X1087347Y-19256554D02*
X1737347Y-19256554D01*
X1737347Y-19256554D02*
X1087347Y-18885125D01*
X1087347Y-18885125D02*
X1737347Y-18885125D01*
X1087347Y-18575602D02*
X1737347Y-18575602D01*
X1737347Y-18575602D02*
X1737347Y-18420840D01*
X1737347Y-18420840D02*
X1706395Y-18327983D01*
X1706395Y-18327983D02*
X1644490Y-18266078D01*
X1644490Y-18266078D02*
X1582585Y-18235125D01*
X1582585Y-18235125D02*
X1458776Y-18204173D01*
X1458776Y-18204173D02*
X1365919Y-18204173D01*
X1365919Y-18204173D02*
X1242109Y-18235125D01*
X1242109Y-18235125D02*
X1180204Y-18266078D01*
X1180204Y-18266078D02*
X1118300Y-18327983D01*
X1118300Y-18327983D02*
X1087347Y-18420840D01*
X1087347Y-18420840D02*
X1087347Y-18575602D01*
X1334966Y-17925602D02*
X1334966Y-17430364D01*
X1118300Y-17151792D02*
X1087347Y-17058935D01*
X1087347Y-17058935D02*
X1087347Y-16904173D01*
X1087347Y-16904173D02*
X1118300Y-16842268D01*
X1118300Y-16842268D02*
X1149252Y-16811316D01*
X1149252Y-16811316D02*
X1211157Y-16780363D01*
X1211157Y-16780363D02*
X1273061Y-16780363D01*
X1273061Y-16780363D02*
X1334966Y-16811316D01*
X1334966Y-16811316D02*
X1365919Y-16842268D01*
X1365919Y-16842268D02*
X1396871Y-16904173D01*
X1396871Y-16904173D02*
X1427823Y-17027982D01*
X1427823Y-17027982D02*
X1458776Y-17089887D01*
X1458776Y-17089887D02*
X1489728Y-17120840D01*
X1489728Y-17120840D02*
X1551633Y-17151792D01*
X1551633Y-17151792D02*
X1613538Y-17151792D01*
X1613538Y-17151792D02*
X1675442Y-17120840D01*
X1675442Y-17120840D02*
X1706395Y-17089887D01*
X1706395Y-17089887D02*
X1737347Y-17027982D01*
X1737347Y-17027982D02*
X1737347Y-16873221D01*
X1737347Y-16873221D02*
X1706395Y-16780363D01*
X1087347Y-16501792D02*
X1737347Y-16501792D01*
X1737347Y-16501792D02*
X1737347Y-16347030D01*
X1737347Y-16347030D02*
X1706395Y-16254173D01*
X1706395Y-16254173D02*
X1644490Y-16192268D01*
X1644490Y-16192268D02*
X1582585Y-16161315D01*
X1582585Y-16161315D02*
X1458776Y-16130363D01*
X1458776Y-16130363D02*
X1365919Y-16130363D01*
X1365919Y-16130363D02*
X1242109Y-16161315D01*
X1242109Y-16161315D02*
X1180204Y-16192268D01*
X1180204Y-16192268D02*
X1118300Y-16254173D01*
X1118300Y-16254173D02*
X1087347Y-16347030D01*
X1087347Y-16347030D02*
X1087347Y-16501792D01*
X1273061Y-15882744D02*
X1273061Y-15573220D01*
X1087347Y-15944649D02*
X1737347Y-15727982D01*
X1737347Y-15727982D02*
X1087347Y-15511315D01*
X1334966Y-15294649D02*
X1334966Y-14799411D01*
X1118300Y-14520839D02*
X1087347Y-14427982D01*
X1087347Y-14427982D02*
X1087347Y-14273220D01*
X1087347Y-14273220D02*
X1118300Y-14211315D01*
X1118300Y-14211315D02*
X1149252Y-14180363D01*
X1149252Y-14180363D02*
X1211157Y-14149410D01*
X1211157Y-14149410D02*
X1273061Y-14149410D01*
X1273061Y-14149410D02*
X1334966Y-14180363D01*
X1334966Y-14180363D02*
X1365919Y-14211315D01*
X1365919Y-14211315D02*
X1396871Y-14273220D01*
X1396871Y-14273220D02*
X1427823Y-14397029D01*
X1427823Y-14397029D02*
X1458776Y-14458934D01*
X1458776Y-14458934D02*
X1489728Y-14489887D01*
X1489728Y-14489887D02*
X1551633Y-14520839D01*
X1551633Y-14520839D02*
X1613538Y-14520839D01*
X1613538Y-14520839D02*
X1675442Y-14489887D01*
X1675442Y-14489887D02*
X1706395Y-14458934D01*
X1706395Y-14458934D02*
X1737347Y-14397029D01*
X1737347Y-14397029D02*
X1737347Y-14242268D01*
X1737347Y-14242268D02*
X1706395Y-14149410D01*
X1149252Y-13499410D02*
X1118300Y-13530362D01*
X1118300Y-13530362D02*
X1087347Y-13623220D01*
X1087347Y-13623220D02*
X1087347Y-13685124D01*
X1087347Y-13685124D02*
X1118300Y-13777981D01*
X1118300Y-13777981D02*
X1180204Y-13839886D01*
X1180204Y-13839886D02*
X1242109Y-13870839D01*
X1242109Y-13870839D02*
X1365919Y-13901791D01*
X1365919Y-13901791D02*
X1458776Y-13901791D01*
X1458776Y-13901791D02*
X1582585Y-13870839D01*
X1582585Y-13870839D02*
X1644490Y-13839886D01*
X1644490Y-13839886D02*
X1706395Y-13777981D01*
X1706395Y-13777981D02*
X1737347Y-13685124D01*
X1737347Y-13685124D02*
X1737347Y-13623220D01*
X1737347Y-13623220D02*
X1706395Y-13530362D01*
X1706395Y-13530362D02*
X1675442Y-13499410D01*
X1087347Y-12911315D02*
X1087347Y-13220839D01*
X1087347Y-13220839D02*
X1737347Y-13220839D01*
X1334966Y-12694649D02*
X1334966Y-12199411D01*
X1737347Y-11951791D02*
X1737347Y-11549410D01*
X1737347Y-11549410D02*
X1489728Y-11766077D01*
X1489728Y-11766077D02*
X1489728Y-11673220D01*
X1489728Y-11673220D02*
X1458776Y-11611315D01*
X1458776Y-11611315D02*
X1427823Y-11580363D01*
X1427823Y-11580363D02*
X1365919Y-11549410D01*
X1365919Y-11549410D02*
X1211157Y-11549410D01*
X1211157Y-11549410D02*
X1149252Y-11580363D01*
X1149252Y-11580363D02*
X1118300Y-11611315D01*
X1118300Y-11611315D02*
X1087347Y-11673220D01*
X1087347Y-11673220D02*
X1087347Y-11858934D01*
X1087347Y-11858934D02*
X1118300Y-11920839D01*
X1118300Y-11920839D02*
X1149252Y-11951791D01*
X1737347Y-11363696D02*
X1087347Y-11147029D01*
X1087347Y-11147029D02*
X1737347Y-10930362D01*
X1737347Y-10775600D02*
X1737347Y-10373219D01*
X1737347Y-10373219D02*
X1489728Y-10589886D01*
X1489728Y-10589886D02*
X1489728Y-10497029D01*
X1489728Y-10497029D02*
X1458776Y-10435124D01*
X1458776Y-10435124D02*
X1427823Y-10404172D01*
X1427823Y-10404172D02*
X1365919Y-10373219D01*
X1365919Y-10373219D02*
X1211157Y-10373219D01*
X1211157Y-10373219D02*
X1149252Y-10404172D01*
X1149252Y-10404172D02*
X1118300Y-10435124D01*
X1118300Y-10435124D02*
X1087347Y-10497029D01*
X1087347Y-10497029D02*
X1087347Y-10682743D01*
X1087347Y-10682743D02*
X1118300Y-10744648D01*
X1118300Y-10744648D02*
X1149252Y-10775600D01*
D10*
D11*
X1118300Y-32537506D02*
X1087347Y-32444649D01*
X1087347Y-32444649D02*
X1087347Y-32289887D01*
X1087347Y-32289887D02*
X1118300Y-32227982D01*
X1118300Y-32227982D02*
X1149252Y-32197030D01*
X1149252Y-32197030D02*
X1211157Y-32166077D01*
X1211157Y-32166077D02*
X1273061Y-32166077D01*
X1273061Y-32166077D02*
X1334966Y-32197030D01*
X1334966Y-32197030D02*
X1365919Y-32227982D01*
X1365919Y-32227982D02*
X1396871Y-32289887D01*
X1396871Y-32289887D02*
X1427823Y-32413696D01*
X1427823Y-32413696D02*
X1458776Y-32475601D01*
X1458776Y-32475601D02*
X1489728Y-32506554D01*
X1489728Y-32506554D02*
X1551633Y-32537506D01*
X1551633Y-32537506D02*
X1613538Y-32537506D01*
X1613538Y-32537506D02*
X1675442Y-32506554D01*
X1675442Y-32506554D02*
X1706395Y-32475601D01*
X1706395Y-32475601D02*
X1737347Y-32413696D01*
X1737347Y-32413696D02*
X1737347Y-32258935D01*
X1737347Y-32258935D02*
X1706395Y-32166077D01*
X1087347Y-31887506D02*
X1737347Y-31887506D01*
X1737347Y-31887506D02*
X1737347Y-31732744D01*
X1737347Y-31732744D02*
X1706395Y-31639887D01*
X1706395Y-31639887D02*
X1644490Y-31577982D01*
X1644490Y-31577982D02*
X1582585Y-31547029D01*
X1582585Y-31547029D02*
X1458776Y-31516077D01*
X1458776Y-31516077D02*
X1365919Y-31516077D01*
X1365919Y-31516077D02*
X1242109Y-31547029D01*
X1242109Y-31547029D02*
X1180204Y-31577982D01*
X1180204Y-31577982D02*
X1118300Y-31639887D01*
X1118300Y-31639887D02*
X1087347Y-31732744D01*
X1087347Y-31732744D02*
X1087347Y-31887506D01*
X1273061Y-31268458D02*
X1273061Y-30958934D01*
X1087347Y-31330363D02*
X1737347Y-31113696D01*
X1737347Y-31113696D02*
X1087347Y-30897029D01*
X1334966Y-30680363D02*
X1334966Y-30185125D01*
X1118300Y-29906553D02*
X1087347Y-29813696D01*
X1087347Y-29813696D02*
X1087347Y-29658934D01*
X1087347Y-29658934D02*
X1118300Y-29597029D01*
X1118300Y-29597029D02*
X1149252Y-29566077D01*
X1149252Y-29566077D02*
X1211157Y-29535124D01*
X1211157Y-29535124D02*
X1273061Y-29535124D01*
X1273061Y-29535124D02*
X1334966Y-29566077D01*
X1334966Y-29566077D02*
X1365919Y-29597029D01*
X1365919Y-29597029D02*
X1396871Y-29658934D01*
X1396871Y-29658934D02*
X1427823Y-29782743D01*
X1427823Y-29782743D02*
X1458776Y-29844648D01*
X1458776Y-29844648D02*
X1489728Y-29875601D01*
X1489728Y-29875601D02*
X1551633Y-29906553D01*
X1551633Y-29906553D02*
X1613538Y-29906553D01*
X1613538Y-29906553D02*
X1675442Y-29875601D01*
X1675442Y-29875601D02*
X1706395Y-29844648D01*
X1706395Y-29844648D02*
X1737347Y-29782743D01*
X1737347Y-29782743D02*
X1737347Y-29627982D01*
X1737347Y-29627982D02*
X1706395Y-29535124D01*
X1149252Y-28885124D02*
X1118300Y-28916076D01*
X1118300Y-28916076D02*
X1087347Y-29008934D01*
X1087347Y-29008934D02*
X1087347Y-29070838D01*
X1087347Y-29070838D02*
X1118300Y-29163695D01*
X1118300Y-29163695D02*
X1180204Y-29225600D01*
X1180204Y-29225600D02*
X1242109Y-29256553D01*
X1242109Y-29256553D02*
X1365919Y-29287505D01*
X1365919Y-29287505D02*
X1458776Y-29287505D01*
X1458776Y-29287505D02*
X1582585Y-29256553D01*
X1582585Y-29256553D02*
X1644490Y-29225600D01*
X1644490Y-29225600D02*
X1706395Y-29163695D01*
X1706395Y-29163695D02*
X1737347Y-29070838D01*
X1737347Y-29070838D02*
X1737347Y-29008934D01*
X1737347Y-29008934D02*
X1706395Y-28916076D01*
X1706395Y-28916076D02*
X1675442Y-28885124D01*
X1087347Y-28297029D02*
X1087347Y-28606553D01*
X1087347Y-28606553D02*
X1737347Y-28606553D01*
X1334966Y-28080363D02*
X1334966Y-27585125D01*
X1706395Y-26935124D02*
X1737347Y-26997029D01*
X1737347Y-26997029D02*
X1737347Y-27089886D01*
X1737347Y-27089886D02*
X1706395Y-27182743D01*
X1706395Y-27182743D02*
X1644490Y-27244648D01*
X1644490Y-27244648D02*
X1582585Y-27275601D01*
X1582585Y-27275601D02*
X1458776Y-27306553D01*
X1458776Y-27306553D02*
X1365919Y-27306553D01*
X1365919Y-27306553D02*
X1242109Y-27275601D01*
X1242109Y-27275601D02*
X1180204Y-27244648D01*
X1180204Y-27244648D02*
X1118300Y-27182743D01*
X1118300Y-27182743D02*
X1087347Y-27089886D01*
X1087347Y-27089886D02*
X1087347Y-27027982D01*
X1087347Y-27027982D02*
X1118300Y-26935124D01*
X1118300Y-26935124D02*
X1149252Y-26904172D01*
X1149252Y-26904172D02*
X1365919Y-26904172D01*
X1365919Y-26904172D02*
X1365919Y-27027982D01*
X1087347Y-26625601D02*
X1737347Y-26625601D01*
X1737347Y-26625601D02*
X1087347Y-26254172D01*
X1087347Y-26254172D02*
X1737347Y-26254172D01*
X1087347Y-25944649D02*
X1737347Y-25944649D01*
X1737347Y-25944649D02*
X1737347Y-25789887D01*
X1737347Y-25789887D02*
X1706395Y-25697030D01*
X1706395Y-25697030D02*
X1644490Y-25635125D01*
X1644490Y-25635125D02*
X1582585Y-25604172D01*
X1582585Y-25604172D02*
X1458776Y-25573220D01*
X1458776Y-25573220D02*
X1365919Y-25573220D01*
X1365919Y-25573220D02*
X1242109Y-25604172D01*
X1242109Y-25604172D02*
X1180204Y-25635125D01*
X1180204Y-25635125D02*
X1118300Y-25697030D01*
X1118300Y-25697030D02*
X1087347Y-25789887D01*
X1087347Y-25789887D02*
X1087347Y-25944649D01*
X1334966Y-25294649D02*
X1334966Y-24799411D01*
X1737347Y-24551791D02*
X1737347Y-24149410D01*
X1737347Y-24149410D02*
X1489728Y-24366077D01*
X1489728Y-24366077D02*
X1489728Y-24273220D01*
X1489728Y-24273220D02*
X1458776Y-24211315D01*
X1458776Y-24211315D02*
X1427823Y-24180363D01*
X1427823Y-24180363D02*
X1365919Y-24149410D01*
X1365919Y-24149410D02*
X1211157Y-24149410D01*
X1211157Y-24149410D02*
X1149252Y-24180363D01*
X1149252Y-24180363D02*
X1118300Y-24211315D01*
X1118300Y-24211315D02*
X1087347Y-24273220D01*
X1087347Y-24273220D02*
X1087347Y-24458934D01*
X1087347Y-24458934D02*
X1118300Y-24520839D01*
X1118300Y-24520839D02*
X1149252Y-24551791D01*
X1737347Y-23963696D02*
X1087347Y-23747029D01*
X1087347Y-23747029D02*
X1737347Y-23530362D01*
X1737347Y-23375600D02*
X1737347Y-22973219D01*
X1737347Y-22973219D02*
X1489728Y-23189886D01*
X1489728Y-23189886D02*
X1489728Y-23097029D01*
X1489728Y-23097029D02*
X1458776Y-23035124D01*
X1458776Y-23035124D02*
X1427823Y-23004172D01*
X1427823Y-23004172D02*
X1365919Y-22973219D01*
X1365919Y-22973219D02*
X1211157Y-22973219D01*
X1211157Y-22973219D02*
X1149252Y-23004172D01*
X1149252Y-23004172D02*
X1118300Y-23035124D01*
X1118300Y-23035124D02*
X1087347Y-23097029D01*
X1087347Y-23097029D02*
X1087347Y-23282743D01*
X1087347Y-23282743D02*
X1118300Y-23344648D01*
X1118300Y-23344648D02*
X1149252Y-23375600D01*
D12*
G36*
X62506631Y-14136497D02*
G01*
X62581695Y-14161107D01*
X62649310Y-14201854D01*
X62706272Y-14256581D01*
X62751883Y-14326010D01*
X62786147Y-14412880D01*
X62820714Y-14352141D01*
X62864627Y-14301060D01*
X62918587Y-14258640D01*
X62979505Y-14226997D01*
X63043810Y-14208135D01*
X63112669Y-14201762D01*
X63176426Y-14207035D01*
X63234756Y-14222459D01*
X63288707Y-14247924D01*
X63360090Y-14300363D01*
X63414461Y-14363146D01*
X63453390Y-14436352D01*
X63476560Y-14519950D01*
X63487085Y-14618902D01*
X63491489Y-14785839D01*
X63491489Y-15386310D01*
X61985000Y-15386310D01*
X61985000Y-14875048D01*
X61986220Y-14802233D01*
X62237058Y-14802233D01*
X62237058Y-15082960D01*
X62641524Y-15082960D01*
X62641524Y-14884207D01*
X62893583Y-14884207D01*
X62893583Y-15082960D01*
X63239431Y-15082960D01*
X63239431Y-14908754D01*
X63234302Y-14649551D01*
X63223653Y-14600931D01*
X63205945Y-14563640D01*
X63181728Y-14535337D01*
X63133202Y-14506936D01*
X63069071Y-14496869D01*
X63022625Y-14502127D01*
X62984271Y-14517060D01*
X62952201Y-14541474D01*
X62917431Y-14592590D01*
X62898712Y-14663839D01*
X62893583Y-14884207D01*
X62641524Y-14884207D01*
X62641524Y-14838046D01*
X62634446Y-14648994D01*
X62619817Y-14569134D01*
X62591159Y-14513665D01*
X62550666Y-14474337D01*
X62499275Y-14450092D01*
X62435170Y-14441548D01*
X62383071Y-14446706D01*
X62340944Y-14461127D01*
X62306667Y-14484138D01*
X62267897Y-14532419D01*
X62246309Y-14594230D01*
X62240140Y-14652923D01*
X62237058Y-14802233D01*
X61986220Y-14802233D01*
X61989422Y-14611019D01*
X61995258Y-14509234D01*
X62009779Y-14430475D01*
X62033789Y-14363256D01*
X62066699Y-14305810D01*
X62109375Y-14255103D01*
X62160821Y-14211829D01*
X62222037Y-14175659D01*
X62288124Y-14148985D01*
X62354564Y-14133256D01*
X62422072Y-14128032D01*
X62506631Y-14136497D01*
G37*
G36*
X62882629Y-12485479D02*
G01*
X63012165Y-12511082D01*
X63124759Y-12551685D01*
X63222821Y-12606537D01*
X63308216Y-12675764D01*
X63381523Y-12759275D01*
X63438587Y-12852532D01*
X63480126Y-12956906D01*
X63505942Y-13074288D01*
X63514937Y-13206992D01*
X63507874Y-13328164D01*
X63487650Y-13435460D01*
X63455311Y-13530766D01*
X63421200Y-13598214D01*
X63376244Y-13662840D01*
X63319481Y-13725031D01*
X63221927Y-13804341D01*
X63112760Y-13864799D01*
X63006313Y-13901418D01*
X62878705Y-13925023D01*
X62726063Y-13933492D01*
X62580360Y-13924600D01*
X62453470Y-13899304D01*
X62342688Y-13859093D01*
X62245734Y-13804636D01*
X62160854Y-13735747D01*
X62088332Y-13652984D01*
X62031732Y-13560021D01*
X61990421Y-13455418D01*
X61964679Y-13337201D01*
X61955757Y-13203969D01*
X62213611Y-13203969D01*
X62222164Y-13291954D01*
X62246976Y-13369870D01*
X62287910Y-13439816D01*
X62346326Y-13503197D01*
X62415273Y-13551862D01*
X62500767Y-13588587D01*
X62606334Y-13612372D01*
X62736321Y-13620983D01*
X62869012Y-13612460D01*
X62975354Y-13589072D01*
X63060152Y-13553262D01*
X63127323Y-13506220D01*
X63183864Y-13444566D01*
X63223916Y-13374844D01*
X63248470Y-13295435D01*
X63257016Y-13203969D01*
X63248529Y-13112344D01*
X63224200Y-13033161D01*
X63184619Y-12963997D01*
X63128880Y-12903184D01*
X63062548Y-12856861D01*
X62978496Y-12821530D01*
X62872750Y-12798414D01*
X62740443Y-12789978D01*
X62606824Y-12798593D01*
X62499456Y-12822260D01*
X62413582Y-12858552D01*
X62345319Y-12906298D01*
X62287439Y-12968870D01*
X62246810Y-13038263D01*
X62222133Y-13115915D01*
X62213611Y-13203969D01*
X61955757Y-13203969D01*
X61955690Y-13202962D01*
X61964671Y-13070595D01*
X61990437Y-12953645D01*
X62031873Y-12849779D01*
X62088777Y-12757093D01*
X62161862Y-12674207D01*
X62247045Y-12605481D01*
X62344697Y-12551046D01*
X62456644Y-12510773D01*
X62585247Y-12485395D01*
X62733299Y-12476461D01*
X62882629Y-12485479D01*
G37*
G36*
X61985000Y-11901361D02*
G01*
X63239431Y-11901361D01*
X63239431Y-12347135D01*
X63491489Y-12347135D01*
X63491489Y-11153337D01*
X63239431Y-11153337D01*
X63239431Y-11598103D01*
X61985000Y-11598103D01*
X61985000Y-11901361D01*
G37*
G36*
X61985000Y-10619086D02*
G01*
X63239431Y-10619086D01*
X63239431Y-11064860D01*
X63491489Y-11064860D01*
X63491489Y-9871062D01*
X63239431Y-9871062D01*
X63239431Y-10315828D01*
X61985000Y-10315828D01*
X61985000Y-10619086D01*
G37*
G36*
X62882629Y-8326512D02*
G01*
X63012165Y-8352115D01*
X63124759Y-8392717D01*
X63222821Y-8447570D01*
X63308216Y-8516796D01*
X63381523Y-8600308D01*
X63438587Y-8693565D01*
X63480126Y-8797939D01*
X63505942Y-8915321D01*
X63514937Y-9048025D01*
X63507874Y-9169197D01*
X63487650Y-9276493D01*
X63455311Y-9371799D01*
X63421200Y-9439247D01*
X63376244Y-9503873D01*
X63319481Y-9566064D01*
X63221927Y-9645374D01*
X63112760Y-9705832D01*
X63006313Y-9742451D01*
X62878705Y-9766056D01*
X62726063Y-9774525D01*
X62580360Y-9765633D01*
X62453470Y-9740337D01*
X62342688Y-9700126D01*
X62245734Y-9645668D01*
X62160854Y-9576780D01*
X62088332Y-9494017D01*
X62031732Y-9401054D01*
X61990421Y-9296451D01*
X61964679Y-9178234D01*
X61955757Y-9045002D01*
X62213611Y-9045002D01*
X62222164Y-9132987D01*
X62246976Y-9210903D01*
X62287910Y-9280848D01*
X62346326Y-9344230D01*
X62415273Y-9392895D01*
X62500767Y-9429619D01*
X62606334Y-9453405D01*
X62736321Y-9462016D01*
X62869012Y-9453492D01*
X62975354Y-9430105D01*
X63060152Y-9394294D01*
X63127323Y-9347253D01*
X63183864Y-9285598D01*
X63223916Y-9215877D01*
X63248470Y-9136468D01*
X63257016Y-9045002D01*
X63248529Y-8953377D01*
X63224200Y-8874194D01*
X63184619Y-8805029D01*
X63128880Y-8744217D01*
X63062548Y-8697894D01*
X62978496Y-8662563D01*
X62872750Y-8639447D01*
X62740443Y-8631010D01*
X62606824Y-8639625D01*
X62499456Y-8663292D01*
X62413582Y-8699585D01*
X62345319Y-8747331D01*
X62287439Y-8809902D01*
X62246810Y-8879296D01*
X62222133Y-8956948D01*
X62213611Y-9045002D01*
X61955757Y-9045002D01*
X61955690Y-9043995D01*
X61964671Y-8911628D01*
X61990437Y-8794678D01*
X62031873Y-8690812D01*
X62088777Y-8598126D01*
X62161862Y-8515239D01*
X62247045Y-8446514D01*
X62344697Y-8392078D01*
X62456644Y-8351806D01*
X62585247Y-8326427D01*
X62733299Y-8317494D01*
X62882629Y-8326512D01*
G37*
G36*
X61985000Y-8084670D02*
G01*
X63491489Y-8084670D01*
X63491489Y-7630744D01*
X62463838Y-7358169D01*
X63491489Y-7088709D01*
X63491489Y-6633684D01*
X61985000Y-6633684D01*
X61985000Y-6915510D01*
X63170829Y-6915510D01*
X61985000Y-7213639D01*
X61985000Y-7505723D01*
X63170829Y-7802844D01*
X61985000Y-7802844D01*
X61985000Y-8084670D01*
G37*
D13*
G36*
X42490683Y-45660000D02*
G01*
X41809001Y-45660000D01*
X41456961Y-45654103D01*
X41321248Y-45646322D01*
X41216237Y-45626960D01*
X41126611Y-45594947D01*
X41050016Y-45551067D01*
X40982407Y-45494165D01*
X40924708Y-45425571D01*
X40876482Y-45343949D01*
X40840916Y-45255833D01*
X40819944Y-45167247D01*
X40812979Y-45077236D01*
X40814727Y-45059773D01*
X41231000Y-45059773D01*
X41237878Y-45129238D01*
X41257106Y-45185407D01*
X41287787Y-45231109D01*
X41352162Y-45282803D01*
X41434577Y-45311587D01*
X41512834Y-45319813D01*
X41711914Y-45323921D01*
X42086217Y-45323921D01*
X42086217Y-44784633D01*
X41759664Y-44784633D01*
X41507595Y-44794071D01*
X41401115Y-44813576D01*
X41327156Y-44851786D01*
X41274720Y-44905778D01*
X41242392Y-44974299D01*
X41231000Y-45059773D01*
X40814727Y-45059773D01*
X40824265Y-44964491D01*
X40857079Y-44864405D01*
X40911409Y-44774253D01*
X40984378Y-44698303D01*
X41076950Y-44637488D01*
X41192776Y-44591803D01*
X41111791Y-44545713D01*
X41043683Y-44487162D01*
X40987124Y-44415216D01*
X40944932Y-44333992D01*
X40919783Y-44248252D01*
X40916666Y-44214570D01*
X41304762Y-44214570D01*
X41311773Y-44276499D01*
X41331683Y-44327637D01*
X41364235Y-44370397D01*
X41432390Y-44416758D01*
X41527389Y-44441716D01*
X41821213Y-44448555D01*
X42086217Y-44448555D01*
X42086217Y-43987424D01*
X41853942Y-43987424D01*
X41508338Y-43994263D01*
X41443511Y-44008462D01*
X41393789Y-44032072D01*
X41356053Y-44064361D01*
X41318184Y-44129063D01*
X41304762Y-44214570D01*
X40916666Y-44214570D01*
X40911286Y-44156441D01*
X40918316Y-44071431D01*
X40938882Y-43993657D01*
X40972836Y-43921723D01*
X41042754Y-43826546D01*
X41126464Y-43754050D01*
X41224073Y-43702145D01*
X41335536Y-43671252D01*
X41467473Y-43657218D01*
X41690055Y-43651346D01*
X42490683Y-43651346D01*
X42490683Y-45660000D01*
G37*
G36*
X40052409Y-44175003D02*
G01*
X40168583Y-44196367D01*
X40260953Y-44228768D01*
X40333774Y-44270624D01*
X40417219Y-44348690D01*
X40484742Y-44452986D01*
X40535885Y-44589239D01*
X40187473Y-44651765D01*
X40143757Y-44558843D01*
X40094660Y-44505830D01*
X40029822Y-44475625D01*
X39934803Y-44464187D01*
X39833807Y-44471146D01*
X39768570Y-44488542D01*
X39728540Y-44512669D01*
X39699935Y-44548902D01*
X39681004Y-44601107D01*
X39673830Y-44674968D01*
X39673830Y-44714291D01*
X39799070Y-44754803D01*
X40046789Y-44809057D01*
X40233562Y-44854009D01*
X40352092Y-44899061D01*
X40418002Y-44938799D01*
X40472481Y-44987986D01*
X40516712Y-45047316D01*
X40549039Y-45114025D01*
X40568700Y-45187018D01*
X40575452Y-45267745D01*
X40567059Y-45358837D01*
X40542764Y-45439438D01*
X40502882Y-45511621D01*
X40446370Y-45576835D01*
X40378611Y-45628670D01*
X40298835Y-45666648D01*
X40204706Y-45690589D01*
X40093195Y-45699078D01*
X39969275Y-45686748D01*
X39854081Y-45650230D01*
X39747051Y-45590299D01*
X39643666Y-45503684D01*
X39629988Y-45548136D01*
X39593108Y-45660000D01*
X39213310Y-45660000D01*
X39256809Y-45556053D01*
X39282309Y-45464117D01*
X39295270Y-45360026D01*
X39300749Y-45180307D01*
X39299506Y-45041210D01*
X39673830Y-45041210D01*
X39678565Y-45168754D01*
X39688851Y-45229277D01*
X39722087Y-45298089D01*
X39780442Y-45356894D01*
X39845857Y-45395726D01*
X39911443Y-45418140D01*
X39978523Y-45425526D01*
X40038061Y-45418673D01*
X40088371Y-45399014D01*
X40131541Y-45366542D01*
X40165250Y-45324216D01*
X40184957Y-45278043D01*
X40191625Y-45226468D01*
X40183471Y-45175358D01*
X40159204Y-45130751D01*
X40116520Y-45090669D01*
X40052637Y-45061684D01*
X39907448Y-45023381D01*
X39673830Y-44964396D01*
X39673830Y-45041210D01*
X39299506Y-45041210D01*
X39296719Y-44729434D01*
X39304280Y-44559464D01*
X39322996Y-44449952D01*
X39348010Y-44383709D01*
X39388303Y-44326933D01*
X39446101Y-44275203D01*
X39524964Y-44228370D01*
X39611534Y-44197331D01*
X39735379Y-44175561D01*
X39907448Y-44167187D01*
X40052409Y-44175003D01*
G37*
G36*
X38551534Y-45660000D02*
G01*
X38935484Y-45660000D01*
X38935484Y-44206266D01*
X38578889Y-44206266D01*
X38578889Y-44412529D01*
X38484684Y-44282019D01*
X38414270Y-44216769D01*
X38336711Y-44179735D01*
X38248307Y-44167187D01*
X38162770Y-44175062D01*
X38078921Y-44198835D01*
X37995515Y-44239483D01*
X38114339Y-44573852D01*
X38211718Y-44525476D01*
X38294713Y-44511081D01*
X38370181Y-44522618D01*
X38431367Y-44555900D01*
X38478212Y-44613087D01*
X38519416Y-44717711D01*
X38541149Y-44866422D01*
X38551534Y-45208150D01*
X38551534Y-45660000D01*
G37*
G36*
X37417526Y-44180523D02*
G01*
X37541682Y-44219194D01*
X37653166Y-44282894D01*
X37754203Y-44373572D01*
X37833658Y-44481356D01*
X37892306Y-44609532D01*
X37929509Y-44762094D01*
X37942759Y-44944124D01*
X37932929Y-45096626D01*
X37904900Y-45229835D01*
X37860171Y-45346615D01*
X37799266Y-45449340D01*
X37720893Y-45537267D01*
X37628262Y-45605773D01*
X37519336Y-45656079D01*
X37390988Y-45687823D01*
X37239217Y-45699078D01*
X37083255Y-45685673D01*
X36952065Y-45647786D01*
X36840979Y-45587215D01*
X36746214Y-45503406D01*
X36668632Y-45396163D01*
X36607972Y-45261395D01*
X36990456Y-45198869D01*
X37031557Y-45294702D01*
X37083390Y-45353963D01*
X37150623Y-45389601D01*
X37235065Y-45402079D01*
X37319316Y-45391355D01*
X37392120Y-45360127D01*
X37456349Y-45307435D01*
X37504422Y-45239278D01*
X37535961Y-45152666D01*
X37549284Y-45042554D01*
X36587455Y-45042554D01*
X36593382Y-44857266D01*
X36600742Y-44808080D01*
X36968596Y-44808080D01*
X37542445Y-44808080D01*
X37533208Y-44705126D01*
X37505820Y-44622846D01*
X37461845Y-44556755D01*
X37402105Y-44505175D01*
X37333823Y-44474673D01*
X37254116Y-44464187D01*
X37179561Y-44473980D01*
X37113893Y-44502770D01*
X37054692Y-44551870D01*
X37010757Y-44615190D01*
X36981337Y-44698662D01*
X36968596Y-44808080D01*
X36600742Y-44808080D01*
X36616463Y-44703009D01*
X36654045Y-44575098D01*
X36704331Y-44469429D01*
X36766485Y-44382609D01*
X36867129Y-44289424D01*
X36983523Y-44222852D01*
X37118790Y-44181650D01*
X37277441Y-44167187D01*
X37417526Y-44180523D01*
G37*
G36*
X36272626Y-45660000D02*
G01*
X35868282Y-45660000D01*
X35868282Y-44901870D01*
X35604622Y-44901870D01*
X35346195Y-44893492D01*
X35185135Y-44873049D01*
X35081230Y-44838500D01*
X34975330Y-44777916D01*
X34911706Y-44725075D01*
X34855068Y-44659611D01*
X34805215Y-44579958D01*
X34769292Y-44493445D01*
X34746435Y-44390859D01*
X34738709Y-44275265D01*
X35155093Y-44275265D01*
X35166818Y-44361028D01*
X35200889Y-44433778D01*
X35254945Y-44492444D01*
X35327284Y-44533796D01*
X35427620Y-44555604D01*
X35646998Y-44565792D01*
X35868282Y-44565792D01*
X35868282Y-43987424D01*
X35672888Y-43987424D01*
X35472387Y-43991877D01*
X35381873Y-44001346D01*
X35319566Y-44019651D01*
X35265863Y-44049598D01*
X35219329Y-44091716D01*
X35184186Y-44143165D01*
X35162648Y-44203540D01*
X35155093Y-44275265D01*
X34738709Y-44275265D01*
X34738293Y-44269036D01*
X34752330Y-44113107D01*
X34791725Y-43984620D01*
X34854430Y-43878126D01*
X34939493Y-43787768D01*
X35034978Y-43723028D01*
X35142759Y-43681510D01*
X35286373Y-43661162D01*
X35623673Y-43651346D01*
X36272626Y-43651346D01*
X36272626Y-45660000D01*
G37*
G36*
X34409298Y-44003056D02*
G01*
X34409298Y-43651346D01*
X34025470Y-43651346D01*
X34025470Y-44003056D01*
X34409298Y-44003056D01*
G37*
G36*
X34409298Y-45660000D02*
G01*
X34409298Y-44206266D01*
X34025470Y-44206266D01*
X34025470Y-45660000D01*
X34409298Y-45660000D01*
G37*
G36*
X32849929Y-45660000D02*
G01*
X32445463Y-45660000D01*
X32445463Y-44823712D01*
X32363519Y-44823712D01*
X32233645Y-44830460D01*
X32159943Y-44846304D01*
X32098992Y-44877261D01*
X32038310Y-44929469D01*
X31971235Y-45012968D01*
X31825208Y-45223538D01*
X31532850Y-45660000D01*
X31049249Y-45660000D01*
X31293736Y-45269211D01*
X31434808Y-45055540D01*
X31524057Y-44944002D01*
X31618207Y-44858240D01*
X31740578Y-44775840D01*
X31609458Y-44747620D01*
X31502140Y-44706493D01*
X31414791Y-44653800D01*
X31344416Y-44589849D01*
X31287236Y-44512508D01*
X31246083Y-44425652D01*
X31220650Y-44327488D01*
X31213707Y-44239849D01*
X31628471Y-44239849D01*
X31639305Y-44325825D01*
X31669503Y-44392379D01*
X31717985Y-44444109D01*
X31782832Y-44478353D01*
X31881844Y-44494851D01*
X32146265Y-44503265D01*
X32445463Y-44503265D01*
X32445463Y-43987424D01*
X32129901Y-43987424D01*
X31834734Y-43994385D01*
X31745733Y-44023565D01*
X31682448Y-44074131D01*
X31653230Y-44118937D01*
X31634974Y-44173333D01*
X31628471Y-44239849D01*
X31213707Y-44239849D01*
X31211792Y-44215669D01*
X31221842Y-44099199D01*
X31251094Y-43994219D01*
X31299231Y-43898520D01*
X31364907Y-43814469D01*
X31442088Y-43750822D01*
X31532239Y-43705568D01*
X31632017Y-43678552D01*
X31782250Y-43659003D01*
X31998743Y-43651346D01*
X32849929Y-43651346D01*
X32849929Y-45660000D01*
G37*
G36*
X30380023Y-45660000D02*
G01*
X30380023Y-43987424D01*
X30974388Y-43987424D01*
X30974388Y-43651346D01*
X29382658Y-43651346D01*
X29382658Y-43987424D01*
X29975679Y-43987424D01*
X29975679Y-45660000D01*
X30380023Y-45660000D01*
G37*
G36*
X27839653Y-44917501D02*
G01*
X27447522Y-45042554D01*
X27503472Y-45204584D01*
X27572575Y-45337421D01*
X27653881Y-45445314D01*
X27747452Y-45531528D01*
X27855578Y-45599504D01*
X27978489Y-45649248D01*
X28118756Y-45680358D01*
X28279535Y-45691263D01*
X28437344Y-45679777D01*
X28579592Y-45646493D01*
X28708790Y-45592289D01*
X28826944Y-45516850D01*
X28935449Y-45418688D01*
X29024904Y-45306186D01*
X29095651Y-45177990D01*
X29147888Y-45031828D01*
X29180733Y-44864778D01*
X29192270Y-44673381D01*
X29180461Y-44469732D01*
X29147024Y-44293914D01*
X29094212Y-44141959D01*
X29023214Y-44010481D01*
X28934106Y-43896810D01*
X28825249Y-43797920D01*
X28704859Y-43721456D01*
X28571317Y-43666145D01*
X28422315Y-43631951D01*
X28254988Y-43620083D01*
X28073551Y-43634715D01*
X27916202Y-43676530D01*
X27778723Y-43743916D01*
X27657937Y-43837337D01*
X27577968Y-43930330D01*
X27509306Y-44051392D01*
X27453017Y-44206266D01*
X27853331Y-44300055D01*
X27886470Y-44201647D01*
X27935766Y-44120633D01*
X28001586Y-44054225D01*
X28080886Y-44004665D01*
X28171224Y-43974467D01*
X28275505Y-43963977D01*
X28383773Y-43974430D01*
X28478417Y-44004584D01*
X28562205Y-44054049D01*
X28636984Y-44124323D01*
X28692520Y-44206817D01*
X28735875Y-44316115D01*
X28764846Y-44458930D01*
X28775592Y-44643339D01*
X28764765Y-44840343D01*
X28735822Y-44990410D01*
X28693018Y-45102937D01*
X28638938Y-45185802D01*
X28565047Y-45256828D01*
X28482557Y-45306631D01*
X28389679Y-45336897D01*
X28283687Y-45347369D01*
X28180174Y-45335598D01*
X28088694Y-45301242D01*
X28006349Y-45243688D01*
X27940194Y-45167322D01*
X27884084Y-45061163D01*
X27839653Y-44917501D01*
G37*
D14*
%TO.P,J4,1,Pin_1*%
%TO.N,/3V3*%
X10500000Y-11250000D03*
D15*
%TO.P,J4,2,Pin_2*%
%TO.N,/BUS_SCL*%
X10500000Y-13790000D03*
%TO.P,J4,3,Pin_3*%
%TO.N,/BUS_SDA*%
X10500000Y-16330000D03*
%TO.P,J4,4,Pin_4*%
%TO.N,/GND*%
X10500000Y-18870000D03*
%TD*%
D16*
%TO.P,J2,1,Pin_1*%
%TO.N,/5V*%
X8370000Y-39370000D03*
D17*
%TO.P,J2,2,Pin_2*%
X8370000Y-36030000D03*
%TO.P,J2,3,Pin_3*%
%TO.N,/3V3*%
X10910000Y-39370000D03*
%TO.P,J2,4,Pin_4*%
X10910000Y-36030000D03*
%TO.P,J2,5,Pin_5*%
%TO.N,/BUS_SDA*%
X13450000Y-39370000D03*
%TO.P,J2,6,Pin_6*%
%TO.N,/BUS_SCL*%
X13450000Y-36030000D03*
%TO.P,J2,7,Pin_7*%
%TO.N,/I2C_SDA*%
X15990000Y-39370000D03*
%TO.P,J2,8,Pin_8*%
%TO.N,/I2C_SCL*%
X15990000Y-36030000D03*
%TO.P,J2,9,Pin_9*%
%TO.N,/KEY_ALT*%
X18530000Y-39370000D03*
%TO.P,J2,10,Pin_10*%
%TO.N,/KEY_DOWN*%
X18530000Y-36030000D03*
%TO.P,J2,11,Pin_11*%
%TO.N,/KEY_UP*%
X21070000Y-39370000D03*
%TO.P,J2,12,Pin_12*%
%TO.N,/SPI_CS1*%
X21070000Y-36030000D03*
%TO.P,J2,13,Pin_13*%
%TO.N,/SPI_CS0*%
X23610000Y-39370000D03*
%TO.P,J2,14,Pin_14*%
%TO.N,/SPI_MISO*%
X23610000Y-36030000D03*
%TO.P,J2,15,Pin_15*%
%TO.N,/SPI_MOSI*%
X26150000Y-39370000D03*
%TO.P,J2,16,Pin_16*%
%TO.N,/SPI_SCLK*%
X26150000Y-36030000D03*
%TO.P,J2,17,Pin_17*%
%TO.N,/PWM_L*%
X28690000Y-39370000D03*
%TO.P,J2,18,Pin_18*%
%TO.N,/PWM_R*%
X28690000Y-36030000D03*
%TO.P,J2,19,Pin_19*%
%TO.N,/UART_TX*%
X31230000Y-39370000D03*
%TO.P,J2,20,Pin_20*%
%TO.N,/UART_RX*%
X31230000Y-36030000D03*
%TO.P,J2,21,Pin_21*%
%TO.N,/LCD_DC*%
X33770000Y-39370000D03*
%TO.P,J2,22,Pin_22*%
%TO.N,/LCD_RES*%
X33770000Y-36030000D03*
%TO.P,J2,23,Pin_23*%
%TO.N,/LCD_CS*%
X36310000Y-39370000D03*
%TO.P,J2,24,Pin_24*%
%TO.N,/LCD_BL*%
X36310000Y-36030000D03*
%TO.P,J2,25,Pin_25*%
%TO.N,/LCD_MOSI*%
X38850000Y-39370000D03*
%TO.P,J2,26,Pin_26*%
%TO.N,/LCD_SCK*%
X38850000Y-36030000D03*
%TO.P,J2,27,Pin_27*%
%TO.N,/KEY_A*%
X41390000Y-39370000D03*
%TO.P,J2,28,Pin_28*%
%TO.N,/KEY_B*%
X41390000Y-36030000D03*
%TO.P,J2,29,Pin_29*%
%TO.N,/KEY_X*%
X43930000Y-39370000D03*
%TO.P,J2,30,Pin_30*%
%TO.N,/KEY_RIGHT*%
X43930000Y-36030000D03*
%TO.P,J2,31,Pin_31*%
%TO.N,/KEY_LEFT*%
X46470000Y-39370000D03*
%TO.P,J2,32,Pin_32*%
%TO.N,/KEY_Y*%
X46470000Y-36030000D03*
%TO.P,J2,33,Pin_33*%
%TO.N,/SD_CS*%
X49010000Y-39370000D03*
%TO.P,J2,34,Pin_34*%
%TO.N,/SD_MISO*%
X49010000Y-36030000D03*
%TO.P,J2,35,Pin_35*%
%TO.N,/SD_MOSI*%
X51550000Y-39370000D03*
%TO.P,J2,36,Pin_36*%
%TO.N,/SD_SCLK*%
X51550000Y-36030000D03*
%TO.P,J2,37,Pin_37*%
%TO.N,/USR_LED*%
X54090000Y-39370000D03*
%TO.P,J2,38,Pin_38*%
%TO.N,/RESET*%
X54090000Y-36030000D03*
%TO.P,J2,39,Pin_39*%
%TO.N,/GND*%
X56630000Y-39370000D03*
%TO.P,J2,40,Pin_40*%
X56630000Y-36030000D03*
%TD*%
D18*
%TO.P,BT1,1,+*%
%TO.N,Net-(BT1-+)*%
X39000000Y-21500000D03*
D19*
%TO.P,BT1,2,-*%
%TO.N,/GND*%
X59800000Y-21500000D03*
%TD*%
D16*
%TO.P,J1,1,Pin_1*%
%TO.N,/5V*%
X8370000Y-3830000D03*
D17*
%TO.P,J1,2,Pin_2*%
X8370000Y-7170000D03*
%TO.P,J1,3,Pin_3*%
%TO.N,/3V3*%
X10910000Y-3830000D03*
%TO.P,J1,4,Pin_4*%
X10910000Y-7170000D03*
%TO.P,J1,5,Pin_5*%
%TO.N,/BUS_SDA*%
X13450000Y-3830000D03*
%TO.P,J1,6,Pin_6*%
%TO.N,/BUS_SCL*%
X13450000Y-7170000D03*
%TO.P,J1,7,Pin_7*%
%TO.N,/I2C_SDA*%
X15990000Y-3830000D03*
%TO.P,J1,8,Pin_8*%
%TO.N,/I2C_SCL*%
X15990000Y-7170000D03*
%TO.P,J1,9,Pin_9*%
%TO.N,/KEY_ALT*%
X18530000Y-3830000D03*
%TO.P,J1,10,Pin_10*%
%TO.N,/KEY_DOWN*%
X18530000Y-7170000D03*
%TO.P,J1,11,Pin_11*%
%TO.N,/KEY_UP*%
X21070000Y-3830000D03*
%TO.P,J1,12,Pin_12*%
%TO.N,/SPI_CS1*%
X21070000Y-7170000D03*
%TO.P,J1,13,Pin_13*%
%TO.N,/SPI_CS0*%
X23610000Y-3830000D03*
%TO.P,J1,14,Pin_14*%
%TO.N,/SPI_MISO*%
X23610000Y-7170000D03*
%TO.P,J1,15,Pin_15*%
%TO.N,/SPI_MOSI*%
X26150000Y-3830000D03*
%TO.P,J1,16,Pin_16*%
%TO.N,/SPI_SCLK*%
X26150000Y-7170000D03*
%TO.P,J1,17,Pin_17*%
%TO.N,/PWM_L*%
X28690000Y-3830000D03*
%TO.P,J1,18,Pin_18*%
%TO.N,/PWM_R*%
X28690000Y-7170000D03*
%TO.P,J1,19,Pin_19*%
%TO.N,/UART_TX*%
X31230000Y-3830000D03*
%TO.P,J1,20,Pin_20*%
%TO.N,/UART_RX*%
X31230000Y-7170000D03*
%TO.P,J1,21,Pin_21*%
%TO.N,/LCD_DC*%
X33770000Y-3830000D03*
%TO.P,J1,22,Pin_22*%
%TO.N,/LCD_RES*%
X33770000Y-7170000D03*
%TO.P,J1,23,Pin_23*%
%TO.N,/LCD_CS*%
X36310000Y-3830000D03*
%TO.P,J1,24,Pin_24*%
%TO.N,/LCD_BL*%
X36310000Y-7170000D03*
%TO.P,J1,25,Pin_25*%
%TO.N,/LCD_MOSI*%
X38850000Y-3830000D03*
%TO.P,J1,26,Pin_26*%
%TO.N,/LCD_SCK*%
X38850000Y-7170000D03*
%TO.P,J1,27,Pin_27*%
%TO.N,/KEY_A*%
X41390000Y-3830000D03*
%TO.P,J1,28,Pin_28*%
%TO.N,/KEY_B*%
X41390000Y-7170000D03*
%TO.P,J1,29,Pin_29*%
%TO.N,/KEY_X*%
X43930000Y-3830000D03*
%TO.P,J1,30,Pin_30*%
%TO.N,/KEY_RIGHT*%
X43930000Y-7170000D03*
%TO.P,J1,31,Pin_31*%
%TO.N,/KEY_LEFT*%
X46470000Y-3830000D03*
%TO.P,J1,32,Pin_32*%
%TO.N,/KEY_Y*%
X46470000Y-7170000D03*
%TO.P,J1,33,Pin_33*%
%TO.N,/SD_CS*%
X49010000Y-3830000D03*
%TO.P,J1,34,Pin_34*%
%TO.N,/SD_MISO*%
X49010000Y-7170000D03*
%TO.P,J1,35,Pin_35*%
%TO.N,/SD_MOSI*%
X51550000Y-3830000D03*
%TO.P,J1,36,Pin_36*%
%TO.N,/SD_SCLK*%
X51550000Y-7170000D03*
%TO.P,J1,37,Pin_37*%
%TO.N,/USR_LED*%
X54090000Y-3830000D03*
%TO.P,J1,38,Pin_38*%
%TO.N,/RESET*%
X54090000Y-7170000D03*
%TO.P,J1,39,Pin_39*%
%TO.N,/GND*%
X56630000Y-3830000D03*
%TO.P,J1,40,Pin_40*%
X56630000Y-7170000D03*
%TD*%
D14*
%TO.P,J3,1,Pin_1*%
%TO.N,/3V3*%
X10500000Y-23750000D03*
D15*
%TO.P,J3,2,Pin_2*%
%TO.N,/GND*%
X10500000Y-26290000D03*
%TO.P,J3,3,Pin_3*%
%TO.N,/BUS_SCL*%
X10500000Y-28830000D03*
%TO.P,J3,4,Pin_4*%
%TO.N,/BUS_SDA*%
X10500000Y-31370000D03*
%TD*%
D20*
%TO.N,Net-(BT1-+)*%
X39160000Y-26650000D03*
%TO.N,/BUS_SDA*%
X15289999Y-10860001D03*
X13370000Y-31220000D03*
%TO.N,/BUS_SCL*%
X15120000Y-20427171D03*
%TD*%
D21*
%TO.N,/3V3*%
X10470000Y-23780000D02*
X10500000Y-23750000D01*
X6160000Y-23780000D02*
X10470000Y-23780000D01*
D22*
%TO.N,/BUS_SCL*%
X14950000Y-20597171D02*
X15120000Y-20427171D01*
X14950000Y-25440000D02*
X14950000Y-20597171D01*
X11560000Y-28830000D02*
X14950000Y-25440000D01*
X8860000Y-28830000D02*
X11560000Y-28830000D01*
X8299000Y-31950313D02*
X8299000Y-29391000D01*
X9119687Y-32771000D02*
X8299000Y-31950313D01*
X8299000Y-29391000D02*
X8860000Y-28830000D01*
X9986949Y-33410000D02*
X9347949Y-32771000D01*
X9347949Y-32771000D02*
X9119687Y-32771000D01*
X12769313Y-33410000D02*
X9986949Y-33410000D01*
X13450000Y-36430000D02*
X13450000Y-34090687D01*
X13450000Y-34090687D02*
X12769313Y-33410000D01*
%TO.N,/BUS_SDA*%
X10750000Y-31120000D02*
X13270000Y-31120000D01*
X10500000Y-31370000D02*
X10750000Y-31120000D01*
X13270000Y-31120000D02*
X13370000Y-31220000D01*
D21*
%TO.N,/3V3*%
X10910000Y-35747265D02*
X10910000Y-36430000D01*
X5950000Y-31015527D02*
X8705474Y-33771001D01*
X5950000Y-13420000D02*
X5950000Y-31015527D01*
X8070000Y-11300000D02*
X5950000Y-13420000D01*
X8705474Y-33771001D02*
X8933735Y-33771000D01*
X8933735Y-33771000D02*
X10910000Y-35747265D01*
%TO.N,/GND*%
X11060000Y-18870000D02*
X10500000Y-18870000D01*
X13280000Y-21090000D02*
X11060000Y-18870000D01*
X13280000Y-24910000D02*
X13280000Y-21090000D01*
X12150000Y-26040000D02*
X13280000Y-24910000D01*
X10750000Y-26040000D02*
X12150000Y-26040000D01*
X10500000Y-26290000D02*
X10750000Y-26040000D01*
%TO.N,/3V3*%
X10700000Y-11300000D02*
X8100000Y-11300000D01*
X10910000Y-11090000D02*
X10700000Y-11300000D01*
X10910000Y-6770000D02*
X10910000Y-11090000D01*
D22*
%TO.N,/BUS_SCL*%
X10670000Y-13870000D02*
X13370000Y-13870000D01*
X10640000Y-13900000D02*
X10670000Y-13870000D01*
D21*
%TO.N,/GND*%
X56630000Y-19240000D02*
X56630000Y-6770000D01*
X58890000Y-21500000D02*
X56630000Y-19240000D01*
X59800000Y-21500000D02*
X58890000Y-21500000D01*
D22*
%TO.N,/LCD_MOSI*%
X40160000Y-27629899D02*
X40160000Y-34080000D01*
X41101000Y-26688899D02*
X40160000Y-27629899D01*
X41101000Y-19399000D02*
X41101000Y-26688899D01*
X40860000Y-19399000D02*
X41101000Y-19399000D01*
X40860000Y-19158000D02*
X40860000Y-19399000D01*
X40124000Y-18422000D02*
X40860000Y-19158000D01*
%TO.N,/KEY_A*%
X42901000Y-27434483D02*
X42660000Y-27675483D01*
%TO.N,/LCD_MOSI*%
X40124000Y-8714000D02*
X40124000Y-18422000D01*
%TO.N,/KEY_A*%
X42660000Y-18412416D02*
X42901000Y-18653416D01*
X42660000Y-8704000D02*
X42660000Y-18412416D01*
X42656000Y-8700000D02*
X42660000Y-8704000D01*
%TO.N,/KEY_B*%
X41390000Y-27672691D02*
X41390000Y-36430000D01*
X42001000Y-27061691D02*
X41390000Y-27672691D01*
X41390000Y-18415208D02*
X42001000Y-19026208D01*
X42001000Y-19026208D02*
X42001000Y-27061691D01*
%TO.N,/KEY_A*%
X42901000Y-18653416D02*
X42901000Y-27434483D01*
X42660000Y-27675483D02*
X42660000Y-34610000D01*
%TO.N,/KEY_B*%
X41390000Y-6770000D02*
X41390000Y-18415208D01*
%TO.N,/LCD_SCK*%
X38850000Y-28319899D02*
X38850000Y-36430000D01*
X36899000Y-26368899D02*
X38850000Y-28319899D01*
X38850000Y-16130000D02*
X36899000Y-18081000D01*
X36899000Y-18081000D02*
X36899000Y-26368899D01*
X38850000Y-6770000D02*
X38850000Y-16130000D01*
%TO.N,/UART_TX*%
X32399000Y-8811000D02*
X32530000Y-8680000D01*
X32399000Y-28232859D02*
X32399000Y-8811000D01*
X32480000Y-28313859D02*
X32399000Y-28232859D01*
%TO.N,/LCD_RES*%
X33770000Y-28331067D02*
X33770000Y-36430000D01*
%TO.N,/UART_TX*%
X32480000Y-34160000D02*
X32480000Y-28313859D01*
%TO.N,/LCD_RES*%
X33770000Y-15778832D02*
X33299000Y-16249832D01*
X33770000Y-6770000D02*
X33770000Y-15778832D01*
%TO.N,/LCD_DC*%
X35070000Y-15751624D02*
X35070000Y-8709999D01*
X34199000Y-16622624D02*
X35070000Y-15751624D01*
X34199000Y-27487275D02*
X34199000Y-16622624D01*
X35010000Y-28298275D02*
X34199000Y-27487275D01*
X35010000Y-34454000D02*
X35010000Y-28298275D01*
X35036000Y-34480000D02*
X35010000Y-34454000D01*
%TO.N,/LCD_RES*%
X33299000Y-16249832D02*
X33299000Y-27860067D01*
%TO.N,/LCD_BL*%
X36310000Y-28325483D02*
X36310000Y-36430000D01*
X35099000Y-27114483D02*
X36310000Y-28325483D01*
%TO.N,/LCD_RES*%
X33299000Y-27860067D02*
X33770000Y-28331067D01*
%TO.N,/LCD_BL*%
X35099000Y-16995416D02*
X35099000Y-27114483D01*
X36310000Y-15784416D02*
X35099000Y-16995416D01*
X36310000Y-6770000D02*
X36310000Y-15784416D01*
%TO.N,/LCD_CS*%
X35999000Y-26741691D02*
X35999000Y-17368208D01*
X35999000Y-17368208D02*
X37580000Y-15787208D01*
X37580000Y-8589313D02*
X37584000Y-8585313D01*
X37570000Y-34410000D02*
X37570000Y-28312691D01*
X37570000Y-28312691D02*
X35999000Y-26741691D01*
X37580000Y-15787208D02*
X37580000Y-8589313D01*
%TO.N,/UART_TX*%
X32496000Y-34176000D02*
X32480000Y-34160000D01*
%TO.N,/LCD_CS*%
X37576000Y-34416000D02*
X37570000Y-34410000D01*
%TO.N,/BUS_SDA*%
X15620000Y-11190002D02*
X14716000Y-10286002D01*
X15620000Y-17415895D02*
X15620000Y-11190002D01*
X14716000Y-10286002D02*
X14716000Y-9360000D01*
X16520000Y-18315895D02*
X15620000Y-17415895D01*
X16520000Y-29679657D02*
X16520000Y-18315895D01*
X15009314Y-31099657D02*
X15054657Y-31145000D01*
X15054657Y-31145000D02*
X16520000Y-29679657D01*
%TO.N,/BUS_SCL*%
X15120000Y-20200000D02*
X15120000Y-20427171D01*
X13490000Y-18570000D02*
X15120000Y-20200000D01*
X13490000Y-14146000D02*
X13490000Y-18570000D01*
X13470000Y-6790000D02*
X13470000Y-14126000D01*
X13450000Y-6770000D02*
X13470000Y-6790000D01*
D21*
%TO.N,/5V*%
X4630000Y-32690000D02*
X8370000Y-36430000D01*
X4630000Y-10510000D02*
X4630000Y-32690000D01*
X8370000Y-6770000D02*
X4630000Y-10510000D01*
D22*
%TO.N,/UART_RX*%
X31230000Y-8655208D02*
X31230000Y-6770000D01*
X31210000Y-8675208D02*
X31230000Y-8655208D01*
X31230000Y-27083960D02*
X31210000Y-27063960D01*
X31230000Y-36430000D02*
X31230000Y-27083960D01*
X31210000Y-27063960D02*
X31210000Y-8675208D01*
%TO.N,/PWM_R*%
X28690000Y-6770000D02*
X28690000Y-36430000D01*
%TO.N,/SPI_SCLK*%
X26150000Y-6770000D02*
X26150000Y-36430000D01*
%TO.N,/SPI_CS0*%
X24850000Y-34120000D02*
X24876000Y-34146000D01*
X24900000Y-8820000D02*
X24850000Y-8870000D01*
X24850000Y-8870000D02*
X24850000Y-34120000D01*
%TO.N,/I2C_SCL*%
X15990000Y-33242105D02*
X15990000Y-36430000D01*
X16260671Y-9249358D02*
X17470000Y-10458687D01*
X16260671Y-8818047D02*
X16260671Y-9249358D01*
X15990000Y-8547376D02*
X16260671Y-8818047D01*
X15990000Y-6770000D02*
X15990000Y-8547376D01*
%TO.N,/I2C_SDA*%
X17264000Y-33240897D02*
X17264000Y-34226000D01*
X18370000Y-10085895D02*
X18370000Y-32134897D01*
X17330000Y-9045895D02*
X18370000Y-10085895D01*
X17330000Y-8630000D02*
X17330000Y-9045895D01*
%TO.N,/I2C_SCL*%
X17470000Y-10458687D02*
X17470000Y-31762105D01*
%TO.N,/KEY_DOWN*%
X18530000Y-33247689D02*
X18530000Y-36430000D01*
X19270000Y-32507689D02*
X18530000Y-33247689D01*
X19270000Y-9713103D02*
X19270000Y-32507689D01*
X18530000Y-8973103D02*
X19270000Y-9713103D01*
X18530000Y-6770000D02*
X18530000Y-8973103D01*
%TO.N,/KEY_ALT*%
X20170000Y-9210000D02*
X19730000Y-8770000D01*
%TO.N,/KEY_UP*%
X22340000Y-8624000D02*
X22344000Y-8620000D01*
%TO.N,/KEY_ALT*%
X20170000Y-32880481D02*
X20170000Y-9210000D01*
X19796000Y-34266000D02*
X19796000Y-33254481D01*
%TO.N,/SPI_CS1*%
X21080000Y-34250000D02*
X21070000Y-34260000D01*
%TO.N,/I2C_SDA*%
X18370000Y-32134897D02*
X17264000Y-33240897D01*
%TO.N,/I2C_SCL*%
X17470000Y-31762105D02*
X15990000Y-33242105D01*
%TO.N,/SPI_CS1*%
X21070000Y-33233273D02*
X21080000Y-33243273D01*
%TO.N,/KEY_UP*%
X22336000Y-34150000D02*
X22340000Y-34146000D01*
X22340000Y-34146000D02*
X22340000Y-8624000D01*
%TO.N,/SPI_CS1*%
X21080000Y-33243273D02*
X21080000Y-34250000D01*
X21070000Y-6770000D02*
X21070000Y-33233273D01*
%TO.N,/KEY_ALT*%
X19796000Y-33254481D02*
X20170000Y-32880481D01*
%TO.N,/SPI_CS1*%
X21070000Y-34260000D02*
X21070000Y-36430000D01*
%TO.N,/SPI_MISO*%
X23740000Y-36300000D02*
X23610000Y-36430000D01*
X23740000Y-8743208D02*
X23740000Y-36300000D01*
X23610000Y-8613208D02*
X23740000Y-8743208D01*
X23610000Y-6770000D02*
X23610000Y-8613208D01*
%TO.N,/BUS_SDA*%
X14716000Y-31392971D02*
X15009314Y-31099657D01*
X14716000Y-34314000D02*
X14716000Y-31392971D01*
X13490343Y-31099657D02*
X13370000Y-31220000D01*
X15009314Y-31099657D02*
X13490343Y-31099657D01*
D21*
%TO.N,Net-(BT1-+)*%
X39000000Y-21500000D02*
X39000000Y-26490000D01*
X39000000Y-26490000D02*
X39160000Y-26650000D01*
D22*
%TO.N,/KEY_RIGHT*%
X43930000Y-36430000D02*
X43930000Y-6770000D01*
D21*
%TO.N,/GND*%
X56630000Y-36430000D02*
X56630000Y-38970000D01*
X56630000Y-24670000D02*
X59800000Y-21500000D01*
X56630000Y-4230000D02*
X56630000Y-6770000D01*
X56630000Y-36430000D02*
X56630000Y-24670000D01*
D23*
%TO.N,/LCD_DC*%
X35044000Y-5504000D02*
X35044000Y-8564000D01*
X33770000Y-4230000D02*
X35044000Y-5504000D01*
X33770000Y-38970000D02*
X35036000Y-37704000D01*
X35036000Y-37704000D02*
X35036000Y-34480000D01*
D22*
%TO.N,/PWM_L*%
X29956000Y-34400000D02*
X29970000Y-34386000D01*
X29970000Y-34386000D02*
X29970000Y-8617998D01*
D23*
X28690000Y-4230000D02*
X29956000Y-5496000D01*
X29956000Y-37704000D02*
X29956000Y-34400000D01*
X29956000Y-5496000D02*
X29956001Y-8603999D01*
X28690000Y-38970000D02*
X29956000Y-37704000D01*
D21*
%TO.N,/3V3*%
X10910000Y-36430000D02*
X10910000Y-38970000D01*
X10910000Y-4230000D02*
X10910000Y-6770000D01*
D23*
%TO.N,/BUS_SDA*%
X13450000Y-4230000D02*
X14716000Y-5496000D01*
X13450000Y-38970000D02*
X14716000Y-37704000D01*
X14716000Y-5496000D02*
X14716000Y-9360000D01*
X14716000Y-37704000D02*
X14716000Y-34314000D01*
%TO.N,/SPI_MOSI*%
X27424000Y-5504000D02*
X27424000Y-8577313D01*
D22*
X27380000Y-8841313D02*
X27380000Y-34150000D01*
D23*
X26150000Y-4230000D02*
X27424000Y-5504000D01*
X26150000Y-38970000D02*
X27416000Y-37704000D01*
D22*
X27460000Y-8761313D02*
X27380000Y-8841313D01*
D23*
X27416000Y-37704000D02*
X27416000Y-34274000D01*
D22*
%TO.N,/KEY_Y*%
X46470000Y-36430000D02*
X46470000Y-6770000D01*
D23*
%TO.N,/KEY_A*%
X42664000Y-37696000D02*
X42664000Y-34614000D01*
X42656000Y-5496000D02*
X42656000Y-8700000D01*
X41390000Y-38970000D02*
X42664000Y-37696000D01*
X41390000Y-4230000D02*
X42656000Y-5496000D01*
X42664000Y-34614000D02*
X42660000Y-34610000D01*
D21*
%TO.N,/5V*%
X8370000Y-4230000D02*
X8370000Y-6770000D01*
X8370000Y-36430000D02*
X8370000Y-38970000D01*
D22*
%TO.N,/KEY_X*%
X45196000Y-8504000D02*
X45196000Y-34194000D01*
D23*
X43930000Y-4230000D02*
X45196000Y-5496000D01*
X43930000Y-38970000D02*
X45196000Y-37704000D01*
X45196000Y-37704000D02*
X45196000Y-34194000D01*
X45196000Y-5496000D02*
X45196000Y-8504000D01*
%TO.N,/KEY_LEFT*%
X47736000Y-5496000D02*
X47736000Y-8996000D01*
D22*
X47740000Y-9000000D02*
X47740000Y-34380000D01*
X47736000Y-8996000D02*
X47740000Y-9000000D01*
D23*
X47736000Y-37704000D02*
X47736000Y-34516000D01*
X46470000Y-4230000D02*
X47736000Y-5496000D01*
X46470000Y-38970000D02*
X47736000Y-37704000D01*
%TO.N,/LCD_MOSI*%
X40124000Y-34116000D02*
X40160000Y-34080000D01*
X38850000Y-38970000D02*
X40124000Y-37696000D01*
X38850000Y-4230000D02*
X40124000Y-5504000D01*
X40124000Y-5504000D02*
X40124000Y-8714000D01*
X40124000Y-37696000D02*
X40124000Y-34116000D01*
%TO.N,/SPI_CS0*%
X23610000Y-38970000D02*
X24876000Y-37704000D01*
X24876000Y-37704000D02*
X24876000Y-34146000D01*
X24884000Y-5504000D02*
X24884000Y-8804000D01*
X23610000Y-4230000D02*
X24884000Y-5504000D01*
%TO.N,/I2C_SDA*%
X15990000Y-4230000D02*
X17264000Y-5504000D01*
X17264000Y-37696000D02*
X17264000Y-34226000D01*
X17264000Y-5504000D02*
X17264000Y-8564000D01*
X17264000Y-8564000D02*
X17330000Y-8630000D01*
X15990000Y-38970000D02*
X17264000Y-37696000D01*
%TO.N,/KEY_UP*%
X21070000Y-38970000D02*
X22336000Y-37704000D01*
X21070000Y-4230000D02*
X22344000Y-5504000D01*
X22336000Y-37704000D02*
X22336000Y-34150000D01*
X22344000Y-5504000D02*
X22344000Y-8620000D01*
%TO.N,/UART_TX*%
X31230000Y-38970000D02*
X32496000Y-37704000D01*
X31230000Y-4230000D02*
X32504000Y-5504000D01*
X32496000Y-37704000D02*
X32496000Y-34176000D01*
X32504000Y-5504000D02*
X32504000Y-8654000D01*
%TO.N,/LCD_CS*%
X36310000Y-4230000D02*
X37584000Y-5504000D01*
X36310000Y-38970000D02*
X37576000Y-37704000D01*
X37584000Y-5504000D02*
X37584000Y-8585313D01*
X37576000Y-37704000D02*
X37576000Y-34416000D01*
%TO.N,/KEY_ALT*%
X18530000Y-4230000D02*
X19796000Y-5496000D01*
X19796000Y-5496000D02*
X19796000Y-8704000D01*
X19796000Y-8704000D02*
X19730000Y-8770000D01*
X19796000Y-37704000D02*
X19796000Y-34266000D01*
X18530000Y-38970000D02*
X19796000Y-37704000D01*
%TO.N,/SD_MOSI*%
X51550000Y-4230000D02*
X52824000Y-5504000D01*
X52824000Y-5504000D02*
X52824000Y-8840000D01*
D22*
X52824000Y-8840000D02*
X52824000Y-34378000D01*
D23*
X52816000Y-37704000D02*
X52816000Y-34386000D01*
X51550000Y-38970000D02*
X52816000Y-37704000D01*
D22*
%TO.N,/SD_SCLK*%
X51550000Y-36430000D02*
X51550000Y-6770000D01*
%TO.N,/RESET*%
X54090000Y-36430000D02*
X54090000Y-6770000D01*
%TO.N,/SD_MISO*%
X49010000Y-36430000D02*
X49010000Y-6770000D01*
D23*
%TO.N,/SD_CS*%
X50276000Y-37254394D02*
X50276000Y-34506000D01*
X49010000Y-38520394D02*
X50276000Y-37254394D01*
D22*
X50276000Y-34506000D02*
X50276000Y-8760000D01*
D23*
X49010000Y-4230000D02*
X50276000Y-5496000D01*
X50276000Y-5496000D02*
X50276000Y-8760000D01*
X49010000Y-38970000D02*
X49010000Y-38520394D01*
D22*
%TO.N,/USR_LED*%
X55370000Y-34462000D02*
X55370000Y-8663999D01*
D23*
X55356000Y-5496000D02*
X55356001Y-8650000D01*
X55360000Y-37700000D02*
X55360000Y-34480000D01*
D22*
X55370000Y-8663999D02*
X55356001Y-8650000D01*
D23*
X54090000Y-4230000D02*
X55356000Y-5496000D01*
X55360000Y-34480000D02*
X55356000Y-34476000D01*
X54090000Y-38970000D02*
X55360000Y-37700000D01*
%TD*%
%TA.AperFunction,Conductor*%
%TO.N,/GND*%
G36*
X8621206Y-24700185D02*
G01*
X8641848Y-24716819D01*
X8647794Y-24722765D01*
X8727235Y-24802206D01*
X8830009Y-24847585D01*
X8855135Y-24850500D01*
X9436203Y-24850499D01*
X9503240Y-24870183D01*
X9548995Y-24922987D01*
X9558939Y-24992146D01*
X9558327Y-24994776D01*
X10370589Y-25807037D01*
X10307007Y-25824075D01*
X10192993Y-25889901D01*
X10099901Y-25982993D01*
X10034075Y-26097007D01*
X10017037Y-26160589D01*
X9029208Y-25172760D01*
X9029206Y-25172759D01*
X9018656Y-25178136D01*
X8853104Y-25298417D01*
X8708417Y-25443104D01*
X8708417Y-25443105D01*
X8588140Y-25608650D01*
X8495244Y-25790968D01*
X8432009Y-25985582D01*
X8400000Y-26187682D01*
X8400000Y-26392317D01*
X8432009Y-26594417D01*
X8495244Y-26789031D01*
X8588140Y-26971349D01*
X8708417Y-27136894D01*
X8708417Y-27136895D01*
X8853104Y-27281582D01*
X9018646Y-27401856D01*
X9018649Y-27401858D01*
X9029209Y-27407238D01*
X10017037Y-26419410D01*
X10034075Y-26482993D01*
X10099901Y-26597007D01*
X10192993Y-26690099D01*
X10307007Y-26755925D01*
X10370589Y-26772962D01*
X9559585Y-27583965D01*
X9562327Y-27592403D01*
X9564322Y-27662244D01*
X9528241Y-27722077D01*
X9465540Y-27752904D01*
X9463796Y-27753193D01*
X9442300Y-27756597D01*
X9277552Y-27810128D01*
X9123211Y-27888768D01*
X9043256Y-27946859D01*
X8983072Y-27990586D01*
X8983070Y-27990588D01*
X8983069Y-27990588D01*
X8980477Y-27993181D01*
X8919154Y-28026666D01*
X8892796Y-28029500D01*
X8781155Y-28029500D01*
X8626510Y-28060261D01*
X8626498Y-28060264D01*
X8480827Y-28120602D01*
X8480814Y-28120609D01*
X8349711Y-28208210D01*
X8349707Y-28208213D01*
X7788711Y-28769211D01*
X7732960Y-28824962D01*
X7677209Y-28880712D01*
X7589609Y-29011814D01*
X7589602Y-29011827D01*
X7529264Y-29157498D01*
X7529261Y-29157510D01*
X7498500Y-29312153D01*
X7498500Y-30991165D01*
X7478815Y-31058204D01*
X7426011Y-31103959D01*
X7356853Y-31113903D01*
X7293297Y-31084878D01*
X7286819Y-31078846D01*
X6886819Y-30678846D01*
X6853334Y-30617523D01*
X6850500Y-30591165D01*
X6850500Y-24804500D01*
X6870185Y-24737461D01*
X6922989Y-24691706D01*
X6974500Y-24680500D01*
X8554167Y-24680500D01*
X8621206Y-24700185D01*
G37*
%TD.AperFunction*%
%TA.AperFunction,Conductor*%
G36*
X64542539Y-420185D02*
G01*
X64588294Y-472989D01*
X64599500Y-524500D01*
X64599500Y-47475500D01*
X64579815Y-47542539D01*
X64527011Y-47588294D01*
X64475500Y-47599500D01*
X524500Y-47599500D01*
X457461Y-47579815D01*
X411706Y-47527011D01*
X400500Y-47475500D01*
X400500Y-44385921D01*
X1759500Y-44385921D01*
X1759500Y-44614078D01*
X1789278Y-44840272D01*
X1789279Y-44840277D01*
X1789280Y-44840283D01*
X1789281Y-44840285D01*
X1848331Y-45060666D01*
X1935638Y-45271446D01*
X1935646Y-45271462D01*
X2049717Y-45469037D01*
X2049728Y-45469053D01*
X2188613Y-45650052D01*
X2188619Y-45650059D01*
X2349940Y-45811380D01*
X2349946Y-45811385D01*
X2530955Y-45950278D01*
X2530962Y-45950282D01*
X2728537Y-46064353D01*
X2728553Y-46064361D01*
X2842268Y-46111463D01*
X2939334Y-46151669D01*
X3159717Y-46210720D01*
X3319474Y-46231752D01*
X3385921Y-46240500D01*
X3385922Y-46240500D01*
X3614079Y-46240500D01*
X3665438Y-46233738D01*
X3840283Y-46210720D01*
X3863258Y-46204564D01*
X26942296Y-46204564D01*
X42996183Y-46204564D01*
X42996183Y-44385921D01*
X59759500Y-44385921D01*
X59759500Y-44614078D01*
X59789278Y-44840272D01*
X59789279Y-44840277D01*
X59789280Y-44840283D01*
X59789281Y-44840285D01*
X59848331Y-45060666D01*
X59935638Y-45271446D01*
X59935646Y-45271462D01*
X60049717Y-45469037D01*
X60049728Y-45469053D01*
X60188613Y-45650052D01*
X60188619Y-45650059D01*
X60349940Y-45811380D01*
X60349946Y-45811385D01*
X60530955Y-45950278D01*
X60530962Y-45950282D01*
X60728537Y-46064353D01*
X60728553Y-46064361D01*
X60842268Y-46111463D01*
X60939334Y-46151669D01*
X61159717Y-46210720D01*
X61319474Y-46231752D01*
X61385921Y-46240500D01*
X61385922Y-46240500D01*
X61614079Y-46240500D01*
X61665438Y-46233738D01*
X61840283Y-46210720D01*
X62060666Y-46151669D01*
X62226365Y-46083033D01*
X62271446Y-46064361D01*
X62271449Y-46064359D01*
X62271455Y-46064357D01*
X62469045Y-45950278D01*
X62650054Y-45811385D01*
X62811385Y-45650054D01*
X62950278Y-45469045D01*
X63064357Y-45271455D01*
X63151669Y-45060666D01*
X63210720Y-44840283D01*
X63240500Y-44614078D01*
X63240500Y-44385922D01*
X63210720Y-44159717D01*
X63151669Y-43939334D01*
X63111463Y-43842268D01*
X63064361Y-43728553D01*
X63064353Y-43728537D01*
X62950282Y-43530962D01*
X62950278Y-43530955D01*
X62811385Y-43349946D01*
X62811380Y-43349940D01*
X62650059Y-43188619D01*
X62650052Y-43188613D01*
X62469053Y-43049728D01*
X62469051Y-43049726D01*
X62469045Y-43049722D01*
X62469040Y-43049719D01*
X62469037Y-43049717D01*
X62271462Y-42935646D01*
X62271446Y-42935638D01*
X62060666Y-42848331D01*
X61840283Y-42789280D01*
X61840277Y-42789279D01*
X61840272Y-42789278D01*
X61614079Y-42759500D01*
X61614078Y-42759500D01*
X61385922Y-42759500D01*
X61385921Y-42759500D01*
X61159727Y-42789278D01*
X61159720Y-42789279D01*
X61159717Y-42789280D01*
X61066567Y-42814239D01*
X60939333Y-42848331D01*
X60728553Y-42935638D01*
X60728537Y-42935646D01*
X60530962Y-43049717D01*
X60530946Y-43049728D01*
X60349947Y-43188613D01*
X60349940Y-43188619D01*
X60188619Y-43349940D01*
X60188613Y-43349947D01*
X60049728Y-43530946D01*
X60049717Y-43530962D01*
X59935646Y-43728537D01*
X59935638Y-43728553D01*
X59848331Y-43939333D01*
X59789281Y-44159714D01*
X59789278Y-44159727D01*
X59759500Y-44385921D01*
X42996183Y-44385921D01*
X42996183Y-43114596D01*
X26942296Y-43114596D01*
X26942296Y-46204564D01*
X3863258Y-46204564D01*
X4060666Y-46151669D01*
X4226365Y-46083033D01*
X4271446Y-46064361D01*
X4271449Y-46064359D01*
X4271455Y-46064357D01*
X4469045Y-45950278D01*
X4650054Y-45811385D01*
X4811385Y-45650054D01*
X4950278Y-45469045D01*
X5064357Y-45271455D01*
X5151669Y-45060666D01*
X5210720Y-44840283D01*
X5240500Y-44614078D01*
X5240500Y-44385922D01*
X5210720Y-44159717D01*
X5151669Y-43939334D01*
X5111463Y-43842268D01*
X5064361Y-43728553D01*
X5064353Y-43728537D01*
X4950282Y-43530962D01*
X4950278Y-43530955D01*
X4811385Y-43349946D01*
X4811380Y-43349940D01*
X4650059Y-43188619D01*
X4650052Y-43188613D01*
X4614861Y-43161610D01*
X4469053Y-43049728D01*
X4469051Y-43049726D01*
X4469045Y-43049722D01*
X4469040Y-43049719D01*
X4469037Y-43049717D01*
X4271462Y-42935646D01*
X4271446Y-42935638D01*
X4060666Y-42848331D01*
X3840283Y-42789280D01*
X3840277Y-42789279D01*
X3840272Y-42789278D01*
X3614079Y-42759500D01*
X3614078Y-42759500D01*
X3385922Y-42759500D01*
X3385921Y-42759500D01*
X3159727Y-42789278D01*
X3159720Y-42789279D01*
X3159717Y-42789280D01*
X3066567Y-42814239D01*
X2939333Y-42848331D01*
X2728553Y-42935638D01*
X2728537Y-42935646D01*
X2530962Y-43049717D01*
X2530946Y-43049728D01*
X2349947Y-43188613D01*
X2349940Y-43188619D01*
X2188619Y-43349940D01*
X2188613Y-43349947D01*
X2049728Y-43530946D01*
X2049717Y-43530962D01*
X1935646Y-43728537D01*
X1935638Y-43728553D01*
X1848331Y-43939333D01*
X1789281Y-44159714D01*
X1789278Y-44159727D01*
X1759500Y-44385921D01*
X400500Y-44385921D01*
X400500Y-33242862D01*
X420185Y-33175823D01*
X472989Y-33130068D01*
X524500Y-33118862D01*
X2319089Y-33118862D01*
X2319089Y-22391863D01*
X524500Y-22391863D01*
X457461Y-22372178D01*
X411706Y-22319374D01*
X400500Y-22267863D01*
X400500Y-20643331D01*
X420185Y-20576292D01*
X472989Y-20530537D01*
X524500Y-20519331D01*
X2319089Y-20519331D01*
X2319089Y-10421303D01*
X3729500Y-10421303D01*
X3729500Y-32778696D01*
X3764103Y-32952658D01*
X3764105Y-32952666D01*
X3798046Y-33034606D01*
X3831987Y-33116547D01*
X3872048Y-33176502D01*
X3900083Y-33218459D01*
X3930537Y-33264038D01*
X3930538Y-33264039D01*
X7233181Y-36566680D01*
X7266666Y-36628003D01*
X7269500Y-36654361D01*
X7269500Y-36816611D01*
X7296598Y-36987701D01*
X7350127Y-37152445D01*
X7428768Y-37306788D01*
X7445818Y-37330255D01*
X7452970Y-37350301D01*
X7464477Y-37368205D01*
X7467930Y-37392226D01*
X7469298Y-37396058D01*
X7469500Y-37403140D01*
X7469500Y-37505087D01*
X7449815Y-37572126D01*
X7405927Y-37610154D01*
X7406713Y-37611301D01*
X7397236Y-37617792D01*
X7317793Y-37697236D01*
X7272415Y-37800006D01*
X7272415Y-37800008D01*
X7269500Y-37825131D01*
X7269500Y-40914856D01*
X7269502Y-40914882D01*
X7272413Y-40939987D01*
X7272415Y-40939991D01*
X7317793Y-41042764D01*
X7317794Y-41042765D01*
X7397235Y-41122206D01*
X7500009Y-41167585D01*
X7525135Y-41170500D01*
X9214864Y-41170499D01*
X9214879Y-41170497D01*
X9214882Y-41170497D01*
X9239987Y-41167586D01*
X9239988Y-41167585D01*
X9239991Y-41167585D01*
X9342765Y-41122206D01*
X9422206Y-41042765D01*
X9467585Y-40939991D01*
X9470500Y-40914865D01*
X9470499Y-37825136D01*
X9470264Y-37823110D01*
X9467586Y-37800012D01*
X9467585Y-37800010D01*
X9467585Y-37800009D01*
X9422206Y-37697235D01*
X9342765Y-37617794D01*
X9342764Y-37617793D01*
X9342763Y-37617792D01*
X9333287Y-37611301D01*
X9334231Y-37609922D01*
X9330205Y-37606521D01*
X9313297Y-37598800D01*
X9304070Y-37584443D01*
X9291034Y-37573430D01*
X9285573Y-37555661D01*
X9275523Y-37540022D01*
X9270911Y-37507948D01*
X9270510Y-37506642D01*
X9270500Y-37505087D01*
X9270500Y-37403140D01*
X9290185Y-37336101D01*
X9294164Y-37330279D01*
X9311232Y-37306788D01*
X9389873Y-37152445D01*
X9443402Y-36987701D01*
X9470500Y-36816611D01*
X9470500Y-35880626D01*
X9476738Y-35859380D01*
X9478318Y-35837292D01*
X9486390Y-35826508D01*
X9490185Y-35813587D01*
X9506918Y-35799087D01*
X9520190Y-35781359D01*
X9532810Y-35776651D01*
X9542989Y-35767832D01*
X9564906Y-35764680D01*
X9585654Y-35756942D01*
X9598814Y-35759804D01*
X9612147Y-35757888D01*
X9632290Y-35767087D01*
X9653927Y-35771794D01*
X9671652Y-35785062D01*
X9675703Y-35786913D01*
X9682181Y-35792945D01*
X9773181Y-35883945D01*
X9806666Y-35945268D01*
X9809500Y-35971626D01*
X9809500Y-36816611D01*
X9836598Y-36987701D01*
X9890127Y-37152445D01*
X9968768Y-37306788D01*
X9985818Y-37330255D01*
X10009298Y-37396058D01*
X10009500Y-37403140D01*
X10009500Y-37996859D01*
X9989815Y-38063898D01*
X9985818Y-38069745D01*
X9968770Y-38093207D01*
X9968769Y-38093210D01*
X9890128Y-38247552D01*
X9836597Y-38412302D01*
X9830526Y-38450633D01*
X9809500Y-38583389D01*
X9809500Y-40156611D01*
X9836598Y-40327701D01*
X9890127Y-40492445D01*
X9968768Y-40646788D01*
X10070586Y-40786928D01*
X10193072Y-40909414D01*
X10333212Y-41011232D01*
X10487555Y-41089873D01*
X10652299Y-41143402D01*
X10823389Y-41170500D01*
X10823390Y-41170500D01*
X10996610Y-41170500D01*
X10996611Y-41170500D01*
X11167701Y-41143402D01*
X11332445Y-41089873D01*
X11486788Y-41011232D01*
X11626928Y-40909414D01*
X11749414Y-40786928D01*
X11851232Y-40646788D01*
X11929873Y-40492445D01*
X11983402Y-40327701D01*
X12010500Y-40156611D01*
X12010500Y-38583389D01*
X11983402Y-38412299D01*
X11929873Y-38247555D01*
X11851232Y-38093212D01*
X11851229Y-38093208D01*
X11851229Y-38093207D01*
X11834182Y-38069745D01*
X11810702Y-38003939D01*
X11810500Y-37996859D01*
X11810500Y-37403140D01*
X11830185Y-37336101D01*
X11834164Y-37330279D01*
X11851232Y-37306788D01*
X11929873Y-37152445D01*
X11983402Y-36987701D01*
X12010500Y-36816611D01*
X12010500Y-35243389D01*
X11983402Y-35072299D01*
X11929873Y-34907555D01*
X11851232Y-34753212D01*
X11749414Y-34613072D01*
X11626928Y-34490586D01*
X11550169Y-34434817D01*
X11507505Y-34379487D01*
X11501526Y-34309874D01*
X11534132Y-34248079D01*
X11594971Y-34213722D01*
X11623056Y-34210500D01*
X12386373Y-34210500D01*
X12415813Y-34219144D01*
X12445800Y-34225668D01*
X12450815Y-34229422D01*
X12453412Y-34230185D01*
X12474054Y-34246819D01*
X12613181Y-34385946D01*
X12646666Y-34447269D01*
X12649500Y-34473627D01*
X12649500Y-34522796D01*
X12629815Y-34589835D01*
X12613181Y-34610477D01*
X12610588Y-34613069D01*
X12610588Y-34613070D01*
X12610586Y-34613072D01*
X12584737Y-34648650D01*
X12508768Y-34753211D01*
X12430128Y-34907552D01*
X12376597Y-35072302D01*
X12351988Y-35227682D01*
X12349500Y-35243389D01*
X12349500Y-36816611D01*
X12376598Y-36987701D01*
X12430127Y-37152445D01*
X12508768Y-37306788D01*
X12610586Y-37446928D01*
X12610588Y-37446930D01*
X12733072Y-37569414D01*
X12774733Y-37599683D01*
X12817398Y-37655013D01*
X12823376Y-37724627D01*
X12790769Y-37786421D01*
X12774733Y-37800317D01*
X12733072Y-37830585D01*
X12610588Y-37953069D01*
X12610588Y-37953070D01*
X12610586Y-37953072D01*
X12591197Y-37979759D01*
X12508768Y-38093211D01*
X12430128Y-38247552D01*
X12376597Y-38412302D01*
X12370526Y-38450633D01*
X12349500Y-38583389D01*
X12349500Y-40156611D01*
X12376598Y-40327701D01*
X12430127Y-40492445D01*
X12508768Y-40646788D01*
X12610586Y-40786928D01*
X12733072Y-40909414D01*
X12873212Y-41011232D01*
X13027555Y-41089873D01*
X13192299Y-41143402D01*
X13363389Y-41170500D01*
X13363390Y-41170500D01*
X13536610Y-41170500D01*
X13536611Y-41170500D01*
X13707701Y-41143402D01*
X13872445Y-41089873D01*
X14026788Y-41011232D01*
X14166928Y-40909414D01*
X14289414Y-40786928D01*
X14391232Y-40646788D01*
X14469873Y-40492445D01*
X14523402Y-40327701D01*
X14550500Y-40156611D01*
X14550500Y-38862020D01*
X14559144Y-38832579D01*
X14565668Y-38802593D01*
X14569422Y-38797577D01*
X14570185Y-38794981D01*
X14586815Y-38774343D01*
X14677820Y-38683338D01*
X14739142Y-38649854D01*
X14808834Y-38654838D01*
X14864767Y-38696710D01*
X14889184Y-38762174D01*
X14889500Y-38771020D01*
X14889500Y-40156611D01*
X14916598Y-40327701D01*
X14970127Y-40492445D01*
X15048768Y-40646788D01*
X15150586Y-40786928D01*
X15273072Y-40909414D01*
X15413212Y-41011232D01*
X15567555Y-41089873D01*
X15732299Y-41143402D01*
X15903389Y-41170500D01*
X15903390Y-41170500D01*
X16076610Y-41170500D01*
X16076611Y-41170500D01*
X16247701Y-41143402D01*
X16412445Y-41089873D01*
X16566788Y-41011232D01*
X16706928Y-40909414D01*
X16829414Y-40786928D01*
X16931232Y-40646788D01*
X17009873Y-40492445D01*
X17063402Y-40327701D01*
X17090500Y-40156611D01*
X17090500Y-38862020D01*
X17099144Y-38832580D01*
X17105668Y-38802594D01*
X17109422Y-38797578D01*
X17110185Y-38794982D01*
X17126815Y-38774344D01*
X17217820Y-38683339D01*
X17279142Y-38649855D01*
X17348834Y-38654839D01*
X17404767Y-38696711D01*
X17429184Y-38762175D01*
X17429500Y-38771020D01*
X17429500Y-40156611D01*
X17456598Y-40327701D01*
X17510127Y-40492445D01*
X17588768Y-40646788D01*
X17690586Y-40786928D01*
X17813072Y-40909414D01*
X17953212Y-41011232D01*
X18107555Y-41089873D01*
X18272299Y-41143402D01*
X18443389Y-41170500D01*
X18443390Y-41170500D01*
X18616610Y-41170500D01*
X18616611Y-41170500D01*
X18787701Y-41143402D01*
X18952445Y-41089873D01*
X19106788Y-41011232D01*
X19246928Y-40909414D01*
X19369414Y-40786928D01*
X19471232Y-40646788D01*
X19549873Y-40492445D01*
X19603402Y-40327701D01*
X19630500Y-40156611D01*
X19630500Y-38862020D01*
X19639144Y-38832579D01*
X19645668Y-38802593D01*
X19649422Y-38797577D01*
X19650185Y-38794981D01*
X19666815Y-38774343D01*
X19757820Y-38683338D01*
X19819142Y-38649854D01*
X19888834Y-38654838D01*
X19944767Y-38696710D01*
X19969184Y-38762174D01*
X19969500Y-38771020D01*
X19969500Y-40156611D01*
X19996598Y-40327701D01*
X20050127Y-40492445D01*
X20128768Y-40646788D01*
X20230586Y-40786928D01*
X20353072Y-40909414D01*
X20493212Y-41011232D01*
X20647555Y-41089873D01*
X20812299Y-41143402D01*
X20983389Y-41170500D01*
X20983390Y-41170500D01*
X21156610Y-41170500D01*
X21156611Y-41170500D01*
X21327701Y-41143402D01*
X21492445Y-41089873D01*
X21646788Y-41011232D01*
X21786928Y-40909414D01*
X21909414Y-40786928D01*
X22011232Y-40646788D01*
X22089873Y-40492445D01*
X22143402Y-40327701D01*
X22170500Y-40156611D01*
X22170500Y-38862020D01*
X22179144Y-38832579D01*
X22185668Y-38802593D01*
X22189422Y-38797577D01*
X22190185Y-38794981D01*
X22206815Y-38774343D01*
X22297820Y-38683338D01*
X22359142Y-38649854D01*
X22428834Y-38654838D01*
X22484767Y-38696710D01*
X22509184Y-38762174D01*
X22509500Y-38771020D01*
X22509500Y-40156611D01*
X22536598Y-40327701D01*
X22590127Y-40492445D01*
X22668768Y-40646788D01*
X22770586Y-40786928D01*
X22893072Y-40909414D01*
X23033212Y-41011232D01*
X23187555Y-41089873D01*
X23352299Y-41143402D01*
X23523389Y-41170500D01*
X23523390Y-41170500D01*
X23696610Y-41170500D01*
X23696611Y-41170500D01*
X23867701Y-41143402D01*
X24032445Y-41089873D01*
X24186788Y-41011232D01*
X24326928Y-40909414D01*
X24449414Y-40786928D01*
X24551232Y-40646788D01*
X24629873Y-40492445D01*
X24683402Y-40327701D01*
X24710500Y-40156611D01*
X24710500Y-38862020D01*
X24719144Y-38832579D01*
X24725668Y-38802593D01*
X24729422Y-38797577D01*
X24730185Y-38794981D01*
X24746815Y-38774343D01*
X24837820Y-38683338D01*
X24899142Y-38649854D01*
X24968834Y-38654838D01*
X25024767Y-38696710D01*
X25049184Y-38762174D01*
X25049500Y-38771020D01*
X25049500Y-40156611D01*
X25076598Y-40327701D01*
X25130127Y-40492445D01*
X25208768Y-40646788D01*
X25310586Y-40786928D01*
X25433072Y-40909414D01*
X25573212Y-41011232D01*
X25727555Y-41089873D01*
X25892299Y-41143402D01*
X26063389Y-41170500D01*
X26063390Y-41170500D01*
X26236610Y-41170500D01*
X26236611Y-41170500D01*
X26407701Y-41143402D01*
X26572445Y-41089873D01*
X26726788Y-41011232D01*
X26866928Y-40909414D01*
X26989414Y-40786928D01*
X27091232Y-40646788D01*
X27169873Y-40492445D01*
X27223402Y-40327701D01*
X27250500Y-40156611D01*
X27250500Y-38862020D01*
X27259144Y-38832579D01*
X27265668Y-38802593D01*
X27269422Y-38797577D01*
X27270185Y-38794981D01*
X27286815Y-38774343D01*
X27377820Y-38683338D01*
X27439142Y-38649854D01*
X27508834Y-38654838D01*
X27564767Y-38696710D01*
X27589184Y-38762174D01*
X27589500Y-38771020D01*
X27589500Y-40156611D01*
X27616598Y-40327701D01*
X27670127Y-40492445D01*
X27748768Y-40646788D01*
X27850586Y-40786928D01*
X27973072Y-40909414D01*
X28113212Y-41011232D01*
X28267555Y-41089873D01*
X28432299Y-41143402D01*
X28603389Y-41170500D01*
X28603390Y-41170500D01*
X28776610Y-41170500D01*
X28776611Y-41170500D01*
X28947701Y-41143402D01*
X29112445Y-41089873D01*
X29266788Y-41011232D01*
X29406928Y-40909414D01*
X29529414Y-40786928D01*
X29631232Y-40646788D01*
X29709873Y-40492445D01*
X29763402Y-40327701D01*
X29790500Y-40156611D01*
X29790500Y-38862020D01*
X29799144Y-38832579D01*
X29805668Y-38802593D01*
X29809422Y-38797577D01*
X29810185Y-38794981D01*
X29826815Y-38774343D01*
X29917820Y-38683338D01*
X29979142Y-38649854D01*
X30048834Y-38654838D01*
X30104767Y-38696710D01*
X30129184Y-38762174D01*
X30129500Y-38771020D01*
X30129500Y-40156611D01*
X30156598Y-40327701D01*
X30210127Y-40492445D01*
X30288768Y-40646788D01*
X30390586Y-40786928D01*
X30513072Y-40909414D01*
X30653212Y-41011232D01*
X30807555Y-41089873D01*
X30972299Y-41143402D01*
X31143389Y-41170500D01*
X31143390Y-41170500D01*
X31316610Y-41170500D01*
X31316611Y-41170500D01*
X31487701Y-41143402D01*
X31652445Y-41089873D01*
X31806788Y-41011232D01*
X31946928Y-40909414D01*
X32069414Y-40786928D01*
X32171232Y-40646788D01*
X32249873Y-40492445D01*
X32303402Y-40327701D01*
X32330500Y-40156611D01*
X32330500Y-38862020D01*
X32339144Y-38832579D01*
X32345668Y-38802593D01*
X32349422Y-38797577D01*
X32350185Y-38794981D01*
X32366815Y-38774343D01*
X32457820Y-38683338D01*
X32519142Y-38649854D01*
X32588834Y-38654838D01*
X32644767Y-38696710D01*
X32669184Y-38762174D01*
X32669500Y-38771020D01*
X32669500Y-40156611D01*
X32696598Y-40327701D01*
X32750127Y-40492445D01*
X32828768Y-40646788D01*
X32930586Y-40786928D01*
X33053072Y-40909414D01*
X33193212Y-41011232D01*
X33347555Y-41089873D01*
X33512299Y-41143402D01*
X33683389Y-41170500D01*
X33683390Y-41170500D01*
X33856610Y-41170500D01*
X33856611Y-41170500D01*
X34027701Y-41143402D01*
X34192445Y-41089873D01*
X34346788Y-41011232D01*
X34486928Y-40909414D01*
X34609414Y-40786928D01*
X34711232Y-40646788D01*
X34789873Y-40492445D01*
X34843402Y-40327701D01*
X34870500Y-40156611D01*
X34870500Y-38862020D01*
X34879144Y-38832579D01*
X34885668Y-38802593D01*
X34889422Y-38797577D01*
X34890185Y-38794981D01*
X34906815Y-38774343D01*
X34997820Y-38683338D01*
X35059142Y-38649854D01*
X35128834Y-38654838D01*
X35184767Y-38696710D01*
X35209184Y-38762174D01*
X35209500Y-38771020D01*
X35209500Y-40156611D01*
X35236598Y-40327701D01*
X35290127Y-40492445D01*
X35368768Y-40646788D01*
X35470586Y-40786928D01*
X35593072Y-40909414D01*
X35733212Y-41011232D01*
X35887555Y-41089873D01*
X36052299Y-41143402D01*
X36223389Y-41170500D01*
X36223390Y-41170500D01*
X36396610Y-41170500D01*
X36396611Y-41170500D01*
X36567701Y-41143402D01*
X36732445Y-41089873D01*
X36886788Y-41011232D01*
X37026928Y-40909414D01*
X37149414Y-40786928D01*
X37251232Y-40646788D01*
X37329873Y-40492445D01*
X37383402Y-40327701D01*
X37410500Y-40156611D01*
X37410500Y-38862020D01*
X37419144Y-38832579D01*
X37425668Y-38802593D01*
X37429422Y-38797577D01*
X37430185Y-38794981D01*
X37446815Y-38774343D01*
X37537820Y-38683338D01*
X37599142Y-38649854D01*
X37668834Y-38654838D01*
X37724767Y-38696710D01*
X37749184Y-38762174D01*
X37749500Y-38771020D01*
X37749500Y-40156611D01*
X37776598Y-40327701D01*
X37830127Y-40492445D01*
X37908768Y-40646788D01*
X38010586Y-40786928D01*
X38133072Y-40909414D01*
X38273212Y-41011232D01*
X38427555Y-41089873D01*
X38592299Y-41143402D01*
X38763389Y-41170500D01*
X38763390Y-41170500D01*
X38936610Y-41170500D01*
X38936611Y-41170500D01*
X39107701Y-41143402D01*
X39272445Y-41089873D01*
X39426788Y-41011232D01*
X39566928Y-40909414D01*
X39689414Y-40786928D01*
X39791232Y-40646788D01*
X39869873Y-40492445D01*
X39923402Y-40327701D01*
X39950500Y-40156611D01*
X39950500Y-38862020D01*
X39959144Y-38832580D01*
X39965668Y-38802594D01*
X39969422Y-38797578D01*
X39970185Y-38794982D01*
X39986815Y-38774344D01*
X40077820Y-38683339D01*
X40139142Y-38649855D01*
X40208834Y-38654839D01*
X40264767Y-38696711D01*
X40289184Y-38762175D01*
X40289500Y-38771020D01*
X40289500Y-40156611D01*
X40316598Y-40327701D01*
X40370127Y-40492445D01*
X40448768Y-40646788D01*
X40550586Y-40786928D01*
X40673072Y-40909414D01*
X40813212Y-41011232D01*
X40967555Y-41089873D01*
X41132299Y-41143402D01*
X41303389Y-41170500D01*
X41303390Y-41170500D01*
X41476610Y-41170500D01*
X41476611Y-41170500D01*
X41647701Y-41143402D01*
X41812445Y-41089873D01*
X41966788Y-41011232D01*
X42106928Y-40909414D01*
X42229414Y-40786928D01*
X42331232Y-40646788D01*
X42409873Y-40492445D01*
X42463402Y-40327701D01*
X42490500Y-40156611D01*
X42490500Y-38862020D01*
X42499144Y-38832580D01*
X42505668Y-38802594D01*
X42509422Y-38797578D01*
X42510185Y-38794982D01*
X42526815Y-38774344D01*
X42617820Y-38683339D01*
X42679142Y-38649855D01*
X42748834Y-38654839D01*
X42804767Y-38696711D01*
X42829184Y-38762175D01*
X42829500Y-38771020D01*
X42829500Y-40156611D01*
X42856598Y-40327701D01*
X42910127Y-40492445D01*
X42988768Y-40646788D01*
X43090586Y-40786928D01*
X43213072Y-40909414D01*
X43353212Y-41011232D01*
X43507555Y-41089873D01*
X43672299Y-41143402D01*
X43843389Y-41170500D01*
X43843390Y-41170500D01*
X44016610Y-41170500D01*
X44016611Y-41170500D01*
X44187701Y-41143402D01*
X44352445Y-41089873D01*
X44506788Y-41011232D01*
X44646928Y-40909414D01*
X44769414Y-40786928D01*
X44871232Y-40646788D01*
X44949873Y-40492445D01*
X45003402Y-40327701D01*
X45030500Y-40156611D01*
X45030500Y-38862020D01*
X45039144Y-38832579D01*
X45045668Y-38802593D01*
X45049422Y-38797577D01*
X45050185Y-38794981D01*
X45066815Y-38774343D01*
X45157820Y-38683338D01*
X45219142Y-38649854D01*
X45288834Y-38654838D01*
X45344767Y-38696710D01*
X45369184Y-38762174D01*
X45369500Y-38771020D01*
X45369500Y-40156611D01*
X45396598Y-40327701D01*
X45450127Y-40492445D01*
X45528768Y-40646788D01*
X45630586Y-40786928D01*
X45753072Y-40909414D01*
X45893212Y-41011232D01*
X46047555Y-41089873D01*
X46212299Y-41143402D01*
X46383389Y-41170500D01*
X46383390Y-41170500D01*
X46556610Y-41170500D01*
X46556611Y-41170500D01*
X46727701Y-41143402D01*
X46892445Y-41089873D01*
X47046788Y-41011232D01*
X47186928Y-40909414D01*
X47309414Y-40786928D01*
X47411232Y-40646788D01*
X47489873Y-40492445D01*
X47543402Y-40327701D01*
X47570500Y-40156611D01*
X47570500Y-38862020D01*
X47579144Y-38832579D01*
X47585668Y-38802593D01*
X47589422Y-38797577D01*
X47590185Y-38794981D01*
X47606815Y-38774343D01*
X47697820Y-38683338D01*
X47759142Y-38649854D01*
X47828834Y-38654838D01*
X47884767Y-38696710D01*
X47909184Y-38762174D01*
X47909500Y-38771020D01*
X47909500Y-40156611D01*
X47936598Y-40327701D01*
X47990127Y-40492445D01*
X48068768Y-40646788D01*
X48170586Y-40786928D01*
X48293072Y-40909414D01*
X48433212Y-41011232D01*
X48587555Y-41089873D01*
X48752299Y-41143402D01*
X48923389Y-41170500D01*
X48923390Y-41170500D01*
X49096610Y-41170500D01*
X49096611Y-41170500D01*
X49267701Y-41143402D01*
X49432445Y-41089873D01*
X49586788Y-41011232D01*
X49726928Y-40909414D01*
X49849414Y-40786928D01*
X49951232Y-40646788D01*
X50029873Y-40492445D01*
X50083402Y-40327701D01*
X50110500Y-40156611D01*
X50110500Y-38583389D01*
X50089984Y-38453855D01*
X50098939Y-38384561D01*
X50124773Y-38346779D01*
X50312252Y-38159300D01*
X50373573Y-38125817D01*
X50443265Y-38130801D01*
X50499198Y-38172673D01*
X50523615Y-38238137D01*
X50517862Y-38285301D01*
X50476597Y-38412301D01*
X50470526Y-38450633D01*
X50449500Y-38583389D01*
X50449500Y-40156611D01*
X50476598Y-40327701D01*
X50530127Y-40492445D01*
X50608768Y-40646788D01*
X50710586Y-40786928D01*
X50833072Y-40909414D01*
X50973212Y-41011232D01*
X51127555Y-41089873D01*
X51292299Y-41143402D01*
X51463389Y-41170500D01*
X51463390Y-41170500D01*
X51636610Y-41170500D01*
X51636611Y-41170500D01*
X51807701Y-41143402D01*
X51972445Y-41089873D01*
X52126788Y-41011232D01*
X52266928Y-40909414D01*
X52389414Y-40786928D01*
X52491232Y-40646788D01*
X52569873Y-40492445D01*
X52623402Y-40327701D01*
X52650500Y-40156611D01*
X52650500Y-38862020D01*
X52659144Y-38832579D01*
X52665668Y-38802593D01*
X52669422Y-38797577D01*
X52670185Y-38794981D01*
X52686815Y-38774343D01*
X52777820Y-38683338D01*
X52839142Y-38649854D01*
X52908834Y-38654838D01*
X52964767Y-38696710D01*
X52989184Y-38762174D01*
X52989500Y-38771020D01*
X52989500Y-40156611D01*
X53016598Y-40327701D01*
X53070127Y-40492445D01*
X53148768Y-40646788D01*
X53250586Y-40786928D01*
X53373072Y-40909414D01*
X53513212Y-41011232D01*
X53667555Y-41089873D01*
X53832299Y-41143402D01*
X54003389Y-41170500D01*
X54003390Y-41170500D01*
X54176610Y-41170500D01*
X54176611Y-41170500D01*
X54347701Y-41143402D01*
X54512445Y-41089873D01*
X54666788Y-41011232D01*
X54806928Y-40909414D01*
X54916306Y-40800036D01*
X55553513Y-40800036D01*
X55638417Y-40916895D01*
X55783104Y-41061582D01*
X55948650Y-41181859D01*
X56130968Y-41274755D01*
X56325582Y-41337990D01*
X56527683Y-41370000D01*
X56732317Y-41370000D01*
X56934417Y-41337990D01*
X57129031Y-41274755D01*
X57311349Y-41181859D01*
X57476894Y-41061582D01*
X57476895Y-41061582D01*
X57621584Y-40916893D01*
X57706484Y-40800037D01*
X57706484Y-40800036D01*
X56630000Y-39723552D01*
X55553513Y-40800036D01*
X54916306Y-40800036D01*
X54929414Y-40786928D01*
X55031232Y-40646788D01*
X55109873Y-40492445D01*
X55151974Y-40362870D01*
X55191410Y-40305198D01*
X55255769Y-40277999D01*
X55308222Y-40283260D01*
X55349707Y-40296739D01*
X56299670Y-39346776D01*
X56322993Y-39370099D01*
X56437007Y-39435925D01*
X56564174Y-39470000D01*
X56695826Y-39470000D01*
X56822993Y-39435925D01*
X56937007Y-39370099D01*
X56937107Y-39369999D01*
X56983552Y-39369999D01*
X56983552Y-39370000D01*
X57910292Y-40296740D01*
X57910292Y-40296739D01*
X57930000Y-40172311D01*
X57930000Y-38567688D01*
X57910292Y-38443259D01*
X56983552Y-39369999D01*
X56937107Y-39369999D01*
X57030099Y-39277007D01*
X57095925Y-39162993D01*
X57130000Y-39035826D01*
X57130000Y-38904174D01*
X57095925Y-38777007D01*
X57030099Y-38662993D01*
X57006777Y-38639671D01*
X57706485Y-37939963D01*
X57706485Y-37939961D01*
X57621587Y-37823110D01*
X57621582Y-37823104D01*
X57586159Y-37787681D01*
X57552674Y-37726358D01*
X57557658Y-37656666D01*
X57586159Y-37612319D01*
X57621582Y-37576895D01*
X57621582Y-37576894D01*
X57741859Y-37411349D01*
X57834755Y-37229031D01*
X57897990Y-37034417D01*
X57930000Y-36832317D01*
X57930000Y-36280000D01*
X57107445Y-36280000D01*
X57095925Y-36237007D01*
X57030099Y-36122993D01*
X56937007Y-36029901D01*
X56822993Y-35964075D01*
X56695826Y-35930000D01*
X56564174Y-35930000D01*
X56437007Y-35964075D01*
X56410269Y-35979511D01*
X56391206Y-35957511D01*
X56380000Y-35906000D01*
X56380000Y-35780000D01*
X56880000Y-35780000D01*
X57930000Y-35780000D01*
X57930000Y-35227682D01*
X57897990Y-35025582D01*
X57834755Y-34830968D01*
X57741859Y-34648650D01*
X57621582Y-34483105D01*
X57621582Y-34483104D01*
X57476895Y-34338417D01*
X57311349Y-34218140D01*
X57129029Y-34125244D01*
X56934413Y-34062009D01*
X56880000Y-34053390D01*
X56880000Y-35780000D01*
X56380000Y-35780000D01*
X56380000Y-34092194D01*
X56263400Y-34061985D01*
X56258891Y-34059288D01*
X56253648Y-34059025D01*
X56229226Y-34041541D01*
X56203441Y-34026116D01*
X56201106Y-34021410D01*
X56196836Y-34018353D01*
X56185739Y-33990432D01*
X56172392Y-33963524D01*
X56172972Y-33958304D01*
X56171032Y-33953423D01*
X56170500Y-33941948D01*
X56170500Y-21368905D01*
X57800000Y-21368905D01*
X57800000Y-21631094D01*
X57834220Y-21891009D01*
X57834222Y-21891020D01*
X57902075Y-22144255D01*
X58002404Y-22386471D01*
X58002409Y-22386482D01*
X58133488Y-22613516D01*
X58133494Y-22613524D01*
X58220080Y-22726365D01*
X59122421Y-21824024D01*
X59135359Y-21855258D01*
X59217437Y-21978097D01*
X59321903Y-22082563D01*
X59444742Y-22164641D01*
X59475974Y-22177577D01*
X58573633Y-23079917D01*
X58573633Y-23079918D01*
X58686475Y-23166505D01*
X58686483Y-23166511D01*
X58913517Y-23297590D01*
X58913528Y-23297595D01*
X59155744Y-23397924D01*
X59408979Y-23465777D01*
X59408990Y-23465779D01*
X59668905Y-23499999D01*
X59668920Y-23500000D01*
X59931080Y-23500000D01*
X59931094Y-23499999D01*
X60191009Y-23465779D01*
X60191020Y-23465777D01*
X60444255Y-23397924D01*
X60686471Y-23297595D01*
X60686482Y-23297590D01*
X60913516Y-23166511D01*
X60913534Y-23166499D01*
X61026365Y-23079919D01*
X61026365Y-23079917D01*
X60124025Y-22177578D01*
X60155258Y-22164641D01*
X60278097Y-22082563D01*
X60382563Y-21978097D01*
X60464641Y-21855258D01*
X60477577Y-21824025D01*
X61379917Y-22726365D01*
X61379919Y-22726365D01*
X61466499Y-22613534D01*
X61466511Y-22613516D01*
X61597590Y-22386482D01*
X61597595Y-22386471D01*
X61697924Y-22144255D01*
X61765777Y-21891020D01*
X61765779Y-21891009D01*
X61799999Y-21631094D01*
X61800000Y-21631080D01*
X61800000Y-21368919D01*
X61799999Y-21368905D01*
X61765779Y-21108990D01*
X61765777Y-21108979D01*
X61697924Y-20855744D01*
X61597595Y-20613528D01*
X61597590Y-20613517D01*
X61466511Y-20386483D01*
X61466505Y-20386475D01*
X61379918Y-20273633D01*
X61379917Y-20273633D01*
X60477577Y-21175973D01*
X60464641Y-21144742D01*
X60382563Y-21021903D01*
X60278097Y-20917437D01*
X60155258Y-20835359D01*
X60124023Y-20822421D01*
X61026365Y-19920080D01*
X60913524Y-19833494D01*
X60913516Y-19833488D01*
X60686482Y-19702409D01*
X60686471Y-19702404D01*
X60444255Y-19602075D01*
X60191020Y-19534222D01*
X60191009Y-19534220D01*
X59931094Y-19500000D01*
X59668905Y-19500000D01*
X59408990Y-19534220D01*
X59408979Y-19534222D01*
X59155744Y-19602075D01*
X58913528Y-19702404D01*
X58913517Y-19702409D01*
X58686471Y-19833496D01*
X58573633Y-19920079D01*
X58573633Y-19920080D01*
X59475974Y-20822421D01*
X59444742Y-20835359D01*
X59321903Y-20917437D01*
X59217437Y-21021903D01*
X59135359Y-21144742D01*
X59122421Y-21175974D01*
X58220080Y-20273633D01*
X58220079Y-20273633D01*
X58133496Y-20386471D01*
X58002409Y-20613517D01*
X58002404Y-20613528D01*
X57902075Y-20855744D01*
X57834222Y-21108979D01*
X57834220Y-21108990D01*
X57800000Y-21368905D01*
X56170500Y-21368905D01*
X56170500Y-15891810D01*
X61450201Y-15891810D01*
X64020429Y-15891810D01*
X64020429Y-6128184D01*
X61450201Y-6128184D01*
X61450201Y-15891810D01*
X56170500Y-15891810D01*
X56170500Y-9258051D01*
X56190185Y-9191012D01*
X56242989Y-9145257D01*
X56312147Y-9135313D01*
X56323442Y-9137476D01*
X56325574Y-9137987D01*
X56380000Y-9146607D01*
X56380000Y-9146606D01*
X56880000Y-9146606D01*
X56934421Y-9137988D01*
X57129031Y-9074754D01*
X57311349Y-8981859D01*
X57476894Y-8861582D01*
X57476895Y-8861582D01*
X57621582Y-8716895D01*
X57621582Y-8716894D01*
X57741859Y-8551349D01*
X57834755Y-8369031D01*
X57897990Y-8174417D01*
X57930000Y-7972317D01*
X57930000Y-7420000D01*
X56880000Y-7420000D01*
X56880000Y-9146606D01*
X56380000Y-9146606D01*
X56380000Y-7294000D01*
X56399685Y-7226961D01*
X56408400Y-7219409D01*
X56437007Y-7235925D01*
X56564174Y-7270000D01*
X56695826Y-7270000D01*
X56822993Y-7235925D01*
X56937007Y-7170099D01*
X57030099Y-7077007D01*
X57095925Y-6962993D01*
X57107445Y-6920000D01*
X57930000Y-6920000D01*
X57930000Y-6367682D01*
X57897990Y-6165584D01*
X57881600Y-6115142D01*
X57881599Y-6115140D01*
X57834754Y-5970968D01*
X57741859Y-5788650D01*
X57621582Y-5623105D01*
X57621582Y-5623104D01*
X57586159Y-5587681D01*
X57552674Y-5526358D01*
X57557658Y-5456666D01*
X57586159Y-5412319D01*
X57621584Y-5376893D01*
X57706484Y-5260037D01*
X57706484Y-5260036D01*
X57006777Y-4560329D01*
X57030099Y-4537007D01*
X57095925Y-4422993D01*
X57130000Y-4295826D01*
X57130000Y-4164174D01*
X57095925Y-4037007D01*
X57030099Y-3922993D01*
X56937105Y-3829999D01*
X56983552Y-3829999D01*
X56983552Y-3830000D01*
X57910291Y-4756740D01*
X57910292Y-4756739D01*
X57930000Y-4632311D01*
X57930000Y-3385921D01*
X59759500Y-3385921D01*
X59759500Y-3614078D01*
X59789278Y-3840272D01*
X59789279Y-3840277D01*
X59789280Y-3840283D01*
X59811442Y-3922993D01*
X59848331Y-4060666D01*
X59935638Y-4271446D01*
X59935646Y-4271462D01*
X60049717Y-4469037D01*
X60049728Y-4469053D01*
X60188613Y-4650052D01*
X60188619Y-4650059D01*
X60349940Y-4811380D01*
X60349946Y-4811385D01*
X60530955Y-4950278D01*
X60530962Y-4950282D01*
X60728537Y-5064353D01*
X60728553Y-5064361D01*
X60830975Y-5106785D01*
X60939334Y-5151669D01*
X61159717Y-5210720D01*
X61319474Y-5231752D01*
X61385921Y-5240500D01*
X61385922Y-5240500D01*
X61614079Y-5240500D01*
X61665438Y-5233738D01*
X61840283Y-5210720D01*
X62060666Y-5151669D01*
X62253561Y-5071769D01*
X62271446Y-5064361D01*
X62271449Y-5064359D01*
X62271455Y-5064357D01*
X62469045Y-4950278D01*
X62650054Y-4811385D01*
X62811385Y-4650054D01*
X62950278Y-4469045D01*
X63064357Y-4271455D01*
X63151669Y-4060666D01*
X63210720Y-3840283D01*
X63240500Y-3614078D01*
X63240500Y-3385922D01*
X63210720Y-3159717D01*
X63151669Y-2939334D01*
X63111463Y-2842268D01*
X63064361Y-2728553D01*
X63064353Y-2728537D01*
X62950282Y-2530962D01*
X62950278Y-2530955D01*
X62859821Y-2413069D01*
X62811386Y-2349947D01*
X62811380Y-2349940D01*
X62650059Y-2188619D01*
X62650052Y-2188613D01*
X62469053Y-2049728D01*
X62469051Y-2049726D01*
X62469045Y-2049722D01*
X62469040Y-2049719D01*
X62469037Y-2049717D01*
X62271462Y-1935646D01*
X62271446Y-1935638D01*
X62060666Y-1848331D01*
X61992253Y-1830000D01*
X61840283Y-1789280D01*
X61840277Y-1789279D01*
X61840272Y-1789278D01*
X61614079Y-1759500D01*
X61614078Y-1759500D01*
X61385922Y-1759500D01*
X61385921Y-1759500D01*
X61159727Y-1789278D01*
X61159720Y-1789279D01*
X61159717Y-1789280D01*
X61066567Y-1814239D01*
X60939333Y-1848331D01*
X60728553Y-1935638D01*
X60728537Y-1935646D01*
X60530962Y-2049717D01*
X60530946Y-2049728D01*
X60349947Y-2188613D01*
X60349940Y-2188619D01*
X60188619Y-2349940D01*
X60188613Y-2349947D01*
X60049728Y-2530946D01*
X60049717Y-2530962D01*
X59935646Y-2728537D01*
X59935638Y-2728553D01*
X59848331Y-2939333D01*
X59789281Y-3159714D01*
X59789278Y-3159727D01*
X59759500Y-3385921D01*
X57930000Y-3385921D01*
X57930000Y-3027688D01*
X57910292Y-2903259D01*
X56983552Y-3829999D01*
X56937105Y-3829999D01*
X56937007Y-3829901D01*
X56822993Y-3764075D01*
X56695826Y-3730000D01*
X56564174Y-3730000D01*
X56437007Y-3764075D01*
X56322993Y-3829901D01*
X56299671Y-3853222D01*
X55349707Y-2903258D01*
X55308221Y-2916738D01*
X55238380Y-2918733D01*
X55178547Y-2882653D01*
X55151974Y-2837129D01*
X55109873Y-2707555D01*
X55031232Y-2553212D01*
X54929414Y-2413072D01*
X54916304Y-2399962D01*
X55553513Y-2399962D01*
X55553514Y-2399963D01*
X56630000Y-3476448D01*
X56630001Y-3476448D01*
X57706484Y-2399963D01*
X57706485Y-2399961D01*
X57621587Y-2283110D01*
X57621582Y-2283104D01*
X57476895Y-2138417D01*
X57311349Y-2018140D01*
X57129031Y-1925244D01*
X56934417Y-1862009D01*
X56732317Y-1830000D01*
X56527683Y-1830000D01*
X56325582Y-1862009D01*
X56130968Y-1925244D01*
X55948650Y-2018140D01*
X55783105Y-2138417D01*
X55783104Y-2138417D01*
X55638416Y-2283105D01*
X55553513Y-2399962D01*
X54916304Y-2399962D01*
X54806928Y-2290586D01*
X54666788Y-2188768D01*
X54512445Y-2110127D01*
X54347701Y-2056598D01*
X54347699Y-2056597D01*
X54347698Y-2056597D01*
X54216271Y-2035781D01*
X54176611Y-2029500D01*
X54003389Y-2029500D01*
X53963728Y-2035781D01*
X53832302Y-2056597D01*
X53667552Y-2110128D01*
X53513211Y-2188768D01*
X53433256Y-2246859D01*
X53373072Y-2290586D01*
X53373070Y-2290588D01*
X53373069Y-2290588D01*
X53250588Y-2413069D01*
X53250588Y-2413070D01*
X53250586Y-2413072D01*
X53206859Y-2473256D01*
X53148768Y-2553211D01*
X53070128Y-2707552D01*
X53016597Y-2872302D01*
X52989500Y-3043389D01*
X52989500Y-4428978D01*
X52983261Y-4450223D01*
X52981682Y-4472312D01*
X52973609Y-4483095D01*
X52969815Y-4496017D01*
X52953081Y-4510516D01*
X52939810Y-4528245D01*
X52927189Y-4532952D01*
X52917011Y-4541772D01*
X52895093Y-4544923D01*
X52874346Y-4552662D01*
X52861185Y-4549799D01*
X52847853Y-4551716D01*
X52827709Y-4542516D01*
X52806073Y-4537810D01*
X52788347Y-4524541D01*
X52784297Y-4522691D01*
X52777819Y-4516659D01*
X52686819Y-4425659D01*
X52653334Y-4364336D01*
X52650500Y-4337978D01*
X52650500Y-3043389D01*
X52630440Y-2916738D01*
X52623402Y-2872299D01*
X52569873Y-2707555D01*
X52491232Y-2553212D01*
X52389414Y-2413072D01*
X52266928Y-2290586D01*
X52126788Y-2188768D01*
X51972445Y-2110127D01*
X51807701Y-2056598D01*
X51807699Y-2056597D01*
X51807698Y-2056597D01*
X51676271Y-2035781D01*
X51636611Y-2029500D01*
X51463389Y-2029500D01*
X51423728Y-2035781D01*
X51292302Y-2056597D01*
X51127552Y-2110128D01*
X50973211Y-2188768D01*
X50893256Y-2246859D01*
X50833072Y-2290586D01*
X50833070Y-2290588D01*
X50833069Y-2290588D01*
X50710588Y-2413069D01*
X50710588Y-2413070D01*
X50710586Y-2413072D01*
X50666859Y-2473256D01*
X50608768Y-2553211D01*
X50530128Y-2707552D01*
X50476597Y-2872302D01*
X50449500Y-3043389D01*
X50449500Y-4428978D01*
X50443261Y-4450223D01*
X50441682Y-4472312D01*
X50433609Y-4483095D01*
X50429815Y-4496017D01*
X50413081Y-4510516D01*
X50399810Y-4528245D01*
X50387189Y-4532952D01*
X50377011Y-4541772D01*
X50355093Y-4544923D01*
X50334346Y-4552662D01*
X50321185Y-4549799D01*
X50307853Y-4551716D01*
X50287709Y-4542516D01*
X50266073Y-4537810D01*
X50248347Y-4524541D01*
X50244297Y-4522691D01*
X50237819Y-4516659D01*
X50146819Y-4425659D01*
X50113334Y-4364336D01*
X50110500Y-4337978D01*
X50110500Y-3043389D01*
X50090440Y-2916738D01*
X50083402Y-2872299D01*
X50029873Y-2707555D01*
X49951232Y-2553212D01*
X49849414Y-2413072D01*
X49726928Y-2290586D01*
X49586788Y-2188768D01*
X49432445Y-2110127D01*
X49267701Y-2056598D01*
X49267699Y-2056597D01*
X49267698Y-2056597D01*
X49136271Y-2035781D01*
X49096611Y-2029500D01*
X48923389Y-2029500D01*
X48883728Y-2035781D01*
X48752302Y-2056597D01*
X48587552Y-2110128D01*
X48433211Y-2188768D01*
X48353256Y-2246859D01*
X48293072Y-2290586D01*
X48293070Y-2290588D01*
X48293069Y-2290588D01*
X48170588Y-2413069D01*
X48170588Y-2413070D01*
X48170586Y-2413072D01*
X48126859Y-2473256D01*
X48068768Y-2553211D01*
X47990128Y-2707552D01*
X47936597Y-2872302D01*
X47909500Y-3043389D01*
X47909500Y-4428978D01*
X47903261Y-4450223D01*
X47901682Y-4472312D01*
X47893609Y-4483095D01*
X47889815Y-4496017D01*
X47873081Y-4510516D01*
X47859810Y-4528245D01*
X47847189Y-4532952D01*
X47837011Y-4541772D01*
X47815093Y-4544923D01*
X47794346Y-4552662D01*
X47781185Y-4549799D01*
X47767853Y-4551716D01*
X47747709Y-4542516D01*
X47726073Y-4537810D01*
X47708347Y-4524541D01*
X47704297Y-4522691D01*
X47697819Y-4516659D01*
X47606819Y-4425659D01*
X47573334Y-4364336D01*
X47570500Y-4337978D01*
X47570500Y-3043389D01*
X47550440Y-2916738D01*
X47543402Y-2872299D01*
X47489873Y-2707555D01*
X47411232Y-2553212D01*
X47309414Y-2413072D01*
X47186928Y-2290586D01*
X47046788Y-2188768D01*
X46892445Y-2110127D01*
X46727701Y-2056598D01*
X46727699Y-2056597D01*
X46727698Y-2056597D01*
X46596271Y-2035781D01*
X46556611Y-2029500D01*
X46383389Y-2029500D01*
X46343728Y-2035781D01*
X46212302Y-2056597D01*
X46047552Y-2110128D01*
X45893211Y-2188768D01*
X45813256Y-2246859D01*
X45753072Y-2290586D01*
X45753070Y-2290588D01*
X45753069Y-2290588D01*
X45630588Y-2413069D01*
X45630588Y-2413070D01*
X45630586Y-2413072D01*
X45586859Y-2473256D01*
X45528768Y-2553211D01*
X45450128Y-2707552D01*
X45396597Y-2872302D01*
X45369500Y-3043389D01*
X45369500Y-4428978D01*
X45363261Y-4450223D01*
X45361682Y-4472312D01*
X45353609Y-4483095D01*
X45349815Y-4496017D01*
X45333081Y-4510516D01*
X45319810Y-4528245D01*
X45307189Y-4532952D01*
X45297011Y-4541772D01*
X45275093Y-4544923D01*
X45254346Y-4552662D01*
X45241185Y-4549799D01*
X45227853Y-4551716D01*
X45207709Y-4542516D01*
X45186073Y-4537810D01*
X45168347Y-4524541D01*
X45164297Y-4522691D01*
X45157819Y-4516659D01*
X45066819Y-4425659D01*
X45033334Y-4364336D01*
X45030500Y-4337978D01*
X45030500Y-3043389D01*
X45010440Y-2916738D01*
X45003402Y-2872299D01*
X44949873Y-2707555D01*
X44871232Y-2553212D01*
X44769414Y-2413072D01*
X44646928Y-2290586D01*
X44506788Y-2188768D01*
X44352445Y-2110127D01*
X44187701Y-2056598D01*
X44187699Y-2056597D01*
X44187698Y-2056597D01*
X44056271Y-2035781D01*
X44016611Y-2029500D01*
X43843389Y-2029500D01*
X43803728Y-2035781D01*
X43672302Y-2056597D01*
X43507552Y-2110128D01*
X43353211Y-2188768D01*
X43273256Y-2246859D01*
X43213072Y-2290586D01*
X43213070Y-2290588D01*
X43213069Y-2290588D01*
X43090588Y-2413069D01*
X43090588Y-2413070D01*
X43090586Y-2413072D01*
X43046859Y-2473256D01*
X42988768Y-2553211D01*
X42910128Y-2707552D01*
X42856597Y-2872302D01*
X42829500Y-3043389D01*
X42829500Y-4428978D01*
X42823261Y-4450223D01*
X42821682Y-4472312D01*
X42813609Y-4483095D01*
X42809815Y-4496017D01*
X42793081Y-4510516D01*
X42779810Y-4528245D01*
X42767189Y-4532952D01*
X42757011Y-4541772D01*
X42735093Y-4544923D01*
X42714346Y-4552662D01*
X42701185Y-4549799D01*
X42687853Y-4551716D01*
X42667709Y-4542516D01*
X42646073Y-4537810D01*
X42628347Y-4524541D01*
X42624297Y-4522691D01*
X42617819Y-4516659D01*
X42526819Y-4425659D01*
X42493334Y-4364336D01*
X42490500Y-4337978D01*
X42490500Y-3043389D01*
X42470440Y-2916738D01*
X42463402Y-2872299D01*
X42409873Y-2707555D01*
X42331232Y-2553212D01*
X42229414Y-2413072D01*
X42106928Y-2290586D01*
X41966788Y-2188768D01*
X41812445Y-2110127D01*
X41647701Y-2056598D01*
X41647699Y-2056597D01*
X41647698Y-2056597D01*
X41516271Y-2035781D01*
X41476611Y-2029500D01*
X41303389Y-2029500D01*
X41263728Y-2035781D01*
X41132302Y-2056597D01*
X40967552Y-2110128D01*
X40813211Y-2188768D01*
X40733256Y-2246859D01*
X40673072Y-2290586D01*
X40673070Y-2290588D01*
X40673069Y-2290588D01*
X40550588Y-2413069D01*
X40550588Y-2413070D01*
X40550586Y-2413072D01*
X40506859Y-2473256D01*
X40448768Y-2553211D01*
X40370128Y-2707552D01*
X40316597Y-2872302D01*
X40289500Y-3043389D01*
X40289500Y-4428978D01*
X40283261Y-4450223D01*
X40281682Y-4472312D01*
X40273609Y-4483095D01*
X40269815Y-4496017D01*
X40253081Y-4510516D01*
X40239810Y-4528245D01*
X40227189Y-4532952D01*
X40217011Y-4541772D01*
X40195093Y-4544923D01*
X40174346Y-4552662D01*
X40161185Y-4549799D01*
X40147853Y-4551716D01*
X40127709Y-4542516D01*
X40106073Y-4537810D01*
X40088347Y-4524541D01*
X40084297Y-4522691D01*
X40077819Y-4516659D01*
X39986819Y-4425659D01*
X39953334Y-4364336D01*
X39950500Y-4337978D01*
X39950500Y-3043389D01*
X39930440Y-2916738D01*
X39923402Y-2872299D01*
X39869873Y-2707555D01*
X39791232Y-2553212D01*
X39689414Y-2413072D01*
X39566928Y-2290586D01*
X39426788Y-2188768D01*
X39272445Y-2110127D01*
X39107701Y-2056598D01*
X39107699Y-2056597D01*
X39107698Y-2056597D01*
X38976271Y-2035781D01*
X38936611Y-2029500D01*
X38763389Y-2029500D01*
X38723728Y-2035781D01*
X38592302Y-2056597D01*
X38427552Y-2110128D01*
X38273211Y-2188768D01*
X38193256Y-2246859D01*
X38133072Y-2290586D01*
X38133070Y-2290588D01*
X38133069Y-2290588D01*
X38010588Y-2413069D01*
X38010588Y-2413070D01*
X38010586Y-2413072D01*
X37966859Y-2473256D01*
X37908768Y-2553211D01*
X37830128Y-2707552D01*
X37776597Y-2872302D01*
X37749500Y-3043389D01*
X37749500Y-4428978D01*
X37743261Y-4450223D01*
X37741682Y-4472312D01*
X37733609Y-4483095D01*
X37729815Y-4496017D01*
X37713081Y-4510516D01*
X37699810Y-4528245D01*
X37687189Y-4532952D01*
X37677011Y-4541772D01*
X37655093Y-4544923D01*
X37634346Y-4552662D01*
X37621185Y-4549799D01*
X37607853Y-4551716D01*
X37587709Y-4542516D01*
X37566073Y-4537810D01*
X37548347Y-4524541D01*
X37544297Y-4522691D01*
X37537819Y-4516659D01*
X37446819Y-4425659D01*
X37413334Y-4364336D01*
X37410500Y-4337978D01*
X37410500Y-3043389D01*
X37390440Y-2916738D01*
X37383402Y-2872299D01*
X37329873Y-2707555D01*
X37251232Y-2553212D01*
X37149414Y-2413072D01*
X37026928Y-2290586D01*
X36886788Y-2188768D01*
X36732445Y-2110127D01*
X36567701Y-2056598D01*
X36567699Y-2056597D01*
X36567698Y-2056597D01*
X36436271Y-2035781D01*
X36396611Y-2029500D01*
X36223389Y-2029500D01*
X36183728Y-2035781D01*
X36052302Y-2056597D01*
X35887552Y-2110128D01*
X35733211Y-2188768D01*
X35653256Y-2246859D01*
X35593072Y-2290586D01*
X35593070Y-2290588D01*
X35593069Y-2290588D01*
X35470588Y-2413069D01*
X35470588Y-2413070D01*
X35470586Y-2413072D01*
X35426859Y-2473256D01*
X35368768Y-2553211D01*
X35290128Y-2707552D01*
X35236597Y-2872302D01*
X35209500Y-3043389D01*
X35209500Y-4428978D01*
X35203261Y-4450223D01*
X35201682Y-4472312D01*
X35193609Y-4483095D01*
X35189815Y-4496017D01*
X35173081Y-4510516D01*
X35159810Y-4528245D01*
X35147189Y-4532952D01*
X35137011Y-4541772D01*
X35115093Y-4544923D01*
X35094346Y-4552662D01*
X35081185Y-4549799D01*
X35067853Y-4551716D01*
X35047709Y-4542516D01*
X35026073Y-4537810D01*
X35008347Y-4524541D01*
X35004297Y-4522691D01*
X34997819Y-4516659D01*
X34906819Y-4425659D01*
X34873334Y-4364336D01*
X34870500Y-4337978D01*
X34870500Y-3043389D01*
X34850440Y-2916738D01*
X34843402Y-2872299D01*
X34789873Y-2707555D01*
X34711232Y-2553212D01*
X34609414Y-2413072D01*
X34486928Y-2290586D01*
X34346788Y-2188768D01*
X34192445Y-2110127D01*
X34027701Y-2056598D01*
X34027699Y-2056597D01*
X34027698Y-2056597D01*
X33896271Y-2035781D01*
X33856611Y-2029500D01*
X33683389Y-2029500D01*
X33643728Y-2035781D01*
X33512302Y-2056597D01*
X33347552Y-2110128D01*
X33193211Y-2188768D01*
X33113256Y-2246859D01*
X33053072Y-2290586D01*
X33053070Y-2290588D01*
X33053069Y-2290588D01*
X32930588Y-2413069D01*
X32930588Y-2413070D01*
X32930586Y-2413072D01*
X32886859Y-2473256D01*
X32828768Y-2553211D01*
X32750128Y-2707552D01*
X32696597Y-2872302D01*
X32669500Y-3043389D01*
X32669500Y-4428978D01*
X32663261Y-4450223D01*
X32661682Y-4472312D01*
X32653609Y-4483095D01*
X32649815Y-4496017D01*
X32633081Y-4510516D01*
X32619810Y-4528245D01*
X32607189Y-4532952D01*
X32597011Y-4541772D01*
X32575093Y-4544923D01*
X32554346Y-4552662D01*
X32541185Y-4549799D01*
X32527853Y-4551716D01*
X32507709Y-4542516D01*
X32486073Y-4537810D01*
X32468347Y-4524541D01*
X32464297Y-4522691D01*
X32457819Y-4516659D01*
X32366819Y-4425659D01*
X32333334Y-4364336D01*
X32330500Y-4337978D01*
X32330500Y-3043389D01*
X32310440Y-2916738D01*
X32303402Y-2872299D01*
X32249873Y-2707555D01*
X32171232Y-2553212D01*
X32069414Y-2413072D01*
X31946928Y-2290586D01*
X31806788Y-2188768D01*
X31652445Y-2110127D01*
X31487701Y-2056598D01*
X31487699Y-2056597D01*
X31487698Y-2056597D01*
X31356271Y-2035781D01*
X31316611Y-2029500D01*
X31143389Y-2029500D01*
X31103728Y-2035781D01*
X30972302Y-2056597D01*
X30807552Y-2110128D01*
X30653211Y-2188768D01*
X30573256Y-2246859D01*
X30513072Y-2290586D01*
X30513070Y-2290588D01*
X30513069Y-2290588D01*
X30390588Y-2413069D01*
X30390588Y-2413070D01*
X30390586Y-2413072D01*
X30346859Y-2473256D01*
X30288768Y-2553211D01*
X30210128Y-2707552D01*
X30156597Y-2872302D01*
X30129500Y-3043389D01*
X30129500Y-4428978D01*
X30123261Y-4450223D01*
X30121682Y-4472312D01*
X30113609Y-4483095D01*
X30109815Y-4496017D01*
X30093081Y-4510516D01*
X30079810Y-4528245D01*
X30067189Y-4532952D01*
X30057011Y-4541772D01*
X30035093Y-4544923D01*
X30014346Y-4552662D01*
X30001185Y-4549799D01*
X29987853Y-4551716D01*
X29967709Y-4542516D01*
X29946073Y-4537810D01*
X29928347Y-4524541D01*
X29924297Y-4522691D01*
X29917819Y-4516659D01*
X29826819Y-4425659D01*
X29793334Y-4364336D01*
X29790500Y-4337978D01*
X29790500Y-3043389D01*
X29770440Y-2916738D01*
X29763402Y-2872299D01*
X29709873Y-2707555D01*
X29631232Y-2553212D01*
X29529414Y-2413072D01*
X29406928Y-2290586D01*
X29266788Y-2188768D01*
X29112445Y-2110127D01*
X28947701Y-2056598D01*
X28947699Y-2056597D01*
X28947698Y-2056597D01*
X28816271Y-2035781D01*
X28776611Y-2029500D01*
X28603389Y-2029500D01*
X28563728Y-2035781D01*
X28432302Y-2056597D01*
X28267552Y-2110128D01*
X28113211Y-2188768D01*
X28033256Y-2246859D01*
X27973072Y-2290586D01*
X27973070Y-2290588D01*
X27973069Y-2290588D01*
X27850588Y-2413069D01*
X27850588Y-2413070D01*
X27850586Y-2413072D01*
X27806859Y-2473256D01*
X27748768Y-2553211D01*
X27670128Y-2707552D01*
X27616597Y-2872302D01*
X27589500Y-3043389D01*
X27589500Y-4428978D01*
X27583261Y-4450223D01*
X27581682Y-4472312D01*
X27573609Y-4483095D01*
X27569815Y-4496017D01*
X27553081Y-4510516D01*
X27539810Y-4528245D01*
X27527189Y-4532952D01*
X27517011Y-4541772D01*
X27495093Y-4544923D01*
X27474346Y-4552662D01*
X27461185Y-4549799D01*
X27447853Y-4551716D01*
X27427709Y-4542516D01*
X27406073Y-4537810D01*
X27388347Y-4524541D01*
X27384297Y-4522691D01*
X27377819Y-4516659D01*
X27286819Y-4425659D01*
X27253334Y-4364336D01*
X27250500Y-4337978D01*
X27250500Y-3043389D01*
X27230440Y-2916738D01*
X27223402Y-2872299D01*
X27169873Y-2707555D01*
X27091232Y-2553212D01*
X26989414Y-2413072D01*
X26866928Y-2290586D01*
X26726788Y-2188768D01*
X26572445Y-2110127D01*
X26407701Y-2056598D01*
X26407699Y-2056597D01*
X26407698Y-2056597D01*
X26276271Y-2035781D01*
X26236611Y-2029500D01*
X26063389Y-2029500D01*
X26023728Y-2035781D01*
X25892302Y-2056597D01*
X25727552Y-2110128D01*
X25573211Y-2188768D01*
X25493256Y-2246859D01*
X25433072Y-2290586D01*
X25433070Y-2290588D01*
X25433069Y-2290588D01*
X25310588Y-2413069D01*
X25310588Y-2413070D01*
X25310586Y-2413072D01*
X25266859Y-2473256D01*
X25208768Y-2553211D01*
X25130128Y-2707552D01*
X25076597Y-2872302D01*
X25049500Y-3043389D01*
X25049500Y-4428978D01*
X25043261Y-4450223D01*
X25041682Y-4472312D01*
X25033609Y-4483095D01*
X25029815Y-4496017D01*
X25013081Y-4510516D01*
X24999810Y-4528245D01*
X24987189Y-4532952D01*
X24977011Y-4541772D01*
X24955093Y-4544923D01*
X24934346Y-4552662D01*
X24921185Y-4549799D01*
X24907853Y-4551716D01*
X24887709Y-4542516D01*
X24866073Y-4537810D01*
X24848347Y-4524541D01*
X24844297Y-4522691D01*
X24837819Y-4516659D01*
X24746819Y-4425659D01*
X24713334Y-4364336D01*
X24710500Y-4337978D01*
X24710500Y-3043389D01*
X24690440Y-2916738D01*
X24683402Y-2872299D01*
X24629873Y-2707555D01*
X24551232Y-2553212D01*
X24449414Y-2413072D01*
X24326928Y-2290586D01*
X24186788Y-2188768D01*
X24032445Y-2110127D01*
X23867701Y-2056598D01*
X23867699Y-2056597D01*
X23867698Y-2056597D01*
X23736271Y-2035781D01*
X23696611Y-2029500D01*
X23523389Y-2029500D01*
X23483728Y-2035781D01*
X23352302Y-2056597D01*
X23187552Y-2110128D01*
X23033211Y-2188768D01*
X22953256Y-2246859D01*
X22893072Y-2290586D01*
X22893070Y-2290588D01*
X22893069Y-2290588D01*
X22770588Y-2413069D01*
X22770588Y-2413070D01*
X22770586Y-2413072D01*
X22726859Y-2473256D01*
X22668768Y-2553211D01*
X22590128Y-2707552D01*
X22536597Y-2872302D01*
X22509500Y-3043389D01*
X22509500Y-4428978D01*
X22503261Y-4450223D01*
X22501682Y-4472312D01*
X22493609Y-4483095D01*
X22489815Y-4496017D01*
X22473081Y-4510516D01*
X22459810Y-4528245D01*
X22447189Y-4532952D01*
X22437011Y-4541772D01*
X22415093Y-4544923D01*
X22394346Y-4552662D01*
X22381185Y-4549799D01*
X22367853Y-4551716D01*
X22347709Y-4542516D01*
X22326073Y-4537810D01*
X22308347Y-4524541D01*
X22304297Y-4522691D01*
X22297819Y-4516659D01*
X22206819Y-4425659D01*
X22173334Y-4364336D01*
X22170500Y-4337978D01*
X22170500Y-3043389D01*
X22150440Y-2916738D01*
X22143402Y-2872299D01*
X22089873Y-2707555D01*
X22011232Y-2553212D01*
X21909414Y-2413072D01*
X21786928Y-2290586D01*
X21646788Y-2188768D01*
X21492445Y-2110127D01*
X21327701Y-2056598D01*
X21327699Y-2056597D01*
X21327698Y-2056597D01*
X21196271Y-2035781D01*
X21156611Y-2029500D01*
X20983389Y-2029500D01*
X20943728Y-2035781D01*
X20812302Y-2056597D01*
X20647552Y-2110128D01*
X20493211Y-2188768D01*
X20413256Y-2246859D01*
X20353072Y-2290586D01*
X20353070Y-2290588D01*
X20353069Y-2290588D01*
X20230588Y-2413069D01*
X20230588Y-2413070D01*
X20230586Y-2413072D01*
X20186859Y-2473256D01*
X20128768Y-2553211D01*
X20050128Y-2707552D01*
X19996597Y-2872302D01*
X19969500Y-3043389D01*
X19969500Y-4428978D01*
X19963261Y-4450223D01*
X19961682Y-4472312D01*
X19953609Y-4483095D01*
X19949815Y-4496017D01*
X19933081Y-4510516D01*
X19919810Y-4528245D01*
X19907189Y-4532952D01*
X19897011Y-4541772D01*
X19875093Y-4544923D01*
X19854346Y-4552662D01*
X19841185Y-4549799D01*
X19827853Y-4551716D01*
X19807709Y-4542516D01*
X19786073Y-4537810D01*
X19768347Y-4524541D01*
X19764297Y-4522691D01*
X19757819Y-4516659D01*
X19666819Y-4425659D01*
X19633334Y-4364336D01*
X19630500Y-4337978D01*
X19630500Y-3043389D01*
X19610440Y-2916738D01*
X19603402Y-2872299D01*
X19549873Y-2707555D01*
X19471232Y-2553212D01*
X19369414Y-2413072D01*
X19246928Y-2290586D01*
X19106788Y-2188768D01*
X18952445Y-2110127D01*
X18787701Y-2056598D01*
X18787699Y-2056597D01*
X18787698Y-2056597D01*
X18656271Y-2035781D01*
X18616611Y-2029500D01*
X18443389Y-2029500D01*
X18403728Y-2035781D01*
X18272302Y-2056597D01*
X18107552Y-2110128D01*
X17953211Y-2188768D01*
X17873256Y-2246859D01*
X17813072Y-2290586D01*
X17813070Y-2290588D01*
X17813069Y-2290588D01*
X17690588Y-2413069D01*
X17690588Y-2413070D01*
X17690586Y-2413072D01*
X17646859Y-2473256D01*
X17588768Y-2553211D01*
X17510128Y-2707552D01*
X17456597Y-2872302D01*
X17429500Y-3043389D01*
X17429500Y-4428978D01*
X17423261Y-4450223D01*
X17421682Y-4472312D01*
X17413609Y-4483095D01*
X17409815Y-4496017D01*
X17393081Y-4510516D01*
X17379810Y-4528245D01*
X17367189Y-4532952D01*
X17357011Y-4541772D01*
X17335093Y-4544923D01*
X17314346Y-4552662D01*
X17301185Y-4549799D01*
X17287853Y-4551716D01*
X17267709Y-4542516D01*
X17246073Y-4537810D01*
X17228347Y-4524541D01*
X17224297Y-4522691D01*
X17217819Y-4516659D01*
X17126819Y-4425659D01*
X17093334Y-4364336D01*
X17090500Y-4337978D01*
X17090500Y-3043389D01*
X17070440Y-2916738D01*
X17063402Y-2872299D01*
X17009873Y-2707555D01*
X16931232Y-2553212D01*
X16829414Y-2413072D01*
X16706928Y-2290586D01*
X16566788Y-2188768D01*
X16412445Y-2110127D01*
X16247701Y-2056598D01*
X16247699Y-2056597D01*
X16247698Y-2056597D01*
X16116271Y-2035781D01*
X16076611Y-2029500D01*
X15903389Y-2029500D01*
X15863728Y-2035781D01*
X15732302Y-2056597D01*
X15567552Y-2110128D01*
X15413211Y-2188768D01*
X15333256Y-2246859D01*
X15273072Y-2290586D01*
X15273070Y-2290588D01*
X15273069Y-2290588D01*
X15150588Y-2413069D01*
X15150588Y-2413070D01*
X15150586Y-2413072D01*
X15106859Y-2473256D01*
X15048768Y-2553211D01*
X14970128Y-2707552D01*
X14916597Y-2872302D01*
X14889500Y-3043389D01*
X14889500Y-4428978D01*
X14883261Y-4450223D01*
X14881682Y-4472312D01*
X14873609Y-4483095D01*
X14869815Y-4496017D01*
X14853081Y-4510516D01*
X14839810Y-4528245D01*
X14827189Y-4532952D01*
X14817011Y-4541772D01*
X14795093Y-4544923D01*
X14774346Y-4552662D01*
X14761185Y-4549799D01*
X14747853Y-4551716D01*
X14727709Y-4542516D01*
X14706073Y-4537810D01*
X14688347Y-4524541D01*
X14684297Y-4522691D01*
X14677819Y-4516659D01*
X14586819Y-4425659D01*
X14553334Y-4364336D01*
X14550500Y-4337978D01*
X14550500Y-3043389D01*
X14530440Y-2916738D01*
X14523402Y-2872299D01*
X14469873Y-2707555D01*
X14391232Y-2553212D01*
X14289414Y-2413072D01*
X14166928Y-2290586D01*
X14026788Y-2188768D01*
X13872445Y-2110127D01*
X13707701Y-2056598D01*
X13707699Y-2056597D01*
X13707698Y-2056597D01*
X13576271Y-2035781D01*
X13536611Y-2029500D01*
X13363389Y-2029500D01*
X13323728Y-2035781D01*
X13192302Y-2056597D01*
X13027552Y-2110128D01*
X12873211Y-2188768D01*
X12793256Y-2246859D01*
X12733072Y-2290586D01*
X12733070Y-2290588D01*
X12733069Y-2290588D01*
X12610588Y-2413069D01*
X12610588Y-2413070D01*
X12610586Y-2413072D01*
X12566859Y-2473256D01*
X12508768Y-2553211D01*
X12430128Y-2707552D01*
X12376597Y-2872302D01*
X12351987Y-3027688D01*
X12349500Y-3043389D01*
X12349500Y-4616611D01*
X12376598Y-4787701D01*
X12430127Y-4952445D01*
X12508768Y-5106788D01*
X12610586Y-5246928D01*
X12610588Y-5246930D01*
X12733072Y-5369414D01*
X12774733Y-5399683D01*
X12817398Y-5455013D01*
X12823376Y-5524627D01*
X12790769Y-5586421D01*
X12774733Y-5600317D01*
X12733072Y-5630585D01*
X12610588Y-5753069D01*
X12610588Y-5753070D01*
X12610586Y-5753072D01*
X12584737Y-5788650D01*
X12508768Y-5893211D01*
X12430128Y-6047552D01*
X12376597Y-6212302D01*
X12367459Y-6270000D01*
X12349500Y-6383389D01*
X12349500Y-7956611D01*
X12376598Y-8127701D01*
X12430127Y-8292445D01*
X12508768Y-8446788D01*
X12610586Y-8586928D01*
X12610588Y-8586930D01*
X12633181Y-8609523D01*
X12666666Y-8670846D01*
X12669500Y-8697204D01*
X12669500Y-12945500D01*
X12649815Y-13012539D01*
X12597011Y-13058294D01*
X12545500Y-13069500D01*
X12187204Y-13069500D01*
X12120165Y-13049815D01*
X12099523Y-13033181D01*
X12016930Y-12950588D01*
X12016928Y-12950586D01*
X11876788Y-12848768D01*
X11722445Y-12770127D01*
X11557701Y-12716598D01*
X11557699Y-12716597D01*
X11557698Y-12716597D01*
X11426271Y-12695781D01*
X11386611Y-12689500D01*
X9613389Y-12689500D01*
X9573728Y-12695781D01*
X9442302Y-12716597D01*
X9277552Y-12770128D01*
X9123211Y-12848768D01*
X9043256Y-12906859D01*
X8983072Y-12950586D01*
X8983070Y-12950588D01*
X8983069Y-12950588D01*
X8860588Y-13073069D01*
X8860588Y-13073070D01*
X8860586Y-13073072D01*
X8816859Y-13133256D01*
X8758768Y-13213211D01*
X8680128Y-13367552D01*
X8626597Y-13532302D01*
X8599500Y-13703389D01*
X8599500Y-13876610D01*
X8613754Y-13966611D01*
X8626598Y-14047701D01*
X8680127Y-14212445D01*
X8758768Y-14366788D01*
X8860586Y-14506928D01*
X8983072Y-14629414D01*
X9123212Y-14731232D01*
X9277555Y-14809873D01*
X9442299Y-14863402D01*
X9613389Y-14890500D01*
X9613390Y-14890500D01*
X11386610Y-14890500D01*
X11386611Y-14890500D01*
X11557701Y-14863402D01*
X11722445Y-14809873D01*
X11876788Y-14731232D01*
X11900394Y-14714080D01*
X11927784Y-14694182D01*
X11993590Y-14670702D01*
X12000669Y-14670500D01*
X12565500Y-14670500D01*
X12632539Y-14690185D01*
X12678294Y-14742989D01*
X12689500Y-14794500D01*
X12689500Y-18217053D01*
X12669815Y-18284092D01*
X12617011Y-18329847D01*
X12547853Y-18339791D01*
X12484297Y-18310766D01*
X12455015Y-18273348D01*
X12411859Y-18188650D01*
X12291582Y-18023105D01*
X12291582Y-18023104D01*
X12146895Y-17878417D01*
X11981347Y-17758139D01*
X11970792Y-17752760D01*
X11970790Y-17752760D01*
X10982962Y-18740588D01*
X10965925Y-18677007D01*
X10900099Y-18562993D01*
X10807007Y-18469901D01*
X10692993Y-18404075D01*
X10629410Y-18387037D01*
X11440413Y-17576034D01*
X11437672Y-17567598D01*
X11435677Y-17497756D01*
X11471757Y-17437923D01*
X11534458Y-17407095D01*
X11536070Y-17406827D01*
X11557701Y-17403402D01*
X11722445Y-17349873D01*
X11876788Y-17271232D01*
X12016928Y-17169414D01*
X12139414Y-17046928D01*
X12241232Y-16906788D01*
X12319873Y-16752445D01*
X12373402Y-16587701D01*
X12400500Y-16416611D01*
X12400500Y-16243389D01*
X12373402Y-16072299D01*
X12319873Y-15907555D01*
X12241232Y-15753212D01*
X12139414Y-15613072D01*
X12016928Y-15490586D01*
X11876788Y-15388768D01*
X11722445Y-15310127D01*
X11557701Y-15256598D01*
X11557699Y-15256597D01*
X11557698Y-15256597D01*
X11426271Y-15235781D01*
X11386611Y-15229500D01*
X9613389Y-15229500D01*
X9573728Y-15235781D01*
X9442302Y-15256597D01*
X9277552Y-15310128D01*
X9123211Y-15388768D01*
X9043256Y-15446859D01*
X8983072Y-15490586D01*
X8983070Y-15490588D01*
X8983069Y-15490588D01*
X8860588Y-15613069D01*
X8860588Y-15613070D01*
X8860586Y-15613072D01*
X8816859Y-15673256D01*
X8758768Y-15753211D01*
X8680128Y-15907552D01*
X8626597Y-16072302D01*
X8599500Y-16243389D01*
X8599500Y-16416611D01*
X8626598Y-16587701D01*
X8680127Y-16752445D01*
X8758768Y-16906788D01*
X8860586Y-17046928D01*
X8983072Y-17169414D01*
X9123212Y-17271232D01*
X9277555Y-17349873D01*
X9442299Y-17403402D01*
X9463794Y-17406806D01*
X9526926Y-17436733D01*
X9563859Y-17496044D01*
X9562863Y-17565906D01*
X9562327Y-17567598D01*
X9559585Y-17576034D01*
X10370589Y-18387037D01*
X10307007Y-18404075D01*
X10192993Y-18469901D01*
X10099901Y-18562993D01*
X10034075Y-18677007D01*
X10017037Y-18740589D01*
X9029208Y-17752760D01*
X9029206Y-17752759D01*
X9018656Y-17758136D01*
X8853104Y-17878417D01*
X8708417Y-18023104D01*
X8708417Y-18023105D01*
X8588140Y-18188650D01*
X8495244Y-18370968D01*
X8432009Y-18565582D01*
X8400000Y-18767682D01*
X8400000Y-18972317D01*
X8432009Y-19174417D01*
X8495244Y-19369031D01*
X8588140Y-19551349D01*
X8708417Y-19716894D01*
X8708417Y-19716895D01*
X8853104Y-19861582D01*
X9018646Y-19981856D01*
X9018649Y-19981858D01*
X9029209Y-19987238D01*
X10017037Y-18999410D01*
X10034075Y-19062993D01*
X10099901Y-19177007D01*
X10192993Y-19270099D01*
X10307007Y-19335925D01*
X10370589Y-19352962D01*
X9559586Y-20163965D01*
X9597689Y-20170000D01*
X11402311Y-20170000D01*
X11440412Y-20163964D01*
X10629410Y-19352962D01*
X10692993Y-19335925D01*
X10807007Y-19270099D01*
X10900099Y-19177007D01*
X10965925Y-19062993D01*
X10982962Y-18999410D01*
X11970790Y-19987239D01*
X11981347Y-19981860D01*
X11981351Y-19981858D01*
X12146894Y-19861582D01*
X12146895Y-19861582D01*
X12291582Y-19716895D01*
X12291582Y-19716894D01*
X12411859Y-19551349D01*
X12504755Y-19369031D01*
X12567989Y-19174417D01*
X12588008Y-19048027D01*
X12617937Y-18984893D01*
X12677248Y-18947961D01*
X12747111Y-18948959D01*
X12805344Y-18987568D01*
X12813583Y-18998534D01*
X12868210Y-19080288D01*
X12868213Y-19080292D01*
X13814919Y-20026997D01*
X13848404Y-20088320D01*
X13849711Y-20134076D01*
X13819500Y-20324819D01*
X13819500Y-20529522D01*
X13851522Y-20731705D01*
X13914781Y-20926394D01*
X14007715Y-21108784D01*
X14125818Y-21271341D01*
X14149298Y-21337148D01*
X14149500Y-21344226D01*
X14149500Y-25057059D01*
X14129815Y-25124098D01*
X14113181Y-25144740D01*
X12811681Y-26446240D01*
X12750358Y-26479725D01*
X12680666Y-26474741D01*
X12624733Y-26432869D01*
X12600316Y-26367405D01*
X12600000Y-26358559D01*
X12600000Y-26187682D01*
X12567990Y-25985582D01*
X12504755Y-25790968D01*
X12411859Y-25608650D01*
X12291582Y-25443105D01*
X12291582Y-25443104D01*
X12146895Y-25298417D01*
X11981347Y-25178139D01*
X11970792Y-25172760D01*
X11970790Y-25172760D01*
X10982962Y-26160589D01*
X10965925Y-26097007D01*
X10900099Y-25982993D01*
X10807007Y-25889901D01*
X10692993Y-25824075D01*
X10629410Y-25807037D01*
X11445248Y-24991199D01*
X11443870Y-24942978D01*
X11479950Y-24883144D01*
X11542651Y-24852315D01*
X11563794Y-24850499D01*
X12144864Y-24850499D01*
X12144879Y-24850497D01*
X12144882Y-24850497D01*
X12169987Y-24847586D01*
X12169988Y-24847585D01*
X12169991Y-24847585D01*
X12272765Y-24802206D01*
X12352206Y-24722765D01*
X12397585Y-24619991D01*
X12400500Y-24594865D01*
X12400499Y-22905136D01*
X12400497Y-22905117D01*
X12397586Y-22880012D01*
X12397585Y-22880010D01*
X12397585Y-22880009D01*
X12352206Y-22777235D01*
X12272765Y-22697794D01*
X12272763Y-22697793D01*
X12169992Y-22652415D01*
X12144865Y-22649500D01*
X8855143Y-22649500D01*
X8855117Y-22649502D01*
X8830012Y-22652413D01*
X8830008Y-22652415D01*
X8727235Y-22697793D01*
X8647795Y-22777233D01*
X8647794Y-22777234D01*
X8647794Y-22777235D01*
X8635274Y-22805588D01*
X8590191Y-22858962D01*
X8523405Y-22879490D01*
X8521842Y-22879500D01*
X6974500Y-22879500D01*
X6907461Y-22859815D01*
X6861706Y-22807011D01*
X6850500Y-22755500D01*
X6850500Y-13844361D01*
X6870185Y-13777322D01*
X6886819Y-13756680D01*
X8406680Y-12236819D01*
X8433607Y-12222115D01*
X8459426Y-12205523D01*
X8465626Y-12204631D01*
X8468003Y-12203334D01*
X8494361Y-12200500D01*
X8574167Y-12200500D01*
X8641206Y-12220185D01*
X8661848Y-12236819D01*
X8727235Y-12302206D01*
X8830009Y-12347585D01*
X8855135Y-12350500D01*
X12144864Y-12350499D01*
X12144879Y-12350497D01*
X12144882Y-12350497D01*
X12169987Y-12347586D01*
X12169988Y-12347585D01*
X12169991Y-12347585D01*
X12272765Y-12302206D01*
X12352206Y-12222765D01*
X12397585Y-12119991D01*
X12400500Y-12094865D01*
X12400499Y-10405136D01*
X12400497Y-10405117D01*
X12397586Y-10380012D01*
X12397585Y-10380010D01*
X12397585Y-10380009D01*
X12352206Y-10277235D01*
X12272765Y-10197794D01*
X12272763Y-10197793D01*
X12169992Y-10152415D01*
X12144868Y-10149500D01*
X12144865Y-10149500D01*
X11934500Y-10149500D01*
X11867461Y-10129815D01*
X11821706Y-10077011D01*
X11810500Y-10025500D01*
X11810500Y-8543140D01*
X11830185Y-8476101D01*
X11834164Y-8470279D01*
X11851232Y-8446788D01*
X11929873Y-8292445D01*
X11983402Y-8127701D01*
X12010500Y-7956611D01*
X12010500Y-6383389D01*
X11983402Y-6212299D01*
X11929873Y-6047555D01*
X11851232Y-5893212D01*
X11851229Y-5893208D01*
X11851229Y-5893207D01*
X11834182Y-5869745D01*
X11810702Y-5803939D01*
X11810500Y-5796859D01*
X11810500Y-5203140D01*
X11830185Y-5136101D01*
X11834164Y-5130279D01*
X11851232Y-5106788D01*
X11929873Y-4952445D01*
X11983402Y-4787701D01*
X12010500Y-4616611D01*
X12010500Y-3043389D01*
X11983402Y-2872299D01*
X11929873Y-2707555D01*
X11851232Y-2553212D01*
X11749414Y-2413072D01*
X11626928Y-2290586D01*
X11486788Y-2188768D01*
X11332445Y-2110127D01*
X11167701Y-2056598D01*
X11167699Y-2056597D01*
X11167698Y-2056597D01*
X11036271Y-2035781D01*
X10996611Y-2029500D01*
X10823389Y-2029500D01*
X10783728Y-2035781D01*
X10652302Y-2056597D01*
X10487552Y-2110128D01*
X10333211Y-2188768D01*
X10253256Y-2246859D01*
X10193072Y-2290586D01*
X10193070Y-2290588D01*
X10193069Y-2290588D01*
X10070588Y-2413069D01*
X10070588Y-2413070D01*
X10070586Y-2413072D01*
X10026859Y-2473256D01*
X9968768Y-2553211D01*
X9890128Y-2707552D01*
X9836597Y-2872302D01*
X9811987Y-3027688D01*
X9809500Y-3043389D01*
X9809500Y-4616611D01*
X9836598Y-4787701D01*
X9890127Y-4952445D01*
X9968768Y-5106788D01*
X9985818Y-5130255D01*
X10009298Y-5196058D01*
X10009500Y-5203140D01*
X10009500Y-5796859D01*
X9989815Y-5863898D01*
X9985818Y-5869745D01*
X9968770Y-5893207D01*
X9968769Y-5893210D01*
X9890128Y-6047552D01*
X9836597Y-6212302D01*
X9827459Y-6270000D01*
X9809500Y-6383389D01*
X9809500Y-7956611D01*
X9836598Y-8127701D01*
X9890127Y-8292445D01*
X9968768Y-8446788D01*
X9985818Y-8470255D01*
X10009298Y-8536058D01*
X10009500Y-8543140D01*
X10009500Y-10025500D01*
X9989815Y-10092539D01*
X9937011Y-10138294D01*
X9885500Y-10149500D01*
X8855143Y-10149500D01*
X8855117Y-10149502D01*
X8830012Y-10152413D01*
X8830008Y-10152415D01*
X8727235Y-10197793D01*
X8647795Y-10277233D01*
X8647794Y-10277234D01*
X8647794Y-10277235D01*
X8626443Y-10325588D01*
X8581360Y-10378962D01*
X8514574Y-10399490D01*
X8513011Y-10399500D01*
X7981303Y-10399500D01*
X7807341Y-10434103D01*
X7807333Y-10434105D01*
X7643457Y-10501985D01*
X7643447Y-10501990D01*
X7495965Y-10600535D01*
X7495961Y-10600538D01*
X5742181Y-12354319D01*
X5680858Y-12387804D01*
X5611166Y-12382820D01*
X5555233Y-12340948D01*
X5530816Y-12275484D01*
X5530500Y-12266638D01*
X5530500Y-10934360D01*
X5550185Y-10867321D01*
X5566814Y-10846684D01*
X7607732Y-8805765D01*
X7669053Y-8772282D01*
X7738745Y-8777266D01*
X7768296Y-8793129D01*
X7793212Y-8811232D01*
X7947555Y-8889873D01*
X8112299Y-8943402D01*
X8283389Y-8970500D01*
X8283390Y-8970500D01*
X8456610Y-8970500D01*
X8456611Y-8970500D01*
X8627701Y-8943402D01*
X8792445Y-8889873D01*
X8946788Y-8811232D01*
X9086928Y-8709414D01*
X9209414Y-8586928D01*
X9311232Y-8446788D01*
X9389873Y-8292445D01*
X9443402Y-8127701D01*
X9470500Y-7956611D01*
X9470500Y-6383389D01*
X9443402Y-6212299D01*
X9389873Y-6047555D01*
X9311232Y-5893212D01*
X9311229Y-5893208D01*
X9311229Y-5893207D01*
X9294182Y-5869745D01*
X9287029Y-5849698D01*
X9275523Y-5831794D01*
X9272068Y-5807769D01*
X9270702Y-5803939D01*
X9270500Y-5796859D01*
X9270500Y-5694912D01*
X9290185Y-5627873D01*
X9334071Y-5589845D01*
X9333286Y-5588699D01*
X9342760Y-5582207D01*
X9342765Y-5582206D01*
X9422206Y-5502765D01*
X9467585Y-5399991D01*
X9470500Y-5374865D01*
X9470499Y-2285136D01*
X9470264Y-2283110D01*
X9467586Y-2260012D01*
X9467585Y-2260010D01*
X9467585Y-2260009D01*
X9422206Y-2157235D01*
X9342765Y-2077794D01*
X9342763Y-2077793D01*
X9239992Y-2032415D01*
X9214865Y-2029500D01*
X7525143Y-2029500D01*
X7525117Y-2029502D01*
X7500012Y-2032413D01*
X7500008Y-2032415D01*
X7397235Y-2077793D01*
X7317794Y-2157234D01*
X7272415Y-2260006D01*
X7272415Y-2260008D01*
X7269500Y-2285131D01*
X7269500Y-5374856D01*
X7269502Y-5374882D01*
X7272413Y-5399987D01*
X7272415Y-5399991D01*
X7317793Y-5502764D01*
X7397234Y-5582205D01*
X7406714Y-5588699D01*
X7405768Y-5590078D01*
X7409790Y-5593475D01*
X7426703Y-5601199D01*
X7435928Y-5615553D01*
X7448963Y-5626564D01*
X7454425Y-5644336D01*
X7464477Y-5659977D01*
X7469086Y-5692038D01*
X7469490Y-5693350D01*
X7469500Y-5694912D01*
X7469500Y-5796859D01*
X7449815Y-5863898D01*
X7445818Y-5869745D01*
X7428770Y-5893207D01*
X7428769Y-5893210D01*
X7350128Y-6047552D01*
X7296597Y-6212302D01*
X7269500Y-6383389D01*
X7269500Y-6545638D01*
X7249815Y-6612677D01*
X7233181Y-6633319D01*
X3930535Y-9935964D01*
X3930533Y-9935966D01*
X3917630Y-9955279D01*
X3917626Y-9955284D01*
X3915310Y-9958752D01*
X3831987Y-10083453D01*
X3804171Y-10150607D01*
X3801110Y-10157996D01*
X3801107Y-10158002D01*
X3764105Y-10247333D01*
X3764103Y-10247341D01*
X3729500Y-10421303D01*
X2319089Y-10421303D01*
X2319089Y-9791863D01*
X524500Y-9791863D01*
X457461Y-9772178D01*
X411706Y-9719374D01*
X400500Y-9667863D01*
X400500Y-3385921D01*
X1759500Y-3385921D01*
X1759500Y-3614078D01*
X1789278Y-3840272D01*
X1789279Y-3840277D01*
X1789280Y-3840283D01*
X1811442Y-3922993D01*
X1848331Y-4060666D01*
X1935638Y-4271446D01*
X1935646Y-4271462D01*
X2049717Y-4469037D01*
X2049728Y-4469053D01*
X2188613Y-4650052D01*
X2188619Y-4650059D01*
X2349940Y-4811380D01*
X2349946Y-4811385D01*
X2530955Y-4950278D01*
X2530962Y-4950282D01*
X2728537Y-5064353D01*
X2728553Y-5064361D01*
X2830975Y-5106785D01*
X2939334Y-5151669D01*
X3159717Y-5210720D01*
X3319474Y-5231752D01*
X3385921Y-5240500D01*
X3385922Y-5240500D01*
X3614079Y-5240500D01*
X3665438Y-5233738D01*
X3840283Y-5210720D01*
X4060666Y-5151669D01*
X4253561Y-5071769D01*
X4271446Y-5064361D01*
X4271449Y-5064359D01*
X4271455Y-5064357D01*
X4469045Y-4950278D01*
X4650054Y-4811385D01*
X4811385Y-4650054D01*
X4950278Y-4469045D01*
X5064357Y-4271455D01*
X5151669Y-4060666D01*
X5210720Y-3840283D01*
X5240500Y-3614078D01*
X5240500Y-3385922D01*
X5210720Y-3159717D01*
X5151669Y-2939334D01*
X5111463Y-2842268D01*
X5064361Y-2728553D01*
X5064353Y-2728537D01*
X4950282Y-2530962D01*
X4950278Y-2530955D01*
X4859821Y-2413069D01*
X4811386Y-2349947D01*
X4811380Y-2349940D01*
X4650059Y-2188619D01*
X4650052Y-2188613D01*
X4469053Y-2049728D01*
X4469051Y-2049726D01*
X4469045Y-2049722D01*
X4469040Y-2049719D01*
X4469037Y-2049717D01*
X4271462Y-1935646D01*
X4271446Y-1935638D01*
X4060666Y-1848331D01*
X3992253Y-1830000D01*
X3840283Y-1789280D01*
X3840277Y-1789279D01*
X3840272Y-1789278D01*
X3614079Y-1759500D01*
X3614078Y-1759500D01*
X3385922Y-1759500D01*
X3385921Y-1759500D01*
X3159727Y-1789278D01*
X3159720Y-1789279D01*
X3159717Y-1789280D01*
X3066567Y-1814239D01*
X2939333Y-1848331D01*
X2728553Y-1935638D01*
X2728537Y-1935646D01*
X2530962Y-2049717D01*
X2530946Y-2049728D01*
X2349947Y-2188613D01*
X2349940Y-2188619D01*
X2188619Y-2349940D01*
X2188613Y-2349947D01*
X2049728Y-2530946D01*
X2049717Y-2530962D01*
X1935646Y-2728537D01*
X1935638Y-2728553D01*
X1848331Y-2939333D01*
X1789281Y-3159714D01*
X1789278Y-3159727D01*
X1759500Y-3385921D01*
X400500Y-3385921D01*
X400500Y-524500D01*
X420185Y-457461D01*
X472989Y-411706D01*
X524500Y-400500D01*
X64475500Y-400500D01*
X64542539Y-420185D01*
G37*
%TD.AperFunction*%
%TD*%
%TA.AperFunction,NonConductor*%
G36*
X16616937Y-11432317D02*
G01*
X16660393Y-11487028D01*
X16669500Y-11533671D01*
X16669500Y-17033955D01*
X16663261Y-17055200D01*
X16661682Y-17077289D01*
X16653609Y-17088072D01*
X16649815Y-17100994D01*
X16633081Y-17115493D01*
X16619810Y-17133222D01*
X16607189Y-17137929D01*
X16597011Y-17146749D01*
X16575093Y-17149900D01*
X16554346Y-17157639D01*
X16541185Y-17154776D01*
X16527853Y-17156693D01*
X16507709Y-17147493D01*
X16486073Y-17142787D01*
X16468347Y-17129518D01*
X16464297Y-17127668D01*
X16457819Y-17121636D01*
X16456819Y-17120636D01*
X16423334Y-17059313D01*
X16420500Y-17032955D01*
X16420500Y-11535634D01*
X16434011Y-11479348D01*
X16435011Y-11477385D01*
X16482981Y-11426585D01*
X16550801Y-11409784D01*
X16616937Y-11432317D01*
G37*
%TD.AperFunction*%
%TA.AperFunction,NonConductor*%
G36*
X14467385Y-11869844D02*
G01*
X14608387Y-11972287D01*
X14608389Y-11972288D01*
X14751795Y-12045357D01*
X14802591Y-12093330D01*
X14819500Y-12155841D01*
X14819500Y-17494741D01*
X14850261Y-17649384D01*
X14850264Y-17649396D01*
X14910602Y-17795067D01*
X14910609Y-17795080D01*
X14998210Y-17926183D01*
X14998213Y-17926187D01*
X15683181Y-18611154D01*
X15716666Y-18672477D01*
X15719500Y-18698835D01*
X15719500Y-19083862D01*
X15699815Y-19150901D01*
X15647011Y-19196656D01*
X15577853Y-19206600D01*
X15557182Y-19201793D01*
X15424537Y-19158694D01*
X15222344Y-19126669D01*
X15220608Y-19126533D01*
X15219988Y-19126296D01*
X15217540Y-19125909D01*
X15217621Y-19125394D01*
X15155324Y-19101639D01*
X15142676Y-19090598D01*
X14326819Y-18274741D01*
X14293334Y-18213418D01*
X14290500Y-18187060D01*
X14290500Y-14067157D01*
X14290499Y-14067154D01*
X14272883Y-13978590D01*
X14270500Y-13954399D01*
X14270500Y-11970162D01*
X14290185Y-11903123D01*
X14342989Y-11857368D01*
X14412147Y-11847424D01*
X14467385Y-11869844D01*
G37*
%TD.AperFunction*%
%TA.AperFunction,NonConductor*%
G36*
X39242834Y-16971758D02*
G01*
X39298767Y-17013630D01*
X39323184Y-17079094D01*
X39323500Y-17087940D01*
X39323500Y-18500846D01*
X39354261Y-18655489D01*
X39354264Y-18655501D01*
X39414602Y-18801172D01*
X39414609Y-18801185D01*
X39502210Y-18932288D01*
X39502213Y-18932292D01*
X39857741Y-19287819D01*
X39891226Y-19349142D01*
X39886242Y-19418833D01*
X39844371Y-19474767D01*
X39778906Y-19499184D01*
X39770060Y-19499500D01*
X37823500Y-19499500D01*
X37756461Y-19479815D01*
X37710706Y-19427011D01*
X37699500Y-19375500D01*
X37699500Y-18463940D01*
X37719185Y-18396901D01*
X37735819Y-18376259D01*
X39111819Y-17000259D01*
X39173142Y-16966774D01*
X39242834Y-16971758D01*
G37*
%TD.AperFunction*%
%TA.AperFunction,NonConductor*%
G36*
X40243539Y-23520184D02*
G01*
X40289294Y-23572988D01*
X40300500Y-23624499D01*
X40300500Y-25651953D01*
X40295290Y-25669693D01*
X40295089Y-25688182D01*
X40285651Y-25702521D01*
X40280815Y-25718992D01*
X40266843Y-25731098D01*
X40256677Y-25746545D01*
X40240983Y-25753506D01*
X40228011Y-25764747D01*
X40209711Y-25767378D01*
X40192809Y-25774876D01*
X40175844Y-25772247D01*
X40158853Y-25774691D01*
X40142032Y-25767009D01*
X40123763Y-25764179D01*
X40096395Y-25746167D01*
X40095297Y-25745666D01*
X40094486Y-25744911D01*
X40094281Y-25744776D01*
X40091479Y-25742294D01*
X40007219Y-25658034D01*
X39946763Y-25614110D01*
X39942281Y-25610140D01*
X39926768Y-25585414D01*
X39908949Y-25562305D01*
X39908422Y-25556171D01*
X39905149Y-25550954D01*
X39900500Y-25517317D01*
X39900500Y-23624499D01*
X39920185Y-23557460D01*
X39972989Y-23511705D01*
X40024500Y-23500499D01*
X40176500Y-23500499D01*
X40243539Y-23520184D01*
G37*
%TD.AperFunction*%
%TA.AperFunction,NonConductor*%
G36*
X38042539Y-23520184D02*
G01*
X38088294Y-23572988D01*
X38099500Y-23624499D01*
X38099500Y-25856820D01*
X38099322Y-25857422D01*
X38099494Y-25858027D01*
X38089485Y-25890924D01*
X38079815Y-25923859D01*
X38079280Y-25924470D01*
X38079158Y-25924872D01*
X38075820Y-25929703D01*
X38047712Y-25968391D01*
X37984393Y-26092662D01*
X37936418Y-26143458D01*
X37868597Y-26160253D01*
X37802462Y-26137715D01*
X37786227Y-26124048D01*
X37735819Y-26073640D01*
X37729078Y-26061294D01*
X37718537Y-26051980D01*
X37712664Y-26031236D01*
X37702334Y-26012317D01*
X37699500Y-25985959D01*
X37699500Y-23624499D01*
X37719185Y-23557460D01*
X37771989Y-23511705D01*
X37823500Y-23500499D01*
X37975500Y-23500499D01*
X38042539Y-23520184D01*
G37*
%TD.AperFunction*%
%TA.AperFunction,NonConductor*%
G36*
X15638834Y-25985758D02*
G01*
X15694767Y-26027630D01*
X15719184Y-26093094D01*
X15719500Y-26101940D01*
X15719500Y-29296717D01*
X15699815Y-29363756D01*
X15683181Y-29384398D01*
X14804741Y-30262838D01*
X14743418Y-30296323D01*
X14717060Y-30299157D01*
X14339704Y-30299157D01*
X14272665Y-30279472D01*
X14252023Y-30262838D01*
X14217213Y-30228028D01*
X14051613Y-30107715D01*
X14051612Y-30107714D01*
X14051610Y-30107713D01*
X13994653Y-30078691D01*
X13869223Y-30014781D01*
X13674534Y-29951522D01*
X13499995Y-29923878D01*
X13472352Y-29919500D01*
X13267648Y-29919500D01*
X13243329Y-29923351D01*
X13065465Y-29951522D01*
X12870776Y-30014781D01*
X12688386Y-30107715D01*
X12522786Y-30228028D01*
X12522782Y-30228032D01*
X12467634Y-30283181D01*
X12406311Y-30316666D01*
X12379953Y-30319500D01*
X11647826Y-30319500D01*
X11609508Y-30313431D01*
X11601443Y-30310810D01*
X11557701Y-30296597D01*
X11410003Y-30273204D01*
X11386611Y-30269500D01*
X9613389Y-30269500D01*
X9573728Y-30275781D01*
X9442302Y-30296597D01*
X9277547Y-30350129D01*
X9273046Y-30351994D01*
X9272378Y-30350383D01*
X9211102Y-30361879D01*
X9146366Y-30335590D01*
X9106120Y-30278475D01*
X9099500Y-30238500D01*
X9099500Y-29961499D01*
X9119185Y-29894460D01*
X9171989Y-29848705D01*
X9241147Y-29838761D01*
X9272726Y-29848776D01*
X9273046Y-29848006D01*
X9277547Y-29849870D01*
X9277552Y-29849871D01*
X9277555Y-29849873D01*
X9442299Y-29903402D01*
X9613389Y-29930500D01*
X9613390Y-29930500D01*
X11386610Y-29930500D01*
X11386611Y-29930500D01*
X11557701Y-29903402D01*
X11722445Y-29849873D01*
X11876788Y-29771232D01*
X12016928Y-29669414D01*
X12139414Y-29546928D01*
X12241232Y-29406788D01*
X12319873Y-29252445D01*
X12334856Y-29206331D01*
X12365103Y-29156973D01*
X15507819Y-26014259D01*
X15569142Y-25980774D01*
X15638834Y-25985758D01*
G37*
%TD.AperFunction*%
%TA.AperFunction,NonConductor*%
G36*
X16588834Y-30845415D02*
G01*
X16644767Y-30887287D01*
X16669184Y-30952751D01*
X16669500Y-30961597D01*
X16669500Y-31379165D01*
X16649815Y-31446204D01*
X16633181Y-31466846D01*
X15728181Y-32371846D01*
X15666858Y-32405331D01*
X15597166Y-32400347D01*
X15541233Y-32358475D01*
X15516816Y-32293011D01*
X15516500Y-32284165D01*
X15516500Y-31865194D01*
X15525239Y-31835429D01*
X15532009Y-31805147D01*
X15535287Y-31801211D01*
X15536185Y-31798155D01*
X15553321Y-31777014D01*
X15560989Y-31769432D01*
X15564946Y-31766789D01*
X15676446Y-31655289D01*
X16457819Y-30873916D01*
X16519142Y-30840431D01*
X16588834Y-30845415D01*
G37*
%TD.AperFunction*%
%TA.AperFunction,NonConductor*%
G36*
X12352303Y-32034894D02*
G01*
X12366201Y-32050933D01*
X12378032Y-32067217D01*
X12522786Y-32211971D01*
X12659410Y-32311232D01*
X12688390Y-32332287D01*
X12729668Y-32353319D01*
X12772248Y-32375015D01*
X12823044Y-32422990D01*
X12839839Y-32490811D01*
X12817301Y-32556946D01*
X12762586Y-32600397D01*
X12715953Y-32609500D01*
X11807901Y-32609500D01*
X11740862Y-32589815D01*
X11695107Y-32537011D01*
X11685163Y-32467853D01*
X11714188Y-32404297D01*
X11751606Y-32375015D01*
X11767165Y-32367086D01*
X11876788Y-32311232D01*
X12016928Y-32209414D01*
X12139414Y-32086928D01*
X12165565Y-32050933D01*
X12220894Y-32008268D01*
X12290508Y-32002289D01*
X12352303Y-32034894D01*
G37*
%TD.AperFunction*%
%TA.AperFunction,NonConductor*%
G36*
X13882855Y-32497006D02*
G01*
X13913684Y-32559706D01*
X13915500Y-32580853D01*
X13915500Y-33124746D01*
X13895815Y-33191785D01*
X13843011Y-33237540D01*
X13773853Y-33247484D01*
X13710297Y-33218459D01*
X13703819Y-33212427D01*
X13279605Y-32788213D01*
X13279601Y-32788210D01*
X13218827Y-32747602D01*
X13174022Y-32693990D01*
X13165315Y-32624665D01*
X13195469Y-32561637D01*
X13254913Y-32524918D01*
X13287718Y-32520500D01*
X13472351Y-32520500D01*
X13472352Y-32520500D01*
X13674534Y-32488477D01*
X13674539Y-32488475D01*
X13674541Y-32488475D01*
X13708453Y-32477456D01*
X13753181Y-32462922D01*
X13823021Y-32460926D01*
X13882855Y-32497006D01*
G37*
%TD.AperFunction*%
%TA.AperFunction,NonConductor*%
G36*
X5735703Y-32075175D02*
G01*
X5742181Y-32081207D01*
X7842470Y-34181496D01*
X7853353Y-34201426D01*
X7868063Y-34218730D01*
X7869777Y-34231505D01*
X7875955Y-34242819D01*
X7874334Y-34265472D01*
X7877355Y-34287979D01*
X7871890Y-34299652D01*
X7870971Y-34312511D01*
X7857360Y-34330691D01*
X7847733Y-34351259D01*
X7831865Y-34364748D01*
X7829099Y-34368444D01*
X7823191Y-34372122D01*
X7820843Y-34374119D01*
X7816086Y-34377113D01*
X7793212Y-34388768D01*
X7764964Y-34409290D01*
X7761466Y-34411493D01*
X7731663Y-34419939D01*
X7702491Y-34430349D01*
X7698342Y-34429384D01*
X7694244Y-34430546D01*
X7664596Y-34421536D01*
X7634437Y-34414523D01*
X7631469Y-34411469D01*
X7627393Y-34410231D01*
X7607731Y-34394232D01*
X5566819Y-32353319D01*
X5533334Y-32291996D01*
X5530500Y-32265638D01*
X5530500Y-32168888D01*
X5550185Y-32101849D01*
X5602989Y-32056094D01*
X5672147Y-32046150D01*
X5735703Y-32075175D01*
G37*
%TD.AperFunction*%
M02*
