%TF.GenerationSoftware,KiCad,Pcbnew,9.0.7*%
%TF.CreationDate,2026-05-29T19:15:42+02:00*%
%TF.ProjectId,BarePi_RTC,42617265-5069-45f5-9254-432e6b696361,rev?*%
%TF.SameCoordinates,Original*%
%TF.FileFunction,Soldermask,Top*%
%TF.FilePolarity,Negative*%
%FSLAX46Y46*%
G04 Gerber Fmt 4.6, Leading zero omitted, Abs format (unit mm)*
G04 Created by KiCad (PCBNEW 9.0.7) date 2026-05-29 19:15:42*
%MOMM*%
%LPD*%
G01*
G04 APERTURE LIST*
G04 Aperture macros list*
%AMRoundRect*
0 Rectangle with rounded corners*
0 $1 Rounding radius*
0 $2 $3 $4 $5 $6 $7 $8 $9 X,Y pos of 4 corners*
0 Add a 4 corners polygon primitive as box body*
4,1,4,$2,$3,$4,$5,$6,$7,$8,$9,$2,$3,0*
0 Add four circle primitives for the rounded corners*
1,1,$1+$1,$2,$3*
1,1,$1+$1,$4,$5*
1,1,$1+$1,$6,$7*
1,1,$1+$1,$8,$9*
0 Add four rect primitives between the rounded corners*
20,1,$1+$1,$2,$3,$4,$5,0*
20,1,$1+$1,$4,$5,$6,$7,0*
20,1,$1+$1,$6,$7,$8,$9,0*
20,1,$1+$1,$8,$9,$2,$3,0*%
%AMOutline4P*
0 Free polygon, 4 corners , with rotation*
0 The origin of the aperture is its center*
0 number of corners: always 4*
0 $1 to $8 corner X, Y*
0 $9 Rotation angle, in degrees counterclockwise*
0 create outline with 4 corners*
4,1,4,$1,$2,$3,$4,$5,$6,$7,$8,$1,$2,$9*%
G04 Aperture macros list end*
%ADD10Outline4P,-1.600000X-0.800000X1.600000X-0.800000X1.600000X0.800000X-1.600000X0.800000X0.000000*%
%ADD11O,3.200000X1.600000*%
%ADD12RoundRect,0.250000X0.400000X0.625000X-0.400000X0.625000X-0.400000X-0.625000X0.400000X-0.625000X0*%
%ADD13Outline4P,-1.500000X-0.800000X1.500000X-0.800000X1.500000X0.800000X-1.500000X0.800000X270.000000*%
%ADD14O,1.600000X3.000000*%
%ADD15R,3.000000X3.000000*%
%ADD16C,3.000000*%
%ADD17RoundRect,0.250000X-0.650000X0.412500X-0.650000X-0.412500X0.650000X-0.412500X0.650000X0.412500X0*%
%ADD18RoundRect,0.150000X0.825000X0.150000X-0.825000X0.150000X-0.825000X-0.150000X0.825000X-0.150000X0*%
%ADD19RoundRect,0.150000X0.150000X-0.875000X0.150000X0.875000X-0.150000X0.875000X-0.150000X-0.875000X0*%
%ADD20RoundRect,0.250000X-0.412500X-0.650000X0.412500X-0.650000X0.412500X0.650000X-0.412500X0.650000X0*%
G04 APERTURE END LIST*
D10*
%TO.C,J4*%
X10500000Y-11250000D03*
D11*
X10500000Y-13790000D03*
X10500000Y-16330000D03*
X10500000Y-18870000D03*
%TD*%
D12*
%TO.C,R1*%
X17925000Y-28885000D03*
X14825000Y-28885000D03*
%TD*%
D13*
%TO.C,J2*%
X8370000Y-39370000D03*
D14*
X8370000Y-36030000D03*
X10910000Y-39370000D03*
X10910000Y-36030000D03*
X13450000Y-39370000D03*
X13450000Y-36030000D03*
X15990000Y-39370000D03*
X15990000Y-36030000D03*
X18530000Y-39370000D03*
X18530000Y-36030000D03*
X21070000Y-39370000D03*
X21070000Y-36030000D03*
X23610000Y-39370000D03*
X23610000Y-36030000D03*
X26150000Y-39370000D03*
X26150000Y-36030000D03*
X28690000Y-39370000D03*
X28690000Y-36030000D03*
X31230000Y-39370000D03*
X31230000Y-36030000D03*
X33770000Y-39370000D03*
X33770000Y-36030000D03*
X36310000Y-39370000D03*
X36310000Y-36030000D03*
X38850000Y-39370000D03*
X38850000Y-36030000D03*
X41390000Y-39370000D03*
X41390000Y-36030000D03*
X43930000Y-39370000D03*
X43930000Y-36030000D03*
X46470000Y-39370000D03*
X46470000Y-36030000D03*
X49010000Y-39370000D03*
X49010000Y-36030000D03*
X51550000Y-39370000D03*
X51550000Y-36030000D03*
X54090000Y-39370000D03*
X54090000Y-36030000D03*
X56630000Y-39370000D03*
X56630000Y-36030000D03*
%TD*%
D15*
%TO.C,BT1*%
X39000000Y-21500000D03*
D16*
X59800000Y-21500000D03*
%TD*%
D17*
%TO.C,C2*%
X33965000Y-20802500D03*
X33965000Y-23927500D03*
%TD*%
D16*
%TO.C,REF\u002A\u002A*%
X3500000Y-44500000D03*
%TD*%
D18*
%TO.C,U2*%
X27430000Y-17395000D03*
X27430000Y-16125000D03*
X27430000Y-14855000D03*
X27430000Y-13585000D03*
X22480000Y-13585000D03*
X22480000Y-14855000D03*
X22480000Y-16125000D03*
X22480000Y-17395000D03*
%TD*%
D13*
%TO.C,J1*%
X8370000Y-3830000D03*
D14*
X8370000Y-7170000D03*
X10910000Y-3830000D03*
X10910000Y-7170000D03*
X13450000Y-3830000D03*
X13450000Y-7170000D03*
X15990000Y-3830000D03*
X15990000Y-7170000D03*
X18530000Y-3830000D03*
X18530000Y-7170000D03*
X21070000Y-3830000D03*
X21070000Y-7170000D03*
X23610000Y-3830000D03*
X23610000Y-7170000D03*
X26150000Y-3830000D03*
X26150000Y-7170000D03*
X28690000Y-3830000D03*
X28690000Y-7170000D03*
X31230000Y-3830000D03*
X31230000Y-7170000D03*
X33770000Y-3830000D03*
X33770000Y-7170000D03*
X36310000Y-3830000D03*
X36310000Y-7170000D03*
X38850000Y-3830000D03*
X38850000Y-7170000D03*
X41390000Y-3830000D03*
X41390000Y-7170000D03*
X43930000Y-3830000D03*
X43930000Y-7170000D03*
X46470000Y-3830000D03*
X46470000Y-7170000D03*
X49010000Y-3830000D03*
X49010000Y-7170000D03*
X51550000Y-3830000D03*
X51550000Y-7170000D03*
X54090000Y-3830000D03*
X54090000Y-7170000D03*
X56630000Y-3830000D03*
X56630000Y-7170000D03*
%TD*%
D12*
%TO.C,R2*%
X19095000Y-31655000D03*
X15995000Y-31655000D03*
%TD*%
D16*
%TO.C,REF\u002A\u002A*%
X3500000Y-3500000D03*
%TD*%
%TO.C,REF\u002A\u002A*%
X61500000Y-3500000D03*
%TD*%
D19*
%TO.C,U1*%
X21690000Y-31570000D03*
X22960000Y-31570000D03*
X24230000Y-31570000D03*
X25500000Y-31570000D03*
X26770000Y-31570000D03*
X28040000Y-31570000D03*
X29310000Y-31570000D03*
X30580000Y-31570000D03*
X30580000Y-22270000D03*
X29310000Y-22270000D03*
X28040000Y-22270000D03*
X26770000Y-22270000D03*
X25500000Y-22270000D03*
X24230000Y-22270000D03*
X22960000Y-22270000D03*
X21690000Y-22270000D03*
%TD*%
D20*
%TO.C,C1*%
X16350000Y-23255000D03*
X19475000Y-23255000D03*
%TD*%
D10*
%TO.C,J3*%
X10500000Y-23750000D03*
D11*
X10500000Y-26290000D03*
X10500000Y-28830000D03*
X10500000Y-31370000D03*
%TD*%
D16*
%TO.C,REF\u002A\u002A*%
X61500000Y-44500000D03*
%TD*%
M02*
