%TF.GenerationSoftware,KiCad,Pcbnew,9.0.7*%
%TF.CreationDate,2026-05-24T15:35:15+02:00*%
%TF.ProjectId,BarePi_LCD16x2,42617265-5069-45f4-9c43-44313678322e,rev?*%
%TF.SameCoordinates,Original*%
%TF.FileFunction,Legend,Top*%
%TF.FilePolarity,Positive*%
%FSLAX46Y46*%
G04 Gerber Fmt 4.6, Leading zero omitted, Abs format (unit mm)*
G04 Created by KiCad (PCBNEW 9.0.7) date 2026-05-24 15:35:15*
%MOMM*%
%LPD*%
G01*
G04 APERTURE LIST*
%ADD10C,0.150000*%
%ADD11C,0.120000*%
G04 APERTURE END LIST*
D10*
X1628095Y-8384819D02*
X1628095Y-9194342D01*
X1628095Y-9194342D02*
X1675714Y-9289580D01*
X1675714Y-9289580D02*
X1723333Y-9337200D01*
X1723333Y-9337200D02*
X1818571Y-9384819D01*
X1818571Y-9384819D02*
X2009047Y-9384819D01*
X2009047Y-9384819D02*
X2104285Y-9337200D01*
X2104285Y-9337200D02*
X2151904Y-9289580D01*
X2151904Y-9289580D02*
X2199523Y-9194342D01*
X2199523Y-9194342D02*
X2199523Y-8384819D01*
X2628095Y-8480057D02*
X2675714Y-8432438D01*
X2675714Y-8432438D02*
X2770952Y-8384819D01*
X2770952Y-8384819D02*
X3009047Y-8384819D01*
X3009047Y-8384819D02*
X3104285Y-8432438D01*
X3104285Y-8432438D02*
X3151904Y-8480057D01*
X3151904Y-8480057D02*
X3199523Y-8575295D01*
X3199523Y-8575295D02*
X3199523Y-8670533D01*
X3199523Y-8670533D02*
X3151904Y-8813390D01*
X3151904Y-8813390D02*
X2580476Y-9384819D01*
X2580476Y-9384819D02*
X3199523Y-9384819D01*
X74356667Y-52377200D02*
X74499524Y-52424819D01*
X74499524Y-52424819D02*
X74737619Y-52424819D01*
X74737619Y-52424819D02*
X74832857Y-52377200D01*
X74832857Y-52377200D02*
X74880476Y-52329580D01*
X74880476Y-52329580D02*
X74928095Y-52234342D01*
X74928095Y-52234342D02*
X74928095Y-52139104D01*
X74928095Y-52139104D02*
X74880476Y-52043866D01*
X74880476Y-52043866D02*
X74832857Y-51996247D01*
X74832857Y-51996247D02*
X74737619Y-51948628D01*
X74737619Y-51948628D02*
X74547143Y-51901009D01*
X74547143Y-51901009D02*
X74451905Y-51853390D01*
X74451905Y-51853390D02*
X74404286Y-51805771D01*
X74404286Y-51805771D02*
X74356667Y-51710533D01*
X74356667Y-51710533D02*
X74356667Y-51615295D01*
X74356667Y-51615295D02*
X74404286Y-51520057D01*
X74404286Y-51520057D02*
X74451905Y-51472438D01*
X74451905Y-51472438D02*
X74547143Y-51424819D01*
X74547143Y-51424819D02*
X74785238Y-51424819D01*
X74785238Y-51424819D02*
X74928095Y-51472438D01*
X75261429Y-51424819D02*
X75499524Y-52424819D01*
X75499524Y-52424819D02*
X75690000Y-51710533D01*
X75690000Y-51710533D02*
X75880476Y-52424819D01*
X75880476Y-52424819D02*
X76118572Y-51424819D01*
X76451905Y-51520057D02*
X76499524Y-51472438D01*
X76499524Y-51472438D02*
X76594762Y-51424819D01*
X76594762Y-51424819D02*
X76832857Y-51424819D01*
X76832857Y-51424819D02*
X76928095Y-51472438D01*
X76928095Y-51472438D02*
X76975714Y-51520057D01*
X76975714Y-51520057D02*
X77023333Y-51615295D01*
X77023333Y-51615295D02*
X77023333Y-51710533D01*
X77023333Y-51710533D02*
X76975714Y-51853390D01*
X76975714Y-51853390D02*
X76404286Y-52424819D01*
X76404286Y-52424819D02*
X77023333Y-52424819D01*
X3206667Y-50837200D02*
X3349524Y-50884819D01*
X3349524Y-50884819D02*
X3587619Y-50884819D01*
X3587619Y-50884819D02*
X3682857Y-50837200D01*
X3682857Y-50837200D02*
X3730476Y-50789580D01*
X3730476Y-50789580D02*
X3778095Y-50694342D01*
X3778095Y-50694342D02*
X3778095Y-50599104D01*
X3778095Y-50599104D02*
X3730476Y-50503866D01*
X3730476Y-50503866D02*
X3682857Y-50456247D01*
X3682857Y-50456247D02*
X3587619Y-50408628D01*
X3587619Y-50408628D02*
X3397143Y-50361009D01*
X3397143Y-50361009D02*
X3301905Y-50313390D01*
X3301905Y-50313390D02*
X3254286Y-50265771D01*
X3254286Y-50265771D02*
X3206667Y-50170533D01*
X3206667Y-50170533D02*
X3206667Y-50075295D01*
X3206667Y-50075295D02*
X3254286Y-49980057D01*
X3254286Y-49980057D02*
X3301905Y-49932438D01*
X3301905Y-49932438D02*
X3397143Y-49884819D01*
X3397143Y-49884819D02*
X3635238Y-49884819D01*
X3635238Y-49884819D02*
X3778095Y-49932438D01*
X4111429Y-49884819D02*
X4349524Y-50884819D01*
X4349524Y-50884819D02*
X4540000Y-50170533D01*
X4540000Y-50170533D02*
X4730476Y-50884819D01*
X4730476Y-50884819D02*
X4968572Y-49884819D01*
X5873333Y-50884819D02*
X5301905Y-50884819D01*
X5587619Y-50884819D02*
X5587619Y-49884819D01*
X5587619Y-49884819D02*
X5492381Y-50027676D01*
X5492381Y-50027676D02*
X5397143Y-50122914D01*
X5397143Y-50122914D02*
X5301905Y-50170533D01*
X65806905Y-2909819D02*
X65806905Y-1909819D01*
X65806905Y-1909819D02*
X66045000Y-1909819D01*
X66045000Y-1909819D02*
X66187857Y-1957438D01*
X66187857Y-1957438D02*
X66283095Y-2052676D01*
X66283095Y-2052676D02*
X66330714Y-2147914D01*
X66330714Y-2147914D02*
X66378333Y-2338390D01*
X66378333Y-2338390D02*
X66378333Y-2481247D01*
X66378333Y-2481247D02*
X66330714Y-2671723D01*
X66330714Y-2671723D02*
X66283095Y-2766961D01*
X66283095Y-2766961D02*
X66187857Y-2862200D01*
X66187857Y-2862200D02*
X66045000Y-2909819D01*
X66045000Y-2909819D02*
X65806905Y-2909819D01*
X66759286Y-2005057D02*
X66806905Y-1957438D01*
X66806905Y-1957438D02*
X66902143Y-1909819D01*
X66902143Y-1909819D02*
X67140238Y-1909819D01*
X67140238Y-1909819D02*
X67235476Y-1957438D01*
X67235476Y-1957438D02*
X67283095Y-2005057D01*
X67283095Y-2005057D02*
X67330714Y-2100295D01*
X67330714Y-2100295D02*
X67330714Y-2195533D01*
X67330714Y-2195533D02*
X67283095Y-2338390D01*
X67283095Y-2338390D02*
X66711667Y-2909819D01*
X66711667Y-2909819D02*
X67330714Y-2909819D01*
X66323095Y-1469819D02*
X66323095Y-469819D01*
X66894523Y-1469819D02*
X66465952Y-898390D01*
X66894523Y-469819D02*
X66323095Y-1041247D01*
X72336905Y-2989819D02*
X72336905Y-1989819D01*
X72336905Y-1989819D02*
X72575000Y-1989819D01*
X72575000Y-1989819D02*
X72717857Y-2037438D01*
X72717857Y-2037438D02*
X72813095Y-2132676D01*
X72813095Y-2132676D02*
X72860714Y-2227914D01*
X72860714Y-2227914D02*
X72908333Y-2418390D01*
X72908333Y-2418390D02*
X72908333Y-2561247D01*
X72908333Y-2561247D02*
X72860714Y-2751723D01*
X72860714Y-2751723D02*
X72813095Y-2846961D01*
X72813095Y-2846961D02*
X72717857Y-2942200D01*
X72717857Y-2942200D02*
X72575000Y-2989819D01*
X72575000Y-2989819D02*
X72336905Y-2989819D01*
X73860714Y-2989819D02*
X73289286Y-2989819D01*
X73575000Y-2989819D02*
X73575000Y-1989819D01*
X73575000Y-1989819D02*
X73479762Y-2132676D01*
X73479762Y-2132676D02*
X73384524Y-2227914D01*
X73384524Y-2227914D02*
X73289286Y-2275533D01*
X72633095Y-9589819D02*
X72633095Y-8589819D01*
X73204523Y-9589819D02*
X72775952Y-9018390D01*
X73204523Y-8589819D02*
X72633095Y-9161247D01*
X10876666Y-57704819D02*
X10876666Y-58419104D01*
X10876666Y-58419104D02*
X10829047Y-58561961D01*
X10829047Y-58561961D02*
X10733809Y-58657200D01*
X10733809Y-58657200D02*
X10590952Y-58704819D01*
X10590952Y-58704819D02*
X10495714Y-58704819D01*
X11305238Y-57800057D02*
X11352857Y-57752438D01*
X11352857Y-57752438D02*
X11448095Y-57704819D01*
X11448095Y-57704819D02*
X11686190Y-57704819D01*
X11686190Y-57704819D02*
X11781428Y-57752438D01*
X11781428Y-57752438D02*
X11829047Y-57800057D01*
X11829047Y-57800057D02*
X11876666Y-57895295D01*
X11876666Y-57895295D02*
X11876666Y-57990533D01*
X11876666Y-57990533D02*
X11829047Y-58133390D01*
X11829047Y-58133390D02*
X11257619Y-58704819D01*
X11257619Y-58704819D02*
X11876666Y-58704819D01*
X13890588Y-58529819D02*
X13319160Y-58529819D01*
X13604874Y-58529819D02*
X13604874Y-57529819D01*
X13604874Y-57529819D02*
X13509636Y-57672676D01*
X13509636Y-57672676D02*
X13414398Y-57767914D01*
X13414398Y-57767914D02*
X13319160Y-57815533D01*
X68236666Y-39734819D02*
X68236666Y-40449104D01*
X68236666Y-40449104D02*
X68189047Y-40591961D01*
X68189047Y-40591961D02*
X68093809Y-40687200D01*
X68093809Y-40687200D02*
X67950952Y-40734819D01*
X67950952Y-40734819D02*
X67855714Y-40734819D01*
X69141428Y-40068152D02*
X69141428Y-40734819D01*
X68903333Y-39687200D02*
X68665238Y-40401485D01*
X68665238Y-40401485D02*
X69284285Y-40401485D01*
X13440588Y-4409819D02*
X12869160Y-4409819D01*
X13154874Y-4409819D02*
X13154874Y-3409819D01*
X13154874Y-3409819D02*
X13059636Y-3552676D01*
X13059636Y-3552676D02*
X12964398Y-3647914D01*
X12964398Y-3647914D02*
X12869160Y-3695533D01*
X68856666Y-27614819D02*
X68856666Y-28329104D01*
X68856666Y-28329104D02*
X68809047Y-28471961D01*
X68809047Y-28471961D02*
X68713809Y-28567200D01*
X68713809Y-28567200D02*
X68570952Y-28614819D01*
X68570952Y-28614819D02*
X68475714Y-28614819D01*
X69237619Y-27614819D02*
X69856666Y-27614819D01*
X69856666Y-27614819D02*
X69523333Y-27995771D01*
X69523333Y-27995771D02*
X69666190Y-27995771D01*
X69666190Y-27995771D02*
X69761428Y-28043390D01*
X69761428Y-28043390D02*
X69809047Y-28091009D01*
X69809047Y-28091009D02*
X69856666Y-28186247D01*
X69856666Y-28186247D02*
X69856666Y-28424342D01*
X69856666Y-28424342D02*
X69809047Y-28519580D01*
X69809047Y-28519580D02*
X69761428Y-28567200D01*
X69761428Y-28567200D02*
X69666190Y-28614819D01*
X69666190Y-28614819D02*
X69380476Y-28614819D01*
X69380476Y-28614819D02*
X69285238Y-28567200D01*
X69285238Y-28567200D02*
X69237619Y-28519580D01*
D11*
%TO.C,U2*%
X3000000Y-16250000D02*
X76000000Y-16250000D01*
X3000000Y-41250000D02*
X3000000Y-16250000D01*
X7700280Y-35749320D02*
X7700280Y-21750000D01*
X8200000Y-21250000D02*
X71700000Y-21250000D01*
X71700660Y-36250000D02*
X8200000Y-36250000D01*
X72200000Y-21750000D02*
X72200000Y-35750000D01*
X76000000Y-16250000D02*
X76000000Y-41250000D01*
X76000000Y-41250000D02*
X3000000Y-41250000D01*
X7700280Y-21748840D02*
G75*
G02*
X8200660Y-21248460I500380J0D01*
G01*
X8200660Y-36249700D02*
G75*
G02*
X7700280Y-35749320I0J500380D01*
G01*
X71700000Y-21250000D02*
G75*
G02*
X72200000Y-21750000I0J-500000D01*
G01*
X72201040Y-35749320D02*
G75*
G02*
X71700660Y-36249640I-500340J20D01*
G01*
%TO.C,SW2*%
X69250000Y-56000000D02*
X70750000Y-56000000D01*
X73250000Y-54450000D02*
X73250000Y-50550000D01*
X66750000Y-50550000D02*
X66750000Y-54450000D01*
X70750000Y-49000000D02*
X69250000Y-49000000D01*
%TO.C,SW1*%
X9250000Y-56000000D02*
X10750000Y-56000000D01*
X13250000Y-54450000D02*
X13250000Y-50550000D01*
X6750000Y-50550000D02*
X6750000Y-54450000D01*
X10750000Y-49000000D02*
X9250000Y-49000000D01*
%TO.C,D2*%
X68215000Y-2605000D02*
X68215000Y-3255000D01*
X69335000Y-3855000D02*
X67095000Y-3855000D01*
X69335000Y-3975000D02*
X67095000Y-3975000D01*
X69335000Y-4095000D02*
X67095000Y-4095000D01*
X68215000Y-8145000D02*
X68215000Y-7495000D01*
X69335000Y-3255000D02*
X67095000Y-3255000D01*
X67095000Y-7495000D01*
X69335000Y-7495000D01*
X69335000Y-3255000D01*
%TO.C,D1*%
X71235000Y-8205000D02*
X71235000Y-7555000D01*
X70115000Y-6955000D02*
X72355000Y-6955000D01*
X70115000Y-6835000D02*
X72355000Y-6835000D01*
X70115000Y-6715000D02*
X72355000Y-6715000D01*
X71235000Y-2665000D02*
X71235000Y-3315000D01*
X70115000Y-7555000D02*
X72355000Y-7555000D01*
X72355000Y-3315000D01*
X70115000Y-3315000D01*
X70115000Y-7555000D01*
%TD*%
M02*
