%TF.GenerationSoftware,KiCad,Pcbnew,9.0.7*%
%TF.CreationDate,2026-05-24T15:35:15+02:00*%
%TF.ProjectId,BarePi_LCD16x2,42617265-5069-45f4-9c43-44313678322e,rev?*%
%TF.SameCoordinates,Original*%
%TF.FileFunction,AssemblyDrawing,Top*%
%FSLAX46Y46*%
G04 Gerber Fmt 4.6, Leading zero omitted, Abs format (unit mm)*
G04 Created by KiCad (PCBNEW 9.0.7) date 2026-05-24 15:35:15*
%MOMM*%
%LPD*%
G01*
G04 APERTURE LIST*
%ADD10C,0.150000*%
%ADD11C,0.120000*%
%ADD12C,0.100000*%
G04 APERTURE END LIST*
D10*
X46069286Y-19889819D02*
X46688333Y-19889819D01*
X46688333Y-19889819D02*
X46355000Y-20270771D01*
X46355000Y-20270771D02*
X46497857Y-20270771D01*
X46497857Y-20270771D02*
X46593095Y-20318390D01*
X46593095Y-20318390D02*
X46640714Y-20366009D01*
X46640714Y-20366009D02*
X46688333Y-20461247D01*
X46688333Y-20461247D02*
X46688333Y-20699342D01*
X46688333Y-20699342D02*
X46640714Y-20794580D01*
X46640714Y-20794580D02*
X46593095Y-20842200D01*
X46593095Y-20842200D02*
X46497857Y-20889819D01*
X46497857Y-20889819D02*
X46212143Y-20889819D01*
X46212143Y-20889819D02*
X46116905Y-20842200D01*
X46116905Y-20842200D02*
X46069286Y-20794580D01*
X47021667Y-19889819D02*
X47640714Y-19889819D01*
X47640714Y-19889819D02*
X47307381Y-20270771D01*
X47307381Y-20270771D02*
X47450238Y-20270771D01*
X47450238Y-20270771D02*
X47545476Y-20318390D01*
X47545476Y-20318390D02*
X47593095Y-20366009D01*
X47593095Y-20366009D02*
X47640714Y-20461247D01*
X47640714Y-20461247D02*
X47640714Y-20699342D01*
X47640714Y-20699342D02*
X47593095Y-20794580D01*
X47593095Y-20794580D02*
X47545476Y-20842200D01*
X47545476Y-20842200D02*
X47450238Y-20889819D01*
X47450238Y-20889819D02*
X47164524Y-20889819D01*
X47164524Y-20889819D02*
X47069286Y-20842200D01*
X47069286Y-20842200D02*
X47021667Y-20794580D01*
X48259762Y-19889819D02*
X48355000Y-19889819D01*
X48355000Y-19889819D02*
X48450238Y-19937438D01*
X48450238Y-19937438D02*
X48497857Y-19985057D01*
X48497857Y-19985057D02*
X48545476Y-20080295D01*
X48545476Y-20080295D02*
X48593095Y-20270771D01*
X48593095Y-20270771D02*
X48593095Y-20508866D01*
X48593095Y-20508866D02*
X48545476Y-20699342D01*
X48545476Y-20699342D02*
X48497857Y-20794580D01*
X48497857Y-20794580D02*
X48450238Y-20842200D01*
X48450238Y-20842200D02*
X48355000Y-20889819D01*
X48355000Y-20889819D02*
X48259762Y-20889819D01*
X48259762Y-20889819D02*
X48164524Y-20842200D01*
X48164524Y-20842200D02*
X48116905Y-20794580D01*
X48116905Y-20794580D02*
X48069286Y-20699342D01*
X48069286Y-20699342D02*
X48021667Y-20508866D01*
X48021667Y-20508866D02*
X48021667Y-20270771D01*
X48021667Y-20270771D02*
X48069286Y-20080295D01*
X48069286Y-20080295D02*
X48116905Y-19985057D01*
X48116905Y-19985057D02*
X48164524Y-19937438D01*
X48164524Y-19937438D02*
X48259762Y-19889819D01*
X47178333Y-28529819D02*
X46845000Y-28053628D01*
X46606905Y-28529819D02*
X46606905Y-27529819D01*
X46606905Y-27529819D02*
X46987857Y-27529819D01*
X46987857Y-27529819D02*
X47083095Y-27577438D01*
X47083095Y-27577438D02*
X47130714Y-27625057D01*
X47130714Y-27625057D02*
X47178333Y-27720295D01*
X47178333Y-27720295D02*
X47178333Y-27863152D01*
X47178333Y-27863152D02*
X47130714Y-27958390D01*
X47130714Y-27958390D02*
X47083095Y-28006009D01*
X47083095Y-28006009D02*
X46987857Y-28053628D01*
X46987857Y-28053628D02*
X46606905Y-28053628D01*
X48130714Y-28529819D02*
X47559286Y-28529819D01*
X47845000Y-28529819D02*
X47845000Y-27529819D01*
X47845000Y-27529819D02*
X47749762Y-27672676D01*
X47749762Y-27672676D02*
X47654524Y-27767914D01*
X47654524Y-27767914D02*
X47559286Y-27815533D01*
X253333Y-48134819D02*
X253333Y-47134819D01*
X253333Y-47134819D02*
X491428Y-47134819D01*
X491428Y-47134819D02*
X634285Y-47182438D01*
X634285Y-47182438D02*
X729523Y-47277676D01*
X729523Y-47277676D02*
X777142Y-47372914D01*
X777142Y-47372914D02*
X824761Y-47563390D01*
X824761Y-47563390D02*
X824761Y-47706247D01*
X824761Y-47706247D02*
X777142Y-47896723D01*
X777142Y-47896723D02*
X729523Y-47991961D01*
X729523Y-47991961D02*
X634285Y-48087200D01*
X634285Y-48087200D02*
X491428Y-48134819D01*
X491428Y-48134819D02*
X253333Y-48134819D01*
X1253333Y-48134819D02*
X1253333Y-47134819D01*
X1253333Y-47134819D02*
X1586666Y-47849104D01*
X1586666Y-47849104D02*
X1919999Y-47134819D01*
X1919999Y-47134819D02*
X1919999Y-48134819D01*
X2919999Y-48134819D02*
X2348571Y-48134819D01*
X2634285Y-48134819D02*
X2634285Y-47134819D01*
X2634285Y-47134819D02*
X2539047Y-47277676D01*
X2539047Y-47277676D02*
X2443809Y-47372914D01*
X2443809Y-47372914D02*
X2348571Y-47420533D01*
X3777142Y-47134819D02*
X3586666Y-47134819D01*
X3586666Y-47134819D02*
X3491428Y-47182438D01*
X3491428Y-47182438D02*
X3443809Y-47230057D01*
X3443809Y-47230057D02*
X3348571Y-47372914D01*
X3348571Y-47372914D02*
X3300952Y-47563390D01*
X3300952Y-47563390D02*
X3300952Y-47944342D01*
X3300952Y-47944342D02*
X3348571Y-48039580D01*
X3348571Y-48039580D02*
X3396190Y-48087200D01*
X3396190Y-48087200D02*
X3491428Y-48134819D01*
X3491428Y-48134819D02*
X3681904Y-48134819D01*
X3681904Y-48134819D02*
X3777142Y-48087200D01*
X3777142Y-48087200D02*
X3824761Y-48039580D01*
X3824761Y-48039580D02*
X3872380Y-47944342D01*
X3872380Y-47944342D02*
X3872380Y-47706247D01*
X3872380Y-47706247D02*
X3824761Y-47611009D01*
X3824761Y-47611009D02*
X3777142Y-47563390D01*
X3777142Y-47563390D02*
X3681904Y-47515771D01*
X3681904Y-47515771D02*
X3491428Y-47515771D01*
X3491428Y-47515771D02*
X3396190Y-47563390D01*
X3396190Y-47563390D02*
X3348571Y-47611009D01*
X3348571Y-47611009D02*
X3300952Y-47706247D01*
X4491428Y-47134819D02*
X4586666Y-47134819D01*
X4586666Y-47134819D02*
X4681904Y-47182438D01*
X4681904Y-47182438D02*
X4729523Y-47230057D01*
X4729523Y-47230057D02*
X4777142Y-47325295D01*
X4777142Y-47325295D02*
X4824761Y-47515771D01*
X4824761Y-47515771D02*
X4824761Y-47753866D01*
X4824761Y-47753866D02*
X4777142Y-47944342D01*
X4777142Y-47944342D02*
X4729523Y-48039580D01*
X4729523Y-48039580D02*
X4681904Y-48087200D01*
X4681904Y-48087200D02*
X4586666Y-48134819D01*
X4586666Y-48134819D02*
X4491428Y-48134819D01*
X4491428Y-48134819D02*
X4396190Y-48087200D01*
X4396190Y-48087200D02*
X4348571Y-48039580D01*
X4348571Y-48039580D02*
X4300952Y-47944342D01*
X4300952Y-47944342D02*
X4253333Y-47753866D01*
X4253333Y-47753866D02*
X4253333Y-47515771D01*
X4253333Y-47515771D02*
X4300952Y-47325295D01*
X4300952Y-47325295D02*
X4348571Y-47230057D01*
X4348571Y-47230057D02*
X4396190Y-47182438D01*
X4396190Y-47182438D02*
X4491428Y-47134819D01*
X5205714Y-47230057D02*
X5253333Y-47182438D01*
X5253333Y-47182438D02*
X5348571Y-47134819D01*
X5348571Y-47134819D02*
X5586666Y-47134819D01*
X5586666Y-47134819D02*
X5681904Y-47182438D01*
X5681904Y-47182438D02*
X5729523Y-47230057D01*
X5729523Y-47230057D02*
X5777142Y-47325295D01*
X5777142Y-47325295D02*
X5777142Y-47420533D01*
X5777142Y-47420533D02*
X5729523Y-47563390D01*
X5729523Y-47563390D02*
X5158095Y-48134819D01*
X5158095Y-48134819D02*
X5777142Y-48134819D01*
X6158095Y-47849104D02*
X6634285Y-47849104D01*
X6062857Y-48134819D02*
X6396190Y-47134819D01*
X6396190Y-47134819D02*
X6729523Y-48134819D01*
X1618095Y-8374819D02*
X1618095Y-9184342D01*
X1618095Y-9184342D02*
X1665714Y-9279580D01*
X1665714Y-9279580D02*
X1713333Y-9327200D01*
X1713333Y-9327200D02*
X1808571Y-9374819D01*
X1808571Y-9374819D02*
X1999047Y-9374819D01*
X1999047Y-9374819D02*
X2094285Y-9327200D01*
X2094285Y-9327200D02*
X2141904Y-9279580D01*
X2141904Y-9279580D02*
X2189523Y-9184342D01*
X2189523Y-9184342D02*
X2189523Y-8374819D01*
X2618095Y-8470057D02*
X2665714Y-8422438D01*
X2665714Y-8422438D02*
X2760952Y-8374819D01*
X2760952Y-8374819D02*
X2999047Y-8374819D01*
X2999047Y-8374819D02*
X3094285Y-8422438D01*
X3094285Y-8422438D02*
X3141904Y-8470057D01*
X3141904Y-8470057D02*
X3189523Y-8565295D01*
X3189523Y-8565295D02*
X3189523Y-8660533D01*
X3189523Y-8660533D02*
X3141904Y-8803390D01*
X3141904Y-8803390D02*
X2570476Y-9374819D01*
X2570476Y-9374819D02*
X3189523Y-9374819D01*
X36108809Y-39999580D02*
X36061190Y-40047200D01*
X36061190Y-40047200D02*
X35918333Y-40094819D01*
X35918333Y-40094819D02*
X35823095Y-40094819D01*
X35823095Y-40094819D02*
X35680238Y-40047200D01*
X35680238Y-40047200D02*
X35585000Y-39951961D01*
X35585000Y-39951961D02*
X35537381Y-39856723D01*
X35537381Y-39856723D02*
X35489762Y-39666247D01*
X35489762Y-39666247D02*
X35489762Y-39523390D01*
X35489762Y-39523390D02*
X35537381Y-39332914D01*
X35537381Y-39332914D02*
X35585000Y-39237676D01*
X35585000Y-39237676D02*
X35680238Y-39142438D01*
X35680238Y-39142438D02*
X35823095Y-39094819D01*
X35823095Y-39094819D02*
X35918333Y-39094819D01*
X35918333Y-39094819D02*
X36061190Y-39142438D01*
X36061190Y-39142438D02*
X36108809Y-39190057D01*
X36537381Y-40094819D02*
X36537381Y-39094819D01*
X36537381Y-39571009D02*
X37108809Y-39571009D01*
X37108809Y-40094819D02*
X37108809Y-39094819D01*
X37489762Y-39094819D02*
X38108809Y-39094819D01*
X38108809Y-39094819D02*
X37775476Y-39475771D01*
X37775476Y-39475771D02*
X37918333Y-39475771D01*
X37918333Y-39475771D02*
X38013571Y-39523390D01*
X38013571Y-39523390D02*
X38061190Y-39571009D01*
X38061190Y-39571009D02*
X38108809Y-39666247D01*
X38108809Y-39666247D02*
X38108809Y-39904342D01*
X38108809Y-39904342D02*
X38061190Y-39999580D01*
X38061190Y-39999580D02*
X38013571Y-40047200D01*
X38013571Y-40047200D02*
X37918333Y-40094819D01*
X37918333Y-40094819D02*
X37632619Y-40094819D01*
X37632619Y-40094819D02*
X37537381Y-40047200D01*
X37537381Y-40047200D02*
X37489762Y-39999580D01*
X38489762Y-39190057D02*
X38537381Y-39142438D01*
X38537381Y-39142438D02*
X38632619Y-39094819D01*
X38632619Y-39094819D02*
X38870714Y-39094819D01*
X38870714Y-39094819D02*
X38965952Y-39142438D01*
X38965952Y-39142438D02*
X39013571Y-39190057D01*
X39013571Y-39190057D02*
X39061190Y-39285295D01*
X39061190Y-39285295D02*
X39061190Y-39380533D01*
X39061190Y-39380533D02*
X39013571Y-39523390D01*
X39013571Y-39523390D02*
X38442143Y-40094819D01*
X38442143Y-40094819D02*
X39061190Y-40094819D01*
X39346905Y-39094819D02*
X39680238Y-40094819D01*
X39680238Y-40094819D02*
X40013571Y-39094819D01*
X40537381Y-39094819D02*
X40632619Y-39094819D01*
X40632619Y-39094819D02*
X40727857Y-39142438D01*
X40727857Y-39142438D02*
X40775476Y-39190057D01*
X40775476Y-39190057D02*
X40823095Y-39285295D01*
X40823095Y-39285295D02*
X40870714Y-39475771D01*
X40870714Y-39475771D02*
X40870714Y-39713866D01*
X40870714Y-39713866D02*
X40823095Y-39904342D01*
X40823095Y-39904342D02*
X40775476Y-39999580D01*
X40775476Y-39999580D02*
X40727857Y-40047200D01*
X40727857Y-40047200D02*
X40632619Y-40094819D01*
X40632619Y-40094819D02*
X40537381Y-40094819D01*
X40537381Y-40094819D02*
X40442143Y-40047200D01*
X40442143Y-40047200D02*
X40394524Y-39999580D01*
X40394524Y-39999580D02*
X40346905Y-39904342D01*
X40346905Y-39904342D02*
X40299286Y-39713866D01*
X40299286Y-39713866D02*
X40299286Y-39475771D01*
X40299286Y-39475771D02*
X40346905Y-39285295D01*
X40346905Y-39285295D02*
X40394524Y-39190057D01*
X40394524Y-39190057D02*
X40442143Y-39142438D01*
X40442143Y-39142438D02*
X40537381Y-39094819D01*
X41489762Y-39094819D02*
X41585000Y-39094819D01*
X41585000Y-39094819D02*
X41680238Y-39142438D01*
X41680238Y-39142438D02*
X41727857Y-39190057D01*
X41727857Y-39190057D02*
X41775476Y-39285295D01*
X41775476Y-39285295D02*
X41823095Y-39475771D01*
X41823095Y-39475771D02*
X41823095Y-39713866D01*
X41823095Y-39713866D02*
X41775476Y-39904342D01*
X41775476Y-39904342D02*
X41727857Y-39999580D01*
X41727857Y-39999580D02*
X41680238Y-40047200D01*
X41680238Y-40047200D02*
X41585000Y-40094819D01*
X41585000Y-40094819D02*
X41489762Y-40094819D01*
X41489762Y-40094819D02*
X41394524Y-40047200D01*
X41394524Y-40047200D02*
X41346905Y-39999580D01*
X41346905Y-39999580D02*
X41299286Y-39904342D01*
X41299286Y-39904342D02*
X41251667Y-39713866D01*
X41251667Y-39713866D02*
X41251667Y-39475771D01*
X41251667Y-39475771D02*
X41299286Y-39285295D01*
X41299286Y-39285295D02*
X41346905Y-39190057D01*
X41346905Y-39190057D02*
X41394524Y-39142438D01*
X41394524Y-39142438D02*
X41489762Y-39094819D01*
X42204048Y-39190057D02*
X42251667Y-39142438D01*
X42251667Y-39142438D02*
X42346905Y-39094819D01*
X42346905Y-39094819D02*
X42585000Y-39094819D01*
X42585000Y-39094819D02*
X42680238Y-39142438D01*
X42680238Y-39142438D02*
X42727857Y-39190057D01*
X42727857Y-39190057D02*
X42775476Y-39285295D01*
X42775476Y-39285295D02*
X42775476Y-39380533D01*
X42775476Y-39380533D02*
X42727857Y-39523390D01*
X42727857Y-39523390D02*
X42156429Y-40094819D01*
X42156429Y-40094819D02*
X42775476Y-40094819D01*
X43156429Y-39809104D02*
X43632619Y-39809104D01*
X43061191Y-40094819D02*
X43394524Y-39094819D01*
X43394524Y-39094819D02*
X43727857Y-40094819D01*
X44489762Y-39428152D02*
X44489762Y-40094819D01*
X44251667Y-39047200D02*
X44013572Y-39761485D01*
X44013572Y-39761485D02*
X44632619Y-39761485D01*
X45013572Y-40094819D02*
X45013572Y-39094819D01*
X45013572Y-39094819D02*
X45346905Y-39809104D01*
X45346905Y-39809104D02*
X45680238Y-39094819D01*
X45680238Y-39094819D02*
X45680238Y-40094819D01*
X46585000Y-39094819D02*
X46394524Y-39094819D01*
X46394524Y-39094819D02*
X46299286Y-39142438D01*
X46299286Y-39142438D02*
X46251667Y-39190057D01*
X46251667Y-39190057D02*
X46156429Y-39332914D01*
X46156429Y-39332914D02*
X46108810Y-39523390D01*
X46108810Y-39523390D02*
X46108810Y-39904342D01*
X46108810Y-39904342D02*
X46156429Y-39999580D01*
X46156429Y-39999580D02*
X46204048Y-40047200D01*
X46204048Y-40047200D02*
X46299286Y-40094819D01*
X46299286Y-40094819D02*
X46489762Y-40094819D01*
X46489762Y-40094819D02*
X46585000Y-40047200D01*
X46585000Y-40047200D02*
X46632619Y-39999580D01*
X46632619Y-39999580D02*
X46680238Y-39904342D01*
X46680238Y-39904342D02*
X46680238Y-39666247D01*
X46680238Y-39666247D02*
X46632619Y-39571009D01*
X46632619Y-39571009D02*
X46585000Y-39523390D01*
X46585000Y-39523390D02*
X46489762Y-39475771D01*
X46489762Y-39475771D02*
X46299286Y-39475771D01*
X46299286Y-39475771D02*
X46204048Y-39523390D01*
X46204048Y-39523390D02*
X46156429Y-39571009D01*
X46156429Y-39571009D02*
X46108810Y-39666247D01*
X46693095Y-33614819D02*
X46693095Y-34424342D01*
X46693095Y-34424342D02*
X46740714Y-34519580D01*
X46740714Y-34519580D02*
X46788333Y-34567200D01*
X46788333Y-34567200D02*
X46883571Y-34614819D01*
X46883571Y-34614819D02*
X47074047Y-34614819D01*
X47074047Y-34614819D02*
X47169285Y-34567200D01*
X47169285Y-34567200D02*
X47216904Y-34519580D01*
X47216904Y-34519580D02*
X47264523Y-34424342D01*
X47264523Y-34424342D02*
X47264523Y-33614819D01*
X48264523Y-34614819D02*
X47693095Y-34614819D01*
X47978809Y-34614819D02*
X47978809Y-33614819D01*
X47978809Y-33614819D02*
X47883571Y-33757676D01*
X47883571Y-33757676D02*
X47788333Y-33852914D01*
X47788333Y-33852914D02*
X47693095Y-33900533D01*
X74278095Y-49574819D02*
X74611428Y-50574819D01*
X74611428Y-50574819D02*
X74944761Y-49574819D01*
X75468571Y-49574819D02*
X75659047Y-49574819D01*
X75659047Y-49574819D02*
X75754285Y-49622438D01*
X75754285Y-49622438D02*
X75849523Y-49717676D01*
X75849523Y-49717676D02*
X75897142Y-49908152D01*
X75897142Y-49908152D02*
X75897142Y-50241485D01*
X75897142Y-50241485D02*
X75849523Y-50431961D01*
X75849523Y-50431961D02*
X75754285Y-50527200D01*
X75754285Y-50527200D02*
X75659047Y-50574819D01*
X75659047Y-50574819D02*
X75468571Y-50574819D01*
X75468571Y-50574819D02*
X75373333Y-50527200D01*
X75373333Y-50527200D02*
X75278095Y-50431961D01*
X75278095Y-50431961D02*
X75230476Y-50241485D01*
X75230476Y-50241485D02*
X75230476Y-49908152D01*
X75230476Y-49908152D02*
X75278095Y-49717676D01*
X75278095Y-49717676D02*
X75373333Y-49622438D01*
X75373333Y-49622438D02*
X75468571Y-49574819D01*
X76087619Y-50670057D02*
X76849523Y-50670057D01*
X77087619Y-49574819D02*
X77087619Y-50384342D01*
X77087619Y-50384342D02*
X77135238Y-50479580D01*
X77135238Y-50479580D02*
X77182857Y-50527200D01*
X77182857Y-50527200D02*
X77278095Y-50574819D01*
X77278095Y-50574819D02*
X77468571Y-50574819D01*
X77468571Y-50574819D02*
X77563809Y-50527200D01*
X77563809Y-50527200D02*
X77611428Y-50479580D01*
X77611428Y-50479580D02*
X77659047Y-50384342D01*
X77659047Y-50384342D02*
X77659047Y-49574819D01*
X78135238Y-50574819D02*
X78135238Y-49574819D01*
X78135238Y-49574819D02*
X78516190Y-49574819D01*
X78516190Y-49574819D02*
X78611428Y-49622438D01*
X78611428Y-49622438D02*
X78659047Y-49670057D01*
X78659047Y-49670057D02*
X78706666Y-49765295D01*
X78706666Y-49765295D02*
X78706666Y-49908152D01*
X78706666Y-49908152D02*
X78659047Y-50003390D01*
X78659047Y-50003390D02*
X78611428Y-50051009D01*
X78611428Y-50051009D02*
X78516190Y-50098628D01*
X78516190Y-50098628D02*
X78135238Y-50098628D01*
X74366667Y-52387200D02*
X74509524Y-52434819D01*
X74509524Y-52434819D02*
X74747619Y-52434819D01*
X74747619Y-52434819D02*
X74842857Y-52387200D01*
X74842857Y-52387200D02*
X74890476Y-52339580D01*
X74890476Y-52339580D02*
X74938095Y-52244342D01*
X74938095Y-52244342D02*
X74938095Y-52149104D01*
X74938095Y-52149104D02*
X74890476Y-52053866D01*
X74890476Y-52053866D02*
X74842857Y-52006247D01*
X74842857Y-52006247D02*
X74747619Y-51958628D01*
X74747619Y-51958628D02*
X74557143Y-51911009D01*
X74557143Y-51911009D02*
X74461905Y-51863390D01*
X74461905Y-51863390D02*
X74414286Y-51815771D01*
X74414286Y-51815771D02*
X74366667Y-51720533D01*
X74366667Y-51720533D02*
X74366667Y-51625295D01*
X74366667Y-51625295D02*
X74414286Y-51530057D01*
X74414286Y-51530057D02*
X74461905Y-51482438D01*
X74461905Y-51482438D02*
X74557143Y-51434819D01*
X74557143Y-51434819D02*
X74795238Y-51434819D01*
X74795238Y-51434819D02*
X74938095Y-51482438D01*
X75271429Y-51434819D02*
X75509524Y-52434819D01*
X75509524Y-52434819D02*
X75700000Y-51720533D01*
X75700000Y-51720533D02*
X75890476Y-52434819D01*
X75890476Y-52434819D02*
X76128572Y-51434819D01*
X76461905Y-51530057D02*
X76509524Y-51482438D01*
X76509524Y-51482438D02*
X76604762Y-51434819D01*
X76604762Y-51434819D02*
X76842857Y-51434819D01*
X76842857Y-51434819D02*
X76938095Y-51482438D01*
X76938095Y-51482438D02*
X76985714Y-51530057D01*
X76985714Y-51530057D02*
X77033333Y-51625295D01*
X77033333Y-51625295D02*
X77033333Y-51720533D01*
X77033333Y-51720533D02*
X76985714Y-51863390D01*
X76985714Y-51863390D02*
X76414286Y-52434819D01*
X76414286Y-52434819D02*
X77033333Y-52434819D01*
X1368095Y-51244819D02*
X1701428Y-52244819D01*
X1701428Y-52244819D02*
X2034761Y-51244819D01*
X2558571Y-51244819D02*
X2749047Y-51244819D01*
X2749047Y-51244819D02*
X2844285Y-51292438D01*
X2844285Y-51292438D02*
X2939523Y-51387676D01*
X2939523Y-51387676D02*
X2987142Y-51578152D01*
X2987142Y-51578152D02*
X2987142Y-51911485D01*
X2987142Y-51911485D02*
X2939523Y-52101961D01*
X2939523Y-52101961D02*
X2844285Y-52197200D01*
X2844285Y-52197200D02*
X2749047Y-52244819D01*
X2749047Y-52244819D02*
X2558571Y-52244819D01*
X2558571Y-52244819D02*
X2463333Y-52197200D01*
X2463333Y-52197200D02*
X2368095Y-52101961D01*
X2368095Y-52101961D02*
X2320476Y-51911485D01*
X2320476Y-51911485D02*
X2320476Y-51578152D01*
X2320476Y-51578152D02*
X2368095Y-51387676D01*
X2368095Y-51387676D02*
X2463333Y-51292438D01*
X2463333Y-51292438D02*
X2558571Y-51244819D01*
X3177619Y-52340057D02*
X3939523Y-52340057D01*
X4177619Y-52244819D02*
X4177619Y-51244819D01*
X4177619Y-51244819D02*
X4415714Y-51244819D01*
X4415714Y-51244819D02*
X4558571Y-51292438D01*
X4558571Y-51292438D02*
X4653809Y-51387676D01*
X4653809Y-51387676D02*
X4701428Y-51482914D01*
X4701428Y-51482914D02*
X4749047Y-51673390D01*
X4749047Y-51673390D02*
X4749047Y-51816247D01*
X4749047Y-51816247D02*
X4701428Y-52006723D01*
X4701428Y-52006723D02*
X4653809Y-52101961D01*
X4653809Y-52101961D02*
X4558571Y-52197200D01*
X4558571Y-52197200D02*
X4415714Y-52244819D01*
X4415714Y-52244819D02*
X4177619Y-52244819D01*
X5177619Y-52244819D02*
X5177619Y-51244819D01*
X5177619Y-51244819D02*
X5749047Y-52244819D01*
X5749047Y-52244819D02*
X5749047Y-51244819D01*
X3216667Y-50827200D02*
X3359524Y-50874819D01*
X3359524Y-50874819D02*
X3597619Y-50874819D01*
X3597619Y-50874819D02*
X3692857Y-50827200D01*
X3692857Y-50827200D02*
X3740476Y-50779580D01*
X3740476Y-50779580D02*
X3788095Y-50684342D01*
X3788095Y-50684342D02*
X3788095Y-50589104D01*
X3788095Y-50589104D02*
X3740476Y-50493866D01*
X3740476Y-50493866D02*
X3692857Y-50446247D01*
X3692857Y-50446247D02*
X3597619Y-50398628D01*
X3597619Y-50398628D02*
X3407143Y-50351009D01*
X3407143Y-50351009D02*
X3311905Y-50303390D01*
X3311905Y-50303390D02*
X3264286Y-50255771D01*
X3264286Y-50255771D02*
X3216667Y-50160533D01*
X3216667Y-50160533D02*
X3216667Y-50065295D01*
X3216667Y-50065295D02*
X3264286Y-49970057D01*
X3264286Y-49970057D02*
X3311905Y-49922438D01*
X3311905Y-49922438D02*
X3407143Y-49874819D01*
X3407143Y-49874819D02*
X3645238Y-49874819D01*
X3645238Y-49874819D02*
X3788095Y-49922438D01*
X4121429Y-49874819D02*
X4359524Y-50874819D01*
X4359524Y-50874819D02*
X4550000Y-50160533D01*
X4550000Y-50160533D02*
X4740476Y-50874819D01*
X4740476Y-50874819D02*
X4978572Y-49874819D01*
X5883333Y-50874819D02*
X5311905Y-50874819D01*
X5597619Y-50874819D02*
X5597619Y-49874819D01*
X5597619Y-49874819D02*
X5502381Y-50017676D01*
X5502381Y-50017676D02*
X5407143Y-50112914D01*
X5407143Y-50112914D02*
X5311905Y-50160533D01*
X42950714Y-23724104D02*
X43426904Y-23724104D01*
X42855476Y-24009819D02*
X43188809Y-23009819D01*
X43188809Y-23009819D02*
X43522142Y-24009819D01*
X43807857Y-23105057D02*
X43855476Y-23057438D01*
X43855476Y-23057438D02*
X43950714Y-23009819D01*
X43950714Y-23009819D02*
X44188809Y-23009819D01*
X44188809Y-23009819D02*
X44284047Y-23057438D01*
X44284047Y-23057438D02*
X44331666Y-23105057D01*
X44331666Y-23105057D02*
X44379285Y-23200295D01*
X44379285Y-23200295D02*
X44379285Y-23295533D01*
X44379285Y-23295533D02*
X44331666Y-23438390D01*
X44331666Y-23438390D02*
X43760238Y-24009819D01*
X43760238Y-24009819D02*
X44379285Y-24009819D01*
X40080714Y-23704104D02*
X40556904Y-23704104D01*
X39985476Y-23989819D02*
X40318809Y-22989819D01*
X40318809Y-22989819D02*
X40652142Y-23989819D01*
X41509285Y-23989819D02*
X40937857Y-23989819D01*
X41223571Y-23989819D02*
X41223571Y-22989819D01*
X41223571Y-22989819D02*
X41128333Y-23132676D01*
X41128333Y-23132676D02*
X41033095Y-23227914D01*
X41033095Y-23227914D02*
X40937857Y-23275533D01*
X63264523Y-9406009D02*
X63407380Y-9453628D01*
X63407380Y-9453628D02*
X63454999Y-9501247D01*
X63454999Y-9501247D02*
X63502618Y-9596485D01*
X63502618Y-9596485D02*
X63502618Y-9739342D01*
X63502618Y-9739342D02*
X63454999Y-9834580D01*
X63454999Y-9834580D02*
X63407380Y-9882200D01*
X63407380Y-9882200D02*
X63312142Y-9929819D01*
X63312142Y-9929819D02*
X62931190Y-9929819D01*
X62931190Y-9929819D02*
X62931190Y-8929819D01*
X62931190Y-8929819D02*
X63264523Y-8929819D01*
X63264523Y-8929819D02*
X63359761Y-8977438D01*
X63359761Y-8977438D02*
X63407380Y-9025057D01*
X63407380Y-9025057D02*
X63454999Y-9120295D01*
X63454999Y-9120295D02*
X63454999Y-9215533D01*
X63454999Y-9215533D02*
X63407380Y-9310771D01*
X63407380Y-9310771D02*
X63359761Y-9358390D01*
X63359761Y-9358390D02*
X63264523Y-9406009D01*
X63264523Y-9406009D02*
X62931190Y-9406009D01*
X63883571Y-9644104D02*
X64359761Y-9644104D01*
X63788333Y-9929819D02*
X64121666Y-8929819D01*
X64121666Y-8929819D02*
X64454999Y-9929819D01*
X64645476Y-8929819D02*
X65216904Y-8929819D01*
X64931190Y-9929819D02*
X64931190Y-8929819D01*
X65978809Y-9263152D02*
X65978809Y-9929819D01*
X65740714Y-8882200D02*
X65502619Y-9596485D01*
X65502619Y-9596485D02*
X66121666Y-9596485D01*
X66455000Y-9025057D02*
X66502619Y-8977438D01*
X66502619Y-8977438D02*
X66597857Y-8929819D01*
X66597857Y-8929819D02*
X66835952Y-8929819D01*
X66835952Y-8929819D02*
X66931190Y-8977438D01*
X66931190Y-8977438D02*
X66978809Y-9025057D01*
X66978809Y-9025057D02*
X67026428Y-9120295D01*
X67026428Y-9120295D02*
X67026428Y-9215533D01*
X67026428Y-9215533D02*
X66978809Y-9358390D01*
X66978809Y-9358390D02*
X66407381Y-9929819D01*
X66407381Y-9929819D02*
X67026428Y-9929819D01*
X65796905Y-2909819D02*
X65796905Y-1909819D01*
X65796905Y-1909819D02*
X66035000Y-1909819D01*
X66035000Y-1909819D02*
X66177857Y-1957438D01*
X66177857Y-1957438D02*
X66273095Y-2052676D01*
X66273095Y-2052676D02*
X66320714Y-2147914D01*
X66320714Y-2147914D02*
X66368333Y-2338390D01*
X66368333Y-2338390D02*
X66368333Y-2481247D01*
X66368333Y-2481247D02*
X66320714Y-2671723D01*
X66320714Y-2671723D02*
X66273095Y-2766961D01*
X66273095Y-2766961D02*
X66177857Y-2862200D01*
X66177857Y-2862200D02*
X66035000Y-2909819D01*
X66035000Y-2909819D02*
X65796905Y-2909819D01*
X66749286Y-2005057D02*
X66796905Y-1957438D01*
X66796905Y-1957438D02*
X66892143Y-1909819D01*
X66892143Y-1909819D02*
X67130238Y-1909819D01*
X67130238Y-1909819D02*
X67225476Y-1957438D01*
X67225476Y-1957438D02*
X67273095Y-2005057D01*
X67273095Y-2005057D02*
X67320714Y-2100295D01*
X67320714Y-2100295D02*
X67320714Y-2195533D01*
X67320714Y-2195533D02*
X67273095Y-2338390D01*
X67273095Y-2338390D02*
X66701667Y-2909819D01*
X66701667Y-2909819D02*
X67320714Y-2909819D01*
X66373095Y-1409819D02*
X66373095Y-409819D01*
X66944523Y-1409819D02*
X66515952Y-838390D01*
X66944523Y-409819D02*
X66373095Y-981247D01*
X73444523Y-7266009D02*
X73587380Y-7313628D01*
X73587380Y-7313628D02*
X73634999Y-7361247D01*
X73634999Y-7361247D02*
X73682618Y-7456485D01*
X73682618Y-7456485D02*
X73682618Y-7599342D01*
X73682618Y-7599342D02*
X73634999Y-7694580D01*
X73634999Y-7694580D02*
X73587380Y-7742200D01*
X73587380Y-7742200D02*
X73492142Y-7789819D01*
X73492142Y-7789819D02*
X73111190Y-7789819D01*
X73111190Y-7789819D02*
X73111190Y-6789819D01*
X73111190Y-6789819D02*
X73444523Y-6789819D01*
X73444523Y-6789819D02*
X73539761Y-6837438D01*
X73539761Y-6837438D02*
X73587380Y-6885057D01*
X73587380Y-6885057D02*
X73634999Y-6980295D01*
X73634999Y-6980295D02*
X73634999Y-7075533D01*
X73634999Y-7075533D02*
X73587380Y-7170771D01*
X73587380Y-7170771D02*
X73539761Y-7218390D01*
X73539761Y-7218390D02*
X73444523Y-7266009D01*
X73444523Y-7266009D02*
X73111190Y-7266009D01*
X74063571Y-7504104D02*
X74539761Y-7504104D01*
X73968333Y-7789819D02*
X74301666Y-6789819D01*
X74301666Y-6789819D02*
X74634999Y-7789819D01*
X74825476Y-6789819D02*
X75396904Y-6789819D01*
X75111190Y-7789819D02*
X75111190Y-6789819D01*
X76158809Y-7123152D02*
X76158809Y-7789819D01*
X75920714Y-6742200D02*
X75682619Y-7456485D01*
X75682619Y-7456485D02*
X76301666Y-7456485D01*
X76635000Y-6885057D02*
X76682619Y-6837438D01*
X76682619Y-6837438D02*
X76777857Y-6789819D01*
X76777857Y-6789819D02*
X77015952Y-6789819D01*
X77015952Y-6789819D02*
X77111190Y-6837438D01*
X77111190Y-6837438D02*
X77158809Y-6885057D01*
X77158809Y-6885057D02*
X77206428Y-6980295D01*
X77206428Y-6980295D02*
X77206428Y-7075533D01*
X77206428Y-7075533D02*
X77158809Y-7218390D01*
X77158809Y-7218390D02*
X76587381Y-7789819D01*
X76587381Y-7789819D02*
X77206428Y-7789819D01*
X72346905Y-2999819D02*
X72346905Y-1999819D01*
X72346905Y-1999819D02*
X72585000Y-1999819D01*
X72585000Y-1999819D02*
X72727857Y-2047438D01*
X72727857Y-2047438D02*
X72823095Y-2142676D01*
X72823095Y-2142676D02*
X72870714Y-2237914D01*
X72870714Y-2237914D02*
X72918333Y-2428390D01*
X72918333Y-2428390D02*
X72918333Y-2571247D01*
X72918333Y-2571247D02*
X72870714Y-2761723D01*
X72870714Y-2761723D02*
X72823095Y-2856961D01*
X72823095Y-2856961D02*
X72727857Y-2952200D01*
X72727857Y-2952200D02*
X72585000Y-2999819D01*
X72585000Y-2999819D02*
X72346905Y-2999819D01*
X73870714Y-2999819D02*
X73299286Y-2999819D01*
X73585000Y-2999819D02*
X73585000Y-1999819D01*
X73585000Y-1999819D02*
X73489762Y-2142676D01*
X73489762Y-2142676D02*
X73394524Y-2237914D01*
X73394524Y-2237914D02*
X73299286Y-2285533D01*
X72673095Y-9629819D02*
X72673095Y-8629819D01*
X73244523Y-9629819D02*
X72815952Y-9058390D01*
X73244523Y-8629819D02*
X72673095Y-9201247D01*
X72860714Y-13565057D02*
X72908333Y-13517438D01*
X72908333Y-13517438D02*
X73003571Y-13469819D01*
X73003571Y-13469819D02*
X73241666Y-13469819D01*
X73241666Y-13469819D02*
X73336904Y-13517438D01*
X73336904Y-13517438D02*
X73384523Y-13565057D01*
X73384523Y-13565057D02*
X73432142Y-13660295D01*
X73432142Y-13660295D02*
X73432142Y-13755533D01*
X73432142Y-13755533D02*
X73384523Y-13898390D01*
X73384523Y-13898390D02*
X72813095Y-14469819D01*
X72813095Y-14469819D02*
X73432142Y-14469819D01*
X73813095Y-13565057D02*
X73860714Y-13517438D01*
X73860714Y-13517438D02*
X73955952Y-13469819D01*
X73955952Y-13469819D02*
X74194047Y-13469819D01*
X74194047Y-13469819D02*
X74289285Y-13517438D01*
X74289285Y-13517438D02*
X74336904Y-13565057D01*
X74336904Y-13565057D02*
X74384523Y-13660295D01*
X74384523Y-13660295D02*
X74384523Y-13755533D01*
X74384523Y-13755533D02*
X74336904Y-13898390D01*
X74336904Y-13898390D02*
X73765476Y-14469819D01*
X73765476Y-14469819D02*
X74384523Y-14469819D01*
X74813095Y-13803152D02*
X74813095Y-14469819D01*
X74813095Y-13898390D02*
X74860714Y-13850771D01*
X74860714Y-13850771D02*
X74955952Y-13803152D01*
X74955952Y-13803152D02*
X75098809Y-13803152D01*
X75098809Y-13803152D02*
X75194047Y-13850771D01*
X75194047Y-13850771D02*
X75241666Y-13946009D01*
X75241666Y-13946009D02*
X75241666Y-14469819D01*
X73898333Y-13114580D02*
X73850714Y-13162200D01*
X73850714Y-13162200D02*
X73707857Y-13209819D01*
X73707857Y-13209819D02*
X73612619Y-13209819D01*
X73612619Y-13209819D02*
X73469762Y-13162200D01*
X73469762Y-13162200D02*
X73374524Y-13066961D01*
X73374524Y-13066961D02*
X73326905Y-12971723D01*
X73326905Y-12971723D02*
X73279286Y-12781247D01*
X73279286Y-12781247D02*
X73279286Y-12638390D01*
X73279286Y-12638390D02*
X73326905Y-12447914D01*
X73326905Y-12447914D02*
X73374524Y-12352676D01*
X73374524Y-12352676D02*
X73469762Y-12257438D01*
X73469762Y-12257438D02*
X73612619Y-12209819D01*
X73612619Y-12209819D02*
X73707857Y-12209819D01*
X73707857Y-12209819D02*
X73850714Y-12257438D01*
X73850714Y-12257438D02*
X73898333Y-12305057D01*
X74755476Y-12543152D02*
X74755476Y-13209819D01*
X74517381Y-12162200D02*
X74279286Y-12876485D01*
X74279286Y-12876485D02*
X74898333Y-12876485D01*
X60835952Y-17769819D02*
X60264524Y-17769819D01*
X60550238Y-17769819D02*
X60550238Y-16769819D01*
X60550238Y-16769819D02*
X60455000Y-16912676D01*
X60455000Y-16912676D02*
X60359762Y-17007914D01*
X60359762Y-17007914D02*
X60264524Y-17055533D01*
X61455000Y-16769819D02*
X61550238Y-16769819D01*
X61550238Y-16769819D02*
X61645476Y-16817438D01*
X61645476Y-16817438D02*
X61693095Y-16865057D01*
X61693095Y-16865057D02*
X61740714Y-16960295D01*
X61740714Y-16960295D02*
X61788333Y-17150771D01*
X61788333Y-17150771D02*
X61788333Y-17388866D01*
X61788333Y-17388866D02*
X61740714Y-17579342D01*
X61740714Y-17579342D02*
X61693095Y-17674580D01*
X61693095Y-17674580D02*
X61645476Y-17722200D01*
X61645476Y-17722200D02*
X61550238Y-17769819D01*
X61550238Y-17769819D02*
X61455000Y-17769819D01*
X61455000Y-17769819D02*
X61359762Y-17722200D01*
X61359762Y-17722200D02*
X61312143Y-17674580D01*
X61312143Y-17674580D02*
X61264524Y-17579342D01*
X61264524Y-17579342D02*
X61216905Y-17388866D01*
X61216905Y-17388866D02*
X61216905Y-17150771D01*
X61216905Y-17150771D02*
X61264524Y-16960295D01*
X61264524Y-16960295D02*
X61312143Y-16865057D01*
X61312143Y-16865057D02*
X61359762Y-16817438D01*
X61359762Y-16817438D02*
X61455000Y-16769819D01*
X62407381Y-16769819D02*
X62502619Y-16769819D01*
X62502619Y-16769819D02*
X62597857Y-16817438D01*
X62597857Y-16817438D02*
X62645476Y-16865057D01*
X62645476Y-16865057D02*
X62693095Y-16960295D01*
X62693095Y-16960295D02*
X62740714Y-17150771D01*
X62740714Y-17150771D02*
X62740714Y-17388866D01*
X62740714Y-17388866D02*
X62693095Y-17579342D01*
X62693095Y-17579342D02*
X62645476Y-17674580D01*
X62645476Y-17674580D02*
X62597857Y-17722200D01*
X62597857Y-17722200D02*
X62502619Y-17769819D01*
X62502619Y-17769819D02*
X62407381Y-17769819D01*
X62407381Y-17769819D02*
X62312143Y-17722200D01*
X62312143Y-17722200D02*
X62264524Y-17674580D01*
X62264524Y-17674580D02*
X62216905Y-17579342D01*
X62216905Y-17579342D02*
X62169286Y-17388866D01*
X62169286Y-17388866D02*
X62169286Y-17150771D01*
X62169286Y-17150771D02*
X62216905Y-16960295D01*
X62216905Y-16960295D02*
X62264524Y-16865057D01*
X62264524Y-16865057D02*
X62312143Y-16817438D01*
X62312143Y-16817438D02*
X62407381Y-16769819D01*
X63169286Y-17103152D02*
X63169286Y-17769819D01*
X63169286Y-17198390D02*
X63216905Y-17150771D01*
X63216905Y-17150771D02*
X63312143Y-17103152D01*
X63312143Y-17103152D02*
X63455000Y-17103152D01*
X63455000Y-17103152D02*
X63550238Y-17150771D01*
X63550238Y-17150771D02*
X63597857Y-17246009D01*
X63597857Y-17246009D02*
X63597857Y-17769819D01*
X62518333Y-15684580D02*
X62470714Y-15732200D01*
X62470714Y-15732200D02*
X62327857Y-15779819D01*
X62327857Y-15779819D02*
X62232619Y-15779819D01*
X62232619Y-15779819D02*
X62089762Y-15732200D01*
X62089762Y-15732200D02*
X61994524Y-15636961D01*
X61994524Y-15636961D02*
X61946905Y-15541723D01*
X61946905Y-15541723D02*
X61899286Y-15351247D01*
X61899286Y-15351247D02*
X61899286Y-15208390D01*
X61899286Y-15208390D02*
X61946905Y-15017914D01*
X61946905Y-15017914D02*
X61994524Y-14922676D01*
X61994524Y-14922676D02*
X62089762Y-14827438D01*
X62089762Y-14827438D02*
X62232619Y-14779819D01*
X62232619Y-14779819D02*
X62327857Y-14779819D01*
X62327857Y-14779819D02*
X62470714Y-14827438D01*
X62470714Y-14827438D02*
X62518333Y-14875057D01*
X62851667Y-14779819D02*
X63470714Y-14779819D01*
X63470714Y-14779819D02*
X63137381Y-15160771D01*
X63137381Y-15160771D02*
X63280238Y-15160771D01*
X63280238Y-15160771D02*
X63375476Y-15208390D01*
X63375476Y-15208390D02*
X63423095Y-15256009D01*
X63423095Y-15256009D02*
X63470714Y-15351247D01*
X63470714Y-15351247D02*
X63470714Y-15589342D01*
X63470714Y-15589342D02*
X63423095Y-15684580D01*
X63423095Y-15684580D02*
X63375476Y-15732200D01*
X63375476Y-15732200D02*
X63280238Y-15779819D01*
X63280238Y-15779819D02*
X62994524Y-15779819D01*
X62994524Y-15779819D02*
X62899286Y-15732200D01*
X62899286Y-15732200D02*
X62851667Y-15684580D01*
X10960000Y-59264819D02*
X11150476Y-59264819D01*
X11150476Y-59264819D02*
X11245714Y-59312438D01*
X11245714Y-59312438D02*
X11340952Y-59407676D01*
X11340952Y-59407676D02*
X11388571Y-59598152D01*
X11388571Y-59598152D02*
X11388571Y-59931485D01*
X11388571Y-59931485D02*
X11340952Y-60121961D01*
X11340952Y-60121961D02*
X11245714Y-60217200D01*
X11245714Y-60217200D02*
X11150476Y-60264819D01*
X11150476Y-60264819D02*
X10960000Y-60264819D01*
X10960000Y-60264819D02*
X10864762Y-60217200D01*
X10864762Y-60217200D02*
X10769524Y-60121961D01*
X10769524Y-60121961D02*
X10721905Y-59931485D01*
X10721905Y-59931485D02*
X10721905Y-59598152D01*
X10721905Y-59598152D02*
X10769524Y-59407676D01*
X10769524Y-59407676D02*
X10864762Y-59312438D01*
X10864762Y-59312438D02*
X10960000Y-59264819D01*
X11817143Y-59264819D02*
X11817143Y-60074342D01*
X11817143Y-60074342D02*
X11864762Y-60169580D01*
X11864762Y-60169580D02*
X11912381Y-60217200D01*
X11912381Y-60217200D02*
X12007619Y-60264819D01*
X12007619Y-60264819D02*
X12198095Y-60264819D01*
X12198095Y-60264819D02*
X12293333Y-60217200D01*
X12293333Y-60217200D02*
X12340952Y-60169580D01*
X12340952Y-60169580D02*
X12388571Y-60074342D01*
X12388571Y-60074342D02*
X12388571Y-59264819D01*
X12721905Y-59264819D02*
X13293333Y-59264819D01*
X13007619Y-60264819D02*
X13007619Y-59264819D01*
X10886466Y-57688219D02*
X10886466Y-58402504D01*
X10886466Y-58402504D02*
X10838847Y-58545361D01*
X10838847Y-58545361D02*
X10743609Y-58640600D01*
X10743609Y-58640600D02*
X10600752Y-58688219D01*
X10600752Y-58688219D02*
X10505514Y-58688219D01*
X11315038Y-57783457D02*
X11362657Y-57735838D01*
X11362657Y-57735838D02*
X11457895Y-57688219D01*
X11457895Y-57688219D02*
X11695990Y-57688219D01*
X11695990Y-57688219D02*
X11791228Y-57735838D01*
X11791228Y-57735838D02*
X11838847Y-57783457D01*
X11838847Y-57783457D02*
X11886466Y-57878695D01*
X11886466Y-57878695D02*
X11886466Y-57973933D01*
X11886466Y-57973933D02*
X11838847Y-58116790D01*
X11838847Y-58116790D02*
X11267419Y-58688219D01*
X11267419Y-58688219D02*
X11886466Y-58688219D01*
X71351905Y-39864819D02*
X71590000Y-40864819D01*
X71590000Y-40864819D02*
X71780476Y-40150533D01*
X71780476Y-40150533D02*
X71970952Y-40864819D01*
X71970952Y-40864819D02*
X72209048Y-39864819D01*
X73161428Y-40769580D02*
X73113809Y-40817200D01*
X73113809Y-40817200D02*
X72970952Y-40864819D01*
X72970952Y-40864819D02*
X72875714Y-40864819D01*
X72875714Y-40864819D02*
X72732857Y-40817200D01*
X72732857Y-40817200D02*
X72637619Y-40721961D01*
X72637619Y-40721961D02*
X72590000Y-40626723D01*
X72590000Y-40626723D02*
X72542381Y-40436247D01*
X72542381Y-40436247D02*
X72542381Y-40293390D01*
X72542381Y-40293390D02*
X72590000Y-40102914D01*
X72590000Y-40102914D02*
X72637619Y-40007676D01*
X72637619Y-40007676D02*
X72732857Y-39912438D01*
X72732857Y-39912438D02*
X72875714Y-39864819D01*
X72875714Y-39864819D02*
X72970952Y-39864819D01*
X72970952Y-39864819D02*
X73113809Y-39912438D01*
X73113809Y-39912438D02*
X73161428Y-39960057D01*
X73590000Y-40864819D02*
X73590000Y-39864819D01*
X73590000Y-40341009D02*
X74161428Y-40341009D01*
X74161428Y-40864819D02*
X74161428Y-39864819D01*
X74637619Y-40483866D02*
X75399524Y-40483866D01*
X76351904Y-40864819D02*
X75875714Y-40864819D01*
X75875714Y-40864819D02*
X75875714Y-39864819D01*
X76685238Y-40864819D02*
X76685238Y-39864819D01*
X77161428Y-40864819D02*
X77161428Y-39864819D01*
X77161428Y-39864819D02*
X77732856Y-40864819D01*
X77732856Y-40864819D02*
X77732856Y-39864819D01*
X78209047Y-40864819D02*
X78209047Y-39864819D01*
X78780475Y-40864819D02*
X78351904Y-40293390D01*
X78780475Y-39864819D02*
X78209047Y-40436247D01*
X68216666Y-39734819D02*
X68216666Y-40449104D01*
X68216666Y-40449104D02*
X68169047Y-40591961D01*
X68169047Y-40591961D02*
X68073809Y-40687200D01*
X68073809Y-40687200D02*
X67930952Y-40734819D01*
X67930952Y-40734819D02*
X67835714Y-40734819D01*
X69121428Y-40068152D02*
X69121428Y-40734819D01*
X68883333Y-39687200D02*
X68645238Y-40401485D01*
X68645238Y-40401485D02*
X69264285Y-40401485D01*
X11006191Y-6344819D02*
X11006191Y-5344819D01*
X11482381Y-6344819D02*
X11482381Y-5344819D01*
X11482381Y-5344819D02*
X12053809Y-6344819D01*
X12053809Y-6344819D02*
X12053809Y-5344819D01*
X12666666Y-7224819D02*
X12666666Y-7939104D01*
X12666666Y-7939104D02*
X12619047Y-8081961D01*
X12619047Y-8081961D02*
X12523809Y-8177200D01*
X12523809Y-8177200D02*
X12380952Y-8224819D01*
X12380952Y-8224819D02*
X12285714Y-8224819D01*
X13666666Y-8224819D02*
X13095238Y-8224819D01*
X13380952Y-8224819D02*
X13380952Y-7224819D01*
X13380952Y-7224819D02*
X13285714Y-7367676D01*
X13285714Y-7367676D02*
X13190476Y-7462914D01*
X13190476Y-7462914D02*
X13095238Y-7510533D01*
X50084952Y-23337819D02*
X49513524Y-23337819D01*
X49799238Y-23337819D02*
X49799238Y-22337819D01*
X49799238Y-22337819D02*
X49704000Y-22480676D01*
X49704000Y-22480676D02*
X49608762Y-22575914D01*
X49608762Y-22575914D02*
X49513524Y-22623533D01*
X50704000Y-22337819D02*
X50799238Y-22337819D01*
X50799238Y-22337819D02*
X50894476Y-22385438D01*
X50894476Y-22385438D02*
X50942095Y-22433057D01*
X50942095Y-22433057D02*
X50989714Y-22528295D01*
X50989714Y-22528295D02*
X51037333Y-22718771D01*
X51037333Y-22718771D02*
X51037333Y-22956866D01*
X51037333Y-22956866D02*
X50989714Y-23147342D01*
X50989714Y-23147342D02*
X50942095Y-23242580D01*
X50942095Y-23242580D02*
X50894476Y-23290200D01*
X50894476Y-23290200D02*
X50799238Y-23337819D01*
X50799238Y-23337819D02*
X50704000Y-23337819D01*
X50704000Y-23337819D02*
X50608762Y-23290200D01*
X50608762Y-23290200D02*
X50561143Y-23242580D01*
X50561143Y-23242580D02*
X50513524Y-23147342D01*
X50513524Y-23147342D02*
X50465905Y-22956866D01*
X50465905Y-22956866D02*
X50465905Y-22718771D01*
X50465905Y-22718771D02*
X50513524Y-22528295D01*
X50513524Y-22528295D02*
X50561143Y-22433057D01*
X50561143Y-22433057D02*
X50608762Y-22385438D01*
X50608762Y-22385438D02*
X50704000Y-22337819D01*
X51656381Y-22337819D02*
X51751619Y-22337819D01*
X51751619Y-22337819D02*
X51846857Y-22385438D01*
X51846857Y-22385438D02*
X51894476Y-22433057D01*
X51894476Y-22433057D02*
X51942095Y-22528295D01*
X51942095Y-22528295D02*
X51989714Y-22718771D01*
X51989714Y-22718771D02*
X51989714Y-22956866D01*
X51989714Y-22956866D02*
X51942095Y-23147342D01*
X51942095Y-23147342D02*
X51894476Y-23242580D01*
X51894476Y-23242580D02*
X51846857Y-23290200D01*
X51846857Y-23290200D02*
X51751619Y-23337819D01*
X51751619Y-23337819D02*
X51656381Y-23337819D01*
X51656381Y-23337819D02*
X51561143Y-23290200D01*
X51561143Y-23290200D02*
X51513524Y-23242580D01*
X51513524Y-23242580D02*
X51465905Y-23147342D01*
X51465905Y-23147342D02*
X51418286Y-22956866D01*
X51418286Y-22956866D02*
X51418286Y-22718771D01*
X51418286Y-22718771D02*
X51465905Y-22528295D01*
X51465905Y-22528295D02*
X51513524Y-22433057D01*
X51513524Y-22433057D02*
X51561143Y-22385438D01*
X51561143Y-22385438D02*
X51656381Y-22337819D01*
X52418286Y-22671152D02*
X52418286Y-23337819D01*
X52418286Y-22766390D02*
X52465905Y-22718771D01*
X52465905Y-22718771D02*
X52561143Y-22671152D01*
X52561143Y-22671152D02*
X52704000Y-22671152D01*
X52704000Y-22671152D02*
X52799238Y-22718771D01*
X52799238Y-22718771D02*
X52846857Y-22814009D01*
X52846857Y-22814009D02*
X52846857Y-23337819D01*
X50854333Y-29863580D02*
X50806714Y-29911200D01*
X50806714Y-29911200D02*
X50663857Y-29958819D01*
X50663857Y-29958819D02*
X50568619Y-29958819D01*
X50568619Y-29958819D02*
X50425762Y-29911200D01*
X50425762Y-29911200D02*
X50330524Y-29815961D01*
X50330524Y-29815961D02*
X50282905Y-29720723D01*
X50282905Y-29720723D02*
X50235286Y-29530247D01*
X50235286Y-29530247D02*
X50235286Y-29387390D01*
X50235286Y-29387390D02*
X50282905Y-29196914D01*
X50282905Y-29196914D02*
X50330524Y-29101676D01*
X50330524Y-29101676D02*
X50425762Y-29006438D01*
X50425762Y-29006438D02*
X50568619Y-28958819D01*
X50568619Y-28958819D02*
X50663857Y-28958819D01*
X50663857Y-28958819D02*
X50806714Y-29006438D01*
X50806714Y-29006438D02*
X50854333Y-29054057D01*
X51235286Y-29054057D02*
X51282905Y-29006438D01*
X51282905Y-29006438D02*
X51378143Y-28958819D01*
X51378143Y-28958819D02*
X51616238Y-28958819D01*
X51616238Y-28958819D02*
X51711476Y-29006438D01*
X51711476Y-29006438D02*
X51759095Y-29054057D01*
X51759095Y-29054057D02*
X51806714Y-29149295D01*
X51806714Y-29149295D02*
X51806714Y-29244533D01*
X51806714Y-29244533D02*
X51759095Y-29387390D01*
X51759095Y-29387390D02*
X51187667Y-29958819D01*
X51187667Y-29958819D02*
X51806714Y-29958819D01*
X56106904Y-25538152D02*
X56106904Y-26204819D01*
X55868809Y-25157200D02*
X55630714Y-25871485D01*
X55630714Y-25871485D02*
X56249761Y-25871485D01*
X56535476Y-25204819D02*
X57202142Y-25204819D01*
X57202142Y-25204819D02*
X56773571Y-26204819D01*
X58011666Y-25538152D02*
X58011666Y-26204819D01*
X57583095Y-25538152D02*
X57583095Y-26061961D01*
X57583095Y-26061961D02*
X57630714Y-26157200D01*
X57630714Y-26157200D02*
X57725952Y-26204819D01*
X57725952Y-26204819D02*
X57868809Y-26204819D01*
X57868809Y-26204819D02*
X57964047Y-26157200D01*
X57964047Y-26157200D02*
X58011666Y-26109580D01*
X56398333Y-27864580D02*
X56350714Y-27912200D01*
X56350714Y-27912200D02*
X56207857Y-27959819D01*
X56207857Y-27959819D02*
X56112619Y-27959819D01*
X56112619Y-27959819D02*
X55969762Y-27912200D01*
X55969762Y-27912200D02*
X55874524Y-27816961D01*
X55874524Y-27816961D02*
X55826905Y-27721723D01*
X55826905Y-27721723D02*
X55779286Y-27531247D01*
X55779286Y-27531247D02*
X55779286Y-27388390D01*
X55779286Y-27388390D02*
X55826905Y-27197914D01*
X55826905Y-27197914D02*
X55874524Y-27102676D01*
X55874524Y-27102676D02*
X55969762Y-27007438D01*
X55969762Y-27007438D02*
X56112619Y-26959819D01*
X56112619Y-26959819D02*
X56207857Y-26959819D01*
X56207857Y-26959819D02*
X56350714Y-27007438D01*
X56350714Y-27007438D02*
X56398333Y-27055057D01*
X57350714Y-27959819D02*
X56779286Y-27959819D01*
X57065000Y-27959819D02*
X57065000Y-26959819D01*
X57065000Y-26959819D02*
X56969762Y-27102676D01*
X56969762Y-27102676D02*
X56874524Y-27197914D01*
X56874524Y-27197914D02*
X56779286Y-27245533D01*
X72805237Y-28041009D02*
X72948094Y-28088628D01*
X72948094Y-28088628D02*
X72995713Y-28136247D01*
X72995713Y-28136247D02*
X73043332Y-28231485D01*
X73043332Y-28231485D02*
X73043332Y-28374342D01*
X73043332Y-28374342D02*
X72995713Y-28469580D01*
X72995713Y-28469580D02*
X72948094Y-28517200D01*
X72948094Y-28517200D02*
X72852856Y-28564819D01*
X72852856Y-28564819D02*
X72471904Y-28564819D01*
X72471904Y-28564819D02*
X72471904Y-27564819D01*
X72471904Y-27564819D02*
X72805237Y-27564819D01*
X72805237Y-27564819D02*
X72900475Y-27612438D01*
X72900475Y-27612438D02*
X72948094Y-27660057D01*
X72948094Y-27660057D02*
X72995713Y-27755295D01*
X72995713Y-27755295D02*
X72995713Y-27850533D01*
X72995713Y-27850533D02*
X72948094Y-27945771D01*
X72948094Y-27945771D02*
X72900475Y-27993390D01*
X72900475Y-27993390D02*
X72805237Y-28041009D01*
X72805237Y-28041009D02*
X72471904Y-28041009D01*
X73900475Y-28564819D02*
X73900475Y-28041009D01*
X73900475Y-28041009D02*
X73852856Y-27945771D01*
X73852856Y-27945771D02*
X73757618Y-27898152D01*
X73757618Y-27898152D02*
X73567142Y-27898152D01*
X73567142Y-27898152D02*
X73471904Y-27945771D01*
X73900475Y-28517200D02*
X73805237Y-28564819D01*
X73805237Y-28564819D02*
X73567142Y-28564819D01*
X73567142Y-28564819D02*
X73471904Y-28517200D01*
X73471904Y-28517200D02*
X73424285Y-28421961D01*
X73424285Y-28421961D02*
X73424285Y-28326723D01*
X73424285Y-28326723D02*
X73471904Y-28231485D01*
X73471904Y-28231485D02*
X73567142Y-28183866D01*
X73567142Y-28183866D02*
X73805237Y-28183866D01*
X73805237Y-28183866D02*
X73900475Y-28136247D01*
X74805237Y-28517200D02*
X74709999Y-28564819D01*
X74709999Y-28564819D02*
X74519523Y-28564819D01*
X74519523Y-28564819D02*
X74424285Y-28517200D01*
X74424285Y-28517200D02*
X74376666Y-28469580D01*
X74376666Y-28469580D02*
X74329047Y-28374342D01*
X74329047Y-28374342D02*
X74329047Y-28088628D01*
X74329047Y-28088628D02*
X74376666Y-27993390D01*
X74376666Y-27993390D02*
X74424285Y-27945771D01*
X74424285Y-27945771D02*
X74519523Y-27898152D01*
X74519523Y-27898152D02*
X74709999Y-27898152D01*
X74709999Y-27898152D02*
X74805237Y-27945771D01*
X75233809Y-28564819D02*
X75233809Y-27564819D01*
X75329047Y-28183866D02*
X75614761Y-28564819D01*
X75614761Y-27898152D02*
X75233809Y-28279104D01*
X76186190Y-28564819D02*
X76090952Y-28517200D01*
X76090952Y-28517200D02*
X76043333Y-28421961D01*
X76043333Y-28421961D02*
X76043333Y-27564819D01*
X76567143Y-28564819D02*
X76567143Y-27898152D01*
X76567143Y-27564819D02*
X76519524Y-27612438D01*
X76519524Y-27612438D02*
X76567143Y-27660057D01*
X76567143Y-27660057D02*
X76614762Y-27612438D01*
X76614762Y-27612438D02*
X76567143Y-27564819D01*
X76567143Y-27564819D02*
X76567143Y-27660057D01*
X77471904Y-27898152D02*
X77471904Y-28707676D01*
X77471904Y-28707676D02*
X77424285Y-28802914D01*
X77424285Y-28802914D02*
X77376666Y-28850533D01*
X77376666Y-28850533D02*
X77281428Y-28898152D01*
X77281428Y-28898152D02*
X77138571Y-28898152D01*
X77138571Y-28898152D02*
X77043333Y-28850533D01*
X77471904Y-28517200D02*
X77376666Y-28564819D01*
X77376666Y-28564819D02*
X77186190Y-28564819D01*
X77186190Y-28564819D02*
X77090952Y-28517200D01*
X77090952Y-28517200D02*
X77043333Y-28469580D01*
X77043333Y-28469580D02*
X76995714Y-28374342D01*
X76995714Y-28374342D02*
X76995714Y-28088628D01*
X76995714Y-28088628D02*
X77043333Y-27993390D01*
X77043333Y-27993390D02*
X77090952Y-27945771D01*
X77090952Y-27945771D02*
X77186190Y-27898152D01*
X77186190Y-27898152D02*
X77376666Y-27898152D01*
X77376666Y-27898152D02*
X77471904Y-27945771D01*
X77948095Y-28564819D02*
X77948095Y-27564819D01*
X78376666Y-28564819D02*
X78376666Y-28041009D01*
X78376666Y-28041009D02*
X78329047Y-27945771D01*
X78329047Y-27945771D02*
X78233809Y-27898152D01*
X78233809Y-27898152D02*
X78090952Y-27898152D01*
X78090952Y-27898152D02*
X77995714Y-27945771D01*
X77995714Y-27945771D02*
X77948095Y-27993390D01*
X78710000Y-27898152D02*
X79090952Y-27898152D01*
X78852857Y-27564819D02*
X78852857Y-28421961D01*
X78852857Y-28421961D02*
X78900476Y-28517200D01*
X78900476Y-28517200D02*
X78995714Y-28564819D01*
X78995714Y-28564819D02*
X79090952Y-28564819D01*
X68861666Y-27624819D02*
X68861666Y-28339104D01*
X68861666Y-28339104D02*
X68814047Y-28481961D01*
X68814047Y-28481961D02*
X68718809Y-28577200D01*
X68718809Y-28577200D02*
X68575952Y-28624819D01*
X68575952Y-28624819D02*
X68480714Y-28624819D01*
X69242619Y-27624819D02*
X69861666Y-27624819D01*
X69861666Y-27624819D02*
X69528333Y-28005771D01*
X69528333Y-28005771D02*
X69671190Y-28005771D01*
X69671190Y-28005771D02*
X69766428Y-28053390D01*
X69766428Y-28053390D02*
X69814047Y-28101009D01*
X69814047Y-28101009D02*
X69861666Y-28196247D01*
X69861666Y-28196247D02*
X69861666Y-28434342D01*
X69861666Y-28434342D02*
X69814047Y-28529580D01*
X69814047Y-28529580D02*
X69766428Y-28577200D01*
X69766428Y-28577200D02*
X69671190Y-28624819D01*
X69671190Y-28624819D02*
X69385476Y-28624819D01*
X69385476Y-28624819D02*
X69290238Y-28577200D01*
X69290238Y-28577200D02*
X69242619Y-28529580D01*
D11*
%TO.C,U2*%
X-140000Y-10610000D02*
X-140000Y-46890000D01*
X-140000Y-46890000D02*
X80140000Y-46890000D01*
X-130000Y-10610000D02*
X660000Y-10610000D01*
D12*
X0Y-46750000D02*
X0Y-10750000D01*
D11*
X6500000Y-10250000D02*
X9500000Y-10250000D01*
D12*
X7000000Y-10750000D02*
X0Y-10750000D01*
X8000000Y-11750000D02*
X7000000Y-10750000D01*
X9000000Y-10750000D02*
X8000000Y-11750000D01*
X9000000Y-10750000D02*
X80000000Y-10750000D01*
X80000000Y-10750000D02*
X80000000Y-46750000D01*
X80000000Y-46750000D02*
X0Y-46750000D01*
D11*
X80140000Y-10610000D02*
X660000Y-10610000D01*
X80140000Y-46890000D02*
X80140000Y-10610000D01*
D12*
%TO.C,SW2*%
X67000000Y-55500000D02*
X67000000Y-52500000D01*
X73000000Y-55500000D02*
X67000000Y-55500000D01*
X67000000Y-52500000D02*
X67000000Y-49500000D01*
X67000000Y-49500000D02*
X73000000Y-49500000D01*
X73000000Y-49500000D02*
X73000000Y-55500000D01*
X72015564Y-52500000D02*
G75*
G02*
X67984436Y-52500000I-2015564J0D01*
G01*
X67984436Y-52500000D02*
G75*
G02*
X72015564Y-52500000I2015564J0D01*
G01*
%TO.C,SW1*%
X7000000Y-55500000D02*
X7000000Y-52500000D01*
X13000000Y-55500000D02*
X7000000Y-55500000D01*
X7000000Y-52500000D02*
X7000000Y-49500000D01*
X7000000Y-49500000D02*
X13000000Y-49500000D01*
X13000000Y-49500000D02*
X13000000Y-55500000D01*
X12015564Y-52500000D02*
G75*
G02*
X7984436Y-52500000I-2015564J0D01*
G01*
X7984436Y-52500000D02*
G75*
G02*
X12015564Y-52500000I2015564J0D01*
G01*
%TO.C,D2*%
X68215000Y-1565000D02*
X68215000Y-3375000D01*
X69215000Y-3875000D02*
X67215000Y-3875000D01*
X69215000Y-3975000D02*
X67215000Y-3975000D01*
X69215000Y-4075000D02*
X67215000Y-4075000D01*
X68215000Y-9185000D02*
X68215000Y-7375000D01*
X69215000Y-3375000D02*
X67215000Y-3375000D01*
X67215000Y-7375000D01*
X69215000Y-7375000D01*
X69215000Y-3375000D01*
%TO.C,D1*%
X71235000Y-9245000D02*
X71235000Y-7435000D01*
X70235000Y-6935000D02*
X72235000Y-6935000D01*
X70235000Y-6835000D02*
X72235000Y-6835000D01*
X70235000Y-6735000D02*
X72235000Y-6735000D01*
X71235000Y-1625000D02*
X71235000Y-3435000D01*
X70235000Y-7435000D02*
X72235000Y-7435000D01*
X72235000Y-3435000D01*
X70235000Y-3435000D01*
X70235000Y-7435000D01*
D11*
%TO.C,J2*%
X65460000Y-48370000D02*
X64130000Y-48370000D01*
X65460000Y-49480000D02*
X65460000Y-48370000D01*
D12*
X64430000Y-49480000D02*
X64430000Y-53540000D01*
X63830000Y-49480000D02*
X64430000Y-49480000D01*
X61890000Y-49480000D02*
X61890000Y-53540000D01*
X61290000Y-49480000D02*
X61890000Y-49480000D01*
X59350000Y-49480000D02*
X59350000Y-53540000D01*
X58750000Y-49480000D02*
X59350000Y-49480000D01*
X56810000Y-49480000D02*
X56810000Y-53540000D01*
X56210000Y-49480000D02*
X56810000Y-49480000D01*
X54270000Y-49480000D02*
X54270000Y-53540000D01*
X53670000Y-49480000D02*
X54270000Y-49480000D01*
X51730000Y-49480000D02*
X51730000Y-53540000D01*
X51130000Y-49480000D02*
X51730000Y-49480000D01*
X49190000Y-49480000D02*
X49190000Y-53540000D01*
X48590000Y-49480000D02*
X49190000Y-49480000D01*
X46650000Y-49480000D02*
X46650000Y-53540000D01*
X46050000Y-49480000D02*
X46650000Y-49480000D01*
X44110000Y-49480000D02*
X44110000Y-53540000D01*
X43510000Y-49480000D02*
X44110000Y-49480000D01*
X41570000Y-49480000D02*
X41570000Y-53540000D01*
X40970000Y-49480000D02*
X41570000Y-49480000D01*
X39030000Y-49480000D02*
X39030000Y-53540000D01*
X38430000Y-49480000D02*
X39030000Y-49480000D01*
X36490000Y-49480000D02*
X36490000Y-53540000D01*
X35890000Y-49480000D02*
X36490000Y-49480000D01*
X33950000Y-49480000D02*
X33950000Y-53540000D01*
X33350000Y-49480000D02*
X33950000Y-49480000D01*
X31410000Y-49480000D02*
X31410000Y-53540000D01*
X30810000Y-49480000D02*
X31410000Y-49480000D01*
X28870000Y-49480000D02*
X28870000Y-53540000D01*
X28270000Y-49480000D02*
X28870000Y-49480000D01*
X26330000Y-49480000D02*
X26330000Y-53540000D01*
X25730000Y-49480000D02*
X26330000Y-49480000D01*
X23790000Y-49480000D02*
X23790000Y-53540000D01*
X23190000Y-49480000D02*
X23790000Y-49480000D01*
X21250000Y-49480000D02*
X21250000Y-53540000D01*
X20650000Y-49480000D02*
X21250000Y-49480000D01*
X18710000Y-49480000D02*
X18710000Y-53540000D01*
X18110000Y-49480000D02*
X18710000Y-49480000D01*
X16170000Y-49480000D02*
X16170000Y-53540000D01*
X15570000Y-49480000D02*
X16170000Y-49480000D01*
D11*
X64490000Y-50970000D02*
X64490000Y-50590000D01*
X63770000Y-50970000D02*
X63770000Y-50590000D01*
X61950000Y-50970000D02*
X61950000Y-50530000D01*
X61230000Y-50970000D02*
X61230000Y-50530000D01*
X59410000Y-50970000D02*
X59410000Y-50530000D01*
X58690000Y-50970000D02*
X58690000Y-50530000D01*
X56870000Y-50970000D02*
X56870000Y-50530000D01*
X56150000Y-50970000D02*
X56150000Y-50530000D01*
X54330000Y-50970000D02*
X54330000Y-50530000D01*
X53610000Y-50970000D02*
X53610000Y-50530000D01*
X51790000Y-50970000D02*
X51790000Y-50530000D01*
X51070000Y-50970000D02*
X51070000Y-50530000D01*
X49250000Y-50970000D02*
X49250000Y-50530000D01*
X48530000Y-50970000D02*
X48530000Y-50530000D01*
X46710000Y-50970000D02*
X46710000Y-50530000D01*
X45990000Y-50970000D02*
X45990000Y-50530000D01*
X44170000Y-50970000D02*
X44170000Y-50530000D01*
X43450000Y-50970000D02*
X43450000Y-50530000D01*
X41630000Y-50970000D02*
X41630000Y-50530000D01*
X40910000Y-50970000D02*
X40910000Y-50530000D01*
X39090000Y-50970000D02*
X39090000Y-50530000D01*
X38370000Y-50970000D02*
X38370000Y-50530000D01*
X36550000Y-50970000D02*
X36550000Y-50530000D01*
X35830000Y-50970000D02*
X35830000Y-50530000D01*
X34010000Y-50970000D02*
X34010000Y-50530000D01*
X33290000Y-50970000D02*
X33290000Y-50530000D01*
X31470000Y-50970000D02*
X31470000Y-50530000D01*
X30750000Y-50970000D02*
X30750000Y-50530000D01*
X28930000Y-50970000D02*
X28930000Y-50530000D01*
X28210000Y-50970000D02*
X28210000Y-50530000D01*
X26390000Y-50970000D02*
X26390000Y-50530000D01*
X25670000Y-50970000D02*
X25670000Y-50530000D01*
X23850000Y-50970000D02*
X23850000Y-50530000D01*
X23130000Y-50970000D02*
X23130000Y-50530000D01*
X21310000Y-50970000D02*
X21310000Y-50530000D01*
X20590000Y-50970000D02*
X20590000Y-50530000D01*
X18770000Y-50970000D02*
X18770000Y-50530000D01*
X18050000Y-50970000D02*
X18050000Y-50530000D01*
X16230000Y-50970000D02*
X16230000Y-50530000D01*
X15510000Y-50970000D02*
X15510000Y-50530000D01*
X65460000Y-53480000D02*
X14540000Y-53480000D01*
X64490000Y-53480000D02*
X64490000Y-53070000D01*
X63770000Y-53480000D02*
X63770000Y-53070000D01*
X61950000Y-53480000D02*
X61950000Y-53070000D01*
X61230000Y-53480000D02*
X61230000Y-53070000D01*
X59410000Y-53480000D02*
X59410000Y-53070000D01*
X58690000Y-53480000D02*
X58690000Y-53070000D01*
X56870000Y-53480000D02*
X56870000Y-53070000D01*
X56150000Y-53480000D02*
X56150000Y-53070000D01*
X54330000Y-53480000D02*
X54330000Y-53070000D01*
X53610000Y-53480000D02*
X53610000Y-53070000D01*
X51790000Y-53480000D02*
X51790000Y-53070000D01*
X51070000Y-53480000D02*
X51070000Y-53070000D01*
X49250000Y-53480000D02*
X49250000Y-53070000D01*
X48530000Y-53480000D02*
X48530000Y-53070000D01*
X46710000Y-53480000D02*
X46710000Y-53070000D01*
X45990000Y-53480000D02*
X45990000Y-53070000D01*
X44170000Y-53480000D02*
X44170000Y-53070000D01*
X43450000Y-53480000D02*
X43450000Y-53070000D01*
X41630000Y-53480000D02*
X41630000Y-53070000D01*
X40910000Y-53480000D02*
X40910000Y-53070000D01*
X39090000Y-53480000D02*
X39090000Y-53070000D01*
X38370000Y-53480000D02*
X38370000Y-53070000D01*
X36550000Y-53480000D02*
X36550000Y-53070000D01*
X35830000Y-53480000D02*
X35830000Y-53070000D01*
X34010000Y-53480000D02*
X34010000Y-53070000D01*
X33290000Y-53480000D02*
X33290000Y-53070000D01*
X31470000Y-53480000D02*
X31470000Y-53070000D01*
X30750000Y-53480000D02*
X30750000Y-53070000D01*
X28930000Y-53480000D02*
X28930000Y-53070000D01*
X28210000Y-53480000D02*
X28210000Y-53070000D01*
X26390000Y-53480000D02*
X26390000Y-53070000D01*
X25670000Y-53480000D02*
X25670000Y-53070000D01*
X23850000Y-53480000D02*
X23850000Y-53070000D01*
X23130000Y-53480000D02*
X23130000Y-53070000D01*
X21310000Y-53480000D02*
X21310000Y-53070000D01*
X20590000Y-53480000D02*
X20590000Y-53070000D01*
X18770000Y-53480000D02*
X18770000Y-53070000D01*
X18050000Y-53480000D02*
X18050000Y-53070000D01*
X16230000Y-53480000D02*
X16230000Y-53070000D01*
X15510000Y-53480000D02*
X15510000Y-53070000D01*
D12*
X64430000Y-53540000D02*
X14600000Y-53540000D01*
X63830000Y-53540000D02*
X63830000Y-49480000D01*
X61290000Y-53540000D02*
X61290000Y-49480000D01*
X58750000Y-53540000D02*
X58750000Y-49480000D01*
X56210000Y-53540000D02*
X56210000Y-49480000D01*
X53670000Y-53540000D02*
X53670000Y-49480000D01*
X51130000Y-53540000D02*
X51130000Y-49480000D01*
X48590000Y-53540000D02*
X48590000Y-49480000D01*
X46050000Y-53540000D02*
X46050000Y-49480000D01*
X43510000Y-53540000D02*
X43510000Y-49480000D01*
X40970000Y-53540000D02*
X40970000Y-49480000D01*
X38430000Y-53540000D02*
X38430000Y-49480000D01*
X35890000Y-53540000D02*
X35890000Y-49480000D01*
X33350000Y-53540000D02*
X33350000Y-49480000D01*
X30810000Y-53540000D02*
X30810000Y-49480000D01*
X28270000Y-53540000D02*
X28270000Y-49480000D01*
X25730000Y-53540000D02*
X25730000Y-49480000D01*
X23190000Y-53540000D02*
X23190000Y-49480000D01*
X20650000Y-53540000D02*
X20650000Y-49480000D01*
X18110000Y-53540000D02*
X18110000Y-49480000D01*
X15570000Y-53540000D02*
X15570000Y-49480000D01*
D11*
X65460000Y-61050000D02*
X65460000Y-53480000D01*
X65460000Y-61050000D02*
X14540000Y-61050000D01*
X62860000Y-61050000D02*
X62860000Y-53480000D01*
X60320000Y-61050000D02*
X60320000Y-53480000D01*
X57780000Y-61050000D02*
X57780000Y-53480000D01*
X55240000Y-61050000D02*
X55240000Y-53480000D01*
X52700000Y-61050000D02*
X52700000Y-53480000D01*
X50160000Y-61050000D02*
X50160000Y-53480000D01*
X47620000Y-61050000D02*
X47620000Y-53480000D01*
X45080000Y-61050000D02*
X45080000Y-53480000D01*
X42540000Y-61050000D02*
X42540000Y-53480000D01*
X40000000Y-61050000D02*
X40000000Y-53480000D01*
X37460000Y-61050000D02*
X37460000Y-53480000D01*
X34920000Y-61050000D02*
X34920000Y-53480000D01*
X32380000Y-61050000D02*
X32380000Y-53480000D01*
X29840000Y-61050000D02*
X29840000Y-53480000D01*
X27300000Y-61050000D02*
X27300000Y-53480000D01*
X24760000Y-61050000D02*
X24760000Y-53480000D01*
X22220000Y-61050000D02*
X22220000Y-53480000D01*
X19680000Y-61050000D02*
X19680000Y-53480000D01*
X17140000Y-61050000D02*
X17140000Y-53480000D01*
D12*
X14600000Y-61050000D02*
X65400000Y-61050000D01*
D11*
X14540000Y-61050000D02*
X14540000Y-53480000D01*
%TO.C,J4*%
X68500000Y-30980000D02*
X69770000Y-30980000D01*
X68500000Y-32250000D02*
X68500000Y-30980000D01*
D12*
X69450000Y-31930000D02*
X69450000Y-32570000D01*
X69450000Y-31930000D02*
X71270000Y-31930000D01*
X69450000Y-32570000D02*
X71270000Y-32570000D01*
X69450000Y-34470000D02*
X69450000Y-35110000D01*
X69450000Y-34470000D02*
X71270000Y-34470000D01*
X69450000Y-35110000D02*
X71270000Y-35110000D01*
X69450000Y-37010000D02*
X69450000Y-37650000D01*
X69450000Y-37010000D02*
X71270000Y-37010000D01*
X69450000Y-37650000D02*
X71270000Y-37650000D01*
D11*
X70847358Y-34360000D02*
X71160000Y-34360000D01*
X70847358Y-35220000D02*
X71160000Y-35220000D01*
X70847358Y-36900000D02*
X71160000Y-36900000D01*
X70847358Y-37760000D02*
X71160000Y-37760000D01*
X70930000Y-31820000D02*
X71160000Y-31820000D01*
X70930000Y-32680000D02*
X71160000Y-32680000D01*
X71160000Y-33520000D02*
X73920000Y-33520000D01*
X71160000Y-36060000D02*
X73920000Y-36060000D01*
D12*
X71270000Y-31615000D02*
X71905000Y-30980000D01*
X71270000Y-38600000D02*
X71270000Y-31615000D01*
X71905000Y-30980000D02*
X73810000Y-30980000D01*
X73810000Y-30980000D02*
X73810000Y-38600000D01*
X73810000Y-31930000D02*
X79810000Y-31930000D01*
X73810000Y-32570000D02*
X79810000Y-32570000D01*
X73810000Y-34470000D02*
X79810000Y-34470000D01*
X73810000Y-35110000D02*
X79810000Y-35110000D01*
X73810000Y-37010000D02*
X79810000Y-37010000D01*
X73810000Y-37650000D02*
X79810000Y-37650000D01*
X73810000Y-38600000D02*
X71270000Y-38600000D01*
D11*
X73920000Y-34360000D02*
X79920000Y-34360000D01*
X73920000Y-36900000D02*
X79920000Y-36900000D01*
D12*
X79810000Y-31930000D02*
X79810000Y-32570000D01*
X79810000Y-34470000D02*
X79810000Y-35110000D01*
X79810000Y-37010000D02*
X79810000Y-37650000D01*
D11*
X79920000Y-34360000D02*
X79920000Y-35220000D01*
X79920000Y-35220000D02*
X73920000Y-35220000D01*
X79920000Y-36900000D02*
X79920000Y-37760000D01*
X79920000Y-37760000D02*
X73920000Y-37760000D01*
X71160000Y-30870000D02*
X73920000Y-30870000D01*
X73920000Y-38710000D01*
X71160000Y-38710000D01*
X71160000Y-30870000D01*
X73920000Y-31820000D02*
X79920000Y-31820000D01*
X79920000Y-32680000D01*
X73920000Y-32680000D01*
X73920000Y-31820000D01*
G36*
X73920000Y-31820000D02*
G01*
X79920000Y-31820000D01*
X79920000Y-32680000D01*
X73920000Y-32680000D01*
X73920000Y-31820000D01*
G37*
%TO.C,J1*%
X64560000Y5920000D02*
X63700000Y5920000D01*
X63700000Y5920000D02*
X63700000Y-80000D01*
X62020000Y5920000D02*
X61160000Y5920000D01*
X61160000Y5920000D02*
X61160000Y-80000D01*
X59480000Y5920000D02*
X58620000Y5920000D01*
X58620000Y5920000D02*
X58620000Y-80000D01*
X56940000Y5920000D02*
X56080000Y5920000D01*
X56080000Y5920000D02*
X56080000Y-80000D01*
X54400000Y5920000D02*
X53540000Y5920000D01*
X53540000Y5920000D02*
X53540000Y-80000D01*
X51860000Y5920000D02*
X51000000Y5920000D01*
X51000000Y5920000D02*
X51000000Y-80000D01*
X49320000Y5920000D02*
X48460000Y5920000D01*
X48460000Y5920000D02*
X48460000Y-80000D01*
X46780000Y5920000D02*
X45920000Y5920000D01*
X45920000Y5920000D02*
X45920000Y-80000D01*
X44240000Y5920000D02*
X43380000Y5920000D01*
X43380000Y5920000D02*
X43380000Y-80000D01*
X41700000Y5920000D02*
X40840000Y5920000D01*
X40840000Y5920000D02*
X40840000Y-80000D01*
X39160000Y5920000D02*
X38300000Y5920000D01*
X38300000Y5920000D02*
X38300000Y-80000D01*
X36620000Y5920000D02*
X35760000Y5920000D01*
X35760000Y5920000D02*
X35760000Y-80000D01*
X34080000Y5920000D02*
X33220000Y5920000D01*
X33220000Y5920000D02*
X33220000Y-80000D01*
X31540000Y5920000D02*
X30680000Y5920000D01*
X30680000Y5920000D02*
X30680000Y-80000D01*
X29000000Y5920000D02*
X28140000Y5920000D01*
X28140000Y5920000D02*
X28140000Y-80000D01*
X26460000Y5920000D02*
X25600000Y5920000D01*
X25600000Y5920000D02*
X25600000Y-80000D01*
X23920000Y5920000D02*
X23060000Y5920000D01*
X23060000Y5920000D02*
X23060000Y-80000D01*
X21380000Y5920000D02*
X20520000Y5920000D01*
X20520000Y5920000D02*
X20520000Y-80000D01*
X18840000Y5920000D02*
X17980000Y5920000D01*
X17980000Y5920000D02*
X17980000Y-80000D01*
X16300000Y5920000D02*
X15440000Y5920000D01*
X15440000Y5920000D02*
X15440000Y-80000D01*
X64560000Y-80000D02*
X64560000Y5920000D01*
X62020000Y-80000D02*
X62020000Y5920000D01*
X59480000Y-80000D02*
X59480000Y5920000D01*
X56940000Y-80000D02*
X56940000Y5920000D01*
X54400000Y-80000D02*
X54400000Y5920000D01*
X51860000Y-80000D02*
X51860000Y5920000D01*
X49320000Y-80000D02*
X49320000Y5920000D01*
X46780000Y-80000D02*
X46780000Y5920000D01*
X44240000Y-80000D02*
X44240000Y5920000D01*
X41700000Y-80000D02*
X41700000Y5920000D01*
X39160000Y-80000D02*
X39160000Y5920000D01*
X36620000Y-80000D02*
X36620000Y5920000D01*
X34080000Y-80000D02*
X34080000Y5920000D01*
X31540000Y-80000D02*
X31540000Y5920000D01*
X29000000Y-80000D02*
X29000000Y5920000D01*
X26460000Y-80000D02*
X26460000Y5920000D01*
X23920000Y-80000D02*
X23920000Y5920000D01*
X21380000Y-80000D02*
X21380000Y5920000D01*
X18840000Y-80000D02*
X18840000Y5920000D01*
X16300000Y-80000D02*
X16300000Y5920000D01*
X62860000Y-2840000D02*
X62860000Y-80000D01*
X60320000Y-2840000D02*
X60320000Y-80000D01*
X57780000Y-2840000D02*
X57780000Y-80000D01*
X55240000Y-2840000D02*
X55240000Y-80000D01*
X52700000Y-2840000D02*
X52700000Y-80000D01*
X50160000Y-2840000D02*
X50160000Y-80000D01*
X47620000Y-2840000D02*
X47620000Y-80000D01*
X45080000Y-2840000D02*
X45080000Y-80000D01*
X42540000Y-2840000D02*
X42540000Y-80000D01*
X40000000Y-2840000D02*
X40000000Y-80000D01*
X37460000Y-2840000D02*
X37460000Y-80000D01*
X34920000Y-2840000D02*
X34920000Y-80000D01*
X32380000Y-2840000D02*
X32380000Y-80000D01*
X29840000Y-2840000D02*
X29840000Y-80000D01*
X27300000Y-2840000D02*
X27300000Y-80000D01*
X24760000Y-2840000D02*
X24760000Y-80000D01*
X22220000Y-2840000D02*
X22220000Y-80000D01*
X19680000Y-2840000D02*
X19680000Y-80000D01*
X17140000Y-2840000D02*
X17140000Y-80000D01*
X64560000Y-3152642D02*
X64560000Y-2840000D01*
X63700000Y-3152642D02*
X63700000Y-2840000D01*
X62020000Y-3152642D02*
X62020000Y-2840000D01*
X61160000Y-3152642D02*
X61160000Y-2840000D01*
X59480000Y-3152642D02*
X59480000Y-2840000D01*
X58620000Y-3152642D02*
X58620000Y-2840000D01*
X56940000Y-3152642D02*
X56940000Y-2840000D01*
X56080000Y-3152642D02*
X56080000Y-2840000D01*
X54400000Y-3152642D02*
X54400000Y-2840000D01*
X53540000Y-3152642D02*
X53540000Y-2840000D01*
X51860000Y-3152642D02*
X51860000Y-2840000D01*
X51000000Y-3152642D02*
X51000000Y-2840000D01*
X49320000Y-3152642D02*
X49320000Y-2840000D01*
X48460000Y-3152642D02*
X48460000Y-2840000D01*
X46780000Y-3152642D02*
X46780000Y-2840000D01*
X45920000Y-3152642D02*
X45920000Y-2840000D01*
X44240000Y-3152642D02*
X44240000Y-2840000D01*
X43380000Y-3152642D02*
X43380000Y-2840000D01*
X41700000Y-3152642D02*
X41700000Y-2840000D01*
X40840000Y-3152642D02*
X40840000Y-2840000D01*
X39160000Y-3152642D02*
X39160000Y-2840000D01*
X38300000Y-3152642D02*
X38300000Y-2840000D01*
X36620000Y-3152642D02*
X36620000Y-2840000D01*
X35760000Y-3152642D02*
X35760000Y-2840000D01*
X34080000Y-3152642D02*
X34080000Y-2840000D01*
X33220000Y-3152642D02*
X33220000Y-2840000D01*
X31540000Y-3152642D02*
X31540000Y-2840000D01*
X30680000Y-3152642D02*
X30680000Y-2840000D01*
X29000000Y-3152642D02*
X29000000Y-2840000D01*
X28140000Y-3152642D02*
X28140000Y-2840000D01*
X26460000Y-3152642D02*
X26460000Y-2840000D01*
X25600000Y-3152642D02*
X25600000Y-2840000D01*
X23920000Y-3152642D02*
X23920000Y-2840000D01*
X23060000Y-3152642D02*
X23060000Y-2840000D01*
X21380000Y-3152642D02*
X21380000Y-2840000D01*
X20520000Y-3152642D02*
X20520000Y-2840000D01*
X18840000Y-3152642D02*
X18840000Y-2840000D01*
X17980000Y-3152642D02*
X17980000Y-2840000D01*
X16300000Y-3152642D02*
X16300000Y-2840000D01*
X15440000Y-3152642D02*
X15440000Y-2840000D01*
X64560000Y-5610000D02*
X64560000Y-5307358D01*
X63700000Y-5610000D02*
X63700000Y-5307358D01*
X62020000Y-5692642D02*
X62020000Y-5307358D01*
X61160000Y-5692642D02*
X61160000Y-5307358D01*
X59480000Y-5692642D02*
X59480000Y-5307358D01*
X58620000Y-5692642D02*
X58620000Y-5307358D01*
X56940000Y-5692642D02*
X56940000Y-5307358D01*
X56080000Y-5692642D02*
X56080000Y-5307358D01*
X54400000Y-5692642D02*
X54400000Y-5307358D01*
X53540000Y-5692642D02*
X53540000Y-5307358D01*
X51860000Y-5692642D02*
X51860000Y-5307358D01*
X51000000Y-5692642D02*
X51000000Y-5307358D01*
X49320000Y-5692642D02*
X49320000Y-5307358D01*
X48460000Y-5692642D02*
X48460000Y-5307358D01*
X46780000Y-5692642D02*
X46780000Y-5307358D01*
X45920000Y-5692642D02*
X45920000Y-5307358D01*
X44240000Y-5692642D02*
X44240000Y-5307358D01*
X43380000Y-5692642D02*
X43380000Y-5307358D01*
X41700000Y-5692642D02*
X41700000Y-5307358D01*
X40840000Y-5692642D02*
X40840000Y-5307358D01*
X39160000Y-5692642D02*
X39160000Y-5307358D01*
X38300000Y-5692642D02*
X38300000Y-5307358D01*
X36620000Y-5692642D02*
X36620000Y-5307358D01*
X35760000Y-5692642D02*
X35760000Y-5307358D01*
X34080000Y-5692642D02*
X34080000Y-5307358D01*
X33220000Y-5692642D02*
X33220000Y-5307358D01*
X31540000Y-5692642D02*
X31540000Y-5307358D01*
X30680000Y-5692642D02*
X30680000Y-5307358D01*
X29000000Y-5692642D02*
X29000000Y-5307358D01*
X28140000Y-5692642D02*
X28140000Y-5307358D01*
X26460000Y-5692642D02*
X26460000Y-5307358D01*
X25600000Y-5692642D02*
X25600000Y-5307358D01*
X23920000Y-5692642D02*
X23920000Y-5307358D01*
X23060000Y-5692642D02*
X23060000Y-5307358D01*
X21380000Y-5692642D02*
X21380000Y-5307358D01*
X20520000Y-5692642D02*
X20520000Y-5307358D01*
X18840000Y-5692642D02*
X18840000Y-5307358D01*
X17980000Y-5692642D02*
X17980000Y-5307358D01*
X16300000Y-5692642D02*
X16300000Y-5307358D01*
X15440000Y-5692642D02*
X15440000Y-5307358D01*
D12*
X64450000Y-7090000D02*
X64450000Y-2730000D01*
X64450000Y-7090000D02*
X63810000Y-7090000D01*
X63810000Y-7090000D02*
X63810000Y-2730000D01*
X61910000Y-7090000D02*
X61910000Y-2730000D01*
X61910000Y-7090000D02*
X61270000Y-7090000D01*
X61270000Y-7090000D02*
X61270000Y-2730000D01*
X59370000Y-7090000D02*
X59370000Y-2730000D01*
X59370000Y-7090000D02*
X58730000Y-7090000D01*
X58730000Y-7090000D02*
X58730000Y-2730000D01*
X56830000Y-7090000D02*
X56830000Y-2730000D01*
X56830000Y-7090000D02*
X56190000Y-7090000D01*
X56190000Y-7090000D02*
X56190000Y-2730000D01*
X54290000Y-7090000D02*
X54290000Y-2730000D01*
X54290000Y-7090000D02*
X53650000Y-7090000D01*
X53650000Y-7090000D02*
X53650000Y-2730000D01*
X51750000Y-7090000D02*
X51750000Y-2730000D01*
X51750000Y-7090000D02*
X51110000Y-7090000D01*
X51110000Y-7090000D02*
X51110000Y-2730000D01*
X49210000Y-7090000D02*
X49210000Y-2730000D01*
X49210000Y-7090000D02*
X48570000Y-7090000D01*
X48570000Y-7090000D02*
X48570000Y-2730000D01*
X46670000Y-7090000D02*
X46670000Y-2730000D01*
X46670000Y-7090000D02*
X46030000Y-7090000D01*
X46030000Y-7090000D02*
X46030000Y-2730000D01*
X44130000Y-7090000D02*
X44130000Y-2730000D01*
X44130000Y-7090000D02*
X43490000Y-7090000D01*
X43490000Y-7090000D02*
X43490000Y-2730000D01*
X41590000Y-7090000D02*
X41590000Y-2730000D01*
X41590000Y-7090000D02*
X40950000Y-7090000D01*
X40950000Y-7090000D02*
X40950000Y-2730000D01*
X39050000Y-7090000D02*
X39050000Y-2730000D01*
X39050000Y-7090000D02*
X38410000Y-7090000D01*
X38410000Y-7090000D02*
X38410000Y-2730000D01*
X36510000Y-7090000D02*
X36510000Y-2730000D01*
X36510000Y-7090000D02*
X35870000Y-7090000D01*
X35870000Y-7090000D02*
X35870000Y-2730000D01*
X33970000Y-7090000D02*
X33970000Y-2730000D01*
X33970000Y-7090000D02*
X33330000Y-7090000D01*
X33330000Y-7090000D02*
X33330000Y-2730000D01*
X31430000Y-7090000D02*
X31430000Y-2730000D01*
X31430000Y-7090000D02*
X30790000Y-7090000D01*
X30790000Y-7090000D02*
X30790000Y-2730000D01*
X28890000Y-7090000D02*
X28890000Y-2730000D01*
X28890000Y-7090000D02*
X28250000Y-7090000D01*
X28250000Y-7090000D02*
X28250000Y-2730000D01*
X26350000Y-7090000D02*
X26350000Y-2730000D01*
X26350000Y-7090000D02*
X25710000Y-7090000D01*
X25710000Y-7090000D02*
X25710000Y-2730000D01*
X23810000Y-7090000D02*
X23810000Y-2730000D01*
X23810000Y-7090000D02*
X23170000Y-7090000D01*
X23170000Y-7090000D02*
X23170000Y-2730000D01*
X21270000Y-7090000D02*
X21270000Y-2730000D01*
X21270000Y-7090000D02*
X20630000Y-7090000D01*
X20630000Y-7090000D02*
X20630000Y-2730000D01*
X18730000Y-7090000D02*
X18730000Y-2730000D01*
X18730000Y-7090000D02*
X18090000Y-7090000D01*
X18090000Y-7090000D02*
X18090000Y-2730000D01*
X16190000Y-7090000D02*
X16190000Y-2730000D01*
X16190000Y-7090000D02*
X15550000Y-7090000D01*
X15550000Y-7090000D02*
X15550000Y-2730000D01*
D11*
X65400000Y-8040000D02*
X65400000Y-6770000D01*
X64130000Y-8040000D02*
X65400000Y-8040000D01*
X65510000Y-80000D02*
X14490000Y-80000D01*
X14490000Y-2840000D01*
X65510000Y-2840000D01*
X65510000Y-80000D01*
%TO.C,J3*%
X68515000Y-18980000D02*
X69785000Y-18980000D01*
X68515000Y-20250000D02*
X68515000Y-18980000D01*
D12*
X69465000Y-19930000D02*
X69465000Y-20570000D01*
X69465000Y-19930000D02*
X71285000Y-19930000D01*
X69465000Y-20570000D02*
X71285000Y-20570000D01*
X69465000Y-22470000D02*
X69465000Y-23110000D01*
X69465000Y-22470000D02*
X71285000Y-22470000D01*
X69465000Y-23110000D02*
X71285000Y-23110000D01*
X69465000Y-25010000D02*
X69465000Y-25650000D01*
X69465000Y-25010000D02*
X71285000Y-25010000D01*
X69465000Y-25650000D02*
X71285000Y-25650000D01*
D11*
X70862358Y-22360000D02*
X71175000Y-22360000D01*
X70862358Y-23220000D02*
X71175000Y-23220000D01*
X70862358Y-24900000D02*
X71175000Y-24900000D01*
X70862358Y-25760000D02*
X71175000Y-25760000D01*
X70945000Y-19820000D02*
X71175000Y-19820000D01*
X70945000Y-20680000D02*
X71175000Y-20680000D01*
X71175000Y-21520000D02*
X73935000Y-21520000D01*
X71175000Y-24060000D02*
X73935000Y-24060000D01*
D12*
X71285000Y-19615000D02*
X71920000Y-18980000D01*
X71285000Y-26600000D02*
X71285000Y-19615000D01*
X71920000Y-18980000D02*
X73825000Y-18980000D01*
X73825000Y-18980000D02*
X73825000Y-26600000D01*
X73825000Y-19930000D02*
X79825000Y-19930000D01*
X73825000Y-20570000D02*
X79825000Y-20570000D01*
X73825000Y-22470000D02*
X79825000Y-22470000D01*
X73825000Y-23110000D02*
X79825000Y-23110000D01*
X73825000Y-25010000D02*
X79825000Y-25010000D01*
X73825000Y-25650000D02*
X79825000Y-25650000D01*
X73825000Y-26600000D02*
X71285000Y-26600000D01*
D11*
X73935000Y-22360000D02*
X79935000Y-22360000D01*
X73935000Y-24900000D02*
X79935000Y-24900000D01*
D12*
X79825000Y-19930000D02*
X79825000Y-20570000D01*
X79825000Y-22470000D02*
X79825000Y-23110000D01*
X79825000Y-25010000D02*
X79825000Y-25650000D01*
D11*
X79935000Y-22360000D02*
X79935000Y-23220000D01*
X79935000Y-23220000D02*
X73935000Y-23220000D01*
X79935000Y-24900000D02*
X79935000Y-25760000D01*
X79935000Y-25760000D02*
X73935000Y-25760000D01*
X71175000Y-18870000D02*
X73935000Y-18870000D01*
X73935000Y-26710000D01*
X71175000Y-26710000D01*
X71175000Y-18870000D01*
X73935000Y-19820000D02*
X79935000Y-19820000D01*
X79935000Y-20680000D01*
X73935000Y-20680000D01*
X73935000Y-19820000D01*
G36*
X73935000Y-19820000D02*
G01*
X79935000Y-19820000D01*
X79935000Y-20680000D01*
X73935000Y-20680000D01*
X73935000Y-19820000D01*
G37*
%TD*%
M02*
