%TF.GenerationSoftware,KiCad,Pcbnew,9.0.7*%
%TF.CreationDate,2026-05-24T15:35:15+02:00*%
%TF.ProjectId,BarePi_LCD16x2,42617265-5069-45f4-9c43-44313678322e,rev?*%
%TF.SameCoordinates,Original*%
%TF.FileFunction,Other,User*%
%FSLAX46Y46*%
G04 Gerber Fmt 4.6, Leading zero omitted, Abs format (unit mm)*
G04 Created by KiCad (PCBNEW 9.0.7) date 2026-05-24 15:35:15*
%MOMM*%
%LPD*%
G01*
G04 APERTURE LIST*
%ADD10C,0.050000*%
G04 APERTURE END LIST*
D10*
%TO.C,U2*%
X0Y-10500000D02*
X0Y-16000000D01*
X0Y-10500000D02*
X80000000Y-10500000D01*
X0Y-16000000D02*
X80000000Y-16000000D01*
X80000000Y-10500000D02*
X80000000Y-16000000D01*
%TO.C,SW2*%
X66250000Y-57250000D02*
X66250000Y-57000000D01*
X66500000Y-57250000D02*
X66250000Y-57250000D01*
X73500000Y-57250000D02*
X66500000Y-57250000D01*
X73500000Y-57250000D02*
X73750000Y-57250000D01*
X73750000Y-57250000D02*
X73750000Y-57000000D01*
X66250000Y-57000000D02*
X66250000Y-48000000D01*
X66250000Y-48000000D02*
X66250000Y-47750000D01*
X73750000Y-48000000D02*
X73750000Y-57000000D01*
X73750000Y-48000000D02*
X73750000Y-47750000D01*
X66250000Y-47750000D02*
X66500000Y-47750000D01*
X66500000Y-47750000D02*
X73500000Y-47750000D01*
X73750000Y-47750000D02*
X73500000Y-47750000D01*
%TO.C,SW1*%
X6250000Y-57250000D02*
X6250000Y-57000000D01*
X6500000Y-57250000D02*
X6250000Y-57250000D01*
X13500000Y-57250000D02*
X6500000Y-57250000D01*
X13500000Y-57250000D02*
X13750000Y-57250000D01*
X13750000Y-57250000D02*
X13750000Y-57000000D01*
X6250000Y-57000000D02*
X6250000Y-48000000D01*
X6250000Y-48000000D02*
X6250000Y-47750000D01*
X13750000Y-48000000D02*
X13750000Y-57000000D01*
X13750000Y-48000000D02*
X13750000Y-47750000D01*
X6250000Y-47750000D02*
X6500000Y-47750000D01*
X6500000Y-47750000D02*
X13500000Y-47750000D01*
X13750000Y-47750000D02*
X13500000Y-47750000D01*
%TO.C,D2*%
X69465000Y-515000D02*
X66965000Y-515000D01*
X66965000Y-10235000D01*
X69465000Y-10235000D01*
X69465000Y-515000D01*
%TO.C,D1*%
X69985000Y-10295000D02*
X72485000Y-10295000D01*
X72485000Y-575000D01*
X69985000Y-575000D01*
X69985000Y-10295000D01*
%TO.C,J2*%
X65880000Y-47680000D02*
X65880000Y-61050000D01*
X14080000Y-47680000D02*
X65880000Y-47680000D01*
X65880000Y-61050000D02*
X14080000Y-61050000D01*
X14080000Y-61050000D02*
X14080000Y-47680000D01*
%TO.C,J4*%
X68000000Y-30480000D02*
X80310000Y-30480000D01*
X80310000Y-39100000D01*
X68000000Y-39100000D01*
X68000000Y-30480000D01*
%TO.C,REF\u002A\u002A*%
X6000000Y-57500000D02*
G75*
G02*
X1000000Y-57500000I-2500000J0D01*
G01*
X1000000Y-57500000D02*
G75*
G02*
X6000000Y-57500000I2500000J0D01*
G01*
%TO.C,J1*%
X65900000Y-80000D02*
X14100000Y-80000D01*
X14100000Y-8540000D01*
X65900000Y-8540000D01*
X65900000Y-80000D01*
%TO.C,REF\u002A\u002A*%
X6000000Y-3500000D02*
G75*
G02*
X1000000Y-3500000I-2500000J0D01*
G01*
X1000000Y-3500000D02*
G75*
G02*
X6000000Y-3500000I2500000J0D01*
G01*
X79000000Y-3500000D02*
G75*
G02*
X74000000Y-3500000I-2500000J0D01*
G01*
X74000000Y-3500000D02*
G75*
G02*
X79000000Y-3500000I2500000J0D01*
G01*
X79000000Y-57500000D02*
G75*
G02*
X74000000Y-57500000I-2500000J0D01*
G01*
X74000000Y-57500000D02*
G75*
G02*
X79000000Y-57500000I2500000J0D01*
G01*
%TO.C,J3*%
X68015000Y-18480000D02*
X80325000Y-18480000D01*
X80325000Y-27100000D01*
X68015000Y-27100000D01*
X68015000Y-18480000D01*
%TD*%
M02*
