%TF.GenerationSoftware,KiCad,Pcbnew,9.0.7*%
%TF.CreationDate,2026-05-24T15:35:15+02:00*%
%TF.ProjectId,BarePi_LCD16x2,42617265-5069-45f4-9c43-44313678322e,rev?*%
%TF.SameCoordinates,Original*%
%TF.FileFunction,AssemblyDrawing,Bot*%
%FSLAX46Y46*%
G04 Gerber Fmt 4.6, Leading zero omitted, Abs format (unit mm)*
G04 Created by KiCad (PCBNEW 9.0.7) date 2026-05-24 15:35:15*
%MOMM*%
%LPD*%
G01*
G04 APERTURE LIST*
%ADD10C,0.100000*%
%ADD11C,0.120000*%
G04 APERTURE END LIST*
%TO.C,R1*%
D10*
X46445000Y-22895000D02*
X48045000Y-22895000D01*
X48045000Y-26095000D01*
X46445000Y-26095000D01*
X46445000Y-22895000D01*
D11*
%TO.C,U1*%
X46095000Y-35610000D02*
X46095000Y-31490000D01*
X46015000Y-35610000D02*
X46095000Y-35610000D01*
X35975000Y-35610000D02*
X36055000Y-35610000D01*
X46095000Y-31490000D02*
X46015000Y-31490000D01*
X36055000Y-31490000D02*
X35975000Y-31490000D01*
X35975000Y-31490000D02*
X35975000Y-35610000D01*
X46355000Y-36450000D02*
X46025000Y-36210000D01*
X46355000Y-35970000D01*
X46355000Y-36450000D01*
G36*
X46355000Y-36450000D02*
G01*
X46025000Y-36210000D01*
X46355000Y-35970000D01*
X46355000Y-36450000D01*
G37*
D10*
X45985000Y-34525000D02*
X45010000Y-35500000D01*
X36085000Y-35500000D01*
X36085000Y-31600000D01*
X45985000Y-31600000D01*
X45985000Y-34525000D01*
%TO.C,C4*%
X71605000Y-11405000D02*
X68405000Y-11405000D01*
X68405000Y-13905000D01*
X71605000Y-13905000D01*
X71605000Y-11405000D01*
%TO.C,C3*%
X68095000Y-15345000D02*
X64895000Y-15345000D01*
X64895000Y-17845000D01*
X68095000Y-17845000D01*
X68095000Y-15345000D01*
%TO.C,C2*%
X52380000Y-27730000D02*
X49880000Y-27730000D01*
X49880000Y-24530000D01*
X52380000Y-24530000D01*
X52380000Y-27730000D01*
%TO.C,C1*%
X54805000Y-27900000D02*
X53605000Y-27900000D01*
X53605000Y-27900000D02*
X53605000Y-24700000D01*
X55205000Y-27500000D02*
X54805000Y-27900000D01*
X55205000Y-24700000D02*
X55205000Y-27500000D01*
X53605000Y-24700000D02*
X55205000Y-24700000D01*
%TD*%
M02*
