%TF.GenerationSoftware,KiCad,Pcbnew,9.0.7*%
%TF.CreationDate,2026-05-06T21:02:05+02:00*%
%TF.ProjectId,BarePi_DispHDMI,42617265-5069-45f4-9469-737048444d49,rev?*%
%TF.SameCoordinates,Original*%
%TF.FileFunction,Copper,L1,Top*%
%TF.FilePolarity,Positive*%
%FSLAX46Y46*%
G04 Gerber Fmt 4.6, Leading zero omitted, Abs format (unit mm)*
G04 Created by KiCad (PCBNEW 9.0.7) date 2026-05-06 21:02:05*
%MOMM*%
%LPD*%
G01*
G04 APERTURE LIST*
G04 Aperture macros list*
%AMRoundRect*
0 Rectangle with rounded corners*
0 $1 Rounding radius*
0 $2 $3 $4 $5 $6 $7 $8 $9 X,Y pos of 4 corners*
0 Add a 4 corners polygon primitive as box body*
4,1,4,$2,$3,$4,$5,$6,$7,$8,$9,$2,$3,0*
0 Add four circle primitives for the rounded corners*
1,1,$1+$1,$2,$3*
1,1,$1+$1,$4,$5*
1,1,$1+$1,$6,$7*
1,1,$1+$1,$8,$9*
0 Add four rect primitives between the rounded corners*
20,1,$1+$1,$2,$3,$4,$5,0*
20,1,$1+$1,$4,$5,$6,$7,0*
20,1,$1+$1,$6,$7,$8,$9,0*
20,1,$1+$1,$8,$9,$2,$3,0*%
%AMOutline4P*
0 Free polygon, 4 corners , with rotation*
0 The origin of the aperture is its center*
0 number of corners: always 4*
0 $1 to $8 corner X, Y*
0 $9 Rotation angle, in degrees counterclockwise*
0 create outline with 4 corners*
4,1,4,$1,$2,$3,$4,$5,$6,$7,$8,$1,$2,$9*%
G04 Aperture macros list end*
%ADD10C,0.200000*%
%TA.AperFunction,SMDPad,CuDef*%
%ADD11RoundRect,0.250000X-0.450000X0.350000X-0.450000X-0.350000X0.450000X-0.350000X0.450000X0.350000X0*%
%TD*%
%TA.AperFunction,SMDPad,CuDef*%
%ADD12RoundRect,0.250000X0.450000X-0.350000X0.450000X0.350000X-0.450000X0.350000X-0.450000X-0.350000X0*%
%TD*%
%TA.AperFunction,SMDPad,CuDef*%
%ADD13R,0.300000X2.600000*%
%TD*%
%TA.AperFunction,ComponentPad*%
%ADD14O,2.000000X4.000000*%
%TD*%
%TA.AperFunction,ComponentPad*%
%ADD15O,2.000000X3.000000*%
%TD*%
%TA.AperFunction,ComponentPad*%
%ADD16Outline4P,-1.500000X-0.800000X1.500000X-0.800000X1.500000X0.800000X-1.500000X0.800000X270.000000*%
%TD*%
%TA.AperFunction,ComponentPad*%
%ADD17O,1.600000X3.000000*%
%TD*%
%TA.AperFunction,Conductor*%
%ADD18C,0.600000*%
%TD*%
%TA.AperFunction,Conductor*%
%ADD19C,0.200000*%
%TD*%
%TA.AperFunction,Conductor*%
%ADD20C,0.330000*%
%TD*%
G04 APERTURE END LIST*
D10*
G36*
X2237500Y-7315969D02*
G01*
X1192140Y-7315969D01*
X1192140Y-7687447D01*
X982091Y-7687447D01*
X982091Y-6692616D01*
X1192140Y-6692616D01*
X1192140Y-7063254D01*
X2237500Y-7063254D01*
X2237500Y-7315969D01*
G37*
G36*
X1737293Y-5405420D02*
G01*
X1844462Y-5426569D01*
X1937752Y-5460129D01*
X2019128Y-5505492D01*
X2090114Y-5562763D01*
X2151018Y-5631835D01*
X2198438Y-5709074D01*
X2232969Y-5795629D01*
X2254440Y-5893087D01*
X2261924Y-6003393D01*
X2254434Y-6115259D01*
X2232981Y-6213773D01*
X2198555Y-6300942D01*
X2151389Y-6378411D01*
X2090954Y-6447380D01*
X2020220Y-6504788D01*
X1939426Y-6550168D01*
X1847107Y-6583678D01*
X1741366Y-6604758D01*
X1619947Y-6612168D01*
X1492745Y-6605110D01*
X1386405Y-6585440D01*
X1297699Y-6554924D01*
X1206726Y-6504542D01*
X1125431Y-6438450D01*
X1078129Y-6386625D01*
X1040666Y-6332770D01*
X1012240Y-6276563D01*
X985290Y-6197141D01*
X968438Y-6107728D01*
X962552Y-6006751D01*
X962723Y-6004232D01*
X1177486Y-6004232D01*
X1184608Y-6080454D01*
X1205069Y-6146628D01*
X1238446Y-6204729D01*
X1285563Y-6256108D01*
X1341539Y-6295309D01*
X1412204Y-6325151D01*
X1500822Y-6344641D01*
X1611398Y-6351744D01*
X1719721Y-6344568D01*
X1807693Y-6324747D01*
X1878939Y-6294143D01*
X1936394Y-6253589D01*
X1985074Y-6200771D01*
X2019186Y-6142483D01*
X2039863Y-6077553D01*
X2046990Y-6004232D01*
X2039888Y-5930854D01*
X2019324Y-5866144D01*
X1985467Y-5808316D01*
X1937233Y-5756173D01*
X1880347Y-5716385D01*
X1808786Y-5686141D01*
X1719313Y-5666418D01*
X1607964Y-5659239D01*
X1497708Y-5666270D01*
X1409585Y-5685533D01*
X1339543Y-5714975D01*
X1284265Y-5753578D01*
X1237817Y-5804255D01*
X1204832Y-5861892D01*
X1184558Y-5927878D01*
X1177486Y-6004232D01*
X962723Y-6004232D01*
X970047Y-5896165D01*
X991561Y-5798347D01*
X1026176Y-5711368D01*
X1073730Y-5633654D01*
X1134819Y-5564061D01*
X1205982Y-5506372D01*
X1287700Y-5460662D01*
X1381529Y-5426826D01*
X1489475Y-5405490D01*
X1613917Y-5397976D01*
X1737293Y-5405420D01*
G37*
G36*
X1444287Y-4246651D02*
G01*
X1508403Y-4260937D01*
X1562473Y-4283389D01*
X1612257Y-4314547D01*
X1653172Y-4349945D01*
X1686198Y-4389711D01*
X1724062Y-4455898D01*
X1745655Y-4520839D01*
X1758432Y-4621501D01*
X1763668Y-4783018D01*
X1763668Y-4947806D01*
X2237500Y-4947806D01*
X2237500Y-5200521D01*
X982091Y-5200521D01*
X982091Y-4825684D01*
X1192140Y-4825684D01*
X1192140Y-4947806D01*
X1553620Y-4947806D01*
X1553620Y-4809503D01*
X1547252Y-4672392D01*
X1533622Y-4609682D01*
X1507777Y-4564470D01*
X1471111Y-4530685D01*
X1425642Y-4509391D01*
X1372040Y-4502062D01*
X1327212Y-4506784D01*
X1289478Y-4520246D01*
X1257322Y-4542210D01*
X1230999Y-4571293D01*
X1212282Y-4604858D01*
X1200841Y-4643800D01*
X1194923Y-4700371D01*
X1192140Y-4825684D01*
X982091Y-4825684D01*
X982091Y-4794925D01*
X988226Y-4584112D01*
X1000944Y-4494354D01*
X1026892Y-4426990D01*
X1067355Y-4367312D01*
X1123828Y-4314148D01*
X1190387Y-4274957D01*
X1270692Y-4250336D01*
X1368148Y-4241562D01*
X1444287Y-4246651D01*
G37*
G36*
X28254529Y-5097426D02*
G01*
X28309896Y-5110534D01*
X28364968Y-5132762D01*
X28415982Y-5162904D01*
X28458853Y-5198965D01*
X28494417Y-5241221D01*
X28521842Y-5289093D01*
X28541850Y-5345109D01*
X28553951Y-5410741D01*
X28558814Y-5495562D01*
X28562500Y-5715587D01*
X28562500Y-6141638D01*
X27307091Y-6141638D01*
X27307091Y-5743674D01*
X27517140Y-5743674D01*
X27517140Y-5888846D01*
X27805347Y-5888846D01*
X27805347Y-5723219D01*
X27804451Y-5684751D01*
X28015396Y-5684751D01*
X28015396Y-5888846D01*
X28352451Y-5888846D01*
X28352451Y-5654907D01*
X28349883Y-5530482D01*
X28344742Y-5481571D01*
X28326752Y-5430062D01*
X28294443Y-5389828D01*
X28265879Y-5370652D01*
X28230773Y-5358635D01*
X28187358Y-5354336D01*
X28133936Y-5361456D01*
X28091111Y-5381661D01*
X28057366Y-5414434D01*
X28033485Y-5460658D01*
X28021294Y-5527208D01*
X28015396Y-5684751D01*
X27804451Y-5684751D01*
X27801072Y-5539579D01*
X27785473Y-5480205D01*
X27756498Y-5437608D01*
X27729773Y-5417263D01*
X27697812Y-5404819D01*
X27659106Y-5400437D01*
X27605664Y-5408826D01*
X27565225Y-5432494D01*
X27545045Y-5456079D01*
X27530289Y-5487156D01*
X27521414Y-5527672D01*
X27517140Y-5743674D01*
X27307091Y-5743674D01*
X27307091Y-5641245D01*
X27310761Y-5502131D01*
X27319532Y-5419671D01*
X27338841Y-5350007D01*
X27371281Y-5289001D01*
X27416591Y-5236682D01*
X27476077Y-5192983D01*
X27521036Y-5171762D01*
X27569644Y-5158909D01*
X27622775Y-5154515D01*
X27680157Y-5159825D01*
X27733745Y-5175543D01*
X27784510Y-5201913D01*
X27829476Y-5237263D01*
X27866070Y-5279830D01*
X27894877Y-5330446D01*
X27923430Y-5258055D01*
X27961439Y-5200197D01*
X28008908Y-5154591D01*
X28065253Y-5120635D01*
X28127806Y-5100127D01*
X28198272Y-5093073D01*
X28254529Y-5097426D01*
G37*
G36*
X28562500Y-4330653D02*
G01*
X28492585Y-4353704D01*
X28464802Y-4362252D01*
X28518937Y-4426868D01*
X28556393Y-4493762D01*
X28579217Y-4565758D01*
X28586924Y-4643208D01*
X28581618Y-4712902D01*
X28566655Y-4771733D01*
X28542919Y-4821593D01*
X28510522Y-4863942D01*
X28469763Y-4899262D01*
X28424648Y-4924188D01*
X28374273Y-4939373D01*
X28317341Y-4944619D01*
X28266886Y-4940399D01*
X28221265Y-4928110D01*
X28179573Y-4907906D01*
X28142491Y-4880262D01*
X28111749Y-4846212D01*
X28086913Y-4805019D01*
X28058755Y-4730937D01*
X28030661Y-4614204D01*
X27996752Y-4459380D01*
X27971432Y-4381105D01*
X28127747Y-4381105D01*
X28164613Y-4527116D01*
X28188552Y-4617859D01*
X28206668Y-4657786D01*
X28231719Y-4684464D01*
X28259598Y-4699631D01*
X28291543Y-4704726D01*
X28323777Y-4700559D01*
X28352635Y-4688242D01*
X28379088Y-4667174D01*
X28399383Y-4640193D01*
X28411671Y-4608749D01*
X28415954Y-4571538D01*
X28411338Y-4529613D01*
X28397328Y-4488622D01*
X28373059Y-4447737D01*
X28336306Y-4411265D01*
X28293298Y-4390493D01*
X28255471Y-4384064D01*
X28175756Y-4381105D01*
X28127747Y-4381105D01*
X27971432Y-4381105D01*
X27946855Y-4381105D01*
X27900692Y-4385588D01*
X27868064Y-4397420D01*
X27845418Y-4415299D01*
X27830339Y-4440317D01*
X27819466Y-4481090D01*
X27815116Y-4544213D01*
X27822265Y-4603600D01*
X27841144Y-4644124D01*
X27874277Y-4674809D01*
X27932353Y-4702131D01*
X27893274Y-4919889D01*
X27808116Y-4887925D01*
X27742931Y-4845723D01*
X27694140Y-4793570D01*
X27667980Y-4748056D01*
X27647729Y-4690325D01*
X27634376Y-4617716D01*
X27629492Y-4527116D01*
X27634725Y-4419573D01*
X27648332Y-4342169D01*
X27667731Y-4288063D01*
X27697002Y-4238774D01*
X27729333Y-4202650D01*
X27764818Y-4177467D01*
X27806220Y-4161834D01*
X27874665Y-4150136D01*
X27980896Y-4145410D01*
X28262691Y-4147929D01*
X28375016Y-4144504D01*
X28440073Y-4136404D01*
X28497533Y-4120466D01*
X28562500Y-4093280D01*
X28562500Y-4330653D01*
G37*
G36*
X28562500Y-3679670D02*
G01*
X28562500Y-3919638D01*
X27653916Y-3919638D01*
X27653916Y-3696767D01*
X27782831Y-3696767D01*
X27701262Y-3637889D01*
X27660480Y-3593879D01*
X27637334Y-3545405D01*
X27629492Y-3490153D01*
X27634414Y-3436692D01*
X27649271Y-3384286D01*
X27674677Y-3332158D01*
X27883657Y-3406423D01*
X27853422Y-3467285D01*
X27844426Y-3519156D01*
X27851636Y-3566324D01*
X27872437Y-3604565D01*
X27908179Y-3633843D01*
X27973569Y-3659596D01*
X28066513Y-3673179D01*
X28280094Y-3679670D01*
X28562500Y-3679670D01*
G37*
G36*
X28176596Y-3053263D02*
G01*
X28245416Y-3044937D01*
X28299549Y-3025225D01*
X28342147Y-2995179D01*
X28375079Y-2955036D01*
X28394597Y-2909533D01*
X28401299Y-2856877D01*
X28393501Y-2804101D01*
X28371227Y-2762080D01*
X28334188Y-2729684D01*
X28274293Y-2703996D01*
X28313372Y-2464943D01*
X28397602Y-2502856D01*
X28464629Y-2551345D01*
X28517009Y-2610573D01*
X28554866Y-2680002D01*
X28578546Y-2761995D01*
X28586924Y-2859472D01*
X28579889Y-2954329D01*
X28560049Y-3034546D01*
X28528608Y-3102625D01*
X28485791Y-3160519D01*
X28430837Y-3209502D01*
X28366634Y-3247568D01*
X28293647Y-3275523D01*
X28210391Y-3293042D01*
X28115077Y-3299185D01*
X28001308Y-3290904D01*
X27905957Y-3267652D01*
X27825847Y-3230997D01*
X27758483Y-3181338D01*
X27701809Y-3118190D01*
X27661996Y-3048512D01*
X27637827Y-2970915D01*
X27629492Y-2883362D01*
X27630821Y-2868784D01*
X27815116Y-2868784D01*
X27821671Y-2918600D01*
X27840734Y-2961276D01*
X27872971Y-2998614D01*
X27914279Y-3026098D01*
X27965704Y-3043216D01*
X28030050Y-3048989D01*
X28030050Y-2690334D01*
X27961663Y-2698297D01*
X27909493Y-2716684D01*
X27869918Y-2744143D01*
X27839231Y-2781144D01*
X27821237Y-2822187D01*
X27815116Y-2868784D01*
X27630821Y-2868784D01*
X27638531Y-2784204D01*
X27664282Y-2699663D01*
X27705890Y-2626917D01*
X27764131Y-2564014D01*
X27818393Y-2525168D01*
X27884436Y-2493739D01*
X27964381Y-2470250D01*
X28060791Y-2455825D01*
X28176596Y-2452120D01*
X28176596Y-3053263D01*
G37*
G36*
X27769287Y-1301483D02*
G01*
X27833403Y-1315769D01*
X27887473Y-1338220D01*
X27937257Y-1369378D01*
X27978172Y-1404777D01*
X28011198Y-1444542D01*
X28049062Y-1510730D01*
X28070655Y-1575670D01*
X28083432Y-1676333D01*
X28088668Y-1837850D01*
X28088668Y-2002637D01*
X28562500Y-2002637D01*
X28562500Y-2255352D01*
X27307091Y-2255352D01*
X27307091Y-1880516D01*
X27517140Y-1880516D01*
X27517140Y-2002637D01*
X27878620Y-2002637D01*
X27878620Y-1864335D01*
X27872252Y-1727224D01*
X27858622Y-1664514D01*
X27832777Y-1619301D01*
X27796111Y-1585516D01*
X27750642Y-1564222D01*
X27697040Y-1556894D01*
X27652212Y-1561616D01*
X27614478Y-1575077D01*
X27582322Y-1597042D01*
X27555999Y-1626125D01*
X27537282Y-1659690D01*
X27525841Y-1698631D01*
X27519923Y-1755203D01*
X27517140Y-1880516D01*
X27307091Y-1880516D01*
X27307091Y-1849757D01*
X27313226Y-1638944D01*
X27325944Y-1549185D01*
X27351892Y-1481822D01*
X27392355Y-1422144D01*
X27448828Y-1368980D01*
X27515387Y-1329789D01*
X27595692Y-1305167D01*
X27693148Y-1296394D01*
X27769287Y-1301483D01*
G37*
G36*
X27526910Y-1090772D02*
G01*
X27307091Y-1090772D01*
X27307091Y-850880D01*
X27526910Y-850880D01*
X27526910Y-1090772D01*
G37*
G36*
X28562500Y-1090772D02*
G01*
X27653916Y-1090772D01*
X27653916Y-850880D01*
X28562500Y-850880D01*
X28562500Y-1090772D01*
G37*
G36*
X29949810Y-7957805D02*
G01*
X30038245Y-7970968D01*
X30113995Y-7991516D01*
X30202020Y-8028581D01*
X30275285Y-8073358D01*
X30335722Y-8125621D01*
X30373966Y-8172426D01*
X30407493Y-8230956D01*
X30435938Y-8303231D01*
X30455012Y-8394116D01*
X30462500Y-8526942D01*
X30462500Y-9002529D01*
X29207091Y-9002529D01*
X29207091Y-8636241D01*
X29417140Y-8636241D01*
X29417140Y-8749814D01*
X30252451Y-8749814D01*
X30252451Y-8561060D01*
X30248813Y-8462549D01*
X30240391Y-8408255D01*
X30219057Y-8351060D01*
X30187955Y-8306208D01*
X30160805Y-8282746D01*
X30121350Y-8260537D01*
X30066215Y-8240033D01*
X29973694Y-8221676D01*
X29835253Y-8214388D01*
X29697624Y-8221803D01*
X29610703Y-8240033D01*
X29539014Y-8271943D01*
X29488581Y-8311780D01*
X29452277Y-8363114D01*
X29429200Y-8428711D01*
X29420972Y-8494272D01*
X29417140Y-8636241D01*
X29207091Y-8636241D01*
X29207091Y-8540605D01*
X29214062Y-8393684D01*
X29231058Y-8302391D01*
X29258465Y-8232216D01*
X29296826Y-8169618D01*
X29346691Y-8113638D01*
X29405196Y-8066146D01*
X29472626Y-8026293D01*
X29550100Y-7994111D01*
X29631323Y-7972382D01*
X29729281Y-7958228D01*
X29846779Y-7953124D01*
X29949810Y-7957805D01*
G37*
G36*
X29426910Y-7740633D02*
G01*
X29207091Y-7740633D01*
X29207091Y-7500741D01*
X29426910Y-7500741D01*
X29426910Y-7740633D01*
G37*
G36*
X30462500Y-7740633D02*
G01*
X29553916Y-7740633D01*
X29553916Y-7500741D01*
X30462500Y-7500741D01*
X30462500Y-7740633D01*
G37*
G36*
X30203602Y-7339159D02*
G01*
X30174293Y-7098351D01*
X30218331Y-7083986D01*
X30252989Y-7063196D01*
X30279928Y-7036069D01*
X30299006Y-7002833D01*
X30311405Y-6959874D01*
X30315954Y-6904559D01*
X30311373Y-6843192D01*
X30299184Y-6797721D01*
X30280997Y-6764501D01*
X30252544Y-6740856D01*
X30215585Y-6732902D01*
X30189666Y-6737300D01*
X30169255Y-6749999D01*
X30154447Y-6774242D01*
X30136970Y-6830218D01*
X30086793Y-7027425D01*
X30047691Y-7140830D01*
X30017901Y-7198261D01*
X29976539Y-7245861D01*
X29929233Y-7278895D01*
X29874821Y-7298920D01*
X29811287Y-7305881D01*
X29753756Y-7300010D01*
X29701966Y-7282831D01*
X29654594Y-7254181D01*
X29610779Y-7212839D01*
X29577764Y-7164730D01*
X29552372Y-7102836D01*
X29535635Y-7023950D01*
X29529492Y-6924175D01*
X29534261Y-6828092D01*
X29547190Y-6752282D01*
X29566567Y-6693144D01*
X29591239Y-6647570D01*
X29637916Y-6594375D01*
X29697896Y-6552891D01*
X29773735Y-6522853D01*
X29817698Y-6749083D01*
X29766742Y-6770628D01*
X29730687Y-6804191D01*
X29714788Y-6832807D01*
X29704332Y-6870534D01*
X29700462Y-6919901D01*
X29704242Y-6983206D01*
X29713913Y-7026770D01*
X29727558Y-7055684D01*
X29749856Y-7076340D01*
X29777246Y-7083009D01*
X29801110Y-7077252D01*
X29821820Y-7059119D01*
X29844887Y-7006781D01*
X29890819Y-6834950D01*
X29926859Y-6707604D01*
X29963350Y-6621867D01*
X29999201Y-6567275D01*
X30046933Y-6526177D01*
X30105932Y-6501025D01*
X30179636Y-6492094D01*
X30240065Y-6498524D01*
X30295510Y-6517517D01*
X30347309Y-6549551D01*
X30396325Y-6596279D01*
X30433608Y-6650221D01*
X30461875Y-6717549D01*
X30480252Y-6801150D01*
X30486924Y-6904559D01*
X30481450Y-6998282D01*
X30466153Y-7076904D01*
X30442323Y-7142774D01*
X30410674Y-7197879D01*
X30368968Y-7247380D01*
X30321055Y-7287013D01*
X30266288Y-7317545D01*
X30203602Y-7339159D01*
G37*
G36*
X30118257Y-5412673D02*
G01*
X30214003Y-5434787D01*
X30293587Y-5469379D01*
X30359689Y-5515810D01*
X30416522Y-5575743D01*
X30455670Y-5639701D01*
X30478995Y-5708788D01*
X30486924Y-5784706D01*
X30479258Y-5857199D01*
X30457004Y-5920947D01*
X30418947Y-5980355D01*
X30354498Y-6049404D01*
X30809324Y-6049404D01*
X30809324Y-6289372D01*
X29553916Y-6289372D01*
X29553916Y-6065661D01*
X29687105Y-6065661D01*
X29625173Y-6014893D01*
X29574142Y-5947814D01*
X29549427Y-5896738D01*
X29536125Y-5847903D01*
X29715116Y-5847903D01*
X29722873Y-5903309D01*
X29745636Y-5951310D01*
X29784649Y-5993915D01*
X29834310Y-6024418D01*
X29901210Y-6044516D01*
X29990500Y-6051999D01*
X30093476Y-6043987D01*
X30168277Y-6022823D01*
X30221691Y-5991396D01*
X30264032Y-5946845D01*
X30288278Y-5898227D01*
X30296414Y-5843629D01*
X30288819Y-5791082D01*
X30266431Y-5745341D01*
X30227797Y-5704487D01*
X30178560Y-5676083D01*
X30106199Y-5656484D01*
X30002712Y-5648922D01*
X29906685Y-5656454D01*
X29836481Y-5676414D01*
X29785947Y-5706166D01*
X29745956Y-5748228D01*
X29722902Y-5794839D01*
X29715116Y-5847903D01*
X29536125Y-5847903D01*
X29534551Y-5842126D01*
X29529492Y-5783026D01*
X29537326Y-5706947D01*
X29560330Y-5637935D01*
X29598839Y-5574288D01*
X29654590Y-5514894D01*
X29719628Y-5468732D01*
X29797575Y-5434438D01*
X29890977Y-5412571D01*
X30003018Y-5404755D01*
X30118257Y-5412673D01*
G37*
G36*
X30462500Y-5211422D02*
G01*
X29207091Y-5211422D01*
X29207091Y-4958631D01*
X29700462Y-4958631D01*
X29700462Y-4463428D01*
X29207091Y-4463428D01*
X29207091Y-4210637D01*
X30462500Y-4210637D01*
X30462500Y-4463428D01*
X29910511Y-4463428D01*
X29910511Y-4958631D01*
X30462500Y-4958631D01*
X30462500Y-5211422D01*
G37*
G36*
X29949810Y-2905641D02*
G01*
X30038245Y-2918805D01*
X30113995Y-2939353D01*
X30202020Y-2976418D01*
X30275285Y-3021195D01*
X30335722Y-3073457D01*
X30373966Y-3120263D01*
X30407493Y-3178793D01*
X30435938Y-3251068D01*
X30455012Y-3341953D01*
X30462500Y-3474779D01*
X30462500Y-3950366D01*
X29207091Y-3950366D01*
X29207091Y-3584078D01*
X29417140Y-3584078D01*
X29417140Y-3697651D01*
X30252451Y-3697651D01*
X30252451Y-3508897D01*
X30248813Y-3410385D01*
X30240391Y-3356092D01*
X30219057Y-3298896D01*
X30187955Y-3254044D01*
X30160805Y-3230582D01*
X30121350Y-3208374D01*
X30066215Y-3187870D01*
X29973694Y-3169513D01*
X29835253Y-3162224D01*
X29697624Y-3169639D01*
X29610703Y-3187870D01*
X29539014Y-3219779D01*
X29488581Y-3259616D01*
X29452277Y-3310950D01*
X29429200Y-3376547D01*
X29420972Y-3442108D01*
X29417140Y-3584078D01*
X29207091Y-3584078D01*
X29207091Y-3488441D01*
X29214062Y-3341520D01*
X29231058Y-3250228D01*
X29258465Y-3180052D01*
X29296826Y-3117455D01*
X29346691Y-3061474D01*
X29405196Y-3013983D01*
X29472626Y-2974130D01*
X29550100Y-2941948D01*
X29631323Y-2920219D01*
X29729281Y-2906064D01*
X29846779Y-2900961D01*
X29949810Y-2905641D01*
G37*
G36*
X30462500Y-2690225D02*
G01*
X29207091Y-2690225D01*
X29207091Y-2311954D01*
X30063468Y-2084808D01*
X29207091Y-1860257D01*
X29207091Y-1481070D01*
X30462500Y-1481070D01*
X30462500Y-1715925D01*
X29474308Y-1715925D01*
X30462500Y-1964366D01*
X30462500Y-2207769D01*
X29474308Y-2455370D01*
X30462500Y-2455370D01*
X30462500Y-2690225D01*
G37*
G36*
X30462500Y-1237591D02*
G01*
X29207091Y-1237591D01*
X29207091Y-984799D01*
X30462500Y-984799D01*
X30462500Y-1237591D01*
G37*
D11*
%TO.P,R11,1*%
%TO.N,/GND*%
X30100000Y-14675000D03*
%TO.P,R11,2*%
%TO.N,/HOTPLUG*%
X30100000Y-16675000D03*
%TD*%
D12*
%TO.P,R13,1*%
%TO.N,/SDA*%
X23156250Y-16275000D03*
%TO.P,R13,2*%
%TO.N,Net-(J2-SDA)*%
X23156250Y-14275000D03*
%TD*%
D13*
%TO.P,J2,1,D2+*%
%TO.N,Net-(J2-D2+)*%
X11500000Y-10085000D03*
%TO.P,J2,2,D2S*%
%TO.N,/GND*%
X12000000Y-10085000D03*
%TO.P,J2,3,D2-*%
%TO.N,Net-(J2-D2-)*%
X12500000Y-10085000D03*
%TO.P,J2,4,D1+*%
%TO.N,Net-(J2-D1+)*%
X13000000Y-10085000D03*
%TO.P,J2,5,D1S*%
%TO.N,/GND*%
X13500000Y-10085000D03*
%TO.P,J2,6,D1-*%
%TO.N,Net-(J2-D1-)*%
X14000000Y-10085000D03*
%TO.P,J2,7,D0+*%
%TO.N,Net-(J2-D0+)*%
X14500000Y-10085000D03*
%TO.P,J2,8,D0S*%
%TO.N,/GND*%
X15000000Y-10085000D03*
%TO.P,J2,9,D0-*%
%TO.N,Net-(J2-D0-)*%
X15500000Y-10085000D03*
%TO.P,J2,10,CK+*%
%TO.N,Net-(J2-CK+)*%
X16000000Y-10085000D03*
%TO.P,J2,11,CKS*%
%TO.N,/GND*%
X16500000Y-10085000D03*
%TO.P,J2,12,CK-*%
%TO.N,Net-(J2-CK-)*%
X17000000Y-10085000D03*
%TO.P,J2,13,CEC*%
%TO.N,unconnected-(J2-CEC-Pad13)*%
X17500000Y-10085000D03*
%TO.P,J2,14,UTILITY*%
%TO.N,unconnected-(J2-UTILITY-Pad14)*%
X18000000Y-10085000D03*
%TO.P,J2,15,SCL*%
%TO.N,Net-(J2-SCL)*%
X18500000Y-10085000D03*
%TO.P,J2,16,SDA*%
%TO.N,Net-(J2-SDA)*%
X19000000Y-10085000D03*
%TO.P,J2,17,GND*%
%TO.N,/GND*%
X19500000Y-10085000D03*
%TO.P,J2,18,+5V*%
%TO.N,Net-(J2-+5V)*%
X20000000Y-10085000D03*
%TO.P,J2,19,HPD*%
%TO.N,Net-(J2-HPD)*%
X20500000Y-10085000D03*
D14*
%TO.P,J2,SH,SH*%
%TO.N,/GND*%
X8750000Y-9325000D03*
X23250000Y-9325000D03*
D15*
X8750000Y-3365000D03*
X23250000Y-3365000D03*
%TD*%
D12*
%TO.P,R3,1*%
%TO.N,/D1P*%
X6954167Y-16475000D03*
%TO.P,R3,2*%
%TO.N,Net-(J2-D1+)*%
X6954167Y-14475000D03*
%TD*%
D16*
%TO.P,J1,1,Pin_1*%
%TO.N,unconnected-(J1-Pin_1-Pad1)*%
X27430000Y-24340000D03*
D17*
%TO.P,J1,2,Pin_2*%
%TO.N,unconnected-(J1-Pin_2-Pad2)*%
X27430000Y-21000000D03*
%TO.P,J1,3,Pin_3*%
%TO.N,/GND*%
X24890000Y-24340000D03*
%TO.P,J1,4,Pin_4*%
%TO.N,unconnected-(J1-Pin_4-Pad4)*%
X24890000Y-21000000D03*
%TO.P,J1,5,Pin_5*%
%TO.N,/3V3*%
X22350000Y-24340000D03*
%TO.P,J1,6,Pin_6*%
%TO.N,unconnected-(J1-Pin_6-Pad6)*%
X22350000Y-21000000D03*
%TO.P,J1,7,Pin_7*%
%TO.N,/3V3*%
X19810000Y-24340000D03*
%TO.P,J1,8,Pin_8*%
%TO.N,unconnected-(J1-Pin_8-Pad8)*%
X19810000Y-21000000D03*
%TO.P,J1,9,Pin_9*%
%TO.N,/HOTPLUG*%
X17270000Y-24340000D03*
%TO.P,J1,10,Pin_10*%
%TO.N,/5V*%
X17270000Y-21000000D03*
%TO.P,J1,11,Pin_11*%
%TO.N,/SDA*%
X14730000Y-24340000D03*
%TO.P,J1,12,Pin_12*%
%TO.N,/SCL*%
X14730000Y-21000000D03*
%TO.P,J1,13,Pin_13*%
%TO.N,/CKN*%
X12190000Y-24340000D03*
%TO.P,J1,14,Pin_14*%
%TO.N,/CKP*%
X12190000Y-21000000D03*
%TO.P,J1,15,Pin_15*%
%TO.N,/D0N*%
X9650000Y-24340000D03*
%TO.P,J1,16,Pin_16*%
%TO.N,/D0P*%
X9650000Y-21000000D03*
%TO.P,J1,17,Pin_17*%
%TO.N,/D1N*%
X7110000Y-24340000D03*
%TO.P,J1,18,Pin_18*%
%TO.N,/D1P*%
X7110000Y-21000000D03*
%TO.P,J1,19,Pin_19*%
%TO.N,/D2N*%
X4570000Y-24340000D03*
%TO.P,J1,20,Pin_20*%
%TO.N,/D2P*%
X4570000Y-21000000D03*
%TD*%
D12*
%TO.P,R1,1*%
%TO.N,/D2P*%
X2325000Y-16675000D03*
%TO.P,R1,2*%
%TO.N,Net-(J2-D2+)*%
X2325000Y-14675000D03*
%TD*%
%TO.P,R2,1*%
%TO.N,/D2N*%
X4639583Y-16675000D03*
%TO.P,R2,2*%
%TO.N,Net-(J2-D2-)*%
X4639583Y-14675000D03*
%TD*%
%TO.P,R12,1*%
%TO.N,/SCL*%
X20841667Y-16075000D03*
%TO.P,R12,2*%
%TO.N,Net-(J2-SCL)*%
X20841667Y-14075000D03*
%TD*%
%TO.P,R6,1*%
%TO.N,/D0N*%
X13897917Y-16075000D03*
%TO.P,R6,2*%
%TO.N,Net-(J2-D0-)*%
X13897917Y-14075000D03*
%TD*%
%TO.P,R8,1*%
%TO.N,/CKN*%
X18527083Y-15875000D03*
%TO.P,R8,2*%
%TO.N,Net-(J2-CK-)*%
X18527083Y-13875000D03*
%TD*%
%TO.P,R4,1*%
%TO.N,/D1N*%
X9268750Y-16475000D03*
%TO.P,R4,2*%
%TO.N,Net-(J2-D1-)*%
X9268750Y-14475000D03*
%TD*%
%TO.P,R7,1*%
%TO.N,/CKP*%
X16212500Y-15875000D03*
%TO.P,R7,2*%
%TO.N,Net-(J2-CK+)*%
X16212500Y-13875000D03*
%TD*%
%TO.P,R5,1*%
%TO.N,/D0P*%
X11583333Y-16475000D03*
%TO.P,R5,2*%
%TO.N,Net-(J2-D0+)*%
X11583333Y-14475000D03*
%TD*%
%TO.P,R9,1*%
%TO.N,/5V*%
X25470833Y-16475000D03*
%TO.P,R9,2*%
%TO.N,Net-(J2-+5V)*%
X25470833Y-14475000D03*
%TD*%
%TO.P,R10,1*%
%TO.N,/HOTPLUG*%
X27785417Y-16675000D03*
%TO.P,R10,2*%
%TO.N,Net-(J2-HPD)*%
X27785417Y-14675000D03*
%TD*%
D18*
%TO.N,/GND*%
X11950000Y-6725000D02*
X8800000Y-6725000D01*
X30100000Y-14675000D02*
X24750000Y-9325000D01*
D19*
X15000000Y-6850000D02*
X14875000Y-6725000D01*
D18*
X23250000Y-3365000D02*
X8750000Y-3365000D01*
D19*
X11959000Y-9877065D02*
X12000000Y-9836065D01*
X13500000Y-9842065D02*
X13500000Y-6775000D01*
X19500000Y-6775000D02*
X19450000Y-6725000D01*
D20*
X31266000Y-15516000D02*
X30425000Y-14675000D01*
D18*
X23250000Y-9325000D02*
X23200000Y-9275000D01*
D20*
X26164000Y-22666000D02*
X26164000Y-19775606D01*
D19*
X13465000Y-10085000D02*
X13465000Y-9877065D01*
D18*
X23200000Y-6725000D02*
X23200000Y-3798530D01*
X13450000Y-6725000D02*
X11950000Y-6725000D01*
D20*
X27539606Y-18400000D02*
X30194504Y-18400000D01*
D18*
X8800000Y-6725000D02*
X8750000Y-6675000D01*
D19*
X15000000Y-9873033D02*
X15000000Y-6850000D01*
X16500000Y-6750000D02*
X16525000Y-6725000D01*
X13465000Y-9877065D02*
X13500000Y-9842065D01*
X16500000Y-10085000D02*
X16500000Y-6750000D01*
D20*
X31266000Y-17328504D02*
X31266000Y-15516000D01*
D18*
X23200000Y-9275000D02*
X23200000Y-6725000D01*
X19450000Y-6725000D02*
X16525000Y-6725000D01*
D19*
X12000000Y-6775000D02*
X11950000Y-6725000D01*
X19500000Y-10085000D02*
X19500000Y-6775000D01*
D18*
X8750000Y-3365000D02*
X8750000Y-6675000D01*
D19*
X11959000Y-10085000D02*
X11959000Y-9877065D01*
D20*
X30194504Y-18400000D02*
X31266000Y-17328504D01*
X30425000Y-14675000D02*
X30100000Y-14675000D01*
D18*
X14875000Y-6725000D02*
X13450000Y-6725000D01*
D19*
X14971000Y-10085000D02*
X14971000Y-9902033D01*
D18*
X24750000Y-9325000D02*
X23250000Y-9325000D01*
X23200000Y-6725000D02*
X19450000Y-6725000D01*
X23200000Y-3798530D02*
X22766470Y-3365000D01*
D20*
X26164000Y-19775606D02*
X27539606Y-18400000D01*
D19*
X13500000Y-6775000D02*
X13450000Y-6725000D01*
D18*
X8750000Y-6675000D02*
X8750000Y-9325000D01*
X16525000Y-6725000D02*
X14875000Y-6725000D01*
D19*
X14971000Y-9902033D02*
X15000000Y-9873033D01*
X12000000Y-9836065D02*
X12000000Y-6775000D01*
D20*
X24890000Y-23940000D02*
X26164000Y-22666000D01*
%TO.N,/D2P*%
X4570000Y-19595000D02*
X2325000Y-17350000D01*
X2325000Y-17350000D02*
X2325000Y-16675000D01*
X4570000Y-21400000D02*
X4570000Y-19595000D01*
%TO.N,/HOTPLUG*%
X25435417Y-19025000D02*
X27785417Y-16675000D01*
X27785417Y-16675000D02*
X30100000Y-16675000D01*
X18544000Y-19775606D02*
X19294606Y-19025000D01*
X17270000Y-23940000D02*
X18544000Y-22666000D01*
X19294606Y-19025000D02*
X25435417Y-19025000D01*
X18544000Y-22666000D02*
X18544000Y-19775606D01*
D18*
%TO.N,/3V3*%
X19810000Y-23940000D02*
X22350000Y-23940000D01*
D20*
%TO.N,/CKN*%
X17511083Y-16891000D02*
X18527083Y-15875000D01*
X14205606Y-19034000D02*
X14636244Y-19034000D01*
X13456000Y-20214244D02*
X13464000Y-20206244D01*
X12190000Y-23940000D02*
X13456000Y-22674000D01*
X14636244Y-19034000D02*
X16779244Y-16891000D01*
X13464000Y-19775606D02*
X14205606Y-19034000D01*
X16779244Y-16891000D02*
X17511083Y-16891000D01*
X13464000Y-20206244D02*
X13464000Y-19775606D01*
X13456000Y-22674000D02*
X13456000Y-20214244D01*
%TO.N,/CKP*%
X16212500Y-16206862D02*
X16212500Y-15875000D01*
X12190000Y-20229362D02*
X16212500Y-16206862D01*
X12190000Y-21400000D02*
X12190000Y-20229362D01*
%TO.N,/D0N*%
X9650000Y-23940000D02*
X10924000Y-22666000D01*
X11741000Y-19034000D02*
X13897917Y-16877083D01*
X11665606Y-19034000D02*
X11741000Y-19034000D01*
X10924000Y-22666000D02*
X10924000Y-19775606D01*
X13897917Y-16877083D02*
X13897917Y-16075000D01*
X10924000Y-19775606D02*
X11665606Y-19034000D01*
%TO.N,/D1N*%
X7110000Y-23940000D02*
X8376000Y-22674000D01*
X9268750Y-17356250D02*
X9268750Y-16475000D01*
X8376000Y-22674000D02*
X8376000Y-18249000D01*
X8376000Y-18249000D02*
X9268750Y-17356250D01*
%TO.N,/D1P*%
X7075000Y-21365000D02*
X7075000Y-16595833D01*
X7110000Y-21400000D02*
X7075000Y-21365000D01*
X7075000Y-16595833D02*
X6954167Y-16475000D01*
%TO.N,/5V*%
X19033652Y-18395000D02*
X23550833Y-18395000D01*
X17270000Y-20158651D02*
X19033652Y-18395000D01*
X17270000Y-21400000D02*
X17270000Y-20158651D01*
X23550833Y-18395000D02*
X25470833Y-16475000D01*
%TO.N,/D2N*%
X4639583Y-17664583D02*
X4639583Y-16675000D01*
X5844000Y-22666000D02*
X5844000Y-18869000D01*
X5844000Y-18869000D02*
X4639583Y-17664583D01*
X4570000Y-23940000D02*
X5844000Y-22666000D01*
%TO.N,/D0P*%
X9650000Y-18408333D02*
X11583333Y-16475000D01*
X9650000Y-21400000D02*
X9650000Y-18408333D01*
D19*
%TO.N,Net-(J2-D0+)*%
X12483333Y-13575000D02*
X11583333Y-14475000D01*
X12670337Y-13575000D02*
X12483333Y-13575000D01*
X13171337Y-13074000D02*
X12670337Y-13575000D01*
X14469000Y-11789319D02*
X13184319Y-13074000D01*
X13184319Y-13074000D02*
X13171337Y-13074000D01*
X14469000Y-10085000D02*
X14469000Y-11789319D01*
%TO.N,Net-(J2-CK-)*%
X18527083Y-13164083D02*
X18527083Y-13875000D01*
X17000000Y-10085000D02*
X17000000Y-11637000D01*
X17000000Y-11637000D02*
X18527083Y-13164083D01*
%TO.N,Net-(J2-D1+)*%
X7677167Y-13752000D02*
X6954167Y-14475000D01*
X8264170Y-13752000D02*
X7677167Y-13752000D01*
X8542170Y-13474000D02*
X8264170Y-13752000D01*
X12963000Y-10085000D02*
X12963000Y-11750617D01*
X10149647Y-13474000D02*
X8542170Y-13474000D01*
X11465212Y-12574000D02*
X11065212Y-12974000D01*
X10649647Y-12974000D02*
X10149647Y-13474000D01*
X11065212Y-12974000D02*
X10649647Y-12974000D01*
X12963000Y-11750617D02*
X12139617Y-12574000D01*
X12139617Y-12574000D02*
X11465212Y-12574000D01*
%TO.N,Net-(J2-HPD)*%
X20500000Y-10085000D02*
X20500000Y-11275000D01*
X25884417Y-12774000D02*
X27785417Y-14675000D01*
X21299000Y-12074000D02*
X21982459Y-12074000D01*
X22682459Y-12774000D02*
X25884417Y-12774000D01*
X21982459Y-12074000D02*
X22682459Y-12774000D01*
X20500000Y-11275000D02*
X21299000Y-12074000D01*
%TO.N,Net-(J2-D0-)*%
X15451000Y-11921917D02*
X13897917Y-13475000D01*
X13897917Y-13475000D02*
X13897917Y-14075000D01*
X15451000Y-10313521D02*
X15451000Y-11921917D01*
%TO.N,Net-(J2-+5V)*%
X24869833Y-13274000D02*
X25470833Y-13875000D01*
X20000000Y-11635788D02*
X20938212Y-12574000D01*
X20000000Y-10085000D02*
X20000000Y-11635788D01*
X20938212Y-12574000D02*
X21775353Y-12574000D01*
X22475353Y-13274000D02*
X24869833Y-13274000D01*
X21775353Y-12574000D02*
X22475353Y-13274000D01*
X25470833Y-13875000D02*
X25470833Y-14475000D01*
%TO.N,Net-(J2-CK+)*%
X15952000Y-13614500D02*
X16212500Y-13875000D01*
X15952000Y-10521041D02*
X15952000Y-13614500D01*
%TO.N,Net-(J2-D2+)*%
X11457000Y-11168000D02*
X10651000Y-11974000D01*
X7999127Y-12600000D02*
X3800000Y-12600000D01*
X2325000Y-14075000D02*
X2325000Y-14675000D01*
X10235435Y-11974000D02*
X9737435Y-12472000D01*
X9737435Y-12472000D02*
X8127127Y-12472000D01*
X10651000Y-11974000D02*
X10235435Y-11974000D01*
X3800000Y-12600000D02*
X2325000Y-14075000D01*
X8127127Y-12472000D02*
X7999127Y-12600000D01*
X11457000Y-10085000D02*
X11457000Y-11168000D01*
%TO.N,Net-(J2-D2-)*%
X12461000Y-10085000D02*
X12461000Y-11542682D01*
X12461000Y-11542682D02*
X11931682Y-12072000D01*
X11931682Y-12072000D02*
X11260106Y-12072000D01*
X8334234Y-12972000D02*
X8056235Y-13250000D01*
X9944541Y-12972000D02*
X8334234Y-12972000D01*
X10442541Y-12474000D02*
X9944541Y-12972000D01*
X4639583Y-14075000D02*
X4639583Y-14675000D01*
X11260106Y-12072000D02*
X10858106Y-12474000D01*
X5464583Y-13250000D02*
X4639583Y-14075000D01*
X10858106Y-12474000D02*
X10442541Y-12474000D01*
X8056235Y-13250000D02*
X5464583Y-13250000D01*
%TO.N,Net-(J2-D1-)*%
X12963401Y-12572000D02*
X12460401Y-13075000D01*
X10856753Y-13474000D02*
X10355753Y-13975000D01*
X12976383Y-12572000D02*
X12963401Y-12572000D01*
X13967000Y-11581383D02*
X12976383Y-12572000D01*
X9768750Y-13975000D02*
X9268750Y-14475000D01*
X10355753Y-13975000D02*
X9768750Y-13975000D01*
X12460401Y-13075000D02*
X11671318Y-13075000D01*
X11272318Y-13474000D02*
X10856753Y-13474000D01*
X11671318Y-13075000D02*
X11272318Y-13474000D01*
X13967000Y-10085000D02*
X13967000Y-11581383D01*
D20*
%TO.N,/SCL*%
X20381667Y-17135000D02*
X20841667Y-16675000D01*
X14730000Y-20129046D02*
X16964046Y-17895000D01*
X17751742Y-17895000D02*
X18511743Y-17135000D01*
X20841667Y-16675000D02*
X20841667Y-16075000D01*
X18511743Y-17135000D02*
X20381667Y-17135000D01*
X16964046Y-17895000D02*
X17751742Y-17895000D01*
X14730000Y-21400000D02*
X14730000Y-20129046D01*
%TO.N,/SDA*%
X14730000Y-23940000D02*
X16004000Y-22666000D01*
X16004000Y-22666000D02*
X16004000Y-19746000D01*
X17225000Y-18525000D02*
X18012696Y-18525000D01*
X21666250Y-17765000D02*
X23156250Y-16275000D01*
X18012696Y-18525000D02*
X18772698Y-17765000D01*
X18772698Y-17765000D02*
X21666250Y-17765000D01*
X16004000Y-19746000D02*
X17225000Y-18525000D01*
D19*
%TO.N,Net-(J2-SCL)*%
X18473000Y-11706333D02*
X20841667Y-14075000D01*
X18473000Y-10085000D02*
X18473000Y-11706333D01*
%TO.N,Net-(J2-SDA)*%
X19000000Y-11524812D02*
X20549187Y-13074000D01*
X21568247Y-13074000D02*
X22268247Y-13774000D01*
X19000000Y-10085000D02*
X19000000Y-11524812D01*
X22268247Y-13774000D02*
X22655250Y-13774000D01*
X20549187Y-13074000D02*
X21568247Y-13074000D01*
X22655250Y-13774000D02*
X23156250Y-14275000D01*
%TD*%
%TA.AperFunction,Conductor*%
%TO.N,/GND*%
G36*
X26744630Y-420185D02*
G01*
X26790385Y-472989D01*
X26801591Y-524500D01*
X26801591Y-6647138D01*
X28577591Y-6647138D01*
X28644630Y-6666823D01*
X28690385Y-6719627D01*
X28701591Y-6771138D01*
X28701591Y-9508029D01*
X31314824Y-9508029D01*
X31314824Y-524500D01*
X31317374Y-515814D01*
X31316086Y-506853D01*
X31327064Y-482812D01*
X31334509Y-457461D01*
X31341349Y-451533D01*
X31345111Y-443297D01*
X31367345Y-429007D01*
X31387313Y-411706D01*
X31397827Y-409418D01*
X31403889Y-405523D01*
X31438824Y-400500D01*
X31475500Y-400500D01*
X31542539Y-420185D01*
X31588294Y-472989D01*
X31599500Y-524500D01*
X31599500Y-27475500D01*
X31579815Y-27542539D01*
X31527011Y-27588294D01*
X31475500Y-27599500D01*
X524500Y-27599500D01*
X457461Y-27579815D01*
X411706Y-27527011D01*
X400500Y-27475500D01*
X400500Y-14274983D01*
X1124500Y-14274983D01*
X1124500Y-15075001D01*
X1124501Y-15075019D01*
X1135000Y-15177796D01*
X1135001Y-15177799D01*
X1184570Y-15327387D01*
X1190186Y-15344334D01*
X1282287Y-15493655D01*
X1282289Y-15493657D01*
X1375951Y-15587319D01*
X1409436Y-15648642D01*
X1404452Y-15718334D01*
X1375951Y-15762681D01*
X1282289Y-15856342D01*
X1190187Y-16005663D01*
X1190185Y-16005668D01*
X1167709Y-16073498D01*
X1135001Y-16172203D01*
X1135001Y-16172204D01*
X1135000Y-16172204D01*
X1124500Y-16274983D01*
X1124500Y-17075001D01*
X1124501Y-17075019D01*
X1135000Y-17177796D01*
X1135001Y-17177799D01*
X1190185Y-17344331D01*
X1190187Y-17344336D01*
X1204929Y-17368237D01*
X1282288Y-17493656D01*
X1406344Y-17617712D01*
X1555666Y-17709814D01*
X1722203Y-17764999D01*
X1763672Y-17769235D01*
X1828364Y-17795630D01*
X1838752Y-17804912D01*
X3608389Y-19574548D01*
X3641874Y-19635871D01*
X3636890Y-19705563D01*
X3630523Y-19718639D01*
X3630980Y-19718872D01*
X3628770Y-19723209D01*
X3628768Y-19723212D01*
X3608501Y-19762989D01*
X3550128Y-19877552D01*
X3496597Y-20042302D01*
X3469500Y-20213389D01*
X3469500Y-21786611D01*
X3496598Y-21957701D01*
X3550127Y-22122445D01*
X3628768Y-22276788D01*
X3730586Y-22416928D01*
X3730588Y-22416930D01*
X3853072Y-22539414D01*
X3894733Y-22569683D01*
X3937398Y-22625013D01*
X3943376Y-22694627D01*
X3910769Y-22756421D01*
X3894733Y-22770317D01*
X3853072Y-22800585D01*
X3730588Y-22923069D01*
X3730588Y-22923070D01*
X3730586Y-22923072D01*
X3686859Y-22983256D01*
X3628768Y-23063211D01*
X3550128Y-23217552D01*
X3496597Y-23382302D01*
X3487459Y-23440000D01*
X3469500Y-23553389D01*
X3469500Y-25126611D01*
X3496598Y-25297701D01*
X3550127Y-25462445D01*
X3628768Y-25616788D01*
X3730586Y-25756928D01*
X3853072Y-25879414D01*
X3993212Y-25981232D01*
X4147555Y-26059873D01*
X4312299Y-26113402D01*
X4483389Y-26140500D01*
X4483390Y-26140500D01*
X4656610Y-26140500D01*
X4656611Y-26140500D01*
X4827701Y-26113402D01*
X4992445Y-26059873D01*
X5146788Y-25981232D01*
X5286928Y-25879414D01*
X5409414Y-25756928D01*
X5511232Y-25616788D01*
X5589873Y-25462445D01*
X5643402Y-25297701D01*
X5670500Y-25126611D01*
X5670500Y-23832020D01*
X5679144Y-23802580D01*
X5685668Y-23772594D01*
X5689422Y-23767578D01*
X5690185Y-23764982D01*
X5706815Y-23744344D01*
X5797820Y-23653339D01*
X5859142Y-23619855D01*
X5928834Y-23624839D01*
X5984767Y-23666711D01*
X6009184Y-23732175D01*
X6009500Y-23741020D01*
X6009500Y-25126611D01*
X6036598Y-25297701D01*
X6090127Y-25462445D01*
X6168768Y-25616788D01*
X6270586Y-25756928D01*
X6393072Y-25879414D01*
X6533212Y-25981232D01*
X6687555Y-26059873D01*
X6852299Y-26113402D01*
X7023389Y-26140500D01*
X7023390Y-26140500D01*
X7196610Y-26140500D01*
X7196611Y-26140500D01*
X7367701Y-26113402D01*
X7532445Y-26059873D01*
X7686788Y-25981232D01*
X7826928Y-25879414D01*
X7949414Y-25756928D01*
X8051232Y-25616788D01*
X8129873Y-25462445D01*
X8183402Y-25297701D01*
X8210500Y-25126611D01*
X8210500Y-23832020D01*
X8219144Y-23802579D01*
X8225668Y-23772593D01*
X8229422Y-23767577D01*
X8230185Y-23764981D01*
X8246815Y-23744343D01*
X8337820Y-23653338D01*
X8399142Y-23619854D01*
X8468834Y-23624838D01*
X8524767Y-23666710D01*
X8549184Y-23732174D01*
X8549500Y-23741020D01*
X8549500Y-25126611D01*
X8576598Y-25297701D01*
X8630127Y-25462445D01*
X8708768Y-25616788D01*
X8810586Y-25756928D01*
X8933072Y-25879414D01*
X9073212Y-25981232D01*
X9227555Y-26059873D01*
X9392299Y-26113402D01*
X9563389Y-26140500D01*
X9563390Y-26140500D01*
X9736610Y-26140500D01*
X9736611Y-26140500D01*
X9907701Y-26113402D01*
X10072445Y-26059873D01*
X10226788Y-25981232D01*
X10366928Y-25879414D01*
X10489414Y-25756928D01*
X10591232Y-25616788D01*
X10669873Y-25462445D01*
X10723402Y-25297701D01*
X10750500Y-25126611D01*
X10750500Y-23832020D01*
X10759144Y-23802580D01*
X10765668Y-23772594D01*
X10769422Y-23767578D01*
X10770185Y-23764982D01*
X10786815Y-23744344D01*
X10877820Y-23653339D01*
X10939142Y-23619855D01*
X11008834Y-23624839D01*
X11064767Y-23666711D01*
X11089184Y-23732175D01*
X11089500Y-23741020D01*
X11089500Y-25126611D01*
X11116598Y-25297701D01*
X11170127Y-25462445D01*
X11248768Y-25616788D01*
X11350586Y-25756928D01*
X11473072Y-25879414D01*
X11613212Y-25981232D01*
X11767555Y-26059873D01*
X11932299Y-26113402D01*
X12103389Y-26140500D01*
X12103390Y-26140500D01*
X12276610Y-26140500D01*
X12276611Y-26140500D01*
X12447701Y-26113402D01*
X12612445Y-26059873D01*
X12766788Y-25981232D01*
X12906928Y-25879414D01*
X13029414Y-25756928D01*
X13131232Y-25616788D01*
X13209873Y-25462445D01*
X13263402Y-25297701D01*
X13290500Y-25126611D01*
X13290500Y-23832020D01*
X13299144Y-23802579D01*
X13305668Y-23772593D01*
X13309422Y-23767577D01*
X13310185Y-23764981D01*
X13326815Y-23744343D01*
X13417820Y-23653338D01*
X13479142Y-23619854D01*
X13548834Y-23624838D01*
X13604767Y-23666710D01*
X13629184Y-23732174D01*
X13629500Y-23741020D01*
X13629500Y-25126611D01*
X13656598Y-25297701D01*
X13710127Y-25462445D01*
X13788768Y-25616788D01*
X13890586Y-25756928D01*
X14013072Y-25879414D01*
X14153212Y-25981232D01*
X14307555Y-26059873D01*
X14472299Y-26113402D01*
X14643389Y-26140500D01*
X14643390Y-26140500D01*
X14816610Y-26140500D01*
X14816611Y-26140500D01*
X14987701Y-26113402D01*
X15152445Y-26059873D01*
X15306788Y-25981232D01*
X15446928Y-25879414D01*
X15569414Y-25756928D01*
X15671232Y-25616788D01*
X15749873Y-25462445D01*
X15803402Y-25297701D01*
X15830500Y-25126611D01*
X15830500Y-23832020D01*
X15839144Y-23802580D01*
X15845668Y-23772594D01*
X15849422Y-23767578D01*
X15850185Y-23764982D01*
X15866815Y-23744344D01*
X15957820Y-23653339D01*
X16019142Y-23619855D01*
X16088834Y-23624839D01*
X16144767Y-23666711D01*
X16169184Y-23732175D01*
X16169500Y-23741020D01*
X16169500Y-25126611D01*
X16196598Y-25297701D01*
X16250127Y-25462445D01*
X16328768Y-25616788D01*
X16430586Y-25756928D01*
X16553072Y-25879414D01*
X16693212Y-25981232D01*
X16847555Y-26059873D01*
X17012299Y-26113402D01*
X17183389Y-26140500D01*
X17183390Y-26140500D01*
X17356610Y-26140500D01*
X17356611Y-26140500D01*
X17527701Y-26113402D01*
X17692445Y-26059873D01*
X17846788Y-25981232D01*
X17986928Y-25879414D01*
X18109414Y-25756928D01*
X18211232Y-25616788D01*
X18289873Y-25462445D01*
X18343402Y-25297701D01*
X18370500Y-25126611D01*
X18370500Y-23832020D01*
X18379144Y-23802580D01*
X18385668Y-23772594D01*
X18389422Y-23767578D01*
X18390185Y-23764982D01*
X18406815Y-23744344D01*
X18497820Y-23653339D01*
X18559142Y-23619855D01*
X18628834Y-23624839D01*
X18684767Y-23666711D01*
X18709184Y-23732175D01*
X18709500Y-23741020D01*
X18709500Y-25126611D01*
X18736598Y-25297701D01*
X18790127Y-25462445D01*
X18868768Y-25616788D01*
X18970586Y-25756928D01*
X19093072Y-25879414D01*
X19233212Y-25981232D01*
X19387555Y-26059873D01*
X19552299Y-26113402D01*
X19723389Y-26140500D01*
X19723390Y-26140500D01*
X19896610Y-26140500D01*
X19896611Y-26140500D01*
X20067701Y-26113402D01*
X20232445Y-26059873D01*
X20386788Y-25981232D01*
X20526928Y-25879414D01*
X20649414Y-25756928D01*
X20751232Y-25616788D01*
X20829873Y-25462445D01*
X20883402Y-25297701D01*
X20910500Y-25126611D01*
X20910500Y-24864500D01*
X20913050Y-24855814D01*
X20911762Y-24846853D01*
X20922740Y-24822812D01*
X20930185Y-24797461D01*
X20937025Y-24791533D01*
X20940787Y-24783297D01*
X20963021Y-24769007D01*
X20982989Y-24751706D01*
X20993503Y-24749418D01*
X20999565Y-24745523D01*
X21034500Y-24740500D01*
X21125500Y-24740500D01*
X21192539Y-24760185D01*
X21238294Y-24812989D01*
X21249500Y-24864500D01*
X21249500Y-25126611D01*
X21276598Y-25297701D01*
X21330127Y-25462445D01*
X21408768Y-25616788D01*
X21510586Y-25756928D01*
X21633072Y-25879414D01*
X21773212Y-25981232D01*
X21927555Y-26059873D01*
X22092299Y-26113402D01*
X22263389Y-26140500D01*
X22263390Y-26140500D01*
X22436610Y-26140500D01*
X22436611Y-26140500D01*
X22607701Y-26113402D01*
X22772445Y-26059873D01*
X22926788Y-25981232D01*
X23066928Y-25879414D01*
X23176306Y-25770036D01*
X23813513Y-25770036D01*
X23898417Y-25886895D01*
X24043104Y-26031582D01*
X24208650Y-26151859D01*
X24390968Y-26244755D01*
X24585582Y-26307990D01*
X24787683Y-26340000D01*
X24992317Y-26340000D01*
X25194417Y-26307990D01*
X25389031Y-26244755D01*
X25571349Y-26151859D01*
X25736894Y-26031582D01*
X25736895Y-26031582D01*
X25881584Y-25886893D01*
X25966484Y-25770037D01*
X25966484Y-25770036D01*
X24890000Y-24693552D01*
X23813513Y-25770036D01*
X23176306Y-25770036D01*
X23189414Y-25756928D01*
X23291232Y-25616788D01*
X23369873Y-25462445D01*
X23411974Y-25332870D01*
X23451410Y-25275198D01*
X23515769Y-25247999D01*
X23568222Y-25253260D01*
X23609707Y-25266739D01*
X24536448Y-24340000D01*
X24536448Y-24339999D01*
X23609707Y-23413258D01*
X23568221Y-23426738D01*
X23498380Y-23428733D01*
X23438547Y-23392653D01*
X23411974Y-23347129D01*
X23369873Y-23217555D01*
X23291232Y-23063212D01*
X23189414Y-22923072D01*
X23066928Y-22800586D01*
X23025265Y-22770316D01*
X22982602Y-22714988D01*
X22976623Y-22645374D01*
X23009229Y-22583579D01*
X23025266Y-22569683D01*
X23066928Y-22539414D01*
X23189414Y-22416928D01*
X23291232Y-22276788D01*
X23369873Y-22122445D01*
X23423402Y-21957701D01*
X23450500Y-21786611D01*
X23450500Y-20213389D01*
X23423402Y-20042299D01*
X23369873Y-19877555D01*
X23366428Y-19870793D01*
X23353533Y-19802123D01*
X23379811Y-19737384D01*
X23436918Y-19697127D01*
X23476914Y-19690500D01*
X23763086Y-19690500D01*
X23830125Y-19710185D01*
X23875880Y-19762989D01*
X23885824Y-19832147D01*
X23873572Y-19870793D01*
X23870128Y-19877551D01*
X23816597Y-20042302D01*
X23789500Y-20213389D01*
X23789500Y-21786611D01*
X23816598Y-21957701D01*
X23870127Y-22122445D01*
X23948768Y-22276788D01*
X24050586Y-22416928D01*
X24050588Y-22416930D01*
X24078852Y-22445194D01*
X24112337Y-22506517D01*
X24107353Y-22576209D01*
X24065481Y-22632142D01*
X24064061Y-22633190D01*
X24043107Y-22648414D01*
X23898416Y-22793105D01*
X23813513Y-22909962D01*
X23813514Y-22909963D01*
X24513222Y-23609671D01*
X24489901Y-23632993D01*
X24424075Y-23747007D01*
X24390000Y-23874174D01*
X24390000Y-24005826D01*
X24424075Y-24132993D01*
X24489901Y-24247007D01*
X24582993Y-24340099D01*
X24697007Y-24405925D01*
X24824174Y-24440000D01*
X24955826Y-24440000D01*
X25082993Y-24405925D01*
X25197007Y-24340099D01*
X25197107Y-24339999D01*
X25243552Y-24339999D01*
X25243552Y-24340000D01*
X26171187Y-25267635D01*
X26237023Y-25265755D01*
X26296856Y-25301835D01*
X26327684Y-25364536D01*
X26329500Y-25385681D01*
X26329500Y-25884856D01*
X26329502Y-25884882D01*
X26332413Y-25909987D01*
X26332415Y-25909991D01*
X26377793Y-26012764D01*
X26377794Y-26012765D01*
X26457235Y-26092206D01*
X26560009Y-26137585D01*
X26585135Y-26140500D01*
X28274864Y-26140499D01*
X28274879Y-26140497D01*
X28274882Y-26140497D01*
X28299987Y-26137586D01*
X28299988Y-26137585D01*
X28299991Y-26137585D01*
X28402765Y-26092206D01*
X28482206Y-26012765D01*
X28527585Y-25909991D01*
X28530500Y-25884865D01*
X28530499Y-22795136D01*
X28530264Y-22793110D01*
X28527586Y-22770012D01*
X28527585Y-22770010D01*
X28527585Y-22770009D01*
X28482206Y-22667235D01*
X28402765Y-22587794D01*
X28348333Y-22563760D01*
X28294957Y-22518674D01*
X28274430Y-22451888D01*
X28293268Y-22384606D01*
X28298083Y-22377468D01*
X28371232Y-22276788D01*
X28449873Y-22122445D01*
X28503402Y-21957701D01*
X28530500Y-21786611D01*
X28530500Y-20213389D01*
X28503402Y-20042299D01*
X28449873Y-19877555D01*
X28371232Y-19723212D01*
X28269414Y-19583072D01*
X28146928Y-19460586D01*
X28006788Y-19358768D01*
X27852445Y-19280127D01*
X27687701Y-19226598D01*
X27687699Y-19226597D01*
X27687698Y-19226597D01*
X27556271Y-19205781D01*
X27516611Y-19199500D01*
X27343389Y-19199500D01*
X27303728Y-19205781D01*
X27172302Y-19226597D01*
X27007552Y-19280128D01*
X26853211Y-19358768D01*
X26773256Y-19416859D01*
X26713072Y-19460586D01*
X26713070Y-19460588D01*
X26713069Y-19460588D01*
X26590588Y-19583069D01*
X26590588Y-19583070D01*
X26590586Y-19583072D01*
X26568149Y-19613954D01*
X26488768Y-19723211D01*
X26410128Y-19877552D01*
X26356597Y-20042302D01*
X26329500Y-20213389D01*
X26329500Y-21786611D01*
X26356598Y-21957701D01*
X26410127Y-22122445D01*
X26488768Y-22276788D01*
X26561897Y-22377442D01*
X26585377Y-22443246D01*
X26569552Y-22511300D01*
X26519446Y-22559995D01*
X26511666Y-22563760D01*
X26457234Y-22587794D01*
X26377794Y-22667234D01*
X26332415Y-22770006D01*
X26332415Y-22770008D01*
X26329500Y-22795131D01*
X26329500Y-23294317D01*
X26309815Y-23361356D01*
X26257011Y-23407111D01*
X26187853Y-23417055D01*
X26170525Y-23413025D01*
X25243552Y-24339999D01*
X25197107Y-24339999D01*
X25290099Y-24247007D01*
X25355925Y-24132993D01*
X25390000Y-24005826D01*
X25390000Y-23874174D01*
X25355925Y-23747007D01*
X25290099Y-23632993D01*
X25266777Y-23609671D01*
X25966484Y-22909963D01*
X25966485Y-22909961D01*
X25881587Y-22793110D01*
X25881582Y-22793104D01*
X25736895Y-22648417D01*
X25736889Y-22648412D01*
X25715940Y-22633191D01*
X25673276Y-22577860D01*
X25667298Y-22508247D01*
X25699906Y-22446453D01*
X25701017Y-22445324D01*
X25729414Y-22416928D01*
X25831232Y-22276788D01*
X25909873Y-22122445D01*
X25963402Y-21957701D01*
X25990500Y-21786611D01*
X25990500Y-20213389D01*
X25963402Y-20042299D01*
X25909873Y-19877555D01*
X25831232Y-19723212D01*
X25827657Y-19718292D01*
X25804178Y-19652487D01*
X25820003Y-19584433D01*
X25855362Y-19546319D01*
X25854934Y-19545798D01*
X25858760Y-19542657D01*
X25859092Y-19542300D01*
X25859649Y-19541928D01*
X27589757Y-17811817D01*
X27651080Y-17778333D01*
X27677438Y-17775499D01*
X28285419Y-17775499D01*
X28285425Y-17775499D01*
X28388214Y-17764999D01*
X28554751Y-17709814D01*
X28704073Y-17617712D01*
X28828129Y-17493656D01*
X28837168Y-17479000D01*
X28889115Y-17432275D01*
X28958077Y-17421051D01*
X29022160Y-17448893D01*
X29048246Y-17478997D01*
X29057286Y-17493654D01*
X29057288Y-17493656D01*
X29181344Y-17617712D01*
X29330666Y-17709814D01*
X29497203Y-17764999D01*
X29599991Y-17775500D01*
X30600008Y-17775499D01*
X30600016Y-17775498D01*
X30600019Y-17775498D01*
X30661329Y-17769235D01*
X30702797Y-17764999D01*
X30869334Y-17709814D01*
X31018656Y-17617712D01*
X31142712Y-17493656D01*
X31234814Y-17344334D01*
X31289999Y-17177797D01*
X31300500Y-17075009D01*
X31300499Y-16274992D01*
X31289999Y-16172203D01*
X31234814Y-16005666D01*
X31142712Y-15856344D01*
X31048695Y-15762327D01*
X31015210Y-15701004D01*
X31020194Y-15631312D01*
X31048695Y-15586964D01*
X31142317Y-15493342D01*
X31234356Y-15344124D01*
X31234358Y-15344119D01*
X31289505Y-15177697D01*
X31289506Y-15177690D01*
X31299999Y-15074986D01*
X31300000Y-15074973D01*
X31300000Y-14925000D01*
X30224000Y-14925000D01*
X30156961Y-14905315D01*
X30111206Y-14852511D01*
X30100000Y-14801000D01*
X30100000Y-14675000D01*
X29974000Y-14675000D01*
X29906961Y-14655315D01*
X29861206Y-14602511D01*
X29850000Y-14551000D01*
X29850000Y-14425000D01*
X30350000Y-14425000D01*
X31299999Y-14425000D01*
X31299999Y-14275028D01*
X31299998Y-14275013D01*
X31289505Y-14172302D01*
X31234358Y-14005880D01*
X31234356Y-14005875D01*
X31142315Y-13856654D01*
X31018345Y-13732684D01*
X30869124Y-13640643D01*
X30869119Y-13640641D01*
X30702697Y-13585494D01*
X30702690Y-13585493D01*
X30599986Y-13575000D01*
X30350000Y-13575000D01*
X30350000Y-14425000D01*
X29850000Y-14425000D01*
X29850000Y-13575000D01*
X29600029Y-13575000D01*
X29600012Y-13575001D01*
X29497302Y-13585494D01*
X29330880Y-13640641D01*
X29330875Y-13640643D01*
X29181654Y-13732684D01*
X29057682Y-13856656D01*
X29048540Y-13871479D01*
X28996592Y-13918203D01*
X28927629Y-13929424D01*
X28863547Y-13901581D01*
X28837463Y-13871477D01*
X28828129Y-13856344D01*
X28704074Y-13732289D01*
X28704073Y-13732288D01*
X28554751Y-13640186D01*
X28388214Y-13585001D01*
X28388212Y-13585000D01*
X28285433Y-13574500D01*
X28285426Y-13574500D01*
X27585514Y-13574500D01*
X27518475Y-13554815D01*
X27497833Y-13538181D01*
X26372007Y-12412355D01*
X26372005Y-12412352D01*
X26253134Y-12293481D01*
X26253133Y-12293480D01*
X26160876Y-12240216D01*
X26160875Y-12240215D01*
X26116200Y-12214422D01*
X26060298Y-12199443D01*
X25963474Y-12173499D01*
X25805360Y-12173499D01*
X25797764Y-12173499D01*
X25797748Y-12173500D01*
X22982556Y-12173500D01*
X22915517Y-12153815D01*
X22894875Y-12137181D01*
X22741081Y-11983387D01*
X22707596Y-11922064D01*
X22712580Y-11852372D01*
X22754452Y-11796439D01*
X22819916Y-11772022D01*
X22867082Y-11777776D01*
X22898736Y-11788061D01*
X22898750Y-11788065D01*
X23000000Y-11804101D01*
X23000000Y-10600277D01*
X23076306Y-10644333D01*
X23190756Y-10675000D01*
X23309244Y-10675000D01*
X23423694Y-10644333D01*
X23500000Y-10600277D01*
X23500000Y-11804100D01*
X23601249Y-11788065D01*
X23601255Y-11788063D01*
X23825804Y-11715102D01*
X24036171Y-11607914D01*
X24227186Y-11469133D01*
X24394133Y-11302186D01*
X24532914Y-11111171D01*
X24640102Y-10900802D01*
X24713065Y-10676247D01*
X24750000Y-10443052D01*
X24750000Y-9575000D01*
X23700000Y-9575000D01*
X23700000Y-9075000D01*
X24750000Y-9075000D01*
X24750000Y-8206947D01*
X24713065Y-7973752D01*
X24640102Y-7749197D01*
X24532914Y-7538828D01*
X24394133Y-7347813D01*
X24227186Y-7180866D01*
X24036171Y-7042085D01*
X23825802Y-6934897D01*
X23601247Y-6861934D01*
X23500000Y-6845897D01*
X23500000Y-8049722D01*
X23423694Y-8005667D01*
X23309244Y-7975000D01*
X23190756Y-7975000D01*
X23076306Y-8005667D01*
X23000000Y-8049722D01*
X23000000Y-6845897D01*
X22898752Y-6861934D01*
X22674197Y-6934897D01*
X22463828Y-7042085D01*
X22272813Y-7180866D01*
X22105866Y-7347813D01*
X21967085Y-7538828D01*
X21859897Y-7749197D01*
X21786934Y-7973752D01*
X21750000Y-8206947D01*
X21750000Y-9075000D01*
X22800000Y-9075000D01*
X22800000Y-9575000D01*
X21750000Y-9575000D01*
X21750000Y-10443052D01*
X21786934Y-10676247D01*
X21859897Y-10900802D01*
X21967087Y-11111174D01*
X22087286Y-11276614D01*
X22091516Y-11288470D01*
X22099762Y-11297986D01*
X22103035Y-11320755D01*
X22110766Y-11342420D01*
X22107914Y-11354683D01*
X22109706Y-11367145D01*
X22100151Y-11388067D01*
X22094941Y-11410474D01*
X22085911Y-11419248D01*
X22080682Y-11430701D01*
X22061331Y-11443137D01*
X22044835Y-11459169D01*
X22031088Y-11462573D01*
X22021904Y-11468476D01*
X21986970Y-11473498D01*
X21986969Y-11473499D01*
X21903402Y-11473499D01*
X21903398Y-11473499D01*
X21895791Y-11473500D01*
X21895790Y-11473499D01*
X21895790Y-11473500D01*
X21599098Y-11473500D01*
X21532059Y-11453815D01*
X21511417Y-11437181D01*
X21136819Y-11062583D01*
X21103334Y-11001260D01*
X21100500Y-10974902D01*
X21100500Y-10005945D01*
X21100500Y-10005943D01*
X21059577Y-9853216D01*
X21000000Y-9750024D01*
X20980524Y-9716290D01*
X20980518Y-9716282D01*
X20886819Y-9622583D01*
X20853334Y-9561260D01*
X20850500Y-9534902D01*
X20850500Y-8765249D01*
X20850499Y-8765247D01*
X20838868Y-8706770D01*
X20838867Y-8706769D01*
X20794552Y-8640447D01*
X20728230Y-8596132D01*
X20728229Y-8596131D01*
X20669752Y-8584500D01*
X20669748Y-8584500D01*
X20330252Y-8584500D01*
X20274190Y-8595651D01*
X20265913Y-8595654D01*
X20261159Y-8597530D01*
X20226184Y-8595670D01*
X20225914Y-8595671D01*
X20225814Y-8595651D01*
X20225810Y-8595651D01*
X20225141Y-8595518D01*
X20224738Y-8595438D01*
X20169748Y-8584500D01*
X20169499Y-8584500D01*
X20163323Y-8583277D01*
X20137467Y-8569780D01*
X20110426Y-8558848D01*
X20104132Y-8552380D01*
X20101384Y-8550946D01*
X20099467Y-8547586D01*
X20088143Y-8535950D01*
X20007190Y-8427812D01*
X20007187Y-8427809D01*
X19892093Y-8341649D01*
X19892086Y-8341645D01*
X19829378Y-8318257D01*
X19757379Y-8291403D01*
X19757372Y-8291401D01*
X19697844Y-8285000D01*
X19650000Y-8285000D01*
X19650000Y-8754084D01*
X19648509Y-8759161D01*
X19649500Y-8759161D01*
X19649500Y-9534902D01*
X19629815Y-9601941D01*
X19613181Y-9622583D01*
X19587681Y-9648083D01*
X19526358Y-9681568D01*
X19456666Y-9676584D01*
X19412319Y-9648083D01*
X19386819Y-9622583D01*
X19353334Y-9561260D01*
X19350500Y-9534902D01*
X19350500Y-8764262D01*
X19350000Y-8754084D01*
X19350000Y-8285000D01*
X19302155Y-8285000D01*
X19242627Y-8291401D01*
X19242620Y-8291403D01*
X19107913Y-8341645D01*
X19107906Y-8341649D01*
X18992812Y-8427809D01*
X18911856Y-8535951D01*
X18889806Y-8552456D01*
X18869970Y-8571564D01*
X18860510Y-8574386D01*
X18855922Y-8577821D01*
X18836677Y-8583277D01*
X18830501Y-8584500D01*
X18830252Y-8584500D01*
X18775216Y-8595447D01*
X18774637Y-8595562D01*
X18774190Y-8595651D01*
X18774188Y-8595651D01*
X18774087Y-8595671D01*
X18773866Y-8595651D01*
X18725810Y-8595651D01*
X18669748Y-8584500D01*
X18330252Y-8584500D01*
X18274190Y-8595651D01*
X18225810Y-8595651D01*
X18169748Y-8584500D01*
X17830252Y-8584500D01*
X17774190Y-8595651D01*
X17725810Y-8595651D01*
X17669748Y-8584500D01*
X17330252Y-8584500D01*
X17274190Y-8595651D01*
X17265913Y-8595654D01*
X17261159Y-8597530D01*
X17226184Y-8595670D01*
X17225914Y-8595671D01*
X17225814Y-8595651D01*
X17225810Y-8595651D01*
X17225141Y-8595518D01*
X17224738Y-8595438D01*
X17169748Y-8584500D01*
X17169499Y-8584500D01*
X17163323Y-8583277D01*
X17137467Y-8569780D01*
X17110426Y-8558848D01*
X17104132Y-8552380D01*
X17101384Y-8550946D01*
X17099467Y-8547586D01*
X17088143Y-8535950D01*
X17007190Y-8427812D01*
X17007187Y-8427809D01*
X16892093Y-8341649D01*
X16892086Y-8341645D01*
X16757379Y-8291403D01*
X16757372Y-8291401D01*
X16697844Y-8285000D01*
X16650000Y-8285000D01*
X16650000Y-8754084D01*
X16648509Y-8759161D01*
X16649500Y-8759161D01*
X16649500Y-9534902D01*
X16629815Y-9601941D01*
X16613181Y-9622583D01*
X16562181Y-9673583D01*
X16500858Y-9707068D01*
X16431166Y-9702084D01*
X16375233Y-9660212D01*
X16350816Y-9594748D01*
X16350500Y-9585902D01*
X16350500Y-8764262D01*
X16350000Y-8754084D01*
X16350000Y-8285000D01*
X16302155Y-8285000D01*
X16242627Y-8291401D01*
X16242620Y-8291403D01*
X16107913Y-8341645D01*
X16107906Y-8341649D01*
X15992812Y-8427809D01*
X15911856Y-8535951D01*
X15889806Y-8552456D01*
X15869970Y-8571564D01*
X15860510Y-8574386D01*
X15855922Y-8577821D01*
X15836677Y-8583277D01*
X15830501Y-8584500D01*
X15830252Y-8584500D01*
X15775216Y-8595447D01*
X15774637Y-8595562D01*
X15774190Y-8595651D01*
X15774188Y-8595651D01*
X15774087Y-8595671D01*
X15773866Y-8595651D01*
X15725810Y-8595651D01*
X15663775Y-8583312D01*
X15664307Y-8580632D01*
X15610426Y-8558848D01*
X15588143Y-8535950D01*
X15507190Y-8427812D01*
X15507187Y-8427809D01*
X15392093Y-8341649D01*
X15392086Y-8341645D01*
X15257379Y-8291403D01*
X15257372Y-8291401D01*
X15197844Y-8285000D01*
X15150000Y-8285000D01*
X15150000Y-8754084D01*
X15148509Y-8759161D01*
X15149500Y-8759161D01*
X15149500Y-9616902D01*
X15129815Y-9683941D01*
X15077011Y-9729696D01*
X15007853Y-9739640D01*
X14944297Y-9710615D01*
X14937819Y-9704583D01*
X14886819Y-9653583D01*
X14853334Y-9592260D01*
X14850500Y-9565902D01*
X14850500Y-8764262D01*
X14850000Y-8754084D01*
X14850000Y-8285000D01*
X14802155Y-8285000D01*
X14742627Y-8291401D01*
X14742620Y-8291403D01*
X14607913Y-8341645D01*
X14607906Y-8341649D01*
X14492812Y-8427809D01*
X14411856Y-8535951D01*
X14389806Y-8552456D01*
X14369970Y-8571564D01*
X14360510Y-8574386D01*
X14355922Y-8577821D01*
X14336677Y-8583277D01*
X14330501Y-8584500D01*
X14330252Y-8584500D01*
X14275216Y-8595447D01*
X14274637Y-8595562D01*
X14274190Y-8595651D01*
X14274188Y-8595651D01*
X14274087Y-8595671D01*
X14273866Y-8595651D01*
X14225810Y-8595651D01*
X14163775Y-8583312D01*
X14164307Y-8580632D01*
X14110426Y-8558848D01*
X14088143Y-8535950D01*
X14007190Y-8427812D01*
X14007187Y-8427809D01*
X13892093Y-8341649D01*
X13892086Y-8341645D01*
X13757379Y-8291403D01*
X13757372Y-8291401D01*
X13697844Y-8285000D01*
X13650000Y-8285000D01*
X13650000Y-8754084D01*
X13648509Y-8759161D01*
X13649500Y-8759161D01*
X13649500Y-9504030D01*
X13629815Y-9571069D01*
X13600993Y-9602401D01*
X13598284Y-9604479D01*
X13562181Y-9640583D01*
X13500858Y-9674068D01*
X13431166Y-9669084D01*
X13375233Y-9627212D01*
X13350816Y-9561748D01*
X13350500Y-9552902D01*
X13350500Y-8764262D01*
X13350000Y-8754084D01*
X13350000Y-8285000D01*
X13302155Y-8285000D01*
X13242627Y-8291401D01*
X13242620Y-8291403D01*
X13107913Y-8341645D01*
X13107906Y-8341649D01*
X12992812Y-8427809D01*
X12911856Y-8535951D01*
X12889806Y-8552456D01*
X12869970Y-8571564D01*
X12860510Y-8574386D01*
X12855922Y-8577821D01*
X12836677Y-8583277D01*
X12830501Y-8584500D01*
X12830252Y-8584500D01*
X12775216Y-8595447D01*
X12774637Y-8595562D01*
X12774190Y-8595651D01*
X12774188Y-8595651D01*
X12774087Y-8595671D01*
X12773866Y-8595651D01*
X12725810Y-8595651D01*
X12663775Y-8583312D01*
X12664307Y-8580632D01*
X12610426Y-8558848D01*
X12588143Y-8535950D01*
X12507190Y-8427812D01*
X12507187Y-8427809D01*
X12392093Y-8341649D01*
X12392086Y-8341645D01*
X12257379Y-8291403D01*
X12257372Y-8291401D01*
X12197844Y-8285000D01*
X12150000Y-8285000D01*
X12150000Y-8754084D01*
X12148509Y-8759161D01*
X12149500Y-8759161D01*
X12149500Y-9499855D01*
X12129815Y-9566894D01*
X12097403Y-9597799D01*
X12098733Y-9599532D01*
X12092281Y-9604482D01*
X12062181Y-9634583D01*
X12000858Y-9668068D01*
X11931166Y-9663084D01*
X11875233Y-9621212D01*
X11850816Y-9555748D01*
X11850500Y-9546902D01*
X11850500Y-8764262D01*
X11850000Y-8754084D01*
X11850000Y-8285000D01*
X11802155Y-8285000D01*
X11742627Y-8291401D01*
X11742620Y-8291403D01*
X11607913Y-8341645D01*
X11607906Y-8341649D01*
X11492812Y-8427809D01*
X11411856Y-8535951D01*
X11355922Y-8577821D01*
X11336050Y-8582429D01*
X11336226Y-8583311D01*
X11271770Y-8596131D01*
X11271769Y-8596132D01*
X11205447Y-8640447D01*
X11161132Y-8706769D01*
X11161131Y-8706770D01*
X11149500Y-8765247D01*
X11149500Y-9497545D01*
X11129815Y-9564584D01*
X11094072Y-9598666D01*
X11094735Y-9599530D01*
X11088282Y-9604481D01*
X10976481Y-9716282D01*
X10976475Y-9716290D01*
X10897426Y-9853209D01*
X10897423Y-9853216D01*
X10856500Y-10005943D01*
X10856500Y-10867903D01*
X10836815Y-10934942D01*
X10820181Y-10955584D01*
X10438584Y-11337181D01*
X10377261Y-11370666D01*
X10350903Y-11373500D01*
X10156376Y-11373500D01*
X10125024Y-11381901D01*
X10125019Y-11381902D01*
X10104631Y-11387364D01*
X10034782Y-11385698D01*
X9976921Y-11346533D01*
X9949419Y-11282304D01*
X9961009Y-11213402D01*
X9972226Y-11194702D01*
X10032912Y-11111175D01*
X10140102Y-10900802D01*
X10213065Y-10676247D01*
X10250000Y-10443052D01*
X10250000Y-9575000D01*
X9200000Y-9575000D01*
X9200000Y-9075000D01*
X10250000Y-9075000D01*
X10250000Y-8206947D01*
X10213065Y-7973752D01*
X10140102Y-7749197D01*
X10032914Y-7538828D01*
X9894133Y-7347813D01*
X9727186Y-7180866D01*
X9536171Y-7042085D01*
X9325802Y-6934897D01*
X9101247Y-6861934D01*
X9000000Y-6845897D01*
X9000000Y-8049722D01*
X8923694Y-8005667D01*
X8809244Y-7975000D01*
X8690756Y-7975000D01*
X8576306Y-8005667D01*
X8500000Y-8049722D01*
X8500000Y-6845897D01*
X8398752Y-6861934D01*
X8174197Y-6934897D01*
X7963828Y-7042085D01*
X7772813Y-7180866D01*
X7605866Y-7347813D01*
X7467085Y-7538828D01*
X7359897Y-7749197D01*
X7286934Y-7973752D01*
X7250000Y-8206947D01*
X7250000Y-9075000D01*
X8300000Y-9075000D01*
X8300000Y-9575000D01*
X7250000Y-9575000D01*
X7250000Y-10443052D01*
X7286934Y-10676247D01*
X7359897Y-10900802D01*
X7467085Y-11111171D01*
X7605866Y-11302186D01*
X7772813Y-11469133D01*
X7963828Y-11607914D01*
X8044065Y-11648797D01*
X8062449Y-11666159D01*
X8083386Y-11680329D01*
X8087416Y-11689740D01*
X8094861Y-11696771D01*
X8100938Y-11721312D01*
X8110893Y-11744556D01*
X8109195Y-11754654D01*
X8111656Y-11764592D01*
X8103501Y-11788521D01*
X8099309Y-11813459D01*
X8092421Y-11821036D01*
X8089119Y-11830727D01*
X8069319Y-11846450D01*
X8052312Y-11865161D01*
X8038089Y-11871252D01*
X8034404Y-11874179D01*
X8019868Y-11879056D01*
X8014617Y-11880463D01*
X8007146Y-11882465D01*
X7951244Y-11897444D01*
X7895342Y-11912423D01*
X7773293Y-11982888D01*
X7711294Y-11999500D01*
X3886669Y-11999500D01*
X3886653Y-11999499D01*
X3879057Y-11999499D01*
X3720943Y-11999499D01*
X3606397Y-12030192D01*
X3568214Y-12040423D01*
X3550959Y-12050385D01*
X3546333Y-12053057D01*
X3488808Y-12086268D01*
X3431285Y-12119479D01*
X3431282Y-12119481D01*
X3319478Y-12231286D01*
X2012582Y-13538181D01*
X1951259Y-13571666D01*
X1924902Y-13574500D01*
X1824999Y-13574500D01*
X1824980Y-13574501D01*
X1722203Y-13585000D01*
X1722200Y-13585001D01*
X1555668Y-13640185D01*
X1555663Y-13640187D01*
X1406342Y-13732289D01*
X1282289Y-13856342D01*
X1190187Y-14005663D01*
X1190185Y-14005668D01*
X1190115Y-14005880D01*
X1135001Y-14172203D01*
X1135001Y-14172204D01*
X1135000Y-14172204D01*
X1124500Y-14274983D01*
X400500Y-14274983D01*
X400500Y-8316947D01*
X420185Y-8249908D01*
X472989Y-8204153D01*
X524500Y-8192947D01*
X2767413Y-8192947D01*
X2767413Y-3736073D01*
X524500Y-3736073D01*
X515814Y-3733522D01*
X506853Y-3734811D01*
X482812Y-3723832D01*
X457461Y-3716388D01*
X451533Y-3709547D01*
X443297Y-3705786D01*
X429007Y-3683551D01*
X411706Y-3663584D01*
X409418Y-3653069D01*
X405523Y-3647008D01*
X400500Y-3612073D01*
X400500Y-2746947D01*
X7250000Y-2746947D01*
X7250000Y-3115000D01*
X8300000Y-3115000D01*
X8300000Y-3615000D01*
X7250000Y-3615000D01*
X7250000Y-3983052D01*
X7286934Y-4216247D01*
X7359897Y-4440802D01*
X7467085Y-4651171D01*
X7605866Y-4842186D01*
X7772813Y-5009133D01*
X7963828Y-5147914D01*
X8174195Y-5255102D01*
X8398744Y-5328063D01*
X8398750Y-5328065D01*
X8500000Y-5344101D01*
X8500000Y-4140277D01*
X8576306Y-4184333D01*
X8690756Y-4215000D01*
X8809244Y-4215000D01*
X8923694Y-4184333D01*
X9000000Y-4140277D01*
X9000000Y-5344100D01*
X9101249Y-5328065D01*
X9101255Y-5328063D01*
X9325804Y-5255102D01*
X9536171Y-5147914D01*
X9727186Y-5009133D01*
X9894133Y-4842186D01*
X10032914Y-4651171D01*
X10140102Y-4440802D01*
X10213065Y-4216247D01*
X10250000Y-3983052D01*
X10250000Y-3615000D01*
X9200000Y-3615000D01*
X9200000Y-3115000D01*
X10250000Y-3115000D01*
X10250000Y-2746947D01*
X21750000Y-2746947D01*
X21750000Y-3115000D01*
X22800000Y-3115000D01*
X22800000Y-3615000D01*
X21750000Y-3615000D01*
X21750000Y-3983052D01*
X21786934Y-4216247D01*
X21859897Y-4440802D01*
X21967085Y-4651171D01*
X22105866Y-4842186D01*
X22272813Y-5009133D01*
X22463828Y-5147914D01*
X22674195Y-5255102D01*
X22898744Y-5328063D01*
X22898750Y-5328065D01*
X23000000Y-5344101D01*
X23000000Y-4140277D01*
X23076306Y-4184333D01*
X23190756Y-4215000D01*
X23309244Y-4215000D01*
X23423694Y-4184333D01*
X23500000Y-4140277D01*
X23500000Y-5344100D01*
X23601249Y-5328065D01*
X23601255Y-5328063D01*
X23825804Y-5255102D01*
X24036171Y-5147914D01*
X24227186Y-5009133D01*
X24394133Y-4842186D01*
X24532914Y-4651171D01*
X24640102Y-4440802D01*
X24713065Y-4216247D01*
X24750000Y-3983052D01*
X24750000Y-3615000D01*
X23700000Y-3615000D01*
X23700000Y-3115000D01*
X24750000Y-3115000D01*
X24750000Y-2746947D01*
X24713065Y-2513752D01*
X24640102Y-2289197D01*
X24532914Y-2078828D01*
X24394133Y-1887813D01*
X24227186Y-1720866D01*
X24036171Y-1582085D01*
X23825802Y-1474897D01*
X23601247Y-1401934D01*
X23500000Y-1385897D01*
X23500000Y-2589722D01*
X23423694Y-2545667D01*
X23309244Y-2515000D01*
X23190756Y-2515000D01*
X23076306Y-2545667D01*
X23000000Y-2589722D01*
X23000000Y-1385897D01*
X22898752Y-1401934D01*
X22674197Y-1474897D01*
X22463828Y-1582085D01*
X22272813Y-1720866D01*
X22105866Y-1887813D01*
X21967085Y-2078828D01*
X21859897Y-2289197D01*
X21786934Y-2513752D01*
X21750000Y-2746947D01*
X10250000Y-2746947D01*
X10213065Y-2513752D01*
X10140102Y-2289197D01*
X10032914Y-2078828D01*
X9894133Y-1887813D01*
X9727186Y-1720866D01*
X9536171Y-1582085D01*
X9325802Y-1474897D01*
X9101247Y-1401934D01*
X9000000Y-1385897D01*
X9000000Y-2589722D01*
X8923694Y-2545667D01*
X8809244Y-2515000D01*
X8690756Y-2515000D01*
X8576306Y-2545667D01*
X8500000Y-2589722D01*
X8500000Y-1385897D01*
X8398752Y-1401934D01*
X8174197Y-1474897D01*
X7963828Y-1582085D01*
X7772813Y-1720866D01*
X7605866Y-1887813D01*
X7467085Y-2078828D01*
X7359897Y-2289197D01*
X7286934Y-2513752D01*
X7250000Y-2746947D01*
X400500Y-2746947D01*
X400500Y-524500D01*
X420185Y-457461D01*
X472989Y-411706D01*
X524500Y-400500D01*
X26677591Y-400500D01*
X26744630Y-420185D01*
G37*
%TD.AperFunction*%
%TD*%
%TA.AperFunction,NonConductor*%
G36*
X16757703Y-12244384D02*
G01*
X16764181Y-12250416D01*
X17202773Y-12689008D01*
X17236258Y-12750331D01*
X17231274Y-12820023D01*
X17189402Y-12875956D01*
X17123938Y-12900373D01*
X17055665Y-12885521D01*
X17049996Y-12882228D01*
X16981840Y-12840189D01*
X16981835Y-12840187D01*
X16981834Y-12840186D01*
X16815297Y-12785001D01*
X16815295Y-12785000D01*
X16712516Y-12774500D01*
X16712509Y-12774500D01*
X16676500Y-12774500D01*
X16609461Y-12754815D01*
X16563706Y-12702011D01*
X16552500Y-12650500D01*
X16552500Y-12338097D01*
X16572185Y-12271058D01*
X16624989Y-12225303D01*
X16694147Y-12215359D01*
X16757703Y-12244384D01*
G37*
%TD.AperFunction*%
%TA.AperFunction,NonConductor*%
G36*
X4432524Y-13220185D02*
G01*
X4478279Y-13272989D01*
X4488223Y-13342147D01*
X4459198Y-13405703D01*
X4453173Y-13412173D01*
X4369145Y-13496202D01*
X4327165Y-13538182D01*
X4265842Y-13571666D01*
X4239485Y-13574500D01*
X4139582Y-13574500D01*
X4139563Y-13574501D01*
X4036786Y-13585000D01*
X4036780Y-13585002D01*
X3976243Y-13605062D01*
X3969510Y-13605293D01*
X3963598Y-13608522D01*
X3935036Y-13606479D01*
X3906415Y-13607464D01*
X3900625Y-13604018D01*
X3893906Y-13603538D01*
X3870984Y-13586378D01*
X3846373Y-13571732D01*
X3843364Y-13565702D01*
X3837973Y-13561666D01*
X3827967Y-13534839D01*
X3815181Y-13509211D01*
X3815910Y-13502513D01*
X3813556Y-13496202D01*
X3819643Y-13468220D01*
X3822742Y-13439752D01*
X3827326Y-13432900D01*
X3828408Y-13427929D01*
X3849553Y-13399680D01*
X4012418Y-13236816D01*
X4073739Y-13203334D01*
X4100097Y-13200500D01*
X4365485Y-13200500D01*
X4432524Y-13220185D01*
G37*
%TD.AperFunction*%
%TA.AperFunction,NonConductor*%
G36*
X17449243Y-14648893D02*
G01*
X17475329Y-14678997D01*
X17484370Y-14693655D01*
X17578034Y-14787319D01*
X17581138Y-14793005D01*
X17586483Y-14796673D01*
X17597680Y-14823298D01*
X17611519Y-14848642D01*
X17611056Y-14855105D01*
X17613569Y-14861079D01*
X17608595Y-14889525D01*
X17606535Y-14918334D01*
X17602372Y-14925112D01*
X17601535Y-14929905D01*
X17586883Y-14950339D01*
X17581563Y-14959004D01*
X17579837Y-14960877D01*
X17484371Y-15056344D01*
X17469077Y-15081138D01*
X17461001Y-15089908D01*
X17440852Y-15102010D01*
X17423378Y-15117727D01*
X17411459Y-15119666D01*
X17401106Y-15125885D01*
X17377612Y-15125172D01*
X17354415Y-15128947D01*
X17343338Y-15124133D01*
X17331268Y-15123768D01*
X17311888Y-15110467D01*
X17290334Y-15101101D01*
X17278731Y-15087710D01*
X17273661Y-15084231D01*
X17271723Y-15079623D01*
X17264252Y-15071001D01*
X17261263Y-15066155D01*
X17255212Y-15056344D01*
X17161549Y-14962681D01*
X17128064Y-14901358D01*
X17133048Y-14831666D01*
X17161549Y-14787319D01*
X17204534Y-14744334D01*
X17255212Y-14693656D01*
X17264251Y-14679000D01*
X17316198Y-14632275D01*
X17385160Y-14621051D01*
X17449243Y-14648893D01*
G37*
%TD.AperFunction*%
%TA.AperFunction,NonConductor*%
G36*
X19655354Y-14710608D02*
G01*
X19711288Y-14752479D01*
X19717557Y-14761688D01*
X19733366Y-14787319D01*
X19798954Y-14893655D01*
X19892618Y-14987319D01*
X19896956Y-14995264D01*
X19904205Y-15000691D01*
X19913439Y-15025450D01*
X19926103Y-15048642D01*
X19925457Y-15057672D01*
X19928621Y-15066155D01*
X19923004Y-15091975D01*
X19921119Y-15118334D01*
X19915300Y-15127387D01*
X19913769Y-15134428D01*
X19892617Y-15162682D01*
X19844407Y-15210891D01*
X19783084Y-15244375D01*
X19713392Y-15239390D01*
X19657459Y-15197518D01*
X19651195Y-15188316D01*
X19569795Y-15056344D01*
X19476132Y-14962681D01*
X19471793Y-14954735D01*
X19464547Y-14949311D01*
X19455311Y-14924551D01*
X19442647Y-14901358D01*
X19443292Y-14892328D01*
X19440129Y-14883847D01*
X19445745Y-14858024D01*
X19447631Y-14831666D01*
X19453448Y-14822613D01*
X19454980Y-14815574D01*
X19476131Y-14787320D01*
X19500134Y-14763317D01*
X19524342Y-14739108D01*
X19585663Y-14705624D01*
X19655354Y-14710608D01*
G37*
%TD.AperFunction*%
%TA.AperFunction,NonConductor*%
G36*
X15207014Y-14731590D02*
G01*
X15215242Y-14739110D01*
X15263451Y-14787319D01*
X15296936Y-14848642D01*
X15291952Y-14918334D01*
X15263451Y-14962681D01*
X15169789Y-15056342D01*
X15088394Y-15188305D01*
X15071101Y-15203858D01*
X15057165Y-15222475D01*
X15045613Y-15226783D01*
X15036446Y-15235029D01*
X15013491Y-15238764D01*
X14991701Y-15246892D01*
X14979653Y-15244271D01*
X14967483Y-15246252D01*
X14946151Y-15236983D01*
X14923428Y-15232040D01*
X14907731Y-15220289D01*
X14903401Y-15218408D01*
X14895174Y-15210889D01*
X14846966Y-15162681D01*
X14813481Y-15101358D01*
X14818465Y-15031666D01*
X14846966Y-14987319D01*
X14889951Y-14944334D01*
X14940629Y-14893656D01*
X15022023Y-14761693D01*
X15073969Y-14714970D01*
X15142932Y-14703747D01*
X15207014Y-14731590D01*
G37*
%TD.AperFunction*%
%TA.AperFunction,NonConductor*%
G36*
X21969937Y-14910609D02*
G01*
X22025871Y-14952480D01*
X22032140Y-14961688D01*
X22112501Y-15091975D01*
X22113539Y-15093657D01*
X22207201Y-15187319D01*
X22211539Y-15195264D01*
X22218788Y-15200691D01*
X22228022Y-15225450D01*
X22240686Y-15248642D01*
X22240040Y-15257672D01*
X22243204Y-15266155D01*
X22237587Y-15291975D01*
X22235702Y-15318334D01*
X22229883Y-15327387D01*
X22228352Y-15334428D01*
X22207200Y-15362682D01*
X22158991Y-15410890D01*
X22097668Y-15444374D01*
X22027976Y-15439389D01*
X21972043Y-15397517D01*
X21965772Y-15388304D01*
X21965164Y-15387319D01*
X21884379Y-15256344D01*
X21790716Y-15162681D01*
X21786377Y-15154735D01*
X21779131Y-15149311D01*
X21769895Y-15124551D01*
X21757231Y-15101358D01*
X21757876Y-15092328D01*
X21754713Y-15083847D01*
X21760329Y-15058024D01*
X21762215Y-15031666D01*
X21768032Y-15022613D01*
X21769564Y-15015574D01*
X21790715Y-14987320D01*
X21814718Y-14963317D01*
X21838925Y-14939109D01*
X21900246Y-14905625D01*
X21969937Y-14910609D01*
G37*
%TD.AperFunction*%
%TA.AperFunction,NonConductor*%
G36*
X24284520Y-15110609D02*
G01*
X24340454Y-15152480D01*
X24346723Y-15161688D01*
X24428120Y-15293655D01*
X24428122Y-15293657D01*
X24521784Y-15387319D01*
X24526122Y-15395264D01*
X24533371Y-15400691D01*
X24542605Y-15425450D01*
X24555269Y-15448642D01*
X24554623Y-15457672D01*
X24557787Y-15466155D01*
X24552170Y-15491975D01*
X24550285Y-15518334D01*
X24544466Y-15527387D01*
X24542935Y-15534428D01*
X24521783Y-15562682D01*
X24473574Y-15610890D01*
X24412251Y-15644374D01*
X24342559Y-15639389D01*
X24286626Y-15597517D01*
X24280355Y-15588304D01*
X24279747Y-15587319D01*
X24198962Y-15456344D01*
X24105299Y-15362681D01*
X24100960Y-15354735D01*
X24093714Y-15349311D01*
X24084478Y-15324551D01*
X24071814Y-15301358D01*
X24072459Y-15292328D01*
X24069296Y-15283847D01*
X24074912Y-15258024D01*
X24076798Y-15231666D01*
X24082615Y-15222613D01*
X24084147Y-15215574D01*
X24105298Y-15187320D01*
X24129302Y-15163316D01*
X24153508Y-15139109D01*
X24214829Y-15105625D01*
X24284520Y-15110609D01*
G37*
%TD.AperFunction*%
%TA.AperFunction,NonConductor*%
G36*
X10505493Y-15248893D02*
G01*
X10531579Y-15278997D01*
X10540620Y-15293655D01*
X10634284Y-15387319D01*
X10637388Y-15393005D01*
X10642733Y-15396673D01*
X10653930Y-15423298D01*
X10667769Y-15448642D01*
X10667306Y-15455105D01*
X10669819Y-15461079D01*
X10664845Y-15489525D01*
X10662785Y-15518334D01*
X10658622Y-15525112D01*
X10657785Y-15529905D01*
X10643133Y-15550339D01*
X10637813Y-15559004D01*
X10636087Y-15560877D01*
X10540621Y-15656344D01*
X10525327Y-15681138D01*
X10517251Y-15689908D01*
X10497102Y-15702010D01*
X10479628Y-15717727D01*
X10467709Y-15719666D01*
X10457356Y-15725885D01*
X10433862Y-15725172D01*
X10410665Y-15728947D01*
X10399588Y-15724133D01*
X10387518Y-15723768D01*
X10368138Y-15710467D01*
X10346584Y-15701101D01*
X10334981Y-15687710D01*
X10329911Y-15684231D01*
X10327973Y-15679623D01*
X10320502Y-15671001D01*
X10317513Y-15666155D01*
X10311462Y-15656344D01*
X10217799Y-15562681D01*
X10184314Y-15501358D01*
X10189298Y-15431666D01*
X10217799Y-15387319D01*
X10260999Y-15344119D01*
X10311462Y-15293656D01*
X10320501Y-15279000D01*
X10372448Y-15232275D01*
X10441410Y-15221051D01*
X10505493Y-15248893D01*
G37*
%TD.AperFunction*%
%TA.AperFunction,NonConductor*%
G36*
X8190910Y-15248893D02*
G01*
X8216996Y-15278997D01*
X8226037Y-15293655D01*
X8319701Y-15387319D01*
X8322805Y-15393005D01*
X8328150Y-15396673D01*
X8339347Y-15423298D01*
X8353186Y-15448642D01*
X8352723Y-15455105D01*
X8355236Y-15461079D01*
X8350262Y-15489525D01*
X8348202Y-15518334D01*
X8344039Y-15525112D01*
X8343202Y-15529905D01*
X8328550Y-15550339D01*
X8323230Y-15559004D01*
X8321504Y-15560877D01*
X8226038Y-15656344D01*
X8210744Y-15681138D01*
X8202668Y-15689908D01*
X8182519Y-15702010D01*
X8165045Y-15717727D01*
X8153126Y-15719666D01*
X8142773Y-15725885D01*
X8119279Y-15725172D01*
X8096082Y-15728947D01*
X8085005Y-15724133D01*
X8072935Y-15723768D01*
X8053555Y-15710467D01*
X8032001Y-15701101D01*
X8020398Y-15687710D01*
X8015328Y-15684231D01*
X8013390Y-15679623D01*
X8005919Y-15671001D01*
X8002930Y-15666155D01*
X7996879Y-15656344D01*
X7903216Y-15562681D01*
X7869731Y-15501358D01*
X7874715Y-15431666D01*
X7903216Y-15387319D01*
X7946416Y-15344119D01*
X7996879Y-15293656D01*
X8005918Y-15279000D01*
X8057865Y-15232275D01*
X8126827Y-15221051D01*
X8190910Y-15248893D01*
G37*
%TD.AperFunction*%
%TA.AperFunction,NonConductor*%
G36*
X26599104Y-15310608D02*
G01*
X26655038Y-15352479D01*
X26661307Y-15361688D01*
X26661920Y-15362682D01*
X26742704Y-15493655D01*
X26836368Y-15587319D01*
X26840706Y-15595264D01*
X26847955Y-15600691D01*
X26857189Y-15625450D01*
X26869853Y-15648642D01*
X26869207Y-15657672D01*
X26872371Y-15666155D01*
X26866754Y-15691975D01*
X26864869Y-15718334D01*
X26859050Y-15727387D01*
X26857519Y-15734428D01*
X26836367Y-15762682D01*
X26788157Y-15810891D01*
X26726834Y-15844375D01*
X26657142Y-15839390D01*
X26601209Y-15797518D01*
X26594939Y-15788306D01*
X26513545Y-15656344D01*
X26419882Y-15562681D01*
X26415543Y-15554735D01*
X26408297Y-15549311D01*
X26399061Y-15524551D01*
X26386397Y-15501358D01*
X26387042Y-15492328D01*
X26383879Y-15483847D01*
X26389495Y-15458024D01*
X26391381Y-15431666D01*
X26397198Y-15422613D01*
X26398730Y-15415574D01*
X26419881Y-15387320D01*
X26434998Y-15372203D01*
X26468092Y-15339108D01*
X26529413Y-15305624D01*
X26599104Y-15310608D01*
G37*
%TD.AperFunction*%
%TA.AperFunction,NonConductor*%
G36*
X5948680Y-15331589D02*
G01*
X5956908Y-15339109D01*
X6005118Y-15387319D01*
X6038603Y-15448642D01*
X6033619Y-15518334D01*
X6005118Y-15562681D01*
X5911456Y-15656342D01*
X5885315Y-15698724D01*
X5830062Y-15788305D01*
X5830061Y-15788306D01*
X5812768Y-15803859D01*
X5798832Y-15822476D01*
X5787280Y-15826784D01*
X5778113Y-15835030D01*
X5755158Y-15838765D01*
X5733368Y-15846893D01*
X5721320Y-15844272D01*
X5709150Y-15846253D01*
X5687818Y-15836984D01*
X5665095Y-15832041D01*
X5649398Y-15820290D01*
X5645068Y-15818409D01*
X5636841Y-15810890D01*
X5588632Y-15762681D01*
X5555147Y-15701358D01*
X5560131Y-15631666D01*
X5588632Y-15587319D01*
X5626640Y-15549311D01*
X5682295Y-15493656D01*
X5763690Y-15361691D01*
X5815635Y-15314969D01*
X5884598Y-15303746D01*
X5948680Y-15331589D01*
G37*
%TD.AperFunction*%
%TA.AperFunction,NonConductor*%
G36*
X28948726Y-15422143D02*
G01*
X28958370Y-15420574D01*
X28981972Y-15430828D01*
X29006875Y-15437334D01*
X29018205Y-15446570D01*
X29022453Y-15448416D01*
X29027226Y-15453925D01*
X29034231Y-15459635D01*
X29154852Y-15590663D01*
X29169226Y-15619786D01*
X29184789Y-15648288D01*
X29184599Y-15650935D01*
X29185775Y-15653317D01*
X29182121Y-15685587D01*
X29179805Y-15717980D01*
X29178213Y-15720105D01*
X29177915Y-15722743D01*
X29151305Y-15762327D01*
X29057283Y-15856349D01*
X29048244Y-15871004D01*
X28996295Y-15917727D01*
X28927332Y-15928947D01*
X28863251Y-15901101D01*
X28851497Y-15889908D01*
X28843426Y-15881144D01*
X28828129Y-15856344D01*
X28732649Y-15760864D01*
X28730936Y-15759004D01*
X28716546Y-15729863D01*
X28700981Y-15701358D01*
X28701169Y-15698724D01*
X28700000Y-15696356D01*
X28703647Y-15664071D01*
X28705965Y-15631666D01*
X28707595Y-15629129D01*
X28707844Y-15626928D01*
X28713363Y-15620154D01*
X28734466Y-15587319D01*
X28772474Y-15549311D01*
X28828129Y-15493656D01*
X28837464Y-15478521D01*
X28856597Y-15461310D01*
X28872857Y-15441365D01*
X28882143Y-15438332D01*
X28889408Y-15431798D01*
X28914809Y-15427663D01*
X28939274Y-15419674D01*
X28948726Y-15422143D01*
G37*
%TD.AperFunction*%
%TA.AperFunction,NonConductor*%
G36*
X3561743Y-15448893D02*
G01*
X3587829Y-15478997D01*
X3596870Y-15493655D01*
X3690534Y-15587319D01*
X3693638Y-15593005D01*
X3698983Y-15596673D01*
X3710180Y-15623298D01*
X3724019Y-15648642D01*
X3723556Y-15655105D01*
X3726069Y-15661079D01*
X3721095Y-15689525D01*
X3719035Y-15718334D01*
X3714872Y-15725112D01*
X3714035Y-15729905D01*
X3699383Y-15750339D01*
X3694063Y-15759004D01*
X3692337Y-15760877D01*
X3596871Y-15856344D01*
X3581577Y-15881138D01*
X3573501Y-15889908D01*
X3553352Y-15902010D01*
X3535878Y-15917727D01*
X3523959Y-15919666D01*
X3513606Y-15925885D01*
X3490112Y-15925172D01*
X3466915Y-15928947D01*
X3455838Y-15924133D01*
X3443768Y-15923768D01*
X3424388Y-15910467D01*
X3402834Y-15901101D01*
X3391231Y-15887710D01*
X3386161Y-15884231D01*
X3384223Y-15879623D01*
X3376752Y-15871001D01*
X3367712Y-15856344D01*
X3274049Y-15762681D01*
X3240564Y-15701358D01*
X3245548Y-15631666D01*
X3274049Y-15587319D01*
X3312057Y-15549311D01*
X3367712Y-15493656D01*
X3376751Y-15479000D01*
X3428698Y-15432275D01*
X3497660Y-15421051D01*
X3561743Y-15448893D01*
G37*
%TD.AperFunction*%
%TA.AperFunction,NonConductor*%
G36*
X23396851Y-17395184D02*
G01*
X23442606Y-17447988D01*
X23452550Y-17517146D01*
X23423525Y-17580702D01*
X23417493Y-17587180D01*
X23311492Y-17693181D01*
X23250169Y-17726666D01*
X23223811Y-17729500D01*
X22942271Y-17729500D01*
X22875232Y-17709815D01*
X22829477Y-17657011D01*
X22819533Y-17587853D01*
X22848558Y-17524297D01*
X22854578Y-17517830D01*
X22960591Y-17411816D01*
X23021912Y-17378333D01*
X23048271Y-17375499D01*
X23329812Y-17375499D01*
X23396851Y-17395184D01*
G37*
%TD.AperFunction*%
%TA.AperFunction,NonConductor*%
G36*
X8126521Y-17221100D02*
G01*
X8126827Y-17221051D01*
X8158636Y-17234871D01*
X8190452Y-17248513D01*
X8190723Y-17248811D01*
X8190910Y-17248893D01*
X8193256Y-17251600D01*
X8214181Y-17274640D01*
X8215638Y-17276795D01*
X8226038Y-17293656D01*
X8229126Y-17296744D01*
X8235530Y-17306215D01*
X8244801Y-17335266D01*
X8256214Y-17363555D01*
X8255324Y-17368237D01*
X8256773Y-17372777D01*
X8248865Y-17402232D01*
X8243173Y-17432197D01*
X8239893Y-17435654D01*
X8238658Y-17440258D01*
X8220488Y-17463351D01*
X7952181Y-17731658D01*
X7890858Y-17765143D01*
X7821166Y-17760159D01*
X7765233Y-17718287D01*
X7740816Y-17652823D01*
X7740500Y-17643977D01*
X7740500Y-17568535D01*
X7760185Y-17501496D01*
X7799402Y-17462997D01*
X7872823Y-17417712D01*
X7996879Y-17293656D01*
X8005918Y-17279000D01*
X8031590Y-17255908D01*
X8057329Y-17232533D01*
X8057635Y-17232481D01*
X8057865Y-17232275D01*
X8092061Y-17226709D01*
X8126237Y-17220979D01*
X8126521Y-17221100D01*
G37*
%TD.AperFunction*%
%TA.AperFunction,NonConductor*%
G36*
X5948680Y-17331589D02*
G01*
X5956908Y-17339109D01*
X6035511Y-17417712D01*
X6184833Y-17509814D01*
X6324505Y-17556096D01*
X6381949Y-17595869D01*
X6408772Y-17660384D01*
X6409500Y-17673802D01*
X6409500Y-18193979D01*
X6389815Y-18261018D01*
X6337011Y-18306773D01*
X6267853Y-18316717D01*
X6204297Y-18287692D01*
X6197819Y-18281660D01*
X5633736Y-17717577D01*
X5600251Y-17656254D01*
X5605235Y-17586562D01*
X5633736Y-17542215D01*
X5651944Y-17524007D01*
X5682295Y-17493656D01*
X5763690Y-17361691D01*
X5815635Y-17314969D01*
X5884598Y-17303746D01*
X5948680Y-17331589D01*
G37*
%TD.AperFunction*%
%TA.AperFunction,NonConductor*%
G36*
X25711435Y-17595184D02*
G01*
X25757190Y-17647988D01*
X25767134Y-17717146D01*
X25738109Y-17780702D01*
X25732077Y-17787180D01*
X25196076Y-18323181D01*
X25134753Y-18356666D01*
X25108395Y-18359500D01*
X24826855Y-18359500D01*
X24759816Y-18339815D01*
X24714061Y-18287011D01*
X24704117Y-18217853D01*
X24733142Y-18154297D01*
X24739174Y-18147819D01*
X25275174Y-17611818D01*
X25336497Y-17578333D01*
X25362855Y-17575499D01*
X25644396Y-17575499D01*
X25711435Y-17595184D01*
G37*
%TD.AperFunction*%
%TA.AperFunction,NonConductor*%
G36*
X12026017Y-17595184D02*
G01*
X12071772Y-17647988D01*
X12081716Y-17717146D01*
X12052691Y-17780702D01*
X12046659Y-17787180D01*
X11434775Y-18399064D01*
X11427844Y-18403694D01*
X11424903Y-18407932D01*
X11394551Y-18425942D01*
X11385851Y-18429546D01*
X11385848Y-18429547D01*
X11350375Y-18444240D01*
X11350370Y-18444243D01*
X11241378Y-18517069D01*
X11241370Y-18517075D01*
X10527181Y-19231264D01*
X10465858Y-19264749D01*
X10396166Y-19259765D01*
X10340233Y-19217893D01*
X10315816Y-19152429D01*
X10315500Y-19143583D01*
X10315500Y-18735353D01*
X10335185Y-18668314D01*
X10351814Y-18647676D01*
X11387673Y-17611817D01*
X11448996Y-17578333D01*
X11475354Y-17575499D01*
X11958978Y-17575499D01*
X12026017Y-17595184D01*
G37*
%TD.AperFunction*%
%TA.AperFunction,NonConductor*%
G36*
X21290125Y-19710185D02*
G01*
X21335880Y-19762989D01*
X21345824Y-19832147D01*
X21333572Y-19870793D01*
X21330128Y-19877551D01*
X21276597Y-20042302D01*
X21249500Y-20213389D01*
X21249500Y-21786611D01*
X21276598Y-21957701D01*
X21330127Y-22122445D01*
X21408768Y-22276788D01*
X21510586Y-22416928D01*
X21510588Y-22416930D01*
X21633072Y-22539414D01*
X21674733Y-22569683D01*
X21717398Y-22625013D01*
X21723376Y-22694627D01*
X21690769Y-22756421D01*
X21674733Y-22770317D01*
X21633072Y-22800585D01*
X21510588Y-22923069D01*
X21510588Y-22923070D01*
X21510586Y-22923072D01*
X21485040Y-22958232D01*
X21408770Y-23063207D01*
X21408765Y-23063216D01*
X21404393Y-23071798D01*
X21356418Y-23122592D01*
X21293910Y-23139500D01*
X20866090Y-23139500D01*
X20799051Y-23119815D01*
X20755607Y-23071798D01*
X20751234Y-23063216D01*
X20751229Y-23063207D01*
X20721672Y-23022526D01*
X20649414Y-22923072D01*
X20526928Y-22800586D01*
X20485265Y-22770316D01*
X20442602Y-22714988D01*
X20436623Y-22645374D01*
X20469229Y-22583579D01*
X20485266Y-22569683D01*
X20526928Y-22539414D01*
X20649414Y-22416928D01*
X20751232Y-22276788D01*
X20829873Y-22122445D01*
X20883402Y-21957701D01*
X20910500Y-21786611D01*
X20910500Y-20213389D01*
X20883402Y-20042299D01*
X20829873Y-19877555D01*
X20826428Y-19870793D01*
X20813533Y-19802123D01*
X20839811Y-19737384D01*
X20896918Y-19697127D01*
X20936914Y-19690500D01*
X21223086Y-19690500D01*
X21290125Y-19710185D01*
G37*
%TD.AperFunction*%
M02*
