%TF.GenerationSoftware,KiCad,Pcbnew,9.0.7*%
%TF.CreationDate,2026-05-06T21:02:05+02:00*%
%TF.ProjectId,BarePi_DispHDMI,42617265-5069-45f4-9469-737048444d49,rev?*%
%TF.SameCoordinates,Original*%
%TF.FileFunction,AssemblyDrawing,Top*%
%FSLAX46Y46*%
G04 Gerber Fmt 4.6, Leading zero omitted, Abs format (unit mm)*
G04 Created by KiCad (PCBNEW 9.0.7) date 2026-05-06 21:02:05*
%MOMM*%
%LPD*%
G01*
G04 APERTURE LIST*
%ADD10C,0.120000*%
%ADD11C,0.150000*%
%ADD12C,0.100000*%
G04 APERTURE END LIST*
D10*
X29067856Y-17840724D02*
X29532142Y-17840724D01*
X29532142Y-17840724D02*
X29282142Y-18126438D01*
X29282142Y-18126438D02*
X29389285Y-18126438D01*
X29389285Y-18126438D02*
X29460714Y-18162152D01*
X29460714Y-18162152D02*
X29496428Y-18197867D01*
X29496428Y-18197867D02*
X29532142Y-18269295D01*
X29532142Y-18269295D02*
X29532142Y-18447867D01*
X29532142Y-18447867D02*
X29496428Y-18519295D01*
X29496428Y-18519295D02*
X29460714Y-18555010D01*
X29460714Y-18555010D02*
X29389285Y-18590724D01*
X29389285Y-18590724D02*
X29174999Y-18590724D01*
X29174999Y-18590724D02*
X29103571Y-18555010D01*
X29103571Y-18555010D02*
X29067856Y-18519295D01*
X29853571Y-18590724D02*
X29853571Y-17840724D01*
X30282142Y-18590724D02*
X29960714Y-18162152D01*
X30282142Y-17840724D02*
X29853571Y-18269295D01*
X30532142Y-17840724D02*
X30996428Y-17840724D01*
X30996428Y-17840724D02*
X30746428Y-18126438D01*
X30746428Y-18126438D02*
X30853571Y-18126438D01*
X30853571Y-18126438D02*
X30925000Y-18162152D01*
X30925000Y-18162152D02*
X30960714Y-18197867D01*
X30960714Y-18197867D02*
X30996428Y-18269295D01*
X30996428Y-18269295D02*
X30996428Y-18447867D01*
X30996428Y-18447867D02*
X30960714Y-18519295D01*
X30960714Y-18519295D02*
X30925000Y-18555010D01*
X30925000Y-18555010D02*
X30853571Y-18590724D01*
X30853571Y-18590724D02*
X30639285Y-18590724D01*
X30639285Y-18590724D02*
X30567857Y-18555010D01*
X30567857Y-18555010D02*
X30532142Y-18519295D01*
X29592856Y-13515724D02*
X29342856Y-13158581D01*
X29164285Y-13515724D02*
X29164285Y-12765724D01*
X29164285Y-12765724D02*
X29449999Y-12765724D01*
X29449999Y-12765724D02*
X29521428Y-12801438D01*
X29521428Y-12801438D02*
X29557142Y-12837152D01*
X29557142Y-12837152D02*
X29592856Y-12908581D01*
X29592856Y-12908581D02*
X29592856Y-13015724D01*
X29592856Y-13015724D02*
X29557142Y-13087152D01*
X29557142Y-13087152D02*
X29521428Y-13122867D01*
X29521428Y-13122867D02*
X29449999Y-13158581D01*
X29449999Y-13158581D02*
X29164285Y-13158581D01*
X30307142Y-13515724D02*
X29878571Y-13515724D01*
X30092856Y-13515724D02*
X30092856Y-12765724D01*
X30092856Y-12765724D02*
X30021428Y-12872867D01*
X30021428Y-12872867D02*
X29949999Y-12944295D01*
X29949999Y-12944295D02*
X29878571Y-12980010D01*
X31021428Y-13515724D02*
X30592857Y-13515724D01*
X30807142Y-13515724D02*
X30807142Y-12765724D01*
X30807142Y-12765724D02*
X30735714Y-12872867D01*
X30735714Y-12872867D02*
X30664285Y-12944295D01*
X30664285Y-12944295D02*
X30592857Y-12980010D01*
X22221428Y-17637152D02*
X22257142Y-17601438D01*
X22257142Y-17601438D02*
X22328571Y-17565724D01*
X22328571Y-17565724D02*
X22507142Y-17565724D01*
X22507142Y-17565724D02*
X22578571Y-17601438D01*
X22578571Y-17601438D02*
X22614285Y-17637152D01*
X22614285Y-17637152D02*
X22649999Y-17708581D01*
X22649999Y-17708581D02*
X22649999Y-17780010D01*
X22649999Y-17780010D02*
X22614285Y-17887152D01*
X22614285Y-17887152D02*
X22185713Y-18315724D01*
X22185713Y-18315724D02*
X22649999Y-18315724D01*
X22899999Y-17565724D02*
X23399999Y-17565724D01*
X23399999Y-17565724D02*
X23078571Y-18315724D01*
X23828571Y-17565724D02*
X23900000Y-17565724D01*
X23900000Y-17565724D02*
X23971428Y-17601438D01*
X23971428Y-17601438D02*
X24007143Y-17637152D01*
X24007143Y-17637152D02*
X24042857Y-17708581D01*
X24042857Y-17708581D02*
X24078571Y-17851438D01*
X24078571Y-17851438D02*
X24078571Y-18030010D01*
X24078571Y-18030010D02*
X24042857Y-18172867D01*
X24042857Y-18172867D02*
X24007143Y-18244295D01*
X24007143Y-18244295D02*
X23971428Y-18280010D01*
X23971428Y-18280010D02*
X23900000Y-18315724D01*
X23900000Y-18315724D02*
X23828571Y-18315724D01*
X23828571Y-18315724D02*
X23757143Y-18280010D01*
X23757143Y-18280010D02*
X23721428Y-18244295D01*
X23721428Y-18244295D02*
X23685714Y-18172867D01*
X23685714Y-18172867D02*
X23650000Y-18030010D01*
X23650000Y-18030010D02*
X23650000Y-17851438D01*
X23650000Y-17851438D02*
X23685714Y-17708581D01*
X23685714Y-17708581D02*
X23721428Y-17637152D01*
X23721428Y-17637152D02*
X23757143Y-17601438D01*
X23757143Y-17601438D02*
X23828571Y-17565724D01*
X22542856Y-13215724D02*
X22292856Y-12858581D01*
X22114285Y-13215724D02*
X22114285Y-12465724D01*
X22114285Y-12465724D02*
X22399999Y-12465724D01*
X22399999Y-12465724D02*
X22471428Y-12501438D01*
X22471428Y-12501438D02*
X22507142Y-12537152D01*
X22507142Y-12537152D02*
X22542856Y-12608581D01*
X22542856Y-12608581D02*
X22542856Y-12715724D01*
X22542856Y-12715724D02*
X22507142Y-12787152D01*
X22507142Y-12787152D02*
X22471428Y-12822867D01*
X22471428Y-12822867D02*
X22399999Y-12858581D01*
X22399999Y-12858581D02*
X22114285Y-12858581D01*
X23257142Y-13215724D02*
X22828571Y-13215724D01*
X23042856Y-13215724D02*
X23042856Y-12465724D01*
X23042856Y-12465724D02*
X22971428Y-12572867D01*
X22971428Y-12572867D02*
X22899999Y-12644295D01*
X22899999Y-12644295D02*
X22828571Y-12680010D01*
X23507142Y-12465724D02*
X23971428Y-12465724D01*
X23971428Y-12465724D02*
X23721428Y-12751438D01*
X23721428Y-12751438D02*
X23828571Y-12751438D01*
X23828571Y-12751438D02*
X23900000Y-12787152D01*
X23900000Y-12787152D02*
X23935714Y-12822867D01*
X23935714Y-12822867D02*
X23971428Y-12894295D01*
X23971428Y-12894295D02*
X23971428Y-13072867D01*
X23971428Y-13072867D02*
X23935714Y-13144295D01*
X23935714Y-13144295D02*
X23900000Y-13180010D01*
X23900000Y-13180010D02*
X23828571Y-13215724D01*
X23828571Y-13215724D02*
X23614285Y-13215724D01*
X23614285Y-13215724D02*
X23542857Y-13180010D01*
X23542857Y-13180010D02*
X23507142Y-13144295D01*
D11*
X3429762Y-2179819D02*
X3429762Y-1179819D01*
X3429762Y-1656009D02*
X4001190Y-1656009D01*
X4001190Y-2179819D02*
X4001190Y-1179819D01*
X4477381Y-2179819D02*
X4477381Y-1179819D01*
X4477381Y-1179819D02*
X4715476Y-1179819D01*
X4715476Y-1179819D02*
X4858333Y-1227438D01*
X4858333Y-1227438D02*
X4953571Y-1322676D01*
X4953571Y-1322676D02*
X5001190Y-1417914D01*
X5001190Y-1417914D02*
X5048809Y-1608390D01*
X5048809Y-1608390D02*
X5048809Y-1751247D01*
X5048809Y-1751247D02*
X5001190Y-1941723D01*
X5001190Y-1941723D02*
X4953571Y-2036961D01*
X4953571Y-2036961D02*
X4858333Y-2132200D01*
X4858333Y-2132200D02*
X4715476Y-2179819D01*
X4715476Y-2179819D02*
X4477381Y-2179819D01*
X5477381Y-2179819D02*
X5477381Y-1179819D01*
X5477381Y-1179819D02*
X5810714Y-1894104D01*
X5810714Y-1894104D02*
X6144047Y-1179819D01*
X6144047Y-1179819D02*
X6144047Y-2179819D01*
X6620238Y-2179819D02*
X6620238Y-1179819D01*
X5541666Y-2729819D02*
X5541666Y-3444104D01*
X5541666Y-3444104D02*
X5494047Y-3586961D01*
X5494047Y-3586961D02*
X5398809Y-3682200D01*
X5398809Y-3682200D02*
X5255952Y-3729819D01*
X5255952Y-3729819D02*
X5160714Y-3729819D01*
X5970238Y-2825057D02*
X6017857Y-2777438D01*
X6017857Y-2777438D02*
X6113095Y-2729819D01*
X6113095Y-2729819D02*
X6351190Y-2729819D01*
X6351190Y-2729819D02*
X6446428Y-2777438D01*
X6446428Y-2777438D02*
X6494047Y-2825057D01*
X6494047Y-2825057D02*
X6541666Y-2920295D01*
X6541666Y-2920295D02*
X6541666Y-3015533D01*
X6541666Y-3015533D02*
X6494047Y-3158390D01*
X6494047Y-3158390D02*
X5922619Y-3729819D01*
X5922619Y-3729819D02*
X6541666Y-3729819D01*
D10*
X5871428Y-17837152D02*
X5907142Y-17801438D01*
X5907142Y-17801438D02*
X5978571Y-17765724D01*
X5978571Y-17765724D02*
X6157142Y-17765724D01*
X6157142Y-17765724D02*
X6228571Y-17801438D01*
X6228571Y-17801438D02*
X6264285Y-17837152D01*
X6264285Y-17837152D02*
X6299999Y-17908581D01*
X6299999Y-17908581D02*
X6299999Y-17980010D01*
X6299999Y-17980010D02*
X6264285Y-18087152D01*
X6264285Y-18087152D02*
X5835713Y-18515724D01*
X5835713Y-18515724D02*
X6299999Y-18515724D01*
X6549999Y-17765724D02*
X7049999Y-17765724D01*
X7049999Y-17765724D02*
X6728571Y-18515724D01*
X7478571Y-17765724D02*
X7550000Y-17765724D01*
X7550000Y-17765724D02*
X7621428Y-17801438D01*
X7621428Y-17801438D02*
X7657143Y-17837152D01*
X7657143Y-17837152D02*
X7692857Y-17908581D01*
X7692857Y-17908581D02*
X7728571Y-18051438D01*
X7728571Y-18051438D02*
X7728571Y-18230010D01*
X7728571Y-18230010D02*
X7692857Y-18372867D01*
X7692857Y-18372867D02*
X7657143Y-18444295D01*
X7657143Y-18444295D02*
X7621428Y-18480010D01*
X7621428Y-18480010D02*
X7550000Y-18515724D01*
X7550000Y-18515724D02*
X7478571Y-18515724D01*
X7478571Y-18515724D02*
X7407143Y-18480010D01*
X7407143Y-18480010D02*
X7371428Y-18444295D01*
X7371428Y-18444295D02*
X7335714Y-18372867D01*
X7335714Y-18372867D02*
X7300000Y-18230010D01*
X7300000Y-18230010D02*
X7300000Y-18051438D01*
X7300000Y-18051438D02*
X7335714Y-17908581D01*
X7335714Y-17908581D02*
X7371428Y-17837152D01*
X7371428Y-17837152D02*
X7407143Y-17801438D01*
X7407143Y-17801438D02*
X7478571Y-17765724D01*
X6724999Y-13340724D02*
X6474999Y-12983581D01*
X6296428Y-13340724D02*
X6296428Y-12590724D01*
X6296428Y-12590724D02*
X6582142Y-12590724D01*
X6582142Y-12590724D02*
X6653571Y-12626438D01*
X6653571Y-12626438D02*
X6689285Y-12662152D01*
X6689285Y-12662152D02*
X6724999Y-12733581D01*
X6724999Y-12733581D02*
X6724999Y-12840724D01*
X6724999Y-12840724D02*
X6689285Y-12912152D01*
X6689285Y-12912152D02*
X6653571Y-12947867D01*
X6653571Y-12947867D02*
X6582142Y-12983581D01*
X6582142Y-12983581D02*
X6296428Y-12983581D01*
X6974999Y-12590724D02*
X7439285Y-12590724D01*
X7439285Y-12590724D02*
X7189285Y-12876438D01*
X7189285Y-12876438D02*
X7296428Y-12876438D01*
X7296428Y-12876438D02*
X7367857Y-12912152D01*
X7367857Y-12912152D02*
X7403571Y-12947867D01*
X7403571Y-12947867D02*
X7439285Y-13019295D01*
X7439285Y-13019295D02*
X7439285Y-13197867D01*
X7439285Y-13197867D02*
X7403571Y-13269295D01*
X7403571Y-13269295D02*
X7367857Y-13305010D01*
X7367857Y-13305010D02*
X7296428Y-13340724D01*
X7296428Y-13340724D02*
X7082142Y-13340724D01*
X7082142Y-13340724D02*
X7010714Y-13305010D01*
X7010714Y-13305010D02*
X6974999Y-13269295D01*
D11*
X2354819Y-25913094D02*
X1354819Y-25913094D01*
X1354819Y-25913094D02*
X1354819Y-25674999D01*
X1354819Y-25674999D02*
X1402438Y-25532142D01*
X1402438Y-25532142D02*
X1497676Y-25436904D01*
X1497676Y-25436904D02*
X1592914Y-25389285D01*
X1592914Y-25389285D02*
X1783390Y-25341666D01*
X1783390Y-25341666D02*
X1926247Y-25341666D01*
X1926247Y-25341666D02*
X2116723Y-25389285D01*
X2116723Y-25389285D02*
X2211961Y-25436904D01*
X2211961Y-25436904D02*
X2307200Y-25532142D01*
X2307200Y-25532142D02*
X2354819Y-25674999D01*
X2354819Y-25674999D02*
X2354819Y-25913094D01*
X2354819Y-24913094D02*
X1354819Y-24913094D01*
X2307200Y-24484523D02*
X2354819Y-24341666D01*
X2354819Y-24341666D02*
X2354819Y-24103571D01*
X2354819Y-24103571D02*
X2307200Y-24008333D01*
X2307200Y-24008333D02*
X2259580Y-23960714D01*
X2259580Y-23960714D02*
X2164342Y-23913095D01*
X2164342Y-23913095D02*
X2069104Y-23913095D01*
X2069104Y-23913095D02*
X1973866Y-23960714D01*
X1973866Y-23960714D02*
X1926247Y-24008333D01*
X1926247Y-24008333D02*
X1878628Y-24103571D01*
X1878628Y-24103571D02*
X1831009Y-24294047D01*
X1831009Y-24294047D02*
X1783390Y-24389285D01*
X1783390Y-24389285D02*
X1735771Y-24436904D01*
X1735771Y-24436904D02*
X1640533Y-24484523D01*
X1640533Y-24484523D02*
X1545295Y-24484523D01*
X1545295Y-24484523D02*
X1450057Y-24436904D01*
X1450057Y-24436904D02*
X1402438Y-24389285D01*
X1402438Y-24389285D02*
X1354819Y-24294047D01*
X1354819Y-24294047D02*
X1354819Y-24055952D01*
X1354819Y-24055952D02*
X1402438Y-23913095D01*
X2354819Y-23484523D02*
X1354819Y-23484523D01*
X1354819Y-23484523D02*
X1354819Y-23103571D01*
X1354819Y-23103571D02*
X1402438Y-23008333D01*
X1402438Y-23008333D02*
X1450057Y-22960714D01*
X1450057Y-22960714D02*
X1545295Y-22913095D01*
X1545295Y-22913095D02*
X1688152Y-22913095D01*
X1688152Y-22913095D02*
X1783390Y-22960714D01*
X1783390Y-22960714D02*
X1831009Y-23008333D01*
X1831009Y-23008333D02*
X1878628Y-23103571D01*
X1878628Y-23103571D02*
X1878628Y-23484523D01*
X2354819Y-22008333D02*
X2354819Y-22484523D01*
X2354819Y-22484523D02*
X1354819Y-22484523D01*
X2069104Y-21722618D02*
X2069104Y-21246428D01*
X2354819Y-21817856D02*
X1354819Y-21484523D01*
X1354819Y-21484523D02*
X2354819Y-21151190D01*
X1878628Y-20627380D02*
X2354819Y-20627380D01*
X1354819Y-20960713D02*
X1878628Y-20627380D01*
X1878628Y-20627380D02*
X1354819Y-20294047D01*
X29891666Y-26229819D02*
X29891666Y-26944104D01*
X29891666Y-26944104D02*
X29844047Y-27086961D01*
X29844047Y-27086961D02*
X29748809Y-27182200D01*
X29748809Y-27182200D02*
X29605952Y-27229819D01*
X29605952Y-27229819D02*
X29510714Y-27229819D01*
X30891666Y-27229819D02*
X30320238Y-27229819D01*
X30605952Y-27229819D02*
X30605952Y-26229819D01*
X30605952Y-26229819D02*
X30510714Y-26372676D01*
X30510714Y-26372676D02*
X30415476Y-26467914D01*
X30415476Y-26467914D02*
X30320238Y-26515533D01*
D10*
X1346428Y-18112152D02*
X1382142Y-18076438D01*
X1382142Y-18076438D02*
X1453571Y-18040724D01*
X1453571Y-18040724D02*
X1632142Y-18040724D01*
X1632142Y-18040724D02*
X1703571Y-18076438D01*
X1703571Y-18076438D02*
X1739285Y-18112152D01*
X1739285Y-18112152D02*
X1774999Y-18183581D01*
X1774999Y-18183581D02*
X1774999Y-18255010D01*
X1774999Y-18255010D02*
X1739285Y-18362152D01*
X1739285Y-18362152D02*
X1310713Y-18790724D01*
X1310713Y-18790724D02*
X1774999Y-18790724D01*
X2024999Y-18040724D02*
X2524999Y-18040724D01*
X2524999Y-18040724D02*
X2203571Y-18790724D01*
X2953571Y-18040724D02*
X3025000Y-18040724D01*
X3025000Y-18040724D02*
X3096428Y-18076438D01*
X3096428Y-18076438D02*
X3132143Y-18112152D01*
X3132143Y-18112152D02*
X3167857Y-18183581D01*
X3167857Y-18183581D02*
X3203571Y-18326438D01*
X3203571Y-18326438D02*
X3203571Y-18505010D01*
X3203571Y-18505010D02*
X3167857Y-18647867D01*
X3167857Y-18647867D02*
X3132143Y-18719295D01*
X3132143Y-18719295D02*
X3096428Y-18755010D01*
X3096428Y-18755010D02*
X3025000Y-18790724D01*
X3025000Y-18790724D02*
X2953571Y-18790724D01*
X2953571Y-18790724D02*
X2882143Y-18755010D01*
X2882143Y-18755010D02*
X2846428Y-18719295D01*
X2846428Y-18719295D02*
X2810714Y-18647867D01*
X2810714Y-18647867D02*
X2775000Y-18505010D01*
X2775000Y-18505010D02*
X2775000Y-18326438D01*
X2775000Y-18326438D02*
X2810714Y-18183581D01*
X2810714Y-18183581D02*
X2846428Y-18112152D01*
X2846428Y-18112152D02*
X2882143Y-18076438D01*
X2882143Y-18076438D02*
X2953571Y-18040724D01*
X2224999Y-13365724D02*
X1974999Y-13008581D01*
X1796428Y-13365724D02*
X1796428Y-12615724D01*
X1796428Y-12615724D02*
X2082142Y-12615724D01*
X2082142Y-12615724D02*
X2153571Y-12651438D01*
X2153571Y-12651438D02*
X2189285Y-12687152D01*
X2189285Y-12687152D02*
X2224999Y-12758581D01*
X2224999Y-12758581D02*
X2224999Y-12865724D01*
X2224999Y-12865724D02*
X2189285Y-12937152D01*
X2189285Y-12937152D02*
X2153571Y-12972867D01*
X2153571Y-12972867D02*
X2082142Y-13008581D01*
X2082142Y-13008581D02*
X1796428Y-13008581D01*
X2939285Y-13365724D02*
X2510714Y-13365724D01*
X2724999Y-13365724D02*
X2724999Y-12615724D01*
X2724999Y-12615724D02*
X2653571Y-12722867D01*
X2653571Y-12722867D02*
X2582142Y-12794295D01*
X2582142Y-12794295D02*
X2510714Y-12830010D01*
X3671428Y-18437152D02*
X3707142Y-18401438D01*
X3707142Y-18401438D02*
X3778571Y-18365724D01*
X3778571Y-18365724D02*
X3957142Y-18365724D01*
X3957142Y-18365724D02*
X4028571Y-18401438D01*
X4028571Y-18401438D02*
X4064285Y-18437152D01*
X4064285Y-18437152D02*
X4099999Y-18508581D01*
X4099999Y-18508581D02*
X4099999Y-18580010D01*
X4099999Y-18580010D02*
X4064285Y-18687152D01*
X4064285Y-18687152D02*
X3635713Y-19115724D01*
X3635713Y-19115724D02*
X4099999Y-19115724D01*
X4349999Y-18365724D02*
X4849999Y-18365724D01*
X4849999Y-18365724D02*
X4528571Y-19115724D01*
X5278571Y-18365724D02*
X5350000Y-18365724D01*
X5350000Y-18365724D02*
X5421428Y-18401438D01*
X5421428Y-18401438D02*
X5457143Y-18437152D01*
X5457143Y-18437152D02*
X5492857Y-18508581D01*
X5492857Y-18508581D02*
X5528571Y-18651438D01*
X5528571Y-18651438D02*
X5528571Y-18830010D01*
X5528571Y-18830010D02*
X5492857Y-18972867D01*
X5492857Y-18972867D02*
X5457143Y-19044295D01*
X5457143Y-19044295D02*
X5421428Y-19080010D01*
X5421428Y-19080010D02*
X5350000Y-19115724D01*
X5350000Y-19115724D02*
X5278571Y-19115724D01*
X5278571Y-19115724D02*
X5207143Y-19080010D01*
X5207143Y-19080010D02*
X5171428Y-19044295D01*
X5171428Y-19044295D02*
X5135714Y-18972867D01*
X5135714Y-18972867D02*
X5100000Y-18830010D01*
X5100000Y-18830010D02*
X5100000Y-18651438D01*
X5100000Y-18651438D02*
X5135714Y-18508581D01*
X5135714Y-18508581D02*
X5171428Y-18437152D01*
X5171428Y-18437152D02*
X5207143Y-18401438D01*
X5207143Y-18401438D02*
X5278571Y-18365724D01*
X4374999Y-13415724D02*
X4124999Y-13058581D01*
X3946428Y-13415724D02*
X3946428Y-12665724D01*
X3946428Y-12665724D02*
X4232142Y-12665724D01*
X4232142Y-12665724D02*
X4303571Y-12701438D01*
X4303571Y-12701438D02*
X4339285Y-12737152D01*
X4339285Y-12737152D02*
X4374999Y-12808581D01*
X4374999Y-12808581D02*
X4374999Y-12915724D01*
X4374999Y-12915724D02*
X4339285Y-12987152D01*
X4339285Y-12987152D02*
X4303571Y-13022867D01*
X4303571Y-13022867D02*
X4232142Y-13058581D01*
X4232142Y-13058581D02*
X3946428Y-13058581D01*
X4660714Y-12737152D02*
X4696428Y-12701438D01*
X4696428Y-12701438D02*
X4767857Y-12665724D01*
X4767857Y-12665724D02*
X4946428Y-12665724D01*
X4946428Y-12665724D02*
X5017857Y-12701438D01*
X5017857Y-12701438D02*
X5053571Y-12737152D01*
X5053571Y-12737152D02*
X5089285Y-12808581D01*
X5089285Y-12808581D02*
X5089285Y-12880010D01*
X5089285Y-12880010D02*
X5053571Y-12987152D01*
X5053571Y-12987152D02*
X4624999Y-13415724D01*
X4624999Y-13415724D02*
X5089285Y-13415724D01*
X19846428Y-17337152D02*
X19882142Y-17301438D01*
X19882142Y-17301438D02*
X19953571Y-17265724D01*
X19953571Y-17265724D02*
X20132142Y-17265724D01*
X20132142Y-17265724D02*
X20203571Y-17301438D01*
X20203571Y-17301438D02*
X20239285Y-17337152D01*
X20239285Y-17337152D02*
X20274999Y-17408581D01*
X20274999Y-17408581D02*
X20274999Y-17480010D01*
X20274999Y-17480010D02*
X20239285Y-17587152D01*
X20239285Y-17587152D02*
X19810713Y-18015724D01*
X19810713Y-18015724D02*
X20274999Y-18015724D01*
X20524999Y-17265724D02*
X21024999Y-17265724D01*
X21024999Y-17265724D02*
X20703571Y-18015724D01*
X21453571Y-17265724D02*
X21525000Y-17265724D01*
X21525000Y-17265724D02*
X21596428Y-17301438D01*
X21596428Y-17301438D02*
X21632143Y-17337152D01*
X21632143Y-17337152D02*
X21667857Y-17408581D01*
X21667857Y-17408581D02*
X21703571Y-17551438D01*
X21703571Y-17551438D02*
X21703571Y-17730010D01*
X21703571Y-17730010D02*
X21667857Y-17872867D01*
X21667857Y-17872867D02*
X21632143Y-17944295D01*
X21632143Y-17944295D02*
X21596428Y-17980010D01*
X21596428Y-17980010D02*
X21525000Y-18015724D01*
X21525000Y-18015724D02*
X21453571Y-18015724D01*
X21453571Y-18015724D02*
X21382143Y-17980010D01*
X21382143Y-17980010D02*
X21346428Y-17944295D01*
X21346428Y-17944295D02*
X21310714Y-17872867D01*
X21310714Y-17872867D02*
X21275000Y-17730010D01*
X21275000Y-17730010D02*
X21275000Y-17551438D01*
X21275000Y-17551438D02*
X21310714Y-17408581D01*
X21310714Y-17408581D02*
X21346428Y-17337152D01*
X21346428Y-17337152D02*
X21382143Y-17301438D01*
X21382143Y-17301438D02*
X21453571Y-17265724D01*
X20292856Y-12940724D02*
X20042856Y-12583581D01*
X19864285Y-12940724D02*
X19864285Y-12190724D01*
X19864285Y-12190724D02*
X20149999Y-12190724D01*
X20149999Y-12190724D02*
X20221428Y-12226438D01*
X20221428Y-12226438D02*
X20257142Y-12262152D01*
X20257142Y-12262152D02*
X20292856Y-12333581D01*
X20292856Y-12333581D02*
X20292856Y-12440724D01*
X20292856Y-12440724D02*
X20257142Y-12512152D01*
X20257142Y-12512152D02*
X20221428Y-12547867D01*
X20221428Y-12547867D02*
X20149999Y-12583581D01*
X20149999Y-12583581D02*
X19864285Y-12583581D01*
X21007142Y-12940724D02*
X20578571Y-12940724D01*
X20792856Y-12940724D02*
X20792856Y-12190724D01*
X20792856Y-12190724D02*
X20721428Y-12297867D01*
X20721428Y-12297867D02*
X20649999Y-12369295D01*
X20649999Y-12369295D02*
X20578571Y-12405010D01*
X21292857Y-12262152D02*
X21328571Y-12226438D01*
X21328571Y-12226438D02*
X21400000Y-12190724D01*
X21400000Y-12190724D02*
X21578571Y-12190724D01*
X21578571Y-12190724D02*
X21650000Y-12226438D01*
X21650000Y-12226438D02*
X21685714Y-12262152D01*
X21685714Y-12262152D02*
X21721428Y-12333581D01*
X21721428Y-12333581D02*
X21721428Y-12405010D01*
X21721428Y-12405010D02*
X21685714Y-12512152D01*
X21685714Y-12512152D02*
X21257142Y-12940724D01*
X21257142Y-12940724D02*
X21721428Y-12940724D01*
X12871428Y-18212152D02*
X12907142Y-18176438D01*
X12907142Y-18176438D02*
X12978571Y-18140724D01*
X12978571Y-18140724D02*
X13157142Y-18140724D01*
X13157142Y-18140724D02*
X13228571Y-18176438D01*
X13228571Y-18176438D02*
X13264285Y-18212152D01*
X13264285Y-18212152D02*
X13299999Y-18283581D01*
X13299999Y-18283581D02*
X13299999Y-18355010D01*
X13299999Y-18355010D02*
X13264285Y-18462152D01*
X13264285Y-18462152D02*
X12835713Y-18890724D01*
X12835713Y-18890724D02*
X13299999Y-18890724D01*
X13549999Y-18140724D02*
X14049999Y-18140724D01*
X14049999Y-18140724D02*
X13728571Y-18890724D01*
X14478571Y-18140724D02*
X14550000Y-18140724D01*
X14550000Y-18140724D02*
X14621428Y-18176438D01*
X14621428Y-18176438D02*
X14657143Y-18212152D01*
X14657143Y-18212152D02*
X14692857Y-18283581D01*
X14692857Y-18283581D02*
X14728571Y-18426438D01*
X14728571Y-18426438D02*
X14728571Y-18605010D01*
X14728571Y-18605010D02*
X14692857Y-18747867D01*
X14692857Y-18747867D02*
X14657143Y-18819295D01*
X14657143Y-18819295D02*
X14621428Y-18855010D01*
X14621428Y-18855010D02*
X14550000Y-18890724D01*
X14550000Y-18890724D02*
X14478571Y-18890724D01*
X14478571Y-18890724D02*
X14407143Y-18855010D01*
X14407143Y-18855010D02*
X14371428Y-18819295D01*
X14371428Y-18819295D02*
X14335714Y-18747867D01*
X14335714Y-18747867D02*
X14300000Y-18605010D01*
X14300000Y-18605010D02*
X14300000Y-18426438D01*
X14300000Y-18426438D02*
X14335714Y-18283581D01*
X14335714Y-18283581D02*
X14371428Y-18212152D01*
X14371428Y-18212152D02*
X14407143Y-18176438D01*
X14407143Y-18176438D02*
X14478571Y-18140724D01*
X13624999Y-13065724D02*
X13374999Y-12708581D01*
X13196428Y-13065724D02*
X13196428Y-12315724D01*
X13196428Y-12315724D02*
X13482142Y-12315724D01*
X13482142Y-12315724D02*
X13553571Y-12351438D01*
X13553571Y-12351438D02*
X13589285Y-12387152D01*
X13589285Y-12387152D02*
X13624999Y-12458581D01*
X13624999Y-12458581D02*
X13624999Y-12565724D01*
X13624999Y-12565724D02*
X13589285Y-12637152D01*
X13589285Y-12637152D02*
X13553571Y-12672867D01*
X13553571Y-12672867D02*
X13482142Y-12708581D01*
X13482142Y-12708581D02*
X13196428Y-12708581D01*
X14267857Y-12315724D02*
X14124999Y-12315724D01*
X14124999Y-12315724D02*
X14053571Y-12351438D01*
X14053571Y-12351438D02*
X14017857Y-12387152D01*
X14017857Y-12387152D02*
X13946428Y-12494295D01*
X13946428Y-12494295D02*
X13910714Y-12637152D01*
X13910714Y-12637152D02*
X13910714Y-12922867D01*
X13910714Y-12922867D02*
X13946428Y-12994295D01*
X13946428Y-12994295D02*
X13982142Y-13030010D01*
X13982142Y-13030010D02*
X14053571Y-13065724D01*
X14053571Y-13065724D02*
X14196428Y-13065724D01*
X14196428Y-13065724D02*
X14267857Y-13030010D01*
X14267857Y-13030010D02*
X14303571Y-12994295D01*
X14303571Y-12994295D02*
X14339285Y-12922867D01*
X14339285Y-12922867D02*
X14339285Y-12744295D01*
X14339285Y-12744295D02*
X14303571Y-12672867D01*
X14303571Y-12672867D02*
X14267857Y-12637152D01*
X14267857Y-12637152D02*
X14196428Y-12601438D01*
X14196428Y-12601438D02*
X14053571Y-12601438D01*
X14053571Y-12601438D02*
X13982142Y-12637152D01*
X13982142Y-12637152D02*
X13946428Y-12672867D01*
X13946428Y-12672867D02*
X13910714Y-12744295D01*
X17571428Y-17762152D02*
X17607142Y-17726438D01*
X17607142Y-17726438D02*
X17678571Y-17690724D01*
X17678571Y-17690724D02*
X17857142Y-17690724D01*
X17857142Y-17690724D02*
X17928571Y-17726438D01*
X17928571Y-17726438D02*
X17964285Y-17762152D01*
X17964285Y-17762152D02*
X17999999Y-17833581D01*
X17999999Y-17833581D02*
X17999999Y-17905010D01*
X17999999Y-17905010D02*
X17964285Y-18012152D01*
X17964285Y-18012152D02*
X17535713Y-18440724D01*
X17535713Y-18440724D02*
X17999999Y-18440724D01*
X18249999Y-17690724D02*
X18749999Y-17690724D01*
X18749999Y-17690724D02*
X18428571Y-18440724D01*
X19178571Y-17690724D02*
X19250000Y-17690724D01*
X19250000Y-17690724D02*
X19321428Y-17726438D01*
X19321428Y-17726438D02*
X19357143Y-17762152D01*
X19357143Y-17762152D02*
X19392857Y-17833581D01*
X19392857Y-17833581D02*
X19428571Y-17976438D01*
X19428571Y-17976438D02*
X19428571Y-18155010D01*
X19428571Y-18155010D02*
X19392857Y-18297867D01*
X19392857Y-18297867D02*
X19357143Y-18369295D01*
X19357143Y-18369295D02*
X19321428Y-18405010D01*
X19321428Y-18405010D02*
X19250000Y-18440724D01*
X19250000Y-18440724D02*
X19178571Y-18440724D01*
X19178571Y-18440724D02*
X19107143Y-18405010D01*
X19107143Y-18405010D02*
X19071428Y-18369295D01*
X19071428Y-18369295D02*
X19035714Y-18297867D01*
X19035714Y-18297867D02*
X19000000Y-18155010D01*
X19000000Y-18155010D02*
X19000000Y-17976438D01*
X19000000Y-17976438D02*
X19035714Y-17833581D01*
X19035714Y-17833581D02*
X19071428Y-17762152D01*
X19071428Y-17762152D02*
X19107143Y-17726438D01*
X19107143Y-17726438D02*
X19178571Y-17690724D01*
X18299999Y-12840724D02*
X18049999Y-12483581D01*
X17871428Y-12840724D02*
X17871428Y-12090724D01*
X17871428Y-12090724D02*
X18157142Y-12090724D01*
X18157142Y-12090724D02*
X18228571Y-12126438D01*
X18228571Y-12126438D02*
X18264285Y-12162152D01*
X18264285Y-12162152D02*
X18299999Y-12233581D01*
X18299999Y-12233581D02*
X18299999Y-12340724D01*
X18299999Y-12340724D02*
X18264285Y-12412152D01*
X18264285Y-12412152D02*
X18228571Y-12447867D01*
X18228571Y-12447867D02*
X18157142Y-12483581D01*
X18157142Y-12483581D02*
X17871428Y-12483581D01*
X18728571Y-12412152D02*
X18657142Y-12376438D01*
X18657142Y-12376438D02*
X18621428Y-12340724D01*
X18621428Y-12340724D02*
X18585714Y-12269295D01*
X18585714Y-12269295D02*
X18585714Y-12233581D01*
X18585714Y-12233581D02*
X18621428Y-12162152D01*
X18621428Y-12162152D02*
X18657142Y-12126438D01*
X18657142Y-12126438D02*
X18728571Y-12090724D01*
X18728571Y-12090724D02*
X18871428Y-12090724D01*
X18871428Y-12090724D02*
X18942857Y-12126438D01*
X18942857Y-12126438D02*
X18978571Y-12162152D01*
X18978571Y-12162152D02*
X19014285Y-12233581D01*
X19014285Y-12233581D02*
X19014285Y-12269295D01*
X19014285Y-12269295D02*
X18978571Y-12340724D01*
X18978571Y-12340724D02*
X18942857Y-12376438D01*
X18942857Y-12376438D02*
X18871428Y-12412152D01*
X18871428Y-12412152D02*
X18728571Y-12412152D01*
X18728571Y-12412152D02*
X18657142Y-12447867D01*
X18657142Y-12447867D02*
X18621428Y-12483581D01*
X18621428Y-12483581D02*
X18585714Y-12555010D01*
X18585714Y-12555010D02*
X18585714Y-12697867D01*
X18585714Y-12697867D02*
X18621428Y-12769295D01*
X18621428Y-12769295D02*
X18657142Y-12805010D01*
X18657142Y-12805010D02*
X18728571Y-12840724D01*
X18728571Y-12840724D02*
X18871428Y-12840724D01*
X18871428Y-12840724D02*
X18942857Y-12805010D01*
X18942857Y-12805010D02*
X18978571Y-12769295D01*
X18978571Y-12769295D02*
X19014285Y-12697867D01*
X19014285Y-12697867D02*
X19014285Y-12555010D01*
X19014285Y-12555010D02*
X18978571Y-12483581D01*
X18978571Y-12483581D02*
X18942857Y-12447867D01*
X18942857Y-12447867D02*
X18871428Y-12412152D01*
X8096428Y-18362152D02*
X8132142Y-18326438D01*
X8132142Y-18326438D02*
X8203571Y-18290724D01*
X8203571Y-18290724D02*
X8382142Y-18290724D01*
X8382142Y-18290724D02*
X8453571Y-18326438D01*
X8453571Y-18326438D02*
X8489285Y-18362152D01*
X8489285Y-18362152D02*
X8524999Y-18433581D01*
X8524999Y-18433581D02*
X8524999Y-18505010D01*
X8524999Y-18505010D02*
X8489285Y-18612152D01*
X8489285Y-18612152D02*
X8060713Y-19040724D01*
X8060713Y-19040724D02*
X8524999Y-19040724D01*
X8774999Y-18290724D02*
X9274999Y-18290724D01*
X9274999Y-18290724D02*
X8953571Y-19040724D01*
X9703571Y-18290724D02*
X9775000Y-18290724D01*
X9775000Y-18290724D02*
X9846428Y-18326438D01*
X9846428Y-18326438D02*
X9882143Y-18362152D01*
X9882143Y-18362152D02*
X9917857Y-18433581D01*
X9917857Y-18433581D02*
X9953571Y-18576438D01*
X9953571Y-18576438D02*
X9953571Y-18755010D01*
X9953571Y-18755010D02*
X9917857Y-18897867D01*
X9917857Y-18897867D02*
X9882143Y-18969295D01*
X9882143Y-18969295D02*
X9846428Y-19005010D01*
X9846428Y-19005010D02*
X9775000Y-19040724D01*
X9775000Y-19040724D02*
X9703571Y-19040724D01*
X9703571Y-19040724D02*
X9632143Y-19005010D01*
X9632143Y-19005010D02*
X9596428Y-18969295D01*
X9596428Y-18969295D02*
X9560714Y-18897867D01*
X9560714Y-18897867D02*
X9525000Y-18755010D01*
X9525000Y-18755010D02*
X9525000Y-18576438D01*
X9525000Y-18576438D02*
X9560714Y-18433581D01*
X9560714Y-18433581D02*
X9596428Y-18362152D01*
X9596428Y-18362152D02*
X9632143Y-18326438D01*
X9632143Y-18326438D02*
X9703571Y-18290724D01*
X9099999Y-13315724D02*
X8849999Y-12958581D01*
X8671428Y-13315724D02*
X8671428Y-12565724D01*
X8671428Y-12565724D02*
X8957142Y-12565724D01*
X8957142Y-12565724D02*
X9028571Y-12601438D01*
X9028571Y-12601438D02*
X9064285Y-12637152D01*
X9064285Y-12637152D02*
X9099999Y-12708581D01*
X9099999Y-12708581D02*
X9099999Y-12815724D01*
X9099999Y-12815724D02*
X9064285Y-12887152D01*
X9064285Y-12887152D02*
X9028571Y-12922867D01*
X9028571Y-12922867D02*
X8957142Y-12958581D01*
X8957142Y-12958581D02*
X8671428Y-12958581D01*
X9742857Y-12815724D02*
X9742857Y-13315724D01*
X9564285Y-12530010D02*
X9385714Y-13065724D01*
X9385714Y-13065724D02*
X9849999Y-13065724D01*
X15221428Y-17237152D02*
X15257142Y-17201438D01*
X15257142Y-17201438D02*
X15328571Y-17165724D01*
X15328571Y-17165724D02*
X15507142Y-17165724D01*
X15507142Y-17165724D02*
X15578571Y-17201438D01*
X15578571Y-17201438D02*
X15614285Y-17237152D01*
X15614285Y-17237152D02*
X15649999Y-17308581D01*
X15649999Y-17308581D02*
X15649999Y-17380010D01*
X15649999Y-17380010D02*
X15614285Y-17487152D01*
X15614285Y-17487152D02*
X15185713Y-17915724D01*
X15185713Y-17915724D02*
X15649999Y-17915724D01*
X15899999Y-17165724D02*
X16399999Y-17165724D01*
X16399999Y-17165724D02*
X16078571Y-17915724D01*
X16828571Y-17165724D02*
X16900000Y-17165724D01*
X16900000Y-17165724D02*
X16971428Y-17201438D01*
X16971428Y-17201438D02*
X17007143Y-17237152D01*
X17007143Y-17237152D02*
X17042857Y-17308581D01*
X17042857Y-17308581D02*
X17078571Y-17451438D01*
X17078571Y-17451438D02*
X17078571Y-17630010D01*
X17078571Y-17630010D02*
X17042857Y-17772867D01*
X17042857Y-17772867D02*
X17007143Y-17844295D01*
X17007143Y-17844295D02*
X16971428Y-17880010D01*
X16971428Y-17880010D02*
X16900000Y-17915724D01*
X16900000Y-17915724D02*
X16828571Y-17915724D01*
X16828571Y-17915724D02*
X16757143Y-17880010D01*
X16757143Y-17880010D02*
X16721428Y-17844295D01*
X16721428Y-17844295D02*
X16685714Y-17772867D01*
X16685714Y-17772867D02*
X16650000Y-17630010D01*
X16650000Y-17630010D02*
X16650000Y-17451438D01*
X16650000Y-17451438D02*
X16685714Y-17308581D01*
X16685714Y-17308581D02*
X16721428Y-17237152D01*
X16721428Y-17237152D02*
X16757143Y-17201438D01*
X16757143Y-17201438D02*
X16828571Y-17165724D01*
X15949999Y-12890724D02*
X15699999Y-12533581D01*
X15521428Y-12890724D02*
X15521428Y-12140724D01*
X15521428Y-12140724D02*
X15807142Y-12140724D01*
X15807142Y-12140724D02*
X15878571Y-12176438D01*
X15878571Y-12176438D02*
X15914285Y-12212152D01*
X15914285Y-12212152D02*
X15949999Y-12283581D01*
X15949999Y-12283581D02*
X15949999Y-12390724D01*
X15949999Y-12390724D02*
X15914285Y-12462152D01*
X15914285Y-12462152D02*
X15878571Y-12497867D01*
X15878571Y-12497867D02*
X15807142Y-12533581D01*
X15807142Y-12533581D02*
X15521428Y-12533581D01*
X16199999Y-12140724D02*
X16699999Y-12140724D01*
X16699999Y-12140724D02*
X16378571Y-12890724D01*
X10696428Y-17787152D02*
X10732142Y-17751438D01*
X10732142Y-17751438D02*
X10803571Y-17715724D01*
X10803571Y-17715724D02*
X10982142Y-17715724D01*
X10982142Y-17715724D02*
X11053571Y-17751438D01*
X11053571Y-17751438D02*
X11089285Y-17787152D01*
X11089285Y-17787152D02*
X11124999Y-17858581D01*
X11124999Y-17858581D02*
X11124999Y-17930010D01*
X11124999Y-17930010D02*
X11089285Y-18037152D01*
X11089285Y-18037152D02*
X10660713Y-18465724D01*
X10660713Y-18465724D02*
X11124999Y-18465724D01*
X11374999Y-17715724D02*
X11874999Y-17715724D01*
X11874999Y-17715724D02*
X11553571Y-18465724D01*
X12303571Y-17715724D02*
X12375000Y-17715724D01*
X12375000Y-17715724D02*
X12446428Y-17751438D01*
X12446428Y-17751438D02*
X12482143Y-17787152D01*
X12482143Y-17787152D02*
X12517857Y-17858581D01*
X12517857Y-17858581D02*
X12553571Y-18001438D01*
X12553571Y-18001438D02*
X12553571Y-18180010D01*
X12553571Y-18180010D02*
X12517857Y-18322867D01*
X12517857Y-18322867D02*
X12482143Y-18394295D01*
X12482143Y-18394295D02*
X12446428Y-18430010D01*
X12446428Y-18430010D02*
X12375000Y-18465724D01*
X12375000Y-18465724D02*
X12303571Y-18465724D01*
X12303571Y-18465724D02*
X12232143Y-18430010D01*
X12232143Y-18430010D02*
X12196428Y-18394295D01*
X12196428Y-18394295D02*
X12160714Y-18322867D01*
X12160714Y-18322867D02*
X12125000Y-18180010D01*
X12125000Y-18180010D02*
X12125000Y-18001438D01*
X12125000Y-18001438D02*
X12160714Y-17858581D01*
X12160714Y-17858581D02*
X12196428Y-17787152D01*
X12196428Y-17787152D02*
X12232143Y-17751438D01*
X12232143Y-17751438D02*
X12303571Y-17715724D01*
X11349999Y-13365724D02*
X11099999Y-13008581D01*
X10921428Y-13365724D02*
X10921428Y-12615724D01*
X10921428Y-12615724D02*
X11207142Y-12615724D01*
X11207142Y-12615724D02*
X11278571Y-12651438D01*
X11278571Y-12651438D02*
X11314285Y-12687152D01*
X11314285Y-12687152D02*
X11349999Y-12758581D01*
X11349999Y-12758581D02*
X11349999Y-12865724D01*
X11349999Y-12865724D02*
X11314285Y-12937152D01*
X11314285Y-12937152D02*
X11278571Y-12972867D01*
X11278571Y-12972867D02*
X11207142Y-13008581D01*
X11207142Y-13008581D02*
X10921428Y-13008581D01*
X12028571Y-12615724D02*
X11671428Y-12615724D01*
X11671428Y-12615724D02*
X11635714Y-12972867D01*
X11635714Y-12972867D02*
X11671428Y-12937152D01*
X11671428Y-12937152D02*
X11742857Y-12901438D01*
X11742857Y-12901438D02*
X11921428Y-12901438D01*
X11921428Y-12901438D02*
X11992857Y-12937152D01*
X11992857Y-12937152D02*
X12028571Y-12972867D01*
X12028571Y-12972867D02*
X12064285Y-13044295D01*
X12064285Y-13044295D02*
X12064285Y-13222867D01*
X12064285Y-13222867D02*
X12028571Y-13294295D01*
X12028571Y-13294295D02*
X11992857Y-13330010D01*
X11992857Y-13330010D02*
X11921428Y-13365724D01*
X11921428Y-13365724D02*
X11742857Y-13365724D01*
X11742857Y-13365724D02*
X11671428Y-13330010D01*
X11671428Y-13330010D02*
X11635714Y-13294295D01*
X25210714Y-18040724D02*
X25210714Y-18540724D01*
X25032142Y-17755010D02*
X24853571Y-18290724D01*
X24853571Y-18290724D02*
X25317856Y-18290724D01*
X25532142Y-17790724D02*
X26032142Y-17790724D01*
X26032142Y-17790724D02*
X25710714Y-18540724D01*
X25199999Y-13315724D02*
X24949999Y-12958581D01*
X24771428Y-13315724D02*
X24771428Y-12565724D01*
X24771428Y-12565724D02*
X25057142Y-12565724D01*
X25057142Y-12565724D02*
X25128571Y-12601438D01*
X25128571Y-12601438D02*
X25164285Y-12637152D01*
X25164285Y-12637152D02*
X25199999Y-12708581D01*
X25199999Y-12708581D02*
X25199999Y-12815724D01*
X25199999Y-12815724D02*
X25164285Y-12887152D01*
X25164285Y-12887152D02*
X25128571Y-12922867D01*
X25128571Y-12922867D02*
X25057142Y-12958581D01*
X25057142Y-12958581D02*
X24771428Y-12958581D01*
X25557142Y-13315724D02*
X25699999Y-13315724D01*
X25699999Y-13315724D02*
X25771428Y-13280010D01*
X25771428Y-13280010D02*
X25807142Y-13244295D01*
X25807142Y-13244295D02*
X25878571Y-13137152D01*
X25878571Y-13137152D02*
X25914285Y-12994295D01*
X25914285Y-12994295D02*
X25914285Y-12708581D01*
X25914285Y-12708581D02*
X25878571Y-12637152D01*
X25878571Y-12637152D02*
X25842857Y-12601438D01*
X25842857Y-12601438D02*
X25771428Y-12565724D01*
X25771428Y-12565724D02*
X25628571Y-12565724D01*
X25628571Y-12565724D02*
X25557142Y-12601438D01*
X25557142Y-12601438D02*
X25521428Y-12637152D01*
X25521428Y-12637152D02*
X25485714Y-12708581D01*
X25485714Y-12708581D02*
X25485714Y-12887152D01*
X25485714Y-12887152D02*
X25521428Y-12958581D01*
X25521428Y-12958581D02*
X25557142Y-12994295D01*
X25557142Y-12994295D02*
X25628571Y-13030010D01*
X25628571Y-13030010D02*
X25771428Y-13030010D01*
X25771428Y-13030010D02*
X25842857Y-12994295D01*
X25842857Y-12994295D02*
X25878571Y-12958581D01*
X25878571Y-12958581D02*
X25914285Y-12887152D01*
X27182142Y-19115724D02*
X26753571Y-19115724D01*
X26967856Y-19115724D02*
X26967856Y-18365724D01*
X26967856Y-18365724D02*
X26896428Y-18472867D01*
X26896428Y-18472867D02*
X26824999Y-18544295D01*
X26824999Y-18544295D02*
X26753571Y-18580010D01*
X27503571Y-19115724D02*
X27503571Y-18365724D01*
X27932142Y-19115724D02*
X27610714Y-18687152D01*
X27932142Y-18365724D02*
X27503571Y-18794295D01*
X28360714Y-18687152D02*
X28289285Y-18651438D01*
X28289285Y-18651438D02*
X28253571Y-18615724D01*
X28253571Y-18615724D02*
X28217857Y-18544295D01*
X28217857Y-18544295D02*
X28217857Y-18508581D01*
X28217857Y-18508581D02*
X28253571Y-18437152D01*
X28253571Y-18437152D02*
X28289285Y-18401438D01*
X28289285Y-18401438D02*
X28360714Y-18365724D01*
X28360714Y-18365724D02*
X28503571Y-18365724D01*
X28503571Y-18365724D02*
X28575000Y-18401438D01*
X28575000Y-18401438D02*
X28610714Y-18437152D01*
X28610714Y-18437152D02*
X28646428Y-18508581D01*
X28646428Y-18508581D02*
X28646428Y-18544295D01*
X28646428Y-18544295D02*
X28610714Y-18615724D01*
X28610714Y-18615724D02*
X28575000Y-18651438D01*
X28575000Y-18651438D02*
X28503571Y-18687152D01*
X28503571Y-18687152D02*
X28360714Y-18687152D01*
X28360714Y-18687152D02*
X28289285Y-18722867D01*
X28289285Y-18722867D02*
X28253571Y-18758581D01*
X28253571Y-18758581D02*
X28217857Y-18830010D01*
X28217857Y-18830010D02*
X28217857Y-18972867D01*
X28217857Y-18972867D02*
X28253571Y-19044295D01*
X28253571Y-19044295D02*
X28289285Y-19080010D01*
X28289285Y-19080010D02*
X28360714Y-19115724D01*
X28360714Y-19115724D02*
X28503571Y-19115724D01*
X28503571Y-19115724D02*
X28575000Y-19080010D01*
X28575000Y-19080010D02*
X28610714Y-19044295D01*
X28610714Y-19044295D02*
X28646428Y-18972867D01*
X28646428Y-18972867D02*
X28646428Y-18830010D01*
X28646428Y-18830010D02*
X28610714Y-18758581D01*
X28610714Y-18758581D02*
X28575000Y-18722867D01*
X28575000Y-18722867D02*
X28503571Y-18687152D01*
X27192856Y-13440724D02*
X26942856Y-13083581D01*
X26764285Y-13440724D02*
X26764285Y-12690724D01*
X26764285Y-12690724D02*
X27049999Y-12690724D01*
X27049999Y-12690724D02*
X27121428Y-12726438D01*
X27121428Y-12726438D02*
X27157142Y-12762152D01*
X27157142Y-12762152D02*
X27192856Y-12833581D01*
X27192856Y-12833581D02*
X27192856Y-12940724D01*
X27192856Y-12940724D02*
X27157142Y-13012152D01*
X27157142Y-13012152D02*
X27121428Y-13047867D01*
X27121428Y-13047867D02*
X27049999Y-13083581D01*
X27049999Y-13083581D02*
X26764285Y-13083581D01*
X27907142Y-13440724D02*
X27478571Y-13440724D01*
X27692856Y-13440724D02*
X27692856Y-12690724D01*
X27692856Y-12690724D02*
X27621428Y-12797867D01*
X27621428Y-12797867D02*
X27549999Y-12869295D01*
X27549999Y-12869295D02*
X27478571Y-12905010D01*
X28371428Y-12690724D02*
X28442857Y-12690724D01*
X28442857Y-12690724D02*
X28514285Y-12726438D01*
X28514285Y-12726438D02*
X28550000Y-12762152D01*
X28550000Y-12762152D02*
X28585714Y-12833581D01*
X28585714Y-12833581D02*
X28621428Y-12976438D01*
X28621428Y-12976438D02*
X28621428Y-13155010D01*
X28621428Y-13155010D02*
X28585714Y-13297867D01*
X28585714Y-13297867D02*
X28550000Y-13369295D01*
X28550000Y-13369295D02*
X28514285Y-13405010D01*
X28514285Y-13405010D02*
X28442857Y-13440724D01*
X28442857Y-13440724D02*
X28371428Y-13440724D01*
X28371428Y-13440724D02*
X28300000Y-13405010D01*
X28300000Y-13405010D02*
X28264285Y-13369295D01*
X28264285Y-13369295D02*
X28228571Y-13297867D01*
X28228571Y-13297867D02*
X28192857Y-13155010D01*
X28192857Y-13155010D02*
X28192857Y-12976438D01*
X28192857Y-12976438D02*
X28228571Y-12833581D01*
X28228571Y-12833581D02*
X28264285Y-12762152D01*
X28264285Y-12762152D02*
X28300000Y-12726438D01*
X28300000Y-12726438D02*
X28371428Y-12690724D01*
%TO.C,R11*%
D12*
X30725000Y-14675000D02*
X29475000Y-14675000D01*
X29475000Y-16675000D01*
X30725000Y-16675000D01*
X30725000Y-14675000D01*
%TO.C,R13*%
X22531250Y-16275000D02*
X23781250Y-16275000D01*
X23781250Y-14275000D01*
X22531250Y-14275000D01*
X22531250Y-16275000D01*
D10*
%TO.C,J2*%
X11100000Y-11785000D02*
X11100000Y-11035000D01*
X11100000Y-11035000D02*
X9300000Y-11035000D01*
X22700000Y-11035000D02*
X20900000Y-11035000D01*
D12*
X8500000Y-10925000D02*
X23500000Y-10925000D01*
X8500000Y-10925000D02*
X8500000Y1225000D01*
X23500000Y-10925000D02*
X23500000Y1225000D01*
D10*
X8390000Y-7485000D02*
X8390000Y-4685000D01*
X23610000Y-7485000D02*
X23610000Y-4685000D01*
X8390000Y-1985000D02*
X8390000Y115000D01*
X23610000Y-1985000D02*
X23610000Y115000D01*
D12*
X8500000Y1225000D02*
X23500000Y1225000D01*
%TO.C,R3*%
X6329167Y-16475000D02*
X7579167Y-16475000D01*
X7579167Y-14475000D01*
X6329167Y-14475000D01*
X6329167Y-16475000D01*
%TO.C,J1*%
X27750000Y-21080000D02*
X27110000Y-21080000D01*
X27750000Y-21080000D02*
X27750000Y-25440000D01*
X27110000Y-21080000D02*
X27110000Y-25440000D01*
X25210000Y-21080000D02*
X24570000Y-21080000D01*
X25210000Y-21080000D02*
X25210000Y-25440000D01*
X24570000Y-21080000D02*
X24570000Y-25440000D01*
X22670000Y-21080000D02*
X22030000Y-21080000D01*
X22670000Y-21080000D02*
X22670000Y-25440000D01*
X22030000Y-21080000D02*
X22030000Y-25440000D01*
X20130000Y-21080000D02*
X19490000Y-21080000D01*
X20130000Y-21080000D02*
X20130000Y-25440000D01*
X19490000Y-21080000D02*
X19490000Y-25440000D01*
X17590000Y-21080000D02*
X16950000Y-21080000D01*
X17590000Y-21080000D02*
X17590000Y-25440000D01*
X16950000Y-21080000D02*
X16950000Y-25440000D01*
X15050000Y-21080000D02*
X14410000Y-21080000D01*
X15050000Y-21080000D02*
X15050000Y-25440000D01*
X14410000Y-21080000D02*
X14410000Y-25440000D01*
X12510000Y-21080000D02*
X11870000Y-21080000D01*
X12510000Y-21080000D02*
X12510000Y-25440000D01*
X11870000Y-21080000D02*
X11870000Y-25440000D01*
X9970000Y-21080000D02*
X9330000Y-21080000D01*
X9970000Y-21080000D02*
X9970000Y-25440000D01*
X9330000Y-21080000D02*
X9330000Y-25440000D01*
X7430000Y-21080000D02*
X6790000Y-21080000D01*
X7430000Y-21080000D02*
X7430000Y-25440000D01*
X6790000Y-21080000D02*
X6790000Y-25440000D01*
X4890000Y-21080000D02*
X4250000Y-21080000D01*
X4890000Y-21080000D02*
X4890000Y-25440000D01*
X4250000Y-21080000D02*
X4250000Y-25440000D01*
X28065000Y-25440000D02*
X28700000Y-26075000D01*
X3300000Y-25440000D02*
X28065000Y-25440000D01*
X28700000Y-26075000D02*
X28700000Y-27980000D01*
X28700000Y-27980000D02*
X3300000Y-27980000D01*
X27750000Y-27980000D02*
X27750000Y-33980000D01*
X27110000Y-27980000D02*
X27110000Y-33980000D01*
X25210000Y-27980000D02*
X25210000Y-33980000D01*
X24570000Y-27980000D02*
X24570000Y-33980000D01*
X22670000Y-27980000D02*
X22670000Y-33980000D01*
X22030000Y-27980000D02*
X22030000Y-33980000D01*
X20130000Y-27980000D02*
X20130000Y-33980000D01*
X19490000Y-27980000D02*
X19490000Y-33980000D01*
X17590000Y-27980000D02*
X17590000Y-33980000D01*
X16950000Y-27980000D02*
X16950000Y-33980000D01*
X15050000Y-27980000D02*
X15050000Y-33980000D01*
X14410000Y-27980000D02*
X14410000Y-33980000D01*
X12510000Y-27980000D02*
X12510000Y-33980000D01*
X11870000Y-27980000D02*
X11870000Y-33980000D01*
X9970000Y-27980000D02*
X9970000Y-33980000D01*
X9330000Y-27980000D02*
X9330000Y-33980000D01*
X7430000Y-27980000D02*
X7430000Y-33980000D01*
X6790000Y-27980000D02*
X6790000Y-33980000D01*
X4890000Y-27980000D02*
X4890000Y-33980000D01*
X4250000Y-27980000D02*
X4250000Y-33980000D01*
X3300000Y-27980000D02*
X3300000Y-25440000D01*
X27750000Y-33980000D02*
X27110000Y-33980000D01*
X25210000Y-33980000D02*
X24570000Y-33980000D01*
X22670000Y-33980000D02*
X22030000Y-33980000D01*
X20130000Y-33980000D02*
X19490000Y-33980000D01*
X17590000Y-33980000D02*
X16950000Y-33980000D01*
X15050000Y-33980000D02*
X14410000Y-33980000D01*
X12510000Y-33980000D02*
X11870000Y-33980000D01*
X9970000Y-33980000D02*
X9330000Y-33980000D01*
X7430000Y-33980000D02*
X6790000Y-33980000D01*
X4890000Y-33980000D02*
X4250000Y-33980000D01*
%TO.C,R1*%
X1700000Y-16675000D02*
X2950000Y-16675000D01*
X2950000Y-14675000D01*
X1700000Y-14675000D01*
X1700000Y-16675000D01*
%TO.C,R2*%
X4014583Y-16675000D02*
X5264583Y-16675000D01*
X5264583Y-14675000D01*
X4014583Y-14675000D01*
X4014583Y-16675000D01*
%TO.C,R12*%
X20216667Y-16075000D02*
X21466667Y-16075000D01*
X21466667Y-14075000D01*
X20216667Y-14075000D01*
X20216667Y-16075000D01*
%TO.C,R6*%
X13272917Y-16075000D02*
X14522917Y-16075000D01*
X14522917Y-14075000D01*
X13272917Y-14075000D01*
X13272917Y-16075000D01*
%TO.C,R8*%
X17902083Y-15875000D02*
X19152083Y-15875000D01*
X19152083Y-13875000D01*
X17902083Y-13875000D01*
X17902083Y-15875000D01*
%TO.C,R4*%
X8643750Y-16475000D02*
X9893750Y-16475000D01*
X9893750Y-14475000D01*
X8643750Y-14475000D01*
X8643750Y-16475000D01*
%TO.C,R7*%
X15587500Y-15875000D02*
X16837500Y-15875000D01*
X16837500Y-13875000D01*
X15587500Y-13875000D01*
X15587500Y-15875000D01*
%TO.C,R5*%
X10958333Y-16475000D02*
X12208333Y-16475000D01*
X12208333Y-14475000D01*
X10958333Y-14475000D01*
X10958333Y-16475000D01*
%TO.C,R9*%
X24845833Y-16475000D02*
X26095833Y-16475000D01*
X26095833Y-14475000D01*
X24845833Y-14475000D01*
X24845833Y-16475000D01*
%TO.C,R10*%
X27160417Y-16675000D02*
X28410417Y-16675000D01*
X28410417Y-14675000D01*
X27160417Y-14675000D01*
X27160417Y-16675000D01*
%TD*%
M02*
