%TF.GenerationSoftware,KiCad,Pcbnew,9.0.7*%
%TF.CreationDate,2026-05-06T21:02:05+02:00*%
%TF.ProjectId,BarePi_DispHDMI,42617265-5069-45f4-9469-737048444d49,rev?*%
%TF.SameCoordinates,Original*%
%TF.FileFunction,Copper,L2,Bot*%
%TF.FilePolarity,Positive*%
%FSLAX46Y46*%
G04 Gerber Fmt 4.6, Leading zero omitted, Abs format (unit mm)*
G04 Created by KiCad (PCBNEW 9.0.7) date 2026-05-06 21:02:05*
%MOMM*%
%LPD*%
G01*
G04 APERTURE LIST*
G04 Aperture macros list*
%AMOutline4P*
0 Free polygon, 4 corners , with rotation*
0 The origin of the aperture is its center*
0 number of corners: always 4*
0 $1 to $8 corner X, Y*
0 $9 Rotation angle, in degrees counterclockwise*
0 create outline with 4 corners*
4,1,4,$1,$2,$3,$4,$5,$6,$7,$8,$1,$2,$9*%
G04 Aperture macros list end*
%ADD10C,0.200000*%
%TA.AperFunction,ComponentPad*%
%ADD11O,2.000000X4.000000*%
%TD*%
%TA.AperFunction,ComponentPad*%
%ADD12O,2.000000X3.000000*%
%TD*%
%TA.AperFunction,ComponentPad*%
%ADD13Outline4P,-1.500000X-0.800000X1.500000X-0.800000X1.500000X0.800000X-1.500000X0.800000X270.000000*%
%TD*%
%TA.AperFunction,ComponentPad*%
%ADD14O,1.600000X3.000000*%
%TD*%
G04 APERTURE END LIST*
D10*
G36*
X1522193Y-9130414D02*
G01*
X1584746Y-9150922D01*
X1641091Y-9184878D01*
X1688560Y-9230484D01*
X1726569Y-9288342D01*
X1755122Y-9360733D01*
X1783929Y-9310117D01*
X1820523Y-9267550D01*
X1865489Y-9232200D01*
X1916254Y-9205830D01*
X1969842Y-9190112D01*
X2027224Y-9184802D01*
X2080355Y-9189196D01*
X2128963Y-9202049D01*
X2173922Y-9223270D01*
X2233408Y-9266969D01*
X2278718Y-9319288D01*
X2311158Y-9380294D01*
X2330467Y-9449958D01*
X2339238Y-9532418D01*
X2342908Y-9671532D01*
X2342908Y-10171925D01*
X1087500Y-10171925D01*
X1087500Y-9745874D01*
X1088516Y-9685194D01*
X1297548Y-9685194D01*
X1297548Y-9919133D01*
X1634603Y-9919133D01*
X1634603Y-9753506D01*
X1844652Y-9753506D01*
X1844652Y-9919133D01*
X2132859Y-9919133D01*
X2132859Y-9773961D01*
X2128585Y-9557959D01*
X2119710Y-9517443D01*
X2104954Y-9486366D01*
X2084774Y-9462781D01*
X2044335Y-9439113D01*
X1990893Y-9430724D01*
X1952187Y-9435106D01*
X1920226Y-9447550D01*
X1893501Y-9467895D01*
X1864526Y-9510492D01*
X1848927Y-9569866D01*
X1844652Y-9753506D01*
X1634603Y-9753506D01*
X1634603Y-9715038D01*
X1628705Y-9557495D01*
X1616514Y-9490945D01*
X1592633Y-9444721D01*
X1558888Y-9411948D01*
X1516063Y-9391743D01*
X1462641Y-9384623D01*
X1419226Y-9388922D01*
X1384120Y-9400939D01*
X1355556Y-9420115D01*
X1323247Y-9460349D01*
X1305257Y-9511858D01*
X1300116Y-9560769D01*
X1297548Y-9685194D01*
X1088516Y-9685194D01*
X1091185Y-9525849D01*
X1096048Y-9441028D01*
X1108149Y-9375396D01*
X1128157Y-9319380D01*
X1155582Y-9271508D01*
X1191146Y-9229252D01*
X1234017Y-9193191D01*
X1285031Y-9163049D01*
X1340103Y-9140821D01*
X1395470Y-9127713D01*
X1451727Y-9123360D01*
X1522193Y-9130414D01*
G37*
G36*
X1835524Y-7754566D02*
G01*
X1943470Y-7775901D01*
X2037299Y-7809737D01*
X2119017Y-7855448D01*
X2190180Y-7913136D01*
X2251269Y-7982729D01*
X2298823Y-8060443D01*
X2333438Y-8147422D01*
X2354952Y-8245240D01*
X2362447Y-8355826D01*
X2356561Y-8456803D01*
X2339709Y-8546217D01*
X2312759Y-8625638D01*
X2284333Y-8681845D01*
X2246870Y-8735700D01*
X2199568Y-8787526D01*
X2118273Y-8853617D01*
X2027300Y-8903999D01*
X1938594Y-8934515D01*
X1832254Y-8954186D01*
X1705052Y-8961243D01*
X1583633Y-8953833D01*
X1477892Y-8932753D01*
X1385573Y-8899244D01*
X1304779Y-8853863D01*
X1234045Y-8796456D01*
X1173610Y-8727486D01*
X1126444Y-8650018D01*
X1092018Y-8562848D01*
X1070565Y-8464334D01*
X1063131Y-8353308D01*
X1278009Y-8353308D01*
X1285136Y-8426629D01*
X1305813Y-8491558D01*
X1339925Y-8549846D01*
X1388605Y-8602664D01*
X1446060Y-8643218D01*
X1517306Y-8673822D01*
X1605278Y-8693643D01*
X1713601Y-8700819D01*
X1824177Y-8693716D01*
X1912795Y-8674227D01*
X1983460Y-8644385D01*
X2039436Y-8605183D01*
X2086553Y-8553805D01*
X2119930Y-8495703D01*
X2140391Y-8429529D01*
X2147513Y-8353308D01*
X2140441Y-8276953D01*
X2120167Y-8210968D01*
X2087182Y-8153330D01*
X2040734Y-8102653D01*
X1985456Y-8064051D01*
X1915414Y-8034608D01*
X1827291Y-8015345D01*
X1717035Y-8008315D01*
X1605686Y-8015494D01*
X1516213Y-8035216D01*
X1444652Y-8065460D01*
X1387766Y-8105249D01*
X1339532Y-8157391D01*
X1305675Y-8215219D01*
X1285111Y-8279929D01*
X1278009Y-8353308D01*
X1063131Y-8353308D01*
X1063075Y-8352468D01*
X1070559Y-8242162D01*
X1092030Y-8144704D01*
X1126561Y-8058149D01*
X1173981Y-7980911D01*
X1234885Y-7911839D01*
X1305871Y-7854567D01*
X1387247Y-7809205D01*
X1480537Y-7775644D01*
X1587706Y-7754495D01*
X1711082Y-7747051D01*
X1835524Y-7754566D01*
G37*
G36*
X1087500Y-7267801D02*
G01*
X2132859Y-7267801D01*
X2132859Y-7639279D01*
X2342908Y-7639279D01*
X2342908Y-6644447D01*
X2132859Y-6644447D01*
X2132859Y-7015086D01*
X1087500Y-7015086D01*
X1087500Y-7267801D01*
G37*
G36*
X1087500Y-6199238D02*
G01*
X2132859Y-6199238D01*
X2132859Y-6570717D01*
X2342908Y-6570717D01*
X2342908Y-5575885D01*
X2132859Y-5575885D01*
X2132859Y-5946523D01*
X1087500Y-5946523D01*
X1087500Y-6199238D01*
G37*
G36*
X1835524Y-4288760D02*
G01*
X1943470Y-4310095D01*
X2037299Y-4343931D01*
X2119017Y-4389642D01*
X2190180Y-4447330D01*
X2251269Y-4516923D01*
X2298823Y-4594637D01*
X2333438Y-4681616D01*
X2354952Y-4779434D01*
X2362447Y-4890020D01*
X2356561Y-4990997D01*
X2339709Y-5080411D01*
X2312759Y-5159832D01*
X2284333Y-5216039D01*
X2246870Y-5269894D01*
X2199568Y-5321720D01*
X2118273Y-5387811D01*
X2027300Y-5438193D01*
X1938594Y-5468709D01*
X1832254Y-5488380D01*
X1705052Y-5495437D01*
X1583633Y-5488027D01*
X1477892Y-5466947D01*
X1385573Y-5433438D01*
X1304779Y-5388057D01*
X1234045Y-5330650D01*
X1173610Y-5261680D01*
X1126444Y-5184212D01*
X1092018Y-5097042D01*
X1070565Y-4998528D01*
X1063131Y-4887502D01*
X1278009Y-4887502D01*
X1285136Y-4960823D01*
X1305813Y-5025752D01*
X1339925Y-5084040D01*
X1388605Y-5136858D01*
X1446060Y-5177412D01*
X1517306Y-5208016D01*
X1605278Y-5227837D01*
X1713601Y-5235013D01*
X1824177Y-5227910D01*
X1912795Y-5208421D01*
X1983460Y-5178579D01*
X2039436Y-5139377D01*
X2086553Y-5087999D01*
X2119930Y-5029897D01*
X2140391Y-4963723D01*
X2147513Y-4887502D01*
X2140441Y-4811147D01*
X2120167Y-4745162D01*
X2087182Y-4687524D01*
X2040734Y-4636847D01*
X1985456Y-4598245D01*
X1915414Y-4568802D01*
X1827291Y-4549539D01*
X1717035Y-4542509D01*
X1605686Y-4549688D01*
X1516213Y-4569410D01*
X1444652Y-4599654D01*
X1387766Y-4639443D01*
X1339532Y-4691585D01*
X1305675Y-4749413D01*
X1285111Y-4814123D01*
X1278009Y-4887502D01*
X1063131Y-4887502D01*
X1063075Y-4886662D01*
X1070559Y-4776356D01*
X1092030Y-4678898D01*
X1126561Y-4592343D01*
X1173981Y-4515105D01*
X1234885Y-4446033D01*
X1305871Y-4388761D01*
X1387247Y-4343399D01*
X1480537Y-4309838D01*
X1587706Y-4288689D01*
X1711082Y-4281245D01*
X1835524Y-4288760D01*
G37*
G36*
X1087500Y-4087225D02*
G01*
X2342908Y-4087225D01*
X2342908Y-3708954D01*
X1486531Y-3481808D01*
X2342908Y-3257257D01*
X2342908Y-2878070D01*
X1087500Y-2878070D01*
X1087500Y-3112925D01*
X2075691Y-3112925D01*
X1087500Y-3361366D01*
X1087500Y-3604769D01*
X2075691Y-3852370D01*
X1087500Y-3852370D01*
X1087500Y-4087225D01*
G37*
G36*
X28562500Y-1334412D02*
G01*
X28558814Y-1554437D01*
X28553951Y-1639258D01*
X28541850Y-1704890D01*
X28521842Y-1760906D01*
X28494417Y-1808778D01*
X28458853Y-1851034D01*
X28415982Y-1887095D01*
X28364968Y-1917237D01*
X28309896Y-1939465D01*
X28254529Y-1952573D01*
X28198272Y-1956926D01*
X28127806Y-1949872D01*
X28065253Y-1929364D01*
X28008908Y-1895408D01*
X27961439Y-1849802D01*
X27923430Y-1791944D01*
X27894877Y-1719553D01*
X27866070Y-1770169D01*
X27829476Y-1812736D01*
X27784510Y-1848086D01*
X27733745Y-1874456D01*
X27680157Y-1890174D01*
X27622775Y-1895484D01*
X27569644Y-1891090D01*
X27521036Y-1878237D01*
X27476077Y-1857016D01*
X27416591Y-1813317D01*
X27371281Y-1760998D01*
X27338841Y-1699992D01*
X27319532Y-1630328D01*
X27310761Y-1547868D01*
X27307091Y-1408754D01*
X27307091Y-1306325D01*
X27517140Y-1306325D01*
X27521414Y-1522327D01*
X27530289Y-1562843D01*
X27545045Y-1593920D01*
X27565225Y-1617505D01*
X27605664Y-1641173D01*
X27659106Y-1649562D01*
X27697812Y-1645180D01*
X27729773Y-1632736D01*
X27756498Y-1612391D01*
X27785473Y-1569794D01*
X27801072Y-1510420D01*
X27804451Y-1365248D01*
X28015396Y-1365248D01*
X28021294Y-1522791D01*
X28033485Y-1589341D01*
X28057366Y-1635565D01*
X28091111Y-1668338D01*
X28133936Y-1688543D01*
X28187358Y-1695663D01*
X28230773Y-1691364D01*
X28265879Y-1679347D01*
X28294443Y-1660171D01*
X28326752Y-1619937D01*
X28344742Y-1568428D01*
X28349883Y-1519517D01*
X28352451Y-1395092D01*
X28352451Y-1161153D01*
X28015396Y-1161153D01*
X28015396Y-1365248D01*
X27804451Y-1365248D01*
X27805347Y-1326780D01*
X27805347Y-1161153D01*
X27517140Y-1161153D01*
X27517140Y-1306325D01*
X27307091Y-1306325D01*
X27307091Y-908361D01*
X28562500Y-908361D01*
X28562500Y-1334412D01*
G37*
G36*
X28374273Y-2110626D02*
G01*
X28424648Y-2125811D01*
X28469763Y-2150737D01*
X28510522Y-2186057D01*
X28542919Y-2228406D01*
X28566655Y-2278266D01*
X28581618Y-2337097D01*
X28586924Y-2406791D01*
X28579217Y-2484241D01*
X28556393Y-2556237D01*
X28518937Y-2623131D01*
X28464802Y-2687747D01*
X28492585Y-2696295D01*
X28562500Y-2719346D01*
X28562500Y-2956719D01*
X28497533Y-2929533D01*
X28440073Y-2913595D01*
X28375016Y-2905495D01*
X28262691Y-2902070D01*
X27980896Y-2904589D01*
X27874665Y-2899863D01*
X27806220Y-2888165D01*
X27764818Y-2872532D01*
X27729333Y-2847349D01*
X27697002Y-2811225D01*
X27667731Y-2761936D01*
X27648332Y-2707830D01*
X27634725Y-2630426D01*
X27629492Y-2522883D01*
X27634376Y-2432283D01*
X27647729Y-2359674D01*
X27667980Y-2301943D01*
X27694140Y-2256429D01*
X27742931Y-2204276D01*
X27808116Y-2162074D01*
X27893274Y-2130110D01*
X27932353Y-2347868D01*
X27874277Y-2375190D01*
X27841144Y-2405875D01*
X27822265Y-2446399D01*
X27815116Y-2505786D01*
X27819466Y-2568909D01*
X27830339Y-2609682D01*
X27845418Y-2634700D01*
X27868064Y-2652579D01*
X27900692Y-2664411D01*
X27946855Y-2668894D01*
X27971432Y-2668894D01*
X28127747Y-2668894D01*
X28175756Y-2668894D01*
X28255471Y-2665935D01*
X28293298Y-2659506D01*
X28336306Y-2638734D01*
X28373059Y-2602262D01*
X28397328Y-2561377D01*
X28411338Y-2520386D01*
X28415954Y-2478461D01*
X28411671Y-2441250D01*
X28399383Y-2409806D01*
X28379088Y-2382825D01*
X28352635Y-2361757D01*
X28323777Y-2349440D01*
X28291543Y-2345273D01*
X28259598Y-2350368D01*
X28231719Y-2365535D01*
X28206668Y-2392213D01*
X28188552Y-2432140D01*
X28164613Y-2522883D01*
X28127747Y-2668894D01*
X27971432Y-2668894D01*
X27996752Y-2590619D01*
X28030661Y-2435795D01*
X28058755Y-2319062D01*
X28086913Y-2244980D01*
X28111749Y-2203787D01*
X28142491Y-2169737D01*
X28179573Y-2142093D01*
X28221265Y-2121889D01*
X28266886Y-2109600D01*
X28317341Y-2105380D01*
X28374273Y-2110626D01*
G37*
G36*
X28562500Y-3370329D02*
G01*
X28562500Y-3130361D01*
X27653916Y-3130361D01*
X27653916Y-3353232D01*
X27782831Y-3353232D01*
X27701262Y-3412110D01*
X27660480Y-3456120D01*
X27637334Y-3504594D01*
X27629492Y-3559846D01*
X27634414Y-3613307D01*
X27649271Y-3665713D01*
X27674677Y-3717841D01*
X27883657Y-3643576D01*
X27853422Y-3582714D01*
X27844426Y-3530843D01*
X27851636Y-3483675D01*
X27872437Y-3445434D01*
X27908179Y-3416156D01*
X27973569Y-3390403D01*
X28066513Y-3376820D01*
X28280094Y-3370329D01*
X28562500Y-3370329D01*
G37*
G36*
X28210391Y-3756957D02*
G01*
X28293647Y-3774476D01*
X28366634Y-3802431D01*
X28430837Y-3840497D01*
X28485791Y-3889480D01*
X28528608Y-3947374D01*
X28560049Y-4015453D01*
X28579889Y-4095670D01*
X28586924Y-4190527D01*
X28578546Y-4288004D01*
X28554866Y-4369997D01*
X28517009Y-4439426D01*
X28464629Y-4498654D01*
X28397602Y-4547143D01*
X28313372Y-4585056D01*
X28274293Y-4346003D01*
X28334188Y-4320315D01*
X28371227Y-4287919D01*
X28393501Y-4245898D01*
X28401299Y-4193122D01*
X28394597Y-4140466D01*
X28375079Y-4094963D01*
X28342147Y-4054820D01*
X28299549Y-4024774D01*
X28245416Y-4005062D01*
X28176596Y-3996736D01*
X28176596Y-4597879D01*
X28060791Y-4594174D01*
X27964381Y-4579749D01*
X27884436Y-4556260D01*
X27818393Y-4524831D01*
X27764131Y-4485985D01*
X27705890Y-4423082D01*
X27664282Y-4350336D01*
X27638531Y-4265795D01*
X27630821Y-4181215D01*
X27815116Y-4181215D01*
X27821237Y-4227812D01*
X27839231Y-4268855D01*
X27869918Y-4305856D01*
X27909493Y-4333315D01*
X27961663Y-4351702D01*
X28030050Y-4359665D01*
X28030050Y-4001010D01*
X27965704Y-4006783D01*
X27914279Y-4023901D01*
X27872971Y-4051385D01*
X27840734Y-4088723D01*
X27821671Y-4131399D01*
X27815116Y-4181215D01*
X27630821Y-4181215D01*
X27629492Y-4166637D01*
X27637827Y-4079084D01*
X27661996Y-4001487D01*
X27701809Y-3931809D01*
X27758483Y-3868661D01*
X27825847Y-3819002D01*
X27905957Y-3782347D01*
X28001308Y-3759095D01*
X28115077Y-3750814D01*
X28210391Y-3756957D01*
G37*
G36*
X28562500Y-5047362D02*
G01*
X28088668Y-5047362D01*
X28088668Y-5212149D01*
X28083432Y-5373666D01*
X28070655Y-5474329D01*
X28049062Y-5539269D01*
X28011198Y-5605457D01*
X27978172Y-5645222D01*
X27937257Y-5680621D01*
X27887473Y-5711779D01*
X27833403Y-5734230D01*
X27769287Y-5748516D01*
X27693148Y-5753605D01*
X27595692Y-5744832D01*
X27515387Y-5720210D01*
X27448828Y-5681019D01*
X27392355Y-5627855D01*
X27351892Y-5568177D01*
X27325944Y-5500814D01*
X27313226Y-5411055D01*
X27307091Y-5200242D01*
X27307091Y-5169483D01*
X27517140Y-5169483D01*
X27519923Y-5294796D01*
X27525841Y-5351368D01*
X27537282Y-5390309D01*
X27555999Y-5423874D01*
X27582322Y-5452957D01*
X27614478Y-5474922D01*
X27652212Y-5488383D01*
X27697040Y-5493105D01*
X27750642Y-5485777D01*
X27796111Y-5464483D01*
X27832777Y-5430698D01*
X27858622Y-5385485D01*
X27872252Y-5322775D01*
X27878620Y-5185664D01*
X27878620Y-5047362D01*
X27517140Y-5047362D01*
X27517140Y-5169483D01*
X27307091Y-5169483D01*
X27307091Y-4794647D01*
X28562500Y-4794647D01*
X28562500Y-5047362D01*
G37*
G36*
X27526910Y-5959227D02*
G01*
X27307091Y-5959227D01*
X27307091Y-6199119D01*
X27526910Y-6199119D01*
X27526910Y-5959227D01*
G37*
G36*
X28562500Y-5959227D02*
G01*
X27653916Y-5959227D01*
X27653916Y-6199119D01*
X28562500Y-6199119D01*
X28562500Y-5959227D01*
G37*
G36*
X30412500Y-1548057D02*
G01*
X30405012Y-1680883D01*
X30385938Y-1771768D01*
X30357493Y-1844043D01*
X30323966Y-1902573D01*
X30285722Y-1949378D01*
X30225285Y-2001641D01*
X30152020Y-2046418D01*
X30063995Y-2083483D01*
X29988245Y-2104031D01*
X29899810Y-2117194D01*
X29796779Y-2121875D01*
X29679281Y-2116771D01*
X29581323Y-2102617D01*
X29500100Y-2080888D01*
X29422626Y-2048706D01*
X29355196Y-2008853D01*
X29296691Y-1961361D01*
X29246826Y-1905381D01*
X29208465Y-1842783D01*
X29181058Y-1772608D01*
X29164062Y-1681315D01*
X29157091Y-1534394D01*
X29157091Y-1438758D01*
X29367140Y-1438758D01*
X29370972Y-1580727D01*
X29379200Y-1646288D01*
X29402277Y-1711885D01*
X29438581Y-1763219D01*
X29489014Y-1803056D01*
X29560703Y-1834966D01*
X29647624Y-1853196D01*
X29785253Y-1860611D01*
X29923694Y-1853323D01*
X30016215Y-1834966D01*
X30071350Y-1814462D01*
X30110805Y-1792253D01*
X30137955Y-1768791D01*
X30169057Y-1723939D01*
X30190391Y-1666744D01*
X30198813Y-1612450D01*
X30202451Y-1513939D01*
X30202451Y-1325185D01*
X29367140Y-1325185D01*
X29367140Y-1438758D01*
X29157091Y-1438758D01*
X29157091Y-1072470D01*
X30412500Y-1072470D01*
X30412500Y-1548057D01*
G37*
G36*
X29376910Y-2334366D02*
G01*
X29157091Y-2334366D01*
X29157091Y-2574258D01*
X29376910Y-2574258D01*
X29376910Y-2334366D01*
G37*
G36*
X30412500Y-2334366D02*
G01*
X29503916Y-2334366D01*
X29503916Y-2574258D01*
X30412500Y-2574258D01*
X30412500Y-2334366D01*
G37*
G36*
X30153602Y-2735840D02*
G01*
X30124293Y-2976648D01*
X30168331Y-2991013D01*
X30202989Y-3011803D01*
X30229928Y-3038930D01*
X30249006Y-3072166D01*
X30261405Y-3115125D01*
X30265954Y-3170440D01*
X30261373Y-3231807D01*
X30249184Y-3277278D01*
X30230997Y-3310498D01*
X30202544Y-3334143D01*
X30165585Y-3342097D01*
X30139666Y-3337699D01*
X30119255Y-3325000D01*
X30104447Y-3300757D01*
X30086970Y-3244781D01*
X30036793Y-3047574D01*
X29997691Y-2934169D01*
X29967901Y-2876738D01*
X29926539Y-2829138D01*
X29879233Y-2796104D01*
X29824821Y-2776079D01*
X29761287Y-2769118D01*
X29703756Y-2774989D01*
X29651966Y-2792168D01*
X29604594Y-2820818D01*
X29560779Y-2862160D01*
X29527764Y-2910269D01*
X29502372Y-2972163D01*
X29485635Y-3051049D01*
X29479492Y-3150824D01*
X29484261Y-3246907D01*
X29497190Y-3322717D01*
X29516567Y-3381855D01*
X29541239Y-3427429D01*
X29587916Y-3480624D01*
X29647896Y-3522108D01*
X29723735Y-3552146D01*
X29767698Y-3325916D01*
X29716742Y-3304371D01*
X29680687Y-3270808D01*
X29664788Y-3242192D01*
X29654332Y-3204465D01*
X29650462Y-3155098D01*
X29654242Y-3091793D01*
X29663913Y-3048229D01*
X29677558Y-3019315D01*
X29699856Y-2998659D01*
X29727246Y-2991990D01*
X29751110Y-2997747D01*
X29771820Y-3015880D01*
X29794887Y-3068218D01*
X29840819Y-3240049D01*
X29876859Y-3367395D01*
X29913350Y-3453132D01*
X29949201Y-3507724D01*
X29996933Y-3548822D01*
X30055932Y-3573974D01*
X30129636Y-3582905D01*
X30190065Y-3576475D01*
X30245510Y-3557482D01*
X30297309Y-3525448D01*
X30346325Y-3478720D01*
X30383608Y-3424778D01*
X30411875Y-3357450D01*
X30430252Y-3273849D01*
X30436924Y-3170440D01*
X30431450Y-3076717D01*
X30416153Y-2998095D01*
X30392323Y-2932225D01*
X30360674Y-2877120D01*
X30318968Y-2827619D01*
X30271055Y-2787986D01*
X30216288Y-2757454D01*
X30153602Y-2735840D01*
G37*
G36*
X30759324Y-4025595D02*
G01*
X30304498Y-4025595D01*
X30368947Y-4094644D01*
X30407004Y-4154052D01*
X30429258Y-4217800D01*
X30436924Y-4290293D01*
X30428995Y-4366211D01*
X30405670Y-4435298D01*
X30366522Y-4499256D01*
X30309689Y-4559189D01*
X30243587Y-4605620D01*
X30164003Y-4640212D01*
X30068257Y-4662326D01*
X29953018Y-4670244D01*
X29840977Y-4662428D01*
X29747575Y-4640561D01*
X29669628Y-4606267D01*
X29604590Y-4560105D01*
X29548839Y-4500711D01*
X29510330Y-4437064D01*
X29487326Y-4368052D01*
X29479492Y-4291973D01*
X29484551Y-4232873D01*
X29486125Y-4227096D01*
X29665116Y-4227096D01*
X29672902Y-4280160D01*
X29695956Y-4326771D01*
X29735947Y-4368833D01*
X29786481Y-4398585D01*
X29856685Y-4418545D01*
X29952712Y-4426077D01*
X30056199Y-4418515D01*
X30128560Y-4398916D01*
X30177797Y-4370512D01*
X30216431Y-4329658D01*
X30238819Y-4283917D01*
X30246414Y-4231370D01*
X30238278Y-4176772D01*
X30214032Y-4128154D01*
X30171691Y-4083603D01*
X30118277Y-4052176D01*
X30043476Y-4031012D01*
X29940500Y-4023000D01*
X29851210Y-4030483D01*
X29784310Y-4050581D01*
X29734649Y-4081084D01*
X29695636Y-4123689D01*
X29672873Y-4171690D01*
X29665116Y-4227096D01*
X29486125Y-4227096D01*
X29499427Y-4178261D01*
X29524142Y-4127185D01*
X29575173Y-4060106D01*
X29637105Y-4009338D01*
X29503916Y-4009338D01*
X29503916Y-3785627D01*
X30759324Y-3785627D01*
X30759324Y-4025595D01*
G37*
G36*
X30412500Y-4863577D02*
G01*
X29157091Y-4863577D01*
X29157091Y-5116368D01*
X29650462Y-5116368D01*
X29650462Y-5611571D01*
X29157091Y-5611571D01*
X29157091Y-5864362D01*
X30412500Y-5864362D01*
X30412500Y-5611571D01*
X29860511Y-5611571D01*
X29860511Y-5116368D01*
X30412500Y-5116368D01*
X30412500Y-4863577D01*
G37*
G36*
X30412500Y-6600220D02*
G01*
X30405012Y-6733046D01*
X30385938Y-6823931D01*
X30357493Y-6896206D01*
X30323966Y-6954736D01*
X30285722Y-7001542D01*
X30225285Y-7053804D01*
X30152020Y-7098581D01*
X30063995Y-7135646D01*
X29988245Y-7156194D01*
X29899810Y-7169358D01*
X29796779Y-7174038D01*
X29679281Y-7168935D01*
X29581323Y-7154780D01*
X29500100Y-7133051D01*
X29422626Y-7100869D01*
X29355196Y-7061016D01*
X29296691Y-7013525D01*
X29246826Y-6957544D01*
X29208465Y-6894947D01*
X29181058Y-6824771D01*
X29164062Y-6733479D01*
X29157091Y-6586558D01*
X29157091Y-6490921D01*
X29367140Y-6490921D01*
X29370972Y-6632891D01*
X29379200Y-6698452D01*
X29402277Y-6764049D01*
X29438581Y-6815383D01*
X29489014Y-6855220D01*
X29560703Y-6887129D01*
X29647624Y-6905360D01*
X29785253Y-6912775D01*
X29923694Y-6905486D01*
X30016215Y-6887129D01*
X30071350Y-6866625D01*
X30110805Y-6844417D01*
X30137955Y-6820955D01*
X30169057Y-6776103D01*
X30190391Y-6718907D01*
X30198813Y-6664614D01*
X30202451Y-6566102D01*
X30202451Y-6377348D01*
X29367140Y-6377348D01*
X29367140Y-6490921D01*
X29157091Y-6490921D01*
X29157091Y-6124633D01*
X30412500Y-6124633D01*
X30412500Y-6600220D01*
G37*
G36*
X30412500Y-7384774D02*
G01*
X29157091Y-7384774D01*
X29157091Y-7763045D01*
X30013468Y-7990191D01*
X29157091Y-8214742D01*
X29157091Y-8593929D01*
X30412500Y-8593929D01*
X30412500Y-8359074D01*
X29424308Y-8359074D01*
X30412500Y-8110633D01*
X30412500Y-7867230D01*
X29424308Y-7619629D01*
X30412500Y-7619629D01*
X30412500Y-7384774D01*
G37*
G36*
X30412500Y-8837408D02*
G01*
X29157091Y-8837408D01*
X29157091Y-9090200D01*
X30412500Y-9090200D01*
X30412500Y-8837408D01*
G37*
D11*
%TO.P,J2,SH,SH*%
%TO.N,/GND*%
X8750000Y-9325000D03*
X23250000Y-9325000D03*
D12*
X8750000Y-3365000D03*
X23250000Y-3365000D03*
%TD*%
D13*
%TO.P,J1,1,Pin_1*%
%TO.N,unconnected-(J1-Pin_1-Pad1)*%
X27430000Y-24340000D03*
D14*
%TO.P,J1,2,Pin_2*%
%TO.N,unconnected-(J1-Pin_2-Pad2)*%
X27430000Y-21000000D03*
%TO.P,J1,3,Pin_3*%
%TO.N,/GND*%
X24890000Y-24340000D03*
%TO.P,J1,4,Pin_4*%
%TO.N,unconnected-(J1-Pin_4-Pad4)*%
X24890000Y-21000000D03*
%TO.P,J1,5,Pin_5*%
%TO.N,/3V3*%
X22350000Y-24340000D03*
%TO.P,J1,6,Pin_6*%
%TO.N,unconnected-(J1-Pin_6-Pad6)*%
X22350000Y-21000000D03*
%TO.P,J1,7,Pin_7*%
%TO.N,/3V3*%
X19810000Y-24340000D03*
%TO.P,J1,8,Pin_8*%
%TO.N,unconnected-(J1-Pin_8-Pad8)*%
X19810000Y-21000000D03*
%TO.P,J1,9,Pin_9*%
%TO.N,/HOTPLUG*%
X17270000Y-24340000D03*
%TO.P,J1,10,Pin_10*%
%TO.N,/5V*%
X17270000Y-21000000D03*
%TO.P,J1,11,Pin_11*%
%TO.N,/SDA*%
X14730000Y-24340000D03*
%TO.P,J1,12,Pin_12*%
%TO.N,/SCL*%
X14730000Y-21000000D03*
%TO.P,J1,13,Pin_13*%
%TO.N,/CKN*%
X12190000Y-24340000D03*
%TO.P,J1,14,Pin_14*%
%TO.N,/CKP*%
X12190000Y-21000000D03*
%TO.P,J1,15,Pin_15*%
%TO.N,/D0N*%
X9650000Y-24340000D03*
%TO.P,J1,16,Pin_16*%
%TO.N,/D0P*%
X9650000Y-21000000D03*
%TO.P,J1,17,Pin_17*%
%TO.N,/D1N*%
X7110000Y-24340000D03*
%TO.P,J1,18,Pin_18*%
%TO.N,/D1P*%
X7110000Y-21000000D03*
%TO.P,J1,19,Pin_19*%
%TO.N,/D2N*%
X4570000Y-24340000D03*
%TO.P,J1,20,Pin_20*%
%TO.N,/D2P*%
X4570000Y-21000000D03*
%TD*%
%TA.AperFunction,Conductor*%
%TO.N,/GND*%
G36*
X26744630Y-420185D02*
G01*
X26790385Y-472989D01*
X26801591Y-524500D01*
X26801591Y-6704619D01*
X28527591Y-6704619D01*
X28594630Y-6724304D01*
X28640385Y-6777108D01*
X28651591Y-6828619D01*
X28651591Y-9595700D01*
X31264824Y-9595700D01*
X31264824Y-524500D01*
X31267374Y-515814D01*
X31266086Y-506853D01*
X31277064Y-482812D01*
X31284509Y-457461D01*
X31291349Y-451533D01*
X31295111Y-443297D01*
X31317345Y-429007D01*
X31337313Y-411706D01*
X31347827Y-409418D01*
X31353889Y-405523D01*
X31388824Y-400500D01*
X31475500Y-400500D01*
X31542539Y-420185D01*
X31588294Y-472989D01*
X31599500Y-524500D01*
X31599500Y-27475500D01*
X31579815Y-27542539D01*
X31527011Y-27588294D01*
X31475500Y-27599500D01*
X524500Y-27599500D01*
X457461Y-27579815D01*
X411706Y-27527011D01*
X400500Y-27475500D01*
X400500Y-20213389D01*
X3469500Y-20213389D01*
X3469500Y-21786611D01*
X3496598Y-21957701D01*
X3550127Y-22122445D01*
X3628768Y-22276788D01*
X3730586Y-22416928D01*
X3730588Y-22416930D01*
X3853072Y-22539414D01*
X3894733Y-22569683D01*
X3937398Y-22625013D01*
X3943376Y-22694627D01*
X3910769Y-22756421D01*
X3894733Y-22770317D01*
X3853072Y-22800585D01*
X3730588Y-22923069D01*
X3730588Y-22923070D01*
X3730586Y-22923072D01*
X3686859Y-22983256D01*
X3628768Y-23063211D01*
X3550128Y-23217552D01*
X3496597Y-23382302D01*
X3487459Y-23440000D01*
X3469500Y-23553389D01*
X3469500Y-25126611D01*
X3496598Y-25297701D01*
X3550127Y-25462445D01*
X3628768Y-25616788D01*
X3730586Y-25756928D01*
X3853072Y-25879414D01*
X3993212Y-25981232D01*
X4147555Y-26059873D01*
X4312299Y-26113402D01*
X4483389Y-26140500D01*
X4483390Y-26140500D01*
X4656610Y-26140500D01*
X4656611Y-26140500D01*
X4827701Y-26113402D01*
X4992445Y-26059873D01*
X5146788Y-25981232D01*
X5286928Y-25879414D01*
X5409414Y-25756928D01*
X5511232Y-25616788D01*
X5589873Y-25462445D01*
X5643402Y-25297701D01*
X5670500Y-25126611D01*
X5670500Y-23553389D01*
X5643402Y-23382299D01*
X5589873Y-23217555D01*
X5511232Y-23063212D01*
X5409414Y-22923072D01*
X5286928Y-22800586D01*
X5245265Y-22770316D01*
X5202602Y-22714988D01*
X5196623Y-22645374D01*
X5229229Y-22583579D01*
X5245266Y-22569683D01*
X5286928Y-22539414D01*
X5409414Y-22416928D01*
X5511232Y-22276788D01*
X5589873Y-22122445D01*
X5643402Y-21957701D01*
X5670500Y-21786611D01*
X5670500Y-20213389D01*
X6009500Y-20213389D01*
X6009500Y-21786611D01*
X6036598Y-21957701D01*
X6090127Y-22122445D01*
X6168768Y-22276788D01*
X6270586Y-22416928D01*
X6270588Y-22416930D01*
X6393072Y-22539414D01*
X6434733Y-22569683D01*
X6477398Y-22625013D01*
X6483376Y-22694627D01*
X6450769Y-22756421D01*
X6434733Y-22770317D01*
X6393072Y-22800585D01*
X6270588Y-22923069D01*
X6270588Y-22923070D01*
X6270586Y-22923072D01*
X6226859Y-22983256D01*
X6168768Y-23063211D01*
X6090128Y-23217552D01*
X6036597Y-23382302D01*
X6027459Y-23440000D01*
X6009500Y-23553389D01*
X6009500Y-25126611D01*
X6036598Y-25297701D01*
X6090127Y-25462445D01*
X6168768Y-25616788D01*
X6270586Y-25756928D01*
X6393072Y-25879414D01*
X6533212Y-25981232D01*
X6687555Y-26059873D01*
X6852299Y-26113402D01*
X7023389Y-26140500D01*
X7023390Y-26140500D01*
X7196610Y-26140500D01*
X7196611Y-26140500D01*
X7367701Y-26113402D01*
X7532445Y-26059873D01*
X7686788Y-25981232D01*
X7826928Y-25879414D01*
X7949414Y-25756928D01*
X8051232Y-25616788D01*
X8129873Y-25462445D01*
X8183402Y-25297701D01*
X8210500Y-25126611D01*
X8210500Y-23553389D01*
X8183402Y-23382299D01*
X8129873Y-23217555D01*
X8051232Y-23063212D01*
X7949414Y-22923072D01*
X7826928Y-22800586D01*
X7785265Y-22770316D01*
X7742602Y-22714988D01*
X7736623Y-22645374D01*
X7769229Y-22583579D01*
X7785266Y-22569683D01*
X7826928Y-22539414D01*
X7949414Y-22416928D01*
X8051232Y-22276788D01*
X8129873Y-22122445D01*
X8183402Y-21957701D01*
X8210500Y-21786611D01*
X8210500Y-20213389D01*
X8549500Y-20213389D01*
X8549500Y-21786611D01*
X8576598Y-21957701D01*
X8630127Y-22122445D01*
X8708768Y-22276788D01*
X8810586Y-22416928D01*
X8810588Y-22416930D01*
X8933072Y-22539414D01*
X8974733Y-22569683D01*
X9017398Y-22625013D01*
X9023376Y-22694627D01*
X8990769Y-22756421D01*
X8974733Y-22770317D01*
X8933072Y-22800585D01*
X8810588Y-22923069D01*
X8810588Y-22923070D01*
X8810586Y-22923072D01*
X8766859Y-22983256D01*
X8708768Y-23063211D01*
X8630128Y-23217552D01*
X8576597Y-23382302D01*
X8567459Y-23440000D01*
X8549500Y-23553389D01*
X8549500Y-25126611D01*
X8576598Y-25297701D01*
X8630127Y-25462445D01*
X8708768Y-25616788D01*
X8810586Y-25756928D01*
X8933072Y-25879414D01*
X9073212Y-25981232D01*
X9227555Y-26059873D01*
X9392299Y-26113402D01*
X9563389Y-26140500D01*
X9563390Y-26140500D01*
X9736610Y-26140500D01*
X9736611Y-26140500D01*
X9907701Y-26113402D01*
X10072445Y-26059873D01*
X10226788Y-25981232D01*
X10366928Y-25879414D01*
X10489414Y-25756928D01*
X10591232Y-25616788D01*
X10669873Y-25462445D01*
X10723402Y-25297701D01*
X10750500Y-25126611D01*
X10750500Y-23553389D01*
X10723402Y-23382299D01*
X10669873Y-23217555D01*
X10591232Y-23063212D01*
X10489414Y-22923072D01*
X10366928Y-22800586D01*
X10325265Y-22770316D01*
X10282602Y-22714988D01*
X10276623Y-22645374D01*
X10309229Y-22583579D01*
X10325266Y-22569683D01*
X10366928Y-22539414D01*
X10489414Y-22416928D01*
X10591232Y-22276788D01*
X10669873Y-22122445D01*
X10723402Y-21957701D01*
X10750500Y-21786611D01*
X10750500Y-20213389D01*
X11089500Y-20213389D01*
X11089500Y-21786611D01*
X11116598Y-21957701D01*
X11170127Y-22122445D01*
X11248768Y-22276788D01*
X11350586Y-22416928D01*
X11350588Y-22416930D01*
X11473072Y-22539414D01*
X11514733Y-22569683D01*
X11557398Y-22625013D01*
X11563376Y-22694627D01*
X11530769Y-22756421D01*
X11514733Y-22770317D01*
X11473072Y-22800585D01*
X11350588Y-22923069D01*
X11350588Y-22923070D01*
X11350586Y-22923072D01*
X11306859Y-22983256D01*
X11248768Y-23063211D01*
X11170128Y-23217552D01*
X11116597Y-23382302D01*
X11107459Y-23440000D01*
X11089500Y-23553389D01*
X11089500Y-25126611D01*
X11116598Y-25297701D01*
X11170127Y-25462445D01*
X11248768Y-25616788D01*
X11350586Y-25756928D01*
X11473072Y-25879414D01*
X11613212Y-25981232D01*
X11767555Y-26059873D01*
X11932299Y-26113402D01*
X12103389Y-26140500D01*
X12103390Y-26140500D01*
X12276610Y-26140500D01*
X12276611Y-26140500D01*
X12447701Y-26113402D01*
X12612445Y-26059873D01*
X12766788Y-25981232D01*
X12906928Y-25879414D01*
X13029414Y-25756928D01*
X13131232Y-25616788D01*
X13209873Y-25462445D01*
X13263402Y-25297701D01*
X13290500Y-25126611D01*
X13290500Y-23553389D01*
X13263402Y-23382299D01*
X13209873Y-23217555D01*
X13131232Y-23063212D01*
X13029414Y-22923072D01*
X12906928Y-22800586D01*
X12865265Y-22770316D01*
X12822602Y-22714988D01*
X12816623Y-22645374D01*
X12849229Y-22583579D01*
X12865266Y-22569683D01*
X12906928Y-22539414D01*
X13029414Y-22416928D01*
X13131232Y-22276788D01*
X13209873Y-22122445D01*
X13263402Y-21957701D01*
X13290500Y-21786611D01*
X13290500Y-20213389D01*
X13629500Y-20213389D01*
X13629500Y-21786611D01*
X13656598Y-21957701D01*
X13710127Y-22122445D01*
X13788768Y-22276788D01*
X13890586Y-22416928D01*
X13890588Y-22416930D01*
X14013072Y-22539414D01*
X14054733Y-22569683D01*
X14097398Y-22625013D01*
X14103376Y-22694627D01*
X14070769Y-22756421D01*
X14054733Y-22770317D01*
X14013072Y-22800585D01*
X13890588Y-22923069D01*
X13890588Y-22923070D01*
X13890586Y-22923072D01*
X13846859Y-22983256D01*
X13788768Y-23063211D01*
X13710128Y-23217552D01*
X13656597Y-23382302D01*
X13647459Y-23440000D01*
X13629500Y-23553389D01*
X13629500Y-25126611D01*
X13656598Y-25297701D01*
X13710127Y-25462445D01*
X13788768Y-25616788D01*
X13890586Y-25756928D01*
X14013072Y-25879414D01*
X14153212Y-25981232D01*
X14307555Y-26059873D01*
X14472299Y-26113402D01*
X14643389Y-26140500D01*
X14643390Y-26140500D01*
X14816610Y-26140500D01*
X14816611Y-26140500D01*
X14987701Y-26113402D01*
X15152445Y-26059873D01*
X15306788Y-25981232D01*
X15446928Y-25879414D01*
X15569414Y-25756928D01*
X15671232Y-25616788D01*
X15749873Y-25462445D01*
X15803402Y-25297701D01*
X15830500Y-25126611D01*
X15830500Y-23553389D01*
X15803402Y-23382299D01*
X15749873Y-23217555D01*
X15671232Y-23063212D01*
X15569414Y-22923072D01*
X15446928Y-22800586D01*
X15405265Y-22770316D01*
X15362602Y-22714988D01*
X15356623Y-22645374D01*
X15389229Y-22583579D01*
X15405266Y-22569683D01*
X15446928Y-22539414D01*
X15569414Y-22416928D01*
X15671232Y-22276788D01*
X15749873Y-22122445D01*
X15803402Y-21957701D01*
X15830500Y-21786611D01*
X15830500Y-20213389D01*
X16169500Y-20213389D01*
X16169500Y-21786611D01*
X16196598Y-21957701D01*
X16250127Y-22122445D01*
X16328768Y-22276788D01*
X16430586Y-22416928D01*
X16430588Y-22416930D01*
X16553072Y-22539414D01*
X16594733Y-22569683D01*
X16637398Y-22625013D01*
X16643376Y-22694627D01*
X16610769Y-22756421D01*
X16594733Y-22770317D01*
X16553072Y-22800585D01*
X16430588Y-22923069D01*
X16430588Y-22923070D01*
X16430586Y-22923072D01*
X16386859Y-22983256D01*
X16328768Y-23063211D01*
X16250128Y-23217552D01*
X16196597Y-23382302D01*
X16187459Y-23440000D01*
X16169500Y-23553389D01*
X16169500Y-25126611D01*
X16196598Y-25297701D01*
X16250127Y-25462445D01*
X16328768Y-25616788D01*
X16430586Y-25756928D01*
X16553072Y-25879414D01*
X16693212Y-25981232D01*
X16847555Y-26059873D01*
X17012299Y-26113402D01*
X17183389Y-26140500D01*
X17183390Y-26140500D01*
X17356610Y-26140500D01*
X17356611Y-26140500D01*
X17527701Y-26113402D01*
X17692445Y-26059873D01*
X17846788Y-25981232D01*
X17986928Y-25879414D01*
X18109414Y-25756928D01*
X18211232Y-25616788D01*
X18289873Y-25462445D01*
X18343402Y-25297701D01*
X18370500Y-25126611D01*
X18370500Y-23553389D01*
X18343402Y-23382299D01*
X18289873Y-23217555D01*
X18211232Y-23063212D01*
X18109414Y-22923072D01*
X17986928Y-22800586D01*
X17945265Y-22770316D01*
X17902602Y-22714988D01*
X17896623Y-22645374D01*
X17929229Y-22583579D01*
X17945266Y-22569683D01*
X17986928Y-22539414D01*
X18109414Y-22416928D01*
X18211232Y-22276788D01*
X18289873Y-22122445D01*
X18343402Y-21957701D01*
X18370500Y-21786611D01*
X18370500Y-20213389D01*
X18709500Y-20213389D01*
X18709500Y-21786611D01*
X18736598Y-21957701D01*
X18790127Y-22122445D01*
X18868768Y-22276788D01*
X18970586Y-22416928D01*
X18970588Y-22416930D01*
X19093072Y-22539414D01*
X19134733Y-22569683D01*
X19177398Y-22625013D01*
X19183376Y-22694627D01*
X19150769Y-22756421D01*
X19134733Y-22770317D01*
X19093072Y-22800585D01*
X18970588Y-22923069D01*
X18970588Y-22923070D01*
X18970586Y-22923072D01*
X18926859Y-22983256D01*
X18868768Y-23063211D01*
X18790128Y-23217552D01*
X18736597Y-23382302D01*
X18727459Y-23440000D01*
X18709500Y-23553389D01*
X18709500Y-25126611D01*
X18736598Y-25297701D01*
X18790127Y-25462445D01*
X18868768Y-25616788D01*
X18970586Y-25756928D01*
X19093072Y-25879414D01*
X19233212Y-25981232D01*
X19387555Y-26059873D01*
X19552299Y-26113402D01*
X19723389Y-26140500D01*
X19723390Y-26140500D01*
X19896610Y-26140500D01*
X19896611Y-26140500D01*
X20067701Y-26113402D01*
X20232445Y-26059873D01*
X20386788Y-25981232D01*
X20526928Y-25879414D01*
X20649414Y-25756928D01*
X20751232Y-25616788D01*
X20829873Y-25462445D01*
X20883402Y-25297701D01*
X20910500Y-25126611D01*
X20910500Y-23553389D01*
X20883402Y-23382299D01*
X20829873Y-23217555D01*
X20751232Y-23063212D01*
X20649414Y-22923072D01*
X20526928Y-22800586D01*
X20485265Y-22770316D01*
X20442602Y-22714988D01*
X20436623Y-22645374D01*
X20469229Y-22583579D01*
X20485266Y-22569683D01*
X20526928Y-22539414D01*
X20649414Y-22416928D01*
X20751232Y-22276788D01*
X20829873Y-22122445D01*
X20883402Y-21957701D01*
X20910500Y-21786611D01*
X20910500Y-20213389D01*
X21249500Y-20213389D01*
X21249500Y-21786611D01*
X21276598Y-21957701D01*
X21330127Y-22122445D01*
X21408768Y-22276788D01*
X21510586Y-22416928D01*
X21510588Y-22416930D01*
X21633072Y-22539414D01*
X21674733Y-22569683D01*
X21717398Y-22625013D01*
X21723376Y-22694627D01*
X21690769Y-22756421D01*
X21674733Y-22770317D01*
X21633072Y-22800585D01*
X21510588Y-22923069D01*
X21510588Y-22923070D01*
X21510586Y-22923072D01*
X21466859Y-22983256D01*
X21408768Y-23063211D01*
X21330128Y-23217552D01*
X21276597Y-23382302D01*
X21267459Y-23440000D01*
X21249500Y-23553389D01*
X21249500Y-25126611D01*
X21276598Y-25297701D01*
X21330127Y-25462445D01*
X21408768Y-25616788D01*
X21510586Y-25756928D01*
X21633072Y-25879414D01*
X21773212Y-25981232D01*
X21927555Y-26059873D01*
X22092299Y-26113402D01*
X22263389Y-26140500D01*
X22263390Y-26140500D01*
X22436610Y-26140500D01*
X22436611Y-26140500D01*
X22607701Y-26113402D01*
X22772445Y-26059873D01*
X22926788Y-25981232D01*
X23066928Y-25879414D01*
X23176306Y-25770036D01*
X23813513Y-25770036D01*
X23898417Y-25886895D01*
X24043104Y-26031582D01*
X24208650Y-26151859D01*
X24390968Y-26244755D01*
X24585582Y-26307990D01*
X24787683Y-26340000D01*
X24992317Y-26340000D01*
X25194417Y-26307990D01*
X25389031Y-26244755D01*
X25571349Y-26151859D01*
X25736894Y-26031582D01*
X25736895Y-26031582D01*
X25881584Y-25886893D01*
X25966484Y-25770037D01*
X25966484Y-25770036D01*
X24890000Y-24693552D01*
X23813513Y-25770036D01*
X23176306Y-25770036D01*
X23189414Y-25756928D01*
X23291232Y-25616788D01*
X23369873Y-25462445D01*
X23411974Y-25332870D01*
X23451410Y-25275198D01*
X23515769Y-25247999D01*
X23568222Y-25253260D01*
X23609707Y-25266739D01*
X24536448Y-24340000D01*
X24536448Y-24339999D01*
X23609707Y-23413258D01*
X23568221Y-23426738D01*
X23498380Y-23428733D01*
X23438547Y-23392653D01*
X23411974Y-23347129D01*
X23369873Y-23217555D01*
X23291232Y-23063212D01*
X23189414Y-22923072D01*
X23066928Y-22800586D01*
X23025265Y-22770316D01*
X22982602Y-22714988D01*
X22976623Y-22645374D01*
X23009229Y-22583579D01*
X23025266Y-22569683D01*
X23066928Y-22539414D01*
X23189414Y-22416928D01*
X23291232Y-22276788D01*
X23369873Y-22122445D01*
X23423402Y-21957701D01*
X23450500Y-21786611D01*
X23450500Y-20213389D01*
X23789500Y-20213389D01*
X23789500Y-21786611D01*
X23816598Y-21957701D01*
X23870127Y-22122445D01*
X23948768Y-22276788D01*
X24050586Y-22416928D01*
X24050588Y-22416930D01*
X24078852Y-22445194D01*
X24112337Y-22506517D01*
X24107353Y-22576209D01*
X24065481Y-22632142D01*
X24064061Y-22633190D01*
X24043107Y-22648414D01*
X23898416Y-22793105D01*
X23813513Y-22909962D01*
X23813514Y-22909963D01*
X24513222Y-23609671D01*
X24489901Y-23632993D01*
X24424075Y-23747007D01*
X24390000Y-23874174D01*
X24390000Y-24005826D01*
X24424075Y-24132993D01*
X24489901Y-24247007D01*
X24582993Y-24340099D01*
X24697007Y-24405925D01*
X24824174Y-24440000D01*
X24955826Y-24440000D01*
X25082993Y-24405925D01*
X25197007Y-24340099D01*
X25197107Y-24339999D01*
X25243552Y-24339999D01*
X25243552Y-24340000D01*
X26171187Y-25267635D01*
X26237023Y-25265755D01*
X26296856Y-25301835D01*
X26327684Y-25364536D01*
X26329500Y-25385681D01*
X26329500Y-25884856D01*
X26329502Y-25884882D01*
X26332413Y-25909987D01*
X26332415Y-25909991D01*
X26377793Y-26012764D01*
X26377794Y-26012765D01*
X26457235Y-26092206D01*
X26560009Y-26137585D01*
X26585135Y-26140500D01*
X28274864Y-26140499D01*
X28274879Y-26140497D01*
X28274882Y-26140497D01*
X28299987Y-26137586D01*
X28299988Y-26137585D01*
X28299991Y-26137585D01*
X28402765Y-26092206D01*
X28482206Y-26012765D01*
X28527585Y-25909991D01*
X28530500Y-25884865D01*
X28530499Y-22795136D01*
X28530264Y-22793110D01*
X28527586Y-22770012D01*
X28527585Y-22770010D01*
X28527585Y-22770009D01*
X28482206Y-22667235D01*
X28402765Y-22587794D01*
X28348333Y-22563760D01*
X28294957Y-22518674D01*
X28274430Y-22451888D01*
X28293268Y-22384606D01*
X28298083Y-22377468D01*
X28371232Y-22276788D01*
X28449873Y-22122445D01*
X28503402Y-21957701D01*
X28530500Y-21786611D01*
X28530500Y-20213389D01*
X28503402Y-20042299D01*
X28449873Y-19877555D01*
X28371232Y-19723212D01*
X28269414Y-19583072D01*
X28146928Y-19460586D01*
X28006788Y-19358768D01*
X27852445Y-19280127D01*
X27687701Y-19226598D01*
X27687699Y-19226597D01*
X27687698Y-19226597D01*
X27556271Y-19205781D01*
X27516611Y-19199500D01*
X27343389Y-19199500D01*
X27303728Y-19205781D01*
X27172302Y-19226597D01*
X27007552Y-19280128D01*
X26853211Y-19358768D01*
X26773256Y-19416859D01*
X26713072Y-19460586D01*
X26713070Y-19460588D01*
X26713069Y-19460588D01*
X26590588Y-19583069D01*
X26590588Y-19583070D01*
X26590586Y-19583072D01*
X26546859Y-19643256D01*
X26488768Y-19723211D01*
X26410128Y-19877552D01*
X26356597Y-20042302D01*
X26329500Y-20213389D01*
X26329500Y-21786611D01*
X26356598Y-21957701D01*
X26410127Y-22122445D01*
X26488768Y-22276788D01*
X26561897Y-22377442D01*
X26585377Y-22443246D01*
X26569552Y-22511300D01*
X26519446Y-22559995D01*
X26511666Y-22563760D01*
X26457234Y-22587794D01*
X26377794Y-22667234D01*
X26332415Y-22770006D01*
X26332415Y-22770008D01*
X26329500Y-22795131D01*
X26329500Y-23294317D01*
X26309815Y-23361356D01*
X26257011Y-23407111D01*
X26187853Y-23417055D01*
X26170525Y-23413025D01*
X25243552Y-24339999D01*
X25197107Y-24339999D01*
X25290099Y-24247007D01*
X25355925Y-24132993D01*
X25390000Y-24005826D01*
X25390000Y-23874174D01*
X25355925Y-23747007D01*
X25290099Y-23632993D01*
X25266777Y-23609671D01*
X25966484Y-22909963D01*
X25966485Y-22909961D01*
X25881587Y-22793110D01*
X25881582Y-22793104D01*
X25736895Y-22648417D01*
X25736889Y-22648412D01*
X25715940Y-22633191D01*
X25673276Y-22577860D01*
X25667298Y-22508247D01*
X25699906Y-22446453D01*
X25701017Y-22445324D01*
X25729414Y-22416928D01*
X25831232Y-22276788D01*
X25909873Y-22122445D01*
X25963402Y-21957701D01*
X25990500Y-21786611D01*
X25990500Y-20213389D01*
X25963402Y-20042299D01*
X25909873Y-19877555D01*
X25831232Y-19723212D01*
X25729414Y-19583072D01*
X25606928Y-19460586D01*
X25466788Y-19358768D01*
X25312445Y-19280127D01*
X25147701Y-19226598D01*
X25147699Y-19226597D01*
X25147698Y-19226597D01*
X25016271Y-19205781D01*
X24976611Y-19199500D01*
X24803389Y-19199500D01*
X24763728Y-19205781D01*
X24632302Y-19226597D01*
X24467552Y-19280128D01*
X24313211Y-19358768D01*
X24233256Y-19416859D01*
X24173072Y-19460586D01*
X24173070Y-19460588D01*
X24173069Y-19460588D01*
X24050588Y-19583069D01*
X24050588Y-19583070D01*
X24050586Y-19583072D01*
X24006859Y-19643256D01*
X23948768Y-19723211D01*
X23870128Y-19877552D01*
X23816597Y-20042302D01*
X23789500Y-20213389D01*
X23450500Y-20213389D01*
X23423402Y-20042299D01*
X23369873Y-19877555D01*
X23291232Y-19723212D01*
X23189414Y-19583072D01*
X23066928Y-19460586D01*
X22926788Y-19358768D01*
X22772445Y-19280127D01*
X22607701Y-19226598D01*
X22607699Y-19226597D01*
X22607698Y-19226597D01*
X22476271Y-19205781D01*
X22436611Y-19199500D01*
X22263389Y-19199500D01*
X22223728Y-19205781D01*
X22092302Y-19226597D01*
X21927552Y-19280128D01*
X21773211Y-19358768D01*
X21693256Y-19416859D01*
X21633072Y-19460586D01*
X21633070Y-19460588D01*
X21633069Y-19460588D01*
X21510588Y-19583069D01*
X21510588Y-19583070D01*
X21510586Y-19583072D01*
X21466859Y-19643256D01*
X21408768Y-19723211D01*
X21330128Y-19877552D01*
X21276597Y-20042302D01*
X21249500Y-20213389D01*
X20910500Y-20213389D01*
X20883402Y-20042299D01*
X20829873Y-19877555D01*
X20751232Y-19723212D01*
X20649414Y-19583072D01*
X20526928Y-19460586D01*
X20386788Y-19358768D01*
X20232445Y-19280127D01*
X20067701Y-19226598D01*
X20067699Y-19226597D01*
X20067698Y-19226597D01*
X19936271Y-19205781D01*
X19896611Y-19199500D01*
X19723389Y-19199500D01*
X19683728Y-19205781D01*
X19552302Y-19226597D01*
X19387552Y-19280128D01*
X19233211Y-19358768D01*
X19153256Y-19416859D01*
X19093072Y-19460586D01*
X19093070Y-19460588D01*
X19093069Y-19460588D01*
X18970588Y-19583069D01*
X18970588Y-19583070D01*
X18970586Y-19583072D01*
X18926859Y-19643256D01*
X18868768Y-19723211D01*
X18790128Y-19877552D01*
X18736597Y-20042302D01*
X18709500Y-20213389D01*
X18370500Y-20213389D01*
X18343402Y-20042299D01*
X18289873Y-19877555D01*
X18211232Y-19723212D01*
X18109414Y-19583072D01*
X17986928Y-19460586D01*
X17846788Y-19358768D01*
X17692445Y-19280127D01*
X17527701Y-19226598D01*
X17527699Y-19226597D01*
X17527698Y-19226597D01*
X17396271Y-19205781D01*
X17356611Y-19199500D01*
X17183389Y-19199500D01*
X17143728Y-19205781D01*
X17012302Y-19226597D01*
X16847552Y-19280128D01*
X16693211Y-19358768D01*
X16613256Y-19416859D01*
X16553072Y-19460586D01*
X16553070Y-19460588D01*
X16553069Y-19460588D01*
X16430588Y-19583069D01*
X16430588Y-19583070D01*
X16430586Y-19583072D01*
X16386859Y-19643256D01*
X16328768Y-19723211D01*
X16250128Y-19877552D01*
X16196597Y-20042302D01*
X16169500Y-20213389D01*
X15830500Y-20213389D01*
X15803402Y-20042299D01*
X15749873Y-19877555D01*
X15671232Y-19723212D01*
X15569414Y-19583072D01*
X15446928Y-19460586D01*
X15306788Y-19358768D01*
X15152445Y-19280127D01*
X14987701Y-19226598D01*
X14987699Y-19226597D01*
X14987698Y-19226597D01*
X14856271Y-19205781D01*
X14816611Y-19199500D01*
X14643389Y-19199500D01*
X14603728Y-19205781D01*
X14472302Y-19226597D01*
X14307552Y-19280128D01*
X14153211Y-19358768D01*
X14073256Y-19416859D01*
X14013072Y-19460586D01*
X14013070Y-19460588D01*
X14013069Y-19460588D01*
X13890588Y-19583069D01*
X13890588Y-19583070D01*
X13890586Y-19583072D01*
X13846859Y-19643256D01*
X13788768Y-19723211D01*
X13710128Y-19877552D01*
X13656597Y-20042302D01*
X13629500Y-20213389D01*
X13290500Y-20213389D01*
X13263402Y-20042299D01*
X13209873Y-19877555D01*
X13131232Y-19723212D01*
X13029414Y-19583072D01*
X12906928Y-19460586D01*
X12766788Y-19358768D01*
X12612445Y-19280127D01*
X12447701Y-19226598D01*
X12447699Y-19226597D01*
X12447698Y-19226597D01*
X12316271Y-19205781D01*
X12276611Y-19199500D01*
X12103389Y-19199500D01*
X12063728Y-19205781D01*
X11932302Y-19226597D01*
X11767552Y-19280128D01*
X11613211Y-19358768D01*
X11533256Y-19416859D01*
X11473072Y-19460586D01*
X11473070Y-19460588D01*
X11473069Y-19460588D01*
X11350588Y-19583069D01*
X11350588Y-19583070D01*
X11350586Y-19583072D01*
X11306859Y-19643256D01*
X11248768Y-19723211D01*
X11170128Y-19877552D01*
X11116597Y-20042302D01*
X11089500Y-20213389D01*
X10750500Y-20213389D01*
X10723402Y-20042299D01*
X10669873Y-19877555D01*
X10591232Y-19723212D01*
X10489414Y-19583072D01*
X10366928Y-19460586D01*
X10226788Y-19358768D01*
X10072445Y-19280127D01*
X9907701Y-19226598D01*
X9907699Y-19226597D01*
X9907698Y-19226597D01*
X9776271Y-19205781D01*
X9736611Y-19199500D01*
X9563389Y-19199500D01*
X9523728Y-19205781D01*
X9392302Y-19226597D01*
X9227552Y-19280128D01*
X9073211Y-19358768D01*
X8993256Y-19416859D01*
X8933072Y-19460586D01*
X8933070Y-19460588D01*
X8933069Y-19460588D01*
X8810588Y-19583069D01*
X8810588Y-19583070D01*
X8810586Y-19583072D01*
X8766859Y-19643256D01*
X8708768Y-19723211D01*
X8630128Y-19877552D01*
X8576597Y-20042302D01*
X8549500Y-20213389D01*
X8210500Y-20213389D01*
X8183402Y-20042299D01*
X8129873Y-19877555D01*
X8051232Y-19723212D01*
X7949414Y-19583072D01*
X7826928Y-19460586D01*
X7686788Y-19358768D01*
X7532445Y-19280127D01*
X7367701Y-19226598D01*
X7367699Y-19226597D01*
X7367698Y-19226597D01*
X7236271Y-19205781D01*
X7196611Y-19199500D01*
X7023389Y-19199500D01*
X6983728Y-19205781D01*
X6852302Y-19226597D01*
X6687552Y-19280128D01*
X6533211Y-19358768D01*
X6453256Y-19416859D01*
X6393072Y-19460586D01*
X6393070Y-19460588D01*
X6393069Y-19460588D01*
X6270588Y-19583069D01*
X6270588Y-19583070D01*
X6270586Y-19583072D01*
X6226859Y-19643256D01*
X6168768Y-19723211D01*
X6090128Y-19877552D01*
X6036597Y-20042302D01*
X6009500Y-20213389D01*
X5670500Y-20213389D01*
X5643402Y-20042299D01*
X5589873Y-19877555D01*
X5511232Y-19723212D01*
X5409414Y-19583072D01*
X5286928Y-19460586D01*
X5146788Y-19358768D01*
X4992445Y-19280127D01*
X4827701Y-19226598D01*
X4827699Y-19226597D01*
X4827698Y-19226597D01*
X4696271Y-19205781D01*
X4656611Y-19199500D01*
X4483389Y-19199500D01*
X4443728Y-19205781D01*
X4312302Y-19226597D01*
X4147552Y-19280128D01*
X3993211Y-19358768D01*
X3913256Y-19416859D01*
X3853072Y-19460586D01*
X3853070Y-19460588D01*
X3853069Y-19460588D01*
X3730588Y-19583069D01*
X3730588Y-19583070D01*
X3730586Y-19583072D01*
X3686859Y-19643256D01*
X3628768Y-19723211D01*
X3550128Y-19877552D01*
X3496597Y-20042302D01*
X3469500Y-20213389D01*
X400500Y-20213389D01*
X400500Y-10801425D01*
X420185Y-10734386D01*
X472989Y-10688631D01*
X524500Y-10677425D01*
X2867939Y-10677425D01*
X2867939Y-8206947D01*
X7250000Y-8206947D01*
X7250000Y-9075000D01*
X8300000Y-9075000D01*
X8300000Y-9575000D01*
X7250000Y-9575000D01*
X7250000Y-10443052D01*
X7286934Y-10676247D01*
X7359897Y-10900802D01*
X7467085Y-11111171D01*
X7605866Y-11302186D01*
X7772813Y-11469133D01*
X7963828Y-11607914D01*
X8174195Y-11715102D01*
X8398744Y-11788063D01*
X8398750Y-11788065D01*
X8500000Y-11804101D01*
X8500000Y-10600277D01*
X8576306Y-10644333D01*
X8690756Y-10675000D01*
X8809244Y-10675000D01*
X8923694Y-10644333D01*
X9000000Y-10600277D01*
X9000000Y-11804100D01*
X9101249Y-11788065D01*
X9101255Y-11788063D01*
X9325804Y-11715102D01*
X9536171Y-11607914D01*
X9727186Y-11469133D01*
X9894133Y-11302186D01*
X10032914Y-11111171D01*
X10140102Y-10900802D01*
X10213065Y-10676247D01*
X10250000Y-10443052D01*
X10250000Y-9575000D01*
X9200000Y-9575000D01*
X9200000Y-9075000D01*
X10250000Y-9075000D01*
X10250000Y-8206947D01*
X21750000Y-8206947D01*
X21750000Y-9075000D01*
X22800000Y-9075000D01*
X22800000Y-9575000D01*
X21750000Y-9575000D01*
X21750000Y-10443052D01*
X21786934Y-10676247D01*
X21859897Y-10900802D01*
X21967085Y-11111171D01*
X22105866Y-11302186D01*
X22272813Y-11469133D01*
X22463828Y-11607914D01*
X22674195Y-11715102D01*
X22898744Y-11788063D01*
X22898750Y-11788065D01*
X23000000Y-11804101D01*
X23000000Y-10600277D01*
X23076306Y-10644333D01*
X23190756Y-10675000D01*
X23309244Y-10675000D01*
X23423694Y-10644333D01*
X23500000Y-10600277D01*
X23500000Y-11804100D01*
X23601249Y-11788065D01*
X23601255Y-11788063D01*
X23825804Y-11715102D01*
X24036171Y-11607914D01*
X24227186Y-11469133D01*
X24394133Y-11302186D01*
X24532914Y-11111171D01*
X24640102Y-10900802D01*
X24713065Y-10676247D01*
X24750000Y-10443052D01*
X24750000Y-9575000D01*
X23700000Y-9575000D01*
X23700000Y-9075000D01*
X24750000Y-9075000D01*
X24750000Y-8206947D01*
X24713065Y-7973752D01*
X24640102Y-7749197D01*
X24532914Y-7538828D01*
X24394133Y-7347813D01*
X24227186Y-7180866D01*
X24036171Y-7042085D01*
X23825802Y-6934897D01*
X23601247Y-6861934D01*
X23500000Y-6845897D01*
X23500000Y-8049722D01*
X23423694Y-8005667D01*
X23309244Y-7975000D01*
X23190756Y-7975000D01*
X23076306Y-8005667D01*
X23000000Y-8049722D01*
X23000000Y-6845897D01*
X22898752Y-6861934D01*
X22674197Y-6934897D01*
X22463828Y-7042085D01*
X22272813Y-7180866D01*
X22105866Y-7347813D01*
X21967085Y-7538828D01*
X21859897Y-7749197D01*
X21786934Y-7973752D01*
X21750000Y-8206947D01*
X10250000Y-8206947D01*
X10213065Y-7973752D01*
X10140102Y-7749197D01*
X10032914Y-7538828D01*
X9894133Y-7347813D01*
X9727186Y-7180866D01*
X9536171Y-7042085D01*
X9325802Y-6934897D01*
X9101247Y-6861934D01*
X9000000Y-6845897D01*
X9000000Y-8049722D01*
X8923694Y-8005667D01*
X8809244Y-7975000D01*
X8690756Y-7975000D01*
X8576306Y-8005667D01*
X8500000Y-8049722D01*
X8500000Y-6845897D01*
X8398752Y-6861934D01*
X8174197Y-6934897D01*
X7963828Y-7042085D01*
X7772813Y-7180866D01*
X7605866Y-7347813D01*
X7467085Y-7538828D01*
X7359897Y-7749197D01*
X7286934Y-7973752D01*
X7250000Y-8206947D01*
X2867939Y-8206947D01*
X2867939Y-2746947D01*
X7250000Y-2746947D01*
X7250000Y-3115000D01*
X8300000Y-3115000D01*
X8300000Y-3615000D01*
X7250000Y-3615000D01*
X7250000Y-3983052D01*
X7286934Y-4216247D01*
X7359897Y-4440802D01*
X7467085Y-4651171D01*
X7605866Y-4842186D01*
X7772813Y-5009133D01*
X7963828Y-5147914D01*
X8174195Y-5255102D01*
X8398744Y-5328063D01*
X8398750Y-5328065D01*
X8500000Y-5344101D01*
X8500000Y-4140277D01*
X8576306Y-4184333D01*
X8690756Y-4215000D01*
X8809244Y-4215000D01*
X8923694Y-4184333D01*
X9000000Y-4140277D01*
X9000000Y-5344100D01*
X9101249Y-5328065D01*
X9101255Y-5328063D01*
X9325804Y-5255102D01*
X9536171Y-5147914D01*
X9727186Y-5009133D01*
X9894133Y-4842186D01*
X10032914Y-4651171D01*
X10140102Y-4440802D01*
X10213065Y-4216247D01*
X10250000Y-3983052D01*
X10250000Y-3615000D01*
X9200000Y-3615000D01*
X9200000Y-3115000D01*
X10250000Y-3115000D01*
X10250000Y-2746947D01*
X21750000Y-2746947D01*
X21750000Y-3115000D01*
X22800000Y-3115000D01*
X22800000Y-3615000D01*
X21750000Y-3615000D01*
X21750000Y-3983052D01*
X21786934Y-4216247D01*
X21859897Y-4440802D01*
X21967085Y-4651171D01*
X22105866Y-4842186D01*
X22272813Y-5009133D01*
X22463828Y-5147914D01*
X22674195Y-5255102D01*
X22898744Y-5328063D01*
X22898750Y-5328065D01*
X23000000Y-5344101D01*
X23000000Y-4140277D01*
X23076306Y-4184333D01*
X23190756Y-4215000D01*
X23309244Y-4215000D01*
X23423694Y-4184333D01*
X23500000Y-4140277D01*
X23500000Y-5344100D01*
X23601249Y-5328065D01*
X23601255Y-5328063D01*
X23825804Y-5255102D01*
X24036171Y-5147914D01*
X24227186Y-5009133D01*
X24394133Y-4842186D01*
X24532914Y-4651171D01*
X24640102Y-4440802D01*
X24713065Y-4216247D01*
X24750000Y-3983052D01*
X24750000Y-3615000D01*
X23700000Y-3615000D01*
X23700000Y-3115000D01*
X24750000Y-3115000D01*
X24750000Y-2746947D01*
X24713065Y-2513752D01*
X24640102Y-2289197D01*
X24532914Y-2078828D01*
X24394133Y-1887813D01*
X24227186Y-1720866D01*
X24036171Y-1582085D01*
X23825802Y-1474897D01*
X23601247Y-1401934D01*
X23500000Y-1385897D01*
X23500000Y-2589722D01*
X23423694Y-2545667D01*
X23309244Y-2515000D01*
X23190756Y-2515000D01*
X23076306Y-2545667D01*
X23000000Y-2589722D01*
X23000000Y-1385897D01*
X22898752Y-1401934D01*
X22674197Y-1474897D01*
X22463828Y-1582085D01*
X22272813Y-1720866D01*
X22105866Y-1887813D01*
X21967085Y-2078828D01*
X21859897Y-2289197D01*
X21786934Y-2513752D01*
X21750000Y-2746947D01*
X10250000Y-2746947D01*
X10213065Y-2513752D01*
X10140102Y-2289197D01*
X10032914Y-2078828D01*
X9894133Y-1887813D01*
X9727186Y-1720866D01*
X9536171Y-1582085D01*
X9325802Y-1474897D01*
X9101247Y-1401934D01*
X9000000Y-1385897D01*
X9000000Y-2589722D01*
X8923694Y-2545667D01*
X8809244Y-2515000D01*
X8690756Y-2515000D01*
X8576306Y-2545667D01*
X8500000Y-2589722D01*
X8500000Y-1385897D01*
X8398752Y-1401934D01*
X8174197Y-1474897D01*
X7963828Y-1582085D01*
X7772813Y-1720866D01*
X7605866Y-1887813D01*
X7467085Y-2078828D01*
X7359897Y-2289197D01*
X7286934Y-2513752D01*
X7250000Y-2746947D01*
X2867939Y-2746947D01*
X2867939Y-2372570D01*
X557586Y-2372570D01*
X524500Y-2372570D01*
X457461Y-2352885D01*
X411706Y-2300081D01*
X400500Y-2248570D01*
X400500Y-524500D01*
X420185Y-457461D01*
X472989Y-411706D01*
X524500Y-400500D01*
X26677591Y-400500D01*
X26744630Y-420185D01*
G37*
%TD.AperFunction*%
%TD*%
M02*
