M48
; DRILL file {KiCad 9.0.7} date 2026-05-06T21:02:07+0200
; FORMAT={-:-/ absolute / metric / decimal}
; #@! TF.CreationDate,2026-05-06T21:02:07+02:00
; #@! TF.GenerationSoftware,Kicad,Pcbnew,9.0.7
; #@! TF.FileFunction,Plated,1,2,PTH
FMAT,2
METRIC
; #@! TA.AperFunction,Plated,PTH,ComponentDrill
T1C0.900
; #@! TA.AperFunction,Plated,PTH,ComponentDrill
T2C1.000
%
G90
G05
T2
X4.57Y-21.4
X4.57Y-23.94
X7.11Y-21.4
X7.11Y-23.94
X9.65Y-21.4
X9.65Y-23.94
X12.19Y-21.4
X12.19Y-23.94
X14.73Y-21.4
X14.73Y-23.94
X17.27Y-21.4
X17.27Y-23.94
X19.81Y-21.4
X19.81Y-23.94
X22.35Y-21.4
X22.35Y-23.94
X24.89Y-21.4
X24.89Y-23.94
X27.43Y-21.4
X27.43Y-23.94
T1
G00X8.75Y-3.765
M15
G01X8.75Y-2.965
M16
G05
G00X8.75Y-10.225
M15
G01X8.75Y-8.425
M16
G05
G00X23.25Y-3.765
M15
G01X23.25Y-2.965
M16
G05
G00X23.25Y-10.225
M15
G01X23.25Y-8.425
M16
G05
M30
