%TF.GenerationSoftware,KiCad,Pcbnew,9.0.7*%
%TF.CreationDate,2026-05-23T22:47:27+02:00*%
%TF.ProjectId,BarePi_TestLed,42617265-5069-45f5-9465-73744c65642e,rev?*%
%TF.SameCoordinates,Original*%
%TF.FileFunction,Copper,L2,Bot*%
%TF.FilePolarity,Positive*%
%FSLAX46Y46*%
G04 Gerber Fmt 4.6, Leading zero omitted, Abs format (unit mm)*
G04 Created by KiCad (PCBNEW 9.0.7) date 2026-05-23 22:47:27*
%MOMM*%
%LPD*%
G01*
G04 APERTURE LIST*
G04 Aperture macros list*
%AMOutline4P*
0 Free polygon, 4 corners , with rotation*
0 The origin of the aperture is its center*
0 number of corners: always 4*
0 $1 to $8 corner X, Y*
0 $9 Rotation angle, in degrees counterclockwise*
0 create outline with 4 corners*
4,1,4,$1,$2,$3,$4,$5,$6,$7,$8,$1,$2,$9*%
G04 Aperture macros list end*
%ADD10C,0.375000*%
%ADD11C,0.500000*%
%TA.AperFunction,ComponentPad*%
%ADD12Outline4P,-1.500000X-0.800000X1.500000X-0.800000X1.500000X0.800000X-1.500000X0.800000X270.000000*%
%TD*%
%TA.AperFunction,ComponentPad*%
%ADD13O,1.600000X3.000000*%
%TD*%
%TA.AperFunction,ViaPad*%
%ADD14C,1.600000*%
%TD*%
%TA.AperFunction,Conductor*%
%ADD15C,0.330000*%
%TD*%
%TA.AperFunction,Conductor*%
%ADD16C,0.400000*%
%TD*%
%TA.AperFunction,Conductor*%
%ADD17C,0.800000*%
%TD*%
G04 APERTURE END LIST*
D10*
G36*
X2595000Y-31764951D02*
G01*
X2590577Y-32028980D01*
X2584741Y-32130765D01*
X2570220Y-32209524D01*
X2546210Y-32276743D01*
X2513300Y-32334189D01*
X2470624Y-32384896D01*
X2419178Y-32428170D01*
X2357962Y-32464340D01*
X2291875Y-32491014D01*
X2225435Y-32506743D01*
X2157927Y-32511967D01*
X2073368Y-32503502D01*
X1998304Y-32478892D01*
X1930689Y-32438145D01*
X1873727Y-32383418D01*
X1828116Y-32313989D01*
X1793852Y-32227119D01*
X1759285Y-32287858D01*
X1715372Y-32338939D01*
X1661412Y-32381359D01*
X1600494Y-32413002D01*
X1536189Y-32431864D01*
X1467330Y-32438237D01*
X1403573Y-32432964D01*
X1345243Y-32417540D01*
X1291292Y-32392075D01*
X1219909Y-32339636D01*
X1165538Y-32276853D01*
X1126609Y-32203647D01*
X1103439Y-32120049D01*
X1092914Y-32021097D01*
X1088510Y-31854160D01*
X1088510Y-31731245D01*
X1340568Y-31731245D01*
X1345697Y-31990448D01*
X1356346Y-32039068D01*
X1374054Y-32076359D01*
X1398271Y-32104662D01*
X1446797Y-32133063D01*
X1510928Y-32143130D01*
X1557374Y-32137872D01*
X1595728Y-32122939D01*
X1627798Y-32098525D01*
X1662568Y-32047409D01*
X1681287Y-31976160D01*
X1685342Y-31801953D01*
X1938475Y-31801953D01*
X1945553Y-31991005D01*
X1960182Y-32070865D01*
X1988840Y-32126334D01*
X2029333Y-32165662D01*
X2080724Y-32189907D01*
X2144829Y-32198451D01*
X2196928Y-32193293D01*
X2239055Y-32178872D01*
X2273332Y-32155861D01*
X2312102Y-32107580D01*
X2333690Y-32045769D01*
X2339859Y-31987076D01*
X2342941Y-31837766D01*
X2342941Y-31557039D01*
X1938475Y-31557039D01*
X1938475Y-31801953D01*
X1685342Y-31801953D01*
X1686416Y-31755792D01*
X1686416Y-31557039D01*
X1340568Y-31557039D01*
X1340568Y-31731245D01*
X1088510Y-31731245D01*
X1088510Y-31253689D01*
X2595000Y-31253689D01*
X2595000Y-31764951D01*
G37*
G36*
X1999639Y-32715399D02*
G01*
X2126529Y-32740695D01*
X2237311Y-32780906D01*
X2334265Y-32835363D01*
X2419145Y-32904252D01*
X2491667Y-32987015D01*
X2548267Y-33079978D01*
X2589578Y-33184581D01*
X2615320Y-33302798D01*
X2624309Y-33437037D01*
X2615328Y-33569404D01*
X2589562Y-33686354D01*
X2548126Y-33790220D01*
X2491222Y-33882906D01*
X2418137Y-33965792D01*
X2332954Y-34034518D01*
X2235302Y-34088953D01*
X2123355Y-34129226D01*
X1994752Y-34154604D01*
X1846700Y-34163538D01*
X1697370Y-34154520D01*
X1567834Y-34128917D01*
X1455240Y-34088314D01*
X1357178Y-34033462D01*
X1271783Y-33964235D01*
X1198476Y-33880724D01*
X1141412Y-33787467D01*
X1099873Y-33683093D01*
X1074057Y-33565711D01*
X1065267Y-33436030D01*
X1322983Y-33436030D01*
X1331470Y-33527655D01*
X1355799Y-33606838D01*
X1395380Y-33676002D01*
X1451119Y-33736815D01*
X1517451Y-33783138D01*
X1601503Y-33818469D01*
X1707249Y-33841585D01*
X1839556Y-33850021D01*
X1973175Y-33841406D01*
X2080543Y-33817739D01*
X2166417Y-33781447D01*
X2234680Y-33733701D01*
X2292560Y-33671129D01*
X2333189Y-33601736D01*
X2357866Y-33524084D01*
X2366388Y-33436030D01*
X2357835Y-33348045D01*
X2333023Y-33270129D01*
X2292089Y-33200183D01*
X2233673Y-33136802D01*
X2164726Y-33088137D01*
X2079232Y-33051412D01*
X1973665Y-33027627D01*
X1843678Y-33019016D01*
X1710987Y-33027539D01*
X1604645Y-33050927D01*
X1519847Y-33086737D01*
X1452676Y-33133779D01*
X1396135Y-33195433D01*
X1356083Y-33265155D01*
X1331529Y-33344564D01*
X1322983Y-33436030D01*
X1065267Y-33436030D01*
X1065062Y-33433007D01*
X1072125Y-33311835D01*
X1092349Y-33204539D01*
X1124688Y-33109233D01*
X1158799Y-33041785D01*
X1203755Y-32977159D01*
X1260518Y-32914968D01*
X1358072Y-32835658D01*
X1467239Y-32775200D01*
X1573686Y-32738581D01*
X1701294Y-32714976D01*
X1853936Y-32706507D01*
X1999639Y-32715399D01*
G37*
G36*
X2595000Y-34738638D02*
G01*
X1340568Y-34738638D01*
X1340568Y-34292864D01*
X1088510Y-34292864D01*
X1088510Y-35486662D01*
X1340568Y-35486662D01*
X1340568Y-35041896D01*
X2595000Y-35041896D01*
X2595000Y-34738638D01*
G37*
G36*
X2595000Y-36020913D02*
G01*
X1340568Y-36020913D01*
X1340568Y-35575139D01*
X1088510Y-35575139D01*
X1088510Y-36768937D01*
X1340568Y-36768937D01*
X1340568Y-36324171D01*
X2595000Y-36324171D01*
X2595000Y-36020913D01*
G37*
G36*
X1999639Y-36874366D02*
G01*
X2126529Y-36899662D01*
X2237311Y-36939873D01*
X2334265Y-36994331D01*
X2419145Y-37063219D01*
X2491667Y-37145982D01*
X2548267Y-37238945D01*
X2589578Y-37343548D01*
X2615320Y-37461765D01*
X2624309Y-37596004D01*
X2615328Y-37728371D01*
X2589562Y-37845321D01*
X2548126Y-37949187D01*
X2491222Y-38041873D01*
X2418137Y-38124760D01*
X2332954Y-38193485D01*
X2235302Y-38247921D01*
X2123355Y-38288193D01*
X1994752Y-38313572D01*
X1846700Y-38322505D01*
X1697370Y-38313487D01*
X1567834Y-38287884D01*
X1455240Y-38247282D01*
X1357178Y-38192429D01*
X1271783Y-38123203D01*
X1198476Y-38039691D01*
X1141412Y-37946434D01*
X1099873Y-37842060D01*
X1074057Y-37724678D01*
X1065267Y-37594997D01*
X1322983Y-37594997D01*
X1331470Y-37686622D01*
X1355799Y-37765805D01*
X1395380Y-37834970D01*
X1451119Y-37895782D01*
X1517451Y-37942105D01*
X1601503Y-37977436D01*
X1707249Y-38000552D01*
X1839556Y-38008989D01*
X1973175Y-38000374D01*
X2080543Y-37976707D01*
X2166417Y-37940414D01*
X2234680Y-37892668D01*
X2292560Y-37830097D01*
X2333189Y-37760703D01*
X2357866Y-37683051D01*
X2366388Y-37594997D01*
X2357835Y-37507012D01*
X2333023Y-37429096D01*
X2292089Y-37359151D01*
X2233673Y-37295769D01*
X2164726Y-37247104D01*
X2079232Y-37210380D01*
X1973665Y-37186594D01*
X1843678Y-37177983D01*
X1710987Y-37186507D01*
X1604645Y-37209894D01*
X1519847Y-37245705D01*
X1452676Y-37292746D01*
X1396135Y-37354401D01*
X1356083Y-37424122D01*
X1331529Y-37503531D01*
X1322983Y-37594997D01*
X1065267Y-37594997D01*
X1065062Y-37591974D01*
X1072125Y-37470802D01*
X1092349Y-37363506D01*
X1124688Y-37268200D01*
X1158799Y-37200752D01*
X1203755Y-37136126D01*
X1260518Y-37073935D01*
X1358072Y-36994625D01*
X1467239Y-36934167D01*
X1573686Y-36897548D01*
X1701294Y-36873943D01*
X1853936Y-36865474D01*
X1999639Y-36874366D01*
G37*
G36*
X2595000Y-38555329D02*
G01*
X1088510Y-38555329D01*
X1088510Y-39009255D01*
X2116161Y-39281830D01*
X1088510Y-39551290D01*
X1088510Y-40006315D01*
X2595000Y-40006315D01*
X2595000Y-39724489D01*
X1409170Y-39724489D01*
X2595000Y-39426360D01*
X2595000Y-39134276D01*
X1409170Y-38837155D01*
X2595000Y-38837155D01*
X2595000Y-38555329D01*
G37*
D11*
G36*
X42374493Y-54660000D02*
G01*
X41692811Y-54660000D01*
X41340771Y-54654103D01*
X41205058Y-54646322D01*
X41100047Y-54626960D01*
X41010421Y-54594947D01*
X40933826Y-54551067D01*
X40866217Y-54494165D01*
X40808518Y-54425571D01*
X40760292Y-54343949D01*
X40724726Y-54255833D01*
X40703754Y-54167247D01*
X40696789Y-54077236D01*
X40698537Y-54059773D01*
X41114810Y-54059773D01*
X41121688Y-54129238D01*
X41140916Y-54185407D01*
X41171597Y-54231109D01*
X41235972Y-54282803D01*
X41318387Y-54311587D01*
X41396644Y-54319813D01*
X41595724Y-54323921D01*
X41970027Y-54323921D01*
X41970027Y-53784633D01*
X41643474Y-53784633D01*
X41391405Y-53794071D01*
X41284925Y-53813576D01*
X41210966Y-53851786D01*
X41158530Y-53905778D01*
X41126202Y-53974299D01*
X41114810Y-54059773D01*
X40698537Y-54059773D01*
X40708075Y-53964491D01*
X40740889Y-53864405D01*
X40795219Y-53774253D01*
X40868188Y-53698303D01*
X40960760Y-53637488D01*
X41076586Y-53591803D01*
X40995601Y-53545713D01*
X40927493Y-53487162D01*
X40870934Y-53415216D01*
X40828742Y-53333992D01*
X40803593Y-53248252D01*
X40800476Y-53214570D01*
X41188572Y-53214570D01*
X41195583Y-53276499D01*
X41215493Y-53327637D01*
X41248045Y-53370397D01*
X41316200Y-53416758D01*
X41411199Y-53441716D01*
X41705023Y-53448555D01*
X41970027Y-53448555D01*
X41970027Y-52987424D01*
X41737752Y-52987424D01*
X41392148Y-52994263D01*
X41327321Y-53008462D01*
X41277599Y-53032072D01*
X41239863Y-53064361D01*
X41201994Y-53129063D01*
X41188572Y-53214570D01*
X40800476Y-53214570D01*
X40795096Y-53156441D01*
X40802126Y-53071431D01*
X40822692Y-52993657D01*
X40856646Y-52921723D01*
X40926564Y-52826546D01*
X41010274Y-52754050D01*
X41107883Y-52702145D01*
X41219346Y-52671252D01*
X41351283Y-52657218D01*
X41573865Y-52651346D01*
X42374493Y-52651346D01*
X42374493Y-54660000D01*
G37*
G36*
X39936219Y-53175003D02*
G01*
X40052393Y-53196367D01*
X40144763Y-53228768D01*
X40217584Y-53270624D01*
X40301029Y-53348690D01*
X40368552Y-53452986D01*
X40419695Y-53589239D01*
X40071283Y-53651765D01*
X40027567Y-53558843D01*
X39978470Y-53505830D01*
X39913632Y-53475625D01*
X39818613Y-53464187D01*
X39717617Y-53471146D01*
X39652380Y-53488542D01*
X39612350Y-53512669D01*
X39583745Y-53548902D01*
X39564814Y-53601107D01*
X39557640Y-53674968D01*
X39557640Y-53714291D01*
X39682880Y-53754803D01*
X39930599Y-53809057D01*
X40117372Y-53854009D01*
X40235902Y-53899061D01*
X40301812Y-53938799D01*
X40356291Y-53987986D01*
X40400522Y-54047316D01*
X40432849Y-54114025D01*
X40452510Y-54187018D01*
X40459262Y-54267745D01*
X40450869Y-54358837D01*
X40426574Y-54439438D01*
X40386692Y-54511621D01*
X40330180Y-54576835D01*
X40262421Y-54628670D01*
X40182645Y-54666648D01*
X40088516Y-54690589D01*
X39977005Y-54699078D01*
X39853085Y-54686748D01*
X39737891Y-54650230D01*
X39630861Y-54590299D01*
X39527476Y-54503684D01*
X39513798Y-54548136D01*
X39476918Y-54660000D01*
X39097120Y-54660000D01*
X39140619Y-54556053D01*
X39166119Y-54464117D01*
X39179080Y-54360026D01*
X39184559Y-54180307D01*
X39183316Y-54041210D01*
X39557640Y-54041210D01*
X39562375Y-54168754D01*
X39572661Y-54229277D01*
X39605897Y-54298089D01*
X39664252Y-54356894D01*
X39729667Y-54395726D01*
X39795253Y-54418140D01*
X39862333Y-54425526D01*
X39921871Y-54418673D01*
X39972181Y-54399014D01*
X40015351Y-54366542D01*
X40049060Y-54324216D01*
X40068767Y-54278043D01*
X40075435Y-54226468D01*
X40067281Y-54175358D01*
X40043014Y-54130751D01*
X40000330Y-54090669D01*
X39936447Y-54061684D01*
X39791258Y-54023381D01*
X39557640Y-53964396D01*
X39557640Y-54041210D01*
X39183316Y-54041210D01*
X39180529Y-53729434D01*
X39188090Y-53559464D01*
X39206806Y-53449952D01*
X39231820Y-53383709D01*
X39272113Y-53326933D01*
X39329911Y-53275203D01*
X39408774Y-53228370D01*
X39495344Y-53197331D01*
X39619189Y-53175561D01*
X39791258Y-53167187D01*
X39936219Y-53175003D01*
G37*
G36*
X38435344Y-54660000D02*
G01*
X38819294Y-54660000D01*
X38819294Y-53206266D01*
X38462699Y-53206266D01*
X38462699Y-53412529D01*
X38368494Y-53282019D01*
X38298080Y-53216769D01*
X38220521Y-53179735D01*
X38132117Y-53167187D01*
X38046580Y-53175062D01*
X37962731Y-53198835D01*
X37879325Y-53239483D01*
X37998149Y-53573852D01*
X38095528Y-53525476D01*
X38178523Y-53511081D01*
X38253991Y-53522618D01*
X38315177Y-53555900D01*
X38362022Y-53613087D01*
X38403226Y-53717711D01*
X38424959Y-53866422D01*
X38435344Y-54208150D01*
X38435344Y-54660000D01*
G37*
G36*
X37301336Y-53180523D02*
G01*
X37425492Y-53219194D01*
X37536976Y-53282894D01*
X37638013Y-53373572D01*
X37717468Y-53481356D01*
X37776116Y-53609532D01*
X37813319Y-53762094D01*
X37826569Y-53944124D01*
X37816739Y-54096626D01*
X37788710Y-54229835D01*
X37743981Y-54346615D01*
X37683076Y-54449340D01*
X37604703Y-54537267D01*
X37512072Y-54605773D01*
X37403146Y-54656079D01*
X37274798Y-54687823D01*
X37123027Y-54699078D01*
X36967065Y-54685673D01*
X36835875Y-54647786D01*
X36724789Y-54587215D01*
X36630024Y-54503406D01*
X36552442Y-54396163D01*
X36491782Y-54261395D01*
X36874266Y-54198869D01*
X36915367Y-54294702D01*
X36967200Y-54353963D01*
X37034433Y-54389601D01*
X37118875Y-54402079D01*
X37203126Y-54391355D01*
X37275930Y-54360127D01*
X37340159Y-54307435D01*
X37388232Y-54239278D01*
X37419771Y-54152666D01*
X37433094Y-54042554D01*
X36471265Y-54042554D01*
X36477192Y-53857266D01*
X36484552Y-53808080D01*
X36852406Y-53808080D01*
X37426255Y-53808080D01*
X37417018Y-53705126D01*
X37389630Y-53622846D01*
X37345655Y-53556755D01*
X37285915Y-53505175D01*
X37217633Y-53474673D01*
X37137926Y-53464187D01*
X37063371Y-53473980D01*
X36997703Y-53502770D01*
X36938502Y-53551870D01*
X36894567Y-53615190D01*
X36865147Y-53698662D01*
X36852406Y-53808080D01*
X36484552Y-53808080D01*
X36500273Y-53703009D01*
X36537855Y-53575098D01*
X36588141Y-53469429D01*
X36650295Y-53382609D01*
X36750939Y-53289424D01*
X36867333Y-53222852D01*
X37002600Y-53181650D01*
X37161251Y-53167187D01*
X37301336Y-53180523D01*
G37*
G36*
X36156436Y-54660000D02*
G01*
X35752092Y-54660000D01*
X35752092Y-53901870D01*
X35488432Y-53901870D01*
X35230005Y-53893492D01*
X35068945Y-53873049D01*
X34965040Y-53838500D01*
X34859140Y-53777916D01*
X34795516Y-53725075D01*
X34738878Y-53659611D01*
X34689025Y-53579958D01*
X34653102Y-53493445D01*
X34630245Y-53390859D01*
X34622519Y-53275265D01*
X35038903Y-53275265D01*
X35050628Y-53361028D01*
X35084699Y-53433778D01*
X35138755Y-53492444D01*
X35211094Y-53533796D01*
X35311430Y-53555604D01*
X35530808Y-53565792D01*
X35752092Y-53565792D01*
X35752092Y-52987424D01*
X35556698Y-52987424D01*
X35356197Y-52991877D01*
X35265683Y-53001346D01*
X35203376Y-53019651D01*
X35149673Y-53049598D01*
X35103139Y-53091716D01*
X35067996Y-53143165D01*
X35046458Y-53203540D01*
X35038903Y-53275265D01*
X34622519Y-53275265D01*
X34622103Y-53269036D01*
X34636140Y-53113107D01*
X34675535Y-52984620D01*
X34738240Y-52878126D01*
X34823303Y-52787768D01*
X34918788Y-52723028D01*
X35026569Y-52681510D01*
X35170183Y-52661162D01*
X35507483Y-52651346D01*
X36156436Y-52651346D01*
X36156436Y-54660000D01*
G37*
G36*
X34293108Y-53003056D02*
G01*
X34293108Y-52651346D01*
X33909280Y-52651346D01*
X33909280Y-53003056D01*
X34293108Y-53003056D01*
G37*
G36*
X34293108Y-54660000D02*
G01*
X34293108Y-53206266D01*
X33909280Y-53206266D01*
X33909280Y-54660000D01*
X34293108Y-54660000D01*
G37*
G36*
X32284210Y-54660000D02*
G01*
X32284210Y-52987424D01*
X32878575Y-52987424D01*
X32878575Y-52651346D01*
X31286844Y-52651346D01*
X31286844Y-52987424D01*
X31879866Y-52987424D01*
X31879866Y-54660000D01*
X32284210Y-54660000D01*
G37*
G36*
X30824016Y-53180523D02*
G01*
X30948172Y-53219194D01*
X31059656Y-53282894D01*
X31160693Y-53373572D01*
X31240148Y-53481356D01*
X31298796Y-53609532D01*
X31335999Y-53762094D01*
X31349249Y-53944124D01*
X31339419Y-54096626D01*
X31311390Y-54229835D01*
X31266660Y-54346615D01*
X31205756Y-54449340D01*
X31127383Y-54537267D01*
X31034752Y-54605773D01*
X30925826Y-54656079D01*
X30797478Y-54687823D01*
X30645707Y-54699078D01*
X30489744Y-54685673D01*
X30358555Y-54647786D01*
X30247469Y-54587215D01*
X30152704Y-54503406D01*
X30075122Y-54396163D01*
X30014461Y-54261395D01*
X30396946Y-54198869D01*
X30438046Y-54294702D01*
X30489880Y-54353963D01*
X30557113Y-54389601D01*
X30641555Y-54402079D01*
X30725805Y-54391355D01*
X30798610Y-54360127D01*
X30862839Y-54307435D01*
X30910912Y-54239278D01*
X30942451Y-54152666D01*
X30955773Y-54042554D01*
X29993945Y-54042554D01*
X29999872Y-53857266D01*
X30007232Y-53808080D01*
X30375086Y-53808080D01*
X30948934Y-53808080D01*
X30939697Y-53705126D01*
X30912310Y-53622846D01*
X30868334Y-53556755D01*
X30808594Y-53505175D01*
X30740312Y-53474673D01*
X30660606Y-53464187D01*
X30586051Y-53473980D01*
X30520382Y-53502770D01*
X30461182Y-53551870D01*
X30417247Y-53615190D01*
X30387827Y-53698662D01*
X30375086Y-53808080D01*
X30007232Y-53808080D01*
X30022953Y-53703009D01*
X30060534Y-53575098D01*
X30110821Y-53469429D01*
X30172975Y-53382609D01*
X30273619Y-53289424D01*
X30390013Y-53222852D01*
X30525279Y-53181650D01*
X30683931Y-53167187D01*
X30824016Y-53180523D01*
G37*
G36*
X29817113Y-54245764D02*
G01*
X29431820Y-54198869D01*
X29408837Y-54269330D01*
X29375574Y-54324783D01*
X29332169Y-54367885D01*
X29278992Y-54398410D01*
X29210257Y-54418248D01*
X29121754Y-54425526D01*
X29023566Y-54418196D01*
X28950813Y-54398695D01*
X28897661Y-54369595D01*
X28859829Y-54324071D01*
X28847103Y-54264937D01*
X28854139Y-54223465D01*
X28874458Y-54190809D01*
X28913247Y-54167115D01*
X29002807Y-54139152D01*
X29318339Y-54058869D01*
X29499788Y-53996305D01*
X29591677Y-53948642D01*
X29667837Y-53882463D01*
X29720691Y-53806772D01*
X29752731Y-53719713D01*
X29763868Y-53618060D01*
X29754475Y-53526010D01*
X29726988Y-53443146D01*
X29681148Y-53367351D01*
X29615002Y-53297247D01*
X29538027Y-53244422D01*
X29438997Y-53203796D01*
X29312779Y-53177017D01*
X29153139Y-53167187D01*
X28999407Y-53174818D01*
X28878110Y-53195504D01*
X28783490Y-53226508D01*
X28710571Y-53265983D01*
X28625459Y-53340666D01*
X28559085Y-53436633D01*
X28511025Y-53557976D01*
X28872992Y-53628318D01*
X28907463Y-53546788D01*
X28961164Y-53489099D01*
X29006950Y-53463661D01*
X29067313Y-53446931D01*
X29146300Y-53440739D01*
X29247590Y-53446787D01*
X29317292Y-53462261D01*
X29363554Y-53484092D01*
X29396604Y-53519770D01*
X29407274Y-53563593D01*
X29398063Y-53601776D01*
X29369050Y-53634912D01*
X29285308Y-53671820D01*
X29010379Y-53745310D01*
X28806626Y-53802975D01*
X28669447Y-53861361D01*
X28582099Y-53918722D01*
X28516342Y-53995093D01*
X28476099Y-54089491D01*
X28461810Y-54207418D01*
X28472097Y-54304104D01*
X28502487Y-54392816D01*
X28553741Y-54475694D01*
X28628505Y-54554120D01*
X28714813Y-54613773D01*
X28822537Y-54659000D01*
X28956299Y-54688404D01*
X29121754Y-54699078D01*
X29271710Y-54690321D01*
X29397506Y-54665845D01*
X29502897Y-54627717D01*
X29591066Y-54577079D01*
X29670267Y-54510348D01*
X29733680Y-54433689D01*
X29782531Y-54346060D01*
X29817113Y-54245764D01*
G37*
G36*
X27461147Y-53206266D02*
G01*
X27461147Y-53511081D01*
X27723463Y-53511081D01*
X27723463Y-54101416D01*
X27716014Y-54310366D01*
X27703833Y-54337226D01*
X27681820Y-54359337D01*
X27652898Y-54373618D01*
X27616851Y-54378632D01*
X27558625Y-54371027D01*
X27462490Y-54341751D01*
X27429761Y-54641315D01*
X27520679Y-54672801D01*
X27621284Y-54692315D01*
X27733111Y-54699078D01*
X27833402Y-54689985D01*
X27920323Y-54663907D01*
X27994746Y-54621908D01*
X28042567Y-54572927D01*
X28074216Y-54510713D01*
X28096422Y-54422107D01*
X28104806Y-54337512D01*
X28108757Y-54149166D01*
X28108757Y-53511081D01*
X28284978Y-53511081D01*
X28284978Y-53206266D01*
X28108757Y-53206266D01*
X28108757Y-52924898D01*
X27723463Y-52698241D01*
X27723463Y-53206266D01*
X27461147Y-53206266D01*
G37*
G36*
X27180878Y-54660000D02*
G01*
X27180878Y-52674794D01*
X26776412Y-52674794D01*
X26776412Y-54323921D01*
X25770864Y-54323921D01*
X25770864Y-54660000D01*
X27180878Y-54660000D01*
G37*
G36*
X25071609Y-53180523D02*
G01*
X25195764Y-53219194D01*
X25307249Y-53282894D01*
X25408285Y-53373572D01*
X25487740Y-53481356D01*
X25546388Y-53609532D01*
X25583591Y-53762094D01*
X25596841Y-53944124D01*
X25587011Y-54096626D01*
X25558982Y-54229835D01*
X25514253Y-54346615D01*
X25453348Y-54449340D01*
X25374975Y-54537267D01*
X25282345Y-54605773D01*
X25173418Y-54656079D01*
X25045070Y-54687823D01*
X24893299Y-54699078D01*
X24737337Y-54685673D01*
X24606148Y-54647786D01*
X24495061Y-54587215D01*
X24400296Y-54503406D01*
X24322714Y-54396163D01*
X24262054Y-54261395D01*
X24644538Y-54198869D01*
X24685639Y-54294702D01*
X24737473Y-54353963D01*
X24804706Y-54389601D01*
X24889147Y-54402079D01*
X24973398Y-54391355D01*
X25046203Y-54360127D01*
X25110431Y-54307435D01*
X25158505Y-54239278D01*
X25190044Y-54152666D01*
X25203366Y-54042554D01*
X24241537Y-54042554D01*
X24247464Y-53857266D01*
X24254824Y-53808080D01*
X24622678Y-53808080D01*
X25196527Y-53808080D01*
X25187290Y-53705126D01*
X25159902Y-53622846D01*
X25115927Y-53556755D01*
X25056187Y-53505175D01*
X24987905Y-53474673D01*
X24908198Y-53464187D01*
X24833643Y-53473980D01*
X24767975Y-53502770D01*
X24708774Y-53551870D01*
X24664839Y-53615190D01*
X24635419Y-53698662D01*
X24622678Y-53808080D01*
X24254824Y-53808080D01*
X24270545Y-53703009D01*
X24308127Y-53575098D01*
X24358413Y-53469429D01*
X24420567Y-53382609D01*
X24521211Y-53289424D01*
X24637605Y-53222852D01*
X24772872Y-53181650D01*
X24931523Y-53167187D01*
X25071609Y-53180523D01*
G37*
G36*
X22982588Y-53369420D02*
G01*
X23078506Y-53278590D01*
X23179368Y-53216415D01*
X23286824Y-53179620D01*
X23403418Y-53167187D01*
X23531982Y-53179667D01*
X23646074Y-53215900D01*
X23748721Y-53275717D01*
X23841956Y-53361116D01*
X23913819Y-53461925D01*
X23967907Y-53586416D01*
X24002858Y-53739588D01*
X24015491Y-53927637D01*
X24002822Y-54110427D01*
X23967390Y-54262704D01*
X23911865Y-54389672D01*
X23837193Y-54495502D01*
X23740915Y-54586616D01*
X23638747Y-54649237D01*
X23528965Y-54686455D01*
X23408914Y-54699078D01*
X23288055Y-54683527D01*
X23165037Y-54635209D01*
X23089196Y-54586751D01*
X23019448Y-54524471D01*
X22955355Y-54446898D01*
X22955355Y-54660000D01*
X22598760Y-54660000D01*
X22598760Y-53943635D01*
X22981244Y-53943635D01*
X22993316Y-54093596D01*
X23025579Y-54205144D01*
X23074179Y-54287163D01*
X23142354Y-54352350D01*
X23216530Y-54389600D01*
X23299615Y-54402079D01*
X23378471Y-54392456D01*
X23446476Y-54364528D01*
X23506265Y-54317700D01*
X23559123Y-54248817D01*
X23591514Y-54174621D01*
X23614435Y-54064321D01*
X23623359Y-53905900D01*
X23611423Y-53761621D01*
X23579467Y-53654151D01*
X23531157Y-53574951D01*
X23463567Y-53512603D01*
X23388299Y-53476444D01*
X23302302Y-53464187D01*
X23213836Y-53476745D01*
X23138021Y-53513490D01*
X23071492Y-53576416D01*
X23025362Y-53656806D01*
X22993526Y-53774875D01*
X22981244Y-53943635D01*
X22598760Y-53943635D01*
X22598760Y-52651346D01*
X22982588Y-52651346D01*
X22982588Y-53369420D01*
G37*
D12*
%TO.P,J2,1,Pin_1*%
%TO.N,/5V*%
X8370000Y-48370000D03*
D13*
%TO.P,J2,2,Pin_2*%
X8370000Y-45030000D03*
%TO.P,J2,3,Pin_3*%
%TO.N,/3V3*%
X10910000Y-48370000D03*
%TO.P,J2,4,Pin_4*%
X10910000Y-45030000D03*
%TO.P,J2,5,Pin_5*%
%TO.N,/BUS_SDA*%
X13450000Y-48370000D03*
%TO.P,J2,6,Pin_6*%
%TO.N,/BUS_SCL*%
X13450000Y-45030000D03*
%TO.P,J2,7,Pin_7*%
%TO.N,/I2C_SDA*%
X15990000Y-48370000D03*
%TO.P,J2,8,Pin_8*%
%TO.N,/I2C_SCL*%
X15990000Y-45030000D03*
%TO.P,J2,9,Pin_9*%
%TO.N,/KEY_ALT*%
X18530000Y-48370000D03*
%TO.P,J2,10,Pin_10*%
%TO.N,/KEY_DOWN*%
X18530000Y-45030000D03*
%TO.P,J2,11,Pin_11*%
%TO.N,/KEY_UP*%
X21070000Y-48370000D03*
%TO.P,J2,12,Pin_12*%
%TO.N,/SPI_CS1*%
X21070000Y-45030000D03*
%TO.P,J2,13,Pin_13*%
%TO.N,/SPI_CS0*%
X23610000Y-48370000D03*
%TO.P,J2,14,Pin_14*%
%TO.N,/SPI_MISO*%
X23610000Y-45030000D03*
%TO.P,J2,15,Pin_15*%
%TO.N,/SPI_MOSI*%
X26150000Y-48370000D03*
%TO.P,J2,16,Pin_16*%
%TO.N,/SPI_SCLK*%
X26150000Y-45030000D03*
%TO.P,J2,17,Pin_17*%
%TO.N,/PWM_L*%
X28690000Y-48370000D03*
%TO.P,J2,18,Pin_18*%
%TO.N,/PWM_R*%
X28690000Y-45030000D03*
%TO.P,J2,19,Pin_19*%
%TO.N,/UART_TX*%
X31230000Y-48370000D03*
%TO.P,J2,20,Pin_20*%
%TO.N,/UART_RX*%
X31230000Y-45030000D03*
%TO.P,J2,21,Pin_21*%
%TO.N,/LCD_DC*%
X33770000Y-48370000D03*
%TO.P,J2,22,Pin_22*%
%TO.N,/LCD_RES*%
X33770000Y-45030000D03*
%TO.P,J2,23,Pin_23*%
%TO.N,/LCD_CS*%
X36310000Y-48370000D03*
%TO.P,J2,24,Pin_24*%
%TO.N,/LCD_BL*%
X36310000Y-45030000D03*
%TO.P,J2,25,Pin_25*%
%TO.N,/LCD_MOSI*%
X38850000Y-48370000D03*
%TO.P,J2,26,Pin_26*%
%TO.N,/LCD_SCK*%
X38850000Y-45030000D03*
%TO.P,J2,27,Pin_27*%
%TO.N,/KEY_A*%
X41390000Y-48370000D03*
%TO.P,J2,28,Pin_28*%
%TO.N,/KEY_B*%
X41390000Y-45030000D03*
%TO.P,J2,29,Pin_29*%
%TO.N,/KEY_X*%
X43930000Y-48370000D03*
%TO.P,J2,30,Pin_30*%
%TO.N,/KEY_RIGHT*%
X43930000Y-45030000D03*
%TO.P,J2,31,Pin_31*%
%TO.N,/KEY_LEFT*%
X46470000Y-48370000D03*
%TO.P,J2,32,Pin_32*%
%TO.N,/KEY_Y*%
X46470000Y-45030000D03*
%TO.P,J2,33,Pin_33*%
%TO.N,/SD_CS*%
X49010000Y-48370000D03*
%TO.P,J2,34,Pin_34*%
%TO.N,/SD_MISO*%
X49010000Y-45030000D03*
%TO.P,J2,35,Pin_35*%
%TO.N,/SD_MOSI*%
X51550000Y-48370000D03*
%TO.P,J2,36,Pin_36*%
%TO.N,/SD_SCLK*%
X51550000Y-45030000D03*
%TO.P,J2,37,Pin_37*%
%TO.N,/USR_LED*%
X54090000Y-48370000D03*
%TO.P,J2,38,Pin_38*%
%TO.N,/RESET*%
X54090000Y-45030000D03*
%TO.P,J2,39,Pin_39*%
%TO.N,/GND*%
X56630000Y-48370000D03*
%TO.P,J2,40,Pin_40*%
X56630000Y-45030000D03*
%TD*%
D12*
%TO.P,J1,1,Pin_1*%
%TO.N,/5V*%
X8370000Y-3830000D03*
D13*
%TO.P,J1,2,Pin_2*%
X8370000Y-7170000D03*
%TO.P,J1,3,Pin_3*%
%TO.N,/3V3*%
X10910000Y-3830000D03*
%TO.P,J1,4,Pin_4*%
X10910000Y-7170000D03*
%TO.P,J1,5,Pin_5*%
%TO.N,/BUS_SDA*%
X13450000Y-3830000D03*
%TO.P,J1,6,Pin_6*%
%TO.N,/BUS_SCL*%
X13450000Y-7170000D03*
%TO.P,J1,7,Pin_7*%
%TO.N,/I2C_SDA*%
X15990000Y-3830000D03*
%TO.P,J1,8,Pin_8*%
%TO.N,/I2C_SCL*%
X15990000Y-7170000D03*
%TO.P,J1,9,Pin_9*%
%TO.N,/KEY_ALT*%
X18530000Y-3830000D03*
%TO.P,J1,10,Pin_10*%
%TO.N,/KEY_DOWN*%
X18530000Y-7170000D03*
%TO.P,J1,11,Pin_11*%
%TO.N,/KEY_UP*%
X21070000Y-3830000D03*
%TO.P,J1,12,Pin_12*%
%TO.N,/SPI_CS1*%
X21070000Y-7170000D03*
%TO.P,J1,13,Pin_13*%
%TO.N,/SPI_CS0*%
X23610000Y-3830000D03*
%TO.P,J1,14,Pin_14*%
%TO.N,/SPI_MISO*%
X23610000Y-7170000D03*
%TO.P,J1,15,Pin_15*%
%TO.N,/SPI_MOSI*%
X26150000Y-3830000D03*
%TO.P,J1,16,Pin_16*%
%TO.N,/SPI_SCLK*%
X26150000Y-7170000D03*
%TO.P,J1,17,Pin_17*%
%TO.N,/PWM_L*%
X28690000Y-3830000D03*
%TO.P,J1,18,Pin_18*%
%TO.N,/PWM_R*%
X28690000Y-7170000D03*
%TO.P,J1,19,Pin_19*%
%TO.N,/UART_TX*%
X31230000Y-3830000D03*
%TO.P,J1,20,Pin_20*%
%TO.N,/UART_RX*%
X31230000Y-7170000D03*
%TO.P,J1,21,Pin_21*%
%TO.N,/LCD_DC*%
X33770000Y-3830000D03*
%TO.P,J1,22,Pin_22*%
%TO.N,/LCD_RES*%
X33770000Y-7170000D03*
%TO.P,J1,23,Pin_23*%
%TO.N,/LCD_CS*%
X36310000Y-3830000D03*
%TO.P,J1,24,Pin_24*%
%TO.N,/LCD_BL*%
X36310000Y-7170000D03*
%TO.P,J1,25,Pin_25*%
%TO.N,/LCD_MOSI*%
X38850000Y-3830000D03*
%TO.P,J1,26,Pin_26*%
%TO.N,/LCD_SCK*%
X38850000Y-7170000D03*
%TO.P,J1,27,Pin_27*%
%TO.N,/KEY_A*%
X41390000Y-3830000D03*
%TO.P,J1,28,Pin_28*%
%TO.N,/KEY_B*%
X41390000Y-7170000D03*
%TO.P,J1,29,Pin_29*%
%TO.N,/KEY_X*%
X43930000Y-3830000D03*
%TO.P,J1,30,Pin_30*%
%TO.N,/KEY_RIGHT*%
X43930000Y-7170000D03*
%TO.P,J1,31,Pin_31*%
%TO.N,/KEY_LEFT*%
X46470000Y-3830000D03*
%TO.P,J1,32,Pin_32*%
%TO.N,/KEY_Y*%
X46470000Y-7170000D03*
%TO.P,J1,33,Pin_33*%
%TO.N,/SD_CS*%
X49010000Y-3830000D03*
%TO.P,J1,34,Pin_34*%
%TO.N,/SD_MISO*%
X49010000Y-7170000D03*
%TO.P,J1,35,Pin_35*%
%TO.N,/SD_MOSI*%
X51550000Y-3830000D03*
%TO.P,J1,36,Pin_36*%
%TO.N,/SD_SCLK*%
X51550000Y-7170000D03*
%TO.P,J1,37,Pin_37*%
%TO.N,/USR_LED*%
X54090000Y-3830000D03*
%TO.P,J1,38,Pin_38*%
%TO.N,/RESET*%
X54090000Y-7170000D03*
%TO.P,J1,39,Pin_39*%
%TO.N,/GND*%
X56630000Y-3830000D03*
%TO.P,J1,40,Pin_40*%
X56630000Y-7170000D03*
%TD*%
D14*
%TO.N,/5V*%
X8370000Y-10120000D03*
%TO.N,/GND*%
X1453799Y-8405817D03*
%TO.N,/3V3*%
X10470000Y-42000000D03*
%TO.N,/USR_LED*%
X52820000Y-9500000D03*
%TO.N,/SD_CS*%
X47740000Y-9500000D03*
%TO.N,/BUS_SDA*%
X12180000Y-9500000D03*
%TO.N,/I2C_SDA*%
X14720000Y-9500000D03*
%TO.N,/KEY_ALT*%
X17260000Y-9500000D03*
%TO.N,/KEY_UP*%
X19800000Y-9500000D03*
%TO.N,/SPI_CS0*%
X22340000Y-9500000D03*
%TO.N,/SPI_MOSI*%
X24880000Y-9500000D03*
%TO.N,/PWM_L*%
X27420000Y-9500000D03*
%TO.N,/UART_TX*%
X29960000Y-9500000D03*
%TO.N,/LCD_DC*%
X32500000Y-9500000D03*
%TO.N,/LCD_CS*%
X35040000Y-9500000D03*
%TO.N,/LCD_MOSI*%
X37580000Y-9500000D03*
%TO.N,/KEY_A*%
X40120000Y-9500000D03*
%TO.N,/KEY_X*%
X42660000Y-9500000D03*
%TO.N,/KEY_LEFT*%
X45200000Y-9500000D03*
%TO.N,/SD_MOSI*%
X50280000Y-9500000D03*
%TD*%
D15*
%TO.N,/BUS_SDA*%
X12176000Y-43156000D02*
X12160000Y-43140000D01*
X12176000Y-46696000D02*
X12176000Y-43156000D01*
X13450000Y-47970000D02*
X12176000Y-46696000D01*
D16*
X12180000Y-43120000D02*
X12160000Y-43140000D01*
X12180000Y-9500000D02*
X12180000Y-43120000D01*
%TO.N,/KEY_ALT*%
X17260000Y-43010000D02*
X17264000Y-43014000D01*
X17260000Y-9500000D02*
X17260000Y-43010000D01*
D15*
X17264000Y-46704000D02*
X17264000Y-43014000D01*
X18530000Y-47970000D02*
X17264000Y-46704000D01*
D16*
%TO.N,/KEY_A*%
X40120000Y-43292000D02*
X40124000Y-43296000D01*
X40120000Y-9500000D02*
X40120000Y-43292000D01*
%TO.N,/SD_MOSI*%
X50280000Y-43380000D02*
X50270000Y-43390000D01*
X50280000Y-9500000D02*
X50280000Y-43380000D01*
D15*
X50284000Y-46704000D02*
X50284000Y-43404000D01*
X51550000Y-47970000D02*
X50284000Y-46704000D01*
D16*
%TO.N,/SD_CS*%
X47740000Y-9500000D02*
X47740000Y-43120000D01*
D15*
X47744000Y-43124000D02*
X47740000Y-43120000D01*
X47744000Y-46704000D02*
X47744000Y-43124000D01*
X49010000Y-47970000D02*
X47744000Y-46704000D01*
%TO.N,/KEY_A*%
X40124000Y-46704000D02*
X40124000Y-43296000D01*
X41390000Y-47970000D02*
X40124000Y-46704000D01*
%TO.N,/LCD_MOSI*%
X37584000Y-43400000D02*
X37580000Y-43396000D01*
X37584000Y-46704000D02*
X37584000Y-43400000D01*
X38850000Y-47970000D02*
X37584000Y-46704000D01*
D16*
X37580000Y-9500000D02*
X37580000Y-43396000D01*
D15*
%TO.N,/LCD_CS*%
X36310000Y-47970000D02*
X35044000Y-46704000D01*
X35044000Y-46704000D02*
X35044000Y-43496000D01*
D16*
X35040000Y-43480000D02*
X35050000Y-43490000D01*
X35040000Y-9500000D02*
X35040000Y-43480000D01*
D15*
%TO.N,/LCD_DC*%
X32504000Y-43690000D02*
X32500000Y-43686000D01*
X32504000Y-46704000D02*
X32504000Y-43690000D01*
X33770000Y-47970000D02*
X32504000Y-46704000D01*
D16*
X32500000Y-9500000D02*
X32500000Y-43686000D01*
D15*
%TO.N,/SPI_MOSI*%
X24884000Y-46704000D02*
X24884000Y-43540000D01*
X24884000Y-43540000D02*
X24880000Y-43536000D01*
X26150000Y-47970000D02*
X24884000Y-46704000D01*
D16*
X24880000Y-9500000D02*
X24880000Y-43536000D01*
D15*
%TO.N,/SPI_CS0*%
X22344000Y-46704000D02*
X22344000Y-43235998D01*
D16*
X22340000Y-9500000D02*
X22340000Y-43199998D01*
D15*
X23610000Y-47970000D02*
X22344000Y-46704000D01*
X22360000Y-43220000D02*
X22360000Y-43219998D01*
D17*
%TO.N,/GND*%
X3144183Y-8405817D02*
X1453799Y-8405817D01*
X6869000Y-1220000D02*
X6869000Y-4681000D01*
X56630000Y-3547265D02*
X54302735Y-1220000D01*
X56630000Y-4230000D02*
X56630000Y-3547265D01*
X54302735Y-1220000D02*
X6869000Y-1220000D01*
X6869000Y-4681000D02*
X3144183Y-8405817D01*
%TO.N,/5V*%
X8370000Y-6770000D02*
X8370000Y-10120000D01*
X8370000Y-10120000D02*
X8370000Y-45430000D01*
%TO.N,/3V3*%
X10739000Y-45259000D02*
X10910000Y-45430000D01*
X10910000Y-6770000D02*
X10739000Y-6941000D01*
X10739000Y-6941000D02*
X10739000Y-45259000D01*
%TO.N,/GND*%
X56630000Y-6770000D02*
X56630000Y-45430000D01*
D16*
%TO.N,/RESET*%
X54090000Y-6770000D02*
X54090000Y-45430000D01*
%TO.N,/USR_LED*%
X52824000Y-9504000D02*
X52824000Y-43474000D01*
X52820000Y-9500000D02*
X52824000Y-9504000D01*
%TO.N,/SD_SCLK*%
X51550000Y-6770000D02*
X51550000Y-45430000D01*
%TO.N,/SD_MISO*%
X49010000Y-6770000D02*
X49010000Y-45430000D01*
%TO.N,/KEY_Y*%
X46470000Y-6770000D02*
X46470000Y-45430000D01*
%TO.N,/KEY_LEFT*%
X45200000Y-9500000D02*
X45200000Y-43430000D01*
%TO.N,/KEY_RIGHT*%
X43930000Y-6770000D02*
X43930000Y-45430000D01*
%TO.N,/KEY_X*%
X42660000Y-9500000D02*
X42660000Y-43330000D01*
%TO.N,/KEY_B*%
X41390000Y-6770000D02*
X41390000Y-45430000D01*
%TO.N,/LCD_SCK*%
X38850000Y-6770000D02*
X38850000Y-45430000D01*
%TO.N,/LCD_BL*%
X36310000Y-6770000D02*
X36310000Y-45430000D01*
%TO.N,/LCD_RES*%
X33770000Y-6770000D02*
X33770000Y-45430000D01*
%TO.N,/UART_RX*%
X31230000Y-6770000D02*
X31230000Y-45430000D01*
%TO.N,/UART_TX*%
X29960000Y-9500000D02*
X29960000Y-43536000D01*
%TO.N,/PWM_R*%
X28690000Y-6770000D02*
X28690000Y-45430000D01*
%TO.N,/PWM_L*%
X27416000Y-9504000D02*
X27416000Y-43396000D01*
X27420000Y-9500000D02*
X27416000Y-9504000D01*
%TO.N,/SPI_SCLK*%
X26150000Y-6770000D02*
X26150000Y-45430000D01*
%TO.N,/SPI_MISO*%
X23610000Y-6770000D02*
X23610000Y-45430000D01*
%TO.N,/SPI_CS1*%
X21070000Y-6770000D02*
X21070000Y-45430000D01*
%TO.N,/KEY_UP*%
X19804000Y-9504000D02*
X19804000Y-43234000D01*
X19800000Y-9500000D02*
X19804000Y-9504000D01*
%TO.N,/KEY_DOWN*%
X18530000Y-6770000D02*
X18530000Y-45430000D01*
%TO.N,/I2C_SCL*%
X15990000Y-6770000D02*
X15990000Y-45430000D01*
%TO.N,/I2C_SDA*%
X14720000Y-9500000D02*
X14720000Y-43490000D01*
%TO.N,/BUS_SCL*%
X13450000Y-6770000D02*
X13450000Y-45430000D01*
D17*
%TO.N,/5V*%
X8370000Y-4230000D02*
X8370000Y-6770000D01*
%TO.N,/3V3*%
X10910000Y-4230000D02*
X10910000Y-6770000D01*
%TO.N,/GND*%
X56630000Y-4230000D02*
X56630000Y-6770000D01*
X56630000Y-47970000D02*
X56630000Y-45430000D01*
%TO.N,/5V*%
X8370000Y-47970000D02*
X8370000Y-45430000D01*
%TO.N,/3V3*%
X10910000Y-47970000D02*
X10910000Y-45430000D01*
D15*
%TO.N,/I2C_SDA*%
X14720000Y-46700000D02*
X14720000Y-43490000D01*
X15990000Y-47970000D02*
X14720000Y-46700000D01*
%TO.N,/KEY_UP*%
X21070000Y-47970000D02*
X19804000Y-46704000D01*
X19804000Y-46704000D02*
X19804000Y-43234000D01*
%TO.N,/PWM_L*%
X27416000Y-46696000D02*
X27416000Y-43396000D01*
X28690000Y-47970000D02*
X27416000Y-46696000D01*
%TO.N,/UART_TX*%
X29964000Y-46704000D02*
X29964000Y-43540000D01*
X31230000Y-47970000D02*
X29964000Y-46704000D01*
%TO.N,/LCD_CS*%
X35044000Y-43496000D02*
X35050000Y-43490000D01*
%TO.N,/KEY_X*%
X43930000Y-47970000D02*
X42660000Y-46700000D01*
X42660000Y-46700000D02*
X42660000Y-43330000D01*
%TO.N,/KEY_LEFT*%
X45200000Y-46700000D02*
X45200000Y-43430000D01*
X46470000Y-47970000D02*
X45200000Y-46700000D01*
%TO.N,/SD_MOSI*%
X50284000Y-43404000D02*
X50270000Y-43390000D01*
%TO.N,/USR_LED*%
X52824000Y-46704000D02*
X52824000Y-43474000D01*
X54090000Y-47970000D02*
X52824000Y-46704000D01*
%TO.N,/BUS_SDA*%
X12184000Y-9486000D02*
X12140000Y-9530000D01*
X12184000Y-5496000D02*
X12184000Y-9486000D01*
X13450000Y-4230000D02*
X12184000Y-5496000D01*
%TO.N,/I2C_SDA*%
X14724000Y-9546000D02*
X14640000Y-9630000D01*
X14724000Y-5496000D02*
X14724000Y-9546000D01*
X15990000Y-4230000D02*
X14724000Y-5496000D01*
%TO.N,/KEY_ALT*%
X17264000Y-9554000D02*
X17310000Y-9600000D01*
X18530000Y-4230000D02*
X17264000Y-5496000D01*
X17264000Y-5496000D02*
X17264000Y-9554000D01*
%TO.N,/KEY_UP*%
X19804000Y-9584000D02*
X19850000Y-9630000D01*
X19804000Y-5496000D02*
X19804000Y-9584000D01*
X21070000Y-4230000D02*
X19804000Y-5496000D01*
%TO.N,/SPI_CS0*%
X22344000Y-5496000D02*
X22344000Y-9554000D01*
X23610000Y-4230000D02*
X22344000Y-5496000D01*
X22344000Y-9554000D02*
X22420000Y-9630000D01*
%TO.N,/SPI_MOSI*%
X24884000Y-5496000D02*
X24884000Y-9484000D01*
X26150000Y-4230000D02*
X24884000Y-5496000D01*
X24884000Y-9484000D02*
X25030000Y-9630000D01*
%TO.N,/PWM_L*%
X27425458Y-9565458D02*
X27460000Y-9600000D01*
X27425458Y-5494542D02*
X27425458Y-9565458D01*
X28690000Y-4230000D02*
X27425458Y-5494542D01*
%TO.N,/UART_TX*%
X29964000Y-9464000D02*
X30030000Y-9530000D01*
X29964000Y-5496000D02*
X29964000Y-9464000D01*
X31230000Y-4230000D02*
X29964000Y-5496000D01*
%TO.N,/LCD_DC*%
X32504000Y-5496000D02*
X32504000Y-9494000D01*
X32504000Y-9494000D02*
X32610000Y-9600000D01*
X33770000Y-4230000D02*
X32504000Y-5496000D01*
%TO.N,/LCD_CS*%
X35040000Y-9530000D02*
X35110000Y-9600000D01*
X35040000Y-5500000D02*
X35040000Y-9530000D01*
X36310000Y-4230000D02*
X35040000Y-5500000D01*
%TO.N,/LCD_MOSI*%
X38850000Y-4230000D02*
X37580000Y-5500000D01*
X37580000Y-5500000D02*
X37580000Y-9400000D01*
%TO.N,/KEY_A*%
X40124000Y-9267524D02*
X40235469Y-9378993D01*
X40124000Y-5496000D02*
X40124000Y-9267524D01*
X41390000Y-4230000D02*
X40124000Y-5496000D01*
%TO.N,/KEY_X*%
X42664000Y-5496000D02*
X42664000Y-9456000D01*
X42664000Y-9456000D02*
X42620000Y-9500000D01*
X43930000Y-4230000D02*
X42664000Y-5496000D01*
%TO.N,/KEY_LEFT*%
X45196000Y-9536000D02*
X45220000Y-9560000D01*
X45196000Y-5504000D02*
X45196000Y-9536000D01*
X46470000Y-4230000D02*
X45196000Y-5504000D01*
%TO.N,/SD_CS*%
X47744000Y-9474000D02*
X47830000Y-9560000D01*
X47744000Y-5496000D02*
X47744000Y-9474000D01*
X49010000Y-4230000D02*
X47744000Y-5496000D01*
%TO.N,/SD_MOSI*%
X50284000Y-9514000D02*
X50430000Y-9660000D01*
X50284000Y-5496000D02*
X50284000Y-9514000D01*
X51550000Y-4230000D02*
X50284000Y-5496000D01*
%TO.N,/USR_LED*%
X52824934Y-9514934D02*
X52870000Y-9560000D01*
X54090000Y-4230000D02*
X52824934Y-5495066D01*
X52824934Y-5495066D02*
X52824934Y-9514934D01*
%TD*%
%TA.AperFunction,Conductor*%
%TO.N,/GND*%
G36*
X64542539Y-420185D02*
G01*
X64588294Y-472989D01*
X64599500Y-524500D01*
X64599500Y-56475500D01*
X64579815Y-56542539D01*
X64527011Y-56588294D01*
X64475500Y-56599500D01*
X524500Y-56599500D01*
X457461Y-56579815D01*
X411706Y-56527011D01*
X400500Y-56475500D01*
X400500Y-53385921D01*
X1759500Y-53385921D01*
X1759500Y-53614078D01*
X1789278Y-53840272D01*
X1789279Y-53840277D01*
X1789280Y-53840283D01*
X1789281Y-53840285D01*
X1848331Y-54060666D01*
X1935638Y-54271446D01*
X1935646Y-54271462D01*
X2049717Y-54469037D01*
X2049728Y-54469053D01*
X2188613Y-54650052D01*
X2188619Y-54650059D01*
X2349940Y-54811380D01*
X2349946Y-54811385D01*
X2530955Y-54950278D01*
X2530962Y-54950282D01*
X2728537Y-55064353D01*
X2728553Y-55064361D01*
X2842268Y-55111463D01*
X2939334Y-55151669D01*
X3159717Y-55210720D01*
X3319474Y-55231752D01*
X3385921Y-55240500D01*
X3385922Y-55240500D01*
X3614079Y-55240500D01*
X3665438Y-55233738D01*
X3840283Y-55210720D01*
X3863239Y-55204569D01*
X22093260Y-55204569D01*
X42879993Y-55204569D01*
X42879993Y-53385921D01*
X59759500Y-53385921D01*
X59759500Y-53614078D01*
X59789278Y-53840272D01*
X59789279Y-53840277D01*
X59789280Y-53840283D01*
X59789281Y-53840285D01*
X59848331Y-54060666D01*
X59935638Y-54271446D01*
X59935646Y-54271462D01*
X60049717Y-54469037D01*
X60049728Y-54469053D01*
X60188613Y-54650052D01*
X60188619Y-54650059D01*
X60349940Y-54811380D01*
X60349946Y-54811385D01*
X60530955Y-54950278D01*
X60530962Y-54950282D01*
X60728537Y-55064353D01*
X60728553Y-55064361D01*
X60842268Y-55111463D01*
X60939334Y-55151669D01*
X61159717Y-55210720D01*
X61319474Y-55231752D01*
X61385921Y-55240500D01*
X61385922Y-55240500D01*
X61614079Y-55240500D01*
X61665438Y-55233738D01*
X61840283Y-55210720D01*
X62060666Y-55151669D01*
X62226365Y-55083033D01*
X62271446Y-55064361D01*
X62271449Y-55064359D01*
X62271455Y-55064357D01*
X62469045Y-54950278D01*
X62650054Y-54811385D01*
X62811385Y-54650054D01*
X62950278Y-54469045D01*
X63064357Y-54271455D01*
X63151669Y-54060666D01*
X63210720Y-53840283D01*
X63240500Y-53614078D01*
X63240500Y-53385922D01*
X63210720Y-53159717D01*
X63151669Y-52939334D01*
X63111463Y-52842268D01*
X63064361Y-52728553D01*
X63064353Y-52728537D01*
X62950282Y-52530962D01*
X62950278Y-52530955D01*
X62811385Y-52349946D01*
X62811380Y-52349940D01*
X62650059Y-52188619D01*
X62650052Y-52188613D01*
X62469053Y-52049728D01*
X62469051Y-52049726D01*
X62469045Y-52049722D01*
X62469040Y-52049719D01*
X62469037Y-52049717D01*
X62271462Y-51935646D01*
X62271446Y-51935638D01*
X62060666Y-51848331D01*
X61840283Y-51789280D01*
X61840277Y-51789279D01*
X61840272Y-51789278D01*
X61614079Y-51759500D01*
X61614078Y-51759500D01*
X61385922Y-51759500D01*
X61385921Y-51759500D01*
X61159727Y-51789278D01*
X61159720Y-51789279D01*
X61159717Y-51789280D01*
X61066567Y-51814239D01*
X60939333Y-51848331D01*
X60728553Y-51935638D01*
X60728537Y-51935646D01*
X60530962Y-52049717D01*
X60530946Y-52049728D01*
X60349947Y-52188613D01*
X60349940Y-52188619D01*
X60188619Y-52349940D01*
X60188613Y-52349947D01*
X60049728Y-52530946D01*
X60049717Y-52530962D01*
X59935646Y-52728537D01*
X59935638Y-52728553D01*
X59848331Y-52939333D01*
X59789281Y-53159714D01*
X59789278Y-53159727D01*
X59759500Y-53385921D01*
X42879993Y-53385921D01*
X42879993Y-52145846D01*
X22093260Y-52145846D01*
X22093260Y-55204569D01*
X3863239Y-55204569D01*
X4060666Y-55151669D01*
X4226365Y-55083033D01*
X4271446Y-55064361D01*
X4271449Y-55064359D01*
X4271455Y-55064357D01*
X4469045Y-54950278D01*
X4650054Y-54811385D01*
X4811385Y-54650054D01*
X4950278Y-54469045D01*
X5064357Y-54271455D01*
X5151669Y-54060666D01*
X5210720Y-53840283D01*
X5240500Y-53614078D01*
X5240500Y-53385922D01*
X5210720Y-53159717D01*
X5151669Y-52939334D01*
X5111463Y-52842268D01*
X5064361Y-52728553D01*
X5064353Y-52728537D01*
X4950282Y-52530962D01*
X4950278Y-52530955D01*
X4811385Y-52349946D01*
X4811380Y-52349940D01*
X4650055Y-52188615D01*
X4469053Y-52049728D01*
X4469051Y-52049726D01*
X4469045Y-52049722D01*
X4469040Y-52049719D01*
X4469037Y-52049717D01*
X4271462Y-51935646D01*
X4271446Y-51935638D01*
X4060666Y-51848331D01*
X3840283Y-51789280D01*
X3840277Y-51789279D01*
X3840272Y-51789278D01*
X3614079Y-51759500D01*
X3614078Y-51759500D01*
X3385922Y-51759500D01*
X3385921Y-51759500D01*
X3159727Y-51789278D01*
X3159720Y-51789279D01*
X3159717Y-51789280D01*
X3066567Y-51814239D01*
X2939333Y-51848331D01*
X2728553Y-51935638D01*
X2728537Y-51935646D01*
X2530962Y-52049717D01*
X2530946Y-52049728D01*
X2349947Y-52188613D01*
X2349940Y-52188619D01*
X2188619Y-52349940D01*
X2188613Y-52349947D01*
X2049728Y-52530946D01*
X2049717Y-52530962D01*
X1935646Y-52728537D01*
X1935638Y-52728553D01*
X1848331Y-52939333D01*
X1789281Y-53159714D01*
X1789278Y-53159727D01*
X1759500Y-53385921D01*
X400500Y-53385921D01*
X400500Y-40635815D01*
X420185Y-40568776D01*
X472989Y-40523021D01*
X524500Y-40511815D01*
X3129798Y-40511815D01*
X3129798Y-30748189D01*
X559570Y-30748189D01*
X524500Y-30748189D01*
X457461Y-30728504D01*
X411706Y-30675700D01*
X400500Y-30624189D01*
X400500Y-10017648D01*
X7069500Y-10017648D01*
X7069500Y-10222351D01*
X7101522Y-10424534D01*
X7164781Y-10619223D01*
X7257715Y-10801613D01*
X7378028Y-10967213D01*
X7433181Y-11022366D01*
X7466666Y-11083689D01*
X7469500Y-11110047D01*
X7469500Y-43656859D01*
X7449815Y-43723898D01*
X7445818Y-43729745D01*
X7428770Y-43753207D01*
X7428769Y-43753210D01*
X7350128Y-43907552D01*
X7296597Y-44072302D01*
X7269500Y-44243389D01*
X7269500Y-45816610D01*
X7295934Y-45983512D01*
X7296598Y-45987701D01*
X7350127Y-46152445D01*
X7428768Y-46306788D01*
X7445818Y-46330255D01*
X7452970Y-46350301D01*
X7464477Y-46368205D01*
X7467930Y-46392226D01*
X7469298Y-46396058D01*
X7469500Y-46403140D01*
X7469500Y-46505087D01*
X7449815Y-46572126D01*
X7405927Y-46610154D01*
X7406713Y-46611301D01*
X7397236Y-46617792D01*
X7317793Y-46697236D01*
X7272415Y-46800006D01*
X7272415Y-46800008D01*
X7269500Y-46825131D01*
X7269500Y-49914856D01*
X7269502Y-49914882D01*
X7272413Y-49939987D01*
X7272415Y-49939991D01*
X7317793Y-50042764D01*
X7317794Y-50042765D01*
X7397235Y-50122206D01*
X7500009Y-50167585D01*
X7525135Y-50170500D01*
X9214864Y-50170499D01*
X9214879Y-50170497D01*
X9214882Y-50170497D01*
X9239987Y-50167586D01*
X9239988Y-50167585D01*
X9239991Y-50167585D01*
X9342765Y-50122206D01*
X9422206Y-50042765D01*
X9467585Y-49939991D01*
X9470500Y-49914865D01*
X9470499Y-46825136D01*
X9470264Y-46823110D01*
X9467586Y-46800012D01*
X9467585Y-46800010D01*
X9467585Y-46800009D01*
X9422206Y-46697235D01*
X9342765Y-46617794D01*
X9342764Y-46617793D01*
X9342763Y-46617792D01*
X9333287Y-46611301D01*
X9334231Y-46609922D01*
X9330205Y-46606521D01*
X9313297Y-46598800D01*
X9304070Y-46584443D01*
X9291034Y-46573430D01*
X9285573Y-46555661D01*
X9275523Y-46540022D01*
X9270911Y-46507948D01*
X9270510Y-46506642D01*
X9270500Y-46505087D01*
X9270500Y-46403140D01*
X9290185Y-46336101D01*
X9294164Y-46330279D01*
X9311232Y-46306788D01*
X9389873Y-46152445D01*
X9443402Y-45987701D01*
X9470500Y-45816611D01*
X9470500Y-44243389D01*
X9443402Y-44072299D01*
X9389873Y-43907555D01*
X9311232Y-43753212D01*
X9311229Y-43753208D01*
X9311229Y-43753207D01*
X9294182Y-43729745D01*
X9270702Y-43663939D01*
X9270500Y-43656859D01*
X9270500Y-42939047D01*
X9290185Y-42872008D01*
X9342989Y-42826253D01*
X9412147Y-42816309D01*
X9475703Y-42845334D01*
X9482181Y-42851366D01*
X9622784Y-42991969D01*
X9692948Y-43042945D01*
X9787385Y-43111557D01*
X9830051Y-43166885D01*
X9838500Y-43211874D01*
X9838500Y-44050533D01*
X9836973Y-44069931D01*
X9809500Y-44243389D01*
X9809500Y-45816610D01*
X9835934Y-45983512D01*
X9836598Y-45987701D01*
X9890127Y-46152445D01*
X9968768Y-46306788D01*
X9985818Y-46330255D01*
X10009298Y-46396058D01*
X10009500Y-46403140D01*
X10009500Y-46996859D01*
X9989815Y-47063898D01*
X9985818Y-47069745D01*
X9968770Y-47093207D01*
X9968769Y-47093210D01*
X9890128Y-47247552D01*
X9836597Y-47412302D01*
X9827459Y-47470000D01*
X9809500Y-47583389D01*
X9809500Y-49156611D01*
X9836598Y-49327701D01*
X9890127Y-49492445D01*
X9968768Y-49646788D01*
X10070586Y-49786928D01*
X10193072Y-49909414D01*
X10333212Y-50011232D01*
X10487555Y-50089873D01*
X10652299Y-50143402D01*
X10823389Y-50170500D01*
X10823390Y-50170500D01*
X10996610Y-50170500D01*
X10996611Y-50170500D01*
X11167701Y-50143402D01*
X11332445Y-50089873D01*
X11486788Y-50011232D01*
X11626928Y-49909414D01*
X11749414Y-49786928D01*
X11851232Y-49646788D01*
X11929873Y-49492445D01*
X11983402Y-49327701D01*
X12010500Y-49156611D01*
X12010500Y-47771021D01*
X12016738Y-47749776D01*
X12018318Y-47727688D01*
X12026390Y-47716904D01*
X12030185Y-47703983D01*
X12046918Y-47689483D01*
X12060190Y-47671755D01*
X12072810Y-47667047D01*
X12082989Y-47658228D01*
X12104906Y-47655076D01*
X12125654Y-47647338D01*
X12138814Y-47650200D01*
X12152147Y-47648284D01*
X12172290Y-47657483D01*
X12193927Y-47662190D01*
X12211652Y-47675458D01*
X12215703Y-47677309D01*
X12222180Y-47683340D01*
X12313181Y-47774341D01*
X12346666Y-47835664D01*
X12349500Y-47862021D01*
X12349500Y-49156611D01*
X12376598Y-49327701D01*
X12430127Y-49492445D01*
X12508768Y-49646788D01*
X12610586Y-49786928D01*
X12733072Y-49909414D01*
X12873212Y-50011232D01*
X13027555Y-50089873D01*
X13192299Y-50143402D01*
X13363389Y-50170500D01*
X13363390Y-50170500D01*
X13536610Y-50170500D01*
X13536611Y-50170500D01*
X13707701Y-50143402D01*
X13872445Y-50089873D01*
X14026788Y-50011232D01*
X14166928Y-49909414D01*
X14289414Y-49786928D01*
X14391232Y-49646788D01*
X14469873Y-49492445D01*
X14523402Y-49327701D01*
X14550500Y-49156611D01*
X14550500Y-47771021D01*
X14556738Y-47749775D01*
X14558318Y-47727687D01*
X14566390Y-47716903D01*
X14570185Y-47703982D01*
X14586918Y-47689482D01*
X14600190Y-47671754D01*
X14612810Y-47667046D01*
X14622989Y-47658227D01*
X14644906Y-47655075D01*
X14665654Y-47647337D01*
X14678814Y-47650199D01*
X14692147Y-47648283D01*
X14712290Y-47657482D01*
X14733927Y-47662189D01*
X14751652Y-47675457D01*
X14755703Y-47677308D01*
X14762181Y-47683340D01*
X14853181Y-47774340D01*
X14886666Y-47835663D01*
X14889500Y-47862021D01*
X14889500Y-49156611D01*
X14916598Y-49327701D01*
X14970127Y-49492445D01*
X15048768Y-49646788D01*
X15150586Y-49786928D01*
X15273072Y-49909414D01*
X15413212Y-50011232D01*
X15567555Y-50089873D01*
X15732299Y-50143402D01*
X15903389Y-50170500D01*
X15903390Y-50170500D01*
X16076610Y-50170500D01*
X16076611Y-50170500D01*
X16247701Y-50143402D01*
X16412445Y-50089873D01*
X16566788Y-50011232D01*
X16706928Y-49909414D01*
X16829414Y-49786928D01*
X16931232Y-49646788D01*
X17009873Y-49492445D01*
X17063402Y-49327701D01*
X17090500Y-49156611D01*
X17090500Y-47771021D01*
X17096738Y-47749775D01*
X17098318Y-47727687D01*
X17106390Y-47716903D01*
X17110185Y-47703982D01*
X17126918Y-47689482D01*
X17140190Y-47671754D01*
X17152810Y-47667046D01*
X17162989Y-47658227D01*
X17184906Y-47655075D01*
X17205654Y-47647337D01*
X17218814Y-47650199D01*
X17232147Y-47648283D01*
X17252290Y-47657482D01*
X17273927Y-47662189D01*
X17291652Y-47675457D01*
X17295703Y-47677308D01*
X17302181Y-47683340D01*
X17393181Y-47774340D01*
X17426666Y-47835663D01*
X17429500Y-47862021D01*
X17429500Y-49156611D01*
X17456598Y-49327701D01*
X17510127Y-49492445D01*
X17588768Y-49646788D01*
X17690586Y-49786928D01*
X17813072Y-49909414D01*
X17953212Y-50011232D01*
X18107555Y-50089873D01*
X18272299Y-50143402D01*
X18443389Y-50170500D01*
X18443390Y-50170500D01*
X18616610Y-50170500D01*
X18616611Y-50170500D01*
X18787701Y-50143402D01*
X18952445Y-50089873D01*
X19106788Y-50011232D01*
X19246928Y-49909414D01*
X19369414Y-49786928D01*
X19471232Y-49646788D01*
X19549873Y-49492445D01*
X19603402Y-49327701D01*
X19630500Y-49156611D01*
X19630500Y-47771021D01*
X19636738Y-47749775D01*
X19638318Y-47727687D01*
X19646390Y-47716903D01*
X19650185Y-47703982D01*
X19666918Y-47689482D01*
X19680190Y-47671754D01*
X19692810Y-47667046D01*
X19702989Y-47658227D01*
X19724906Y-47655075D01*
X19745654Y-47647337D01*
X19758814Y-47650199D01*
X19772147Y-47648283D01*
X19792290Y-47657482D01*
X19813927Y-47662189D01*
X19831652Y-47675457D01*
X19835703Y-47677308D01*
X19842181Y-47683340D01*
X19933181Y-47774340D01*
X19966666Y-47835663D01*
X19969500Y-47862021D01*
X19969500Y-49156611D01*
X19996598Y-49327701D01*
X20050127Y-49492445D01*
X20128768Y-49646788D01*
X20230586Y-49786928D01*
X20353072Y-49909414D01*
X20493212Y-50011232D01*
X20647555Y-50089873D01*
X20812299Y-50143402D01*
X20983389Y-50170500D01*
X20983390Y-50170500D01*
X21156610Y-50170500D01*
X21156611Y-50170500D01*
X21327701Y-50143402D01*
X21492445Y-50089873D01*
X21646788Y-50011232D01*
X21786928Y-49909414D01*
X21909414Y-49786928D01*
X22011232Y-49646788D01*
X22089873Y-49492445D01*
X22143402Y-49327701D01*
X22170500Y-49156611D01*
X22170500Y-47771021D01*
X22176738Y-47749775D01*
X22178318Y-47727687D01*
X22186390Y-47716903D01*
X22190185Y-47703982D01*
X22206918Y-47689482D01*
X22220190Y-47671754D01*
X22232810Y-47667046D01*
X22242989Y-47658227D01*
X22264906Y-47655075D01*
X22285654Y-47647337D01*
X22298814Y-47650199D01*
X22312147Y-47648283D01*
X22332290Y-47657482D01*
X22353927Y-47662189D01*
X22371652Y-47675457D01*
X22375703Y-47677308D01*
X22382181Y-47683340D01*
X22473181Y-47774340D01*
X22506666Y-47835663D01*
X22509500Y-47862021D01*
X22509500Y-49156611D01*
X22536598Y-49327701D01*
X22590127Y-49492445D01*
X22668768Y-49646788D01*
X22770586Y-49786928D01*
X22893072Y-49909414D01*
X23033212Y-50011232D01*
X23187555Y-50089873D01*
X23352299Y-50143402D01*
X23523389Y-50170500D01*
X23523390Y-50170500D01*
X23696610Y-50170500D01*
X23696611Y-50170500D01*
X23867701Y-50143402D01*
X24032445Y-50089873D01*
X24186788Y-50011232D01*
X24326928Y-49909414D01*
X24449414Y-49786928D01*
X24551232Y-49646788D01*
X24629873Y-49492445D01*
X24683402Y-49327701D01*
X24710500Y-49156611D01*
X24710500Y-47771021D01*
X24716738Y-47749775D01*
X24718318Y-47727687D01*
X24726390Y-47716903D01*
X24730185Y-47703982D01*
X24746918Y-47689482D01*
X24760190Y-47671754D01*
X24772810Y-47667046D01*
X24782989Y-47658227D01*
X24804906Y-47655075D01*
X24825654Y-47647337D01*
X24838814Y-47650199D01*
X24852147Y-47648283D01*
X24872290Y-47657482D01*
X24893927Y-47662189D01*
X24911652Y-47675457D01*
X24915703Y-47677308D01*
X24922181Y-47683340D01*
X25013181Y-47774340D01*
X25046666Y-47835663D01*
X25049500Y-47862021D01*
X25049500Y-49156611D01*
X25076598Y-49327701D01*
X25130127Y-49492445D01*
X25208768Y-49646788D01*
X25310586Y-49786928D01*
X25433072Y-49909414D01*
X25573212Y-50011232D01*
X25727555Y-50089873D01*
X25892299Y-50143402D01*
X26063389Y-50170500D01*
X26063390Y-50170500D01*
X26236610Y-50170500D01*
X26236611Y-50170500D01*
X26407701Y-50143402D01*
X26572445Y-50089873D01*
X26726788Y-50011232D01*
X26866928Y-49909414D01*
X26989414Y-49786928D01*
X27091232Y-49646788D01*
X27169873Y-49492445D01*
X27223402Y-49327701D01*
X27250500Y-49156611D01*
X27250500Y-47771021D01*
X27256738Y-47749776D01*
X27258318Y-47727688D01*
X27266390Y-47716904D01*
X27270185Y-47703983D01*
X27286918Y-47689483D01*
X27300190Y-47671755D01*
X27312810Y-47667047D01*
X27322989Y-47658228D01*
X27344906Y-47655076D01*
X27365654Y-47647338D01*
X27378814Y-47650200D01*
X27392147Y-47648284D01*
X27412290Y-47657483D01*
X27433927Y-47662190D01*
X27451652Y-47675458D01*
X27455703Y-47677309D01*
X27462180Y-47683340D01*
X27553181Y-47774341D01*
X27586666Y-47835664D01*
X27589500Y-47862021D01*
X27589500Y-49156611D01*
X27616598Y-49327701D01*
X27670127Y-49492445D01*
X27748768Y-49646788D01*
X27850586Y-49786928D01*
X27973072Y-49909414D01*
X28113212Y-50011232D01*
X28267555Y-50089873D01*
X28432299Y-50143402D01*
X28603389Y-50170500D01*
X28603390Y-50170500D01*
X28776610Y-50170500D01*
X28776611Y-50170500D01*
X28947701Y-50143402D01*
X29112445Y-50089873D01*
X29266788Y-50011232D01*
X29406928Y-49909414D01*
X29529414Y-49786928D01*
X29631232Y-49646788D01*
X29709873Y-49492445D01*
X29763402Y-49327701D01*
X29790500Y-49156611D01*
X29790500Y-47771021D01*
X29796738Y-47749775D01*
X29798318Y-47727687D01*
X29806390Y-47716903D01*
X29810185Y-47703982D01*
X29826918Y-47689482D01*
X29840190Y-47671754D01*
X29852810Y-47667046D01*
X29862989Y-47658227D01*
X29884906Y-47655075D01*
X29905654Y-47647337D01*
X29918814Y-47650199D01*
X29932147Y-47648283D01*
X29952290Y-47657482D01*
X29973927Y-47662189D01*
X29991652Y-47675457D01*
X29995703Y-47677308D01*
X30002181Y-47683340D01*
X30093181Y-47774340D01*
X30126666Y-47835663D01*
X30129500Y-47862021D01*
X30129500Y-49156611D01*
X30156598Y-49327701D01*
X30210127Y-49492445D01*
X30288768Y-49646788D01*
X30390586Y-49786928D01*
X30513072Y-49909414D01*
X30653212Y-50011232D01*
X30807555Y-50089873D01*
X30972299Y-50143402D01*
X31143389Y-50170500D01*
X31143390Y-50170500D01*
X31316610Y-50170500D01*
X31316611Y-50170500D01*
X31487701Y-50143402D01*
X31652445Y-50089873D01*
X31806788Y-50011232D01*
X31946928Y-49909414D01*
X32069414Y-49786928D01*
X32171232Y-49646788D01*
X32249873Y-49492445D01*
X32303402Y-49327701D01*
X32330500Y-49156611D01*
X32330500Y-47771021D01*
X32336738Y-47749775D01*
X32338318Y-47727687D01*
X32346390Y-47716903D01*
X32350185Y-47703982D01*
X32366918Y-47689482D01*
X32380190Y-47671754D01*
X32392810Y-47667046D01*
X32402989Y-47658227D01*
X32424906Y-47655075D01*
X32445654Y-47647337D01*
X32458814Y-47650199D01*
X32472147Y-47648283D01*
X32492290Y-47657482D01*
X32513927Y-47662189D01*
X32531652Y-47675457D01*
X32535703Y-47677308D01*
X32542181Y-47683340D01*
X32633181Y-47774340D01*
X32666666Y-47835663D01*
X32669500Y-47862021D01*
X32669500Y-49156611D01*
X32696598Y-49327701D01*
X32750127Y-49492445D01*
X32828768Y-49646788D01*
X32930586Y-49786928D01*
X33053072Y-49909414D01*
X33193212Y-50011232D01*
X33347555Y-50089873D01*
X33512299Y-50143402D01*
X33683389Y-50170500D01*
X33683390Y-50170500D01*
X33856610Y-50170500D01*
X33856611Y-50170500D01*
X34027701Y-50143402D01*
X34192445Y-50089873D01*
X34346788Y-50011232D01*
X34486928Y-49909414D01*
X34609414Y-49786928D01*
X34711232Y-49646788D01*
X34789873Y-49492445D01*
X34843402Y-49327701D01*
X34870500Y-49156611D01*
X34870500Y-47771021D01*
X34876738Y-47749775D01*
X34878318Y-47727687D01*
X34886390Y-47716903D01*
X34890185Y-47703982D01*
X34906918Y-47689482D01*
X34920190Y-47671754D01*
X34932810Y-47667046D01*
X34942989Y-47658227D01*
X34964906Y-47655075D01*
X34985654Y-47647337D01*
X34998814Y-47650199D01*
X35012147Y-47648283D01*
X35032290Y-47657482D01*
X35053927Y-47662189D01*
X35071652Y-47675457D01*
X35075703Y-47677308D01*
X35082181Y-47683340D01*
X35173181Y-47774340D01*
X35206666Y-47835663D01*
X35209500Y-47862021D01*
X35209500Y-49156611D01*
X35236598Y-49327701D01*
X35290127Y-49492445D01*
X35368768Y-49646788D01*
X35470586Y-49786928D01*
X35593072Y-49909414D01*
X35733212Y-50011232D01*
X35887555Y-50089873D01*
X36052299Y-50143402D01*
X36223389Y-50170500D01*
X36223390Y-50170500D01*
X36396610Y-50170500D01*
X36396611Y-50170500D01*
X36567701Y-50143402D01*
X36732445Y-50089873D01*
X36886788Y-50011232D01*
X37026928Y-49909414D01*
X37149414Y-49786928D01*
X37251232Y-49646788D01*
X37329873Y-49492445D01*
X37383402Y-49327701D01*
X37410500Y-49156611D01*
X37410500Y-47771021D01*
X37416738Y-47749775D01*
X37418318Y-47727687D01*
X37426390Y-47716903D01*
X37430185Y-47703982D01*
X37446918Y-47689482D01*
X37460190Y-47671754D01*
X37472810Y-47667046D01*
X37482989Y-47658227D01*
X37504906Y-47655075D01*
X37525654Y-47647337D01*
X37538814Y-47650199D01*
X37552147Y-47648283D01*
X37572290Y-47657482D01*
X37593927Y-47662189D01*
X37611652Y-47675457D01*
X37615703Y-47677308D01*
X37622181Y-47683340D01*
X37713181Y-47774340D01*
X37746666Y-47835663D01*
X37749500Y-47862021D01*
X37749500Y-49156611D01*
X37776598Y-49327701D01*
X37830127Y-49492445D01*
X37908768Y-49646788D01*
X38010586Y-49786928D01*
X38133072Y-49909414D01*
X38273212Y-50011232D01*
X38427555Y-50089873D01*
X38592299Y-50143402D01*
X38763389Y-50170500D01*
X38763390Y-50170500D01*
X38936610Y-50170500D01*
X38936611Y-50170500D01*
X39107701Y-50143402D01*
X39272445Y-50089873D01*
X39426788Y-50011232D01*
X39566928Y-49909414D01*
X39689414Y-49786928D01*
X39791232Y-49646788D01*
X39869873Y-49492445D01*
X39923402Y-49327701D01*
X39950500Y-49156611D01*
X39950500Y-47771021D01*
X39956738Y-47749775D01*
X39958318Y-47727687D01*
X39966390Y-47716903D01*
X39970185Y-47703982D01*
X39986918Y-47689482D01*
X40000190Y-47671754D01*
X40012810Y-47667046D01*
X40022989Y-47658227D01*
X40044906Y-47655075D01*
X40065654Y-47647337D01*
X40078814Y-47650199D01*
X40092147Y-47648283D01*
X40112290Y-47657482D01*
X40133927Y-47662189D01*
X40151652Y-47675457D01*
X40155703Y-47677308D01*
X40162181Y-47683340D01*
X40253181Y-47774340D01*
X40286666Y-47835663D01*
X40289500Y-47862021D01*
X40289500Y-49156611D01*
X40316598Y-49327701D01*
X40370127Y-49492445D01*
X40448768Y-49646788D01*
X40550586Y-49786928D01*
X40673072Y-49909414D01*
X40813212Y-50011232D01*
X40967555Y-50089873D01*
X41132299Y-50143402D01*
X41303389Y-50170500D01*
X41303390Y-50170500D01*
X41476610Y-50170500D01*
X41476611Y-50170500D01*
X41647701Y-50143402D01*
X41812445Y-50089873D01*
X41966788Y-50011232D01*
X42106928Y-49909414D01*
X42229414Y-49786928D01*
X42331232Y-49646788D01*
X42409873Y-49492445D01*
X42463402Y-49327701D01*
X42490500Y-49156611D01*
X42490500Y-47771021D01*
X42496738Y-47749775D01*
X42498318Y-47727687D01*
X42506390Y-47716903D01*
X42510185Y-47703982D01*
X42526918Y-47689482D01*
X42540190Y-47671754D01*
X42552810Y-47667046D01*
X42562989Y-47658227D01*
X42584906Y-47655075D01*
X42605654Y-47647337D01*
X42618814Y-47650199D01*
X42632147Y-47648283D01*
X42652290Y-47657482D01*
X42673927Y-47662189D01*
X42691652Y-47675457D01*
X42695703Y-47677308D01*
X42702181Y-47683340D01*
X42793181Y-47774340D01*
X42826666Y-47835663D01*
X42829500Y-47862021D01*
X42829500Y-49156611D01*
X42856598Y-49327701D01*
X42910127Y-49492445D01*
X42988768Y-49646788D01*
X43090586Y-49786928D01*
X43213072Y-49909414D01*
X43353212Y-50011232D01*
X43507555Y-50089873D01*
X43672299Y-50143402D01*
X43843389Y-50170500D01*
X43843390Y-50170500D01*
X44016610Y-50170500D01*
X44016611Y-50170500D01*
X44187701Y-50143402D01*
X44352445Y-50089873D01*
X44506788Y-50011232D01*
X44646928Y-49909414D01*
X44769414Y-49786928D01*
X44871232Y-49646788D01*
X44949873Y-49492445D01*
X45003402Y-49327701D01*
X45030500Y-49156611D01*
X45030500Y-47771021D01*
X45036738Y-47749775D01*
X45038318Y-47727687D01*
X45046390Y-47716903D01*
X45050185Y-47703982D01*
X45066918Y-47689482D01*
X45080190Y-47671754D01*
X45092810Y-47667046D01*
X45102989Y-47658227D01*
X45124906Y-47655075D01*
X45145654Y-47647337D01*
X45158814Y-47650199D01*
X45172147Y-47648283D01*
X45192290Y-47657482D01*
X45213927Y-47662189D01*
X45231652Y-47675457D01*
X45235703Y-47677308D01*
X45242181Y-47683340D01*
X45333181Y-47774340D01*
X45366666Y-47835663D01*
X45369500Y-47862021D01*
X45369500Y-49156611D01*
X45396598Y-49327701D01*
X45450127Y-49492445D01*
X45528768Y-49646788D01*
X45630586Y-49786928D01*
X45753072Y-49909414D01*
X45893212Y-50011232D01*
X46047555Y-50089873D01*
X46212299Y-50143402D01*
X46383389Y-50170500D01*
X46383390Y-50170500D01*
X46556610Y-50170500D01*
X46556611Y-50170500D01*
X46727701Y-50143402D01*
X46892445Y-50089873D01*
X47046788Y-50011232D01*
X47186928Y-49909414D01*
X47309414Y-49786928D01*
X47411232Y-49646788D01*
X47489873Y-49492445D01*
X47543402Y-49327701D01*
X47570500Y-49156611D01*
X47570500Y-47771021D01*
X47576738Y-47749775D01*
X47578318Y-47727687D01*
X47586390Y-47716903D01*
X47590185Y-47703982D01*
X47606918Y-47689482D01*
X47620190Y-47671754D01*
X47632810Y-47667046D01*
X47642989Y-47658227D01*
X47664906Y-47655075D01*
X47685654Y-47647337D01*
X47698814Y-47650199D01*
X47712147Y-47648283D01*
X47732290Y-47657482D01*
X47753927Y-47662189D01*
X47771652Y-47675457D01*
X47775703Y-47677308D01*
X47782181Y-47683340D01*
X47873181Y-47774340D01*
X47906666Y-47835663D01*
X47909500Y-47862021D01*
X47909500Y-49156611D01*
X47936598Y-49327701D01*
X47990127Y-49492445D01*
X48068768Y-49646788D01*
X48170586Y-49786928D01*
X48293072Y-49909414D01*
X48433212Y-50011232D01*
X48587555Y-50089873D01*
X48752299Y-50143402D01*
X48923389Y-50170500D01*
X48923390Y-50170500D01*
X49096610Y-50170500D01*
X49096611Y-50170500D01*
X49267701Y-50143402D01*
X49432445Y-50089873D01*
X49586788Y-50011232D01*
X49726928Y-49909414D01*
X49849414Y-49786928D01*
X49951232Y-49646788D01*
X50029873Y-49492445D01*
X50083402Y-49327701D01*
X50110500Y-49156611D01*
X50110500Y-47771021D01*
X50116738Y-47749775D01*
X50118318Y-47727687D01*
X50126390Y-47716903D01*
X50130185Y-47703982D01*
X50146918Y-47689482D01*
X50160190Y-47671754D01*
X50172810Y-47667046D01*
X50182989Y-47658227D01*
X50204906Y-47655075D01*
X50225654Y-47647337D01*
X50238814Y-47650199D01*
X50252147Y-47648283D01*
X50272290Y-47657482D01*
X50293927Y-47662189D01*
X50311652Y-47675457D01*
X50315703Y-47677308D01*
X50322181Y-47683340D01*
X50413181Y-47774340D01*
X50446666Y-47835663D01*
X50449500Y-47862021D01*
X50449500Y-49156611D01*
X50476598Y-49327701D01*
X50530127Y-49492445D01*
X50608768Y-49646788D01*
X50710586Y-49786928D01*
X50833072Y-49909414D01*
X50973212Y-50011232D01*
X51127555Y-50089873D01*
X51292299Y-50143402D01*
X51463389Y-50170500D01*
X51463390Y-50170500D01*
X51636610Y-50170500D01*
X51636611Y-50170500D01*
X51807701Y-50143402D01*
X51972445Y-50089873D01*
X52126788Y-50011232D01*
X52266928Y-49909414D01*
X52389414Y-49786928D01*
X52491232Y-49646788D01*
X52569873Y-49492445D01*
X52623402Y-49327701D01*
X52650500Y-49156611D01*
X52650500Y-47771021D01*
X52656738Y-47749775D01*
X52658318Y-47727687D01*
X52666390Y-47716903D01*
X52670185Y-47703982D01*
X52686918Y-47689482D01*
X52700190Y-47671754D01*
X52712810Y-47667046D01*
X52722989Y-47658227D01*
X52744906Y-47655075D01*
X52765654Y-47647337D01*
X52778814Y-47650199D01*
X52792147Y-47648283D01*
X52812290Y-47657482D01*
X52833927Y-47662189D01*
X52851652Y-47675457D01*
X52855703Y-47677308D01*
X52862181Y-47683340D01*
X52953181Y-47774340D01*
X52986666Y-47835663D01*
X52989500Y-47862021D01*
X52989500Y-49156611D01*
X53016598Y-49327701D01*
X53070127Y-49492445D01*
X53148768Y-49646788D01*
X53250586Y-49786928D01*
X53373072Y-49909414D01*
X53513212Y-50011232D01*
X53667555Y-50089873D01*
X53832299Y-50143402D01*
X54003389Y-50170500D01*
X54003390Y-50170500D01*
X54176610Y-50170500D01*
X54176611Y-50170500D01*
X54347701Y-50143402D01*
X54512445Y-50089873D01*
X54666788Y-50011232D01*
X54806928Y-49909414D01*
X54916306Y-49800036D01*
X55553513Y-49800036D01*
X55638417Y-49916895D01*
X55783104Y-50061582D01*
X55948650Y-50181859D01*
X56130968Y-50274755D01*
X56325582Y-50337990D01*
X56527683Y-50370000D01*
X56732317Y-50370000D01*
X56934417Y-50337990D01*
X57129031Y-50274755D01*
X57311349Y-50181859D01*
X57476894Y-50061582D01*
X57476895Y-50061582D01*
X57621584Y-49916893D01*
X57706484Y-49800037D01*
X57706484Y-49800036D01*
X56630000Y-48723552D01*
X55553513Y-49800036D01*
X54916306Y-49800036D01*
X54929414Y-49786928D01*
X55031232Y-49646788D01*
X55109873Y-49492445D01*
X55151974Y-49362870D01*
X55191410Y-49305198D01*
X55255769Y-49277999D01*
X55308222Y-49283260D01*
X55349707Y-49296739D01*
X56276448Y-48370000D01*
X56276448Y-48369999D01*
X55349707Y-47443258D01*
X55308221Y-47456738D01*
X55238380Y-47458733D01*
X55178547Y-47422653D01*
X55151974Y-47377129D01*
X55109873Y-47247555D01*
X55031232Y-47093212D01*
X54929414Y-46953072D01*
X54806928Y-46830586D01*
X54765265Y-46800316D01*
X54722602Y-46744988D01*
X54716623Y-46675374D01*
X54749229Y-46613579D01*
X54765262Y-46599685D01*
X54806928Y-46569414D01*
X54929414Y-46446928D01*
X55031232Y-46306788D01*
X55109873Y-46152445D01*
X55137186Y-46068384D01*
X55176622Y-46010711D01*
X55240981Y-45983512D01*
X55309827Y-45995427D01*
X55361303Y-46042671D01*
X55373047Y-46068385D01*
X55425244Y-46229031D01*
X55518140Y-46411349D01*
X55638417Y-46576894D01*
X55638417Y-46576895D01*
X55673841Y-46612319D01*
X55707326Y-46673642D01*
X55702342Y-46743334D01*
X55673841Y-46787681D01*
X55638417Y-46823104D01*
X55638416Y-46823105D01*
X55553513Y-46939962D01*
X55553514Y-46939963D01*
X56253222Y-47639671D01*
X56229901Y-47662993D01*
X56164075Y-47777007D01*
X56130000Y-47904174D01*
X56130000Y-48035826D01*
X56164075Y-48162993D01*
X56229901Y-48277007D01*
X56322993Y-48370099D01*
X56437007Y-48435925D01*
X56564174Y-48470000D01*
X56695826Y-48470000D01*
X56822993Y-48435925D01*
X56937007Y-48370099D01*
X56937107Y-48369999D01*
X56983552Y-48369999D01*
X56983552Y-48370000D01*
X57910292Y-49296740D01*
X57910292Y-49296739D01*
X57930000Y-49172311D01*
X57930000Y-47567688D01*
X57910292Y-47443259D01*
X56983552Y-48369999D01*
X56937107Y-48369999D01*
X57030099Y-48277007D01*
X57095925Y-48162993D01*
X57130000Y-48035826D01*
X57130000Y-47904174D01*
X57095925Y-47777007D01*
X57030099Y-47662993D01*
X57006777Y-47639671D01*
X57706484Y-46939963D01*
X57706485Y-46939961D01*
X57621587Y-46823110D01*
X57621582Y-46823104D01*
X57586159Y-46787681D01*
X57552674Y-46726358D01*
X57557658Y-46656666D01*
X57586159Y-46612319D01*
X57621582Y-46576895D01*
X57621582Y-46576894D01*
X57741859Y-46411349D01*
X57834755Y-46229031D01*
X57897990Y-46034417D01*
X57930000Y-45832317D01*
X57930000Y-45280000D01*
X57107445Y-45280000D01*
X57095925Y-45237007D01*
X57030099Y-45122993D01*
X56937007Y-45029901D01*
X56822993Y-44964075D01*
X56695826Y-44930000D01*
X56564174Y-44930000D01*
X56437007Y-44964075D01*
X56410269Y-44979511D01*
X56391206Y-44957511D01*
X56380000Y-44906000D01*
X56380000Y-44780000D01*
X56880000Y-44780000D01*
X57930000Y-44780000D01*
X57930000Y-44227682D01*
X57897990Y-44025582D01*
X57834755Y-43830968D01*
X57741859Y-43648650D01*
X57621582Y-43483105D01*
X57621582Y-43483104D01*
X57476895Y-43338417D01*
X57311349Y-43218140D01*
X57129029Y-43125244D01*
X56934413Y-43062009D01*
X56880000Y-43053390D01*
X56880000Y-44780000D01*
X56380000Y-44780000D01*
X56380000Y-43053390D01*
X56325586Y-43062009D01*
X56130970Y-43125244D01*
X55948650Y-43218140D01*
X55783105Y-43338417D01*
X55783104Y-43338417D01*
X55638417Y-43483104D01*
X55638417Y-43483105D01*
X55518140Y-43648650D01*
X55425244Y-43830968D01*
X55373047Y-43991614D01*
X55333609Y-44049289D01*
X55269250Y-44076487D01*
X55200404Y-44064572D01*
X55148928Y-44017328D01*
X55137186Y-43991615D01*
X55109873Y-43907555D01*
X55031232Y-43753212D01*
X54929414Y-43613072D01*
X54826818Y-43510476D01*
X54793334Y-43449153D01*
X54790500Y-43422795D01*
X54790500Y-8777204D01*
X54810185Y-8710165D01*
X54826819Y-8689523D01*
X54929414Y-8586928D01*
X55031232Y-8446788D01*
X55109873Y-8292445D01*
X55137186Y-8208384D01*
X55176622Y-8150711D01*
X55240981Y-8123512D01*
X55309827Y-8135427D01*
X55361303Y-8182671D01*
X55373047Y-8208385D01*
X55425244Y-8369031D01*
X55518140Y-8551349D01*
X55638417Y-8716894D01*
X55638417Y-8716895D01*
X55783104Y-8861582D01*
X55948650Y-8981859D01*
X56130968Y-9074754D01*
X56325578Y-9137988D01*
X56380000Y-9146607D01*
X56380000Y-9146606D01*
X56880000Y-9146606D01*
X56934421Y-9137988D01*
X57129031Y-9074754D01*
X57311349Y-8981859D01*
X57476894Y-8861582D01*
X57476895Y-8861582D01*
X57621582Y-8716895D01*
X57621582Y-8716894D01*
X57741859Y-8551349D01*
X57834755Y-8369031D01*
X57897990Y-8174417D01*
X57930000Y-7972317D01*
X57930000Y-7420000D01*
X56880000Y-7420000D01*
X56880000Y-9146606D01*
X56380000Y-9146606D01*
X56380000Y-7294000D01*
X56399685Y-7226961D01*
X56408400Y-7219409D01*
X56437007Y-7235925D01*
X56564174Y-7270000D01*
X56695826Y-7270000D01*
X56822993Y-7235925D01*
X56937007Y-7170099D01*
X57030099Y-7077007D01*
X57095925Y-6962993D01*
X57107445Y-6920000D01*
X57930000Y-6920000D01*
X57930000Y-6367682D01*
X57897990Y-6165582D01*
X57834755Y-5970968D01*
X57741859Y-5788650D01*
X57621582Y-5623105D01*
X57621582Y-5623104D01*
X57586159Y-5587681D01*
X57552674Y-5526358D01*
X57557658Y-5456666D01*
X57586159Y-5412319D01*
X57621584Y-5376893D01*
X57706484Y-5260037D01*
X57706484Y-5260036D01*
X57006777Y-4560329D01*
X57030099Y-4537007D01*
X57095925Y-4422993D01*
X57130000Y-4295826D01*
X57130000Y-4164174D01*
X57095925Y-4037007D01*
X57030099Y-3922993D01*
X56937105Y-3829999D01*
X56983552Y-3829999D01*
X56983552Y-3830000D01*
X57910291Y-4756740D01*
X57910292Y-4756739D01*
X57930000Y-4632311D01*
X57930000Y-3385921D01*
X59759500Y-3385921D01*
X59759500Y-3614078D01*
X59789278Y-3840272D01*
X59789279Y-3840277D01*
X59789280Y-3840283D01*
X59789281Y-3840285D01*
X59848331Y-4060666D01*
X59935638Y-4271446D01*
X59935646Y-4271462D01*
X60049717Y-4469037D01*
X60049728Y-4469053D01*
X60188613Y-4650052D01*
X60188619Y-4650059D01*
X60349940Y-4811380D01*
X60349946Y-4811385D01*
X60530955Y-4950278D01*
X60530962Y-4950282D01*
X60728537Y-5064353D01*
X60728553Y-5064361D01*
X60830975Y-5106785D01*
X60939334Y-5151669D01*
X61159717Y-5210720D01*
X61319474Y-5231752D01*
X61385921Y-5240500D01*
X61385922Y-5240500D01*
X61614079Y-5240500D01*
X61665438Y-5233738D01*
X61840283Y-5210720D01*
X62060666Y-5151669D01*
X62226365Y-5083033D01*
X62271446Y-5064361D01*
X62271449Y-5064359D01*
X62271455Y-5064357D01*
X62469045Y-4950278D01*
X62650054Y-4811385D01*
X62811385Y-4650054D01*
X62950278Y-4469045D01*
X63064357Y-4271455D01*
X63151669Y-4060666D01*
X63210720Y-3840283D01*
X63240500Y-3614078D01*
X63240500Y-3385922D01*
X63210720Y-3159717D01*
X63151669Y-2939334D01*
X63111463Y-2842268D01*
X63064361Y-2728553D01*
X63064353Y-2728537D01*
X62950282Y-2530962D01*
X62950278Y-2530955D01*
X62859821Y-2413069D01*
X62811386Y-2349947D01*
X62811380Y-2349940D01*
X62650059Y-2188619D01*
X62650052Y-2188613D01*
X62469053Y-2049728D01*
X62469051Y-2049726D01*
X62469045Y-2049722D01*
X62469040Y-2049719D01*
X62469037Y-2049717D01*
X62271462Y-1935646D01*
X62271446Y-1935638D01*
X62060666Y-1848331D01*
X61992253Y-1830000D01*
X61840283Y-1789280D01*
X61840277Y-1789279D01*
X61840272Y-1789278D01*
X61614079Y-1759500D01*
X61614078Y-1759500D01*
X61385922Y-1759500D01*
X61385921Y-1759500D01*
X61159727Y-1789278D01*
X61159720Y-1789279D01*
X61159717Y-1789280D01*
X61066567Y-1814239D01*
X60939333Y-1848331D01*
X60728553Y-1935638D01*
X60728537Y-1935646D01*
X60530962Y-2049717D01*
X60530946Y-2049728D01*
X60349947Y-2188613D01*
X60349940Y-2188619D01*
X60188619Y-2349940D01*
X60188613Y-2349947D01*
X60049728Y-2530946D01*
X60049717Y-2530962D01*
X59935646Y-2728537D01*
X59935638Y-2728553D01*
X59848331Y-2939333D01*
X59789281Y-3159714D01*
X59789278Y-3159727D01*
X59759500Y-3385921D01*
X57930000Y-3385921D01*
X57930000Y-3027688D01*
X57910292Y-2903259D01*
X56983552Y-3829999D01*
X56937105Y-3829999D01*
X56937007Y-3829901D01*
X56822993Y-3764075D01*
X56695826Y-3730000D01*
X56564174Y-3730000D01*
X56437007Y-3764075D01*
X56322993Y-3829901D01*
X56229901Y-3922993D01*
X56164075Y-4037007D01*
X56130000Y-4164174D01*
X56130000Y-4295826D01*
X56164075Y-4422993D01*
X56229901Y-4537007D01*
X56253222Y-4560328D01*
X55553513Y-5260036D01*
X55638417Y-5376895D01*
X55673841Y-5412319D01*
X55707326Y-5473642D01*
X55702342Y-5543334D01*
X55673841Y-5587681D01*
X55638417Y-5623104D01*
X55638417Y-5623105D01*
X55518140Y-5788650D01*
X55425244Y-5970968D01*
X55373047Y-6131614D01*
X55333609Y-6189289D01*
X55269250Y-6216487D01*
X55200404Y-6204572D01*
X55148928Y-6157328D01*
X55137186Y-6131615D01*
X55109873Y-6047555D01*
X55031232Y-5893212D01*
X54929414Y-5753072D01*
X54806928Y-5630586D01*
X54765265Y-5600316D01*
X54722602Y-5544988D01*
X54716623Y-5475374D01*
X54749229Y-5413579D01*
X54765262Y-5399685D01*
X54806928Y-5369414D01*
X54929414Y-5246928D01*
X55031232Y-5106788D01*
X55109873Y-4952445D01*
X55151974Y-4822870D01*
X55191410Y-4765198D01*
X55255769Y-4737999D01*
X55308222Y-4743260D01*
X55349707Y-4756739D01*
X56276448Y-3830000D01*
X56276448Y-3829999D01*
X55349707Y-2903258D01*
X55308221Y-2916738D01*
X55238380Y-2918733D01*
X55178547Y-2882653D01*
X55151974Y-2837129D01*
X55109873Y-2707555D01*
X55031232Y-2553212D01*
X54929414Y-2413072D01*
X54916304Y-2399962D01*
X55553513Y-2399962D01*
X55553514Y-2399963D01*
X56630000Y-3476448D01*
X56630001Y-3476448D01*
X57706484Y-2399963D01*
X57706485Y-2399961D01*
X57621587Y-2283110D01*
X57621582Y-2283104D01*
X57476895Y-2138417D01*
X57311349Y-2018140D01*
X57129031Y-1925244D01*
X56934417Y-1862009D01*
X56732317Y-1830000D01*
X56527683Y-1830000D01*
X56325582Y-1862009D01*
X56130968Y-1925244D01*
X55948650Y-2018140D01*
X55783105Y-2138417D01*
X55783104Y-2138417D01*
X55638416Y-2283105D01*
X55553513Y-2399962D01*
X54916304Y-2399962D01*
X54806928Y-2290586D01*
X54666788Y-2188768D01*
X54512445Y-2110127D01*
X54347701Y-2056598D01*
X54347699Y-2056597D01*
X54347698Y-2056597D01*
X54216271Y-2035781D01*
X54176611Y-2029500D01*
X54003389Y-2029500D01*
X53963728Y-2035781D01*
X53832302Y-2056597D01*
X53667552Y-2110128D01*
X53513211Y-2188768D01*
X53433256Y-2246859D01*
X53373072Y-2290586D01*
X53373070Y-2290588D01*
X53373069Y-2290588D01*
X53250588Y-2413069D01*
X53250588Y-2413070D01*
X53250586Y-2413072D01*
X53206859Y-2473256D01*
X53148768Y-2553211D01*
X53070128Y-2707552D01*
X53016597Y-2872302D01*
X52989500Y-3043389D01*
X52989500Y-4337977D01*
X52980855Y-4367417D01*
X52974332Y-4397404D01*
X52970577Y-4402419D01*
X52969815Y-4405016D01*
X52953181Y-4425658D01*
X52862181Y-4516658D01*
X52800858Y-4550143D01*
X52731166Y-4545159D01*
X52675233Y-4503287D01*
X52650816Y-4437823D01*
X52650500Y-4428977D01*
X52650500Y-3043389D01*
X52630440Y-2916738D01*
X52623402Y-2872299D01*
X52569873Y-2707555D01*
X52491232Y-2553212D01*
X52389414Y-2413072D01*
X52266928Y-2290586D01*
X52126788Y-2188768D01*
X51972445Y-2110127D01*
X51807701Y-2056598D01*
X51807699Y-2056597D01*
X51807698Y-2056597D01*
X51676271Y-2035781D01*
X51636611Y-2029500D01*
X51463389Y-2029500D01*
X51423728Y-2035781D01*
X51292302Y-2056597D01*
X51127552Y-2110128D01*
X50973211Y-2188768D01*
X50893256Y-2246859D01*
X50833072Y-2290586D01*
X50833070Y-2290588D01*
X50833069Y-2290588D01*
X50710588Y-2413069D01*
X50710588Y-2413070D01*
X50710586Y-2413072D01*
X50666859Y-2473256D01*
X50608768Y-2553211D01*
X50530128Y-2707552D01*
X50476597Y-2872302D01*
X50449500Y-3043389D01*
X50449500Y-4337977D01*
X50440855Y-4367417D01*
X50434332Y-4397404D01*
X50430577Y-4402419D01*
X50429815Y-4405016D01*
X50413181Y-4425658D01*
X50322181Y-4516658D01*
X50260858Y-4550143D01*
X50191166Y-4545159D01*
X50135233Y-4503287D01*
X50110816Y-4437823D01*
X50110500Y-4428977D01*
X50110500Y-3043389D01*
X50090440Y-2916738D01*
X50083402Y-2872299D01*
X50029873Y-2707555D01*
X49951232Y-2553212D01*
X49849414Y-2413072D01*
X49726928Y-2290586D01*
X49586788Y-2188768D01*
X49432445Y-2110127D01*
X49267701Y-2056598D01*
X49267699Y-2056597D01*
X49267698Y-2056597D01*
X49136271Y-2035781D01*
X49096611Y-2029500D01*
X48923389Y-2029500D01*
X48883728Y-2035781D01*
X48752302Y-2056597D01*
X48587552Y-2110128D01*
X48433211Y-2188768D01*
X48353256Y-2246859D01*
X48293072Y-2290586D01*
X48293070Y-2290588D01*
X48293069Y-2290588D01*
X48170588Y-2413069D01*
X48170588Y-2413070D01*
X48170586Y-2413072D01*
X48126859Y-2473256D01*
X48068768Y-2553211D01*
X47990128Y-2707552D01*
X47936597Y-2872302D01*
X47909500Y-3043389D01*
X47909500Y-4337977D01*
X47900855Y-4367417D01*
X47894332Y-4397404D01*
X47890577Y-4402419D01*
X47889815Y-4405016D01*
X47873181Y-4425658D01*
X47782181Y-4516658D01*
X47720858Y-4550143D01*
X47651166Y-4545159D01*
X47595233Y-4503287D01*
X47570816Y-4437823D01*
X47570500Y-4428977D01*
X47570500Y-3043389D01*
X47550440Y-2916738D01*
X47543402Y-2872299D01*
X47489873Y-2707555D01*
X47411232Y-2553212D01*
X47309414Y-2413072D01*
X47186928Y-2290586D01*
X47046788Y-2188768D01*
X46892445Y-2110127D01*
X46727701Y-2056598D01*
X46727699Y-2056597D01*
X46727698Y-2056597D01*
X46596271Y-2035781D01*
X46556611Y-2029500D01*
X46383389Y-2029500D01*
X46343728Y-2035781D01*
X46212302Y-2056597D01*
X46047552Y-2110128D01*
X45893211Y-2188768D01*
X45813256Y-2246859D01*
X45753072Y-2290586D01*
X45753070Y-2290588D01*
X45753069Y-2290588D01*
X45630588Y-2413069D01*
X45630588Y-2413070D01*
X45630586Y-2413072D01*
X45586859Y-2473256D01*
X45528768Y-2553211D01*
X45450128Y-2707552D01*
X45396597Y-2872302D01*
X45369500Y-3043389D01*
X45369500Y-4337977D01*
X45360855Y-4367417D01*
X45354332Y-4397404D01*
X45350577Y-4402419D01*
X45349815Y-4405016D01*
X45333181Y-4425658D01*
X45242181Y-4516658D01*
X45180858Y-4550143D01*
X45111166Y-4545159D01*
X45055233Y-4503287D01*
X45030816Y-4437823D01*
X45030500Y-4428977D01*
X45030500Y-3043389D01*
X45010440Y-2916738D01*
X45003402Y-2872299D01*
X44949873Y-2707555D01*
X44871232Y-2553212D01*
X44769414Y-2413072D01*
X44646928Y-2290586D01*
X44506788Y-2188768D01*
X44352445Y-2110127D01*
X44187701Y-2056598D01*
X44187699Y-2056597D01*
X44187698Y-2056597D01*
X44056271Y-2035781D01*
X44016611Y-2029500D01*
X43843389Y-2029500D01*
X43803728Y-2035781D01*
X43672302Y-2056597D01*
X43507552Y-2110128D01*
X43353211Y-2188768D01*
X43273256Y-2246859D01*
X43213072Y-2290586D01*
X43213070Y-2290588D01*
X43213069Y-2290588D01*
X43090588Y-2413069D01*
X43090588Y-2413070D01*
X43090586Y-2413072D01*
X43046859Y-2473256D01*
X42988768Y-2553211D01*
X42910128Y-2707552D01*
X42856597Y-2872302D01*
X42829500Y-3043389D01*
X42829500Y-4337977D01*
X42820855Y-4367417D01*
X42814332Y-4397404D01*
X42810577Y-4402419D01*
X42809815Y-4405016D01*
X42793181Y-4425658D01*
X42702181Y-4516658D01*
X42640858Y-4550143D01*
X42571166Y-4545159D01*
X42515233Y-4503287D01*
X42490816Y-4437823D01*
X42490500Y-4428977D01*
X42490500Y-3043389D01*
X42470440Y-2916738D01*
X42463402Y-2872299D01*
X42409873Y-2707555D01*
X42331232Y-2553212D01*
X42229414Y-2413072D01*
X42106928Y-2290586D01*
X41966788Y-2188768D01*
X41812445Y-2110127D01*
X41647701Y-2056598D01*
X41647699Y-2056597D01*
X41647698Y-2056597D01*
X41516271Y-2035781D01*
X41476611Y-2029500D01*
X41303389Y-2029500D01*
X41263728Y-2035781D01*
X41132302Y-2056597D01*
X40967552Y-2110128D01*
X40813211Y-2188768D01*
X40733256Y-2246859D01*
X40673072Y-2290586D01*
X40673070Y-2290588D01*
X40673069Y-2290588D01*
X40550588Y-2413069D01*
X40550588Y-2413070D01*
X40550586Y-2413072D01*
X40506859Y-2473256D01*
X40448768Y-2553211D01*
X40370128Y-2707552D01*
X40316597Y-2872302D01*
X40289500Y-3043389D01*
X40289500Y-4337977D01*
X40280855Y-4367417D01*
X40274332Y-4397404D01*
X40270577Y-4402419D01*
X40269815Y-4405016D01*
X40253181Y-4425658D01*
X40162181Y-4516658D01*
X40100858Y-4550143D01*
X40031166Y-4545159D01*
X39975233Y-4503287D01*
X39950816Y-4437823D01*
X39950500Y-4428977D01*
X39950500Y-3043389D01*
X39930440Y-2916738D01*
X39923402Y-2872299D01*
X39869873Y-2707555D01*
X39791232Y-2553212D01*
X39689414Y-2413072D01*
X39566928Y-2290586D01*
X39426788Y-2188768D01*
X39272445Y-2110127D01*
X39107701Y-2056598D01*
X39107699Y-2056597D01*
X39107698Y-2056597D01*
X38976271Y-2035781D01*
X38936611Y-2029500D01*
X38763389Y-2029500D01*
X38723728Y-2035781D01*
X38592302Y-2056597D01*
X38427552Y-2110128D01*
X38273211Y-2188768D01*
X38193256Y-2246859D01*
X38133072Y-2290586D01*
X38133070Y-2290588D01*
X38133069Y-2290588D01*
X38010588Y-2413069D01*
X38010588Y-2413070D01*
X38010586Y-2413072D01*
X37966859Y-2473256D01*
X37908768Y-2553211D01*
X37830128Y-2707552D01*
X37776597Y-2872302D01*
X37749500Y-3043389D01*
X37749500Y-4337977D01*
X37740855Y-4367417D01*
X37734332Y-4397404D01*
X37730577Y-4402419D01*
X37729815Y-4405016D01*
X37713181Y-4425658D01*
X37622181Y-4516658D01*
X37560858Y-4550143D01*
X37491166Y-4545159D01*
X37435233Y-4503287D01*
X37410816Y-4437823D01*
X37410500Y-4428977D01*
X37410500Y-3043389D01*
X37390440Y-2916738D01*
X37383402Y-2872299D01*
X37329873Y-2707555D01*
X37251232Y-2553212D01*
X37149414Y-2413072D01*
X37026928Y-2290586D01*
X36886788Y-2188768D01*
X36732445Y-2110127D01*
X36567701Y-2056598D01*
X36567699Y-2056597D01*
X36567698Y-2056597D01*
X36436271Y-2035781D01*
X36396611Y-2029500D01*
X36223389Y-2029500D01*
X36183728Y-2035781D01*
X36052302Y-2056597D01*
X35887552Y-2110128D01*
X35733211Y-2188768D01*
X35653256Y-2246859D01*
X35593072Y-2290586D01*
X35593070Y-2290588D01*
X35593069Y-2290588D01*
X35470588Y-2413069D01*
X35470588Y-2413070D01*
X35470586Y-2413072D01*
X35426859Y-2473256D01*
X35368768Y-2553211D01*
X35290128Y-2707552D01*
X35236597Y-2872302D01*
X35209500Y-3043389D01*
X35209500Y-4337977D01*
X35200855Y-4367417D01*
X35194332Y-4397404D01*
X35190577Y-4402419D01*
X35189815Y-4405016D01*
X35173181Y-4425658D01*
X35082181Y-4516658D01*
X35020858Y-4550143D01*
X34951166Y-4545159D01*
X34895233Y-4503287D01*
X34870816Y-4437823D01*
X34870500Y-4428977D01*
X34870500Y-3043389D01*
X34850440Y-2916738D01*
X34843402Y-2872299D01*
X34789873Y-2707555D01*
X34711232Y-2553212D01*
X34609414Y-2413072D01*
X34486928Y-2290586D01*
X34346788Y-2188768D01*
X34192445Y-2110127D01*
X34027701Y-2056598D01*
X34027699Y-2056597D01*
X34027698Y-2056597D01*
X33896271Y-2035781D01*
X33856611Y-2029500D01*
X33683389Y-2029500D01*
X33643728Y-2035781D01*
X33512302Y-2056597D01*
X33347552Y-2110128D01*
X33193211Y-2188768D01*
X33113256Y-2246859D01*
X33053072Y-2290586D01*
X33053070Y-2290588D01*
X33053069Y-2290588D01*
X32930588Y-2413069D01*
X32930588Y-2413070D01*
X32930586Y-2413072D01*
X32886859Y-2473256D01*
X32828768Y-2553211D01*
X32750128Y-2707552D01*
X32696597Y-2872302D01*
X32669500Y-3043389D01*
X32669500Y-4337977D01*
X32660855Y-4367417D01*
X32654332Y-4397404D01*
X32650577Y-4402419D01*
X32649815Y-4405016D01*
X32633181Y-4425658D01*
X32542181Y-4516658D01*
X32480858Y-4550143D01*
X32411166Y-4545159D01*
X32355233Y-4503287D01*
X32330816Y-4437823D01*
X32330500Y-4428977D01*
X32330500Y-3043389D01*
X32310440Y-2916738D01*
X32303402Y-2872299D01*
X32249873Y-2707555D01*
X32171232Y-2553212D01*
X32069414Y-2413072D01*
X31946928Y-2290586D01*
X31806788Y-2188768D01*
X31652445Y-2110127D01*
X31487701Y-2056598D01*
X31487699Y-2056597D01*
X31487698Y-2056597D01*
X31356271Y-2035781D01*
X31316611Y-2029500D01*
X31143389Y-2029500D01*
X31103728Y-2035781D01*
X30972302Y-2056597D01*
X30807552Y-2110128D01*
X30653211Y-2188768D01*
X30573256Y-2246859D01*
X30513072Y-2290586D01*
X30513070Y-2290588D01*
X30513069Y-2290588D01*
X30390588Y-2413069D01*
X30390588Y-2413070D01*
X30390586Y-2413072D01*
X30346859Y-2473256D01*
X30288768Y-2553211D01*
X30210128Y-2707552D01*
X30156597Y-2872302D01*
X30129500Y-3043389D01*
X30129500Y-4337977D01*
X30120855Y-4367417D01*
X30114332Y-4397404D01*
X30110577Y-4402419D01*
X30109815Y-4405016D01*
X30093181Y-4425658D01*
X30002181Y-4516658D01*
X29940858Y-4550143D01*
X29871166Y-4545159D01*
X29815233Y-4503287D01*
X29790816Y-4437823D01*
X29790500Y-4428977D01*
X29790500Y-3043389D01*
X29770440Y-2916738D01*
X29763402Y-2872299D01*
X29709873Y-2707555D01*
X29631232Y-2553212D01*
X29529414Y-2413072D01*
X29406928Y-2290586D01*
X29266788Y-2188768D01*
X29112445Y-2110127D01*
X28947701Y-2056598D01*
X28947699Y-2056597D01*
X28947698Y-2056597D01*
X28816271Y-2035781D01*
X28776611Y-2029500D01*
X28603389Y-2029500D01*
X28563728Y-2035781D01*
X28432302Y-2056597D01*
X28267552Y-2110128D01*
X28113211Y-2188768D01*
X28033256Y-2246859D01*
X27973072Y-2290586D01*
X27973070Y-2290588D01*
X27973069Y-2290588D01*
X27850588Y-2413069D01*
X27850588Y-2413070D01*
X27850586Y-2413072D01*
X27806859Y-2473256D01*
X27748768Y-2553211D01*
X27670128Y-2707552D01*
X27616597Y-2872302D01*
X27589500Y-3043389D01*
X27589500Y-4337977D01*
X27580855Y-4367417D01*
X27574332Y-4397404D01*
X27570577Y-4402419D01*
X27569815Y-4405016D01*
X27553181Y-4425658D01*
X27462181Y-4516658D01*
X27400858Y-4550143D01*
X27331166Y-4545159D01*
X27275233Y-4503287D01*
X27250816Y-4437823D01*
X27250500Y-4428977D01*
X27250500Y-3043389D01*
X27230440Y-2916738D01*
X27223402Y-2872299D01*
X27169873Y-2707555D01*
X27091232Y-2553212D01*
X26989414Y-2413072D01*
X26866928Y-2290586D01*
X26726788Y-2188768D01*
X26572445Y-2110127D01*
X26407701Y-2056598D01*
X26407699Y-2056597D01*
X26407698Y-2056597D01*
X26276271Y-2035781D01*
X26236611Y-2029500D01*
X26063389Y-2029500D01*
X26023728Y-2035781D01*
X25892302Y-2056597D01*
X25727552Y-2110128D01*
X25573211Y-2188768D01*
X25493256Y-2246859D01*
X25433072Y-2290586D01*
X25433070Y-2290588D01*
X25433069Y-2290588D01*
X25310588Y-2413069D01*
X25310588Y-2413070D01*
X25310586Y-2413072D01*
X25266859Y-2473256D01*
X25208768Y-2553211D01*
X25130128Y-2707552D01*
X25076597Y-2872302D01*
X25049500Y-3043389D01*
X25049500Y-4337977D01*
X25040855Y-4367417D01*
X25034332Y-4397404D01*
X25030577Y-4402419D01*
X25029815Y-4405016D01*
X25013181Y-4425658D01*
X24922181Y-4516658D01*
X24860858Y-4550143D01*
X24791166Y-4545159D01*
X24735233Y-4503287D01*
X24710816Y-4437823D01*
X24710500Y-4428977D01*
X24710500Y-3043389D01*
X24690440Y-2916738D01*
X24683402Y-2872299D01*
X24629873Y-2707555D01*
X24551232Y-2553212D01*
X24449414Y-2413072D01*
X24326928Y-2290586D01*
X24186788Y-2188768D01*
X24032445Y-2110127D01*
X23867701Y-2056598D01*
X23867699Y-2056597D01*
X23867698Y-2056597D01*
X23736271Y-2035781D01*
X23696611Y-2029500D01*
X23523389Y-2029500D01*
X23483728Y-2035781D01*
X23352302Y-2056597D01*
X23187552Y-2110128D01*
X23033211Y-2188768D01*
X22953256Y-2246859D01*
X22893072Y-2290586D01*
X22893070Y-2290588D01*
X22893069Y-2290588D01*
X22770588Y-2413069D01*
X22770588Y-2413070D01*
X22770586Y-2413072D01*
X22726859Y-2473256D01*
X22668768Y-2553211D01*
X22590128Y-2707552D01*
X22536597Y-2872302D01*
X22509500Y-3043389D01*
X22509500Y-4337977D01*
X22500855Y-4367417D01*
X22494332Y-4397404D01*
X22490577Y-4402419D01*
X22489815Y-4405016D01*
X22473181Y-4425658D01*
X22382181Y-4516658D01*
X22320858Y-4550143D01*
X22251166Y-4545159D01*
X22195233Y-4503287D01*
X22170816Y-4437823D01*
X22170500Y-4428977D01*
X22170500Y-3043389D01*
X22150440Y-2916738D01*
X22143402Y-2872299D01*
X22089873Y-2707555D01*
X22011232Y-2553212D01*
X21909414Y-2413072D01*
X21786928Y-2290586D01*
X21646788Y-2188768D01*
X21492445Y-2110127D01*
X21327701Y-2056598D01*
X21327699Y-2056597D01*
X21327698Y-2056597D01*
X21196271Y-2035781D01*
X21156611Y-2029500D01*
X20983389Y-2029500D01*
X20943728Y-2035781D01*
X20812302Y-2056597D01*
X20647552Y-2110128D01*
X20493211Y-2188768D01*
X20413256Y-2246859D01*
X20353072Y-2290586D01*
X20353070Y-2290588D01*
X20353069Y-2290588D01*
X20230588Y-2413069D01*
X20230588Y-2413070D01*
X20230586Y-2413072D01*
X20186859Y-2473256D01*
X20128768Y-2553211D01*
X20050128Y-2707552D01*
X19996597Y-2872302D01*
X19969500Y-3043389D01*
X19969500Y-4337977D01*
X19960855Y-4367417D01*
X19954332Y-4397404D01*
X19950577Y-4402419D01*
X19949815Y-4405016D01*
X19933181Y-4425658D01*
X19842181Y-4516658D01*
X19780858Y-4550143D01*
X19711166Y-4545159D01*
X19655233Y-4503287D01*
X19630816Y-4437823D01*
X19630500Y-4428977D01*
X19630500Y-3043389D01*
X19610440Y-2916738D01*
X19603402Y-2872299D01*
X19549873Y-2707555D01*
X19471232Y-2553212D01*
X19369414Y-2413072D01*
X19246928Y-2290586D01*
X19106788Y-2188768D01*
X18952445Y-2110127D01*
X18787701Y-2056598D01*
X18787699Y-2056597D01*
X18787698Y-2056597D01*
X18656271Y-2035781D01*
X18616611Y-2029500D01*
X18443389Y-2029500D01*
X18403728Y-2035781D01*
X18272302Y-2056597D01*
X18107552Y-2110128D01*
X17953211Y-2188768D01*
X17873256Y-2246859D01*
X17813072Y-2290586D01*
X17813070Y-2290588D01*
X17813069Y-2290588D01*
X17690588Y-2413069D01*
X17690588Y-2413070D01*
X17690586Y-2413072D01*
X17646859Y-2473256D01*
X17588768Y-2553211D01*
X17510128Y-2707552D01*
X17456597Y-2872302D01*
X17429500Y-3043389D01*
X17429500Y-4337977D01*
X17420855Y-4367417D01*
X17414332Y-4397404D01*
X17410577Y-4402419D01*
X17409815Y-4405016D01*
X17393181Y-4425658D01*
X17302181Y-4516658D01*
X17240858Y-4550143D01*
X17171166Y-4545159D01*
X17115233Y-4503287D01*
X17090816Y-4437823D01*
X17090500Y-4428977D01*
X17090500Y-3043389D01*
X17070440Y-2916738D01*
X17063402Y-2872299D01*
X17009873Y-2707555D01*
X16931232Y-2553212D01*
X16829414Y-2413072D01*
X16706928Y-2290586D01*
X16566788Y-2188768D01*
X16412445Y-2110127D01*
X16247701Y-2056598D01*
X16247699Y-2056597D01*
X16247698Y-2056597D01*
X16116271Y-2035781D01*
X16076611Y-2029500D01*
X15903389Y-2029500D01*
X15863728Y-2035781D01*
X15732302Y-2056597D01*
X15567552Y-2110128D01*
X15413211Y-2188768D01*
X15333256Y-2246859D01*
X15273072Y-2290586D01*
X15273070Y-2290588D01*
X15273069Y-2290588D01*
X15150588Y-2413069D01*
X15150588Y-2413070D01*
X15150586Y-2413072D01*
X15106859Y-2473256D01*
X15048768Y-2553211D01*
X14970128Y-2707552D01*
X14916597Y-2872302D01*
X14889500Y-3043389D01*
X14889500Y-4337977D01*
X14880855Y-4367417D01*
X14874332Y-4397404D01*
X14870577Y-4402419D01*
X14869815Y-4405016D01*
X14853181Y-4425658D01*
X14762181Y-4516658D01*
X14700858Y-4550143D01*
X14631166Y-4545159D01*
X14575233Y-4503287D01*
X14550816Y-4437823D01*
X14550500Y-4428977D01*
X14550500Y-3043389D01*
X14530440Y-2916738D01*
X14523402Y-2872299D01*
X14469873Y-2707555D01*
X14391232Y-2553212D01*
X14289414Y-2413072D01*
X14166928Y-2290586D01*
X14026788Y-2188768D01*
X13872445Y-2110127D01*
X13707701Y-2056598D01*
X13707699Y-2056597D01*
X13707698Y-2056597D01*
X13576271Y-2035781D01*
X13536611Y-2029500D01*
X13363389Y-2029500D01*
X13323728Y-2035781D01*
X13192302Y-2056597D01*
X13027552Y-2110128D01*
X12873211Y-2188768D01*
X12793256Y-2246859D01*
X12733072Y-2290586D01*
X12733070Y-2290588D01*
X12733069Y-2290588D01*
X12610588Y-2413069D01*
X12610588Y-2413070D01*
X12610586Y-2413072D01*
X12566859Y-2473256D01*
X12508768Y-2553211D01*
X12430128Y-2707552D01*
X12376597Y-2872302D01*
X12349500Y-3043389D01*
X12349500Y-4337977D01*
X12340855Y-4367417D01*
X12334332Y-4397404D01*
X12330577Y-4402419D01*
X12329815Y-4405016D01*
X12313181Y-4425658D01*
X12222181Y-4516658D01*
X12160858Y-4550143D01*
X12091166Y-4545159D01*
X12035233Y-4503287D01*
X12010816Y-4437823D01*
X12010500Y-4428977D01*
X12010500Y-3043389D01*
X11990440Y-2916738D01*
X11983402Y-2872299D01*
X11929873Y-2707555D01*
X11851232Y-2553212D01*
X11749414Y-2413072D01*
X11626928Y-2290586D01*
X11486788Y-2188768D01*
X11332445Y-2110127D01*
X11167701Y-2056598D01*
X11167699Y-2056597D01*
X11167698Y-2056597D01*
X11036271Y-2035781D01*
X10996611Y-2029500D01*
X10823389Y-2029500D01*
X10783728Y-2035781D01*
X10652302Y-2056597D01*
X10487552Y-2110128D01*
X10333211Y-2188768D01*
X10253256Y-2246859D01*
X10193072Y-2290586D01*
X10193070Y-2290588D01*
X10193069Y-2290588D01*
X10070588Y-2413069D01*
X10070588Y-2413070D01*
X10070586Y-2413072D01*
X10026859Y-2473256D01*
X9968768Y-2553211D01*
X9890128Y-2707552D01*
X9836597Y-2872302D01*
X9811987Y-3027688D01*
X9809500Y-3043389D01*
X9809500Y-4616611D01*
X9836598Y-4787701D01*
X9890127Y-4952445D01*
X9968768Y-5106788D01*
X9985818Y-5130255D01*
X10009298Y-5196058D01*
X10009500Y-5203140D01*
X10009500Y-5796859D01*
X9989815Y-5863898D01*
X9985818Y-5869745D01*
X9968770Y-5893207D01*
X9968769Y-5893210D01*
X9890128Y-6047552D01*
X9836597Y-6212302D01*
X9809500Y-6383389D01*
X9809500Y-7956610D01*
X9836973Y-8130070D01*
X9838500Y-8149468D01*
X9838500Y-9648168D01*
X9818815Y-9715207D01*
X9766011Y-9760962D01*
X9696853Y-9770906D01*
X9633297Y-9741881D01*
X9596569Y-9686487D01*
X9575220Y-9620781D01*
X9575218Y-9620778D01*
X9575218Y-9620776D01*
X9541503Y-9554607D01*
X9482287Y-9438390D01*
X9474556Y-9427749D01*
X9361971Y-9272786D01*
X9306819Y-9217634D01*
X9273334Y-9156311D01*
X9270500Y-9129953D01*
X9270500Y-8543140D01*
X9290185Y-8476101D01*
X9294164Y-8470279D01*
X9311232Y-8446788D01*
X9389873Y-8292445D01*
X9443402Y-8127701D01*
X9470500Y-7956611D01*
X9470500Y-6383389D01*
X9443402Y-6212299D01*
X9389873Y-6047555D01*
X9311232Y-5893212D01*
X9311229Y-5893208D01*
X9311229Y-5893207D01*
X9294182Y-5869745D01*
X9287029Y-5849698D01*
X9275523Y-5831794D01*
X9272068Y-5807769D01*
X9270702Y-5803939D01*
X9270500Y-5796859D01*
X9270500Y-5694912D01*
X9290185Y-5627873D01*
X9334071Y-5589845D01*
X9333286Y-5588699D01*
X9342760Y-5582207D01*
X9342765Y-5582206D01*
X9422206Y-5502765D01*
X9467585Y-5399991D01*
X9470500Y-5374865D01*
X9470499Y-2285136D01*
X9470264Y-2283110D01*
X9467586Y-2260012D01*
X9467585Y-2260010D01*
X9467585Y-2260009D01*
X9422206Y-2157235D01*
X9342765Y-2077794D01*
X9342763Y-2077793D01*
X9239992Y-2032415D01*
X9214865Y-2029500D01*
X7525143Y-2029500D01*
X7525117Y-2029502D01*
X7500012Y-2032413D01*
X7500008Y-2032415D01*
X7397235Y-2077793D01*
X7317794Y-2157234D01*
X7272415Y-2260006D01*
X7272415Y-2260008D01*
X7269500Y-2285131D01*
X7269500Y-5374856D01*
X7269502Y-5374882D01*
X7272413Y-5399987D01*
X7272415Y-5399991D01*
X7317793Y-5502764D01*
X7397234Y-5582205D01*
X7406714Y-5588699D01*
X7405768Y-5590078D01*
X7409790Y-5593475D01*
X7426703Y-5601199D01*
X7435928Y-5615553D01*
X7448963Y-5626564D01*
X7454425Y-5644336D01*
X7464477Y-5659977D01*
X7469086Y-5692038D01*
X7469490Y-5693350D01*
X7469500Y-5694912D01*
X7469500Y-5796859D01*
X7449815Y-5863898D01*
X7445818Y-5869745D01*
X7428770Y-5893207D01*
X7428769Y-5893210D01*
X7350128Y-6047552D01*
X7296597Y-6212302D01*
X7269500Y-6383389D01*
X7269500Y-7956610D01*
X7295934Y-8123512D01*
X7296598Y-8127701D01*
X7350127Y-8292445D01*
X7428768Y-8446788D01*
X7445818Y-8470255D01*
X7469298Y-8536058D01*
X7469500Y-8543140D01*
X7469500Y-9129953D01*
X7449815Y-9196992D01*
X7433181Y-9217634D01*
X7378032Y-9272782D01*
X7378028Y-9272786D01*
X7257715Y-9438386D01*
X7164781Y-9620776D01*
X7101522Y-9815465D01*
X7069500Y-10017648D01*
X400500Y-10017648D01*
X400500Y-3385921D01*
X1759500Y-3385921D01*
X1759500Y-3614078D01*
X1789278Y-3840272D01*
X1789279Y-3840277D01*
X1789280Y-3840283D01*
X1789281Y-3840285D01*
X1848331Y-4060666D01*
X1935638Y-4271446D01*
X1935646Y-4271462D01*
X2049717Y-4469037D01*
X2049728Y-4469053D01*
X2188613Y-4650052D01*
X2188619Y-4650059D01*
X2349940Y-4811380D01*
X2349946Y-4811385D01*
X2530955Y-4950278D01*
X2530962Y-4950282D01*
X2728537Y-5064353D01*
X2728553Y-5064361D01*
X2830975Y-5106785D01*
X2939334Y-5151669D01*
X3159717Y-5210720D01*
X3319474Y-5231752D01*
X3385921Y-5240500D01*
X3385922Y-5240500D01*
X3614079Y-5240500D01*
X3665438Y-5233738D01*
X3840283Y-5210720D01*
X4060666Y-5151669D01*
X4226365Y-5083033D01*
X4271446Y-5064361D01*
X4271449Y-5064359D01*
X4271455Y-5064357D01*
X4469045Y-4950278D01*
X4650054Y-4811385D01*
X4811385Y-4650054D01*
X4950278Y-4469045D01*
X5064357Y-4271455D01*
X5151669Y-4060666D01*
X5210720Y-3840283D01*
X5240500Y-3614078D01*
X5240500Y-3385922D01*
X5210720Y-3159717D01*
X5151669Y-2939334D01*
X5111463Y-2842268D01*
X5064361Y-2728553D01*
X5064353Y-2728537D01*
X4950282Y-2530962D01*
X4950278Y-2530955D01*
X4859821Y-2413069D01*
X4811386Y-2349947D01*
X4811380Y-2349940D01*
X4650059Y-2188619D01*
X4650052Y-2188613D01*
X4469053Y-2049728D01*
X4469051Y-2049726D01*
X4469045Y-2049722D01*
X4469040Y-2049719D01*
X4469037Y-2049717D01*
X4271462Y-1935646D01*
X4271446Y-1935638D01*
X4060666Y-1848331D01*
X3992253Y-1830000D01*
X3840283Y-1789280D01*
X3840277Y-1789279D01*
X3840272Y-1789278D01*
X3614079Y-1759500D01*
X3614078Y-1759500D01*
X3385922Y-1759500D01*
X3385921Y-1759500D01*
X3159727Y-1789278D01*
X3159720Y-1789279D01*
X3159717Y-1789280D01*
X3066567Y-1814239D01*
X2939333Y-1848331D01*
X2728553Y-1935638D01*
X2728537Y-1935646D01*
X2530962Y-2049717D01*
X2530946Y-2049728D01*
X2349947Y-2188613D01*
X2349940Y-2188619D01*
X2188619Y-2349940D01*
X2188613Y-2349947D01*
X2049728Y-2530946D01*
X2049717Y-2530962D01*
X1935646Y-2728537D01*
X1935638Y-2728553D01*
X1848331Y-2939333D01*
X1789281Y-3159714D01*
X1789278Y-3159727D01*
X1759500Y-3385921D01*
X400500Y-3385921D01*
X400500Y-524500D01*
X420185Y-457461D01*
X472989Y-411706D01*
X524500Y-400500D01*
X64475500Y-400500D01*
X64542539Y-420185D01*
G37*
%TD.AperFunction*%
%TD*%
%TA.AperFunction,NonConductor*%
G36*
X9769212Y-10480554D02*
G01*
X9820687Y-10527798D01*
X9838500Y-10591831D01*
X9838500Y-40788124D01*
X9818815Y-40855163D01*
X9787385Y-40888442D01*
X9622787Y-41008028D01*
X9622782Y-41008032D01*
X9482181Y-41148634D01*
X9420858Y-41182119D01*
X9351166Y-41177135D01*
X9295233Y-41135263D01*
X9270816Y-41069799D01*
X9270500Y-41060953D01*
X9270500Y-11110047D01*
X9290185Y-11043008D01*
X9306819Y-11022366D01*
X9361966Y-10967219D01*
X9361968Y-10967215D01*
X9361971Y-10967213D01*
X9414732Y-10894590D01*
X9482287Y-10801610D01*
X9575220Y-10619219D01*
X9596569Y-10553512D01*
X9636007Y-10495837D01*
X9700365Y-10468639D01*
X9769212Y-10480554D01*
G37*
%TD.AperFunction*%
M02*
