M48
; DRILL file {KiCad 9.0.7} date 2026-05-23T22:47:30+0200
; FORMAT={-:-/ absolute / metric / decimal}
; #@! TF.CreationDate,2026-05-23T22:47:30+02:00
; #@! TF.GenerationSoftware,Kicad,Pcbnew,9.0.7
; #@! TF.FileFunction,Plated,1,2,PTH
FMAT,2
METRIC
; #@! TA.AperFunction,Plated,PTH,ViaDrill
T1C0.600
; #@! TA.AperFunction,Plated,PTH,ComponentDrill
T2C1.000
%
G90
G05
T1
X1.454Y-8.406
X8.37Y-10.12
X10.47Y-42.0
X12.18Y-9.5
X14.72Y-9.5
X17.26Y-9.5
X19.8Y-9.5
X22.34Y-9.5
X24.88Y-9.5
X27.42Y-9.5
X29.96Y-9.5
X32.5Y-9.5
X35.04Y-9.5
X37.58Y-9.5
X40.12Y-9.5
X42.66Y-9.5
X45.2Y-9.5
X47.74Y-9.5
X50.28Y-9.5
X52.82Y-9.5
T2
X8.37Y-4.23
X8.37Y-6.77
X8.37Y-45.43
X8.37Y-47.97
X10.91Y-4.23
X10.91Y-6.77
X10.91Y-45.43
X10.91Y-47.97
X13.45Y-4.23
X13.45Y-6.77
X13.45Y-45.43
X13.45Y-47.97
X15.99Y-4.23
X15.99Y-6.77
X15.99Y-45.43
X15.99Y-47.97
X18.53Y-4.23
X18.53Y-6.77
X18.53Y-45.43
X18.53Y-47.97
X21.07Y-4.23
X21.07Y-6.77
X21.07Y-45.43
X21.07Y-47.97
X23.61Y-4.23
X23.61Y-6.77
X23.61Y-45.43
X23.61Y-47.97
X26.15Y-4.23
X26.15Y-6.77
X26.15Y-45.43
X26.15Y-47.97
X28.69Y-4.23
X28.69Y-6.77
X28.69Y-45.43
X28.69Y-47.97
X31.23Y-4.23
X31.23Y-6.77
X31.23Y-45.43
X31.23Y-47.97
X33.77Y-4.23
X33.77Y-6.77
X33.77Y-45.43
X33.77Y-47.97
X36.31Y-4.23
X36.31Y-6.77
X36.31Y-45.43
X36.31Y-47.97
X38.85Y-4.23
X38.85Y-6.77
X38.85Y-45.43
X38.85Y-47.97
X41.39Y-4.23
X41.39Y-6.77
X41.39Y-45.43
X41.39Y-47.97
X43.93Y-4.23
X43.93Y-6.77
X43.93Y-45.43
X43.93Y-47.97
X46.47Y-4.23
X46.47Y-6.77
X46.47Y-45.43
X46.47Y-47.97
X49.01Y-4.23
X49.01Y-6.77
X49.01Y-45.43
X49.01Y-47.97
X51.55Y-4.23
X51.55Y-6.77
X51.55Y-45.43
X51.55Y-47.97
X54.09Y-4.23
X54.09Y-6.77
X54.09Y-45.43
X54.09Y-47.97
X56.63Y-4.23
X56.63Y-6.77
X56.63Y-45.43
X56.63Y-47.97
M30
