%TF.GenerationSoftware,KiCad,Pcbnew,9.0.7*%
%TF.CreationDate,2026-05-23T10:46:40+02:00*%
%TF.ProjectId,BarePi_PidiMet,42617265-5069-45f5-9069-64694d65742e,rev?*%
%TF.SameCoordinates,Original*%
%TF.FileFunction,Soldermask,Top*%
%TF.FilePolarity,Negative*%
%FSLAX46Y46*%
G04 Gerber Fmt 4.6, Leading zero omitted, Abs format (unit mm)*
G04 Created by KiCad (PCBNEW 9.0.7) date 2026-05-23 10:46:40*
%MOMM*%
%LPD*%
G01*
G04 APERTURE LIST*
G04 Aperture macros list*
%AMOutline4P*
0 Free polygon, 4 corners , with rotation*
0 The origin of the aperture is its center*
0 number of corners: always 4*
0 $1 to $8 corner X, Y*
0 $9 Rotation angle, in degrees counterclockwise*
0 create outline with 4 corners*
4,1,4,$1,$2,$3,$4,$5,$6,$7,$8,$1,$2,$9*%
G04 Aperture macros list end*
%ADD10C,1.600000*%
%ADD11C,2.400000*%
%ADD12C,3.000000*%
%ADD13Outline4P,-1.600000X-0.800000X1.600000X-0.800000X1.600000X0.800000X-1.600000X0.800000X90.000000*%
%ADD14O,1.600000X3.200000*%
%ADD15Outline4P,-1.500000X-0.800000X1.500000X-0.800000X1.500000X0.800000X-1.500000X0.800000X270.000000*%
%ADD16O,1.600000X3.000000*%
%ADD17O,1.600000X1.600000*%
%ADD18C,2.000000*%
G04 APERTURE END LIST*
D10*
%TO.C,R1*%
X2730000Y-26106250D03*
X10350000Y-26106250D03*
%TD*%
D11*
%TO.C,R6*%
X17630000Y-10200000D03*
X4930000Y-10200000D03*
%TD*%
D10*
%TO.C,R2*%
X2730000Y-22617500D03*
X10350000Y-22617500D03*
%TD*%
%TO.C,R7*%
X22170000Y-15400000D03*
X29790000Y-15400000D03*
%TD*%
D12*
%TO.C,REF\u002A\u002A*%
X61500000Y-3500000D03*
%TD*%
%TO.C,REF\u002A\u002A*%
X3500000Y-44500000D03*
%TD*%
D13*
%TO.C,J1*%
X56630000Y-4250000D03*
D14*
X54090000Y-4250000D03*
X51550000Y-4250000D03*
X49010000Y-4250000D03*
X46470000Y-4250000D03*
X43930000Y-4250000D03*
X41390000Y-4250000D03*
X38850000Y-4250000D03*
X36310000Y-4250000D03*
X33770000Y-4250000D03*
X31230000Y-4250000D03*
X28690000Y-4250000D03*
X26150000Y-4250000D03*
X23610000Y-4250000D03*
X21070000Y-4250000D03*
X18530000Y-4250000D03*
X15990000Y-4250000D03*
X13450000Y-4250000D03*
X10910000Y-4250000D03*
X8370000Y-4250000D03*
%TD*%
D10*
%TO.C,R8*%
X28780000Y-12010000D03*
X21160000Y-12010000D03*
%TD*%
%TO.C,R4*%
X2730000Y-19128750D03*
X10350000Y-19128750D03*
%TD*%
D15*
%TO.C,J2*%
X8370000Y-39270000D03*
D16*
X8370000Y-35930000D03*
X10910000Y-39270000D03*
X10910000Y-35930000D03*
X13450000Y-39270000D03*
X13450000Y-35930000D03*
X15990000Y-39270000D03*
X15990000Y-35930000D03*
X18530000Y-39270000D03*
X18530000Y-35930000D03*
X21070000Y-39270000D03*
X21070000Y-35930000D03*
X23610000Y-39270000D03*
X23610000Y-35930000D03*
X26150000Y-39270000D03*
X26150000Y-35930000D03*
X28690000Y-39270000D03*
X28690000Y-35930000D03*
X31230000Y-39270000D03*
X31230000Y-35930000D03*
X33770000Y-39270000D03*
X33770000Y-35930000D03*
X36310000Y-39270000D03*
X36310000Y-35930000D03*
X38850000Y-39270000D03*
X38850000Y-35930000D03*
X41390000Y-39270000D03*
X41390000Y-35930000D03*
X43930000Y-39270000D03*
X43930000Y-35930000D03*
X46470000Y-39270000D03*
X46470000Y-35930000D03*
X49010000Y-39270000D03*
X49010000Y-35930000D03*
X51550000Y-39270000D03*
X51550000Y-35930000D03*
X54090000Y-39270000D03*
X54090000Y-35930000D03*
X56630000Y-39270000D03*
X56630000Y-35930000D03*
%TD*%
D10*
%TO.C,L1*%
X61430000Y-8960000D03*
D17*
X61430000Y-18960000D03*
%TD*%
D12*
%TO.C,REF\u002A\u002A*%
X61500000Y-44500000D03*
%TD*%
D10*
%TO.C,R3*%
X2730000Y-29595000D03*
X10350000Y-29595000D03*
%TD*%
D18*
%TO.C,Q1*%
X19930000Y-26210000D03*
X19930000Y-21330000D03*
%TD*%
D10*
%TO.C,C1*%
X61470000Y-22010000D03*
X61470000Y-32010000D03*
%TD*%
D12*
%TO.C,REF\u002A\u002A*%
X3500000Y-3500000D03*
%TD*%
D10*
%TO.C,R5*%
X2730000Y-15640000D03*
X10350000Y-15640000D03*
%TD*%
M02*
