%TF.GenerationSoftware,KiCad,Pcbnew,9.0.7*%
%TF.CreationDate,2026-05-23T10:46:40+02:00*%
%TF.ProjectId,BarePi_PidiMet,42617265-5069-45f5-9069-64694d65742e,rev?*%
%TF.SameCoordinates,Original*%
%TF.FileFunction,Legend,Bot*%
%TF.FilePolarity,Positive*%
%FSLAX46Y46*%
G04 Gerber Fmt 4.6, Leading zero omitted, Abs format (unit mm)*
G04 Created by KiCad (PCBNEW 9.0.7) date 2026-05-23 10:46:40*
%MOMM*%
%LPD*%
G01*
G04 APERTURE LIST*
%ADD10C,0.120000*%
G04 APERTURE END LIST*
D10*
X36592143Y-16320724D02*
X36842143Y-15963581D01*
X37020714Y-16320724D02*
X37020714Y-15570724D01*
X37020714Y-15570724D02*
X36735000Y-15570724D01*
X36735000Y-15570724D02*
X36663571Y-15606438D01*
X36663571Y-15606438D02*
X36627857Y-15642152D01*
X36627857Y-15642152D02*
X36592143Y-15713581D01*
X36592143Y-15713581D02*
X36592143Y-15820724D01*
X36592143Y-15820724D02*
X36627857Y-15892152D01*
X36627857Y-15892152D02*
X36663571Y-15927867D01*
X36663571Y-15927867D02*
X36735000Y-15963581D01*
X36735000Y-15963581D02*
X37020714Y-15963581D01*
X35877857Y-16320724D02*
X36306428Y-16320724D01*
X36092143Y-16320724D02*
X36092143Y-15570724D01*
X36092143Y-15570724D02*
X36163571Y-15677867D01*
X36163571Y-15677867D02*
X36235000Y-15749295D01*
X36235000Y-15749295D02*
X36306428Y-15785010D01*
X35235000Y-15570724D02*
X35377857Y-15570724D01*
X35377857Y-15570724D02*
X35449285Y-15606438D01*
X35449285Y-15606438D02*
X35485000Y-15642152D01*
X35485000Y-15642152D02*
X35556428Y-15749295D01*
X35556428Y-15749295D02*
X35592142Y-15892152D01*
X35592142Y-15892152D02*
X35592142Y-16177867D01*
X35592142Y-16177867D02*
X35556428Y-16249295D01*
X35556428Y-16249295D02*
X35520714Y-16285010D01*
X35520714Y-16285010D02*
X35449285Y-16320724D01*
X35449285Y-16320724D02*
X35306428Y-16320724D01*
X35306428Y-16320724D02*
X35235000Y-16285010D01*
X35235000Y-16285010D02*
X35199285Y-16249295D01*
X35199285Y-16249295D02*
X35163571Y-16177867D01*
X35163571Y-16177867D02*
X35163571Y-15999295D01*
X35163571Y-15999295D02*
X35199285Y-15927867D01*
X35199285Y-15927867D02*
X35235000Y-15892152D01*
X35235000Y-15892152D02*
X35306428Y-15856438D01*
X35306428Y-15856438D02*
X35449285Y-15856438D01*
X35449285Y-15856438D02*
X35520714Y-15892152D01*
X35520714Y-15892152D02*
X35556428Y-15927867D01*
X35556428Y-15927867D02*
X35592142Y-15999295D01*
X29072142Y-32130724D02*
X29072142Y-31380724D01*
X28286428Y-32059295D02*
X28322142Y-32095010D01*
X28322142Y-32095010D02*
X28429285Y-32130724D01*
X28429285Y-32130724D02*
X28500713Y-32130724D01*
X28500713Y-32130724D02*
X28607856Y-32095010D01*
X28607856Y-32095010D02*
X28679285Y-32023581D01*
X28679285Y-32023581D02*
X28714999Y-31952152D01*
X28714999Y-31952152D02*
X28750713Y-31809295D01*
X28750713Y-31809295D02*
X28750713Y-31702152D01*
X28750713Y-31702152D02*
X28714999Y-31559295D01*
X28714999Y-31559295D02*
X28679285Y-31487867D01*
X28679285Y-31487867D02*
X28607856Y-31416438D01*
X28607856Y-31416438D02*
X28500713Y-31380724D01*
X28500713Y-31380724D02*
X28429285Y-31380724D01*
X28429285Y-31380724D02*
X28322142Y-31416438D01*
X28322142Y-31416438D02*
X28286428Y-31452152D01*
X27572142Y-32130724D02*
X28000713Y-32130724D01*
X27786428Y-32130724D02*
X27786428Y-31380724D01*
X27786428Y-31380724D02*
X27857856Y-31487867D01*
X27857856Y-31487867D02*
X27929285Y-31559295D01*
X27929285Y-31559295D02*
X28000713Y-31595010D01*
X46492143Y-30330724D02*
X46742143Y-29973581D01*
X46920714Y-30330724D02*
X46920714Y-29580724D01*
X46920714Y-29580724D02*
X46635000Y-29580724D01*
X46635000Y-29580724D02*
X46563571Y-29616438D01*
X46563571Y-29616438D02*
X46527857Y-29652152D01*
X46527857Y-29652152D02*
X46492143Y-29723581D01*
X46492143Y-29723581D02*
X46492143Y-29830724D01*
X46492143Y-29830724D02*
X46527857Y-29902152D01*
X46527857Y-29902152D02*
X46563571Y-29937867D01*
X46563571Y-29937867D02*
X46635000Y-29973581D01*
X46635000Y-29973581D02*
X46920714Y-29973581D01*
X45777857Y-30330724D02*
X46206428Y-30330724D01*
X45992143Y-30330724D02*
X45992143Y-29580724D01*
X45992143Y-29580724D02*
X46063571Y-29687867D01*
X46063571Y-29687867D02*
X46135000Y-29759295D01*
X46135000Y-29759295D02*
X46206428Y-29795010D01*
X45527857Y-29580724D02*
X45063571Y-29580724D01*
X45063571Y-29580724D02*
X45313571Y-29866438D01*
X45313571Y-29866438D02*
X45206428Y-29866438D01*
X45206428Y-29866438D02*
X45135000Y-29902152D01*
X45135000Y-29902152D02*
X45099285Y-29937867D01*
X45099285Y-29937867D02*
X45063571Y-30009295D01*
X45063571Y-30009295D02*
X45063571Y-30187867D01*
X45063571Y-30187867D02*
X45099285Y-30259295D01*
X45099285Y-30259295D02*
X45135000Y-30295010D01*
X45135000Y-30295010D02*
X45206428Y-30330724D01*
X45206428Y-30330724D02*
X45420714Y-30330724D01*
X45420714Y-30330724D02*
X45492142Y-30295010D01*
X45492142Y-30295010D02*
X45527857Y-30259295D01*
X37905000Y-7149295D02*
X37940714Y-7185010D01*
X37940714Y-7185010D02*
X38047857Y-7220724D01*
X38047857Y-7220724D02*
X38119285Y-7220724D01*
X38119285Y-7220724D02*
X38226428Y-7185010D01*
X38226428Y-7185010D02*
X38297857Y-7113581D01*
X38297857Y-7113581D02*
X38333571Y-7042152D01*
X38333571Y-7042152D02*
X38369285Y-6899295D01*
X38369285Y-6899295D02*
X38369285Y-6792152D01*
X38369285Y-6792152D02*
X38333571Y-6649295D01*
X38333571Y-6649295D02*
X38297857Y-6577867D01*
X38297857Y-6577867D02*
X38226428Y-6506438D01*
X38226428Y-6506438D02*
X38119285Y-6470724D01*
X38119285Y-6470724D02*
X38047857Y-6470724D01*
X38047857Y-6470724D02*
X37940714Y-6506438D01*
X37940714Y-6506438D02*
X37905000Y-6542152D01*
X37262143Y-6720724D02*
X37262143Y-7220724D01*
X37440714Y-6435010D02*
X37619285Y-6970724D01*
X37619285Y-6970724D02*
X37155000Y-6970724D01*
X44122143Y-26709295D02*
X44157857Y-26745010D01*
X44157857Y-26745010D02*
X44265000Y-26780724D01*
X44265000Y-26780724D02*
X44336428Y-26780724D01*
X44336428Y-26780724D02*
X44443571Y-26745010D01*
X44443571Y-26745010D02*
X44515000Y-26673581D01*
X44515000Y-26673581D02*
X44550714Y-26602152D01*
X44550714Y-26602152D02*
X44586428Y-26459295D01*
X44586428Y-26459295D02*
X44586428Y-26352152D01*
X44586428Y-26352152D02*
X44550714Y-26209295D01*
X44550714Y-26209295D02*
X44515000Y-26137867D01*
X44515000Y-26137867D02*
X44443571Y-26066438D01*
X44443571Y-26066438D02*
X44336428Y-26030724D01*
X44336428Y-26030724D02*
X44265000Y-26030724D01*
X44265000Y-26030724D02*
X44157857Y-26066438D01*
X44157857Y-26066438D02*
X44122143Y-26102152D01*
X43407857Y-26780724D02*
X43836428Y-26780724D01*
X43622143Y-26780724D02*
X43622143Y-26030724D01*
X43622143Y-26030724D02*
X43693571Y-26137867D01*
X43693571Y-26137867D02*
X43765000Y-26209295D01*
X43765000Y-26209295D02*
X43836428Y-26245010D01*
X42693571Y-26780724D02*
X43122142Y-26780724D01*
X42907857Y-26780724D02*
X42907857Y-26030724D01*
X42907857Y-26030724D02*
X42979285Y-26137867D01*
X42979285Y-26137867D02*
X43050714Y-26209295D01*
X43050714Y-26209295D02*
X43122142Y-26245010D01*
X15612143Y-14620724D02*
X15862143Y-14263581D01*
X16040714Y-14620724D02*
X16040714Y-13870724D01*
X16040714Y-13870724D02*
X15755000Y-13870724D01*
X15755000Y-13870724D02*
X15683571Y-13906438D01*
X15683571Y-13906438D02*
X15647857Y-13942152D01*
X15647857Y-13942152D02*
X15612143Y-14013581D01*
X15612143Y-14013581D02*
X15612143Y-14120724D01*
X15612143Y-14120724D02*
X15647857Y-14192152D01*
X15647857Y-14192152D02*
X15683571Y-14227867D01*
X15683571Y-14227867D02*
X15755000Y-14263581D01*
X15755000Y-14263581D02*
X16040714Y-14263581D01*
X14897857Y-14620724D02*
X15326428Y-14620724D01*
X15112143Y-14620724D02*
X15112143Y-13870724D01*
X15112143Y-13870724D02*
X15183571Y-13977867D01*
X15183571Y-13977867D02*
X15255000Y-14049295D01*
X15255000Y-14049295D02*
X15326428Y-14085010D01*
X14433571Y-13870724D02*
X14362142Y-13870724D01*
X14362142Y-13870724D02*
X14290714Y-13906438D01*
X14290714Y-13906438D02*
X14255000Y-13942152D01*
X14255000Y-13942152D02*
X14219285Y-14013581D01*
X14219285Y-14013581D02*
X14183571Y-14156438D01*
X14183571Y-14156438D02*
X14183571Y-14335010D01*
X14183571Y-14335010D02*
X14219285Y-14477867D01*
X14219285Y-14477867D02*
X14255000Y-14549295D01*
X14255000Y-14549295D02*
X14290714Y-14585010D01*
X14290714Y-14585010D02*
X14362142Y-14620724D01*
X14362142Y-14620724D02*
X14433571Y-14620724D01*
X14433571Y-14620724D02*
X14505000Y-14585010D01*
X14505000Y-14585010D02*
X14540714Y-14549295D01*
X14540714Y-14549295D02*
X14576428Y-14477867D01*
X14576428Y-14477867D02*
X14612142Y-14335010D01*
X14612142Y-14335010D02*
X14612142Y-14156438D01*
X14612142Y-14156438D02*
X14576428Y-14013581D01*
X14576428Y-14013581D02*
X14540714Y-13942152D01*
X14540714Y-13942152D02*
X14505000Y-13906438D01*
X14505000Y-13906438D02*
X14433571Y-13870724D01*
X26722143Y-19800724D02*
X26972143Y-19443581D01*
X27150714Y-19800724D02*
X27150714Y-19050724D01*
X27150714Y-19050724D02*
X26865000Y-19050724D01*
X26865000Y-19050724D02*
X26793571Y-19086438D01*
X26793571Y-19086438D02*
X26757857Y-19122152D01*
X26757857Y-19122152D02*
X26722143Y-19193581D01*
X26722143Y-19193581D02*
X26722143Y-19300724D01*
X26722143Y-19300724D02*
X26757857Y-19372152D01*
X26757857Y-19372152D02*
X26793571Y-19407867D01*
X26793571Y-19407867D02*
X26865000Y-19443581D01*
X26865000Y-19443581D02*
X27150714Y-19443581D01*
X26007857Y-19800724D02*
X26436428Y-19800724D01*
X26222143Y-19800724D02*
X26222143Y-19050724D01*
X26222143Y-19050724D02*
X26293571Y-19157867D01*
X26293571Y-19157867D02*
X26365000Y-19229295D01*
X26365000Y-19229295D02*
X26436428Y-19265010D01*
X25293571Y-19800724D02*
X25722142Y-19800724D01*
X25507857Y-19800724D02*
X25507857Y-19050724D01*
X25507857Y-19050724D02*
X25579285Y-19157867D01*
X25579285Y-19157867D02*
X25650714Y-19229295D01*
X25650714Y-19229295D02*
X25722142Y-19265010D01*
X47032143Y-19640724D02*
X47282143Y-19283581D01*
X47460714Y-19640724D02*
X47460714Y-18890724D01*
X47460714Y-18890724D02*
X47175000Y-18890724D01*
X47175000Y-18890724D02*
X47103571Y-18926438D01*
X47103571Y-18926438D02*
X47067857Y-18962152D01*
X47067857Y-18962152D02*
X47032143Y-19033581D01*
X47032143Y-19033581D02*
X47032143Y-19140724D01*
X47032143Y-19140724D02*
X47067857Y-19212152D01*
X47067857Y-19212152D02*
X47103571Y-19247867D01*
X47103571Y-19247867D02*
X47175000Y-19283581D01*
X47175000Y-19283581D02*
X47460714Y-19283581D01*
X46317857Y-19640724D02*
X46746428Y-19640724D01*
X46532143Y-19640724D02*
X46532143Y-18890724D01*
X46532143Y-18890724D02*
X46603571Y-18997867D01*
X46603571Y-18997867D02*
X46675000Y-19069295D01*
X46675000Y-19069295D02*
X46746428Y-19105010D01*
X45639285Y-18890724D02*
X45996428Y-18890724D01*
X45996428Y-18890724D02*
X46032142Y-19247867D01*
X46032142Y-19247867D02*
X45996428Y-19212152D01*
X45996428Y-19212152D02*
X45925000Y-19176438D01*
X45925000Y-19176438D02*
X45746428Y-19176438D01*
X45746428Y-19176438D02*
X45675000Y-19212152D01*
X45675000Y-19212152D02*
X45639285Y-19247867D01*
X45639285Y-19247867D02*
X45603571Y-19319295D01*
X45603571Y-19319295D02*
X45603571Y-19497867D01*
X45603571Y-19497867D02*
X45639285Y-19569295D01*
X45639285Y-19569295D02*
X45675000Y-19605010D01*
X45675000Y-19605010D02*
X45746428Y-19640724D01*
X45746428Y-19640724D02*
X45925000Y-19640724D01*
X45925000Y-19640724D02*
X45996428Y-19605010D01*
X45996428Y-19605010D02*
X46032142Y-19569295D01*
X47735000Y-11849295D02*
X47770714Y-11885010D01*
X47770714Y-11885010D02*
X47877857Y-11920724D01*
X47877857Y-11920724D02*
X47949285Y-11920724D01*
X47949285Y-11920724D02*
X48056428Y-11885010D01*
X48056428Y-11885010D02*
X48127857Y-11813581D01*
X48127857Y-11813581D02*
X48163571Y-11742152D01*
X48163571Y-11742152D02*
X48199285Y-11599295D01*
X48199285Y-11599295D02*
X48199285Y-11492152D01*
X48199285Y-11492152D02*
X48163571Y-11349295D01*
X48163571Y-11349295D02*
X48127857Y-11277867D01*
X48127857Y-11277867D02*
X48056428Y-11206438D01*
X48056428Y-11206438D02*
X47949285Y-11170724D01*
X47949285Y-11170724D02*
X47877857Y-11170724D01*
X47877857Y-11170724D02*
X47770714Y-11206438D01*
X47770714Y-11206438D02*
X47735000Y-11242152D01*
X47306428Y-11492152D02*
X47377857Y-11456438D01*
X47377857Y-11456438D02*
X47413571Y-11420724D01*
X47413571Y-11420724D02*
X47449285Y-11349295D01*
X47449285Y-11349295D02*
X47449285Y-11313581D01*
X47449285Y-11313581D02*
X47413571Y-11242152D01*
X47413571Y-11242152D02*
X47377857Y-11206438D01*
X47377857Y-11206438D02*
X47306428Y-11170724D01*
X47306428Y-11170724D02*
X47163571Y-11170724D01*
X47163571Y-11170724D02*
X47092143Y-11206438D01*
X47092143Y-11206438D02*
X47056428Y-11242152D01*
X47056428Y-11242152D02*
X47020714Y-11313581D01*
X47020714Y-11313581D02*
X47020714Y-11349295D01*
X47020714Y-11349295D02*
X47056428Y-11420724D01*
X47056428Y-11420724D02*
X47092143Y-11456438D01*
X47092143Y-11456438D02*
X47163571Y-11492152D01*
X47163571Y-11492152D02*
X47306428Y-11492152D01*
X47306428Y-11492152D02*
X47377857Y-11527867D01*
X47377857Y-11527867D02*
X47413571Y-11563581D01*
X47413571Y-11563581D02*
X47449285Y-11635010D01*
X47449285Y-11635010D02*
X47449285Y-11777867D01*
X47449285Y-11777867D02*
X47413571Y-11849295D01*
X47413571Y-11849295D02*
X47377857Y-11885010D01*
X47377857Y-11885010D02*
X47306428Y-11920724D01*
X47306428Y-11920724D02*
X47163571Y-11920724D01*
X47163571Y-11920724D02*
X47092143Y-11885010D01*
X47092143Y-11885010D02*
X47056428Y-11849295D01*
X47056428Y-11849295D02*
X47020714Y-11777867D01*
X47020714Y-11777867D02*
X47020714Y-11635010D01*
X47020714Y-11635010D02*
X47056428Y-11563581D01*
X47056428Y-11563581D02*
X47092143Y-11527867D01*
X47092143Y-11527867D02*
X47163571Y-11492152D01*
X22765000Y-7129295D02*
X22800714Y-7165010D01*
X22800714Y-7165010D02*
X22907857Y-7200724D01*
X22907857Y-7200724D02*
X22979285Y-7200724D01*
X22979285Y-7200724D02*
X23086428Y-7165010D01*
X23086428Y-7165010D02*
X23157857Y-7093581D01*
X23157857Y-7093581D02*
X23193571Y-7022152D01*
X23193571Y-7022152D02*
X23229285Y-6879295D01*
X23229285Y-6879295D02*
X23229285Y-6772152D01*
X23229285Y-6772152D02*
X23193571Y-6629295D01*
X23193571Y-6629295D02*
X23157857Y-6557867D01*
X23157857Y-6557867D02*
X23086428Y-6486438D01*
X23086428Y-6486438D02*
X22979285Y-6450724D01*
X22979285Y-6450724D02*
X22907857Y-6450724D01*
X22907857Y-6450724D02*
X22800714Y-6486438D01*
X22800714Y-6486438D02*
X22765000Y-6522152D01*
X22086428Y-6450724D02*
X22443571Y-6450724D01*
X22443571Y-6450724D02*
X22479285Y-6807867D01*
X22479285Y-6807867D02*
X22443571Y-6772152D01*
X22443571Y-6772152D02*
X22372143Y-6736438D01*
X22372143Y-6736438D02*
X22193571Y-6736438D01*
X22193571Y-6736438D02*
X22122143Y-6772152D01*
X22122143Y-6772152D02*
X22086428Y-6807867D01*
X22086428Y-6807867D02*
X22050714Y-6879295D01*
X22050714Y-6879295D02*
X22050714Y-7057867D01*
X22050714Y-7057867D02*
X22086428Y-7129295D01*
X22086428Y-7129295D02*
X22122143Y-7165010D01*
X22122143Y-7165010D02*
X22193571Y-7200724D01*
X22193571Y-7200724D02*
X22372143Y-7200724D01*
X22372143Y-7200724D02*
X22443571Y-7165010D01*
X22443571Y-7165010D02*
X22479285Y-7129295D01*
X52102143Y-23690724D02*
X52352143Y-23333581D01*
X52530714Y-23690724D02*
X52530714Y-22940724D01*
X52530714Y-22940724D02*
X52245000Y-22940724D01*
X52245000Y-22940724D02*
X52173571Y-22976438D01*
X52173571Y-22976438D02*
X52137857Y-23012152D01*
X52137857Y-23012152D02*
X52102143Y-23083581D01*
X52102143Y-23083581D02*
X52102143Y-23190724D01*
X52102143Y-23190724D02*
X52137857Y-23262152D01*
X52137857Y-23262152D02*
X52173571Y-23297867D01*
X52173571Y-23297867D02*
X52245000Y-23333581D01*
X52245000Y-23333581D02*
X52530714Y-23333581D01*
X51816428Y-23012152D02*
X51780714Y-22976438D01*
X51780714Y-22976438D02*
X51709286Y-22940724D01*
X51709286Y-22940724D02*
X51530714Y-22940724D01*
X51530714Y-22940724D02*
X51459286Y-22976438D01*
X51459286Y-22976438D02*
X51423571Y-23012152D01*
X51423571Y-23012152D02*
X51387857Y-23083581D01*
X51387857Y-23083581D02*
X51387857Y-23155010D01*
X51387857Y-23155010D02*
X51423571Y-23262152D01*
X51423571Y-23262152D02*
X51852143Y-23690724D01*
X51852143Y-23690724D02*
X51387857Y-23690724D01*
X50673571Y-23690724D02*
X51102142Y-23690724D01*
X50887857Y-23690724D02*
X50887857Y-22940724D01*
X50887857Y-22940724D02*
X50959285Y-23047867D01*
X50959285Y-23047867D02*
X51030714Y-23119295D01*
X51030714Y-23119295D02*
X51102142Y-23155010D01*
X43747143Y-23019295D02*
X43782857Y-23055010D01*
X43782857Y-23055010D02*
X43890000Y-23090724D01*
X43890000Y-23090724D02*
X43961428Y-23090724D01*
X43961428Y-23090724D02*
X44068571Y-23055010D01*
X44068571Y-23055010D02*
X44140000Y-22983581D01*
X44140000Y-22983581D02*
X44175714Y-22912152D01*
X44175714Y-22912152D02*
X44211428Y-22769295D01*
X44211428Y-22769295D02*
X44211428Y-22662152D01*
X44211428Y-22662152D02*
X44175714Y-22519295D01*
X44175714Y-22519295D02*
X44140000Y-22447867D01*
X44140000Y-22447867D02*
X44068571Y-22376438D01*
X44068571Y-22376438D02*
X43961428Y-22340724D01*
X43961428Y-22340724D02*
X43890000Y-22340724D01*
X43890000Y-22340724D02*
X43782857Y-22376438D01*
X43782857Y-22376438D02*
X43747143Y-22412152D01*
X43032857Y-23090724D02*
X43461428Y-23090724D01*
X43247143Y-23090724D02*
X43247143Y-22340724D01*
X43247143Y-22340724D02*
X43318571Y-22447867D01*
X43318571Y-22447867D02*
X43390000Y-22519295D01*
X43390000Y-22519295D02*
X43461428Y-22555010D01*
X42747142Y-22412152D02*
X42711428Y-22376438D01*
X42711428Y-22376438D02*
X42640000Y-22340724D01*
X42640000Y-22340724D02*
X42461428Y-22340724D01*
X42461428Y-22340724D02*
X42390000Y-22376438D01*
X42390000Y-22376438D02*
X42354285Y-22412152D01*
X42354285Y-22412152D02*
X42318571Y-22483581D01*
X42318571Y-22483581D02*
X42318571Y-22555010D01*
X42318571Y-22555010D02*
X42354285Y-22662152D01*
X42354285Y-22662152D02*
X42782857Y-23090724D01*
X42782857Y-23090724D02*
X42318571Y-23090724D01*
X51632143Y-19140724D02*
X51882143Y-18783581D01*
X52060714Y-19140724D02*
X52060714Y-18390724D01*
X52060714Y-18390724D02*
X51775000Y-18390724D01*
X51775000Y-18390724D02*
X51703571Y-18426438D01*
X51703571Y-18426438D02*
X51667857Y-18462152D01*
X51667857Y-18462152D02*
X51632143Y-18533581D01*
X51632143Y-18533581D02*
X51632143Y-18640724D01*
X51632143Y-18640724D02*
X51667857Y-18712152D01*
X51667857Y-18712152D02*
X51703571Y-18747867D01*
X51703571Y-18747867D02*
X51775000Y-18783581D01*
X51775000Y-18783581D02*
X52060714Y-18783581D01*
X51346428Y-18462152D02*
X51310714Y-18426438D01*
X51310714Y-18426438D02*
X51239286Y-18390724D01*
X51239286Y-18390724D02*
X51060714Y-18390724D01*
X51060714Y-18390724D02*
X50989286Y-18426438D01*
X50989286Y-18426438D02*
X50953571Y-18462152D01*
X50953571Y-18462152D02*
X50917857Y-18533581D01*
X50917857Y-18533581D02*
X50917857Y-18605010D01*
X50917857Y-18605010D02*
X50953571Y-18712152D01*
X50953571Y-18712152D02*
X51382143Y-19140724D01*
X51382143Y-19140724D02*
X50917857Y-19140724D01*
X50632142Y-18462152D02*
X50596428Y-18426438D01*
X50596428Y-18426438D02*
X50525000Y-18390724D01*
X50525000Y-18390724D02*
X50346428Y-18390724D01*
X50346428Y-18390724D02*
X50275000Y-18426438D01*
X50275000Y-18426438D02*
X50239285Y-18462152D01*
X50239285Y-18462152D02*
X50203571Y-18533581D01*
X50203571Y-18533581D02*
X50203571Y-18605010D01*
X50203571Y-18605010D02*
X50239285Y-18712152D01*
X50239285Y-18712152D02*
X50667857Y-19140724D01*
X50667857Y-19140724D02*
X50203571Y-19140724D01*
X15725000Y-30259295D02*
X15760714Y-30295010D01*
X15760714Y-30295010D02*
X15867857Y-30330724D01*
X15867857Y-30330724D02*
X15939285Y-30330724D01*
X15939285Y-30330724D02*
X16046428Y-30295010D01*
X16046428Y-30295010D02*
X16117857Y-30223581D01*
X16117857Y-30223581D02*
X16153571Y-30152152D01*
X16153571Y-30152152D02*
X16189285Y-30009295D01*
X16189285Y-30009295D02*
X16189285Y-29902152D01*
X16189285Y-29902152D02*
X16153571Y-29759295D01*
X16153571Y-29759295D02*
X16117857Y-29687867D01*
X16117857Y-29687867D02*
X16046428Y-29616438D01*
X16046428Y-29616438D02*
X15939285Y-29580724D01*
X15939285Y-29580724D02*
X15867857Y-29580724D01*
X15867857Y-29580724D02*
X15760714Y-29616438D01*
X15760714Y-29616438D02*
X15725000Y-29652152D01*
X15439285Y-29652152D02*
X15403571Y-29616438D01*
X15403571Y-29616438D02*
X15332143Y-29580724D01*
X15332143Y-29580724D02*
X15153571Y-29580724D01*
X15153571Y-29580724D02*
X15082143Y-29616438D01*
X15082143Y-29616438D02*
X15046428Y-29652152D01*
X15046428Y-29652152D02*
X15010714Y-29723581D01*
X15010714Y-29723581D02*
X15010714Y-29795010D01*
X15010714Y-29795010D02*
X15046428Y-29902152D01*
X15046428Y-29902152D02*
X15475000Y-30330724D01*
X15475000Y-30330724D02*
X15010714Y-30330724D01*
X58062143Y-23120724D02*
X58312143Y-22763581D01*
X58490714Y-23120724D02*
X58490714Y-22370724D01*
X58490714Y-22370724D02*
X58205000Y-22370724D01*
X58205000Y-22370724D02*
X58133571Y-22406438D01*
X58133571Y-22406438D02*
X58097857Y-22442152D01*
X58097857Y-22442152D02*
X58062143Y-22513581D01*
X58062143Y-22513581D02*
X58062143Y-22620724D01*
X58062143Y-22620724D02*
X58097857Y-22692152D01*
X58097857Y-22692152D02*
X58133571Y-22727867D01*
X58133571Y-22727867D02*
X58205000Y-22763581D01*
X58205000Y-22763581D02*
X58490714Y-22763581D01*
X57347857Y-23120724D02*
X57776428Y-23120724D01*
X57562143Y-23120724D02*
X57562143Y-22370724D01*
X57562143Y-22370724D02*
X57633571Y-22477867D01*
X57633571Y-22477867D02*
X57705000Y-22549295D01*
X57705000Y-22549295D02*
X57776428Y-22585010D01*
X56990714Y-23120724D02*
X56847857Y-23120724D01*
X56847857Y-23120724D02*
X56776428Y-23085010D01*
X56776428Y-23085010D02*
X56740714Y-23049295D01*
X56740714Y-23049295D02*
X56669285Y-22942152D01*
X56669285Y-22942152D02*
X56633571Y-22799295D01*
X56633571Y-22799295D02*
X56633571Y-22513581D01*
X56633571Y-22513581D02*
X56669285Y-22442152D01*
X56669285Y-22442152D02*
X56705000Y-22406438D01*
X56705000Y-22406438D02*
X56776428Y-22370724D01*
X56776428Y-22370724D02*
X56919285Y-22370724D01*
X56919285Y-22370724D02*
X56990714Y-22406438D01*
X56990714Y-22406438D02*
X57026428Y-22442152D01*
X57026428Y-22442152D02*
X57062142Y-22513581D01*
X57062142Y-22513581D02*
X57062142Y-22692152D01*
X57062142Y-22692152D02*
X57026428Y-22763581D01*
X57026428Y-22763581D02*
X56990714Y-22799295D01*
X56990714Y-22799295D02*
X56919285Y-22835010D01*
X56919285Y-22835010D02*
X56776428Y-22835010D01*
X56776428Y-22835010D02*
X56705000Y-22799295D01*
X56705000Y-22799295D02*
X56669285Y-22763581D01*
X56669285Y-22763581D02*
X56633571Y-22692152D01*
X15755000Y-16659295D02*
X15790714Y-16695010D01*
X15790714Y-16695010D02*
X15897857Y-16730724D01*
X15897857Y-16730724D02*
X15969285Y-16730724D01*
X15969285Y-16730724D02*
X16076428Y-16695010D01*
X16076428Y-16695010D02*
X16147857Y-16623581D01*
X16147857Y-16623581D02*
X16183571Y-16552152D01*
X16183571Y-16552152D02*
X16219285Y-16409295D01*
X16219285Y-16409295D02*
X16219285Y-16302152D01*
X16219285Y-16302152D02*
X16183571Y-16159295D01*
X16183571Y-16159295D02*
X16147857Y-16087867D01*
X16147857Y-16087867D02*
X16076428Y-16016438D01*
X16076428Y-16016438D02*
X15969285Y-15980724D01*
X15969285Y-15980724D02*
X15897857Y-15980724D01*
X15897857Y-15980724D02*
X15790714Y-16016438D01*
X15790714Y-16016438D02*
X15755000Y-16052152D01*
X15505000Y-15980724D02*
X15040714Y-15980724D01*
X15040714Y-15980724D02*
X15290714Y-16266438D01*
X15290714Y-16266438D02*
X15183571Y-16266438D01*
X15183571Y-16266438D02*
X15112143Y-16302152D01*
X15112143Y-16302152D02*
X15076428Y-16337867D01*
X15076428Y-16337867D02*
X15040714Y-16409295D01*
X15040714Y-16409295D02*
X15040714Y-16587867D01*
X15040714Y-16587867D02*
X15076428Y-16659295D01*
X15076428Y-16659295D02*
X15112143Y-16695010D01*
X15112143Y-16695010D02*
X15183571Y-16730724D01*
X15183571Y-16730724D02*
X15397857Y-16730724D01*
X15397857Y-16730724D02*
X15469285Y-16695010D01*
X15469285Y-16695010D02*
X15505000Y-16659295D01*
X40212143Y-14670724D02*
X40462143Y-14313581D01*
X40640714Y-14670724D02*
X40640714Y-13920724D01*
X40640714Y-13920724D02*
X40355000Y-13920724D01*
X40355000Y-13920724D02*
X40283571Y-13956438D01*
X40283571Y-13956438D02*
X40247857Y-13992152D01*
X40247857Y-13992152D02*
X40212143Y-14063581D01*
X40212143Y-14063581D02*
X40212143Y-14170724D01*
X40212143Y-14170724D02*
X40247857Y-14242152D01*
X40247857Y-14242152D02*
X40283571Y-14277867D01*
X40283571Y-14277867D02*
X40355000Y-14313581D01*
X40355000Y-14313581D02*
X40640714Y-14313581D01*
X39497857Y-14670724D02*
X39926428Y-14670724D01*
X39712143Y-14670724D02*
X39712143Y-13920724D01*
X39712143Y-13920724D02*
X39783571Y-14027867D01*
X39783571Y-14027867D02*
X39855000Y-14099295D01*
X39855000Y-14099295D02*
X39926428Y-14135010D01*
X39212142Y-13992152D02*
X39176428Y-13956438D01*
X39176428Y-13956438D02*
X39105000Y-13920724D01*
X39105000Y-13920724D02*
X38926428Y-13920724D01*
X38926428Y-13920724D02*
X38855000Y-13956438D01*
X38855000Y-13956438D02*
X38819285Y-13992152D01*
X38819285Y-13992152D02*
X38783571Y-14063581D01*
X38783571Y-14063581D02*
X38783571Y-14135010D01*
X38783571Y-14135010D02*
X38819285Y-14242152D01*
X38819285Y-14242152D02*
X39247857Y-14670724D01*
X39247857Y-14670724D02*
X38783571Y-14670724D01*
X34535000Y-7059295D02*
X34570714Y-7095010D01*
X34570714Y-7095010D02*
X34677857Y-7130724D01*
X34677857Y-7130724D02*
X34749285Y-7130724D01*
X34749285Y-7130724D02*
X34856428Y-7095010D01*
X34856428Y-7095010D02*
X34927857Y-7023581D01*
X34927857Y-7023581D02*
X34963571Y-6952152D01*
X34963571Y-6952152D02*
X34999285Y-6809295D01*
X34999285Y-6809295D02*
X34999285Y-6702152D01*
X34999285Y-6702152D02*
X34963571Y-6559295D01*
X34963571Y-6559295D02*
X34927857Y-6487867D01*
X34927857Y-6487867D02*
X34856428Y-6416438D01*
X34856428Y-6416438D02*
X34749285Y-6380724D01*
X34749285Y-6380724D02*
X34677857Y-6380724D01*
X34677857Y-6380724D02*
X34570714Y-6416438D01*
X34570714Y-6416438D02*
X34535000Y-6452152D01*
X33892143Y-6380724D02*
X34035000Y-6380724D01*
X34035000Y-6380724D02*
X34106428Y-6416438D01*
X34106428Y-6416438D02*
X34142143Y-6452152D01*
X34142143Y-6452152D02*
X34213571Y-6559295D01*
X34213571Y-6559295D02*
X34249285Y-6702152D01*
X34249285Y-6702152D02*
X34249285Y-6987867D01*
X34249285Y-6987867D02*
X34213571Y-7059295D01*
X34213571Y-7059295D02*
X34177857Y-7095010D01*
X34177857Y-7095010D02*
X34106428Y-7130724D01*
X34106428Y-7130724D02*
X33963571Y-7130724D01*
X33963571Y-7130724D02*
X33892143Y-7095010D01*
X33892143Y-7095010D02*
X33856428Y-7059295D01*
X33856428Y-7059295D02*
X33820714Y-6987867D01*
X33820714Y-6987867D02*
X33820714Y-6809295D01*
X33820714Y-6809295D02*
X33856428Y-6737867D01*
X33856428Y-6737867D02*
X33892143Y-6702152D01*
X33892143Y-6702152D02*
X33963571Y-6666438D01*
X33963571Y-6666438D02*
X34106428Y-6666438D01*
X34106428Y-6666438D02*
X34177857Y-6702152D01*
X34177857Y-6702152D02*
X34213571Y-6737867D01*
X34213571Y-6737867D02*
X34249285Y-6809295D01*
X52632143Y-10490724D02*
X52882143Y-10133581D01*
X53060714Y-10490724D02*
X53060714Y-9740724D01*
X53060714Y-9740724D02*
X52775000Y-9740724D01*
X52775000Y-9740724D02*
X52703571Y-9776438D01*
X52703571Y-9776438D02*
X52667857Y-9812152D01*
X52667857Y-9812152D02*
X52632143Y-9883581D01*
X52632143Y-9883581D02*
X52632143Y-9990724D01*
X52632143Y-9990724D02*
X52667857Y-10062152D01*
X52667857Y-10062152D02*
X52703571Y-10097867D01*
X52703571Y-10097867D02*
X52775000Y-10133581D01*
X52775000Y-10133581D02*
X53060714Y-10133581D01*
X52346428Y-9812152D02*
X52310714Y-9776438D01*
X52310714Y-9776438D02*
X52239286Y-9740724D01*
X52239286Y-9740724D02*
X52060714Y-9740724D01*
X52060714Y-9740724D02*
X51989286Y-9776438D01*
X51989286Y-9776438D02*
X51953571Y-9812152D01*
X51953571Y-9812152D02*
X51917857Y-9883581D01*
X51917857Y-9883581D02*
X51917857Y-9955010D01*
X51917857Y-9955010D02*
X51953571Y-10062152D01*
X51953571Y-10062152D02*
X52382143Y-10490724D01*
X52382143Y-10490724D02*
X51917857Y-10490724D01*
X51667857Y-9740724D02*
X51203571Y-9740724D01*
X51203571Y-9740724D02*
X51453571Y-10026438D01*
X51453571Y-10026438D02*
X51346428Y-10026438D01*
X51346428Y-10026438D02*
X51275000Y-10062152D01*
X51275000Y-10062152D02*
X51239285Y-10097867D01*
X51239285Y-10097867D02*
X51203571Y-10169295D01*
X51203571Y-10169295D02*
X51203571Y-10347867D01*
X51203571Y-10347867D02*
X51239285Y-10419295D01*
X51239285Y-10419295D02*
X51275000Y-10455010D01*
X51275000Y-10455010D02*
X51346428Y-10490724D01*
X51346428Y-10490724D02*
X51560714Y-10490724D01*
X51560714Y-10490724D02*
X51632142Y-10455010D01*
X51632142Y-10455010D02*
X51667857Y-10419295D01*
X34702143Y-18040724D02*
X34952143Y-17683581D01*
X35130714Y-18040724D02*
X35130714Y-17290724D01*
X35130714Y-17290724D02*
X34845000Y-17290724D01*
X34845000Y-17290724D02*
X34773571Y-17326438D01*
X34773571Y-17326438D02*
X34737857Y-17362152D01*
X34737857Y-17362152D02*
X34702143Y-17433581D01*
X34702143Y-17433581D02*
X34702143Y-17540724D01*
X34702143Y-17540724D02*
X34737857Y-17612152D01*
X34737857Y-17612152D02*
X34773571Y-17647867D01*
X34773571Y-17647867D02*
X34845000Y-17683581D01*
X34845000Y-17683581D02*
X35130714Y-17683581D01*
X33987857Y-18040724D02*
X34416428Y-18040724D01*
X34202143Y-18040724D02*
X34202143Y-17290724D01*
X34202143Y-17290724D02*
X34273571Y-17397867D01*
X34273571Y-17397867D02*
X34345000Y-17469295D01*
X34345000Y-17469295D02*
X34416428Y-17505010D01*
X33737857Y-17290724D02*
X33237857Y-17290724D01*
X33237857Y-17290724D02*
X33559285Y-18040724D01*
X43512143Y-13380724D02*
X43762143Y-13023581D01*
X43940714Y-13380724D02*
X43940714Y-12630724D01*
X43940714Y-12630724D02*
X43655000Y-12630724D01*
X43655000Y-12630724D02*
X43583571Y-12666438D01*
X43583571Y-12666438D02*
X43547857Y-12702152D01*
X43547857Y-12702152D02*
X43512143Y-12773581D01*
X43512143Y-12773581D02*
X43512143Y-12880724D01*
X43512143Y-12880724D02*
X43547857Y-12952152D01*
X43547857Y-12952152D02*
X43583571Y-12987867D01*
X43583571Y-12987867D02*
X43655000Y-13023581D01*
X43655000Y-13023581D02*
X43940714Y-13023581D01*
X42797857Y-13380724D02*
X43226428Y-13380724D01*
X43012143Y-13380724D02*
X43012143Y-12630724D01*
X43012143Y-12630724D02*
X43083571Y-12737867D01*
X43083571Y-12737867D02*
X43155000Y-12809295D01*
X43155000Y-12809295D02*
X43226428Y-12845010D01*
X42155000Y-12880724D02*
X42155000Y-13380724D01*
X42333571Y-12595010D02*
X42512142Y-13130724D01*
X42512142Y-13130724D02*
X42047857Y-13130724D01*
X49512143Y-13630724D02*
X49762143Y-13273581D01*
X49940714Y-13630724D02*
X49940714Y-12880724D01*
X49940714Y-12880724D02*
X49655000Y-12880724D01*
X49655000Y-12880724D02*
X49583571Y-12916438D01*
X49583571Y-12916438D02*
X49547857Y-12952152D01*
X49547857Y-12952152D02*
X49512143Y-13023581D01*
X49512143Y-13023581D02*
X49512143Y-13130724D01*
X49512143Y-13130724D02*
X49547857Y-13202152D01*
X49547857Y-13202152D02*
X49583571Y-13237867D01*
X49583571Y-13237867D02*
X49655000Y-13273581D01*
X49655000Y-13273581D02*
X49940714Y-13273581D01*
X49226428Y-12952152D02*
X49190714Y-12916438D01*
X49190714Y-12916438D02*
X49119286Y-12880724D01*
X49119286Y-12880724D02*
X48940714Y-12880724D01*
X48940714Y-12880724D02*
X48869286Y-12916438D01*
X48869286Y-12916438D02*
X48833571Y-12952152D01*
X48833571Y-12952152D02*
X48797857Y-13023581D01*
X48797857Y-13023581D02*
X48797857Y-13095010D01*
X48797857Y-13095010D02*
X48833571Y-13202152D01*
X48833571Y-13202152D02*
X49262143Y-13630724D01*
X49262143Y-13630724D02*
X48797857Y-13630724D01*
X48333571Y-12880724D02*
X48262142Y-12880724D01*
X48262142Y-12880724D02*
X48190714Y-12916438D01*
X48190714Y-12916438D02*
X48155000Y-12952152D01*
X48155000Y-12952152D02*
X48119285Y-13023581D01*
X48119285Y-13023581D02*
X48083571Y-13166438D01*
X48083571Y-13166438D02*
X48083571Y-13345010D01*
X48083571Y-13345010D02*
X48119285Y-13487867D01*
X48119285Y-13487867D02*
X48155000Y-13559295D01*
X48155000Y-13559295D02*
X48190714Y-13595010D01*
X48190714Y-13595010D02*
X48262142Y-13630724D01*
X48262142Y-13630724D02*
X48333571Y-13630724D01*
X48333571Y-13630724D02*
X48405000Y-13595010D01*
X48405000Y-13595010D02*
X48440714Y-13559295D01*
X48440714Y-13559295D02*
X48476428Y-13487867D01*
X48476428Y-13487867D02*
X48512142Y-13345010D01*
X48512142Y-13345010D02*
X48512142Y-13166438D01*
X48512142Y-13166438D02*
X48476428Y-13023581D01*
X48476428Y-13023581D02*
X48440714Y-12952152D01*
X48440714Y-12952152D02*
X48405000Y-12916438D01*
X48405000Y-12916438D02*
X48333571Y-12880724D01*
X52742143Y-6919295D02*
X52777857Y-6955010D01*
X52777857Y-6955010D02*
X52885000Y-6990724D01*
X52885000Y-6990724D02*
X52956428Y-6990724D01*
X52956428Y-6990724D02*
X53063571Y-6955010D01*
X53063571Y-6955010D02*
X53135000Y-6883581D01*
X53135000Y-6883581D02*
X53170714Y-6812152D01*
X53170714Y-6812152D02*
X53206428Y-6669295D01*
X53206428Y-6669295D02*
X53206428Y-6562152D01*
X53206428Y-6562152D02*
X53170714Y-6419295D01*
X53170714Y-6419295D02*
X53135000Y-6347867D01*
X53135000Y-6347867D02*
X53063571Y-6276438D01*
X53063571Y-6276438D02*
X52956428Y-6240724D01*
X52956428Y-6240724D02*
X52885000Y-6240724D01*
X52885000Y-6240724D02*
X52777857Y-6276438D01*
X52777857Y-6276438D02*
X52742143Y-6312152D01*
X52027857Y-6990724D02*
X52456428Y-6990724D01*
X52242143Y-6990724D02*
X52242143Y-6240724D01*
X52242143Y-6240724D02*
X52313571Y-6347867D01*
X52313571Y-6347867D02*
X52385000Y-6419295D01*
X52385000Y-6419295D02*
X52456428Y-6455010D01*
X51777857Y-6240724D02*
X51313571Y-6240724D01*
X51313571Y-6240724D02*
X51563571Y-6526438D01*
X51563571Y-6526438D02*
X51456428Y-6526438D01*
X51456428Y-6526438D02*
X51385000Y-6562152D01*
X51385000Y-6562152D02*
X51349285Y-6597867D01*
X51349285Y-6597867D02*
X51313571Y-6669295D01*
X51313571Y-6669295D02*
X51313571Y-6847867D01*
X51313571Y-6847867D02*
X51349285Y-6919295D01*
X51349285Y-6919295D02*
X51385000Y-6955010D01*
X51385000Y-6955010D02*
X51456428Y-6990724D01*
X51456428Y-6990724D02*
X51670714Y-6990724D01*
X51670714Y-6990724D02*
X51742142Y-6955010D01*
X51742142Y-6955010D02*
X51777857Y-6919295D01*
X55725000Y-27589295D02*
X55760714Y-27625010D01*
X55760714Y-27625010D02*
X55867857Y-27660724D01*
X55867857Y-27660724D02*
X55939285Y-27660724D01*
X55939285Y-27660724D02*
X56046428Y-27625010D01*
X56046428Y-27625010D02*
X56117857Y-27553581D01*
X56117857Y-27553581D02*
X56153571Y-27482152D01*
X56153571Y-27482152D02*
X56189285Y-27339295D01*
X56189285Y-27339295D02*
X56189285Y-27232152D01*
X56189285Y-27232152D02*
X56153571Y-27089295D01*
X56153571Y-27089295D02*
X56117857Y-27017867D01*
X56117857Y-27017867D02*
X56046428Y-26946438D01*
X56046428Y-26946438D02*
X55939285Y-26910724D01*
X55939285Y-26910724D02*
X55867857Y-26910724D01*
X55867857Y-26910724D02*
X55760714Y-26946438D01*
X55760714Y-26946438D02*
X55725000Y-26982152D01*
X55475000Y-26910724D02*
X54975000Y-26910724D01*
X54975000Y-26910724D02*
X55296428Y-27660724D01*
X32452143Y-15740724D02*
X32702143Y-15383581D01*
X32880714Y-15740724D02*
X32880714Y-14990724D01*
X32880714Y-14990724D02*
X32595000Y-14990724D01*
X32595000Y-14990724D02*
X32523571Y-15026438D01*
X32523571Y-15026438D02*
X32487857Y-15062152D01*
X32487857Y-15062152D02*
X32452143Y-15133581D01*
X32452143Y-15133581D02*
X32452143Y-15240724D01*
X32452143Y-15240724D02*
X32487857Y-15312152D01*
X32487857Y-15312152D02*
X32523571Y-15347867D01*
X32523571Y-15347867D02*
X32595000Y-15383581D01*
X32595000Y-15383581D02*
X32880714Y-15383581D01*
X31737857Y-15740724D02*
X32166428Y-15740724D01*
X31952143Y-15740724D02*
X31952143Y-14990724D01*
X31952143Y-14990724D02*
X32023571Y-15097867D01*
X32023571Y-15097867D02*
X32095000Y-15169295D01*
X32095000Y-15169295D02*
X32166428Y-15205010D01*
X31309285Y-15312152D02*
X31380714Y-15276438D01*
X31380714Y-15276438D02*
X31416428Y-15240724D01*
X31416428Y-15240724D02*
X31452142Y-15169295D01*
X31452142Y-15169295D02*
X31452142Y-15133581D01*
X31452142Y-15133581D02*
X31416428Y-15062152D01*
X31416428Y-15062152D02*
X31380714Y-15026438D01*
X31380714Y-15026438D02*
X31309285Y-14990724D01*
X31309285Y-14990724D02*
X31166428Y-14990724D01*
X31166428Y-14990724D02*
X31095000Y-15026438D01*
X31095000Y-15026438D02*
X31059285Y-15062152D01*
X31059285Y-15062152D02*
X31023571Y-15133581D01*
X31023571Y-15133581D02*
X31023571Y-15169295D01*
X31023571Y-15169295D02*
X31059285Y-15240724D01*
X31059285Y-15240724D02*
X31095000Y-15276438D01*
X31095000Y-15276438D02*
X31166428Y-15312152D01*
X31166428Y-15312152D02*
X31309285Y-15312152D01*
X31309285Y-15312152D02*
X31380714Y-15347867D01*
X31380714Y-15347867D02*
X31416428Y-15383581D01*
X31416428Y-15383581D02*
X31452142Y-15455010D01*
X31452142Y-15455010D02*
X31452142Y-15597867D01*
X31452142Y-15597867D02*
X31416428Y-15669295D01*
X31416428Y-15669295D02*
X31380714Y-15705010D01*
X31380714Y-15705010D02*
X31309285Y-15740724D01*
X31309285Y-15740724D02*
X31166428Y-15740724D01*
X31166428Y-15740724D02*
X31095000Y-15705010D01*
X31095000Y-15705010D02*
X31059285Y-15669295D01*
X31059285Y-15669295D02*
X31023571Y-15597867D01*
X31023571Y-15597867D02*
X31023571Y-15455010D01*
X31023571Y-15455010D02*
X31059285Y-15383581D01*
X31059285Y-15383581D02*
X31095000Y-15347867D01*
X31095000Y-15347867D02*
X31166428Y-15312152D01*
X4545000Y-33700724D02*
X4795000Y-33343581D01*
X4973571Y-33700724D02*
X4973571Y-32950724D01*
X4973571Y-32950724D02*
X4687857Y-32950724D01*
X4687857Y-32950724D02*
X4616428Y-32986438D01*
X4616428Y-32986438D02*
X4580714Y-33022152D01*
X4580714Y-33022152D02*
X4545000Y-33093581D01*
X4545000Y-33093581D02*
X4545000Y-33200724D01*
X4545000Y-33200724D02*
X4580714Y-33272152D01*
X4580714Y-33272152D02*
X4616428Y-33307867D01*
X4616428Y-33307867D02*
X4687857Y-33343581D01*
X4687857Y-33343581D02*
X4973571Y-33343581D01*
X4187857Y-33700724D02*
X4045000Y-33700724D01*
X4045000Y-33700724D02*
X3973571Y-33665010D01*
X3973571Y-33665010D02*
X3937857Y-33629295D01*
X3937857Y-33629295D02*
X3866428Y-33522152D01*
X3866428Y-33522152D02*
X3830714Y-33379295D01*
X3830714Y-33379295D02*
X3830714Y-33093581D01*
X3830714Y-33093581D02*
X3866428Y-33022152D01*
X3866428Y-33022152D02*
X3902143Y-32986438D01*
X3902143Y-32986438D02*
X3973571Y-32950724D01*
X3973571Y-32950724D02*
X4116428Y-32950724D01*
X4116428Y-32950724D02*
X4187857Y-32986438D01*
X4187857Y-32986438D02*
X4223571Y-33022152D01*
X4223571Y-33022152D02*
X4259285Y-33093581D01*
X4259285Y-33093581D02*
X4259285Y-33272152D01*
X4259285Y-33272152D02*
X4223571Y-33343581D01*
X4223571Y-33343581D02*
X4187857Y-33379295D01*
X4187857Y-33379295D02*
X4116428Y-33415010D01*
X4116428Y-33415010D02*
X3973571Y-33415010D01*
X3973571Y-33415010D02*
X3902143Y-33379295D01*
X3902143Y-33379295D02*
X3866428Y-33343581D01*
X3866428Y-33343581D02*
X3830714Y-33272152D01*
X57532142Y-12648224D02*
X57532142Y-11898224D01*
X56746428Y-12576795D02*
X56782142Y-12612510D01*
X56782142Y-12612510D02*
X56889285Y-12648224D01*
X56889285Y-12648224D02*
X56960713Y-12648224D01*
X56960713Y-12648224D02*
X57067856Y-12612510D01*
X57067856Y-12612510D02*
X57139285Y-12541081D01*
X57139285Y-12541081D02*
X57174999Y-12469652D01*
X57174999Y-12469652D02*
X57210713Y-12326795D01*
X57210713Y-12326795D02*
X57210713Y-12219652D01*
X57210713Y-12219652D02*
X57174999Y-12076795D01*
X57174999Y-12076795D02*
X57139285Y-12005367D01*
X57139285Y-12005367D02*
X57067856Y-11933938D01*
X57067856Y-11933938D02*
X56960713Y-11898224D01*
X56960713Y-11898224D02*
X56889285Y-11898224D01*
X56889285Y-11898224D02*
X56782142Y-11933938D01*
X56782142Y-11933938D02*
X56746428Y-11969652D01*
X56460713Y-11969652D02*
X56424999Y-11933938D01*
X56424999Y-11933938D02*
X56353571Y-11898224D01*
X56353571Y-11898224D02*
X56174999Y-11898224D01*
X56174999Y-11898224D02*
X56103571Y-11933938D01*
X56103571Y-11933938D02*
X56067856Y-11969652D01*
X56067856Y-11969652D02*
X56032142Y-12041081D01*
X56032142Y-12041081D02*
X56032142Y-12112510D01*
X56032142Y-12112510D02*
X56067856Y-12219652D01*
X56067856Y-12219652D02*
X56496428Y-12648224D01*
X56496428Y-12648224D02*
X56032142Y-12648224D01*
%TO.C,R16*%
X35345000Y-13082936D02*
X35345000Y-13537064D01*
X36815000Y-13082936D02*
X36815000Y-13537064D01*
%TO.C,R13*%
X47987064Y-27615000D02*
X47532936Y-27615000D01*
X47987064Y-29085000D02*
X47532936Y-29085000D01*
%TO.C,C4*%
X38491252Y-7680000D02*
X37068748Y-7680000D01*
X38491252Y-9500000D02*
X37068748Y-9500000D01*
%TO.C,C11*%
X44715000Y-24495000D02*
X48810000Y-24495000D01*
X44715000Y-26405000D02*
X44715000Y-24495000D01*
X48810000Y-26405000D02*
X44715000Y-26405000D01*
%TO.C,R10*%
X18102936Y-13055000D02*
X18557064Y-13055000D01*
X18102936Y-14525000D02*
X18557064Y-14525000D01*
%TO.C,R11*%
X26852936Y-17125000D02*
X27307064Y-17125000D01*
X26852936Y-18595000D02*
X27307064Y-18595000D01*
%TO.C,R15*%
X46987064Y-20115000D02*
X46532936Y-20115000D01*
X46987064Y-21585000D02*
X46532936Y-21585000D01*
%TO.C,C8*%
X45615000Y-13095000D02*
X47525000Y-13095000D01*
X45615000Y-17190000D02*
X45615000Y-13095000D01*
X47525000Y-13095000D02*
X47525000Y-17190000D01*
%TO.C,C5*%
X25148748Y-8110000D02*
X26571252Y-8110000D01*
X25148748Y-9930000D02*
X26571252Y-9930000D01*
%TO.C,R21*%
X53992936Y-22065000D02*
X54447064Y-22065000D01*
X53992936Y-23535000D02*
X54447064Y-23535000D01*
%TO.C,C12*%
X46168748Y-22250000D02*
X47591252Y-22250000D01*
X46168748Y-24070000D02*
X47591252Y-24070000D01*
%TO.C,R22*%
X53947064Y-19595000D02*
X53492936Y-19595000D01*
X53947064Y-21065000D02*
X53492936Y-21065000D01*
%TO.C,C2*%
X14690000Y-26198748D02*
X14690000Y-27621252D01*
X16510000Y-26198748D02*
X16510000Y-27621252D01*
%TO.C,R19*%
X56745000Y-20152936D02*
X56745000Y-20607064D01*
X58215000Y-20152936D02*
X58215000Y-20607064D01*
%TO.C,C3*%
X14580000Y-21751252D02*
X14580000Y-20328748D01*
X16400000Y-21751252D02*
X16400000Y-20328748D01*
%TO.C,R12*%
X39055000Y-11722936D02*
X39055000Y-12177064D01*
X40525000Y-11722936D02*
X40525000Y-12177064D01*
%TO.C,C6*%
X30798748Y-7470000D02*
X32221252Y-7470000D01*
X30798748Y-9290000D02*
X32221252Y-9290000D01*
%TO.C,R23*%
X55317064Y-10155000D02*
X54862936Y-10155000D01*
X55317064Y-11625000D02*
X54862936Y-11625000D01*
%TO.C,R17*%
X33205000Y-12252936D02*
X33205000Y-12707064D01*
X34675000Y-12252936D02*
X34675000Y-12707064D01*
%TO.C,R14*%
X42195000Y-15362936D02*
X42195000Y-15817064D01*
X43665000Y-15362936D02*
X43665000Y-15817064D01*
%TO.C,R20*%
X48355000Y-16432936D02*
X48355000Y-16887064D01*
X49825000Y-16432936D02*
X49825000Y-16887064D01*
%TO.C,C13*%
X55621252Y-7350000D02*
X54198748Y-7350000D01*
X55621252Y-9170000D02*
X54198748Y-9170000D01*
%TO.C,C7*%
X53945000Y-24645000D02*
X58040000Y-24645000D01*
X53945000Y-26555000D02*
X53945000Y-24645000D01*
X58040000Y-26555000D02*
X53945000Y-26555000D01*
%TO.C,R18*%
X31015000Y-12937064D02*
X31015000Y-12482936D01*
X32485000Y-12937064D02*
X32485000Y-12482936D01*
%TO.C,R9*%
X7402936Y-31745000D02*
X7857064Y-31745000D01*
X7402936Y-33215000D02*
X7857064Y-33215000D01*
%TO.C,IC2*%
X52460000Y-12827500D02*
X52460000Y-12947500D01*
X52460000Y-17827500D02*
X52460000Y-17947500D01*
X52460000Y-17947500D02*
X56580000Y-17947500D01*
X56580000Y-12827500D02*
X52460000Y-12827500D01*
X56580000Y-12947500D02*
X56580000Y-12827500D01*
X56580000Y-17947500D02*
X56580000Y-17827500D01*
X52100000Y-18167500D02*
X51620000Y-18167500D01*
X51860000Y-17837500D01*
X52100000Y-18167500D01*
G36*
X52100000Y-18167500D02*
G01*
X51620000Y-18167500D01*
X51860000Y-17837500D01*
X52100000Y-18167500D01*
G37*
%TD*%
M02*
