%TF.GenerationSoftware,KiCad,Pcbnew,9.0.7*%
%TF.CreationDate,2026-05-23T10:46:40+02:00*%
%TF.ProjectId,BarePi_PidiMet,42617265-5069-45f5-9069-64694d65742e,rev?*%
%TF.SameCoordinates,Original*%
%TF.FileFunction,AssemblyDrawing,Top*%
%FSLAX46Y46*%
G04 Gerber Fmt 4.6, Leading zero omitted, Abs format (unit mm)*
G04 Created by KiCad (PCBNEW 9.0.7) date 2026-05-23 10:46:40*
%MOMM*%
%LPD*%
G01*
G04 APERTURE LIST*
%ADD10C,0.120000*%
%ADD11C,0.100000*%
G04 APERTURE END LIST*
D10*
X10471428Y-24108402D02*
X10507142Y-24072688D01*
X10507142Y-24072688D02*
X10578571Y-24036974D01*
X10578571Y-24036974D02*
X10757142Y-24036974D01*
X10757142Y-24036974D02*
X10828571Y-24072688D01*
X10828571Y-24072688D02*
X10864285Y-24108402D01*
X10864285Y-24108402D02*
X10899999Y-24179831D01*
X10899999Y-24179831D02*
X10899999Y-24251260D01*
X10899999Y-24251260D02*
X10864285Y-24358402D01*
X10864285Y-24358402D02*
X10435713Y-24786974D01*
X10435713Y-24786974D02*
X10899999Y-24786974D01*
X11185714Y-24108402D02*
X11221428Y-24072688D01*
X11221428Y-24072688D02*
X11292857Y-24036974D01*
X11292857Y-24036974D02*
X11471428Y-24036974D01*
X11471428Y-24036974D02*
X11542857Y-24072688D01*
X11542857Y-24072688D02*
X11578571Y-24108402D01*
X11578571Y-24108402D02*
X11614285Y-24179831D01*
X11614285Y-24179831D02*
X11614285Y-24251260D01*
X11614285Y-24251260D02*
X11578571Y-24358402D01*
X11578571Y-24358402D02*
X11149999Y-24786974D01*
X11149999Y-24786974D02*
X11614285Y-24786974D01*
X12078571Y-24036974D02*
X12150000Y-24036974D01*
X12150000Y-24036974D02*
X12221428Y-24072688D01*
X12221428Y-24072688D02*
X12257143Y-24108402D01*
X12257143Y-24108402D02*
X12292857Y-24179831D01*
X12292857Y-24179831D02*
X12328571Y-24322688D01*
X12328571Y-24322688D02*
X12328571Y-24501260D01*
X12328571Y-24501260D02*
X12292857Y-24644117D01*
X12292857Y-24644117D02*
X12257143Y-24715545D01*
X12257143Y-24715545D02*
X12221428Y-24751260D01*
X12221428Y-24751260D02*
X12150000Y-24786974D01*
X12150000Y-24786974D02*
X12078571Y-24786974D01*
X12078571Y-24786974D02*
X12007143Y-24751260D01*
X12007143Y-24751260D02*
X11971428Y-24715545D01*
X11971428Y-24715545D02*
X11935714Y-24644117D01*
X11935714Y-24644117D02*
X11900000Y-24501260D01*
X11900000Y-24501260D02*
X11900000Y-24322688D01*
X11900000Y-24322688D02*
X11935714Y-24179831D01*
X11935714Y-24179831D02*
X11971428Y-24108402D01*
X11971428Y-24108402D02*
X12007143Y-24072688D01*
X12007143Y-24072688D02*
X12078571Y-24036974D01*
X1554999Y-24836974D02*
X1304999Y-24479831D01*
X1126428Y-24836974D02*
X1126428Y-24086974D01*
X1126428Y-24086974D02*
X1412142Y-24086974D01*
X1412142Y-24086974D02*
X1483571Y-24122688D01*
X1483571Y-24122688D02*
X1519285Y-24158402D01*
X1519285Y-24158402D02*
X1554999Y-24229831D01*
X1554999Y-24229831D02*
X1554999Y-24336974D01*
X1554999Y-24336974D02*
X1519285Y-24408402D01*
X1519285Y-24408402D02*
X1483571Y-24444117D01*
X1483571Y-24444117D02*
X1412142Y-24479831D01*
X1412142Y-24479831D02*
X1126428Y-24479831D01*
X2269285Y-24836974D02*
X1840714Y-24836974D01*
X2054999Y-24836974D02*
X2054999Y-24086974D01*
X2054999Y-24086974D02*
X1983571Y-24194117D01*
X1983571Y-24194117D02*
X1912142Y-24265545D01*
X1912142Y-24265545D02*
X1840714Y-24301260D01*
X11933571Y-7670724D02*
X11505000Y-7670724D01*
X11719285Y-7670724D02*
X11719285Y-6920724D01*
X11719285Y-6920724D02*
X11647857Y-7027867D01*
X11647857Y-7027867D02*
X11576428Y-7099295D01*
X11576428Y-7099295D02*
X11505000Y-7135010D01*
X12683571Y-7670724D02*
X12433571Y-7313581D01*
X12255000Y-7670724D02*
X12255000Y-6920724D01*
X12255000Y-6920724D02*
X12540714Y-6920724D01*
X12540714Y-6920724D02*
X12612143Y-6956438D01*
X12612143Y-6956438D02*
X12647857Y-6992152D01*
X12647857Y-6992152D02*
X12683571Y-7063581D01*
X12683571Y-7063581D02*
X12683571Y-7170724D01*
X12683571Y-7170724D02*
X12647857Y-7242152D01*
X12647857Y-7242152D02*
X12612143Y-7277867D01*
X12612143Y-7277867D02*
X12540714Y-7313581D01*
X12540714Y-7313581D02*
X12255000Y-7313581D01*
X13147857Y-6920724D02*
X13219286Y-6920724D01*
X13219286Y-6920724D02*
X13290714Y-6956438D01*
X13290714Y-6956438D02*
X13326429Y-6992152D01*
X13326429Y-6992152D02*
X13362143Y-7063581D01*
X13362143Y-7063581D02*
X13397857Y-7206438D01*
X13397857Y-7206438D02*
X13397857Y-7385010D01*
X13397857Y-7385010D02*
X13362143Y-7527867D01*
X13362143Y-7527867D02*
X13326429Y-7599295D01*
X13326429Y-7599295D02*
X13290714Y-7635010D01*
X13290714Y-7635010D02*
X13219286Y-7670724D01*
X13219286Y-7670724D02*
X13147857Y-7670724D01*
X13147857Y-7670724D02*
X13076429Y-7635010D01*
X13076429Y-7635010D02*
X13040714Y-7599295D01*
X13040714Y-7599295D02*
X13005000Y-7527867D01*
X13005000Y-7527867D02*
X12969286Y-7385010D01*
X12969286Y-7385010D02*
X12969286Y-7206438D01*
X12969286Y-7206438D02*
X13005000Y-7063581D01*
X13005000Y-7063581D02*
X13040714Y-6992152D01*
X13040714Y-6992152D02*
X13076429Y-6956438D01*
X13076429Y-6956438D02*
X13147857Y-6920724D01*
X14255000Y-6885010D02*
X13612143Y-7849295D01*
X14469286Y-6992152D02*
X14505000Y-6956438D01*
X14505000Y-6956438D02*
X14576429Y-6920724D01*
X14576429Y-6920724D02*
X14755000Y-6920724D01*
X14755000Y-6920724D02*
X14826429Y-6956438D01*
X14826429Y-6956438D02*
X14862143Y-6992152D01*
X14862143Y-6992152D02*
X14897857Y-7063581D01*
X14897857Y-7063581D02*
X14897857Y-7135010D01*
X14897857Y-7135010D02*
X14862143Y-7242152D01*
X14862143Y-7242152D02*
X14433571Y-7670724D01*
X14433571Y-7670724D02*
X14897857Y-7670724D01*
X15147857Y-6920724D02*
X15326429Y-7670724D01*
X15326429Y-7670724D02*
X15469286Y-7135010D01*
X15469286Y-7135010D02*
X15612143Y-7670724D01*
X15612143Y-7670724D02*
X15790715Y-6920724D01*
X8194999Y-7760724D02*
X7944999Y-7403581D01*
X7766428Y-7760724D02*
X7766428Y-7010724D01*
X7766428Y-7010724D02*
X8052142Y-7010724D01*
X8052142Y-7010724D02*
X8123571Y-7046438D01*
X8123571Y-7046438D02*
X8159285Y-7082152D01*
X8159285Y-7082152D02*
X8194999Y-7153581D01*
X8194999Y-7153581D02*
X8194999Y-7260724D01*
X8194999Y-7260724D02*
X8159285Y-7332152D01*
X8159285Y-7332152D02*
X8123571Y-7367867D01*
X8123571Y-7367867D02*
X8052142Y-7403581D01*
X8052142Y-7403581D02*
X7766428Y-7403581D01*
X8837857Y-7010724D02*
X8694999Y-7010724D01*
X8694999Y-7010724D02*
X8623571Y-7046438D01*
X8623571Y-7046438D02*
X8587857Y-7082152D01*
X8587857Y-7082152D02*
X8516428Y-7189295D01*
X8516428Y-7189295D02*
X8480714Y-7332152D01*
X8480714Y-7332152D02*
X8480714Y-7617867D01*
X8480714Y-7617867D02*
X8516428Y-7689295D01*
X8516428Y-7689295D02*
X8552142Y-7725010D01*
X8552142Y-7725010D02*
X8623571Y-7760724D01*
X8623571Y-7760724D02*
X8766428Y-7760724D01*
X8766428Y-7760724D02*
X8837857Y-7725010D01*
X8837857Y-7725010D02*
X8873571Y-7689295D01*
X8873571Y-7689295D02*
X8909285Y-7617867D01*
X8909285Y-7617867D02*
X8909285Y-7439295D01*
X8909285Y-7439295D02*
X8873571Y-7367867D01*
X8873571Y-7367867D02*
X8837857Y-7332152D01*
X8837857Y-7332152D02*
X8766428Y-7296438D01*
X8766428Y-7296438D02*
X8623571Y-7296438D01*
X8623571Y-7296438D02*
X8552142Y-7332152D01*
X8552142Y-7332152D02*
X8516428Y-7367867D01*
X8516428Y-7367867D02*
X8480714Y-7439295D01*
X10423571Y-20659652D02*
X10459285Y-20623938D01*
X10459285Y-20623938D02*
X10530714Y-20588224D01*
X10530714Y-20588224D02*
X10709285Y-20588224D01*
X10709285Y-20588224D02*
X10780714Y-20623938D01*
X10780714Y-20623938D02*
X10816428Y-20659652D01*
X10816428Y-20659652D02*
X10852142Y-20731081D01*
X10852142Y-20731081D02*
X10852142Y-20802510D01*
X10852142Y-20802510D02*
X10816428Y-20909652D01*
X10816428Y-20909652D02*
X10387856Y-21338224D01*
X10387856Y-21338224D02*
X10852142Y-21338224D01*
X11173571Y-21338224D02*
X11173571Y-20588224D01*
X11602142Y-21338224D02*
X11280714Y-20909652D01*
X11602142Y-20588224D02*
X11173571Y-21016795D01*
X11887857Y-20659652D02*
X11923571Y-20623938D01*
X11923571Y-20623938D02*
X11995000Y-20588224D01*
X11995000Y-20588224D02*
X12173571Y-20588224D01*
X12173571Y-20588224D02*
X12245000Y-20623938D01*
X12245000Y-20623938D02*
X12280714Y-20659652D01*
X12280714Y-20659652D02*
X12316428Y-20731081D01*
X12316428Y-20731081D02*
X12316428Y-20802510D01*
X12316428Y-20802510D02*
X12280714Y-20909652D01*
X12280714Y-20909652D02*
X11852142Y-21338224D01*
X11852142Y-21338224D02*
X12316428Y-21338224D01*
X1354999Y-21308224D02*
X1104999Y-20951081D01*
X926428Y-21308224D02*
X926428Y-20558224D01*
X926428Y-20558224D02*
X1212142Y-20558224D01*
X1212142Y-20558224D02*
X1283571Y-20593938D01*
X1283571Y-20593938D02*
X1319285Y-20629652D01*
X1319285Y-20629652D02*
X1354999Y-20701081D01*
X1354999Y-20701081D02*
X1354999Y-20808224D01*
X1354999Y-20808224D02*
X1319285Y-20879652D01*
X1319285Y-20879652D02*
X1283571Y-20915367D01*
X1283571Y-20915367D02*
X1212142Y-20951081D01*
X1212142Y-20951081D02*
X926428Y-20951081D01*
X1640714Y-20629652D02*
X1676428Y-20593938D01*
X1676428Y-20593938D02*
X1747857Y-20558224D01*
X1747857Y-20558224D02*
X1926428Y-20558224D01*
X1926428Y-20558224D02*
X1997857Y-20593938D01*
X1997857Y-20593938D02*
X2033571Y-20629652D01*
X2033571Y-20629652D02*
X2069285Y-20701081D01*
X2069285Y-20701081D02*
X2069285Y-20772510D01*
X2069285Y-20772510D02*
X2033571Y-20879652D01*
X2033571Y-20879652D02*
X1604999Y-21308224D01*
X1604999Y-21308224D02*
X2069285Y-21308224D01*
X19316428Y-16862152D02*
X19352142Y-16826438D01*
X19352142Y-16826438D02*
X19423571Y-16790724D01*
X19423571Y-16790724D02*
X19602142Y-16790724D01*
X19602142Y-16790724D02*
X19673571Y-16826438D01*
X19673571Y-16826438D02*
X19709285Y-16862152D01*
X19709285Y-16862152D02*
X19744999Y-16933581D01*
X19744999Y-16933581D02*
X19744999Y-17005010D01*
X19744999Y-17005010D02*
X19709285Y-17112152D01*
X19709285Y-17112152D02*
X19280713Y-17540724D01*
X19280713Y-17540724D02*
X19744999Y-17540724D01*
X20030714Y-16862152D02*
X20066428Y-16826438D01*
X20066428Y-16826438D02*
X20137857Y-16790724D01*
X20137857Y-16790724D02*
X20316428Y-16790724D01*
X20316428Y-16790724D02*
X20387857Y-16826438D01*
X20387857Y-16826438D02*
X20423571Y-16862152D01*
X20423571Y-16862152D02*
X20459285Y-16933581D01*
X20459285Y-16933581D02*
X20459285Y-17005010D01*
X20459285Y-17005010D02*
X20423571Y-17112152D01*
X20423571Y-17112152D02*
X19994999Y-17540724D01*
X19994999Y-17540724D02*
X20459285Y-17540724D01*
X20923571Y-16790724D02*
X20995000Y-16790724D01*
X20995000Y-16790724D02*
X21066428Y-16826438D01*
X21066428Y-16826438D02*
X21102143Y-16862152D01*
X21102143Y-16862152D02*
X21137857Y-16933581D01*
X21137857Y-16933581D02*
X21173571Y-17076438D01*
X21173571Y-17076438D02*
X21173571Y-17255010D01*
X21173571Y-17255010D02*
X21137857Y-17397867D01*
X21137857Y-17397867D02*
X21102143Y-17469295D01*
X21102143Y-17469295D02*
X21066428Y-17505010D01*
X21066428Y-17505010D02*
X20995000Y-17540724D01*
X20995000Y-17540724D02*
X20923571Y-17540724D01*
X20923571Y-17540724D02*
X20852143Y-17505010D01*
X20852143Y-17505010D02*
X20816428Y-17469295D01*
X20816428Y-17469295D02*
X20780714Y-17397867D01*
X20780714Y-17397867D02*
X20745000Y-17255010D01*
X20745000Y-17255010D02*
X20745000Y-17076438D01*
X20745000Y-17076438D02*
X20780714Y-16933581D01*
X20780714Y-16933581D02*
X20816428Y-16862152D01*
X20816428Y-16862152D02*
X20852143Y-16826438D01*
X20852143Y-16826438D02*
X20923571Y-16790724D01*
X21495000Y-17540724D02*
X21495000Y-16790724D01*
X21923571Y-17540724D02*
X21602143Y-17112152D01*
X21923571Y-16790724D02*
X21495000Y-17219295D01*
X20444999Y-16110724D02*
X20194999Y-15753581D01*
X20016428Y-16110724D02*
X20016428Y-15360724D01*
X20016428Y-15360724D02*
X20302142Y-15360724D01*
X20302142Y-15360724D02*
X20373571Y-15396438D01*
X20373571Y-15396438D02*
X20409285Y-15432152D01*
X20409285Y-15432152D02*
X20444999Y-15503581D01*
X20444999Y-15503581D02*
X20444999Y-15610724D01*
X20444999Y-15610724D02*
X20409285Y-15682152D01*
X20409285Y-15682152D02*
X20373571Y-15717867D01*
X20373571Y-15717867D02*
X20302142Y-15753581D01*
X20302142Y-15753581D02*
X20016428Y-15753581D01*
X20694999Y-15360724D02*
X21194999Y-15360724D01*
X21194999Y-15360724D02*
X20873571Y-16110724D01*
X2806428Y-6522867D02*
X3056428Y-6522867D01*
X3163571Y-6915724D02*
X2806428Y-6915724D01*
X2806428Y-6915724D02*
X2806428Y-6165724D01*
X2806428Y-6165724D02*
X3163571Y-6165724D01*
X3413570Y-6165724D02*
X3913570Y-6915724D01*
X3913570Y-6165724D02*
X3413570Y-6915724D01*
X4092142Y-6165724D02*
X4520714Y-6165724D01*
X4306428Y-6915724D02*
X4306428Y-6165724D01*
X5550000Y-5840724D02*
X5550000Y-6376438D01*
X5550000Y-6376438D02*
X5514285Y-6483581D01*
X5514285Y-6483581D02*
X5442857Y-6555010D01*
X5442857Y-6555010D02*
X5335714Y-6590724D01*
X5335714Y-6590724D02*
X5264285Y-6590724D01*
X6300000Y-6590724D02*
X5871429Y-6590724D01*
X6085714Y-6590724D02*
X6085714Y-5840724D01*
X6085714Y-5840724D02*
X6014286Y-5947867D01*
X6014286Y-5947867D02*
X5942857Y-6019295D01*
X5942857Y-6019295D02*
X5871429Y-6055010D01*
X20190000Y-9612152D02*
X20225714Y-9576438D01*
X20225714Y-9576438D02*
X20297143Y-9540724D01*
X20297143Y-9540724D02*
X20475714Y-9540724D01*
X20475714Y-9540724D02*
X20547143Y-9576438D01*
X20547143Y-9576438D02*
X20582857Y-9612152D01*
X20582857Y-9612152D02*
X20618571Y-9683581D01*
X20618571Y-9683581D02*
X20618571Y-9755010D01*
X20618571Y-9755010D02*
X20582857Y-9862152D01*
X20582857Y-9862152D02*
X20154285Y-10290724D01*
X20154285Y-10290724D02*
X20618571Y-10290724D01*
X20940000Y-10290724D02*
X20940000Y-9540724D01*
X20940000Y-9540724D02*
X21190000Y-10076438D01*
X21190000Y-10076438D02*
X21440000Y-9540724D01*
X21440000Y-9540724D02*
X21440000Y-10290724D01*
X21761429Y-9612152D02*
X21797143Y-9576438D01*
X21797143Y-9576438D02*
X21868572Y-9540724D01*
X21868572Y-9540724D02*
X22047143Y-9540724D01*
X22047143Y-9540724D02*
X22118572Y-9576438D01*
X22118572Y-9576438D02*
X22154286Y-9612152D01*
X22154286Y-9612152D02*
X22190000Y-9683581D01*
X22190000Y-9683581D02*
X22190000Y-9755010D01*
X22190000Y-9755010D02*
X22154286Y-9862152D01*
X22154286Y-9862152D02*
X21725714Y-10290724D01*
X21725714Y-10290724D02*
X22190000Y-10290724D01*
X21114999Y-9090724D02*
X20864999Y-8733581D01*
X20686428Y-9090724D02*
X20686428Y-8340724D01*
X20686428Y-8340724D02*
X20972142Y-8340724D01*
X20972142Y-8340724D02*
X21043571Y-8376438D01*
X21043571Y-8376438D02*
X21079285Y-8412152D01*
X21079285Y-8412152D02*
X21114999Y-8483581D01*
X21114999Y-8483581D02*
X21114999Y-8590724D01*
X21114999Y-8590724D02*
X21079285Y-8662152D01*
X21079285Y-8662152D02*
X21043571Y-8697867D01*
X21043571Y-8697867D02*
X20972142Y-8733581D01*
X20972142Y-8733581D02*
X20686428Y-8733581D01*
X21543571Y-8662152D02*
X21472142Y-8626438D01*
X21472142Y-8626438D02*
X21436428Y-8590724D01*
X21436428Y-8590724D02*
X21400714Y-8519295D01*
X21400714Y-8519295D02*
X21400714Y-8483581D01*
X21400714Y-8483581D02*
X21436428Y-8412152D01*
X21436428Y-8412152D02*
X21472142Y-8376438D01*
X21472142Y-8376438D02*
X21543571Y-8340724D01*
X21543571Y-8340724D02*
X21686428Y-8340724D01*
X21686428Y-8340724D02*
X21757857Y-8376438D01*
X21757857Y-8376438D02*
X21793571Y-8412152D01*
X21793571Y-8412152D02*
X21829285Y-8483581D01*
X21829285Y-8483581D02*
X21829285Y-8519295D01*
X21829285Y-8519295D02*
X21793571Y-8590724D01*
X21793571Y-8590724D02*
X21757857Y-8626438D01*
X21757857Y-8626438D02*
X21686428Y-8662152D01*
X21686428Y-8662152D02*
X21543571Y-8662152D01*
X21543571Y-8662152D02*
X21472142Y-8697867D01*
X21472142Y-8697867D02*
X21436428Y-8733581D01*
X21436428Y-8733581D02*
X21400714Y-8805010D01*
X21400714Y-8805010D02*
X21400714Y-8947867D01*
X21400714Y-8947867D02*
X21436428Y-9019295D01*
X21436428Y-9019295D02*
X21472142Y-9055010D01*
X21472142Y-9055010D02*
X21543571Y-9090724D01*
X21543571Y-9090724D02*
X21686428Y-9090724D01*
X21686428Y-9090724D02*
X21757857Y-9055010D01*
X21757857Y-9055010D02*
X21793571Y-9019295D01*
X21793571Y-9019295D02*
X21829285Y-8947867D01*
X21829285Y-8947867D02*
X21829285Y-8805010D01*
X21829285Y-8805010D02*
X21793571Y-8733581D01*
X21793571Y-8733581D02*
X21757857Y-8697867D01*
X21757857Y-8697867D02*
X21686428Y-8662152D01*
X10486428Y-17200902D02*
X10522142Y-17165188D01*
X10522142Y-17165188D02*
X10593571Y-17129474D01*
X10593571Y-17129474D02*
X10772142Y-17129474D01*
X10772142Y-17129474D02*
X10843571Y-17165188D01*
X10843571Y-17165188D02*
X10879285Y-17200902D01*
X10879285Y-17200902D02*
X10914999Y-17272331D01*
X10914999Y-17272331D02*
X10914999Y-17343760D01*
X10914999Y-17343760D02*
X10879285Y-17450902D01*
X10879285Y-17450902D02*
X10450713Y-17879474D01*
X10450713Y-17879474D02*
X10914999Y-17879474D01*
X11200714Y-17200902D02*
X11236428Y-17165188D01*
X11236428Y-17165188D02*
X11307857Y-17129474D01*
X11307857Y-17129474D02*
X11486428Y-17129474D01*
X11486428Y-17129474D02*
X11557857Y-17165188D01*
X11557857Y-17165188D02*
X11593571Y-17200902D01*
X11593571Y-17200902D02*
X11629285Y-17272331D01*
X11629285Y-17272331D02*
X11629285Y-17343760D01*
X11629285Y-17343760D02*
X11593571Y-17450902D01*
X11593571Y-17450902D02*
X11164999Y-17879474D01*
X11164999Y-17879474D02*
X11629285Y-17879474D01*
X12093571Y-17129474D02*
X12165000Y-17129474D01*
X12165000Y-17129474D02*
X12236428Y-17165188D01*
X12236428Y-17165188D02*
X12272143Y-17200902D01*
X12272143Y-17200902D02*
X12307857Y-17272331D01*
X12307857Y-17272331D02*
X12343571Y-17415188D01*
X12343571Y-17415188D02*
X12343571Y-17593760D01*
X12343571Y-17593760D02*
X12307857Y-17736617D01*
X12307857Y-17736617D02*
X12272143Y-17808045D01*
X12272143Y-17808045D02*
X12236428Y-17843760D01*
X12236428Y-17843760D02*
X12165000Y-17879474D01*
X12165000Y-17879474D02*
X12093571Y-17879474D01*
X12093571Y-17879474D02*
X12022143Y-17843760D01*
X12022143Y-17843760D02*
X11986428Y-17808045D01*
X11986428Y-17808045D02*
X11950714Y-17736617D01*
X11950714Y-17736617D02*
X11915000Y-17593760D01*
X11915000Y-17593760D02*
X11915000Y-17415188D01*
X11915000Y-17415188D02*
X11950714Y-17272331D01*
X11950714Y-17272331D02*
X11986428Y-17200902D01*
X11986428Y-17200902D02*
X12022143Y-17165188D01*
X12022143Y-17165188D02*
X12093571Y-17129474D01*
X12665000Y-17879474D02*
X12665000Y-17129474D01*
X13093571Y-17879474D02*
X12772143Y-17450902D01*
X13093571Y-17129474D02*
X12665000Y-17558045D01*
X1294999Y-17939474D02*
X1044999Y-17582331D01*
X866428Y-17939474D02*
X866428Y-17189474D01*
X866428Y-17189474D02*
X1152142Y-17189474D01*
X1152142Y-17189474D02*
X1223571Y-17225188D01*
X1223571Y-17225188D02*
X1259285Y-17260902D01*
X1259285Y-17260902D02*
X1294999Y-17332331D01*
X1294999Y-17332331D02*
X1294999Y-17439474D01*
X1294999Y-17439474D02*
X1259285Y-17510902D01*
X1259285Y-17510902D02*
X1223571Y-17546617D01*
X1223571Y-17546617D02*
X1152142Y-17582331D01*
X1152142Y-17582331D02*
X866428Y-17582331D01*
X1937857Y-17439474D02*
X1937857Y-17939474D01*
X1759285Y-17153760D02*
X1580714Y-17689474D01*
X1580714Y-17689474D02*
X2044999Y-17689474D01*
X4255000Y-40090724D02*
X4397857Y-40090724D01*
X4397857Y-40090724D02*
X4469286Y-40126438D01*
X4469286Y-40126438D02*
X4540714Y-40197867D01*
X4540714Y-40197867D02*
X4576429Y-40340724D01*
X4576429Y-40340724D02*
X4576429Y-40590724D01*
X4576429Y-40590724D02*
X4540714Y-40733581D01*
X4540714Y-40733581D02*
X4469286Y-40805010D01*
X4469286Y-40805010D02*
X4397857Y-40840724D01*
X4397857Y-40840724D02*
X4255000Y-40840724D01*
X4255000Y-40840724D02*
X4183572Y-40805010D01*
X4183572Y-40805010D02*
X4112143Y-40733581D01*
X4112143Y-40733581D02*
X4076429Y-40590724D01*
X4076429Y-40590724D02*
X4076429Y-40340724D01*
X4076429Y-40340724D02*
X4112143Y-40197867D01*
X4112143Y-40197867D02*
X4183572Y-40126438D01*
X4183572Y-40126438D02*
X4255000Y-40090724D01*
X4897857Y-40090724D02*
X4897857Y-40697867D01*
X4897857Y-40697867D02*
X4933571Y-40769295D01*
X4933571Y-40769295D02*
X4969286Y-40805010D01*
X4969286Y-40805010D02*
X5040714Y-40840724D01*
X5040714Y-40840724D02*
X5183571Y-40840724D01*
X5183571Y-40840724D02*
X5255000Y-40805010D01*
X5255000Y-40805010D02*
X5290714Y-40769295D01*
X5290714Y-40769295D02*
X5326428Y-40697867D01*
X5326428Y-40697867D02*
X5326428Y-40090724D01*
X5576428Y-40090724D02*
X6005000Y-40090724D01*
X5790714Y-40840724D02*
X5790714Y-40090724D01*
X5300000Y-35560724D02*
X5300000Y-36096438D01*
X5300000Y-36096438D02*
X5264285Y-36203581D01*
X5264285Y-36203581D02*
X5192857Y-36275010D01*
X5192857Y-36275010D02*
X5085714Y-36310724D01*
X5085714Y-36310724D02*
X5014285Y-36310724D01*
X5621429Y-35632152D02*
X5657143Y-35596438D01*
X5657143Y-35596438D02*
X5728572Y-35560724D01*
X5728572Y-35560724D02*
X5907143Y-35560724D01*
X5907143Y-35560724D02*
X5978572Y-35596438D01*
X5978572Y-35596438D02*
X6014286Y-35632152D01*
X6014286Y-35632152D02*
X6050000Y-35703581D01*
X6050000Y-35703581D02*
X6050000Y-35775010D01*
X6050000Y-35775010D02*
X6014286Y-35882152D01*
X6014286Y-35882152D02*
X5585714Y-36310724D01*
X5585714Y-36310724D02*
X6050000Y-36310724D01*
X61583572Y-6910724D02*
X61440714Y-6910724D01*
X61440714Y-6910724D02*
X61369286Y-6946438D01*
X61369286Y-6946438D02*
X61333572Y-6982152D01*
X61333572Y-6982152D02*
X61262143Y-7089295D01*
X61262143Y-7089295D02*
X61226429Y-7232152D01*
X61226429Y-7232152D02*
X61226429Y-7517867D01*
X61226429Y-7517867D02*
X61262143Y-7589295D01*
X61262143Y-7589295D02*
X61297857Y-7625010D01*
X61297857Y-7625010D02*
X61369286Y-7660724D01*
X61369286Y-7660724D02*
X61512143Y-7660724D01*
X61512143Y-7660724D02*
X61583572Y-7625010D01*
X61583572Y-7625010D02*
X61619286Y-7589295D01*
X61619286Y-7589295D02*
X61655000Y-7517867D01*
X61655000Y-7517867D02*
X61655000Y-7339295D01*
X61655000Y-7339295D02*
X61619286Y-7267867D01*
X61619286Y-7267867D02*
X61583572Y-7232152D01*
X61583572Y-7232152D02*
X61512143Y-7196438D01*
X61512143Y-7196438D02*
X61369286Y-7196438D01*
X61369286Y-7196438D02*
X61297857Y-7232152D01*
X61297857Y-7232152D02*
X61262143Y-7267867D01*
X61262143Y-7267867D02*
X61226429Y-7339295D01*
X62083572Y-7232152D02*
X62012143Y-7196438D01*
X62012143Y-7196438D02*
X61976429Y-7160724D01*
X61976429Y-7160724D02*
X61940715Y-7089295D01*
X61940715Y-7089295D02*
X61940715Y-7053581D01*
X61940715Y-7053581D02*
X61976429Y-6982152D01*
X61976429Y-6982152D02*
X62012143Y-6946438D01*
X62012143Y-6946438D02*
X62083572Y-6910724D01*
X62083572Y-6910724D02*
X62226429Y-6910724D01*
X62226429Y-6910724D02*
X62297858Y-6946438D01*
X62297858Y-6946438D02*
X62333572Y-6982152D01*
X62333572Y-6982152D02*
X62369286Y-7053581D01*
X62369286Y-7053581D02*
X62369286Y-7089295D01*
X62369286Y-7089295D02*
X62333572Y-7160724D01*
X62333572Y-7160724D02*
X62297858Y-7196438D01*
X62297858Y-7196438D02*
X62226429Y-7232152D01*
X62226429Y-7232152D02*
X62083572Y-7232152D01*
X62083572Y-7232152D02*
X62012143Y-7267867D01*
X62012143Y-7267867D02*
X61976429Y-7303581D01*
X61976429Y-7303581D02*
X61940715Y-7375010D01*
X61940715Y-7375010D02*
X61940715Y-7517867D01*
X61940715Y-7517867D02*
X61976429Y-7589295D01*
X61976429Y-7589295D02*
X62012143Y-7625010D01*
X62012143Y-7625010D02*
X62083572Y-7660724D01*
X62083572Y-7660724D02*
X62226429Y-7660724D01*
X62226429Y-7660724D02*
X62297858Y-7625010D01*
X62297858Y-7625010D02*
X62333572Y-7589295D01*
X62333572Y-7589295D02*
X62369286Y-7517867D01*
X62369286Y-7517867D02*
X62369286Y-7375010D01*
X62369286Y-7375010D02*
X62333572Y-7303581D01*
X62333572Y-7303581D02*
X62297858Y-7267867D01*
X62297858Y-7267867D02*
X62226429Y-7232152D01*
X63012144Y-7160724D02*
X63012144Y-7660724D01*
X62690715Y-7160724D02*
X62690715Y-7553581D01*
X62690715Y-7553581D02*
X62726429Y-7625010D01*
X62726429Y-7625010D02*
X62797858Y-7660724D01*
X62797858Y-7660724D02*
X62905001Y-7660724D01*
X62905001Y-7660724D02*
X62976429Y-7625010D01*
X62976429Y-7625010D02*
X63012144Y-7589295D01*
X63369286Y-7660724D02*
X63369286Y-6910724D01*
X63369286Y-7267867D02*
X63797857Y-7267867D01*
X63797857Y-7660724D02*
X63797857Y-6910724D01*
X59435000Y-7650724D02*
X59077857Y-7650724D01*
X59077857Y-7650724D02*
X59077857Y-6900724D01*
X60077857Y-7650724D02*
X59649286Y-7650724D01*
X59863571Y-7650724D02*
X59863571Y-6900724D01*
X59863571Y-6900724D02*
X59792143Y-7007867D01*
X59792143Y-7007867D02*
X59720714Y-7079295D01*
X59720714Y-7079295D02*
X59649286Y-7115010D01*
X10313571Y-27607152D02*
X10349285Y-27571438D01*
X10349285Y-27571438D02*
X10420714Y-27535724D01*
X10420714Y-27535724D02*
X10599285Y-27535724D01*
X10599285Y-27535724D02*
X10670714Y-27571438D01*
X10670714Y-27571438D02*
X10706428Y-27607152D01*
X10706428Y-27607152D02*
X10742142Y-27678581D01*
X10742142Y-27678581D02*
X10742142Y-27750010D01*
X10742142Y-27750010D02*
X10706428Y-27857152D01*
X10706428Y-27857152D02*
X10277856Y-28285724D01*
X10277856Y-28285724D02*
X10742142Y-28285724D01*
X11027857Y-27607152D02*
X11063571Y-27571438D01*
X11063571Y-27571438D02*
X11135000Y-27535724D01*
X11135000Y-27535724D02*
X11313571Y-27535724D01*
X11313571Y-27535724D02*
X11385000Y-27571438D01*
X11385000Y-27571438D02*
X11420714Y-27607152D01*
X11420714Y-27607152D02*
X11456428Y-27678581D01*
X11456428Y-27678581D02*
X11456428Y-27750010D01*
X11456428Y-27750010D02*
X11420714Y-27857152D01*
X11420714Y-27857152D02*
X10992142Y-28285724D01*
X10992142Y-28285724D02*
X11456428Y-28285724D01*
X11777857Y-28285724D02*
X11777857Y-27535724D01*
X12206428Y-28285724D02*
X11885000Y-27857152D01*
X12206428Y-27535724D02*
X11777857Y-27964295D01*
X1554999Y-28425724D02*
X1304999Y-28068581D01*
X1126428Y-28425724D02*
X1126428Y-27675724D01*
X1126428Y-27675724D02*
X1412142Y-27675724D01*
X1412142Y-27675724D02*
X1483571Y-27711438D01*
X1483571Y-27711438D02*
X1519285Y-27747152D01*
X1519285Y-27747152D02*
X1554999Y-27818581D01*
X1554999Y-27818581D02*
X1554999Y-27925724D01*
X1554999Y-27925724D02*
X1519285Y-27997152D01*
X1519285Y-27997152D02*
X1483571Y-28032867D01*
X1483571Y-28032867D02*
X1412142Y-28068581D01*
X1412142Y-28068581D02*
X1126428Y-28068581D01*
X1804999Y-27675724D02*
X2269285Y-27675724D01*
X2269285Y-27675724D02*
X2019285Y-27961438D01*
X2019285Y-27961438D02*
X2126428Y-27961438D01*
X2126428Y-27961438D02*
X2197857Y-27997152D01*
X2197857Y-27997152D02*
X2233571Y-28032867D01*
X2233571Y-28032867D02*
X2269285Y-28104295D01*
X2269285Y-28104295D02*
X2269285Y-28282867D01*
X2269285Y-28282867D02*
X2233571Y-28354295D01*
X2233571Y-28354295D02*
X2197857Y-28390010D01*
X2197857Y-28390010D02*
X2126428Y-28425724D01*
X2126428Y-28425724D02*
X1912142Y-28425724D01*
X1912142Y-28425724D02*
X1840714Y-28390010D01*
X1840714Y-28390010D02*
X1804999Y-28354295D01*
X18503571Y-31722152D02*
X18539285Y-31686438D01*
X18539285Y-31686438D02*
X18610714Y-31650724D01*
X18610714Y-31650724D02*
X18789285Y-31650724D01*
X18789285Y-31650724D02*
X18860714Y-31686438D01*
X18860714Y-31686438D02*
X18896428Y-31722152D01*
X18896428Y-31722152D02*
X18932142Y-31793581D01*
X18932142Y-31793581D02*
X18932142Y-31865010D01*
X18932142Y-31865010D02*
X18896428Y-31972152D01*
X18896428Y-31972152D02*
X18467856Y-32400724D01*
X18467856Y-32400724D02*
X18932142Y-32400724D01*
X19575000Y-31900724D02*
X19575000Y-32400724D01*
X19396428Y-31615010D02*
X19217857Y-32150724D01*
X19217857Y-32150724D02*
X19682142Y-32150724D01*
X19967857Y-32400724D02*
X19967857Y-31650724D01*
X19967857Y-31650724D02*
X20217857Y-32186438D01*
X20217857Y-32186438D02*
X20467857Y-31650724D01*
X20467857Y-31650724D02*
X20467857Y-32400724D01*
X20825000Y-32400724D02*
X20825000Y-31650724D01*
X20825000Y-32007867D02*
X21253571Y-32007867D01*
X21253571Y-32400724D02*
X21253571Y-31650724D01*
X21539285Y-31900724D02*
X21932143Y-31900724D01*
X21932143Y-31900724D02*
X21539285Y-32400724D01*
X21539285Y-32400724D02*
X21932143Y-32400724D01*
X19648571Y-31172152D02*
X19577142Y-31136438D01*
X19577142Y-31136438D02*
X19505714Y-31065010D01*
X19505714Y-31065010D02*
X19398571Y-30957867D01*
X19398571Y-30957867D02*
X19327142Y-30922152D01*
X19327142Y-30922152D02*
X19255714Y-30922152D01*
X19291428Y-31100724D02*
X19220000Y-31065010D01*
X19220000Y-31065010D02*
X19148571Y-30993581D01*
X19148571Y-30993581D02*
X19112857Y-30850724D01*
X19112857Y-30850724D02*
X19112857Y-30600724D01*
X19112857Y-30600724D02*
X19148571Y-30457867D01*
X19148571Y-30457867D02*
X19220000Y-30386438D01*
X19220000Y-30386438D02*
X19291428Y-30350724D01*
X19291428Y-30350724D02*
X19434285Y-30350724D01*
X19434285Y-30350724D02*
X19505714Y-30386438D01*
X19505714Y-30386438D02*
X19577142Y-30457867D01*
X19577142Y-30457867D02*
X19612857Y-30600724D01*
X19612857Y-30600724D02*
X19612857Y-30850724D01*
X19612857Y-30850724D02*
X19577142Y-30993581D01*
X19577142Y-30993581D02*
X19505714Y-31065010D01*
X19505714Y-31065010D02*
X19434285Y-31100724D01*
X19434285Y-31100724D02*
X19291428Y-31100724D01*
X20327142Y-31100724D02*
X19898571Y-31100724D01*
X20112856Y-31100724D02*
X20112856Y-30350724D01*
X20112856Y-30350724D02*
X20041428Y-30457867D01*
X20041428Y-30457867D02*
X19969999Y-30529295D01*
X19969999Y-30529295D02*
X19898571Y-30565010D01*
X57997857Y-29340724D02*
X57569286Y-29340724D01*
X57783571Y-29340724D02*
X57783571Y-28590724D01*
X57783571Y-28590724D02*
X57712143Y-28697867D01*
X57712143Y-28697867D02*
X57640714Y-28769295D01*
X57640714Y-28769295D02*
X57569286Y-28805010D01*
X58319286Y-28840724D02*
X58319286Y-29340724D01*
X58319286Y-28912152D02*
X58355000Y-28876438D01*
X58355000Y-28876438D02*
X58426429Y-28840724D01*
X58426429Y-28840724D02*
X58533572Y-28840724D01*
X58533572Y-28840724D02*
X58605000Y-28876438D01*
X58605000Y-28876438D02*
X58640715Y-28947867D01*
X58640715Y-28947867D02*
X58640715Y-29340724D01*
X59140714Y-28590724D02*
X59212143Y-28590724D01*
X59212143Y-28590724D02*
X59283571Y-28626438D01*
X59283571Y-28626438D02*
X59319286Y-28662152D01*
X59319286Y-28662152D02*
X59355000Y-28733581D01*
X59355000Y-28733581D02*
X59390714Y-28876438D01*
X59390714Y-28876438D02*
X59390714Y-29055010D01*
X59390714Y-29055010D02*
X59355000Y-29197867D01*
X59355000Y-29197867D02*
X59319286Y-29269295D01*
X59319286Y-29269295D02*
X59283571Y-29305010D01*
X59283571Y-29305010D02*
X59212143Y-29340724D01*
X59212143Y-29340724D02*
X59140714Y-29340724D01*
X59140714Y-29340724D02*
X59069286Y-29305010D01*
X59069286Y-29305010D02*
X59033571Y-29269295D01*
X59033571Y-29269295D02*
X58997857Y-29197867D01*
X58997857Y-29197867D02*
X58962143Y-29055010D01*
X58962143Y-29055010D02*
X58962143Y-28876438D01*
X58962143Y-28876438D02*
X58997857Y-28733581D01*
X58997857Y-28733581D02*
X59033571Y-28662152D01*
X59033571Y-28662152D02*
X59069286Y-28626438D01*
X59069286Y-28626438D02*
X59140714Y-28590724D01*
X58734999Y-28349295D02*
X58699285Y-28385010D01*
X58699285Y-28385010D02*
X58592142Y-28420724D01*
X58592142Y-28420724D02*
X58520714Y-28420724D01*
X58520714Y-28420724D02*
X58413571Y-28385010D01*
X58413571Y-28385010D02*
X58342142Y-28313581D01*
X58342142Y-28313581D02*
X58306428Y-28242152D01*
X58306428Y-28242152D02*
X58270714Y-28099295D01*
X58270714Y-28099295D02*
X58270714Y-27992152D01*
X58270714Y-27992152D02*
X58306428Y-27849295D01*
X58306428Y-27849295D02*
X58342142Y-27777867D01*
X58342142Y-27777867D02*
X58413571Y-27706438D01*
X58413571Y-27706438D02*
X58520714Y-27670724D01*
X58520714Y-27670724D02*
X58592142Y-27670724D01*
X58592142Y-27670724D02*
X58699285Y-27706438D01*
X58699285Y-27706438D02*
X58734999Y-27742152D01*
X59449285Y-28420724D02*
X59020714Y-28420724D01*
X59234999Y-28420724D02*
X59234999Y-27670724D01*
X59234999Y-27670724D02*
X59163571Y-27777867D01*
X59163571Y-27777867D02*
X59092142Y-27849295D01*
X59092142Y-27849295D02*
X59020714Y-27885010D01*
X10540000Y-13792152D02*
X10575714Y-13756438D01*
X10575714Y-13756438D02*
X10647143Y-13720724D01*
X10647143Y-13720724D02*
X10825714Y-13720724D01*
X10825714Y-13720724D02*
X10897143Y-13756438D01*
X10897143Y-13756438D02*
X10932857Y-13792152D01*
X10932857Y-13792152D02*
X10968571Y-13863581D01*
X10968571Y-13863581D02*
X10968571Y-13935010D01*
X10968571Y-13935010D02*
X10932857Y-14042152D01*
X10932857Y-14042152D02*
X10504285Y-14470724D01*
X10504285Y-14470724D02*
X10968571Y-14470724D01*
X11290000Y-14470724D02*
X11290000Y-13720724D01*
X11290000Y-13720724D02*
X11540000Y-14256438D01*
X11540000Y-14256438D02*
X11790000Y-13720724D01*
X11790000Y-13720724D02*
X11790000Y-14470724D01*
X12111429Y-13792152D02*
X12147143Y-13756438D01*
X12147143Y-13756438D02*
X12218572Y-13720724D01*
X12218572Y-13720724D02*
X12397143Y-13720724D01*
X12397143Y-13720724D02*
X12468572Y-13756438D01*
X12468572Y-13756438D02*
X12504286Y-13792152D01*
X12504286Y-13792152D02*
X12540000Y-13863581D01*
X12540000Y-13863581D02*
X12540000Y-13935010D01*
X12540000Y-13935010D02*
X12504286Y-14042152D01*
X12504286Y-14042152D02*
X12075714Y-14470724D01*
X12075714Y-14470724D02*
X12540000Y-14470724D01*
X1384999Y-14260724D02*
X1134999Y-13903581D01*
X956428Y-14260724D02*
X956428Y-13510724D01*
X956428Y-13510724D02*
X1242142Y-13510724D01*
X1242142Y-13510724D02*
X1313571Y-13546438D01*
X1313571Y-13546438D02*
X1349285Y-13582152D01*
X1349285Y-13582152D02*
X1384999Y-13653581D01*
X1384999Y-13653581D02*
X1384999Y-13760724D01*
X1384999Y-13760724D02*
X1349285Y-13832152D01*
X1349285Y-13832152D02*
X1313571Y-13867867D01*
X1313571Y-13867867D02*
X1242142Y-13903581D01*
X1242142Y-13903581D02*
X956428Y-13903581D01*
X2063571Y-13510724D02*
X1706428Y-13510724D01*
X1706428Y-13510724D02*
X1670714Y-13867867D01*
X1670714Y-13867867D02*
X1706428Y-13832152D01*
X1706428Y-13832152D02*
X1777857Y-13796438D01*
X1777857Y-13796438D02*
X1956428Y-13796438D01*
X1956428Y-13796438D02*
X2027857Y-13832152D01*
X2027857Y-13832152D02*
X2063571Y-13867867D01*
X2063571Y-13867867D02*
X2099285Y-13939295D01*
X2099285Y-13939295D02*
X2099285Y-14117867D01*
X2099285Y-14117867D02*
X2063571Y-14189295D01*
X2063571Y-14189295D02*
X2027857Y-14225010D01*
X2027857Y-14225010D02*
X1956428Y-14260724D01*
X1956428Y-14260724D02*
X1777857Y-14260724D01*
X1777857Y-14260724D02*
X1706428Y-14225010D01*
X1706428Y-14225010D02*
X1670714Y-14189295D01*
X35323571Y-16662152D02*
X35359285Y-16626438D01*
X35359285Y-16626438D02*
X35430714Y-16590724D01*
X35430714Y-16590724D02*
X35609285Y-16590724D01*
X35609285Y-16590724D02*
X35680714Y-16626438D01*
X35680714Y-16626438D02*
X35716428Y-16662152D01*
X35716428Y-16662152D02*
X35752142Y-16733581D01*
X35752142Y-16733581D02*
X35752142Y-16805010D01*
X35752142Y-16805010D02*
X35716428Y-16912152D01*
X35716428Y-16912152D02*
X35287856Y-17340724D01*
X35287856Y-17340724D02*
X35752142Y-17340724D01*
X36073571Y-17340724D02*
X36073571Y-16590724D01*
X36502142Y-17340724D02*
X36180714Y-16912152D01*
X36502142Y-16590724D02*
X36073571Y-17019295D01*
X36787857Y-16662152D02*
X36823571Y-16626438D01*
X36823571Y-16626438D02*
X36895000Y-16590724D01*
X36895000Y-16590724D02*
X37073571Y-16590724D01*
X37073571Y-16590724D02*
X37145000Y-16626438D01*
X37145000Y-16626438D02*
X37180714Y-16662152D01*
X37180714Y-16662152D02*
X37216428Y-16733581D01*
X37216428Y-16733581D02*
X37216428Y-16805010D01*
X37216428Y-16805010D02*
X37180714Y-16912152D01*
X37180714Y-16912152D02*
X36752142Y-17340724D01*
X36752142Y-17340724D02*
X37216428Y-17340724D01*
X35617856Y-16250724D02*
X35367856Y-15893581D01*
X35189285Y-16250724D02*
X35189285Y-15500724D01*
X35189285Y-15500724D02*
X35474999Y-15500724D01*
X35474999Y-15500724D02*
X35546428Y-15536438D01*
X35546428Y-15536438D02*
X35582142Y-15572152D01*
X35582142Y-15572152D02*
X35617856Y-15643581D01*
X35617856Y-15643581D02*
X35617856Y-15750724D01*
X35617856Y-15750724D02*
X35582142Y-15822152D01*
X35582142Y-15822152D02*
X35546428Y-15857867D01*
X35546428Y-15857867D02*
X35474999Y-15893581D01*
X35474999Y-15893581D02*
X35189285Y-15893581D01*
X36332142Y-16250724D02*
X35903571Y-16250724D01*
X36117856Y-16250724D02*
X36117856Y-15500724D01*
X36117856Y-15500724D02*
X36046428Y-15607867D01*
X36046428Y-15607867D02*
X35974999Y-15679295D01*
X35974999Y-15679295D02*
X35903571Y-15715010D01*
X36975000Y-15500724D02*
X36832142Y-15500724D01*
X36832142Y-15500724D02*
X36760714Y-15536438D01*
X36760714Y-15536438D02*
X36725000Y-15572152D01*
X36725000Y-15572152D02*
X36653571Y-15679295D01*
X36653571Y-15679295D02*
X36617857Y-15822152D01*
X36617857Y-15822152D02*
X36617857Y-16107867D01*
X36617857Y-16107867D02*
X36653571Y-16179295D01*
X36653571Y-16179295D02*
X36689285Y-16215010D01*
X36689285Y-16215010D02*
X36760714Y-16250724D01*
X36760714Y-16250724D02*
X36903571Y-16250724D01*
X36903571Y-16250724D02*
X36975000Y-16215010D01*
X36975000Y-16215010D02*
X37010714Y-16179295D01*
X37010714Y-16179295D02*
X37046428Y-16107867D01*
X37046428Y-16107867D02*
X37046428Y-15929295D01*
X37046428Y-15929295D02*
X37010714Y-15857867D01*
X37010714Y-15857867D02*
X36975000Y-15822152D01*
X36975000Y-15822152D02*
X36903571Y-15786438D01*
X36903571Y-15786438D02*
X36760714Y-15786438D01*
X36760714Y-15786438D02*
X36689285Y-15822152D01*
X36689285Y-15822152D02*
X36653571Y-15857867D01*
X36653571Y-15857867D02*
X36617857Y-15929295D01*
X25123570Y-30649295D02*
X25087856Y-30685010D01*
X25087856Y-30685010D02*
X24980713Y-30720724D01*
X24980713Y-30720724D02*
X24909285Y-30720724D01*
X24909285Y-30720724D02*
X24802142Y-30685010D01*
X24802142Y-30685010D02*
X24730713Y-30613581D01*
X24730713Y-30613581D02*
X24694999Y-30542152D01*
X24694999Y-30542152D02*
X24659285Y-30399295D01*
X24659285Y-30399295D02*
X24659285Y-30292152D01*
X24659285Y-30292152D02*
X24694999Y-30149295D01*
X24694999Y-30149295D02*
X24730713Y-30077867D01*
X24730713Y-30077867D02*
X24802142Y-30006438D01*
X24802142Y-30006438D02*
X24909285Y-29970724D01*
X24909285Y-29970724D02*
X24980713Y-29970724D01*
X24980713Y-29970724D02*
X25087856Y-30006438D01*
X25087856Y-30006438D02*
X25123570Y-30042152D01*
X25444999Y-30720724D02*
X25444999Y-29970724D01*
X25444999Y-30327867D02*
X25873570Y-30327867D01*
X25873570Y-30720724D02*
X25873570Y-29970724D01*
X26159284Y-29970724D02*
X26623570Y-29970724D01*
X26623570Y-29970724D02*
X26373570Y-30256438D01*
X26373570Y-30256438D02*
X26480713Y-30256438D01*
X26480713Y-30256438D02*
X26552142Y-30292152D01*
X26552142Y-30292152D02*
X26587856Y-30327867D01*
X26587856Y-30327867D02*
X26623570Y-30399295D01*
X26623570Y-30399295D02*
X26623570Y-30577867D01*
X26623570Y-30577867D02*
X26587856Y-30649295D01*
X26587856Y-30649295D02*
X26552142Y-30685010D01*
X26552142Y-30685010D02*
X26480713Y-30720724D01*
X26480713Y-30720724D02*
X26266427Y-30720724D01*
X26266427Y-30720724D02*
X26194999Y-30685010D01*
X26194999Y-30685010D02*
X26159284Y-30649295D01*
X26909285Y-30042152D02*
X26944999Y-30006438D01*
X26944999Y-30006438D02*
X27016428Y-29970724D01*
X27016428Y-29970724D02*
X27194999Y-29970724D01*
X27194999Y-29970724D02*
X27266428Y-30006438D01*
X27266428Y-30006438D02*
X27302142Y-30042152D01*
X27302142Y-30042152D02*
X27337856Y-30113581D01*
X27337856Y-30113581D02*
X27337856Y-30185010D01*
X27337856Y-30185010D02*
X27302142Y-30292152D01*
X27302142Y-30292152D02*
X26873570Y-30720724D01*
X26873570Y-30720724D02*
X27337856Y-30720724D01*
X27552142Y-29970724D02*
X27802142Y-30720724D01*
X27802142Y-30720724D02*
X28052142Y-29970724D01*
X28444999Y-29970724D02*
X28516428Y-29970724D01*
X28516428Y-29970724D02*
X28587856Y-30006438D01*
X28587856Y-30006438D02*
X28623571Y-30042152D01*
X28623571Y-30042152D02*
X28659285Y-30113581D01*
X28659285Y-30113581D02*
X28694999Y-30256438D01*
X28694999Y-30256438D02*
X28694999Y-30435010D01*
X28694999Y-30435010D02*
X28659285Y-30577867D01*
X28659285Y-30577867D02*
X28623571Y-30649295D01*
X28623571Y-30649295D02*
X28587856Y-30685010D01*
X28587856Y-30685010D02*
X28516428Y-30720724D01*
X28516428Y-30720724D02*
X28444999Y-30720724D01*
X28444999Y-30720724D02*
X28373571Y-30685010D01*
X28373571Y-30685010D02*
X28337856Y-30649295D01*
X28337856Y-30649295D02*
X28302142Y-30577867D01*
X28302142Y-30577867D02*
X28266428Y-30435010D01*
X28266428Y-30435010D02*
X28266428Y-30256438D01*
X28266428Y-30256438D02*
X28302142Y-30113581D01*
X28302142Y-30113581D02*
X28337856Y-30042152D01*
X28337856Y-30042152D02*
X28373571Y-30006438D01*
X28373571Y-30006438D02*
X28444999Y-29970724D01*
X29159285Y-29970724D02*
X29230714Y-29970724D01*
X29230714Y-29970724D02*
X29302142Y-30006438D01*
X29302142Y-30006438D02*
X29337857Y-30042152D01*
X29337857Y-30042152D02*
X29373571Y-30113581D01*
X29373571Y-30113581D02*
X29409285Y-30256438D01*
X29409285Y-30256438D02*
X29409285Y-30435010D01*
X29409285Y-30435010D02*
X29373571Y-30577867D01*
X29373571Y-30577867D02*
X29337857Y-30649295D01*
X29337857Y-30649295D02*
X29302142Y-30685010D01*
X29302142Y-30685010D02*
X29230714Y-30720724D01*
X29230714Y-30720724D02*
X29159285Y-30720724D01*
X29159285Y-30720724D02*
X29087857Y-30685010D01*
X29087857Y-30685010D02*
X29052142Y-30649295D01*
X29052142Y-30649295D02*
X29016428Y-30577867D01*
X29016428Y-30577867D02*
X28980714Y-30435010D01*
X28980714Y-30435010D02*
X28980714Y-30256438D01*
X28980714Y-30256438D02*
X29016428Y-30113581D01*
X29016428Y-30113581D02*
X29052142Y-30042152D01*
X29052142Y-30042152D02*
X29087857Y-30006438D01*
X29087857Y-30006438D02*
X29159285Y-29970724D01*
X30052143Y-29970724D02*
X29909285Y-29970724D01*
X29909285Y-29970724D02*
X29837857Y-30006438D01*
X29837857Y-30006438D02*
X29802143Y-30042152D01*
X29802143Y-30042152D02*
X29730714Y-30149295D01*
X29730714Y-30149295D02*
X29695000Y-30292152D01*
X29695000Y-30292152D02*
X29695000Y-30577867D01*
X29695000Y-30577867D02*
X29730714Y-30649295D01*
X29730714Y-30649295D02*
X29766428Y-30685010D01*
X29766428Y-30685010D02*
X29837857Y-30720724D01*
X29837857Y-30720724D02*
X29980714Y-30720724D01*
X29980714Y-30720724D02*
X30052143Y-30685010D01*
X30052143Y-30685010D02*
X30087857Y-30649295D01*
X30087857Y-30649295D02*
X30123571Y-30577867D01*
X30123571Y-30577867D02*
X30123571Y-30399295D01*
X30123571Y-30399295D02*
X30087857Y-30327867D01*
X30087857Y-30327867D02*
X30052143Y-30292152D01*
X30052143Y-30292152D02*
X29980714Y-30256438D01*
X29980714Y-30256438D02*
X29837857Y-30256438D01*
X29837857Y-30256438D02*
X29766428Y-30292152D01*
X29766428Y-30292152D02*
X29730714Y-30327867D01*
X29730714Y-30327867D02*
X29695000Y-30399295D01*
X30445000Y-30327867D02*
X30695000Y-30327867D01*
X30802143Y-30720724D02*
X30445000Y-30720724D01*
X30445000Y-30720724D02*
X30445000Y-29970724D01*
X30445000Y-29970724D02*
X30802143Y-29970724D01*
X31230714Y-30292152D02*
X31159285Y-30256438D01*
X31159285Y-30256438D02*
X31123571Y-30220724D01*
X31123571Y-30220724D02*
X31087857Y-30149295D01*
X31087857Y-30149295D02*
X31087857Y-30113581D01*
X31087857Y-30113581D02*
X31123571Y-30042152D01*
X31123571Y-30042152D02*
X31159285Y-30006438D01*
X31159285Y-30006438D02*
X31230714Y-29970724D01*
X31230714Y-29970724D02*
X31373571Y-29970724D01*
X31373571Y-29970724D02*
X31445000Y-30006438D01*
X31445000Y-30006438D02*
X31480714Y-30042152D01*
X31480714Y-30042152D02*
X31516428Y-30113581D01*
X31516428Y-30113581D02*
X31516428Y-30149295D01*
X31516428Y-30149295D02*
X31480714Y-30220724D01*
X31480714Y-30220724D02*
X31445000Y-30256438D01*
X31445000Y-30256438D02*
X31373571Y-30292152D01*
X31373571Y-30292152D02*
X31230714Y-30292152D01*
X31230714Y-30292152D02*
X31159285Y-30327867D01*
X31159285Y-30327867D02*
X31123571Y-30363581D01*
X31123571Y-30363581D02*
X31087857Y-30435010D01*
X31087857Y-30435010D02*
X31087857Y-30577867D01*
X31087857Y-30577867D02*
X31123571Y-30649295D01*
X31123571Y-30649295D02*
X31159285Y-30685010D01*
X31159285Y-30685010D02*
X31230714Y-30720724D01*
X31230714Y-30720724D02*
X31373571Y-30720724D01*
X31373571Y-30720724D02*
X31445000Y-30685010D01*
X31445000Y-30685010D02*
X31480714Y-30649295D01*
X31480714Y-30649295D02*
X31516428Y-30577867D01*
X31516428Y-30577867D02*
X31516428Y-30435010D01*
X31516428Y-30435010D02*
X31480714Y-30363581D01*
X31480714Y-30363581D02*
X31445000Y-30327867D01*
X31445000Y-30327867D02*
X31373571Y-30292152D01*
X32266428Y-30720724D02*
X32016428Y-30363581D01*
X31837857Y-30720724D02*
X31837857Y-29970724D01*
X31837857Y-29970724D02*
X32123571Y-29970724D01*
X32123571Y-29970724D02*
X32195000Y-30006438D01*
X32195000Y-30006438D02*
X32230714Y-30042152D01*
X32230714Y-30042152D02*
X32266428Y-30113581D01*
X32266428Y-30113581D02*
X32266428Y-30220724D01*
X32266428Y-30220724D02*
X32230714Y-30292152D01*
X32230714Y-30292152D02*
X32195000Y-30327867D01*
X32195000Y-30327867D02*
X32123571Y-30363581D01*
X32123571Y-30363581D02*
X31837857Y-30363581D01*
X32909286Y-29970724D02*
X32766428Y-29970724D01*
X32766428Y-29970724D02*
X32695000Y-30006438D01*
X32695000Y-30006438D02*
X32659286Y-30042152D01*
X32659286Y-30042152D02*
X32587857Y-30149295D01*
X32587857Y-30149295D02*
X32552143Y-30292152D01*
X32552143Y-30292152D02*
X32552143Y-30577867D01*
X32552143Y-30577867D02*
X32587857Y-30649295D01*
X32587857Y-30649295D02*
X32623571Y-30685010D01*
X32623571Y-30685010D02*
X32695000Y-30720724D01*
X32695000Y-30720724D02*
X32837857Y-30720724D01*
X32837857Y-30720724D02*
X32909286Y-30685010D01*
X32909286Y-30685010D02*
X32945000Y-30649295D01*
X32945000Y-30649295D02*
X32980714Y-30577867D01*
X32980714Y-30577867D02*
X32980714Y-30399295D01*
X32980714Y-30399295D02*
X32945000Y-30327867D01*
X32945000Y-30327867D02*
X32909286Y-30292152D01*
X32909286Y-30292152D02*
X32837857Y-30256438D01*
X32837857Y-30256438D02*
X32695000Y-30256438D01*
X32695000Y-30256438D02*
X32623571Y-30292152D01*
X32623571Y-30292152D02*
X32587857Y-30327867D01*
X32587857Y-30327867D02*
X32552143Y-30399295D01*
X27757857Y-32180724D02*
X27757857Y-31430724D01*
X28543571Y-32109295D02*
X28507857Y-32145010D01*
X28507857Y-32145010D02*
X28400714Y-32180724D01*
X28400714Y-32180724D02*
X28329286Y-32180724D01*
X28329286Y-32180724D02*
X28222143Y-32145010D01*
X28222143Y-32145010D02*
X28150714Y-32073581D01*
X28150714Y-32073581D02*
X28115000Y-32002152D01*
X28115000Y-32002152D02*
X28079286Y-31859295D01*
X28079286Y-31859295D02*
X28079286Y-31752152D01*
X28079286Y-31752152D02*
X28115000Y-31609295D01*
X28115000Y-31609295D02*
X28150714Y-31537867D01*
X28150714Y-31537867D02*
X28222143Y-31466438D01*
X28222143Y-31466438D02*
X28329286Y-31430724D01*
X28329286Y-31430724D02*
X28400714Y-31430724D01*
X28400714Y-31430724D02*
X28507857Y-31466438D01*
X28507857Y-31466438D02*
X28543571Y-31502152D01*
X29257857Y-32180724D02*
X28829286Y-32180724D01*
X29043571Y-32180724D02*
X29043571Y-31430724D01*
X29043571Y-31430724D02*
X28972143Y-31537867D01*
X28972143Y-31537867D02*
X28900714Y-31609295D01*
X28900714Y-31609295D02*
X28829286Y-31645010D01*
X47893571Y-29592152D02*
X47929285Y-29556438D01*
X47929285Y-29556438D02*
X48000714Y-29520724D01*
X48000714Y-29520724D02*
X48179285Y-29520724D01*
X48179285Y-29520724D02*
X48250714Y-29556438D01*
X48250714Y-29556438D02*
X48286428Y-29592152D01*
X48286428Y-29592152D02*
X48322142Y-29663581D01*
X48322142Y-29663581D02*
X48322142Y-29735010D01*
X48322142Y-29735010D02*
X48286428Y-29842152D01*
X48286428Y-29842152D02*
X47857856Y-30270724D01*
X47857856Y-30270724D02*
X48322142Y-30270724D01*
X48643571Y-30270724D02*
X48643571Y-29520724D01*
X49072142Y-30270724D02*
X48750714Y-29842152D01*
X49072142Y-29520724D02*
X48643571Y-29949295D01*
X49357857Y-29592152D02*
X49393571Y-29556438D01*
X49393571Y-29556438D02*
X49465000Y-29520724D01*
X49465000Y-29520724D02*
X49643571Y-29520724D01*
X49643571Y-29520724D02*
X49715000Y-29556438D01*
X49715000Y-29556438D02*
X49750714Y-29592152D01*
X49750714Y-29592152D02*
X49786428Y-29663581D01*
X49786428Y-29663581D02*
X49786428Y-29735010D01*
X49786428Y-29735010D02*
X49750714Y-29842152D01*
X49750714Y-29842152D02*
X49322142Y-30270724D01*
X49322142Y-30270724D02*
X49786428Y-30270724D01*
X45597856Y-30330724D02*
X45347856Y-29973581D01*
X45169285Y-30330724D02*
X45169285Y-29580724D01*
X45169285Y-29580724D02*
X45454999Y-29580724D01*
X45454999Y-29580724D02*
X45526428Y-29616438D01*
X45526428Y-29616438D02*
X45562142Y-29652152D01*
X45562142Y-29652152D02*
X45597856Y-29723581D01*
X45597856Y-29723581D02*
X45597856Y-29830724D01*
X45597856Y-29830724D02*
X45562142Y-29902152D01*
X45562142Y-29902152D02*
X45526428Y-29937867D01*
X45526428Y-29937867D02*
X45454999Y-29973581D01*
X45454999Y-29973581D02*
X45169285Y-29973581D01*
X46312142Y-30330724D02*
X45883571Y-30330724D01*
X46097856Y-30330724D02*
X46097856Y-29580724D01*
X46097856Y-29580724D02*
X46026428Y-29687867D01*
X46026428Y-29687867D02*
X45954999Y-29759295D01*
X45954999Y-29759295D02*
X45883571Y-29795010D01*
X46562142Y-29580724D02*
X47026428Y-29580724D01*
X47026428Y-29580724D02*
X46776428Y-29866438D01*
X46776428Y-29866438D02*
X46883571Y-29866438D01*
X46883571Y-29866438D02*
X46955000Y-29902152D01*
X46955000Y-29902152D02*
X46990714Y-29937867D01*
X46990714Y-29937867D02*
X47026428Y-30009295D01*
X47026428Y-30009295D02*
X47026428Y-30187867D01*
X47026428Y-30187867D02*
X46990714Y-30259295D01*
X46990714Y-30259295D02*
X46955000Y-30295010D01*
X46955000Y-30295010D02*
X46883571Y-30330724D01*
X46883571Y-30330724D02*
X46669285Y-30330724D01*
X46669285Y-30330724D02*
X46597857Y-30295010D01*
X46597857Y-30295010D02*
X46562142Y-30259295D01*
X36449286Y-10072152D02*
X36485000Y-10036438D01*
X36485000Y-10036438D02*
X36556429Y-10000724D01*
X36556429Y-10000724D02*
X36735000Y-10000724D01*
X36735000Y-10000724D02*
X36806429Y-10036438D01*
X36806429Y-10036438D02*
X36842143Y-10072152D01*
X36842143Y-10072152D02*
X36877857Y-10143581D01*
X36877857Y-10143581D02*
X36877857Y-10215010D01*
X36877857Y-10215010D02*
X36842143Y-10322152D01*
X36842143Y-10322152D02*
X36413571Y-10750724D01*
X36413571Y-10750724D02*
X36877857Y-10750724D01*
X37163572Y-10072152D02*
X37199286Y-10036438D01*
X37199286Y-10036438D02*
X37270715Y-10000724D01*
X37270715Y-10000724D02*
X37449286Y-10000724D01*
X37449286Y-10000724D02*
X37520715Y-10036438D01*
X37520715Y-10036438D02*
X37556429Y-10072152D01*
X37556429Y-10072152D02*
X37592143Y-10143581D01*
X37592143Y-10143581D02*
X37592143Y-10215010D01*
X37592143Y-10215010D02*
X37556429Y-10322152D01*
X37556429Y-10322152D02*
X37127857Y-10750724D01*
X37127857Y-10750724D02*
X37592143Y-10750724D01*
X37913572Y-10250724D02*
X37913572Y-10750724D01*
X37913572Y-10322152D02*
X37949286Y-10286438D01*
X37949286Y-10286438D02*
X38020715Y-10250724D01*
X38020715Y-10250724D02*
X38127858Y-10250724D01*
X38127858Y-10250724D02*
X38199286Y-10286438D01*
X38199286Y-10286438D02*
X38235001Y-10357867D01*
X38235001Y-10357867D02*
X38235001Y-10750724D01*
X37724999Y-7179295D02*
X37689285Y-7215010D01*
X37689285Y-7215010D02*
X37582142Y-7250724D01*
X37582142Y-7250724D02*
X37510714Y-7250724D01*
X37510714Y-7250724D02*
X37403571Y-7215010D01*
X37403571Y-7215010D02*
X37332142Y-7143581D01*
X37332142Y-7143581D02*
X37296428Y-7072152D01*
X37296428Y-7072152D02*
X37260714Y-6929295D01*
X37260714Y-6929295D02*
X37260714Y-6822152D01*
X37260714Y-6822152D02*
X37296428Y-6679295D01*
X37296428Y-6679295D02*
X37332142Y-6607867D01*
X37332142Y-6607867D02*
X37403571Y-6536438D01*
X37403571Y-6536438D02*
X37510714Y-6500724D01*
X37510714Y-6500724D02*
X37582142Y-6500724D01*
X37582142Y-6500724D02*
X37689285Y-6536438D01*
X37689285Y-6536438D02*
X37724999Y-6572152D01*
X38367857Y-6750724D02*
X38367857Y-7250724D01*
X38189285Y-6465010D02*
X38010714Y-7000724D01*
X38010714Y-7000724D02*
X38474999Y-7000724D01*
X43026428Y-27710724D02*
X42597857Y-27710724D01*
X42812142Y-27710724D02*
X42812142Y-26960724D01*
X42812142Y-26960724D02*
X42740714Y-27067867D01*
X42740714Y-27067867D02*
X42669285Y-27139295D01*
X42669285Y-27139295D02*
X42597857Y-27175010D01*
X43490714Y-26960724D02*
X43562143Y-26960724D01*
X43562143Y-26960724D02*
X43633571Y-26996438D01*
X43633571Y-26996438D02*
X43669286Y-27032152D01*
X43669286Y-27032152D02*
X43705000Y-27103581D01*
X43705000Y-27103581D02*
X43740714Y-27246438D01*
X43740714Y-27246438D02*
X43740714Y-27425010D01*
X43740714Y-27425010D02*
X43705000Y-27567867D01*
X43705000Y-27567867D02*
X43669286Y-27639295D01*
X43669286Y-27639295D02*
X43633571Y-27675010D01*
X43633571Y-27675010D02*
X43562143Y-27710724D01*
X43562143Y-27710724D02*
X43490714Y-27710724D01*
X43490714Y-27710724D02*
X43419286Y-27675010D01*
X43419286Y-27675010D02*
X43383571Y-27639295D01*
X43383571Y-27639295D02*
X43347857Y-27567867D01*
X43347857Y-27567867D02*
X43312143Y-27425010D01*
X43312143Y-27425010D02*
X43312143Y-27246438D01*
X43312143Y-27246438D02*
X43347857Y-27103581D01*
X43347857Y-27103581D02*
X43383571Y-27032152D01*
X43383571Y-27032152D02*
X43419286Y-26996438D01*
X43419286Y-26996438D02*
X43490714Y-26960724D01*
X44383572Y-27210724D02*
X44383572Y-27710724D01*
X44062143Y-27210724D02*
X44062143Y-27603581D01*
X44062143Y-27603581D02*
X44097857Y-27675010D01*
X44097857Y-27675010D02*
X44169286Y-27710724D01*
X44169286Y-27710724D02*
X44276429Y-27710724D01*
X44276429Y-27710724D02*
X44347857Y-27675010D01*
X44347857Y-27675010D02*
X44383572Y-27639295D01*
X44990714Y-27317867D02*
X44740714Y-27317867D01*
X44740714Y-27710724D02*
X44740714Y-26960724D01*
X44740714Y-26960724D02*
X45097857Y-26960724D01*
X43227856Y-26619295D02*
X43192142Y-26655010D01*
X43192142Y-26655010D02*
X43084999Y-26690724D01*
X43084999Y-26690724D02*
X43013571Y-26690724D01*
X43013571Y-26690724D02*
X42906428Y-26655010D01*
X42906428Y-26655010D02*
X42834999Y-26583581D01*
X42834999Y-26583581D02*
X42799285Y-26512152D01*
X42799285Y-26512152D02*
X42763571Y-26369295D01*
X42763571Y-26369295D02*
X42763571Y-26262152D01*
X42763571Y-26262152D02*
X42799285Y-26119295D01*
X42799285Y-26119295D02*
X42834999Y-26047867D01*
X42834999Y-26047867D02*
X42906428Y-25976438D01*
X42906428Y-25976438D02*
X43013571Y-25940724D01*
X43013571Y-25940724D02*
X43084999Y-25940724D01*
X43084999Y-25940724D02*
X43192142Y-25976438D01*
X43192142Y-25976438D02*
X43227856Y-26012152D01*
X43942142Y-26690724D02*
X43513571Y-26690724D01*
X43727856Y-26690724D02*
X43727856Y-25940724D01*
X43727856Y-25940724D02*
X43656428Y-26047867D01*
X43656428Y-26047867D02*
X43584999Y-26119295D01*
X43584999Y-26119295D02*
X43513571Y-26155010D01*
X44656428Y-26690724D02*
X44227857Y-26690724D01*
X44442142Y-26690724D02*
X44442142Y-25940724D01*
X44442142Y-25940724D02*
X44370714Y-26047867D01*
X44370714Y-26047867D02*
X44299285Y-26119295D01*
X44299285Y-26119295D02*
X44227857Y-26155010D01*
X14183571Y-12692152D02*
X14219285Y-12656438D01*
X14219285Y-12656438D02*
X14290714Y-12620724D01*
X14290714Y-12620724D02*
X14469285Y-12620724D01*
X14469285Y-12620724D02*
X14540714Y-12656438D01*
X14540714Y-12656438D02*
X14576428Y-12692152D01*
X14576428Y-12692152D02*
X14612142Y-12763581D01*
X14612142Y-12763581D02*
X14612142Y-12835010D01*
X14612142Y-12835010D02*
X14576428Y-12942152D01*
X14576428Y-12942152D02*
X14147856Y-13370724D01*
X14147856Y-13370724D02*
X14612142Y-13370724D01*
X14933571Y-13370724D02*
X14933571Y-12620724D01*
X15362142Y-13370724D02*
X15040714Y-12942152D01*
X15362142Y-12620724D02*
X14933571Y-13049295D01*
X15647857Y-12692152D02*
X15683571Y-12656438D01*
X15683571Y-12656438D02*
X15755000Y-12620724D01*
X15755000Y-12620724D02*
X15933571Y-12620724D01*
X15933571Y-12620724D02*
X16005000Y-12656438D01*
X16005000Y-12656438D02*
X16040714Y-12692152D01*
X16040714Y-12692152D02*
X16076428Y-12763581D01*
X16076428Y-12763581D02*
X16076428Y-12835010D01*
X16076428Y-12835010D02*
X16040714Y-12942152D01*
X16040714Y-12942152D02*
X15612142Y-13370724D01*
X15612142Y-13370724D02*
X16076428Y-13370724D01*
X14627856Y-14650724D02*
X14377856Y-14293581D01*
X14199285Y-14650724D02*
X14199285Y-13900724D01*
X14199285Y-13900724D02*
X14484999Y-13900724D01*
X14484999Y-13900724D02*
X14556428Y-13936438D01*
X14556428Y-13936438D02*
X14592142Y-13972152D01*
X14592142Y-13972152D02*
X14627856Y-14043581D01*
X14627856Y-14043581D02*
X14627856Y-14150724D01*
X14627856Y-14150724D02*
X14592142Y-14222152D01*
X14592142Y-14222152D02*
X14556428Y-14257867D01*
X14556428Y-14257867D02*
X14484999Y-14293581D01*
X14484999Y-14293581D02*
X14199285Y-14293581D01*
X15342142Y-14650724D02*
X14913571Y-14650724D01*
X15127856Y-14650724D02*
X15127856Y-13900724D01*
X15127856Y-13900724D02*
X15056428Y-14007867D01*
X15056428Y-14007867D02*
X14984999Y-14079295D01*
X14984999Y-14079295D02*
X14913571Y-14115010D01*
X15806428Y-13900724D02*
X15877857Y-13900724D01*
X15877857Y-13900724D02*
X15949285Y-13936438D01*
X15949285Y-13936438D02*
X15985000Y-13972152D01*
X15985000Y-13972152D02*
X16020714Y-14043581D01*
X16020714Y-14043581D02*
X16056428Y-14186438D01*
X16056428Y-14186438D02*
X16056428Y-14365010D01*
X16056428Y-14365010D02*
X16020714Y-14507867D01*
X16020714Y-14507867D02*
X15985000Y-14579295D01*
X15985000Y-14579295D02*
X15949285Y-14615010D01*
X15949285Y-14615010D02*
X15877857Y-14650724D01*
X15877857Y-14650724D02*
X15806428Y-14650724D01*
X15806428Y-14650724D02*
X15735000Y-14615010D01*
X15735000Y-14615010D02*
X15699285Y-14579295D01*
X15699285Y-14579295D02*
X15663571Y-14507867D01*
X15663571Y-14507867D02*
X15627857Y-14365010D01*
X15627857Y-14365010D02*
X15627857Y-14186438D01*
X15627857Y-14186438D02*
X15663571Y-14043581D01*
X15663571Y-14043581D02*
X15699285Y-13972152D01*
X15699285Y-13972152D02*
X15735000Y-13936438D01*
X15735000Y-13936438D02*
X15806428Y-13900724D01*
X28243571Y-19072152D02*
X28279285Y-19036438D01*
X28279285Y-19036438D02*
X28350714Y-19000724D01*
X28350714Y-19000724D02*
X28529285Y-19000724D01*
X28529285Y-19000724D02*
X28600714Y-19036438D01*
X28600714Y-19036438D02*
X28636428Y-19072152D01*
X28636428Y-19072152D02*
X28672142Y-19143581D01*
X28672142Y-19143581D02*
X28672142Y-19215010D01*
X28672142Y-19215010D02*
X28636428Y-19322152D01*
X28636428Y-19322152D02*
X28207856Y-19750724D01*
X28207856Y-19750724D02*
X28672142Y-19750724D01*
X28993571Y-19750724D02*
X28993571Y-19000724D01*
X29422142Y-19750724D02*
X29100714Y-19322152D01*
X29422142Y-19000724D02*
X28993571Y-19429295D01*
X29707857Y-19072152D02*
X29743571Y-19036438D01*
X29743571Y-19036438D02*
X29815000Y-19000724D01*
X29815000Y-19000724D02*
X29993571Y-19000724D01*
X29993571Y-19000724D02*
X30065000Y-19036438D01*
X30065000Y-19036438D02*
X30100714Y-19072152D01*
X30100714Y-19072152D02*
X30136428Y-19143581D01*
X30136428Y-19143581D02*
X30136428Y-19215010D01*
X30136428Y-19215010D02*
X30100714Y-19322152D01*
X30100714Y-19322152D02*
X29672142Y-19750724D01*
X29672142Y-19750724D02*
X30136428Y-19750724D01*
X26017856Y-19880724D02*
X25767856Y-19523581D01*
X25589285Y-19880724D02*
X25589285Y-19130724D01*
X25589285Y-19130724D02*
X25874999Y-19130724D01*
X25874999Y-19130724D02*
X25946428Y-19166438D01*
X25946428Y-19166438D02*
X25982142Y-19202152D01*
X25982142Y-19202152D02*
X26017856Y-19273581D01*
X26017856Y-19273581D02*
X26017856Y-19380724D01*
X26017856Y-19380724D02*
X25982142Y-19452152D01*
X25982142Y-19452152D02*
X25946428Y-19487867D01*
X25946428Y-19487867D02*
X25874999Y-19523581D01*
X25874999Y-19523581D02*
X25589285Y-19523581D01*
X26732142Y-19880724D02*
X26303571Y-19880724D01*
X26517856Y-19880724D02*
X26517856Y-19130724D01*
X26517856Y-19130724D02*
X26446428Y-19237867D01*
X26446428Y-19237867D02*
X26374999Y-19309295D01*
X26374999Y-19309295D02*
X26303571Y-19345010D01*
X27446428Y-19880724D02*
X27017857Y-19880724D01*
X27232142Y-19880724D02*
X27232142Y-19130724D01*
X27232142Y-19130724D02*
X27160714Y-19237867D01*
X27160714Y-19237867D02*
X27089285Y-19309295D01*
X27089285Y-19309295D02*
X27017857Y-19345010D01*
X42513571Y-20730724D02*
X42513571Y-21230724D01*
X42334999Y-20445010D02*
X42156428Y-20980724D01*
X42156428Y-20980724D02*
X42620713Y-20980724D01*
X42834999Y-20480724D02*
X43334999Y-20480724D01*
X43334999Y-20480724D02*
X43013571Y-21230724D01*
X43763571Y-20480724D02*
X43835000Y-20480724D01*
X43835000Y-20480724D02*
X43906428Y-20516438D01*
X43906428Y-20516438D02*
X43942143Y-20552152D01*
X43942143Y-20552152D02*
X43977857Y-20623581D01*
X43977857Y-20623581D02*
X44013571Y-20766438D01*
X44013571Y-20766438D02*
X44013571Y-20945010D01*
X44013571Y-20945010D02*
X43977857Y-21087867D01*
X43977857Y-21087867D02*
X43942143Y-21159295D01*
X43942143Y-21159295D02*
X43906428Y-21195010D01*
X43906428Y-21195010D02*
X43835000Y-21230724D01*
X43835000Y-21230724D02*
X43763571Y-21230724D01*
X43763571Y-21230724D02*
X43692143Y-21195010D01*
X43692143Y-21195010D02*
X43656428Y-21159295D01*
X43656428Y-21159295D02*
X43620714Y-21087867D01*
X43620714Y-21087867D02*
X43585000Y-20945010D01*
X43585000Y-20945010D02*
X43585000Y-20766438D01*
X43585000Y-20766438D02*
X43620714Y-20623581D01*
X43620714Y-20623581D02*
X43656428Y-20552152D01*
X43656428Y-20552152D02*
X43692143Y-20516438D01*
X43692143Y-20516438D02*
X43763571Y-20480724D01*
X44335000Y-21230724D02*
X44335000Y-20480724D01*
X44763571Y-21230724D02*
X44442143Y-20802152D01*
X44763571Y-20480724D02*
X44335000Y-20909295D01*
X46107856Y-19630724D02*
X45857856Y-19273581D01*
X45679285Y-19630724D02*
X45679285Y-18880724D01*
X45679285Y-18880724D02*
X45964999Y-18880724D01*
X45964999Y-18880724D02*
X46036428Y-18916438D01*
X46036428Y-18916438D02*
X46072142Y-18952152D01*
X46072142Y-18952152D02*
X46107856Y-19023581D01*
X46107856Y-19023581D02*
X46107856Y-19130724D01*
X46107856Y-19130724D02*
X46072142Y-19202152D01*
X46072142Y-19202152D02*
X46036428Y-19237867D01*
X46036428Y-19237867D02*
X45964999Y-19273581D01*
X45964999Y-19273581D02*
X45679285Y-19273581D01*
X46822142Y-19630724D02*
X46393571Y-19630724D01*
X46607856Y-19630724D02*
X46607856Y-18880724D01*
X46607856Y-18880724D02*
X46536428Y-18987867D01*
X46536428Y-18987867D02*
X46464999Y-19059295D01*
X46464999Y-19059295D02*
X46393571Y-19095010D01*
X47500714Y-18880724D02*
X47143571Y-18880724D01*
X47143571Y-18880724D02*
X47107857Y-19237867D01*
X47107857Y-19237867D02*
X47143571Y-19202152D01*
X47143571Y-19202152D02*
X47215000Y-19166438D01*
X47215000Y-19166438D02*
X47393571Y-19166438D01*
X47393571Y-19166438D02*
X47465000Y-19202152D01*
X47465000Y-19202152D02*
X47500714Y-19237867D01*
X47500714Y-19237867D02*
X47536428Y-19309295D01*
X47536428Y-19309295D02*
X47536428Y-19487867D01*
X47536428Y-19487867D02*
X47500714Y-19559295D01*
X47500714Y-19559295D02*
X47465000Y-19595010D01*
X47465000Y-19595010D02*
X47393571Y-19630724D01*
X47393571Y-19630724D02*
X47215000Y-19630724D01*
X47215000Y-19630724D02*
X47143571Y-19595010D01*
X47143571Y-19595010D02*
X47107857Y-19559295D01*
X45856428Y-12900724D02*
X45427857Y-12900724D01*
X45642142Y-12900724D02*
X45642142Y-12150724D01*
X45642142Y-12150724D02*
X45570714Y-12257867D01*
X45570714Y-12257867D02*
X45499285Y-12329295D01*
X45499285Y-12329295D02*
X45427857Y-12365010D01*
X46320714Y-12150724D02*
X46392143Y-12150724D01*
X46392143Y-12150724D02*
X46463571Y-12186438D01*
X46463571Y-12186438D02*
X46499286Y-12222152D01*
X46499286Y-12222152D02*
X46535000Y-12293581D01*
X46535000Y-12293581D02*
X46570714Y-12436438D01*
X46570714Y-12436438D02*
X46570714Y-12615010D01*
X46570714Y-12615010D02*
X46535000Y-12757867D01*
X46535000Y-12757867D02*
X46499286Y-12829295D01*
X46499286Y-12829295D02*
X46463571Y-12865010D01*
X46463571Y-12865010D02*
X46392143Y-12900724D01*
X46392143Y-12900724D02*
X46320714Y-12900724D01*
X46320714Y-12900724D02*
X46249286Y-12865010D01*
X46249286Y-12865010D02*
X46213571Y-12829295D01*
X46213571Y-12829295D02*
X46177857Y-12757867D01*
X46177857Y-12757867D02*
X46142143Y-12615010D01*
X46142143Y-12615010D02*
X46142143Y-12436438D01*
X46142143Y-12436438D02*
X46177857Y-12293581D01*
X46177857Y-12293581D02*
X46213571Y-12222152D01*
X46213571Y-12222152D02*
X46249286Y-12186438D01*
X46249286Y-12186438D02*
X46320714Y-12150724D01*
X47213572Y-12400724D02*
X47213572Y-12900724D01*
X46892143Y-12400724D02*
X46892143Y-12793581D01*
X46892143Y-12793581D02*
X46927857Y-12865010D01*
X46927857Y-12865010D02*
X46999286Y-12900724D01*
X46999286Y-12900724D02*
X47106429Y-12900724D01*
X47106429Y-12900724D02*
X47177857Y-12865010D01*
X47177857Y-12865010D02*
X47213572Y-12829295D01*
X47820714Y-12507867D02*
X47570714Y-12507867D01*
X47570714Y-12900724D02*
X47570714Y-12150724D01*
X47570714Y-12150724D02*
X47927857Y-12150724D01*
X47504999Y-11869295D02*
X47469285Y-11905010D01*
X47469285Y-11905010D02*
X47362142Y-11940724D01*
X47362142Y-11940724D02*
X47290714Y-11940724D01*
X47290714Y-11940724D02*
X47183571Y-11905010D01*
X47183571Y-11905010D02*
X47112142Y-11833581D01*
X47112142Y-11833581D02*
X47076428Y-11762152D01*
X47076428Y-11762152D02*
X47040714Y-11619295D01*
X47040714Y-11619295D02*
X47040714Y-11512152D01*
X47040714Y-11512152D02*
X47076428Y-11369295D01*
X47076428Y-11369295D02*
X47112142Y-11297867D01*
X47112142Y-11297867D02*
X47183571Y-11226438D01*
X47183571Y-11226438D02*
X47290714Y-11190724D01*
X47290714Y-11190724D02*
X47362142Y-11190724D01*
X47362142Y-11190724D02*
X47469285Y-11226438D01*
X47469285Y-11226438D02*
X47504999Y-11262152D01*
X47933571Y-11512152D02*
X47862142Y-11476438D01*
X47862142Y-11476438D02*
X47826428Y-11440724D01*
X47826428Y-11440724D02*
X47790714Y-11369295D01*
X47790714Y-11369295D02*
X47790714Y-11333581D01*
X47790714Y-11333581D02*
X47826428Y-11262152D01*
X47826428Y-11262152D02*
X47862142Y-11226438D01*
X47862142Y-11226438D02*
X47933571Y-11190724D01*
X47933571Y-11190724D02*
X48076428Y-11190724D01*
X48076428Y-11190724D02*
X48147857Y-11226438D01*
X48147857Y-11226438D02*
X48183571Y-11262152D01*
X48183571Y-11262152D02*
X48219285Y-11333581D01*
X48219285Y-11333581D02*
X48219285Y-11369295D01*
X48219285Y-11369295D02*
X48183571Y-11440724D01*
X48183571Y-11440724D02*
X48147857Y-11476438D01*
X48147857Y-11476438D02*
X48076428Y-11512152D01*
X48076428Y-11512152D02*
X47933571Y-11512152D01*
X47933571Y-11512152D02*
X47862142Y-11547867D01*
X47862142Y-11547867D02*
X47826428Y-11583581D01*
X47826428Y-11583581D02*
X47790714Y-11655010D01*
X47790714Y-11655010D02*
X47790714Y-11797867D01*
X47790714Y-11797867D02*
X47826428Y-11869295D01*
X47826428Y-11869295D02*
X47862142Y-11905010D01*
X47862142Y-11905010D02*
X47933571Y-11940724D01*
X47933571Y-11940724D02*
X48076428Y-11940724D01*
X48076428Y-11940724D02*
X48147857Y-11905010D01*
X48147857Y-11905010D02*
X48183571Y-11869295D01*
X48183571Y-11869295D02*
X48219285Y-11797867D01*
X48219285Y-11797867D02*
X48219285Y-11655010D01*
X48219285Y-11655010D02*
X48183571Y-11583581D01*
X48183571Y-11583581D02*
X48147857Y-11547867D01*
X48147857Y-11547867D02*
X48076428Y-11512152D01*
X25153571Y-7160724D02*
X24725000Y-7160724D01*
X24939285Y-7160724D02*
X24939285Y-6410724D01*
X24939285Y-6410724D02*
X24867857Y-6517867D01*
X24867857Y-6517867D02*
X24796428Y-6589295D01*
X24796428Y-6589295D02*
X24725000Y-6625010D01*
X25617857Y-6410724D02*
X25689286Y-6410724D01*
X25689286Y-6410724D02*
X25760714Y-6446438D01*
X25760714Y-6446438D02*
X25796429Y-6482152D01*
X25796429Y-6482152D02*
X25832143Y-6553581D01*
X25832143Y-6553581D02*
X25867857Y-6696438D01*
X25867857Y-6696438D02*
X25867857Y-6875010D01*
X25867857Y-6875010D02*
X25832143Y-7017867D01*
X25832143Y-7017867D02*
X25796429Y-7089295D01*
X25796429Y-7089295D02*
X25760714Y-7125010D01*
X25760714Y-7125010D02*
X25689286Y-7160724D01*
X25689286Y-7160724D02*
X25617857Y-7160724D01*
X25617857Y-7160724D02*
X25546429Y-7125010D01*
X25546429Y-7125010D02*
X25510714Y-7089295D01*
X25510714Y-7089295D02*
X25475000Y-7017867D01*
X25475000Y-7017867D02*
X25439286Y-6875010D01*
X25439286Y-6875010D02*
X25439286Y-6696438D01*
X25439286Y-6696438D02*
X25475000Y-6553581D01*
X25475000Y-6553581D02*
X25510714Y-6482152D01*
X25510714Y-6482152D02*
X25546429Y-6446438D01*
X25546429Y-6446438D02*
X25617857Y-6410724D01*
X26332143Y-6410724D02*
X26403572Y-6410724D01*
X26403572Y-6410724D02*
X26475000Y-6446438D01*
X26475000Y-6446438D02*
X26510715Y-6482152D01*
X26510715Y-6482152D02*
X26546429Y-6553581D01*
X26546429Y-6553581D02*
X26582143Y-6696438D01*
X26582143Y-6696438D02*
X26582143Y-6875010D01*
X26582143Y-6875010D02*
X26546429Y-7017867D01*
X26546429Y-7017867D02*
X26510715Y-7089295D01*
X26510715Y-7089295D02*
X26475000Y-7125010D01*
X26475000Y-7125010D02*
X26403572Y-7160724D01*
X26403572Y-7160724D02*
X26332143Y-7160724D01*
X26332143Y-7160724D02*
X26260715Y-7125010D01*
X26260715Y-7125010D02*
X26225000Y-7089295D01*
X26225000Y-7089295D02*
X26189286Y-7017867D01*
X26189286Y-7017867D02*
X26153572Y-6875010D01*
X26153572Y-6875010D02*
X26153572Y-6696438D01*
X26153572Y-6696438D02*
X26189286Y-6553581D01*
X26189286Y-6553581D02*
X26225000Y-6482152D01*
X26225000Y-6482152D02*
X26260715Y-6446438D01*
X26260715Y-6446438D02*
X26332143Y-6410724D01*
X26903572Y-6660724D02*
X26903572Y-7160724D01*
X26903572Y-6732152D02*
X26939286Y-6696438D01*
X26939286Y-6696438D02*
X27010715Y-6660724D01*
X27010715Y-6660724D02*
X27117858Y-6660724D01*
X27117858Y-6660724D02*
X27189286Y-6696438D01*
X27189286Y-6696438D02*
X27225001Y-6767867D01*
X27225001Y-6767867D02*
X27225001Y-7160724D01*
X27832143Y-6767867D02*
X27582143Y-6767867D01*
X27582143Y-7160724D02*
X27582143Y-6410724D01*
X27582143Y-6410724D02*
X27939286Y-6410724D01*
X28760714Y-6375010D02*
X28117857Y-7339295D01*
X29403571Y-7160724D02*
X28975000Y-7160724D01*
X29189285Y-7160724D02*
X29189285Y-6410724D01*
X29189285Y-6410724D02*
X29117857Y-6517867D01*
X29117857Y-6517867D02*
X29046428Y-6589295D01*
X29046428Y-6589295D02*
X28975000Y-6625010D01*
X29867857Y-6410724D02*
X29939286Y-6410724D01*
X29939286Y-6410724D02*
X30010714Y-6446438D01*
X30010714Y-6446438D02*
X30046429Y-6482152D01*
X30046429Y-6482152D02*
X30082143Y-6553581D01*
X30082143Y-6553581D02*
X30117857Y-6696438D01*
X30117857Y-6696438D02*
X30117857Y-6875010D01*
X30117857Y-6875010D02*
X30082143Y-7017867D01*
X30082143Y-7017867D02*
X30046429Y-7089295D01*
X30046429Y-7089295D02*
X30010714Y-7125010D01*
X30010714Y-7125010D02*
X29939286Y-7160724D01*
X29939286Y-7160724D02*
X29867857Y-7160724D01*
X29867857Y-7160724D02*
X29796429Y-7125010D01*
X29796429Y-7125010D02*
X29760714Y-7089295D01*
X29760714Y-7089295D02*
X29725000Y-7017867D01*
X29725000Y-7017867D02*
X29689286Y-6875010D01*
X29689286Y-6875010D02*
X29689286Y-6696438D01*
X29689286Y-6696438D02*
X29725000Y-6553581D01*
X29725000Y-6553581D02*
X29760714Y-6482152D01*
X29760714Y-6482152D02*
X29796429Y-6446438D01*
X29796429Y-6446438D02*
X29867857Y-6410724D01*
X30582143Y-6410724D02*
X30653572Y-6410724D01*
X30653572Y-6410724D02*
X30725000Y-6446438D01*
X30725000Y-6446438D02*
X30760715Y-6482152D01*
X30760715Y-6482152D02*
X30796429Y-6553581D01*
X30796429Y-6553581D02*
X30832143Y-6696438D01*
X30832143Y-6696438D02*
X30832143Y-6875010D01*
X30832143Y-6875010D02*
X30796429Y-7017867D01*
X30796429Y-7017867D02*
X30760715Y-7089295D01*
X30760715Y-7089295D02*
X30725000Y-7125010D01*
X30725000Y-7125010D02*
X30653572Y-7160724D01*
X30653572Y-7160724D02*
X30582143Y-7160724D01*
X30582143Y-7160724D02*
X30510715Y-7125010D01*
X30510715Y-7125010D02*
X30475000Y-7089295D01*
X30475000Y-7089295D02*
X30439286Y-7017867D01*
X30439286Y-7017867D02*
X30403572Y-6875010D01*
X30403572Y-6875010D02*
X30403572Y-6696438D01*
X30403572Y-6696438D02*
X30439286Y-6553581D01*
X30439286Y-6553581D02*
X30475000Y-6482152D01*
X30475000Y-6482152D02*
X30510715Y-6446438D01*
X30510715Y-6446438D02*
X30582143Y-6410724D01*
X31046429Y-6410724D02*
X31296429Y-7160724D01*
X31296429Y-7160724D02*
X31546429Y-6410724D01*
X22484999Y-7179295D02*
X22449285Y-7215010D01*
X22449285Y-7215010D02*
X22342142Y-7250724D01*
X22342142Y-7250724D02*
X22270714Y-7250724D01*
X22270714Y-7250724D02*
X22163571Y-7215010D01*
X22163571Y-7215010D02*
X22092142Y-7143581D01*
X22092142Y-7143581D02*
X22056428Y-7072152D01*
X22056428Y-7072152D02*
X22020714Y-6929295D01*
X22020714Y-6929295D02*
X22020714Y-6822152D01*
X22020714Y-6822152D02*
X22056428Y-6679295D01*
X22056428Y-6679295D02*
X22092142Y-6607867D01*
X22092142Y-6607867D02*
X22163571Y-6536438D01*
X22163571Y-6536438D02*
X22270714Y-6500724D01*
X22270714Y-6500724D02*
X22342142Y-6500724D01*
X22342142Y-6500724D02*
X22449285Y-6536438D01*
X22449285Y-6536438D02*
X22484999Y-6572152D01*
X23163571Y-6500724D02*
X22806428Y-6500724D01*
X22806428Y-6500724D02*
X22770714Y-6857867D01*
X22770714Y-6857867D02*
X22806428Y-6822152D01*
X22806428Y-6822152D02*
X22877857Y-6786438D01*
X22877857Y-6786438D02*
X23056428Y-6786438D01*
X23056428Y-6786438D02*
X23127857Y-6822152D01*
X23127857Y-6822152D02*
X23163571Y-6857867D01*
X23163571Y-6857867D02*
X23199285Y-6929295D01*
X23199285Y-6929295D02*
X23199285Y-7107867D01*
X23199285Y-7107867D02*
X23163571Y-7179295D01*
X23163571Y-7179295D02*
X23127857Y-7215010D01*
X23127857Y-7215010D02*
X23056428Y-7250724D01*
X23056428Y-7250724D02*
X22877857Y-7250724D01*
X22877857Y-7250724D02*
X22806428Y-7215010D01*
X22806428Y-7215010D02*
X22770714Y-7179295D01*
X51162142Y-24630724D02*
X50733571Y-24630724D01*
X50947856Y-24630724D02*
X50947856Y-23880724D01*
X50947856Y-23880724D02*
X50876428Y-23987867D01*
X50876428Y-23987867D02*
X50804999Y-24059295D01*
X50804999Y-24059295D02*
X50733571Y-24095010D01*
X51483571Y-24630724D02*
X51483571Y-23880724D01*
X51912142Y-24630724D02*
X51590714Y-24202152D01*
X51912142Y-23880724D02*
X51483571Y-24309295D01*
X52376428Y-23880724D02*
X52447857Y-23880724D01*
X52447857Y-23880724D02*
X52519285Y-23916438D01*
X52519285Y-23916438D02*
X52555000Y-23952152D01*
X52555000Y-23952152D02*
X52590714Y-24023581D01*
X52590714Y-24023581D02*
X52626428Y-24166438D01*
X52626428Y-24166438D02*
X52626428Y-24345010D01*
X52626428Y-24345010D02*
X52590714Y-24487867D01*
X52590714Y-24487867D02*
X52555000Y-24559295D01*
X52555000Y-24559295D02*
X52519285Y-24595010D01*
X52519285Y-24595010D02*
X52447857Y-24630724D01*
X52447857Y-24630724D02*
X52376428Y-24630724D01*
X52376428Y-24630724D02*
X52305000Y-24595010D01*
X52305000Y-24595010D02*
X52269285Y-24559295D01*
X52269285Y-24559295D02*
X52233571Y-24487867D01*
X52233571Y-24487867D02*
X52197857Y-24345010D01*
X52197857Y-24345010D02*
X52197857Y-24166438D01*
X52197857Y-24166438D02*
X52233571Y-24023581D01*
X52233571Y-24023581D02*
X52269285Y-23952152D01*
X52269285Y-23952152D02*
X52305000Y-23916438D01*
X52305000Y-23916438D02*
X52376428Y-23880724D01*
X51267856Y-23720724D02*
X51017856Y-23363581D01*
X50839285Y-23720724D02*
X50839285Y-22970724D01*
X50839285Y-22970724D02*
X51124999Y-22970724D01*
X51124999Y-22970724D02*
X51196428Y-23006438D01*
X51196428Y-23006438D02*
X51232142Y-23042152D01*
X51232142Y-23042152D02*
X51267856Y-23113581D01*
X51267856Y-23113581D02*
X51267856Y-23220724D01*
X51267856Y-23220724D02*
X51232142Y-23292152D01*
X51232142Y-23292152D02*
X51196428Y-23327867D01*
X51196428Y-23327867D02*
X51124999Y-23363581D01*
X51124999Y-23363581D02*
X50839285Y-23363581D01*
X51553571Y-23042152D02*
X51589285Y-23006438D01*
X51589285Y-23006438D02*
X51660714Y-22970724D01*
X51660714Y-22970724D02*
X51839285Y-22970724D01*
X51839285Y-22970724D02*
X51910714Y-23006438D01*
X51910714Y-23006438D02*
X51946428Y-23042152D01*
X51946428Y-23042152D02*
X51982142Y-23113581D01*
X51982142Y-23113581D02*
X51982142Y-23185010D01*
X51982142Y-23185010D02*
X51946428Y-23292152D01*
X51946428Y-23292152D02*
X51517856Y-23720724D01*
X51517856Y-23720724D02*
X51982142Y-23720724D01*
X52696428Y-23720724D02*
X52267857Y-23720724D01*
X52482142Y-23720724D02*
X52482142Y-22970724D01*
X52482142Y-22970724D02*
X52410714Y-23077867D01*
X52410714Y-23077867D02*
X52339285Y-23149295D01*
X52339285Y-23149295D02*
X52267857Y-23185010D01*
X42085714Y-24195724D02*
X41657143Y-24195724D01*
X41871428Y-24195724D02*
X41871428Y-23445724D01*
X41871428Y-23445724D02*
X41800000Y-23552867D01*
X41800000Y-23552867D02*
X41728571Y-23624295D01*
X41728571Y-23624295D02*
X41657143Y-23660010D01*
X42550000Y-23445724D02*
X42621429Y-23445724D01*
X42621429Y-23445724D02*
X42692857Y-23481438D01*
X42692857Y-23481438D02*
X42728572Y-23517152D01*
X42728572Y-23517152D02*
X42764286Y-23588581D01*
X42764286Y-23588581D02*
X42800000Y-23731438D01*
X42800000Y-23731438D02*
X42800000Y-23910010D01*
X42800000Y-23910010D02*
X42764286Y-24052867D01*
X42764286Y-24052867D02*
X42728572Y-24124295D01*
X42728572Y-24124295D02*
X42692857Y-24160010D01*
X42692857Y-24160010D02*
X42621429Y-24195724D01*
X42621429Y-24195724D02*
X42550000Y-24195724D01*
X42550000Y-24195724D02*
X42478572Y-24160010D01*
X42478572Y-24160010D02*
X42442857Y-24124295D01*
X42442857Y-24124295D02*
X42407143Y-24052867D01*
X42407143Y-24052867D02*
X42371429Y-23910010D01*
X42371429Y-23910010D02*
X42371429Y-23731438D01*
X42371429Y-23731438D02*
X42407143Y-23588581D01*
X42407143Y-23588581D02*
X42442857Y-23517152D01*
X42442857Y-23517152D02*
X42478572Y-23481438D01*
X42478572Y-23481438D02*
X42550000Y-23445724D01*
X43264286Y-23445724D02*
X43335715Y-23445724D01*
X43335715Y-23445724D02*
X43407143Y-23481438D01*
X43407143Y-23481438D02*
X43442858Y-23517152D01*
X43442858Y-23517152D02*
X43478572Y-23588581D01*
X43478572Y-23588581D02*
X43514286Y-23731438D01*
X43514286Y-23731438D02*
X43514286Y-23910010D01*
X43514286Y-23910010D02*
X43478572Y-24052867D01*
X43478572Y-24052867D02*
X43442858Y-24124295D01*
X43442858Y-24124295D02*
X43407143Y-24160010D01*
X43407143Y-24160010D02*
X43335715Y-24195724D01*
X43335715Y-24195724D02*
X43264286Y-24195724D01*
X43264286Y-24195724D02*
X43192858Y-24160010D01*
X43192858Y-24160010D02*
X43157143Y-24124295D01*
X43157143Y-24124295D02*
X43121429Y-24052867D01*
X43121429Y-24052867D02*
X43085715Y-23910010D01*
X43085715Y-23910010D02*
X43085715Y-23731438D01*
X43085715Y-23731438D02*
X43121429Y-23588581D01*
X43121429Y-23588581D02*
X43157143Y-23517152D01*
X43157143Y-23517152D02*
X43192858Y-23481438D01*
X43192858Y-23481438D02*
X43264286Y-23445724D01*
X43835715Y-23695724D02*
X43835715Y-24195724D01*
X43835715Y-23767152D02*
X43871429Y-23731438D01*
X43871429Y-23731438D02*
X43942858Y-23695724D01*
X43942858Y-23695724D02*
X44050001Y-23695724D01*
X44050001Y-23695724D02*
X44121429Y-23731438D01*
X44121429Y-23731438D02*
X44157144Y-23802867D01*
X44157144Y-23802867D02*
X44157144Y-24195724D01*
X42812856Y-22999295D02*
X42777142Y-23035010D01*
X42777142Y-23035010D02*
X42669999Y-23070724D01*
X42669999Y-23070724D02*
X42598571Y-23070724D01*
X42598571Y-23070724D02*
X42491428Y-23035010D01*
X42491428Y-23035010D02*
X42419999Y-22963581D01*
X42419999Y-22963581D02*
X42384285Y-22892152D01*
X42384285Y-22892152D02*
X42348571Y-22749295D01*
X42348571Y-22749295D02*
X42348571Y-22642152D01*
X42348571Y-22642152D02*
X42384285Y-22499295D01*
X42384285Y-22499295D02*
X42419999Y-22427867D01*
X42419999Y-22427867D02*
X42491428Y-22356438D01*
X42491428Y-22356438D02*
X42598571Y-22320724D01*
X42598571Y-22320724D02*
X42669999Y-22320724D01*
X42669999Y-22320724D02*
X42777142Y-22356438D01*
X42777142Y-22356438D02*
X42812856Y-22392152D01*
X43527142Y-23070724D02*
X43098571Y-23070724D01*
X43312856Y-23070724D02*
X43312856Y-22320724D01*
X43312856Y-22320724D02*
X43241428Y-22427867D01*
X43241428Y-22427867D02*
X43169999Y-22499295D01*
X43169999Y-22499295D02*
X43098571Y-22535010D01*
X43812857Y-22392152D02*
X43848571Y-22356438D01*
X43848571Y-22356438D02*
X43920000Y-22320724D01*
X43920000Y-22320724D02*
X44098571Y-22320724D01*
X44098571Y-22320724D02*
X44170000Y-22356438D01*
X44170000Y-22356438D02*
X44205714Y-22392152D01*
X44205714Y-22392152D02*
X44241428Y-22463581D01*
X44241428Y-22463581D02*
X44241428Y-22535010D01*
X44241428Y-22535010D02*
X44205714Y-22642152D01*
X44205714Y-22642152D02*
X43777142Y-23070724D01*
X43777142Y-23070724D02*
X44241428Y-23070724D01*
X53804999Y-19170724D02*
X53376428Y-19170724D01*
X53590713Y-19170724D02*
X53590713Y-18420724D01*
X53590713Y-18420724D02*
X53519285Y-18527867D01*
X53519285Y-18527867D02*
X53447856Y-18599295D01*
X53447856Y-18599295D02*
X53376428Y-18635010D01*
X54269285Y-18420724D02*
X54340714Y-18420724D01*
X54340714Y-18420724D02*
X54412142Y-18456438D01*
X54412142Y-18456438D02*
X54447857Y-18492152D01*
X54447857Y-18492152D02*
X54483571Y-18563581D01*
X54483571Y-18563581D02*
X54519285Y-18706438D01*
X54519285Y-18706438D02*
X54519285Y-18885010D01*
X54519285Y-18885010D02*
X54483571Y-19027867D01*
X54483571Y-19027867D02*
X54447857Y-19099295D01*
X54447857Y-19099295D02*
X54412142Y-19135010D01*
X54412142Y-19135010D02*
X54340714Y-19170724D01*
X54340714Y-19170724D02*
X54269285Y-19170724D01*
X54269285Y-19170724D02*
X54197857Y-19135010D01*
X54197857Y-19135010D02*
X54162142Y-19099295D01*
X54162142Y-19099295D02*
X54126428Y-19027867D01*
X54126428Y-19027867D02*
X54090714Y-18885010D01*
X54090714Y-18885010D02*
X54090714Y-18706438D01*
X54090714Y-18706438D02*
X54126428Y-18563581D01*
X54126428Y-18563581D02*
X54162142Y-18492152D01*
X54162142Y-18492152D02*
X54197857Y-18456438D01*
X54197857Y-18456438D02*
X54269285Y-18420724D01*
X54983571Y-18420724D02*
X55055000Y-18420724D01*
X55055000Y-18420724D02*
X55126428Y-18456438D01*
X55126428Y-18456438D02*
X55162143Y-18492152D01*
X55162143Y-18492152D02*
X55197857Y-18563581D01*
X55197857Y-18563581D02*
X55233571Y-18706438D01*
X55233571Y-18706438D02*
X55233571Y-18885010D01*
X55233571Y-18885010D02*
X55197857Y-19027867D01*
X55197857Y-19027867D02*
X55162143Y-19099295D01*
X55162143Y-19099295D02*
X55126428Y-19135010D01*
X55126428Y-19135010D02*
X55055000Y-19170724D01*
X55055000Y-19170724D02*
X54983571Y-19170724D01*
X54983571Y-19170724D02*
X54912143Y-19135010D01*
X54912143Y-19135010D02*
X54876428Y-19099295D01*
X54876428Y-19099295D02*
X54840714Y-19027867D01*
X54840714Y-19027867D02*
X54805000Y-18885010D01*
X54805000Y-18885010D02*
X54805000Y-18706438D01*
X54805000Y-18706438D02*
X54840714Y-18563581D01*
X54840714Y-18563581D02*
X54876428Y-18492152D01*
X54876428Y-18492152D02*
X54912143Y-18456438D01*
X54912143Y-18456438D02*
X54983571Y-18420724D01*
X55555000Y-19170724D02*
X55555000Y-18420724D01*
X55983571Y-19170724D02*
X55662143Y-18742152D01*
X55983571Y-18420724D02*
X55555000Y-18849295D01*
X50637856Y-19130724D02*
X50387856Y-18773581D01*
X50209285Y-19130724D02*
X50209285Y-18380724D01*
X50209285Y-18380724D02*
X50494999Y-18380724D01*
X50494999Y-18380724D02*
X50566428Y-18416438D01*
X50566428Y-18416438D02*
X50602142Y-18452152D01*
X50602142Y-18452152D02*
X50637856Y-18523581D01*
X50637856Y-18523581D02*
X50637856Y-18630724D01*
X50637856Y-18630724D02*
X50602142Y-18702152D01*
X50602142Y-18702152D02*
X50566428Y-18737867D01*
X50566428Y-18737867D02*
X50494999Y-18773581D01*
X50494999Y-18773581D02*
X50209285Y-18773581D01*
X50923571Y-18452152D02*
X50959285Y-18416438D01*
X50959285Y-18416438D02*
X51030714Y-18380724D01*
X51030714Y-18380724D02*
X51209285Y-18380724D01*
X51209285Y-18380724D02*
X51280714Y-18416438D01*
X51280714Y-18416438D02*
X51316428Y-18452152D01*
X51316428Y-18452152D02*
X51352142Y-18523581D01*
X51352142Y-18523581D02*
X51352142Y-18595010D01*
X51352142Y-18595010D02*
X51316428Y-18702152D01*
X51316428Y-18702152D02*
X50887856Y-19130724D01*
X50887856Y-19130724D02*
X51352142Y-19130724D01*
X51637857Y-18452152D02*
X51673571Y-18416438D01*
X51673571Y-18416438D02*
X51745000Y-18380724D01*
X51745000Y-18380724D02*
X51923571Y-18380724D01*
X51923571Y-18380724D02*
X51995000Y-18416438D01*
X51995000Y-18416438D02*
X52030714Y-18452152D01*
X52030714Y-18452152D02*
X52066428Y-18523581D01*
X52066428Y-18523581D02*
X52066428Y-18595010D01*
X52066428Y-18595010D02*
X52030714Y-18702152D01*
X52030714Y-18702152D02*
X51602142Y-19130724D01*
X51602142Y-19130724D02*
X52066428Y-19130724D01*
X15009286Y-31042152D02*
X15045000Y-31006438D01*
X15045000Y-31006438D02*
X15116429Y-30970724D01*
X15116429Y-30970724D02*
X15295000Y-30970724D01*
X15295000Y-30970724D02*
X15366429Y-31006438D01*
X15366429Y-31006438D02*
X15402143Y-31042152D01*
X15402143Y-31042152D02*
X15437857Y-31113581D01*
X15437857Y-31113581D02*
X15437857Y-31185010D01*
X15437857Y-31185010D02*
X15402143Y-31292152D01*
X15402143Y-31292152D02*
X14973571Y-31720724D01*
X14973571Y-31720724D02*
X15437857Y-31720724D01*
X15723572Y-31042152D02*
X15759286Y-31006438D01*
X15759286Y-31006438D02*
X15830715Y-30970724D01*
X15830715Y-30970724D02*
X16009286Y-30970724D01*
X16009286Y-30970724D02*
X16080715Y-31006438D01*
X16080715Y-31006438D02*
X16116429Y-31042152D01*
X16116429Y-31042152D02*
X16152143Y-31113581D01*
X16152143Y-31113581D02*
X16152143Y-31185010D01*
X16152143Y-31185010D02*
X16116429Y-31292152D01*
X16116429Y-31292152D02*
X15687857Y-31720724D01*
X15687857Y-31720724D02*
X16152143Y-31720724D01*
X16473572Y-31220724D02*
X16473572Y-31970724D01*
X16473572Y-31256438D02*
X16545001Y-31220724D01*
X16545001Y-31220724D02*
X16687858Y-31220724D01*
X16687858Y-31220724D02*
X16759286Y-31256438D01*
X16759286Y-31256438D02*
X16795001Y-31292152D01*
X16795001Y-31292152D02*
X16830715Y-31363581D01*
X16830715Y-31363581D02*
X16830715Y-31577867D01*
X16830715Y-31577867D02*
X16795001Y-31649295D01*
X16795001Y-31649295D02*
X16759286Y-31685010D01*
X16759286Y-31685010D02*
X16687858Y-31720724D01*
X16687858Y-31720724D02*
X16545001Y-31720724D01*
X16545001Y-31720724D02*
X16473572Y-31685010D01*
X15444999Y-30289295D02*
X15409285Y-30325010D01*
X15409285Y-30325010D02*
X15302142Y-30360724D01*
X15302142Y-30360724D02*
X15230714Y-30360724D01*
X15230714Y-30360724D02*
X15123571Y-30325010D01*
X15123571Y-30325010D02*
X15052142Y-30253581D01*
X15052142Y-30253581D02*
X15016428Y-30182152D01*
X15016428Y-30182152D02*
X14980714Y-30039295D01*
X14980714Y-30039295D02*
X14980714Y-29932152D01*
X14980714Y-29932152D02*
X15016428Y-29789295D01*
X15016428Y-29789295D02*
X15052142Y-29717867D01*
X15052142Y-29717867D02*
X15123571Y-29646438D01*
X15123571Y-29646438D02*
X15230714Y-29610724D01*
X15230714Y-29610724D02*
X15302142Y-29610724D01*
X15302142Y-29610724D02*
X15409285Y-29646438D01*
X15409285Y-29646438D02*
X15444999Y-29682152D01*
X15730714Y-29682152D02*
X15766428Y-29646438D01*
X15766428Y-29646438D02*
X15837857Y-29610724D01*
X15837857Y-29610724D02*
X16016428Y-29610724D01*
X16016428Y-29610724D02*
X16087857Y-29646438D01*
X16087857Y-29646438D02*
X16123571Y-29682152D01*
X16123571Y-29682152D02*
X16159285Y-29753581D01*
X16159285Y-29753581D02*
X16159285Y-29825010D01*
X16159285Y-29825010D02*
X16123571Y-29932152D01*
X16123571Y-29932152D02*
X15694999Y-30360724D01*
X15694999Y-30360724D02*
X16159285Y-30360724D01*
X56624999Y-24070724D02*
X56196428Y-24070724D01*
X56410713Y-24070724D02*
X56410713Y-23320724D01*
X56410713Y-23320724D02*
X56339285Y-23427867D01*
X56339285Y-23427867D02*
X56267856Y-23499295D01*
X56267856Y-23499295D02*
X56196428Y-23535010D01*
X57089285Y-23320724D02*
X57160714Y-23320724D01*
X57160714Y-23320724D02*
X57232142Y-23356438D01*
X57232142Y-23356438D02*
X57267857Y-23392152D01*
X57267857Y-23392152D02*
X57303571Y-23463581D01*
X57303571Y-23463581D02*
X57339285Y-23606438D01*
X57339285Y-23606438D02*
X57339285Y-23785010D01*
X57339285Y-23785010D02*
X57303571Y-23927867D01*
X57303571Y-23927867D02*
X57267857Y-23999295D01*
X57267857Y-23999295D02*
X57232142Y-24035010D01*
X57232142Y-24035010D02*
X57160714Y-24070724D01*
X57160714Y-24070724D02*
X57089285Y-24070724D01*
X57089285Y-24070724D02*
X57017857Y-24035010D01*
X57017857Y-24035010D02*
X56982142Y-23999295D01*
X56982142Y-23999295D02*
X56946428Y-23927867D01*
X56946428Y-23927867D02*
X56910714Y-23785010D01*
X56910714Y-23785010D02*
X56910714Y-23606438D01*
X56910714Y-23606438D02*
X56946428Y-23463581D01*
X56946428Y-23463581D02*
X56982142Y-23392152D01*
X56982142Y-23392152D02*
X57017857Y-23356438D01*
X57017857Y-23356438D02*
X57089285Y-23320724D01*
X57803571Y-23320724D02*
X57875000Y-23320724D01*
X57875000Y-23320724D02*
X57946428Y-23356438D01*
X57946428Y-23356438D02*
X57982143Y-23392152D01*
X57982143Y-23392152D02*
X58017857Y-23463581D01*
X58017857Y-23463581D02*
X58053571Y-23606438D01*
X58053571Y-23606438D02*
X58053571Y-23785010D01*
X58053571Y-23785010D02*
X58017857Y-23927867D01*
X58017857Y-23927867D02*
X57982143Y-23999295D01*
X57982143Y-23999295D02*
X57946428Y-24035010D01*
X57946428Y-24035010D02*
X57875000Y-24070724D01*
X57875000Y-24070724D02*
X57803571Y-24070724D01*
X57803571Y-24070724D02*
X57732143Y-24035010D01*
X57732143Y-24035010D02*
X57696428Y-23999295D01*
X57696428Y-23999295D02*
X57660714Y-23927867D01*
X57660714Y-23927867D02*
X57625000Y-23785010D01*
X57625000Y-23785010D02*
X57625000Y-23606438D01*
X57625000Y-23606438D02*
X57660714Y-23463581D01*
X57660714Y-23463581D02*
X57696428Y-23392152D01*
X57696428Y-23392152D02*
X57732143Y-23356438D01*
X57732143Y-23356438D02*
X57803571Y-23320724D01*
X58375000Y-24070724D02*
X58375000Y-23320724D01*
X58803571Y-24070724D02*
X58482143Y-23642152D01*
X58803571Y-23320724D02*
X58375000Y-23749295D01*
X57097856Y-23080724D02*
X56847856Y-22723581D01*
X56669285Y-23080724D02*
X56669285Y-22330724D01*
X56669285Y-22330724D02*
X56954999Y-22330724D01*
X56954999Y-22330724D02*
X57026428Y-22366438D01*
X57026428Y-22366438D02*
X57062142Y-22402152D01*
X57062142Y-22402152D02*
X57097856Y-22473581D01*
X57097856Y-22473581D02*
X57097856Y-22580724D01*
X57097856Y-22580724D02*
X57062142Y-22652152D01*
X57062142Y-22652152D02*
X57026428Y-22687867D01*
X57026428Y-22687867D02*
X56954999Y-22723581D01*
X56954999Y-22723581D02*
X56669285Y-22723581D01*
X57812142Y-23080724D02*
X57383571Y-23080724D01*
X57597856Y-23080724D02*
X57597856Y-22330724D01*
X57597856Y-22330724D02*
X57526428Y-22437867D01*
X57526428Y-22437867D02*
X57454999Y-22509295D01*
X57454999Y-22509295D02*
X57383571Y-22545010D01*
X58169285Y-23080724D02*
X58312142Y-23080724D01*
X58312142Y-23080724D02*
X58383571Y-23045010D01*
X58383571Y-23045010D02*
X58419285Y-23009295D01*
X58419285Y-23009295D02*
X58490714Y-22902152D01*
X58490714Y-22902152D02*
X58526428Y-22759295D01*
X58526428Y-22759295D02*
X58526428Y-22473581D01*
X58526428Y-22473581D02*
X58490714Y-22402152D01*
X58490714Y-22402152D02*
X58455000Y-22366438D01*
X58455000Y-22366438D02*
X58383571Y-22330724D01*
X58383571Y-22330724D02*
X58240714Y-22330724D01*
X58240714Y-22330724D02*
X58169285Y-22366438D01*
X58169285Y-22366438D02*
X58133571Y-22402152D01*
X58133571Y-22402152D02*
X58097857Y-22473581D01*
X58097857Y-22473581D02*
X58097857Y-22652152D01*
X58097857Y-22652152D02*
X58133571Y-22723581D01*
X58133571Y-22723581D02*
X58169285Y-22759295D01*
X58169285Y-22759295D02*
X58240714Y-22795010D01*
X58240714Y-22795010D02*
X58383571Y-22795010D01*
X58383571Y-22795010D02*
X58455000Y-22759295D01*
X58455000Y-22759295D02*
X58490714Y-22723581D01*
X58490714Y-22723581D02*
X58526428Y-22652152D01*
X14759286Y-17202152D02*
X14795000Y-17166438D01*
X14795000Y-17166438D02*
X14866429Y-17130724D01*
X14866429Y-17130724D02*
X15045000Y-17130724D01*
X15045000Y-17130724D02*
X15116429Y-17166438D01*
X15116429Y-17166438D02*
X15152143Y-17202152D01*
X15152143Y-17202152D02*
X15187857Y-17273581D01*
X15187857Y-17273581D02*
X15187857Y-17345010D01*
X15187857Y-17345010D02*
X15152143Y-17452152D01*
X15152143Y-17452152D02*
X14723571Y-17880724D01*
X14723571Y-17880724D02*
X15187857Y-17880724D01*
X15473572Y-17202152D02*
X15509286Y-17166438D01*
X15509286Y-17166438D02*
X15580715Y-17130724D01*
X15580715Y-17130724D02*
X15759286Y-17130724D01*
X15759286Y-17130724D02*
X15830715Y-17166438D01*
X15830715Y-17166438D02*
X15866429Y-17202152D01*
X15866429Y-17202152D02*
X15902143Y-17273581D01*
X15902143Y-17273581D02*
X15902143Y-17345010D01*
X15902143Y-17345010D02*
X15866429Y-17452152D01*
X15866429Y-17452152D02*
X15437857Y-17880724D01*
X15437857Y-17880724D02*
X15902143Y-17880724D01*
X16223572Y-17380724D02*
X16223572Y-18130724D01*
X16223572Y-17416438D02*
X16295001Y-17380724D01*
X16295001Y-17380724D02*
X16437858Y-17380724D01*
X16437858Y-17380724D02*
X16509286Y-17416438D01*
X16509286Y-17416438D02*
X16545001Y-17452152D01*
X16545001Y-17452152D02*
X16580715Y-17523581D01*
X16580715Y-17523581D02*
X16580715Y-17737867D01*
X16580715Y-17737867D02*
X16545001Y-17809295D01*
X16545001Y-17809295D02*
X16509286Y-17845010D01*
X16509286Y-17845010D02*
X16437858Y-17880724D01*
X16437858Y-17880724D02*
X16295001Y-17880724D01*
X16295001Y-17880724D02*
X16223572Y-17845010D01*
X15394999Y-16579295D02*
X15359285Y-16615010D01*
X15359285Y-16615010D02*
X15252142Y-16650724D01*
X15252142Y-16650724D02*
X15180714Y-16650724D01*
X15180714Y-16650724D02*
X15073571Y-16615010D01*
X15073571Y-16615010D02*
X15002142Y-16543581D01*
X15002142Y-16543581D02*
X14966428Y-16472152D01*
X14966428Y-16472152D02*
X14930714Y-16329295D01*
X14930714Y-16329295D02*
X14930714Y-16222152D01*
X14930714Y-16222152D02*
X14966428Y-16079295D01*
X14966428Y-16079295D02*
X15002142Y-16007867D01*
X15002142Y-16007867D02*
X15073571Y-15936438D01*
X15073571Y-15936438D02*
X15180714Y-15900724D01*
X15180714Y-15900724D02*
X15252142Y-15900724D01*
X15252142Y-15900724D02*
X15359285Y-15936438D01*
X15359285Y-15936438D02*
X15394999Y-15972152D01*
X15644999Y-15900724D02*
X16109285Y-15900724D01*
X16109285Y-15900724D02*
X15859285Y-16186438D01*
X15859285Y-16186438D02*
X15966428Y-16186438D01*
X15966428Y-16186438D02*
X16037857Y-16222152D01*
X16037857Y-16222152D02*
X16073571Y-16257867D01*
X16073571Y-16257867D02*
X16109285Y-16329295D01*
X16109285Y-16329295D02*
X16109285Y-16507867D01*
X16109285Y-16507867D02*
X16073571Y-16579295D01*
X16073571Y-16579295D02*
X16037857Y-16615010D01*
X16037857Y-16615010D02*
X15966428Y-16650724D01*
X15966428Y-16650724D02*
X15752142Y-16650724D01*
X15752142Y-16650724D02*
X15680714Y-16615010D01*
X15680714Y-16615010D02*
X15644999Y-16579295D01*
X41428571Y-11510724D02*
X41428571Y-12010724D01*
X41249999Y-11225010D02*
X41071428Y-11760724D01*
X41071428Y-11760724D02*
X41535713Y-11760724D01*
X41749999Y-11260724D02*
X42249999Y-11260724D01*
X42249999Y-11260724D02*
X41928571Y-12010724D01*
X42678571Y-11260724D02*
X42750000Y-11260724D01*
X42750000Y-11260724D02*
X42821428Y-11296438D01*
X42821428Y-11296438D02*
X42857143Y-11332152D01*
X42857143Y-11332152D02*
X42892857Y-11403581D01*
X42892857Y-11403581D02*
X42928571Y-11546438D01*
X42928571Y-11546438D02*
X42928571Y-11725010D01*
X42928571Y-11725010D02*
X42892857Y-11867867D01*
X42892857Y-11867867D02*
X42857143Y-11939295D01*
X42857143Y-11939295D02*
X42821428Y-11975010D01*
X42821428Y-11975010D02*
X42750000Y-12010724D01*
X42750000Y-12010724D02*
X42678571Y-12010724D01*
X42678571Y-12010724D02*
X42607143Y-11975010D01*
X42607143Y-11975010D02*
X42571428Y-11939295D01*
X42571428Y-11939295D02*
X42535714Y-11867867D01*
X42535714Y-11867867D02*
X42500000Y-11725010D01*
X42500000Y-11725010D02*
X42500000Y-11546438D01*
X42500000Y-11546438D02*
X42535714Y-11403581D01*
X42535714Y-11403581D02*
X42571428Y-11332152D01*
X42571428Y-11332152D02*
X42607143Y-11296438D01*
X42607143Y-11296438D02*
X42678571Y-11260724D01*
X39267856Y-14650724D02*
X39017856Y-14293581D01*
X38839285Y-14650724D02*
X38839285Y-13900724D01*
X38839285Y-13900724D02*
X39124999Y-13900724D01*
X39124999Y-13900724D02*
X39196428Y-13936438D01*
X39196428Y-13936438D02*
X39232142Y-13972152D01*
X39232142Y-13972152D02*
X39267856Y-14043581D01*
X39267856Y-14043581D02*
X39267856Y-14150724D01*
X39267856Y-14150724D02*
X39232142Y-14222152D01*
X39232142Y-14222152D02*
X39196428Y-14257867D01*
X39196428Y-14257867D02*
X39124999Y-14293581D01*
X39124999Y-14293581D02*
X38839285Y-14293581D01*
X39982142Y-14650724D02*
X39553571Y-14650724D01*
X39767856Y-14650724D02*
X39767856Y-13900724D01*
X39767856Y-13900724D02*
X39696428Y-14007867D01*
X39696428Y-14007867D02*
X39624999Y-14079295D01*
X39624999Y-14079295D02*
X39553571Y-14115010D01*
X40267857Y-13972152D02*
X40303571Y-13936438D01*
X40303571Y-13936438D02*
X40375000Y-13900724D01*
X40375000Y-13900724D02*
X40553571Y-13900724D01*
X40553571Y-13900724D02*
X40625000Y-13936438D01*
X40625000Y-13936438D02*
X40660714Y-13972152D01*
X40660714Y-13972152D02*
X40696428Y-14043581D01*
X40696428Y-14043581D02*
X40696428Y-14115010D01*
X40696428Y-14115010D02*
X40660714Y-14222152D01*
X40660714Y-14222152D02*
X40232142Y-14650724D01*
X40232142Y-14650724D02*
X40696428Y-14650724D01*
X25173571Y-7170724D02*
X24745000Y-7170724D01*
X24959285Y-7170724D02*
X24959285Y-6420724D01*
X24959285Y-6420724D02*
X24887857Y-6527867D01*
X24887857Y-6527867D02*
X24816428Y-6599295D01*
X24816428Y-6599295D02*
X24745000Y-6635010D01*
X25637857Y-6420724D02*
X25709286Y-6420724D01*
X25709286Y-6420724D02*
X25780714Y-6456438D01*
X25780714Y-6456438D02*
X25816429Y-6492152D01*
X25816429Y-6492152D02*
X25852143Y-6563581D01*
X25852143Y-6563581D02*
X25887857Y-6706438D01*
X25887857Y-6706438D02*
X25887857Y-6885010D01*
X25887857Y-6885010D02*
X25852143Y-7027867D01*
X25852143Y-7027867D02*
X25816429Y-7099295D01*
X25816429Y-7099295D02*
X25780714Y-7135010D01*
X25780714Y-7135010D02*
X25709286Y-7170724D01*
X25709286Y-7170724D02*
X25637857Y-7170724D01*
X25637857Y-7170724D02*
X25566429Y-7135010D01*
X25566429Y-7135010D02*
X25530714Y-7099295D01*
X25530714Y-7099295D02*
X25495000Y-7027867D01*
X25495000Y-7027867D02*
X25459286Y-6885010D01*
X25459286Y-6885010D02*
X25459286Y-6706438D01*
X25459286Y-6706438D02*
X25495000Y-6563581D01*
X25495000Y-6563581D02*
X25530714Y-6492152D01*
X25530714Y-6492152D02*
X25566429Y-6456438D01*
X25566429Y-6456438D02*
X25637857Y-6420724D01*
X26352143Y-6420724D02*
X26423572Y-6420724D01*
X26423572Y-6420724D02*
X26495000Y-6456438D01*
X26495000Y-6456438D02*
X26530715Y-6492152D01*
X26530715Y-6492152D02*
X26566429Y-6563581D01*
X26566429Y-6563581D02*
X26602143Y-6706438D01*
X26602143Y-6706438D02*
X26602143Y-6885010D01*
X26602143Y-6885010D02*
X26566429Y-7027867D01*
X26566429Y-7027867D02*
X26530715Y-7099295D01*
X26530715Y-7099295D02*
X26495000Y-7135010D01*
X26495000Y-7135010D02*
X26423572Y-7170724D01*
X26423572Y-7170724D02*
X26352143Y-7170724D01*
X26352143Y-7170724D02*
X26280715Y-7135010D01*
X26280715Y-7135010D02*
X26245000Y-7099295D01*
X26245000Y-7099295D02*
X26209286Y-7027867D01*
X26209286Y-7027867D02*
X26173572Y-6885010D01*
X26173572Y-6885010D02*
X26173572Y-6706438D01*
X26173572Y-6706438D02*
X26209286Y-6563581D01*
X26209286Y-6563581D02*
X26245000Y-6492152D01*
X26245000Y-6492152D02*
X26280715Y-6456438D01*
X26280715Y-6456438D02*
X26352143Y-6420724D01*
X26923572Y-6670724D02*
X26923572Y-7170724D01*
X26923572Y-6742152D02*
X26959286Y-6706438D01*
X26959286Y-6706438D02*
X27030715Y-6670724D01*
X27030715Y-6670724D02*
X27137858Y-6670724D01*
X27137858Y-6670724D02*
X27209286Y-6706438D01*
X27209286Y-6706438D02*
X27245001Y-6777867D01*
X27245001Y-6777867D02*
X27245001Y-7170724D01*
X27852143Y-6777867D02*
X27602143Y-6777867D01*
X27602143Y-7170724D02*
X27602143Y-6420724D01*
X27602143Y-6420724D02*
X27959286Y-6420724D01*
X28780714Y-6385010D02*
X28137857Y-7349295D01*
X29423571Y-7170724D02*
X28995000Y-7170724D01*
X29209285Y-7170724D02*
X29209285Y-6420724D01*
X29209285Y-6420724D02*
X29137857Y-6527867D01*
X29137857Y-6527867D02*
X29066428Y-6599295D01*
X29066428Y-6599295D02*
X28995000Y-6635010D01*
X29887857Y-6420724D02*
X29959286Y-6420724D01*
X29959286Y-6420724D02*
X30030714Y-6456438D01*
X30030714Y-6456438D02*
X30066429Y-6492152D01*
X30066429Y-6492152D02*
X30102143Y-6563581D01*
X30102143Y-6563581D02*
X30137857Y-6706438D01*
X30137857Y-6706438D02*
X30137857Y-6885010D01*
X30137857Y-6885010D02*
X30102143Y-7027867D01*
X30102143Y-7027867D02*
X30066429Y-7099295D01*
X30066429Y-7099295D02*
X30030714Y-7135010D01*
X30030714Y-7135010D02*
X29959286Y-7170724D01*
X29959286Y-7170724D02*
X29887857Y-7170724D01*
X29887857Y-7170724D02*
X29816429Y-7135010D01*
X29816429Y-7135010D02*
X29780714Y-7099295D01*
X29780714Y-7099295D02*
X29745000Y-7027867D01*
X29745000Y-7027867D02*
X29709286Y-6885010D01*
X29709286Y-6885010D02*
X29709286Y-6706438D01*
X29709286Y-6706438D02*
X29745000Y-6563581D01*
X29745000Y-6563581D02*
X29780714Y-6492152D01*
X29780714Y-6492152D02*
X29816429Y-6456438D01*
X29816429Y-6456438D02*
X29887857Y-6420724D01*
X30602143Y-6420724D02*
X30673572Y-6420724D01*
X30673572Y-6420724D02*
X30745000Y-6456438D01*
X30745000Y-6456438D02*
X30780715Y-6492152D01*
X30780715Y-6492152D02*
X30816429Y-6563581D01*
X30816429Y-6563581D02*
X30852143Y-6706438D01*
X30852143Y-6706438D02*
X30852143Y-6885010D01*
X30852143Y-6885010D02*
X30816429Y-7027867D01*
X30816429Y-7027867D02*
X30780715Y-7099295D01*
X30780715Y-7099295D02*
X30745000Y-7135010D01*
X30745000Y-7135010D02*
X30673572Y-7170724D01*
X30673572Y-7170724D02*
X30602143Y-7170724D01*
X30602143Y-7170724D02*
X30530715Y-7135010D01*
X30530715Y-7135010D02*
X30495000Y-7099295D01*
X30495000Y-7099295D02*
X30459286Y-7027867D01*
X30459286Y-7027867D02*
X30423572Y-6885010D01*
X30423572Y-6885010D02*
X30423572Y-6706438D01*
X30423572Y-6706438D02*
X30459286Y-6563581D01*
X30459286Y-6563581D02*
X30495000Y-6492152D01*
X30495000Y-6492152D02*
X30530715Y-6456438D01*
X30530715Y-6456438D02*
X30602143Y-6420724D01*
X31066429Y-6420724D02*
X31316429Y-7170724D01*
X31316429Y-7170724D02*
X31566429Y-6420724D01*
X34254999Y-7109295D02*
X34219285Y-7145010D01*
X34219285Y-7145010D02*
X34112142Y-7180724D01*
X34112142Y-7180724D02*
X34040714Y-7180724D01*
X34040714Y-7180724D02*
X33933571Y-7145010D01*
X33933571Y-7145010D02*
X33862142Y-7073581D01*
X33862142Y-7073581D02*
X33826428Y-7002152D01*
X33826428Y-7002152D02*
X33790714Y-6859295D01*
X33790714Y-6859295D02*
X33790714Y-6752152D01*
X33790714Y-6752152D02*
X33826428Y-6609295D01*
X33826428Y-6609295D02*
X33862142Y-6537867D01*
X33862142Y-6537867D02*
X33933571Y-6466438D01*
X33933571Y-6466438D02*
X34040714Y-6430724D01*
X34040714Y-6430724D02*
X34112142Y-6430724D01*
X34112142Y-6430724D02*
X34219285Y-6466438D01*
X34219285Y-6466438D02*
X34254999Y-6502152D01*
X34897857Y-6430724D02*
X34754999Y-6430724D01*
X34754999Y-6430724D02*
X34683571Y-6466438D01*
X34683571Y-6466438D02*
X34647857Y-6502152D01*
X34647857Y-6502152D02*
X34576428Y-6609295D01*
X34576428Y-6609295D02*
X34540714Y-6752152D01*
X34540714Y-6752152D02*
X34540714Y-7037867D01*
X34540714Y-7037867D02*
X34576428Y-7109295D01*
X34576428Y-7109295D02*
X34612142Y-7145010D01*
X34612142Y-7145010D02*
X34683571Y-7180724D01*
X34683571Y-7180724D02*
X34826428Y-7180724D01*
X34826428Y-7180724D02*
X34897857Y-7145010D01*
X34897857Y-7145010D02*
X34933571Y-7109295D01*
X34933571Y-7109295D02*
X34969285Y-7037867D01*
X34969285Y-7037867D02*
X34969285Y-6859295D01*
X34969285Y-6859295D02*
X34933571Y-6787867D01*
X34933571Y-6787867D02*
X34897857Y-6752152D01*
X34897857Y-6752152D02*
X34826428Y-6716438D01*
X34826428Y-6716438D02*
X34683571Y-6716438D01*
X34683571Y-6716438D02*
X34612142Y-6752152D01*
X34612142Y-6752152D02*
X34576428Y-6787867D01*
X34576428Y-6787867D02*
X34540714Y-6859295D01*
X51670714Y-11020724D02*
X51670714Y-11520724D01*
X51492142Y-10735010D02*
X51313571Y-11270724D01*
X51313571Y-11270724D02*
X51777856Y-11270724D01*
X51992142Y-10770724D02*
X52492142Y-10770724D01*
X52492142Y-10770724D02*
X52170714Y-11520724D01*
X52777857Y-11520724D02*
X52777857Y-10770724D01*
X53206428Y-11520724D02*
X52885000Y-11092152D01*
X53206428Y-10770724D02*
X52777857Y-11199295D01*
X51747856Y-10570724D02*
X51497856Y-10213581D01*
X51319285Y-10570724D02*
X51319285Y-9820724D01*
X51319285Y-9820724D02*
X51604999Y-9820724D01*
X51604999Y-9820724D02*
X51676428Y-9856438D01*
X51676428Y-9856438D02*
X51712142Y-9892152D01*
X51712142Y-9892152D02*
X51747856Y-9963581D01*
X51747856Y-9963581D02*
X51747856Y-10070724D01*
X51747856Y-10070724D02*
X51712142Y-10142152D01*
X51712142Y-10142152D02*
X51676428Y-10177867D01*
X51676428Y-10177867D02*
X51604999Y-10213581D01*
X51604999Y-10213581D02*
X51319285Y-10213581D01*
X52033571Y-9892152D02*
X52069285Y-9856438D01*
X52069285Y-9856438D02*
X52140714Y-9820724D01*
X52140714Y-9820724D02*
X52319285Y-9820724D01*
X52319285Y-9820724D02*
X52390714Y-9856438D01*
X52390714Y-9856438D02*
X52426428Y-9892152D01*
X52426428Y-9892152D02*
X52462142Y-9963581D01*
X52462142Y-9963581D02*
X52462142Y-10035010D01*
X52462142Y-10035010D02*
X52426428Y-10142152D01*
X52426428Y-10142152D02*
X51997856Y-10570724D01*
X51997856Y-10570724D02*
X52462142Y-10570724D01*
X52712142Y-9820724D02*
X53176428Y-9820724D01*
X53176428Y-9820724D02*
X52926428Y-10106438D01*
X52926428Y-10106438D02*
X53033571Y-10106438D01*
X53033571Y-10106438D02*
X53105000Y-10142152D01*
X53105000Y-10142152D02*
X53140714Y-10177867D01*
X53140714Y-10177867D02*
X53176428Y-10249295D01*
X53176428Y-10249295D02*
X53176428Y-10427867D01*
X53176428Y-10427867D02*
X53140714Y-10499295D01*
X53140714Y-10499295D02*
X53105000Y-10535010D01*
X53105000Y-10535010D02*
X53033571Y-10570724D01*
X53033571Y-10570724D02*
X52819285Y-10570724D01*
X52819285Y-10570724D02*
X52747857Y-10535010D01*
X52747857Y-10535010D02*
X52712142Y-10499295D01*
X33143571Y-18620724D02*
X33143571Y-19120724D01*
X32964999Y-18335010D02*
X32786428Y-18870724D01*
X32786428Y-18870724D02*
X33250713Y-18870724D01*
X33464999Y-18370724D02*
X33964999Y-18370724D01*
X33964999Y-18370724D02*
X33643571Y-19120724D01*
X34393571Y-18370724D02*
X34465000Y-18370724D01*
X34465000Y-18370724D02*
X34536428Y-18406438D01*
X34536428Y-18406438D02*
X34572143Y-18442152D01*
X34572143Y-18442152D02*
X34607857Y-18513581D01*
X34607857Y-18513581D02*
X34643571Y-18656438D01*
X34643571Y-18656438D02*
X34643571Y-18835010D01*
X34643571Y-18835010D02*
X34607857Y-18977867D01*
X34607857Y-18977867D02*
X34572143Y-19049295D01*
X34572143Y-19049295D02*
X34536428Y-19085010D01*
X34536428Y-19085010D02*
X34465000Y-19120724D01*
X34465000Y-19120724D02*
X34393571Y-19120724D01*
X34393571Y-19120724D02*
X34322143Y-19085010D01*
X34322143Y-19085010D02*
X34286428Y-19049295D01*
X34286428Y-19049295D02*
X34250714Y-18977867D01*
X34250714Y-18977867D02*
X34215000Y-18835010D01*
X34215000Y-18835010D02*
X34215000Y-18656438D01*
X34215000Y-18656438D02*
X34250714Y-18513581D01*
X34250714Y-18513581D02*
X34286428Y-18442152D01*
X34286428Y-18442152D02*
X34322143Y-18406438D01*
X34322143Y-18406438D02*
X34393571Y-18370724D01*
X34965000Y-19120724D02*
X34965000Y-18370724D01*
X35393571Y-19120724D02*
X35072143Y-18692152D01*
X35393571Y-18370724D02*
X34965000Y-18799295D01*
X33697856Y-17980724D02*
X33447856Y-17623581D01*
X33269285Y-17980724D02*
X33269285Y-17230724D01*
X33269285Y-17230724D02*
X33554999Y-17230724D01*
X33554999Y-17230724D02*
X33626428Y-17266438D01*
X33626428Y-17266438D02*
X33662142Y-17302152D01*
X33662142Y-17302152D02*
X33697856Y-17373581D01*
X33697856Y-17373581D02*
X33697856Y-17480724D01*
X33697856Y-17480724D02*
X33662142Y-17552152D01*
X33662142Y-17552152D02*
X33626428Y-17587867D01*
X33626428Y-17587867D02*
X33554999Y-17623581D01*
X33554999Y-17623581D02*
X33269285Y-17623581D01*
X34412142Y-17980724D02*
X33983571Y-17980724D01*
X34197856Y-17980724D02*
X34197856Y-17230724D01*
X34197856Y-17230724D02*
X34126428Y-17337867D01*
X34126428Y-17337867D02*
X34054999Y-17409295D01*
X34054999Y-17409295D02*
X33983571Y-17445010D01*
X34662142Y-17230724D02*
X35162142Y-17230724D01*
X35162142Y-17230724D02*
X34840714Y-17980724D01*
X41853571Y-17780724D02*
X41853571Y-18280724D01*
X41674999Y-17495010D02*
X41496428Y-18030724D01*
X41496428Y-18030724D02*
X41960713Y-18030724D01*
X42174999Y-17530724D02*
X42674999Y-17530724D01*
X42674999Y-17530724D02*
X42353571Y-18280724D01*
X43103571Y-17530724D02*
X43175000Y-17530724D01*
X43175000Y-17530724D02*
X43246428Y-17566438D01*
X43246428Y-17566438D02*
X43282143Y-17602152D01*
X43282143Y-17602152D02*
X43317857Y-17673581D01*
X43317857Y-17673581D02*
X43353571Y-17816438D01*
X43353571Y-17816438D02*
X43353571Y-17995010D01*
X43353571Y-17995010D02*
X43317857Y-18137867D01*
X43317857Y-18137867D02*
X43282143Y-18209295D01*
X43282143Y-18209295D02*
X43246428Y-18245010D01*
X43246428Y-18245010D02*
X43175000Y-18280724D01*
X43175000Y-18280724D02*
X43103571Y-18280724D01*
X43103571Y-18280724D02*
X43032143Y-18245010D01*
X43032143Y-18245010D02*
X42996428Y-18209295D01*
X42996428Y-18209295D02*
X42960714Y-18137867D01*
X42960714Y-18137867D02*
X42925000Y-17995010D01*
X42925000Y-17995010D02*
X42925000Y-17816438D01*
X42925000Y-17816438D02*
X42960714Y-17673581D01*
X42960714Y-17673581D02*
X42996428Y-17602152D01*
X42996428Y-17602152D02*
X43032143Y-17566438D01*
X43032143Y-17566438D02*
X43103571Y-17530724D01*
X43675000Y-18280724D02*
X43675000Y-17530724D01*
X44103571Y-18280724D02*
X43782143Y-17852152D01*
X44103571Y-17530724D02*
X43675000Y-17959295D01*
X42697856Y-13400724D02*
X42447856Y-13043581D01*
X42269285Y-13400724D02*
X42269285Y-12650724D01*
X42269285Y-12650724D02*
X42554999Y-12650724D01*
X42554999Y-12650724D02*
X42626428Y-12686438D01*
X42626428Y-12686438D02*
X42662142Y-12722152D01*
X42662142Y-12722152D02*
X42697856Y-12793581D01*
X42697856Y-12793581D02*
X42697856Y-12900724D01*
X42697856Y-12900724D02*
X42662142Y-12972152D01*
X42662142Y-12972152D02*
X42626428Y-13007867D01*
X42626428Y-13007867D02*
X42554999Y-13043581D01*
X42554999Y-13043581D02*
X42269285Y-13043581D01*
X43412142Y-13400724D02*
X42983571Y-13400724D01*
X43197856Y-13400724D02*
X43197856Y-12650724D01*
X43197856Y-12650724D02*
X43126428Y-12757867D01*
X43126428Y-12757867D02*
X43054999Y-12829295D01*
X43054999Y-12829295D02*
X42983571Y-12865010D01*
X44055000Y-12900724D02*
X44055000Y-13400724D01*
X43876428Y-12615010D02*
X43697857Y-13150724D01*
X43697857Y-13150724D02*
X44162142Y-13150724D01*
X48254999Y-14620724D02*
X47826428Y-14620724D01*
X48040713Y-14620724D02*
X48040713Y-13870724D01*
X48040713Y-13870724D02*
X47969285Y-13977867D01*
X47969285Y-13977867D02*
X47897856Y-14049295D01*
X47897856Y-14049295D02*
X47826428Y-14085010D01*
X48719285Y-13870724D02*
X48790714Y-13870724D01*
X48790714Y-13870724D02*
X48862142Y-13906438D01*
X48862142Y-13906438D02*
X48897857Y-13942152D01*
X48897857Y-13942152D02*
X48933571Y-14013581D01*
X48933571Y-14013581D02*
X48969285Y-14156438D01*
X48969285Y-14156438D02*
X48969285Y-14335010D01*
X48969285Y-14335010D02*
X48933571Y-14477867D01*
X48933571Y-14477867D02*
X48897857Y-14549295D01*
X48897857Y-14549295D02*
X48862142Y-14585010D01*
X48862142Y-14585010D02*
X48790714Y-14620724D01*
X48790714Y-14620724D02*
X48719285Y-14620724D01*
X48719285Y-14620724D02*
X48647857Y-14585010D01*
X48647857Y-14585010D02*
X48612142Y-14549295D01*
X48612142Y-14549295D02*
X48576428Y-14477867D01*
X48576428Y-14477867D02*
X48540714Y-14335010D01*
X48540714Y-14335010D02*
X48540714Y-14156438D01*
X48540714Y-14156438D02*
X48576428Y-14013581D01*
X48576428Y-14013581D02*
X48612142Y-13942152D01*
X48612142Y-13942152D02*
X48647857Y-13906438D01*
X48647857Y-13906438D02*
X48719285Y-13870724D01*
X49433571Y-13870724D02*
X49505000Y-13870724D01*
X49505000Y-13870724D02*
X49576428Y-13906438D01*
X49576428Y-13906438D02*
X49612143Y-13942152D01*
X49612143Y-13942152D02*
X49647857Y-14013581D01*
X49647857Y-14013581D02*
X49683571Y-14156438D01*
X49683571Y-14156438D02*
X49683571Y-14335010D01*
X49683571Y-14335010D02*
X49647857Y-14477867D01*
X49647857Y-14477867D02*
X49612143Y-14549295D01*
X49612143Y-14549295D02*
X49576428Y-14585010D01*
X49576428Y-14585010D02*
X49505000Y-14620724D01*
X49505000Y-14620724D02*
X49433571Y-14620724D01*
X49433571Y-14620724D02*
X49362143Y-14585010D01*
X49362143Y-14585010D02*
X49326428Y-14549295D01*
X49326428Y-14549295D02*
X49290714Y-14477867D01*
X49290714Y-14477867D02*
X49255000Y-14335010D01*
X49255000Y-14335010D02*
X49255000Y-14156438D01*
X49255000Y-14156438D02*
X49290714Y-14013581D01*
X49290714Y-14013581D02*
X49326428Y-13942152D01*
X49326428Y-13942152D02*
X49362143Y-13906438D01*
X49362143Y-13906438D02*
X49433571Y-13870724D01*
X50005000Y-14620724D02*
X50005000Y-13870724D01*
X50433571Y-14620724D02*
X50112143Y-14192152D01*
X50433571Y-13870724D02*
X50005000Y-14299295D01*
X48577856Y-13750724D02*
X48327856Y-13393581D01*
X48149285Y-13750724D02*
X48149285Y-13000724D01*
X48149285Y-13000724D02*
X48434999Y-13000724D01*
X48434999Y-13000724D02*
X48506428Y-13036438D01*
X48506428Y-13036438D02*
X48542142Y-13072152D01*
X48542142Y-13072152D02*
X48577856Y-13143581D01*
X48577856Y-13143581D02*
X48577856Y-13250724D01*
X48577856Y-13250724D02*
X48542142Y-13322152D01*
X48542142Y-13322152D02*
X48506428Y-13357867D01*
X48506428Y-13357867D02*
X48434999Y-13393581D01*
X48434999Y-13393581D02*
X48149285Y-13393581D01*
X48863571Y-13072152D02*
X48899285Y-13036438D01*
X48899285Y-13036438D02*
X48970714Y-13000724D01*
X48970714Y-13000724D02*
X49149285Y-13000724D01*
X49149285Y-13000724D02*
X49220714Y-13036438D01*
X49220714Y-13036438D02*
X49256428Y-13072152D01*
X49256428Y-13072152D02*
X49292142Y-13143581D01*
X49292142Y-13143581D02*
X49292142Y-13215010D01*
X49292142Y-13215010D02*
X49256428Y-13322152D01*
X49256428Y-13322152D02*
X48827856Y-13750724D01*
X48827856Y-13750724D02*
X49292142Y-13750724D01*
X49756428Y-13000724D02*
X49827857Y-13000724D01*
X49827857Y-13000724D02*
X49899285Y-13036438D01*
X49899285Y-13036438D02*
X49935000Y-13072152D01*
X49935000Y-13072152D02*
X49970714Y-13143581D01*
X49970714Y-13143581D02*
X50006428Y-13286438D01*
X50006428Y-13286438D02*
X50006428Y-13465010D01*
X50006428Y-13465010D02*
X49970714Y-13607867D01*
X49970714Y-13607867D02*
X49935000Y-13679295D01*
X49935000Y-13679295D02*
X49899285Y-13715010D01*
X49899285Y-13715010D02*
X49827857Y-13750724D01*
X49827857Y-13750724D02*
X49756428Y-13750724D01*
X49756428Y-13750724D02*
X49685000Y-13715010D01*
X49685000Y-13715010D02*
X49649285Y-13679295D01*
X49649285Y-13679295D02*
X49613571Y-13607867D01*
X49613571Y-13607867D02*
X49577857Y-13465010D01*
X49577857Y-13465010D02*
X49577857Y-13286438D01*
X49577857Y-13286438D02*
X49613571Y-13143581D01*
X49613571Y-13143581D02*
X49649285Y-13072152D01*
X49649285Y-13072152D02*
X49685000Y-13036438D01*
X49685000Y-13036438D02*
X49756428Y-13000724D01*
X55010714Y-6920724D02*
X54582143Y-6920724D01*
X54796428Y-6920724D02*
X54796428Y-6170724D01*
X54796428Y-6170724D02*
X54725000Y-6277867D01*
X54725000Y-6277867D02*
X54653571Y-6349295D01*
X54653571Y-6349295D02*
X54582143Y-6385010D01*
X55475000Y-6170724D02*
X55546429Y-6170724D01*
X55546429Y-6170724D02*
X55617857Y-6206438D01*
X55617857Y-6206438D02*
X55653572Y-6242152D01*
X55653572Y-6242152D02*
X55689286Y-6313581D01*
X55689286Y-6313581D02*
X55725000Y-6456438D01*
X55725000Y-6456438D02*
X55725000Y-6635010D01*
X55725000Y-6635010D02*
X55689286Y-6777867D01*
X55689286Y-6777867D02*
X55653572Y-6849295D01*
X55653572Y-6849295D02*
X55617857Y-6885010D01*
X55617857Y-6885010D02*
X55546429Y-6920724D01*
X55546429Y-6920724D02*
X55475000Y-6920724D01*
X55475000Y-6920724D02*
X55403572Y-6885010D01*
X55403572Y-6885010D02*
X55367857Y-6849295D01*
X55367857Y-6849295D02*
X55332143Y-6777867D01*
X55332143Y-6777867D02*
X55296429Y-6635010D01*
X55296429Y-6635010D02*
X55296429Y-6456438D01*
X55296429Y-6456438D02*
X55332143Y-6313581D01*
X55332143Y-6313581D02*
X55367857Y-6242152D01*
X55367857Y-6242152D02*
X55403572Y-6206438D01*
X55403572Y-6206438D02*
X55475000Y-6170724D01*
X56189286Y-6170724D02*
X56260715Y-6170724D01*
X56260715Y-6170724D02*
X56332143Y-6206438D01*
X56332143Y-6206438D02*
X56367858Y-6242152D01*
X56367858Y-6242152D02*
X56403572Y-6313581D01*
X56403572Y-6313581D02*
X56439286Y-6456438D01*
X56439286Y-6456438D02*
X56439286Y-6635010D01*
X56439286Y-6635010D02*
X56403572Y-6777867D01*
X56403572Y-6777867D02*
X56367858Y-6849295D01*
X56367858Y-6849295D02*
X56332143Y-6885010D01*
X56332143Y-6885010D02*
X56260715Y-6920724D01*
X56260715Y-6920724D02*
X56189286Y-6920724D01*
X56189286Y-6920724D02*
X56117858Y-6885010D01*
X56117858Y-6885010D02*
X56082143Y-6849295D01*
X56082143Y-6849295D02*
X56046429Y-6777867D01*
X56046429Y-6777867D02*
X56010715Y-6635010D01*
X56010715Y-6635010D02*
X56010715Y-6456438D01*
X56010715Y-6456438D02*
X56046429Y-6313581D01*
X56046429Y-6313581D02*
X56082143Y-6242152D01*
X56082143Y-6242152D02*
X56117858Y-6206438D01*
X56117858Y-6206438D02*
X56189286Y-6170724D01*
X56760715Y-6420724D02*
X56760715Y-6920724D01*
X56760715Y-6492152D02*
X56796429Y-6456438D01*
X56796429Y-6456438D02*
X56867858Y-6420724D01*
X56867858Y-6420724D02*
X56975001Y-6420724D01*
X56975001Y-6420724D02*
X57046429Y-6456438D01*
X57046429Y-6456438D02*
X57082144Y-6527867D01*
X57082144Y-6527867D02*
X57082144Y-6920724D01*
X51807856Y-6889295D02*
X51772142Y-6925010D01*
X51772142Y-6925010D02*
X51664999Y-6960724D01*
X51664999Y-6960724D02*
X51593571Y-6960724D01*
X51593571Y-6960724D02*
X51486428Y-6925010D01*
X51486428Y-6925010D02*
X51414999Y-6853581D01*
X51414999Y-6853581D02*
X51379285Y-6782152D01*
X51379285Y-6782152D02*
X51343571Y-6639295D01*
X51343571Y-6639295D02*
X51343571Y-6532152D01*
X51343571Y-6532152D02*
X51379285Y-6389295D01*
X51379285Y-6389295D02*
X51414999Y-6317867D01*
X51414999Y-6317867D02*
X51486428Y-6246438D01*
X51486428Y-6246438D02*
X51593571Y-6210724D01*
X51593571Y-6210724D02*
X51664999Y-6210724D01*
X51664999Y-6210724D02*
X51772142Y-6246438D01*
X51772142Y-6246438D02*
X51807856Y-6282152D01*
X52522142Y-6960724D02*
X52093571Y-6960724D01*
X52307856Y-6960724D02*
X52307856Y-6210724D01*
X52307856Y-6210724D02*
X52236428Y-6317867D01*
X52236428Y-6317867D02*
X52164999Y-6389295D01*
X52164999Y-6389295D02*
X52093571Y-6425010D01*
X52772142Y-6210724D02*
X53236428Y-6210724D01*
X53236428Y-6210724D02*
X52986428Y-6496438D01*
X52986428Y-6496438D02*
X53093571Y-6496438D01*
X53093571Y-6496438D02*
X53165000Y-6532152D01*
X53165000Y-6532152D02*
X53200714Y-6567867D01*
X53200714Y-6567867D02*
X53236428Y-6639295D01*
X53236428Y-6639295D02*
X53236428Y-6817867D01*
X53236428Y-6817867D02*
X53200714Y-6889295D01*
X53200714Y-6889295D02*
X53165000Y-6925010D01*
X53165000Y-6925010D02*
X53093571Y-6960724D01*
X53093571Y-6960724D02*
X52879285Y-6960724D01*
X52879285Y-6960724D02*
X52807857Y-6925010D01*
X52807857Y-6925010D02*
X52772142Y-6889295D01*
X54936428Y-28600724D02*
X54507857Y-28600724D01*
X54722142Y-28600724D02*
X54722142Y-27850724D01*
X54722142Y-27850724D02*
X54650714Y-27957867D01*
X54650714Y-27957867D02*
X54579285Y-28029295D01*
X54579285Y-28029295D02*
X54507857Y-28065010D01*
X55400714Y-27850724D02*
X55472143Y-27850724D01*
X55472143Y-27850724D02*
X55543571Y-27886438D01*
X55543571Y-27886438D02*
X55579286Y-27922152D01*
X55579286Y-27922152D02*
X55615000Y-27993581D01*
X55615000Y-27993581D02*
X55650714Y-28136438D01*
X55650714Y-28136438D02*
X55650714Y-28315010D01*
X55650714Y-28315010D02*
X55615000Y-28457867D01*
X55615000Y-28457867D02*
X55579286Y-28529295D01*
X55579286Y-28529295D02*
X55543571Y-28565010D01*
X55543571Y-28565010D02*
X55472143Y-28600724D01*
X55472143Y-28600724D02*
X55400714Y-28600724D01*
X55400714Y-28600724D02*
X55329286Y-28565010D01*
X55329286Y-28565010D02*
X55293571Y-28529295D01*
X55293571Y-28529295D02*
X55257857Y-28457867D01*
X55257857Y-28457867D02*
X55222143Y-28315010D01*
X55222143Y-28315010D02*
X55222143Y-28136438D01*
X55222143Y-28136438D02*
X55257857Y-27993581D01*
X55257857Y-27993581D02*
X55293571Y-27922152D01*
X55293571Y-27922152D02*
X55329286Y-27886438D01*
X55329286Y-27886438D02*
X55400714Y-27850724D01*
X56293572Y-28100724D02*
X56293572Y-28600724D01*
X55972143Y-28100724D02*
X55972143Y-28493581D01*
X55972143Y-28493581D02*
X56007857Y-28565010D01*
X56007857Y-28565010D02*
X56079286Y-28600724D01*
X56079286Y-28600724D02*
X56186429Y-28600724D01*
X56186429Y-28600724D02*
X56257857Y-28565010D01*
X56257857Y-28565010D02*
X56293572Y-28529295D01*
X56900714Y-28207867D02*
X56650714Y-28207867D01*
X56650714Y-28600724D02*
X56650714Y-27850724D01*
X56650714Y-27850724D02*
X57007857Y-27850724D01*
X55444999Y-27549295D02*
X55409285Y-27585010D01*
X55409285Y-27585010D02*
X55302142Y-27620724D01*
X55302142Y-27620724D02*
X55230714Y-27620724D01*
X55230714Y-27620724D02*
X55123571Y-27585010D01*
X55123571Y-27585010D02*
X55052142Y-27513581D01*
X55052142Y-27513581D02*
X55016428Y-27442152D01*
X55016428Y-27442152D02*
X54980714Y-27299295D01*
X54980714Y-27299295D02*
X54980714Y-27192152D01*
X54980714Y-27192152D02*
X55016428Y-27049295D01*
X55016428Y-27049295D02*
X55052142Y-26977867D01*
X55052142Y-26977867D02*
X55123571Y-26906438D01*
X55123571Y-26906438D02*
X55230714Y-26870724D01*
X55230714Y-26870724D02*
X55302142Y-26870724D01*
X55302142Y-26870724D02*
X55409285Y-26906438D01*
X55409285Y-26906438D02*
X55444999Y-26942152D01*
X55694999Y-26870724D02*
X56194999Y-26870724D01*
X56194999Y-26870724D02*
X55873571Y-27620724D01*
X31013571Y-16290724D02*
X31013571Y-16790724D01*
X30834999Y-16005010D02*
X30656428Y-16540724D01*
X30656428Y-16540724D02*
X31120713Y-16540724D01*
X31334999Y-16040724D02*
X31834999Y-16040724D01*
X31834999Y-16040724D02*
X31513571Y-16790724D01*
X32263571Y-16040724D02*
X32335000Y-16040724D01*
X32335000Y-16040724D02*
X32406428Y-16076438D01*
X32406428Y-16076438D02*
X32442143Y-16112152D01*
X32442143Y-16112152D02*
X32477857Y-16183581D01*
X32477857Y-16183581D02*
X32513571Y-16326438D01*
X32513571Y-16326438D02*
X32513571Y-16505010D01*
X32513571Y-16505010D02*
X32477857Y-16647867D01*
X32477857Y-16647867D02*
X32442143Y-16719295D01*
X32442143Y-16719295D02*
X32406428Y-16755010D01*
X32406428Y-16755010D02*
X32335000Y-16790724D01*
X32335000Y-16790724D02*
X32263571Y-16790724D01*
X32263571Y-16790724D02*
X32192143Y-16755010D01*
X32192143Y-16755010D02*
X32156428Y-16719295D01*
X32156428Y-16719295D02*
X32120714Y-16647867D01*
X32120714Y-16647867D02*
X32085000Y-16505010D01*
X32085000Y-16505010D02*
X32085000Y-16326438D01*
X32085000Y-16326438D02*
X32120714Y-16183581D01*
X32120714Y-16183581D02*
X32156428Y-16112152D01*
X32156428Y-16112152D02*
X32192143Y-16076438D01*
X32192143Y-16076438D02*
X32263571Y-16040724D01*
X32835000Y-16790724D02*
X32835000Y-16040724D01*
X33263571Y-16790724D02*
X32942143Y-16362152D01*
X33263571Y-16040724D02*
X32835000Y-16469295D01*
X31477856Y-15780724D02*
X31227856Y-15423581D01*
X31049285Y-15780724D02*
X31049285Y-15030724D01*
X31049285Y-15030724D02*
X31334999Y-15030724D01*
X31334999Y-15030724D02*
X31406428Y-15066438D01*
X31406428Y-15066438D02*
X31442142Y-15102152D01*
X31442142Y-15102152D02*
X31477856Y-15173581D01*
X31477856Y-15173581D02*
X31477856Y-15280724D01*
X31477856Y-15280724D02*
X31442142Y-15352152D01*
X31442142Y-15352152D02*
X31406428Y-15387867D01*
X31406428Y-15387867D02*
X31334999Y-15423581D01*
X31334999Y-15423581D02*
X31049285Y-15423581D01*
X32192142Y-15780724D02*
X31763571Y-15780724D01*
X31977856Y-15780724D02*
X31977856Y-15030724D01*
X31977856Y-15030724D02*
X31906428Y-15137867D01*
X31906428Y-15137867D02*
X31834999Y-15209295D01*
X31834999Y-15209295D02*
X31763571Y-15245010D01*
X32620714Y-15352152D02*
X32549285Y-15316438D01*
X32549285Y-15316438D02*
X32513571Y-15280724D01*
X32513571Y-15280724D02*
X32477857Y-15209295D01*
X32477857Y-15209295D02*
X32477857Y-15173581D01*
X32477857Y-15173581D02*
X32513571Y-15102152D01*
X32513571Y-15102152D02*
X32549285Y-15066438D01*
X32549285Y-15066438D02*
X32620714Y-15030724D01*
X32620714Y-15030724D02*
X32763571Y-15030724D01*
X32763571Y-15030724D02*
X32835000Y-15066438D01*
X32835000Y-15066438D02*
X32870714Y-15102152D01*
X32870714Y-15102152D02*
X32906428Y-15173581D01*
X32906428Y-15173581D02*
X32906428Y-15209295D01*
X32906428Y-15209295D02*
X32870714Y-15280724D01*
X32870714Y-15280724D02*
X32835000Y-15316438D01*
X32835000Y-15316438D02*
X32763571Y-15352152D01*
X32763571Y-15352152D02*
X32620714Y-15352152D01*
X32620714Y-15352152D02*
X32549285Y-15387867D01*
X32549285Y-15387867D02*
X32513571Y-15423581D01*
X32513571Y-15423581D02*
X32477857Y-15495010D01*
X32477857Y-15495010D02*
X32477857Y-15637867D01*
X32477857Y-15637867D02*
X32513571Y-15709295D01*
X32513571Y-15709295D02*
X32549285Y-15745010D01*
X32549285Y-15745010D02*
X32620714Y-15780724D01*
X32620714Y-15780724D02*
X32763571Y-15780724D01*
X32763571Y-15780724D02*
X32835000Y-15745010D01*
X32835000Y-15745010D02*
X32870714Y-15709295D01*
X32870714Y-15709295D02*
X32906428Y-15637867D01*
X32906428Y-15637867D02*
X32906428Y-15495010D01*
X32906428Y-15495010D02*
X32870714Y-15423581D01*
X32870714Y-15423581D02*
X32835000Y-15387867D01*
X32835000Y-15387867D02*
X32763571Y-15352152D01*
X3113571Y-31542152D02*
X3149285Y-31506438D01*
X3149285Y-31506438D02*
X3220714Y-31470724D01*
X3220714Y-31470724D02*
X3399285Y-31470724D01*
X3399285Y-31470724D02*
X3470714Y-31506438D01*
X3470714Y-31506438D02*
X3506428Y-31542152D01*
X3506428Y-31542152D02*
X3542142Y-31613581D01*
X3542142Y-31613581D02*
X3542142Y-31685010D01*
X3542142Y-31685010D02*
X3506428Y-31792152D01*
X3506428Y-31792152D02*
X3077856Y-32220724D01*
X3077856Y-32220724D02*
X3542142Y-32220724D01*
X3863571Y-32220724D02*
X3863571Y-31470724D01*
X4292142Y-32220724D02*
X3970714Y-31792152D01*
X4292142Y-31470724D02*
X3863571Y-31899295D01*
X4577857Y-31542152D02*
X4613571Y-31506438D01*
X4613571Y-31506438D02*
X4685000Y-31470724D01*
X4685000Y-31470724D02*
X4863571Y-31470724D01*
X4863571Y-31470724D02*
X4935000Y-31506438D01*
X4935000Y-31506438D02*
X4970714Y-31542152D01*
X4970714Y-31542152D02*
X5006428Y-31613581D01*
X5006428Y-31613581D02*
X5006428Y-31685010D01*
X5006428Y-31685010D02*
X4970714Y-31792152D01*
X4970714Y-31792152D02*
X4542142Y-32220724D01*
X4542142Y-32220724D02*
X5006428Y-32220724D01*
X4354999Y-33630724D02*
X4104999Y-33273581D01*
X3926428Y-33630724D02*
X3926428Y-32880724D01*
X3926428Y-32880724D02*
X4212142Y-32880724D01*
X4212142Y-32880724D02*
X4283571Y-32916438D01*
X4283571Y-32916438D02*
X4319285Y-32952152D01*
X4319285Y-32952152D02*
X4354999Y-33023581D01*
X4354999Y-33023581D02*
X4354999Y-33130724D01*
X4354999Y-33130724D02*
X4319285Y-33202152D01*
X4319285Y-33202152D02*
X4283571Y-33237867D01*
X4283571Y-33237867D02*
X4212142Y-33273581D01*
X4212142Y-33273581D02*
X3926428Y-33273581D01*
X4712142Y-33630724D02*
X4854999Y-33630724D01*
X4854999Y-33630724D02*
X4926428Y-33595010D01*
X4926428Y-33595010D02*
X4962142Y-33559295D01*
X4962142Y-33559295D02*
X5033571Y-33452152D01*
X5033571Y-33452152D02*
X5069285Y-33309295D01*
X5069285Y-33309295D02*
X5069285Y-33023581D01*
X5069285Y-33023581D02*
X5033571Y-32952152D01*
X5033571Y-32952152D02*
X4997857Y-32916438D01*
X4997857Y-32916438D02*
X4926428Y-32880724D01*
X4926428Y-32880724D02*
X4783571Y-32880724D01*
X4783571Y-32880724D02*
X4712142Y-32916438D01*
X4712142Y-32916438D02*
X4676428Y-32952152D01*
X4676428Y-32952152D02*
X4640714Y-33023581D01*
X4640714Y-33023581D02*
X4640714Y-33202152D01*
X4640714Y-33202152D02*
X4676428Y-33273581D01*
X4676428Y-33273581D02*
X4712142Y-33309295D01*
X4712142Y-33309295D02*
X4783571Y-33345010D01*
X4783571Y-33345010D02*
X4926428Y-33345010D01*
X4926428Y-33345010D02*
X4997857Y-33309295D01*
X4997857Y-33309295D02*
X5033571Y-33273581D01*
X5033571Y-33273581D02*
X5069285Y-33202152D01*
X50327142Y-12598224D02*
X49969999Y-12598224D01*
X49969999Y-12598224D02*
X49969999Y-11848224D01*
X50577142Y-12598224D02*
X50577142Y-11848224D01*
X50577142Y-11848224D02*
X50827142Y-12383938D01*
X50827142Y-12383938D02*
X51077142Y-11848224D01*
X51077142Y-11848224D02*
X51077142Y-12598224D01*
X51362856Y-11848224D02*
X51827142Y-11848224D01*
X51827142Y-11848224D02*
X51577142Y-12133938D01*
X51577142Y-12133938D02*
X51684285Y-12133938D01*
X51684285Y-12133938D02*
X51755714Y-12169652D01*
X51755714Y-12169652D02*
X51791428Y-12205367D01*
X51791428Y-12205367D02*
X51827142Y-12276795D01*
X51827142Y-12276795D02*
X51827142Y-12455367D01*
X51827142Y-12455367D02*
X51791428Y-12526795D01*
X51791428Y-12526795D02*
X51755714Y-12562510D01*
X51755714Y-12562510D02*
X51684285Y-12598224D01*
X51684285Y-12598224D02*
X51469999Y-12598224D01*
X51469999Y-12598224D02*
X51398571Y-12562510D01*
X51398571Y-12562510D02*
X51362856Y-12526795D01*
X52541428Y-12598224D02*
X52112857Y-12598224D01*
X52327142Y-12598224D02*
X52327142Y-11848224D01*
X52327142Y-11848224D02*
X52255714Y-11955367D01*
X52255714Y-11955367D02*
X52184285Y-12026795D01*
X52184285Y-12026795D02*
X52112857Y-12062510D01*
X53255714Y-12598224D02*
X52827143Y-12598224D01*
X53041428Y-12598224D02*
X53041428Y-11848224D01*
X53041428Y-11848224D02*
X52970000Y-11955367D01*
X52970000Y-11955367D02*
X52898571Y-12026795D01*
X52898571Y-12026795D02*
X52827143Y-12062510D01*
X53577143Y-12598224D02*
X53577143Y-11848224D01*
X53577143Y-11848224D02*
X53755714Y-11848224D01*
X53755714Y-11848224D02*
X53862857Y-11883938D01*
X53862857Y-11883938D02*
X53934286Y-11955367D01*
X53934286Y-11955367D02*
X53970000Y-12026795D01*
X53970000Y-12026795D02*
X54005714Y-12169652D01*
X54005714Y-12169652D02*
X54005714Y-12276795D01*
X54005714Y-12276795D02*
X53970000Y-12419652D01*
X53970000Y-12419652D02*
X53934286Y-12491081D01*
X53934286Y-12491081D02*
X53862857Y-12562510D01*
X53862857Y-12562510D02*
X53755714Y-12598224D01*
X53755714Y-12598224D02*
X53577143Y-12598224D01*
X56057857Y-12688224D02*
X56057857Y-11938224D01*
X56843571Y-12616795D02*
X56807857Y-12652510D01*
X56807857Y-12652510D02*
X56700714Y-12688224D01*
X56700714Y-12688224D02*
X56629286Y-12688224D01*
X56629286Y-12688224D02*
X56522143Y-12652510D01*
X56522143Y-12652510D02*
X56450714Y-12581081D01*
X56450714Y-12581081D02*
X56415000Y-12509652D01*
X56415000Y-12509652D02*
X56379286Y-12366795D01*
X56379286Y-12366795D02*
X56379286Y-12259652D01*
X56379286Y-12259652D02*
X56415000Y-12116795D01*
X56415000Y-12116795D02*
X56450714Y-12045367D01*
X56450714Y-12045367D02*
X56522143Y-11973938D01*
X56522143Y-11973938D02*
X56629286Y-11938224D01*
X56629286Y-11938224D02*
X56700714Y-11938224D01*
X56700714Y-11938224D02*
X56807857Y-11973938D01*
X56807857Y-11973938D02*
X56843571Y-12009652D01*
X57129286Y-12009652D02*
X57165000Y-11973938D01*
X57165000Y-11973938D02*
X57236429Y-11938224D01*
X57236429Y-11938224D02*
X57415000Y-11938224D01*
X57415000Y-11938224D02*
X57486429Y-11973938D01*
X57486429Y-11973938D02*
X57522143Y-12009652D01*
X57522143Y-12009652D02*
X57557857Y-12081081D01*
X57557857Y-12081081D02*
X57557857Y-12152510D01*
X57557857Y-12152510D02*
X57522143Y-12259652D01*
X57522143Y-12259652D02*
X57093571Y-12688224D01*
X57093571Y-12688224D02*
X57557857Y-12688224D01*
D11*
%TO.C,R1*%
X2730000Y-26106250D02*
X3390000Y-26106250D01*
X10350000Y-26106250D02*
X9690000Y-26106250D01*
X3390000Y-24856250D02*
X9690000Y-24856250D01*
X9690000Y-27356250D01*
X3390000Y-27356250D01*
X3390000Y-24856250D01*
%TO.C,R6*%
X4930000Y-10200000D02*
X6330000Y-10200000D01*
X17630000Y-10200000D02*
X16230000Y-10200000D01*
X16230000Y-12000000D02*
X6330000Y-12000000D01*
X6330000Y-8400000D01*
X16230000Y-8400000D01*
X16230000Y-12000000D01*
%TO.C,R2*%
X2730000Y-22617500D02*
X3390000Y-22617500D01*
X10350000Y-22617500D02*
X9690000Y-22617500D01*
X3390000Y-21367500D02*
X9690000Y-21367500D01*
X9690000Y-23867500D01*
X3390000Y-23867500D01*
X3390000Y-21367500D01*
%TO.C,R7*%
X22170000Y-15400000D02*
X22830000Y-15400000D01*
X29790000Y-15400000D02*
X29130000Y-15400000D01*
X22830000Y-14150000D02*
X29130000Y-14150000D01*
X29130000Y-16650000D01*
X22830000Y-16650000D01*
X22830000Y-14150000D01*
%TO.C,J1*%
X7100000Y-210000D02*
X57900000Y-210000D01*
X7100000Y-2750000D02*
X7100000Y-210000D01*
D10*
X7940000Y-3090000D02*
X7940000Y-2860000D01*
X7960000Y5900000D02*
X8820000Y5900000D01*
X7960000Y-100000D02*
X7960000Y5900000D01*
D11*
X8050000Y5790000D02*
X8690000Y5790000D01*
X8050000Y-210000D02*
X8050000Y5790000D01*
X8050000Y-4570000D02*
X8050000Y-2750000D01*
X8050000Y-4570000D02*
X8690000Y-4570000D01*
X8690000Y-4570000D02*
X8690000Y-2750000D01*
X8720000Y-210000D02*
X8720000Y5790000D01*
D10*
X8800000Y-3090000D02*
X8800000Y-2860000D01*
X8820000Y5900000D02*
X8820000Y-100000D01*
X9640000Y-2860000D02*
X9640000Y-100000D01*
X10480000Y5900000D02*
X11340000Y5900000D01*
X10480000Y-100000D02*
X10480000Y5900000D01*
X10480000Y-3172642D02*
X10480000Y-2860000D01*
D11*
X10590000Y5790000D02*
X11230000Y5790000D01*
X10590000Y-210000D02*
X10590000Y5790000D01*
X10590000Y-4570000D02*
X10590000Y-2750000D01*
X10590000Y-4570000D02*
X11230000Y-4570000D01*
X11230000Y-210000D02*
X11230000Y5790000D01*
X11230000Y-4570000D02*
X11230000Y-2750000D01*
D10*
X11340000Y5900000D02*
X11340000Y-100000D01*
X11340000Y-3172642D02*
X11340000Y-2860000D01*
X12180000Y-2860000D02*
X12180000Y-100000D01*
X13020000Y5900000D02*
X13880000Y5900000D01*
X13020000Y-100000D02*
X13020000Y5900000D01*
X13020000Y-3172642D02*
X13020000Y-2860000D01*
D11*
X13130000Y5790000D02*
X13770000Y5790000D01*
X13130000Y-210000D02*
X13130000Y5790000D01*
X13130000Y-4570000D02*
X13130000Y-2750000D01*
X13130000Y-4570000D02*
X13770000Y-4570000D01*
X13770000Y-210000D02*
X13770000Y5790000D01*
X13770000Y-4570000D02*
X13770000Y-2750000D01*
D10*
X13880000Y5900000D02*
X13880000Y-100000D01*
X13880000Y-3172642D02*
X13880000Y-2860000D01*
X14720000Y-2860000D02*
X14720000Y-100000D01*
X15560000Y5900000D02*
X16420000Y5900000D01*
X15560000Y-100000D02*
X15560000Y5900000D01*
X15560000Y-3172642D02*
X15560000Y-2860000D01*
D11*
X15670000Y5790000D02*
X16310000Y5790000D01*
X15670000Y-210000D02*
X15670000Y5790000D01*
X15670000Y-4570000D02*
X15670000Y-2750000D01*
X15670000Y-4570000D02*
X16310000Y-4570000D01*
X16310000Y-210000D02*
X16310000Y5790000D01*
X16310000Y-4570000D02*
X16310000Y-2750000D01*
D10*
X16420000Y5900000D02*
X16420000Y-100000D01*
X16420000Y-3172642D02*
X16420000Y-2860000D01*
X17260000Y-2860000D02*
X17260000Y-100000D01*
X18100000Y5900000D02*
X18960000Y5900000D01*
X18100000Y-100000D02*
X18100000Y5900000D01*
X18100000Y-3172642D02*
X18100000Y-2860000D01*
D11*
X18210000Y5790000D02*
X18850000Y5790000D01*
X18210000Y-210000D02*
X18210000Y5790000D01*
X18210000Y-4570000D02*
X18210000Y-2750000D01*
X18210000Y-4570000D02*
X18850000Y-4570000D01*
X18850000Y-210000D02*
X18850000Y5790000D01*
X18850000Y-4570000D02*
X18850000Y-2750000D01*
D10*
X18960000Y5900000D02*
X18960000Y-100000D01*
X18960000Y-3172642D02*
X18960000Y-2860000D01*
X19800000Y-2860000D02*
X19800000Y-100000D01*
X20640000Y5900000D02*
X21500000Y5900000D01*
X20640000Y-100000D02*
X20640000Y5900000D01*
X20640000Y-3172642D02*
X20640000Y-2860000D01*
D11*
X20750000Y5790000D02*
X21390000Y5790000D01*
X20750000Y-210000D02*
X20750000Y5790000D01*
X20750000Y-4570000D02*
X20750000Y-2750000D01*
X20750000Y-4570000D02*
X21390000Y-4570000D01*
X21390000Y-210000D02*
X21390000Y5790000D01*
X21390000Y-4570000D02*
X21390000Y-2750000D01*
D10*
X21500000Y5900000D02*
X21500000Y-100000D01*
X21500000Y-3172642D02*
X21500000Y-2860000D01*
X22340000Y-2860000D02*
X22340000Y-100000D01*
X23180000Y5900000D02*
X24040000Y5900000D01*
X23180000Y-100000D02*
X23180000Y5900000D01*
X23180000Y-3172642D02*
X23180000Y-2860000D01*
D11*
X23290000Y5790000D02*
X23930000Y5790000D01*
X23290000Y-210000D02*
X23290000Y5790000D01*
X23290000Y-4570000D02*
X23290000Y-2750000D01*
X23290000Y-4570000D02*
X23930000Y-4570000D01*
X23930000Y-210000D02*
X23930000Y5790000D01*
X23930000Y-4570000D02*
X23930000Y-2750000D01*
D10*
X24040000Y5900000D02*
X24040000Y-100000D01*
X24040000Y-3172642D02*
X24040000Y-2860000D01*
X24880000Y-2860000D02*
X24880000Y-100000D01*
X25720000Y5900000D02*
X26580000Y5900000D01*
X25720000Y-100000D02*
X25720000Y5900000D01*
X25720000Y-3172642D02*
X25720000Y-2860000D01*
D11*
X25830000Y5790000D02*
X26470000Y5790000D01*
X25830000Y-210000D02*
X25830000Y5790000D01*
X25830000Y-4570000D02*
X25830000Y-2750000D01*
X25830000Y-4570000D02*
X26470000Y-4570000D01*
X26470000Y-210000D02*
X26470000Y5790000D01*
X26470000Y-4570000D02*
X26470000Y-2750000D01*
D10*
X26580000Y5900000D02*
X26580000Y-100000D01*
X26580000Y-3172642D02*
X26580000Y-2860000D01*
X27420000Y-2860000D02*
X27420000Y-100000D01*
X28260000Y5900000D02*
X29120000Y5900000D01*
X28260000Y-100000D02*
X28260000Y5900000D01*
X28260000Y-3172642D02*
X28260000Y-2860000D01*
D11*
X28370000Y5790000D02*
X29010000Y5790000D01*
X28370000Y-210000D02*
X28370000Y5790000D01*
X28370000Y-4570000D02*
X28370000Y-2750000D01*
X28370000Y-4570000D02*
X29010000Y-4570000D01*
X29010000Y-210000D02*
X29010000Y5790000D01*
X29010000Y-4570000D02*
X29010000Y-2750000D01*
D10*
X29120000Y5900000D02*
X29120000Y-100000D01*
X29120000Y-3172642D02*
X29120000Y-2860000D01*
X29960000Y-2860000D02*
X29960000Y-100000D01*
X30800000Y5900000D02*
X31660000Y5900000D01*
X30800000Y-100000D02*
X30800000Y5900000D01*
X30800000Y-3172642D02*
X30800000Y-2860000D01*
D11*
X30910000Y5790000D02*
X31550000Y5790000D01*
X30910000Y-210000D02*
X30910000Y5790000D01*
X30910000Y-4570000D02*
X30910000Y-2750000D01*
X30910000Y-4570000D02*
X31550000Y-4570000D01*
X31550000Y-210000D02*
X31550000Y5790000D01*
X31550000Y-4570000D02*
X31550000Y-2750000D01*
D10*
X31660000Y5900000D02*
X31660000Y-100000D01*
X31660000Y-3172642D02*
X31660000Y-2860000D01*
X32500000Y-2860000D02*
X32500000Y-100000D01*
X33340000Y5900000D02*
X34200000Y5900000D01*
X33340000Y-100000D02*
X33340000Y5900000D01*
X33340000Y-3172642D02*
X33340000Y-2860000D01*
D11*
X33450000Y5790000D02*
X34090000Y5790000D01*
X33450000Y-210000D02*
X33450000Y5790000D01*
X33450000Y-4570000D02*
X33450000Y-2750000D01*
X33450000Y-4570000D02*
X34090000Y-4570000D01*
X34090000Y-210000D02*
X34090000Y5790000D01*
X34090000Y-4570000D02*
X34090000Y-2750000D01*
D10*
X34200000Y5900000D02*
X34200000Y-100000D01*
X34200000Y-3172642D02*
X34200000Y-2860000D01*
X35040000Y-2860000D02*
X35040000Y-100000D01*
X35880000Y5900000D02*
X36740000Y5900000D01*
X35880000Y-100000D02*
X35880000Y5900000D01*
X35880000Y-3172642D02*
X35880000Y-2860000D01*
D11*
X35990000Y5790000D02*
X36630000Y5790000D01*
X35990000Y-210000D02*
X35990000Y5790000D01*
X35990000Y-4570000D02*
X35990000Y-2750000D01*
X35990000Y-4570000D02*
X36630000Y-4570000D01*
X36630000Y-210000D02*
X36630000Y5790000D01*
X36630000Y-4570000D02*
X36630000Y-2750000D01*
D10*
X36740000Y5900000D02*
X36740000Y-100000D01*
X36740000Y-3172642D02*
X36740000Y-2860000D01*
X37580000Y-2860000D02*
X37580000Y-100000D01*
X38420000Y5900000D02*
X39280000Y5900000D01*
X38420000Y-100000D02*
X38420000Y5900000D01*
X38420000Y-3172642D02*
X38420000Y-2860000D01*
D11*
X38530000Y5790000D02*
X39170000Y5790000D01*
X38530000Y-210000D02*
X38530000Y5790000D01*
X38530000Y-4570000D02*
X38530000Y-2750000D01*
X38530000Y-4570000D02*
X39170000Y-4570000D01*
X39170000Y-210000D02*
X39170000Y5790000D01*
X39170000Y-4570000D02*
X39170000Y-2750000D01*
D10*
X39280000Y5900000D02*
X39280000Y-100000D01*
X39280000Y-3172642D02*
X39280000Y-2860000D01*
X40120000Y-2860000D02*
X40120000Y-100000D01*
X40960000Y5900000D02*
X41820000Y5900000D01*
X40960000Y-100000D02*
X40960000Y5900000D01*
X40960000Y-3172642D02*
X40960000Y-2860000D01*
D11*
X41070000Y5790000D02*
X41710000Y5790000D01*
X41070000Y-210000D02*
X41070000Y5790000D01*
X41070000Y-4570000D02*
X41070000Y-2750000D01*
X41070000Y-4570000D02*
X41710000Y-4570000D01*
X41710000Y-210000D02*
X41710000Y5790000D01*
X41710000Y-4570000D02*
X41710000Y-2750000D01*
D10*
X41820000Y5900000D02*
X41820000Y-100000D01*
X41820000Y-3172642D02*
X41820000Y-2860000D01*
X42660000Y-2860000D02*
X42660000Y-100000D01*
X43500000Y5900000D02*
X44360000Y5900000D01*
X43500000Y-100000D02*
X43500000Y5900000D01*
X43500000Y-3172642D02*
X43500000Y-2860000D01*
D11*
X43610000Y5790000D02*
X44250000Y5790000D01*
X43610000Y-210000D02*
X43610000Y5790000D01*
X43610000Y-4570000D02*
X43610000Y-2750000D01*
X43610000Y-4570000D02*
X44250000Y-4570000D01*
X44250000Y-210000D02*
X44250000Y5790000D01*
X44250000Y-4570000D02*
X44250000Y-2750000D01*
D10*
X44360000Y5900000D02*
X44360000Y-100000D01*
X44360000Y-3172642D02*
X44360000Y-2860000D01*
X45200000Y-2860000D02*
X45200000Y-100000D01*
X46040000Y5900000D02*
X46900000Y5900000D01*
X46040000Y-100000D02*
X46040000Y5900000D01*
X46040000Y-3172642D02*
X46040000Y-2860000D01*
D11*
X46150000Y5790000D02*
X46790000Y5790000D01*
X46150000Y-210000D02*
X46150000Y5790000D01*
X46150000Y-4570000D02*
X46150000Y-2750000D01*
X46150000Y-4570000D02*
X46790000Y-4570000D01*
X46790000Y-210000D02*
X46790000Y5790000D01*
X46790000Y-4570000D02*
X46790000Y-2750000D01*
D10*
X46900000Y5900000D02*
X46900000Y-100000D01*
X46900000Y-3172642D02*
X46900000Y-2860000D01*
X47740000Y-2860000D02*
X47740000Y-100000D01*
X48580000Y5900000D02*
X49440000Y5900000D01*
X48580000Y-100000D02*
X48580000Y5900000D01*
X48580000Y-3172642D02*
X48580000Y-2860000D01*
D11*
X48690000Y5790000D02*
X49330000Y5790000D01*
X48690000Y-210000D02*
X48690000Y5790000D01*
X48690000Y-4570000D02*
X48690000Y-2750000D01*
X48690000Y-4570000D02*
X49330000Y-4570000D01*
X49330000Y-210000D02*
X49330000Y5790000D01*
X49330000Y-4570000D02*
X49330000Y-2750000D01*
D10*
X49440000Y5900000D02*
X49440000Y-100000D01*
X49440000Y-3172642D02*
X49440000Y-2860000D01*
X50280000Y-2860000D02*
X50280000Y-100000D01*
X51120000Y5900000D02*
X51980000Y5900000D01*
X51120000Y-100000D02*
X51120000Y5900000D01*
X51120000Y-3172642D02*
X51120000Y-2860000D01*
D11*
X51230000Y5790000D02*
X51870000Y5790000D01*
X51230000Y-210000D02*
X51230000Y5790000D01*
X51230000Y-4570000D02*
X51230000Y-2750000D01*
X51230000Y-4570000D02*
X51870000Y-4570000D01*
X51870000Y-210000D02*
X51870000Y5790000D01*
X51870000Y-4570000D02*
X51870000Y-2750000D01*
D10*
X51980000Y5900000D02*
X51980000Y-100000D01*
X51980000Y-3172642D02*
X51980000Y-2860000D01*
X52820000Y-2860000D02*
X52820000Y-100000D01*
X53660000Y5900000D02*
X54520000Y5900000D01*
X53660000Y-100000D02*
X53660000Y5900000D01*
X53660000Y-3172642D02*
X53660000Y-2860000D01*
D11*
X53770000Y5790000D02*
X54410000Y5790000D01*
X53770000Y-210000D02*
X53770000Y5790000D01*
X53770000Y-4570000D02*
X53770000Y-2750000D01*
X53770000Y-4570000D02*
X54410000Y-4570000D01*
X54410000Y-210000D02*
X54410000Y5790000D01*
X54410000Y-4570000D02*
X54410000Y-2750000D01*
D10*
X54520000Y5900000D02*
X54520000Y-100000D01*
X54520000Y-3172642D02*
X54520000Y-2860000D01*
X55360000Y-2860000D02*
X55360000Y-100000D01*
X56200000Y5900000D02*
X57060000Y5900000D01*
X56200000Y-100000D02*
X56200000Y5900000D01*
X56200000Y-3172642D02*
X56200000Y-2860000D01*
D11*
X56310000Y5790000D02*
X56950000Y5790000D01*
X56310000Y-210000D02*
X56310000Y5790000D01*
X56310000Y-4570000D02*
X56310000Y-2750000D01*
X56310000Y-4570000D02*
X56950000Y-4570000D01*
X56950000Y-210000D02*
X56950000Y5790000D01*
X56950000Y-4570000D02*
X56950000Y-2750000D01*
D10*
X57060000Y5900000D02*
X57060000Y-100000D01*
X57060000Y-3172642D02*
X57060000Y-2860000D01*
D11*
X57900000Y-210000D02*
X57900000Y-2750000D01*
X57900000Y-2750000D02*
X7100000Y-2750000D01*
D10*
X6990000Y-2860000D02*
X58010000Y-2860000D01*
X58010000Y-100000D01*
X6990000Y-100000D01*
X6990000Y-2860000D01*
D11*
%TO.C,R8*%
X21160000Y-12010000D02*
X21820000Y-12010000D01*
X28780000Y-12010000D02*
X28120000Y-12010000D01*
X28120000Y-13260000D02*
X21820000Y-13260000D01*
X21820000Y-10760000D01*
X28120000Y-10760000D01*
X28120000Y-13260000D01*
%TO.C,R4*%
X2730000Y-19128750D02*
X3390000Y-19128750D01*
X10350000Y-19128750D02*
X9690000Y-19128750D01*
X3390000Y-17878750D02*
X9690000Y-17878750D01*
X9690000Y-20378750D01*
X3390000Y-20378750D01*
X3390000Y-17878750D01*
D10*
%TO.C,J2*%
X7040000Y-47900000D02*
X7040000Y-40330000D01*
D11*
X7100000Y-47900000D02*
X57900000Y-47900000D01*
D10*
X8010000Y-37820000D02*
X8010000Y-37380000D01*
X8010000Y-40330000D02*
X8010000Y-39920000D01*
D11*
X8070000Y-36330000D02*
X8670000Y-36330000D01*
X8070000Y-40390000D02*
X8070000Y-36330000D01*
X8670000Y-36330000D02*
X8670000Y-40390000D01*
D10*
X8730000Y-37820000D02*
X8730000Y-37380000D01*
X8730000Y-40330000D02*
X8730000Y-39920000D01*
X9640000Y-47900000D02*
X9640000Y-40330000D01*
X10550000Y-37820000D02*
X10550000Y-37380000D01*
X10550000Y-40330000D02*
X10550000Y-39920000D01*
D11*
X10610000Y-36330000D02*
X11210000Y-36330000D01*
X10610000Y-40390000D02*
X10610000Y-36330000D01*
X11210000Y-36330000D02*
X11210000Y-40390000D01*
D10*
X11270000Y-37820000D02*
X11270000Y-37380000D01*
X11270000Y-40330000D02*
X11270000Y-39920000D01*
X12180000Y-47900000D02*
X12180000Y-40330000D01*
X13090000Y-37820000D02*
X13090000Y-37380000D01*
X13090000Y-40330000D02*
X13090000Y-39920000D01*
D11*
X13150000Y-36330000D02*
X13750000Y-36330000D01*
X13150000Y-40390000D02*
X13150000Y-36330000D01*
X13750000Y-36330000D02*
X13750000Y-40390000D01*
D10*
X13810000Y-37820000D02*
X13810000Y-37380000D01*
X13810000Y-40330000D02*
X13810000Y-39920000D01*
X14720000Y-47900000D02*
X14720000Y-40330000D01*
X15630000Y-37820000D02*
X15630000Y-37380000D01*
X15630000Y-40330000D02*
X15630000Y-39920000D01*
D11*
X15690000Y-36330000D02*
X16290000Y-36330000D01*
X15690000Y-40390000D02*
X15690000Y-36330000D01*
X16290000Y-36330000D02*
X16290000Y-40390000D01*
D10*
X16350000Y-37820000D02*
X16350000Y-37380000D01*
X16350000Y-40330000D02*
X16350000Y-39920000D01*
X17260000Y-47900000D02*
X17260000Y-40330000D01*
X18170000Y-37820000D02*
X18170000Y-37380000D01*
X18170000Y-40330000D02*
X18170000Y-39920000D01*
D11*
X18230000Y-36330000D02*
X18830000Y-36330000D01*
X18230000Y-40390000D02*
X18230000Y-36330000D01*
X18830000Y-36330000D02*
X18830000Y-40390000D01*
D10*
X18890000Y-37820000D02*
X18890000Y-37380000D01*
X18890000Y-40330000D02*
X18890000Y-39920000D01*
X19800000Y-47900000D02*
X19800000Y-40330000D01*
X20710000Y-37820000D02*
X20710000Y-37380000D01*
X20710000Y-40330000D02*
X20710000Y-39920000D01*
D11*
X20770000Y-36330000D02*
X21370000Y-36330000D01*
X20770000Y-40390000D02*
X20770000Y-36330000D01*
X21370000Y-36330000D02*
X21370000Y-40390000D01*
D10*
X21430000Y-37820000D02*
X21430000Y-37380000D01*
X21430000Y-40330000D02*
X21430000Y-39920000D01*
X22340000Y-47900000D02*
X22340000Y-40330000D01*
X23250000Y-37820000D02*
X23250000Y-37380000D01*
X23250000Y-40330000D02*
X23250000Y-39920000D01*
D11*
X23310000Y-36330000D02*
X23910000Y-36330000D01*
X23310000Y-40390000D02*
X23310000Y-36330000D01*
X23910000Y-36330000D02*
X23910000Y-40390000D01*
D10*
X23970000Y-37820000D02*
X23970000Y-37380000D01*
X23970000Y-40330000D02*
X23970000Y-39920000D01*
X24880000Y-47900000D02*
X24880000Y-40330000D01*
X25790000Y-37820000D02*
X25790000Y-37380000D01*
X25790000Y-40330000D02*
X25790000Y-39920000D01*
D11*
X25850000Y-36330000D02*
X26450000Y-36330000D01*
X25850000Y-40390000D02*
X25850000Y-36330000D01*
X26450000Y-36330000D02*
X26450000Y-40390000D01*
D10*
X26510000Y-37820000D02*
X26510000Y-37380000D01*
X26510000Y-40330000D02*
X26510000Y-39920000D01*
X27420000Y-47900000D02*
X27420000Y-40330000D01*
X28330000Y-37820000D02*
X28330000Y-37380000D01*
X28330000Y-40330000D02*
X28330000Y-39920000D01*
D11*
X28390000Y-36330000D02*
X28990000Y-36330000D01*
X28390000Y-40390000D02*
X28390000Y-36330000D01*
X28990000Y-36330000D02*
X28990000Y-40390000D01*
D10*
X29050000Y-37820000D02*
X29050000Y-37380000D01*
X29050000Y-40330000D02*
X29050000Y-39920000D01*
X29960000Y-47900000D02*
X29960000Y-40330000D01*
X30870000Y-37820000D02*
X30870000Y-37380000D01*
X30870000Y-40330000D02*
X30870000Y-39920000D01*
D11*
X30930000Y-36330000D02*
X31530000Y-36330000D01*
X30930000Y-40390000D02*
X30930000Y-36330000D01*
X31530000Y-36330000D02*
X31530000Y-40390000D01*
D10*
X31590000Y-37820000D02*
X31590000Y-37380000D01*
X31590000Y-40330000D02*
X31590000Y-39920000D01*
X32500000Y-47900000D02*
X32500000Y-40330000D01*
X33410000Y-37820000D02*
X33410000Y-37380000D01*
X33410000Y-40330000D02*
X33410000Y-39920000D01*
D11*
X33470000Y-36330000D02*
X34070000Y-36330000D01*
X33470000Y-40390000D02*
X33470000Y-36330000D01*
X34070000Y-36330000D02*
X34070000Y-40390000D01*
D10*
X34130000Y-37820000D02*
X34130000Y-37380000D01*
X34130000Y-40330000D02*
X34130000Y-39920000D01*
X35040000Y-47900000D02*
X35040000Y-40330000D01*
X35950000Y-37820000D02*
X35950000Y-37380000D01*
X35950000Y-40330000D02*
X35950000Y-39920000D01*
D11*
X36010000Y-36330000D02*
X36610000Y-36330000D01*
X36010000Y-40390000D02*
X36010000Y-36330000D01*
X36610000Y-36330000D02*
X36610000Y-40390000D01*
D10*
X36670000Y-37820000D02*
X36670000Y-37380000D01*
X36670000Y-40330000D02*
X36670000Y-39920000D01*
X37580000Y-47900000D02*
X37580000Y-40330000D01*
X38490000Y-37820000D02*
X38490000Y-37380000D01*
X38490000Y-40330000D02*
X38490000Y-39920000D01*
D11*
X38550000Y-36330000D02*
X39150000Y-36330000D01*
X38550000Y-40390000D02*
X38550000Y-36330000D01*
X39150000Y-36330000D02*
X39150000Y-40390000D01*
D10*
X39210000Y-37820000D02*
X39210000Y-37380000D01*
X39210000Y-40330000D02*
X39210000Y-39920000D01*
X40120000Y-47900000D02*
X40120000Y-40330000D01*
X41030000Y-37820000D02*
X41030000Y-37380000D01*
X41030000Y-40330000D02*
X41030000Y-39920000D01*
D11*
X41090000Y-36330000D02*
X41690000Y-36330000D01*
X41090000Y-40390000D02*
X41090000Y-36330000D01*
X41690000Y-36330000D02*
X41690000Y-40390000D01*
D10*
X41750000Y-37820000D02*
X41750000Y-37380000D01*
X41750000Y-40330000D02*
X41750000Y-39920000D01*
X42660000Y-47900000D02*
X42660000Y-40330000D01*
X43570000Y-37820000D02*
X43570000Y-37380000D01*
X43570000Y-40330000D02*
X43570000Y-39920000D01*
D11*
X43630000Y-36330000D02*
X44230000Y-36330000D01*
X43630000Y-40390000D02*
X43630000Y-36330000D01*
X44230000Y-36330000D02*
X44230000Y-40390000D01*
D10*
X44290000Y-37820000D02*
X44290000Y-37380000D01*
X44290000Y-40330000D02*
X44290000Y-39920000D01*
X45200000Y-47900000D02*
X45200000Y-40330000D01*
X46110000Y-37820000D02*
X46110000Y-37380000D01*
X46110000Y-40330000D02*
X46110000Y-39920000D01*
D11*
X46170000Y-36330000D02*
X46770000Y-36330000D01*
X46170000Y-40390000D02*
X46170000Y-36330000D01*
X46770000Y-36330000D02*
X46770000Y-40390000D01*
D10*
X46830000Y-37820000D02*
X46830000Y-37380000D01*
X46830000Y-40330000D02*
X46830000Y-39920000D01*
X47740000Y-47900000D02*
X47740000Y-40330000D01*
X48650000Y-37820000D02*
X48650000Y-37380000D01*
X48650000Y-40330000D02*
X48650000Y-39920000D01*
D11*
X48710000Y-36330000D02*
X49310000Y-36330000D01*
X48710000Y-40390000D02*
X48710000Y-36330000D01*
X49310000Y-36330000D02*
X49310000Y-40390000D01*
D10*
X49370000Y-37820000D02*
X49370000Y-37380000D01*
X49370000Y-40330000D02*
X49370000Y-39920000D01*
X50280000Y-47900000D02*
X50280000Y-40330000D01*
X51190000Y-37820000D02*
X51190000Y-37380000D01*
X51190000Y-40330000D02*
X51190000Y-39920000D01*
D11*
X51250000Y-36330000D02*
X51850000Y-36330000D01*
X51250000Y-40390000D02*
X51250000Y-36330000D01*
X51850000Y-36330000D02*
X51850000Y-40390000D01*
D10*
X51910000Y-37820000D02*
X51910000Y-37380000D01*
X51910000Y-40330000D02*
X51910000Y-39920000D01*
X52820000Y-47900000D02*
X52820000Y-40330000D01*
X53730000Y-37820000D02*
X53730000Y-37380000D01*
X53730000Y-40330000D02*
X53730000Y-39920000D01*
D11*
X53790000Y-36330000D02*
X54390000Y-36330000D01*
X53790000Y-40390000D02*
X53790000Y-36330000D01*
X54390000Y-36330000D02*
X54390000Y-40390000D01*
D10*
X54450000Y-37820000D02*
X54450000Y-37380000D01*
X54450000Y-40330000D02*
X54450000Y-39920000D01*
X55360000Y-47900000D02*
X55360000Y-40330000D01*
X56270000Y-37820000D02*
X56270000Y-37440000D01*
X56270000Y-40330000D02*
X56270000Y-39920000D01*
D11*
X56330000Y-36330000D02*
X56930000Y-36330000D01*
X56330000Y-40390000D02*
X56330000Y-36330000D01*
X56930000Y-36330000D02*
X56930000Y-40390000D01*
X56930000Y-40390000D02*
X7100000Y-40390000D01*
D10*
X56990000Y-37820000D02*
X56990000Y-37440000D01*
X56990000Y-40330000D02*
X56990000Y-39920000D01*
X57960000Y-35220000D02*
X56630000Y-35220000D01*
X57960000Y-36330000D02*
X57960000Y-35220000D01*
X57960000Y-40330000D02*
X7040000Y-40330000D01*
X57960000Y-47900000D02*
X7040000Y-47900000D01*
X57960000Y-47900000D02*
X57960000Y-40330000D01*
D11*
%TO.C,L1*%
X59630000Y-11460000D02*
X59630000Y-16460000D01*
X59630000Y-16460000D02*
X63230000Y-16460000D01*
X61430000Y-8960000D02*
X61430000Y-11460000D01*
X61430000Y-18960000D02*
X61430000Y-16460000D01*
X63230000Y-11460000D02*
X59630000Y-11460000D01*
X63230000Y-16460000D02*
X63230000Y-11460000D01*
%TO.C,R3*%
X2730000Y-29595000D02*
X3390000Y-29595000D01*
X10350000Y-29595000D02*
X9690000Y-29595000D01*
X3390000Y-28345000D02*
X9690000Y-28345000D01*
X9690000Y-30845000D01*
X3390000Y-30845000D01*
X3390000Y-28345000D01*
D10*
%TO.C,Q1*%
X17495000Y-26970000D02*
X17495000Y-20570000D01*
D11*
X17605000Y-26970000D02*
X17605000Y-20570000D01*
X22255000Y-20570000D02*
X22255000Y-26970000D01*
D10*
X22365000Y-20570000D02*
X22365000Y-26970000D01*
X17495000Y-20570000D02*
G75*
G02*
X22365000Y-20570000I2435000J0D01*
G01*
D11*
X17605000Y-20570000D02*
G75*
G02*
X22255000Y-20570000I2325000J0D01*
G01*
X22255000Y-26970000D02*
G75*
G02*
X17605000Y-26970000I-2325000J0D01*
G01*
D10*
X22365000Y-26970000D02*
G75*
G02*
X17495000Y-26970000I-2435000J0D01*
G01*
D11*
%TO.C,C1*%
X61470000Y-22010000D02*
X61470000Y-24460000D01*
X61470000Y-32010000D02*
X61470000Y-29560000D01*
X63020000Y-24460000D02*
X59920000Y-24460000D01*
X59920000Y-29560000D01*
X63020000Y-29560000D01*
X63020000Y-24460000D01*
%TO.C,R5*%
X2730000Y-15640000D02*
X3390000Y-15640000D01*
X10350000Y-15640000D02*
X9690000Y-15640000D01*
X3390000Y-14390000D02*
X9690000Y-14390000D01*
X9690000Y-16890000D01*
X3390000Y-16890000D01*
X3390000Y-14390000D01*
%TD*%
M02*
