%TF.GenerationSoftware,KiCad,Pcbnew,9.0.7*%
%TF.CreationDate,2026-05-23T10:46:40+02:00*%
%TF.ProjectId,BarePi_PidiMet,42617265-5069-45f5-9069-64694d65742e,rev?*%
%TF.SameCoordinates,Original*%
%TF.FileFunction,Other,User*%
%FSLAX46Y46*%
G04 Gerber Fmt 4.6, Leading zero omitted, Abs format (unit mm)*
G04 Created by KiCad (PCBNEW 9.0.7) date 2026-05-23 10:46:40*
%MOMM*%
%LPD*%
G01*
G04 APERTURE LIST*
%ADD10C,0.050000*%
G04 APERTURE END LIST*
%TO.C,R16*%
D10*
X35130000Y-11460000D02*
X37030000Y-11460000D01*
X37030000Y-15160000D01*
X35130000Y-15160000D01*
X35130000Y-11460000D01*
%TO.C,IC1*%
X26280000Y-20160000D02*
X26280000Y-29360000D01*
X34080000Y-20160000D02*
X26280000Y-20160000D01*
X34080000Y-20160000D02*
X34080000Y-29360000D01*
X34080000Y-29360000D02*
X26280000Y-29360000D01*
%TO.C,R13*%
X49610000Y-27400000D02*
X45910000Y-27400000D01*
X45910000Y-29300000D01*
X49610000Y-29300000D01*
X49610000Y-27400000D01*
%TO.C,C4*%
X40260000Y-7440000D02*
X35300000Y-7440000D01*
X35300000Y-9740000D01*
X40260000Y-9740000D01*
X40260000Y-7440000D01*
%TO.C,C11*%
X44720000Y-26500000D02*
X49700000Y-26500000D01*
X49700000Y-24400000D01*
X44720000Y-24400000D01*
X44720000Y-26500000D01*
%TO.C,R10*%
X16480000Y-14740000D02*
X20180000Y-14740000D01*
X20180000Y-12840000D01*
X16480000Y-12840000D01*
X16480000Y-14740000D01*
%TO.C,R11*%
X25230000Y-18810000D02*
X28930000Y-18810000D01*
X28930000Y-16910000D01*
X25230000Y-16910000D01*
X25230000Y-18810000D01*
%TO.C,R15*%
X48610000Y-19900000D02*
X44910000Y-19900000D01*
X44910000Y-21800000D01*
X48610000Y-21800000D01*
X48610000Y-19900000D01*
%TO.C,C8*%
X45520000Y-13100000D02*
X47620000Y-13100000D01*
X47620000Y-18080000D01*
X45520000Y-18080000D01*
X45520000Y-13100000D01*
%TO.C,C5*%
X23380000Y-10170000D02*
X28340000Y-10170000D01*
X28340000Y-7870000D01*
X23380000Y-7870000D01*
X23380000Y-10170000D01*
%TO.C,R21*%
X52370000Y-23750000D02*
X56070000Y-23750000D01*
X56070000Y-21850000D01*
X52370000Y-21850000D01*
X52370000Y-23750000D01*
%TO.C,C12*%
X44400000Y-24310000D02*
X49360000Y-24310000D01*
X49360000Y-22010000D01*
X44400000Y-22010000D01*
X44400000Y-24310000D01*
%TO.C,R22*%
X55570000Y-19380000D02*
X51870000Y-19380000D01*
X51870000Y-21280000D01*
X55570000Y-21280000D01*
X55570000Y-19380000D01*
%TO.C,C2*%
X14450000Y-24430000D02*
X16750000Y-24430000D01*
X16750000Y-29390000D01*
X14450000Y-29390000D01*
X14450000Y-24430000D01*
%TO.C,R19*%
X56530000Y-18530000D02*
X58430000Y-18530000D01*
X58430000Y-22230000D01*
X56530000Y-22230000D01*
X56530000Y-18530000D01*
%TO.C,C3*%
X16640000Y-23520000D02*
X14340000Y-23520000D01*
X14340000Y-18560000D01*
X16640000Y-18560000D01*
X16640000Y-23520000D01*
%TO.C,R12*%
X38840000Y-10100000D02*
X40740000Y-10100000D01*
X40740000Y-13800000D01*
X38840000Y-13800000D01*
X38840000Y-10100000D01*
%TO.C,C6*%
X29030000Y-9530000D02*
X33990000Y-9530000D01*
X33990000Y-7230000D01*
X29030000Y-7230000D01*
X29030000Y-9530000D01*
%TO.C,R23*%
X56940000Y-9940000D02*
X53240000Y-9940000D01*
X53240000Y-11840000D01*
X56940000Y-11840000D01*
X56940000Y-9940000D01*
%TO.C,R17*%
X32990000Y-10630000D02*
X34890000Y-10630000D01*
X34890000Y-14330000D01*
X32990000Y-14330000D01*
X32990000Y-10630000D01*
%TO.C,R14*%
X41980000Y-13740000D02*
X43880000Y-13740000D01*
X43880000Y-17440000D01*
X41980000Y-17440000D01*
X41980000Y-13740000D01*
%TO.C,R20*%
X48140000Y-14810000D02*
X50040000Y-14810000D01*
X50040000Y-18510000D01*
X48140000Y-18510000D01*
X48140000Y-14810000D01*
%TO.C,C13*%
X57390000Y-7110000D02*
X52430000Y-7110000D01*
X52430000Y-9410000D01*
X57390000Y-9410000D01*
X57390000Y-7110000D01*
%TO.C,C7*%
X53950000Y-26650000D02*
X58930000Y-26650000D01*
X58930000Y-24550000D01*
X53950000Y-24550000D01*
X53950000Y-26650000D01*
%TO.C,R18*%
X32700000Y-14560000D02*
X30800000Y-14560000D01*
X30800000Y-10860000D01*
X32700000Y-10860000D01*
X32700000Y-14560000D01*
%TO.C,R9*%
X5780000Y-33430000D02*
X9480000Y-33430000D01*
X9480000Y-31530000D01*
X5780000Y-31530000D01*
X5780000Y-33430000D01*
%TO.C,IC2*%
X50870000Y-12957500D02*
X50870000Y-17817500D01*
X50870000Y-17817500D02*
X52320000Y-17817500D01*
X52320000Y-12687500D02*
X52320000Y-12957500D01*
X52320000Y-12957500D02*
X50870000Y-12957500D01*
X52320000Y-17817500D02*
X52320000Y-18087500D01*
X52320000Y-18087500D02*
X56720000Y-18087500D01*
X56720000Y-12687500D02*
X52320000Y-12687500D01*
X56720000Y-12957500D02*
X56720000Y-12687500D01*
X56720000Y-17817500D02*
X58170000Y-17817500D01*
X56720000Y-18087500D02*
X56720000Y-17817500D01*
X58170000Y-12957500D02*
X56720000Y-12957500D01*
X58170000Y-17817500D02*
X58170000Y-12957500D01*
%TD*%
M02*
