%TF.GenerationSoftware,KiCad,Pcbnew,9.0.7*%
%TF.CreationDate,2026-05-23T10:46:40+02:00*%
%TF.ProjectId,BarePi_PidiMet,42617265-5069-45f5-9069-64694d65742e,rev?*%
%TF.SameCoordinates,Original*%
%TF.FileFunction,AssemblyDrawing,Bot*%
%FSLAX46Y46*%
G04 Gerber Fmt 4.6, Leading zero omitted, Abs format (unit mm)*
G04 Created by KiCad (PCBNEW 9.0.7) date 2026-05-23 10:46:40*
%MOMM*%
%LPD*%
G01*
G04 APERTURE LIST*
%ADD10C,0.100000*%
%ADD11C,0.120000*%
G04 APERTURE END LIST*
%TO.C,R16*%
D10*
X35455000Y-12310000D02*
X36705000Y-12310000D01*
X36705000Y-14310000D01*
X35455000Y-14310000D01*
X35455000Y-12310000D01*
D11*
%TO.C,IC1*%
X28110000Y-20290000D02*
X28110000Y-20710000D01*
X28110000Y-29230000D02*
X28110000Y-28810000D01*
D10*
X28230000Y-20410000D02*
X28230000Y-29110000D01*
X28230000Y-29110000D02*
X32130000Y-29110000D01*
X31130000Y-20410000D02*
X28230000Y-20410000D01*
X32130000Y-21410000D02*
X31130000Y-20410000D01*
X32130000Y-29110000D02*
X32130000Y-21410000D01*
D11*
X32250000Y-20290000D02*
X28110000Y-20290000D01*
X32250000Y-20290000D02*
X32250000Y-20710000D01*
X32250000Y-29230000D02*
X28110000Y-29230000D01*
X32250000Y-29230000D02*
X32250000Y-28810000D01*
X32680000Y-20810000D02*
X32440000Y-20480000D01*
X32920000Y-20480000D01*
X32680000Y-20810000D01*
G36*
X32680000Y-20810000D02*
G01*
X32440000Y-20480000D01*
X32920000Y-20480000D01*
X32680000Y-20810000D01*
G37*
%TO.C,R13*%
D10*
X48760000Y-27725000D02*
X46760000Y-27725000D01*
X46760000Y-28975000D01*
X48760000Y-28975000D01*
X48760000Y-27725000D01*
%TO.C,C4*%
X39380000Y-7790000D02*
X36180000Y-7790000D01*
X36180000Y-9390000D01*
X39380000Y-9390000D01*
X39380000Y-7790000D01*
%TO.C,C11*%
X45610000Y-24650000D02*
X48810000Y-24650000D01*
X45610000Y-25850000D02*
X45610000Y-24650000D01*
X46010000Y-26250000D02*
X45610000Y-25850000D01*
X48810000Y-24650000D02*
X48810000Y-26250000D01*
X48810000Y-26250000D02*
X46010000Y-26250000D01*
%TO.C,R10*%
X17330000Y-14415000D02*
X19330000Y-14415000D01*
X19330000Y-13165000D01*
X17330000Y-13165000D01*
X17330000Y-14415000D01*
%TO.C,R11*%
X26080000Y-18485000D02*
X28080000Y-18485000D01*
X28080000Y-17235000D01*
X26080000Y-17235000D01*
X26080000Y-18485000D01*
%TO.C,R15*%
X47760000Y-20225000D02*
X45760000Y-20225000D01*
X45760000Y-21475000D01*
X47760000Y-21475000D01*
X47760000Y-20225000D01*
%TO.C,C8*%
X45770000Y-14390000D02*
X46170000Y-13990000D01*
X45770000Y-17190000D02*
X45770000Y-14390000D01*
X46170000Y-13990000D02*
X47370000Y-13990000D01*
X47370000Y-13990000D02*
X47370000Y-17190000D01*
X47370000Y-17190000D02*
X45770000Y-17190000D01*
%TO.C,C5*%
X24260000Y-9820000D02*
X27460000Y-9820000D01*
X27460000Y-8220000D01*
X24260000Y-8220000D01*
X24260000Y-9820000D01*
%TO.C,R21*%
X53220000Y-23425000D02*
X55220000Y-23425000D01*
X55220000Y-22175000D01*
X53220000Y-22175000D01*
X53220000Y-23425000D01*
%TO.C,C12*%
X45280000Y-23960000D02*
X48480000Y-23960000D01*
X48480000Y-22360000D01*
X45280000Y-22360000D01*
X45280000Y-23960000D01*
%TO.C,R22*%
X54720000Y-19705000D02*
X52720000Y-19705000D01*
X52720000Y-20955000D01*
X54720000Y-20955000D01*
X54720000Y-19705000D01*
%TO.C,C2*%
X14800000Y-25310000D02*
X16400000Y-25310000D01*
X16400000Y-28510000D01*
X14800000Y-28510000D01*
X14800000Y-25310000D01*
%TO.C,R19*%
X56855000Y-19380000D02*
X58105000Y-19380000D01*
X58105000Y-21380000D01*
X56855000Y-21380000D01*
X56855000Y-19380000D01*
%TO.C,C3*%
X16290000Y-22640000D02*
X14690000Y-22640000D01*
X14690000Y-19440000D01*
X16290000Y-19440000D01*
X16290000Y-22640000D01*
%TO.C,R12*%
X39165000Y-10950000D02*
X40415000Y-10950000D01*
X40415000Y-12950000D01*
X39165000Y-12950000D01*
X39165000Y-10950000D01*
%TO.C,C6*%
X29910000Y-9180000D02*
X33110000Y-9180000D01*
X33110000Y-7580000D01*
X29910000Y-7580000D01*
X29910000Y-9180000D01*
%TO.C,R23*%
X56090000Y-10265000D02*
X54090000Y-10265000D01*
X54090000Y-11515000D01*
X56090000Y-11515000D01*
X56090000Y-10265000D01*
%TO.C,R17*%
X33315000Y-11480000D02*
X34565000Y-11480000D01*
X34565000Y-13480000D01*
X33315000Y-13480000D01*
X33315000Y-11480000D01*
%TO.C,R14*%
X42305000Y-14590000D02*
X43555000Y-14590000D01*
X43555000Y-16590000D01*
X42305000Y-16590000D01*
X42305000Y-14590000D01*
%TO.C,R20*%
X48465000Y-15660000D02*
X49715000Y-15660000D01*
X49715000Y-17660000D01*
X48465000Y-17660000D01*
X48465000Y-15660000D01*
%TO.C,C13*%
X56510000Y-7460000D02*
X53310000Y-7460000D01*
X53310000Y-9060000D01*
X56510000Y-9060000D01*
X56510000Y-7460000D01*
%TO.C,C7*%
X54840000Y-24800000D02*
X58040000Y-24800000D01*
X54840000Y-26000000D02*
X54840000Y-24800000D01*
X55240000Y-26400000D02*
X54840000Y-26000000D01*
X58040000Y-24800000D02*
X58040000Y-26400000D01*
X58040000Y-26400000D02*
X55240000Y-26400000D01*
%TO.C,R18*%
X32375000Y-13710000D02*
X31125000Y-13710000D01*
X31125000Y-11710000D01*
X32375000Y-11710000D01*
X32375000Y-13710000D01*
%TO.C,R9*%
X6630000Y-33105000D02*
X8630000Y-33105000D01*
X8630000Y-31855000D01*
X6630000Y-31855000D01*
X6630000Y-33105000D01*
%TO.C,IC2*%
X56470000Y-17837500D02*
X53545000Y-17837500D01*
X52570000Y-16862500D01*
X52570000Y-12937500D01*
X56470000Y-12937500D01*
X56470000Y-17837500D01*
%TD*%
M02*
