%TF.GenerationSoftware,KiCad,Pcbnew,9.0.7*%
%TF.CreationDate,2026-05-23T10:46:40+02:00*%
%TF.ProjectId,BarePi_PidiMet,42617265-5069-45f5-9069-64694d65742e,rev?*%
%TF.SameCoordinates,Original*%
%TF.FileFunction,Legend,Top*%
%TF.FilePolarity,Positive*%
%FSLAX46Y46*%
G04 Gerber Fmt 4.6, Leading zero omitted, Abs format (unit mm)*
G04 Created by KiCad (PCBNEW 9.0.7) date 2026-05-23 10:46:40*
%MOMM*%
%LPD*%
G01*
G04 APERTURE LIST*
%ADD10C,0.120000*%
G04 APERTURE END LIST*
D10*
X59090375Y-5621974D02*
X58661804Y-5621974D01*
X58876089Y-5621974D02*
X58876089Y-4871974D01*
X58876089Y-4871974D02*
X58804661Y-4979117D01*
X58804661Y-4979117D02*
X58733232Y-5050545D01*
X58733232Y-5050545D02*
X58661804Y-5086260D01*
X1554999Y-24846974D02*
X1304999Y-24489831D01*
X1126428Y-24846974D02*
X1126428Y-24096974D01*
X1126428Y-24096974D02*
X1412142Y-24096974D01*
X1412142Y-24096974D02*
X1483571Y-24132688D01*
X1483571Y-24132688D02*
X1519285Y-24168402D01*
X1519285Y-24168402D02*
X1554999Y-24239831D01*
X1554999Y-24239831D02*
X1554999Y-24346974D01*
X1554999Y-24346974D02*
X1519285Y-24418402D01*
X1519285Y-24418402D02*
X1483571Y-24454117D01*
X1483571Y-24454117D02*
X1412142Y-24489831D01*
X1412142Y-24489831D02*
X1126428Y-24489831D01*
X2269285Y-24846974D02*
X1840714Y-24846974D01*
X2054999Y-24846974D02*
X2054999Y-24096974D01*
X2054999Y-24096974D02*
X1983571Y-24204117D01*
X1983571Y-24204117D02*
X1912142Y-24275545D01*
X1912142Y-24275545D02*
X1840714Y-24311260D01*
X8194999Y-7770724D02*
X7944999Y-7413581D01*
X7766428Y-7770724D02*
X7766428Y-7020724D01*
X7766428Y-7020724D02*
X8052142Y-7020724D01*
X8052142Y-7020724D02*
X8123571Y-7056438D01*
X8123571Y-7056438D02*
X8159285Y-7092152D01*
X8159285Y-7092152D02*
X8194999Y-7163581D01*
X8194999Y-7163581D02*
X8194999Y-7270724D01*
X8194999Y-7270724D02*
X8159285Y-7342152D01*
X8159285Y-7342152D02*
X8123571Y-7377867D01*
X8123571Y-7377867D02*
X8052142Y-7413581D01*
X8052142Y-7413581D02*
X7766428Y-7413581D01*
X8837857Y-7020724D02*
X8694999Y-7020724D01*
X8694999Y-7020724D02*
X8623571Y-7056438D01*
X8623571Y-7056438D02*
X8587857Y-7092152D01*
X8587857Y-7092152D02*
X8516428Y-7199295D01*
X8516428Y-7199295D02*
X8480714Y-7342152D01*
X8480714Y-7342152D02*
X8480714Y-7627867D01*
X8480714Y-7627867D02*
X8516428Y-7699295D01*
X8516428Y-7699295D02*
X8552142Y-7735010D01*
X8552142Y-7735010D02*
X8623571Y-7770724D01*
X8623571Y-7770724D02*
X8766428Y-7770724D01*
X8766428Y-7770724D02*
X8837857Y-7735010D01*
X8837857Y-7735010D02*
X8873571Y-7699295D01*
X8873571Y-7699295D02*
X8909285Y-7627867D01*
X8909285Y-7627867D02*
X8909285Y-7449295D01*
X8909285Y-7449295D02*
X8873571Y-7377867D01*
X8873571Y-7377867D02*
X8837857Y-7342152D01*
X8837857Y-7342152D02*
X8766428Y-7306438D01*
X8766428Y-7306438D02*
X8623571Y-7306438D01*
X8623571Y-7306438D02*
X8552142Y-7342152D01*
X8552142Y-7342152D02*
X8516428Y-7377867D01*
X8516428Y-7377867D02*
X8480714Y-7449295D01*
X1354999Y-21308224D02*
X1104999Y-20951081D01*
X926428Y-21308224D02*
X926428Y-20558224D01*
X926428Y-20558224D02*
X1212142Y-20558224D01*
X1212142Y-20558224D02*
X1283571Y-20593938D01*
X1283571Y-20593938D02*
X1319285Y-20629652D01*
X1319285Y-20629652D02*
X1354999Y-20701081D01*
X1354999Y-20701081D02*
X1354999Y-20808224D01*
X1354999Y-20808224D02*
X1319285Y-20879652D01*
X1319285Y-20879652D02*
X1283571Y-20915367D01*
X1283571Y-20915367D02*
X1212142Y-20951081D01*
X1212142Y-20951081D02*
X926428Y-20951081D01*
X1640714Y-20629652D02*
X1676428Y-20593938D01*
X1676428Y-20593938D02*
X1747857Y-20558224D01*
X1747857Y-20558224D02*
X1926428Y-20558224D01*
X1926428Y-20558224D02*
X1997857Y-20593938D01*
X1997857Y-20593938D02*
X2033571Y-20629652D01*
X2033571Y-20629652D02*
X2069285Y-20701081D01*
X2069285Y-20701081D02*
X2069285Y-20772510D01*
X2069285Y-20772510D02*
X2033571Y-20879652D01*
X2033571Y-20879652D02*
X1604999Y-21308224D01*
X1604999Y-21308224D02*
X2069285Y-21308224D01*
X20444999Y-16100724D02*
X20194999Y-15743581D01*
X20016428Y-16100724D02*
X20016428Y-15350724D01*
X20016428Y-15350724D02*
X20302142Y-15350724D01*
X20302142Y-15350724D02*
X20373571Y-15386438D01*
X20373571Y-15386438D02*
X20409285Y-15422152D01*
X20409285Y-15422152D02*
X20444999Y-15493581D01*
X20444999Y-15493581D02*
X20444999Y-15600724D01*
X20444999Y-15600724D02*
X20409285Y-15672152D01*
X20409285Y-15672152D02*
X20373571Y-15707867D01*
X20373571Y-15707867D02*
X20302142Y-15743581D01*
X20302142Y-15743581D02*
X20016428Y-15743581D01*
X20694999Y-15350724D02*
X21194999Y-15350724D01*
X21194999Y-15350724D02*
X20873571Y-16100724D01*
X5540000Y-5845724D02*
X5540000Y-6381438D01*
X5540000Y-6381438D02*
X5504285Y-6488581D01*
X5504285Y-6488581D02*
X5432857Y-6560010D01*
X5432857Y-6560010D02*
X5325714Y-6595724D01*
X5325714Y-6595724D02*
X5254285Y-6595724D01*
X6290000Y-6595724D02*
X5861429Y-6595724D01*
X6075714Y-6595724D02*
X6075714Y-5845724D01*
X6075714Y-5845724D02*
X6004286Y-5952867D01*
X6004286Y-5952867D02*
X5932857Y-6024295D01*
X5932857Y-6024295D02*
X5861429Y-6060010D01*
X21114999Y-9100724D02*
X20864999Y-8743581D01*
X20686428Y-9100724D02*
X20686428Y-8350724D01*
X20686428Y-8350724D02*
X20972142Y-8350724D01*
X20972142Y-8350724D02*
X21043571Y-8386438D01*
X21043571Y-8386438D02*
X21079285Y-8422152D01*
X21079285Y-8422152D02*
X21114999Y-8493581D01*
X21114999Y-8493581D02*
X21114999Y-8600724D01*
X21114999Y-8600724D02*
X21079285Y-8672152D01*
X21079285Y-8672152D02*
X21043571Y-8707867D01*
X21043571Y-8707867D02*
X20972142Y-8743581D01*
X20972142Y-8743581D02*
X20686428Y-8743581D01*
X21543571Y-8672152D02*
X21472142Y-8636438D01*
X21472142Y-8636438D02*
X21436428Y-8600724D01*
X21436428Y-8600724D02*
X21400714Y-8529295D01*
X21400714Y-8529295D02*
X21400714Y-8493581D01*
X21400714Y-8493581D02*
X21436428Y-8422152D01*
X21436428Y-8422152D02*
X21472142Y-8386438D01*
X21472142Y-8386438D02*
X21543571Y-8350724D01*
X21543571Y-8350724D02*
X21686428Y-8350724D01*
X21686428Y-8350724D02*
X21757857Y-8386438D01*
X21757857Y-8386438D02*
X21793571Y-8422152D01*
X21793571Y-8422152D02*
X21829285Y-8493581D01*
X21829285Y-8493581D02*
X21829285Y-8529295D01*
X21829285Y-8529295D02*
X21793571Y-8600724D01*
X21793571Y-8600724D02*
X21757857Y-8636438D01*
X21757857Y-8636438D02*
X21686428Y-8672152D01*
X21686428Y-8672152D02*
X21543571Y-8672152D01*
X21543571Y-8672152D02*
X21472142Y-8707867D01*
X21472142Y-8707867D02*
X21436428Y-8743581D01*
X21436428Y-8743581D02*
X21400714Y-8815010D01*
X21400714Y-8815010D02*
X21400714Y-8957867D01*
X21400714Y-8957867D02*
X21436428Y-9029295D01*
X21436428Y-9029295D02*
X21472142Y-9065010D01*
X21472142Y-9065010D02*
X21543571Y-9100724D01*
X21543571Y-9100724D02*
X21686428Y-9100724D01*
X21686428Y-9100724D02*
X21757857Y-9065010D01*
X21757857Y-9065010D02*
X21793571Y-9029295D01*
X21793571Y-9029295D02*
X21829285Y-8957867D01*
X21829285Y-8957867D02*
X21829285Y-8815010D01*
X21829285Y-8815010D02*
X21793571Y-8743581D01*
X21793571Y-8743581D02*
X21757857Y-8707867D01*
X21757857Y-8707867D02*
X21686428Y-8672152D01*
X1324999Y-17929474D02*
X1074999Y-17572331D01*
X896428Y-17929474D02*
X896428Y-17179474D01*
X896428Y-17179474D02*
X1182142Y-17179474D01*
X1182142Y-17179474D02*
X1253571Y-17215188D01*
X1253571Y-17215188D02*
X1289285Y-17250902D01*
X1289285Y-17250902D02*
X1324999Y-17322331D01*
X1324999Y-17322331D02*
X1324999Y-17429474D01*
X1324999Y-17429474D02*
X1289285Y-17500902D01*
X1289285Y-17500902D02*
X1253571Y-17536617D01*
X1253571Y-17536617D02*
X1182142Y-17572331D01*
X1182142Y-17572331D02*
X896428Y-17572331D01*
X1967857Y-17429474D02*
X1967857Y-17929474D01*
X1789285Y-17143760D02*
X1610714Y-17679474D01*
X1610714Y-17679474D02*
X2074999Y-17679474D01*
X5300000Y-35520724D02*
X5300000Y-36056438D01*
X5300000Y-36056438D02*
X5264285Y-36163581D01*
X5264285Y-36163581D02*
X5192857Y-36235010D01*
X5192857Y-36235010D02*
X5085714Y-36270724D01*
X5085714Y-36270724D02*
X5014285Y-36270724D01*
X5621429Y-35592152D02*
X5657143Y-35556438D01*
X5657143Y-35556438D02*
X5728572Y-35520724D01*
X5728572Y-35520724D02*
X5907143Y-35520724D01*
X5907143Y-35520724D02*
X5978572Y-35556438D01*
X5978572Y-35556438D02*
X6014286Y-35592152D01*
X6014286Y-35592152D02*
X6050000Y-35663581D01*
X6050000Y-35663581D02*
X6050000Y-35735010D01*
X6050000Y-35735010D02*
X6014286Y-35842152D01*
X6014286Y-35842152D02*
X5585714Y-36270724D01*
X5585714Y-36270724D02*
X6050000Y-36270724D01*
X6100375Y-39406974D02*
X5671804Y-39406974D01*
X5886089Y-39406974D02*
X5886089Y-38656974D01*
X5886089Y-38656974D02*
X5814661Y-38764117D01*
X5814661Y-38764117D02*
X5743232Y-38835545D01*
X5743232Y-38835545D02*
X5671804Y-38871260D01*
X59455000Y-7660724D02*
X59097857Y-7660724D01*
X59097857Y-7660724D02*
X59097857Y-6910724D01*
X60097857Y-7660724D02*
X59669286Y-7660724D01*
X59883571Y-7660724D02*
X59883571Y-6910724D01*
X59883571Y-6910724D02*
X59812143Y-7017867D01*
X59812143Y-7017867D02*
X59740714Y-7089295D01*
X59740714Y-7089295D02*
X59669286Y-7125010D01*
X1554999Y-28365724D02*
X1304999Y-28008581D01*
X1126428Y-28365724D02*
X1126428Y-27615724D01*
X1126428Y-27615724D02*
X1412142Y-27615724D01*
X1412142Y-27615724D02*
X1483571Y-27651438D01*
X1483571Y-27651438D02*
X1519285Y-27687152D01*
X1519285Y-27687152D02*
X1554999Y-27758581D01*
X1554999Y-27758581D02*
X1554999Y-27865724D01*
X1554999Y-27865724D02*
X1519285Y-27937152D01*
X1519285Y-27937152D02*
X1483571Y-27972867D01*
X1483571Y-27972867D02*
X1412142Y-28008581D01*
X1412142Y-28008581D02*
X1126428Y-28008581D01*
X1804999Y-27615724D02*
X2269285Y-27615724D01*
X2269285Y-27615724D02*
X2019285Y-27901438D01*
X2019285Y-27901438D02*
X2126428Y-27901438D01*
X2126428Y-27901438D02*
X2197857Y-27937152D01*
X2197857Y-27937152D02*
X2233571Y-27972867D01*
X2233571Y-27972867D02*
X2269285Y-28044295D01*
X2269285Y-28044295D02*
X2269285Y-28222867D01*
X2269285Y-28222867D02*
X2233571Y-28294295D01*
X2233571Y-28294295D02*
X2197857Y-28330010D01*
X2197857Y-28330010D02*
X2126428Y-28365724D01*
X2126428Y-28365724D02*
X1912142Y-28365724D01*
X1912142Y-28365724D02*
X1840714Y-28330010D01*
X1840714Y-28330010D02*
X1804999Y-28294295D01*
X19658571Y-31142152D02*
X19587142Y-31106438D01*
X19587142Y-31106438D02*
X19515714Y-31035010D01*
X19515714Y-31035010D02*
X19408571Y-30927867D01*
X19408571Y-30927867D02*
X19337142Y-30892152D01*
X19337142Y-30892152D02*
X19265714Y-30892152D01*
X19301428Y-31070724D02*
X19230000Y-31035010D01*
X19230000Y-31035010D02*
X19158571Y-30963581D01*
X19158571Y-30963581D02*
X19122857Y-30820724D01*
X19122857Y-30820724D02*
X19122857Y-30570724D01*
X19122857Y-30570724D02*
X19158571Y-30427867D01*
X19158571Y-30427867D02*
X19230000Y-30356438D01*
X19230000Y-30356438D02*
X19301428Y-30320724D01*
X19301428Y-30320724D02*
X19444285Y-30320724D01*
X19444285Y-30320724D02*
X19515714Y-30356438D01*
X19515714Y-30356438D02*
X19587142Y-30427867D01*
X19587142Y-30427867D02*
X19622857Y-30570724D01*
X19622857Y-30570724D02*
X19622857Y-30820724D01*
X19622857Y-30820724D02*
X19587142Y-30963581D01*
X19587142Y-30963581D02*
X19515714Y-31035010D01*
X19515714Y-31035010D02*
X19444285Y-31070724D01*
X19444285Y-31070724D02*
X19301428Y-31070724D01*
X20337142Y-31070724D02*
X19908571Y-31070724D01*
X20122856Y-31070724D02*
X20122856Y-30320724D01*
X20122856Y-30320724D02*
X20051428Y-30427867D01*
X20051428Y-30427867D02*
X19979999Y-30499295D01*
X19979999Y-30499295D02*
X19908571Y-30535010D01*
X58734999Y-28329295D02*
X58699285Y-28365010D01*
X58699285Y-28365010D02*
X58592142Y-28400724D01*
X58592142Y-28400724D02*
X58520714Y-28400724D01*
X58520714Y-28400724D02*
X58413571Y-28365010D01*
X58413571Y-28365010D02*
X58342142Y-28293581D01*
X58342142Y-28293581D02*
X58306428Y-28222152D01*
X58306428Y-28222152D02*
X58270714Y-28079295D01*
X58270714Y-28079295D02*
X58270714Y-27972152D01*
X58270714Y-27972152D02*
X58306428Y-27829295D01*
X58306428Y-27829295D02*
X58342142Y-27757867D01*
X58342142Y-27757867D02*
X58413571Y-27686438D01*
X58413571Y-27686438D02*
X58520714Y-27650724D01*
X58520714Y-27650724D02*
X58592142Y-27650724D01*
X58592142Y-27650724D02*
X58699285Y-27686438D01*
X58699285Y-27686438D02*
X58734999Y-27722152D01*
X59449285Y-28400724D02*
X59020714Y-28400724D01*
X59234999Y-28400724D02*
X59234999Y-27650724D01*
X59234999Y-27650724D02*
X59163571Y-27757867D01*
X59163571Y-27757867D02*
X59092142Y-27829295D01*
X59092142Y-27829295D02*
X59020714Y-27865010D01*
X1374999Y-14270724D02*
X1124999Y-13913581D01*
X946428Y-14270724D02*
X946428Y-13520724D01*
X946428Y-13520724D02*
X1232142Y-13520724D01*
X1232142Y-13520724D02*
X1303571Y-13556438D01*
X1303571Y-13556438D02*
X1339285Y-13592152D01*
X1339285Y-13592152D02*
X1374999Y-13663581D01*
X1374999Y-13663581D02*
X1374999Y-13770724D01*
X1374999Y-13770724D02*
X1339285Y-13842152D01*
X1339285Y-13842152D02*
X1303571Y-13877867D01*
X1303571Y-13877867D02*
X1232142Y-13913581D01*
X1232142Y-13913581D02*
X946428Y-13913581D01*
X2053571Y-13520724D02*
X1696428Y-13520724D01*
X1696428Y-13520724D02*
X1660714Y-13877867D01*
X1660714Y-13877867D02*
X1696428Y-13842152D01*
X1696428Y-13842152D02*
X1767857Y-13806438D01*
X1767857Y-13806438D02*
X1946428Y-13806438D01*
X1946428Y-13806438D02*
X2017857Y-13842152D01*
X2017857Y-13842152D02*
X2053571Y-13877867D01*
X2053571Y-13877867D02*
X2089285Y-13949295D01*
X2089285Y-13949295D02*
X2089285Y-14127867D01*
X2089285Y-14127867D02*
X2053571Y-14199295D01*
X2053571Y-14199295D02*
X2017857Y-14235010D01*
X2017857Y-14235010D02*
X1946428Y-14270724D01*
X1946428Y-14270724D02*
X1767857Y-14270724D01*
X1767857Y-14270724D02*
X1696428Y-14235010D01*
X1696428Y-14235010D02*
X1660714Y-14199295D01*
%TO.C,R1*%
X3270000Y-24736250D02*
X9810000Y-24736250D01*
X3270000Y-25066250D02*
X3270000Y-24736250D01*
X3270000Y-27146250D02*
X3270000Y-27476250D01*
X3270000Y-27476250D02*
X9810000Y-27476250D01*
X9810000Y-24736250D02*
X9810000Y-25066250D01*
X9810000Y-27476250D02*
X9810000Y-27146250D01*
%TO.C,R6*%
X6210000Y-8280000D02*
X6210000Y-8760000D01*
X6210000Y-12120000D02*
X6210000Y-11640000D01*
X16350000Y-8280000D02*
X6210000Y-8280000D01*
X16350000Y-8760000D02*
X16350000Y-8280000D01*
X16350000Y-11640000D02*
X16350000Y-12120000D01*
X16350000Y-12120000D02*
X6210000Y-12120000D01*
%TO.C,R2*%
X3270000Y-21247500D02*
X9810000Y-21247500D01*
X3270000Y-21577500D02*
X3270000Y-21247500D01*
X3270000Y-23657500D02*
X3270000Y-23987500D01*
X3270000Y-23987500D02*
X9810000Y-23987500D01*
X9810000Y-21247500D02*
X9810000Y-21577500D01*
X9810000Y-23987500D02*
X9810000Y-23657500D01*
%TO.C,R7*%
X22710000Y-14030000D02*
X29250000Y-14030000D01*
X22710000Y-14360000D02*
X22710000Y-14030000D01*
X22710000Y-16440000D02*
X22710000Y-16770000D01*
X22710000Y-16770000D02*
X29250000Y-16770000D01*
X29250000Y-14030000D02*
X29250000Y-14360000D01*
X29250000Y-16770000D02*
X29250000Y-16440000D01*
%TO.C,R8*%
X21700000Y-10640000D02*
X21700000Y-10970000D01*
X21700000Y-13380000D02*
X21700000Y-13050000D01*
X28240000Y-10640000D02*
X21700000Y-10640000D01*
X28240000Y-10970000D02*
X28240000Y-10640000D01*
X28240000Y-13050000D02*
X28240000Y-13380000D01*
X28240000Y-13380000D02*
X21700000Y-13380000D01*
%TO.C,R4*%
X3270000Y-17758750D02*
X9810000Y-17758750D01*
X3270000Y-18088750D02*
X3270000Y-17758750D01*
X3270000Y-20168750D02*
X3270000Y-20498750D01*
X3270000Y-20498750D02*
X9810000Y-20498750D01*
X9810000Y-17758750D02*
X9810000Y-18088750D01*
X9810000Y-20498750D02*
X9810000Y-20168750D01*
%TO.C,L1*%
X59510000Y-11340000D02*
X59510000Y-16580000D01*
X59510000Y-16580000D02*
X63350000Y-16580000D01*
X61430000Y-9960000D02*
X61430000Y-11340000D01*
X61430000Y-17960000D02*
X61430000Y-16580000D01*
X63350000Y-11340000D02*
X59510000Y-11340000D01*
X63350000Y-16580000D02*
X63350000Y-11340000D01*
%TO.C,R3*%
X3270000Y-28225000D02*
X9810000Y-28225000D01*
X3270000Y-28555000D02*
X3270000Y-28225000D01*
X3270000Y-30635000D02*
X3270000Y-30965000D01*
X3270000Y-30965000D02*
X9810000Y-30965000D01*
X9810000Y-28225000D02*
X9810000Y-28555000D01*
X9810000Y-30965000D02*
X9810000Y-30635000D01*
%TO.C,C1*%
X61470000Y-23050000D02*
X61470000Y-24340000D01*
X61470000Y-30970000D02*
X61470000Y-29680000D01*
X63140000Y-24340000D02*
X59800000Y-24340000D01*
X59800000Y-29680000D01*
X63140000Y-29680000D01*
X63140000Y-24340000D01*
%TO.C,R5*%
X3270000Y-14270000D02*
X9810000Y-14270000D01*
X3270000Y-14600000D02*
X3270000Y-14270000D01*
X3270000Y-16680000D02*
X3270000Y-17010000D01*
X3270000Y-17010000D02*
X9810000Y-17010000D01*
X9810000Y-14270000D02*
X9810000Y-14600000D01*
X9810000Y-17010000D02*
X9810000Y-16680000D01*
%TD*%
M02*
