M48
; DRILL file {KiCad 9.0.7} date 2026-05-06T21:04:58+0200
; FORMAT={-:-/ absolute / metric / decimal}
; #@! TF.CreationDate,2026-05-06T21:04:58+02:00
; #@! TF.GenerationSoftware,Kicad,Pcbnew,9.0.7
; #@! TF.FileFunction,Plated,1,2,PTH
FMAT,2
METRIC
; #@! TA.AperFunction,Plated,PTH,ViaDrill
T1C0.600
; #@! TA.AperFunction,Plated,PTH,ComponentDrill
T2C0.700
; #@! TA.AperFunction,Plated,PTH,ComponentDrill
T3C1.000
%
G90
G05
T1
X3.5Y-51.81
X3.666Y-24.765
X4.16Y-9.235
X7.133Y-11.315
X9.122Y-10.731
X9.76Y-42.77
X11.18Y-39.28
X12.306Y-14.198
X12.41Y-37.95
X12.58Y-23.94
X12.607Y-31.601
X12.754Y-30.159
X12.79Y-16.32
X12.907Y-35.02
X13.13Y-33.58
X13.16Y-28.7
X15.13Y-45.67
X17.032Y-26.219
X17.927Y-31.98
X18.03Y-44.887
X18.478Y-26.321
X18.734Y-37.17
X19.108Y-32.82
X20.514Y-26.209
X21.2Y-43.979
X21.868Y-31.818
X22.032Y-33.848
X23.231Y-37.616
X23.564Y-27.148
X23.804Y-43.21
X24.401Y-31.825
X25.767Y-45.136
X26.029Y-33.067
X26.135Y-27.121
X26.957Y-31.809
X27.64Y-38.647
X28.338Y-44.197
X28.456Y-27.135
X29.249Y-40.729
X29.507Y-31.809
X30.854Y-35.58
X30.96Y-42.709
X30.988Y-44.159
X31.867Y-26.55
X32.035Y-31.81
X32.143Y-45.875
X33.897Y-26.288
X34.72Y-31.872
X34.863Y-43.835
X36.208Y-27.143
X37.087Y-31.839
X37.629Y-42.54
X37.805Y-44.8
X38.328Y-27.058
X38.63Y-39.72
X39.628Y-31.838
X39.896Y-43.964
X40.415Y-45.402
X40.538Y-26.422
X42.165Y-31.84
X42.496Y-40.34
X42.506Y-44.43
X43.38Y-34.49
X43.671Y-37.325
X44.025Y-27.011
X44.083Y-45.725
X44.581Y-31.963
X45.643Y-25.709
X45.689Y-43.412
X46.891Y-44.47
X47.342Y-32.153
X48.921Y-44.782
X49.105Y-26.302
X49.721Y-31.905
X50.951Y-44.999
X52.155Y-25.75
X52.288Y-31.878
X52.735Y-40.77
X54.031Y-44.724
X54.719Y-26.119
X54.867Y-31.838
X56.648Y-33.748
X56.669Y-45.313
X56.749Y-24.592
X57.367Y-31.879
X58.499Y-43.49
X59.44Y-53.89
X59.73Y-25.707
X59.829Y-34.169
X60.13Y-32.135
X61.69Y-56.71
X62.159Y-32.591
T2
X16.73Y-15.77
X16.77Y-13.21
X16.77Y-18.33
X16.77Y-22.97
X16.87Y-20.46
X24.35Y-15.77
X24.39Y-13.21
X24.39Y-18.33
X24.39Y-22.97
X24.49Y-20.46
X28.57Y-17.42
X28.63Y-21.84
X28.64Y-19.64
X28.89Y-13.0
X28.89Y-15.19
X29.12Y-10.75
X36.19Y-17.42
X36.25Y-21.84
X36.26Y-19.64
X36.51Y-13.0
X36.51Y-15.19
X36.74Y-10.75
X41.25Y-15.88
X42.08Y-24.13
X42.3Y-21.48
X42.55Y-18.93
X43.18Y-12.48
X48.87Y-15.88
X49.7Y-24.13
X49.92Y-21.48
X50.17Y-18.93
X50.8Y-12.48
T3
X7.46Y-13.0
X7.46Y-15.54
X7.46Y-18.08
X7.46Y-20.62
X7.46Y-23.16
X7.46Y-25.7
X7.46Y-28.24
X7.46Y-30.78
X7.46Y-33.32
X7.46Y-35.86
X8.37Y-4.23
X8.37Y-6.77
X8.37Y-53.43
X8.37Y-55.97
X10.0Y-13.0
X10.0Y-15.54
X10.0Y-18.08
X10.0Y-20.62
X10.0Y-23.16
X10.0Y-25.7
X10.0Y-28.24
X10.0Y-30.78
X10.0Y-33.32
X10.0Y-35.86
X10.91Y-4.23
X10.91Y-6.77
X10.91Y-53.43
X10.91Y-55.97
X13.45Y-4.23
X13.45Y-6.77
X13.45Y-53.43
X13.45Y-55.97
X15.07Y-30.11
X15.07Y-47.89
X15.99Y-4.23
X15.99Y-6.77
X15.99Y-53.43
X15.99Y-55.97
X17.61Y-30.11
X17.61Y-47.89
X18.53Y-4.23
X18.53Y-6.77
X18.53Y-53.43
X18.53Y-55.97
X20.15Y-30.11
X20.15Y-47.89
X21.07Y-4.23
X21.07Y-6.77
X21.07Y-53.43
X21.07Y-55.97
X22.69Y-30.11
X22.69Y-47.89
X23.61Y-4.23
X23.61Y-6.77
X23.61Y-53.43
X23.61Y-55.97
X25.23Y-30.11
X25.23Y-47.89
X26.15Y-4.23
X26.15Y-6.77
X26.15Y-53.43
X26.15Y-55.97
X27.77Y-30.11
X27.77Y-47.89
X28.69Y-4.23
X28.69Y-6.77
X28.69Y-53.43
X28.69Y-55.97
X30.31Y-30.11
X30.31Y-47.89
X31.23Y-4.23
X31.23Y-6.77
X31.23Y-53.43
X31.23Y-55.97
X32.85Y-30.11
X32.85Y-47.89
X33.77Y-4.23
X33.77Y-6.77
X33.77Y-53.43
X33.77Y-55.97
X35.39Y-30.11
X35.39Y-47.89
X36.31Y-4.23
X36.31Y-6.77
X36.31Y-53.43
X36.31Y-55.97
X37.93Y-30.11
X37.93Y-47.89
X38.85Y-4.23
X38.85Y-6.77
X38.85Y-53.43
X38.85Y-55.97
X40.47Y-30.11
X40.47Y-47.89
X41.39Y-4.23
X41.39Y-6.77
X41.39Y-53.43
X41.39Y-55.97
X43.01Y-30.11
X43.01Y-47.89
X43.93Y-4.23
X43.93Y-6.77
X43.93Y-53.43
X43.93Y-55.97
X45.55Y-30.11
X45.55Y-47.89
X46.47Y-4.23
X46.47Y-6.77
X46.47Y-53.43
X46.47Y-55.97
X48.09Y-30.11
X48.09Y-47.89
X49.01Y-4.23
X49.01Y-6.77
X49.01Y-53.43
X49.01Y-55.97
X50.63Y-30.11
X50.63Y-47.89
X51.55Y-4.23
X51.55Y-6.77
X51.55Y-53.43
X51.55Y-55.97
X53.17Y-30.11
X53.17Y-47.89
X54.09Y-4.23
X54.09Y-6.77
X54.09Y-53.43
X54.09Y-55.97
X55.71Y-30.11
X55.71Y-47.89
X56.63Y-4.23
X56.63Y-6.77
X56.63Y-53.43
X56.63Y-55.97
X58.25Y-30.11
X58.25Y-47.89
X60.79Y-30.11
X60.79Y-47.89
X63.33Y-30.11
X63.33Y-47.89
M30
