%TF.GenerationSoftware,KiCad,Pcbnew,9.0.7*%
%TF.CreationDate,2026-05-06T21:04:56+02:00*%
%TF.ProjectId,BarePi_ExtDisp,42617265-5069-45f4-9578-74446973702e,rev?*%
%TF.SameCoordinates,Original*%
%TF.FileFunction,AssemblyDrawing,Top*%
%FSLAX46Y46*%
G04 Gerber Fmt 4.6, Leading zero omitted, Abs format (unit mm)*
G04 Created by KiCad (PCBNEW 9.0.7) date 2026-05-06 21:04:56*
%MOMM*%
%LPD*%
G01*
G04 APERTURE LIST*
%ADD10C,0.150000*%
%ADD11C,0.108000*%
%ADD12C,0.120000*%
%ADD13C,0.100000*%
G04 APERTURE END LIST*
D10*
X3680000Y-54259164D02*
X3822857Y-54259164D01*
X3822857Y-54259164D02*
X3894286Y-54294878D01*
X3894286Y-54294878D02*
X3965714Y-54366307D01*
X3965714Y-54366307D02*
X4001429Y-54509164D01*
X4001429Y-54509164D02*
X4001429Y-54759164D01*
X4001429Y-54759164D02*
X3965714Y-54902021D01*
X3965714Y-54902021D02*
X3894286Y-54973450D01*
X3894286Y-54973450D02*
X3822857Y-55009164D01*
X3822857Y-55009164D02*
X3680000Y-55009164D01*
X3680000Y-55009164D02*
X3608572Y-54973450D01*
X3608572Y-54973450D02*
X3537143Y-54902021D01*
X3537143Y-54902021D02*
X3501429Y-54759164D01*
X3501429Y-54759164D02*
X3501429Y-54509164D01*
X3501429Y-54509164D02*
X3537143Y-54366307D01*
X3537143Y-54366307D02*
X3608572Y-54294878D01*
X3608572Y-54294878D02*
X3680000Y-54259164D01*
X4322857Y-54259164D02*
X4322857Y-54866307D01*
X4322857Y-54866307D02*
X4358571Y-54937735D01*
X4358571Y-54937735D02*
X4394286Y-54973450D01*
X4394286Y-54973450D02*
X4465714Y-55009164D01*
X4465714Y-55009164D02*
X4608571Y-55009164D01*
X4608571Y-55009164D02*
X4680000Y-54973450D01*
X4680000Y-54973450D02*
X4715714Y-54937735D01*
X4715714Y-54937735D02*
X4751428Y-54866307D01*
X4751428Y-54866307D02*
X4751428Y-54259164D01*
X5001428Y-54259164D02*
X5430000Y-54259164D01*
X5215714Y-55009164D02*
X5215714Y-54259164D01*
X5180000Y-52719164D02*
X5180000Y-53254878D01*
X5180000Y-53254878D02*
X5144285Y-53362021D01*
X5144285Y-53362021D02*
X5072857Y-53433450D01*
X5072857Y-53433450D02*
X4965714Y-53469164D01*
X4965714Y-53469164D02*
X4894285Y-53469164D01*
X5501429Y-52790592D02*
X5537143Y-52754878D01*
X5537143Y-52754878D02*
X5608572Y-52719164D01*
X5608572Y-52719164D02*
X5787143Y-52719164D01*
X5787143Y-52719164D02*
X5858572Y-52754878D01*
X5858572Y-52754878D02*
X5894286Y-52790592D01*
X5894286Y-52790592D02*
X5930000Y-52862021D01*
X5930000Y-52862021D02*
X5930000Y-52933450D01*
X5930000Y-52933450D02*
X5894286Y-53040592D01*
X5894286Y-53040592D02*
X5465714Y-53469164D01*
X5465714Y-53469164D02*
X5930000Y-53469164D01*
X51295114Y-24450992D02*
X51330828Y-24415278D01*
X51330828Y-24415278D02*
X51402257Y-24379564D01*
X51402257Y-24379564D02*
X51580828Y-24379564D01*
X51580828Y-24379564D02*
X51652257Y-24415278D01*
X51652257Y-24415278D02*
X51687971Y-24450992D01*
X51687971Y-24450992D02*
X51723685Y-24522421D01*
X51723685Y-24522421D02*
X51723685Y-24593850D01*
X51723685Y-24593850D02*
X51687971Y-24700992D01*
X51687971Y-24700992D02*
X51259399Y-25129564D01*
X51259399Y-25129564D02*
X51723685Y-25129564D01*
X52045114Y-25129564D02*
X52045114Y-24379564D01*
X52473685Y-25129564D02*
X52152257Y-24700992D01*
X52473685Y-24379564D02*
X52045114Y-24808135D01*
D11*
X51962599Y-24064948D02*
X51712599Y-23707805D01*
X51534028Y-24064948D02*
X51534028Y-23314948D01*
X51534028Y-23314948D02*
X51819742Y-23314948D01*
X51819742Y-23314948D02*
X51891171Y-23350662D01*
X51891171Y-23350662D02*
X51926885Y-23386376D01*
X51926885Y-23386376D02*
X51962599Y-23457805D01*
X51962599Y-23457805D02*
X51962599Y-23564948D01*
X51962599Y-23564948D02*
X51926885Y-23636376D01*
X51926885Y-23636376D02*
X51891171Y-23672091D01*
X51891171Y-23672091D02*
X51819742Y-23707805D01*
X51819742Y-23707805D02*
X51534028Y-23707805D01*
X52212599Y-23314948D02*
X52676885Y-23314948D01*
X52676885Y-23314948D02*
X52426885Y-23600662D01*
X52426885Y-23600662D02*
X52534028Y-23600662D01*
X52534028Y-23600662D02*
X52605457Y-23636376D01*
X52605457Y-23636376D02*
X52641171Y-23672091D01*
X52641171Y-23672091D02*
X52676885Y-23743519D01*
X52676885Y-23743519D02*
X52676885Y-23922091D01*
X52676885Y-23922091D02*
X52641171Y-23993519D01*
X52641171Y-23993519D02*
X52605457Y-24029234D01*
X52605457Y-24029234D02*
X52534028Y-24064948D01*
X52534028Y-24064948D02*
X52319742Y-24064948D01*
X52319742Y-24064948D02*
X52248314Y-24029234D01*
X52248314Y-24029234D02*
X52212599Y-23993519D01*
D10*
X14393171Y-18799392D02*
X14321742Y-18763678D01*
X14321742Y-18763678D02*
X14286028Y-18727964D01*
X14286028Y-18727964D02*
X14250314Y-18656535D01*
X14250314Y-18656535D02*
X14250314Y-18620821D01*
X14250314Y-18620821D02*
X14286028Y-18549392D01*
X14286028Y-18549392D02*
X14321742Y-18513678D01*
X14321742Y-18513678D02*
X14393171Y-18477964D01*
X14393171Y-18477964D02*
X14536028Y-18477964D01*
X14536028Y-18477964D02*
X14607457Y-18513678D01*
X14607457Y-18513678D02*
X14643171Y-18549392D01*
X14643171Y-18549392D02*
X14678885Y-18620821D01*
X14678885Y-18620821D02*
X14678885Y-18656535D01*
X14678885Y-18656535D02*
X14643171Y-18727964D01*
X14643171Y-18727964D02*
X14607457Y-18763678D01*
X14607457Y-18763678D02*
X14536028Y-18799392D01*
X14536028Y-18799392D02*
X14393171Y-18799392D01*
X14393171Y-18799392D02*
X14321742Y-18835107D01*
X14321742Y-18835107D02*
X14286028Y-18870821D01*
X14286028Y-18870821D02*
X14250314Y-18942250D01*
X14250314Y-18942250D02*
X14250314Y-19085107D01*
X14250314Y-19085107D02*
X14286028Y-19156535D01*
X14286028Y-19156535D02*
X14321742Y-19192250D01*
X14321742Y-19192250D02*
X14393171Y-19227964D01*
X14393171Y-19227964D02*
X14536028Y-19227964D01*
X14536028Y-19227964D02*
X14607457Y-19192250D01*
X14607457Y-19192250D02*
X14643171Y-19156535D01*
X14643171Y-19156535D02*
X14678885Y-19085107D01*
X14678885Y-19085107D02*
X14678885Y-18942250D01*
X14678885Y-18942250D02*
X14643171Y-18870821D01*
X14643171Y-18870821D02*
X14607457Y-18835107D01*
X14607457Y-18835107D02*
X14536028Y-18799392D01*
X15000314Y-19227964D02*
X15000314Y-18477964D01*
X15428885Y-19227964D02*
X15107457Y-18799392D01*
X15428885Y-18477964D02*
X15000314Y-18906535D01*
D11*
X14205056Y-18214148D02*
X13955056Y-17857005D01*
X13776485Y-18214148D02*
X13776485Y-17464148D01*
X13776485Y-17464148D02*
X14062199Y-17464148D01*
X14062199Y-17464148D02*
X14133628Y-17499862D01*
X14133628Y-17499862D02*
X14169342Y-17535576D01*
X14169342Y-17535576D02*
X14205056Y-17607005D01*
X14205056Y-17607005D02*
X14205056Y-17714148D01*
X14205056Y-17714148D02*
X14169342Y-17785576D01*
X14169342Y-17785576D02*
X14133628Y-17821291D01*
X14133628Y-17821291D02*
X14062199Y-17857005D01*
X14062199Y-17857005D02*
X13776485Y-17857005D01*
X14919342Y-18214148D02*
X14490771Y-18214148D01*
X14705056Y-18214148D02*
X14705056Y-17464148D01*
X14705056Y-17464148D02*
X14633628Y-17571291D01*
X14633628Y-17571291D02*
X14562199Y-17642719D01*
X14562199Y-17642719D02*
X14490771Y-17678434D01*
X15205057Y-17535576D02*
X15240771Y-17499862D01*
X15240771Y-17499862D02*
X15312200Y-17464148D01*
X15312200Y-17464148D02*
X15490771Y-17464148D01*
X15490771Y-17464148D02*
X15562200Y-17499862D01*
X15562200Y-17499862D02*
X15597914Y-17535576D01*
X15597914Y-17535576D02*
X15633628Y-17607005D01*
X15633628Y-17607005D02*
X15633628Y-17678434D01*
X15633628Y-17678434D02*
X15597914Y-17785576D01*
X15597914Y-17785576D02*
X15169342Y-18214148D01*
X15169342Y-18214148D02*
X15633628Y-18214148D01*
D10*
X38044771Y-13570992D02*
X37973342Y-13535278D01*
X37973342Y-13535278D02*
X37937628Y-13499564D01*
X37937628Y-13499564D02*
X37901914Y-13428135D01*
X37901914Y-13428135D02*
X37901914Y-13392421D01*
X37901914Y-13392421D02*
X37937628Y-13320992D01*
X37937628Y-13320992D02*
X37973342Y-13285278D01*
X37973342Y-13285278D02*
X38044771Y-13249564D01*
X38044771Y-13249564D02*
X38187628Y-13249564D01*
X38187628Y-13249564D02*
X38259057Y-13285278D01*
X38259057Y-13285278D02*
X38294771Y-13320992D01*
X38294771Y-13320992D02*
X38330485Y-13392421D01*
X38330485Y-13392421D02*
X38330485Y-13428135D01*
X38330485Y-13428135D02*
X38294771Y-13499564D01*
X38294771Y-13499564D02*
X38259057Y-13535278D01*
X38259057Y-13535278D02*
X38187628Y-13570992D01*
X38187628Y-13570992D02*
X38044771Y-13570992D01*
X38044771Y-13570992D02*
X37973342Y-13606707D01*
X37973342Y-13606707D02*
X37937628Y-13642421D01*
X37937628Y-13642421D02*
X37901914Y-13713850D01*
X37901914Y-13713850D02*
X37901914Y-13856707D01*
X37901914Y-13856707D02*
X37937628Y-13928135D01*
X37937628Y-13928135D02*
X37973342Y-13963850D01*
X37973342Y-13963850D02*
X38044771Y-13999564D01*
X38044771Y-13999564D02*
X38187628Y-13999564D01*
X38187628Y-13999564D02*
X38259057Y-13963850D01*
X38259057Y-13963850D02*
X38294771Y-13928135D01*
X38294771Y-13928135D02*
X38330485Y-13856707D01*
X38330485Y-13856707D02*
X38330485Y-13713850D01*
X38330485Y-13713850D02*
X38294771Y-13642421D01*
X38294771Y-13642421D02*
X38259057Y-13606707D01*
X38259057Y-13606707D02*
X38187628Y-13570992D01*
X38651914Y-13999564D02*
X38651914Y-13249564D01*
X39080485Y-13999564D02*
X38759057Y-13570992D01*
X39080485Y-13249564D02*
X38651914Y-13678135D01*
D11*
X38620199Y-12731748D02*
X38370199Y-12374605D01*
X38191628Y-12731748D02*
X38191628Y-11981748D01*
X38191628Y-11981748D02*
X38477342Y-11981748D01*
X38477342Y-11981748D02*
X38548771Y-12017462D01*
X38548771Y-12017462D02*
X38584485Y-12053176D01*
X38584485Y-12053176D02*
X38620199Y-12124605D01*
X38620199Y-12124605D02*
X38620199Y-12231748D01*
X38620199Y-12231748D02*
X38584485Y-12303176D01*
X38584485Y-12303176D02*
X38548771Y-12338891D01*
X38548771Y-12338891D02*
X38477342Y-12374605D01*
X38477342Y-12374605D02*
X38191628Y-12374605D01*
X38870199Y-11981748D02*
X39370199Y-11981748D01*
X39370199Y-11981748D02*
X39048771Y-12731748D01*
D10*
X37651914Y-20062592D02*
X37687628Y-20026878D01*
X37687628Y-20026878D02*
X37759057Y-19991164D01*
X37759057Y-19991164D02*
X37937628Y-19991164D01*
X37937628Y-19991164D02*
X38009057Y-20026878D01*
X38009057Y-20026878D02*
X38044771Y-20062592D01*
X38044771Y-20062592D02*
X38080485Y-20134021D01*
X38080485Y-20134021D02*
X38080485Y-20205450D01*
X38080485Y-20205450D02*
X38044771Y-20312592D01*
X38044771Y-20312592D02*
X37616199Y-20741164D01*
X37616199Y-20741164D02*
X38080485Y-20741164D01*
X38401914Y-20741164D02*
X38401914Y-19991164D01*
X38830485Y-20741164D02*
X38509057Y-20312592D01*
X38830485Y-19991164D02*
X38401914Y-20419735D01*
D11*
X38268599Y-19778148D02*
X38018599Y-19421005D01*
X37840028Y-19778148D02*
X37840028Y-19028148D01*
X37840028Y-19028148D02*
X38125742Y-19028148D01*
X38125742Y-19028148D02*
X38197171Y-19063862D01*
X38197171Y-19063862D02*
X38232885Y-19099576D01*
X38232885Y-19099576D02*
X38268599Y-19171005D01*
X38268599Y-19171005D02*
X38268599Y-19278148D01*
X38268599Y-19278148D02*
X38232885Y-19349576D01*
X38232885Y-19349576D02*
X38197171Y-19385291D01*
X38197171Y-19385291D02*
X38125742Y-19421005D01*
X38125742Y-19421005D02*
X37840028Y-19421005D01*
X38625742Y-19778148D02*
X38768599Y-19778148D01*
X38768599Y-19778148D02*
X38840028Y-19742434D01*
X38840028Y-19742434D02*
X38875742Y-19706719D01*
X38875742Y-19706719D02*
X38947171Y-19599576D01*
X38947171Y-19599576D02*
X38982885Y-19456719D01*
X38982885Y-19456719D02*
X38982885Y-19171005D01*
X38982885Y-19171005D02*
X38947171Y-19099576D01*
X38947171Y-19099576D02*
X38911457Y-19063862D01*
X38911457Y-19063862D02*
X38840028Y-19028148D01*
X38840028Y-19028148D02*
X38697171Y-19028148D01*
X38697171Y-19028148D02*
X38625742Y-19063862D01*
X38625742Y-19063862D02*
X38590028Y-19099576D01*
X38590028Y-19099576D02*
X38554314Y-19171005D01*
X38554314Y-19171005D02*
X38554314Y-19349576D01*
X38554314Y-19349576D02*
X38590028Y-19421005D01*
X38590028Y-19421005D02*
X38625742Y-19456719D01*
X38625742Y-19456719D02*
X38697171Y-19492434D01*
X38697171Y-19492434D02*
X38840028Y-19492434D01*
X38840028Y-19492434D02*
X38911457Y-19456719D01*
X38911457Y-19456719D02*
X38947171Y-19421005D01*
X38947171Y-19421005D02*
X38982885Y-19349576D01*
D10*
X37858085Y-18267164D02*
X37429514Y-18267164D01*
X37643799Y-18267164D02*
X37643799Y-17517164D01*
X37643799Y-17517164D02*
X37572371Y-17624307D01*
X37572371Y-17624307D02*
X37500942Y-17695735D01*
X37500942Y-17695735D02*
X37429514Y-17731450D01*
X38179514Y-18267164D02*
X38179514Y-17517164D01*
X38608085Y-18267164D02*
X38286657Y-17838592D01*
X38608085Y-17517164D02*
X38179514Y-17945735D01*
D11*
X37841456Y-17202548D02*
X37591456Y-16845405D01*
X37412885Y-17202548D02*
X37412885Y-16452548D01*
X37412885Y-16452548D02*
X37698599Y-16452548D01*
X37698599Y-16452548D02*
X37770028Y-16488262D01*
X37770028Y-16488262D02*
X37805742Y-16523976D01*
X37805742Y-16523976D02*
X37841456Y-16595405D01*
X37841456Y-16595405D02*
X37841456Y-16702548D01*
X37841456Y-16702548D02*
X37805742Y-16773976D01*
X37805742Y-16773976D02*
X37770028Y-16809691D01*
X37770028Y-16809691D02*
X37698599Y-16845405D01*
X37698599Y-16845405D02*
X37412885Y-16845405D01*
X38555742Y-17202548D02*
X38127171Y-17202548D01*
X38341456Y-17202548D02*
X38341456Y-16452548D01*
X38341456Y-16452548D02*
X38270028Y-16559691D01*
X38270028Y-16559691D02*
X38198599Y-16631119D01*
X38198599Y-16631119D02*
X38127171Y-16666834D01*
X39020028Y-16452548D02*
X39091457Y-16452548D01*
X39091457Y-16452548D02*
X39162885Y-16488262D01*
X39162885Y-16488262D02*
X39198600Y-16523976D01*
X39198600Y-16523976D02*
X39234314Y-16595405D01*
X39234314Y-16595405D02*
X39270028Y-16738262D01*
X39270028Y-16738262D02*
X39270028Y-16916834D01*
X39270028Y-16916834D02*
X39234314Y-17059691D01*
X39234314Y-17059691D02*
X39198600Y-17131119D01*
X39198600Y-17131119D02*
X39162885Y-17166834D01*
X39162885Y-17166834D02*
X39091457Y-17202548D01*
X39091457Y-17202548D02*
X39020028Y-17202548D01*
X39020028Y-17202548D02*
X38948600Y-17166834D01*
X38948600Y-17166834D02*
X38912885Y-17131119D01*
X38912885Y-17131119D02*
X38877171Y-17059691D01*
X38877171Y-17059691D02*
X38841457Y-16916834D01*
X38841457Y-16916834D02*
X38841457Y-16738262D01*
X38841457Y-16738262D02*
X38877171Y-16595405D01*
X38877171Y-16595405D02*
X38912885Y-16523976D01*
X38912885Y-16523976D02*
X38948600Y-16488262D01*
X38948600Y-16488262D02*
X39020028Y-16452548D01*
D10*
X51920285Y-19077964D02*
X51563142Y-19077964D01*
X51563142Y-19077964D02*
X51527428Y-19435107D01*
X51527428Y-19435107D02*
X51563142Y-19399392D01*
X51563142Y-19399392D02*
X51634571Y-19363678D01*
X51634571Y-19363678D02*
X51813142Y-19363678D01*
X51813142Y-19363678D02*
X51884571Y-19399392D01*
X51884571Y-19399392D02*
X51920285Y-19435107D01*
X51920285Y-19435107D02*
X51955999Y-19506535D01*
X51955999Y-19506535D02*
X51955999Y-19685107D01*
X51955999Y-19685107D02*
X51920285Y-19756535D01*
X51920285Y-19756535D02*
X51884571Y-19792250D01*
X51884571Y-19792250D02*
X51813142Y-19827964D01*
X51813142Y-19827964D02*
X51634571Y-19827964D01*
X51634571Y-19827964D02*
X51563142Y-19792250D01*
X51563142Y-19792250D02*
X51527428Y-19756535D01*
X52420285Y-19077964D02*
X52491714Y-19077964D01*
X52491714Y-19077964D02*
X52563142Y-19113678D01*
X52563142Y-19113678D02*
X52598857Y-19149392D01*
X52598857Y-19149392D02*
X52634571Y-19220821D01*
X52634571Y-19220821D02*
X52670285Y-19363678D01*
X52670285Y-19363678D02*
X52670285Y-19542250D01*
X52670285Y-19542250D02*
X52634571Y-19685107D01*
X52634571Y-19685107D02*
X52598857Y-19756535D01*
X52598857Y-19756535D02*
X52563142Y-19792250D01*
X52563142Y-19792250D02*
X52491714Y-19827964D01*
X52491714Y-19827964D02*
X52420285Y-19827964D01*
X52420285Y-19827964D02*
X52348857Y-19792250D01*
X52348857Y-19792250D02*
X52313142Y-19756535D01*
X52313142Y-19756535D02*
X52277428Y-19685107D01*
X52277428Y-19685107D02*
X52241714Y-19542250D01*
X52241714Y-19542250D02*
X52241714Y-19363678D01*
X52241714Y-19363678D02*
X52277428Y-19220821D01*
X52277428Y-19220821D02*
X52313142Y-19149392D01*
X52313142Y-19149392D02*
X52348857Y-19113678D01*
X52348857Y-19113678D02*
X52420285Y-19077964D01*
X53134571Y-19077964D02*
X53206000Y-19077964D01*
X53206000Y-19077964D02*
X53277428Y-19113678D01*
X53277428Y-19113678D02*
X53313143Y-19149392D01*
X53313143Y-19149392D02*
X53348857Y-19220821D01*
X53348857Y-19220821D02*
X53384571Y-19363678D01*
X53384571Y-19363678D02*
X53384571Y-19542250D01*
X53384571Y-19542250D02*
X53348857Y-19685107D01*
X53348857Y-19685107D02*
X53313143Y-19756535D01*
X53313143Y-19756535D02*
X53277428Y-19792250D01*
X53277428Y-19792250D02*
X53206000Y-19827964D01*
X53206000Y-19827964D02*
X53134571Y-19827964D01*
X53134571Y-19827964D02*
X53063143Y-19792250D01*
X53063143Y-19792250D02*
X53027428Y-19756535D01*
X53027428Y-19756535D02*
X52991714Y-19685107D01*
X52991714Y-19685107D02*
X52956000Y-19542250D01*
X52956000Y-19542250D02*
X52956000Y-19363678D01*
X52956000Y-19363678D02*
X52991714Y-19220821D01*
X52991714Y-19220821D02*
X53027428Y-19149392D01*
X53027428Y-19149392D02*
X53063143Y-19113678D01*
X53063143Y-19113678D02*
X53134571Y-19077964D01*
D11*
X52178599Y-18712548D02*
X51928599Y-18355405D01*
X51750028Y-18712548D02*
X51750028Y-17962548D01*
X51750028Y-17962548D02*
X52035742Y-17962548D01*
X52035742Y-17962548D02*
X52107171Y-17998262D01*
X52107171Y-17998262D02*
X52142885Y-18033976D01*
X52142885Y-18033976D02*
X52178599Y-18105405D01*
X52178599Y-18105405D02*
X52178599Y-18212548D01*
X52178599Y-18212548D02*
X52142885Y-18283976D01*
X52142885Y-18283976D02*
X52107171Y-18319691D01*
X52107171Y-18319691D02*
X52035742Y-18355405D01*
X52035742Y-18355405D02*
X51750028Y-18355405D01*
X52857171Y-17962548D02*
X52500028Y-17962548D01*
X52500028Y-17962548D02*
X52464314Y-18319691D01*
X52464314Y-18319691D02*
X52500028Y-18283976D01*
X52500028Y-18283976D02*
X52571457Y-18248262D01*
X52571457Y-18248262D02*
X52750028Y-18248262D01*
X52750028Y-18248262D02*
X52821457Y-18283976D01*
X52821457Y-18283976D02*
X52857171Y-18319691D01*
X52857171Y-18319691D02*
X52892885Y-18391119D01*
X52892885Y-18391119D02*
X52892885Y-18569691D01*
X52892885Y-18569691D02*
X52857171Y-18641119D01*
X52857171Y-18641119D02*
X52821457Y-18676834D01*
X52821457Y-18676834D02*
X52750028Y-18712548D01*
X52750028Y-18712548D02*
X52571457Y-18712548D01*
X52571457Y-18712548D02*
X52500028Y-18676834D01*
X52500028Y-18676834D02*
X52464314Y-18641119D01*
D10*
X14677285Y-21459564D02*
X14248714Y-21459564D01*
X14462999Y-21459564D02*
X14462999Y-20709564D01*
X14462999Y-20709564D02*
X14391571Y-20816707D01*
X14391571Y-20816707D02*
X14320142Y-20888135D01*
X14320142Y-20888135D02*
X14248714Y-20923850D01*
X14998714Y-21459564D02*
X14998714Y-20709564D01*
X15427285Y-21459564D02*
X15105857Y-21030992D01*
X15427285Y-20709564D02*
X14998714Y-21138135D01*
D11*
X14305056Y-20344148D02*
X14055056Y-19987005D01*
X13876485Y-20344148D02*
X13876485Y-19594148D01*
X13876485Y-19594148D02*
X14162199Y-19594148D01*
X14162199Y-19594148D02*
X14233628Y-19629862D01*
X14233628Y-19629862D02*
X14269342Y-19665576D01*
X14269342Y-19665576D02*
X14305056Y-19737005D01*
X14305056Y-19737005D02*
X14305056Y-19844148D01*
X14305056Y-19844148D02*
X14269342Y-19915576D01*
X14269342Y-19915576D02*
X14233628Y-19951291D01*
X14233628Y-19951291D02*
X14162199Y-19987005D01*
X14162199Y-19987005D02*
X13876485Y-19987005D01*
X15019342Y-20344148D02*
X14590771Y-20344148D01*
X14805056Y-20344148D02*
X14805056Y-19594148D01*
X14805056Y-19594148D02*
X14733628Y-19701291D01*
X14733628Y-19701291D02*
X14662199Y-19772719D01*
X14662199Y-19772719D02*
X14590771Y-19808434D01*
X15697914Y-19594148D02*
X15340771Y-19594148D01*
X15340771Y-19594148D02*
X15305057Y-19951291D01*
X15305057Y-19951291D02*
X15340771Y-19915576D01*
X15340771Y-19915576D02*
X15412200Y-19879862D01*
X15412200Y-19879862D02*
X15590771Y-19879862D01*
X15590771Y-19879862D02*
X15662200Y-19915576D01*
X15662200Y-19915576D02*
X15697914Y-19951291D01*
X15697914Y-19951291D02*
X15733628Y-20022719D01*
X15733628Y-20022719D02*
X15733628Y-20201291D01*
X15733628Y-20201291D02*
X15697914Y-20272719D01*
X15697914Y-20272719D02*
X15662200Y-20308434D01*
X15662200Y-20308434D02*
X15590771Y-20344148D01*
X15590771Y-20344148D02*
X15412200Y-20344148D01*
X15412200Y-20344148D02*
X15340771Y-20308434D01*
X15340771Y-20308434D02*
X15305057Y-20272719D01*
D10*
X14362714Y-15887792D02*
X14398428Y-15852078D01*
X14398428Y-15852078D02*
X14469857Y-15816364D01*
X14469857Y-15816364D02*
X14648428Y-15816364D01*
X14648428Y-15816364D02*
X14719857Y-15852078D01*
X14719857Y-15852078D02*
X14755571Y-15887792D01*
X14755571Y-15887792D02*
X14791285Y-15959221D01*
X14791285Y-15959221D02*
X14791285Y-16030650D01*
X14791285Y-16030650D02*
X14755571Y-16137792D01*
X14755571Y-16137792D02*
X14326999Y-16566364D01*
X14326999Y-16566364D02*
X14791285Y-16566364D01*
X15112714Y-16566364D02*
X15112714Y-15816364D01*
X15541285Y-16566364D02*
X15219857Y-16137792D01*
X15541285Y-15816364D02*
X15112714Y-16244935D01*
D11*
X14215856Y-15450948D02*
X13965856Y-15093805D01*
X13787285Y-15450948D02*
X13787285Y-14700948D01*
X13787285Y-14700948D02*
X14072999Y-14700948D01*
X14072999Y-14700948D02*
X14144428Y-14736662D01*
X14144428Y-14736662D02*
X14180142Y-14772376D01*
X14180142Y-14772376D02*
X14215856Y-14843805D01*
X14215856Y-14843805D02*
X14215856Y-14950948D01*
X14215856Y-14950948D02*
X14180142Y-15022376D01*
X14180142Y-15022376D02*
X14144428Y-15058091D01*
X14144428Y-15058091D02*
X14072999Y-15093805D01*
X14072999Y-15093805D02*
X13787285Y-15093805D01*
X14930142Y-15450948D02*
X14501571Y-15450948D01*
X14715856Y-15450948D02*
X14715856Y-14700948D01*
X14715856Y-14700948D02*
X14644428Y-14808091D01*
X14644428Y-14808091D02*
X14572999Y-14879519D01*
X14572999Y-14879519D02*
X14501571Y-14915234D01*
X15573000Y-14950948D02*
X15573000Y-15450948D01*
X15394428Y-14665234D02*
X15215857Y-15200948D01*
X15215857Y-15200948D02*
X15680142Y-15200948D01*
D10*
X2861905Y-39054819D02*
X2861905Y-38054819D01*
X2861905Y-38054819D02*
X3100000Y-38054819D01*
X3100000Y-38054819D02*
X3242857Y-38102438D01*
X3242857Y-38102438D02*
X3338095Y-38197676D01*
X3338095Y-38197676D02*
X3385714Y-38292914D01*
X3385714Y-38292914D02*
X3433333Y-38483390D01*
X3433333Y-38483390D02*
X3433333Y-38626247D01*
X3433333Y-38626247D02*
X3385714Y-38816723D01*
X3385714Y-38816723D02*
X3338095Y-38911961D01*
X3338095Y-38911961D02*
X3242857Y-39007200D01*
X3242857Y-39007200D02*
X3100000Y-39054819D01*
X3100000Y-39054819D02*
X2861905Y-39054819D01*
X3861905Y-39054819D02*
X3861905Y-38054819D01*
X4290476Y-39007200D02*
X4433333Y-39054819D01*
X4433333Y-39054819D02*
X4671428Y-39054819D01*
X4671428Y-39054819D02*
X4766666Y-39007200D01*
X4766666Y-39007200D02*
X4814285Y-38959580D01*
X4814285Y-38959580D02*
X4861904Y-38864342D01*
X4861904Y-38864342D02*
X4861904Y-38769104D01*
X4861904Y-38769104D02*
X4814285Y-38673866D01*
X4814285Y-38673866D02*
X4766666Y-38626247D01*
X4766666Y-38626247D02*
X4671428Y-38578628D01*
X4671428Y-38578628D02*
X4480952Y-38531009D01*
X4480952Y-38531009D02*
X4385714Y-38483390D01*
X4385714Y-38483390D02*
X4338095Y-38435771D01*
X4338095Y-38435771D02*
X4290476Y-38340533D01*
X4290476Y-38340533D02*
X4290476Y-38245295D01*
X4290476Y-38245295D02*
X4338095Y-38150057D01*
X4338095Y-38150057D02*
X4385714Y-38102438D01*
X4385714Y-38102438D02*
X4480952Y-38054819D01*
X4480952Y-38054819D02*
X4719047Y-38054819D01*
X4719047Y-38054819D02*
X4861904Y-38102438D01*
X5290476Y-39054819D02*
X5290476Y-38054819D01*
X5290476Y-38054819D02*
X5671428Y-38054819D01*
X5671428Y-38054819D02*
X5766666Y-38102438D01*
X5766666Y-38102438D02*
X5814285Y-38150057D01*
X5814285Y-38150057D02*
X5861904Y-38245295D01*
X5861904Y-38245295D02*
X5861904Y-38388152D01*
X5861904Y-38388152D02*
X5814285Y-38483390D01*
X5814285Y-38483390D02*
X5766666Y-38531009D01*
X5766666Y-38531009D02*
X5671428Y-38578628D01*
X5671428Y-38578628D02*
X5290476Y-38578628D01*
X6766666Y-39054819D02*
X6290476Y-39054819D01*
X6290476Y-39054819D02*
X6290476Y-38054819D01*
X7052381Y-38769104D02*
X7528571Y-38769104D01*
X6957143Y-39054819D02*
X7290476Y-38054819D01*
X7290476Y-38054819D02*
X7623809Y-39054819D01*
X8147619Y-38578628D02*
X8147619Y-39054819D01*
X7814286Y-38054819D02*
X8147619Y-38578628D01*
X8147619Y-38578628D02*
X8480952Y-38054819D01*
X3526666Y-9774819D02*
X3526666Y-10489104D01*
X3526666Y-10489104D02*
X3479047Y-10631961D01*
X3479047Y-10631961D02*
X3383809Y-10727200D01*
X3383809Y-10727200D02*
X3240952Y-10774819D01*
X3240952Y-10774819D02*
X3145714Y-10774819D01*
X3907619Y-9774819D02*
X4526666Y-9774819D01*
X4526666Y-9774819D02*
X4193333Y-10155771D01*
X4193333Y-10155771D02*
X4336190Y-10155771D01*
X4336190Y-10155771D02*
X4431428Y-10203390D01*
X4431428Y-10203390D02*
X4479047Y-10251009D01*
X4479047Y-10251009D02*
X4526666Y-10346247D01*
X4526666Y-10346247D02*
X4526666Y-10584342D01*
X4526666Y-10584342D02*
X4479047Y-10679580D01*
X4479047Y-10679580D02*
X4431428Y-10727200D01*
X4431428Y-10727200D02*
X4336190Y-10774819D01*
X4336190Y-10774819D02*
X4050476Y-10774819D01*
X4050476Y-10774819D02*
X3955238Y-10727200D01*
X3955238Y-10727200D02*
X3907619Y-10679580D01*
X9613333Y-40368152D02*
X9613333Y-41034819D01*
X9375238Y-39987200D02*
X9137143Y-40701485D01*
X9137143Y-40701485D02*
X9756190Y-40701485D01*
X10041905Y-40034819D02*
X10708571Y-40034819D01*
X10708571Y-40034819D02*
X10280000Y-41034819D01*
X11518095Y-40368152D02*
X11518095Y-41034819D01*
X11089524Y-40368152D02*
X11089524Y-40891961D01*
X11089524Y-40891961D02*
X11137143Y-40987200D01*
X11137143Y-40987200D02*
X11232381Y-41034819D01*
X11232381Y-41034819D02*
X11375238Y-41034819D01*
X11375238Y-41034819D02*
X11470476Y-40987200D01*
X11470476Y-40987200D02*
X11518095Y-40939580D01*
X12327619Y-40511009D02*
X11994286Y-40511009D01*
X11994286Y-41034819D02*
X11994286Y-40034819D01*
X11994286Y-40034819D02*
X12470476Y-40034819D01*
X11293333Y-42409580D02*
X11245714Y-42457200D01*
X11245714Y-42457200D02*
X11102857Y-42504819D01*
X11102857Y-42504819D02*
X11007619Y-42504819D01*
X11007619Y-42504819D02*
X10864762Y-42457200D01*
X10864762Y-42457200D02*
X10769524Y-42361961D01*
X10769524Y-42361961D02*
X10721905Y-42266723D01*
X10721905Y-42266723D02*
X10674286Y-42076247D01*
X10674286Y-42076247D02*
X10674286Y-41933390D01*
X10674286Y-41933390D02*
X10721905Y-41742914D01*
X10721905Y-41742914D02*
X10769524Y-41647676D01*
X10769524Y-41647676D02*
X10864762Y-41552438D01*
X10864762Y-41552438D02*
X11007619Y-41504819D01*
X11007619Y-41504819D02*
X11102857Y-41504819D01*
X11102857Y-41504819D02*
X11245714Y-41552438D01*
X11245714Y-41552438D02*
X11293333Y-41600057D01*
X12245714Y-42504819D02*
X11674286Y-42504819D01*
X11960000Y-42504819D02*
X11960000Y-41504819D01*
X11960000Y-41504819D02*
X11864762Y-41647676D01*
X11864762Y-41647676D02*
X11769524Y-41742914D01*
X11769524Y-41742914D02*
X11674286Y-41790533D01*
X51689685Y-22733564D02*
X51261114Y-22733564D01*
X51475399Y-22733564D02*
X51475399Y-21983564D01*
X51475399Y-21983564D02*
X51403971Y-22090707D01*
X51403971Y-22090707D02*
X51332542Y-22162135D01*
X51332542Y-22162135D02*
X51261114Y-22197850D01*
X52011114Y-22733564D02*
X52011114Y-21983564D01*
X52439685Y-22733564D02*
X52118257Y-22304992D01*
X52439685Y-21983564D02*
X52011114Y-22412135D01*
D11*
X52131799Y-21567348D02*
X51881799Y-21210205D01*
X51703228Y-21567348D02*
X51703228Y-20817348D01*
X51703228Y-20817348D02*
X51988942Y-20817348D01*
X51988942Y-20817348D02*
X52060371Y-20853062D01*
X52060371Y-20853062D02*
X52096085Y-20888776D01*
X52096085Y-20888776D02*
X52131799Y-20960205D01*
X52131799Y-20960205D02*
X52131799Y-21067348D01*
X52131799Y-21067348D02*
X52096085Y-21138776D01*
X52096085Y-21138776D02*
X52060371Y-21174491D01*
X52060371Y-21174491D02*
X51988942Y-21210205D01*
X51988942Y-21210205D02*
X51703228Y-21210205D01*
X52774657Y-21067348D02*
X52774657Y-21567348D01*
X52596085Y-20781634D02*
X52417514Y-21317348D01*
X52417514Y-21317348D02*
X52881799Y-21317348D01*
D10*
X13948285Y-23219564D02*
X13591142Y-23219564D01*
X13591142Y-23219564D02*
X13555428Y-23576707D01*
X13555428Y-23576707D02*
X13591142Y-23540992D01*
X13591142Y-23540992D02*
X13662571Y-23505278D01*
X13662571Y-23505278D02*
X13841142Y-23505278D01*
X13841142Y-23505278D02*
X13912571Y-23540992D01*
X13912571Y-23540992D02*
X13948285Y-23576707D01*
X13948285Y-23576707D02*
X13983999Y-23648135D01*
X13983999Y-23648135D02*
X13983999Y-23826707D01*
X13983999Y-23826707D02*
X13948285Y-23898135D01*
X13948285Y-23898135D02*
X13912571Y-23933850D01*
X13912571Y-23933850D02*
X13841142Y-23969564D01*
X13841142Y-23969564D02*
X13662571Y-23969564D01*
X13662571Y-23969564D02*
X13591142Y-23933850D01*
X13591142Y-23933850D02*
X13555428Y-23898135D01*
X14448285Y-23219564D02*
X14519714Y-23219564D01*
X14519714Y-23219564D02*
X14591142Y-23255278D01*
X14591142Y-23255278D02*
X14626857Y-23290992D01*
X14626857Y-23290992D02*
X14662571Y-23362421D01*
X14662571Y-23362421D02*
X14698285Y-23505278D01*
X14698285Y-23505278D02*
X14698285Y-23683850D01*
X14698285Y-23683850D02*
X14662571Y-23826707D01*
X14662571Y-23826707D02*
X14626857Y-23898135D01*
X14626857Y-23898135D02*
X14591142Y-23933850D01*
X14591142Y-23933850D02*
X14519714Y-23969564D01*
X14519714Y-23969564D02*
X14448285Y-23969564D01*
X14448285Y-23969564D02*
X14376857Y-23933850D01*
X14376857Y-23933850D02*
X14341142Y-23898135D01*
X14341142Y-23898135D02*
X14305428Y-23826707D01*
X14305428Y-23826707D02*
X14269714Y-23683850D01*
X14269714Y-23683850D02*
X14269714Y-23505278D01*
X14269714Y-23505278D02*
X14305428Y-23362421D01*
X14305428Y-23362421D02*
X14341142Y-23290992D01*
X14341142Y-23290992D02*
X14376857Y-23255278D01*
X14376857Y-23255278D02*
X14448285Y-23219564D01*
X15162571Y-23219564D02*
X15234000Y-23219564D01*
X15234000Y-23219564D02*
X15305428Y-23255278D01*
X15305428Y-23255278D02*
X15341143Y-23290992D01*
X15341143Y-23290992D02*
X15376857Y-23362421D01*
X15376857Y-23362421D02*
X15412571Y-23505278D01*
X15412571Y-23505278D02*
X15412571Y-23683850D01*
X15412571Y-23683850D02*
X15376857Y-23826707D01*
X15376857Y-23826707D02*
X15341143Y-23898135D01*
X15341143Y-23898135D02*
X15305428Y-23933850D01*
X15305428Y-23933850D02*
X15234000Y-23969564D01*
X15234000Y-23969564D02*
X15162571Y-23969564D01*
X15162571Y-23969564D02*
X15091143Y-23933850D01*
X15091143Y-23933850D02*
X15055428Y-23898135D01*
X15055428Y-23898135D02*
X15019714Y-23826707D01*
X15019714Y-23826707D02*
X14984000Y-23683850D01*
X14984000Y-23683850D02*
X14984000Y-23505278D01*
X14984000Y-23505278D02*
X15019714Y-23362421D01*
X15019714Y-23362421D02*
X15055428Y-23290992D01*
X15055428Y-23290992D02*
X15091143Y-23255278D01*
X15091143Y-23255278D02*
X15162571Y-23219564D01*
D11*
X14154256Y-22650948D02*
X13904256Y-22293805D01*
X13725685Y-22650948D02*
X13725685Y-21900948D01*
X13725685Y-21900948D02*
X14011399Y-21900948D01*
X14011399Y-21900948D02*
X14082828Y-21936662D01*
X14082828Y-21936662D02*
X14118542Y-21972376D01*
X14118542Y-21972376D02*
X14154256Y-22043805D01*
X14154256Y-22043805D02*
X14154256Y-22150948D01*
X14154256Y-22150948D02*
X14118542Y-22222376D01*
X14118542Y-22222376D02*
X14082828Y-22258091D01*
X14082828Y-22258091D02*
X14011399Y-22293805D01*
X14011399Y-22293805D02*
X13725685Y-22293805D01*
X14868542Y-22650948D02*
X14439971Y-22650948D01*
X14654256Y-22650948D02*
X14654256Y-21900948D01*
X14654256Y-21900948D02*
X14582828Y-22008091D01*
X14582828Y-22008091D02*
X14511399Y-22079519D01*
X14511399Y-22079519D02*
X14439971Y-22115234D01*
X15511400Y-21900948D02*
X15368542Y-21900948D01*
X15368542Y-21900948D02*
X15297114Y-21936662D01*
X15297114Y-21936662D02*
X15261400Y-21972376D01*
X15261400Y-21972376D02*
X15189971Y-22079519D01*
X15189971Y-22079519D02*
X15154257Y-22222376D01*
X15154257Y-22222376D02*
X15154257Y-22508091D01*
X15154257Y-22508091D02*
X15189971Y-22579519D01*
X15189971Y-22579519D02*
X15225685Y-22615234D01*
X15225685Y-22615234D02*
X15297114Y-22650948D01*
X15297114Y-22650948D02*
X15439971Y-22650948D01*
X15439971Y-22650948D02*
X15511400Y-22615234D01*
X15511400Y-22615234D02*
X15547114Y-22579519D01*
X15547114Y-22579519D02*
X15582828Y-22508091D01*
X15582828Y-22508091D02*
X15582828Y-22329519D01*
X15582828Y-22329519D02*
X15547114Y-22258091D01*
X15547114Y-22258091D02*
X15511400Y-22222376D01*
X15511400Y-22222376D02*
X15439971Y-22186662D01*
X15439971Y-22186662D02*
X15297114Y-22186662D01*
X15297114Y-22186662D02*
X15225685Y-22222376D01*
X15225685Y-22222376D02*
X15189971Y-22258091D01*
X15189971Y-22258091D02*
X15154257Y-22329519D01*
D10*
X14658257Y-13811164D02*
X14658257Y-14311164D01*
X14479685Y-13525450D02*
X14301114Y-14061164D01*
X14301114Y-14061164D02*
X14765399Y-14061164D01*
X15051114Y-14311164D02*
X15051114Y-13561164D01*
X15479685Y-14311164D02*
X15158257Y-13882592D01*
X15479685Y-13561164D02*
X15051114Y-13989735D01*
D11*
X14103456Y-13043348D02*
X13853456Y-12686205D01*
X13674885Y-13043348D02*
X13674885Y-12293348D01*
X13674885Y-12293348D02*
X13960599Y-12293348D01*
X13960599Y-12293348D02*
X14032028Y-12329062D01*
X14032028Y-12329062D02*
X14067742Y-12364776D01*
X14067742Y-12364776D02*
X14103456Y-12436205D01*
X14103456Y-12436205D02*
X14103456Y-12543348D01*
X14103456Y-12543348D02*
X14067742Y-12614776D01*
X14067742Y-12614776D02*
X14032028Y-12650491D01*
X14032028Y-12650491D02*
X13960599Y-12686205D01*
X13960599Y-12686205D02*
X13674885Y-12686205D01*
X14817742Y-13043348D02*
X14389171Y-13043348D01*
X14603456Y-13043348D02*
X14603456Y-12293348D01*
X14603456Y-12293348D02*
X14532028Y-12400491D01*
X14532028Y-12400491D02*
X14460599Y-12471919D01*
X14460599Y-12471919D02*
X14389171Y-12507634D01*
X15067742Y-12293348D02*
X15532028Y-12293348D01*
X15532028Y-12293348D02*
X15282028Y-12579062D01*
X15282028Y-12579062D02*
X15389171Y-12579062D01*
X15389171Y-12579062D02*
X15460600Y-12614776D01*
X15460600Y-12614776D02*
X15496314Y-12650491D01*
X15496314Y-12650491D02*
X15532028Y-12721919D01*
X15532028Y-12721919D02*
X15532028Y-12900491D01*
X15532028Y-12900491D02*
X15496314Y-12971919D01*
X15496314Y-12971919D02*
X15460600Y-13007634D01*
X15460600Y-13007634D02*
X15389171Y-13043348D01*
X15389171Y-13043348D02*
X15174885Y-13043348D01*
X15174885Y-13043348D02*
X15103457Y-13007634D01*
X15103457Y-13007634D02*
X15067742Y-12971919D01*
D10*
X51025457Y-16430364D02*
X51025457Y-16930364D01*
X50846885Y-16144650D02*
X50668314Y-16680364D01*
X50668314Y-16680364D02*
X51132599Y-16680364D01*
X51418314Y-16930364D02*
X51418314Y-16180364D01*
X51846885Y-16930364D02*
X51525457Y-16501792D01*
X51846885Y-16180364D02*
X51418314Y-16608935D01*
D11*
X51488199Y-15916548D02*
X51238199Y-15559405D01*
X51059628Y-15916548D02*
X51059628Y-15166548D01*
X51059628Y-15166548D02*
X51345342Y-15166548D01*
X51345342Y-15166548D02*
X51416771Y-15202262D01*
X51416771Y-15202262D02*
X51452485Y-15237976D01*
X51452485Y-15237976D02*
X51488199Y-15309405D01*
X51488199Y-15309405D02*
X51488199Y-15416548D01*
X51488199Y-15416548D02*
X51452485Y-15487976D01*
X51452485Y-15487976D02*
X51416771Y-15523691D01*
X51416771Y-15523691D02*
X51345342Y-15559405D01*
X51345342Y-15559405D02*
X51059628Y-15559405D01*
X51773914Y-15237976D02*
X51809628Y-15202262D01*
X51809628Y-15202262D02*
X51881057Y-15166548D01*
X51881057Y-15166548D02*
X52059628Y-15166548D01*
X52059628Y-15166548D02*
X52131057Y-15202262D01*
X52131057Y-15202262D02*
X52166771Y-15237976D01*
X52166771Y-15237976D02*
X52202485Y-15309405D01*
X52202485Y-15309405D02*
X52202485Y-15380834D01*
X52202485Y-15380834D02*
X52166771Y-15487976D01*
X52166771Y-15487976D02*
X51738199Y-15916548D01*
X51738199Y-15916548D02*
X52202485Y-15916548D01*
D10*
X37897457Y-22390364D02*
X37897457Y-22890364D01*
X37718885Y-22104650D02*
X37540314Y-22640364D01*
X37540314Y-22640364D02*
X38004599Y-22640364D01*
X38290314Y-22890364D02*
X38290314Y-22140364D01*
X38718885Y-22890364D02*
X38397457Y-22461792D01*
X38718885Y-22140364D02*
X38290314Y-22568935D01*
D11*
X38207799Y-21724148D02*
X37957799Y-21367005D01*
X37779228Y-21724148D02*
X37779228Y-20974148D01*
X37779228Y-20974148D02*
X38064942Y-20974148D01*
X38064942Y-20974148D02*
X38136371Y-21009862D01*
X38136371Y-21009862D02*
X38172085Y-21045576D01*
X38172085Y-21045576D02*
X38207799Y-21117005D01*
X38207799Y-21117005D02*
X38207799Y-21224148D01*
X38207799Y-21224148D02*
X38172085Y-21295576D01*
X38172085Y-21295576D02*
X38136371Y-21331291D01*
X38136371Y-21331291D02*
X38064942Y-21367005D01*
X38064942Y-21367005D02*
X37779228Y-21367005D01*
X38636371Y-21295576D02*
X38564942Y-21259862D01*
X38564942Y-21259862D02*
X38529228Y-21224148D01*
X38529228Y-21224148D02*
X38493514Y-21152719D01*
X38493514Y-21152719D02*
X38493514Y-21117005D01*
X38493514Y-21117005D02*
X38529228Y-21045576D01*
X38529228Y-21045576D02*
X38564942Y-21009862D01*
X38564942Y-21009862D02*
X38636371Y-20974148D01*
X38636371Y-20974148D02*
X38779228Y-20974148D01*
X38779228Y-20974148D02*
X38850657Y-21009862D01*
X38850657Y-21009862D02*
X38886371Y-21045576D01*
X38886371Y-21045576D02*
X38922085Y-21117005D01*
X38922085Y-21117005D02*
X38922085Y-21152719D01*
X38922085Y-21152719D02*
X38886371Y-21224148D01*
X38886371Y-21224148D02*
X38850657Y-21259862D01*
X38850657Y-21259862D02*
X38779228Y-21295576D01*
X38779228Y-21295576D02*
X38636371Y-21295576D01*
X38636371Y-21295576D02*
X38564942Y-21331291D01*
X38564942Y-21331291D02*
X38529228Y-21367005D01*
X38529228Y-21367005D02*
X38493514Y-21438434D01*
X38493514Y-21438434D02*
X38493514Y-21581291D01*
X38493514Y-21581291D02*
X38529228Y-21652719D01*
X38529228Y-21652719D02*
X38564942Y-21688434D01*
X38564942Y-21688434D02*
X38636371Y-21724148D01*
X38636371Y-21724148D02*
X38779228Y-21724148D01*
X38779228Y-21724148D02*
X38850657Y-21688434D01*
X38850657Y-21688434D02*
X38886371Y-21652719D01*
X38886371Y-21652719D02*
X38922085Y-21581291D01*
X38922085Y-21581291D02*
X38922085Y-21438434D01*
X38922085Y-21438434D02*
X38886371Y-21367005D01*
X38886371Y-21367005D02*
X38850657Y-21331291D01*
X38850657Y-21331291D02*
X38779228Y-21295576D01*
D10*
X52537971Y-12644592D02*
X52466542Y-12608878D01*
X52466542Y-12608878D02*
X52430828Y-12573164D01*
X52430828Y-12573164D02*
X52395114Y-12501735D01*
X52395114Y-12501735D02*
X52395114Y-12466021D01*
X52395114Y-12466021D02*
X52430828Y-12394592D01*
X52430828Y-12394592D02*
X52466542Y-12358878D01*
X52466542Y-12358878D02*
X52537971Y-12323164D01*
X52537971Y-12323164D02*
X52680828Y-12323164D01*
X52680828Y-12323164D02*
X52752257Y-12358878D01*
X52752257Y-12358878D02*
X52787971Y-12394592D01*
X52787971Y-12394592D02*
X52823685Y-12466021D01*
X52823685Y-12466021D02*
X52823685Y-12501735D01*
X52823685Y-12501735D02*
X52787971Y-12573164D01*
X52787971Y-12573164D02*
X52752257Y-12608878D01*
X52752257Y-12608878D02*
X52680828Y-12644592D01*
X52680828Y-12644592D02*
X52537971Y-12644592D01*
X52537971Y-12644592D02*
X52466542Y-12680307D01*
X52466542Y-12680307D02*
X52430828Y-12716021D01*
X52430828Y-12716021D02*
X52395114Y-12787450D01*
X52395114Y-12787450D02*
X52395114Y-12930307D01*
X52395114Y-12930307D02*
X52430828Y-13001735D01*
X52430828Y-13001735D02*
X52466542Y-13037450D01*
X52466542Y-13037450D02*
X52537971Y-13073164D01*
X52537971Y-13073164D02*
X52680828Y-13073164D01*
X52680828Y-13073164D02*
X52752257Y-13037450D01*
X52752257Y-13037450D02*
X52787971Y-13001735D01*
X52787971Y-13001735D02*
X52823685Y-12930307D01*
X52823685Y-12930307D02*
X52823685Y-12787450D01*
X52823685Y-12787450D02*
X52787971Y-12716021D01*
X52787971Y-12716021D02*
X52752257Y-12680307D01*
X52752257Y-12680307D02*
X52680828Y-12644592D01*
X53145114Y-13073164D02*
X53145114Y-12323164D01*
X53573685Y-13073164D02*
X53252257Y-12644592D01*
X53573685Y-12323164D02*
X53145114Y-12751735D01*
D11*
X53011799Y-12008548D02*
X52761799Y-11651405D01*
X52583228Y-12008548D02*
X52583228Y-11258548D01*
X52583228Y-11258548D02*
X52868942Y-11258548D01*
X52868942Y-11258548D02*
X52940371Y-11294262D01*
X52940371Y-11294262D02*
X52976085Y-11329976D01*
X52976085Y-11329976D02*
X53011799Y-11401405D01*
X53011799Y-11401405D02*
X53011799Y-11508548D01*
X53011799Y-11508548D02*
X52976085Y-11579976D01*
X52976085Y-11579976D02*
X52940371Y-11615691D01*
X52940371Y-11615691D02*
X52868942Y-11651405D01*
X52868942Y-11651405D02*
X52583228Y-11651405D01*
X53726085Y-12008548D02*
X53297514Y-12008548D01*
X53511799Y-12008548D02*
X53511799Y-11258548D01*
X53511799Y-11258548D02*
X53440371Y-11365691D01*
X53440371Y-11365691D02*
X53368942Y-11437119D01*
X53368942Y-11437119D02*
X53297514Y-11472834D01*
D10*
X23452855Y-25469164D02*
X23202855Y-25112021D01*
X23024284Y-25469164D02*
X23024284Y-24719164D01*
X23024284Y-24719164D02*
X23309998Y-24719164D01*
X23309998Y-24719164D02*
X23381427Y-24754878D01*
X23381427Y-24754878D02*
X23417141Y-24790592D01*
X23417141Y-24790592D02*
X23452855Y-24862021D01*
X23452855Y-24862021D02*
X23452855Y-24969164D01*
X23452855Y-24969164D02*
X23417141Y-25040592D01*
X23417141Y-25040592D02*
X23381427Y-25076307D01*
X23381427Y-25076307D02*
X23309998Y-25112021D01*
X23309998Y-25112021D02*
X23024284Y-25112021D01*
X24095713Y-25469164D02*
X24095713Y-25076307D01*
X24095713Y-25076307D02*
X24059998Y-25004878D01*
X24059998Y-25004878D02*
X23988570Y-24969164D01*
X23988570Y-24969164D02*
X23845713Y-24969164D01*
X23845713Y-24969164D02*
X23774284Y-25004878D01*
X24095713Y-25433450D02*
X24024284Y-25469164D01*
X24024284Y-25469164D02*
X23845713Y-25469164D01*
X23845713Y-25469164D02*
X23774284Y-25433450D01*
X23774284Y-25433450D02*
X23738570Y-25362021D01*
X23738570Y-25362021D02*
X23738570Y-25290592D01*
X23738570Y-25290592D02*
X23774284Y-25219164D01*
X23774284Y-25219164D02*
X23845713Y-25183450D01*
X23845713Y-25183450D02*
X24024284Y-25183450D01*
X24024284Y-25183450D02*
X24095713Y-25147735D01*
X24417141Y-25433450D02*
X24488569Y-25469164D01*
X24488569Y-25469164D02*
X24631426Y-25469164D01*
X24631426Y-25469164D02*
X24702855Y-25433450D01*
X24702855Y-25433450D02*
X24738569Y-25362021D01*
X24738569Y-25362021D02*
X24738569Y-25326307D01*
X24738569Y-25326307D02*
X24702855Y-25254878D01*
X24702855Y-25254878D02*
X24631426Y-25219164D01*
X24631426Y-25219164D02*
X24524284Y-25219164D01*
X24524284Y-25219164D02*
X24452855Y-25183450D01*
X24452855Y-25183450D02*
X24417141Y-25112021D01*
X24417141Y-25112021D02*
X24417141Y-25076307D01*
X24417141Y-25076307D02*
X24452855Y-25004878D01*
X24452855Y-25004878D02*
X24524284Y-24969164D01*
X24524284Y-24969164D02*
X24631426Y-24969164D01*
X24631426Y-24969164D02*
X24702855Y-25004878D01*
X25059998Y-24969164D02*
X25059998Y-25719164D01*
X25059998Y-25004878D02*
X25131427Y-24969164D01*
X25131427Y-24969164D02*
X25274284Y-24969164D01*
X25274284Y-24969164D02*
X25345712Y-25004878D01*
X25345712Y-25004878D02*
X25381427Y-25040592D01*
X25381427Y-25040592D02*
X25417141Y-25112021D01*
X25417141Y-25112021D02*
X25417141Y-25326307D01*
X25417141Y-25326307D02*
X25381427Y-25397735D01*
X25381427Y-25397735D02*
X25345712Y-25433450D01*
X25345712Y-25433450D02*
X25274284Y-25469164D01*
X25274284Y-25469164D02*
X25131427Y-25469164D01*
X25131427Y-25469164D02*
X25059998Y-25433450D01*
X25738569Y-25469164D02*
X25738569Y-24719164D01*
X25738569Y-25004878D02*
X25809998Y-24969164D01*
X25809998Y-24969164D02*
X25952855Y-24969164D01*
X25952855Y-24969164D02*
X26024283Y-25004878D01*
X26024283Y-25004878D02*
X26059998Y-25040592D01*
X26059998Y-25040592D02*
X26095712Y-25112021D01*
X26095712Y-25112021D02*
X26095712Y-25326307D01*
X26095712Y-25326307D02*
X26059998Y-25397735D01*
X26059998Y-25397735D02*
X26024283Y-25433450D01*
X26024283Y-25433450D02*
X25952855Y-25469164D01*
X25952855Y-25469164D02*
X25809998Y-25469164D01*
X25809998Y-25469164D02*
X25738569Y-25433450D01*
X26702854Y-25433450D02*
X26631426Y-25469164D01*
X26631426Y-25469164D02*
X26488569Y-25469164D01*
X26488569Y-25469164D02*
X26417140Y-25433450D01*
X26417140Y-25433450D02*
X26381426Y-25362021D01*
X26381426Y-25362021D02*
X26381426Y-25076307D01*
X26381426Y-25076307D02*
X26417140Y-25004878D01*
X26417140Y-25004878D02*
X26488569Y-24969164D01*
X26488569Y-24969164D02*
X26631426Y-24969164D01*
X26631426Y-24969164D02*
X26702854Y-25004878D01*
X26702854Y-25004878D02*
X26738569Y-25076307D01*
X26738569Y-25076307D02*
X26738569Y-25147735D01*
X26738569Y-25147735D02*
X26381426Y-25219164D01*
X27059997Y-25469164D02*
X27059997Y-24969164D01*
X27059997Y-25112021D02*
X27095711Y-25040592D01*
X27095711Y-25040592D02*
X27131426Y-25004878D01*
X27131426Y-25004878D02*
X27202854Y-24969164D01*
X27202854Y-24969164D02*
X27274283Y-24969164D01*
X27524283Y-25469164D02*
X27524283Y-24969164D01*
X27524283Y-25112021D02*
X27559997Y-25040592D01*
X27559997Y-25040592D02*
X27595712Y-25004878D01*
X27595712Y-25004878D02*
X27667140Y-24969164D01*
X27667140Y-24969164D02*
X27738569Y-24969164D01*
X27917140Y-24969164D02*
X28095712Y-25469164D01*
X28274283Y-24969164D02*
X28095712Y-25469164D01*
X28095712Y-25469164D02*
X28024283Y-25647735D01*
X28024283Y-25647735D02*
X27988569Y-25683450D01*
X27988569Y-25683450D02*
X27917140Y-25719164D01*
X29131427Y-25469164D02*
X29131427Y-24719164D01*
X29131427Y-24719164D02*
X29417141Y-24719164D01*
X29417141Y-24719164D02*
X29488570Y-24754878D01*
X29488570Y-24754878D02*
X29524284Y-24790592D01*
X29524284Y-24790592D02*
X29559998Y-24862021D01*
X29559998Y-24862021D02*
X29559998Y-24969164D01*
X29559998Y-24969164D02*
X29524284Y-25040592D01*
X29524284Y-25040592D02*
X29488570Y-25076307D01*
X29488570Y-25076307D02*
X29417141Y-25112021D01*
X29417141Y-25112021D02*
X29131427Y-25112021D01*
X29881427Y-25469164D02*
X29881427Y-24969164D01*
X29881427Y-24719164D02*
X29845713Y-24754878D01*
X29845713Y-24754878D02*
X29881427Y-24790592D01*
X29881427Y-24790592D02*
X29917141Y-24754878D01*
X29917141Y-24754878D02*
X29881427Y-24719164D01*
X29881427Y-24719164D02*
X29881427Y-24790592D01*
X30809999Y-25469164D02*
X30809999Y-24719164D01*
X30809999Y-24719164D02*
X31095713Y-24719164D01*
X31095713Y-24719164D02*
X31167142Y-24754878D01*
X31167142Y-24754878D02*
X31202856Y-24790592D01*
X31202856Y-24790592D02*
X31238570Y-24862021D01*
X31238570Y-24862021D02*
X31238570Y-24969164D01*
X31238570Y-24969164D02*
X31202856Y-25040592D01*
X31202856Y-25040592D02*
X31167142Y-25076307D01*
X31167142Y-25076307D02*
X31095713Y-25112021D01*
X31095713Y-25112021D02*
X30809999Y-25112021D01*
X31559999Y-25469164D02*
X31559999Y-24969164D01*
X31559999Y-24719164D02*
X31524285Y-24754878D01*
X31524285Y-24754878D02*
X31559999Y-24790592D01*
X31559999Y-24790592D02*
X31595713Y-24754878D01*
X31595713Y-24754878D02*
X31559999Y-24719164D01*
X31559999Y-24719164D02*
X31559999Y-24790592D01*
X32238571Y-25433450D02*
X32167142Y-25469164D01*
X32167142Y-25469164D02*
X32024285Y-25469164D01*
X32024285Y-25469164D02*
X31952856Y-25433450D01*
X31952856Y-25433450D02*
X31917142Y-25397735D01*
X31917142Y-25397735D02*
X31881428Y-25326307D01*
X31881428Y-25326307D02*
X31881428Y-25112021D01*
X31881428Y-25112021D02*
X31917142Y-25040592D01*
X31917142Y-25040592D02*
X31952856Y-25004878D01*
X31952856Y-25004878D02*
X32024285Y-24969164D01*
X32024285Y-24969164D02*
X32167142Y-24969164D01*
X32167142Y-24969164D02*
X32238571Y-25004878D01*
X32667142Y-25469164D02*
X32595713Y-25433450D01*
X32595713Y-25433450D02*
X32559999Y-25397735D01*
X32559999Y-25397735D02*
X32524285Y-25326307D01*
X32524285Y-25326307D02*
X32524285Y-25112021D01*
X32524285Y-25112021D02*
X32559999Y-25040592D01*
X32559999Y-25040592D02*
X32595713Y-25004878D01*
X32595713Y-25004878D02*
X32667142Y-24969164D01*
X32667142Y-24969164D02*
X32774285Y-24969164D01*
X32774285Y-24969164D02*
X32845713Y-25004878D01*
X32845713Y-25004878D02*
X32881428Y-25040592D01*
X32881428Y-25040592D02*
X32917142Y-25112021D01*
X32917142Y-25112021D02*
X32917142Y-25326307D01*
X32917142Y-25326307D02*
X32881428Y-25397735D01*
X32881428Y-25397735D02*
X32845713Y-25433450D01*
X32845713Y-25433450D02*
X32774285Y-25469164D01*
X32774285Y-25469164D02*
X32667142Y-25469164D01*
X34202856Y-25469164D02*
X33774285Y-25469164D01*
X33988570Y-25469164D02*
X33988570Y-24719164D01*
X33988570Y-24719164D02*
X33917142Y-24826307D01*
X33917142Y-24826307D02*
X33845713Y-24897735D01*
X33845713Y-24897735D02*
X33774285Y-24933450D01*
X35310000Y-25754878D02*
X35274285Y-25719164D01*
X35274285Y-25719164D02*
X35202857Y-25612021D01*
X35202857Y-25612021D02*
X35167143Y-25540592D01*
X35167143Y-25540592D02*
X35131428Y-25433450D01*
X35131428Y-25433450D02*
X35095714Y-25254878D01*
X35095714Y-25254878D02*
X35095714Y-25112021D01*
X35095714Y-25112021D02*
X35131428Y-24933450D01*
X35131428Y-24933450D02*
X35167143Y-24826307D01*
X35167143Y-24826307D02*
X35202857Y-24754878D01*
X35202857Y-24754878D02*
X35274285Y-24647735D01*
X35274285Y-24647735D02*
X35310000Y-24612021D01*
X36024285Y-25469164D02*
X35774285Y-25112021D01*
X35595714Y-25469164D02*
X35595714Y-24719164D01*
X35595714Y-24719164D02*
X35881428Y-24719164D01*
X35881428Y-24719164D02*
X35952857Y-24754878D01*
X35952857Y-24754878D02*
X35988571Y-24790592D01*
X35988571Y-24790592D02*
X36024285Y-24862021D01*
X36024285Y-24862021D02*
X36024285Y-24969164D01*
X36024285Y-24969164D02*
X35988571Y-25040592D01*
X35988571Y-25040592D02*
X35952857Y-25076307D01*
X35952857Y-25076307D02*
X35881428Y-25112021D01*
X35881428Y-25112021D02*
X35595714Y-25112021D01*
X36345714Y-25469164D02*
X36345714Y-24719164D01*
X36345714Y-24719164D02*
X36631428Y-24719164D01*
X36631428Y-24719164D02*
X36702857Y-24754878D01*
X36702857Y-24754878D02*
X36738571Y-24790592D01*
X36738571Y-24790592D02*
X36774285Y-24862021D01*
X36774285Y-24862021D02*
X36774285Y-24969164D01*
X36774285Y-24969164D02*
X36738571Y-25040592D01*
X36738571Y-25040592D02*
X36702857Y-25076307D01*
X36702857Y-25076307D02*
X36631428Y-25112021D01*
X36631428Y-25112021D02*
X36345714Y-25112021D01*
X37060000Y-24790592D02*
X37095714Y-24754878D01*
X37095714Y-24754878D02*
X37167143Y-24719164D01*
X37167143Y-24719164D02*
X37345714Y-24719164D01*
X37345714Y-24719164D02*
X37417143Y-24754878D01*
X37417143Y-24754878D02*
X37452857Y-24790592D01*
X37452857Y-24790592D02*
X37488571Y-24862021D01*
X37488571Y-24862021D02*
X37488571Y-24933450D01*
X37488571Y-24933450D02*
X37452857Y-25040592D01*
X37452857Y-25040592D02*
X37024285Y-25469164D01*
X37024285Y-25469164D02*
X37488571Y-25469164D01*
X37952857Y-24719164D02*
X38024286Y-24719164D01*
X38024286Y-24719164D02*
X38095714Y-24754878D01*
X38095714Y-24754878D02*
X38131429Y-24790592D01*
X38131429Y-24790592D02*
X38167143Y-24862021D01*
X38167143Y-24862021D02*
X38202857Y-25004878D01*
X38202857Y-25004878D02*
X38202857Y-25183450D01*
X38202857Y-25183450D02*
X38167143Y-25326307D01*
X38167143Y-25326307D02*
X38131429Y-25397735D01*
X38131429Y-25397735D02*
X38095714Y-25433450D01*
X38095714Y-25433450D02*
X38024286Y-25469164D01*
X38024286Y-25469164D02*
X37952857Y-25469164D01*
X37952857Y-25469164D02*
X37881429Y-25433450D01*
X37881429Y-25433450D02*
X37845714Y-25397735D01*
X37845714Y-25397735D02*
X37810000Y-25326307D01*
X37810000Y-25326307D02*
X37774286Y-25183450D01*
X37774286Y-25183450D02*
X37774286Y-25004878D01*
X37774286Y-25004878D02*
X37810000Y-24862021D01*
X37810000Y-24862021D02*
X37845714Y-24790592D01*
X37845714Y-24790592D02*
X37881429Y-24754878D01*
X37881429Y-24754878D02*
X37952857Y-24719164D01*
X38845715Y-24969164D02*
X38845715Y-25469164D01*
X38667143Y-24683450D02*
X38488572Y-25219164D01*
X38488572Y-25219164D02*
X38952857Y-25219164D01*
X39381429Y-24719164D02*
X39452858Y-24719164D01*
X39452858Y-24719164D02*
X39524286Y-24754878D01*
X39524286Y-24754878D02*
X39560001Y-24790592D01*
X39560001Y-24790592D02*
X39595715Y-24862021D01*
X39595715Y-24862021D02*
X39631429Y-25004878D01*
X39631429Y-25004878D02*
X39631429Y-25183450D01*
X39631429Y-25183450D02*
X39595715Y-25326307D01*
X39595715Y-25326307D02*
X39560001Y-25397735D01*
X39560001Y-25397735D02*
X39524286Y-25433450D01*
X39524286Y-25433450D02*
X39452858Y-25469164D01*
X39452858Y-25469164D02*
X39381429Y-25469164D01*
X39381429Y-25469164D02*
X39310001Y-25433450D01*
X39310001Y-25433450D02*
X39274286Y-25397735D01*
X39274286Y-25397735D02*
X39238572Y-25326307D01*
X39238572Y-25326307D02*
X39202858Y-25183450D01*
X39202858Y-25183450D02*
X39202858Y-25004878D01*
X39202858Y-25004878D02*
X39238572Y-24862021D01*
X39238572Y-24862021D02*
X39274286Y-24790592D01*
X39274286Y-24790592D02*
X39310001Y-24754878D01*
X39310001Y-24754878D02*
X39381429Y-24719164D01*
X39881429Y-25754878D02*
X39917144Y-25719164D01*
X39917144Y-25719164D02*
X39988572Y-25612021D01*
X39988572Y-25612021D02*
X40024287Y-25540592D01*
X40024287Y-25540592D02*
X40060001Y-25433450D01*
X40060001Y-25433450D02*
X40095715Y-25254878D01*
X40095715Y-25254878D02*
X40095715Y-25112021D01*
X40095715Y-25112021D02*
X40060001Y-24933450D01*
X40060001Y-24933450D02*
X40024287Y-24826307D01*
X40024287Y-24826307D02*
X39988572Y-24754878D01*
X39988572Y-24754878D02*
X39917144Y-24647735D01*
X39917144Y-24647735D02*
X39881429Y-24612021D01*
X34501457Y-27006364D02*
X34501457Y-26256364D01*
X35287171Y-26934935D02*
X35251457Y-26970650D01*
X35251457Y-26970650D02*
X35144314Y-27006364D01*
X35144314Y-27006364D02*
X35072886Y-27006364D01*
X35072886Y-27006364D02*
X34965743Y-26970650D01*
X34965743Y-26970650D02*
X34894314Y-26899221D01*
X34894314Y-26899221D02*
X34858600Y-26827792D01*
X34858600Y-26827792D02*
X34822886Y-26684935D01*
X34822886Y-26684935D02*
X34822886Y-26577792D01*
X34822886Y-26577792D02*
X34858600Y-26434935D01*
X34858600Y-26434935D02*
X34894314Y-26363507D01*
X34894314Y-26363507D02*
X34965743Y-26292078D01*
X34965743Y-26292078D02*
X35072886Y-26256364D01*
X35072886Y-26256364D02*
X35144314Y-26256364D01*
X35144314Y-26256364D02*
X35251457Y-26292078D01*
X35251457Y-26292078D02*
X35287171Y-26327792D01*
X36001457Y-27006364D02*
X35572886Y-27006364D01*
X35787171Y-27006364D02*
X35787171Y-26256364D01*
X35787171Y-26256364D02*
X35715743Y-26363507D01*
X35715743Y-26363507D02*
X35644314Y-26434935D01*
X35644314Y-26434935D02*
X35572886Y-26470650D01*
X38158685Y-15541164D02*
X37801542Y-15541164D01*
X37801542Y-15541164D02*
X37765828Y-15898307D01*
X37765828Y-15898307D02*
X37801542Y-15862592D01*
X37801542Y-15862592D02*
X37872971Y-15826878D01*
X37872971Y-15826878D02*
X38051542Y-15826878D01*
X38051542Y-15826878D02*
X38122971Y-15862592D01*
X38122971Y-15862592D02*
X38158685Y-15898307D01*
X38158685Y-15898307D02*
X38194399Y-15969735D01*
X38194399Y-15969735D02*
X38194399Y-16148307D01*
X38194399Y-16148307D02*
X38158685Y-16219735D01*
X38158685Y-16219735D02*
X38122971Y-16255450D01*
X38122971Y-16255450D02*
X38051542Y-16291164D01*
X38051542Y-16291164D02*
X37872971Y-16291164D01*
X37872971Y-16291164D02*
X37801542Y-16255450D01*
X37801542Y-16255450D02*
X37765828Y-16219735D01*
X38658685Y-15541164D02*
X38730114Y-15541164D01*
X38730114Y-15541164D02*
X38801542Y-15576878D01*
X38801542Y-15576878D02*
X38837257Y-15612592D01*
X38837257Y-15612592D02*
X38872971Y-15684021D01*
X38872971Y-15684021D02*
X38908685Y-15826878D01*
X38908685Y-15826878D02*
X38908685Y-16005450D01*
X38908685Y-16005450D02*
X38872971Y-16148307D01*
X38872971Y-16148307D02*
X38837257Y-16219735D01*
X38837257Y-16219735D02*
X38801542Y-16255450D01*
X38801542Y-16255450D02*
X38730114Y-16291164D01*
X38730114Y-16291164D02*
X38658685Y-16291164D01*
X38658685Y-16291164D02*
X38587257Y-16255450D01*
X38587257Y-16255450D02*
X38551542Y-16219735D01*
X38551542Y-16219735D02*
X38515828Y-16148307D01*
X38515828Y-16148307D02*
X38480114Y-16005450D01*
X38480114Y-16005450D02*
X38480114Y-15826878D01*
X38480114Y-15826878D02*
X38515828Y-15684021D01*
X38515828Y-15684021D02*
X38551542Y-15612592D01*
X38551542Y-15612592D02*
X38587257Y-15576878D01*
X38587257Y-15576878D02*
X38658685Y-15541164D01*
X39372971Y-15541164D02*
X39444400Y-15541164D01*
X39444400Y-15541164D02*
X39515828Y-15576878D01*
X39515828Y-15576878D02*
X39551543Y-15612592D01*
X39551543Y-15612592D02*
X39587257Y-15684021D01*
X39587257Y-15684021D02*
X39622971Y-15826878D01*
X39622971Y-15826878D02*
X39622971Y-16005450D01*
X39622971Y-16005450D02*
X39587257Y-16148307D01*
X39587257Y-16148307D02*
X39551543Y-16219735D01*
X39551543Y-16219735D02*
X39515828Y-16255450D01*
X39515828Y-16255450D02*
X39444400Y-16291164D01*
X39444400Y-16291164D02*
X39372971Y-16291164D01*
X39372971Y-16291164D02*
X39301543Y-16255450D01*
X39301543Y-16255450D02*
X39265828Y-16219735D01*
X39265828Y-16219735D02*
X39230114Y-16148307D01*
X39230114Y-16148307D02*
X39194400Y-16005450D01*
X39194400Y-16005450D02*
X39194400Y-15826878D01*
X39194400Y-15826878D02*
X39230114Y-15684021D01*
X39230114Y-15684021D02*
X39265828Y-15612592D01*
X39265828Y-15612592D02*
X39301543Y-15576878D01*
X39301543Y-15576878D02*
X39372971Y-15541164D01*
D11*
X38212256Y-15175748D02*
X37962256Y-14818605D01*
X37783685Y-15175748D02*
X37783685Y-14425748D01*
X37783685Y-14425748D02*
X38069399Y-14425748D01*
X38069399Y-14425748D02*
X38140828Y-14461462D01*
X38140828Y-14461462D02*
X38176542Y-14497176D01*
X38176542Y-14497176D02*
X38212256Y-14568605D01*
X38212256Y-14568605D02*
X38212256Y-14675748D01*
X38212256Y-14675748D02*
X38176542Y-14747176D01*
X38176542Y-14747176D02*
X38140828Y-14782891D01*
X38140828Y-14782891D02*
X38069399Y-14818605D01*
X38069399Y-14818605D02*
X37783685Y-14818605D01*
X38926542Y-15175748D02*
X38497971Y-15175748D01*
X38712256Y-15175748D02*
X38712256Y-14425748D01*
X38712256Y-14425748D02*
X38640828Y-14532891D01*
X38640828Y-14532891D02*
X38569399Y-14604319D01*
X38569399Y-14604319D02*
X38497971Y-14640034D01*
X39640828Y-15175748D02*
X39212257Y-15175748D01*
X39426542Y-15175748D02*
X39426542Y-14425748D01*
X39426542Y-14425748D02*
X39355114Y-14532891D01*
X39355114Y-14532891D02*
X39283685Y-14604319D01*
X39283685Y-14604319D02*
X39212257Y-14640034D01*
D10*
X38406542Y-11597164D02*
X37977971Y-11597164D01*
X38192256Y-11597164D02*
X38192256Y-10847164D01*
X38192256Y-10847164D02*
X38120828Y-10954307D01*
X38120828Y-10954307D02*
X38049399Y-11025735D01*
X38049399Y-11025735D02*
X37977971Y-11061450D01*
X39049400Y-10847164D02*
X38906542Y-10847164D01*
X38906542Y-10847164D02*
X38835114Y-10882878D01*
X38835114Y-10882878D02*
X38799400Y-10918592D01*
X38799400Y-10918592D02*
X38727971Y-11025735D01*
X38727971Y-11025735D02*
X38692257Y-11168592D01*
X38692257Y-11168592D02*
X38692257Y-11454307D01*
X38692257Y-11454307D02*
X38727971Y-11525735D01*
X38727971Y-11525735D02*
X38763685Y-11561450D01*
X38763685Y-11561450D02*
X38835114Y-11597164D01*
X38835114Y-11597164D02*
X38977971Y-11597164D01*
X38977971Y-11597164D02*
X39049400Y-11561450D01*
X39049400Y-11561450D02*
X39085114Y-11525735D01*
X39085114Y-11525735D02*
X39120828Y-11454307D01*
X39120828Y-11454307D02*
X39120828Y-11275735D01*
X39120828Y-11275735D02*
X39085114Y-11204307D01*
X39085114Y-11204307D02*
X39049400Y-11168592D01*
X39049400Y-11168592D02*
X38977971Y-11132878D01*
X38977971Y-11132878D02*
X38835114Y-11132878D01*
X38835114Y-11132878D02*
X38763685Y-11168592D01*
X38763685Y-11168592D02*
X38727971Y-11204307D01*
X38727971Y-11204307D02*
X38692257Y-11275735D01*
X39442257Y-11597164D02*
X39442257Y-10847164D01*
X39870828Y-11597164D02*
X39549400Y-11168592D01*
X39870828Y-10847164D02*
X39442257Y-11275735D01*
D11*
X38697799Y-10583348D02*
X38447799Y-10226205D01*
X38269228Y-10583348D02*
X38269228Y-9833348D01*
X38269228Y-9833348D02*
X38554942Y-9833348D01*
X38554942Y-9833348D02*
X38626371Y-9869062D01*
X38626371Y-9869062D02*
X38662085Y-9904776D01*
X38662085Y-9904776D02*
X38697799Y-9976205D01*
X38697799Y-9976205D02*
X38697799Y-10083348D01*
X38697799Y-10083348D02*
X38662085Y-10154776D01*
X38662085Y-10154776D02*
X38626371Y-10190491D01*
X38626371Y-10190491D02*
X38554942Y-10226205D01*
X38554942Y-10226205D02*
X38269228Y-10226205D01*
X39340657Y-9833348D02*
X39197799Y-9833348D01*
X39197799Y-9833348D02*
X39126371Y-9869062D01*
X39126371Y-9869062D02*
X39090657Y-9904776D01*
X39090657Y-9904776D02*
X39019228Y-10011919D01*
X39019228Y-10011919D02*
X38983514Y-10154776D01*
X38983514Y-10154776D02*
X38983514Y-10440491D01*
X38983514Y-10440491D02*
X39019228Y-10511919D01*
X39019228Y-10511919D02*
X39054942Y-10547634D01*
X39054942Y-10547634D02*
X39126371Y-10583348D01*
X39126371Y-10583348D02*
X39269228Y-10583348D01*
X39269228Y-10583348D02*
X39340657Y-10547634D01*
X39340657Y-10547634D02*
X39376371Y-10511919D01*
X39376371Y-10511919D02*
X39412085Y-10440491D01*
X39412085Y-10440491D02*
X39412085Y-10261919D01*
X39412085Y-10261919D02*
X39376371Y-10190491D01*
X39376371Y-10190491D02*
X39340657Y-10154776D01*
X39340657Y-10154776D02*
X39269228Y-10119062D01*
X39269228Y-10119062D02*
X39126371Y-10119062D01*
X39126371Y-10119062D02*
X39054942Y-10154776D01*
X39054942Y-10154776D02*
X39019228Y-10190491D01*
X39019228Y-10190491D02*
X38983514Y-10261919D01*
D10*
X3867143Y-7289164D02*
X3867143Y-6539164D01*
X4224286Y-7289164D02*
X4224286Y-6539164D01*
X4224286Y-6539164D02*
X4652857Y-7289164D01*
X4652857Y-7289164D02*
X4652857Y-6539164D01*
X5510000Y-7189164D02*
X5510000Y-7724878D01*
X5510000Y-7724878D02*
X5474285Y-7832021D01*
X5474285Y-7832021D02*
X5402857Y-7903450D01*
X5402857Y-7903450D02*
X5295714Y-7939164D01*
X5295714Y-7939164D02*
X5224285Y-7939164D01*
X6260000Y-7939164D02*
X5831429Y-7939164D01*
X6045714Y-7939164D02*
X6045714Y-7189164D01*
X6045714Y-7189164D02*
X5974286Y-7296307D01*
X5974286Y-7296307D02*
X5902857Y-7367735D01*
X5902857Y-7367735D02*
X5831429Y-7403450D01*
D12*
%TO.C,J2*%
X57960000Y-52320000D02*
X56630000Y-52320000D01*
X57960000Y-53430000D02*
X57960000Y-52320000D01*
D13*
X56930000Y-53430000D02*
X56930000Y-57490000D01*
X56330000Y-53430000D02*
X56930000Y-53430000D01*
X54390000Y-53430000D02*
X54390000Y-57490000D01*
X53790000Y-53430000D02*
X54390000Y-53430000D01*
X51850000Y-53430000D02*
X51850000Y-57490000D01*
X51250000Y-53430000D02*
X51850000Y-53430000D01*
X49310000Y-53430000D02*
X49310000Y-57490000D01*
X48710000Y-53430000D02*
X49310000Y-53430000D01*
X46770000Y-53430000D02*
X46770000Y-57490000D01*
X46170000Y-53430000D02*
X46770000Y-53430000D01*
X44230000Y-53430000D02*
X44230000Y-57490000D01*
X43630000Y-53430000D02*
X44230000Y-53430000D01*
X41690000Y-53430000D02*
X41690000Y-57490000D01*
X41090000Y-53430000D02*
X41690000Y-53430000D01*
X39150000Y-53430000D02*
X39150000Y-57490000D01*
X38550000Y-53430000D02*
X39150000Y-53430000D01*
X36610000Y-53430000D02*
X36610000Y-57490000D01*
X36010000Y-53430000D02*
X36610000Y-53430000D01*
X34070000Y-53430000D02*
X34070000Y-57490000D01*
X33470000Y-53430000D02*
X34070000Y-53430000D01*
X31530000Y-53430000D02*
X31530000Y-57490000D01*
X30930000Y-53430000D02*
X31530000Y-53430000D01*
X28990000Y-53430000D02*
X28990000Y-57490000D01*
X28390000Y-53430000D02*
X28990000Y-53430000D01*
X26450000Y-53430000D02*
X26450000Y-57490000D01*
X25850000Y-53430000D02*
X26450000Y-53430000D01*
X23910000Y-53430000D02*
X23910000Y-57490000D01*
X23310000Y-53430000D02*
X23910000Y-53430000D01*
X21370000Y-53430000D02*
X21370000Y-57490000D01*
X20770000Y-53430000D02*
X21370000Y-53430000D01*
X18830000Y-53430000D02*
X18830000Y-57490000D01*
X18230000Y-53430000D02*
X18830000Y-53430000D01*
X16290000Y-53430000D02*
X16290000Y-57490000D01*
X15690000Y-53430000D02*
X16290000Y-53430000D01*
X13750000Y-53430000D02*
X13750000Y-57490000D01*
X13150000Y-53430000D02*
X13750000Y-53430000D01*
X11210000Y-53430000D02*
X11210000Y-57490000D01*
X10610000Y-53430000D02*
X11210000Y-53430000D01*
X8670000Y-53430000D02*
X8670000Y-57490000D01*
X8070000Y-53430000D02*
X8670000Y-53430000D01*
D12*
X56990000Y-54920000D02*
X56990000Y-54540000D01*
X56270000Y-54920000D02*
X56270000Y-54540000D01*
X54450000Y-54920000D02*
X54450000Y-54480000D01*
X53730000Y-54920000D02*
X53730000Y-54480000D01*
X51910000Y-54920000D02*
X51910000Y-54480000D01*
X51190000Y-54920000D02*
X51190000Y-54480000D01*
X49370000Y-54920000D02*
X49370000Y-54480000D01*
X48650000Y-54920000D02*
X48650000Y-54480000D01*
X46830000Y-54920000D02*
X46830000Y-54480000D01*
X46110000Y-54920000D02*
X46110000Y-54480000D01*
X44290000Y-54920000D02*
X44290000Y-54480000D01*
X43570000Y-54920000D02*
X43570000Y-54480000D01*
X41750000Y-54920000D02*
X41750000Y-54480000D01*
X41030000Y-54920000D02*
X41030000Y-54480000D01*
X39210000Y-54920000D02*
X39210000Y-54480000D01*
X38490000Y-54920000D02*
X38490000Y-54480000D01*
X36670000Y-54920000D02*
X36670000Y-54480000D01*
X35950000Y-54920000D02*
X35950000Y-54480000D01*
X34130000Y-54920000D02*
X34130000Y-54480000D01*
X33410000Y-54920000D02*
X33410000Y-54480000D01*
X31590000Y-54920000D02*
X31590000Y-54480000D01*
X30870000Y-54920000D02*
X30870000Y-54480000D01*
X29050000Y-54920000D02*
X29050000Y-54480000D01*
X28330000Y-54920000D02*
X28330000Y-54480000D01*
X26510000Y-54920000D02*
X26510000Y-54480000D01*
X25790000Y-54920000D02*
X25790000Y-54480000D01*
X23970000Y-54920000D02*
X23970000Y-54480000D01*
X23250000Y-54920000D02*
X23250000Y-54480000D01*
X21430000Y-54920000D02*
X21430000Y-54480000D01*
X20710000Y-54920000D02*
X20710000Y-54480000D01*
X18890000Y-54920000D02*
X18890000Y-54480000D01*
X18170000Y-54920000D02*
X18170000Y-54480000D01*
X16350000Y-54920000D02*
X16350000Y-54480000D01*
X15630000Y-54920000D02*
X15630000Y-54480000D01*
X13810000Y-54920000D02*
X13810000Y-54480000D01*
X13090000Y-54920000D02*
X13090000Y-54480000D01*
X11270000Y-54920000D02*
X11270000Y-54480000D01*
X10550000Y-54920000D02*
X10550000Y-54480000D01*
X8730000Y-54920000D02*
X8730000Y-54480000D01*
X8010000Y-54920000D02*
X8010000Y-54480000D01*
X57960000Y-57430000D02*
X7040000Y-57430000D01*
X56990000Y-57430000D02*
X56990000Y-57020000D01*
X56270000Y-57430000D02*
X56270000Y-57020000D01*
X54450000Y-57430000D02*
X54450000Y-57020000D01*
X53730000Y-57430000D02*
X53730000Y-57020000D01*
X51910000Y-57430000D02*
X51910000Y-57020000D01*
X51190000Y-57430000D02*
X51190000Y-57020000D01*
X49370000Y-57430000D02*
X49370000Y-57020000D01*
X48650000Y-57430000D02*
X48650000Y-57020000D01*
X46830000Y-57430000D02*
X46830000Y-57020000D01*
X46110000Y-57430000D02*
X46110000Y-57020000D01*
X44290000Y-57430000D02*
X44290000Y-57020000D01*
X43570000Y-57430000D02*
X43570000Y-57020000D01*
X41750000Y-57430000D02*
X41750000Y-57020000D01*
X41030000Y-57430000D02*
X41030000Y-57020000D01*
X39210000Y-57430000D02*
X39210000Y-57020000D01*
X38490000Y-57430000D02*
X38490000Y-57020000D01*
X36670000Y-57430000D02*
X36670000Y-57020000D01*
X35950000Y-57430000D02*
X35950000Y-57020000D01*
X34130000Y-57430000D02*
X34130000Y-57020000D01*
X33410000Y-57430000D02*
X33410000Y-57020000D01*
X31590000Y-57430000D02*
X31590000Y-57020000D01*
X30870000Y-57430000D02*
X30870000Y-57020000D01*
X29050000Y-57430000D02*
X29050000Y-57020000D01*
X28330000Y-57430000D02*
X28330000Y-57020000D01*
X26510000Y-57430000D02*
X26510000Y-57020000D01*
X25790000Y-57430000D02*
X25790000Y-57020000D01*
X23970000Y-57430000D02*
X23970000Y-57020000D01*
X23250000Y-57430000D02*
X23250000Y-57020000D01*
X21430000Y-57430000D02*
X21430000Y-57020000D01*
X20710000Y-57430000D02*
X20710000Y-57020000D01*
X18890000Y-57430000D02*
X18890000Y-57020000D01*
X18170000Y-57430000D02*
X18170000Y-57020000D01*
X16350000Y-57430000D02*
X16350000Y-57020000D01*
X15630000Y-57430000D02*
X15630000Y-57020000D01*
X13810000Y-57430000D02*
X13810000Y-57020000D01*
X13090000Y-57430000D02*
X13090000Y-57020000D01*
X11270000Y-57430000D02*
X11270000Y-57020000D01*
X10550000Y-57430000D02*
X10550000Y-57020000D01*
X8730000Y-57430000D02*
X8730000Y-57020000D01*
X8010000Y-57430000D02*
X8010000Y-57020000D01*
D13*
X56930000Y-57490000D02*
X7100000Y-57490000D01*
X56330000Y-57490000D02*
X56330000Y-53430000D01*
X53790000Y-57490000D02*
X53790000Y-53430000D01*
X51250000Y-57490000D02*
X51250000Y-53430000D01*
X48710000Y-57490000D02*
X48710000Y-53430000D01*
X46170000Y-57490000D02*
X46170000Y-53430000D01*
X43630000Y-57490000D02*
X43630000Y-53430000D01*
X41090000Y-57490000D02*
X41090000Y-53430000D01*
X38550000Y-57490000D02*
X38550000Y-53430000D01*
X36010000Y-57490000D02*
X36010000Y-53430000D01*
X33470000Y-57490000D02*
X33470000Y-53430000D01*
X30930000Y-57490000D02*
X30930000Y-53430000D01*
X28390000Y-57490000D02*
X28390000Y-53430000D01*
X25850000Y-57490000D02*
X25850000Y-53430000D01*
X23310000Y-57490000D02*
X23310000Y-53430000D01*
X20770000Y-57490000D02*
X20770000Y-53430000D01*
X18230000Y-57490000D02*
X18230000Y-53430000D01*
X15690000Y-57490000D02*
X15690000Y-53430000D01*
X13150000Y-57490000D02*
X13150000Y-53430000D01*
X10610000Y-57490000D02*
X10610000Y-53430000D01*
X8070000Y-57490000D02*
X8070000Y-53430000D01*
D12*
X57960000Y-65000000D02*
X57960000Y-57430000D01*
X57960000Y-65000000D02*
X7040000Y-65000000D01*
X55360000Y-65000000D02*
X55360000Y-57430000D01*
X52820000Y-65000000D02*
X52820000Y-57430000D01*
X50280000Y-65000000D02*
X50280000Y-57430000D01*
X47740000Y-65000000D02*
X47740000Y-57430000D01*
X45200000Y-65000000D02*
X45200000Y-57430000D01*
X42660000Y-65000000D02*
X42660000Y-57430000D01*
X40120000Y-65000000D02*
X40120000Y-57430000D01*
X37580000Y-65000000D02*
X37580000Y-57430000D01*
X35040000Y-65000000D02*
X35040000Y-57430000D01*
X32500000Y-65000000D02*
X32500000Y-57430000D01*
X29960000Y-65000000D02*
X29960000Y-57430000D01*
X27420000Y-65000000D02*
X27420000Y-57430000D01*
X24880000Y-65000000D02*
X24880000Y-57430000D01*
X22340000Y-65000000D02*
X22340000Y-57430000D01*
X19800000Y-65000000D02*
X19800000Y-57430000D01*
X17260000Y-65000000D02*
X17260000Y-57430000D01*
X14720000Y-65000000D02*
X14720000Y-57430000D01*
X12180000Y-65000000D02*
X12180000Y-57430000D01*
X9640000Y-65000000D02*
X9640000Y-57430000D01*
D13*
X7100000Y-65000000D02*
X57900000Y-65000000D01*
D12*
X7040000Y-65000000D02*
X7040000Y-57430000D01*
D13*
%TO.C,R3*%
X49700000Y-24130000D02*
X47690000Y-24130000D01*
X42080000Y-24130000D02*
X44090000Y-24130000D01*
X47690000Y-24930000D02*
X44090000Y-24930000D01*
X44090000Y-23330000D01*
X47690000Y-23330000D01*
X47690000Y-24930000D01*
%TO.C,R12*%
X24390000Y-18330000D02*
X22380000Y-18330000D01*
X16770000Y-18330000D02*
X18780000Y-18330000D01*
X22380000Y-19130000D02*
X18780000Y-19130000D01*
X18780000Y-17530000D01*
X22380000Y-17530000D01*
X22380000Y-19130000D01*
%TO.C,R7*%
X36510000Y-13000000D02*
X34500000Y-13000000D01*
X28890000Y-13000000D02*
X30900000Y-13000000D01*
X34500000Y-13800000D02*
X30900000Y-13800000D01*
X30900000Y-12200000D01*
X34500000Y-12200000D01*
X34500000Y-13800000D01*
%TO.C,R9*%
X36260000Y-19640000D02*
X34250000Y-19640000D01*
X28640000Y-19640000D02*
X30650000Y-19640000D01*
X34250000Y-20440000D02*
X30650000Y-20440000D01*
X30650000Y-18840000D01*
X34250000Y-18840000D01*
X34250000Y-20440000D01*
%TO.C,R10*%
X36190000Y-17420000D02*
X34180000Y-17420000D01*
X28570000Y-17420000D02*
X30580000Y-17420000D01*
X34180000Y-18220000D02*
X30580000Y-18220000D01*
X30580000Y-16620000D01*
X34180000Y-16620000D01*
X34180000Y-18220000D01*
%TO.C,R5*%
X50170000Y-18930000D02*
X48160000Y-18930000D01*
X42550000Y-18930000D02*
X44560000Y-18930000D01*
X48160000Y-19730000D02*
X44560000Y-19730000D01*
X44560000Y-18130000D01*
X48160000Y-18130000D01*
X48160000Y-19730000D01*
%TO.C,R15*%
X24490000Y-20460000D02*
X22480000Y-20460000D01*
X16870000Y-20460000D02*
X18880000Y-20460000D01*
X22480000Y-21260000D02*
X18880000Y-21260000D01*
X18880000Y-19660000D01*
X22480000Y-19660000D01*
X22480000Y-21260000D01*
%TO.C,R14*%
X24350000Y-15770000D02*
X22340000Y-15770000D01*
X16730000Y-15770000D02*
X18740000Y-15770000D01*
X22340000Y-16570000D02*
X18740000Y-16570000D01*
X18740000Y-14970000D01*
X22340000Y-14970000D01*
X22340000Y-16570000D01*
D12*
%TO.C,J3*%
X-2630000Y-11670000D02*
X-2630000Y-37190000D01*
X-2630000Y-11670000D02*
X6000000Y-11670000D01*
X-2630000Y-11790000D02*
X6000000Y-11790000D01*
X-2630000Y-11908095D02*
X6000000Y-11908095D01*
X-2630000Y-12026190D02*
X6000000Y-12026190D01*
X-2630000Y-12144285D02*
X6000000Y-12144285D01*
X-2630000Y-12262380D02*
X6000000Y-12262380D01*
X-2630000Y-12380475D02*
X6000000Y-12380475D01*
X-2630000Y-12498570D02*
X6000000Y-12498570D01*
X-2630000Y-12616665D02*
X6000000Y-12616665D01*
X-2630000Y-12734760D02*
X6000000Y-12734760D01*
X-2630000Y-12852855D02*
X6000000Y-12852855D01*
X-2630000Y-12970950D02*
X6000000Y-12970950D01*
X-2630000Y-13089045D02*
X6000000Y-13089045D01*
X-2630000Y-13207140D02*
X6000000Y-13207140D01*
X-2630000Y-13325235D02*
X6000000Y-13325235D01*
X-2630000Y-13443330D02*
X6000000Y-13443330D01*
X-2630000Y-13561425D02*
X6000000Y-13561425D01*
X-2630000Y-13679520D02*
X6000000Y-13679520D01*
X-2630000Y-13797615D02*
X6000000Y-13797615D01*
X-2630000Y-13915710D02*
X6000000Y-13915710D01*
X-2630000Y-14033805D02*
X6000000Y-14033805D01*
X-2630000Y-14151900D02*
X6000000Y-14151900D01*
X-2630000Y-14270000D02*
X6000000Y-14270000D01*
X-2630000Y-16810000D02*
X6000000Y-16810000D01*
X-2630000Y-19350000D02*
X6000000Y-19350000D01*
X-2630000Y-21890000D02*
X6000000Y-21890000D01*
X-2630000Y-24430000D02*
X6000000Y-24430000D01*
X-2630000Y-26970000D02*
X6000000Y-26970000D01*
X-2630000Y-29510000D02*
X6000000Y-29510000D01*
X-2630000Y-32050000D02*
X6000000Y-32050000D01*
X-2630000Y-34590000D02*
X6000000Y-34590000D01*
X-2630000Y-37190000D02*
X6000000Y-37190000D01*
D13*
X-2570000Y-11730000D02*
X4970000Y-11730000D01*
X-2570000Y-37130000D02*
X-2570000Y-11730000D01*
X4970000Y-11730000D02*
X5940000Y-12700000D01*
X5940000Y-12700000D02*
X5940000Y-37130000D01*
X5940000Y-13300000D02*
X10000000Y-13300000D01*
X5940000Y-15840000D02*
X10000000Y-15840000D01*
X5940000Y-18380000D02*
X10000000Y-18380000D01*
X5940000Y-20920000D02*
X10000000Y-20920000D01*
X5940000Y-23460000D02*
X10000000Y-23460000D01*
X5940000Y-26000000D02*
X10000000Y-26000000D01*
X5940000Y-28540000D02*
X10000000Y-28540000D01*
X5940000Y-31080000D02*
X10000000Y-31080000D01*
X5940000Y-33620000D02*
X10000000Y-33620000D01*
X5940000Y-36160000D02*
X10000000Y-36160000D01*
X5940000Y-37130000D02*
X-2570000Y-37130000D01*
D12*
X6000000Y-11670000D02*
X6000000Y-37190000D01*
X6000000Y-12640000D02*
X6410000Y-12640000D01*
X6000000Y-13360000D02*
X6410000Y-13360000D01*
X6000000Y-15180000D02*
X6410000Y-15180000D01*
X6000000Y-15900000D02*
X6410000Y-15900000D01*
X6000000Y-17720000D02*
X6410000Y-17720000D01*
X6000000Y-18440000D02*
X6410000Y-18440000D01*
X6000000Y-20260000D02*
X6410000Y-20260000D01*
X6000000Y-20980000D02*
X6410000Y-20980000D01*
X6000000Y-22800000D02*
X6410000Y-22800000D01*
X6000000Y-23520000D02*
X6410000Y-23520000D01*
X6000000Y-25340000D02*
X6410000Y-25340000D01*
X6000000Y-26060000D02*
X6410000Y-26060000D01*
X6000000Y-27880000D02*
X6410000Y-27880000D01*
X6000000Y-28600000D02*
X6410000Y-28600000D01*
X6000000Y-30420000D02*
X6410000Y-30420000D01*
X6000000Y-31140000D02*
X6410000Y-31140000D01*
X6000000Y-32960000D02*
X6410000Y-32960000D01*
X6000000Y-33680000D02*
X6410000Y-33680000D01*
X6000000Y-35500000D02*
X6410000Y-35500000D01*
X6000000Y-36220000D02*
X6410000Y-36220000D01*
X8510000Y-12640000D02*
X8890000Y-12640000D01*
X8510000Y-13360000D02*
X8890000Y-13360000D01*
X8510000Y-15180000D02*
X8950000Y-15180000D01*
X8510000Y-15900000D02*
X8950000Y-15900000D01*
X8510000Y-17720000D02*
X8950000Y-17720000D01*
X8510000Y-18440000D02*
X8950000Y-18440000D01*
X8510000Y-20260000D02*
X8950000Y-20260000D01*
X8510000Y-20980000D02*
X8950000Y-20980000D01*
X8510000Y-22800000D02*
X8950000Y-22800000D01*
X8510000Y-23520000D02*
X8950000Y-23520000D01*
X8510000Y-25340000D02*
X8950000Y-25340000D01*
X8510000Y-26060000D02*
X8950000Y-26060000D01*
X8510000Y-27880000D02*
X8950000Y-27880000D01*
X8510000Y-28600000D02*
X8950000Y-28600000D01*
X8510000Y-30420000D02*
X8950000Y-30420000D01*
X8510000Y-31140000D02*
X8950000Y-31140000D01*
X8510000Y-32960000D02*
X8950000Y-32960000D01*
X8510000Y-33680000D02*
X8950000Y-33680000D01*
X8510000Y-35500000D02*
X8950000Y-35500000D01*
X8510000Y-36220000D02*
X8950000Y-36220000D01*
X10000000Y-11670000D02*
X11110000Y-11670000D01*
D13*
X10000000Y-12700000D02*
X5940000Y-12700000D01*
X10000000Y-13300000D02*
X10000000Y-12700000D01*
X10000000Y-15240000D02*
X5940000Y-15240000D01*
X10000000Y-15840000D02*
X10000000Y-15240000D01*
X10000000Y-17780000D02*
X5940000Y-17780000D01*
X10000000Y-18380000D02*
X10000000Y-17780000D01*
X10000000Y-20320000D02*
X5940000Y-20320000D01*
X10000000Y-20920000D02*
X10000000Y-20320000D01*
X10000000Y-22860000D02*
X5940000Y-22860000D01*
X10000000Y-23460000D02*
X10000000Y-22860000D01*
X10000000Y-25400000D02*
X5940000Y-25400000D01*
X10000000Y-26000000D02*
X10000000Y-25400000D01*
X10000000Y-27940000D02*
X5940000Y-27940000D01*
X10000000Y-28540000D02*
X10000000Y-27940000D01*
X10000000Y-30480000D02*
X5940000Y-30480000D01*
X10000000Y-31080000D02*
X10000000Y-30480000D01*
X10000000Y-33020000D02*
X5940000Y-33020000D01*
X10000000Y-33620000D02*
X10000000Y-33020000D01*
X10000000Y-35560000D02*
X5940000Y-35560000D01*
X10000000Y-36160000D02*
X10000000Y-35560000D01*
D12*
X11110000Y-11670000D02*
X11110000Y-13000000D01*
D13*
%TO.C,C1*%
X11810000Y-44740000D02*
X10610000Y-44740000D01*
X10610000Y-44740000D02*
X10610000Y-47940000D01*
X12210000Y-45140000D02*
X11810000Y-44740000D01*
X12210000Y-47940000D02*
X12210000Y-45140000D01*
X10610000Y-47940000D02*
X12210000Y-47940000D01*
%TO.C,R4*%
X49920000Y-21480000D02*
X47910000Y-21480000D01*
X42300000Y-21480000D02*
X44310000Y-21480000D01*
X47910000Y-22280000D02*
X44310000Y-22280000D01*
X44310000Y-20680000D01*
X47910000Y-20680000D01*
X47910000Y-22280000D01*
%TO.C,R16*%
X24390000Y-22970000D02*
X22380000Y-22970000D01*
X16770000Y-22970000D02*
X18780000Y-22970000D01*
X22380000Y-23770000D02*
X18780000Y-23770000D01*
X18780000Y-22170000D01*
X22380000Y-22170000D01*
X22380000Y-23770000D01*
%TO.C,R13*%
X24390000Y-13210000D02*
X22380000Y-13210000D01*
X16770000Y-13210000D02*
X18780000Y-13210000D01*
X22380000Y-14010000D02*
X18780000Y-14010000D01*
X18780000Y-12410000D01*
X22380000Y-12410000D01*
X22380000Y-14010000D01*
%TO.C,R2*%
X48870000Y-15880000D02*
X46860000Y-15880000D01*
X41250000Y-15880000D02*
X43260000Y-15880000D01*
X46860000Y-16680000D02*
X43260000Y-16680000D01*
X43260000Y-15080000D01*
X46860000Y-15080000D01*
X46860000Y-16680000D01*
%TO.C,R8*%
X36250000Y-21840000D02*
X34240000Y-21840000D01*
X28630000Y-21840000D02*
X30640000Y-21840000D01*
X34240000Y-22640000D02*
X30640000Y-22640000D01*
X30640000Y-21040000D01*
X34240000Y-21040000D01*
X34240000Y-22640000D01*
%TO.C,R1*%
X50800000Y-12480000D02*
X48790000Y-12480000D01*
X43180000Y-12480000D02*
X45190000Y-12480000D01*
X48790000Y-13280000D02*
X45190000Y-13280000D01*
X45190000Y-11680000D01*
X48790000Y-11680000D01*
X48790000Y-13280000D01*
D12*
%TO.C,IC1*%
X62270000Y-28390000D02*
X62270000Y-27910000D01*
X62270000Y-28390000D02*
X61850000Y-28390000D01*
X59730000Y-28390000D02*
X59310000Y-28390000D01*
X57190000Y-28390000D02*
X56770000Y-28390000D01*
X54650000Y-28390000D02*
X54230000Y-28390000D01*
X52110000Y-28390000D02*
X51690000Y-28390000D01*
X49570000Y-28390000D02*
X49150000Y-28390000D01*
X47030000Y-28390000D02*
X46610000Y-28390000D01*
X44490000Y-28390000D02*
X44070000Y-28390000D01*
X41950000Y-28390000D02*
X41530000Y-28390000D01*
X39410000Y-28390000D02*
X38990000Y-28390000D01*
X36870000Y-28390000D02*
X36450000Y-28390000D01*
X34330000Y-28390000D02*
X33910000Y-28390000D01*
X31790000Y-28390000D02*
X31370000Y-28390000D01*
X29250000Y-28390000D02*
X28830000Y-28390000D01*
X26710000Y-28390000D02*
X26290000Y-28390000D01*
X24170000Y-28390000D02*
X23750000Y-28390000D01*
X21630000Y-28390000D02*
X21210000Y-28390000D01*
X19090000Y-28390000D02*
X18670000Y-28390000D01*
X16550000Y-28390000D02*
X16130000Y-28390000D01*
X64390000Y-28420324D02*
X64390000Y-27910000D01*
D13*
X63700000Y-28500000D02*
X64700000Y-29500000D01*
X14200000Y-28500000D02*
X63700000Y-28500000D01*
D12*
X64389937Y-28730000D02*
X64747000Y-28730000D01*
X62270000Y-28730000D02*
X61850000Y-28730000D01*
X59730000Y-28730000D02*
X59310000Y-28730000D01*
X57190000Y-28730000D02*
X56770000Y-28730000D01*
X54650000Y-28730000D02*
X54230000Y-28730000D01*
X52110000Y-28730000D02*
X51690000Y-28730000D01*
X49570000Y-28730000D02*
X49150000Y-28730000D01*
X47030000Y-28730000D02*
X46610000Y-28730000D01*
X44490000Y-28730000D02*
X44070000Y-28730000D01*
X41950000Y-28730000D02*
X41530000Y-28730000D01*
X39410000Y-28730000D02*
X38990000Y-28730000D01*
X36870000Y-28730000D02*
X36450000Y-28730000D01*
X34330000Y-28730000D02*
X33910000Y-28730000D01*
X31790000Y-28730000D02*
X31370000Y-28730000D01*
X29250000Y-28730000D02*
X28830000Y-28730000D01*
X26710000Y-28730000D02*
X26290000Y-28730000D01*
X24170000Y-28730000D02*
X23750000Y-28730000D01*
X21630000Y-28730000D02*
X21210000Y-28730000D01*
X19090000Y-28730000D02*
X18670000Y-28730000D01*
X16550000Y-28730000D02*
X16130000Y-28730000D01*
X14010063Y-28730000D02*
X13653000Y-28730000D01*
X64810000Y-29000000D02*
X64810000Y-31490000D01*
X13590000Y-29000000D02*
X13590000Y-32837939D01*
D13*
X64700000Y-29500000D02*
X64700000Y-49000000D01*
D12*
X64810000Y-31490000D02*
X63896480Y-31490000D01*
X64810000Y-31490000D02*
X64810000Y-32837940D01*
X61503520Y-31490000D02*
X16896480Y-31490000D01*
X14503520Y-31490000D02*
X13590000Y-31490000D01*
X64810000Y-33762061D02*
X64810000Y-34765000D01*
D13*
X53275000Y-34375000D02*
X52125000Y-34375000D01*
D12*
X64810000Y-34765000D02*
X64810000Y-43235000D01*
X64810000Y-35100000D02*
X63894000Y-35100000D01*
X61506000Y-35100000D02*
X60290000Y-35100000D01*
X60290000Y-35100000D02*
X60290000Y-35396090D01*
X13590000Y-35400000D02*
X13590000Y-33762061D01*
D13*
X53275000Y-36625000D02*
X52125000Y-36625000D01*
D12*
X60290000Y-37753910D02*
X60290000Y-40246090D01*
X13590000Y-42600000D02*
X13590000Y-35400000D01*
X60290000Y-42603910D02*
X60290000Y-42900000D01*
X64810000Y-42900000D02*
X63894000Y-42900000D01*
X61506000Y-42900000D02*
X60290000Y-42900000D01*
X64810000Y-43235000D02*
X64810000Y-44237939D01*
X13590000Y-44237939D02*
X13590000Y-42600000D01*
X64810000Y-45162061D02*
X64810000Y-46510000D01*
X13590000Y-45162061D02*
X13590000Y-49000000D01*
X64810000Y-46510000D02*
X63896480Y-46510000D01*
X61503520Y-46510000D02*
X16896480Y-46510000D01*
X14503520Y-46510000D02*
X13590000Y-46510000D01*
X64810000Y-49000000D02*
X64810000Y-46510000D01*
D13*
X13700000Y-49000000D02*
X13700000Y-29000000D01*
D12*
X64389937Y-49270000D02*
X64747000Y-49270000D01*
X62270000Y-49270000D02*
X61850000Y-49270000D01*
X59730000Y-49270000D02*
X59310000Y-49270000D01*
X57190000Y-49270000D02*
X56770000Y-49270000D01*
X54650000Y-49270000D02*
X54230000Y-49270000D01*
X52110000Y-49270000D02*
X51690000Y-49270000D01*
X49570000Y-49270000D02*
X49150000Y-49270000D01*
X47030000Y-49270000D02*
X46610000Y-49270000D01*
X44490000Y-49270000D02*
X44070000Y-49270000D01*
X41950000Y-49270000D02*
X41530000Y-49270000D01*
X39410000Y-49270000D02*
X38990000Y-49270000D01*
X36870000Y-49270000D02*
X36450000Y-49270000D01*
X34330000Y-49270000D02*
X33910000Y-49270000D01*
X31790000Y-49270000D02*
X31370000Y-49270000D01*
X29250000Y-49270000D02*
X28830000Y-49270000D01*
X26710000Y-49270000D02*
X26290000Y-49270000D01*
X24170000Y-49270000D02*
X23750000Y-49270000D01*
X21630000Y-49270000D02*
X21210000Y-49270000D01*
X19090000Y-49270000D02*
X18670000Y-49270000D01*
X16550000Y-49270000D02*
X16130000Y-49270000D01*
X14010063Y-49270000D02*
X13653000Y-49270000D01*
D13*
X64200000Y-49500000D02*
X14200000Y-49500000D01*
D12*
X62270000Y-49610000D02*
X61850000Y-49610000D01*
X59730000Y-49610000D02*
X59310000Y-49610000D01*
X57190000Y-49610000D02*
X56770000Y-49610000D01*
X54650000Y-49610000D02*
X54230000Y-49610000D01*
X52110000Y-49610000D02*
X51690000Y-49610000D01*
X49570000Y-49610000D02*
X49150000Y-49610000D01*
X47030000Y-49610000D02*
X46610000Y-49610000D01*
X44490000Y-49610000D02*
X44070000Y-49610000D01*
X41950000Y-49610000D02*
X41530000Y-49610000D01*
X39410000Y-49610000D02*
X38990000Y-49610000D01*
X36870000Y-49610000D02*
X36450000Y-49610000D01*
X34330000Y-49610000D02*
X33910000Y-49610000D01*
X31790000Y-49610000D02*
X31370000Y-49610000D01*
X29250000Y-49610000D02*
X28830000Y-49610000D01*
X26710000Y-49610000D02*
X26290000Y-49610000D01*
X24170000Y-49610000D02*
X23750000Y-49610000D01*
X21630000Y-49610000D02*
X21210000Y-49610000D01*
X19090000Y-49610000D02*
X18670000Y-49610000D01*
X16550000Y-49610000D02*
X16130000Y-49610000D01*
D13*
X60300000Y-32500000D02*
X59500000Y-32500000D01*
X59500000Y-34100000D01*
X60300000Y-34100000D01*
X60300000Y-32500000D01*
X60300000Y-32800000D02*
X59500000Y-32800000D01*
X59500000Y-33800000D01*
X60300000Y-33800000D01*
X60300000Y-32800000D01*
X54825000Y-33900000D02*
X50575000Y-33900000D01*
X50575000Y-37100000D01*
X54825000Y-37100000D01*
X54825000Y-33900000D01*
D12*
X64390000Y-28420324D02*
G75*
G02*
X64810000Y-29000000I-190051J-579692D01*
G01*
D13*
X13700000Y-29000000D02*
G75*
G02*
X14200000Y-28500000I500001J-1D01*
G01*
D12*
X13590000Y-29000000D02*
G75*
G02*
X14010063Y-28420324I610002J-1D01*
G01*
D13*
X53275000Y-34375000D02*
G75*
G02*
X53275000Y-36625000I0J-1125000D01*
G01*
X52125000Y-36625000D02*
G75*
G02*
X52125000Y-34375000I0J1125000D01*
G01*
D12*
X64810000Y-49000000D02*
G75*
G02*
X64389937Y-49579676I-610000J0D01*
G01*
D13*
X64700000Y-49000000D02*
G75*
G02*
X64200000Y-49500000I-500000J0D01*
G01*
X14200000Y-49500000D02*
G75*
G02*
X13700000Y-49000000I0J500000D01*
G01*
D12*
X14010063Y-49579676D02*
G75*
G02*
X13589931Y-49000000I189837J579676D01*
G01*
D13*
X66000000Y-43000000D02*
X65400000Y-43000000D01*
X65400000Y-42790000D01*
X60400000Y-42790000D01*
X60400000Y-35210000D01*
X65400000Y-35210000D01*
X65400000Y-35000000D01*
X66000000Y-35000000D01*
X66000000Y-43000000D01*
%TO.C,R11*%
X36510000Y-15190000D02*
X34500000Y-15190000D01*
X28890000Y-15190000D02*
X30900000Y-15190000D01*
X34500000Y-15990000D02*
X30900000Y-15990000D01*
X30900000Y-14390000D01*
X34500000Y-14390000D01*
X34500000Y-15990000D01*
%TO.C,R6*%
X36740000Y-10750000D02*
X34730000Y-10750000D01*
X29120000Y-10750000D02*
X31130000Y-10750000D01*
X34730000Y-11550000D02*
X31130000Y-11550000D01*
X31130000Y-9950000D01*
X34730000Y-9950000D01*
X34730000Y-11550000D01*
D12*
%TO.C,J1*%
X57060000Y5920000D02*
X56200000Y5920000D01*
X56200000Y5920000D02*
X56200000Y-80000D01*
X54520000Y5920000D02*
X53660000Y5920000D01*
X53660000Y5920000D02*
X53660000Y-80000D01*
X51980000Y5920000D02*
X51120000Y5920000D01*
X51120000Y5920000D02*
X51120000Y-80000D01*
X49440000Y5920000D02*
X48580000Y5920000D01*
X48580000Y5920000D02*
X48580000Y-80000D01*
X46900000Y5920000D02*
X46040000Y5920000D01*
X46040000Y5920000D02*
X46040000Y-80000D01*
X44360000Y5920000D02*
X43500000Y5920000D01*
X43500000Y5920000D02*
X43500000Y-80000D01*
X41820000Y5920000D02*
X40960000Y5920000D01*
X40960000Y5920000D02*
X40960000Y-80000D01*
X39280000Y5920000D02*
X38420000Y5920000D01*
X38420000Y5920000D02*
X38420000Y-80000D01*
X36740000Y5920000D02*
X35880000Y5920000D01*
X35880000Y5920000D02*
X35880000Y-80000D01*
X34200000Y5920000D02*
X33340000Y5920000D01*
X33340000Y5920000D02*
X33340000Y-80000D01*
X31660000Y5920000D02*
X30800000Y5920000D01*
X30800000Y5920000D02*
X30800000Y-80000D01*
X29120000Y5920000D02*
X28260000Y5920000D01*
X28260000Y5920000D02*
X28260000Y-80000D01*
X26580000Y5920000D02*
X25720000Y5920000D01*
X25720000Y5920000D02*
X25720000Y-80000D01*
X24040000Y5920000D02*
X23180000Y5920000D01*
X23180000Y5920000D02*
X23180000Y-80000D01*
X21500000Y5920000D02*
X20640000Y5920000D01*
X20640000Y5920000D02*
X20640000Y-80000D01*
X18960000Y5920000D02*
X18100000Y5920000D01*
X18100000Y5920000D02*
X18100000Y-80000D01*
X16420000Y5920000D02*
X15560000Y5920000D01*
X15560000Y5920000D02*
X15560000Y-80000D01*
X13880000Y5920000D02*
X13020000Y5920000D01*
X13020000Y5920000D02*
X13020000Y-80000D01*
X11340000Y5920000D02*
X10480000Y5920000D01*
X10480000Y5920000D02*
X10480000Y-80000D01*
X8800000Y5920000D02*
X7940000Y5920000D01*
X7940000Y5920000D02*
X7940000Y-80000D01*
X57060000Y-80000D02*
X57060000Y5920000D01*
X54520000Y-80000D02*
X54520000Y5920000D01*
X51980000Y-80000D02*
X51980000Y5920000D01*
X49440000Y-80000D02*
X49440000Y5920000D01*
X46900000Y-80000D02*
X46900000Y5920000D01*
X44360000Y-80000D02*
X44360000Y5920000D01*
X41820000Y-80000D02*
X41820000Y5920000D01*
X39280000Y-80000D02*
X39280000Y5920000D01*
X36740000Y-80000D02*
X36740000Y5920000D01*
X34200000Y-80000D02*
X34200000Y5920000D01*
X31660000Y-80000D02*
X31660000Y5920000D01*
X29120000Y-80000D02*
X29120000Y5920000D01*
X26580000Y-80000D02*
X26580000Y5920000D01*
X24040000Y-80000D02*
X24040000Y5920000D01*
X21500000Y-80000D02*
X21500000Y5920000D01*
X18960000Y-80000D02*
X18960000Y5920000D01*
X16420000Y-80000D02*
X16420000Y5920000D01*
X13880000Y-80000D02*
X13880000Y5920000D01*
X11340000Y-80000D02*
X11340000Y5920000D01*
X8800000Y-80000D02*
X8800000Y5920000D01*
X55360000Y-2840000D02*
X55360000Y-80000D01*
X52820000Y-2840000D02*
X52820000Y-80000D01*
X50280000Y-2840000D02*
X50280000Y-80000D01*
X47740000Y-2840000D02*
X47740000Y-80000D01*
X45200000Y-2840000D02*
X45200000Y-80000D01*
X42660000Y-2840000D02*
X42660000Y-80000D01*
X40120000Y-2840000D02*
X40120000Y-80000D01*
X37580000Y-2840000D02*
X37580000Y-80000D01*
X35040000Y-2840000D02*
X35040000Y-80000D01*
X32500000Y-2840000D02*
X32500000Y-80000D01*
X29960000Y-2840000D02*
X29960000Y-80000D01*
X27420000Y-2840000D02*
X27420000Y-80000D01*
X24880000Y-2840000D02*
X24880000Y-80000D01*
X22340000Y-2840000D02*
X22340000Y-80000D01*
X19800000Y-2840000D02*
X19800000Y-80000D01*
X17260000Y-2840000D02*
X17260000Y-80000D01*
X14720000Y-2840000D02*
X14720000Y-80000D01*
X12180000Y-2840000D02*
X12180000Y-80000D01*
X9640000Y-2840000D02*
X9640000Y-80000D01*
X57060000Y-3152642D02*
X57060000Y-2840000D01*
X56200000Y-3152642D02*
X56200000Y-2840000D01*
X54520000Y-3152642D02*
X54520000Y-2840000D01*
X53660000Y-3152642D02*
X53660000Y-2840000D01*
X51980000Y-3152642D02*
X51980000Y-2840000D01*
X51120000Y-3152642D02*
X51120000Y-2840000D01*
X49440000Y-3152642D02*
X49440000Y-2840000D01*
X48580000Y-3152642D02*
X48580000Y-2840000D01*
X46900000Y-3152642D02*
X46900000Y-2840000D01*
X46040000Y-3152642D02*
X46040000Y-2840000D01*
X44360000Y-3152642D02*
X44360000Y-2840000D01*
X43500000Y-3152642D02*
X43500000Y-2840000D01*
X41820000Y-3152642D02*
X41820000Y-2840000D01*
X40960000Y-3152642D02*
X40960000Y-2840000D01*
X39280000Y-3152642D02*
X39280000Y-2840000D01*
X38420000Y-3152642D02*
X38420000Y-2840000D01*
X36740000Y-3152642D02*
X36740000Y-2840000D01*
X35880000Y-3152642D02*
X35880000Y-2840000D01*
X34200000Y-3152642D02*
X34200000Y-2840000D01*
X33340000Y-3152642D02*
X33340000Y-2840000D01*
X31660000Y-3152642D02*
X31660000Y-2840000D01*
X30800000Y-3152642D02*
X30800000Y-2840000D01*
X29120000Y-3152642D02*
X29120000Y-2840000D01*
X28260000Y-3152642D02*
X28260000Y-2840000D01*
X26580000Y-3152642D02*
X26580000Y-2840000D01*
X25720000Y-3152642D02*
X25720000Y-2840000D01*
X24040000Y-3152642D02*
X24040000Y-2840000D01*
X23180000Y-3152642D02*
X23180000Y-2840000D01*
X21500000Y-3152642D02*
X21500000Y-2840000D01*
X20640000Y-3152642D02*
X20640000Y-2840000D01*
X18960000Y-3152642D02*
X18960000Y-2840000D01*
X18100000Y-3152642D02*
X18100000Y-2840000D01*
X16420000Y-3152642D02*
X16420000Y-2840000D01*
X15560000Y-3152642D02*
X15560000Y-2840000D01*
X13880000Y-3152642D02*
X13880000Y-2840000D01*
X13020000Y-3152642D02*
X13020000Y-2840000D01*
X11340000Y-3152642D02*
X11340000Y-2840000D01*
X10480000Y-3152642D02*
X10480000Y-2840000D01*
X8800000Y-3152642D02*
X8800000Y-2840000D01*
X7940000Y-3152642D02*
X7940000Y-2840000D01*
X57060000Y-5610000D02*
X57060000Y-5307358D01*
X56200000Y-5610000D02*
X56200000Y-5307358D01*
X54520000Y-5692642D02*
X54520000Y-5307358D01*
X53660000Y-5692642D02*
X53660000Y-5307358D01*
X51980000Y-5692642D02*
X51980000Y-5307358D01*
X51120000Y-5692642D02*
X51120000Y-5307358D01*
X49440000Y-5692642D02*
X49440000Y-5307358D01*
X48580000Y-5692642D02*
X48580000Y-5307358D01*
X46900000Y-5692642D02*
X46900000Y-5307358D01*
X46040000Y-5692642D02*
X46040000Y-5307358D01*
X44360000Y-5692642D02*
X44360000Y-5307358D01*
X43500000Y-5692642D02*
X43500000Y-5307358D01*
X41820000Y-5692642D02*
X41820000Y-5307358D01*
X40960000Y-5692642D02*
X40960000Y-5307358D01*
X39280000Y-5692642D02*
X39280000Y-5307358D01*
X38420000Y-5692642D02*
X38420000Y-5307358D01*
X36740000Y-5692642D02*
X36740000Y-5307358D01*
X35880000Y-5692642D02*
X35880000Y-5307358D01*
X34200000Y-5692642D02*
X34200000Y-5307358D01*
X33340000Y-5692642D02*
X33340000Y-5307358D01*
X31660000Y-5692642D02*
X31660000Y-5307358D01*
X30800000Y-5692642D02*
X30800000Y-5307358D01*
X29120000Y-5692642D02*
X29120000Y-5307358D01*
X28260000Y-5692642D02*
X28260000Y-5307358D01*
X26580000Y-5692642D02*
X26580000Y-5307358D01*
X25720000Y-5692642D02*
X25720000Y-5307358D01*
X24040000Y-5692642D02*
X24040000Y-5307358D01*
X23180000Y-5692642D02*
X23180000Y-5307358D01*
X21500000Y-5692642D02*
X21500000Y-5307358D01*
X20640000Y-5692642D02*
X20640000Y-5307358D01*
X18960000Y-5692642D02*
X18960000Y-5307358D01*
X18100000Y-5692642D02*
X18100000Y-5307358D01*
X16420000Y-5692642D02*
X16420000Y-5307358D01*
X15560000Y-5692642D02*
X15560000Y-5307358D01*
X13880000Y-5692642D02*
X13880000Y-5307358D01*
X13020000Y-5692642D02*
X13020000Y-5307358D01*
X11340000Y-5692642D02*
X11340000Y-5307358D01*
X10480000Y-5692642D02*
X10480000Y-5307358D01*
X8800000Y-5692642D02*
X8800000Y-5307358D01*
X7940000Y-5692642D02*
X7940000Y-5307358D01*
D13*
X56950000Y-7090000D02*
X56950000Y-2730000D01*
X56950000Y-7090000D02*
X56310000Y-7090000D01*
X56310000Y-7090000D02*
X56310000Y-2730000D01*
X54410000Y-7090000D02*
X54410000Y-2730000D01*
X54410000Y-7090000D02*
X53770000Y-7090000D01*
X53770000Y-7090000D02*
X53770000Y-2730000D01*
X51870000Y-7090000D02*
X51870000Y-2730000D01*
X51870000Y-7090000D02*
X51230000Y-7090000D01*
X51230000Y-7090000D02*
X51230000Y-2730000D01*
X49330000Y-7090000D02*
X49330000Y-2730000D01*
X49330000Y-7090000D02*
X48690000Y-7090000D01*
X48690000Y-7090000D02*
X48690000Y-2730000D01*
X46790000Y-7090000D02*
X46790000Y-2730000D01*
X46790000Y-7090000D02*
X46150000Y-7090000D01*
X46150000Y-7090000D02*
X46150000Y-2730000D01*
X44250000Y-7090000D02*
X44250000Y-2730000D01*
X44250000Y-7090000D02*
X43610000Y-7090000D01*
X43610000Y-7090000D02*
X43610000Y-2730000D01*
X41710000Y-7090000D02*
X41710000Y-2730000D01*
X41710000Y-7090000D02*
X41070000Y-7090000D01*
X41070000Y-7090000D02*
X41070000Y-2730000D01*
X39170000Y-7090000D02*
X39170000Y-2730000D01*
X39170000Y-7090000D02*
X38530000Y-7090000D01*
X38530000Y-7090000D02*
X38530000Y-2730000D01*
X36630000Y-7090000D02*
X36630000Y-2730000D01*
X36630000Y-7090000D02*
X35990000Y-7090000D01*
X35990000Y-7090000D02*
X35990000Y-2730000D01*
X34090000Y-7090000D02*
X34090000Y-2730000D01*
X34090000Y-7090000D02*
X33450000Y-7090000D01*
X33450000Y-7090000D02*
X33450000Y-2730000D01*
X31550000Y-7090000D02*
X31550000Y-2730000D01*
X31550000Y-7090000D02*
X30910000Y-7090000D01*
X30910000Y-7090000D02*
X30910000Y-2730000D01*
X29010000Y-7090000D02*
X29010000Y-2730000D01*
X29010000Y-7090000D02*
X28370000Y-7090000D01*
X28370000Y-7090000D02*
X28370000Y-2730000D01*
X26470000Y-7090000D02*
X26470000Y-2730000D01*
X26470000Y-7090000D02*
X25830000Y-7090000D01*
X25830000Y-7090000D02*
X25830000Y-2730000D01*
X23930000Y-7090000D02*
X23930000Y-2730000D01*
X23930000Y-7090000D02*
X23290000Y-7090000D01*
X23290000Y-7090000D02*
X23290000Y-2730000D01*
X21390000Y-7090000D02*
X21390000Y-2730000D01*
X21390000Y-7090000D02*
X20750000Y-7090000D01*
X20750000Y-7090000D02*
X20750000Y-2730000D01*
X18850000Y-7090000D02*
X18850000Y-2730000D01*
X18850000Y-7090000D02*
X18210000Y-7090000D01*
X18210000Y-7090000D02*
X18210000Y-2730000D01*
X16310000Y-7090000D02*
X16310000Y-2730000D01*
X16310000Y-7090000D02*
X15670000Y-7090000D01*
X15670000Y-7090000D02*
X15670000Y-2730000D01*
X13770000Y-7090000D02*
X13770000Y-2730000D01*
X13770000Y-7090000D02*
X13130000Y-7090000D01*
X13130000Y-7090000D02*
X13130000Y-2730000D01*
X11230000Y-7090000D02*
X11230000Y-2730000D01*
X11230000Y-7090000D02*
X10590000Y-7090000D01*
X10590000Y-7090000D02*
X10590000Y-2730000D01*
X8690000Y-7090000D02*
X8690000Y-2730000D01*
X8690000Y-7090000D02*
X8050000Y-7090000D01*
X8050000Y-7090000D02*
X8050000Y-2730000D01*
D12*
X57900000Y-8040000D02*
X57900000Y-6770000D01*
X56630000Y-8040000D02*
X57900000Y-8040000D01*
X58010000Y-80000D02*
X6990000Y-80000D01*
X6990000Y-2840000D01*
X58010000Y-2840000D01*
X58010000Y-80000D01*
%TD*%
M02*
