%TF.GenerationSoftware,KiCad,Pcbnew,9.0.7*%
%TF.CreationDate,2026-05-29T12:01:31+02:00*%
%TF.ProjectId,BarePi_LED12,42617265-5069-45f4-9c45-4431322e6b69,rev?*%
%TF.SameCoordinates,Original*%
%TF.FileFunction,Legend,Bot*%
%TF.FilePolarity,Positive*%
%FSLAX46Y46*%
G04 Gerber Fmt 4.6, Leading zero omitted, Abs format (unit mm)*
G04 Created by KiCad (PCBNEW 9.0.7) date 2026-05-29 12:01:31*
%MOMM*%
%LPD*%
G01*
G04 APERTURE LIST*
%ADD10C,0.150000*%
%ADD11C,0.120000*%
G04 APERTURE END LIST*
D10*
X2825000Y-25604164D02*
X3075000Y-25247021D01*
X3253571Y-25604164D02*
X3253571Y-24854164D01*
X3253571Y-24854164D02*
X2967857Y-24854164D01*
X2967857Y-24854164D02*
X2896428Y-24889878D01*
X2896428Y-24889878D02*
X2860714Y-24925592D01*
X2860714Y-24925592D02*
X2825000Y-24997021D01*
X2825000Y-24997021D02*
X2825000Y-25104164D01*
X2825000Y-25104164D02*
X2860714Y-25175592D01*
X2860714Y-25175592D02*
X2896428Y-25211307D01*
X2896428Y-25211307D02*
X2967857Y-25247021D01*
X2967857Y-25247021D02*
X3253571Y-25247021D01*
X2110714Y-25604164D02*
X2539285Y-25604164D01*
X2325000Y-25604164D02*
X2325000Y-24854164D01*
X2325000Y-24854164D02*
X2396428Y-24961307D01*
X2396428Y-24961307D02*
X2467857Y-25032735D01*
X2467857Y-25032735D02*
X2539285Y-25068450D01*
X5625714Y-25714164D02*
X5875714Y-25357021D01*
X6054285Y-25714164D02*
X6054285Y-24964164D01*
X6054285Y-24964164D02*
X5768571Y-24964164D01*
X5768571Y-24964164D02*
X5697142Y-24999878D01*
X5697142Y-24999878D02*
X5661428Y-25035592D01*
X5661428Y-25035592D02*
X5625714Y-25107021D01*
X5625714Y-25107021D02*
X5625714Y-25214164D01*
X5625714Y-25214164D02*
X5661428Y-25285592D01*
X5661428Y-25285592D02*
X5697142Y-25321307D01*
X5697142Y-25321307D02*
X5768571Y-25357021D01*
X5768571Y-25357021D02*
X6054285Y-25357021D01*
X4982857Y-24964164D02*
X5125714Y-24964164D01*
X5125714Y-24964164D02*
X5197142Y-24999878D01*
X5197142Y-24999878D02*
X5232857Y-25035592D01*
X5232857Y-25035592D02*
X5304285Y-25142735D01*
X5304285Y-25142735D02*
X5339999Y-25285592D01*
X5339999Y-25285592D02*
X5339999Y-25571307D01*
X5339999Y-25571307D02*
X5304285Y-25642735D01*
X5304285Y-25642735D02*
X5268571Y-25678450D01*
X5268571Y-25678450D02*
X5197142Y-25714164D01*
X5197142Y-25714164D02*
X5054285Y-25714164D01*
X5054285Y-25714164D02*
X4982857Y-25678450D01*
X4982857Y-25678450D02*
X4947142Y-25642735D01*
X4947142Y-25642735D02*
X4911428Y-25571307D01*
X4911428Y-25571307D02*
X4911428Y-25392735D01*
X4911428Y-25392735D02*
X4947142Y-25321307D01*
X4947142Y-25321307D02*
X4982857Y-25285592D01*
X4982857Y-25285592D02*
X5054285Y-25249878D01*
X5054285Y-25249878D02*
X5197142Y-25249878D01*
X5197142Y-25249878D02*
X5268571Y-25285592D01*
X5268571Y-25285592D02*
X5304285Y-25321307D01*
X5304285Y-25321307D02*
X5339999Y-25392735D01*
X8326429Y-25644164D02*
X8576429Y-25287021D01*
X8755000Y-25644164D02*
X8755000Y-24894164D01*
X8755000Y-24894164D02*
X8469286Y-24894164D01*
X8469286Y-24894164D02*
X8397857Y-24929878D01*
X8397857Y-24929878D02*
X8362143Y-24965592D01*
X8362143Y-24965592D02*
X8326429Y-25037021D01*
X8326429Y-25037021D02*
X8326429Y-25144164D01*
X8326429Y-25144164D02*
X8362143Y-25215592D01*
X8362143Y-25215592D02*
X8397857Y-25251307D01*
X8397857Y-25251307D02*
X8469286Y-25287021D01*
X8469286Y-25287021D02*
X8755000Y-25287021D01*
X8040714Y-24965592D02*
X8005000Y-24929878D01*
X8005000Y-24929878D02*
X7933572Y-24894164D01*
X7933572Y-24894164D02*
X7755000Y-24894164D01*
X7755000Y-24894164D02*
X7683572Y-24929878D01*
X7683572Y-24929878D02*
X7647857Y-24965592D01*
X7647857Y-24965592D02*
X7612143Y-25037021D01*
X7612143Y-25037021D02*
X7612143Y-25108450D01*
X7612143Y-25108450D02*
X7647857Y-25215592D01*
X7647857Y-25215592D02*
X8076429Y-25644164D01*
X8076429Y-25644164D02*
X7612143Y-25644164D01*
X11247143Y-25634164D02*
X11497143Y-25277021D01*
X11675714Y-25634164D02*
X11675714Y-24884164D01*
X11675714Y-24884164D02*
X11390000Y-24884164D01*
X11390000Y-24884164D02*
X11318571Y-24919878D01*
X11318571Y-24919878D02*
X11282857Y-24955592D01*
X11282857Y-24955592D02*
X11247143Y-25027021D01*
X11247143Y-25027021D02*
X11247143Y-25134164D01*
X11247143Y-25134164D02*
X11282857Y-25205592D01*
X11282857Y-25205592D02*
X11318571Y-25241307D01*
X11318571Y-25241307D02*
X11390000Y-25277021D01*
X11390000Y-25277021D02*
X11675714Y-25277021D01*
X10568571Y-24884164D02*
X10925714Y-24884164D01*
X10925714Y-24884164D02*
X10961428Y-25241307D01*
X10961428Y-25241307D02*
X10925714Y-25205592D01*
X10925714Y-25205592D02*
X10854286Y-25169878D01*
X10854286Y-25169878D02*
X10675714Y-25169878D01*
X10675714Y-25169878D02*
X10604286Y-25205592D01*
X10604286Y-25205592D02*
X10568571Y-25241307D01*
X10568571Y-25241307D02*
X10532857Y-25312735D01*
X10532857Y-25312735D02*
X10532857Y-25491307D01*
X10532857Y-25491307D02*
X10568571Y-25562735D01*
X10568571Y-25562735D02*
X10604286Y-25598450D01*
X10604286Y-25598450D02*
X10675714Y-25634164D01*
X10675714Y-25634164D02*
X10854286Y-25634164D01*
X10854286Y-25634164D02*
X10925714Y-25598450D01*
X10925714Y-25598450D02*
X10961428Y-25562735D01*
X13797857Y-25674164D02*
X14047857Y-25317021D01*
X14226428Y-25674164D02*
X14226428Y-24924164D01*
X14226428Y-24924164D02*
X13940714Y-24924164D01*
X13940714Y-24924164D02*
X13869285Y-24959878D01*
X13869285Y-24959878D02*
X13833571Y-24995592D01*
X13833571Y-24995592D02*
X13797857Y-25067021D01*
X13797857Y-25067021D02*
X13797857Y-25174164D01*
X13797857Y-25174164D02*
X13833571Y-25245592D01*
X13833571Y-25245592D02*
X13869285Y-25281307D01*
X13869285Y-25281307D02*
X13940714Y-25317021D01*
X13940714Y-25317021D02*
X14226428Y-25317021D01*
X13155000Y-25174164D02*
X13155000Y-25674164D01*
X13333571Y-24888450D02*
X13512142Y-25424164D01*
X13512142Y-25424164D02*
X13047857Y-25424164D01*
X16608571Y-25714164D02*
X16858571Y-25357021D01*
X17037142Y-25714164D02*
X17037142Y-24964164D01*
X17037142Y-24964164D02*
X16751428Y-24964164D01*
X16751428Y-24964164D02*
X16679999Y-24999878D01*
X16679999Y-24999878D02*
X16644285Y-25035592D01*
X16644285Y-25035592D02*
X16608571Y-25107021D01*
X16608571Y-25107021D02*
X16608571Y-25214164D01*
X16608571Y-25214164D02*
X16644285Y-25285592D01*
X16644285Y-25285592D02*
X16679999Y-25321307D01*
X16679999Y-25321307D02*
X16751428Y-25357021D01*
X16751428Y-25357021D02*
X17037142Y-25357021D01*
X16179999Y-25285592D02*
X16251428Y-25249878D01*
X16251428Y-25249878D02*
X16287142Y-25214164D01*
X16287142Y-25214164D02*
X16322856Y-25142735D01*
X16322856Y-25142735D02*
X16322856Y-25107021D01*
X16322856Y-25107021D02*
X16287142Y-25035592D01*
X16287142Y-25035592D02*
X16251428Y-24999878D01*
X16251428Y-24999878D02*
X16179999Y-24964164D01*
X16179999Y-24964164D02*
X16037142Y-24964164D01*
X16037142Y-24964164D02*
X15965714Y-24999878D01*
X15965714Y-24999878D02*
X15929999Y-25035592D01*
X15929999Y-25035592D02*
X15894285Y-25107021D01*
X15894285Y-25107021D02*
X15894285Y-25142735D01*
X15894285Y-25142735D02*
X15929999Y-25214164D01*
X15929999Y-25214164D02*
X15965714Y-25249878D01*
X15965714Y-25249878D02*
X16037142Y-25285592D01*
X16037142Y-25285592D02*
X16179999Y-25285592D01*
X16179999Y-25285592D02*
X16251428Y-25321307D01*
X16251428Y-25321307D02*
X16287142Y-25357021D01*
X16287142Y-25357021D02*
X16322856Y-25428450D01*
X16322856Y-25428450D02*
X16322856Y-25571307D01*
X16322856Y-25571307D02*
X16287142Y-25642735D01*
X16287142Y-25642735D02*
X16251428Y-25678450D01*
X16251428Y-25678450D02*
X16179999Y-25714164D01*
X16179999Y-25714164D02*
X16037142Y-25714164D01*
X16037142Y-25714164D02*
X15965714Y-25678450D01*
X15965714Y-25678450D02*
X15929999Y-25642735D01*
X15929999Y-25642735D02*
X15894285Y-25571307D01*
X15894285Y-25571307D02*
X15894285Y-25428450D01*
X15894285Y-25428450D02*
X15929999Y-25357021D01*
X15929999Y-25357021D02*
X15965714Y-25321307D01*
X15965714Y-25321307D02*
X16037142Y-25285592D01*
X19249286Y-25704164D02*
X19499286Y-25347021D01*
X19677857Y-25704164D02*
X19677857Y-24954164D01*
X19677857Y-24954164D02*
X19392143Y-24954164D01*
X19392143Y-24954164D02*
X19320714Y-24989878D01*
X19320714Y-24989878D02*
X19285000Y-25025592D01*
X19285000Y-25025592D02*
X19249286Y-25097021D01*
X19249286Y-25097021D02*
X19249286Y-25204164D01*
X19249286Y-25204164D02*
X19285000Y-25275592D01*
X19285000Y-25275592D02*
X19320714Y-25311307D01*
X19320714Y-25311307D02*
X19392143Y-25347021D01*
X19392143Y-25347021D02*
X19677857Y-25347021D01*
X18999286Y-24954164D02*
X18535000Y-24954164D01*
X18535000Y-24954164D02*
X18785000Y-25239878D01*
X18785000Y-25239878D02*
X18677857Y-25239878D01*
X18677857Y-25239878D02*
X18606429Y-25275592D01*
X18606429Y-25275592D02*
X18570714Y-25311307D01*
X18570714Y-25311307D02*
X18535000Y-25382735D01*
X18535000Y-25382735D02*
X18535000Y-25561307D01*
X18535000Y-25561307D02*
X18570714Y-25632735D01*
X18570714Y-25632735D02*
X18606429Y-25668450D01*
X18606429Y-25668450D02*
X18677857Y-25704164D01*
X18677857Y-25704164D02*
X18892143Y-25704164D01*
X18892143Y-25704164D02*
X18963571Y-25668450D01*
X18963571Y-25668450D02*
X18999286Y-25632735D01*
X21930000Y-25724164D02*
X22180000Y-25367021D01*
X22358571Y-25724164D02*
X22358571Y-24974164D01*
X22358571Y-24974164D02*
X22072857Y-24974164D01*
X22072857Y-24974164D02*
X22001428Y-25009878D01*
X22001428Y-25009878D02*
X21965714Y-25045592D01*
X21965714Y-25045592D02*
X21930000Y-25117021D01*
X21930000Y-25117021D02*
X21930000Y-25224164D01*
X21930000Y-25224164D02*
X21965714Y-25295592D01*
X21965714Y-25295592D02*
X22001428Y-25331307D01*
X22001428Y-25331307D02*
X22072857Y-25367021D01*
X22072857Y-25367021D02*
X22358571Y-25367021D01*
X21680000Y-24974164D02*
X21180000Y-24974164D01*
X21180000Y-24974164D02*
X21501428Y-25724164D01*
X8796428Y-34234164D02*
X8796428Y-34841307D01*
X8796428Y-34841307D02*
X8760714Y-34912735D01*
X8760714Y-34912735D02*
X8725000Y-34948450D01*
X8725000Y-34948450D02*
X8653571Y-34984164D01*
X8653571Y-34984164D02*
X8510714Y-34984164D01*
X8510714Y-34984164D02*
X8439285Y-34948450D01*
X8439285Y-34948450D02*
X8403571Y-34912735D01*
X8403571Y-34912735D02*
X8367857Y-34841307D01*
X8367857Y-34841307D02*
X8367857Y-34234164D01*
X7617857Y-34984164D02*
X8046428Y-34984164D01*
X7832143Y-34984164D02*
X7832143Y-34234164D01*
X7832143Y-34234164D02*
X7903571Y-34341307D01*
X7903571Y-34341307D02*
X7975000Y-34412735D01*
X7975000Y-34412735D02*
X8046428Y-34448450D01*
D11*
%TO.C,R1*%
X3770000Y-29072064D02*
X3770000Y-27617936D01*
X1950000Y-29072064D02*
X1950000Y-27617936D01*
%TO.C,R6*%
X4670714Y-27617936D02*
X4670714Y-29072064D01*
X6490714Y-27617936D02*
X6490714Y-29072064D01*
%TO.C,R2*%
X7391429Y-27617936D02*
X7391429Y-29072064D01*
X9211429Y-27617936D02*
X9211429Y-29072064D01*
%TO.C,R5*%
X10112143Y-27617936D02*
X10112143Y-29072064D01*
X11932143Y-27617936D02*
X11932143Y-29072064D01*
%TO.C,R4*%
X12832857Y-27617936D02*
X12832857Y-29072064D01*
X14652857Y-27617936D02*
X14652857Y-29072064D01*
%TO.C,R8*%
X17373571Y-29072064D02*
X17373571Y-27617936D01*
X15553571Y-29072064D02*
X15553571Y-27617936D01*
%TO.C,R3*%
X18274286Y-27617936D02*
X18274286Y-29072064D01*
X20094286Y-27617936D02*
X20094286Y-29072064D01*
%TO.C,R7*%
X22815000Y-29072064D02*
X22815000Y-27617936D01*
X20995000Y-29072064D02*
X20995000Y-27617936D01*
%TD*%
M02*
