%TF.GenerationSoftware,KiCad,Pcbnew,9.0.7*%
%TF.CreationDate,2026-05-29T12:01:31+02:00*%
%TF.ProjectId,BarePi_LED12,42617265-5069-45f4-9c45-4431322e6b69,rev?*%
%TF.SameCoordinates,Original*%
%TF.FileFunction,Soldermask,Top*%
%TF.FilePolarity,Negative*%
%FSLAX46Y46*%
G04 Gerber Fmt 4.6, Leading zero omitted, Abs format (unit mm)*
G04 Created by KiCad (PCBNEW 9.0.7) date 2026-05-29 12:01:31*
%MOMM*%
%LPD*%
G01*
G04 APERTURE LIST*
G04 Aperture macros list*
%AMRoundRect*
0 Rectangle with rounded corners*
0 $1 Rounding radius*
0 $2 $3 $4 $5 $6 $7 $8 $9 X,Y pos of 4 corners*
0 Add a 4 corners polygon primitive as box body*
4,1,4,$2,$3,$4,$5,$6,$7,$8,$9,$2,$3,0*
0 Add four circle primitives for the rounded corners*
1,1,$1+$1,$2,$3*
1,1,$1+$1,$4,$5*
1,1,$1+$1,$6,$7*
1,1,$1+$1,$8,$9*
0 Add four rect primitives between the rounded corners*
20,1,$1+$1,$2,$3,$4,$5,0*
20,1,$1+$1,$4,$5,$6,$7,0*
20,1,$1+$1,$6,$7,$8,$9,0*
20,1,$1+$1,$8,$9,$2,$3,0*%
%AMOutline4P*
0 Free polygon, 4 corners , with rotation*
0 The origin of the aperture is its center*
0 number of corners: always 4*
0 $1 to $8 corner X, Y*
0 $9 Rotation angle, in degrees counterclockwise*
0 create outline with 4 corners*
4,1,4,$1,$2,$3,$4,$5,$6,$7,$8,$1,$2,$9*%
G04 Aperture macros list end*
%ADD10RoundRect,0.250000X0.412500X0.650000X-0.412500X0.650000X-0.412500X-0.650000X0.412500X-0.650000X0*%
%ADD11RoundRect,0.250001X0.507499X0.944999X-0.507499X0.944999X-0.507499X-0.944999X0.507499X-0.944999X0*%
%ADD12Outline4P,-1.500000X-0.800000X1.500000X-0.800000X1.500000X0.800000X-1.500000X0.800000X270.000000*%
%ADD13O,1.600000X3.000000*%
%ADD14Outline4P,-0.800000X-1.600000X0.800000X-1.600000X0.800000X1.600000X-0.800000X1.600000X0.000000*%
%ADD15O,1.600000X3.200000*%
%ADD16Outline4P,-1.600000X-0.800000X1.600000X-0.800000X1.600000X0.800000X-1.600000X0.800000X0.000000*%
%ADD17O,3.200000X1.600000*%
%ADD18C,3.000000*%
G04 APERTURE END LIST*
D10*
%TO.C,C2*%
X4932500Y-35970000D03*
X1807500Y-35970000D03*
%TD*%
D11*
%TO.C,C1*%
X5012500Y-39350000D03*
X1757500Y-39350000D03*
%TD*%
D12*
%TO.C,J2*%
X20870000Y-41370000D03*
D13*
X20870000Y-38030000D03*
X23410000Y-41370000D03*
X23410000Y-38030000D03*
X25950000Y-41370000D03*
X25950000Y-38030000D03*
X28490000Y-41370000D03*
X28490000Y-38030000D03*
X31030000Y-41370000D03*
X31030000Y-38030000D03*
X33570000Y-41370000D03*
X33570000Y-38030000D03*
X36110000Y-41370000D03*
X36110000Y-38030000D03*
X38650000Y-41370000D03*
X38650000Y-38030000D03*
X41190000Y-41370000D03*
X41190000Y-38030000D03*
X43730000Y-41370000D03*
X43730000Y-38030000D03*
X46270000Y-41370000D03*
X46270000Y-38030000D03*
X48810000Y-41370000D03*
X48810000Y-38030000D03*
X51350000Y-41370000D03*
X51350000Y-38030000D03*
X53890000Y-41370000D03*
X53890000Y-38030000D03*
X56430000Y-41370000D03*
X56430000Y-38030000D03*
X58970000Y-41370000D03*
X58970000Y-38030000D03*
X61510000Y-41370000D03*
X61510000Y-38030000D03*
X64050000Y-41370000D03*
X64050000Y-38030000D03*
X66590000Y-41370000D03*
X66590000Y-38030000D03*
X69130000Y-41370000D03*
X69130000Y-38030000D03*
%TD*%
D14*
%TO.C,DISP1*%
X8650000Y-23080000D03*
D15*
X11190000Y-23080000D03*
X13730000Y-23080000D03*
X16270000Y-23080000D03*
X18810000Y-23080000D03*
X21350000Y-23080000D03*
X21350000Y-12920000D03*
X18810000Y-12920000D03*
X16270000Y-12920000D03*
X13730000Y-12920000D03*
X11190000Y-12920000D03*
X8650000Y-12920000D03*
%TD*%
D16*
%TO.C,J3*%
X79780000Y-31760000D03*
D17*
X79780000Y-34300000D03*
X79780000Y-36840000D03*
%TD*%
D14*
%TO.C,DISP2*%
X38650000Y-23080000D03*
D15*
X41190000Y-23080000D03*
X43730000Y-23080000D03*
X46270000Y-23080000D03*
X48810000Y-23080000D03*
X51350000Y-23080000D03*
X51350000Y-12920000D03*
X48810000Y-12920000D03*
X46270000Y-12920000D03*
X43730000Y-12920000D03*
X41190000Y-12920000D03*
X38650000Y-12920000D03*
%TD*%
D18*
%TO.C,REF\u002A\u002A*%
X3500000Y-46500000D03*
%TD*%
D12*
%TO.C,J1*%
X20870000Y-3830000D03*
D13*
X20870000Y-7170000D03*
X23410000Y-3830000D03*
X23410000Y-7170000D03*
X25950000Y-3830000D03*
X25950000Y-7170000D03*
X28490000Y-3830000D03*
X28490000Y-7170000D03*
X31030000Y-3830000D03*
X31030000Y-7170000D03*
X33570000Y-3830000D03*
X33570000Y-7170000D03*
X36110000Y-3830000D03*
X36110000Y-7170000D03*
X38650000Y-3830000D03*
X38650000Y-7170000D03*
X41190000Y-3830000D03*
X41190000Y-7170000D03*
X43730000Y-3830000D03*
X43730000Y-7170000D03*
X46270000Y-3830000D03*
X46270000Y-7170000D03*
X48810000Y-3830000D03*
X48810000Y-7170000D03*
X51350000Y-3830000D03*
X51350000Y-7170000D03*
X53890000Y-3830000D03*
X53890000Y-7170000D03*
X56430000Y-3830000D03*
X56430000Y-7170000D03*
X58970000Y-3830000D03*
X58970000Y-7170000D03*
X61510000Y-3830000D03*
X61510000Y-7170000D03*
X64050000Y-3830000D03*
X64050000Y-7170000D03*
X66590000Y-3830000D03*
X66590000Y-7170000D03*
X69130000Y-3830000D03*
X69130000Y-7170000D03*
%TD*%
D18*
%TO.C,REF\u002A\u002A*%
X3500000Y-3500000D03*
%TD*%
D14*
%TO.C,DISP3*%
X68650000Y-23080000D03*
D15*
X71190000Y-23080000D03*
X73730000Y-23080000D03*
X76270000Y-23080000D03*
X78810000Y-23080000D03*
X81350000Y-23080000D03*
X81350000Y-12920000D03*
X78810000Y-12920000D03*
X76270000Y-12920000D03*
X73730000Y-12920000D03*
X71190000Y-12920000D03*
X68650000Y-12920000D03*
%TD*%
D18*
%TO.C,REF\u002A\u002A*%
X86500000Y-3500000D03*
%TD*%
%TO.C,REF\u002A\u002A*%
X86500000Y-46500000D03*
%TD*%
M02*
