%TF.GenerationSoftware,KiCad,Pcbnew,9.0.7*%
%TF.CreationDate,2026-05-29T12:01:31+02:00*%
%TF.ProjectId,BarePi_LED12,42617265-5069-45f4-9c45-4431322e6b69,rev?*%
%TF.SameCoordinates,Original*%
%TF.FileFunction,Legend,Top*%
%TF.FilePolarity,Positive*%
%FSLAX46Y46*%
G04 Gerber Fmt 4.6, Leading zero omitted, Abs format (unit mm)*
G04 Created by KiCad (PCBNEW 9.0.7) date 2026-05-29 12:01:31*
%MOMM*%
%LPD*%
G01*
G04 APERTURE LIST*
%ADD10C,0.150000*%
%ADD11C,0.120000*%
G04 APERTURE END LIST*
D10*
X1594999Y-34487735D02*
X1559285Y-34523450D01*
X1559285Y-34523450D02*
X1452142Y-34559164D01*
X1452142Y-34559164D02*
X1380714Y-34559164D01*
X1380714Y-34559164D02*
X1273571Y-34523450D01*
X1273571Y-34523450D02*
X1202142Y-34452021D01*
X1202142Y-34452021D02*
X1166428Y-34380592D01*
X1166428Y-34380592D02*
X1130714Y-34237735D01*
X1130714Y-34237735D02*
X1130714Y-34130592D01*
X1130714Y-34130592D02*
X1166428Y-33987735D01*
X1166428Y-33987735D02*
X1202142Y-33916307D01*
X1202142Y-33916307D02*
X1273571Y-33844878D01*
X1273571Y-33844878D02*
X1380714Y-33809164D01*
X1380714Y-33809164D02*
X1452142Y-33809164D01*
X1452142Y-33809164D02*
X1559285Y-33844878D01*
X1559285Y-33844878D02*
X1594999Y-33880592D01*
X1880714Y-33880592D02*
X1916428Y-33844878D01*
X1916428Y-33844878D02*
X1987857Y-33809164D01*
X1987857Y-33809164D02*
X2166428Y-33809164D01*
X2166428Y-33809164D02*
X2237857Y-33844878D01*
X2237857Y-33844878D02*
X2273571Y-33880592D01*
X2273571Y-33880592D02*
X2309285Y-33952021D01*
X2309285Y-33952021D02*
X2309285Y-34023450D01*
X2309285Y-34023450D02*
X2273571Y-34130592D01*
X2273571Y-34130592D02*
X1844999Y-34559164D01*
X1844999Y-34559164D02*
X2309285Y-34559164D01*
X1609999Y-43067735D02*
X1574285Y-43103450D01*
X1574285Y-43103450D02*
X1467142Y-43139164D01*
X1467142Y-43139164D02*
X1395714Y-43139164D01*
X1395714Y-43139164D02*
X1288571Y-43103450D01*
X1288571Y-43103450D02*
X1217142Y-43032021D01*
X1217142Y-43032021D02*
X1181428Y-42960592D01*
X1181428Y-42960592D02*
X1145714Y-42817735D01*
X1145714Y-42817735D02*
X1145714Y-42710592D01*
X1145714Y-42710592D02*
X1181428Y-42567735D01*
X1181428Y-42567735D02*
X1217142Y-42496307D01*
X1217142Y-42496307D02*
X1288571Y-42424878D01*
X1288571Y-42424878D02*
X1395714Y-42389164D01*
X1395714Y-42389164D02*
X1467142Y-42389164D01*
X1467142Y-42389164D02*
X1574285Y-42424878D01*
X1574285Y-42424878D02*
X1609999Y-42460592D01*
X2324285Y-43139164D02*
X1895714Y-43139164D01*
X2109999Y-43139164D02*
X2109999Y-42389164D01*
X2109999Y-42389164D02*
X2038571Y-42496307D01*
X2038571Y-42496307D02*
X1967142Y-42567735D01*
X1967142Y-42567735D02*
X1895714Y-42603450D01*
X15960000Y-46789164D02*
X15960000Y-47324878D01*
X15960000Y-47324878D02*
X15924285Y-47432021D01*
X15924285Y-47432021D02*
X15852857Y-47503450D01*
X15852857Y-47503450D02*
X15745714Y-47539164D01*
X15745714Y-47539164D02*
X15674285Y-47539164D01*
X16281429Y-46860592D02*
X16317143Y-46824878D01*
X16317143Y-46824878D02*
X16388572Y-46789164D01*
X16388572Y-46789164D02*
X16567143Y-46789164D01*
X16567143Y-46789164D02*
X16638572Y-46824878D01*
X16638572Y-46824878D02*
X16674286Y-46860592D01*
X16674286Y-46860592D02*
X16710000Y-46932021D01*
X16710000Y-46932021D02*
X16710000Y-47003450D01*
X16710000Y-47003450D02*
X16674286Y-47110592D01*
X16674286Y-47110592D02*
X16245714Y-47539164D01*
X16245714Y-47539164D02*
X16710000Y-47539164D01*
X18730112Y-42480414D02*
X18301541Y-42480414D01*
X18515826Y-42480414D02*
X18515826Y-41730414D01*
X18515826Y-41730414D02*
X18444398Y-41837557D01*
X18444398Y-41837557D02*
X18372969Y-41908985D01*
X18372969Y-41908985D02*
X18301541Y-41944700D01*
X1115714Y-10599164D02*
X1115714Y-9849164D01*
X1115714Y-9849164D02*
X1294285Y-9849164D01*
X1294285Y-9849164D02*
X1401428Y-9884878D01*
X1401428Y-9884878D02*
X1472857Y-9956307D01*
X1472857Y-9956307D02*
X1508571Y-10027735D01*
X1508571Y-10027735D02*
X1544285Y-10170592D01*
X1544285Y-10170592D02*
X1544285Y-10277735D01*
X1544285Y-10277735D02*
X1508571Y-10420592D01*
X1508571Y-10420592D02*
X1472857Y-10492021D01*
X1472857Y-10492021D02*
X1401428Y-10563450D01*
X1401428Y-10563450D02*
X1294285Y-10599164D01*
X1294285Y-10599164D02*
X1115714Y-10599164D01*
X1865714Y-10599164D02*
X1865714Y-9849164D01*
X2187143Y-10563450D02*
X2294286Y-10599164D01*
X2294286Y-10599164D02*
X2472857Y-10599164D01*
X2472857Y-10599164D02*
X2544286Y-10563450D01*
X2544286Y-10563450D02*
X2580000Y-10527735D01*
X2580000Y-10527735D02*
X2615714Y-10456307D01*
X2615714Y-10456307D02*
X2615714Y-10384878D01*
X2615714Y-10384878D02*
X2580000Y-10313450D01*
X2580000Y-10313450D02*
X2544286Y-10277735D01*
X2544286Y-10277735D02*
X2472857Y-10242021D01*
X2472857Y-10242021D02*
X2330000Y-10206307D01*
X2330000Y-10206307D02*
X2258571Y-10170592D01*
X2258571Y-10170592D02*
X2222857Y-10134878D01*
X2222857Y-10134878D02*
X2187143Y-10063450D01*
X2187143Y-10063450D02*
X2187143Y-9992021D01*
X2187143Y-9992021D02*
X2222857Y-9920592D01*
X2222857Y-9920592D02*
X2258571Y-9884878D01*
X2258571Y-9884878D02*
X2330000Y-9849164D01*
X2330000Y-9849164D02*
X2508571Y-9849164D01*
X2508571Y-9849164D02*
X2615714Y-9884878D01*
X2937143Y-10599164D02*
X2937143Y-9849164D01*
X2937143Y-9849164D02*
X3222857Y-9849164D01*
X3222857Y-9849164D02*
X3294286Y-9884878D01*
X3294286Y-9884878D02*
X3330000Y-9920592D01*
X3330000Y-9920592D02*
X3365714Y-9992021D01*
X3365714Y-9992021D02*
X3365714Y-10099164D01*
X3365714Y-10099164D02*
X3330000Y-10170592D01*
X3330000Y-10170592D02*
X3294286Y-10206307D01*
X3294286Y-10206307D02*
X3222857Y-10242021D01*
X3222857Y-10242021D02*
X2937143Y-10242021D01*
X4080000Y-10599164D02*
X3651429Y-10599164D01*
X3865714Y-10599164D02*
X3865714Y-9849164D01*
X3865714Y-9849164D02*
X3794286Y-9956307D01*
X3794286Y-9956307D02*
X3722857Y-10027735D01*
X3722857Y-10027735D02*
X3651429Y-10063450D01*
X78330000Y-39379164D02*
X78330000Y-39914878D01*
X78330000Y-39914878D02*
X78294285Y-40022021D01*
X78294285Y-40022021D02*
X78222857Y-40093450D01*
X78222857Y-40093450D02*
X78115714Y-40129164D01*
X78115714Y-40129164D02*
X78044285Y-40129164D01*
X78615714Y-39379164D02*
X79080000Y-39379164D01*
X79080000Y-39379164D02*
X78830000Y-39664878D01*
X78830000Y-39664878D02*
X78937143Y-39664878D01*
X78937143Y-39664878D02*
X79008572Y-39700592D01*
X79008572Y-39700592D02*
X79044286Y-39736307D01*
X79044286Y-39736307D02*
X79080000Y-39807735D01*
X79080000Y-39807735D02*
X79080000Y-39986307D01*
X79080000Y-39986307D02*
X79044286Y-40057735D01*
X79044286Y-40057735D02*
X79008572Y-40093450D01*
X79008572Y-40093450D02*
X78937143Y-40129164D01*
X78937143Y-40129164D02*
X78722857Y-40129164D01*
X78722857Y-40129164D02*
X78651429Y-40093450D01*
X78651429Y-40093450D02*
X78615714Y-40057735D01*
X33545714Y-10479164D02*
X33545714Y-9729164D01*
X33545714Y-9729164D02*
X33724285Y-9729164D01*
X33724285Y-9729164D02*
X33831428Y-9764878D01*
X33831428Y-9764878D02*
X33902857Y-9836307D01*
X33902857Y-9836307D02*
X33938571Y-9907735D01*
X33938571Y-9907735D02*
X33974285Y-10050592D01*
X33974285Y-10050592D02*
X33974285Y-10157735D01*
X33974285Y-10157735D02*
X33938571Y-10300592D01*
X33938571Y-10300592D02*
X33902857Y-10372021D01*
X33902857Y-10372021D02*
X33831428Y-10443450D01*
X33831428Y-10443450D02*
X33724285Y-10479164D01*
X33724285Y-10479164D02*
X33545714Y-10479164D01*
X34295714Y-10479164D02*
X34295714Y-9729164D01*
X34617143Y-10443450D02*
X34724286Y-10479164D01*
X34724286Y-10479164D02*
X34902857Y-10479164D01*
X34902857Y-10479164D02*
X34974286Y-10443450D01*
X34974286Y-10443450D02*
X35010000Y-10407735D01*
X35010000Y-10407735D02*
X35045714Y-10336307D01*
X35045714Y-10336307D02*
X35045714Y-10264878D01*
X35045714Y-10264878D02*
X35010000Y-10193450D01*
X35010000Y-10193450D02*
X34974286Y-10157735D01*
X34974286Y-10157735D02*
X34902857Y-10122021D01*
X34902857Y-10122021D02*
X34760000Y-10086307D01*
X34760000Y-10086307D02*
X34688571Y-10050592D01*
X34688571Y-10050592D02*
X34652857Y-10014878D01*
X34652857Y-10014878D02*
X34617143Y-9943450D01*
X34617143Y-9943450D02*
X34617143Y-9872021D01*
X34617143Y-9872021D02*
X34652857Y-9800592D01*
X34652857Y-9800592D02*
X34688571Y-9764878D01*
X34688571Y-9764878D02*
X34760000Y-9729164D01*
X34760000Y-9729164D02*
X34938571Y-9729164D01*
X34938571Y-9729164D02*
X35045714Y-9764878D01*
X35367143Y-10479164D02*
X35367143Y-9729164D01*
X35367143Y-9729164D02*
X35652857Y-9729164D01*
X35652857Y-9729164D02*
X35724286Y-9764878D01*
X35724286Y-9764878D02*
X35760000Y-9800592D01*
X35760000Y-9800592D02*
X35795714Y-9872021D01*
X35795714Y-9872021D02*
X35795714Y-9979164D01*
X35795714Y-9979164D02*
X35760000Y-10050592D01*
X35760000Y-10050592D02*
X35724286Y-10086307D01*
X35724286Y-10086307D02*
X35652857Y-10122021D01*
X35652857Y-10122021D02*
X35367143Y-10122021D01*
X36081429Y-9800592D02*
X36117143Y-9764878D01*
X36117143Y-9764878D02*
X36188572Y-9729164D01*
X36188572Y-9729164D02*
X36367143Y-9729164D01*
X36367143Y-9729164D02*
X36438572Y-9764878D01*
X36438572Y-9764878D02*
X36474286Y-9800592D01*
X36474286Y-9800592D02*
X36510000Y-9872021D01*
X36510000Y-9872021D02*
X36510000Y-9943450D01*
X36510000Y-9943450D02*
X36474286Y-10050592D01*
X36474286Y-10050592D02*
X36045714Y-10479164D01*
X36045714Y-10479164D02*
X36510000Y-10479164D01*
X17760000Y-7299164D02*
X17760000Y-7834878D01*
X17760000Y-7834878D02*
X17724285Y-7942021D01*
X17724285Y-7942021D02*
X17652857Y-8013450D01*
X17652857Y-8013450D02*
X17545714Y-8049164D01*
X17545714Y-8049164D02*
X17474285Y-8049164D01*
X18510000Y-8049164D02*
X18081429Y-8049164D01*
X18295714Y-8049164D02*
X18295714Y-7299164D01*
X18295714Y-7299164D02*
X18224286Y-7406307D01*
X18224286Y-7406307D02*
X18152857Y-7477735D01*
X18152857Y-7477735D02*
X18081429Y-7513450D01*
X18250112Y-4440414D02*
X17821541Y-4440414D01*
X18035826Y-4440414D02*
X18035826Y-3690414D01*
X18035826Y-3690414D02*
X17964398Y-3797557D01*
X17964398Y-3797557D02*
X17892969Y-3868985D01*
X17892969Y-3868985D02*
X17821541Y-3904700D01*
X68935714Y-10509164D02*
X68935714Y-9759164D01*
X68935714Y-9759164D02*
X69114285Y-9759164D01*
X69114285Y-9759164D02*
X69221428Y-9794878D01*
X69221428Y-9794878D02*
X69292857Y-9866307D01*
X69292857Y-9866307D02*
X69328571Y-9937735D01*
X69328571Y-9937735D02*
X69364285Y-10080592D01*
X69364285Y-10080592D02*
X69364285Y-10187735D01*
X69364285Y-10187735D02*
X69328571Y-10330592D01*
X69328571Y-10330592D02*
X69292857Y-10402021D01*
X69292857Y-10402021D02*
X69221428Y-10473450D01*
X69221428Y-10473450D02*
X69114285Y-10509164D01*
X69114285Y-10509164D02*
X68935714Y-10509164D01*
X69685714Y-10509164D02*
X69685714Y-9759164D01*
X70007143Y-10473450D02*
X70114286Y-10509164D01*
X70114286Y-10509164D02*
X70292857Y-10509164D01*
X70292857Y-10509164D02*
X70364286Y-10473450D01*
X70364286Y-10473450D02*
X70400000Y-10437735D01*
X70400000Y-10437735D02*
X70435714Y-10366307D01*
X70435714Y-10366307D02*
X70435714Y-10294878D01*
X70435714Y-10294878D02*
X70400000Y-10223450D01*
X70400000Y-10223450D02*
X70364286Y-10187735D01*
X70364286Y-10187735D02*
X70292857Y-10152021D01*
X70292857Y-10152021D02*
X70150000Y-10116307D01*
X70150000Y-10116307D02*
X70078571Y-10080592D01*
X70078571Y-10080592D02*
X70042857Y-10044878D01*
X70042857Y-10044878D02*
X70007143Y-9973450D01*
X70007143Y-9973450D02*
X70007143Y-9902021D01*
X70007143Y-9902021D02*
X70042857Y-9830592D01*
X70042857Y-9830592D02*
X70078571Y-9794878D01*
X70078571Y-9794878D02*
X70150000Y-9759164D01*
X70150000Y-9759164D02*
X70328571Y-9759164D01*
X70328571Y-9759164D02*
X70435714Y-9794878D01*
X70757143Y-10509164D02*
X70757143Y-9759164D01*
X70757143Y-9759164D02*
X71042857Y-9759164D01*
X71042857Y-9759164D02*
X71114286Y-9794878D01*
X71114286Y-9794878D02*
X71150000Y-9830592D01*
X71150000Y-9830592D02*
X71185714Y-9902021D01*
X71185714Y-9902021D02*
X71185714Y-10009164D01*
X71185714Y-10009164D02*
X71150000Y-10080592D01*
X71150000Y-10080592D02*
X71114286Y-10116307D01*
X71114286Y-10116307D02*
X71042857Y-10152021D01*
X71042857Y-10152021D02*
X70757143Y-10152021D01*
X71435714Y-9759164D02*
X71900000Y-9759164D01*
X71900000Y-9759164D02*
X71650000Y-10044878D01*
X71650000Y-10044878D02*
X71757143Y-10044878D01*
X71757143Y-10044878D02*
X71828572Y-10080592D01*
X71828572Y-10080592D02*
X71864286Y-10116307D01*
X71864286Y-10116307D02*
X71900000Y-10187735D01*
X71900000Y-10187735D02*
X71900000Y-10366307D01*
X71900000Y-10366307D02*
X71864286Y-10437735D01*
X71864286Y-10437735D02*
X71828572Y-10473450D01*
X71828572Y-10473450D02*
X71757143Y-10509164D01*
X71757143Y-10509164D02*
X71542857Y-10509164D01*
X71542857Y-10509164D02*
X71471429Y-10473450D01*
X71471429Y-10473450D02*
X71435714Y-10437735D01*
D11*
%TO.C,C2*%
X4081252Y-36880000D02*
X2658748Y-36880000D01*
X4081252Y-35060000D02*
X2658748Y-35060000D01*
%TO.C,C1*%
X6030000Y-40860000D02*
X6030000Y-37840000D01*
X6030000Y-37840000D02*
X1635000Y-37840000D01*
X1635000Y-40860000D02*
X6030000Y-40860000D01*
%TD*%
M02*
