M48
; DRILL file {KiCad 9.0.7} date 2026-05-29T12:01:33+0200
; FORMAT={-:-/ absolute / metric / decimal}
; #@! TF.CreationDate,2026-05-29T12:01:33+02:00
; #@! TF.GenerationSoftware,Kicad,Pcbnew,9.0.7
; #@! TF.FileFunction,Plated,1,2,PTH
FMAT,2
METRIC
; #@! TA.AperFunction,Plated,PTH,ViaDrill
T1C0.600
; #@! TA.AperFunction,Plated,PTH,ComponentDrill
T2C0.800
; #@! TA.AperFunction,Plated,PTH,ComponentDrill
T3C1.000
%
G90
G05
T1
X4.936Y-41.86
X5.134Y-31.54
X7.855Y-31.735
X9.657Y-32.335
X10.307Y-46.475
X12.138Y-33.958
X12.381Y-31.428
X14.78Y-9.655
X15.928Y-34.25
X16.05Y-32.2
X17.035Y-9.655
X17.468Y-40.769
X18.03Y-32.03
X18.51Y-42.44
X18.97Y-38.291
X20.56Y-31.92
X21.545Y-35.551
X22.55Y-31.86
X23.95Y-26.02
X24.62Y-9.64
X24.726Y-35.462
X25.455Y-28.754
X27.15Y-9.639
X27.256Y-35.403
X29.68Y-9.77
X29.786Y-35.766
X32.304Y-9.826
X34.836Y-35.546
X37.238Y-13.815
X37.384Y-35.634
X38.811Y-30.615
X39.924Y-35.554
X41.88Y-9.91
X42.456Y-35.896
X45.16Y-35.12
X50.055Y-34.84
X50.086Y-31.19
X50.7Y-26.24
X52.585Y-34.859
X55.071Y-34.085
X55.136Y-32.186
X55.14Y-9.658
X55.784Y-16.922
X57.67Y-9.833
X57.696Y-31.87
X58.274Y-16.132
X60.2Y-9.815
X62.62Y-35.334
X62.73Y-10.027
X65.15Y-35.11
X65.293Y-9.925
X66.694Y-13.909
X67.823Y-9.626
X70.973Y-36.625
X73.725Y-40.904
X78.67Y-9.22
X80.87Y-26.26
T2
X8.65Y-12.92
X8.65Y-23.08
X11.19Y-12.92
X11.19Y-23.08
X13.73Y-12.92
X13.73Y-23.08
X16.27Y-12.92
X16.27Y-23.08
X18.81Y-12.92
X18.81Y-23.08
X21.35Y-12.92
X21.35Y-23.08
X38.65Y-12.92
X38.65Y-23.08
X41.19Y-12.92
X41.19Y-23.08
X43.73Y-12.92
X43.73Y-23.08
X46.27Y-12.92
X46.27Y-23.08
X48.81Y-12.92
X48.81Y-23.08
X51.35Y-12.92
X51.35Y-23.08
X68.65Y-12.92
X68.65Y-23.08
X71.19Y-12.92
X71.19Y-23.08
X73.73Y-12.92
X73.73Y-23.08
X76.27Y-12.92
X76.27Y-23.08
X78.81Y-12.92
X78.81Y-23.08
X81.35Y-12.92
X81.35Y-23.08
T3
X20.87Y-4.23
X20.87Y-6.77
X20.87Y-38.43
X20.87Y-40.97
X23.41Y-4.23
X23.41Y-6.77
X23.41Y-38.43
X23.41Y-40.97
X25.95Y-4.23
X25.95Y-6.77
X25.95Y-38.43
X25.95Y-40.97
X28.49Y-4.23
X28.49Y-6.77
X28.49Y-38.43
X28.49Y-40.97
X31.03Y-4.23
X31.03Y-6.77
X31.03Y-38.43
X31.03Y-40.97
X33.57Y-4.23
X33.57Y-6.77
X33.57Y-38.43
X33.57Y-40.97
X36.11Y-4.23
X36.11Y-6.77
X36.11Y-38.43
X36.11Y-40.97
X38.65Y-4.23
X38.65Y-6.77
X38.65Y-38.43
X38.65Y-40.97
X41.19Y-4.23
X41.19Y-6.77
X41.19Y-38.43
X41.19Y-40.97
X43.73Y-4.23
X43.73Y-6.77
X43.73Y-38.43
X43.73Y-40.97
X46.27Y-4.23
X46.27Y-6.77
X46.27Y-38.43
X46.27Y-40.97
X48.81Y-4.23
X48.81Y-6.77
X48.81Y-38.43
X48.81Y-40.97
X51.35Y-4.23
X51.35Y-6.77
X51.35Y-38.43
X51.35Y-40.97
X53.89Y-4.23
X53.89Y-6.77
X53.89Y-38.43
X53.89Y-40.97
X56.43Y-4.23
X56.43Y-6.77
X56.43Y-38.43
X56.43Y-40.97
X58.97Y-4.23
X58.97Y-6.77
X58.97Y-38.43
X58.97Y-40.97
X61.51Y-4.23
X61.51Y-6.77
X61.51Y-38.43
X61.51Y-40.97
X64.05Y-4.23
X64.05Y-6.77
X64.05Y-38.43
X64.05Y-40.97
X66.59Y-4.23
X66.59Y-6.77
X66.59Y-38.43
X66.59Y-40.97
X69.13Y-4.23
X69.13Y-6.77
X69.13Y-38.43
X69.13Y-40.97
X79.78Y-31.76
X79.78Y-34.3
X79.78Y-36.84
M30
