%TF.GenerationSoftware,KiCad,Pcbnew,9.0.7*%
%TF.CreationDate,2026-05-29T12:01:31+02:00*%
%TF.ProjectId,BarePi_LED12,42617265-5069-45f4-9c45-4431322e6b69,rev?*%
%TF.SameCoordinates,Original*%
%TF.FileFunction,Other,User*%
%FSLAX46Y46*%
G04 Gerber Fmt 4.6, Leading zero omitted, Abs format (unit mm)*
G04 Created by KiCad (PCBNEW 9.0.7) date 2026-05-29 12:01:31*
%MOMM*%
%LPD*%
G01*
G04 APERTURE LIST*
%ADD10C,0.050000*%
G04 APERTURE END LIST*
%TO.C,R1*%
D10*
X3990000Y-30795000D02*
X1730000Y-30795000D01*
X1730000Y-25895000D01*
X3990000Y-25895000D01*
X3990000Y-30795000D01*
%TO.C,R6*%
X4450714Y-25895000D02*
X6710714Y-25895000D01*
X6710714Y-30795000D01*
X4450714Y-30795000D01*
X4450714Y-25895000D01*
%TO.C,R2*%
X7171429Y-25895000D02*
X9431429Y-25895000D01*
X9431429Y-30795000D01*
X7171429Y-30795000D01*
X7171429Y-25895000D01*
%TO.C,R5*%
X9892143Y-25895000D02*
X12152143Y-25895000D01*
X12152143Y-30795000D01*
X9892143Y-30795000D01*
X9892143Y-25895000D01*
%TO.C,R4*%
X12612857Y-25895000D02*
X14872857Y-25895000D01*
X14872857Y-30795000D01*
X12612857Y-30795000D01*
X12612857Y-25895000D01*
%TO.C,R8*%
X17593571Y-30795000D02*
X15333571Y-30795000D01*
X15333571Y-25895000D01*
X17593571Y-25895000D01*
X17593571Y-30795000D01*
%TO.C,R3*%
X18054286Y-25895000D02*
X20314286Y-25895000D01*
X20314286Y-30795000D01*
X18054286Y-30795000D01*
X18054286Y-25895000D01*
%TO.C,R7*%
X23035000Y-30795000D02*
X20775000Y-30795000D01*
X20775000Y-25895000D01*
X23035000Y-25895000D01*
X23035000Y-30795000D01*
%TO.C,U1*%
X6005000Y-35245000D02*
X15205000Y-35245000D01*
X6005000Y-35245000D02*
X6005000Y-43045000D01*
X15205000Y-35245000D02*
X15205000Y-43045000D01*
X6005000Y-43045000D02*
X15205000Y-43045000D01*
%TD*%
M02*
