%TF.GenerationSoftware,KiCad,Pcbnew,9.0.7*%
%TF.CreationDate,2026-05-23T10:33:02+02:00*%
%TF.ProjectId,BarePi_PGA2350,42617265-5069-45f5-9047-41323335302e,rev?*%
%TF.SameCoordinates,Original*%
%TF.FileFunction,AssemblyDrawing,Bot*%
%FSLAX46Y46*%
G04 Gerber Fmt 4.6, Leading zero omitted, Abs format (unit mm)*
G04 Created by KiCad (PCBNEW 9.0.7) date 2026-05-23 10:33:02*
%MOMM*%
%LPD*%
G01*
G04 APERTURE LIST*
%ADD10C,0.100000*%
G04 APERTURE END LIST*
%TO.C,R6*%
D10*
X15705000Y-2060000D02*
X16955000Y-2060000D01*
X16955000Y-4060000D01*
X15705000Y-4060000D01*
X15705000Y-2060000D01*
%TO.C,R4*%
X22920000Y-3125000D02*
X20920000Y-3125000D01*
X20920000Y-4375000D01*
X22920000Y-4375000D01*
X22920000Y-3125000D01*
%TO.C,R3*%
X22920000Y-965000D02*
X20920000Y-965000D01*
X20920000Y-2215000D01*
X22920000Y-2215000D01*
X22920000Y-965000D01*
%TO.C,C2*%
X11240000Y-1620000D02*
X8040000Y-1620000D01*
X8040000Y-3220000D01*
X11240000Y-3220000D01*
X11240000Y-1620000D01*
%TO.C,C3*%
X11200000Y-4160000D02*
X8000000Y-4160000D01*
X8000000Y-5760000D01*
X11200000Y-5760000D01*
X11200000Y-4160000D01*
%TO.C,C1*%
X9980000Y-46970000D02*
X8780000Y-46970000D01*
X8780000Y-46970000D02*
X8780000Y-43770000D01*
X10380000Y-46570000D02*
X9980000Y-46970000D01*
X10380000Y-43770000D02*
X10380000Y-46570000D01*
X8780000Y-43770000D02*
X10380000Y-43770000D01*
%TO.C,R1*%
X41615000Y-5970000D02*
X40365000Y-5970000D01*
X40365000Y-3970000D01*
X41615000Y-3970000D01*
X41615000Y-5970000D01*
%TO.C,R5*%
X12905000Y-1840000D02*
X14155000Y-1840000D01*
X14155000Y-3840000D01*
X12905000Y-3840000D01*
X12905000Y-1840000D01*
%TO.C,C4*%
X11200000Y-6650000D02*
X8000000Y-6650000D01*
X8000000Y-8250000D01*
X11200000Y-8250000D01*
X11200000Y-6650000D01*
%TO.C,R2*%
X39005000Y-4190000D02*
X37755000Y-4190000D01*
X37755000Y-2190000D01*
X39005000Y-2190000D01*
X39005000Y-4190000D01*
%TD*%
M02*
