M48
; DRILL file {KiCad 9.0.7} date 2026-05-23T10:33:05+0200
; FORMAT={-:-/ absolute / metric / decimal}
; #@! TF.CreationDate,2026-05-23T10:33:05+02:00
; #@! TF.GenerationSoftware,Kicad,Pcbnew,9.0.7
; #@! TF.FileFunction,Plated,1,2,PTH
FMAT,2
METRIC
; #@! TA.AperFunction,Plated,PTH,ViaDrill
T1C0.600
; #@! TA.AperFunction,Plated,PTH,ComponentDrill
T2C1.000
; #@! TA.AperFunction,Plated,PTH,ComponentDrill
T3C1.500
%
G90
G05
T1
X4.51Y-36.76
X6.32Y-46.23
X6.963Y-42.648
X7.04Y-40.314
X8.732Y-40.48
X12.12Y-44.84
X14.423Y-8.91
X15.366Y-45.288
X16.029Y-8.354
X16.674Y-21.048
X16.835Y-40.022
X17.05Y-37.65
X17.118Y-25.417
X17.261Y-5.595
X17.35Y-19.47
X17.507Y-46.135
X17.518Y-7.532
X18.215Y-34.718
X18.37Y-39.571
X18.425Y-8.911
X18.521Y-26.377
X19.216Y-46.026
X19.514Y-1.776
X20.247Y-16.747
X20.629Y-13.393
X20.671Y-15.093
X21.08Y-7.392
X22.398Y-6.214
X23.243Y-31.149
X23.861Y-5.276
X24.22Y-13.72
X24.486Y-11.39
X24.756Y-41.468
X25.099Y-8.591
X25.128Y-4.083
X25.136Y-43.073
X26.18Y-12.385
X26.415Y-6.566
X26.49Y-33.98
X26.689Y-42.688
X27.215Y-44.199
X28.423Y-5.08
X29.388Y-46.945
X30.232Y-45.585
X30.3Y-35.29
X30.34Y-42.64
X31.2Y-58.85
X31.348Y-37.353
X32.103Y-50.56
X32.175Y-5.96
X32.301Y-3.63
X32.358Y-42.315
X33.135Y-37.364
X33.27Y-35.77
X33.862Y-18.338
X34.067Y-3.878
X34.198Y-42.241
X34.45Y-20.41
X34.558Y-24.619
X35.263Y-45.324
X35.527Y-46.902
X35.546Y-35.478
X35.549Y-22.939
X35.622Y-2.139
X35.911Y-21.278
X36.179Y-25.383
X36.393Y-36.835
X36.812Y-45.723
X37.757Y-47.088
X37.774Y-25.514
X37.834Y-35.961
X38.545Y-45.695
X38.61Y-37.465
X39.092Y-48.058
X39.423Y-25.464
X40.109Y-38.095
X41.129Y-25.464
X41.411Y-46.191
X41.529Y-35.571
X41.679Y-38.725
X42.19Y-42.36
X43.05Y-6.78
X43.151Y-25.464
X43.594Y-37.486
X43.809Y-35.206
X44.371Y-46.645
X44.448Y-5.813
X44.73Y-49.698
X45.628Y-17.51
X46.111Y-26.069
X46.23Y-15.92
X46.46Y-49.9
X47.083Y-46.36
X49.073Y-36.626
X49.372Y-43.714
X49.401Y-40.635
X49.896Y-35.138
X51.119Y-40.708
X51.128Y-42.316
X51.89Y-4.34
X52.527Y-36.042
X53.791Y-34.57
X53.983Y-45.115
X54.32Y-10.2
X54.494Y-28.615
X54.75Y-46.518
X58.3Y-7.01
X58.398Y-39.695
X58.729Y-47.889
X58.885Y-58.38
X59.48Y-25.03
X59.551Y-45.61
X60.036Y-51.208
X60.08Y-49.3
X60.221Y-40.177
X61.316Y-36.742
X61.38Y-32.78
X61.38Y-48.02
X61.521Y-41.51
X61.892Y-43.249
X62.49Y-35.06
X63.79Y-20.62
T2
X8.37Y-53.43
X8.37Y-55.97
X10.06Y-10.6
X10.06Y-13.14
X10.06Y-15.68
X10.06Y-18.22
X10.06Y-20.76
X10.06Y-23.3
X10.06Y-25.84
X10.06Y-28.38
X10.06Y-30.92
X10.06Y-33.46
X10.91Y-53.43
X10.91Y-55.97
X12.6Y-10.6
X12.6Y-13.14
X12.6Y-15.68
X12.6Y-18.22
X12.6Y-20.76
X12.6Y-23.3
X12.6Y-25.84
X12.6Y-28.38
X12.6Y-30.92
X12.6Y-33.46
X13.45Y-53.43
X13.45Y-55.97
X15.99Y-53.43
X15.99Y-55.97
X18.53Y-53.43
X18.53Y-55.97
X21.07Y-53.43
X21.07Y-55.97
X23.61Y-53.43
X23.61Y-55.97
X26.15Y-53.43
X26.15Y-55.97
X28.69Y-53.43
X28.69Y-55.97
X28.98Y-9.48
X28.98Y-12.02
X28.98Y-14.56
X28.98Y-17.1
X28.98Y-19.64
X28.98Y-22.18
X28.98Y-24.72
X28.98Y-27.26
X28.98Y-29.8
X28.98Y-32.34
X31.23Y-53.43
X31.23Y-55.97
X31.52Y-17.035
X31.52Y-29.735
X31.52Y-9.48
X31.52Y-12.02
X31.52Y-14.56
X31.52Y-19.64
X31.52Y-22.18
X31.52Y-24.72
X31.52Y-27.26
X31.52Y-32.34
X33.77Y-53.43
X33.77Y-55.97
X34.06Y-9.48
X34.06Y-12.02
X34.06Y-29.8
X34.06Y-32.34
X36.31Y-53.43
X36.31Y-55.97
X36.6Y-9.48
X36.6Y-12.02
X36.6Y-29.8
X36.6Y-32.34
X38.85Y-53.43
X38.85Y-55.97
X39.14Y-9.48
X39.14Y-12.02
X39.14Y-29.8
X39.14Y-32.34
X41.39Y-53.43
X41.39Y-55.97
X41.68Y-9.48
X41.68Y-12.02
X41.68Y-29.8
X41.68Y-32.34
X43.93Y-53.43
X43.93Y-55.97
X44.22Y-9.48
X44.22Y-12.02
X44.22Y-29.8
X44.22Y-32.34
X46.47Y-53.43
X46.47Y-55.97
X46.76Y-9.48
X46.76Y-12.02
X46.76Y-29.8
X46.76Y-32.34
X49.01Y-53.43
X49.01Y-55.97
X49.3Y-9.48
X49.3Y-12.02
X49.3Y-14.56
X49.3Y-17.1
X49.3Y-19.64
X49.3Y-22.18
X49.3Y-24.72
X49.3Y-27.26
X49.3Y-29.8
X49.3Y-32.34
X51.55Y-53.43
X51.55Y-55.97
X51.84Y-17.035
X51.84Y-29.735
X51.84Y-9.48
X51.84Y-12.02
X51.84Y-14.56
X51.84Y-19.64
X51.84Y-22.18
X51.84Y-24.72
X51.84Y-27.26
X51.84Y-32.34
X54.09Y-53.43
X54.09Y-55.97
X56.63Y-53.43
X56.63Y-55.97
X62.615Y-9.52
X62.615Y-14.02
T3
X60.115Y-8.27
X60.115Y-15.27
M30
