%TF.GenerationSoftware,KiCad,Pcbnew,9.0.7*%
%TF.CreationDate,2026-05-23T10:33:02+02:00*%
%TF.ProjectId,BarePi_PGA2350,42617265-5069-45f5-9047-41323335302e,rev?*%
%TF.SameCoordinates,Original*%
%TF.FileFunction,Legend,Top*%
%TF.FilePolarity,Positive*%
%FSLAX46Y46*%
G04 Gerber Fmt 4.6, Leading zero omitted, Abs format (unit mm)*
G04 Created by KiCad (PCBNEW 9.0.7) date 2026-05-23 10:33:02*
%MOMM*%
%LPD*%
G01*
G04 APERTURE LIST*
%ADD10C,0.150000*%
G04 APERTURE END LIST*
D10*
X5047866Y-52206419D02*
X5047866Y-52920704D01*
X5047866Y-52920704D02*
X5000247Y-53063561D01*
X5000247Y-53063561D02*
X4905009Y-53158800D01*
X4905009Y-53158800D02*
X4762152Y-53206419D01*
X4762152Y-53206419D02*
X4666914Y-53206419D01*
X6047866Y-53206419D02*
X5476438Y-53206419D01*
X5762152Y-53206419D02*
X5762152Y-52206419D01*
X5762152Y-52206419D02*
X5666914Y-52349276D01*
X5666914Y-52349276D02*
X5571676Y-52444514D01*
X5571676Y-52444514D02*
X5476438Y-52492133D01*
X6370588Y-56729819D02*
X5799160Y-56729819D01*
X6084874Y-56729819D02*
X6084874Y-55729819D01*
X6084874Y-55729819D02*
X5989636Y-55872676D01*
X5989636Y-55872676D02*
X5894398Y-55967914D01*
X5894398Y-55967914D02*
X5799160Y-56015533D01*
X24708095Y-21934819D02*
X24708095Y-22744342D01*
X24708095Y-22744342D02*
X24755714Y-22839580D01*
X24755714Y-22839580D02*
X24803333Y-22887200D01*
X24803333Y-22887200D02*
X24898571Y-22934819D01*
X24898571Y-22934819D02*
X25089047Y-22934819D01*
X25089047Y-22934819D02*
X25184285Y-22887200D01*
X25184285Y-22887200D02*
X25231904Y-22839580D01*
X25231904Y-22839580D02*
X25279523Y-22744342D01*
X25279523Y-22744342D02*
X25279523Y-21934819D01*
X26279523Y-22934819D02*
X25708095Y-22934819D01*
X25993809Y-22934819D02*
X25993809Y-21934819D01*
X25993809Y-21934819D02*
X25898571Y-22077676D01*
X25898571Y-22077676D02*
X25803333Y-22172914D01*
X25803333Y-22172914D02*
X25708095Y-22220533D01*
X11529166Y-36254819D02*
X11529166Y-36969104D01*
X11529166Y-36969104D02*
X11481547Y-37111961D01*
X11481547Y-37111961D02*
X11386309Y-37207200D01*
X11386309Y-37207200D02*
X11243452Y-37254819D01*
X11243452Y-37254819D02*
X11148214Y-37254819D01*
X11957738Y-36350057D02*
X12005357Y-36302438D01*
X12005357Y-36302438D02*
X12100595Y-36254819D01*
X12100595Y-36254819D02*
X12338690Y-36254819D01*
X12338690Y-36254819D02*
X12433928Y-36302438D01*
X12433928Y-36302438D02*
X12481547Y-36350057D01*
X12481547Y-36350057D02*
X12529166Y-36445295D01*
X12529166Y-36445295D02*
X12529166Y-36540533D01*
X12529166Y-36540533D02*
X12481547Y-36683390D01*
X12481547Y-36683390D02*
X11910119Y-37254819D01*
X11910119Y-37254819D02*
X12529166Y-37254819D01*
X1546666Y-36944819D02*
X1546666Y-37659104D01*
X1546666Y-37659104D02*
X1499047Y-37801961D01*
X1499047Y-37801961D02*
X1403809Y-37897200D01*
X1403809Y-37897200D02*
X1260952Y-37944819D01*
X1260952Y-37944819D02*
X1165714Y-37944819D01*
X1927619Y-36944819D02*
X2546666Y-36944819D01*
X2546666Y-36944819D02*
X2213333Y-37325771D01*
X2213333Y-37325771D02*
X2356190Y-37325771D01*
X2356190Y-37325771D02*
X2451428Y-37373390D01*
X2451428Y-37373390D02*
X2499047Y-37421009D01*
X2499047Y-37421009D02*
X2546666Y-37516247D01*
X2546666Y-37516247D02*
X2546666Y-37754342D01*
X2546666Y-37754342D02*
X2499047Y-37849580D01*
X2499047Y-37849580D02*
X2451428Y-37897200D01*
X2451428Y-37897200D02*
X2356190Y-37944819D01*
X2356190Y-37944819D02*
X2070476Y-37944819D01*
X2070476Y-37944819D02*
X1975238Y-37897200D01*
X1975238Y-37897200D02*
X1927619Y-37849580D01*
X55426667Y-11917200D02*
X55569524Y-11964819D01*
X55569524Y-11964819D02*
X55807619Y-11964819D01*
X55807619Y-11964819D02*
X55902857Y-11917200D01*
X55902857Y-11917200D02*
X55950476Y-11869580D01*
X55950476Y-11869580D02*
X55998095Y-11774342D01*
X55998095Y-11774342D02*
X55998095Y-11679104D01*
X55998095Y-11679104D02*
X55950476Y-11583866D01*
X55950476Y-11583866D02*
X55902857Y-11536247D01*
X55902857Y-11536247D02*
X55807619Y-11488628D01*
X55807619Y-11488628D02*
X55617143Y-11441009D01*
X55617143Y-11441009D02*
X55521905Y-11393390D01*
X55521905Y-11393390D02*
X55474286Y-11345771D01*
X55474286Y-11345771D02*
X55426667Y-11250533D01*
X55426667Y-11250533D02*
X55426667Y-11155295D01*
X55426667Y-11155295D02*
X55474286Y-11060057D01*
X55474286Y-11060057D02*
X55521905Y-11012438D01*
X55521905Y-11012438D02*
X55617143Y-10964819D01*
X55617143Y-10964819D02*
X55855238Y-10964819D01*
X55855238Y-10964819D02*
X55998095Y-11012438D01*
X56331429Y-10964819D02*
X56569524Y-11964819D01*
X56569524Y-11964819D02*
X56760000Y-11250533D01*
X56760000Y-11250533D02*
X56950476Y-11964819D01*
X56950476Y-11964819D02*
X57188572Y-10964819D01*
X58093333Y-11964819D02*
X57521905Y-11964819D01*
X57807619Y-11964819D02*
X57807619Y-10964819D01*
X57807619Y-10964819D02*
X57712381Y-11107676D01*
X57712381Y-11107676D02*
X57617143Y-11202914D01*
X57617143Y-11202914D02*
X57521905Y-11250533D01*
M02*
