%TF.GenerationSoftware,KiCad,Pcbnew,9.0.7*%
%TF.CreationDate,2026-05-23T10:33:02+02:00*%
%TF.ProjectId,BarePi_PGA2350,42617265-5069-45f5-9047-41323335302e,rev?*%
%TF.SameCoordinates,Original*%
%TF.FileFunction,AssemblyDrawing,Top*%
%FSLAX46Y46*%
G04 Gerber Fmt 4.6, Leading zero omitted, Abs format (unit mm)*
G04 Created by KiCad (PCBNEW 9.0.7) date 2026-05-23 10:33:02*
%MOMM*%
%LPD*%
G01*
G04 APERTURE LIST*
%ADD10C,0.150000*%
%ADD11C,0.080000*%
%ADD12C,0.120000*%
%ADD13C,0.100000*%
%ADD14C,0.800000*%
G04 APERTURE END LIST*
D10*
X2950000Y-54064819D02*
X3140476Y-54064819D01*
X3140476Y-54064819D02*
X3235714Y-54112438D01*
X3235714Y-54112438D02*
X3330952Y-54207676D01*
X3330952Y-54207676D02*
X3378571Y-54398152D01*
X3378571Y-54398152D02*
X3378571Y-54731485D01*
X3378571Y-54731485D02*
X3330952Y-54921961D01*
X3330952Y-54921961D02*
X3235714Y-55017200D01*
X3235714Y-55017200D02*
X3140476Y-55064819D01*
X3140476Y-55064819D02*
X2950000Y-55064819D01*
X2950000Y-55064819D02*
X2854762Y-55017200D01*
X2854762Y-55017200D02*
X2759524Y-54921961D01*
X2759524Y-54921961D02*
X2711905Y-54731485D01*
X2711905Y-54731485D02*
X2711905Y-54398152D01*
X2711905Y-54398152D02*
X2759524Y-54207676D01*
X2759524Y-54207676D02*
X2854762Y-54112438D01*
X2854762Y-54112438D02*
X2950000Y-54064819D01*
X3807143Y-54064819D02*
X3807143Y-54874342D01*
X3807143Y-54874342D02*
X3854762Y-54969580D01*
X3854762Y-54969580D02*
X3902381Y-55017200D01*
X3902381Y-55017200D02*
X3997619Y-55064819D01*
X3997619Y-55064819D02*
X4188095Y-55064819D01*
X4188095Y-55064819D02*
X4283333Y-55017200D01*
X4283333Y-55017200D02*
X4330952Y-54969580D01*
X4330952Y-54969580D02*
X4378571Y-54874342D01*
X4378571Y-54874342D02*
X4378571Y-54064819D01*
X4711905Y-54064819D02*
X5283333Y-54064819D01*
X4997619Y-55064819D02*
X4997619Y-54064819D01*
X5026666Y-52234819D02*
X5026666Y-52949104D01*
X5026666Y-52949104D02*
X4979047Y-53091961D01*
X4979047Y-53091961D02*
X4883809Y-53187200D01*
X4883809Y-53187200D02*
X4740952Y-53234819D01*
X4740952Y-53234819D02*
X4645714Y-53234819D01*
X6026666Y-53234819D02*
X5455238Y-53234819D01*
X5740952Y-53234819D02*
X5740952Y-52234819D01*
X5740952Y-52234819D02*
X5645714Y-52377676D01*
X5645714Y-52377676D02*
X5550476Y-52472914D01*
X5550476Y-52472914D02*
X5455238Y-52520533D01*
X20204762Y-21094819D02*
X20204762Y-20094819D01*
X20204762Y-20094819D02*
X20585714Y-20094819D01*
X20585714Y-20094819D02*
X20680952Y-20142438D01*
X20680952Y-20142438D02*
X20728571Y-20190057D01*
X20728571Y-20190057D02*
X20776190Y-20285295D01*
X20776190Y-20285295D02*
X20776190Y-20428152D01*
X20776190Y-20428152D02*
X20728571Y-20523390D01*
X20728571Y-20523390D02*
X20680952Y-20571009D01*
X20680952Y-20571009D02*
X20585714Y-20618628D01*
X20585714Y-20618628D02*
X20204762Y-20618628D01*
X21728571Y-20142438D02*
X21633333Y-20094819D01*
X21633333Y-20094819D02*
X21490476Y-20094819D01*
X21490476Y-20094819D02*
X21347619Y-20142438D01*
X21347619Y-20142438D02*
X21252381Y-20237676D01*
X21252381Y-20237676D02*
X21204762Y-20332914D01*
X21204762Y-20332914D02*
X21157143Y-20523390D01*
X21157143Y-20523390D02*
X21157143Y-20666247D01*
X21157143Y-20666247D02*
X21204762Y-20856723D01*
X21204762Y-20856723D02*
X21252381Y-20951961D01*
X21252381Y-20951961D02*
X21347619Y-21047200D01*
X21347619Y-21047200D02*
X21490476Y-21094819D01*
X21490476Y-21094819D02*
X21585714Y-21094819D01*
X21585714Y-21094819D02*
X21728571Y-21047200D01*
X21728571Y-21047200D02*
X21776190Y-20999580D01*
X21776190Y-20999580D02*
X21776190Y-20666247D01*
X21776190Y-20666247D02*
X21585714Y-20666247D01*
X22157143Y-20809104D02*
X22633333Y-20809104D01*
X22061905Y-21094819D02*
X22395238Y-20094819D01*
X22395238Y-20094819D02*
X22728571Y-21094819D01*
X23014286Y-20190057D02*
X23061905Y-20142438D01*
X23061905Y-20142438D02*
X23157143Y-20094819D01*
X23157143Y-20094819D02*
X23395238Y-20094819D01*
X23395238Y-20094819D02*
X23490476Y-20142438D01*
X23490476Y-20142438D02*
X23538095Y-20190057D01*
X23538095Y-20190057D02*
X23585714Y-20285295D01*
X23585714Y-20285295D02*
X23585714Y-20380533D01*
X23585714Y-20380533D02*
X23538095Y-20523390D01*
X23538095Y-20523390D02*
X22966667Y-21094819D01*
X22966667Y-21094819D02*
X23585714Y-21094819D01*
X23919048Y-20094819D02*
X24538095Y-20094819D01*
X24538095Y-20094819D02*
X24204762Y-20475771D01*
X24204762Y-20475771D02*
X24347619Y-20475771D01*
X24347619Y-20475771D02*
X24442857Y-20523390D01*
X24442857Y-20523390D02*
X24490476Y-20571009D01*
X24490476Y-20571009D02*
X24538095Y-20666247D01*
X24538095Y-20666247D02*
X24538095Y-20904342D01*
X24538095Y-20904342D02*
X24490476Y-20999580D01*
X24490476Y-20999580D02*
X24442857Y-21047200D01*
X24442857Y-21047200D02*
X24347619Y-21094819D01*
X24347619Y-21094819D02*
X24061905Y-21094819D01*
X24061905Y-21094819D02*
X23966667Y-21047200D01*
X23966667Y-21047200D02*
X23919048Y-20999580D01*
X25442857Y-20094819D02*
X24966667Y-20094819D01*
X24966667Y-20094819D02*
X24919048Y-20571009D01*
X24919048Y-20571009D02*
X24966667Y-20523390D01*
X24966667Y-20523390D02*
X25061905Y-20475771D01*
X25061905Y-20475771D02*
X25300000Y-20475771D01*
X25300000Y-20475771D02*
X25395238Y-20523390D01*
X25395238Y-20523390D02*
X25442857Y-20571009D01*
X25442857Y-20571009D02*
X25490476Y-20666247D01*
X25490476Y-20666247D02*
X25490476Y-20904342D01*
X25490476Y-20904342D02*
X25442857Y-20999580D01*
X25442857Y-20999580D02*
X25395238Y-21047200D01*
X25395238Y-21047200D02*
X25300000Y-21094819D01*
X25300000Y-21094819D02*
X25061905Y-21094819D01*
X25061905Y-21094819D02*
X24966667Y-21047200D01*
X24966667Y-21047200D02*
X24919048Y-20999580D01*
X26109524Y-20094819D02*
X26204762Y-20094819D01*
X26204762Y-20094819D02*
X26300000Y-20142438D01*
X26300000Y-20142438D02*
X26347619Y-20190057D01*
X26347619Y-20190057D02*
X26395238Y-20285295D01*
X26395238Y-20285295D02*
X26442857Y-20475771D01*
X26442857Y-20475771D02*
X26442857Y-20713866D01*
X26442857Y-20713866D02*
X26395238Y-20904342D01*
X26395238Y-20904342D02*
X26347619Y-20999580D01*
X26347619Y-20999580D02*
X26300000Y-21047200D01*
X26300000Y-21047200D02*
X26204762Y-21094819D01*
X26204762Y-21094819D02*
X26109524Y-21094819D01*
X26109524Y-21094819D02*
X26014286Y-21047200D01*
X26014286Y-21047200D02*
X25966667Y-20999580D01*
X25966667Y-20999580D02*
X25919048Y-20904342D01*
X25919048Y-20904342D02*
X25871429Y-20713866D01*
X25871429Y-20713866D02*
X25871429Y-20475771D01*
X25871429Y-20475771D02*
X25919048Y-20285295D01*
X25919048Y-20285295D02*
X25966667Y-20190057D01*
X25966667Y-20190057D02*
X26014286Y-20142438D01*
X26014286Y-20142438D02*
X26109524Y-20094819D01*
X24708095Y-21934819D02*
X24708095Y-22744342D01*
X24708095Y-22744342D02*
X24755714Y-22839580D01*
X24755714Y-22839580D02*
X24803333Y-22887200D01*
X24803333Y-22887200D02*
X24898571Y-22934819D01*
X24898571Y-22934819D02*
X25089047Y-22934819D01*
X25089047Y-22934819D02*
X25184285Y-22887200D01*
X25184285Y-22887200D02*
X25231904Y-22839580D01*
X25231904Y-22839580D02*
X25279523Y-22744342D01*
X25279523Y-22744342D02*
X25279523Y-21934819D01*
X26279523Y-22934819D02*
X25708095Y-22934819D01*
X25993809Y-22934819D02*
X25993809Y-21934819D01*
X25993809Y-21934819D02*
X25898571Y-22077676D01*
X25898571Y-22077676D02*
X25803333Y-22172914D01*
X25803333Y-22172914D02*
X25708095Y-22220533D01*
X4211905Y-36684819D02*
X4211905Y-35684819D01*
X4211905Y-35684819D02*
X4450000Y-35684819D01*
X4450000Y-35684819D02*
X4592857Y-35732438D01*
X4592857Y-35732438D02*
X4688095Y-35827676D01*
X4688095Y-35827676D02*
X4735714Y-35922914D01*
X4735714Y-35922914D02*
X4783333Y-36113390D01*
X4783333Y-36113390D02*
X4783333Y-36256247D01*
X4783333Y-36256247D02*
X4735714Y-36446723D01*
X4735714Y-36446723D02*
X4688095Y-36541961D01*
X4688095Y-36541961D02*
X4592857Y-36637200D01*
X4592857Y-36637200D02*
X4450000Y-36684819D01*
X4450000Y-36684819D02*
X4211905Y-36684819D01*
X5211905Y-36684819D02*
X5211905Y-35684819D01*
X5640476Y-36637200D02*
X5783333Y-36684819D01*
X5783333Y-36684819D02*
X6021428Y-36684819D01*
X6021428Y-36684819D02*
X6116666Y-36637200D01*
X6116666Y-36637200D02*
X6164285Y-36589580D01*
X6164285Y-36589580D02*
X6211904Y-36494342D01*
X6211904Y-36494342D02*
X6211904Y-36399104D01*
X6211904Y-36399104D02*
X6164285Y-36303866D01*
X6164285Y-36303866D02*
X6116666Y-36256247D01*
X6116666Y-36256247D02*
X6021428Y-36208628D01*
X6021428Y-36208628D02*
X5830952Y-36161009D01*
X5830952Y-36161009D02*
X5735714Y-36113390D01*
X5735714Y-36113390D02*
X5688095Y-36065771D01*
X5688095Y-36065771D02*
X5640476Y-35970533D01*
X5640476Y-35970533D02*
X5640476Y-35875295D01*
X5640476Y-35875295D02*
X5688095Y-35780057D01*
X5688095Y-35780057D02*
X5735714Y-35732438D01*
X5735714Y-35732438D02*
X5830952Y-35684819D01*
X5830952Y-35684819D02*
X6069047Y-35684819D01*
X6069047Y-35684819D02*
X6211904Y-35732438D01*
X6640476Y-36684819D02*
X6640476Y-35684819D01*
X6640476Y-35684819D02*
X7021428Y-35684819D01*
X7021428Y-35684819D02*
X7116666Y-35732438D01*
X7116666Y-35732438D02*
X7164285Y-35780057D01*
X7164285Y-35780057D02*
X7211904Y-35875295D01*
X7211904Y-35875295D02*
X7211904Y-36018152D01*
X7211904Y-36018152D02*
X7164285Y-36113390D01*
X7164285Y-36113390D02*
X7116666Y-36161009D01*
X7116666Y-36161009D02*
X7021428Y-36208628D01*
X7021428Y-36208628D02*
X6640476Y-36208628D01*
X8116666Y-36684819D02*
X7640476Y-36684819D01*
X7640476Y-36684819D02*
X7640476Y-35684819D01*
X8402381Y-36399104D02*
X8878571Y-36399104D01*
X8307143Y-36684819D02*
X8640476Y-35684819D01*
X8640476Y-35684819D02*
X8973809Y-36684819D01*
X9497619Y-36208628D02*
X9497619Y-36684819D01*
X9164286Y-35684819D02*
X9497619Y-36208628D01*
X9497619Y-36208628D02*
X9830952Y-35684819D01*
X11549166Y-36264819D02*
X11549166Y-36979104D01*
X11549166Y-36979104D02*
X11501547Y-37121961D01*
X11501547Y-37121961D02*
X11406309Y-37217200D01*
X11406309Y-37217200D02*
X11263452Y-37264819D01*
X11263452Y-37264819D02*
X11168214Y-37264819D01*
X11977738Y-36360057D02*
X12025357Y-36312438D01*
X12025357Y-36312438D02*
X12120595Y-36264819D01*
X12120595Y-36264819D02*
X12358690Y-36264819D01*
X12358690Y-36264819D02*
X12453928Y-36312438D01*
X12453928Y-36312438D02*
X12501547Y-36360057D01*
X12501547Y-36360057D02*
X12549166Y-36455295D01*
X12549166Y-36455295D02*
X12549166Y-36550533D01*
X12549166Y-36550533D02*
X12501547Y-36693390D01*
X12501547Y-36693390D02*
X11930119Y-37264819D01*
X11930119Y-37264819D02*
X12549166Y-37264819D01*
X1688095Y-49634819D02*
X1688095Y-50444342D01*
X1688095Y-50444342D02*
X1735714Y-50539580D01*
X1735714Y-50539580D02*
X1783333Y-50587200D01*
X1783333Y-50587200D02*
X1878571Y-50634819D01*
X1878571Y-50634819D02*
X2069047Y-50634819D01*
X2069047Y-50634819D02*
X2164285Y-50587200D01*
X2164285Y-50587200D02*
X2211904Y-50539580D01*
X2211904Y-50539580D02*
X2259523Y-50444342D01*
X2259523Y-50444342D02*
X2259523Y-49634819D01*
X2688095Y-50587200D02*
X2830952Y-50634819D01*
X2830952Y-50634819D02*
X3069047Y-50634819D01*
X3069047Y-50634819D02*
X3164285Y-50587200D01*
X3164285Y-50587200D02*
X3211904Y-50539580D01*
X3211904Y-50539580D02*
X3259523Y-50444342D01*
X3259523Y-50444342D02*
X3259523Y-50349104D01*
X3259523Y-50349104D02*
X3211904Y-50253866D01*
X3211904Y-50253866D02*
X3164285Y-50206247D01*
X3164285Y-50206247D02*
X3069047Y-50158628D01*
X3069047Y-50158628D02*
X2878571Y-50111009D01*
X2878571Y-50111009D02*
X2783333Y-50063390D01*
X2783333Y-50063390D02*
X2735714Y-50015771D01*
X2735714Y-50015771D02*
X2688095Y-49920533D01*
X2688095Y-49920533D02*
X2688095Y-49825295D01*
X2688095Y-49825295D02*
X2735714Y-49730057D01*
X2735714Y-49730057D02*
X2783333Y-49682438D01*
X2783333Y-49682438D02*
X2878571Y-49634819D01*
X2878571Y-49634819D02*
X3116666Y-49634819D01*
X3116666Y-49634819D02*
X3259523Y-49682438D01*
X4021428Y-50111009D02*
X4164285Y-50158628D01*
X4164285Y-50158628D02*
X4211904Y-50206247D01*
X4211904Y-50206247D02*
X4259523Y-50301485D01*
X4259523Y-50301485D02*
X4259523Y-50444342D01*
X4259523Y-50444342D02*
X4211904Y-50539580D01*
X4211904Y-50539580D02*
X4164285Y-50587200D01*
X4164285Y-50587200D02*
X4069047Y-50634819D01*
X4069047Y-50634819D02*
X3688095Y-50634819D01*
X3688095Y-50634819D02*
X3688095Y-49634819D01*
X3688095Y-49634819D02*
X4021428Y-49634819D01*
X4021428Y-49634819D02*
X4116666Y-49682438D01*
X4116666Y-49682438D02*
X4164285Y-49730057D01*
X4164285Y-49730057D02*
X4211904Y-49825295D01*
X4211904Y-49825295D02*
X4211904Y-49920533D01*
X4211904Y-49920533D02*
X4164285Y-50015771D01*
X4164285Y-50015771D02*
X4116666Y-50063390D01*
X4116666Y-50063390D02*
X4021428Y-50111009D01*
X4021428Y-50111009D02*
X3688095Y-50111009D01*
X1546666Y-36944819D02*
X1546666Y-37659104D01*
X1546666Y-37659104D02*
X1499047Y-37801961D01*
X1499047Y-37801961D02*
X1403809Y-37897200D01*
X1403809Y-37897200D02*
X1260952Y-37944819D01*
X1260952Y-37944819D02*
X1165714Y-37944819D01*
X1927619Y-36944819D02*
X2546666Y-36944819D01*
X2546666Y-36944819D02*
X2213333Y-37325771D01*
X2213333Y-37325771D02*
X2356190Y-37325771D01*
X2356190Y-37325771D02*
X2451428Y-37373390D01*
X2451428Y-37373390D02*
X2499047Y-37421009D01*
X2499047Y-37421009D02*
X2546666Y-37516247D01*
X2546666Y-37516247D02*
X2546666Y-37754342D01*
X2546666Y-37754342D02*
X2499047Y-37849580D01*
X2499047Y-37849580D02*
X2451428Y-37897200D01*
X2451428Y-37897200D02*
X2356190Y-37944819D01*
X2356190Y-37944819D02*
X2070476Y-37944819D01*
X2070476Y-37944819D02*
X1975238Y-37897200D01*
X1975238Y-37897200D02*
X1927619Y-37849580D01*
X58369523Y-17311009D02*
X58512380Y-17358628D01*
X58512380Y-17358628D02*
X58559999Y-17406247D01*
X58559999Y-17406247D02*
X58607618Y-17501485D01*
X58607618Y-17501485D02*
X58607618Y-17644342D01*
X58607618Y-17644342D02*
X58559999Y-17739580D01*
X58559999Y-17739580D02*
X58512380Y-17787200D01*
X58512380Y-17787200D02*
X58417142Y-17834819D01*
X58417142Y-17834819D02*
X58036190Y-17834819D01*
X58036190Y-17834819D02*
X58036190Y-16834819D01*
X58036190Y-16834819D02*
X58369523Y-16834819D01*
X58369523Y-16834819D02*
X58464761Y-16882438D01*
X58464761Y-16882438D02*
X58512380Y-16930057D01*
X58512380Y-16930057D02*
X58559999Y-17025295D01*
X58559999Y-17025295D02*
X58559999Y-17120533D01*
X58559999Y-17120533D02*
X58512380Y-17215771D01*
X58512380Y-17215771D02*
X58464761Y-17263390D01*
X58464761Y-17263390D02*
X58369523Y-17311009D01*
X58369523Y-17311009D02*
X58036190Y-17311009D01*
X59226666Y-16834819D02*
X59417142Y-16834819D01*
X59417142Y-16834819D02*
X59512380Y-16882438D01*
X59512380Y-16882438D02*
X59607618Y-16977676D01*
X59607618Y-16977676D02*
X59655237Y-17168152D01*
X59655237Y-17168152D02*
X59655237Y-17501485D01*
X59655237Y-17501485D02*
X59607618Y-17691961D01*
X59607618Y-17691961D02*
X59512380Y-17787200D01*
X59512380Y-17787200D02*
X59417142Y-17834819D01*
X59417142Y-17834819D02*
X59226666Y-17834819D01*
X59226666Y-17834819D02*
X59131428Y-17787200D01*
X59131428Y-17787200D02*
X59036190Y-17691961D01*
X59036190Y-17691961D02*
X58988571Y-17501485D01*
X58988571Y-17501485D02*
X58988571Y-17168152D01*
X58988571Y-17168152D02*
X59036190Y-16977676D01*
X59036190Y-16977676D02*
X59131428Y-16882438D01*
X59131428Y-16882438D02*
X59226666Y-16834819D01*
X60274285Y-16834819D02*
X60464761Y-16834819D01*
X60464761Y-16834819D02*
X60559999Y-16882438D01*
X60559999Y-16882438D02*
X60655237Y-16977676D01*
X60655237Y-16977676D02*
X60702856Y-17168152D01*
X60702856Y-17168152D02*
X60702856Y-17501485D01*
X60702856Y-17501485D02*
X60655237Y-17691961D01*
X60655237Y-17691961D02*
X60559999Y-17787200D01*
X60559999Y-17787200D02*
X60464761Y-17834819D01*
X60464761Y-17834819D02*
X60274285Y-17834819D01*
X60274285Y-17834819D02*
X60179047Y-17787200D01*
X60179047Y-17787200D02*
X60083809Y-17691961D01*
X60083809Y-17691961D02*
X60036190Y-17501485D01*
X60036190Y-17501485D02*
X60036190Y-17168152D01*
X60036190Y-17168152D02*
X60083809Y-16977676D01*
X60083809Y-16977676D02*
X60179047Y-16882438D01*
X60179047Y-16882438D02*
X60274285Y-16834819D01*
X60988571Y-16834819D02*
X61559999Y-16834819D01*
X61274285Y-17834819D02*
X61274285Y-16834819D01*
X61845714Y-17787200D02*
X61988571Y-17834819D01*
X61988571Y-17834819D02*
X62226666Y-17834819D01*
X62226666Y-17834819D02*
X62321904Y-17787200D01*
X62321904Y-17787200D02*
X62369523Y-17739580D01*
X62369523Y-17739580D02*
X62417142Y-17644342D01*
X62417142Y-17644342D02*
X62417142Y-17549104D01*
X62417142Y-17549104D02*
X62369523Y-17453866D01*
X62369523Y-17453866D02*
X62321904Y-17406247D01*
X62321904Y-17406247D02*
X62226666Y-17358628D01*
X62226666Y-17358628D02*
X62036190Y-17311009D01*
X62036190Y-17311009D02*
X61940952Y-17263390D01*
X61940952Y-17263390D02*
X61893333Y-17215771D01*
X61893333Y-17215771D02*
X61845714Y-17120533D01*
X61845714Y-17120533D02*
X61845714Y-17025295D01*
X61845714Y-17025295D02*
X61893333Y-16930057D01*
X61893333Y-16930057D02*
X61940952Y-16882438D01*
X61940952Y-16882438D02*
X62036190Y-16834819D01*
X62036190Y-16834819D02*
X62274285Y-16834819D01*
X62274285Y-16834819D02*
X62417142Y-16882438D01*
X62845714Y-17311009D02*
X63179047Y-17311009D01*
X63321904Y-17834819D02*
X62845714Y-17834819D01*
X62845714Y-17834819D02*
X62845714Y-16834819D01*
X62845714Y-16834819D02*
X63321904Y-16834819D01*
X64226666Y-17834819D02*
X63750476Y-17834819D01*
X63750476Y-17834819D02*
X63750476Y-16834819D01*
X55426667Y-11917200D02*
X55569524Y-11964819D01*
X55569524Y-11964819D02*
X55807619Y-11964819D01*
X55807619Y-11964819D02*
X55902857Y-11917200D01*
X55902857Y-11917200D02*
X55950476Y-11869580D01*
X55950476Y-11869580D02*
X55998095Y-11774342D01*
X55998095Y-11774342D02*
X55998095Y-11679104D01*
X55998095Y-11679104D02*
X55950476Y-11583866D01*
X55950476Y-11583866D02*
X55902857Y-11536247D01*
X55902857Y-11536247D02*
X55807619Y-11488628D01*
X55807619Y-11488628D02*
X55617143Y-11441009D01*
X55617143Y-11441009D02*
X55521905Y-11393390D01*
X55521905Y-11393390D02*
X55474286Y-11345771D01*
X55474286Y-11345771D02*
X55426667Y-11250533D01*
X55426667Y-11250533D02*
X55426667Y-11155295D01*
X55426667Y-11155295D02*
X55474286Y-11060057D01*
X55474286Y-11060057D02*
X55521905Y-11012438D01*
X55521905Y-11012438D02*
X55617143Y-10964819D01*
X55617143Y-10964819D02*
X55855238Y-10964819D01*
X55855238Y-10964819D02*
X55998095Y-11012438D01*
X56331429Y-10964819D02*
X56569524Y-11964819D01*
X56569524Y-11964819D02*
X56760000Y-11250533D01*
X56760000Y-11250533D02*
X56950476Y-11964819D01*
X56950476Y-11964819D02*
X57188572Y-10964819D01*
X58093333Y-11964819D02*
X57521905Y-11964819D01*
X57807619Y-11964819D02*
X57807619Y-10964819D01*
X57807619Y-10964819D02*
X57712381Y-11107676D01*
X57712381Y-11107676D02*
X57617143Y-11202914D01*
X57617143Y-11202914D02*
X57521905Y-11250533D01*
X17148095Y-908152D02*
X17148095Y-1574819D01*
X16910000Y-527200D02*
X16671905Y-1241485D01*
X16671905Y-1241485D02*
X17290952Y-1241485D01*
X17862381Y-574819D02*
X17957619Y-574819D01*
X17957619Y-574819D02*
X18052857Y-622438D01*
X18052857Y-622438D02*
X18100476Y-670057D01*
X18100476Y-670057D02*
X18148095Y-765295D01*
X18148095Y-765295D02*
X18195714Y-955771D01*
X18195714Y-955771D02*
X18195714Y-1193866D01*
X18195714Y-1193866D02*
X18148095Y-1384342D01*
X18148095Y-1384342D02*
X18100476Y-1479580D01*
X18100476Y-1479580D02*
X18052857Y-1527200D01*
X18052857Y-1527200D02*
X17957619Y-1574819D01*
X17957619Y-1574819D02*
X17862381Y-1574819D01*
X17862381Y-1574819D02*
X17767143Y-1527200D01*
X17767143Y-1527200D02*
X17719524Y-1479580D01*
X17719524Y-1479580D02*
X17671905Y-1384342D01*
X17671905Y-1384342D02*
X17624286Y-1193866D01*
X17624286Y-1193866D02*
X17624286Y-955771D01*
X17624286Y-955771D02*
X17671905Y-765295D01*
X17671905Y-765295D02*
X17719524Y-670057D01*
X17719524Y-670057D02*
X17767143Y-622438D01*
X17767143Y-622438D02*
X17862381Y-574819D01*
X18814762Y-574819D02*
X18910000Y-574819D01*
X18910000Y-574819D02*
X19005238Y-622438D01*
X19005238Y-622438D02*
X19052857Y-670057D01*
X19052857Y-670057D02*
X19100476Y-765295D01*
X19100476Y-765295D02*
X19148095Y-955771D01*
X19148095Y-955771D02*
X19148095Y-1193866D01*
X19148095Y-1193866D02*
X19100476Y-1384342D01*
X19100476Y-1384342D02*
X19052857Y-1479580D01*
X19052857Y-1479580D02*
X19005238Y-1527200D01*
X19005238Y-1527200D02*
X18910000Y-1574819D01*
X18910000Y-1574819D02*
X18814762Y-1574819D01*
X18814762Y-1574819D02*
X18719524Y-1527200D01*
X18719524Y-1527200D02*
X18671905Y-1479580D01*
X18671905Y-1479580D02*
X18624286Y-1384342D01*
X18624286Y-1384342D02*
X18576667Y-1193866D01*
X18576667Y-1193866D02*
X18576667Y-955771D01*
X18576667Y-955771D02*
X18624286Y-765295D01*
X18624286Y-765295D02*
X18671905Y-670057D01*
X18671905Y-670057D02*
X18719524Y-622438D01*
X18719524Y-622438D02*
X18814762Y-574819D01*
D11*
X16133333Y-7038459D02*
X15800000Y-6562268D01*
X15561905Y-7038459D02*
X15561905Y-6038459D01*
X15561905Y-6038459D02*
X15942857Y-6038459D01*
X15942857Y-6038459D02*
X16038095Y-6086078D01*
X16038095Y-6086078D02*
X16085714Y-6133697D01*
X16085714Y-6133697D02*
X16133333Y-6228935D01*
X16133333Y-6228935D02*
X16133333Y-6371792D01*
X16133333Y-6371792D02*
X16085714Y-6467030D01*
X16085714Y-6467030D02*
X16038095Y-6514649D01*
X16038095Y-6514649D02*
X15942857Y-6562268D01*
X15942857Y-6562268D02*
X15561905Y-6562268D01*
X16990476Y-6038459D02*
X16800000Y-6038459D01*
X16800000Y-6038459D02*
X16704762Y-6086078D01*
X16704762Y-6086078D02*
X16657143Y-6133697D01*
X16657143Y-6133697D02*
X16561905Y-6276554D01*
X16561905Y-6276554D02*
X16514286Y-6467030D01*
X16514286Y-6467030D02*
X16514286Y-6847982D01*
X16514286Y-6847982D02*
X16561905Y-6943220D01*
X16561905Y-6943220D02*
X16609524Y-6990840D01*
X16609524Y-6990840D02*
X16704762Y-7038459D01*
X16704762Y-7038459D02*
X16895238Y-7038459D01*
X16895238Y-7038459D02*
X16990476Y-6990840D01*
X16990476Y-6990840D02*
X17038095Y-6943220D01*
X17038095Y-6943220D02*
X17085714Y-6847982D01*
X17085714Y-6847982D02*
X17085714Y-6609887D01*
X17085714Y-6609887D02*
X17038095Y-6514649D01*
X17038095Y-6514649D02*
X16990476Y-6467030D01*
X16990476Y-6467030D02*
X16895238Y-6419411D01*
X16895238Y-6419411D02*
X16704762Y-6419411D01*
X16704762Y-6419411D02*
X16609524Y-6467030D01*
X16609524Y-6467030D02*
X16561905Y-6514649D01*
X16561905Y-6514649D02*
X16514286Y-6609887D01*
D10*
X26318095Y-3808152D02*
X26318095Y-4474819D01*
X26080000Y-3427200D02*
X25841905Y-4141485D01*
X25841905Y-4141485D02*
X26460952Y-4141485D01*
X27032381Y-3474819D02*
X27127619Y-3474819D01*
X27127619Y-3474819D02*
X27222857Y-3522438D01*
X27222857Y-3522438D02*
X27270476Y-3570057D01*
X27270476Y-3570057D02*
X27318095Y-3665295D01*
X27318095Y-3665295D02*
X27365714Y-3855771D01*
X27365714Y-3855771D02*
X27365714Y-4093866D01*
X27365714Y-4093866D02*
X27318095Y-4284342D01*
X27318095Y-4284342D02*
X27270476Y-4379580D01*
X27270476Y-4379580D02*
X27222857Y-4427200D01*
X27222857Y-4427200D02*
X27127619Y-4474819D01*
X27127619Y-4474819D02*
X27032381Y-4474819D01*
X27032381Y-4474819D02*
X26937143Y-4427200D01*
X26937143Y-4427200D02*
X26889524Y-4379580D01*
X26889524Y-4379580D02*
X26841905Y-4284342D01*
X26841905Y-4284342D02*
X26794286Y-4093866D01*
X26794286Y-4093866D02*
X26794286Y-3855771D01*
X26794286Y-3855771D02*
X26841905Y-3665295D01*
X26841905Y-3665295D02*
X26889524Y-3570057D01*
X26889524Y-3570057D02*
X26937143Y-3522438D01*
X26937143Y-3522438D02*
X27032381Y-3474819D01*
X27984762Y-3474819D02*
X28080000Y-3474819D01*
X28080000Y-3474819D02*
X28175238Y-3522438D01*
X28175238Y-3522438D02*
X28222857Y-3570057D01*
X28222857Y-3570057D02*
X28270476Y-3665295D01*
X28270476Y-3665295D02*
X28318095Y-3855771D01*
X28318095Y-3855771D02*
X28318095Y-4093866D01*
X28318095Y-4093866D02*
X28270476Y-4284342D01*
X28270476Y-4284342D02*
X28222857Y-4379580D01*
X28222857Y-4379580D02*
X28175238Y-4427200D01*
X28175238Y-4427200D02*
X28080000Y-4474819D01*
X28080000Y-4474819D02*
X27984762Y-4474819D01*
X27984762Y-4474819D02*
X27889524Y-4427200D01*
X27889524Y-4427200D02*
X27841905Y-4379580D01*
X27841905Y-4379580D02*
X27794286Y-4284342D01*
X27794286Y-4284342D02*
X27746667Y-4093866D01*
X27746667Y-4093866D02*
X27746667Y-3855771D01*
X27746667Y-3855771D02*
X27794286Y-3665295D01*
X27794286Y-3665295D02*
X27841905Y-3570057D01*
X27841905Y-3570057D02*
X27889524Y-3522438D01*
X27889524Y-3522438D02*
X27984762Y-3474819D01*
D11*
X25723333Y-5918459D02*
X25390000Y-5442268D01*
X25151905Y-5918459D02*
X25151905Y-4918459D01*
X25151905Y-4918459D02*
X25532857Y-4918459D01*
X25532857Y-4918459D02*
X25628095Y-4966078D01*
X25628095Y-4966078D02*
X25675714Y-5013697D01*
X25675714Y-5013697D02*
X25723333Y-5108935D01*
X25723333Y-5108935D02*
X25723333Y-5251792D01*
X25723333Y-5251792D02*
X25675714Y-5347030D01*
X25675714Y-5347030D02*
X25628095Y-5394649D01*
X25628095Y-5394649D02*
X25532857Y-5442268D01*
X25532857Y-5442268D02*
X25151905Y-5442268D01*
X26580476Y-5251792D02*
X26580476Y-5918459D01*
X26342381Y-4870840D02*
X26104286Y-5585125D01*
X26104286Y-5585125D02*
X26723333Y-5585125D01*
D10*
X24542381Y-913390D02*
X24447143Y-865771D01*
X24447143Y-865771D02*
X24399524Y-818152D01*
X24399524Y-818152D02*
X24351905Y-722914D01*
X24351905Y-722914D02*
X24351905Y-675295D01*
X24351905Y-675295D02*
X24399524Y-580057D01*
X24399524Y-580057D02*
X24447143Y-532438D01*
X24447143Y-532438D02*
X24542381Y-484819D01*
X24542381Y-484819D02*
X24732857Y-484819D01*
X24732857Y-484819D02*
X24828095Y-532438D01*
X24828095Y-532438D02*
X24875714Y-580057D01*
X24875714Y-580057D02*
X24923333Y-675295D01*
X24923333Y-675295D02*
X24923333Y-722914D01*
X24923333Y-722914D02*
X24875714Y-818152D01*
X24875714Y-818152D02*
X24828095Y-865771D01*
X24828095Y-865771D02*
X24732857Y-913390D01*
X24732857Y-913390D02*
X24542381Y-913390D01*
X24542381Y-913390D02*
X24447143Y-961009D01*
X24447143Y-961009D02*
X24399524Y-1008628D01*
X24399524Y-1008628D02*
X24351905Y-1103866D01*
X24351905Y-1103866D02*
X24351905Y-1294342D01*
X24351905Y-1294342D02*
X24399524Y-1389580D01*
X24399524Y-1389580D02*
X24447143Y-1437200D01*
X24447143Y-1437200D02*
X24542381Y-1484819D01*
X24542381Y-1484819D02*
X24732857Y-1484819D01*
X24732857Y-1484819D02*
X24828095Y-1437200D01*
X24828095Y-1437200D02*
X24875714Y-1389580D01*
X24875714Y-1389580D02*
X24923333Y-1294342D01*
X24923333Y-1294342D02*
X24923333Y-1103866D01*
X24923333Y-1103866D02*
X24875714Y-1008628D01*
X24875714Y-1008628D02*
X24828095Y-961009D01*
X24828095Y-961009D02*
X24732857Y-913390D01*
X25542381Y-484819D02*
X25637619Y-484819D01*
X25637619Y-484819D02*
X25732857Y-532438D01*
X25732857Y-532438D02*
X25780476Y-580057D01*
X25780476Y-580057D02*
X25828095Y-675295D01*
X25828095Y-675295D02*
X25875714Y-865771D01*
X25875714Y-865771D02*
X25875714Y-1103866D01*
X25875714Y-1103866D02*
X25828095Y-1294342D01*
X25828095Y-1294342D02*
X25780476Y-1389580D01*
X25780476Y-1389580D02*
X25732857Y-1437200D01*
X25732857Y-1437200D02*
X25637619Y-1484819D01*
X25637619Y-1484819D02*
X25542381Y-1484819D01*
X25542381Y-1484819D02*
X25447143Y-1437200D01*
X25447143Y-1437200D02*
X25399524Y-1389580D01*
X25399524Y-1389580D02*
X25351905Y-1294342D01*
X25351905Y-1294342D02*
X25304286Y-1103866D01*
X25304286Y-1103866D02*
X25304286Y-865771D01*
X25304286Y-865771D02*
X25351905Y-675295D01*
X25351905Y-675295D02*
X25399524Y-580057D01*
X25399524Y-580057D02*
X25447143Y-532438D01*
X25447143Y-532438D02*
X25542381Y-484819D01*
X26494762Y-484819D02*
X26590000Y-484819D01*
X26590000Y-484819D02*
X26685238Y-532438D01*
X26685238Y-532438D02*
X26732857Y-580057D01*
X26732857Y-580057D02*
X26780476Y-675295D01*
X26780476Y-675295D02*
X26828095Y-865771D01*
X26828095Y-865771D02*
X26828095Y-1103866D01*
X26828095Y-1103866D02*
X26780476Y-1294342D01*
X26780476Y-1294342D02*
X26732857Y-1389580D01*
X26732857Y-1389580D02*
X26685238Y-1437200D01*
X26685238Y-1437200D02*
X26590000Y-1484819D01*
X26590000Y-1484819D02*
X26494762Y-1484819D01*
X26494762Y-1484819D02*
X26399524Y-1437200D01*
X26399524Y-1437200D02*
X26351905Y-1389580D01*
X26351905Y-1389580D02*
X26304286Y-1294342D01*
X26304286Y-1294342D02*
X26256667Y-1103866D01*
X26256667Y-1103866D02*
X26256667Y-865771D01*
X26256667Y-865771D02*
X26304286Y-675295D01*
X26304286Y-675295D02*
X26351905Y-580057D01*
X26351905Y-580057D02*
X26399524Y-532438D01*
X26399524Y-532438D02*
X26494762Y-484819D01*
D11*
X25463333Y-2918459D02*
X25130000Y-2442268D01*
X24891905Y-2918459D02*
X24891905Y-1918459D01*
X24891905Y-1918459D02*
X25272857Y-1918459D01*
X25272857Y-1918459D02*
X25368095Y-1966078D01*
X25368095Y-1966078D02*
X25415714Y-2013697D01*
X25415714Y-2013697D02*
X25463333Y-2108935D01*
X25463333Y-2108935D02*
X25463333Y-2251792D01*
X25463333Y-2251792D02*
X25415714Y-2347030D01*
X25415714Y-2347030D02*
X25368095Y-2394649D01*
X25368095Y-2394649D02*
X25272857Y-2442268D01*
X25272857Y-2442268D02*
X24891905Y-2442268D01*
X25796667Y-1918459D02*
X26415714Y-1918459D01*
X26415714Y-1918459D02*
X26082381Y-2299411D01*
X26082381Y-2299411D02*
X26225238Y-2299411D01*
X26225238Y-2299411D02*
X26320476Y-2347030D01*
X26320476Y-2347030D02*
X26368095Y-2394649D01*
X26368095Y-2394649D02*
X26415714Y-2489887D01*
X26415714Y-2489887D02*
X26415714Y-2727982D01*
X26415714Y-2727982D02*
X26368095Y-2823220D01*
X26368095Y-2823220D02*
X26320476Y-2870840D01*
X26320476Y-2870840D02*
X26225238Y-2918459D01*
X26225238Y-2918459D02*
X25939524Y-2918459D01*
X25939524Y-2918459D02*
X25844286Y-2870840D01*
X25844286Y-2870840D02*
X25796667Y-2823220D01*
D10*
X3330952Y-670057D02*
X3378571Y-622438D01*
X3378571Y-622438D02*
X3473809Y-574819D01*
X3473809Y-574819D02*
X3711904Y-574819D01*
X3711904Y-574819D02*
X3807142Y-622438D01*
X3807142Y-622438D02*
X3854761Y-670057D01*
X3854761Y-670057D02*
X3902380Y-765295D01*
X3902380Y-765295D02*
X3902380Y-860533D01*
X3902380Y-860533D02*
X3854761Y-1003390D01*
X3854761Y-1003390D02*
X3283333Y-1574819D01*
X3283333Y-1574819D02*
X3902380Y-1574819D01*
X4283333Y-670057D02*
X4330952Y-622438D01*
X4330952Y-622438D02*
X4426190Y-574819D01*
X4426190Y-574819D02*
X4664285Y-574819D01*
X4664285Y-574819D02*
X4759523Y-622438D01*
X4759523Y-622438D02*
X4807142Y-670057D01*
X4807142Y-670057D02*
X4854761Y-765295D01*
X4854761Y-765295D02*
X4854761Y-860533D01*
X4854761Y-860533D02*
X4807142Y-1003390D01*
X4807142Y-1003390D02*
X4235714Y-1574819D01*
X4235714Y-1574819D02*
X4854761Y-1574819D01*
X5473809Y-574819D02*
X5569047Y-574819D01*
X5569047Y-574819D02*
X5664285Y-622438D01*
X5664285Y-622438D02*
X5711904Y-670057D01*
X5711904Y-670057D02*
X5759523Y-765295D01*
X5759523Y-765295D02*
X5807142Y-955771D01*
X5807142Y-955771D02*
X5807142Y-1193866D01*
X5807142Y-1193866D02*
X5759523Y-1384342D01*
X5759523Y-1384342D02*
X5711904Y-1479580D01*
X5711904Y-1479580D02*
X5664285Y-1527200D01*
X5664285Y-1527200D02*
X5569047Y-1574819D01*
X5569047Y-1574819D02*
X5473809Y-1574819D01*
X5473809Y-1574819D02*
X5378571Y-1527200D01*
X5378571Y-1527200D02*
X5330952Y-1479580D01*
X5330952Y-1479580D02*
X5283333Y-1384342D01*
X5283333Y-1384342D02*
X5235714Y-1193866D01*
X5235714Y-1193866D02*
X5235714Y-955771D01*
X5235714Y-955771D02*
X5283333Y-765295D01*
X5283333Y-765295D02*
X5330952Y-670057D01*
X5330952Y-670057D02*
X5378571Y-622438D01*
X5378571Y-622438D02*
X5473809Y-574819D01*
X6235714Y-908152D02*
X6235714Y-1908152D01*
X6235714Y-955771D02*
X6330952Y-908152D01*
X6330952Y-908152D02*
X6521428Y-908152D01*
X6521428Y-908152D02*
X6616666Y-955771D01*
X6616666Y-955771D02*
X6664285Y-1003390D01*
X6664285Y-1003390D02*
X6711904Y-1098628D01*
X6711904Y-1098628D02*
X6711904Y-1384342D01*
X6711904Y-1384342D02*
X6664285Y-1479580D01*
X6664285Y-1479580D02*
X6616666Y-1527200D01*
X6616666Y-1527200D02*
X6521428Y-1574819D01*
X6521428Y-1574819D02*
X6330952Y-1574819D01*
X6330952Y-1574819D02*
X6235714Y-1527200D01*
X7473809Y-1051009D02*
X7140476Y-1051009D01*
X7140476Y-1574819D02*
X7140476Y-574819D01*
X7140476Y-574819D02*
X7616666Y-574819D01*
D12*
X6053333Y-2891140D02*
X6005714Y-2938760D01*
X6005714Y-2938760D02*
X5862857Y-2986379D01*
X5862857Y-2986379D02*
X5767619Y-2986379D01*
X5767619Y-2986379D02*
X5624762Y-2938760D01*
X5624762Y-2938760D02*
X5529524Y-2843521D01*
X5529524Y-2843521D02*
X5481905Y-2748283D01*
X5481905Y-2748283D02*
X5434286Y-2557807D01*
X5434286Y-2557807D02*
X5434286Y-2414950D01*
X5434286Y-2414950D02*
X5481905Y-2224474D01*
X5481905Y-2224474D02*
X5529524Y-2129236D01*
X5529524Y-2129236D02*
X5624762Y-2033998D01*
X5624762Y-2033998D02*
X5767619Y-1986379D01*
X5767619Y-1986379D02*
X5862857Y-1986379D01*
X5862857Y-1986379D02*
X6005714Y-2033998D01*
X6005714Y-2033998D02*
X6053333Y-2081617D01*
X6434286Y-2081617D02*
X6481905Y-2033998D01*
X6481905Y-2033998D02*
X6577143Y-1986379D01*
X6577143Y-1986379D02*
X6815238Y-1986379D01*
X6815238Y-1986379D02*
X6910476Y-2033998D01*
X6910476Y-2033998D02*
X6958095Y-2081617D01*
X6958095Y-2081617D02*
X7005714Y-2176855D01*
X7005714Y-2176855D02*
X7005714Y-2272093D01*
X7005714Y-2272093D02*
X6958095Y-2414950D01*
X6958095Y-2414950D02*
X6386667Y-2986379D01*
X6386667Y-2986379D02*
X7005714Y-2986379D01*
D10*
X2840952Y-5710057D02*
X2888571Y-5662438D01*
X2888571Y-5662438D02*
X2983809Y-5614819D01*
X2983809Y-5614819D02*
X3221904Y-5614819D01*
X3221904Y-5614819D02*
X3317142Y-5662438D01*
X3317142Y-5662438D02*
X3364761Y-5710057D01*
X3364761Y-5710057D02*
X3412380Y-5805295D01*
X3412380Y-5805295D02*
X3412380Y-5900533D01*
X3412380Y-5900533D02*
X3364761Y-6043390D01*
X3364761Y-6043390D02*
X2793333Y-6614819D01*
X2793333Y-6614819D02*
X3412380Y-6614819D01*
X3793333Y-5710057D02*
X3840952Y-5662438D01*
X3840952Y-5662438D02*
X3936190Y-5614819D01*
X3936190Y-5614819D02*
X4174285Y-5614819D01*
X4174285Y-5614819D02*
X4269523Y-5662438D01*
X4269523Y-5662438D02*
X4317142Y-5710057D01*
X4317142Y-5710057D02*
X4364761Y-5805295D01*
X4364761Y-5805295D02*
X4364761Y-5900533D01*
X4364761Y-5900533D02*
X4317142Y-6043390D01*
X4317142Y-6043390D02*
X3745714Y-6614819D01*
X3745714Y-6614819D02*
X4364761Y-6614819D01*
X4983809Y-5614819D02*
X5079047Y-5614819D01*
X5079047Y-5614819D02*
X5174285Y-5662438D01*
X5174285Y-5662438D02*
X5221904Y-5710057D01*
X5221904Y-5710057D02*
X5269523Y-5805295D01*
X5269523Y-5805295D02*
X5317142Y-5995771D01*
X5317142Y-5995771D02*
X5317142Y-6233866D01*
X5317142Y-6233866D02*
X5269523Y-6424342D01*
X5269523Y-6424342D02*
X5221904Y-6519580D01*
X5221904Y-6519580D02*
X5174285Y-6567200D01*
X5174285Y-6567200D02*
X5079047Y-6614819D01*
X5079047Y-6614819D02*
X4983809Y-6614819D01*
X4983809Y-6614819D02*
X4888571Y-6567200D01*
X4888571Y-6567200D02*
X4840952Y-6519580D01*
X4840952Y-6519580D02*
X4793333Y-6424342D01*
X4793333Y-6424342D02*
X4745714Y-6233866D01*
X4745714Y-6233866D02*
X4745714Y-5995771D01*
X4745714Y-5995771D02*
X4793333Y-5805295D01*
X4793333Y-5805295D02*
X4840952Y-5710057D01*
X4840952Y-5710057D02*
X4888571Y-5662438D01*
X4888571Y-5662438D02*
X4983809Y-5614819D01*
X5745714Y-5948152D02*
X5745714Y-6948152D01*
X5745714Y-5995771D02*
X5840952Y-5948152D01*
X5840952Y-5948152D02*
X6031428Y-5948152D01*
X6031428Y-5948152D02*
X6126666Y-5995771D01*
X6126666Y-5995771D02*
X6174285Y-6043390D01*
X6174285Y-6043390D02*
X6221904Y-6138628D01*
X6221904Y-6138628D02*
X6221904Y-6424342D01*
X6221904Y-6424342D02*
X6174285Y-6519580D01*
X6174285Y-6519580D02*
X6126666Y-6567200D01*
X6126666Y-6567200D02*
X6031428Y-6614819D01*
X6031428Y-6614819D02*
X5840952Y-6614819D01*
X5840952Y-6614819D02*
X5745714Y-6567200D01*
X6983809Y-6091009D02*
X6650476Y-6091009D01*
X6650476Y-6614819D02*
X6650476Y-5614819D01*
X6650476Y-5614819D02*
X7126666Y-5614819D01*
D12*
X6093333Y-4841140D02*
X6045714Y-4888760D01*
X6045714Y-4888760D02*
X5902857Y-4936379D01*
X5902857Y-4936379D02*
X5807619Y-4936379D01*
X5807619Y-4936379D02*
X5664762Y-4888760D01*
X5664762Y-4888760D02*
X5569524Y-4793521D01*
X5569524Y-4793521D02*
X5521905Y-4698283D01*
X5521905Y-4698283D02*
X5474286Y-4507807D01*
X5474286Y-4507807D02*
X5474286Y-4364950D01*
X5474286Y-4364950D02*
X5521905Y-4174474D01*
X5521905Y-4174474D02*
X5569524Y-4079236D01*
X5569524Y-4079236D02*
X5664762Y-3983998D01*
X5664762Y-3983998D02*
X5807619Y-3936379D01*
X5807619Y-3936379D02*
X5902857Y-3936379D01*
X5902857Y-3936379D02*
X6045714Y-3983998D01*
X6045714Y-3983998D02*
X6093333Y-4031617D01*
X6426667Y-3936379D02*
X7045714Y-3936379D01*
X7045714Y-3936379D02*
X6712381Y-4317331D01*
X6712381Y-4317331D02*
X6855238Y-4317331D01*
X6855238Y-4317331D02*
X6950476Y-4364950D01*
X6950476Y-4364950D02*
X6998095Y-4412569D01*
X6998095Y-4412569D02*
X7045714Y-4507807D01*
X7045714Y-4507807D02*
X7045714Y-4745902D01*
X7045714Y-4745902D02*
X6998095Y-4841140D01*
X6998095Y-4841140D02*
X6950476Y-4888760D01*
X6950476Y-4888760D02*
X6855238Y-4936379D01*
X6855238Y-4936379D02*
X6569524Y-4936379D01*
X6569524Y-4936379D02*
X6474286Y-4888760D01*
X6474286Y-4888760D02*
X6426667Y-4841140D01*
D10*
X8473333Y-48518152D02*
X8473333Y-49184819D01*
X8235238Y-48137200D02*
X7997143Y-48851485D01*
X7997143Y-48851485D02*
X8616190Y-48851485D01*
X8901905Y-48184819D02*
X9568571Y-48184819D01*
X9568571Y-48184819D02*
X9140000Y-49184819D01*
X10378095Y-48518152D02*
X10378095Y-49184819D01*
X9949524Y-48518152D02*
X9949524Y-49041961D01*
X9949524Y-49041961D02*
X9997143Y-49137200D01*
X9997143Y-49137200D02*
X10092381Y-49184819D01*
X10092381Y-49184819D02*
X10235238Y-49184819D01*
X10235238Y-49184819D02*
X10330476Y-49137200D01*
X10330476Y-49137200D02*
X10378095Y-49089580D01*
X11187619Y-48661009D02*
X10854286Y-48661009D01*
X10854286Y-49184819D02*
X10854286Y-48184819D01*
X10854286Y-48184819D02*
X11330476Y-48184819D01*
D12*
X9803333Y-42551140D02*
X9755714Y-42598760D01*
X9755714Y-42598760D02*
X9612857Y-42646379D01*
X9612857Y-42646379D02*
X9517619Y-42646379D01*
X9517619Y-42646379D02*
X9374762Y-42598760D01*
X9374762Y-42598760D02*
X9279524Y-42503521D01*
X9279524Y-42503521D02*
X9231905Y-42408283D01*
X9231905Y-42408283D02*
X9184286Y-42217807D01*
X9184286Y-42217807D02*
X9184286Y-42074950D01*
X9184286Y-42074950D02*
X9231905Y-41884474D01*
X9231905Y-41884474D02*
X9279524Y-41789236D01*
X9279524Y-41789236D02*
X9374762Y-41693998D01*
X9374762Y-41693998D02*
X9517619Y-41646379D01*
X9517619Y-41646379D02*
X9612857Y-41646379D01*
X9612857Y-41646379D02*
X9755714Y-41693998D01*
X9755714Y-41693998D02*
X9803333Y-41741617D01*
X10755714Y-42646379D02*
X10184286Y-42646379D01*
X10470000Y-42646379D02*
X10470000Y-41646379D01*
X10470000Y-41646379D02*
X10374762Y-41789236D01*
X10374762Y-41789236D02*
X10279524Y-41884474D01*
X10279524Y-41884474D02*
X10184286Y-41932093D01*
D10*
X42382381Y-2973390D02*
X42287143Y-2925771D01*
X42287143Y-2925771D02*
X42239524Y-2878152D01*
X42239524Y-2878152D02*
X42191905Y-2782914D01*
X42191905Y-2782914D02*
X42191905Y-2735295D01*
X42191905Y-2735295D02*
X42239524Y-2640057D01*
X42239524Y-2640057D02*
X42287143Y-2592438D01*
X42287143Y-2592438D02*
X42382381Y-2544819D01*
X42382381Y-2544819D02*
X42572857Y-2544819D01*
X42572857Y-2544819D02*
X42668095Y-2592438D01*
X42668095Y-2592438D02*
X42715714Y-2640057D01*
X42715714Y-2640057D02*
X42763333Y-2735295D01*
X42763333Y-2735295D02*
X42763333Y-2782914D01*
X42763333Y-2782914D02*
X42715714Y-2878152D01*
X42715714Y-2878152D02*
X42668095Y-2925771D01*
X42668095Y-2925771D02*
X42572857Y-2973390D01*
X42572857Y-2973390D02*
X42382381Y-2973390D01*
X42382381Y-2973390D02*
X42287143Y-3021009D01*
X42287143Y-3021009D02*
X42239524Y-3068628D01*
X42239524Y-3068628D02*
X42191905Y-3163866D01*
X42191905Y-3163866D02*
X42191905Y-3354342D01*
X42191905Y-3354342D02*
X42239524Y-3449580D01*
X42239524Y-3449580D02*
X42287143Y-3497200D01*
X42287143Y-3497200D02*
X42382381Y-3544819D01*
X42382381Y-3544819D02*
X42572857Y-3544819D01*
X42572857Y-3544819D02*
X42668095Y-3497200D01*
X42668095Y-3497200D02*
X42715714Y-3449580D01*
X42715714Y-3449580D02*
X42763333Y-3354342D01*
X42763333Y-3354342D02*
X42763333Y-3163866D01*
X42763333Y-3163866D02*
X42715714Y-3068628D01*
X42715714Y-3068628D02*
X42668095Y-3021009D01*
X42668095Y-3021009D02*
X42572857Y-2973390D01*
X43382381Y-2544819D02*
X43477619Y-2544819D01*
X43477619Y-2544819D02*
X43572857Y-2592438D01*
X43572857Y-2592438D02*
X43620476Y-2640057D01*
X43620476Y-2640057D02*
X43668095Y-2735295D01*
X43668095Y-2735295D02*
X43715714Y-2925771D01*
X43715714Y-2925771D02*
X43715714Y-3163866D01*
X43715714Y-3163866D02*
X43668095Y-3354342D01*
X43668095Y-3354342D02*
X43620476Y-3449580D01*
X43620476Y-3449580D02*
X43572857Y-3497200D01*
X43572857Y-3497200D02*
X43477619Y-3544819D01*
X43477619Y-3544819D02*
X43382381Y-3544819D01*
X43382381Y-3544819D02*
X43287143Y-3497200D01*
X43287143Y-3497200D02*
X43239524Y-3449580D01*
X43239524Y-3449580D02*
X43191905Y-3354342D01*
X43191905Y-3354342D02*
X43144286Y-3163866D01*
X43144286Y-3163866D02*
X43144286Y-2925771D01*
X43144286Y-2925771D02*
X43191905Y-2735295D01*
X43191905Y-2735295D02*
X43239524Y-2640057D01*
X43239524Y-2640057D02*
X43287143Y-2592438D01*
X43287143Y-2592438D02*
X43382381Y-2544819D01*
X44334762Y-2544819D02*
X44430000Y-2544819D01*
X44430000Y-2544819D02*
X44525238Y-2592438D01*
X44525238Y-2592438D02*
X44572857Y-2640057D01*
X44572857Y-2640057D02*
X44620476Y-2735295D01*
X44620476Y-2735295D02*
X44668095Y-2925771D01*
X44668095Y-2925771D02*
X44668095Y-3163866D01*
X44668095Y-3163866D02*
X44620476Y-3354342D01*
X44620476Y-3354342D02*
X44572857Y-3449580D01*
X44572857Y-3449580D02*
X44525238Y-3497200D01*
X44525238Y-3497200D02*
X44430000Y-3544819D01*
X44430000Y-3544819D02*
X44334762Y-3544819D01*
X44334762Y-3544819D02*
X44239524Y-3497200D01*
X44239524Y-3497200D02*
X44191905Y-3449580D01*
X44191905Y-3449580D02*
X44144286Y-3354342D01*
X44144286Y-3354342D02*
X44096667Y-3163866D01*
X44096667Y-3163866D02*
X44096667Y-2925771D01*
X44096667Y-2925771D02*
X44144286Y-2735295D01*
X44144286Y-2735295D02*
X44191905Y-2640057D01*
X44191905Y-2640057D02*
X44239524Y-2592438D01*
X44239524Y-2592438D02*
X44334762Y-2544819D01*
D11*
X43343333Y-4958459D02*
X43010000Y-4482268D01*
X42771905Y-4958459D02*
X42771905Y-3958459D01*
X42771905Y-3958459D02*
X43152857Y-3958459D01*
X43152857Y-3958459D02*
X43248095Y-4006078D01*
X43248095Y-4006078D02*
X43295714Y-4053697D01*
X43295714Y-4053697D02*
X43343333Y-4148935D01*
X43343333Y-4148935D02*
X43343333Y-4291792D01*
X43343333Y-4291792D02*
X43295714Y-4387030D01*
X43295714Y-4387030D02*
X43248095Y-4434649D01*
X43248095Y-4434649D02*
X43152857Y-4482268D01*
X43152857Y-4482268D02*
X42771905Y-4482268D01*
X44295714Y-4958459D02*
X43724286Y-4958459D01*
X44010000Y-4958459D02*
X44010000Y-3958459D01*
X44010000Y-3958459D02*
X43914762Y-4101316D01*
X43914762Y-4101316D02*
X43819524Y-4196554D01*
X43819524Y-4196554D02*
X43724286Y-4244173D01*
D10*
X12202381Y-813390D02*
X12107143Y-765771D01*
X12107143Y-765771D02*
X12059524Y-718152D01*
X12059524Y-718152D02*
X12011905Y-622914D01*
X12011905Y-622914D02*
X12011905Y-575295D01*
X12011905Y-575295D02*
X12059524Y-480057D01*
X12059524Y-480057D02*
X12107143Y-432438D01*
X12107143Y-432438D02*
X12202381Y-384819D01*
X12202381Y-384819D02*
X12392857Y-384819D01*
X12392857Y-384819D02*
X12488095Y-432438D01*
X12488095Y-432438D02*
X12535714Y-480057D01*
X12535714Y-480057D02*
X12583333Y-575295D01*
X12583333Y-575295D02*
X12583333Y-622914D01*
X12583333Y-622914D02*
X12535714Y-718152D01*
X12535714Y-718152D02*
X12488095Y-765771D01*
X12488095Y-765771D02*
X12392857Y-813390D01*
X12392857Y-813390D02*
X12202381Y-813390D01*
X12202381Y-813390D02*
X12107143Y-861009D01*
X12107143Y-861009D02*
X12059524Y-908628D01*
X12059524Y-908628D02*
X12011905Y-1003866D01*
X12011905Y-1003866D02*
X12011905Y-1194342D01*
X12011905Y-1194342D02*
X12059524Y-1289580D01*
X12059524Y-1289580D02*
X12107143Y-1337200D01*
X12107143Y-1337200D02*
X12202381Y-1384819D01*
X12202381Y-1384819D02*
X12392857Y-1384819D01*
X12392857Y-1384819D02*
X12488095Y-1337200D01*
X12488095Y-1337200D02*
X12535714Y-1289580D01*
X12535714Y-1289580D02*
X12583333Y-1194342D01*
X12583333Y-1194342D02*
X12583333Y-1003866D01*
X12583333Y-1003866D02*
X12535714Y-908628D01*
X12535714Y-908628D02*
X12488095Y-861009D01*
X12488095Y-861009D02*
X12392857Y-813390D01*
X13202381Y-384819D02*
X13297619Y-384819D01*
X13297619Y-384819D02*
X13392857Y-432438D01*
X13392857Y-432438D02*
X13440476Y-480057D01*
X13440476Y-480057D02*
X13488095Y-575295D01*
X13488095Y-575295D02*
X13535714Y-765771D01*
X13535714Y-765771D02*
X13535714Y-1003866D01*
X13535714Y-1003866D02*
X13488095Y-1194342D01*
X13488095Y-1194342D02*
X13440476Y-1289580D01*
X13440476Y-1289580D02*
X13392857Y-1337200D01*
X13392857Y-1337200D02*
X13297619Y-1384819D01*
X13297619Y-1384819D02*
X13202381Y-1384819D01*
X13202381Y-1384819D02*
X13107143Y-1337200D01*
X13107143Y-1337200D02*
X13059524Y-1289580D01*
X13059524Y-1289580D02*
X13011905Y-1194342D01*
X13011905Y-1194342D02*
X12964286Y-1003866D01*
X12964286Y-1003866D02*
X12964286Y-765771D01*
X12964286Y-765771D02*
X13011905Y-575295D01*
X13011905Y-575295D02*
X13059524Y-480057D01*
X13059524Y-480057D02*
X13107143Y-432438D01*
X13107143Y-432438D02*
X13202381Y-384819D01*
X14154762Y-384819D02*
X14250000Y-384819D01*
X14250000Y-384819D02*
X14345238Y-432438D01*
X14345238Y-432438D02*
X14392857Y-480057D01*
X14392857Y-480057D02*
X14440476Y-575295D01*
X14440476Y-575295D02*
X14488095Y-765771D01*
X14488095Y-765771D02*
X14488095Y-1003866D01*
X14488095Y-1003866D02*
X14440476Y-1194342D01*
X14440476Y-1194342D02*
X14392857Y-1289580D01*
X14392857Y-1289580D02*
X14345238Y-1337200D01*
X14345238Y-1337200D02*
X14250000Y-1384819D01*
X14250000Y-1384819D02*
X14154762Y-1384819D01*
X14154762Y-1384819D02*
X14059524Y-1337200D01*
X14059524Y-1337200D02*
X14011905Y-1289580D01*
X14011905Y-1289580D02*
X13964286Y-1194342D01*
X13964286Y-1194342D02*
X13916667Y-1003866D01*
X13916667Y-1003866D02*
X13916667Y-765771D01*
X13916667Y-765771D02*
X13964286Y-575295D01*
X13964286Y-575295D02*
X14011905Y-480057D01*
X14011905Y-480057D02*
X14059524Y-432438D01*
X14059524Y-432438D02*
X14154762Y-384819D01*
D11*
X13653333Y-5778459D02*
X13320000Y-5302268D01*
X13081905Y-5778459D02*
X13081905Y-4778459D01*
X13081905Y-4778459D02*
X13462857Y-4778459D01*
X13462857Y-4778459D02*
X13558095Y-4826078D01*
X13558095Y-4826078D02*
X13605714Y-4873697D01*
X13605714Y-4873697D02*
X13653333Y-4968935D01*
X13653333Y-4968935D02*
X13653333Y-5111792D01*
X13653333Y-5111792D02*
X13605714Y-5207030D01*
X13605714Y-5207030D02*
X13558095Y-5254649D01*
X13558095Y-5254649D02*
X13462857Y-5302268D01*
X13462857Y-5302268D02*
X13081905Y-5302268D01*
X14558095Y-4778459D02*
X14081905Y-4778459D01*
X14081905Y-4778459D02*
X14034286Y-5254649D01*
X14034286Y-5254649D02*
X14081905Y-5207030D01*
X14081905Y-5207030D02*
X14177143Y-5159411D01*
X14177143Y-5159411D02*
X14415238Y-5159411D01*
X14415238Y-5159411D02*
X14510476Y-5207030D01*
X14510476Y-5207030D02*
X14558095Y-5254649D01*
X14558095Y-5254649D02*
X14605714Y-5349887D01*
X14605714Y-5349887D02*
X14605714Y-5587982D01*
X14605714Y-5587982D02*
X14558095Y-5683220D01*
X14558095Y-5683220D02*
X14510476Y-5730840D01*
X14510476Y-5730840D02*
X14415238Y-5778459D01*
X14415238Y-5778459D02*
X14177143Y-5778459D01*
X14177143Y-5778459D02*
X14081905Y-5730840D01*
X14081905Y-5730840D02*
X14034286Y-5683220D01*
D10*
X2880952Y-7200057D02*
X2928571Y-7152438D01*
X2928571Y-7152438D02*
X3023809Y-7104819D01*
X3023809Y-7104819D02*
X3261904Y-7104819D01*
X3261904Y-7104819D02*
X3357142Y-7152438D01*
X3357142Y-7152438D02*
X3404761Y-7200057D01*
X3404761Y-7200057D02*
X3452380Y-7295295D01*
X3452380Y-7295295D02*
X3452380Y-7390533D01*
X3452380Y-7390533D02*
X3404761Y-7533390D01*
X3404761Y-7533390D02*
X2833333Y-8104819D01*
X2833333Y-8104819D02*
X3452380Y-8104819D01*
X3833333Y-7200057D02*
X3880952Y-7152438D01*
X3880952Y-7152438D02*
X3976190Y-7104819D01*
X3976190Y-7104819D02*
X4214285Y-7104819D01*
X4214285Y-7104819D02*
X4309523Y-7152438D01*
X4309523Y-7152438D02*
X4357142Y-7200057D01*
X4357142Y-7200057D02*
X4404761Y-7295295D01*
X4404761Y-7295295D02*
X4404761Y-7390533D01*
X4404761Y-7390533D02*
X4357142Y-7533390D01*
X4357142Y-7533390D02*
X3785714Y-8104819D01*
X3785714Y-8104819D02*
X4404761Y-8104819D01*
X5023809Y-7104819D02*
X5119047Y-7104819D01*
X5119047Y-7104819D02*
X5214285Y-7152438D01*
X5214285Y-7152438D02*
X5261904Y-7200057D01*
X5261904Y-7200057D02*
X5309523Y-7295295D01*
X5309523Y-7295295D02*
X5357142Y-7485771D01*
X5357142Y-7485771D02*
X5357142Y-7723866D01*
X5357142Y-7723866D02*
X5309523Y-7914342D01*
X5309523Y-7914342D02*
X5261904Y-8009580D01*
X5261904Y-8009580D02*
X5214285Y-8057200D01*
X5214285Y-8057200D02*
X5119047Y-8104819D01*
X5119047Y-8104819D02*
X5023809Y-8104819D01*
X5023809Y-8104819D02*
X4928571Y-8057200D01*
X4928571Y-8057200D02*
X4880952Y-8009580D01*
X4880952Y-8009580D02*
X4833333Y-7914342D01*
X4833333Y-7914342D02*
X4785714Y-7723866D01*
X4785714Y-7723866D02*
X4785714Y-7485771D01*
X4785714Y-7485771D02*
X4833333Y-7295295D01*
X4833333Y-7295295D02*
X4880952Y-7200057D01*
X4880952Y-7200057D02*
X4928571Y-7152438D01*
X4928571Y-7152438D02*
X5023809Y-7104819D01*
X5785714Y-7438152D02*
X5785714Y-8438152D01*
X5785714Y-7485771D02*
X5880952Y-7438152D01*
X5880952Y-7438152D02*
X6071428Y-7438152D01*
X6071428Y-7438152D02*
X6166666Y-7485771D01*
X6166666Y-7485771D02*
X6214285Y-7533390D01*
X6214285Y-7533390D02*
X6261904Y-7628628D01*
X6261904Y-7628628D02*
X6261904Y-7914342D01*
X6261904Y-7914342D02*
X6214285Y-8009580D01*
X6214285Y-8009580D02*
X6166666Y-8057200D01*
X6166666Y-8057200D02*
X6071428Y-8104819D01*
X6071428Y-8104819D02*
X5880952Y-8104819D01*
X5880952Y-8104819D02*
X5785714Y-8057200D01*
X7023809Y-7581009D02*
X6690476Y-7581009D01*
X6690476Y-8104819D02*
X6690476Y-7104819D01*
X6690476Y-7104819D02*
X7166666Y-7104819D01*
D12*
X12853333Y-8201140D02*
X12805714Y-8248760D01*
X12805714Y-8248760D02*
X12662857Y-8296379D01*
X12662857Y-8296379D02*
X12567619Y-8296379D01*
X12567619Y-8296379D02*
X12424762Y-8248760D01*
X12424762Y-8248760D02*
X12329524Y-8153521D01*
X12329524Y-8153521D02*
X12281905Y-8058283D01*
X12281905Y-8058283D02*
X12234286Y-7867807D01*
X12234286Y-7867807D02*
X12234286Y-7724950D01*
X12234286Y-7724950D02*
X12281905Y-7534474D01*
X12281905Y-7534474D02*
X12329524Y-7439236D01*
X12329524Y-7439236D02*
X12424762Y-7343998D01*
X12424762Y-7343998D02*
X12567619Y-7296379D01*
X12567619Y-7296379D02*
X12662857Y-7296379D01*
X12662857Y-7296379D02*
X12805714Y-7343998D01*
X12805714Y-7343998D02*
X12853333Y-7391617D01*
X13710476Y-7629712D02*
X13710476Y-8296379D01*
X13472381Y-7248760D02*
X13234286Y-7963045D01*
X13234286Y-7963045D02*
X13853333Y-7963045D01*
D10*
X35298095Y-4628152D02*
X35298095Y-5294819D01*
X35060000Y-4247200D02*
X34821905Y-4961485D01*
X34821905Y-4961485D02*
X35440952Y-4961485D01*
X36012381Y-4294819D02*
X36107619Y-4294819D01*
X36107619Y-4294819D02*
X36202857Y-4342438D01*
X36202857Y-4342438D02*
X36250476Y-4390057D01*
X36250476Y-4390057D02*
X36298095Y-4485295D01*
X36298095Y-4485295D02*
X36345714Y-4675771D01*
X36345714Y-4675771D02*
X36345714Y-4913866D01*
X36345714Y-4913866D02*
X36298095Y-5104342D01*
X36298095Y-5104342D02*
X36250476Y-5199580D01*
X36250476Y-5199580D02*
X36202857Y-5247200D01*
X36202857Y-5247200D02*
X36107619Y-5294819D01*
X36107619Y-5294819D02*
X36012381Y-5294819D01*
X36012381Y-5294819D02*
X35917143Y-5247200D01*
X35917143Y-5247200D02*
X35869524Y-5199580D01*
X35869524Y-5199580D02*
X35821905Y-5104342D01*
X35821905Y-5104342D02*
X35774286Y-4913866D01*
X35774286Y-4913866D02*
X35774286Y-4675771D01*
X35774286Y-4675771D02*
X35821905Y-4485295D01*
X35821905Y-4485295D02*
X35869524Y-4390057D01*
X35869524Y-4390057D02*
X35917143Y-4342438D01*
X35917143Y-4342438D02*
X36012381Y-4294819D01*
X36964762Y-4294819D02*
X37060000Y-4294819D01*
X37060000Y-4294819D02*
X37155238Y-4342438D01*
X37155238Y-4342438D02*
X37202857Y-4390057D01*
X37202857Y-4390057D02*
X37250476Y-4485295D01*
X37250476Y-4485295D02*
X37298095Y-4675771D01*
X37298095Y-4675771D02*
X37298095Y-4913866D01*
X37298095Y-4913866D02*
X37250476Y-5104342D01*
X37250476Y-5104342D02*
X37202857Y-5199580D01*
X37202857Y-5199580D02*
X37155238Y-5247200D01*
X37155238Y-5247200D02*
X37060000Y-5294819D01*
X37060000Y-5294819D02*
X36964762Y-5294819D01*
X36964762Y-5294819D02*
X36869524Y-5247200D01*
X36869524Y-5247200D02*
X36821905Y-5199580D01*
X36821905Y-5199580D02*
X36774286Y-5104342D01*
X36774286Y-5104342D02*
X36726667Y-4913866D01*
X36726667Y-4913866D02*
X36726667Y-4675771D01*
X36726667Y-4675771D02*
X36774286Y-4485295D01*
X36774286Y-4485295D02*
X36821905Y-4390057D01*
X36821905Y-4390057D02*
X36869524Y-4342438D01*
X36869524Y-4342438D02*
X36964762Y-4294819D01*
D11*
X35923333Y-3738459D02*
X35590000Y-3262268D01*
X35351905Y-3738459D02*
X35351905Y-2738459D01*
X35351905Y-2738459D02*
X35732857Y-2738459D01*
X35732857Y-2738459D02*
X35828095Y-2786078D01*
X35828095Y-2786078D02*
X35875714Y-2833697D01*
X35875714Y-2833697D02*
X35923333Y-2928935D01*
X35923333Y-2928935D02*
X35923333Y-3071792D01*
X35923333Y-3071792D02*
X35875714Y-3167030D01*
X35875714Y-3167030D02*
X35828095Y-3214649D01*
X35828095Y-3214649D02*
X35732857Y-3262268D01*
X35732857Y-3262268D02*
X35351905Y-3262268D01*
X36304286Y-2833697D02*
X36351905Y-2786078D01*
X36351905Y-2786078D02*
X36447143Y-2738459D01*
X36447143Y-2738459D02*
X36685238Y-2738459D01*
X36685238Y-2738459D02*
X36780476Y-2786078D01*
X36780476Y-2786078D02*
X36828095Y-2833697D01*
X36828095Y-2833697D02*
X36875714Y-2928935D01*
X36875714Y-2928935D02*
X36875714Y-3024173D01*
X36875714Y-3024173D02*
X36828095Y-3167030D01*
X36828095Y-3167030D02*
X36256667Y-3738459D01*
X36256667Y-3738459D02*
X36875714Y-3738459D01*
D12*
%TO.C,J1*%
X57960000Y-52320000D02*
X56630000Y-52320000D01*
X57960000Y-53430000D02*
X57960000Y-52320000D01*
D13*
X56930000Y-53430000D02*
X56930000Y-57490000D01*
X56330000Y-53430000D02*
X56930000Y-53430000D01*
X54390000Y-53430000D02*
X54390000Y-57490000D01*
X53790000Y-53430000D02*
X54390000Y-53430000D01*
X51850000Y-53430000D02*
X51850000Y-57490000D01*
X51250000Y-53430000D02*
X51850000Y-53430000D01*
X49310000Y-53430000D02*
X49310000Y-57490000D01*
X48710000Y-53430000D02*
X49310000Y-53430000D01*
X46770000Y-53430000D02*
X46770000Y-57490000D01*
X46170000Y-53430000D02*
X46770000Y-53430000D01*
X44230000Y-53430000D02*
X44230000Y-57490000D01*
X43630000Y-53430000D02*
X44230000Y-53430000D01*
X41690000Y-53430000D02*
X41690000Y-57490000D01*
X41090000Y-53430000D02*
X41690000Y-53430000D01*
X39150000Y-53430000D02*
X39150000Y-57490000D01*
X38550000Y-53430000D02*
X39150000Y-53430000D01*
X36610000Y-53430000D02*
X36610000Y-57490000D01*
X36010000Y-53430000D02*
X36610000Y-53430000D01*
X34070000Y-53430000D02*
X34070000Y-57490000D01*
X33470000Y-53430000D02*
X34070000Y-53430000D01*
X31530000Y-53430000D02*
X31530000Y-57490000D01*
X30930000Y-53430000D02*
X31530000Y-53430000D01*
X28990000Y-53430000D02*
X28990000Y-57490000D01*
X28390000Y-53430000D02*
X28990000Y-53430000D01*
X26450000Y-53430000D02*
X26450000Y-57490000D01*
X25850000Y-53430000D02*
X26450000Y-53430000D01*
X23910000Y-53430000D02*
X23910000Y-57490000D01*
X23310000Y-53430000D02*
X23910000Y-53430000D01*
X21370000Y-53430000D02*
X21370000Y-57490000D01*
X20770000Y-53430000D02*
X21370000Y-53430000D01*
X18830000Y-53430000D02*
X18830000Y-57490000D01*
X18230000Y-53430000D02*
X18830000Y-53430000D01*
X16290000Y-53430000D02*
X16290000Y-57490000D01*
X15690000Y-53430000D02*
X16290000Y-53430000D01*
X13750000Y-53430000D02*
X13750000Y-57490000D01*
X13150000Y-53430000D02*
X13750000Y-53430000D01*
X11210000Y-53430000D02*
X11210000Y-57490000D01*
X10610000Y-53430000D02*
X11210000Y-53430000D01*
X8670000Y-53430000D02*
X8670000Y-57490000D01*
X8070000Y-53430000D02*
X8670000Y-53430000D01*
D12*
X56990000Y-54920000D02*
X56990000Y-54540000D01*
X56270000Y-54920000D02*
X56270000Y-54540000D01*
X54450000Y-54920000D02*
X54450000Y-54480000D01*
X53730000Y-54920000D02*
X53730000Y-54480000D01*
X51910000Y-54920000D02*
X51910000Y-54480000D01*
X51190000Y-54920000D02*
X51190000Y-54480000D01*
X49370000Y-54920000D02*
X49370000Y-54480000D01*
X48650000Y-54920000D02*
X48650000Y-54480000D01*
X46830000Y-54920000D02*
X46830000Y-54480000D01*
X46110000Y-54920000D02*
X46110000Y-54480000D01*
X44290000Y-54920000D02*
X44290000Y-54480000D01*
X43570000Y-54920000D02*
X43570000Y-54480000D01*
X41750000Y-54920000D02*
X41750000Y-54480000D01*
X41030000Y-54920000D02*
X41030000Y-54480000D01*
X39210000Y-54920000D02*
X39210000Y-54480000D01*
X38490000Y-54920000D02*
X38490000Y-54480000D01*
X36670000Y-54920000D02*
X36670000Y-54480000D01*
X35950000Y-54920000D02*
X35950000Y-54480000D01*
X34130000Y-54920000D02*
X34130000Y-54480000D01*
X33410000Y-54920000D02*
X33410000Y-54480000D01*
X31590000Y-54920000D02*
X31590000Y-54480000D01*
X30870000Y-54920000D02*
X30870000Y-54480000D01*
X29050000Y-54920000D02*
X29050000Y-54480000D01*
X28330000Y-54920000D02*
X28330000Y-54480000D01*
X26510000Y-54920000D02*
X26510000Y-54480000D01*
X25790000Y-54920000D02*
X25790000Y-54480000D01*
X23970000Y-54920000D02*
X23970000Y-54480000D01*
X23250000Y-54920000D02*
X23250000Y-54480000D01*
X21430000Y-54920000D02*
X21430000Y-54480000D01*
X20710000Y-54920000D02*
X20710000Y-54480000D01*
X18890000Y-54920000D02*
X18890000Y-54480000D01*
X18170000Y-54920000D02*
X18170000Y-54480000D01*
X16350000Y-54920000D02*
X16350000Y-54480000D01*
X15630000Y-54920000D02*
X15630000Y-54480000D01*
X13810000Y-54920000D02*
X13810000Y-54480000D01*
X13090000Y-54920000D02*
X13090000Y-54480000D01*
X11270000Y-54920000D02*
X11270000Y-54480000D01*
X10550000Y-54920000D02*
X10550000Y-54480000D01*
X8730000Y-54920000D02*
X8730000Y-54480000D01*
X8010000Y-54920000D02*
X8010000Y-54480000D01*
X57960000Y-57430000D02*
X7040000Y-57430000D01*
X56990000Y-57430000D02*
X56990000Y-57020000D01*
X56270000Y-57430000D02*
X56270000Y-57020000D01*
X54450000Y-57430000D02*
X54450000Y-57020000D01*
X53730000Y-57430000D02*
X53730000Y-57020000D01*
X51910000Y-57430000D02*
X51910000Y-57020000D01*
X51190000Y-57430000D02*
X51190000Y-57020000D01*
X49370000Y-57430000D02*
X49370000Y-57020000D01*
X48650000Y-57430000D02*
X48650000Y-57020000D01*
X46830000Y-57430000D02*
X46830000Y-57020000D01*
X46110000Y-57430000D02*
X46110000Y-57020000D01*
X44290000Y-57430000D02*
X44290000Y-57020000D01*
X43570000Y-57430000D02*
X43570000Y-57020000D01*
X41750000Y-57430000D02*
X41750000Y-57020000D01*
X41030000Y-57430000D02*
X41030000Y-57020000D01*
X39210000Y-57430000D02*
X39210000Y-57020000D01*
X38490000Y-57430000D02*
X38490000Y-57020000D01*
X36670000Y-57430000D02*
X36670000Y-57020000D01*
X35950000Y-57430000D02*
X35950000Y-57020000D01*
X34130000Y-57430000D02*
X34130000Y-57020000D01*
X33410000Y-57430000D02*
X33410000Y-57020000D01*
X31590000Y-57430000D02*
X31590000Y-57020000D01*
X30870000Y-57430000D02*
X30870000Y-57020000D01*
X29050000Y-57430000D02*
X29050000Y-57020000D01*
X28330000Y-57430000D02*
X28330000Y-57020000D01*
X26510000Y-57430000D02*
X26510000Y-57020000D01*
X25790000Y-57430000D02*
X25790000Y-57020000D01*
X23970000Y-57430000D02*
X23970000Y-57020000D01*
X23250000Y-57430000D02*
X23250000Y-57020000D01*
X21430000Y-57430000D02*
X21430000Y-57020000D01*
X20710000Y-57430000D02*
X20710000Y-57020000D01*
X18890000Y-57430000D02*
X18890000Y-57020000D01*
X18170000Y-57430000D02*
X18170000Y-57020000D01*
X16350000Y-57430000D02*
X16350000Y-57020000D01*
X15630000Y-57430000D02*
X15630000Y-57020000D01*
X13810000Y-57430000D02*
X13810000Y-57020000D01*
X13090000Y-57430000D02*
X13090000Y-57020000D01*
X11270000Y-57430000D02*
X11270000Y-57020000D01*
X10550000Y-57430000D02*
X10550000Y-57020000D01*
X8730000Y-57430000D02*
X8730000Y-57020000D01*
X8010000Y-57430000D02*
X8010000Y-57020000D01*
D13*
X56930000Y-57490000D02*
X7100000Y-57490000D01*
X56330000Y-57490000D02*
X56330000Y-53430000D01*
X53790000Y-57490000D02*
X53790000Y-53430000D01*
X51250000Y-57490000D02*
X51250000Y-53430000D01*
X48710000Y-57490000D02*
X48710000Y-53430000D01*
X46170000Y-57490000D02*
X46170000Y-53430000D01*
X43630000Y-57490000D02*
X43630000Y-53430000D01*
X41090000Y-57490000D02*
X41090000Y-53430000D01*
X38550000Y-57490000D02*
X38550000Y-53430000D01*
X36010000Y-57490000D02*
X36010000Y-53430000D01*
X33470000Y-57490000D02*
X33470000Y-53430000D01*
X30930000Y-57490000D02*
X30930000Y-53430000D01*
X28390000Y-57490000D02*
X28390000Y-53430000D01*
X25850000Y-57490000D02*
X25850000Y-53430000D01*
X23310000Y-57490000D02*
X23310000Y-53430000D01*
X20770000Y-57490000D02*
X20770000Y-53430000D01*
X18230000Y-57490000D02*
X18230000Y-53430000D01*
X15690000Y-57490000D02*
X15690000Y-53430000D01*
X13150000Y-57490000D02*
X13150000Y-53430000D01*
X10610000Y-57490000D02*
X10610000Y-53430000D01*
X8070000Y-57490000D02*
X8070000Y-53430000D01*
D12*
X57960000Y-65000000D02*
X57960000Y-57430000D01*
X57960000Y-65000000D02*
X7040000Y-65000000D01*
X55360000Y-65000000D02*
X55360000Y-57430000D01*
X52820000Y-65000000D02*
X52820000Y-57430000D01*
X50280000Y-65000000D02*
X50280000Y-57430000D01*
X47740000Y-65000000D02*
X47740000Y-57430000D01*
X45200000Y-65000000D02*
X45200000Y-57430000D01*
X42660000Y-65000000D02*
X42660000Y-57430000D01*
X40120000Y-65000000D02*
X40120000Y-57430000D01*
X37580000Y-65000000D02*
X37580000Y-57430000D01*
X35040000Y-65000000D02*
X35040000Y-57430000D01*
X32500000Y-65000000D02*
X32500000Y-57430000D01*
X29960000Y-65000000D02*
X29960000Y-57430000D01*
X27420000Y-65000000D02*
X27420000Y-57430000D01*
X24880000Y-65000000D02*
X24880000Y-57430000D01*
X22340000Y-65000000D02*
X22340000Y-57430000D01*
X19800000Y-65000000D02*
X19800000Y-57430000D01*
X17260000Y-65000000D02*
X17260000Y-57430000D01*
X14720000Y-65000000D02*
X14720000Y-57430000D01*
X12180000Y-65000000D02*
X12180000Y-57430000D01*
X9640000Y-65000000D02*
X9640000Y-57430000D01*
D13*
X7100000Y-65000000D02*
X57900000Y-65000000D01*
D12*
X7040000Y-65000000D02*
X7040000Y-57430000D01*
D13*
%TO.C,U1*%
X53110000Y-8210000D02*
X53110000Y-33610000D01*
X27710000Y-8210000D02*
X53110000Y-8210000D01*
X53110000Y-9480000D02*
X51840000Y-8210000D01*
X53110000Y-33610000D02*
X27710000Y-33610000D01*
X27710000Y-33610000D02*
X27710000Y-8210000D01*
D14*
X47160000Y-14560000D02*
G75*
G02*
X46360000Y-14560000I-400000J0D01*
G01*
X46360000Y-14560000D02*
G75*
G02*
X47160000Y-14560000I400000J0D01*
G01*
D12*
%TO.C,J2*%
X-30000Y-9270000D02*
X-30000Y-34790000D01*
X-30000Y-9270000D02*
X8600000Y-9270000D01*
X-30000Y-9390000D02*
X8600000Y-9390000D01*
X-30000Y-9508095D02*
X8600000Y-9508095D01*
X-30000Y-9626190D02*
X8600000Y-9626190D01*
X-30000Y-9744285D02*
X8600000Y-9744285D01*
X-30000Y-9862380D02*
X8600000Y-9862380D01*
X-30000Y-9980475D02*
X8600000Y-9980475D01*
X-30000Y-10098570D02*
X8600000Y-10098570D01*
X-30000Y-10216665D02*
X8600000Y-10216665D01*
X-30000Y-10334760D02*
X8600000Y-10334760D01*
X-30000Y-10452855D02*
X8600000Y-10452855D01*
X-30000Y-10570950D02*
X8600000Y-10570950D01*
X-30000Y-10689045D02*
X8600000Y-10689045D01*
X-30000Y-10807140D02*
X8600000Y-10807140D01*
X-30000Y-10925235D02*
X8600000Y-10925235D01*
X-30000Y-11043330D02*
X8600000Y-11043330D01*
X-30000Y-11161425D02*
X8600000Y-11161425D01*
X-30000Y-11279520D02*
X8600000Y-11279520D01*
X-30000Y-11397615D02*
X8600000Y-11397615D01*
X-30000Y-11515710D02*
X8600000Y-11515710D01*
X-30000Y-11633805D02*
X8600000Y-11633805D01*
X-30000Y-11751900D02*
X8600000Y-11751900D01*
X-30000Y-11870000D02*
X8600000Y-11870000D01*
X-30000Y-14410000D02*
X8600000Y-14410000D01*
X-30000Y-16950000D02*
X8600000Y-16950000D01*
X-30000Y-19490000D02*
X8600000Y-19490000D01*
X-30000Y-22030000D02*
X8600000Y-22030000D01*
X-30000Y-24570000D02*
X8600000Y-24570000D01*
X-30000Y-27110000D02*
X8600000Y-27110000D01*
X-30000Y-29650000D02*
X8600000Y-29650000D01*
X-30000Y-32190000D02*
X8600000Y-32190000D01*
X-30000Y-34790000D02*
X8600000Y-34790000D01*
D13*
X30000Y-9330000D02*
X7570000Y-9330000D01*
X30000Y-34730000D02*
X30000Y-9330000D01*
X7570000Y-9330000D02*
X8540000Y-10300000D01*
X8540000Y-10300000D02*
X8540000Y-34730000D01*
X8540000Y-10900000D02*
X12600000Y-10900000D01*
X8540000Y-13440000D02*
X12600000Y-13440000D01*
X8540000Y-15980000D02*
X12600000Y-15980000D01*
X8540000Y-18520000D02*
X12600000Y-18520000D01*
X8540000Y-21060000D02*
X12600000Y-21060000D01*
X8540000Y-23600000D02*
X12600000Y-23600000D01*
X8540000Y-26140000D02*
X12600000Y-26140000D01*
X8540000Y-28680000D02*
X12600000Y-28680000D01*
X8540000Y-31220000D02*
X12600000Y-31220000D01*
X8540000Y-33760000D02*
X12600000Y-33760000D01*
X8540000Y-34730000D02*
X30000Y-34730000D01*
D12*
X8600000Y-9270000D02*
X8600000Y-34790000D01*
X8600000Y-10240000D02*
X9010000Y-10240000D01*
X8600000Y-10960000D02*
X9010000Y-10960000D01*
X8600000Y-12780000D02*
X9010000Y-12780000D01*
X8600000Y-13500000D02*
X9010000Y-13500000D01*
X8600000Y-15320000D02*
X9010000Y-15320000D01*
X8600000Y-16040000D02*
X9010000Y-16040000D01*
X8600000Y-17860000D02*
X9010000Y-17860000D01*
X8600000Y-18580000D02*
X9010000Y-18580000D01*
X8600000Y-20400000D02*
X9010000Y-20400000D01*
X8600000Y-21120000D02*
X9010000Y-21120000D01*
X8600000Y-22940000D02*
X9010000Y-22940000D01*
X8600000Y-23660000D02*
X9010000Y-23660000D01*
X8600000Y-25480000D02*
X9010000Y-25480000D01*
X8600000Y-26200000D02*
X9010000Y-26200000D01*
X8600000Y-28020000D02*
X9010000Y-28020000D01*
X8600000Y-28740000D02*
X9010000Y-28740000D01*
X8600000Y-30560000D02*
X9010000Y-30560000D01*
X8600000Y-31280000D02*
X9010000Y-31280000D01*
X8600000Y-33100000D02*
X9010000Y-33100000D01*
X8600000Y-33820000D02*
X9010000Y-33820000D01*
X11110000Y-10240000D02*
X11490000Y-10240000D01*
X11110000Y-10960000D02*
X11490000Y-10960000D01*
X11110000Y-12780000D02*
X11550000Y-12780000D01*
X11110000Y-13500000D02*
X11550000Y-13500000D01*
X11110000Y-15320000D02*
X11550000Y-15320000D01*
X11110000Y-16040000D02*
X11550000Y-16040000D01*
X11110000Y-17860000D02*
X11550000Y-17860000D01*
X11110000Y-18580000D02*
X11550000Y-18580000D01*
X11110000Y-20400000D02*
X11550000Y-20400000D01*
X11110000Y-21120000D02*
X11550000Y-21120000D01*
X11110000Y-22940000D02*
X11550000Y-22940000D01*
X11110000Y-23660000D02*
X11550000Y-23660000D01*
X11110000Y-25480000D02*
X11550000Y-25480000D01*
X11110000Y-26200000D02*
X11550000Y-26200000D01*
X11110000Y-28020000D02*
X11550000Y-28020000D01*
X11110000Y-28740000D02*
X11550000Y-28740000D01*
X11110000Y-30560000D02*
X11550000Y-30560000D01*
X11110000Y-31280000D02*
X11550000Y-31280000D01*
X11110000Y-33100000D02*
X11550000Y-33100000D01*
X11110000Y-33820000D02*
X11550000Y-33820000D01*
X12600000Y-9270000D02*
X13710000Y-9270000D01*
D13*
X12600000Y-10300000D02*
X8540000Y-10300000D01*
X12600000Y-10900000D02*
X12600000Y-10300000D01*
X12600000Y-12840000D02*
X8540000Y-12840000D01*
X12600000Y-13440000D02*
X12600000Y-12840000D01*
X12600000Y-15380000D02*
X8540000Y-15380000D01*
X12600000Y-15980000D02*
X12600000Y-15380000D01*
X12600000Y-17920000D02*
X8540000Y-17920000D01*
X12600000Y-18520000D02*
X12600000Y-17920000D01*
X12600000Y-20460000D02*
X8540000Y-20460000D01*
X12600000Y-21060000D02*
X12600000Y-20460000D01*
X12600000Y-23000000D02*
X8540000Y-23000000D01*
X12600000Y-23600000D02*
X12600000Y-23000000D01*
X12600000Y-25540000D02*
X8540000Y-25540000D01*
X12600000Y-26140000D02*
X12600000Y-25540000D01*
X12600000Y-28080000D02*
X8540000Y-28080000D01*
X12600000Y-28680000D02*
X12600000Y-28080000D01*
X12600000Y-30620000D02*
X8540000Y-30620000D01*
X12600000Y-31220000D02*
X12600000Y-30620000D01*
X12600000Y-33160000D02*
X8540000Y-33160000D01*
X12600000Y-33760000D02*
X12600000Y-33160000D01*
D12*
X13710000Y-9270000D02*
X13710000Y-10600000D01*
%TO.C,J3*%
X4680000Y-39760000D02*
X4680000Y-41820000D01*
X2970000Y-39760000D02*
X4680000Y-39760000D01*
X-1140000Y-39760000D02*
X470000Y-39760000D01*
X-1140000Y-39760000D02*
X-1140000Y-47480000D01*
D13*
X4570000Y-39870000D02*
X4570000Y-47370000D01*
X-1030000Y-39870000D02*
X4570000Y-39870000D01*
X270000Y-41020000D02*
X270000Y-46220000D01*
D12*
X4680000Y-41820000D02*
X5270000Y-41820000D01*
D13*
X5270000Y-41920000D02*
X4870000Y-42320000D01*
X4870000Y-42320000D02*
X5270000Y-42720000D01*
X5270000Y-42720000D02*
X5270000Y-41920000D01*
X4570000Y-47370000D02*
X-1030000Y-47370000D01*
X-1030000Y-47370000D02*
X-1030000Y-39870000D01*
D12*
X4680000Y-47480000D02*
X4680000Y-45420000D01*
X2970000Y-47480000D02*
X4680000Y-47480000D01*
X-1140000Y-47480000D02*
X470000Y-47480000D01*
%TO.C,SW1*%
X64985000Y-7999999D02*
X61535000Y-7999999D01*
X58695000Y-7999999D02*
X58495000Y-7999999D01*
D13*
X58615000Y-8119999D02*
X64865000Y-8119999D01*
X61165000Y-8669999D02*
X58615000Y-8669999D01*
X58615000Y-8669999D02*
X58615000Y-8119999D01*
D12*
X58495000Y-8789999D02*
X58495000Y-7999999D01*
X58495000Y-8789999D02*
X58745000Y-8789999D01*
X61045000Y-9379999D02*
X61045000Y-14159999D01*
D13*
X68765000Y-10569999D02*
X68765000Y-12969999D01*
X64865000Y-10569999D02*
X68765000Y-10569999D01*
X64865000Y-12969999D02*
X68765000Y-12969999D01*
D12*
X58495000Y-14749999D02*
X58745000Y-14749999D01*
D13*
X61165000Y-14869999D02*
X61165000Y-8669999D01*
X61165000Y-14869999D02*
X58615000Y-14869999D01*
X64865000Y-15419999D02*
X64865000Y-8119999D01*
X64865000Y-15419999D02*
X58615000Y-15419999D01*
X58615000Y-15419999D02*
X58615000Y-14869999D01*
D12*
X64985000Y-15539999D02*
X64985000Y-7999999D01*
X61535000Y-15539999D02*
X64985000Y-15539999D01*
X58695000Y-15539999D02*
X58495000Y-15539999D01*
X58495000Y-15539999D02*
X58495000Y-14749999D01*
%TD*%
M02*
