%TF.GenerationSoftware,KiCad,Pcbnew,9.0.7*%
%TF.CreationDate,2026-05-06T21:21:00+02:00*%
%TF.ProjectId,BarePi_Port,42617265-5069-45f5-906f-72742e6b6963,rev?*%
%TF.SameCoordinates,Original*%
%TF.FileFunction,Soldermask,Bot*%
%TF.FilePolarity,Negative*%
%FSLAX46Y46*%
G04 Gerber Fmt 4.6, Leading zero omitted, Abs format (unit mm)*
G04 Created by KiCad (PCBNEW 9.0.7) date 2026-05-06 21:21:00*
%MOMM*%
%LPD*%
G01*
G04 APERTURE LIST*
G04 Aperture macros list*
%AMOutline4P*
0 Free polygon, 4 corners , with rotation*
0 The origin of the aperture is its center*
0 number of corners: always 4*
0 $1 to $8 corner X, Y*
0 $9 Rotation angle, in degrees counterclockwise*
0 create outline with 4 corners*
4,1,4,$1,$2,$3,$4,$5,$6,$7,$8,$1,$2,$9*%
G04 Aperture macros list end*
%ADD10Outline4P,-1.500000X-0.800000X1.500000X-0.800000X1.500000X0.800000X-1.500000X0.800000X0.000000*%
%ADD11O,3.000000X1.600000*%
%ADD12C,3.000000*%
%ADD13R,1.600000X3.200000*%
%ADD14O,1.600000X3.200000*%
%ADD15Outline4P,-1.600000X-0.800000X1.600000X-0.800000X1.600000X0.800000X-1.600000X0.800000X180.000000*%
%ADD16O,3.200000X1.600000*%
%ADD17Outline4P,-1.500000X-0.800000X1.500000X-0.800000X1.500000X0.800000X-1.500000X0.800000X90.000000*%
%ADD18O,1.600000X3.000000*%
%ADD19Outline4P,-1.500000X-0.800000X1.500000X-0.800000X1.500000X0.800000X-1.500000X0.800000X270.000000*%
G04 APERTURE END LIST*
D10*
%TO.C,J11*%
X20650000Y-26000000D03*
D11*
X17310000Y-26000000D03*
X20650000Y-28540000D03*
X17310000Y-28540000D03*
X20650000Y-31080000D03*
X17310000Y-31080000D03*
X20650000Y-33620000D03*
X17310000Y-33620000D03*
X20650000Y-36160000D03*
X17310000Y-36160000D03*
X20650000Y-38700000D03*
X17310000Y-38700000D03*
X20650000Y-41240000D03*
X17310000Y-41240000D03*
X20650000Y-43780000D03*
X17310000Y-43780000D03*
%TD*%
D12*
%TO.C,REF\u002A\u002A*%
X61500000Y-3500000D03*
%TD*%
%TO.C,REF\u002A\u002A*%
X3500000Y-61500000D03*
%TD*%
D13*
%TO.C,J6*%
X30000000Y-27000000D03*
D14*
X32540000Y-27000000D03*
X35080000Y-27000000D03*
X37620000Y-27000000D03*
%TD*%
D13*
%TO.C,J4*%
X30000000Y-15000000D03*
D14*
X32540000Y-15000000D03*
X35080000Y-15000000D03*
X37620000Y-15000000D03*
%TD*%
D15*
%TO.C,J3*%
X10500000Y-38000000D03*
D16*
X10500000Y-35460000D03*
X10500000Y-32920000D03*
%TD*%
D17*
%TO.C,J8*%
X48810000Y-44900000D03*
D18*
X48810000Y-41560000D03*
X51350000Y-44900000D03*
X51350000Y-41560000D03*
X53890000Y-44900000D03*
X53890000Y-41560000D03*
%TD*%
D17*
%TO.C,J10*%
X45000000Y-21000000D03*
D18*
X47540000Y-21000000D03*
X50080000Y-21000000D03*
X52620000Y-21000000D03*
X55160000Y-21000000D03*
X57700000Y-21000000D03*
%TD*%
D19*
%TO.C,J1*%
X8370000Y-3830000D03*
D18*
X8370000Y-7170000D03*
X10910000Y-3830000D03*
X10910000Y-7170000D03*
X13450000Y-3830000D03*
X13450000Y-7170000D03*
X15990000Y-3830000D03*
X15990000Y-7170000D03*
X18530000Y-3830000D03*
X18530000Y-7170000D03*
X21070000Y-3830000D03*
X21070000Y-7170000D03*
X23610000Y-3830000D03*
X23610000Y-7170000D03*
X26150000Y-3830000D03*
X26150000Y-7170000D03*
X28690000Y-3830000D03*
X28690000Y-7170000D03*
X31230000Y-3830000D03*
X31230000Y-7170000D03*
X33770000Y-3830000D03*
X33770000Y-7170000D03*
X36310000Y-3830000D03*
X36310000Y-7170000D03*
X38850000Y-3830000D03*
X38850000Y-7170000D03*
X41390000Y-3830000D03*
X41390000Y-7170000D03*
X43930000Y-3830000D03*
X43930000Y-7170000D03*
X46470000Y-3830000D03*
X46470000Y-7170000D03*
X49010000Y-3830000D03*
X49010000Y-7170000D03*
X51550000Y-3830000D03*
X51550000Y-7170000D03*
X54090000Y-3830000D03*
X54090000Y-7170000D03*
X56630000Y-3830000D03*
X56630000Y-7170000D03*
%TD*%
D17*
%TO.C,J7*%
X48810000Y-31900000D03*
D18*
X48810000Y-28560000D03*
X51350000Y-31900000D03*
X51350000Y-28560000D03*
X53890000Y-31900000D03*
X53890000Y-28560000D03*
%TD*%
D13*
%TO.C,J5*%
X30000000Y-21000000D03*
D14*
X32540000Y-21000000D03*
X35080000Y-21000000D03*
X37620000Y-21000000D03*
%TD*%
D13*
%TO.C,J12*%
X15000000Y-15000000D03*
D14*
X17540000Y-15000000D03*
X20080000Y-15000000D03*
X22620000Y-15000000D03*
%TD*%
D12*
%TO.C,REF\u002A\u002A*%
X61500000Y-61500000D03*
%TD*%
D19*
%TO.C,J2*%
X8370000Y-56370000D03*
D18*
X8370000Y-53030000D03*
X10910000Y-56370000D03*
X10910000Y-53030000D03*
X13450000Y-56370000D03*
X13450000Y-53030000D03*
X15990000Y-56370000D03*
X15990000Y-53030000D03*
X18530000Y-56370000D03*
X18530000Y-53030000D03*
X21070000Y-56370000D03*
X21070000Y-53030000D03*
X23610000Y-56370000D03*
X23610000Y-53030000D03*
X26150000Y-56370000D03*
X26150000Y-53030000D03*
X28690000Y-56370000D03*
X28690000Y-53030000D03*
X31230000Y-56370000D03*
X31230000Y-53030000D03*
X33770000Y-56370000D03*
X33770000Y-53030000D03*
X36310000Y-56370000D03*
X36310000Y-53030000D03*
X38850000Y-56370000D03*
X38850000Y-53030000D03*
X41390000Y-56370000D03*
X41390000Y-53030000D03*
X43930000Y-56370000D03*
X43930000Y-53030000D03*
X46470000Y-56370000D03*
X46470000Y-53030000D03*
X49010000Y-56370000D03*
X49010000Y-53030000D03*
X51550000Y-56370000D03*
X51550000Y-53030000D03*
X54090000Y-56370000D03*
X54090000Y-53030000D03*
X56630000Y-56370000D03*
X56630000Y-53030000D03*
%TD*%
D12*
%TO.C,REF\u002A\u002A*%
X3500000Y-3500000D03*
%TD*%
D17*
%TO.C,J9*%
X45000000Y-15000000D03*
D18*
X47540000Y-15000000D03*
X50080000Y-15000000D03*
X52620000Y-15000000D03*
X55160000Y-15000000D03*
X57700000Y-15000000D03*
%TD*%
M02*
