%TF.GenerationSoftware,KiCad,Pcbnew,9.0.7*%
%TF.CreationDate,2026-05-06T21:21:01+02:00*%
%TF.ProjectId,BarePi_Port,42617265-5069-45f5-906f-72742e6b6963,rev?*%
%TF.SameCoordinates,Original*%
%TF.FileFunction,AssemblyDrawing,Top*%
%FSLAX46Y46*%
G04 Gerber Fmt 4.6, Leading zero omitted, Abs format (unit mm)*
G04 Created by KiCad (PCBNEW 9.0.7) date 2026-05-06 21:21:01*
%MOMM*%
%LPD*%
G01*
G04 APERTURE LIST*
%ADD10C,0.150000*%
%ADD11C,0.120000*%
%ADD12C,0.100000*%
G04 APERTURE END LIST*
D10*
X41402380Y-36854819D02*
X40830952Y-36854819D01*
X41116666Y-36854819D02*
X41116666Y-35854819D01*
X41116666Y-35854819D02*
X41021428Y-35997676D01*
X41021428Y-35997676D02*
X40926190Y-36092914D01*
X40926190Y-36092914D02*
X40830952Y-36140533D01*
X42021428Y-35854819D02*
X42116666Y-35854819D01*
X42116666Y-35854819D02*
X42211904Y-35902438D01*
X42211904Y-35902438D02*
X42259523Y-35950057D01*
X42259523Y-35950057D02*
X42307142Y-36045295D01*
X42307142Y-36045295D02*
X42354761Y-36235771D01*
X42354761Y-36235771D02*
X42354761Y-36473866D01*
X42354761Y-36473866D02*
X42307142Y-36664342D01*
X42307142Y-36664342D02*
X42259523Y-36759580D01*
X42259523Y-36759580D02*
X42211904Y-36807200D01*
X42211904Y-36807200D02*
X42116666Y-36854819D01*
X42116666Y-36854819D02*
X42021428Y-36854819D01*
X42021428Y-36854819D02*
X41926190Y-36807200D01*
X41926190Y-36807200D02*
X41878571Y-36759580D01*
X41878571Y-36759580D02*
X41830952Y-36664342D01*
X41830952Y-36664342D02*
X41783333Y-36473866D01*
X41783333Y-36473866D02*
X41783333Y-36235771D01*
X41783333Y-36235771D02*
X41830952Y-36045295D01*
X41830952Y-36045295D02*
X41878571Y-35950057D01*
X41878571Y-35950057D02*
X41926190Y-35902438D01*
X41926190Y-35902438D02*
X42021428Y-35854819D01*
X42973809Y-35854819D02*
X43069047Y-35854819D01*
X43069047Y-35854819D02*
X43164285Y-35902438D01*
X43164285Y-35902438D02*
X43211904Y-35950057D01*
X43211904Y-35950057D02*
X43259523Y-36045295D01*
X43259523Y-36045295D02*
X43307142Y-36235771D01*
X43307142Y-36235771D02*
X43307142Y-36473866D01*
X43307142Y-36473866D02*
X43259523Y-36664342D01*
X43259523Y-36664342D02*
X43211904Y-36759580D01*
X43211904Y-36759580D02*
X43164285Y-36807200D01*
X43164285Y-36807200D02*
X43069047Y-36854819D01*
X43069047Y-36854819D02*
X42973809Y-36854819D01*
X42973809Y-36854819D02*
X42878571Y-36807200D01*
X42878571Y-36807200D02*
X42830952Y-36759580D01*
X42830952Y-36759580D02*
X42783333Y-36664342D01*
X42783333Y-36664342D02*
X42735714Y-36473866D01*
X42735714Y-36473866D02*
X42735714Y-36235771D01*
X42735714Y-36235771D02*
X42783333Y-36045295D01*
X42783333Y-36045295D02*
X42830952Y-35950057D01*
X42830952Y-35950057D02*
X42878571Y-35902438D01*
X42878571Y-35902438D02*
X42973809Y-35854819D01*
X43735714Y-36188152D02*
X43735714Y-36854819D01*
X43735714Y-36283390D02*
X43783333Y-36235771D01*
X43783333Y-36235771D02*
X43878571Y-36188152D01*
X43878571Y-36188152D02*
X44021428Y-36188152D01*
X44021428Y-36188152D02*
X44116666Y-36235771D01*
X44116666Y-36235771D02*
X44164285Y-36331009D01*
X44164285Y-36331009D02*
X44164285Y-36854819D01*
X44973809Y-36331009D02*
X44640476Y-36331009D01*
X44640476Y-36854819D02*
X44640476Y-35854819D01*
X44640476Y-35854819D02*
X45116666Y-35854819D01*
D11*
X41473333Y-34691140D02*
X41425714Y-34738760D01*
X41425714Y-34738760D02*
X41282857Y-34786379D01*
X41282857Y-34786379D02*
X41187619Y-34786379D01*
X41187619Y-34786379D02*
X41044762Y-34738760D01*
X41044762Y-34738760D02*
X40949524Y-34643521D01*
X40949524Y-34643521D02*
X40901905Y-34548283D01*
X40901905Y-34548283D02*
X40854286Y-34357807D01*
X40854286Y-34357807D02*
X40854286Y-34214950D01*
X40854286Y-34214950D02*
X40901905Y-34024474D01*
X40901905Y-34024474D02*
X40949524Y-33929236D01*
X40949524Y-33929236D02*
X41044762Y-33833998D01*
X41044762Y-33833998D02*
X41187619Y-33786379D01*
X41187619Y-33786379D02*
X41282857Y-33786379D01*
X41282857Y-33786379D02*
X41425714Y-33833998D01*
X41425714Y-33833998D02*
X41473333Y-33881617D01*
X42425714Y-34786379D02*
X41854286Y-34786379D01*
X42140000Y-34786379D02*
X42140000Y-33786379D01*
X42140000Y-33786379D02*
X42044762Y-33929236D01*
X42044762Y-33929236D02*
X41949524Y-34024474D01*
X41949524Y-34024474D02*
X41854286Y-34072093D01*
D10*
X11973333Y-46864819D02*
X11973333Y-45864819D01*
X11973333Y-45864819D02*
X12354285Y-45864819D01*
X12354285Y-45864819D02*
X12449523Y-45912438D01*
X12449523Y-45912438D02*
X12497142Y-45960057D01*
X12497142Y-45960057D02*
X12544761Y-46055295D01*
X12544761Y-46055295D02*
X12544761Y-46198152D01*
X12544761Y-46198152D02*
X12497142Y-46293390D01*
X12497142Y-46293390D02*
X12449523Y-46341009D01*
X12449523Y-46341009D02*
X12354285Y-46388628D01*
X12354285Y-46388628D02*
X11973333Y-46388628D01*
X13163809Y-45864819D02*
X13354285Y-45864819D01*
X13354285Y-45864819D02*
X13449523Y-45912438D01*
X13449523Y-45912438D02*
X13544761Y-46007676D01*
X13544761Y-46007676D02*
X13592380Y-46198152D01*
X13592380Y-46198152D02*
X13592380Y-46531485D01*
X13592380Y-46531485D02*
X13544761Y-46721961D01*
X13544761Y-46721961D02*
X13449523Y-46817200D01*
X13449523Y-46817200D02*
X13354285Y-46864819D01*
X13354285Y-46864819D02*
X13163809Y-46864819D01*
X13163809Y-46864819D02*
X13068571Y-46817200D01*
X13068571Y-46817200D02*
X12973333Y-46721961D01*
X12973333Y-46721961D02*
X12925714Y-46531485D01*
X12925714Y-46531485D02*
X12925714Y-46198152D01*
X12925714Y-46198152D02*
X12973333Y-46007676D01*
X12973333Y-46007676D02*
X13068571Y-45912438D01*
X13068571Y-45912438D02*
X13163809Y-45864819D01*
X14592380Y-46864819D02*
X14259047Y-46388628D01*
X14020952Y-46864819D02*
X14020952Y-45864819D01*
X14020952Y-45864819D02*
X14401904Y-45864819D01*
X14401904Y-45864819D02*
X14497142Y-45912438D01*
X14497142Y-45912438D02*
X14544761Y-45960057D01*
X14544761Y-45960057D02*
X14592380Y-46055295D01*
X14592380Y-46055295D02*
X14592380Y-46198152D01*
X14592380Y-46198152D02*
X14544761Y-46293390D01*
X14544761Y-46293390D02*
X14497142Y-46341009D01*
X14497142Y-46341009D02*
X14401904Y-46388628D01*
X14401904Y-46388628D02*
X14020952Y-46388628D01*
X14878095Y-45864819D02*
X15449523Y-45864819D01*
X15163809Y-46864819D02*
X15163809Y-45864819D01*
X13350476Y-43794819D02*
X13350476Y-44509104D01*
X13350476Y-44509104D02*
X13302857Y-44651961D01*
X13302857Y-44651961D02*
X13207619Y-44747200D01*
X13207619Y-44747200D02*
X13064762Y-44794819D01*
X13064762Y-44794819D02*
X12969524Y-44794819D01*
X14350476Y-44794819D02*
X13779048Y-44794819D01*
X14064762Y-44794819D02*
X14064762Y-43794819D01*
X14064762Y-43794819D02*
X13969524Y-43937676D01*
X13969524Y-43937676D02*
X13874286Y-44032914D01*
X13874286Y-44032914D02*
X13779048Y-44080533D01*
X15302857Y-44794819D02*
X14731429Y-44794819D01*
X15017143Y-44794819D02*
X15017143Y-43794819D01*
X15017143Y-43794819D02*
X14921905Y-43937676D01*
X14921905Y-43937676D02*
X14826667Y-44032914D01*
X14826667Y-44032914D02*
X14731429Y-44080533D01*
X25593810Y-27794819D02*
X25593810Y-26794819D01*
X26022381Y-26890057D02*
X26070000Y-26842438D01*
X26070000Y-26842438D02*
X26165238Y-26794819D01*
X26165238Y-26794819D02*
X26403333Y-26794819D01*
X26403333Y-26794819D02*
X26498571Y-26842438D01*
X26498571Y-26842438D02*
X26546190Y-26890057D01*
X26546190Y-26890057D02*
X26593809Y-26985295D01*
X26593809Y-26985295D02*
X26593809Y-27080533D01*
X26593809Y-27080533D02*
X26546190Y-27223390D01*
X26546190Y-27223390D02*
X25974762Y-27794819D01*
X25974762Y-27794819D02*
X26593809Y-27794819D01*
X27593809Y-27699580D02*
X27546190Y-27747200D01*
X27546190Y-27747200D02*
X27403333Y-27794819D01*
X27403333Y-27794819D02*
X27308095Y-27794819D01*
X27308095Y-27794819D02*
X27165238Y-27747200D01*
X27165238Y-27747200D02*
X27070000Y-27651961D01*
X27070000Y-27651961D02*
X27022381Y-27556723D01*
X27022381Y-27556723D02*
X26974762Y-27366247D01*
X26974762Y-27366247D02*
X26974762Y-27223390D01*
X26974762Y-27223390D02*
X27022381Y-27032914D01*
X27022381Y-27032914D02*
X27070000Y-26937676D01*
X27070000Y-26937676D02*
X27165238Y-26842438D01*
X27165238Y-26842438D02*
X27308095Y-26794819D01*
X27308095Y-26794819D02*
X27403333Y-26794819D01*
X27403333Y-26794819D02*
X27546190Y-26842438D01*
X27546190Y-26842438D02*
X27593809Y-26890057D01*
X26406666Y-25114819D02*
X26406666Y-25829104D01*
X26406666Y-25829104D02*
X26359047Y-25971961D01*
X26359047Y-25971961D02*
X26263809Y-26067200D01*
X26263809Y-26067200D02*
X26120952Y-26114819D01*
X26120952Y-26114819D02*
X26025714Y-26114819D01*
X27311428Y-25114819D02*
X27120952Y-25114819D01*
X27120952Y-25114819D02*
X27025714Y-25162438D01*
X27025714Y-25162438D02*
X26978095Y-25210057D01*
X26978095Y-25210057D02*
X26882857Y-25352914D01*
X26882857Y-25352914D02*
X26835238Y-25543390D01*
X26835238Y-25543390D02*
X26835238Y-25924342D01*
X26835238Y-25924342D02*
X26882857Y-26019580D01*
X26882857Y-26019580D02*
X26930476Y-26067200D01*
X26930476Y-26067200D02*
X27025714Y-26114819D01*
X27025714Y-26114819D02*
X27216190Y-26114819D01*
X27216190Y-26114819D02*
X27311428Y-26067200D01*
X27311428Y-26067200D02*
X27359047Y-26019580D01*
X27359047Y-26019580D02*
X27406666Y-25924342D01*
X27406666Y-25924342D02*
X27406666Y-25686247D01*
X27406666Y-25686247D02*
X27359047Y-25591009D01*
X27359047Y-25591009D02*
X27311428Y-25543390D01*
X27311428Y-25543390D02*
X27216190Y-25495771D01*
X27216190Y-25495771D02*
X27025714Y-25495771D01*
X27025714Y-25495771D02*
X26930476Y-25543390D01*
X26930476Y-25543390D02*
X26882857Y-25591009D01*
X26882857Y-25591009D02*
X26835238Y-25686247D01*
X25783810Y-15954819D02*
X25783810Y-14954819D01*
X26212381Y-15050057D02*
X26260000Y-15002438D01*
X26260000Y-15002438D02*
X26355238Y-14954819D01*
X26355238Y-14954819D02*
X26593333Y-14954819D01*
X26593333Y-14954819D02*
X26688571Y-15002438D01*
X26688571Y-15002438D02*
X26736190Y-15050057D01*
X26736190Y-15050057D02*
X26783809Y-15145295D01*
X26783809Y-15145295D02*
X26783809Y-15240533D01*
X26783809Y-15240533D02*
X26736190Y-15383390D01*
X26736190Y-15383390D02*
X26164762Y-15954819D01*
X26164762Y-15954819D02*
X26783809Y-15954819D01*
X27783809Y-15859580D02*
X27736190Y-15907200D01*
X27736190Y-15907200D02*
X27593333Y-15954819D01*
X27593333Y-15954819D02*
X27498095Y-15954819D01*
X27498095Y-15954819D02*
X27355238Y-15907200D01*
X27355238Y-15907200D02*
X27260000Y-15811961D01*
X27260000Y-15811961D02*
X27212381Y-15716723D01*
X27212381Y-15716723D02*
X27164762Y-15526247D01*
X27164762Y-15526247D02*
X27164762Y-15383390D01*
X27164762Y-15383390D02*
X27212381Y-15192914D01*
X27212381Y-15192914D02*
X27260000Y-15097676D01*
X27260000Y-15097676D02*
X27355238Y-15002438D01*
X27355238Y-15002438D02*
X27498095Y-14954819D01*
X27498095Y-14954819D02*
X27593333Y-14954819D01*
X27593333Y-14954819D02*
X27736190Y-15002438D01*
X27736190Y-15002438D02*
X27783809Y-15050057D01*
X26566666Y-13584819D02*
X26566666Y-14299104D01*
X26566666Y-14299104D02*
X26519047Y-14441961D01*
X26519047Y-14441961D02*
X26423809Y-14537200D01*
X26423809Y-14537200D02*
X26280952Y-14584819D01*
X26280952Y-14584819D02*
X26185714Y-14584819D01*
X27471428Y-13918152D02*
X27471428Y-14584819D01*
X27233333Y-13537200D02*
X26995238Y-14251485D01*
X26995238Y-14251485D02*
X27614285Y-14251485D01*
X1131905Y-29154819D02*
X1370000Y-30154819D01*
X1370000Y-30154819D02*
X1560476Y-29440533D01*
X1560476Y-29440533D02*
X1750952Y-30154819D01*
X1750952Y-30154819D02*
X1989048Y-29154819D01*
X2941428Y-30059580D02*
X2893809Y-30107200D01*
X2893809Y-30107200D02*
X2750952Y-30154819D01*
X2750952Y-30154819D02*
X2655714Y-30154819D01*
X2655714Y-30154819D02*
X2512857Y-30107200D01*
X2512857Y-30107200D02*
X2417619Y-30011961D01*
X2417619Y-30011961D02*
X2370000Y-29916723D01*
X2370000Y-29916723D02*
X2322381Y-29726247D01*
X2322381Y-29726247D02*
X2322381Y-29583390D01*
X2322381Y-29583390D02*
X2370000Y-29392914D01*
X2370000Y-29392914D02*
X2417619Y-29297676D01*
X2417619Y-29297676D02*
X2512857Y-29202438D01*
X2512857Y-29202438D02*
X2655714Y-29154819D01*
X2655714Y-29154819D02*
X2750952Y-29154819D01*
X2750952Y-29154819D02*
X2893809Y-29202438D01*
X2893809Y-29202438D02*
X2941428Y-29250057D01*
X3370000Y-30154819D02*
X3370000Y-29154819D01*
X3370000Y-29631009D02*
X3941428Y-29631009D01*
X3941428Y-30154819D02*
X3941428Y-29154819D01*
X4417619Y-29773866D02*
X5179524Y-29773866D01*
X6131904Y-30154819D02*
X5655714Y-30154819D01*
X5655714Y-30154819D02*
X5655714Y-29154819D01*
X6465238Y-30154819D02*
X6465238Y-29154819D01*
X6941428Y-30154819D02*
X6941428Y-29154819D01*
X6941428Y-29154819D02*
X7512856Y-30154819D01*
X7512856Y-30154819D02*
X7512856Y-29154819D01*
X7989047Y-30154819D02*
X7989047Y-29154819D01*
X8560475Y-30154819D02*
X8131904Y-29583390D01*
X8560475Y-29154819D02*
X7989047Y-29726247D01*
X1526666Y-27534819D02*
X1526666Y-28249104D01*
X1526666Y-28249104D02*
X1479047Y-28391961D01*
X1479047Y-28391961D02*
X1383809Y-28487200D01*
X1383809Y-28487200D02*
X1240952Y-28534819D01*
X1240952Y-28534819D02*
X1145714Y-28534819D01*
X1907619Y-27534819D02*
X2526666Y-27534819D01*
X2526666Y-27534819D02*
X2193333Y-27915771D01*
X2193333Y-27915771D02*
X2336190Y-27915771D01*
X2336190Y-27915771D02*
X2431428Y-27963390D01*
X2431428Y-27963390D02*
X2479047Y-28011009D01*
X2479047Y-28011009D02*
X2526666Y-28106247D01*
X2526666Y-28106247D02*
X2526666Y-28344342D01*
X2526666Y-28344342D02*
X2479047Y-28439580D01*
X2479047Y-28439580D02*
X2431428Y-28487200D01*
X2431428Y-28487200D02*
X2336190Y-28534819D01*
X2336190Y-28534819D02*
X2050476Y-28534819D01*
X2050476Y-28534819D02*
X1955238Y-28487200D01*
X1955238Y-28487200D02*
X1907619Y-28439580D01*
X27963809Y-44799580D02*
X27916190Y-44847200D01*
X27916190Y-44847200D02*
X27773333Y-44894819D01*
X27773333Y-44894819D02*
X27678095Y-44894819D01*
X27678095Y-44894819D02*
X27535238Y-44847200D01*
X27535238Y-44847200D02*
X27440000Y-44751961D01*
X27440000Y-44751961D02*
X27392381Y-44656723D01*
X27392381Y-44656723D02*
X27344762Y-44466247D01*
X27344762Y-44466247D02*
X27344762Y-44323390D01*
X27344762Y-44323390D02*
X27392381Y-44132914D01*
X27392381Y-44132914D02*
X27440000Y-44037676D01*
X27440000Y-44037676D02*
X27535238Y-43942438D01*
X27535238Y-43942438D02*
X27678095Y-43894819D01*
X27678095Y-43894819D02*
X27773333Y-43894819D01*
X27773333Y-43894819D02*
X27916190Y-43942438D01*
X27916190Y-43942438D02*
X27963809Y-43990057D01*
X28392381Y-44894819D02*
X28392381Y-43894819D01*
X28392381Y-44371009D02*
X28963809Y-44371009D01*
X28963809Y-44894819D02*
X28963809Y-43894819D01*
X29344762Y-43894819D02*
X29963809Y-43894819D01*
X29963809Y-43894819D02*
X29630476Y-44275771D01*
X29630476Y-44275771D02*
X29773333Y-44275771D01*
X29773333Y-44275771D02*
X29868571Y-44323390D01*
X29868571Y-44323390D02*
X29916190Y-44371009D01*
X29916190Y-44371009D02*
X29963809Y-44466247D01*
X29963809Y-44466247D02*
X29963809Y-44704342D01*
X29963809Y-44704342D02*
X29916190Y-44799580D01*
X29916190Y-44799580D02*
X29868571Y-44847200D01*
X29868571Y-44847200D02*
X29773333Y-44894819D01*
X29773333Y-44894819D02*
X29487619Y-44894819D01*
X29487619Y-44894819D02*
X29392381Y-44847200D01*
X29392381Y-44847200D02*
X29344762Y-44799580D01*
X30344762Y-43990057D02*
X30392381Y-43942438D01*
X30392381Y-43942438D02*
X30487619Y-43894819D01*
X30487619Y-43894819D02*
X30725714Y-43894819D01*
X30725714Y-43894819D02*
X30820952Y-43942438D01*
X30820952Y-43942438D02*
X30868571Y-43990057D01*
X30868571Y-43990057D02*
X30916190Y-44085295D01*
X30916190Y-44085295D02*
X30916190Y-44180533D01*
X30916190Y-44180533D02*
X30868571Y-44323390D01*
X30868571Y-44323390D02*
X30297143Y-44894819D01*
X30297143Y-44894819D02*
X30916190Y-44894819D01*
X31201905Y-43894819D02*
X31535238Y-44894819D01*
X31535238Y-44894819D02*
X31868571Y-43894819D01*
X32392381Y-43894819D02*
X32487619Y-43894819D01*
X32487619Y-43894819D02*
X32582857Y-43942438D01*
X32582857Y-43942438D02*
X32630476Y-43990057D01*
X32630476Y-43990057D02*
X32678095Y-44085295D01*
X32678095Y-44085295D02*
X32725714Y-44275771D01*
X32725714Y-44275771D02*
X32725714Y-44513866D01*
X32725714Y-44513866D02*
X32678095Y-44704342D01*
X32678095Y-44704342D02*
X32630476Y-44799580D01*
X32630476Y-44799580D02*
X32582857Y-44847200D01*
X32582857Y-44847200D02*
X32487619Y-44894819D01*
X32487619Y-44894819D02*
X32392381Y-44894819D01*
X32392381Y-44894819D02*
X32297143Y-44847200D01*
X32297143Y-44847200D02*
X32249524Y-44799580D01*
X32249524Y-44799580D02*
X32201905Y-44704342D01*
X32201905Y-44704342D02*
X32154286Y-44513866D01*
X32154286Y-44513866D02*
X32154286Y-44275771D01*
X32154286Y-44275771D02*
X32201905Y-44085295D01*
X32201905Y-44085295D02*
X32249524Y-43990057D01*
X32249524Y-43990057D02*
X32297143Y-43942438D01*
X32297143Y-43942438D02*
X32392381Y-43894819D01*
X33344762Y-43894819D02*
X33440000Y-43894819D01*
X33440000Y-43894819D02*
X33535238Y-43942438D01*
X33535238Y-43942438D02*
X33582857Y-43990057D01*
X33582857Y-43990057D02*
X33630476Y-44085295D01*
X33630476Y-44085295D02*
X33678095Y-44275771D01*
X33678095Y-44275771D02*
X33678095Y-44513866D01*
X33678095Y-44513866D02*
X33630476Y-44704342D01*
X33630476Y-44704342D02*
X33582857Y-44799580D01*
X33582857Y-44799580D02*
X33535238Y-44847200D01*
X33535238Y-44847200D02*
X33440000Y-44894819D01*
X33440000Y-44894819D02*
X33344762Y-44894819D01*
X33344762Y-44894819D02*
X33249524Y-44847200D01*
X33249524Y-44847200D02*
X33201905Y-44799580D01*
X33201905Y-44799580D02*
X33154286Y-44704342D01*
X33154286Y-44704342D02*
X33106667Y-44513866D01*
X33106667Y-44513866D02*
X33106667Y-44275771D01*
X33106667Y-44275771D02*
X33154286Y-44085295D01*
X33154286Y-44085295D02*
X33201905Y-43990057D01*
X33201905Y-43990057D02*
X33249524Y-43942438D01*
X33249524Y-43942438D02*
X33344762Y-43894819D01*
X34059048Y-43990057D02*
X34106667Y-43942438D01*
X34106667Y-43942438D02*
X34201905Y-43894819D01*
X34201905Y-43894819D02*
X34440000Y-43894819D01*
X34440000Y-43894819D02*
X34535238Y-43942438D01*
X34535238Y-43942438D02*
X34582857Y-43990057D01*
X34582857Y-43990057D02*
X34630476Y-44085295D01*
X34630476Y-44085295D02*
X34630476Y-44180533D01*
X34630476Y-44180533D02*
X34582857Y-44323390D01*
X34582857Y-44323390D02*
X34011429Y-44894819D01*
X34011429Y-44894819D02*
X34630476Y-44894819D01*
X35011429Y-44609104D02*
X35487619Y-44609104D01*
X34916191Y-44894819D02*
X35249524Y-43894819D01*
X35249524Y-43894819D02*
X35582857Y-44894819D01*
X36344762Y-44228152D02*
X36344762Y-44894819D01*
X36106667Y-43847200D02*
X35868572Y-44561485D01*
X35868572Y-44561485D02*
X36487619Y-44561485D01*
X36868572Y-44894819D02*
X36868572Y-43894819D01*
X36868572Y-43894819D02*
X37201905Y-44609104D01*
X37201905Y-44609104D02*
X37535238Y-43894819D01*
X37535238Y-43894819D02*
X37535238Y-44894819D01*
X38440000Y-43894819D02*
X38249524Y-43894819D01*
X38249524Y-43894819D02*
X38154286Y-43942438D01*
X38154286Y-43942438D02*
X38106667Y-43990057D01*
X38106667Y-43990057D02*
X38011429Y-44132914D01*
X38011429Y-44132914D02*
X37963810Y-44323390D01*
X37963810Y-44323390D02*
X37963810Y-44704342D01*
X37963810Y-44704342D02*
X38011429Y-44799580D01*
X38011429Y-44799580D02*
X38059048Y-44847200D01*
X38059048Y-44847200D02*
X38154286Y-44894819D01*
X38154286Y-44894819D02*
X38344762Y-44894819D01*
X38344762Y-44894819D02*
X38440000Y-44847200D01*
X38440000Y-44847200D02*
X38487619Y-44799580D01*
X38487619Y-44799580D02*
X38535238Y-44704342D01*
X38535238Y-44704342D02*
X38535238Y-44466247D01*
X38535238Y-44466247D02*
X38487619Y-44371009D01*
X38487619Y-44371009D02*
X38440000Y-44323390D01*
X38440000Y-44323390D02*
X38344762Y-44275771D01*
X38344762Y-44275771D02*
X38154286Y-44275771D01*
X38154286Y-44275771D02*
X38059048Y-44323390D01*
X38059048Y-44323390D02*
X38011429Y-44371009D01*
X38011429Y-44371009D02*
X37963810Y-44466247D01*
X33398095Y-45504819D02*
X33398095Y-46314342D01*
X33398095Y-46314342D02*
X33445714Y-46409580D01*
X33445714Y-46409580D02*
X33493333Y-46457200D01*
X33493333Y-46457200D02*
X33588571Y-46504819D01*
X33588571Y-46504819D02*
X33779047Y-46504819D01*
X33779047Y-46504819D02*
X33874285Y-46457200D01*
X33874285Y-46457200D02*
X33921904Y-46409580D01*
X33921904Y-46409580D02*
X33969523Y-46314342D01*
X33969523Y-46314342D02*
X33969523Y-45504819D01*
X34969523Y-46504819D02*
X34398095Y-46504819D01*
X34683809Y-46504819D02*
X34683809Y-45504819D01*
X34683809Y-45504819D02*
X34588571Y-45647676D01*
X34588571Y-45647676D02*
X34493333Y-45742914D01*
X34493333Y-45742914D02*
X34398095Y-45790533D01*
X59900000Y-43607200D02*
X60042857Y-43654819D01*
X60042857Y-43654819D02*
X60280952Y-43654819D01*
X60280952Y-43654819D02*
X60376190Y-43607200D01*
X60376190Y-43607200D02*
X60423809Y-43559580D01*
X60423809Y-43559580D02*
X60471428Y-43464342D01*
X60471428Y-43464342D02*
X60471428Y-43369104D01*
X60471428Y-43369104D02*
X60423809Y-43273866D01*
X60423809Y-43273866D02*
X60376190Y-43226247D01*
X60376190Y-43226247D02*
X60280952Y-43178628D01*
X60280952Y-43178628D02*
X60090476Y-43131009D01*
X60090476Y-43131009D02*
X59995238Y-43083390D01*
X59995238Y-43083390D02*
X59947619Y-43035771D01*
X59947619Y-43035771D02*
X59900000Y-42940533D01*
X59900000Y-42940533D02*
X59900000Y-42845295D01*
X59900000Y-42845295D02*
X59947619Y-42750057D01*
X59947619Y-42750057D02*
X59995238Y-42702438D01*
X59995238Y-42702438D02*
X60090476Y-42654819D01*
X60090476Y-42654819D02*
X60328571Y-42654819D01*
X60328571Y-42654819D02*
X60471428Y-42702438D01*
X60900000Y-43654819D02*
X60900000Y-42654819D01*
X60900000Y-42654819D02*
X61280952Y-42654819D01*
X61280952Y-42654819D02*
X61376190Y-42702438D01*
X61376190Y-42702438D02*
X61423809Y-42750057D01*
X61423809Y-42750057D02*
X61471428Y-42845295D01*
X61471428Y-42845295D02*
X61471428Y-42988152D01*
X61471428Y-42988152D02*
X61423809Y-43083390D01*
X61423809Y-43083390D02*
X61376190Y-43131009D01*
X61376190Y-43131009D02*
X61280952Y-43178628D01*
X61280952Y-43178628D02*
X60900000Y-43178628D01*
X61900000Y-43654819D02*
X61900000Y-42654819D01*
X62899999Y-43654819D02*
X62328571Y-43654819D01*
X62614285Y-43654819D02*
X62614285Y-42654819D01*
X62614285Y-42654819D02*
X62519047Y-42797676D01*
X62519047Y-42797676D02*
X62423809Y-42892914D01*
X62423809Y-42892914D02*
X62328571Y-42940533D01*
X60116666Y-40914819D02*
X60116666Y-41629104D01*
X60116666Y-41629104D02*
X60069047Y-41771961D01*
X60069047Y-41771961D02*
X59973809Y-41867200D01*
X59973809Y-41867200D02*
X59830952Y-41914819D01*
X59830952Y-41914819D02*
X59735714Y-41914819D01*
X60735714Y-41343390D02*
X60640476Y-41295771D01*
X60640476Y-41295771D02*
X60592857Y-41248152D01*
X60592857Y-41248152D02*
X60545238Y-41152914D01*
X60545238Y-41152914D02*
X60545238Y-41105295D01*
X60545238Y-41105295D02*
X60592857Y-41010057D01*
X60592857Y-41010057D02*
X60640476Y-40962438D01*
X60640476Y-40962438D02*
X60735714Y-40914819D01*
X60735714Y-40914819D02*
X60926190Y-40914819D01*
X60926190Y-40914819D02*
X61021428Y-40962438D01*
X61021428Y-40962438D02*
X61069047Y-41010057D01*
X61069047Y-41010057D02*
X61116666Y-41105295D01*
X61116666Y-41105295D02*
X61116666Y-41152914D01*
X61116666Y-41152914D02*
X61069047Y-41248152D01*
X61069047Y-41248152D02*
X61021428Y-41295771D01*
X61021428Y-41295771D02*
X60926190Y-41343390D01*
X60926190Y-41343390D02*
X60735714Y-41343390D01*
X60735714Y-41343390D02*
X60640476Y-41391009D01*
X60640476Y-41391009D02*
X60592857Y-41438628D01*
X60592857Y-41438628D02*
X60545238Y-41533866D01*
X60545238Y-41533866D02*
X60545238Y-41724342D01*
X60545238Y-41724342D02*
X60592857Y-41819580D01*
X60592857Y-41819580D02*
X60640476Y-41867200D01*
X60640476Y-41867200D02*
X60735714Y-41914819D01*
X60735714Y-41914819D02*
X60926190Y-41914819D01*
X60926190Y-41914819D02*
X61021428Y-41867200D01*
X61021428Y-41867200D02*
X61069047Y-41819580D01*
X61069047Y-41819580D02*
X61116666Y-41724342D01*
X61116666Y-41724342D02*
X61116666Y-41533866D01*
X61116666Y-41533866D02*
X61069047Y-41438628D01*
X61069047Y-41438628D02*
X61021428Y-41391009D01*
X61021428Y-41391009D02*
X60926190Y-41343390D01*
X59770000Y-21997200D02*
X59912857Y-22044819D01*
X59912857Y-22044819D02*
X60150952Y-22044819D01*
X60150952Y-22044819D02*
X60246190Y-21997200D01*
X60246190Y-21997200D02*
X60293809Y-21949580D01*
X60293809Y-21949580D02*
X60341428Y-21854342D01*
X60341428Y-21854342D02*
X60341428Y-21759104D01*
X60341428Y-21759104D02*
X60293809Y-21663866D01*
X60293809Y-21663866D02*
X60246190Y-21616247D01*
X60246190Y-21616247D02*
X60150952Y-21568628D01*
X60150952Y-21568628D02*
X59960476Y-21521009D01*
X59960476Y-21521009D02*
X59865238Y-21473390D01*
X59865238Y-21473390D02*
X59817619Y-21425771D01*
X59817619Y-21425771D02*
X59770000Y-21330533D01*
X59770000Y-21330533D02*
X59770000Y-21235295D01*
X59770000Y-21235295D02*
X59817619Y-21140057D01*
X59817619Y-21140057D02*
X59865238Y-21092438D01*
X59865238Y-21092438D02*
X59960476Y-21044819D01*
X59960476Y-21044819D02*
X60198571Y-21044819D01*
X60198571Y-21044819D02*
X60341428Y-21092438D01*
X60770000Y-22044819D02*
X60770000Y-21044819D01*
X60770000Y-21044819D02*
X61150952Y-21044819D01*
X61150952Y-21044819D02*
X61246190Y-21092438D01*
X61246190Y-21092438D02*
X61293809Y-21140057D01*
X61293809Y-21140057D02*
X61341428Y-21235295D01*
X61341428Y-21235295D02*
X61341428Y-21378152D01*
X61341428Y-21378152D02*
X61293809Y-21473390D01*
X61293809Y-21473390D02*
X61246190Y-21521009D01*
X61246190Y-21521009D02*
X61150952Y-21568628D01*
X61150952Y-21568628D02*
X60770000Y-21568628D01*
X61770000Y-22044819D02*
X61770000Y-21044819D01*
X62769999Y-22044819D02*
X62198571Y-22044819D01*
X62484285Y-22044819D02*
X62484285Y-21044819D01*
X62484285Y-21044819D02*
X62389047Y-21187676D01*
X62389047Y-21187676D02*
X62293809Y-21282914D01*
X62293809Y-21282914D02*
X62198571Y-21330533D01*
X60200476Y-19534819D02*
X60200476Y-20249104D01*
X60200476Y-20249104D02*
X60152857Y-20391961D01*
X60152857Y-20391961D02*
X60057619Y-20487200D01*
X60057619Y-20487200D02*
X59914762Y-20534819D01*
X59914762Y-20534819D02*
X59819524Y-20534819D01*
X61200476Y-20534819D02*
X60629048Y-20534819D01*
X60914762Y-20534819D02*
X60914762Y-19534819D01*
X60914762Y-19534819D02*
X60819524Y-19677676D01*
X60819524Y-19677676D02*
X60724286Y-19772914D01*
X60724286Y-19772914D02*
X60629048Y-19820533D01*
X61819524Y-19534819D02*
X61914762Y-19534819D01*
X61914762Y-19534819D02*
X62010000Y-19582438D01*
X62010000Y-19582438D02*
X62057619Y-19630057D01*
X62057619Y-19630057D02*
X62105238Y-19725295D01*
X62105238Y-19725295D02*
X62152857Y-19915771D01*
X62152857Y-19915771D02*
X62152857Y-20153866D01*
X62152857Y-20153866D02*
X62105238Y-20344342D01*
X62105238Y-20344342D02*
X62057619Y-20439580D01*
X62057619Y-20439580D02*
X62010000Y-20487200D01*
X62010000Y-20487200D02*
X61914762Y-20534819D01*
X61914762Y-20534819D02*
X61819524Y-20534819D01*
X61819524Y-20534819D02*
X61724286Y-20487200D01*
X61724286Y-20487200D02*
X61676667Y-20439580D01*
X61676667Y-20439580D02*
X61629048Y-20344342D01*
X61629048Y-20344342D02*
X61581429Y-20153866D01*
X61581429Y-20153866D02*
X61581429Y-19915771D01*
X61581429Y-19915771D02*
X61629048Y-19725295D01*
X61629048Y-19725295D02*
X61676667Y-19630057D01*
X61676667Y-19630057D02*
X61724286Y-19582438D01*
X61724286Y-19582438D02*
X61819524Y-19534819D01*
X1826191Y-7664819D02*
X1826191Y-6664819D01*
X2302381Y-7664819D02*
X2302381Y-6664819D01*
X2302381Y-6664819D02*
X2873809Y-7664819D01*
X2873809Y-7664819D02*
X2873809Y-6664819D01*
X5336666Y-6894819D02*
X5336666Y-7609104D01*
X5336666Y-7609104D02*
X5289047Y-7751961D01*
X5289047Y-7751961D02*
X5193809Y-7847200D01*
X5193809Y-7847200D02*
X5050952Y-7894819D01*
X5050952Y-7894819D02*
X4955714Y-7894819D01*
X6336666Y-7894819D02*
X5765238Y-7894819D01*
X6050952Y-7894819D02*
X6050952Y-6894819D01*
X6050952Y-6894819D02*
X5955714Y-7037676D01*
X5955714Y-7037676D02*
X5860476Y-7132914D01*
X5860476Y-7132914D02*
X5765238Y-7180533D01*
X59970000Y-31917200D02*
X60112857Y-31964819D01*
X60112857Y-31964819D02*
X60350952Y-31964819D01*
X60350952Y-31964819D02*
X60446190Y-31917200D01*
X60446190Y-31917200D02*
X60493809Y-31869580D01*
X60493809Y-31869580D02*
X60541428Y-31774342D01*
X60541428Y-31774342D02*
X60541428Y-31679104D01*
X60541428Y-31679104D02*
X60493809Y-31583866D01*
X60493809Y-31583866D02*
X60446190Y-31536247D01*
X60446190Y-31536247D02*
X60350952Y-31488628D01*
X60350952Y-31488628D02*
X60160476Y-31441009D01*
X60160476Y-31441009D02*
X60065238Y-31393390D01*
X60065238Y-31393390D02*
X60017619Y-31345771D01*
X60017619Y-31345771D02*
X59970000Y-31250533D01*
X59970000Y-31250533D02*
X59970000Y-31155295D01*
X59970000Y-31155295D02*
X60017619Y-31060057D01*
X60017619Y-31060057D02*
X60065238Y-31012438D01*
X60065238Y-31012438D02*
X60160476Y-30964819D01*
X60160476Y-30964819D02*
X60398571Y-30964819D01*
X60398571Y-30964819D02*
X60541428Y-31012438D01*
X60970000Y-31964819D02*
X60970000Y-30964819D01*
X60970000Y-30964819D02*
X61350952Y-30964819D01*
X61350952Y-30964819D02*
X61446190Y-31012438D01*
X61446190Y-31012438D02*
X61493809Y-31060057D01*
X61493809Y-31060057D02*
X61541428Y-31155295D01*
X61541428Y-31155295D02*
X61541428Y-31298152D01*
X61541428Y-31298152D02*
X61493809Y-31393390D01*
X61493809Y-31393390D02*
X61446190Y-31441009D01*
X61446190Y-31441009D02*
X61350952Y-31488628D01*
X61350952Y-31488628D02*
X60970000Y-31488628D01*
X61970000Y-31964819D02*
X61970000Y-30964819D01*
X62636666Y-30964819D02*
X62731904Y-30964819D01*
X62731904Y-30964819D02*
X62827142Y-31012438D01*
X62827142Y-31012438D02*
X62874761Y-31060057D01*
X62874761Y-31060057D02*
X62922380Y-31155295D01*
X62922380Y-31155295D02*
X62969999Y-31345771D01*
X62969999Y-31345771D02*
X62969999Y-31583866D01*
X62969999Y-31583866D02*
X62922380Y-31774342D01*
X62922380Y-31774342D02*
X62874761Y-31869580D01*
X62874761Y-31869580D02*
X62827142Y-31917200D01*
X62827142Y-31917200D02*
X62731904Y-31964819D01*
X62731904Y-31964819D02*
X62636666Y-31964819D01*
X62636666Y-31964819D02*
X62541428Y-31917200D01*
X62541428Y-31917200D02*
X62493809Y-31869580D01*
X62493809Y-31869580D02*
X62446190Y-31774342D01*
X62446190Y-31774342D02*
X62398571Y-31583866D01*
X62398571Y-31583866D02*
X62398571Y-31345771D01*
X62398571Y-31345771D02*
X62446190Y-31155295D01*
X62446190Y-31155295D02*
X62493809Y-31060057D01*
X62493809Y-31060057D02*
X62541428Y-31012438D01*
X62541428Y-31012438D02*
X62636666Y-30964819D01*
X60316666Y-28924819D02*
X60316666Y-29639104D01*
X60316666Y-29639104D02*
X60269047Y-29781961D01*
X60269047Y-29781961D02*
X60173809Y-29877200D01*
X60173809Y-29877200D02*
X60030952Y-29924819D01*
X60030952Y-29924819D02*
X59935714Y-29924819D01*
X60697619Y-28924819D02*
X61364285Y-28924819D01*
X61364285Y-28924819D02*
X60935714Y-29924819D01*
X25783810Y-22424819D02*
X25783810Y-21424819D01*
X26212381Y-21520057D02*
X26260000Y-21472438D01*
X26260000Y-21472438D02*
X26355238Y-21424819D01*
X26355238Y-21424819D02*
X26593333Y-21424819D01*
X26593333Y-21424819D02*
X26688571Y-21472438D01*
X26688571Y-21472438D02*
X26736190Y-21520057D01*
X26736190Y-21520057D02*
X26783809Y-21615295D01*
X26783809Y-21615295D02*
X26783809Y-21710533D01*
X26783809Y-21710533D02*
X26736190Y-21853390D01*
X26736190Y-21853390D02*
X26164762Y-22424819D01*
X26164762Y-22424819D02*
X26783809Y-22424819D01*
X27783809Y-22329580D02*
X27736190Y-22377200D01*
X27736190Y-22377200D02*
X27593333Y-22424819D01*
X27593333Y-22424819D02*
X27498095Y-22424819D01*
X27498095Y-22424819D02*
X27355238Y-22377200D01*
X27355238Y-22377200D02*
X27260000Y-22281961D01*
X27260000Y-22281961D02*
X27212381Y-22186723D01*
X27212381Y-22186723D02*
X27164762Y-21996247D01*
X27164762Y-21996247D02*
X27164762Y-21853390D01*
X27164762Y-21853390D02*
X27212381Y-21662914D01*
X27212381Y-21662914D02*
X27260000Y-21567676D01*
X27260000Y-21567676D02*
X27355238Y-21472438D01*
X27355238Y-21472438D02*
X27498095Y-21424819D01*
X27498095Y-21424819D02*
X27593333Y-21424819D01*
X27593333Y-21424819D02*
X27736190Y-21472438D01*
X27736190Y-21472438D02*
X27783809Y-21520057D01*
X26656666Y-19844819D02*
X26656666Y-20559104D01*
X26656666Y-20559104D02*
X26609047Y-20701961D01*
X26609047Y-20701961D02*
X26513809Y-20797200D01*
X26513809Y-20797200D02*
X26370952Y-20844819D01*
X26370952Y-20844819D02*
X26275714Y-20844819D01*
X27609047Y-19844819D02*
X27132857Y-19844819D01*
X27132857Y-19844819D02*
X27085238Y-20321009D01*
X27085238Y-20321009D02*
X27132857Y-20273390D01*
X27132857Y-20273390D02*
X27228095Y-20225771D01*
X27228095Y-20225771D02*
X27466190Y-20225771D01*
X27466190Y-20225771D02*
X27561428Y-20273390D01*
X27561428Y-20273390D02*
X27609047Y-20321009D01*
X27609047Y-20321009D02*
X27656666Y-20416247D01*
X27656666Y-20416247D02*
X27656666Y-20654342D01*
X27656666Y-20654342D02*
X27609047Y-20749580D01*
X27609047Y-20749580D02*
X27561428Y-20797200D01*
X27561428Y-20797200D02*
X27466190Y-20844819D01*
X27466190Y-20844819D02*
X27228095Y-20844819D01*
X27228095Y-20844819D02*
X27132857Y-20797200D01*
X27132857Y-20797200D02*
X27085238Y-20749580D01*
X9774762Y-15564819D02*
X9774762Y-16374342D01*
X9774762Y-16374342D02*
X9822381Y-16469580D01*
X9822381Y-16469580D02*
X9870000Y-16517200D01*
X9870000Y-16517200D02*
X9965238Y-16564819D01*
X9965238Y-16564819D02*
X10155714Y-16564819D01*
X10155714Y-16564819D02*
X10250952Y-16517200D01*
X10250952Y-16517200D02*
X10298571Y-16469580D01*
X10298571Y-16469580D02*
X10346190Y-16374342D01*
X10346190Y-16374342D02*
X10346190Y-15564819D01*
X10774762Y-16279104D02*
X11250952Y-16279104D01*
X10679524Y-16564819D02*
X11012857Y-15564819D01*
X11012857Y-15564819D02*
X11346190Y-16564819D01*
X12250952Y-16564819D02*
X11917619Y-16088628D01*
X11679524Y-16564819D02*
X11679524Y-15564819D01*
X11679524Y-15564819D02*
X12060476Y-15564819D01*
X12060476Y-15564819D02*
X12155714Y-15612438D01*
X12155714Y-15612438D02*
X12203333Y-15660057D01*
X12203333Y-15660057D02*
X12250952Y-15755295D01*
X12250952Y-15755295D02*
X12250952Y-15898152D01*
X12250952Y-15898152D02*
X12203333Y-15993390D01*
X12203333Y-15993390D02*
X12155714Y-16041009D01*
X12155714Y-16041009D02*
X12060476Y-16088628D01*
X12060476Y-16088628D02*
X11679524Y-16088628D01*
X12536667Y-15564819D02*
X13108095Y-15564819D01*
X12822381Y-16564819D02*
X12822381Y-15564819D01*
X10830476Y-13694819D02*
X10830476Y-14409104D01*
X10830476Y-14409104D02*
X10782857Y-14551961D01*
X10782857Y-14551961D02*
X10687619Y-14647200D01*
X10687619Y-14647200D02*
X10544762Y-14694819D01*
X10544762Y-14694819D02*
X10449524Y-14694819D01*
X11830476Y-14694819D02*
X11259048Y-14694819D01*
X11544762Y-14694819D02*
X11544762Y-13694819D01*
X11544762Y-13694819D02*
X11449524Y-13837676D01*
X11449524Y-13837676D02*
X11354286Y-13932914D01*
X11354286Y-13932914D02*
X11259048Y-13980533D01*
X12211429Y-13790057D02*
X12259048Y-13742438D01*
X12259048Y-13742438D02*
X12354286Y-13694819D01*
X12354286Y-13694819D02*
X12592381Y-13694819D01*
X12592381Y-13694819D02*
X12687619Y-13742438D01*
X12687619Y-13742438D02*
X12735238Y-13790057D01*
X12735238Y-13790057D02*
X12782857Y-13885295D01*
X12782857Y-13885295D02*
X12782857Y-13980533D01*
X12782857Y-13980533D02*
X12735238Y-14123390D01*
X12735238Y-14123390D02*
X12163810Y-14694819D01*
X12163810Y-14694819D02*
X12782857Y-14694819D01*
X1810000Y-54904819D02*
X2000476Y-54904819D01*
X2000476Y-54904819D02*
X2095714Y-54952438D01*
X2095714Y-54952438D02*
X2190952Y-55047676D01*
X2190952Y-55047676D02*
X2238571Y-55238152D01*
X2238571Y-55238152D02*
X2238571Y-55571485D01*
X2238571Y-55571485D02*
X2190952Y-55761961D01*
X2190952Y-55761961D02*
X2095714Y-55857200D01*
X2095714Y-55857200D02*
X2000476Y-55904819D01*
X2000476Y-55904819D02*
X1810000Y-55904819D01*
X1810000Y-55904819D02*
X1714762Y-55857200D01*
X1714762Y-55857200D02*
X1619524Y-55761961D01*
X1619524Y-55761961D02*
X1571905Y-55571485D01*
X1571905Y-55571485D02*
X1571905Y-55238152D01*
X1571905Y-55238152D02*
X1619524Y-55047676D01*
X1619524Y-55047676D02*
X1714762Y-54952438D01*
X1714762Y-54952438D02*
X1810000Y-54904819D01*
X2667143Y-54904819D02*
X2667143Y-55714342D01*
X2667143Y-55714342D02*
X2714762Y-55809580D01*
X2714762Y-55809580D02*
X2762381Y-55857200D01*
X2762381Y-55857200D02*
X2857619Y-55904819D01*
X2857619Y-55904819D02*
X3048095Y-55904819D01*
X3048095Y-55904819D02*
X3143333Y-55857200D01*
X3143333Y-55857200D02*
X3190952Y-55809580D01*
X3190952Y-55809580D02*
X3238571Y-55714342D01*
X3238571Y-55714342D02*
X3238571Y-54904819D01*
X3571905Y-54904819D02*
X4143333Y-54904819D01*
X3857619Y-55904819D02*
X3857619Y-54904819D01*
X4906666Y-53234819D02*
X4906666Y-53949104D01*
X4906666Y-53949104D02*
X4859047Y-54091961D01*
X4859047Y-54091961D02*
X4763809Y-54187200D01*
X4763809Y-54187200D02*
X4620952Y-54234819D01*
X4620952Y-54234819D02*
X4525714Y-54234819D01*
X5335238Y-53330057D02*
X5382857Y-53282438D01*
X5382857Y-53282438D02*
X5478095Y-53234819D01*
X5478095Y-53234819D02*
X5716190Y-53234819D01*
X5716190Y-53234819D02*
X5811428Y-53282438D01*
X5811428Y-53282438D02*
X5859047Y-53330057D01*
X5859047Y-53330057D02*
X5906666Y-53425295D01*
X5906666Y-53425295D02*
X5906666Y-53520533D01*
X5906666Y-53520533D02*
X5859047Y-53663390D01*
X5859047Y-53663390D02*
X5287619Y-54234819D01*
X5287619Y-54234819D02*
X5906666Y-54234819D01*
X59610000Y-16187200D02*
X59752857Y-16234819D01*
X59752857Y-16234819D02*
X59990952Y-16234819D01*
X59990952Y-16234819D02*
X60086190Y-16187200D01*
X60086190Y-16187200D02*
X60133809Y-16139580D01*
X60133809Y-16139580D02*
X60181428Y-16044342D01*
X60181428Y-16044342D02*
X60181428Y-15949104D01*
X60181428Y-15949104D02*
X60133809Y-15853866D01*
X60133809Y-15853866D02*
X60086190Y-15806247D01*
X60086190Y-15806247D02*
X59990952Y-15758628D01*
X59990952Y-15758628D02*
X59800476Y-15711009D01*
X59800476Y-15711009D02*
X59705238Y-15663390D01*
X59705238Y-15663390D02*
X59657619Y-15615771D01*
X59657619Y-15615771D02*
X59610000Y-15520533D01*
X59610000Y-15520533D02*
X59610000Y-15425295D01*
X59610000Y-15425295D02*
X59657619Y-15330057D01*
X59657619Y-15330057D02*
X59705238Y-15282438D01*
X59705238Y-15282438D02*
X59800476Y-15234819D01*
X59800476Y-15234819D02*
X60038571Y-15234819D01*
X60038571Y-15234819D02*
X60181428Y-15282438D01*
X60610000Y-16234819D02*
X60610000Y-15234819D01*
X60610000Y-15234819D02*
X60990952Y-15234819D01*
X60990952Y-15234819D02*
X61086190Y-15282438D01*
X61086190Y-15282438D02*
X61133809Y-15330057D01*
X61133809Y-15330057D02*
X61181428Y-15425295D01*
X61181428Y-15425295D02*
X61181428Y-15568152D01*
X61181428Y-15568152D02*
X61133809Y-15663390D01*
X61133809Y-15663390D02*
X61086190Y-15711009D01*
X61086190Y-15711009D02*
X60990952Y-15758628D01*
X60990952Y-15758628D02*
X60610000Y-15758628D01*
X61610000Y-16234819D02*
X61610000Y-15234819D01*
X62276666Y-15234819D02*
X62371904Y-15234819D01*
X62371904Y-15234819D02*
X62467142Y-15282438D01*
X62467142Y-15282438D02*
X62514761Y-15330057D01*
X62514761Y-15330057D02*
X62562380Y-15425295D01*
X62562380Y-15425295D02*
X62609999Y-15615771D01*
X62609999Y-15615771D02*
X62609999Y-15853866D01*
X62609999Y-15853866D02*
X62562380Y-16044342D01*
X62562380Y-16044342D02*
X62514761Y-16139580D01*
X62514761Y-16139580D02*
X62467142Y-16187200D01*
X62467142Y-16187200D02*
X62371904Y-16234819D01*
X62371904Y-16234819D02*
X62276666Y-16234819D01*
X62276666Y-16234819D02*
X62181428Y-16187200D01*
X62181428Y-16187200D02*
X62133809Y-16139580D01*
X62133809Y-16139580D02*
X62086190Y-16044342D01*
X62086190Y-16044342D02*
X62038571Y-15853866D01*
X62038571Y-15853866D02*
X62038571Y-15615771D01*
X62038571Y-15615771D02*
X62086190Y-15425295D01*
X62086190Y-15425295D02*
X62133809Y-15330057D01*
X62133809Y-15330057D02*
X62181428Y-15282438D01*
X62181428Y-15282438D02*
X62276666Y-15234819D01*
X60316666Y-13594819D02*
X60316666Y-14309104D01*
X60316666Y-14309104D02*
X60269047Y-14451961D01*
X60269047Y-14451961D02*
X60173809Y-14547200D01*
X60173809Y-14547200D02*
X60030952Y-14594819D01*
X60030952Y-14594819D02*
X59935714Y-14594819D01*
X60840476Y-14594819D02*
X61030952Y-14594819D01*
X61030952Y-14594819D02*
X61126190Y-14547200D01*
X61126190Y-14547200D02*
X61173809Y-14499580D01*
X61173809Y-14499580D02*
X61269047Y-14356723D01*
X61269047Y-14356723D02*
X61316666Y-14166247D01*
X61316666Y-14166247D02*
X61316666Y-13785295D01*
X61316666Y-13785295D02*
X61269047Y-13690057D01*
X61269047Y-13690057D02*
X61221428Y-13642438D01*
X61221428Y-13642438D02*
X61126190Y-13594819D01*
X61126190Y-13594819D02*
X60935714Y-13594819D01*
X60935714Y-13594819D02*
X60840476Y-13642438D01*
X60840476Y-13642438D02*
X60792857Y-13690057D01*
X60792857Y-13690057D02*
X60745238Y-13785295D01*
X60745238Y-13785295D02*
X60745238Y-14023390D01*
X60745238Y-14023390D02*
X60792857Y-14118628D01*
X60792857Y-14118628D02*
X60840476Y-14166247D01*
X60840476Y-14166247D02*
X60935714Y-14213866D01*
X60935714Y-14213866D02*
X61126190Y-14213866D01*
X61126190Y-14213866D02*
X61221428Y-14166247D01*
X61221428Y-14166247D02*
X61269047Y-14118628D01*
X61269047Y-14118628D02*
X61316666Y-14023390D01*
%TO.C,C1*%
D12*
X40300000Y-32900000D02*
X37800000Y-32900000D01*
X37800000Y-36100000D01*
X40300000Y-36100000D01*
X40300000Y-32900000D01*
D11*
%TO.C,J11*%
X16380000Y-24670000D02*
X16380000Y-45110000D01*
X16380000Y-24670000D02*
X18980000Y-24670000D01*
X16380000Y-45110000D02*
X21580000Y-45110000D01*
D12*
X16440000Y-24730000D02*
X20520000Y-24730000D01*
X16440000Y-45050000D02*
X16440000Y-24730000D01*
D11*
X18980000Y-24670000D02*
X18980000Y-27270000D01*
X18980000Y-27270000D02*
X21580000Y-27270000D01*
X20250000Y-24670000D02*
X21580000Y-24670000D01*
D12*
X20520000Y-24730000D02*
X21520000Y-25730000D01*
X21520000Y-25730000D02*
X21520000Y-45050000D01*
X21520000Y-45050000D02*
X16440000Y-45050000D01*
D11*
X21580000Y-24670000D02*
X21580000Y-26000000D01*
X21580000Y-27270000D02*
X21580000Y-45110000D01*
%TO.C,J6*%
X31270000Y-28330000D02*
X38950000Y-28330000D01*
X31270000Y-28330000D02*
X31270000Y-25670000D01*
X38950000Y-28330000D02*
X38950000Y-25670000D01*
D12*
X28730000Y-28270000D02*
X28730000Y-26365000D01*
X38890000Y-28270000D02*
X28730000Y-28270000D01*
D11*
X28670000Y-27000000D02*
X28670000Y-25670000D01*
D12*
X28730000Y-26365000D02*
X29365000Y-25730000D01*
X29365000Y-25730000D02*
X38890000Y-25730000D01*
X38890000Y-25730000D02*
X38890000Y-28270000D01*
D11*
X28670000Y-25670000D02*
X30000000Y-25670000D01*
X31270000Y-25670000D02*
X38950000Y-25670000D01*
%TO.C,J4*%
X31270000Y-16330000D02*
X38950000Y-16330000D01*
X31270000Y-16330000D02*
X31270000Y-13670000D01*
X38950000Y-16330000D02*
X38950000Y-13670000D01*
D12*
X28730000Y-16270000D02*
X28730000Y-14365000D01*
X38890000Y-16270000D02*
X28730000Y-16270000D01*
D11*
X28670000Y-15000000D02*
X28670000Y-13670000D01*
D12*
X28730000Y-14365000D02*
X29365000Y-13730000D01*
X29365000Y-13730000D02*
X38890000Y-13730000D01*
X38890000Y-13730000D02*
X38890000Y-16270000D01*
D11*
X28670000Y-13670000D02*
X30000000Y-13670000D01*
X31270000Y-13670000D02*
X38950000Y-13670000D01*
%TO.C,J3*%
X11770000Y-39270000D02*
X10500000Y-39270000D01*
X11770000Y-38000000D02*
X11770000Y-39270000D01*
D12*
X10820000Y-38320000D02*
X10820000Y-37680000D01*
X10820000Y-38320000D02*
X9000000Y-38320000D01*
X10820000Y-37680000D02*
X9000000Y-37680000D01*
X10820000Y-35780000D02*
X10820000Y-35140000D01*
X10820000Y-35780000D02*
X9000000Y-35780000D01*
X10820000Y-35140000D02*
X9000000Y-35140000D01*
X10820000Y-33240000D02*
X10820000Y-32600000D01*
X10820000Y-33240000D02*
X9000000Y-33240000D01*
X10820000Y-32600000D02*
X9000000Y-32600000D01*
D11*
X9422642Y-35890000D02*
X9110000Y-35890000D01*
X9422642Y-35030000D02*
X9110000Y-35030000D01*
X9422642Y-33350000D02*
X9110000Y-33350000D01*
X9422642Y-32490000D02*
X9110000Y-32490000D01*
X9340000Y-38430000D02*
X9110000Y-38430000D01*
X9340000Y-37570000D02*
X9110000Y-37570000D01*
X9110000Y-36730000D02*
X6350000Y-36730000D01*
X9110000Y-34190000D02*
X6350000Y-34190000D01*
D12*
X9000000Y-38635000D02*
X8365000Y-39270000D01*
X9000000Y-31650000D02*
X9000000Y-38635000D01*
X8365000Y-39270000D02*
X6460000Y-39270000D01*
X6460000Y-39270000D02*
X6460000Y-31650000D01*
X6460000Y-38320000D02*
X460000Y-38320000D01*
X6460000Y-37680000D02*
X460000Y-37680000D01*
X6460000Y-35780000D02*
X460000Y-35780000D01*
X6460000Y-35140000D02*
X460000Y-35140000D01*
X6460000Y-33240000D02*
X460000Y-33240000D01*
X6460000Y-32600000D02*
X460000Y-32600000D01*
X6460000Y-31650000D02*
X9000000Y-31650000D01*
D11*
X6350000Y-35890000D02*
X350000Y-35890000D01*
X6350000Y-33350000D02*
X350000Y-33350000D01*
D12*
X460000Y-38320000D02*
X460000Y-37680000D01*
X460000Y-35780000D02*
X460000Y-35140000D01*
X460000Y-33240000D02*
X460000Y-32600000D01*
D11*
X350000Y-35890000D02*
X350000Y-35030000D01*
X350000Y-35030000D02*
X6350000Y-35030000D01*
X350000Y-33350000D02*
X350000Y-32490000D01*
X350000Y-32490000D02*
X6350000Y-32490000D01*
X9110000Y-39380000D02*
X6350000Y-39380000D01*
X6350000Y-31540000D01*
X9110000Y-31540000D01*
X9110000Y-39380000D01*
X6350000Y-38430000D02*
X350000Y-38430000D01*
X350000Y-37570000D01*
X6350000Y-37570000D01*
X6350000Y-38430000D01*
G36*
X6350000Y-38430000D02*
G01*
X350000Y-38430000D01*
X350000Y-37570000D01*
X6350000Y-37570000D01*
X6350000Y-38430000D01*
G37*
%TO.C,U1*%
X30890000Y-33257500D02*
X35010000Y-33257500D01*
X30890000Y-33337500D02*
X30890000Y-33257500D01*
X30890000Y-43377500D02*
X30890000Y-43297500D01*
X35010000Y-33257500D02*
X35010000Y-33337500D01*
X35010000Y-43297500D02*
X35010000Y-43377500D01*
X35010000Y-43377500D02*
X30890000Y-43377500D01*
X30290000Y-33327500D02*
X30050000Y-32997500D01*
X30530000Y-32997500D01*
X30290000Y-33327500D01*
G36*
X30290000Y-33327500D02*
G01*
X30050000Y-32997500D01*
X30530000Y-32997500D01*
X30290000Y-33327500D01*
G37*
D12*
X34900000Y-43267500D02*
X31000000Y-43267500D01*
X31000000Y-34342500D01*
X31975000Y-33367500D01*
X34900000Y-33367500D01*
X34900000Y-43267500D01*
D11*
%TO.C,J8*%
X48310000Y-49180000D02*
X49310000Y-49180000D01*
X49310000Y-49180000D02*
X48810000Y-48180000D01*
X48810000Y-48180000D02*
X48310000Y-49180000D01*
X43600000Y-47790000D02*
X43600000Y-38670000D01*
X49300000Y-47790000D02*
X49300000Y-46480000D01*
X59100000Y-47790000D02*
X43600000Y-47790000D01*
D12*
X44710000Y-47680000D02*
X43710000Y-46680000D01*
X49300000Y-47680000D02*
X49300000Y-46480000D01*
X58990000Y-47680000D02*
X44710000Y-47680000D01*
X43710000Y-46680000D02*
X43710000Y-38780000D01*
X44900000Y-46480000D02*
X44900000Y-39980000D01*
D11*
X44900000Y-46480000D02*
X44900000Y-39980000D01*
D12*
X49300000Y-46480000D02*
X44900000Y-46480000D01*
D11*
X49300000Y-46480000D02*
X44900000Y-46480000D01*
X53400000Y-46480000D02*
X53400000Y-47790000D01*
D12*
X53400000Y-46480000D02*
X53400000Y-47680000D01*
X57800000Y-46480000D02*
X53400000Y-46480000D01*
D11*
X57800000Y-46480000D02*
X53400000Y-46480000D01*
D12*
X44900000Y-39980000D02*
X57800000Y-39980000D01*
D11*
X44900000Y-39980000D02*
X57800000Y-39980000D01*
D12*
X57800000Y-39980000D02*
X57800000Y-46480000D01*
D11*
X57800000Y-39980000D02*
X57800000Y-46480000D01*
D12*
X43710000Y-38780000D02*
X58990000Y-38780000D01*
X58990000Y-38780000D02*
X58990000Y-47680000D01*
D11*
X43600000Y-38670000D02*
X59100000Y-38670000D01*
X59100000Y-38670000D02*
X59100000Y-47790000D01*
%TO.C,J10*%
X46270000Y-22330000D02*
X59030000Y-22330000D01*
X46270000Y-22330000D02*
X46270000Y-19670000D01*
X59030000Y-22330000D02*
X59030000Y-19670000D01*
D12*
X43730000Y-22270000D02*
X43730000Y-20365000D01*
X58970000Y-22270000D02*
X43730000Y-22270000D01*
D11*
X43670000Y-21000000D02*
X43670000Y-19670000D01*
D12*
X43730000Y-20365000D02*
X44365000Y-19730000D01*
X44365000Y-19730000D02*
X58970000Y-19730000D01*
X58970000Y-19730000D02*
X58970000Y-22270000D01*
D11*
X43670000Y-19670000D02*
X45000000Y-19670000D01*
X46270000Y-19670000D02*
X59030000Y-19670000D01*
%TO.C,J1*%
X57060000Y5920000D02*
X56200000Y5920000D01*
X56200000Y5920000D02*
X56200000Y-80000D01*
X54520000Y5920000D02*
X53660000Y5920000D01*
X53660000Y5920000D02*
X53660000Y-80000D01*
X51980000Y5920000D02*
X51120000Y5920000D01*
X51120000Y5920000D02*
X51120000Y-80000D01*
X49440000Y5920000D02*
X48580000Y5920000D01*
X48580000Y5920000D02*
X48580000Y-80000D01*
X46900000Y5920000D02*
X46040000Y5920000D01*
X46040000Y5920000D02*
X46040000Y-80000D01*
X44360000Y5920000D02*
X43500000Y5920000D01*
X43500000Y5920000D02*
X43500000Y-80000D01*
X41820000Y5920000D02*
X40960000Y5920000D01*
X40960000Y5920000D02*
X40960000Y-80000D01*
X39280000Y5920000D02*
X38420000Y5920000D01*
X38420000Y5920000D02*
X38420000Y-80000D01*
X36740000Y5920000D02*
X35880000Y5920000D01*
X35880000Y5920000D02*
X35880000Y-80000D01*
X34200000Y5920000D02*
X33340000Y5920000D01*
X33340000Y5920000D02*
X33340000Y-80000D01*
X31660000Y5920000D02*
X30800000Y5920000D01*
X30800000Y5920000D02*
X30800000Y-80000D01*
X29120000Y5920000D02*
X28260000Y5920000D01*
X28260000Y5920000D02*
X28260000Y-80000D01*
X26580000Y5920000D02*
X25720000Y5920000D01*
X25720000Y5920000D02*
X25720000Y-80000D01*
X24040000Y5920000D02*
X23180000Y5920000D01*
X23180000Y5920000D02*
X23180000Y-80000D01*
X21500000Y5920000D02*
X20640000Y5920000D01*
X20640000Y5920000D02*
X20640000Y-80000D01*
X18960000Y5920000D02*
X18100000Y5920000D01*
X18100000Y5920000D02*
X18100000Y-80000D01*
X16420000Y5920000D02*
X15560000Y5920000D01*
X15560000Y5920000D02*
X15560000Y-80000D01*
X13880000Y5920000D02*
X13020000Y5920000D01*
X13020000Y5920000D02*
X13020000Y-80000D01*
X11340000Y5920000D02*
X10480000Y5920000D01*
X10480000Y5920000D02*
X10480000Y-80000D01*
X8800000Y5920000D02*
X7940000Y5920000D01*
X7940000Y5920000D02*
X7940000Y-80000D01*
X57060000Y-80000D02*
X57060000Y5920000D01*
X54520000Y-80000D02*
X54520000Y5920000D01*
X51980000Y-80000D02*
X51980000Y5920000D01*
X49440000Y-80000D02*
X49440000Y5920000D01*
X46900000Y-80000D02*
X46900000Y5920000D01*
X44360000Y-80000D02*
X44360000Y5920000D01*
X41820000Y-80000D02*
X41820000Y5920000D01*
X39280000Y-80000D02*
X39280000Y5920000D01*
X36740000Y-80000D02*
X36740000Y5920000D01*
X34200000Y-80000D02*
X34200000Y5920000D01*
X31660000Y-80000D02*
X31660000Y5920000D01*
X29120000Y-80000D02*
X29120000Y5920000D01*
X26580000Y-80000D02*
X26580000Y5920000D01*
X24040000Y-80000D02*
X24040000Y5920000D01*
X21500000Y-80000D02*
X21500000Y5920000D01*
X18960000Y-80000D02*
X18960000Y5920000D01*
X16420000Y-80000D02*
X16420000Y5920000D01*
X13880000Y-80000D02*
X13880000Y5920000D01*
X11340000Y-80000D02*
X11340000Y5920000D01*
X8800000Y-80000D02*
X8800000Y5920000D01*
X55360000Y-2840000D02*
X55360000Y-80000D01*
X52820000Y-2840000D02*
X52820000Y-80000D01*
X50280000Y-2840000D02*
X50280000Y-80000D01*
X47740000Y-2840000D02*
X47740000Y-80000D01*
X45200000Y-2840000D02*
X45200000Y-80000D01*
X42660000Y-2840000D02*
X42660000Y-80000D01*
X40120000Y-2840000D02*
X40120000Y-80000D01*
X37580000Y-2840000D02*
X37580000Y-80000D01*
X35040000Y-2840000D02*
X35040000Y-80000D01*
X32500000Y-2840000D02*
X32500000Y-80000D01*
X29960000Y-2840000D02*
X29960000Y-80000D01*
X27420000Y-2840000D02*
X27420000Y-80000D01*
X24880000Y-2840000D02*
X24880000Y-80000D01*
X22340000Y-2840000D02*
X22340000Y-80000D01*
X19800000Y-2840000D02*
X19800000Y-80000D01*
X17260000Y-2840000D02*
X17260000Y-80000D01*
X14720000Y-2840000D02*
X14720000Y-80000D01*
X12180000Y-2840000D02*
X12180000Y-80000D01*
X9640000Y-2840000D02*
X9640000Y-80000D01*
X57060000Y-3152642D02*
X57060000Y-2840000D01*
X56200000Y-3152642D02*
X56200000Y-2840000D01*
X54520000Y-3152642D02*
X54520000Y-2840000D01*
X53660000Y-3152642D02*
X53660000Y-2840000D01*
X51980000Y-3152642D02*
X51980000Y-2840000D01*
X51120000Y-3152642D02*
X51120000Y-2840000D01*
X49440000Y-3152642D02*
X49440000Y-2840000D01*
X48580000Y-3152642D02*
X48580000Y-2840000D01*
X46900000Y-3152642D02*
X46900000Y-2840000D01*
X46040000Y-3152642D02*
X46040000Y-2840000D01*
X44360000Y-3152642D02*
X44360000Y-2840000D01*
X43500000Y-3152642D02*
X43500000Y-2840000D01*
X41820000Y-3152642D02*
X41820000Y-2840000D01*
X40960000Y-3152642D02*
X40960000Y-2840000D01*
X39280000Y-3152642D02*
X39280000Y-2840000D01*
X38420000Y-3152642D02*
X38420000Y-2840000D01*
X36740000Y-3152642D02*
X36740000Y-2840000D01*
X35880000Y-3152642D02*
X35880000Y-2840000D01*
X34200000Y-3152642D02*
X34200000Y-2840000D01*
X33340000Y-3152642D02*
X33340000Y-2840000D01*
X31660000Y-3152642D02*
X31660000Y-2840000D01*
X30800000Y-3152642D02*
X30800000Y-2840000D01*
X29120000Y-3152642D02*
X29120000Y-2840000D01*
X28260000Y-3152642D02*
X28260000Y-2840000D01*
X26580000Y-3152642D02*
X26580000Y-2840000D01*
X25720000Y-3152642D02*
X25720000Y-2840000D01*
X24040000Y-3152642D02*
X24040000Y-2840000D01*
X23180000Y-3152642D02*
X23180000Y-2840000D01*
X21500000Y-3152642D02*
X21500000Y-2840000D01*
X20640000Y-3152642D02*
X20640000Y-2840000D01*
X18960000Y-3152642D02*
X18960000Y-2840000D01*
X18100000Y-3152642D02*
X18100000Y-2840000D01*
X16420000Y-3152642D02*
X16420000Y-2840000D01*
X15560000Y-3152642D02*
X15560000Y-2840000D01*
X13880000Y-3152642D02*
X13880000Y-2840000D01*
X13020000Y-3152642D02*
X13020000Y-2840000D01*
X11340000Y-3152642D02*
X11340000Y-2840000D01*
X10480000Y-3152642D02*
X10480000Y-2840000D01*
X8800000Y-3152642D02*
X8800000Y-2840000D01*
X7940000Y-3152642D02*
X7940000Y-2840000D01*
X57060000Y-5610000D02*
X57060000Y-5307358D01*
X56200000Y-5610000D02*
X56200000Y-5307358D01*
X54520000Y-5692642D02*
X54520000Y-5307358D01*
X53660000Y-5692642D02*
X53660000Y-5307358D01*
X51980000Y-5692642D02*
X51980000Y-5307358D01*
X51120000Y-5692642D02*
X51120000Y-5307358D01*
X49440000Y-5692642D02*
X49440000Y-5307358D01*
X48580000Y-5692642D02*
X48580000Y-5307358D01*
X46900000Y-5692642D02*
X46900000Y-5307358D01*
X46040000Y-5692642D02*
X46040000Y-5307358D01*
X44360000Y-5692642D02*
X44360000Y-5307358D01*
X43500000Y-5692642D02*
X43500000Y-5307358D01*
X41820000Y-5692642D02*
X41820000Y-5307358D01*
X40960000Y-5692642D02*
X40960000Y-5307358D01*
X39280000Y-5692642D02*
X39280000Y-5307358D01*
X38420000Y-5692642D02*
X38420000Y-5307358D01*
X36740000Y-5692642D02*
X36740000Y-5307358D01*
X35880000Y-5692642D02*
X35880000Y-5307358D01*
X34200000Y-5692642D02*
X34200000Y-5307358D01*
X33340000Y-5692642D02*
X33340000Y-5307358D01*
X31660000Y-5692642D02*
X31660000Y-5307358D01*
X30800000Y-5692642D02*
X30800000Y-5307358D01*
X29120000Y-5692642D02*
X29120000Y-5307358D01*
X28260000Y-5692642D02*
X28260000Y-5307358D01*
X26580000Y-5692642D02*
X26580000Y-5307358D01*
X25720000Y-5692642D02*
X25720000Y-5307358D01*
X24040000Y-5692642D02*
X24040000Y-5307358D01*
X23180000Y-5692642D02*
X23180000Y-5307358D01*
X21500000Y-5692642D02*
X21500000Y-5307358D01*
X20640000Y-5692642D02*
X20640000Y-5307358D01*
X18960000Y-5692642D02*
X18960000Y-5307358D01*
X18100000Y-5692642D02*
X18100000Y-5307358D01*
X16420000Y-5692642D02*
X16420000Y-5307358D01*
X15560000Y-5692642D02*
X15560000Y-5307358D01*
X13880000Y-5692642D02*
X13880000Y-5307358D01*
X13020000Y-5692642D02*
X13020000Y-5307358D01*
X11340000Y-5692642D02*
X11340000Y-5307358D01*
X10480000Y-5692642D02*
X10480000Y-5307358D01*
X8800000Y-5692642D02*
X8800000Y-5307358D01*
X7940000Y-5692642D02*
X7940000Y-5307358D01*
D12*
X56950000Y-7090000D02*
X56950000Y-2730000D01*
X56950000Y-7090000D02*
X56310000Y-7090000D01*
X56310000Y-7090000D02*
X56310000Y-2730000D01*
X54410000Y-7090000D02*
X54410000Y-2730000D01*
X54410000Y-7090000D02*
X53770000Y-7090000D01*
X53770000Y-7090000D02*
X53770000Y-2730000D01*
X51870000Y-7090000D02*
X51870000Y-2730000D01*
X51870000Y-7090000D02*
X51230000Y-7090000D01*
X51230000Y-7090000D02*
X51230000Y-2730000D01*
X49330000Y-7090000D02*
X49330000Y-2730000D01*
X49330000Y-7090000D02*
X48690000Y-7090000D01*
X48690000Y-7090000D02*
X48690000Y-2730000D01*
X46790000Y-7090000D02*
X46790000Y-2730000D01*
X46790000Y-7090000D02*
X46150000Y-7090000D01*
X46150000Y-7090000D02*
X46150000Y-2730000D01*
X44250000Y-7090000D02*
X44250000Y-2730000D01*
X44250000Y-7090000D02*
X43610000Y-7090000D01*
X43610000Y-7090000D02*
X43610000Y-2730000D01*
X41710000Y-7090000D02*
X41710000Y-2730000D01*
X41710000Y-7090000D02*
X41070000Y-7090000D01*
X41070000Y-7090000D02*
X41070000Y-2730000D01*
X39170000Y-7090000D02*
X39170000Y-2730000D01*
X39170000Y-7090000D02*
X38530000Y-7090000D01*
X38530000Y-7090000D02*
X38530000Y-2730000D01*
X36630000Y-7090000D02*
X36630000Y-2730000D01*
X36630000Y-7090000D02*
X35990000Y-7090000D01*
X35990000Y-7090000D02*
X35990000Y-2730000D01*
X34090000Y-7090000D02*
X34090000Y-2730000D01*
X34090000Y-7090000D02*
X33450000Y-7090000D01*
X33450000Y-7090000D02*
X33450000Y-2730000D01*
X31550000Y-7090000D02*
X31550000Y-2730000D01*
X31550000Y-7090000D02*
X30910000Y-7090000D01*
X30910000Y-7090000D02*
X30910000Y-2730000D01*
X29010000Y-7090000D02*
X29010000Y-2730000D01*
X29010000Y-7090000D02*
X28370000Y-7090000D01*
X28370000Y-7090000D02*
X28370000Y-2730000D01*
X26470000Y-7090000D02*
X26470000Y-2730000D01*
X26470000Y-7090000D02*
X25830000Y-7090000D01*
X25830000Y-7090000D02*
X25830000Y-2730000D01*
X23930000Y-7090000D02*
X23930000Y-2730000D01*
X23930000Y-7090000D02*
X23290000Y-7090000D01*
X23290000Y-7090000D02*
X23290000Y-2730000D01*
X21390000Y-7090000D02*
X21390000Y-2730000D01*
X21390000Y-7090000D02*
X20750000Y-7090000D01*
X20750000Y-7090000D02*
X20750000Y-2730000D01*
X18850000Y-7090000D02*
X18850000Y-2730000D01*
X18850000Y-7090000D02*
X18210000Y-7090000D01*
X18210000Y-7090000D02*
X18210000Y-2730000D01*
X16310000Y-7090000D02*
X16310000Y-2730000D01*
X16310000Y-7090000D02*
X15670000Y-7090000D01*
X15670000Y-7090000D02*
X15670000Y-2730000D01*
X13770000Y-7090000D02*
X13770000Y-2730000D01*
X13770000Y-7090000D02*
X13130000Y-7090000D01*
X13130000Y-7090000D02*
X13130000Y-2730000D01*
X11230000Y-7090000D02*
X11230000Y-2730000D01*
X11230000Y-7090000D02*
X10590000Y-7090000D01*
X10590000Y-7090000D02*
X10590000Y-2730000D01*
X8690000Y-7090000D02*
X8690000Y-2730000D01*
X8690000Y-7090000D02*
X8050000Y-7090000D01*
X8050000Y-7090000D02*
X8050000Y-2730000D01*
D11*
X57900000Y-8040000D02*
X57900000Y-6770000D01*
X56630000Y-8040000D02*
X57900000Y-8040000D01*
X58010000Y-80000D02*
X6990000Y-80000D01*
X6990000Y-2840000D01*
X58010000Y-2840000D01*
X58010000Y-80000D01*
%TO.C,J7*%
X48310000Y-36180000D02*
X49310000Y-36180000D01*
X49310000Y-36180000D02*
X48810000Y-35180000D01*
X48810000Y-35180000D02*
X48310000Y-36180000D01*
X43600000Y-34790000D02*
X43600000Y-25670000D01*
X49300000Y-34790000D02*
X49300000Y-33480000D01*
X59100000Y-34790000D02*
X43600000Y-34790000D01*
D12*
X44710000Y-34680000D02*
X43710000Y-33680000D01*
X49300000Y-34680000D02*
X49300000Y-33480000D01*
X58990000Y-34680000D02*
X44710000Y-34680000D01*
X43710000Y-33680000D02*
X43710000Y-25780000D01*
X44900000Y-33480000D02*
X44900000Y-26980000D01*
D11*
X44900000Y-33480000D02*
X44900000Y-26980000D01*
D12*
X49300000Y-33480000D02*
X44900000Y-33480000D01*
D11*
X49300000Y-33480000D02*
X44900000Y-33480000D01*
X53400000Y-33480000D02*
X53400000Y-34790000D01*
D12*
X53400000Y-33480000D02*
X53400000Y-34680000D01*
X57800000Y-33480000D02*
X53400000Y-33480000D01*
D11*
X57800000Y-33480000D02*
X53400000Y-33480000D01*
D12*
X44900000Y-26980000D02*
X57800000Y-26980000D01*
D11*
X44900000Y-26980000D02*
X57800000Y-26980000D01*
D12*
X57800000Y-26980000D02*
X57800000Y-33480000D01*
D11*
X57800000Y-26980000D02*
X57800000Y-33480000D01*
D12*
X43710000Y-25780000D02*
X58990000Y-25780000D01*
X58990000Y-25780000D02*
X58990000Y-34680000D01*
D11*
X43600000Y-25670000D02*
X59100000Y-25670000D01*
X59100000Y-25670000D02*
X59100000Y-34790000D01*
%TO.C,J5*%
X31270000Y-22330000D02*
X38950000Y-22330000D01*
X31270000Y-22330000D02*
X31270000Y-19670000D01*
X38950000Y-22330000D02*
X38950000Y-19670000D01*
D12*
X28730000Y-22270000D02*
X28730000Y-20365000D01*
X38890000Y-22270000D02*
X28730000Y-22270000D01*
D11*
X28670000Y-21000000D02*
X28670000Y-19670000D01*
D12*
X28730000Y-20365000D02*
X29365000Y-19730000D01*
X29365000Y-19730000D02*
X38890000Y-19730000D01*
X38890000Y-19730000D02*
X38890000Y-22270000D01*
D11*
X28670000Y-19670000D02*
X30000000Y-19670000D01*
X31270000Y-19670000D02*
X38950000Y-19670000D01*
%TO.C,J12*%
X16270000Y-16330000D02*
X23950000Y-16330000D01*
X16270000Y-16330000D02*
X16270000Y-13670000D01*
X23950000Y-16330000D02*
X23950000Y-13670000D01*
D12*
X13730000Y-16270000D02*
X13730000Y-14365000D01*
X23890000Y-16270000D02*
X13730000Y-16270000D01*
D11*
X13670000Y-15000000D02*
X13670000Y-13670000D01*
D12*
X13730000Y-14365000D02*
X14365000Y-13730000D01*
X14365000Y-13730000D02*
X23890000Y-13730000D01*
X23890000Y-13730000D02*
X23890000Y-16270000D01*
D11*
X13670000Y-13670000D02*
X15000000Y-13670000D01*
X16270000Y-13670000D02*
X23950000Y-13670000D01*
%TO.C,J2*%
X57960000Y-52320000D02*
X56630000Y-52320000D01*
X57960000Y-53430000D02*
X57960000Y-52320000D01*
D12*
X56930000Y-53430000D02*
X56930000Y-57490000D01*
X56330000Y-53430000D02*
X56930000Y-53430000D01*
X54390000Y-53430000D02*
X54390000Y-57490000D01*
X53790000Y-53430000D02*
X54390000Y-53430000D01*
X51850000Y-53430000D02*
X51850000Y-57490000D01*
X51250000Y-53430000D02*
X51850000Y-53430000D01*
X49310000Y-53430000D02*
X49310000Y-57490000D01*
X48710000Y-53430000D02*
X49310000Y-53430000D01*
X46770000Y-53430000D02*
X46770000Y-57490000D01*
X46170000Y-53430000D02*
X46770000Y-53430000D01*
X44230000Y-53430000D02*
X44230000Y-57490000D01*
X43630000Y-53430000D02*
X44230000Y-53430000D01*
X41690000Y-53430000D02*
X41690000Y-57490000D01*
X41090000Y-53430000D02*
X41690000Y-53430000D01*
X39150000Y-53430000D02*
X39150000Y-57490000D01*
X38550000Y-53430000D02*
X39150000Y-53430000D01*
X36610000Y-53430000D02*
X36610000Y-57490000D01*
X36010000Y-53430000D02*
X36610000Y-53430000D01*
X34070000Y-53430000D02*
X34070000Y-57490000D01*
X33470000Y-53430000D02*
X34070000Y-53430000D01*
X31530000Y-53430000D02*
X31530000Y-57490000D01*
X30930000Y-53430000D02*
X31530000Y-53430000D01*
X28990000Y-53430000D02*
X28990000Y-57490000D01*
X28390000Y-53430000D02*
X28990000Y-53430000D01*
X26450000Y-53430000D02*
X26450000Y-57490000D01*
X25850000Y-53430000D02*
X26450000Y-53430000D01*
X23910000Y-53430000D02*
X23910000Y-57490000D01*
X23310000Y-53430000D02*
X23910000Y-53430000D01*
X21370000Y-53430000D02*
X21370000Y-57490000D01*
X20770000Y-53430000D02*
X21370000Y-53430000D01*
X18830000Y-53430000D02*
X18830000Y-57490000D01*
X18230000Y-53430000D02*
X18830000Y-53430000D01*
X16290000Y-53430000D02*
X16290000Y-57490000D01*
X15690000Y-53430000D02*
X16290000Y-53430000D01*
X13750000Y-53430000D02*
X13750000Y-57490000D01*
X13150000Y-53430000D02*
X13750000Y-53430000D01*
X11210000Y-53430000D02*
X11210000Y-57490000D01*
X10610000Y-53430000D02*
X11210000Y-53430000D01*
X8670000Y-53430000D02*
X8670000Y-57490000D01*
X8070000Y-53430000D02*
X8670000Y-53430000D01*
D11*
X56990000Y-54920000D02*
X56990000Y-54540000D01*
X56270000Y-54920000D02*
X56270000Y-54540000D01*
X54450000Y-54920000D02*
X54450000Y-54480000D01*
X53730000Y-54920000D02*
X53730000Y-54480000D01*
X51910000Y-54920000D02*
X51910000Y-54480000D01*
X51190000Y-54920000D02*
X51190000Y-54480000D01*
X49370000Y-54920000D02*
X49370000Y-54480000D01*
X48650000Y-54920000D02*
X48650000Y-54480000D01*
X46830000Y-54920000D02*
X46830000Y-54480000D01*
X46110000Y-54920000D02*
X46110000Y-54480000D01*
X44290000Y-54920000D02*
X44290000Y-54480000D01*
X43570000Y-54920000D02*
X43570000Y-54480000D01*
X41750000Y-54920000D02*
X41750000Y-54480000D01*
X41030000Y-54920000D02*
X41030000Y-54480000D01*
X39210000Y-54920000D02*
X39210000Y-54480000D01*
X38490000Y-54920000D02*
X38490000Y-54480000D01*
X36670000Y-54920000D02*
X36670000Y-54480000D01*
X35950000Y-54920000D02*
X35950000Y-54480000D01*
X34130000Y-54920000D02*
X34130000Y-54480000D01*
X33410000Y-54920000D02*
X33410000Y-54480000D01*
X31590000Y-54920000D02*
X31590000Y-54480000D01*
X30870000Y-54920000D02*
X30870000Y-54480000D01*
X29050000Y-54920000D02*
X29050000Y-54480000D01*
X28330000Y-54920000D02*
X28330000Y-54480000D01*
X26510000Y-54920000D02*
X26510000Y-54480000D01*
X25790000Y-54920000D02*
X25790000Y-54480000D01*
X23970000Y-54920000D02*
X23970000Y-54480000D01*
X23250000Y-54920000D02*
X23250000Y-54480000D01*
X21430000Y-54920000D02*
X21430000Y-54480000D01*
X20710000Y-54920000D02*
X20710000Y-54480000D01*
X18890000Y-54920000D02*
X18890000Y-54480000D01*
X18170000Y-54920000D02*
X18170000Y-54480000D01*
X16350000Y-54920000D02*
X16350000Y-54480000D01*
X15630000Y-54920000D02*
X15630000Y-54480000D01*
X13810000Y-54920000D02*
X13810000Y-54480000D01*
X13090000Y-54920000D02*
X13090000Y-54480000D01*
X11270000Y-54920000D02*
X11270000Y-54480000D01*
X10550000Y-54920000D02*
X10550000Y-54480000D01*
X8730000Y-54920000D02*
X8730000Y-54480000D01*
X8010000Y-54920000D02*
X8010000Y-54480000D01*
X57960000Y-57430000D02*
X7040000Y-57430000D01*
X56990000Y-57430000D02*
X56990000Y-57020000D01*
X56270000Y-57430000D02*
X56270000Y-57020000D01*
X54450000Y-57430000D02*
X54450000Y-57020000D01*
X53730000Y-57430000D02*
X53730000Y-57020000D01*
X51910000Y-57430000D02*
X51910000Y-57020000D01*
X51190000Y-57430000D02*
X51190000Y-57020000D01*
X49370000Y-57430000D02*
X49370000Y-57020000D01*
X48650000Y-57430000D02*
X48650000Y-57020000D01*
X46830000Y-57430000D02*
X46830000Y-57020000D01*
X46110000Y-57430000D02*
X46110000Y-57020000D01*
X44290000Y-57430000D02*
X44290000Y-57020000D01*
X43570000Y-57430000D02*
X43570000Y-57020000D01*
X41750000Y-57430000D02*
X41750000Y-57020000D01*
X41030000Y-57430000D02*
X41030000Y-57020000D01*
X39210000Y-57430000D02*
X39210000Y-57020000D01*
X38490000Y-57430000D02*
X38490000Y-57020000D01*
X36670000Y-57430000D02*
X36670000Y-57020000D01*
X35950000Y-57430000D02*
X35950000Y-57020000D01*
X34130000Y-57430000D02*
X34130000Y-57020000D01*
X33410000Y-57430000D02*
X33410000Y-57020000D01*
X31590000Y-57430000D02*
X31590000Y-57020000D01*
X30870000Y-57430000D02*
X30870000Y-57020000D01*
X29050000Y-57430000D02*
X29050000Y-57020000D01*
X28330000Y-57430000D02*
X28330000Y-57020000D01*
X26510000Y-57430000D02*
X26510000Y-57020000D01*
X25790000Y-57430000D02*
X25790000Y-57020000D01*
X23970000Y-57430000D02*
X23970000Y-57020000D01*
X23250000Y-57430000D02*
X23250000Y-57020000D01*
X21430000Y-57430000D02*
X21430000Y-57020000D01*
X20710000Y-57430000D02*
X20710000Y-57020000D01*
X18890000Y-57430000D02*
X18890000Y-57020000D01*
X18170000Y-57430000D02*
X18170000Y-57020000D01*
X16350000Y-57430000D02*
X16350000Y-57020000D01*
X15630000Y-57430000D02*
X15630000Y-57020000D01*
X13810000Y-57430000D02*
X13810000Y-57020000D01*
X13090000Y-57430000D02*
X13090000Y-57020000D01*
X11270000Y-57430000D02*
X11270000Y-57020000D01*
X10550000Y-57430000D02*
X10550000Y-57020000D01*
X8730000Y-57430000D02*
X8730000Y-57020000D01*
X8010000Y-57430000D02*
X8010000Y-57020000D01*
D12*
X56930000Y-57490000D02*
X7100000Y-57490000D01*
X56330000Y-57490000D02*
X56330000Y-53430000D01*
X53790000Y-57490000D02*
X53790000Y-53430000D01*
X51250000Y-57490000D02*
X51250000Y-53430000D01*
X48710000Y-57490000D02*
X48710000Y-53430000D01*
X46170000Y-57490000D02*
X46170000Y-53430000D01*
X43630000Y-57490000D02*
X43630000Y-53430000D01*
X41090000Y-57490000D02*
X41090000Y-53430000D01*
X38550000Y-57490000D02*
X38550000Y-53430000D01*
X36010000Y-57490000D02*
X36010000Y-53430000D01*
X33470000Y-57490000D02*
X33470000Y-53430000D01*
X30930000Y-57490000D02*
X30930000Y-53430000D01*
X28390000Y-57490000D02*
X28390000Y-53430000D01*
X25850000Y-57490000D02*
X25850000Y-53430000D01*
X23310000Y-57490000D02*
X23310000Y-53430000D01*
X20770000Y-57490000D02*
X20770000Y-53430000D01*
X18230000Y-57490000D02*
X18230000Y-53430000D01*
X15690000Y-57490000D02*
X15690000Y-53430000D01*
X13150000Y-57490000D02*
X13150000Y-53430000D01*
X10610000Y-57490000D02*
X10610000Y-53430000D01*
X8070000Y-57490000D02*
X8070000Y-53430000D01*
D11*
X57960000Y-65000000D02*
X57960000Y-57430000D01*
X57960000Y-65000000D02*
X7040000Y-65000000D01*
X55360000Y-65000000D02*
X55360000Y-57430000D01*
X52820000Y-65000000D02*
X52820000Y-57430000D01*
X50280000Y-65000000D02*
X50280000Y-57430000D01*
X47740000Y-65000000D02*
X47740000Y-57430000D01*
X45200000Y-65000000D02*
X45200000Y-57430000D01*
X42660000Y-65000000D02*
X42660000Y-57430000D01*
X40120000Y-65000000D02*
X40120000Y-57430000D01*
X37580000Y-65000000D02*
X37580000Y-57430000D01*
X35040000Y-65000000D02*
X35040000Y-57430000D01*
X32500000Y-65000000D02*
X32500000Y-57430000D01*
X29960000Y-65000000D02*
X29960000Y-57430000D01*
X27420000Y-65000000D02*
X27420000Y-57430000D01*
X24880000Y-65000000D02*
X24880000Y-57430000D01*
X22340000Y-65000000D02*
X22340000Y-57430000D01*
X19800000Y-65000000D02*
X19800000Y-57430000D01*
X17260000Y-65000000D02*
X17260000Y-57430000D01*
X14720000Y-65000000D02*
X14720000Y-57430000D01*
X12180000Y-65000000D02*
X12180000Y-57430000D01*
X9640000Y-65000000D02*
X9640000Y-57430000D01*
D12*
X7100000Y-65000000D02*
X57900000Y-65000000D01*
D11*
X7040000Y-65000000D02*
X7040000Y-57430000D01*
%TO.C,J9*%
X46270000Y-16330000D02*
X59030000Y-16330000D01*
X46270000Y-16330000D02*
X46270000Y-13670000D01*
X59030000Y-16330000D02*
X59030000Y-13670000D01*
D12*
X43730000Y-16270000D02*
X43730000Y-14365000D01*
X58970000Y-16270000D02*
X43730000Y-16270000D01*
D11*
X43670000Y-15000000D02*
X43670000Y-13670000D01*
D12*
X43730000Y-14365000D02*
X44365000Y-13730000D01*
X44365000Y-13730000D02*
X58970000Y-13730000D01*
X58970000Y-13730000D02*
X58970000Y-16270000D01*
D11*
X43670000Y-13670000D02*
X45000000Y-13670000D01*
X46270000Y-13670000D02*
X59030000Y-13670000D01*
%TD*%
M02*
