%TF.GenerationSoftware,KiCad,Pcbnew,9.0.7*%
%TF.CreationDate,2026-05-30T18:42:28+02:00*%
%TF.ProjectId,BarePi_SumoPad,42617265-5069-45f5-9375-6d6f5061642e,rev?*%
%TF.SameCoordinates,Original*%
%TF.FileFunction,Other,User*%
%FSLAX46Y46*%
G04 Gerber Fmt 4.6, Leading zero omitted, Abs format (unit mm)*
G04 Created by KiCad (PCBNEW 9.0.7) date 2026-05-30 18:42:28*
%MOMM*%
%LPD*%
G01*
G04 APERTURE LIST*
%ADD10C,0.050000*%
G04 APERTURE END LIST*
%TO.C,R8*%
D10*
X38735000Y-3075000D02*
X42435000Y-3075000D01*
X42435000Y-1175000D01*
X38735000Y-1175000D01*
X38735000Y-3075000D01*
%TO.C,R7*%
X32815000Y-3095000D02*
X36515000Y-3095000D01*
X36515000Y-1195000D01*
X32815000Y-1195000D01*
X32815000Y-3095000D01*
%TO.C,R6*%
X17865000Y-27358600D02*
X21565000Y-27358600D01*
X21565000Y-25458600D01*
X17865000Y-25458600D01*
X17865000Y-27358600D01*
%TO.C,C1*%
X10455000Y-18925000D02*
X8155000Y-18925000D01*
X8155000Y-13965000D01*
X10455000Y-13965000D01*
X10455000Y-18925000D01*
%TO.C,R4*%
X17865000Y-29663800D02*
X21565000Y-29663800D01*
X21565000Y-27763800D01*
X17865000Y-27763800D01*
X17865000Y-29663800D01*
%TO.C,C3*%
X28395000Y-7025000D02*
X26095000Y-7025000D01*
X26095000Y-2065000D01*
X28395000Y-2065000D01*
X28395000Y-7025000D01*
%TO.C,R5*%
X17865000Y-31969000D02*
X21565000Y-31969000D01*
X21565000Y-30069000D01*
X17865000Y-30069000D01*
X17865000Y-31969000D01*
%TO.C,R2*%
X17865000Y-25053400D02*
X21565000Y-25053400D01*
X21565000Y-23153400D01*
X17865000Y-23153400D01*
X17865000Y-25053400D01*
%TO.C,C2*%
X13310000Y-18040000D02*
X11010000Y-18040000D01*
X11010000Y-13080000D01*
X13310000Y-13080000D01*
X13310000Y-18040000D01*
%TO.C,R3*%
X17865000Y-20443000D02*
X21565000Y-20443000D01*
X21565000Y-18543000D01*
X17865000Y-18543000D01*
X17865000Y-20443000D01*
%TO.C,R1*%
X17865000Y-22748200D02*
X21565000Y-22748200D01*
X21565000Y-20848200D01*
X17865000Y-20848200D01*
X17865000Y-22748200D01*
%TD*%
M02*
