%TF.GenerationSoftware,KiCad,Pcbnew,9.0.7*%
%TF.CreationDate,2026-05-30T18:42:27+02:00*%
%TF.ProjectId,BarePi_SumoPad,42617265-5069-45f5-9375-6d6f5061642e,rev?*%
%TF.SameCoordinates,Original*%
%TF.FileFunction,Soldermask,Top*%
%TF.FilePolarity,Negative*%
%FSLAX46Y46*%
G04 Gerber Fmt 4.6, Leading zero omitted, Abs format (unit mm)*
G04 Created by KiCad (PCBNEW 9.0.7) date 2026-05-30 18:42:27*
%MOMM*%
%LPD*%
G01*
G04 APERTURE LIST*
G04 Aperture macros list*
%AMOutline4P*
0 Free polygon, 4 corners , with rotation*
0 The origin of the aperture is its center*
0 number of corners: always 4*
0 $1 to $8 corner X, Y*
0 $9 Rotation angle, in degrees counterclockwise*
0 create outline with 4 corners*
4,1,4,$1,$2,$3,$4,$5,$6,$7,$8,$1,$2,$9*%
G04 Aperture macros list end*
%ADD10R,1.400000X0.400000*%
%ADD11R,1.900000X2.300000*%
%ADD12R,1.900000X1.800000*%
%ADD13C,3.000000*%
%ADD14Outline4P,-1.500000X-0.800000X1.500000X-0.800000X1.500000X0.800000X-1.500000X0.800000X0.000000*%
%ADD15O,3.000000X1.600000*%
%ADD16Outline4P,-1.500000X-0.800000X1.500000X-0.800000X1.500000X0.800000X-1.500000X0.800000X270.000000*%
%ADD17O,1.600000X3.000000*%
%ADD18O,2.500000X1.600000*%
%ADD19O,1.600000X2.500000*%
%ADD20C,2.000000*%
%ADD21Outline4P,-1.600000X-0.800000X1.600000X-0.800000X1.600000X0.800000X-1.600000X0.800000X90.000000*%
%ADD22O,1.600000X3.200000*%
G04 APERTURE END LIST*
D10*
%TO.C,J4*%
X60515000Y-14515000D03*
X60515000Y-13865000D03*
X60515000Y-13215000D03*
X60515000Y-12565000D03*
X60515000Y-11915000D03*
D11*
X63365000Y-16965000D03*
D12*
X63365000Y-14365000D03*
X63365000Y-12065000D03*
D11*
X63365000Y-9465000D03*
%TD*%
D13*
%TO.C,REF\u002A\u002A*%
X61500000Y-3500000D03*
%TD*%
%TO.C,REF\u002A\u002A*%
X3500000Y-61500000D03*
%TD*%
D14*
%TO.C,J3*%
X6470000Y-22310000D03*
D15*
X9810000Y-22310000D03*
X6470000Y-24850000D03*
X9810000Y-24850000D03*
X6470000Y-27390000D03*
X9810000Y-27390000D03*
X6470000Y-29930000D03*
X9810000Y-29930000D03*
X6470000Y-32470000D03*
X9810000Y-32470000D03*
X6470000Y-35010000D03*
X9810000Y-35010000D03*
X6470000Y-37550000D03*
X9810000Y-37550000D03*
X6470000Y-40090000D03*
X9810000Y-40090000D03*
X6470000Y-42630000D03*
X9810000Y-42630000D03*
X6470000Y-45170000D03*
X9810000Y-45170000D03*
%TD*%
D16*
%TO.C,J1*%
X8370000Y-56420000D03*
D17*
X8370000Y-53080000D03*
X10910000Y-56420000D03*
X10910000Y-53080000D03*
X13450000Y-56420000D03*
X13450000Y-53080000D03*
X15990000Y-56420000D03*
X15990000Y-53080000D03*
X18530000Y-56420000D03*
X18530000Y-53080000D03*
X21070000Y-56420000D03*
X21070000Y-53080000D03*
X23610000Y-56420000D03*
X23610000Y-53080000D03*
X26150000Y-56420000D03*
X26150000Y-53080000D03*
X28690000Y-56420000D03*
X28690000Y-53080000D03*
X31230000Y-56420000D03*
X31230000Y-53080000D03*
X33770000Y-56420000D03*
X33770000Y-53080000D03*
X36310000Y-56420000D03*
X36310000Y-53080000D03*
X38850000Y-56420000D03*
X38850000Y-53080000D03*
X41390000Y-56420000D03*
X41390000Y-53080000D03*
X43930000Y-56420000D03*
X43930000Y-53080000D03*
X46470000Y-56420000D03*
X46470000Y-53080000D03*
X49010000Y-56420000D03*
X49010000Y-53080000D03*
X51550000Y-56420000D03*
X51550000Y-53080000D03*
X54090000Y-56420000D03*
X54090000Y-53080000D03*
X56630000Y-56420000D03*
X56630000Y-53080000D03*
%TD*%
D18*
%TO.C,U1*%
X27870000Y-12110000D03*
D15*
X24630000Y-12110000D03*
X27970000Y-14650000D03*
X24630000Y-14650000D03*
X27970000Y-17190000D03*
X24630000Y-17190000D03*
X27970000Y-19730000D03*
X24630000Y-19730000D03*
X27970000Y-22270000D03*
X24630000Y-22270000D03*
X27970000Y-24810000D03*
X24630000Y-24810000D03*
X27970000Y-27350000D03*
X24630000Y-27350000D03*
D18*
X27870000Y-29890000D03*
D15*
X24630000Y-29890000D03*
D19*
X30110000Y-32130000D03*
D17*
X30110000Y-35370000D03*
X32650000Y-32030000D03*
X32650000Y-35370000D03*
X35190000Y-32030000D03*
X35190000Y-35370000D03*
X37730000Y-32030000D03*
X37730000Y-35370000D03*
X40270000Y-32030000D03*
X40270000Y-35370000D03*
X42810000Y-32030000D03*
X42810000Y-35370000D03*
X45350000Y-32030000D03*
X45350000Y-35370000D03*
D19*
X47890000Y-32130000D03*
D17*
X47890000Y-35370000D03*
D18*
X50130000Y-29890000D03*
D15*
X53370000Y-29890000D03*
X50030000Y-27350000D03*
X53370000Y-27350000D03*
X50030000Y-24810000D03*
X53370000Y-24810000D03*
X50030000Y-22270000D03*
X53370000Y-22270000D03*
X50030000Y-19730000D03*
X53370000Y-19730000D03*
X50030000Y-17190000D03*
X53370000Y-17190000D03*
X50030000Y-14650000D03*
X53370000Y-14650000D03*
D18*
X50130000Y-12110000D03*
D15*
X53370000Y-12110000D03*
D19*
X47890000Y-9870000D03*
D17*
X47890000Y-6630000D03*
X45350000Y-9970000D03*
X45350000Y-6630000D03*
X42810000Y-9970000D03*
X42810000Y-6630000D03*
X40270000Y-9970000D03*
X40270000Y-6630000D03*
X37730000Y-9970000D03*
X37730000Y-6630000D03*
X35190000Y-9970000D03*
X35190000Y-6630000D03*
X32650000Y-9970000D03*
X32650000Y-6630000D03*
D19*
X30110000Y-9870000D03*
D17*
X30110000Y-6630000D03*
%TD*%
D13*
%TO.C,REF\u002A\u002A*%
X61500000Y-61500000D03*
%TD*%
D20*
%TO.C,Q1*%
X4195000Y-16365000D03*
X4195000Y-11485000D03*
%TD*%
D21*
%TO.C,J2*%
X9705000Y-10205000D03*
D22*
X12245000Y-10205000D03*
X14785000Y-10205000D03*
X17325000Y-10205000D03*
%TD*%
D13*
%TO.C,REF\u002A\u002A*%
X3500000Y-3500000D03*
%TD*%
M02*
