%TF.GenerationSoftware,KiCad,Pcbnew,9.0.7*%
%TF.CreationDate,2026-05-30T18:42:28+02:00*%
%TF.ProjectId,BarePi_SumoPad,42617265-5069-45f5-9375-6d6f5061642e,rev?*%
%TF.SameCoordinates,Original*%
%TF.FileFunction,AssemblyDrawing,Top*%
%FSLAX46Y46*%
G04 Gerber Fmt 4.6, Leading zero omitted, Abs format (unit mm)*
G04 Created by KiCad (PCBNEW 9.0.7) date 2026-05-30 18:42:28*
%MOMM*%
%LPD*%
G01*
G04 APERTURE LIST*
%ADD10C,0.150000*%
%ADD11C,0.120000*%
%ADD12C,0.100000*%
%ADD13C,0.050000*%
G04 APERTURE END LIST*
D10*
X41215475Y-3523485D02*
X41253571Y-3485390D01*
X41253571Y-3485390D02*
X41329761Y-3447295D01*
X41329761Y-3447295D02*
X41520237Y-3447295D01*
X41520237Y-3447295D02*
X41596428Y-3485390D01*
X41596428Y-3485390D02*
X41634523Y-3523485D01*
X41634523Y-3523485D02*
X41672618Y-3599676D01*
X41672618Y-3599676D02*
X41672618Y-3675866D01*
X41672618Y-3675866D02*
X41634523Y-3790152D01*
X41634523Y-3790152D02*
X41177380Y-4247295D01*
X41177380Y-4247295D02*
X41672618Y-4247295D01*
X41939285Y-3447295D02*
X42472619Y-3447295D01*
X42472619Y-3447295D02*
X42129761Y-4247295D01*
X39281667Y-4237295D02*
X39015000Y-3856342D01*
X38824524Y-4237295D02*
X38824524Y-3437295D01*
X38824524Y-3437295D02*
X39129286Y-3437295D01*
X39129286Y-3437295D02*
X39205476Y-3475390D01*
X39205476Y-3475390D02*
X39243571Y-3513485D01*
X39243571Y-3513485D02*
X39281667Y-3589676D01*
X39281667Y-3589676D02*
X39281667Y-3703961D01*
X39281667Y-3703961D02*
X39243571Y-3780152D01*
X39243571Y-3780152D02*
X39205476Y-3818247D01*
X39205476Y-3818247D02*
X39129286Y-3856342D01*
X39129286Y-3856342D02*
X38824524Y-3856342D01*
X39738809Y-3780152D02*
X39662619Y-3742057D01*
X39662619Y-3742057D02*
X39624524Y-3703961D01*
X39624524Y-3703961D02*
X39586428Y-3627771D01*
X39586428Y-3627771D02*
X39586428Y-3589676D01*
X39586428Y-3589676D02*
X39624524Y-3513485D01*
X39624524Y-3513485D02*
X39662619Y-3475390D01*
X39662619Y-3475390D02*
X39738809Y-3437295D01*
X39738809Y-3437295D02*
X39891190Y-3437295D01*
X39891190Y-3437295D02*
X39967381Y-3475390D01*
X39967381Y-3475390D02*
X40005476Y-3513485D01*
X40005476Y-3513485D02*
X40043571Y-3589676D01*
X40043571Y-3589676D02*
X40043571Y-3627771D01*
X40043571Y-3627771D02*
X40005476Y-3703961D01*
X40005476Y-3703961D02*
X39967381Y-3742057D01*
X39967381Y-3742057D02*
X39891190Y-3780152D01*
X39891190Y-3780152D02*
X39738809Y-3780152D01*
X39738809Y-3780152D02*
X39662619Y-3818247D01*
X39662619Y-3818247D02*
X39624524Y-3856342D01*
X39624524Y-3856342D02*
X39586428Y-3932533D01*
X39586428Y-3932533D02*
X39586428Y-4084914D01*
X39586428Y-4084914D02*
X39624524Y-4161104D01*
X39624524Y-4161104D02*
X39662619Y-4199200D01*
X39662619Y-4199200D02*
X39738809Y-4237295D01*
X39738809Y-4237295D02*
X39891190Y-4237295D01*
X39891190Y-4237295D02*
X39967381Y-4199200D01*
X39967381Y-4199200D02*
X40005476Y-4161104D01*
X40005476Y-4161104D02*
X40043571Y-4084914D01*
X40043571Y-4084914D02*
X40043571Y-3932533D01*
X40043571Y-3932533D02*
X40005476Y-3856342D01*
X40005476Y-3856342D02*
X39967381Y-3818247D01*
X39967381Y-3818247D02*
X39891190Y-3780152D01*
X35325475Y-3603485D02*
X35363571Y-3565390D01*
X35363571Y-3565390D02*
X35439761Y-3527295D01*
X35439761Y-3527295D02*
X35630237Y-3527295D01*
X35630237Y-3527295D02*
X35706428Y-3565390D01*
X35706428Y-3565390D02*
X35744523Y-3603485D01*
X35744523Y-3603485D02*
X35782618Y-3679676D01*
X35782618Y-3679676D02*
X35782618Y-3755866D01*
X35782618Y-3755866D02*
X35744523Y-3870152D01*
X35744523Y-3870152D02*
X35287380Y-4327295D01*
X35287380Y-4327295D02*
X35782618Y-4327295D01*
X36049285Y-3527295D02*
X36582619Y-3527295D01*
X36582619Y-3527295D02*
X36239761Y-4327295D01*
X33321667Y-4347295D02*
X33055000Y-3966342D01*
X32864524Y-4347295D02*
X32864524Y-3547295D01*
X32864524Y-3547295D02*
X33169286Y-3547295D01*
X33169286Y-3547295D02*
X33245476Y-3585390D01*
X33245476Y-3585390D02*
X33283571Y-3623485D01*
X33283571Y-3623485D02*
X33321667Y-3699676D01*
X33321667Y-3699676D02*
X33321667Y-3813961D01*
X33321667Y-3813961D02*
X33283571Y-3890152D01*
X33283571Y-3890152D02*
X33245476Y-3928247D01*
X33245476Y-3928247D02*
X33169286Y-3966342D01*
X33169286Y-3966342D02*
X32864524Y-3966342D01*
X33588333Y-3547295D02*
X34121667Y-3547295D01*
X34121667Y-3547295D02*
X33778809Y-4347295D01*
X61165476Y-21157295D02*
X61165476Y-21804914D01*
X61165476Y-21804914D02*
X61203571Y-21881104D01*
X61203571Y-21881104D02*
X61241666Y-21919200D01*
X61241666Y-21919200D02*
X61317857Y-21957295D01*
X61317857Y-21957295D02*
X61470238Y-21957295D01*
X61470238Y-21957295D02*
X61546428Y-21919200D01*
X61546428Y-21919200D02*
X61584523Y-21881104D01*
X61584523Y-21881104D02*
X61622619Y-21804914D01*
X61622619Y-21804914D02*
X61622619Y-21157295D01*
X61965475Y-21919200D02*
X62079761Y-21957295D01*
X62079761Y-21957295D02*
X62270237Y-21957295D01*
X62270237Y-21957295D02*
X62346428Y-21919200D01*
X62346428Y-21919200D02*
X62384523Y-21881104D01*
X62384523Y-21881104D02*
X62422618Y-21804914D01*
X62422618Y-21804914D02*
X62422618Y-21728723D01*
X62422618Y-21728723D02*
X62384523Y-21652533D01*
X62384523Y-21652533D02*
X62346428Y-21614438D01*
X62346428Y-21614438D02*
X62270237Y-21576342D01*
X62270237Y-21576342D02*
X62117856Y-21538247D01*
X62117856Y-21538247D02*
X62041666Y-21500152D01*
X62041666Y-21500152D02*
X62003571Y-21462057D01*
X62003571Y-21462057D02*
X61965475Y-21385866D01*
X61965475Y-21385866D02*
X61965475Y-21309676D01*
X61965475Y-21309676D02*
X62003571Y-21233485D01*
X62003571Y-21233485D02*
X62041666Y-21195390D01*
X62041666Y-21195390D02*
X62117856Y-21157295D01*
X62117856Y-21157295D02*
X62308333Y-21157295D01*
X62308333Y-21157295D02*
X62422618Y-21195390D01*
X63032142Y-21538247D02*
X63146428Y-21576342D01*
X63146428Y-21576342D02*
X63184523Y-21614438D01*
X63184523Y-21614438D02*
X63222619Y-21690628D01*
X63222619Y-21690628D02*
X63222619Y-21804914D01*
X63222619Y-21804914D02*
X63184523Y-21881104D01*
X63184523Y-21881104D02*
X63146428Y-21919200D01*
X63146428Y-21919200D02*
X63070238Y-21957295D01*
X63070238Y-21957295D02*
X62765476Y-21957295D01*
X62765476Y-21957295D02*
X62765476Y-21157295D01*
X62765476Y-21157295D02*
X63032142Y-21157295D01*
X63032142Y-21157295D02*
X63108333Y-21195390D01*
X63108333Y-21195390D02*
X63146428Y-21233485D01*
X63146428Y-21233485D02*
X63184523Y-21309676D01*
X63184523Y-21309676D02*
X63184523Y-21385866D01*
X63184523Y-21385866D02*
X63146428Y-21462057D01*
X63146428Y-21462057D02*
X63108333Y-21500152D01*
X63108333Y-21500152D02*
X63032142Y-21538247D01*
X63032142Y-21538247D02*
X62765476Y-21538247D01*
X62118333Y-19227295D02*
X62118333Y-19798723D01*
X62118333Y-19798723D02*
X62080238Y-19913009D01*
X62080238Y-19913009D02*
X62004047Y-19989200D01*
X62004047Y-19989200D02*
X61889762Y-20027295D01*
X61889762Y-20027295D02*
X61813571Y-20027295D01*
X62842143Y-19493961D02*
X62842143Y-20027295D01*
X62651667Y-19189200D02*
X62461190Y-19760628D01*
X62461190Y-19760628D02*
X62956429Y-19760628D01*
X2907024Y-48272295D02*
X2907024Y-47472295D01*
X2907024Y-47472295D02*
X3097500Y-47472295D01*
X3097500Y-47472295D02*
X3211786Y-47510390D01*
X3211786Y-47510390D02*
X3287976Y-47586580D01*
X3287976Y-47586580D02*
X3326071Y-47662771D01*
X3326071Y-47662771D02*
X3364167Y-47815152D01*
X3364167Y-47815152D02*
X3364167Y-47929438D01*
X3364167Y-47929438D02*
X3326071Y-48081819D01*
X3326071Y-48081819D02*
X3287976Y-48158009D01*
X3287976Y-48158009D02*
X3211786Y-48234200D01*
X3211786Y-48234200D02*
X3097500Y-48272295D01*
X3097500Y-48272295D02*
X2907024Y-48272295D01*
X3707024Y-48272295D02*
X3707024Y-47472295D01*
X4049880Y-48234200D02*
X4164166Y-48272295D01*
X4164166Y-48272295D02*
X4354642Y-48272295D01*
X4354642Y-48272295D02*
X4430833Y-48234200D01*
X4430833Y-48234200D02*
X4468928Y-48196104D01*
X4468928Y-48196104D02*
X4507023Y-48119914D01*
X4507023Y-48119914D02*
X4507023Y-48043723D01*
X4507023Y-48043723D02*
X4468928Y-47967533D01*
X4468928Y-47967533D02*
X4430833Y-47929438D01*
X4430833Y-47929438D02*
X4354642Y-47891342D01*
X4354642Y-47891342D02*
X4202261Y-47853247D01*
X4202261Y-47853247D02*
X4126071Y-47815152D01*
X4126071Y-47815152D02*
X4087976Y-47777057D01*
X4087976Y-47777057D02*
X4049880Y-47700866D01*
X4049880Y-47700866D02*
X4049880Y-47624676D01*
X4049880Y-47624676D02*
X4087976Y-47548485D01*
X4087976Y-47548485D02*
X4126071Y-47510390D01*
X4126071Y-47510390D02*
X4202261Y-47472295D01*
X4202261Y-47472295D02*
X4392738Y-47472295D01*
X4392738Y-47472295D02*
X4507023Y-47510390D01*
X4849881Y-48272295D02*
X4849881Y-47472295D01*
X4849881Y-47472295D02*
X5154643Y-47472295D01*
X5154643Y-47472295D02*
X5230833Y-47510390D01*
X5230833Y-47510390D02*
X5268928Y-47548485D01*
X5268928Y-47548485D02*
X5307024Y-47624676D01*
X5307024Y-47624676D02*
X5307024Y-47738961D01*
X5307024Y-47738961D02*
X5268928Y-47815152D01*
X5268928Y-47815152D02*
X5230833Y-47853247D01*
X5230833Y-47853247D02*
X5154643Y-47891342D01*
X5154643Y-47891342D02*
X4849881Y-47891342D01*
X6030833Y-48272295D02*
X5649881Y-48272295D01*
X5649881Y-48272295D02*
X5649881Y-47472295D01*
X6259404Y-48043723D02*
X6640357Y-48043723D01*
X6183214Y-48272295D02*
X6449881Y-47472295D01*
X6449881Y-47472295D02*
X6716547Y-48272295D01*
X7135595Y-47891342D02*
X7135595Y-48272295D01*
X6868928Y-47472295D02*
X7135595Y-47891342D01*
X7135595Y-47891342D02*
X7402261Y-47472295D01*
X1195833Y-19362295D02*
X1195833Y-19933723D01*
X1195833Y-19933723D02*
X1157738Y-20048009D01*
X1157738Y-20048009D02*
X1081547Y-20124200D01*
X1081547Y-20124200D02*
X967262Y-20162295D01*
X967262Y-20162295D02*
X891071Y-20162295D01*
X1500595Y-19362295D02*
X1995833Y-19362295D01*
X1995833Y-19362295D02*
X1729167Y-19667057D01*
X1729167Y-19667057D02*
X1843452Y-19667057D01*
X1843452Y-19667057D02*
X1919643Y-19705152D01*
X1919643Y-19705152D02*
X1957738Y-19743247D01*
X1957738Y-19743247D02*
X1995833Y-19819438D01*
X1995833Y-19819438D02*
X1995833Y-20009914D01*
X1995833Y-20009914D02*
X1957738Y-20086104D01*
X1957738Y-20086104D02*
X1919643Y-20124200D01*
X1919643Y-20124200D02*
X1843452Y-20162295D01*
X1843452Y-20162295D02*
X1614881Y-20162295D01*
X1614881Y-20162295D02*
X1538690Y-20124200D01*
X1538690Y-20124200D02*
X1500595Y-20086104D01*
X4410000Y-53982295D02*
X4562381Y-53982295D01*
X4562381Y-53982295D02*
X4638571Y-54020390D01*
X4638571Y-54020390D02*
X4714762Y-54096580D01*
X4714762Y-54096580D02*
X4752857Y-54248961D01*
X4752857Y-54248961D02*
X4752857Y-54515628D01*
X4752857Y-54515628D02*
X4714762Y-54668009D01*
X4714762Y-54668009D02*
X4638571Y-54744200D01*
X4638571Y-54744200D02*
X4562381Y-54782295D01*
X4562381Y-54782295D02*
X4410000Y-54782295D01*
X4410000Y-54782295D02*
X4333809Y-54744200D01*
X4333809Y-54744200D02*
X4257619Y-54668009D01*
X4257619Y-54668009D02*
X4219523Y-54515628D01*
X4219523Y-54515628D02*
X4219523Y-54248961D01*
X4219523Y-54248961D02*
X4257619Y-54096580D01*
X4257619Y-54096580D02*
X4333809Y-54020390D01*
X4333809Y-54020390D02*
X4410000Y-53982295D01*
X5095714Y-53982295D02*
X5095714Y-54629914D01*
X5095714Y-54629914D02*
X5133809Y-54706104D01*
X5133809Y-54706104D02*
X5171904Y-54744200D01*
X5171904Y-54744200D02*
X5248095Y-54782295D01*
X5248095Y-54782295D02*
X5400476Y-54782295D01*
X5400476Y-54782295D02*
X5476666Y-54744200D01*
X5476666Y-54744200D02*
X5514761Y-54706104D01*
X5514761Y-54706104D02*
X5552857Y-54629914D01*
X5552857Y-54629914D02*
X5552857Y-53982295D01*
X5819523Y-53982295D02*
X6276666Y-53982295D01*
X6048094Y-54782295D02*
X6048094Y-53982295D01*
X5303333Y-52212295D02*
X5303333Y-52783723D01*
X5303333Y-52783723D02*
X5265238Y-52898009D01*
X5265238Y-52898009D02*
X5189047Y-52974200D01*
X5189047Y-52974200D02*
X5074762Y-53012295D01*
X5074762Y-53012295D02*
X4998571Y-53012295D01*
X6103333Y-53012295D02*
X5646190Y-53012295D01*
X5874762Y-53012295D02*
X5874762Y-52212295D01*
X5874762Y-52212295D02*
X5798571Y-52326580D01*
X5798571Y-52326580D02*
X5722381Y-52402771D01*
X5722381Y-52402771D02*
X5646190Y-52440866D01*
X36425238Y-38396104D02*
X36387142Y-38434200D01*
X36387142Y-38434200D02*
X36272857Y-38472295D01*
X36272857Y-38472295D02*
X36196666Y-38472295D01*
X36196666Y-38472295D02*
X36082380Y-38434200D01*
X36082380Y-38434200D02*
X36006190Y-38358009D01*
X36006190Y-38358009D02*
X35968095Y-38281819D01*
X35968095Y-38281819D02*
X35929999Y-38129438D01*
X35929999Y-38129438D02*
X35929999Y-38015152D01*
X35929999Y-38015152D02*
X35968095Y-37862771D01*
X35968095Y-37862771D02*
X36006190Y-37786580D01*
X36006190Y-37786580D02*
X36082380Y-37710390D01*
X36082380Y-37710390D02*
X36196666Y-37672295D01*
X36196666Y-37672295D02*
X36272857Y-37672295D01*
X36272857Y-37672295D02*
X36387142Y-37710390D01*
X36387142Y-37710390D02*
X36425238Y-37748485D01*
X36768095Y-38472295D02*
X36768095Y-37672295D01*
X36768095Y-38053247D02*
X37225238Y-38053247D01*
X37225238Y-38472295D02*
X37225238Y-37672295D01*
X37529999Y-37672295D02*
X38025237Y-37672295D01*
X38025237Y-37672295D02*
X37758571Y-37977057D01*
X37758571Y-37977057D02*
X37872856Y-37977057D01*
X37872856Y-37977057D02*
X37949047Y-38015152D01*
X37949047Y-38015152D02*
X37987142Y-38053247D01*
X37987142Y-38053247D02*
X38025237Y-38129438D01*
X38025237Y-38129438D02*
X38025237Y-38319914D01*
X38025237Y-38319914D02*
X37987142Y-38396104D01*
X37987142Y-38396104D02*
X37949047Y-38434200D01*
X37949047Y-38434200D02*
X37872856Y-38472295D01*
X37872856Y-38472295D02*
X37644285Y-38472295D01*
X37644285Y-38472295D02*
X37568094Y-38434200D01*
X37568094Y-38434200D02*
X37529999Y-38396104D01*
X38329999Y-37748485D02*
X38368095Y-37710390D01*
X38368095Y-37710390D02*
X38444285Y-37672295D01*
X38444285Y-37672295D02*
X38634761Y-37672295D01*
X38634761Y-37672295D02*
X38710952Y-37710390D01*
X38710952Y-37710390D02*
X38749047Y-37748485D01*
X38749047Y-37748485D02*
X38787142Y-37824676D01*
X38787142Y-37824676D02*
X38787142Y-37900866D01*
X38787142Y-37900866D02*
X38749047Y-38015152D01*
X38749047Y-38015152D02*
X38291904Y-38472295D01*
X38291904Y-38472295D02*
X38787142Y-38472295D01*
X39015714Y-37672295D02*
X39282381Y-38472295D01*
X39282381Y-38472295D02*
X39549047Y-37672295D01*
X39777618Y-37748485D02*
X39815714Y-37710390D01*
X39815714Y-37710390D02*
X39891904Y-37672295D01*
X39891904Y-37672295D02*
X40082380Y-37672295D01*
X40082380Y-37672295D02*
X40158571Y-37710390D01*
X40158571Y-37710390D02*
X40196666Y-37748485D01*
X40196666Y-37748485D02*
X40234761Y-37824676D01*
X40234761Y-37824676D02*
X40234761Y-37900866D01*
X40234761Y-37900866D02*
X40196666Y-38015152D01*
X40196666Y-38015152D02*
X39739523Y-38472295D01*
X39739523Y-38472295D02*
X40234761Y-38472295D01*
X40730000Y-37672295D02*
X40806190Y-37672295D01*
X40806190Y-37672295D02*
X40882381Y-37710390D01*
X40882381Y-37710390D02*
X40920476Y-37748485D01*
X40920476Y-37748485D02*
X40958571Y-37824676D01*
X40958571Y-37824676D02*
X40996666Y-37977057D01*
X40996666Y-37977057D02*
X40996666Y-38167533D01*
X40996666Y-38167533D02*
X40958571Y-38319914D01*
X40958571Y-38319914D02*
X40920476Y-38396104D01*
X40920476Y-38396104D02*
X40882381Y-38434200D01*
X40882381Y-38434200D02*
X40806190Y-38472295D01*
X40806190Y-38472295D02*
X40730000Y-38472295D01*
X40730000Y-38472295D02*
X40653809Y-38434200D01*
X40653809Y-38434200D02*
X40615714Y-38396104D01*
X40615714Y-38396104D02*
X40577619Y-38319914D01*
X40577619Y-38319914D02*
X40539523Y-38167533D01*
X40539523Y-38167533D02*
X40539523Y-37977057D01*
X40539523Y-37977057D02*
X40577619Y-37824676D01*
X40577619Y-37824676D02*
X40615714Y-37748485D01*
X40615714Y-37748485D02*
X40653809Y-37710390D01*
X40653809Y-37710390D02*
X40730000Y-37672295D01*
X41453809Y-38015152D02*
X41377619Y-37977057D01*
X41377619Y-37977057D02*
X41339524Y-37938961D01*
X41339524Y-37938961D02*
X41301428Y-37862771D01*
X41301428Y-37862771D02*
X41301428Y-37824676D01*
X41301428Y-37824676D02*
X41339524Y-37748485D01*
X41339524Y-37748485D02*
X41377619Y-37710390D01*
X41377619Y-37710390D02*
X41453809Y-37672295D01*
X41453809Y-37672295D02*
X41606190Y-37672295D01*
X41606190Y-37672295D02*
X41682381Y-37710390D01*
X41682381Y-37710390D02*
X41720476Y-37748485D01*
X41720476Y-37748485D02*
X41758571Y-37824676D01*
X41758571Y-37824676D02*
X41758571Y-37862771D01*
X41758571Y-37862771D02*
X41720476Y-37938961D01*
X41720476Y-37938961D02*
X41682381Y-37977057D01*
X41682381Y-37977057D02*
X41606190Y-38015152D01*
X41606190Y-38015152D02*
X41453809Y-38015152D01*
X41453809Y-38015152D02*
X41377619Y-38053247D01*
X41377619Y-38053247D02*
X41339524Y-38091342D01*
X41339524Y-38091342D02*
X41301428Y-38167533D01*
X41301428Y-38167533D02*
X41301428Y-38319914D01*
X41301428Y-38319914D02*
X41339524Y-38396104D01*
X41339524Y-38396104D02*
X41377619Y-38434200D01*
X41377619Y-38434200D02*
X41453809Y-38472295D01*
X41453809Y-38472295D02*
X41606190Y-38472295D01*
X41606190Y-38472295D02*
X41682381Y-38434200D01*
X41682381Y-38434200D02*
X41720476Y-38396104D01*
X41720476Y-38396104D02*
X41758571Y-38319914D01*
X41758571Y-38319914D02*
X41758571Y-38167533D01*
X41758571Y-38167533D02*
X41720476Y-38091342D01*
X41720476Y-38091342D02*
X41682381Y-38053247D01*
X41682381Y-38053247D02*
X41606190Y-38015152D01*
X42558572Y-38472295D02*
X42291905Y-38091342D01*
X42101429Y-38472295D02*
X42101429Y-37672295D01*
X42101429Y-37672295D02*
X42406191Y-37672295D01*
X42406191Y-37672295D02*
X42482381Y-37710390D01*
X42482381Y-37710390D02*
X42520476Y-37748485D01*
X42520476Y-37748485D02*
X42558572Y-37824676D01*
X42558572Y-37824676D02*
X42558572Y-37938961D01*
X42558572Y-37938961D02*
X42520476Y-38015152D01*
X42520476Y-38015152D02*
X42482381Y-38053247D01*
X42482381Y-38053247D02*
X42406191Y-38091342D01*
X42406191Y-38091342D02*
X42101429Y-38091342D01*
X43168095Y-38053247D02*
X43282381Y-38091342D01*
X43282381Y-38091342D02*
X43320476Y-38129438D01*
X43320476Y-38129438D02*
X43358572Y-38205628D01*
X43358572Y-38205628D02*
X43358572Y-38319914D01*
X43358572Y-38319914D02*
X43320476Y-38396104D01*
X43320476Y-38396104D02*
X43282381Y-38434200D01*
X43282381Y-38434200D02*
X43206191Y-38472295D01*
X43206191Y-38472295D02*
X42901429Y-38472295D01*
X42901429Y-38472295D02*
X42901429Y-37672295D01*
X42901429Y-37672295D02*
X43168095Y-37672295D01*
X43168095Y-37672295D02*
X43244286Y-37710390D01*
X43244286Y-37710390D02*
X43282381Y-37748485D01*
X43282381Y-37748485D02*
X43320476Y-37824676D01*
X43320476Y-37824676D02*
X43320476Y-37900866D01*
X43320476Y-37900866D02*
X43282381Y-37977057D01*
X43282381Y-37977057D02*
X43244286Y-38015152D01*
X43244286Y-38015152D02*
X43168095Y-38053247D01*
X43168095Y-38053247D02*
X42901429Y-38053247D01*
X43587143Y-37672295D02*
X44044286Y-37672295D01*
X43815714Y-38472295D02*
X43815714Y-37672295D01*
X44653810Y-37672295D02*
X44501429Y-37672295D01*
X44501429Y-37672295D02*
X44425238Y-37710390D01*
X44425238Y-37710390D02*
X44387143Y-37748485D01*
X44387143Y-37748485D02*
X44310953Y-37862771D01*
X44310953Y-37862771D02*
X44272857Y-38015152D01*
X44272857Y-38015152D02*
X44272857Y-38319914D01*
X44272857Y-38319914D02*
X44310953Y-38396104D01*
X44310953Y-38396104D02*
X44349048Y-38434200D01*
X44349048Y-38434200D02*
X44425238Y-38472295D01*
X44425238Y-38472295D02*
X44577619Y-38472295D01*
X44577619Y-38472295D02*
X44653810Y-38434200D01*
X44653810Y-38434200D02*
X44691905Y-38396104D01*
X44691905Y-38396104D02*
X44730000Y-38319914D01*
X44730000Y-38319914D02*
X44730000Y-38129438D01*
X44730000Y-38129438D02*
X44691905Y-38053247D01*
X44691905Y-38053247D02*
X44653810Y-38015152D01*
X44653810Y-38015152D02*
X44577619Y-37977057D01*
X44577619Y-37977057D02*
X44425238Y-37977057D01*
X44425238Y-37977057D02*
X44349048Y-38015152D01*
X44349048Y-38015152D02*
X44310953Y-38053247D01*
X44310953Y-38053247D02*
X44272857Y-38129438D01*
X27680476Y-37532295D02*
X27680476Y-38179914D01*
X27680476Y-38179914D02*
X27718571Y-38256104D01*
X27718571Y-38256104D02*
X27756666Y-38294200D01*
X27756666Y-38294200D02*
X27832857Y-38332295D01*
X27832857Y-38332295D02*
X27985238Y-38332295D01*
X27985238Y-38332295D02*
X28061428Y-38294200D01*
X28061428Y-38294200D02*
X28099523Y-38256104D01*
X28099523Y-38256104D02*
X28137619Y-38179914D01*
X28137619Y-38179914D02*
X28137619Y-37532295D01*
X28937618Y-38332295D02*
X28480475Y-38332295D01*
X28709047Y-38332295D02*
X28709047Y-37532295D01*
X28709047Y-37532295D02*
X28632856Y-37646580D01*
X28632856Y-37646580D02*
X28556666Y-37722771D01*
X28556666Y-37722771D02*
X28480475Y-37760866D01*
X2340475Y-6618485D02*
X2378571Y-6580390D01*
X2378571Y-6580390D02*
X2454761Y-6542295D01*
X2454761Y-6542295D02*
X2645237Y-6542295D01*
X2645237Y-6542295D02*
X2721428Y-6580390D01*
X2721428Y-6580390D02*
X2759523Y-6618485D01*
X2759523Y-6618485D02*
X2797618Y-6694676D01*
X2797618Y-6694676D02*
X2797618Y-6770866D01*
X2797618Y-6770866D02*
X2759523Y-6885152D01*
X2759523Y-6885152D02*
X2302380Y-7342295D01*
X2302380Y-7342295D02*
X2797618Y-7342295D01*
X3483333Y-6808961D02*
X3483333Y-7342295D01*
X3292857Y-6504200D02*
X3102380Y-7075628D01*
X3102380Y-7075628D02*
X3597619Y-7075628D01*
X3902381Y-7342295D02*
X3902381Y-6542295D01*
X3902381Y-6542295D02*
X4169047Y-7113723D01*
X4169047Y-7113723D02*
X4435714Y-6542295D01*
X4435714Y-6542295D02*
X4435714Y-7342295D01*
X4816667Y-7342295D02*
X4816667Y-6542295D01*
X4816667Y-6923247D02*
X5273810Y-6923247D01*
X5273810Y-7342295D02*
X5273810Y-6542295D01*
X5578571Y-6808961D02*
X5997619Y-6808961D01*
X5997619Y-6808961D02*
X5578571Y-7342295D01*
X5578571Y-7342295D02*
X5997619Y-7342295D01*
X7043809Y-19988485D02*
X6967619Y-19950390D01*
X6967619Y-19950390D02*
X6891428Y-19874200D01*
X6891428Y-19874200D02*
X6777142Y-19759914D01*
X6777142Y-19759914D02*
X6700952Y-19721819D01*
X6700952Y-19721819D02*
X6624761Y-19721819D01*
X6662857Y-19912295D02*
X6586666Y-19874200D01*
X6586666Y-19874200D02*
X6510476Y-19798009D01*
X6510476Y-19798009D02*
X6472380Y-19645628D01*
X6472380Y-19645628D02*
X6472380Y-19378961D01*
X6472380Y-19378961D02*
X6510476Y-19226580D01*
X6510476Y-19226580D02*
X6586666Y-19150390D01*
X6586666Y-19150390D02*
X6662857Y-19112295D01*
X6662857Y-19112295D02*
X6815238Y-19112295D01*
X6815238Y-19112295D02*
X6891428Y-19150390D01*
X6891428Y-19150390D02*
X6967619Y-19226580D01*
X6967619Y-19226580D02*
X7005714Y-19378961D01*
X7005714Y-19378961D02*
X7005714Y-19645628D01*
X7005714Y-19645628D02*
X6967619Y-19798009D01*
X6967619Y-19798009D02*
X6891428Y-19874200D01*
X6891428Y-19874200D02*
X6815238Y-19912295D01*
X6815238Y-19912295D02*
X6662857Y-19912295D01*
X7767618Y-19912295D02*
X7310475Y-19912295D01*
X7539047Y-19912295D02*
X7539047Y-19112295D01*
X7539047Y-19112295D02*
X7462856Y-19226580D01*
X7462856Y-19226580D02*
X7386666Y-19302771D01*
X7386666Y-19302771D02*
X7310475Y-19340866D01*
X15114524Y-12332295D02*
X15305000Y-13132295D01*
X15305000Y-13132295D02*
X15457381Y-12560866D01*
X15457381Y-12560866D02*
X15609762Y-13132295D01*
X15609762Y-13132295D02*
X15800239Y-12332295D01*
X16562144Y-13056104D02*
X16524048Y-13094200D01*
X16524048Y-13094200D02*
X16409763Y-13132295D01*
X16409763Y-13132295D02*
X16333572Y-13132295D01*
X16333572Y-13132295D02*
X16219286Y-13094200D01*
X16219286Y-13094200D02*
X16143096Y-13018009D01*
X16143096Y-13018009D02*
X16105001Y-12941819D01*
X16105001Y-12941819D02*
X16066905Y-12789438D01*
X16066905Y-12789438D02*
X16066905Y-12675152D01*
X16066905Y-12675152D02*
X16105001Y-12522771D01*
X16105001Y-12522771D02*
X16143096Y-12446580D01*
X16143096Y-12446580D02*
X16219286Y-12370390D01*
X16219286Y-12370390D02*
X16333572Y-12332295D01*
X16333572Y-12332295D02*
X16409763Y-12332295D01*
X16409763Y-12332295D02*
X16524048Y-12370390D01*
X16524048Y-12370390D02*
X16562144Y-12408485D01*
X16905001Y-13132295D02*
X16905001Y-12332295D01*
X16905001Y-12713247D02*
X17362144Y-12713247D01*
X17362144Y-13132295D02*
X17362144Y-12332295D01*
X17743096Y-12827533D02*
X18352620Y-12827533D01*
X19114524Y-13132295D02*
X18733572Y-13132295D01*
X18733572Y-13132295D02*
X18733572Y-12332295D01*
X19381191Y-13132295D02*
X19381191Y-12332295D01*
X19762143Y-13132295D02*
X19762143Y-12332295D01*
X19762143Y-12332295D02*
X20219286Y-13132295D01*
X20219286Y-13132295D02*
X20219286Y-12332295D01*
X20600238Y-13132295D02*
X20600238Y-12332295D01*
X21057381Y-13132295D02*
X20714523Y-12675152D01*
X21057381Y-12332295D02*
X20600238Y-12789438D01*
X19963333Y-10727295D02*
X19963333Y-11298723D01*
X19963333Y-11298723D02*
X19925238Y-11413009D01*
X19925238Y-11413009D02*
X19849047Y-11489200D01*
X19849047Y-11489200D02*
X19734762Y-11527295D01*
X19734762Y-11527295D02*
X19658571Y-11527295D01*
X20306190Y-10803485D02*
X20344286Y-10765390D01*
X20344286Y-10765390D02*
X20420476Y-10727295D01*
X20420476Y-10727295D02*
X20610952Y-10727295D01*
X20610952Y-10727295D02*
X20687143Y-10765390D01*
X20687143Y-10765390D02*
X20725238Y-10803485D01*
X20725238Y-10803485D02*
X20763333Y-10879676D01*
X20763333Y-10879676D02*
X20763333Y-10955866D01*
X20763333Y-10955866D02*
X20725238Y-11070152D01*
X20725238Y-11070152D02*
X20268095Y-11527295D01*
X20268095Y-11527295D02*
X20763333Y-11527295D01*
X14296904Y-26303752D02*
X14220714Y-26265657D01*
X14220714Y-26265657D02*
X14182619Y-26227561D01*
X14182619Y-26227561D02*
X14144523Y-26151371D01*
X14144523Y-26151371D02*
X14144523Y-26113276D01*
X14144523Y-26113276D02*
X14182619Y-26037085D01*
X14182619Y-26037085D02*
X14220714Y-25998990D01*
X14220714Y-25998990D02*
X14296904Y-25960895D01*
X14296904Y-25960895D02*
X14449285Y-25960895D01*
X14449285Y-25960895D02*
X14525476Y-25998990D01*
X14525476Y-25998990D02*
X14563571Y-26037085D01*
X14563571Y-26037085D02*
X14601666Y-26113276D01*
X14601666Y-26113276D02*
X14601666Y-26151371D01*
X14601666Y-26151371D02*
X14563571Y-26227561D01*
X14563571Y-26227561D02*
X14525476Y-26265657D01*
X14525476Y-26265657D02*
X14449285Y-26303752D01*
X14449285Y-26303752D02*
X14296904Y-26303752D01*
X14296904Y-26303752D02*
X14220714Y-26341847D01*
X14220714Y-26341847D02*
X14182619Y-26379942D01*
X14182619Y-26379942D02*
X14144523Y-26456133D01*
X14144523Y-26456133D02*
X14144523Y-26608514D01*
X14144523Y-26608514D02*
X14182619Y-26684704D01*
X14182619Y-26684704D02*
X14220714Y-26722800D01*
X14220714Y-26722800D02*
X14296904Y-26760895D01*
X14296904Y-26760895D02*
X14449285Y-26760895D01*
X14449285Y-26760895D02*
X14525476Y-26722800D01*
X14525476Y-26722800D02*
X14563571Y-26684704D01*
X14563571Y-26684704D02*
X14601666Y-26608514D01*
X14601666Y-26608514D02*
X14601666Y-26456133D01*
X14601666Y-26456133D02*
X14563571Y-26379942D01*
X14563571Y-26379942D02*
X14525476Y-26341847D01*
X14525476Y-26341847D02*
X14449285Y-26303752D01*
X15096905Y-25960895D02*
X15173095Y-25960895D01*
X15173095Y-25960895D02*
X15249286Y-25998990D01*
X15249286Y-25998990D02*
X15287381Y-26037085D01*
X15287381Y-26037085D02*
X15325476Y-26113276D01*
X15325476Y-26113276D02*
X15363571Y-26265657D01*
X15363571Y-26265657D02*
X15363571Y-26456133D01*
X15363571Y-26456133D02*
X15325476Y-26608514D01*
X15325476Y-26608514D02*
X15287381Y-26684704D01*
X15287381Y-26684704D02*
X15249286Y-26722800D01*
X15249286Y-26722800D02*
X15173095Y-26760895D01*
X15173095Y-26760895D02*
X15096905Y-26760895D01*
X15096905Y-26760895D02*
X15020714Y-26722800D01*
X15020714Y-26722800D02*
X14982619Y-26684704D01*
X14982619Y-26684704D02*
X14944524Y-26608514D01*
X14944524Y-26608514D02*
X14906428Y-26456133D01*
X14906428Y-26456133D02*
X14906428Y-26265657D01*
X14906428Y-26265657D02*
X14944524Y-26113276D01*
X14944524Y-26113276D02*
X14982619Y-26037085D01*
X14982619Y-26037085D02*
X15020714Y-25998990D01*
X15020714Y-25998990D02*
X15096905Y-25960895D01*
X15858810Y-25960895D02*
X15935000Y-25960895D01*
X15935000Y-25960895D02*
X16011191Y-25998990D01*
X16011191Y-25998990D02*
X16049286Y-26037085D01*
X16049286Y-26037085D02*
X16087381Y-26113276D01*
X16087381Y-26113276D02*
X16125476Y-26265657D01*
X16125476Y-26265657D02*
X16125476Y-26456133D01*
X16125476Y-26456133D02*
X16087381Y-26608514D01*
X16087381Y-26608514D02*
X16049286Y-26684704D01*
X16049286Y-26684704D02*
X16011191Y-26722800D01*
X16011191Y-26722800D02*
X15935000Y-26760895D01*
X15935000Y-26760895D02*
X15858810Y-26760895D01*
X15858810Y-26760895D02*
X15782619Y-26722800D01*
X15782619Y-26722800D02*
X15744524Y-26684704D01*
X15744524Y-26684704D02*
X15706429Y-26608514D01*
X15706429Y-26608514D02*
X15668333Y-26456133D01*
X15668333Y-26456133D02*
X15668333Y-26265657D01*
X15668333Y-26265657D02*
X15706429Y-26113276D01*
X15706429Y-26113276D02*
X15744524Y-26037085D01*
X15744524Y-26037085D02*
X15782619Y-25998990D01*
X15782619Y-25998990D02*
X15858810Y-25960895D01*
X22281667Y-26490895D02*
X22015000Y-26109942D01*
X21824524Y-26490895D02*
X21824524Y-25690895D01*
X21824524Y-25690895D02*
X22129286Y-25690895D01*
X22129286Y-25690895D02*
X22205476Y-25728990D01*
X22205476Y-25728990D02*
X22243571Y-25767085D01*
X22243571Y-25767085D02*
X22281667Y-25843276D01*
X22281667Y-25843276D02*
X22281667Y-25957561D01*
X22281667Y-25957561D02*
X22243571Y-26033752D01*
X22243571Y-26033752D02*
X22205476Y-26071847D01*
X22205476Y-26071847D02*
X22129286Y-26109942D01*
X22129286Y-26109942D02*
X21824524Y-26109942D01*
X22967381Y-25690895D02*
X22815000Y-25690895D01*
X22815000Y-25690895D02*
X22738809Y-25728990D01*
X22738809Y-25728990D02*
X22700714Y-25767085D01*
X22700714Y-25767085D02*
X22624524Y-25881371D01*
X22624524Y-25881371D02*
X22586428Y-26033752D01*
X22586428Y-26033752D02*
X22586428Y-26338514D01*
X22586428Y-26338514D02*
X22624524Y-26414704D01*
X22624524Y-26414704D02*
X22662619Y-26452800D01*
X22662619Y-26452800D02*
X22738809Y-26490895D01*
X22738809Y-26490895D02*
X22891190Y-26490895D01*
X22891190Y-26490895D02*
X22967381Y-26452800D01*
X22967381Y-26452800D02*
X23005476Y-26414704D01*
X23005476Y-26414704D02*
X23043571Y-26338514D01*
X23043571Y-26338514D02*
X23043571Y-26148038D01*
X23043571Y-26148038D02*
X23005476Y-26071847D01*
X23005476Y-26071847D02*
X22967381Y-26033752D01*
X22967381Y-26033752D02*
X22891190Y-25995657D01*
X22891190Y-25995657D02*
X22738809Y-25995657D01*
X22738809Y-25995657D02*
X22662619Y-26033752D01*
X22662619Y-26033752D02*
X22624524Y-26071847D01*
X22624524Y-26071847D02*
X22586428Y-26148038D01*
X7103485Y-16529286D02*
X7065390Y-16491190D01*
X7065390Y-16491190D02*
X7027295Y-16415000D01*
X7027295Y-16415000D02*
X7027295Y-16224524D01*
X7027295Y-16224524D02*
X7065390Y-16148333D01*
X7065390Y-16148333D02*
X7103485Y-16110238D01*
X7103485Y-16110238D02*
X7179676Y-16072143D01*
X7179676Y-16072143D02*
X7255866Y-16072143D01*
X7255866Y-16072143D02*
X7370152Y-16110238D01*
X7370152Y-16110238D02*
X7827295Y-16567381D01*
X7827295Y-16567381D02*
X7827295Y-16072143D01*
X7103485Y-15767381D02*
X7065390Y-15729285D01*
X7065390Y-15729285D02*
X7027295Y-15653095D01*
X7027295Y-15653095D02*
X7027295Y-15462619D01*
X7027295Y-15462619D02*
X7065390Y-15386428D01*
X7065390Y-15386428D02*
X7103485Y-15348333D01*
X7103485Y-15348333D02*
X7179676Y-15310238D01*
X7179676Y-15310238D02*
X7255866Y-15310238D01*
X7255866Y-15310238D02*
X7370152Y-15348333D01*
X7370152Y-15348333D02*
X7827295Y-15805476D01*
X7827295Y-15805476D02*
X7827295Y-15310238D01*
X7293961Y-14967380D02*
X8093961Y-14967380D01*
X7332057Y-14967380D02*
X7293961Y-14891190D01*
X7293961Y-14891190D02*
X7293961Y-14738809D01*
X7293961Y-14738809D02*
X7332057Y-14662618D01*
X7332057Y-14662618D02*
X7370152Y-14624523D01*
X7370152Y-14624523D02*
X7446342Y-14586428D01*
X7446342Y-14586428D02*
X7674914Y-14586428D01*
X7674914Y-14586428D02*
X7751104Y-14624523D01*
X7751104Y-14624523D02*
X7789200Y-14662618D01*
X7789200Y-14662618D02*
X7827295Y-14738809D01*
X7827295Y-14738809D02*
X7827295Y-14891190D01*
X7827295Y-14891190D02*
X7789200Y-14967380D01*
X7408247Y-13976904D02*
X7408247Y-14243570D01*
X7827295Y-14243570D02*
X7027295Y-14243570D01*
X7027295Y-14243570D02*
X7027295Y-13862618D01*
X9391667Y-19871104D02*
X9353571Y-19909200D01*
X9353571Y-19909200D02*
X9239286Y-19947295D01*
X9239286Y-19947295D02*
X9163095Y-19947295D01*
X9163095Y-19947295D02*
X9048809Y-19909200D01*
X9048809Y-19909200D02*
X8972619Y-19833009D01*
X8972619Y-19833009D02*
X8934524Y-19756819D01*
X8934524Y-19756819D02*
X8896428Y-19604438D01*
X8896428Y-19604438D02*
X8896428Y-19490152D01*
X8896428Y-19490152D02*
X8934524Y-19337771D01*
X8934524Y-19337771D02*
X8972619Y-19261580D01*
X8972619Y-19261580D02*
X9048809Y-19185390D01*
X9048809Y-19185390D02*
X9163095Y-19147295D01*
X9163095Y-19147295D02*
X9239286Y-19147295D01*
X9239286Y-19147295D02*
X9353571Y-19185390D01*
X9353571Y-19185390D02*
X9391667Y-19223485D01*
X10153571Y-19947295D02*
X9696428Y-19947295D01*
X9925000Y-19947295D02*
X9925000Y-19147295D01*
X9925000Y-19147295D02*
X9848809Y-19261580D01*
X9848809Y-19261580D02*
X9772619Y-19337771D01*
X9772619Y-19337771D02*
X9696428Y-19375866D01*
X15976904Y-29628952D02*
X15900714Y-29590857D01*
X15900714Y-29590857D02*
X15862619Y-29552761D01*
X15862619Y-29552761D02*
X15824523Y-29476571D01*
X15824523Y-29476571D02*
X15824523Y-29438476D01*
X15824523Y-29438476D02*
X15862619Y-29362285D01*
X15862619Y-29362285D02*
X15900714Y-29324190D01*
X15900714Y-29324190D02*
X15976904Y-29286095D01*
X15976904Y-29286095D02*
X16129285Y-29286095D01*
X16129285Y-29286095D02*
X16205476Y-29324190D01*
X16205476Y-29324190D02*
X16243571Y-29362285D01*
X16243571Y-29362285D02*
X16281666Y-29438476D01*
X16281666Y-29438476D02*
X16281666Y-29476571D01*
X16281666Y-29476571D02*
X16243571Y-29552761D01*
X16243571Y-29552761D02*
X16205476Y-29590857D01*
X16205476Y-29590857D02*
X16129285Y-29628952D01*
X16129285Y-29628952D02*
X15976904Y-29628952D01*
X15976904Y-29628952D02*
X15900714Y-29667047D01*
X15900714Y-29667047D02*
X15862619Y-29705142D01*
X15862619Y-29705142D02*
X15824523Y-29781333D01*
X15824523Y-29781333D02*
X15824523Y-29933714D01*
X15824523Y-29933714D02*
X15862619Y-30009904D01*
X15862619Y-30009904D02*
X15900714Y-30048000D01*
X15900714Y-30048000D02*
X15976904Y-30086095D01*
X15976904Y-30086095D02*
X16129285Y-30086095D01*
X16129285Y-30086095D02*
X16205476Y-30048000D01*
X16205476Y-30048000D02*
X16243571Y-30009904D01*
X16243571Y-30009904D02*
X16281666Y-29933714D01*
X16281666Y-29933714D02*
X16281666Y-29781333D01*
X16281666Y-29781333D02*
X16243571Y-29705142D01*
X16243571Y-29705142D02*
X16205476Y-29667047D01*
X16205476Y-29667047D02*
X16129285Y-29628952D01*
X16776905Y-29286095D02*
X16853095Y-29286095D01*
X16853095Y-29286095D02*
X16929286Y-29324190D01*
X16929286Y-29324190D02*
X16967381Y-29362285D01*
X16967381Y-29362285D02*
X17005476Y-29438476D01*
X17005476Y-29438476D02*
X17043571Y-29590857D01*
X17043571Y-29590857D02*
X17043571Y-29781333D01*
X17043571Y-29781333D02*
X17005476Y-29933714D01*
X17005476Y-29933714D02*
X16967381Y-30009904D01*
X16967381Y-30009904D02*
X16929286Y-30048000D01*
X16929286Y-30048000D02*
X16853095Y-30086095D01*
X16853095Y-30086095D02*
X16776905Y-30086095D01*
X16776905Y-30086095D02*
X16700714Y-30048000D01*
X16700714Y-30048000D02*
X16662619Y-30009904D01*
X16662619Y-30009904D02*
X16624524Y-29933714D01*
X16624524Y-29933714D02*
X16586428Y-29781333D01*
X16586428Y-29781333D02*
X16586428Y-29590857D01*
X16586428Y-29590857D02*
X16624524Y-29438476D01*
X16624524Y-29438476D02*
X16662619Y-29362285D01*
X16662619Y-29362285D02*
X16700714Y-29324190D01*
X16700714Y-29324190D02*
X16776905Y-29286095D01*
X17538810Y-29286095D02*
X17615000Y-29286095D01*
X17615000Y-29286095D02*
X17691191Y-29324190D01*
X17691191Y-29324190D02*
X17729286Y-29362285D01*
X17729286Y-29362285D02*
X17767381Y-29438476D01*
X17767381Y-29438476D02*
X17805476Y-29590857D01*
X17805476Y-29590857D02*
X17805476Y-29781333D01*
X17805476Y-29781333D02*
X17767381Y-29933714D01*
X17767381Y-29933714D02*
X17729286Y-30009904D01*
X17729286Y-30009904D02*
X17691191Y-30048000D01*
X17691191Y-30048000D02*
X17615000Y-30086095D01*
X17615000Y-30086095D02*
X17538810Y-30086095D01*
X17538810Y-30086095D02*
X17462619Y-30048000D01*
X17462619Y-30048000D02*
X17424524Y-30009904D01*
X17424524Y-30009904D02*
X17386429Y-29933714D01*
X17386429Y-29933714D02*
X17348333Y-29781333D01*
X17348333Y-29781333D02*
X17348333Y-29590857D01*
X17348333Y-29590857D02*
X17386429Y-29438476D01*
X17386429Y-29438476D02*
X17424524Y-29362285D01*
X17424524Y-29362285D02*
X17462619Y-29324190D01*
X17462619Y-29324190D02*
X17538810Y-29286095D01*
X22231667Y-28676095D02*
X21965000Y-28295142D01*
X21774524Y-28676095D02*
X21774524Y-27876095D01*
X21774524Y-27876095D02*
X22079286Y-27876095D01*
X22079286Y-27876095D02*
X22155476Y-27914190D01*
X22155476Y-27914190D02*
X22193571Y-27952285D01*
X22193571Y-27952285D02*
X22231667Y-28028476D01*
X22231667Y-28028476D02*
X22231667Y-28142761D01*
X22231667Y-28142761D02*
X22193571Y-28218952D01*
X22193571Y-28218952D02*
X22155476Y-28257047D01*
X22155476Y-28257047D02*
X22079286Y-28295142D01*
X22079286Y-28295142D02*
X21774524Y-28295142D01*
X22917381Y-28142761D02*
X22917381Y-28676095D01*
X22726905Y-27838000D02*
X22536428Y-28409428D01*
X22536428Y-28409428D02*
X23031667Y-28409428D01*
X22926904Y-3457295D02*
X22469761Y-3457295D01*
X22698333Y-3457295D02*
X22698333Y-2657295D01*
X22698333Y-2657295D02*
X22622142Y-2771580D01*
X22622142Y-2771580D02*
X22545952Y-2847771D01*
X22545952Y-2847771D02*
X22469761Y-2885866D01*
X23422143Y-2657295D02*
X23498333Y-2657295D01*
X23498333Y-2657295D02*
X23574524Y-2695390D01*
X23574524Y-2695390D02*
X23612619Y-2733485D01*
X23612619Y-2733485D02*
X23650714Y-2809676D01*
X23650714Y-2809676D02*
X23688809Y-2962057D01*
X23688809Y-2962057D02*
X23688809Y-3152533D01*
X23688809Y-3152533D02*
X23650714Y-3304914D01*
X23650714Y-3304914D02*
X23612619Y-3381104D01*
X23612619Y-3381104D02*
X23574524Y-3419200D01*
X23574524Y-3419200D02*
X23498333Y-3457295D01*
X23498333Y-3457295D02*
X23422143Y-3457295D01*
X23422143Y-3457295D02*
X23345952Y-3419200D01*
X23345952Y-3419200D02*
X23307857Y-3381104D01*
X23307857Y-3381104D02*
X23269762Y-3304914D01*
X23269762Y-3304914D02*
X23231666Y-3152533D01*
X23231666Y-3152533D02*
X23231666Y-2962057D01*
X23231666Y-2962057D02*
X23269762Y-2809676D01*
X23269762Y-2809676D02*
X23307857Y-2733485D01*
X23307857Y-2733485D02*
X23345952Y-2695390D01*
X23345952Y-2695390D02*
X23422143Y-2657295D01*
X24184048Y-2657295D02*
X24260238Y-2657295D01*
X24260238Y-2657295D02*
X24336429Y-2695390D01*
X24336429Y-2695390D02*
X24374524Y-2733485D01*
X24374524Y-2733485D02*
X24412619Y-2809676D01*
X24412619Y-2809676D02*
X24450714Y-2962057D01*
X24450714Y-2962057D02*
X24450714Y-3152533D01*
X24450714Y-3152533D02*
X24412619Y-3304914D01*
X24412619Y-3304914D02*
X24374524Y-3381104D01*
X24374524Y-3381104D02*
X24336429Y-3419200D01*
X24336429Y-3419200D02*
X24260238Y-3457295D01*
X24260238Y-3457295D02*
X24184048Y-3457295D01*
X24184048Y-3457295D02*
X24107857Y-3419200D01*
X24107857Y-3419200D02*
X24069762Y-3381104D01*
X24069762Y-3381104D02*
X24031667Y-3304914D01*
X24031667Y-3304914D02*
X23993571Y-3152533D01*
X23993571Y-3152533D02*
X23993571Y-2962057D01*
X23993571Y-2962057D02*
X24031667Y-2809676D01*
X24031667Y-2809676D02*
X24069762Y-2733485D01*
X24069762Y-2733485D02*
X24107857Y-2695390D01*
X24107857Y-2695390D02*
X24184048Y-2657295D01*
X24793572Y-2923961D02*
X24793572Y-3457295D01*
X24793572Y-3000152D02*
X24831667Y-2962057D01*
X24831667Y-2962057D02*
X24907857Y-2923961D01*
X24907857Y-2923961D02*
X25022143Y-2923961D01*
X25022143Y-2923961D02*
X25098334Y-2962057D01*
X25098334Y-2962057D02*
X25136429Y-3038247D01*
X25136429Y-3038247D02*
X25136429Y-3457295D01*
X25784048Y-3038247D02*
X25517382Y-3038247D01*
X25517382Y-3457295D02*
X25517382Y-2657295D01*
X25517382Y-2657295D02*
X25898334Y-2657295D01*
X24691667Y-6311104D02*
X24653571Y-6349200D01*
X24653571Y-6349200D02*
X24539286Y-6387295D01*
X24539286Y-6387295D02*
X24463095Y-6387295D01*
X24463095Y-6387295D02*
X24348809Y-6349200D01*
X24348809Y-6349200D02*
X24272619Y-6273009D01*
X24272619Y-6273009D02*
X24234524Y-6196819D01*
X24234524Y-6196819D02*
X24196428Y-6044438D01*
X24196428Y-6044438D02*
X24196428Y-5930152D01*
X24196428Y-5930152D02*
X24234524Y-5777771D01*
X24234524Y-5777771D02*
X24272619Y-5701580D01*
X24272619Y-5701580D02*
X24348809Y-5625390D01*
X24348809Y-5625390D02*
X24463095Y-5587295D01*
X24463095Y-5587295D02*
X24539286Y-5587295D01*
X24539286Y-5587295D02*
X24653571Y-5625390D01*
X24653571Y-5625390D02*
X24691667Y-5663485D01*
X24958333Y-5587295D02*
X25453571Y-5587295D01*
X25453571Y-5587295D02*
X25186905Y-5892057D01*
X25186905Y-5892057D02*
X25301190Y-5892057D01*
X25301190Y-5892057D02*
X25377381Y-5930152D01*
X25377381Y-5930152D02*
X25415476Y-5968247D01*
X25415476Y-5968247D02*
X25453571Y-6044438D01*
X25453571Y-6044438D02*
X25453571Y-6234914D01*
X25453571Y-6234914D02*
X25415476Y-6311104D01*
X25415476Y-6311104D02*
X25377381Y-6349200D01*
X25377381Y-6349200D02*
X25301190Y-6387295D01*
X25301190Y-6387295D02*
X25072619Y-6387295D01*
X25072619Y-6387295D02*
X24996428Y-6349200D01*
X24996428Y-6349200D02*
X24958333Y-6311104D01*
X15896904Y-31454152D02*
X15820714Y-31416057D01*
X15820714Y-31416057D02*
X15782619Y-31377961D01*
X15782619Y-31377961D02*
X15744523Y-31301771D01*
X15744523Y-31301771D02*
X15744523Y-31263676D01*
X15744523Y-31263676D02*
X15782619Y-31187485D01*
X15782619Y-31187485D02*
X15820714Y-31149390D01*
X15820714Y-31149390D02*
X15896904Y-31111295D01*
X15896904Y-31111295D02*
X16049285Y-31111295D01*
X16049285Y-31111295D02*
X16125476Y-31149390D01*
X16125476Y-31149390D02*
X16163571Y-31187485D01*
X16163571Y-31187485D02*
X16201666Y-31263676D01*
X16201666Y-31263676D02*
X16201666Y-31301771D01*
X16201666Y-31301771D02*
X16163571Y-31377961D01*
X16163571Y-31377961D02*
X16125476Y-31416057D01*
X16125476Y-31416057D02*
X16049285Y-31454152D01*
X16049285Y-31454152D02*
X15896904Y-31454152D01*
X15896904Y-31454152D02*
X15820714Y-31492247D01*
X15820714Y-31492247D02*
X15782619Y-31530342D01*
X15782619Y-31530342D02*
X15744523Y-31606533D01*
X15744523Y-31606533D02*
X15744523Y-31758914D01*
X15744523Y-31758914D02*
X15782619Y-31835104D01*
X15782619Y-31835104D02*
X15820714Y-31873200D01*
X15820714Y-31873200D02*
X15896904Y-31911295D01*
X15896904Y-31911295D02*
X16049285Y-31911295D01*
X16049285Y-31911295D02*
X16125476Y-31873200D01*
X16125476Y-31873200D02*
X16163571Y-31835104D01*
X16163571Y-31835104D02*
X16201666Y-31758914D01*
X16201666Y-31758914D02*
X16201666Y-31606533D01*
X16201666Y-31606533D02*
X16163571Y-31530342D01*
X16163571Y-31530342D02*
X16125476Y-31492247D01*
X16125476Y-31492247D02*
X16049285Y-31454152D01*
X16696905Y-31111295D02*
X16773095Y-31111295D01*
X16773095Y-31111295D02*
X16849286Y-31149390D01*
X16849286Y-31149390D02*
X16887381Y-31187485D01*
X16887381Y-31187485D02*
X16925476Y-31263676D01*
X16925476Y-31263676D02*
X16963571Y-31416057D01*
X16963571Y-31416057D02*
X16963571Y-31606533D01*
X16963571Y-31606533D02*
X16925476Y-31758914D01*
X16925476Y-31758914D02*
X16887381Y-31835104D01*
X16887381Y-31835104D02*
X16849286Y-31873200D01*
X16849286Y-31873200D02*
X16773095Y-31911295D01*
X16773095Y-31911295D02*
X16696905Y-31911295D01*
X16696905Y-31911295D02*
X16620714Y-31873200D01*
X16620714Y-31873200D02*
X16582619Y-31835104D01*
X16582619Y-31835104D02*
X16544524Y-31758914D01*
X16544524Y-31758914D02*
X16506428Y-31606533D01*
X16506428Y-31606533D02*
X16506428Y-31416057D01*
X16506428Y-31416057D02*
X16544524Y-31263676D01*
X16544524Y-31263676D02*
X16582619Y-31187485D01*
X16582619Y-31187485D02*
X16620714Y-31149390D01*
X16620714Y-31149390D02*
X16696905Y-31111295D01*
X17458810Y-31111295D02*
X17535000Y-31111295D01*
X17535000Y-31111295D02*
X17611191Y-31149390D01*
X17611191Y-31149390D02*
X17649286Y-31187485D01*
X17649286Y-31187485D02*
X17687381Y-31263676D01*
X17687381Y-31263676D02*
X17725476Y-31416057D01*
X17725476Y-31416057D02*
X17725476Y-31606533D01*
X17725476Y-31606533D02*
X17687381Y-31758914D01*
X17687381Y-31758914D02*
X17649286Y-31835104D01*
X17649286Y-31835104D02*
X17611191Y-31873200D01*
X17611191Y-31873200D02*
X17535000Y-31911295D01*
X17535000Y-31911295D02*
X17458810Y-31911295D01*
X17458810Y-31911295D02*
X17382619Y-31873200D01*
X17382619Y-31873200D02*
X17344524Y-31835104D01*
X17344524Y-31835104D02*
X17306429Y-31758914D01*
X17306429Y-31758914D02*
X17268333Y-31606533D01*
X17268333Y-31606533D02*
X17268333Y-31416057D01*
X17268333Y-31416057D02*
X17306429Y-31263676D01*
X17306429Y-31263676D02*
X17344524Y-31187485D01*
X17344524Y-31187485D02*
X17382619Y-31149390D01*
X17382619Y-31149390D02*
X17458810Y-31111295D01*
X22131667Y-31561295D02*
X21865000Y-31180342D01*
X21674524Y-31561295D02*
X21674524Y-30761295D01*
X21674524Y-30761295D02*
X21979286Y-30761295D01*
X21979286Y-30761295D02*
X22055476Y-30799390D01*
X22055476Y-30799390D02*
X22093571Y-30837485D01*
X22093571Y-30837485D02*
X22131667Y-30913676D01*
X22131667Y-30913676D02*
X22131667Y-31027961D01*
X22131667Y-31027961D02*
X22093571Y-31104152D01*
X22093571Y-31104152D02*
X22055476Y-31142247D01*
X22055476Y-31142247D02*
X21979286Y-31180342D01*
X21979286Y-31180342D02*
X21674524Y-31180342D01*
X22855476Y-30761295D02*
X22474524Y-30761295D01*
X22474524Y-30761295D02*
X22436428Y-31142247D01*
X22436428Y-31142247D02*
X22474524Y-31104152D01*
X22474524Y-31104152D02*
X22550714Y-31066057D01*
X22550714Y-31066057D02*
X22741190Y-31066057D01*
X22741190Y-31066057D02*
X22817381Y-31104152D01*
X22817381Y-31104152D02*
X22855476Y-31142247D01*
X22855476Y-31142247D02*
X22893571Y-31218438D01*
X22893571Y-31218438D02*
X22893571Y-31408914D01*
X22893571Y-31408914D02*
X22855476Y-31485104D01*
X22855476Y-31485104D02*
X22817381Y-31523200D01*
X22817381Y-31523200D02*
X22741190Y-31561295D01*
X22741190Y-31561295D02*
X22550714Y-31561295D01*
X22550714Y-31561295D02*
X22474524Y-31523200D01*
X22474524Y-31523200D02*
X22436428Y-31485104D01*
X16175476Y-23727361D02*
X16175476Y-24260695D01*
X15985000Y-23422600D02*
X15794523Y-23994028D01*
X15794523Y-23994028D02*
X16289762Y-23994028D01*
X16746905Y-23460695D02*
X16823095Y-23460695D01*
X16823095Y-23460695D02*
X16899286Y-23498790D01*
X16899286Y-23498790D02*
X16937381Y-23536885D01*
X16937381Y-23536885D02*
X16975476Y-23613076D01*
X16975476Y-23613076D02*
X17013571Y-23765457D01*
X17013571Y-23765457D02*
X17013571Y-23955933D01*
X17013571Y-23955933D02*
X16975476Y-24108314D01*
X16975476Y-24108314D02*
X16937381Y-24184504D01*
X16937381Y-24184504D02*
X16899286Y-24222600D01*
X16899286Y-24222600D02*
X16823095Y-24260695D01*
X16823095Y-24260695D02*
X16746905Y-24260695D01*
X16746905Y-24260695D02*
X16670714Y-24222600D01*
X16670714Y-24222600D02*
X16632619Y-24184504D01*
X16632619Y-24184504D02*
X16594524Y-24108314D01*
X16594524Y-24108314D02*
X16556428Y-23955933D01*
X16556428Y-23955933D02*
X16556428Y-23765457D01*
X16556428Y-23765457D02*
X16594524Y-23613076D01*
X16594524Y-23613076D02*
X16632619Y-23536885D01*
X16632619Y-23536885D02*
X16670714Y-23498790D01*
X16670714Y-23498790D02*
X16746905Y-23460695D01*
X17508810Y-23460695D02*
X17585000Y-23460695D01*
X17585000Y-23460695D02*
X17661191Y-23498790D01*
X17661191Y-23498790D02*
X17699286Y-23536885D01*
X17699286Y-23536885D02*
X17737381Y-23613076D01*
X17737381Y-23613076D02*
X17775476Y-23765457D01*
X17775476Y-23765457D02*
X17775476Y-23955933D01*
X17775476Y-23955933D02*
X17737381Y-24108314D01*
X17737381Y-24108314D02*
X17699286Y-24184504D01*
X17699286Y-24184504D02*
X17661191Y-24222600D01*
X17661191Y-24222600D02*
X17585000Y-24260695D01*
X17585000Y-24260695D02*
X17508810Y-24260695D01*
X17508810Y-24260695D02*
X17432619Y-24222600D01*
X17432619Y-24222600D02*
X17394524Y-24184504D01*
X17394524Y-24184504D02*
X17356429Y-24108314D01*
X17356429Y-24108314D02*
X17318333Y-23955933D01*
X17318333Y-23955933D02*
X17318333Y-23765457D01*
X17318333Y-23765457D02*
X17356429Y-23613076D01*
X17356429Y-23613076D02*
X17394524Y-23536885D01*
X17394524Y-23536885D02*
X17432619Y-23498790D01*
X17432619Y-23498790D02*
X17508810Y-23460695D01*
X22245067Y-24147295D02*
X21978400Y-23766342D01*
X21787924Y-24147295D02*
X21787924Y-23347295D01*
X21787924Y-23347295D02*
X22092686Y-23347295D01*
X22092686Y-23347295D02*
X22168876Y-23385390D01*
X22168876Y-23385390D02*
X22206971Y-23423485D01*
X22206971Y-23423485D02*
X22245067Y-23499676D01*
X22245067Y-23499676D02*
X22245067Y-23613961D01*
X22245067Y-23613961D02*
X22206971Y-23690152D01*
X22206971Y-23690152D02*
X22168876Y-23728247D01*
X22168876Y-23728247D02*
X22092686Y-23766342D01*
X22092686Y-23766342D02*
X21787924Y-23766342D01*
X22549828Y-23423485D02*
X22587924Y-23385390D01*
X22587924Y-23385390D02*
X22664114Y-23347295D01*
X22664114Y-23347295D02*
X22854590Y-23347295D01*
X22854590Y-23347295D02*
X22930781Y-23385390D01*
X22930781Y-23385390D02*
X22968876Y-23423485D01*
X22968876Y-23423485D02*
X23006971Y-23499676D01*
X23006971Y-23499676D02*
X23006971Y-23575866D01*
X23006971Y-23575866D02*
X22968876Y-23690152D01*
X22968876Y-23690152D02*
X22511733Y-24147295D01*
X22511733Y-24147295D02*
X23006971Y-24147295D01*
X13628485Y-16254286D02*
X13590390Y-16216190D01*
X13590390Y-16216190D02*
X13552295Y-16140000D01*
X13552295Y-16140000D02*
X13552295Y-15949524D01*
X13552295Y-15949524D02*
X13590390Y-15873333D01*
X13590390Y-15873333D02*
X13628485Y-15835238D01*
X13628485Y-15835238D02*
X13704676Y-15797143D01*
X13704676Y-15797143D02*
X13780866Y-15797143D01*
X13780866Y-15797143D02*
X13895152Y-15835238D01*
X13895152Y-15835238D02*
X14352295Y-16292381D01*
X14352295Y-16292381D02*
X14352295Y-15797143D01*
X13628485Y-15492381D02*
X13590390Y-15454285D01*
X13590390Y-15454285D02*
X13552295Y-15378095D01*
X13552295Y-15378095D02*
X13552295Y-15187619D01*
X13552295Y-15187619D02*
X13590390Y-15111428D01*
X13590390Y-15111428D02*
X13628485Y-15073333D01*
X13628485Y-15073333D02*
X13704676Y-15035238D01*
X13704676Y-15035238D02*
X13780866Y-15035238D01*
X13780866Y-15035238D02*
X13895152Y-15073333D01*
X13895152Y-15073333D02*
X14352295Y-15530476D01*
X14352295Y-15530476D02*
X14352295Y-15035238D01*
X13818961Y-14692380D02*
X14618961Y-14692380D01*
X13857057Y-14692380D02*
X13818961Y-14616190D01*
X13818961Y-14616190D02*
X13818961Y-14463809D01*
X13818961Y-14463809D02*
X13857057Y-14387618D01*
X13857057Y-14387618D02*
X13895152Y-14349523D01*
X13895152Y-14349523D02*
X13971342Y-14311428D01*
X13971342Y-14311428D02*
X14199914Y-14311428D01*
X14199914Y-14311428D02*
X14276104Y-14349523D01*
X14276104Y-14349523D02*
X14314200Y-14387618D01*
X14314200Y-14387618D02*
X14352295Y-14463809D01*
X14352295Y-14463809D02*
X14352295Y-14616190D01*
X14352295Y-14616190D02*
X14314200Y-14692380D01*
X13933247Y-13701904D02*
X13933247Y-13968570D01*
X14352295Y-13968570D02*
X13552295Y-13968570D01*
X13552295Y-13968570D02*
X13552295Y-13587618D01*
X11836667Y-19046104D02*
X11798571Y-19084200D01*
X11798571Y-19084200D02*
X11684286Y-19122295D01*
X11684286Y-19122295D02*
X11608095Y-19122295D01*
X11608095Y-19122295D02*
X11493809Y-19084200D01*
X11493809Y-19084200D02*
X11417619Y-19008009D01*
X11417619Y-19008009D02*
X11379524Y-18931819D01*
X11379524Y-18931819D02*
X11341428Y-18779438D01*
X11341428Y-18779438D02*
X11341428Y-18665152D01*
X11341428Y-18665152D02*
X11379524Y-18512771D01*
X11379524Y-18512771D02*
X11417619Y-18436580D01*
X11417619Y-18436580D02*
X11493809Y-18360390D01*
X11493809Y-18360390D02*
X11608095Y-18322295D01*
X11608095Y-18322295D02*
X11684286Y-18322295D01*
X11684286Y-18322295D02*
X11798571Y-18360390D01*
X11798571Y-18360390D02*
X11836667Y-18398485D01*
X12141428Y-18398485D02*
X12179524Y-18360390D01*
X12179524Y-18360390D02*
X12255714Y-18322295D01*
X12255714Y-18322295D02*
X12446190Y-18322295D01*
X12446190Y-18322295D02*
X12522381Y-18360390D01*
X12522381Y-18360390D02*
X12560476Y-18398485D01*
X12560476Y-18398485D02*
X12598571Y-18474676D01*
X12598571Y-18474676D02*
X12598571Y-18550866D01*
X12598571Y-18550866D02*
X12560476Y-18665152D01*
X12560476Y-18665152D02*
X12103333Y-19122295D01*
X12103333Y-19122295D02*
X12598571Y-19122295D01*
X15875476Y-19081961D02*
X15875476Y-19615295D01*
X15685000Y-18777200D02*
X15494523Y-19348628D01*
X15494523Y-19348628D02*
X15989762Y-19348628D01*
X16446905Y-18815295D02*
X16523095Y-18815295D01*
X16523095Y-18815295D02*
X16599286Y-18853390D01*
X16599286Y-18853390D02*
X16637381Y-18891485D01*
X16637381Y-18891485D02*
X16675476Y-18967676D01*
X16675476Y-18967676D02*
X16713571Y-19120057D01*
X16713571Y-19120057D02*
X16713571Y-19310533D01*
X16713571Y-19310533D02*
X16675476Y-19462914D01*
X16675476Y-19462914D02*
X16637381Y-19539104D01*
X16637381Y-19539104D02*
X16599286Y-19577200D01*
X16599286Y-19577200D02*
X16523095Y-19615295D01*
X16523095Y-19615295D02*
X16446905Y-19615295D01*
X16446905Y-19615295D02*
X16370714Y-19577200D01*
X16370714Y-19577200D02*
X16332619Y-19539104D01*
X16332619Y-19539104D02*
X16294524Y-19462914D01*
X16294524Y-19462914D02*
X16256428Y-19310533D01*
X16256428Y-19310533D02*
X16256428Y-19120057D01*
X16256428Y-19120057D02*
X16294524Y-18967676D01*
X16294524Y-18967676D02*
X16332619Y-18891485D01*
X16332619Y-18891485D02*
X16370714Y-18853390D01*
X16370714Y-18853390D02*
X16446905Y-18815295D01*
X17208810Y-18815295D02*
X17285000Y-18815295D01*
X17285000Y-18815295D02*
X17361191Y-18853390D01*
X17361191Y-18853390D02*
X17399286Y-18891485D01*
X17399286Y-18891485D02*
X17437381Y-18967676D01*
X17437381Y-18967676D02*
X17475476Y-19120057D01*
X17475476Y-19120057D02*
X17475476Y-19310533D01*
X17475476Y-19310533D02*
X17437381Y-19462914D01*
X17437381Y-19462914D02*
X17399286Y-19539104D01*
X17399286Y-19539104D02*
X17361191Y-19577200D01*
X17361191Y-19577200D02*
X17285000Y-19615295D01*
X17285000Y-19615295D02*
X17208810Y-19615295D01*
X17208810Y-19615295D02*
X17132619Y-19577200D01*
X17132619Y-19577200D02*
X17094524Y-19539104D01*
X17094524Y-19539104D02*
X17056429Y-19462914D01*
X17056429Y-19462914D02*
X17018333Y-19310533D01*
X17018333Y-19310533D02*
X17018333Y-19120057D01*
X17018333Y-19120057D02*
X17056429Y-18967676D01*
X17056429Y-18967676D02*
X17094524Y-18891485D01*
X17094524Y-18891485D02*
X17132619Y-18853390D01*
X17132619Y-18853390D02*
X17208810Y-18815295D01*
X22259667Y-19247295D02*
X21993000Y-18866342D01*
X21802524Y-19247295D02*
X21802524Y-18447295D01*
X21802524Y-18447295D02*
X22107286Y-18447295D01*
X22107286Y-18447295D02*
X22183476Y-18485390D01*
X22183476Y-18485390D02*
X22221571Y-18523485D01*
X22221571Y-18523485D02*
X22259667Y-18599676D01*
X22259667Y-18599676D02*
X22259667Y-18713961D01*
X22259667Y-18713961D02*
X22221571Y-18790152D01*
X22221571Y-18790152D02*
X22183476Y-18828247D01*
X22183476Y-18828247D02*
X22107286Y-18866342D01*
X22107286Y-18866342D02*
X21802524Y-18866342D01*
X22526333Y-18447295D02*
X23021571Y-18447295D01*
X23021571Y-18447295D02*
X22754905Y-18752057D01*
X22754905Y-18752057D02*
X22869190Y-18752057D01*
X22869190Y-18752057D02*
X22945381Y-18790152D01*
X22945381Y-18790152D02*
X22983476Y-18828247D01*
X22983476Y-18828247D02*
X23021571Y-18904438D01*
X23021571Y-18904438D02*
X23021571Y-19094914D01*
X23021571Y-19094914D02*
X22983476Y-19171104D01*
X22983476Y-19171104D02*
X22945381Y-19209200D01*
X22945381Y-19209200D02*
X22869190Y-19247295D01*
X22869190Y-19247295D02*
X22640619Y-19247295D01*
X22640619Y-19247295D02*
X22564428Y-19209200D01*
X22564428Y-19209200D02*
X22526333Y-19171104D01*
X14441029Y-21577498D02*
X14441029Y-22110832D01*
X14250553Y-21272737D02*
X14060076Y-21844165D01*
X14060076Y-21844165D02*
X14555315Y-21844165D01*
X15012458Y-21310832D02*
X15088648Y-21310832D01*
X15088648Y-21310832D02*
X15164839Y-21348927D01*
X15164839Y-21348927D02*
X15202934Y-21387022D01*
X15202934Y-21387022D02*
X15241029Y-21463213D01*
X15241029Y-21463213D02*
X15279124Y-21615594D01*
X15279124Y-21615594D02*
X15279124Y-21806070D01*
X15279124Y-21806070D02*
X15241029Y-21958451D01*
X15241029Y-21958451D02*
X15202934Y-22034641D01*
X15202934Y-22034641D02*
X15164839Y-22072737D01*
X15164839Y-22072737D02*
X15088648Y-22110832D01*
X15088648Y-22110832D02*
X15012458Y-22110832D01*
X15012458Y-22110832D02*
X14936267Y-22072737D01*
X14936267Y-22072737D02*
X14898172Y-22034641D01*
X14898172Y-22034641D02*
X14860077Y-21958451D01*
X14860077Y-21958451D02*
X14821981Y-21806070D01*
X14821981Y-21806070D02*
X14821981Y-21615594D01*
X14821981Y-21615594D02*
X14860077Y-21463213D01*
X14860077Y-21463213D02*
X14898172Y-21387022D01*
X14898172Y-21387022D02*
X14936267Y-21348927D01*
X14936267Y-21348927D02*
X15012458Y-21310832D01*
X15774363Y-21310832D02*
X15850553Y-21310832D01*
X15850553Y-21310832D02*
X15926744Y-21348927D01*
X15926744Y-21348927D02*
X15964839Y-21387022D01*
X15964839Y-21387022D02*
X16002934Y-21463213D01*
X16002934Y-21463213D02*
X16041029Y-21615594D01*
X16041029Y-21615594D02*
X16041029Y-21806070D01*
X16041029Y-21806070D02*
X16002934Y-21958451D01*
X16002934Y-21958451D02*
X15964839Y-22034641D01*
X15964839Y-22034641D02*
X15926744Y-22072737D01*
X15926744Y-22072737D02*
X15850553Y-22110832D01*
X15850553Y-22110832D02*
X15774363Y-22110832D01*
X15774363Y-22110832D02*
X15698172Y-22072737D01*
X15698172Y-22072737D02*
X15660077Y-22034641D01*
X15660077Y-22034641D02*
X15621982Y-21958451D01*
X15621982Y-21958451D02*
X15583886Y-21806070D01*
X15583886Y-21806070D02*
X15583886Y-21615594D01*
X15583886Y-21615594D02*
X15621982Y-21463213D01*
X15621982Y-21463213D02*
X15660077Y-21387022D01*
X15660077Y-21387022D02*
X15698172Y-21348927D01*
X15698172Y-21348927D02*
X15774363Y-21310832D01*
X22289867Y-21767295D02*
X22023200Y-21386342D01*
X21832724Y-21767295D02*
X21832724Y-20967295D01*
X21832724Y-20967295D02*
X22137486Y-20967295D01*
X22137486Y-20967295D02*
X22213676Y-21005390D01*
X22213676Y-21005390D02*
X22251771Y-21043485D01*
X22251771Y-21043485D02*
X22289867Y-21119676D01*
X22289867Y-21119676D02*
X22289867Y-21233961D01*
X22289867Y-21233961D02*
X22251771Y-21310152D01*
X22251771Y-21310152D02*
X22213676Y-21348247D01*
X22213676Y-21348247D02*
X22137486Y-21386342D01*
X22137486Y-21386342D02*
X21832724Y-21386342D01*
X23051771Y-21767295D02*
X22594628Y-21767295D01*
X22823200Y-21767295D02*
X22823200Y-20967295D01*
X22823200Y-20967295D02*
X22747009Y-21081580D01*
X22747009Y-21081580D02*
X22670819Y-21157771D01*
X22670819Y-21157771D02*
X22594628Y-21195866D01*
D11*
%TO.C,J4*%
X60405000Y-17075000D02*
X60405000Y-15015000D01*
X62115000Y-17075000D02*
X60405000Y-17075000D01*
X66225000Y-17075000D02*
X64615000Y-17075000D01*
X66225000Y-17075000D02*
X66225000Y-9355000D01*
D12*
X60515000Y-16965000D02*
X60515000Y-9465000D01*
X66115000Y-16965000D02*
X60515000Y-16965000D01*
X64815000Y-15815000D02*
X64815000Y-10615000D01*
D11*
X60405000Y-15015000D02*
X59815000Y-15015000D01*
D12*
X59815000Y-14915000D02*
X60215000Y-14515000D01*
X60215000Y-14515000D02*
X59815000Y-14115000D01*
X59815000Y-14115000D02*
X59815000Y-14915000D01*
X60515000Y-9465000D02*
X66115000Y-9465000D01*
X66115000Y-9465000D02*
X66115000Y-16965000D01*
D11*
X60405000Y-9355000D02*
X60405000Y-11415000D01*
X62115000Y-9355000D02*
X60405000Y-9355000D01*
X66225000Y-9355000D02*
X64615000Y-9355000D01*
%TO.C,J3*%
X-3220000Y-20980000D02*
X-3220000Y-46500000D01*
X-3220000Y-20980000D02*
X5410000Y-20980000D01*
X-3220000Y-21100000D02*
X5410000Y-21100000D01*
X-3220000Y-21218095D02*
X5410000Y-21218095D01*
X-3220000Y-21336190D02*
X5410000Y-21336190D01*
X-3220000Y-21454285D02*
X5410000Y-21454285D01*
X-3220000Y-21572380D02*
X5410000Y-21572380D01*
X-3220000Y-21690475D02*
X5410000Y-21690475D01*
X-3220000Y-21808570D02*
X5410000Y-21808570D01*
X-3220000Y-21926665D02*
X5410000Y-21926665D01*
X-3220000Y-22044760D02*
X5410000Y-22044760D01*
X-3220000Y-22162855D02*
X5410000Y-22162855D01*
X-3220000Y-22280950D02*
X5410000Y-22280950D01*
X-3220000Y-22399045D02*
X5410000Y-22399045D01*
X-3220000Y-22517140D02*
X5410000Y-22517140D01*
X-3220000Y-22635235D02*
X5410000Y-22635235D01*
X-3220000Y-22753330D02*
X5410000Y-22753330D01*
X-3220000Y-22871425D02*
X5410000Y-22871425D01*
X-3220000Y-22989520D02*
X5410000Y-22989520D01*
X-3220000Y-23107615D02*
X5410000Y-23107615D01*
X-3220000Y-23225710D02*
X5410000Y-23225710D01*
X-3220000Y-23343805D02*
X5410000Y-23343805D01*
X-3220000Y-23461900D02*
X5410000Y-23461900D01*
X-3220000Y-23580000D02*
X5410000Y-23580000D01*
X-3220000Y-26120000D02*
X5410000Y-26120000D01*
X-3220000Y-28660000D02*
X5410000Y-28660000D01*
X-3220000Y-31200000D02*
X5410000Y-31200000D01*
X-3220000Y-33740000D02*
X5410000Y-33740000D01*
X-3220000Y-36280000D02*
X5410000Y-36280000D01*
X-3220000Y-38820000D02*
X5410000Y-38820000D01*
X-3220000Y-41360000D02*
X5410000Y-41360000D01*
X-3220000Y-43900000D02*
X5410000Y-43900000D01*
X-3220000Y-46500000D02*
X5410000Y-46500000D01*
D12*
X-3160000Y-21040000D02*
X4380000Y-21040000D01*
X-3160000Y-46440000D02*
X-3160000Y-21040000D01*
X4380000Y-21040000D02*
X5350000Y-22010000D01*
X5350000Y-22010000D02*
X5350000Y-46440000D01*
X5350000Y-22610000D02*
X9410000Y-22610000D01*
X5350000Y-25150000D02*
X9410000Y-25150000D01*
X5350000Y-27690000D02*
X9410000Y-27690000D01*
X5350000Y-30230000D02*
X9410000Y-30230000D01*
X5350000Y-32770000D02*
X9410000Y-32770000D01*
X5350000Y-35310000D02*
X9410000Y-35310000D01*
X5350000Y-37850000D02*
X9410000Y-37850000D01*
X5350000Y-40390000D02*
X9410000Y-40390000D01*
X5350000Y-42930000D02*
X9410000Y-42930000D01*
X5350000Y-45470000D02*
X9410000Y-45470000D01*
X5350000Y-46440000D02*
X-3160000Y-46440000D01*
D11*
X5410000Y-20980000D02*
X5410000Y-46500000D01*
X5410000Y-21950000D02*
X5820000Y-21950000D01*
X5410000Y-22670000D02*
X5820000Y-22670000D01*
X5410000Y-24490000D02*
X5820000Y-24490000D01*
X5410000Y-25210000D02*
X5820000Y-25210000D01*
X5410000Y-27030000D02*
X5820000Y-27030000D01*
X5410000Y-27750000D02*
X5820000Y-27750000D01*
X5410000Y-29570000D02*
X5820000Y-29570000D01*
X5410000Y-30290000D02*
X5820000Y-30290000D01*
X5410000Y-32110000D02*
X5820000Y-32110000D01*
X5410000Y-32830000D02*
X5820000Y-32830000D01*
X5410000Y-34650000D02*
X5820000Y-34650000D01*
X5410000Y-35370000D02*
X5820000Y-35370000D01*
X5410000Y-37190000D02*
X5820000Y-37190000D01*
X5410000Y-37910000D02*
X5820000Y-37910000D01*
X5410000Y-39730000D02*
X5820000Y-39730000D01*
X5410000Y-40450000D02*
X5820000Y-40450000D01*
X5410000Y-42270000D02*
X5820000Y-42270000D01*
X5410000Y-42990000D02*
X5820000Y-42990000D01*
X5410000Y-44810000D02*
X5820000Y-44810000D01*
X5410000Y-45530000D02*
X5820000Y-45530000D01*
X7920000Y-21950000D02*
X8300000Y-21950000D01*
X7920000Y-22670000D02*
X8300000Y-22670000D01*
X7920000Y-24490000D02*
X8360000Y-24490000D01*
X7920000Y-25210000D02*
X8360000Y-25210000D01*
X7920000Y-27030000D02*
X8360000Y-27030000D01*
X7920000Y-27750000D02*
X8360000Y-27750000D01*
X7920000Y-29570000D02*
X8360000Y-29570000D01*
X7920000Y-30290000D02*
X8360000Y-30290000D01*
X7920000Y-32110000D02*
X8360000Y-32110000D01*
X7920000Y-32830000D02*
X8360000Y-32830000D01*
X7920000Y-34650000D02*
X8360000Y-34650000D01*
X7920000Y-35370000D02*
X8360000Y-35370000D01*
X7920000Y-37190000D02*
X8360000Y-37190000D01*
X7920000Y-37910000D02*
X8360000Y-37910000D01*
X7920000Y-39730000D02*
X8360000Y-39730000D01*
X7920000Y-40450000D02*
X8360000Y-40450000D01*
X7920000Y-42270000D02*
X8360000Y-42270000D01*
X7920000Y-42990000D02*
X8360000Y-42990000D01*
X7920000Y-44810000D02*
X8360000Y-44810000D01*
X7920000Y-45530000D02*
X8360000Y-45530000D01*
X9410000Y-20980000D02*
X10520000Y-20980000D01*
D12*
X9410000Y-22010000D02*
X5350000Y-22010000D01*
X9410000Y-22610000D02*
X9410000Y-22010000D01*
X9410000Y-24550000D02*
X5350000Y-24550000D01*
X9410000Y-25150000D02*
X9410000Y-24550000D01*
X9410000Y-27090000D02*
X5350000Y-27090000D01*
X9410000Y-27690000D02*
X9410000Y-27090000D01*
X9410000Y-29630000D02*
X5350000Y-29630000D01*
X9410000Y-30230000D02*
X9410000Y-29630000D01*
X9410000Y-32170000D02*
X5350000Y-32170000D01*
X9410000Y-32770000D02*
X9410000Y-32170000D01*
X9410000Y-34710000D02*
X5350000Y-34710000D01*
X9410000Y-35310000D02*
X9410000Y-34710000D01*
X9410000Y-37250000D02*
X5350000Y-37250000D01*
X9410000Y-37850000D02*
X9410000Y-37250000D01*
X9410000Y-39790000D02*
X5350000Y-39790000D01*
X9410000Y-40390000D02*
X9410000Y-39790000D01*
X9410000Y-42330000D02*
X5350000Y-42330000D01*
X9410000Y-42930000D02*
X9410000Y-42330000D01*
X9410000Y-44870000D02*
X5350000Y-44870000D01*
X9410000Y-45470000D02*
X9410000Y-44870000D01*
D11*
X10520000Y-20980000D02*
X10520000Y-22310000D01*
%TO.C,J1*%
X57960000Y-52370000D02*
X56630000Y-52370000D01*
X57960000Y-53480000D02*
X57960000Y-52370000D01*
D12*
X56930000Y-53480000D02*
X56930000Y-57540000D01*
X56330000Y-53480000D02*
X56930000Y-53480000D01*
X54390000Y-53480000D02*
X54390000Y-57540000D01*
X53790000Y-53480000D02*
X54390000Y-53480000D01*
X51850000Y-53480000D02*
X51850000Y-57540000D01*
X51250000Y-53480000D02*
X51850000Y-53480000D01*
X49310000Y-53480000D02*
X49310000Y-57540000D01*
X48710000Y-53480000D02*
X49310000Y-53480000D01*
X46770000Y-53480000D02*
X46770000Y-57540000D01*
X46170000Y-53480000D02*
X46770000Y-53480000D01*
X44230000Y-53480000D02*
X44230000Y-57540000D01*
X43630000Y-53480000D02*
X44230000Y-53480000D01*
X41690000Y-53480000D02*
X41690000Y-57540000D01*
X41090000Y-53480000D02*
X41690000Y-53480000D01*
X39150000Y-53480000D02*
X39150000Y-57540000D01*
X38550000Y-53480000D02*
X39150000Y-53480000D01*
X36610000Y-53480000D02*
X36610000Y-57540000D01*
X36010000Y-53480000D02*
X36610000Y-53480000D01*
X34070000Y-53480000D02*
X34070000Y-57540000D01*
X33470000Y-53480000D02*
X34070000Y-53480000D01*
X31530000Y-53480000D02*
X31530000Y-57540000D01*
X30930000Y-53480000D02*
X31530000Y-53480000D01*
X28990000Y-53480000D02*
X28990000Y-57540000D01*
X28390000Y-53480000D02*
X28990000Y-53480000D01*
X26450000Y-53480000D02*
X26450000Y-57540000D01*
X25850000Y-53480000D02*
X26450000Y-53480000D01*
X23910000Y-53480000D02*
X23910000Y-57540000D01*
X23310000Y-53480000D02*
X23910000Y-53480000D01*
X21370000Y-53480000D02*
X21370000Y-57540000D01*
X20770000Y-53480000D02*
X21370000Y-53480000D01*
X18830000Y-53480000D02*
X18830000Y-57540000D01*
X18230000Y-53480000D02*
X18830000Y-53480000D01*
X16290000Y-53480000D02*
X16290000Y-57540000D01*
X15690000Y-53480000D02*
X16290000Y-53480000D01*
X13750000Y-53480000D02*
X13750000Y-57540000D01*
X13150000Y-53480000D02*
X13750000Y-53480000D01*
X11210000Y-53480000D02*
X11210000Y-57540000D01*
X10610000Y-53480000D02*
X11210000Y-53480000D01*
X8670000Y-53480000D02*
X8670000Y-57540000D01*
X8070000Y-53480000D02*
X8670000Y-53480000D01*
D11*
X56990000Y-54970000D02*
X56990000Y-54590000D01*
X56270000Y-54970000D02*
X56270000Y-54590000D01*
X54450000Y-54970000D02*
X54450000Y-54530000D01*
X53730000Y-54970000D02*
X53730000Y-54530000D01*
X51910000Y-54970000D02*
X51910000Y-54530000D01*
X51190000Y-54970000D02*
X51190000Y-54530000D01*
X49370000Y-54970000D02*
X49370000Y-54530000D01*
X48650000Y-54970000D02*
X48650000Y-54530000D01*
X46830000Y-54970000D02*
X46830000Y-54530000D01*
X46110000Y-54970000D02*
X46110000Y-54530000D01*
X44290000Y-54970000D02*
X44290000Y-54530000D01*
X43570000Y-54970000D02*
X43570000Y-54530000D01*
X41750000Y-54970000D02*
X41750000Y-54530000D01*
X41030000Y-54970000D02*
X41030000Y-54530000D01*
X39210000Y-54970000D02*
X39210000Y-54530000D01*
X38490000Y-54970000D02*
X38490000Y-54530000D01*
X36670000Y-54970000D02*
X36670000Y-54530000D01*
X35950000Y-54970000D02*
X35950000Y-54530000D01*
X34130000Y-54970000D02*
X34130000Y-54530000D01*
X33410000Y-54970000D02*
X33410000Y-54530000D01*
X31590000Y-54970000D02*
X31590000Y-54530000D01*
X30870000Y-54970000D02*
X30870000Y-54530000D01*
X29050000Y-54970000D02*
X29050000Y-54530000D01*
X28330000Y-54970000D02*
X28330000Y-54530000D01*
X26510000Y-54970000D02*
X26510000Y-54530000D01*
X25790000Y-54970000D02*
X25790000Y-54530000D01*
X23970000Y-54970000D02*
X23970000Y-54530000D01*
X23250000Y-54970000D02*
X23250000Y-54530000D01*
X21430000Y-54970000D02*
X21430000Y-54530000D01*
X20710000Y-54970000D02*
X20710000Y-54530000D01*
X18890000Y-54970000D02*
X18890000Y-54530000D01*
X18170000Y-54970000D02*
X18170000Y-54530000D01*
X16350000Y-54970000D02*
X16350000Y-54530000D01*
X15630000Y-54970000D02*
X15630000Y-54530000D01*
X13810000Y-54970000D02*
X13810000Y-54530000D01*
X13090000Y-54970000D02*
X13090000Y-54530000D01*
X11270000Y-54970000D02*
X11270000Y-54530000D01*
X10550000Y-54970000D02*
X10550000Y-54530000D01*
X8730000Y-54970000D02*
X8730000Y-54530000D01*
X8010000Y-54970000D02*
X8010000Y-54530000D01*
X57960000Y-57480000D02*
X7040000Y-57480000D01*
X56990000Y-57480000D02*
X56990000Y-57070000D01*
X56270000Y-57480000D02*
X56270000Y-57070000D01*
X54450000Y-57480000D02*
X54450000Y-57070000D01*
X53730000Y-57480000D02*
X53730000Y-57070000D01*
X51910000Y-57480000D02*
X51910000Y-57070000D01*
X51190000Y-57480000D02*
X51190000Y-57070000D01*
X49370000Y-57480000D02*
X49370000Y-57070000D01*
X48650000Y-57480000D02*
X48650000Y-57070000D01*
X46830000Y-57480000D02*
X46830000Y-57070000D01*
X46110000Y-57480000D02*
X46110000Y-57070000D01*
X44290000Y-57480000D02*
X44290000Y-57070000D01*
X43570000Y-57480000D02*
X43570000Y-57070000D01*
X41750000Y-57480000D02*
X41750000Y-57070000D01*
X41030000Y-57480000D02*
X41030000Y-57070000D01*
X39210000Y-57480000D02*
X39210000Y-57070000D01*
X38490000Y-57480000D02*
X38490000Y-57070000D01*
X36670000Y-57480000D02*
X36670000Y-57070000D01*
X35950000Y-57480000D02*
X35950000Y-57070000D01*
X34130000Y-57480000D02*
X34130000Y-57070000D01*
X33410000Y-57480000D02*
X33410000Y-57070000D01*
X31590000Y-57480000D02*
X31590000Y-57070000D01*
X30870000Y-57480000D02*
X30870000Y-57070000D01*
X29050000Y-57480000D02*
X29050000Y-57070000D01*
X28330000Y-57480000D02*
X28330000Y-57070000D01*
X26510000Y-57480000D02*
X26510000Y-57070000D01*
X25790000Y-57480000D02*
X25790000Y-57070000D01*
X23970000Y-57480000D02*
X23970000Y-57070000D01*
X23250000Y-57480000D02*
X23250000Y-57070000D01*
X21430000Y-57480000D02*
X21430000Y-57070000D01*
X20710000Y-57480000D02*
X20710000Y-57070000D01*
X18890000Y-57480000D02*
X18890000Y-57070000D01*
X18170000Y-57480000D02*
X18170000Y-57070000D01*
X16350000Y-57480000D02*
X16350000Y-57070000D01*
X15630000Y-57480000D02*
X15630000Y-57070000D01*
X13810000Y-57480000D02*
X13810000Y-57070000D01*
X13090000Y-57480000D02*
X13090000Y-57070000D01*
X11270000Y-57480000D02*
X11270000Y-57070000D01*
X10550000Y-57480000D02*
X10550000Y-57070000D01*
X8730000Y-57480000D02*
X8730000Y-57070000D01*
X8010000Y-57480000D02*
X8010000Y-57070000D01*
D12*
X56930000Y-57540000D02*
X7100000Y-57540000D01*
X56330000Y-57540000D02*
X56330000Y-53480000D01*
X53790000Y-57540000D02*
X53790000Y-53480000D01*
X51250000Y-57540000D02*
X51250000Y-53480000D01*
X48710000Y-57540000D02*
X48710000Y-53480000D01*
X46170000Y-57540000D02*
X46170000Y-53480000D01*
X43630000Y-57540000D02*
X43630000Y-53480000D01*
X41090000Y-57540000D02*
X41090000Y-53480000D01*
X38550000Y-57540000D02*
X38550000Y-53480000D01*
X36010000Y-57540000D02*
X36010000Y-53480000D01*
X33470000Y-57540000D02*
X33470000Y-53480000D01*
X30930000Y-57540000D02*
X30930000Y-53480000D01*
X28390000Y-57540000D02*
X28390000Y-53480000D01*
X25850000Y-57540000D02*
X25850000Y-53480000D01*
X23310000Y-57540000D02*
X23310000Y-53480000D01*
X20770000Y-57540000D02*
X20770000Y-53480000D01*
X18230000Y-57540000D02*
X18230000Y-53480000D01*
X15690000Y-57540000D02*
X15690000Y-53480000D01*
X13150000Y-57540000D02*
X13150000Y-53480000D01*
X10610000Y-57540000D02*
X10610000Y-53480000D01*
X8070000Y-57540000D02*
X8070000Y-53480000D01*
D11*
X57960000Y-65050000D02*
X57960000Y-57480000D01*
X57960000Y-65050000D02*
X7040000Y-65050000D01*
X55360000Y-65050000D02*
X55360000Y-57480000D01*
X52820000Y-65050000D02*
X52820000Y-57480000D01*
X50280000Y-65050000D02*
X50280000Y-57480000D01*
X47740000Y-65050000D02*
X47740000Y-57480000D01*
X45200000Y-65050000D02*
X45200000Y-57480000D01*
X42660000Y-65050000D02*
X42660000Y-57480000D01*
X40120000Y-65050000D02*
X40120000Y-57480000D01*
X37580000Y-65050000D02*
X37580000Y-57480000D01*
X35040000Y-65050000D02*
X35040000Y-57480000D01*
X32500000Y-65050000D02*
X32500000Y-57480000D01*
X29960000Y-65050000D02*
X29960000Y-57480000D01*
X27420000Y-65050000D02*
X27420000Y-57480000D01*
X24880000Y-65050000D02*
X24880000Y-57480000D01*
X22340000Y-65050000D02*
X22340000Y-57480000D01*
X19800000Y-65050000D02*
X19800000Y-57480000D01*
X17260000Y-65050000D02*
X17260000Y-57480000D01*
X14720000Y-65050000D02*
X14720000Y-57480000D01*
X12180000Y-65050000D02*
X12180000Y-57480000D01*
X9640000Y-65050000D02*
X9640000Y-57480000D01*
D12*
X7100000Y-65050000D02*
X57900000Y-65050000D01*
D11*
X7040000Y-65050000D02*
X7040000Y-57480000D01*
D13*
%TO.C,U1*%
X32300000Y-16850000D02*
X33750000Y-16850000D01*
X32300000Y-25150000D02*
X32300000Y-16850000D01*
X33750000Y-15750000D02*
X34850000Y-15750000D01*
X33750000Y-16850000D02*
X33750000Y-15750000D01*
X33750000Y-25150000D02*
X32300000Y-25150000D01*
X33750000Y-26250000D02*
X33750000Y-25150000D01*
D11*
X33890000Y-15890000D02*
X34840000Y-15890000D01*
X33890000Y-16840000D02*
X33890000Y-15890000D01*
X33890000Y-26110000D02*
X33890000Y-25160000D01*
X34840000Y-26110000D02*
X33890000Y-26110000D01*
D13*
X34850000Y-14300000D02*
X43150000Y-14300000D01*
X34850000Y-15750000D02*
X34850000Y-14300000D01*
X34850000Y-26250000D02*
X33750000Y-26250000D01*
X34850000Y-27700000D02*
X34850000Y-26250000D01*
X43150000Y-14300000D02*
X43150000Y-15750000D01*
X43150000Y-15750000D02*
X44250000Y-15750000D01*
X43150000Y-26250000D02*
X43150000Y-27700000D01*
X43150000Y-27700000D02*
X34850000Y-27700000D01*
D11*
X43160000Y-15890000D02*
X44110000Y-15890000D01*
X44110000Y-15890000D02*
X44110000Y-16840000D01*
X44110000Y-25160000D02*
X44110000Y-26110000D01*
X44110000Y-26110000D02*
X43160000Y-26110000D01*
D13*
X44250000Y-15750000D02*
X44250000Y-16850000D01*
X44250000Y-16850000D02*
X45700000Y-16850000D01*
X44250000Y-25150000D02*
X44250000Y-26250000D01*
X44250000Y-26250000D02*
X43150000Y-26250000D01*
X45700000Y-16850000D02*
X45700000Y-25150000D01*
X45700000Y-25150000D02*
X44250000Y-25150000D01*
D12*
X44000000Y-26000000D02*
X34000000Y-26000000D01*
X34000000Y-17000000D01*
X35000000Y-16000000D01*
X44000000Y-16000000D01*
X44000000Y-26000000D01*
D11*
%TO.C,Q1*%
X1760000Y-17125000D02*
X1760000Y-10725000D01*
D12*
X1870000Y-17125000D02*
X1870000Y-10725000D01*
X6520000Y-10725000D02*
X6520000Y-17125000D01*
D11*
X6630000Y-10725000D02*
X6630000Y-17125000D01*
D12*
X6520000Y-17125000D02*
G75*
G02*
X1870000Y-17125000I-2325000J0D01*
G01*
D11*
X6630000Y-17125000D02*
G75*
G02*
X1760000Y-17125000I-2435000J0D01*
G01*
X1760000Y-10725000D02*
G75*
G02*
X6630000Y-10725000I2435000J0D01*
G01*
D12*
X1870000Y-10725000D02*
G75*
G02*
X6520000Y-10725000I2325000J0D01*
G01*
D11*
%TO.C,J2*%
X8435000Y-11475000D02*
X8435000Y-10205000D01*
X9705000Y-11475000D02*
X8435000Y-11475000D01*
D12*
X9385000Y-10525000D02*
X10025000Y-10525000D01*
X9385000Y-10525000D02*
X9385000Y-8705000D01*
X10025000Y-10525000D02*
X10025000Y-8705000D01*
X11925000Y-10525000D02*
X12565000Y-10525000D01*
X11925000Y-10525000D02*
X11925000Y-8705000D01*
X12565000Y-10525000D02*
X12565000Y-8705000D01*
X14465000Y-10525000D02*
X15105000Y-10525000D01*
X14465000Y-10525000D02*
X14465000Y-8705000D01*
X15105000Y-10525000D02*
X15105000Y-8705000D01*
X17005000Y-10525000D02*
X17645000Y-10525000D01*
X17005000Y-10525000D02*
X17005000Y-8705000D01*
X17645000Y-10525000D02*
X17645000Y-8705000D01*
D11*
X11815000Y-9127642D02*
X11815000Y-8815000D01*
X12675000Y-9127642D02*
X12675000Y-8815000D01*
X14355000Y-9127642D02*
X14355000Y-8815000D01*
X15215000Y-9127642D02*
X15215000Y-8815000D01*
X16895000Y-9127642D02*
X16895000Y-8815000D01*
X17755000Y-9127642D02*
X17755000Y-8815000D01*
X9275000Y-9045000D02*
X9275000Y-8815000D01*
X10135000Y-9045000D02*
X10135000Y-8815000D01*
X10975000Y-8815000D02*
X10975000Y-6055000D01*
X13515000Y-8815000D02*
X13515000Y-6055000D01*
X16055000Y-8815000D02*
X16055000Y-6055000D01*
D12*
X9070000Y-8705000D02*
X8435000Y-8070000D01*
X18595000Y-8705000D02*
X9070000Y-8705000D01*
X8435000Y-8070000D02*
X8435000Y-6165000D01*
X8435000Y-6165000D02*
X18595000Y-6165000D01*
X9385000Y-6165000D02*
X9385000Y-165000D01*
X10025000Y-6165000D02*
X10025000Y-165000D01*
X11925000Y-6165000D02*
X11925000Y-165000D01*
X12565000Y-6165000D02*
X12565000Y-165000D01*
X14465000Y-6165000D02*
X14465000Y-165000D01*
X15105000Y-6165000D02*
X15105000Y-165000D01*
X17005000Y-6165000D02*
X17005000Y-165000D01*
X17645000Y-6165000D02*
X17645000Y-165000D01*
X18595000Y-6165000D02*
X18595000Y-8705000D01*
D11*
X11815000Y-6055000D02*
X11815000Y-55000D01*
X14355000Y-6055000D02*
X14355000Y-55000D01*
X16895000Y-6055000D02*
X16895000Y-55000D01*
D12*
X9385000Y-165000D02*
X10025000Y-165000D01*
X11925000Y-165000D02*
X12565000Y-165000D01*
X14465000Y-165000D02*
X15105000Y-165000D01*
X17005000Y-165000D02*
X17645000Y-165000D01*
D11*
X11815000Y-55000D02*
X12675000Y-55000D01*
X12675000Y-55000D02*
X12675000Y-6055000D01*
X14355000Y-55000D02*
X15215000Y-55000D01*
X15215000Y-55000D02*
X15215000Y-6055000D01*
X16895000Y-55000D02*
X17755000Y-55000D01*
X17755000Y-55000D02*
X17755000Y-6055000D01*
X8325000Y-8815000D02*
X18705000Y-8815000D01*
X18705000Y-6055000D01*
X8325000Y-6055000D01*
X8325000Y-8815000D01*
X9275000Y-6055000D02*
X10135000Y-6055000D01*
X10135000Y-55000D01*
X9275000Y-55000D01*
X9275000Y-6055000D01*
G36*
X9275000Y-6055000D02*
G01*
X10135000Y-6055000D01*
X10135000Y-55000D01*
X9275000Y-55000D01*
X9275000Y-6055000D01*
G37*
%TD*%
M02*
