M48
; DRILL file {KiCad 9.0.7} date 2026-05-30T18:42:30+0200
; FORMAT={-:-/ absolute / metric / decimal}
; #@! TF.CreationDate,2026-05-30T18:42:30+02:00
; #@! TF.GenerationSoftware,Kicad,Pcbnew,9.0.7
; #@! TF.FileFunction,Plated,1,2,PTH
FMAT,2
METRIC
; #@! TA.AperFunction,Plated,PTH,ViaDrill
T1C0.600
; #@! TA.AperFunction,Plated,PTH,ComponentDrill
T2C0.800
; #@! TA.AperFunction,Plated,PTH,ComponentDrill
T3C1.000
%
G90
G05
T1
X8.99Y-13.076
X11.679Y-20.02
X12.383Y-30.464
X13.52Y-33.777
X13.579Y-20.021
X15.351Y-24.44
X15.68Y-37.116
X15.68Y-39.016
X15.843Y-16.066
X16.213Y-22.747
X16.31Y-42.925
X16.691Y-28.419
X16.799Y-20.94
X16.844Y-26.525
X17.36Y-59.07
X18.531Y-48.727
X19.366Y-40.445
X20.522Y-4.97
X21.096Y-59.771
X22.536Y-4.281
X22.781Y-9.671
X22.939Y-39.729
X23.103Y-47.945
X23.72Y-44.51
X24.151Y-46.36
X24.779Y-39.099
X25.077Y-42.953
X25.574Y-7.595
X25.99Y-59.864
X26.357Y-49.894
X26.7Y-44.76
X27.965Y-33.8
X28.138Y-49.232
X28.896Y-41.917
X29.993Y-49.64
X30.175Y-43.323
X30.217Y-11.999
X31.091Y-25.061
X31.192Y-28.807
X32.698Y-43.975
X33.97Y-37.66
X34.437Y-27.373
X34.49Y-13.18
X35.228Y-44.605
X37.56Y-2.3
X37.758Y-44.329
X38.04Y-49.43
X40.322Y-27.373
X41.2Y-48.697
X41.31Y-58.91
X41.752Y-50.515
X43.155Y-41.09
X44.295Y-50.68
X44.83Y-14.06
X45.048Y-40.927
X45.597Y-16.616
X46.19Y-28.69
X46.385Y-46.926
X46.47Y-58.88
X47.231Y-27.1
X47.9Y-38.18
X47.946Y-48.01
X49.04Y-59.52
X50.374Y-45.299
X50.421Y-49.765
X50.43Y-35.74
X51.675Y-9.905
X51.686Y-40.404
X52.091Y-38.547
X52.996Y-43.452
X53.602Y-45.979
X54.237Y-7.976
X55.728Y-60.395
X55.795Y-48.935
X56.503Y-2.93
X58.74Y-54.679
X58.957Y-45.106
X59.354Y-40.632
X59.693Y-52.054
X59.911Y-43.463
X60.402Y-20.182
X60.595Y-57.449
X60.836Y-48.728
X61.05Y-46.59
X62.078Y-56.202
X62.12Y-53.87
X62.18Y-50.072
T2
X4.195Y-11.485
X4.195Y-16.365
T3
X6.87Y-22.31
X6.87Y-24.85
X6.87Y-27.39
X6.87Y-29.93
X6.87Y-32.47
X6.87Y-35.01
X6.87Y-37.55
X6.87Y-40.09
X6.87Y-42.63
X6.87Y-45.17
X8.37Y-53.48
X8.37Y-56.02
X9.41Y-22.31
X9.41Y-24.85
X9.41Y-27.39
X9.41Y-29.93
X9.41Y-32.47
X9.41Y-35.01
X9.41Y-37.55
X9.41Y-40.09
X9.41Y-42.63
X9.41Y-45.17
X9.705Y-10.205
X10.91Y-53.48
X10.91Y-56.02
X12.245Y-10.205
X13.45Y-53.48
X13.45Y-56.02
X14.785Y-10.205
X15.99Y-53.48
X15.99Y-56.02
X17.325Y-10.205
X18.53Y-53.48
X18.53Y-56.02
X21.07Y-53.48
X21.07Y-56.02
X23.61Y-53.48
X23.61Y-56.02
X25.03Y-12.11
X25.03Y-14.65
X25.03Y-17.19
X25.03Y-19.73
X25.03Y-22.27
X25.03Y-24.81
X25.03Y-27.35
X25.03Y-29.89
X26.15Y-53.48
X26.15Y-56.02
X27.57Y-12.11
X27.57Y-14.65
X27.57Y-17.19
X27.57Y-19.73
X27.57Y-22.27
X27.57Y-24.81
X27.57Y-27.35
X27.57Y-29.89
X28.69Y-53.48
X28.69Y-56.02
X30.11Y-7.03
X30.11Y-9.57
X30.11Y-32.43
X30.11Y-34.97
X31.23Y-53.48
X31.23Y-56.02
X32.65Y-7.03
X32.65Y-9.57
X32.65Y-32.43
X32.65Y-34.97
X33.77Y-53.48
X33.77Y-56.02
X35.19Y-7.03
X35.19Y-9.57
X35.19Y-32.43
X35.19Y-34.97
X36.31Y-53.48
X36.31Y-56.02
X37.73Y-7.03
X37.73Y-9.57
X37.73Y-32.43
X37.73Y-34.97
X38.85Y-53.48
X38.85Y-56.02
X40.27Y-7.03
X40.27Y-9.57
X40.27Y-32.43
X40.27Y-34.97
X41.39Y-53.48
X41.39Y-56.02
X42.81Y-7.03
X42.81Y-9.57
X42.81Y-32.43
X42.81Y-34.97
X43.93Y-53.48
X43.93Y-56.02
X45.35Y-7.03
X45.35Y-9.57
X45.35Y-32.43
X45.35Y-34.97
X46.47Y-53.48
X46.47Y-56.02
X47.89Y-7.03
X47.89Y-9.57
X47.89Y-32.43
X47.89Y-34.97
X49.01Y-53.48
X49.01Y-56.02
X50.43Y-12.11
X50.43Y-14.65
X50.43Y-17.19
X50.43Y-19.73
X50.43Y-22.27
X50.43Y-24.81
X50.43Y-27.35
X50.43Y-29.89
X51.55Y-53.48
X51.55Y-56.02
X52.97Y-12.11
X52.97Y-14.65
X52.97Y-17.19
X52.97Y-19.73
X52.97Y-22.27
X52.97Y-24.81
X52.97Y-27.35
X52.97Y-29.89
X54.09Y-53.48
X54.09Y-56.02
X56.63Y-53.48
X56.63Y-56.02
M30
