%TF.GenerationSoftware,KiCad,Pcbnew,9.0.7*%
%TF.CreationDate,2026-07-08T08:39:52+02:00*%
%TF.ProjectId,BarePi_SumoPad,42617265-5069-45f5-9375-6d6f5061642e,rev?*%
%TF.SameCoordinates,Original*%
%TF.FileFunction,Legend,Top*%
%TF.FilePolarity,Positive*%
%FSLAX46Y46*%
G04 Gerber Fmt 4.6, Leading zero omitted, Abs format (unit mm)*
G04 Created by KiCad (PCBNEW 9.0.7) date 2026-07-08 08:39:52*
%MOMM*%
%LPD*%
G01*
G04 APERTURE LIST*
%ADD10C,0.150000*%
%ADD11C,0.120000*%
G04 APERTURE END LIST*
D10*
X19860714Y-33147295D02*
X19594047Y-32766342D01*
X19403571Y-33147295D02*
X19403571Y-32347295D01*
X19403571Y-32347295D02*
X19708333Y-32347295D01*
X19708333Y-32347295D02*
X19784523Y-32385390D01*
X19784523Y-32385390D02*
X19822618Y-32423485D01*
X19822618Y-32423485D02*
X19860714Y-32499676D01*
X19860714Y-32499676D02*
X19860714Y-32613961D01*
X19860714Y-32613961D02*
X19822618Y-32690152D01*
X19822618Y-32690152D02*
X19784523Y-32728247D01*
X19784523Y-32728247D02*
X19708333Y-32766342D01*
X19708333Y-32766342D02*
X19403571Y-32766342D01*
X20622618Y-33147295D02*
X20165475Y-33147295D01*
X20394047Y-33147295D02*
X20394047Y-32347295D01*
X20394047Y-32347295D02*
X20317856Y-32461580D01*
X20317856Y-32461580D02*
X20241666Y-32537771D01*
X20241666Y-32537771D02*
X20165475Y-32575866D01*
X20927380Y-32423485D02*
X20965476Y-32385390D01*
X20965476Y-32385390D02*
X21041666Y-32347295D01*
X21041666Y-32347295D02*
X21232142Y-32347295D01*
X21232142Y-32347295D02*
X21308333Y-32385390D01*
X21308333Y-32385390D02*
X21346428Y-32423485D01*
X21346428Y-32423485D02*
X21384523Y-32499676D01*
X21384523Y-32499676D02*
X21384523Y-32575866D01*
X21384523Y-32575866D02*
X21346428Y-32690152D01*
X21346428Y-32690152D02*
X20889285Y-33147295D01*
X20889285Y-33147295D02*
X21384523Y-33147295D01*
X14210714Y-44877295D02*
X13944047Y-44496342D01*
X13753571Y-44877295D02*
X13753571Y-44077295D01*
X13753571Y-44077295D02*
X14058333Y-44077295D01*
X14058333Y-44077295D02*
X14134523Y-44115390D01*
X14134523Y-44115390D02*
X14172618Y-44153485D01*
X14172618Y-44153485D02*
X14210714Y-44229676D01*
X14210714Y-44229676D02*
X14210714Y-44343961D01*
X14210714Y-44343961D02*
X14172618Y-44420152D01*
X14172618Y-44420152D02*
X14134523Y-44458247D01*
X14134523Y-44458247D02*
X14058333Y-44496342D01*
X14058333Y-44496342D02*
X13753571Y-44496342D01*
X14972618Y-44877295D02*
X14515475Y-44877295D01*
X14744047Y-44877295D02*
X14744047Y-44077295D01*
X14744047Y-44077295D02*
X14667856Y-44191580D01*
X14667856Y-44191580D02*
X14591666Y-44267771D01*
X14591666Y-44267771D02*
X14515475Y-44305866D01*
X15734523Y-44877295D02*
X15277380Y-44877295D01*
X15505952Y-44877295D02*
X15505952Y-44077295D01*
X15505952Y-44077295D02*
X15429761Y-44191580D01*
X15429761Y-44191580D02*
X15353571Y-44267771D01*
X15353571Y-44267771D02*
X15277380Y-44305866D01*
X17000714Y-34047295D02*
X16734047Y-33666342D01*
X16543571Y-34047295D02*
X16543571Y-33247295D01*
X16543571Y-33247295D02*
X16848333Y-33247295D01*
X16848333Y-33247295D02*
X16924523Y-33285390D01*
X16924523Y-33285390D02*
X16962618Y-33323485D01*
X16962618Y-33323485D02*
X17000714Y-33399676D01*
X17000714Y-33399676D02*
X17000714Y-33513961D01*
X17000714Y-33513961D02*
X16962618Y-33590152D01*
X16962618Y-33590152D02*
X16924523Y-33628247D01*
X16924523Y-33628247D02*
X16848333Y-33666342D01*
X16848333Y-33666342D02*
X16543571Y-33666342D01*
X17762618Y-34047295D02*
X17305475Y-34047295D01*
X17534047Y-34047295D02*
X17534047Y-33247295D01*
X17534047Y-33247295D02*
X17457856Y-33361580D01*
X17457856Y-33361580D02*
X17381666Y-33437771D01*
X17381666Y-33437771D02*
X17305475Y-33475866D01*
X18257857Y-33247295D02*
X18334047Y-33247295D01*
X18334047Y-33247295D02*
X18410238Y-33285390D01*
X18410238Y-33285390D02*
X18448333Y-33323485D01*
X18448333Y-33323485D02*
X18486428Y-33399676D01*
X18486428Y-33399676D02*
X18524523Y-33552057D01*
X18524523Y-33552057D02*
X18524523Y-33742533D01*
X18524523Y-33742533D02*
X18486428Y-33894914D01*
X18486428Y-33894914D02*
X18448333Y-33971104D01*
X18448333Y-33971104D02*
X18410238Y-34009200D01*
X18410238Y-34009200D02*
X18334047Y-34047295D01*
X18334047Y-34047295D02*
X18257857Y-34047295D01*
X18257857Y-34047295D02*
X18181666Y-34009200D01*
X18181666Y-34009200D02*
X18143571Y-33971104D01*
X18143571Y-33971104D02*
X18105476Y-33894914D01*
X18105476Y-33894914D02*
X18067380Y-33742533D01*
X18067380Y-33742533D02*
X18067380Y-33552057D01*
X18067380Y-33552057D02*
X18105476Y-33399676D01*
X18105476Y-33399676D02*
X18143571Y-33323485D01*
X18143571Y-33323485D02*
X18181666Y-33285390D01*
X18181666Y-33285390D02*
X18257857Y-33247295D01*
X14861667Y-40787295D02*
X14595000Y-40406342D01*
X14404524Y-40787295D02*
X14404524Y-39987295D01*
X14404524Y-39987295D02*
X14709286Y-39987295D01*
X14709286Y-39987295D02*
X14785476Y-40025390D01*
X14785476Y-40025390D02*
X14823571Y-40063485D01*
X14823571Y-40063485D02*
X14861667Y-40139676D01*
X14861667Y-40139676D02*
X14861667Y-40253961D01*
X14861667Y-40253961D02*
X14823571Y-40330152D01*
X14823571Y-40330152D02*
X14785476Y-40368247D01*
X14785476Y-40368247D02*
X14709286Y-40406342D01*
X14709286Y-40406342D02*
X14404524Y-40406342D01*
X15242619Y-40787295D02*
X15395000Y-40787295D01*
X15395000Y-40787295D02*
X15471190Y-40749200D01*
X15471190Y-40749200D02*
X15509286Y-40711104D01*
X15509286Y-40711104D02*
X15585476Y-40596819D01*
X15585476Y-40596819D02*
X15623571Y-40444438D01*
X15623571Y-40444438D02*
X15623571Y-40139676D01*
X15623571Y-40139676D02*
X15585476Y-40063485D01*
X15585476Y-40063485D02*
X15547381Y-40025390D01*
X15547381Y-40025390D02*
X15471190Y-39987295D01*
X15471190Y-39987295D02*
X15318809Y-39987295D01*
X15318809Y-39987295D02*
X15242619Y-40025390D01*
X15242619Y-40025390D02*
X15204524Y-40063485D01*
X15204524Y-40063485D02*
X15166428Y-40139676D01*
X15166428Y-40139676D02*
X15166428Y-40330152D01*
X15166428Y-40330152D02*
X15204524Y-40406342D01*
X15204524Y-40406342D02*
X15242619Y-40444438D01*
X15242619Y-40444438D02*
X15318809Y-40482533D01*
X15318809Y-40482533D02*
X15471190Y-40482533D01*
X15471190Y-40482533D02*
X15547381Y-40444438D01*
X15547381Y-40444438D02*
X15585476Y-40406342D01*
X15585476Y-40406342D02*
X15623571Y-40330152D01*
X1215833Y-19352295D02*
X1215833Y-19923723D01*
X1215833Y-19923723D02*
X1177738Y-20038009D01*
X1177738Y-20038009D02*
X1101547Y-20114200D01*
X1101547Y-20114200D02*
X987262Y-20152295D01*
X987262Y-20152295D02*
X911071Y-20152295D01*
X1520595Y-19352295D02*
X2015833Y-19352295D01*
X2015833Y-19352295D02*
X1749167Y-19657057D01*
X1749167Y-19657057D02*
X1863452Y-19657057D01*
X1863452Y-19657057D02*
X1939643Y-19695152D01*
X1939643Y-19695152D02*
X1977738Y-19733247D01*
X1977738Y-19733247D02*
X2015833Y-19809438D01*
X2015833Y-19809438D02*
X2015833Y-19999914D01*
X2015833Y-19999914D02*
X1977738Y-20076104D01*
X1977738Y-20076104D02*
X1939643Y-20114200D01*
X1939643Y-20114200D02*
X1863452Y-20152295D01*
X1863452Y-20152295D02*
X1634881Y-20152295D01*
X1634881Y-20152295D02*
X1558690Y-20114200D01*
X1558690Y-20114200D02*
X1520595Y-20076104D01*
X5303333Y-52172295D02*
X5303333Y-52743723D01*
X5303333Y-52743723D02*
X5265238Y-52858009D01*
X5265238Y-52858009D02*
X5189047Y-52934200D01*
X5189047Y-52934200D02*
X5074762Y-52972295D01*
X5074762Y-52972295D02*
X4998571Y-52972295D01*
X6103333Y-52972295D02*
X5646190Y-52972295D01*
X5874762Y-52972295D02*
X5874762Y-52172295D01*
X5874762Y-52172295D02*
X5798571Y-52286580D01*
X5798571Y-52286580D02*
X5722381Y-52362771D01*
X5722381Y-52362771D02*
X5646190Y-52400866D01*
X6558207Y-56369295D02*
X6101064Y-56369295D01*
X6329636Y-56369295D02*
X6329636Y-55569295D01*
X6329636Y-55569295D02*
X6253445Y-55683580D01*
X6253445Y-55683580D02*
X6177255Y-55759771D01*
X6177255Y-55759771D02*
X6101064Y-55797866D01*
X27690476Y-37532295D02*
X27690476Y-38179914D01*
X27690476Y-38179914D02*
X27728571Y-38256104D01*
X27728571Y-38256104D02*
X27766666Y-38294200D01*
X27766666Y-38294200D02*
X27842857Y-38332295D01*
X27842857Y-38332295D02*
X27995238Y-38332295D01*
X27995238Y-38332295D02*
X28071428Y-38294200D01*
X28071428Y-38294200D02*
X28109523Y-38256104D01*
X28109523Y-38256104D02*
X28147619Y-38179914D01*
X28147619Y-38179914D02*
X28147619Y-37532295D01*
X28947618Y-38332295D02*
X28490475Y-38332295D01*
X28719047Y-38332295D02*
X28719047Y-37532295D01*
X28719047Y-37532295D02*
X28642856Y-37646580D01*
X28642856Y-37646580D02*
X28566666Y-37722771D01*
X28566666Y-37722771D02*
X28490475Y-37760866D01*
X62118333Y-19227295D02*
X62118333Y-19798723D01*
X62118333Y-19798723D02*
X62080238Y-19913009D01*
X62080238Y-19913009D02*
X62004047Y-19989200D01*
X62004047Y-19989200D02*
X61889762Y-20027295D01*
X61889762Y-20027295D02*
X61813571Y-20027295D01*
X62842143Y-19493961D02*
X62842143Y-20027295D01*
X62651667Y-19189200D02*
X62461190Y-19760628D01*
X62461190Y-19760628D02*
X62956429Y-19760628D01*
X7033809Y-19998485D02*
X6957619Y-19960390D01*
X6957619Y-19960390D02*
X6881428Y-19884200D01*
X6881428Y-19884200D02*
X6767142Y-19769914D01*
X6767142Y-19769914D02*
X6690952Y-19731819D01*
X6690952Y-19731819D02*
X6614761Y-19731819D01*
X6652857Y-19922295D02*
X6576666Y-19884200D01*
X6576666Y-19884200D02*
X6500476Y-19808009D01*
X6500476Y-19808009D02*
X6462380Y-19655628D01*
X6462380Y-19655628D02*
X6462380Y-19388961D01*
X6462380Y-19388961D02*
X6500476Y-19236580D01*
X6500476Y-19236580D02*
X6576666Y-19160390D01*
X6576666Y-19160390D02*
X6652857Y-19122295D01*
X6652857Y-19122295D02*
X6805238Y-19122295D01*
X6805238Y-19122295D02*
X6881428Y-19160390D01*
X6881428Y-19160390D02*
X6957619Y-19236580D01*
X6957619Y-19236580D02*
X6995714Y-19388961D01*
X6995714Y-19388961D02*
X6995714Y-19655628D01*
X6995714Y-19655628D02*
X6957619Y-19808009D01*
X6957619Y-19808009D02*
X6881428Y-19884200D01*
X6881428Y-19884200D02*
X6805238Y-19922295D01*
X6805238Y-19922295D02*
X6652857Y-19922295D01*
X7757618Y-19922295D02*
X7300475Y-19922295D01*
X7529047Y-19922295D02*
X7529047Y-19122295D01*
X7529047Y-19122295D02*
X7452856Y-19236580D01*
X7452856Y-19236580D02*
X7376666Y-19312771D01*
X7376666Y-19312771D02*
X7300475Y-19350866D01*
X19953333Y-10742295D02*
X19953333Y-11313723D01*
X19953333Y-11313723D02*
X19915238Y-11428009D01*
X19915238Y-11428009D02*
X19839047Y-11504200D01*
X19839047Y-11504200D02*
X19724762Y-11542295D01*
X19724762Y-11542295D02*
X19648571Y-11542295D01*
X20296190Y-10818485D02*
X20334286Y-10780390D01*
X20334286Y-10780390D02*
X20410476Y-10742295D01*
X20410476Y-10742295D02*
X20600952Y-10742295D01*
X20600952Y-10742295D02*
X20677143Y-10780390D01*
X20677143Y-10780390D02*
X20715238Y-10818485D01*
X20715238Y-10818485D02*
X20753333Y-10894676D01*
X20753333Y-10894676D02*
X20753333Y-10970866D01*
X20753333Y-10970866D02*
X20715238Y-11085152D01*
X20715238Y-11085152D02*
X20258095Y-11542295D01*
X20258095Y-11542295D02*
X20753333Y-11542295D01*
D11*
%TO.C,R12*%
X21455000Y-35097936D02*
X21455000Y-36552064D01*
X19635000Y-35097936D02*
X19635000Y-36552064D01*
%TO.C,R11*%
X14277936Y-45495000D02*
X15732064Y-45495000D01*
X14277936Y-47315000D02*
X15732064Y-47315000D01*
%TO.C,R10*%
X18845000Y-36327936D02*
X18845000Y-37782064D01*
X17025000Y-36327936D02*
X17025000Y-37782064D01*
%TO.C,R9*%
X14177936Y-41195000D02*
X15632064Y-41195000D01*
X14177936Y-43015000D02*
X15632064Y-43015000D01*
%TO.C,U1*%
X27700000Y-10490000D02*
X27360000Y-10020000D01*
X28040000Y-10020000D01*
X27700000Y-10490000D01*
G36*
X27700000Y-10490000D02*
G01*
X27360000Y-10020000D01*
X28040000Y-10020000D01*
X27700000Y-10490000D01*
G37*
%TD*%
M02*
