M48
; DRILL file {KiCad 9.0.7} date 2026-05-25T17:30:29+0200
; FORMAT={-:-/ absolute / metric / decimal}
; #@! TF.CreationDate,2026-05-25T17:30:29+02:00
; #@! TF.GenerationSoftware,Kicad,Pcbnew,9.0.7
; #@! TF.FileFunction,Plated,1,2,PTH
FMAT,2
METRIC
; #@! TA.AperFunction,Plated,PTH,ViaDrill
T1C0.600
; #@! TA.AperFunction,Plated,PTH,ComponentDrill
T2C1.000
; #@! TA.AperFunction,Plated,PTH,ComponentDrill
T3C1.100
%
G90
G05
T1
X12.564Y-9.845
X15.69Y-10.71
X16.559Y-16.779
X18.182Y-9.878
X34.577Y-13.135
X36.21Y-17.555
X56.629Y-12.64
X57.45Y-10.519
X59.518Y-17.77
X60.956Y-16.528
T2
X8.37Y-4.23
X8.37Y-6.77
X8.37Y-94.43
X8.37Y-96.97
X10.25Y-11.92
X10.25Y-14.46
X10.25Y-17.0
X10.91Y-4.23
X10.91Y-6.77
X10.91Y-94.43
X10.91Y-96.97
X13.45Y-4.23
X13.45Y-6.77
X13.45Y-94.43
X13.45Y-96.97
X15.99Y-4.23
X15.99Y-6.77
X15.99Y-94.43
X15.99Y-96.97
X18.53Y-4.23
X18.53Y-6.77
X18.53Y-94.43
X18.53Y-96.97
X21.07Y-4.23
X21.07Y-6.77
X21.07Y-94.43
X21.07Y-96.97
X23.61Y-4.23
X23.61Y-6.77
X23.61Y-94.43
X23.61Y-96.97
X26.15Y-4.23
X26.15Y-6.77
X26.15Y-94.43
X26.15Y-96.97
X28.69Y-4.23
X28.69Y-6.77
X28.69Y-94.43
X28.69Y-96.97
X31.23Y-4.23
X31.23Y-6.77
X31.23Y-94.43
X31.23Y-96.97
X33.77Y-4.23
X33.77Y-6.77
X33.77Y-94.43
X33.77Y-96.97
X36.31Y-4.23
X36.31Y-6.77
X36.31Y-94.43
X36.31Y-96.97
X38.85Y-4.23
X38.85Y-6.77
X38.85Y-94.43
X38.85Y-96.97
X41.39Y-4.23
X41.39Y-6.77
X41.39Y-94.43
X41.39Y-96.97
X43.93Y-4.23
X43.93Y-6.77
X43.93Y-94.43
X43.93Y-96.97
X46.47Y-4.23
X46.47Y-6.77
X46.47Y-94.43
X46.47Y-96.97
X49.01Y-4.23
X49.01Y-6.77
X49.01Y-94.43
X49.01Y-96.97
X51.55Y-4.23
X51.55Y-6.77
X51.55Y-94.43
X51.55Y-96.97
X54.09Y-4.23
X54.09Y-6.77
X54.09Y-94.43
X54.09Y-96.97
X56.63Y-4.23
X56.63Y-6.77
X56.63Y-94.43
X56.63Y-96.97
T3
X5.25Y-20.75
X5.25Y-25.25
X5.25Y-28.75
X5.25Y-33.25
X5.25Y-36.75
X5.25Y-41.25
X5.25Y-44.75
X5.25Y-49.25
X5.25Y-52.75
X5.25Y-57.25
X5.25Y-60.75
X5.25Y-65.25
X5.25Y-68.75
X5.25Y-73.25
X5.25Y-76.75
X5.25Y-81.25
X5.25Y-84.75
X5.25Y-89.25
X11.75Y-20.75
X11.75Y-25.25
X11.75Y-28.75
X11.75Y-33.25
X11.75Y-36.75
X11.75Y-41.25
X11.75Y-44.75
X11.75Y-49.25
X11.75Y-52.75
X11.75Y-57.25
X11.75Y-60.75
X11.75Y-65.25
X11.75Y-68.75
X11.75Y-73.25
X11.75Y-76.75
X11.75Y-81.25
X11.75Y-84.75
X11.75Y-89.25
X17.25Y-20.75
X17.25Y-25.25
X17.25Y-28.75
X17.25Y-33.25
X17.25Y-36.75
X17.25Y-41.25
X17.25Y-44.75
X17.25Y-49.25
X17.25Y-52.75
X17.25Y-57.25
X17.25Y-60.75
X17.25Y-65.25
X17.25Y-68.75
X17.25Y-73.25
X17.25Y-76.75
X17.25Y-81.25
X17.25Y-84.75
X17.25Y-89.25
X23.75Y-20.75
X23.75Y-25.25
X23.75Y-28.75
X23.75Y-33.25
X23.75Y-36.75
X23.75Y-41.25
X23.75Y-44.75
X23.75Y-49.25
X23.75Y-52.75
X23.75Y-57.25
X23.75Y-60.75
X23.75Y-65.25
X23.75Y-68.75
X23.75Y-73.25
X23.75Y-76.75
X23.75Y-81.25
X23.75Y-84.75
X23.75Y-89.25
X29.25Y-20.75
X29.25Y-25.25
X29.25Y-28.75
X29.25Y-33.25
X29.25Y-36.75
X29.25Y-41.25
X29.25Y-44.75
X29.25Y-49.25
X29.25Y-52.75
X29.25Y-57.25
X29.25Y-60.75
X29.25Y-65.25
X29.25Y-68.75
X29.25Y-73.25
X29.25Y-76.75
X29.25Y-81.25
X29.25Y-84.75
X29.25Y-89.25
X35.75Y-20.75
X35.75Y-25.25
X35.75Y-28.75
X35.75Y-33.25
X35.75Y-36.75
X35.75Y-41.25
X35.75Y-44.75
X35.75Y-49.25
X35.75Y-52.75
X35.75Y-57.25
X35.75Y-60.75
X35.75Y-65.25
X35.75Y-68.75
X35.75Y-73.25
X35.75Y-76.75
X35.75Y-81.25
X35.75Y-84.75
X35.75Y-89.25
X41.25Y-20.75
X41.25Y-25.25
X41.25Y-28.75
X41.25Y-33.25
X41.25Y-36.75
X41.25Y-41.25
X41.25Y-44.75
X41.25Y-49.25
X41.25Y-52.75
X41.25Y-57.25
X41.25Y-60.75
X41.25Y-65.25
X41.25Y-68.75
X41.25Y-73.25
X41.25Y-76.75
X41.25Y-81.25
X41.25Y-84.75
X41.25Y-89.25
X47.75Y-20.75
X47.75Y-25.25
X47.75Y-28.75
X47.75Y-33.25
X47.75Y-36.75
X47.75Y-41.25
X47.75Y-44.75
X47.75Y-49.25
X47.75Y-52.75
X47.75Y-57.25
X47.75Y-60.75
X47.75Y-65.25
X47.75Y-68.75
X47.75Y-73.25
X47.75Y-76.75
X47.75Y-81.25
X47.75Y-84.75
X47.75Y-89.25
X53.25Y-20.75
X53.25Y-25.25
X53.25Y-28.75
X53.25Y-33.25
X53.25Y-36.75
X53.25Y-41.25
X53.25Y-44.75
X53.25Y-49.25
X53.25Y-52.75
X53.25Y-57.25
X53.25Y-60.75
X53.25Y-65.25
X53.25Y-68.75
X53.25Y-73.25
X53.25Y-76.75
X53.25Y-81.25
X53.25Y-84.75
X53.25Y-89.25
X59.75Y-20.75
X59.75Y-25.25
X59.75Y-28.75
X59.75Y-33.25
X59.75Y-36.75
X59.75Y-41.25
X59.75Y-44.75
X59.75Y-49.25
X59.75Y-52.75
X59.75Y-57.25
X59.75Y-60.75
X59.75Y-65.25
X59.75Y-68.75
X59.75Y-73.25
X59.75Y-76.75
X59.75Y-81.25
X59.75Y-84.75
X59.75Y-89.25
M30
