%TF.GenerationSoftware,KiCad,Pcbnew,9.0.7*%
%TF.CreationDate,2026-05-25T17:30:24+02:00*%
%TF.ProjectId,BarePi_CalcKey,42617265-5069-45f4-9361-6c634b65792e,rev?*%
%TF.SameCoordinates,Original*%
%TF.FileFunction,Legend,Top*%
%TF.FilePolarity,Positive*%
%FSLAX46Y46*%
G04 Gerber Fmt 4.6, Leading zero omitted, Abs format (unit mm)*
G04 Created by KiCad (PCBNEW 9.0.7) date 2026-05-25 17:30:24*
%MOMM*%
%LPD*%
G01*
G04 APERTURE LIST*
%ADD10C,0.150000*%
%ADD11C,0.100000*%
%ADD12C,0.120000*%
G04 APERTURE END LIST*
D10*
X59156666Y-97014819D02*
X59156666Y-97729104D01*
X59156666Y-97729104D02*
X59109047Y-97871961D01*
X59109047Y-97871961D02*
X59013809Y-97967200D01*
X59013809Y-97967200D02*
X58870952Y-98014819D01*
X58870952Y-98014819D02*
X58775714Y-98014819D01*
X59585238Y-97110057D02*
X59632857Y-97062438D01*
X59632857Y-97062438D02*
X59728095Y-97014819D01*
X59728095Y-97014819D02*
X59966190Y-97014819D01*
X59966190Y-97014819D02*
X60061428Y-97062438D01*
X60061428Y-97062438D02*
X60109047Y-97110057D01*
X60109047Y-97110057D02*
X60156666Y-97205295D01*
X60156666Y-97205295D02*
X60156666Y-97300533D01*
X60156666Y-97300533D02*
X60109047Y-97443390D01*
X60109047Y-97443390D02*
X59537619Y-98014819D01*
X59537619Y-98014819D02*
X60156666Y-98014819D01*
X6078588Y-98037819D02*
X5507160Y-98037819D01*
X5792874Y-98037819D02*
X5792874Y-97037819D01*
X5792874Y-97037819D02*
X5697636Y-97180676D01*
X5697636Y-97180676D02*
X5602398Y-97275914D01*
X5602398Y-97275914D02*
X5507160Y-97323533D01*
X38539142Y-31359580D02*
X38491523Y-31407200D01*
X38491523Y-31407200D02*
X38348666Y-31454819D01*
X38348666Y-31454819D02*
X38253428Y-31454819D01*
X38253428Y-31454819D02*
X38110571Y-31407200D01*
X38110571Y-31407200D02*
X38015333Y-31311961D01*
X38015333Y-31311961D02*
X37967714Y-31216723D01*
X37967714Y-31216723D02*
X37920095Y-31026247D01*
X37920095Y-31026247D02*
X37920095Y-30883390D01*
X37920095Y-30883390D02*
X37967714Y-30692914D01*
X37967714Y-30692914D02*
X38015333Y-30597676D01*
X38015333Y-30597676D02*
X38110571Y-30502438D01*
X38110571Y-30502438D02*
X38253428Y-30454819D01*
X38253428Y-30454819D02*
X38348666Y-30454819D01*
X38348666Y-30454819D02*
X38491523Y-30502438D01*
X38491523Y-30502438D02*
X38539142Y-30550057D01*
X38967714Y-30931009D02*
X39301047Y-30931009D01*
X39443904Y-31454819D02*
X38967714Y-31454819D01*
X38967714Y-31454819D02*
X38967714Y-30454819D01*
X38967714Y-30454819D02*
X39443904Y-30454819D01*
X58986666Y-5964819D02*
X58986666Y-6679104D01*
X58986666Y-6679104D02*
X58939047Y-6821961D01*
X58939047Y-6821961D02*
X58843809Y-6917200D01*
X58843809Y-6917200D02*
X58700952Y-6964819D01*
X58700952Y-6964819D02*
X58605714Y-6964819D01*
X59986666Y-6964819D02*
X59415238Y-6964819D01*
X59700952Y-6964819D02*
X59700952Y-5964819D01*
X59700952Y-5964819D02*
X59605714Y-6107676D01*
X59605714Y-6107676D02*
X59510476Y-6202914D01*
X59510476Y-6202914D02*
X59415238Y-6250533D01*
D11*
X6615693Y-5240419D02*
X6044265Y-5240419D01*
X6329979Y-5240419D02*
X6329979Y-4240419D01*
X6329979Y-4240419D02*
X6234741Y-4383276D01*
X6234741Y-4383276D02*
X6139503Y-4478514D01*
X6139503Y-4478514D02*
X6044265Y-4526133D01*
D10*
X26860000Y-87359580D02*
X26907619Y-87407200D01*
X26907619Y-87407200D02*
X26860000Y-87454819D01*
X26860000Y-87454819D02*
X26812381Y-87407200D01*
X26812381Y-87407200D02*
X26860000Y-87359580D01*
X26860000Y-87359580D02*
X26860000Y-87454819D01*
X51025000Y-55359580D02*
X51072619Y-55407200D01*
X51072619Y-55407200D02*
X51025000Y-55454819D01*
X51025000Y-55454819D02*
X50977381Y-55407200D01*
X50977381Y-55407200D02*
X51025000Y-55359580D01*
X51025000Y-55359580D02*
X51025000Y-55454819D01*
X51025000Y-54835771D02*
X51072619Y-54883390D01*
X51072619Y-54883390D02*
X51025000Y-54931009D01*
X51025000Y-54931009D02*
X50977381Y-54883390D01*
X50977381Y-54883390D02*
X51025000Y-54835771D01*
X51025000Y-54835771D02*
X51025000Y-54931009D01*
X1577142Y-62502438D02*
X1481904Y-62454819D01*
X1481904Y-62454819D02*
X1339047Y-62454819D01*
X1339047Y-62454819D02*
X1196190Y-62502438D01*
X1196190Y-62502438D02*
X1100952Y-62597676D01*
X1100952Y-62597676D02*
X1053333Y-62692914D01*
X1053333Y-62692914D02*
X1005714Y-62883390D01*
X1005714Y-62883390D02*
X1005714Y-63026247D01*
X1005714Y-63026247D02*
X1053333Y-63216723D01*
X1053333Y-63216723D02*
X1100952Y-63311961D01*
X1100952Y-63311961D02*
X1196190Y-63407200D01*
X1196190Y-63407200D02*
X1339047Y-63454819D01*
X1339047Y-63454819D02*
X1434285Y-63454819D01*
X1434285Y-63454819D02*
X1577142Y-63407200D01*
X1577142Y-63407200D02*
X1624761Y-63359580D01*
X1624761Y-63359580D02*
X1624761Y-63026247D01*
X1624761Y-63026247D02*
X1434285Y-63026247D01*
X1910476Y-62454819D02*
X2481904Y-62454819D01*
X2196190Y-63454819D02*
X2196190Y-62454819D01*
X3005714Y-62454819D02*
X3196190Y-62454819D01*
X3196190Y-62454819D02*
X3291428Y-62502438D01*
X3291428Y-62502438D02*
X3386666Y-62597676D01*
X3386666Y-62597676D02*
X3434285Y-62788152D01*
X3434285Y-62788152D02*
X3434285Y-63121485D01*
X3434285Y-63121485D02*
X3386666Y-63311961D01*
X3386666Y-63311961D02*
X3291428Y-63407200D01*
X3291428Y-63407200D02*
X3196190Y-63454819D01*
X3196190Y-63454819D02*
X3005714Y-63454819D01*
X3005714Y-63454819D02*
X2910476Y-63407200D01*
X2910476Y-63407200D02*
X2815238Y-63311961D01*
X2815238Y-63311961D02*
X2767619Y-63121485D01*
X2767619Y-63121485D02*
X2767619Y-62788152D01*
X2767619Y-62788152D02*
X2815238Y-62597676D01*
X2815238Y-62597676D02*
X2910476Y-62502438D01*
X2910476Y-62502438D02*
X3005714Y-62454819D01*
X50537048Y-71073866D02*
X51298953Y-71073866D01*
X14093333Y-54931009D02*
X14426666Y-54931009D01*
X14569523Y-55454819D02*
X14093333Y-55454819D01*
X14093333Y-55454819D02*
X14093333Y-54454819D01*
X14093333Y-54454819D02*
X14569523Y-54454819D01*
X14998095Y-54931009D02*
X15331428Y-54931009D01*
X15474285Y-55454819D02*
X14998095Y-55454819D01*
X14998095Y-55454819D02*
X14998095Y-54454819D01*
X14998095Y-54454819D02*
X15474285Y-54454819D01*
X1659380Y-79454819D02*
X1326047Y-78978628D01*
X1087952Y-79454819D02*
X1087952Y-78454819D01*
X1087952Y-78454819D02*
X1468904Y-78454819D01*
X1468904Y-78454819D02*
X1564142Y-78502438D01*
X1564142Y-78502438D02*
X1611761Y-78550057D01*
X1611761Y-78550057D02*
X1659380Y-78645295D01*
X1659380Y-78645295D02*
X1659380Y-78788152D01*
X1659380Y-78788152D02*
X1611761Y-78883390D01*
X1611761Y-78883390D02*
X1564142Y-78931009D01*
X1564142Y-78931009D02*
X1468904Y-78978628D01*
X1468904Y-78978628D02*
X1087952Y-78978628D01*
X2040333Y-79407200D02*
X2183190Y-79454819D01*
X2183190Y-79454819D02*
X2421285Y-79454819D01*
X2421285Y-79454819D02*
X2516523Y-79407200D01*
X2516523Y-79407200D02*
X2564142Y-79359580D01*
X2564142Y-79359580D02*
X2611761Y-79264342D01*
X2611761Y-79264342D02*
X2611761Y-79169104D01*
X2611761Y-79169104D02*
X2564142Y-79073866D01*
X2564142Y-79073866D02*
X2516523Y-79026247D01*
X2516523Y-79026247D02*
X2421285Y-78978628D01*
X2421285Y-78978628D02*
X2230809Y-78931009D01*
X2230809Y-78931009D02*
X2135571Y-78883390D01*
X2135571Y-78883390D02*
X2087952Y-78835771D01*
X2087952Y-78835771D02*
X2040333Y-78740533D01*
X2040333Y-78740533D02*
X2040333Y-78645295D01*
X2040333Y-78645295D02*
X2087952Y-78550057D01*
X2087952Y-78550057D02*
X2135571Y-78502438D01*
X2135571Y-78502438D02*
X2230809Y-78454819D01*
X2230809Y-78454819D02*
X2468904Y-78454819D01*
X2468904Y-78454819D02*
X2611761Y-78502438D01*
X2897476Y-78454819D02*
X3468904Y-78454819D01*
X3183190Y-79454819D02*
X3183190Y-78454819D01*
X14812381Y-86454819D02*
X14907619Y-86454819D01*
X14907619Y-86454819D02*
X15002857Y-86502438D01*
X15002857Y-86502438D02*
X15050476Y-86550057D01*
X15050476Y-86550057D02*
X15098095Y-86645295D01*
X15098095Y-86645295D02*
X15145714Y-86835771D01*
X15145714Y-86835771D02*
X15145714Y-87073866D01*
X15145714Y-87073866D02*
X15098095Y-87264342D01*
X15098095Y-87264342D02*
X15050476Y-87359580D01*
X15050476Y-87359580D02*
X15002857Y-87407200D01*
X15002857Y-87407200D02*
X14907619Y-87454819D01*
X14907619Y-87454819D02*
X14812381Y-87454819D01*
X14812381Y-87454819D02*
X14717143Y-87407200D01*
X14717143Y-87407200D02*
X14669524Y-87359580D01*
X14669524Y-87359580D02*
X14621905Y-87264342D01*
X14621905Y-87264342D02*
X14574286Y-87073866D01*
X14574286Y-87073866D02*
X14574286Y-86835771D01*
X14574286Y-86835771D02*
X14621905Y-86645295D01*
X14621905Y-86645295D02*
X14669524Y-86550057D01*
X14669524Y-86550057D02*
X14717143Y-86502438D01*
X14717143Y-86502438D02*
X14812381Y-86454819D01*
X27214095Y-70454819D02*
X26737905Y-70454819D01*
X26737905Y-70454819D02*
X26690286Y-70931009D01*
X26690286Y-70931009D02*
X26737905Y-70883390D01*
X26737905Y-70883390D02*
X26833143Y-70835771D01*
X26833143Y-70835771D02*
X27071238Y-70835771D01*
X27071238Y-70835771D02*
X27166476Y-70883390D01*
X27166476Y-70883390D02*
X27214095Y-70931009D01*
X27214095Y-70931009D02*
X27261714Y-71026247D01*
X27261714Y-71026247D02*
X27261714Y-71264342D01*
X27261714Y-71264342D02*
X27214095Y-71359580D01*
X27214095Y-71359580D02*
X27166476Y-71407200D01*
X27166476Y-71407200D02*
X27071238Y-71454819D01*
X27071238Y-71454819D02*
X26833143Y-71454819D01*
X26833143Y-71454819D02*
X26737905Y-71407200D01*
X26737905Y-71407200D02*
X26690286Y-71359580D01*
X15185428Y-22631009D02*
X15328285Y-22678628D01*
X15328285Y-22678628D02*
X15375904Y-22726247D01*
X15375904Y-22726247D02*
X15423523Y-22821485D01*
X15423523Y-22821485D02*
X15423523Y-22964342D01*
X15423523Y-22964342D02*
X15375904Y-23059580D01*
X15375904Y-23059580D02*
X15328285Y-23107200D01*
X15328285Y-23107200D02*
X15233047Y-23154819D01*
X15233047Y-23154819D02*
X14852095Y-23154819D01*
X14852095Y-23154819D02*
X14852095Y-22154819D01*
X14852095Y-22154819D02*
X15185428Y-22154819D01*
X15185428Y-22154819D02*
X15280666Y-22202438D01*
X15280666Y-22202438D02*
X15328285Y-22250057D01*
X15328285Y-22250057D02*
X15375904Y-22345295D01*
X15375904Y-22345295D02*
X15375904Y-22440533D01*
X15375904Y-22440533D02*
X15328285Y-22535771D01*
X15328285Y-22535771D02*
X15280666Y-22583390D01*
X15280666Y-22583390D02*
X15185428Y-22631009D01*
X15185428Y-22631009D02*
X14852095Y-22631009D01*
X50229048Y-86931009D02*
X50990953Y-86931009D01*
X50990953Y-87216723D02*
X50229048Y-87216723D01*
X726286Y-71407200D02*
X869143Y-71454819D01*
X869143Y-71454819D02*
X1107238Y-71454819D01*
X1107238Y-71454819D02*
X1202476Y-71407200D01*
X1202476Y-71407200D02*
X1250095Y-71359580D01*
X1250095Y-71359580D02*
X1297714Y-71264342D01*
X1297714Y-71264342D02*
X1297714Y-71169104D01*
X1297714Y-71169104D02*
X1250095Y-71073866D01*
X1250095Y-71073866D02*
X1202476Y-71026247D01*
X1202476Y-71026247D02*
X1107238Y-70978628D01*
X1107238Y-70978628D02*
X916762Y-70931009D01*
X916762Y-70931009D02*
X821524Y-70883390D01*
X821524Y-70883390D02*
X773905Y-70835771D01*
X773905Y-70835771D02*
X726286Y-70740533D01*
X726286Y-70740533D02*
X726286Y-70645295D01*
X726286Y-70645295D02*
X773905Y-70550057D01*
X773905Y-70550057D02*
X821524Y-70502438D01*
X821524Y-70502438D02*
X916762Y-70454819D01*
X916762Y-70454819D02*
X1154857Y-70454819D01*
X1154857Y-70454819D02*
X1297714Y-70502438D01*
X2059619Y-70931009D02*
X2202476Y-70978628D01*
X2202476Y-70978628D02*
X2250095Y-71026247D01*
X2250095Y-71026247D02*
X2297714Y-71121485D01*
X2297714Y-71121485D02*
X2297714Y-71264342D01*
X2297714Y-71264342D02*
X2250095Y-71359580D01*
X2250095Y-71359580D02*
X2202476Y-71407200D01*
X2202476Y-71407200D02*
X2107238Y-71454819D01*
X2107238Y-71454819D02*
X1726286Y-71454819D01*
X1726286Y-71454819D02*
X1726286Y-70454819D01*
X1726286Y-70454819D02*
X2059619Y-70454819D01*
X2059619Y-70454819D02*
X2154857Y-70502438D01*
X2154857Y-70502438D02*
X2202476Y-70550057D01*
X2202476Y-70550057D02*
X2250095Y-70645295D01*
X2250095Y-70645295D02*
X2250095Y-70740533D01*
X2250095Y-70740533D02*
X2202476Y-70835771D01*
X2202476Y-70835771D02*
X2154857Y-70883390D01*
X2154857Y-70883390D02*
X2059619Y-70931009D01*
X2059619Y-70931009D02*
X1726286Y-70931009D01*
X3297714Y-71454819D02*
X2964381Y-70978628D01*
X2726286Y-71454819D02*
X2726286Y-70454819D01*
X2726286Y-70454819D02*
X3107238Y-70454819D01*
X3107238Y-70454819D02*
X3202476Y-70502438D01*
X3202476Y-70502438D02*
X3250095Y-70550057D01*
X3250095Y-70550057D02*
X3297714Y-70645295D01*
X3297714Y-70645295D02*
X3297714Y-70788152D01*
X3297714Y-70788152D02*
X3250095Y-70883390D01*
X3250095Y-70883390D02*
X3202476Y-70931009D01*
X3202476Y-70931009D02*
X3107238Y-70978628D01*
X3107238Y-70978628D02*
X2726286Y-70978628D01*
X1429523Y-87454819D02*
X1096190Y-86978628D01*
X858095Y-87454819D02*
X858095Y-86454819D01*
X858095Y-86454819D02*
X1239047Y-86454819D01*
X1239047Y-86454819D02*
X1334285Y-86502438D01*
X1334285Y-86502438D02*
X1381904Y-86550057D01*
X1381904Y-86550057D02*
X1429523Y-86645295D01*
X1429523Y-86645295D02*
X1429523Y-86788152D01*
X1429523Y-86788152D02*
X1381904Y-86883390D01*
X1381904Y-86883390D02*
X1334285Y-86931009D01*
X1334285Y-86931009D02*
X1239047Y-86978628D01*
X1239047Y-86978628D02*
X858095Y-86978628D01*
X2572380Y-86407200D02*
X1715238Y-87692914D01*
X2858095Y-87407200D02*
X3000952Y-87454819D01*
X3000952Y-87454819D02*
X3239047Y-87454819D01*
X3239047Y-87454819D02*
X3334285Y-87407200D01*
X3334285Y-87407200D02*
X3381904Y-87359580D01*
X3381904Y-87359580D02*
X3429523Y-87264342D01*
X3429523Y-87264342D02*
X3429523Y-87169104D01*
X3429523Y-87169104D02*
X3381904Y-87073866D01*
X3381904Y-87073866D02*
X3334285Y-87026247D01*
X3334285Y-87026247D02*
X3239047Y-86978628D01*
X3239047Y-86978628D02*
X3048571Y-86931009D01*
X3048571Y-86931009D02*
X2953333Y-86883390D01*
X2953333Y-86883390D02*
X2905714Y-86835771D01*
X2905714Y-86835771D02*
X2858095Y-86740533D01*
X2858095Y-86740533D02*
X2858095Y-86645295D01*
X2858095Y-86645295D02*
X2905714Y-86550057D01*
X2905714Y-86550057D02*
X2953333Y-86502438D01*
X2953333Y-86502438D02*
X3048571Y-86454819D01*
X3048571Y-86454819D02*
X3286666Y-86454819D01*
X3286666Y-86454819D02*
X3429523Y-86502438D01*
X38796524Y-63454819D02*
X38987000Y-63454819D01*
X38987000Y-63454819D02*
X39082238Y-63407200D01*
X39082238Y-63407200D02*
X39129857Y-63359580D01*
X39129857Y-63359580D02*
X39225095Y-63216723D01*
X39225095Y-63216723D02*
X39272714Y-63026247D01*
X39272714Y-63026247D02*
X39272714Y-62645295D01*
X39272714Y-62645295D02*
X39225095Y-62550057D01*
X39225095Y-62550057D02*
X39177476Y-62502438D01*
X39177476Y-62502438D02*
X39082238Y-62454819D01*
X39082238Y-62454819D02*
X38891762Y-62454819D01*
X38891762Y-62454819D02*
X38796524Y-62502438D01*
X38796524Y-62502438D02*
X38748905Y-62550057D01*
X38748905Y-62550057D02*
X38701286Y-62645295D01*
X38701286Y-62645295D02*
X38701286Y-62883390D01*
X38701286Y-62883390D02*
X38748905Y-62978628D01*
X38748905Y-62978628D02*
X38796524Y-63026247D01*
X38796524Y-63026247D02*
X38891762Y-63073866D01*
X38891762Y-63073866D02*
X39082238Y-63073866D01*
X39082238Y-63073866D02*
X39177476Y-63026247D01*
X39177476Y-63026247D02*
X39225095Y-62978628D01*
X39225095Y-62978628D02*
X39272714Y-62883390D01*
X26110761Y-47454819D02*
X25777428Y-46978628D01*
X25539333Y-47454819D02*
X25539333Y-46454819D01*
X25539333Y-46454819D02*
X25920285Y-46454819D01*
X25920285Y-46454819D02*
X26015523Y-46502438D01*
X26015523Y-46502438D02*
X26063142Y-46550057D01*
X26063142Y-46550057D02*
X26110761Y-46645295D01*
X26110761Y-46645295D02*
X26110761Y-46788152D01*
X26110761Y-46788152D02*
X26063142Y-46883390D01*
X26063142Y-46883390D02*
X26015523Y-46931009D01*
X26015523Y-46931009D02*
X25920285Y-46978628D01*
X25920285Y-46978628D02*
X25539333Y-46978628D01*
X27110761Y-47359580D02*
X27063142Y-47407200D01*
X27063142Y-47407200D02*
X26920285Y-47454819D01*
X26920285Y-47454819D02*
X26825047Y-47454819D01*
X26825047Y-47454819D02*
X26682190Y-47407200D01*
X26682190Y-47407200D02*
X26586952Y-47311961D01*
X26586952Y-47311961D02*
X26539333Y-47216723D01*
X26539333Y-47216723D02*
X26491714Y-47026247D01*
X26491714Y-47026247D02*
X26491714Y-46883390D01*
X26491714Y-46883390D02*
X26539333Y-46692914D01*
X26539333Y-46692914D02*
X26586952Y-46597676D01*
X26586952Y-46597676D02*
X26682190Y-46502438D01*
X26682190Y-46502438D02*
X26825047Y-46454819D01*
X26825047Y-46454819D02*
X26920285Y-46454819D01*
X26920285Y-46454819D02*
X27063142Y-46502438D01*
X27063142Y-46502438D02*
X27110761Y-46550057D01*
X28015523Y-47454819D02*
X27539333Y-47454819D01*
X27539333Y-47454819D02*
X27539333Y-46454819D01*
X26805476Y-55835771D02*
X26757857Y-55788152D01*
X26757857Y-55788152D02*
X26662619Y-55645295D01*
X26662619Y-55645295D02*
X26615000Y-55550057D01*
X26615000Y-55550057D02*
X26567381Y-55407200D01*
X26567381Y-55407200D02*
X26519762Y-55169104D01*
X26519762Y-55169104D02*
X26519762Y-54978628D01*
X26519762Y-54978628D02*
X26567381Y-54740533D01*
X26567381Y-54740533D02*
X26615000Y-54597676D01*
X26615000Y-54597676D02*
X26662619Y-54502438D01*
X26662619Y-54502438D02*
X26757857Y-54359580D01*
X26757857Y-54359580D02*
X26805476Y-54311961D01*
X2892905Y-22689104D02*
X3369095Y-22689104D01*
X2797667Y-22974819D02*
X3131000Y-21974819D01*
X3131000Y-21974819D02*
X3464333Y-22974819D01*
X1087524Y-30550057D02*
X1135143Y-30502438D01*
X1135143Y-30502438D02*
X1230381Y-30454819D01*
X1230381Y-30454819D02*
X1468476Y-30454819D01*
X1468476Y-30454819D02*
X1563714Y-30502438D01*
X1563714Y-30502438D02*
X1611333Y-30550057D01*
X1611333Y-30550057D02*
X1658952Y-30645295D01*
X1658952Y-30645295D02*
X1658952Y-30740533D01*
X1658952Y-30740533D02*
X1611333Y-30883390D01*
X1611333Y-30883390D02*
X1039905Y-31454819D01*
X1039905Y-31454819D02*
X1658952Y-31454819D01*
X2087524Y-30788152D02*
X2087524Y-31454819D01*
X2087524Y-30883390D02*
X2135143Y-30835771D01*
X2135143Y-30835771D02*
X2230381Y-30788152D01*
X2230381Y-30788152D02*
X2373238Y-30788152D01*
X2373238Y-30788152D02*
X2468476Y-30835771D01*
X2468476Y-30835771D02*
X2516095Y-30931009D01*
X2516095Y-30931009D02*
X2516095Y-31454819D01*
X3420857Y-31454819D02*
X3420857Y-30454819D01*
X3420857Y-31407200D02*
X3325619Y-31454819D01*
X3325619Y-31454819D02*
X3135143Y-31454819D01*
X3135143Y-31454819D02*
X3039905Y-31407200D01*
X3039905Y-31407200D02*
X2992286Y-31359580D01*
X2992286Y-31359580D02*
X2944667Y-31264342D01*
X2944667Y-31264342D02*
X2944667Y-30978628D01*
X2944667Y-30978628D02*
X2992286Y-30883390D01*
X2992286Y-30883390D02*
X3039905Y-30835771D01*
X3039905Y-30835771D02*
X3135143Y-30788152D01*
X3135143Y-30788152D02*
X3325619Y-30788152D01*
X3325619Y-30788152D02*
X3420857Y-30835771D01*
X38011905Y-38454819D02*
X38345238Y-39454819D01*
X38345238Y-39454819D02*
X38678571Y-38454819D01*
X38916667Y-39454819D02*
X39440476Y-38788152D01*
X38916667Y-38788152D02*
X39440476Y-39454819D01*
X12884286Y-39454819D02*
X13408095Y-38788152D01*
X12884286Y-38788152D02*
X13408095Y-39454819D01*
X14550953Y-38788152D02*
X13789048Y-39073866D01*
X13789048Y-39073866D02*
X14550953Y-39359580D01*
X15027143Y-38788152D02*
X15789048Y-39073866D01*
X15789048Y-39073866D02*
X15027143Y-39359580D01*
X16122381Y-38788152D02*
X16503333Y-38788152D01*
X16265238Y-38454819D02*
X16265238Y-39311961D01*
X16265238Y-39311961D02*
X16312857Y-39407200D01*
X16312857Y-39407200D02*
X16408095Y-39454819D01*
X16408095Y-39454819D02*
X16503333Y-39454819D01*
X4269666Y-8581819D02*
X4269666Y-9296104D01*
X4269666Y-9296104D02*
X4222047Y-9438961D01*
X4222047Y-9438961D02*
X4126809Y-9534200D01*
X4126809Y-9534200D02*
X3983952Y-9581819D01*
X3983952Y-9581819D02*
X3888714Y-9581819D01*
X4650619Y-8581819D02*
X5269666Y-8581819D01*
X5269666Y-8581819D02*
X4936333Y-8962771D01*
X4936333Y-8962771D02*
X5079190Y-8962771D01*
X5079190Y-8962771D02*
X5174428Y-9010390D01*
X5174428Y-9010390D02*
X5222047Y-9058009D01*
X5222047Y-9058009D02*
X5269666Y-9153247D01*
X5269666Y-9153247D02*
X5269666Y-9391342D01*
X5269666Y-9391342D02*
X5222047Y-9486580D01*
X5222047Y-9486580D02*
X5174428Y-9534200D01*
X5174428Y-9534200D02*
X5079190Y-9581819D01*
X5079190Y-9581819D02*
X4793476Y-9581819D01*
X4793476Y-9581819D02*
X4698238Y-9534200D01*
X4698238Y-9534200D02*
X4650619Y-9486580D01*
X49894761Y-31359580D02*
X49847142Y-31407200D01*
X49847142Y-31407200D02*
X49704285Y-31454819D01*
X49704285Y-31454819D02*
X49609047Y-31454819D01*
X49609047Y-31454819D02*
X49466190Y-31407200D01*
X49466190Y-31407200D02*
X49370952Y-31311961D01*
X49370952Y-31311961D02*
X49323333Y-31216723D01*
X49323333Y-31216723D02*
X49275714Y-31026247D01*
X49275714Y-31026247D02*
X49275714Y-30883390D01*
X49275714Y-30883390D02*
X49323333Y-30692914D01*
X49323333Y-30692914D02*
X49370952Y-30597676D01*
X49370952Y-30597676D02*
X49466190Y-30502438D01*
X49466190Y-30502438D02*
X49609047Y-30454819D01*
X49609047Y-30454819D02*
X49704285Y-30454819D01*
X49704285Y-30454819D02*
X49847142Y-30502438D01*
X49847142Y-30502438D02*
X49894761Y-30550057D01*
X50799523Y-31454819D02*
X50323333Y-31454819D01*
X50323333Y-31454819D02*
X50323333Y-30454819D01*
X51704285Y-31454819D02*
X51370952Y-30978628D01*
X51132857Y-31454819D02*
X51132857Y-30454819D01*
X51132857Y-30454819D02*
X51513809Y-30454819D01*
X51513809Y-30454819D02*
X51609047Y-30502438D01*
X51609047Y-30502438D02*
X51656666Y-30550057D01*
X51656666Y-30550057D02*
X51704285Y-30645295D01*
X51704285Y-30645295D02*
X51704285Y-30788152D01*
X51704285Y-30788152D02*
X51656666Y-30883390D01*
X51656666Y-30883390D02*
X51609047Y-30931009D01*
X51609047Y-30931009D02*
X51513809Y-30978628D01*
X51513809Y-30978628D02*
X51132857Y-30978628D01*
X26668286Y-78550057D02*
X26715905Y-78502438D01*
X26715905Y-78502438D02*
X26811143Y-78454819D01*
X26811143Y-78454819D02*
X27049238Y-78454819D01*
X27049238Y-78454819D02*
X27144476Y-78502438D01*
X27144476Y-78502438D02*
X27192095Y-78550057D01*
X27192095Y-78550057D02*
X27239714Y-78645295D01*
X27239714Y-78645295D02*
X27239714Y-78740533D01*
X27239714Y-78740533D02*
X27192095Y-78883390D01*
X27192095Y-78883390D02*
X26620667Y-79454819D01*
X26620667Y-79454819D02*
X27239714Y-79454819D01*
X49847142Y-39454819D02*
X49275714Y-39454819D01*
X49561428Y-39454819D02*
X49561428Y-38454819D01*
X49561428Y-38454819D02*
X49466190Y-38597676D01*
X49466190Y-38597676D02*
X49370952Y-38692914D01*
X49370952Y-38692914D02*
X49275714Y-38740533D01*
X50989999Y-38407200D02*
X50132857Y-39692914D01*
X51228095Y-39454819D02*
X51751904Y-38788152D01*
X51228095Y-38788152D02*
X51751904Y-39454819D01*
X37214048Y-47407200D02*
X37356905Y-47454819D01*
X37356905Y-47454819D02*
X37595000Y-47454819D01*
X37595000Y-47454819D02*
X37690238Y-47407200D01*
X37690238Y-47407200D02*
X37737857Y-47359580D01*
X37737857Y-47359580D02*
X37785476Y-47264342D01*
X37785476Y-47264342D02*
X37785476Y-47169104D01*
X37785476Y-47169104D02*
X37737857Y-47073866D01*
X37737857Y-47073866D02*
X37690238Y-47026247D01*
X37690238Y-47026247D02*
X37595000Y-46978628D01*
X37595000Y-46978628D02*
X37404524Y-46931009D01*
X37404524Y-46931009D02*
X37309286Y-46883390D01*
X37309286Y-46883390D02*
X37261667Y-46835771D01*
X37261667Y-46835771D02*
X37214048Y-46740533D01*
X37214048Y-46740533D02*
X37214048Y-46645295D01*
X37214048Y-46645295D02*
X37261667Y-46550057D01*
X37261667Y-46550057D02*
X37309286Y-46502438D01*
X37309286Y-46502438D02*
X37404524Y-46454819D01*
X37404524Y-46454819D02*
X37642619Y-46454819D01*
X37642619Y-46454819D02*
X37785476Y-46502438D01*
X38214048Y-46454819D02*
X38214048Y-47264342D01*
X38214048Y-47264342D02*
X38261667Y-47359580D01*
X38261667Y-47359580D02*
X38309286Y-47407200D01*
X38309286Y-47407200D02*
X38404524Y-47454819D01*
X38404524Y-47454819D02*
X38595000Y-47454819D01*
X38595000Y-47454819D02*
X38690238Y-47407200D01*
X38690238Y-47407200D02*
X38737857Y-47359580D01*
X38737857Y-47359580D02*
X38785476Y-47264342D01*
X38785476Y-47264342D02*
X38785476Y-46454819D01*
X39261667Y-47454819D02*
X39261667Y-46454819D01*
X39261667Y-46454819D02*
X39595000Y-47169104D01*
X39595000Y-47169104D02*
X39928333Y-46454819D01*
X39928333Y-46454819D02*
X39928333Y-47454819D01*
X14617667Y-62454819D02*
X15284333Y-62454819D01*
X15284333Y-62454819D02*
X14855762Y-63454819D01*
X50758095Y-63454819D02*
X51281904Y-62788152D01*
X50758095Y-62788152D02*
X51281904Y-63454819D01*
X50163143Y-46788152D02*
X50401238Y-47454819D01*
X50639333Y-46788152D02*
X50401238Y-47454819D01*
X50401238Y-47454819D02*
X50306000Y-47692914D01*
X50306000Y-47692914D02*
X50258381Y-47740533D01*
X50258381Y-47740533D02*
X50163143Y-47788152D01*
X50925048Y-47454819D02*
X51448857Y-46788152D01*
X50925048Y-46788152D02*
X51448857Y-47454819D01*
X26923762Y-62883390D02*
X26828524Y-62835771D01*
X26828524Y-62835771D02*
X26780905Y-62788152D01*
X26780905Y-62788152D02*
X26733286Y-62692914D01*
X26733286Y-62692914D02*
X26733286Y-62645295D01*
X26733286Y-62645295D02*
X26780905Y-62550057D01*
X26780905Y-62550057D02*
X26828524Y-62502438D01*
X26828524Y-62502438D02*
X26923762Y-62454819D01*
X26923762Y-62454819D02*
X27114238Y-62454819D01*
X27114238Y-62454819D02*
X27209476Y-62502438D01*
X27209476Y-62502438D02*
X27257095Y-62550057D01*
X27257095Y-62550057D02*
X27304714Y-62645295D01*
X27304714Y-62645295D02*
X27304714Y-62692914D01*
X27304714Y-62692914D02*
X27257095Y-62788152D01*
X27257095Y-62788152D02*
X27209476Y-62835771D01*
X27209476Y-62835771D02*
X27114238Y-62883390D01*
X27114238Y-62883390D02*
X26923762Y-62883390D01*
X26923762Y-62883390D02*
X26828524Y-62931009D01*
X26828524Y-62931009D02*
X26780905Y-62978628D01*
X26780905Y-62978628D02*
X26733286Y-63073866D01*
X26733286Y-63073866D02*
X26733286Y-63264342D01*
X26733286Y-63264342D02*
X26780905Y-63359580D01*
X26780905Y-63359580D02*
X26828524Y-63407200D01*
X26828524Y-63407200D02*
X26923762Y-63454819D01*
X26923762Y-63454819D02*
X27114238Y-63454819D01*
X27114238Y-63454819D02*
X27209476Y-63407200D01*
X27209476Y-63407200D02*
X27257095Y-63359580D01*
X27257095Y-63359580D02*
X27304714Y-63264342D01*
X27304714Y-63264342D02*
X27304714Y-63073866D01*
X27304714Y-63073866D02*
X27257095Y-62978628D01*
X27257095Y-62978628D02*
X27209476Y-62931009D01*
X27209476Y-62931009D02*
X27114238Y-62883390D01*
X50489048Y-79073866D02*
X51250953Y-79073866D01*
X50870000Y-79454819D02*
X50870000Y-78692914D01*
X14882476Y-70788152D02*
X14882476Y-71454819D01*
X14644381Y-70407200D02*
X14406286Y-71121485D01*
X14406286Y-71121485D02*
X15025333Y-71121485D01*
X13642619Y-31454819D02*
X13642619Y-30454819D01*
X14118809Y-31454819D02*
X14118809Y-30454819D01*
X14118809Y-30454819D02*
X14690237Y-31454819D01*
X14690237Y-31454819D02*
X14690237Y-30454819D01*
X15023571Y-30454819D02*
X15356904Y-31454819D01*
X15356904Y-31454819D02*
X15690237Y-30454819D01*
X38845095Y-23364819D02*
X38845095Y-22364819D01*
X38845095Y-22364819D02*
X39083190Y-22364819D01*
X39083190Y-22364819D02*
X39226047Y-22412438D01*
X39226047Y-22412438D02*
X39321285Y-22507676D01*
X39321285Y-22507676D02*
X39368904Y-22602914D01*
X39368904Y-22602914D02*
X39416523Y-22793390D01*
X39416523Y-22793390D02*
X39416523Y-22936247D01*
X39416523Y-22936247D02*
X39368904Y-23126723D01*
X39368904Y-23126723D02*
X39321285Y-23221961D01*
X39321285Y-23221961D02*
X39226047Y-23317200D01*
X39226047Y-23317200D02*
X39083190Y-23364819D01*
X39083190Y-23364819D02*
X38845095Y-23364819D01*
X50951714Y-22751009D02*
X51285047Y-22751009D01*
X51427904Y-23274819D02*
X50951714Y-23274819D01*
X50951714Y-23274819D02*
X50951714Y-22274819D01*
X50951714Y-22274819D02*
X51427904Y-22274819D01*
X1496285Y-54931009D02*
X1639142Y-54978628D01*
X1639142Y-54978628D02*
X1686761Y-55026247D01*
X1686761Y-55026247D02*
X1734380Y-55121485D01*
X1734380Y-55121485D02*
X1734380Y-55264342D01*
X1734380Y-55264342D02*
X1686761Y-55359580D01*
X1686761Y-55359580D02*
X1639142Y-55407200D01*
X1639142Y-55407200D02*
X1543904Y-55454819D01*
X1543904Y-55454819D02*
X1162952Y-55454819D01*
X1162952Y-55454819D02*
X1162952Y-54454819D01*
X1162952Y-54454819D02*
X1496285Y-54454819D01*
X1496285Y-54454819D02*
X1591523Y-54502438D01*
X1591523Y-54502438D02*
X1639142Y-54550057D01*
X1639142Y-54550057D02*
X1686761Y-54645295D01*
X1686761Y-54645295D02*
X1686761Y-54740533D01*
X1686761Y-54740533D02*
X1639142Y-54835771D01*
X1639142Y-54835771D02*
X1591523Y-54883390D01*
X1591523Y-54883390D02*
X1496285Y-54931009D01*
X1496285Y-54931009D02*
X1162952Y-54931009D01*
X2115333Y-55407200D02*
X2258190Y-55454819D01*
X2258190Y-55454819D02*
X2496285Y-55454819D01*
X2496285Y-55454819D02*
X2591523Y-55407200D01*
X2591523Y-55407200D02*
X2639142Y-55359580D01*
X2639142Y-55359580D02*
X2686761Y-55264342D01*
X2686761Y-55264342D02*
X2686761Y-55169104D01*
X2686761Y-55169104D02*
X2639142Y-55073866D01*
X2639142Y-55073866D02*
X2591523Y-55026247D01*
X2591523Y-55026247D02*
X2496285Y-54978628D01*
X2496285Y-54978628D02*
X2305809Y-54931009D01*
X2305809Y-54931009D02*
X2210571Y-54883390D01*
X2210571Y-54883390D02*
X2162952Y-54835771D01*
X2162952Y-54835771D02*
X2115333Y-54740533D01*
X2115333Y-54740533D02*
X2115333Y-54645295D01*
X2115333Y-54645295D02*
X2162952Y-54550057D01*
X2162952Y-54550057D02*
X2210571Y-54502438D01*
X2210571Y-54502438D02*
X2305809Y-54454819D01*
X2305809Y-54454819D02*
X2543904Y-54454819D01*
X2543904Y-54454819D02*
X2686761Y-54502438D01*
X2972476Y-54454819D02*
X3543904Y-54454819D01*
X3258190Y-55454819D02*
X3258190Y-54454819D01*
X38613667Y-78454819D02*
X39232714Y-78454819D01*
X39232714Y-78454819D02*
X38899381Y-78835771D01*
X38899381Y-78835771D02*
X39042238Y-78835771D01*
X39042238Y-78835771D02*
X39137476Y-78883390D01*
X39137476Y-78883390D02*
X39185095Y-78931009D01*
X39185095Y-78931009D02*
X39232714Y-79026247D01*
X39232714Y-79026247D02*
X39232714Y-79264342D01*
X39232714Y-79264342D02*
X39185095Y-79359580D01*
X39185095Y-79359580D02*
X39137476Y-79407200D01*
X39137476Y-79407200D02*
X39042238Y-79454819D01*
X39042238Y-79454819D02*
X38756524Y-79454819D01*
X38756524Y-79454819D02*
X38661286Y-79407200D01*
X38661286Y-79407200D02*
X38613667Y-79359580D01*
X1483714Y-39454819D02*
X1007524Y-39454819D01*
X1007524Y-39454819D02*
X1007524Y-38454819D01*
X2388476Y-39454819D02*
X2055143Y-38978628D01*
X1817048Y-39454819D02*
X1817048Y-38454819D01*
X1817048Y-38454819D02*
X2198000Y-38454819D01*
X2198000Y-38454819D02*
X2293238Y-38502438D01*
X2293238Y-38502438D02*
X2340857Y-38550057D01*
X2340857Y-38550057D02*
X2388476Y-38645295D01*
X2388476Y-38645295D02*
X2388476Y-38788152D01*
X2388476Y-38788152D02*
X2340857Y-38883390D01*
X2340857Y-38883390D02*
X2293238Y-38931009D01*
X2293238Y-38931009D02*
X2198000Y-38978628D01*
X2198000Y-38978628D02*
X1817048Y-38978628D01*
X2817048Y-39454819D02*
X2817048Y-38454819D01*
X2817048Y-38454819D02*
X3388476Y-39454819D01*
X3388476Y-39454819D02*
X3388476Y-38454819D01*
X15256714Y-79454819D02*
X14685286Y-79454819D01*
X14971000Y-79454819D02*
X14971000Y-78454819D01*
X14971000Y-78454819D02*
X14875762Y-78597676D01*
X14875762Y-78597676D02*
X14780524Y-78692914D01*
X14780524Y-78692914D02*
X14685286Y-78740533D01*
X27445523Y-23269580D02*
X27397904Y-23317200D01*
X27397904Y-23317200D02*
X27255047Y-23364819D01*
X27255047Y-23364819D02*
X27159809Y-23364819D01*
X27159809Y-23364819D02*
X27016952Y-23317200D01*
X27016952Y-23317200D02*
X26921714Y-23221961D01*
X26921714Y-23221961D02*
X26874095Y-23126723D01*
X26874095Y-23126723D02*
X26826476Y-22936247D01*
X26826476Y-22936247D02*
X26826476Y-22793390D01*
X26826476Y-22793390D02*
X26874095Y-22602914D01*
X26874095Y-22602914D02*
X26921714Y-22507676D01*
X26921714Y-22507676D02*
X27016952Y-22412438D01*
X27016952Y-22412438D02*
X27159809Y-22364819D01*
X27159809Y-22364819D02*
X27255047Y-22364819D01*
X27255047Y-22364819D02*
X27397904Y-22412438D01*
X27397904Y-22412438D02*
X27445523Y-22460057D01*
X39086476Y-70454819D02*
X38896000Y-70454819D01*
X38896000Y-70454819D02*
X38800762Y-70502438D01*
X38800762Y-70502438D02*
X38753143Y-70550057D01*
X38753143Y-70550057D02*
X38657905Y-70692914D01*
X38657905Y-70692914D02*
X38610286Y-70883390D01*
X38610286Y-70883390D02*
X38610286Y-71264342D01*
X38610286Y-71264342D02*
X38657905Y-71359580D01*
X38657905Y-71359580D02*
X38705524Y-71407200D01*
X38705524Y-71407200D02*
X38800762Y-71454819D01*
X38800762Y-71454819D02*
X38991238Y-71454819D01*
X38991238Y-71454819D02*
X39086476Y-71407200D01*
X39086476Y-71407200D02*
X39134095Y-71359580D01*
X39134095Y-71359580D02*
X39181714Y-71264342D01*
X39181714Y-71264342D02*
X39181714Y-71026247D01*
X39181714Y-71026247D02*
X39134095Y-70931009D01*
X39134095Y-70931009D02*
X39086476Y-70883390D01*
X39086476Y-70883390D02*
X38991238Y-70835771D01*
X38991238Y-70835771D02*
X38800762Y-70835771D01*
X38800762Y-70835771D02*
X38705524Y-70883390D01*
X38705524Y-70883390D02*
X38657905Y-70931009D01*
X38657905Y-70931009D02*
X38610286Y-71026247D01*
X37296191Y-87073866D02*
X38058096Y-87073866D01*
X37677143Y-87454819D02*
X37677143Y-86692914D01*
X39248571Y-86407200D02*
X38391429Y-87692914D01*
X39581905Y-87073866D02*
X40343810Y-87073866D01*
X25800904Y-31454819D02*
X25705666Y-31407200D01*
X25705666Y-31407200D02*
X25658047Y-31311961D01*
X25658047Y-31311961D02*
X25658047Y-30454819D01*
X26181857Y-30788152D02*
X26181857Y-31454819D01*
X26181857Y-30883390D02*
X26229476Y-30835771D01*
X26229476Y-30835771D02*
X26324714Y-30788152D01*
X26324714Y-30788152D02*
X26467571Y-30788152D01*
X26467571Y-30788152D02*
X26562809Y-30835771D01*
X26562809Y-30835771D02*
X26610428Y-30931009D01*
X26610428Y-30931009D02*
X26610428Y-31454819D01*
X26991381Y-31454819D02*
X27515190Y-30788152D01*
X26991381Y-30788152D02*
X27515190Y-31454819D01*
X1089143Y-47407200D02*
X1232000Y-47454819D01*
X1232000Y-47454819D02*
X1470095Y-47454819D01*
X1470095Y-47454819D02*
X1565333Y-47407200D01*
X1565333Y-47407200D02*
X1612952Y-47359580D01*
X1612952Y-47359580D02*
X1660571Y-47264342D01*
X1660571Y-47264342D02*
X1660571Y-47169104D01*
X1660571Y-47169104D02*
X1612952Y-47073866D01*
X1612952Y-47073866D02*
X1565333Y-47026247D01*
X1565333Y-47026247D02*
X1470095Y-46978628D01*
X1470095Y-46978628D02*
X1279619Y-46931009D01*
X1279619Y-46931009D02*
X1184381Y-46883390D01*
X1184381Y-46883390D02*
X1136762Y-46835771D01*
X1136762Y-46835771D02*
X1089143Y-46740533D01*
X1089143Y-46740533D02*
X1089143Y-46645295D01*
X1089143Y-46645295D02*
X1136762Y-46550057D01*
X1136762Y-46550057D02*
X1184381Y-46502438D01*
X1184381Y-46502438D02*
X1279619Y-46454819D01*
X1279619Y-46454819D02*
X1517714Y-46454819D01*
X1517714Y-46454819D02*
X1660571Y-46502438D01*
X2041524Y-47407200D02*
X2184381Y-47454819D01*
X2184381Y-47454819D02*
X2422476Y-47454819D01*
X2422476Y-47454819D02*
X2517714Y-47407200D01*
X2517714Y-47407200D02*
X2565333Y-47359580D01*
X2565333Y-47359580D02*
X2612952Y-47264342D01*
X2612952Y-47264342D02*
X2612952Y-47169104D01*
X2612952Y-47169104D02*
X2565333Y-47073866D01*
X2565333Y-47073866D02*
X2517714Y-47026247D01*
X2517714Y-47026247D02*
X2422476Y-46978628D01*
X2422476Y-46978628D02*
X2232000Y-46931009D01*
X2232000Y-46931009D02*
X2136762Y-46883390D01*
X2136762Y-46883390D02*
X2089143Y-46835771D01*
X2089143Y-46835771D02*
X2041524Y-46740533D01*
X2041524Y-46740533D02*
X2041524Y-46645295D01*
X2041524Y-46645295D02*
X2089143Y-46550057D01*
X2089143Y-46550057D02*
X2136762Y-46502438D01*
X2136762Y-46502438D02*
X2232000Y-46454819D01*
X2232000Y-46454819D02*
X2470095Y-46454819D01*
X2470095Y-46454819D02*
X2612952Y-46502438D01*
X2898667Y-46454819D02*
X3470095Y-46454819D01*
X3184381Y-47454819D02*
X3184381Y-46454819D01*
X38696524Y-55835771D02*
X38744143Y-55788152D01*
X38744143Y-55788152D02*
X38839381Y-55645295D01*
X38839381Y-55645295D02*
X38887000Y-55550057D01*
X38887000Y-55550057D02*
X38934619Y-55407200D01*
X38934619Y-55407200D02*
X38982238Y-55169104D01*
X38982238Y-55169104D02*
X38982238Y-54978628D01*
X38982238Y-54978628D02*
X38934619Y-54740533D01*
X38934619Y-54740533D02*
X38887000Y-54597676D01*
X38887000Y-54597676D02*
X38839381Y-54502438D01*
X38839381Y-54502438D02*
X38744143Y-54359580D01*
X38744143Y-54359580D02*
X38696524Y-54311961D01*
X26001905Y-39454819D02*
X26525714Y-38788152D01*
X26001905Y-38788152D02*
X26525714Y-39454819D01*
X26859048Y-38550057D02*
X26906667Y-38502438D01*
X26906667Y-38502438D02*
X27001905Y-38454819D01*
X27001905Y-38454819D02*
X27240000Y-38454819D01*
X27240000Y-38454819D02*
X27335238Y-38502438D01*
X27335238Y-38502438D02*
X27382857Y-38550057D01*
X27382857Y-38550057D02*
X27430476Y-38645295D01*
X27430476Y-38645295D02*
X27430476Y-38740533D01*
X27430476Y-38740533D02*
X27382857Y-38883390D01*
X27382857Y-38883390D02*
X26811429Y-39454819D01*
X26811429Y-39454819D02*
X27430476Y-39454819D01*
X13361524Y-47407200D02*
X13504381Y-47454819D01*
X13504381Y-47454819D02*
X13742476Y-47454819D01*
X13742476Y-47454819D02*
X13837714Y-47407200D01*
X13837714Y-47407200D02*
X13885333Y-47359580D01*
X13885333Y-47359580D02*
X13932952Y-47264342D01*
X13932952Y-47264342D02*
X13932952Y-47169104D01*
X13932952Y-47169104D02*
X13885333Y-47073866D01*
X13885333Y-47073866D02*
X13837714Y-47026247D01*
X13837714Y-47026247D02*
X13742476Y-46978628D01*
X13742476Y-46978628D02*
X13552000Y-46931009D01*
X13552000Y-46931009D02*
X13456762Y-46883390D01*
X13456762Y-46883390D02*
X13409143Y-46835771D01*
X13409143Y-46835771D02*
X13361524Y-46740533D01*
X13361524Y-46740533D02*
X13361524Y-46645295D01*
X13361524Y-46645295D02*
X13409143Y-46550057D01*
X13409143Y-46550057D02*
X13456762Y-46502438D01*
X13456762Y-46502438D02*
X13552000Y-46454819D01*
X13552000Y-46454819D02*
X13790095Y-46454819D01*
X13790095Y-46454819D02*
X13932952Y-46502438D01*
X14218667Y-46454819D02*
X14790095Y-46454819D01*
X14504381Y-47454819D02*
X14504381Y-46454819D01*
X15313905Y-46454819D02*
X15504381Y-46454819D01*
X15504381Y-46454819D02*
X15599619Y-46502438D01*
X15599619Y-46502438D02*
X15694857Y-46597676D01*
X15694857Y-46597676D02*
X15742476Y-46788152D01*
X15742476Y-46788152D02*
X15742476Y-47121485D01*
X15742476Y-47121485D02*
X15694857Y-47311961D01*
X15694857Y-47311961D02*
X15599619Y-47407200D01*
X15599619Y-47407200D02*
X15504381Y-47454819D01*
X15504381Y-47454819D02*
X15313905Y-47454819D01*
X15313905Y-47454819D02*
X15218667Y-47407200D01*
X15218667Y-47407200D02*
X15123429Y-47311961D01*
X15123429Y-47311961D02*
X15075810Y-47121485D01*
X15075810Y-47121485D02*
X15075810Y-46788152D01*
X15075810Y-46788152D02*
X15123429Y-46597676D01*
X15123429Y-46597676D02*
X15218667Y-46502438D01*
X15218667Y-46502438D02*
X15313905Y-46454819D01*
X54816333Y-12146580D02*
X54768714Y-12194200D01*
X54768714Y-12194200D02*
X54625857Y-12241819D01*
X54625857Y-12241819D02*
X54530619Y-12241819D01*
X54530619Y-12241819D02*
X54387762Y-12194200D01*
X54387762Y-12194200D02*
X54292524Y-12098961D01*
X54292524Y-12098961D02*
X54244905Y-12003723D01*
X54244905Y-12003723D02*
X54197286Y-11813247D01*
X54197286Y-11813247D02*
X54197286Y-11670390D01*
X54197286Y-11670390D02*
X54244905Y-11479914D01*
X54244905Y-11479914D02*
X54292524Y-11384676D01*
X54292524Y-11384676D02*
X54387762Y-11289438D01*
X54387762Y-11289438D02*
X54530619Y-11241819D01*
X54530619Y-11241819D02*
X54625857Y-11241819D01*
X54625857Y-11241819D02*
X54768714Y-11289438D01*
X54768714Y-11289438D02*
X54816333Y-11337057D01*
X55768714Y-12241819D02*
X55197286Y-12241819D01*
X55483000Y-12241819D02*
X55483000Y-11241819D01*
X55483000Y-11241819D02*
X55387762Y-11384676D01*
X55387762Y-11384676D02*
X55292524Y-11479914D01*
X55292524Y-11479914D02*
X55197286Y-11527533D01*
X45313095Y-11303319D02*
X45313095Y-12112842D01*
X45313095Y-12112842D02*
X45360714Y-12208080D01*
X45360714Y-12208080D02*
X45408333Y-12255700D01*
X45408333Y-12255700D02*
X45503571Y-12303319D01*
X45503571Y-12303319D02*
X45694047Y-12303319D01*
X45694047Y-12303319D02*
X45789285Y-12255700D01*
X45789285Y-12255700D02*
X45836904Y-12208080D01*
X45836904Y-12208080D02*
X45884523Y-12112842D01*
X45884523Y-12112842D02*
X45884523Y-11303319D01*
X46884523Y-12303319D02*
X46313095Y-12303319D01*
X46598809Y-12303319D02*
X46598809Y-11303319D01*
X46598809Y-11303319D02*
X46503571Y-11446176D01*
X46503571Y-11446176D02*
X46408333Y-11541414D01*
X46408333Y-11541414D02*
X46313095Y-11589033D01*
X61783666Y-7720819D02*
X61783666Y-8435104D01*
X61783666Y-8435104D02*
X61736047Y-8577961D01*
X61736047Y-8577961D02*
X61640809Y-8673200D01*
X61640809Y-8673200D02*
X61497952Y-8720819D01*
X61497952Y-8720819D02*
X61402714Y-8720819D01*
X62259857Y-8720819D02*
X62259857Y-7720819D01*
X62259857Y-7720819D02*
X62640809Y-7720819D01*
X62640809Y-7720819D02*
X62736047Y-7768438D01*
X62736047Y-7768438D02*
X62783666Y-7816057D01*
X62783666Y-7816057D02*
X62831285Y-7911295D01*
X62831285Y-7911295D02*
X62831285Y-8054152D01*
X62831285Y-8054152D02*
X62783666Y-8149390D01*
X62783666Y-8149390D02*
X62736047Y-8197009D01*
X62736047Y-8197009D02*
X62640809Y-8244628D01*
X62640809Y-8244628D02*
X62259857Y-8244628D01*
X63783666Y-8720819D02*
X63212238Y-8720819D01*
X63497952Y-8720819D02*
X63497952Y-7720819D01*
X63497952Y-7720819D02*
X63402714Y-7863676D01*
X63402714Y-7863676D02*
X63307476Y-7958914D01*
X63307476Y-7958914D02*
X63212238Y-8006533D01*
D12*
%TO.C,S24*%
X48000000Y-31750000D02*
X48000000Y-30250000D01*
X46450000Y-27750000D02*
X42550000Y-27750000D01*
X42550000Y-34250000D02*
X46450000Y-34250000D01*
X41000000Y-30250000D02*
X41000000Y-31750000D01*
%TO.C,S93*%
X36000000Y-87750000D02*
X36000000Y-86250000D01*
X34450000Y-83750000D02*
X30550000Y-83750000D01*
X30550000Y-90250000D02*
X34450000Y-90250000D01*
X29000000Y-86250000D02*
X29000000Y-87750000D01*
%TO.C,S55*%
X60000000Y-55750000D02*
X60000000Y-54250000D01*
X58450000Y-51750000D02*
X54550000Y-51750000D01*
X54550000Y-58250000D02*
X58450000Y-58250000D01*
X53000000Y-54250000D02*
X53000000Y-55750000D01*
%TO.C,S61*%
X12000000Y-63750000D02*
X12000000Y-62250000D01*
X10450000Y-59750000D02*
X6550000Y-59750000D01*
X6550000Y-66250000D02*
X10450000Y-66250000D01*
X5000000Y-62250000D02*
X5000000Y-63750000D01*
%TO.C,S75*%
X60000000Y-71750000D02*
X60000000Y-70250000D01*
X58450000Y-67750000D02*
X54550000Y-67750000D01*
X54550000Y-74250000D02*
X58450000Y-74250000D01*
X53000000Y-70250000D02*
X53000000Y-71750000D01*
%TO.C,S52*%
X24000000Y-55750000D02*
X24000000Y-54250000D01*
X22450000Y-51750000D02*
X18550000Y-51750000D01*
X18550000Y-58250000D02*
X22450000Y-58250000D01*
X17000000Y-54250000D02*
X17000000Y-55750000D01*
%TO.C,S81*%
X12000000Y-79750000D02*
X12000000Y-78250000D01*
X10450000Y-75750000D02*
X6550000Y-75750000D01*
X6550000Y-82250000D02*
X10450000Y-82250000D01*
X5000000Y-78250000D02*
X5000000Y-79750000D01*
%TO.C,S00*%
X24000000Y-87750000D02*
X24000000Y-86250000D01*
X22450000Y-83750000D02*
X18550000Y-83750000D01*
X18550000Y-90250000D02*
X22450000Y-90250000D01*
X17000000Y-86250000D02*
X17000000Y-87750000D01*
%TO.C,S05*%
X36000000Y-71750000D02*
X36000000Y-70250000D01*
X34450000Y-67750000D02*
X30550000Y-67750000D01*
X30550000Y-74250000D02*
X34450000Y-74250000D01*
X29000000Y-70250000D02*
X29000000Y-71750000D01*
%TO.C,S12*%
X24000000Y-23750000D02*
X24000000Y-22250000D01*
X22450000Y-19750000D02*
X18550000Y-19750000D01*
X18550000Y-26250000D02*
X22450000Y-26250000D01*
X17000000Y-22250000D02*
X17000000Y-23750000D01*
%TO.C,S95*%
X60000000Y-87750000D02*
X60000000Y-86250000D01*
X58450000Y-83750000D02*
X54550000Y-83750000D01*
X54550000Y-90250000D02*
X58450000Y-90250000D01*
X53000000Y-86250000D02*
X53000000Y-87750000D01*
%TO.C,S71*%
X12000000Y-71750000D02*
X12000000Y-70250000D01*
X10450000Y-67750000D02*
X6550000Y-67750000D01*
X6550000Y-74250000D02*
X10450000Y-74250000D01*
X5000000Y-70250000D02*
X5000000Y-71750000D01*
%TO.C,S91*%
X12000000Y-87750000D02*
X12000000Y-86250000D01*
X10450000Y-83750000D02*
X6550000Y-83750000D01*
X6550000Y-90250000D02*
X10450000Y-90250000D01*
X5000000Y-86250000D02*
X5000000Y-87750000D01*
%TO.C,S09*%
X48000000Y-63750000D02*
X48000000Y-62250000D01*
X46450000Y-59750000D02*
X42550000Y-59750000D01*
X42550000Y-66250000D02*
X46450000Y-66250000D01*
X41000000Y-62250000D02*
X41000000Y-63750000D01*
%TO.C,S43*%
X36000000Y-47750000D02*
X36000000Y-46250000D01*
X34450000Y-43750000D02*
X30550000Y-43750000D01*
X30550000Y-50250000D02*
X34450000Y-50250000D01*
X29000000Y-46250000D02*
X29000000Y-47750000D01*
%TO.C,S53*%
X36000000Y-55750000D02*
X36000000Y-54250000D01*
X34450000Y-51750000D02*
X30550000Y-51750000D01*
X30550000Y-58250000D02*
X34450000Y-58250000D01*
X29000000Y-54250000D02*
X29000000Y-55750000D01*
%TO.C,S11*%
X12000000Y-23750000D02*
X12000000Y-22250000D01*
X10450000Y-19750000D02*
X6550000Y-19750000D01*
X6550000Y-26250000D02*
X10450000Y-26250000D01*
X5000000Y-22250000D02*
X5000000Y-23750000D01*
%TO.C,S21*%
X12000000Y-31750000D02*
X12000000Y-30250000D01*
X10450000Y-27750000D02*
X6550000Y-27750000D01*
X6550000Y-34250000D02*
X10450000Y-34250000D01*
X5000000Y-30250000D02*
X5000000Y-31750000D01*
%TO.C,S34*%
X48000000Y-39750000D02*
X48000000Y-38250000D01*
X46450000Y-35750000D02*
X42550000Y-35750000D01*
X42550000Y-42250000D02*
X46450000Y-42250000D01*
X41000000Y-38250000D02*
X41000000Y-39750000D01*
%TO.C,S32*%
X24000000Y-39750000D02*
X24000000Y-38250000D01*
X22450000Y-35750000D02*
X18550000Y-35750000D01*
X18550000Y-42250000D02*
X22450000Y-42250000D01*
X17000000Y-38250000D02*
X17000000Y-39750000D01*
%TO.C,S25*%
X60000000Y-31750000D02*
X60000000Y-30250000D01*
X58450000Y-27750000D02*
X54550000Y-27750000D01*
X54550000Y-34250000D02*
X58450000Y-34250000D01*
X53000000Y-30250000D02*
X53000000Y-31750000D01*
%TO.C,S02*%
X36000000Y-79750000D02*
X36000000Y-78250000D01*
X34450000Y-75750000D02*
X30550000Y-75750000D01*
X30550000Y-82250000D02*
X34450000Y-82250000D01*
X29000000Y-78250000D02*
X29000000Y-79750000D01*
%TO.C,S35*%
X60000000Y-39750000D02*
X60000000Y-38250000D01*
X58450000Y-35750000D02*
X54550000Y-35750000D01*
X54550000Y-42250000D02*
X58450000Y-42250000D01*
X53000000Y-38250000D02*
X53000000Y-39750000D01*
%TO.C,S44*%
X48000000Y-47750000D02*
X48000000Y-46250000D01*
X46450000Y-43750000D02*
X42550000Y-43750000D01*
X42550000Y-50250000D02*
X46450000Y-50250000D01*
X41000000Y-46250000D02*
X41000000Y-47750000D01*
%TO.C,S07*%
X24000000Y-63750000D02*
X24000000Y-62250000D01*
X22450000Y-59750000D02*
X18550000Y-59750000D01*
X18550000Y-66250000D02*
X22450000Y-66250000D01*
X17000000Y-62250000D02*
X17000000Y-63750000D01*
%TO.C,S65*%
X60000000Y-63750000D02*
X60000000Y-62250000D01*
X58450000Y-59750000D02*
X54550000Y-59750000D01*
X54550000Y-66250000D02*
X58450000Y-66250000D01*
X53000000Y-62250000D02*
X53000000Y-63750000D01*
%TO.C,S45*%
X60000000Y-47750000D02*
X60000000Y-46250000D01*
X58450000Y-43750000D02*
X54550000Y-43750000D01*
X54550000Y-50250000D02*
X58450000Y-50250000D01*
X53000000Y-46250000D02*
X53000000Y-47750000D01*
%TO.C,S08*%
X36000000Y-63750000D02*
X36000000Y-62250000D01*
X34450000Y-59750000D02*
X30550000Y-59750000D01*
X30550000Y-66250000D02*
X34450000Y-66250000D01*
X29000000Y-62250000D02*
X29000000Y-63750000D01*
%TO.C,S85*%
X60000000Y-79750000D02*
X60000000Y-78250000D01*
X58450000Y-75750000D02*
X54550000Y-75750000D01*
X54550000Y-82250000D02*
X58450000Y-82250000D01*
X53000000Y-78250000D02*
X53000000Y-79750000D01*
%TO.C,S04*%
X24000000Y-71750000D02*
X24000000Y-70250000D01*
X22450000Y-67750000D02*
X18550000Y-67750000D01*
X18550000Y-74250000D02*
X22450000Y-74250000D01*
X17000000Y-70250000D02*
X17000000Y-71750000D01*
%TO.C,S22*%
X24000000Y-31750000D02*
X24000000Y-30250000D01*
X22450000Y-27750000D02*
X18550000Y-27750000D01*
X18550000Y-34250000D02*
X22450000Y-34250000D01*
X17000000Y-30250000D02*
X17000000Y-31750000D01*
%TO.C,S14*%
X48000000Y-23750000D02*
X48000000Y-22250000D01*
X46450000Y-19750000D02*
X42550000Y-19750000D01*
X42550000Y-26250000D02*
X46450000Y-26250000D01*
X41000000Y-22250000D02*
X41000000Y-23750000D01*
%TO.C,S15*%
X60000000Y-23750000D02*
X60000000Y-22250000D01*
X58450000Y-19750000D02*
X54550000Y-19750000D01*
X54550000Y-26250000D02*
X58450000Y-26250000D01*
X53000000Y-22250000D02*
X53000000Y-23750000D01*
%TO.C,S51*%
X12000000Y-55750000D02*
X12000000Y-54250000D01*
X10450000Y-51750000D02*
X6550000Y-51750000D01*
X6550000Y-58250000D02*
X10450000Y-58250000D01*
X5000000Y-54250000D02*
X5000000Y-55750000D01*
%TO.C,S03*%
X48000000Y-79750000D02*
X48000000Y-78250000D01*
X46450000Y-75750000D02*
X42550000Y-75750000D01*
X42550000Y-82250000D02*
X46450000Y-82250000D01*
X41000000Y-78250000D02*
X41000000Y-79750000D01*
%TO.C,S31*%
X12000000Y-39750000D02*
X12000000Y-38250000D01*
X10450000Y-35750000D02*
X6550000Y-35750000D01*
X6550000Y-42250000D02*
X10450000Y-42250000D01*
X5000000Y-38250000D02*
X5000000Y-39750000D01*
%TO.C,S01*%
X24000000Y-79750000D02*
X24000000Y-78250000D01*
X22450000Y-75750000D02*
X18550000Y-75750000D01*
X18550000Y-82250000D02*
X22450000Y-82250000D01*
X17000000Y-78250000D02*
X17000000Y-79750000D01*
%TO.C,S13*%
X36000000Y-23750000D02*
X36000000Y-22250000D01*
X34450000Y-19750000D02*
X30550000Y-19750000D01*
X30550000Y-26250000D02*
X34450000Y-26250000D01*
X29000000Y-22250000D02*
X29000000Y-23750000D01*
%TO.C,S06*%
X48000000Y-71750000D02*
X48000000Y-70250000D01*
X46450000Y-67750000D02*
X42550000Y-67750000D01*
X42550000Y-74250000D02*
X46450000Y-74250000D01*
X41000000Y-70250000D02*
X41000000Y-71750000D01*
%TO.C,S94*%
X48000000Y-87750000D02*
X48000000Y-86250000D01*
X46450000Y-83750000D02*
X42550000Y-83750000D01*
X42550000Y-90250000D02*
X46450000Y-90250000D01*
X41000000Y-86250000D02*
X41000000Y-87750000D01*
%TO.C,S23*%
X36000000Y-31750000D02*
X36000000Y-30250000D01*
X34450000Y-27750000D02*
X30550000Y-27750000D01*
X30550000Y-34250000D02*
X34450000Y-34250000D01*
X29000000Y-30250000D02*
X29000000Y-31750000D01*
%TO.C,S41*%
X12000000Y-47750000D02*
X12000000Y-46250000D01*
X10450000Y-43750000D02*
X6550000Y-43750000D01*
X6550000Y-50250000D02*
X10450000Y-50250000D01*
X5000000Y-46250000D02*
X5000000Y-47750000D01*
%TO.C,S54*%
X48000000Y-55750000D02*
X48000000Y-54250000D01*
X46450000Y-51750000D02*
X42550000Y-51750000D01*
X42550000Y-58250000D02*
X46450000Y-58250000D01*
X41000000Y-54250000D02*
X41000000Y-55750000D01*
%TO.C,S33*%
X36000000Y-39750000D02*
X36000000Y-38250000D01*
X34450000Y-35750000D02*
X30550000Y-35750000D01*
X30550000Y-42250000D02*
X34450000Y-42250000D01*
X29000000Y-38250000D02*
X29000000Y-39750000D01*
%TO.C,S42*%
X24000000Y-47750000D02*
X24000000Y-46250000D01*
X22450000Y-43750000D02*
X18550000Y-43750000D01*
X18550000Y-50250000D02*
X22450000Y-50250000D01*
X17000000Y-46250000D02*
X17000000Y-47750000D01*
%TO.C,C1*%
X53640000Y-11233748D02*
X53640000Y-12656252D01*
X50920000Y-11233748D02*
X50920000Y-12656252D01*
%TO.C,JP1*%
X59961000Y-9155000D02*
X60561000Y-9155000D01*
X61261000Y-9855000D02*
X61261000Y-11255000D01*
X59261000Y-11255000D02*
X59261000Y-9855000D01*
X60561000Y-11955000D02*
X59961000Y-11955000D01*
X60561000Y-9155000D02*
G75*
G02*
X61261000Y-9855000I1J-699999D01*
G01*
X59261000Y-9855000D02*
G75*
G02*
X59961000Y-9155000I699999J1D01*
G01*
X61261000Y-11255000D02*
G75*
G02*
X60561000Y-11955000I-700000J0D01*
G01*
X59961000Y-11955000D02*
G75*
G02*
X59261000Y-11255000I0J700000D01*
G01*
%TD*%
M02*
