%TF.GenerationSoftware,KiCad,Pcbnew,9.0.7*%
%TF.CreationDate,2026-07-07T08:50:30+02:00*%
%TF.ProjectId,BarePi_CalcKey,42617265-5069-45f4-9361-6c634b65792e,rev?*%
%TF.SameCoordinates,Original*%
%TF.FileFunction,Other,User*%
%FSLAX46Y46*%
G04 Gerber Fmt 4.6, Leading zero omitted, Abs format (unit mm)*
G04 Created by KiCad (PCBNEW 9.0.7) date 2026-07-07 08:50:30*
%MOMM*%
%LPD*%
G01*
G04 APERTURE LIST*
%ADD10C,0.050000*%
G04 APERTURE END LIST*
%TO.C,R2*%
D10*
X23875000Y-14355000D02*
X26135000Y-14355000D01*
X26135000Y-9455000D01*
X23875000Y-9455000D01*
X23875000Y-14355000D01*
%TO.C,R1*%
X20515000Y-14355000D02*
X22775000Y-14355000D01*
X22775000Y-9455000D01*
X20515000Y-9455000D01*
X20515000Y-14355000D01*
%TO.C,S24*%
X39750000Y-27250000D02*
X39750000Y-27500000D01*
X39750000Y-34500000D02*
X39750000Y-27500000D01*
X39750000Y-34750000D02*
X39750000Y-34500000D01*
X40000000Y-27250000D02*
X39750000Y-27250000D01*
X40000000Y-27250000D02*
X49000000Y-27250000D01*
X40000000Y-34750000D02*
X39750000Y-34750000D01*
X49000000Y-34750000D02*
X40000000Y-34750000D01*
X49250000Y-27250000D02*
X49000000Y-27250000D01*
X49250000Y-27500000D02*
X49250000Y-27250000D01*
X49250000Y-27500000D02*
X49250000Y-34500000D01*
X49250000Y-34500000D02*
X49250000Y-34750000D01*
X49250000Y-34750000D02*
X49000000Y-34750000D01*
%TO.C,J1*%
X58400000Y-80000D02*
X6600000Y-80000D01*
X6600000Y-8540000D01*
X58400000Y-8540000D01*
X58400000Y-80000D01*
%TO.C,S93*%
X27750000Y-83250000D02*
X27750000Y-83500000D01*
X27750000Y-90500000D02*
X27750000Y-83500000D01*
X27750000Y-90750000D02*
X27750000Y-90500000D01*
X28000000Y-83250000D02*
X27750000Y-83250000D01*
X28000000Y-83250000D02*
X37000000Y-83250000D01*
X28000000Y-90750000D02*
X27750000Y-90750000D01*
X37000000Y-90750000D02*
X28000000Y-90750000D01*
X37250000Y-83250000D02*
X37000000Y-83250000D01*
X37250000Y-83500000D02*
X37250000Y-83250000D01*
X37250000Y-83500000D02*
X37250000Y-90500000D01*
X37250000Y-90500000D02*
X37250000Y-90750000D01*
X37250000Y-90750000D02*
X37000000Y-90750000D01*
%TO.C,J2*%
X6580000Y-92630000D02*
X58380000Y-92630000D01*
X6580000Y-106000000D02*
X6580000Y-92630000D01*
X58380000Y-92630000D02*
X58380000Y-106000000D01*
X58380000Y-106000000D02*
X6580000Y-106000000D01*
%TO.C,S55*%
X51750000Y-51250000D02*
X51750000Y-51500000D01*
X51750000Y-58500000D02*
X51750000Y-51500000D01*
X51750000Y-58750000D02*
X51750000Y-58500000D01*
X52000000Y-51250000D02*
X51750000Y-51250000D01*
X52000000Y-51250000D02*
X61000000Y-51250000D01*
X52000000Y-58750000D02*
X51750000Y-58750000D01*
X61000000Y-58750000D02*
X52000000Y-58750000D01*
X61250000Y-51250000D02*
X61000000Y-51250000D01*
X61250000Y-51500000D02*
X61250000Y-51250000D01*
X61250000Y-51500000D02*
X61250000Y-58500000D01*
X61250000Y-58500000D02*
X61250000Y-58750000D01*
X61250000Y-58750000D02*
X61000000Y-58750000D01*
%TO.C,S61*%
X3750000Y-59250000D02*
X3750000Y-59500000D01*
X3750000Y-66500000D02*
X3750000Y-59500000D01*
X3750000Y-66750000D02*
X3750000Y-66500000D01*
X4000000Y-59250000D02*
X3750000Y-59250000D01*
X4000000Y-59250000D02*
X13000000Y-59250000D01*
X4000000Y-66750000D02*
X3750000Y-66750000D01*
X13000000Y-66750000D02*
X4000000Y-66750000D01*
X13250000Y-59250000D02*
X13000000Y-59250000D01*
X13250000Y-59500000D02*
X13250000Y-59250000D01*
X13250000Y-59500000D02*
X13250000Y-66500000D01*
X13250000Y-66500000D02*
X13250000Y-66750000D01*
X13250000Y-66750000D02*
X13000000Y-66750000D01*
%TO.C,C1*%
X53880000Y-9465000D02*
X50680000Y-9465000D01*
X50680000Y-14425000D01*
X53880000Y-14425000D01*
X53880000Y-9465000D01*
%TO.C,S75*%
X51750000Y-67250000D02*
X51750000Y-67500000D01*
X51750000Y-74500000D02*
X51750000Y-67500000D01*
X51750000Y-74750000D02*
X51750000Y-74500000D01*
X52000000Y-67250000D02*
X51750000Y-67250000D01*
X52000000Y-67250000D02*
X61000000Y-67250000D01*
X52000000Y-74750000D02*
X51750000Y-74750000D01*
X61000000Y-74750000D02*
X52000000Y-74750000D01*
X61250000Y-67250000D02*
X61000000Y-67250000D01*
X61250000Y-67500000D02*
X61250000Y-67250000D01*
X61250000Y-67500000D02*
X61250000Y-74500000D01*
X61250000Y-74500000D02*
X61250000Y-74750000D01*
X61250000Y-74750000D02*
X61000000Y-74750000D01*
%TO.C,S52*%
X15750000Y-51250000D02*
X15750000Y-51500000D01*
X15750000Y-58500000D02*
X15750000Y-51500000D01*
X15750000Y-58750000D02*
X15750000Y-58500000D01*
X16000000Y-51250000D02*
X15750000Y-51250000D01*
X16000000Y-51250000D02*
X25000000Y-51250000D01*
X16000000Y-58750000D02*
X15750000Y-58750000D01*
X25000000Y-58750000D02*
X16000000Y-58750000D01*
X25250000Y-51250000D02*
X25000000Y-51250000D01*
X25250000Y-51500000D02*
X25250000Y-51250000D01*
X25250000Y-51500000D02*
X25250000Y-58500000D01*
X25250000Y-58500000D02*
X25250000Y-58750000D01*
X25250000Y-58750000D02*
X25000000Y-58750000D01*
%TO.C,S81*%
X3750000Y-75250000D02*
X3750000Y-75500000D01*
X3750000Y-82500000D02*
X3750000Y-75500000D01*
X3750000Y-82750000D02*
X3750000Y-82500000D01*
X4000000Y-75250000D02*
X3750000Y-75250000D01*
X4000000Y-75250000D02*
X13000000Y-75250000D01*
X4000000Y-82750000D02*
X3750000Y-82750000D01*
X13000000Y-82750000D02*
X4000000Y-82750000D01*
X13250000Y-75250000D02*
X13000000Y-75250000D01*
X13250000Y-75500000D02*
X13250000Y-75250000D01*
X13250000Y-75500000D02*
X13250000Y-82500000D01*
X13250000Y-82500000D02*
X13250000Y-82750000D01*
X13250000Y-82750000D02*
X13000000Y-82750000D01*
%TO.C,S00*%
X15750000Y-83250000D02*
X15750000Y-83500000D01*
X15750000Y-90500000D02*
X15750000Y-83500000D01*
X15750000Y-90750000D02*
X15750000Y-90500000D01*
X16000000Y-83250000D02*
X15750000Y-83250000D01*
X16000000Y-83250000D02*
X25000000Y-83250000D01*
X16000000Y-90750000D02*
X15750000Y-90750000D01*
X25000000Y-90750000D02*
X16000000Y-90750000D01*
X25250000Y-83250000D02*
X25000000Y-83250000D01*
X25250000Y-83500000D02*
X25250000Y-83250000D01*
X25250000Y-83500000D02*
X25250000Y-90500000D01*
X25250000Y-90500000D02*
X25250000Y-90750000D01*
X25250000Y-90750000D02*
X25000000Y-90750000D01*
%TO.C,S05*%
X27750000Y-67250000D02*
X27750000Y-67500000D01*
X27750000Y-74500000D02*
X27750000Y-67500000D01*
X27750000Y-74750000D02*
X27750000Y-74500000D01*
X28000000Y-67250000D02*
X27750000Y-67250000D01*
X28000000Y-67250000D02*
X37000000Y-67250000D01*
X28000000Y-74750000D02*
X27750000Y-74750000D01*
X37000000Y-74750000D02*
X28000000Y-74750000D01*
X37250000Y-67250000D02*
X37000000Y-67250000D01*
X37250000Y-67500000D02*
X37250000Y-67250000D01*
X37250000Y-67500000D02*
X37250000Y-74500000D01*
X37250000Y-74500000D02*
X37250000Y-74750000D01*
X37250000Y-74750000D02*
X37000000Y-74750000D01*
%TO.C,REF\u002A\u002A*%
X64000000Y-3500000D02*
G75*
G02*
X59000000Y-3500000I-2500000J0D01*
G01*
X59000000Y-3500000D02*
G75*
G02*
X64000000Y-3500000I2500000J0D01*
G01*
%TO.C,S12*%
X15750000Y-19250000D02*
X15750000Y-19500000D01*
X15750000Y-26500000D02*
X15750000Y-19500000D01*
X15750000Y-26750000D02*
X15750000Y-26500000D01*
X16000000Y-19250000D02*
X15750000Y-19250000D01*
X16000000Y-19250000D02*
X25000000Y-19250000D01*
X16000000Y-26750000D02*
X15750000Y-26750000D01*
X25000000Y-26750000D02*
X16000000Y-26750000D01*
X25250000Y-19250000D02*
X25000000Y-19250000D01*
X25250000Y-19500000D02*
X25250000Y-19250000D01*
X25250000Y-19500000D02*
X25250000Y-26500000D01*
X25250000Y-26500000D02*
X25250000Y-26750000D01*
X25250000Y-26750000D02*
X25000000Y-26750000D01*
%TO.C,S95*%
X51750000Y-83250000D02*
X51750000Y-83500000D01*
X51750000Y-90500000D02*
X51750000Y-83500000D01*
X51750000Y-90750000D02*
X51750000Y-90500000D01*
X52000000Y-83250000D02*
X51750000Y-83250000D01*
X52000000Y-83250000D02*
X61000000Y-83250000D01*
X52000000Y-90750000D02*
X51750000Y-90750000D01*
X61000000Y-90750000D02*
X52000000Y-90750000D01*
X61250000Y-83250000D02*
X61000000Y-83250000D01*
X61250000Y-83500000D02*
X61250000Y-83250000D01*
X61250000Y-83500000D02*
X61250000Y-90500000D01*
X61250000Y-90500000D02*
X61250000Y-90750000D01*
X61250000Y-90750000D02*
X61000000Y-90750000D01*
%TO.C,S71*%
X3750000Y-67250000D02*
X3750000Y-67500000D01*
X3750000Y-74500000D02*
X3750000Y-67500000D01*
X3750000Y-74750000D02*
X3750000Y-74500000D01*
X4000000Y-67250000D02*
X3750000Y-67250000D01*
X4000000Y-67250000D02*
X13000000Y-67250000D01*
X4000000Y-74750000D02*
X3750000Y-74750000D01*
X13000000Y-74750000D02*
X4000000Y-74750000D01*
X13250000Y-67250000D02*
X13000000Y-67250000D01*
X13250000Y-67500000D02*
X13250000Y-67250000D01*
X13250000Y-67500000D02*
X13250000Y-74500000D01*
X13250000Y-74500000D02*
X13250000Y-74750000D01*
X13250000Y-74750000D02*
X13000000Y-74750000D01*
%TO.C,S91*%
X3750000Y-83250000D02*
X3750000Y-83500000D01*
X3750000Y-90500000D02*
X3750000Y-83500000D01*
X3750000Y-90750000D02*
X3750000Y-90500000D01*
X4000000Y-83250000D02*
X3750000Y-83250000D01*
X4000000Y-83250000D02*
X13000000Y-83250000D01*
X4000000Y-90750000D02*
X3750000Y-90750000D01*
X13000000Y-90750000D02*
X4000000Y-90750000D01*
X13250000Y-83250000D02*
X13000000Y-83250000D01*
X13250000Y-83500000D02*
X13250000Y-83250000D01*
X13250000Y-83500000D02*
X13250000Y-90500000D01*
X13250000Y-90500000D02*
X13250000Y-90750000D01*
X13250000Y-90750000D02*
X13000000Y-90750000D01*
%TO.C,REF\u002A\u002A*%
X6000000Y-102500000D02*
G75*
G02*
X1000000Y-102500000I-2500000J0D01*
G01*
X1000000Y-102500000D02*
G75*
G02*
X6000000Y-102500000I2500000J0D01*
G01*
%TO.C,S09*%
X39750000Y-59250000D02*
X39750000Y-59500000D01*
X39750000Y-66500000D02*
X39750000Y-59500000D01*
X39750000Y-66750000D02*
X39750000Y-66500000D01*
X40000000Y-59250000D02*
X39750000Y-59250000D01*
X40000000Y-59250000D02*
X49000000Y-59250000D01*
X40000000Y-66750000D02*
X39750000Y-66750000D01*
X49000000Y-66750000D02*
X40000000Y-66750000D01*
X49250000Y-59250000D02*
X49000000Y-59250000D01*
X49250000Y-59500000D02*
X49250000Y-59250000D01*
X49250000Y-59500000D02*
X49250000Y-66500000D01*
X49250000Y-66500000D02*
X49250000Y-66750000D01*
X49250000Y-66750000D02*
X49000000Y-66750000D01*
%TO.C,S43*%
X27750000Y-43250000D02*
X27750000Y-43500000D01*
X27750000Y-50500000D02*
X27750000Y-43500000D01*
X27750000Y-50750000D02*
X27750000Y-50500000D01*
X28000000Y-43250000D02*
X27750000Y-43250000D01*
X28000000Y-43250000D02*
X37000000Y-43250000D01*
X28000000Y-50750000D02*
X27750000Y-50750000D01*
X37000000Y-50750000D02*
X28000000Y-50750000D01*
X37250000Y-43250000D02*
X37000000Y-43250000D01*
X37250000Y-43500000D02*
X37250000Y-43250000D01*
X37250000Y-43500000D02*
X37250000Y-50500000D01*
X37250000Y-50500000D02*
X37250000Y-50750000D01*
X37250000Y-50750000D02*
X37000000Y-50750000D01*
%TO.C,S53*%
X27750000Y-51250000D02*
X27750000Y-51500000D01*
X27750000Y-58500000D02*
X27750000Y-51500000D01*
X27750000Y-58750000D02*
X27750000Y-58500000D01*
X28000000Y-51250000D02*
X27750000Y-51250000D01*
X28000000Y-51250000D02*
X37000000Y-51250000D01*
X28000000Y-58750000D02*
X27750000Y-58750000D01*
X37000000Y-58750000D02*
X28000000Y-58750000D01*
X37250000Y-51250000D02*
X37000000Y-51250000D01*
X37250000Y-51500000D02*
X37250000Y-51250000D01*
X37250000Y-51500000D02*
X37250000Y-58500000D01*
X37250000Y-58500000D02*
X37250000Y-58750000D01*
X37250000Y-58750000D02*
X37000000Y-58750000D01*
%TO.C,S11*%
X3750000Y-19250000D02*
X3750000Y-19500000D01*
X3750000Y-26500000D02*
X3750000Y-19500000D01*
X3750000Y-26750000D02*
X3750000Y-26500000D01*
X4000000Y-19250000D02*
X3750000Y-19250000D01*
X4000000Y-19250000D02*
X13000000Y-19250000D01*
X4000000Y-26750000D02*
X3750000Y-26750000D01*
X13000000Y-26750000D02*
X4000000Y-26750000D01*
X13250000Y-19250000D02*
X13000000Y-19250000D01*
X13250000Y-19500000D02*
X13250000Y-19250000D01*
X13250000Y-19500000D02*
X13250000Y-26500000D01*
X13250000Y-26500000D02*
X13250000Y-26750000D01*
X13250000Y-26750000D02*
X13000000Y-26750000D01*
%TO.C,S21*%
X3750000Y-27250000D02*
X3750000Y-27500000D01*
X3750000Y-34500000D02*
X3750000Y-27500000D01*
X3750000Y-34750000D02*
X3750000Y-34500000D01*
X4000000Y-27250000D02*
X3750000Y-27250000D01*
X4000000Y-27250000D02*
X13000000Y-27250000D01*
X4000000Y-34750000D02*
X3750000Y-34750000D01*
X13000000Y-34750000D02*
X4000000Y-34750000D01*
X13250000Y-27250000D02*
X13000000Y-27250000D01*
X13250000Y-27500000D02*
X13250000Y-27250000D01*
X13250000Y-27500000D02*
X13250000Y-34500000D01*
X13250000Y-34500000D02*
X13250000Y-34750000D01*
X13250000Y-34750000D02*
X13000000Y-34750000D01*
%TO.C,S34*%
X39750000Y-35250000D02*
X39750000Y-35500000D01*
X39750000Y-42500000D02*
X39750000Y-35500000D01*
X39750000Y-42750000D02*
X39750000Y-42500000D01*
X40000000Y-35250000D02*
X39750000Y-35250000D01*
X40000000Y-35250000D02*
X49000000Y-35250000D01*
X40000000Y-42750000D02*
X39750000Y-42750000D01*
X49000000Y-42750000D02*
X40000000Y-42750000D01*
X49250000Y-35250000D02*
X49000000Y-35250000D01*
X49250000Y-35500000D02*
X49250000Y-35250000D01*
X49250000Y-35500000D02*
X49250000Y-42500000D01*
X49250000Y-42500000D02*
X49250000Y-42750000D01*
X49250000Y-42750000D02*
X49000000Y-42750000D01*
%TO.C,S32*%
X15750000Y-35250000D02*
X15750000Y-35500000D01*
X15750000Y-42500000D02*
X15750000Y-35500000D01*
X15750000Y-42750000D02*
X15750000Y-42500000D01*
X16000000Y-35250000D02*
X15750000Y-35250000D01*
X16000000Y-35250000D02*
X25000000Y-35250000D01*
X16000000Y-42750000D02*
X15750000Y-42750000D01*
X25000000Y-42750000D02*
X16000000Y-42750000D01*
X25250000Y-35250000D02*
X25000000Y-35250000D01*
X25250000Y-35500000D02*
X25250000Y-35250000D01*
X25250000Y-35500000D02*
X25250000Y-42500000D01*
X25250000Y-42500000D02*
X25250000Y-42750000D01*
X25250000Y-42750000D02*
X25000000Y-42750000D01*
%TO.C,J3*%
X12020000Y-18770000D02*
X-290000Y-18770000D01*
X-290000Y-10150000D01*
X12020000Y-10150000D01*
X12020000Y-18770000D01*
%TO.C,S25*%
X51750000Y-27250000D02*
X51750000Y-27500000D01*
X51750000Y-34500000D02*
X51750000Y-27500000D01*
X51750000Y-34750000D02*
X51750000Y-34500000D01*
X52000000Y-27250000D02*
X51750000Y-27250000D01*
X52000000Y-27250000D02*
X61000000Y-27250000D01*
X52000000Y-34750000D02*
X51750000Y-34750000D01*
X61000000Y-34750000D02*
X52000000Y-34750000D01*
X61250000Y-27250000D02*
X61000000Y-27250000D01*
X61250000Y-27500000D02*
X61250000Y-27250000D01*
X61250000Y-27500000D02*
X61250000Y-34500000D01*
X61250000Y-34500000D02*
X61250000Y-34750000D01*
X61250000Y-34750000D02*
X61000000Y-34750000D01*
%TO.C,S02*%
X27750000Y-75250000D02*
X27750000Y-75500000D01*
X27750000Y-82500000D02*
X27750000Y-75500000D01*
X27750000Y-82750000D02*
X27750000Y-82500000D01*
X28000000Y-75250000D02*
X27750000Y-75250000D01*
X28000000Y-75250000D02*
X37000000Y-75250000D01*
X28000000Y-82750000D02*
X27750000Y-82750000D01*
X37000000Y-82750000D02*
X28000000Y-82750000D01*
X37250000Y-75250000D02*
X37000000Y-75250000D01*
X37250000Y-75500000D02*
X37250000Y-75250000D01*
X37250000Y-75500000D02*
X37250000Y-82500000D01*
X37250000Y-82500000D02*
X37250000Y-82750000D01*
X37250000Y-82750000D02*
X37000000Y-82750000D01*
%TO.C,S35*%
X51750000Y-35250000D02*
X51750000Y-35500000D01*
X51750000Y-42500000D02*
X51750000Y-35500000D01*
X51750000Y-42750000D02*
X51750000Y-42500000D01*
X52000000Y-35250000D02*
X51750000Y-35250000D01*
X52000000Y-35250000D02*
X61000000Y-35250000D01*
X52000000Y-42750000D02*
X51750000Y-42750000D01*
X61000000Y-42750000D02*
X52000000Y-42750000D01*
X61250000Y-35250000D02*
X61000000Y-35250000D01*
X61250000Y-35500000D02*
X61250000Y-35250000D01*
X61250000Y-35500000D02*
X61250000Y-42500000D01*
X61250000Y-42500000D02*
X61250000Y-42750000D01*
X61250000Y-42750000D02*
X61000000Y-42750000D01*
%TO.C,U1*%
X37215000Y-11188500D02*
X38615000Y-11188500D01*
X37215000Y-17948500D02*
X37215000Y-11188500D01*
X38615000Y-11068500D02*
X43515000Y-11068500D01*
X38615000Y-11188500D02*
X38615000Y-11068500D01*
X38615000Y-17948500D02*
X37215000Y-17948500D01*
X38615000Y-18068500D02*
X38615000Y-17948500D01*
X43515000Y-11068500D02*
X43515000Y-11188500D01*
X43515000Y-11188500D02*
X44915000Y-11188500D01*
X43515000Y-17948500D02*
X43515000Y-18068500D01*
X43515000Y-18068500D02*
X38615000Y-18068500D01*
X44915000Y-11188500D02*
X44915000Y-17948500D01*
X44915000Y-17948500D02*
X43515000Y-17948500D01*
%TO.C,S44*%
X39750000Y-43250000D02*
X39750000Y-43500000D01*
X39750000Y-50500000D02*
X39750000Y-43500000D01*
X39750000Y-50750000D02*
X39750000Y-50500000D01*
X40000000Y-43250000D02*
X39750000Y-43250000D01*
X40000000Y-43250000D02*
X49000000Y-43250000D01*
X40000000Y-50750000D02*
X39750000Y-50750000D01*
X49000000Y-50750000D02*
X40000000Y-50750000D01*
X49250000Y-43250000D02*
X49000000Y-43250000D01*
X49250000Y-43500000D02*
X49250000Y-43250000D01*
X49250000Y-43500000D02*
X49250000Y-50500000D01*
X49250000Y-50500000D02*
X49250000Y-50750000D01*
X49250000Y-50750000D02*
X49000000Y-50750000D01*
%TO.C,S07*%
X15750000Y-59250000D02*
X15750000Y-59500000D01*
X15750000Y-66500000D02*
X15750000Y-59500000D01*
X15750000Y-66750000D02*
X15750000Y-66500000D01*
X16000000Y-59250000D02*
X15750000Y-59250000D01*
X16000000Y-59250000D02*
X25000000Y-59250000D01*
X16000000Y-66750000D02*
X15750000Y-66750000D01*
X25000000Y-66750000D02*
X16000000Y-66750000D01*
X25250000Y-59250000D02*
X25000000Y-59250000D01*
X25250000Y-59500000D02*
X25250000Y-59250000D01*
X25250000Y-59500000D02*
X25250000Y-66500000D01*
X25250000Y-66500000D02*
X25250000Y-66750000D01*
X25250000Y-66750000D02*
X25000000Y-66750000D01*
%TO.C,S65*%
X51750000Y-59250000D02*
X51750000Y-59500000D01*
X51750000Y-66500000D02*
X51750000Y-59500000D01*
X51750000Y-66750000D02*
X51750000Y-66500000D01*
X52000000Y-59250000D02*
X51750000Y-59250000D01*
X52000000Y-59250000D02*
X61000000Y-59250000D01*
X52000000Y-66750000D02*
X51750000Y-66750000D01*
X61000000Y-66750000D02*
X52000000Y-66750000D01*
X61250000Y-59250000D02*
X61000000Y-59250000D01*
X61250000Y-59500000D02*
X61250000Y-59250000D01*
X61250000Y-59500000D02*
X61250000Y-66500000D01*
X61250000Y-66500000D02*
X61250000Y-66750000D01*
X61250000Y-66750000D02*
X61000000Y-66750000D01*
%TO.C,S45*%
X51750000Y-43250000D02*
X51750000Y-43500000D01*
X51750000Y-50500000D02*
X51750000Y-43500000D01*
X51750000Y-50750000D02*
X51750000Y-50500000D01*
X52000000Y-43250000D02*
X51750000Y-43250000D01*
X52000000Y-43250000D02*
X61000000Y-43250000D01*
X52000000Y-50750000D02*
X51750000Y-50750000D01*
X61000000Y-50750000D02*
X52000000Y-50750000D01*
X61250000Y-43250000D02*
X61000000Y-43250000D01*
X61250000Y-43500000D02*
X61250000Y-43250000D01*
X61250000Y-43500000D02*
X61250000Y-50500000D01*
X61250000Y-50500000D02*
X61250000Y-50750000D01*
X61250000Y-50750000D02*
X61000000Y-50750000D01*
%TO.C,S08*%
X27750000Y-59250000D02*
X27750000Y-59500000D01*
X27750000Y-66500000D02*
X27750000Y-59500000D01*
X27750000Y-66750000D02*
X27750000Y-66500000D01*
X28000000Y-59250000D02*
X27750000Y-59250000D01*
X28000000Y-59250000D02*
X37000000Y-59250000D01*
X28000000Y-66750000D02*
X27750000Y-66750000D01*
X37000000Y-66750000D02*
X28000000Y-66750000D01*
X37250000Y-59250000D02*
X37000000Y-59250000D01*
X37250000Y-59500000D02*
X37250000Y-59250000D01*
X37250000Y-59500000D02*
X37250000Y-66500000D01*
X37250000Y-66500000D02*
X37250000Y-66750000D01*
X37250000Y-66750000D02*
X37000000Y-66750000D01*
%TO.C,S85*%
X51750000Y-75250000D02*
X51750000Y-75500000D01*
X51750000Y-82500000D02*
X51750000Y-75500000D01*
X51750000Y-82750000D02*
X51750000Y-82500000D01*
X52000000Y-75250000D02*
X51750000Y-75250000D01*
X52000000Y-75250000D02*
X61000000Y-75250000D01*
X52000000Y-82750000D02*
X51750000Y-82750000D01*
X61000000Y-82750000D02*
X52000000Y-82750000D01*
X61250000Y-75250000D02*
X61000000Y-75250000D01*
X61250000Y-75500000D02*
X61250000Y-75250000D01*
X61250000Y-75500000D02*
X61250000Y-82500000D01*
X61250000Y-82500000D02*
X61250000Y-82750000D01*
X61250000Y-82750000D02*
X61000000Y-82750000D01*
%TO.C,S04*%
X15750000Y-67250000D02*
X15750000Y-67500000D01*
X15750000Y-74500000D02*
X15750000Y-67500000D01*
X15750000Y-74750000D02*
X15750000Y-74500000D01*
X16000000Y-67250000D02*
X15750000Y-67250000D01*
X16000000Y-67250000D02*
X25000000Y-67250000D01*
X16000000Y-74750000D02*
X15750000Y-74750000D01*
X25000000Y-74750000D02*
X16000000Y-74750000D01*
X25250000Y-67250000D02*
X25000000Y-67250000D01*
X25250000Y-67500000D02*
X25250000Y-67250000D01*
X25250000Y-67500000D02*
X25250000Y-74500000D01*
X25250000Y-74500000D02*
X25250000Y-74750000D01*
X25250000Y-74750000D02*
X25000000Y-74750000D01*
%TO.C,S22*%
X15750000Y-27250000D02*
X15750000Y-27500000D01*
X15750000Y-34500000D02*
X15750000Y-27500000D01*
X15750000Y-34750000D02*
X15750000Y-34500000D01*
X16000000Y-27250000D02*
X15750000Y-27250000D01*
X16000000Y-27250000D02*
X25000000Y-27250000D01*
X16000000Y-34750000D02*
X15750000Y-34750000D01*
X25000000Y-34750000D02*
X16000000Y-34750000D01*
X25250000Y-27250000D02*
X25000000Y-27250000D01*
X25250000Y-27500000D02*
X25250000Y-27250000D01*
X25250000Y-27500000D02*
X25250000Y-34500000D01*
X25250000Y-34500000D02*
X25250000Y-34750000D01*
X25250000Y-34750000D02*
X25000000Y-34750000D01*
%TO.C,S14*%
X39750000Y-19250000D02*
X39750000Y-19500000D01*
X39750000Y-26500000D02*
X39750000Y-19500000D01*
X39750000Y-26750000D02*
X39750000Y-26500000D01*
X40000000Y-19250000D02*
X39750000Y-19250000D01*
X40000000Y-19250000D02*
X49000000Y-19250000D01*
X40000000Y-26750000D02*
X39750000Y-26750000D01*
X49000000Y-26750000D02*
X40000000Y-26750000D01*
X49250000Y-19250000D02*
X49000000Y-19250000D01*
X49250000Y-19500000D02*
X49250000Y-19250000D01*
X49250000Y-19500000D02*
X49250000Y-26500000D01*
X49250000Y-26500000D02*
X49250000Y-26750000D01*
X49250000Y-26750000D02*
X49000000Y-26750000D01*
%TO.C,S15*%
X51750000Y-19250000D02*
X51750000Y-19500000D01*
X51750000Y-26500000D02*
X51750000Y-19500000D01*
X51750000Y-26750000D02*
X51750000Y-26500000D01*
X52000000Y-19250000D02*
X51750000Y-19250000D01*
X52000000Y-19250000D02*
X61000000Y-19250000D01*
X52000000Y-26750000D02*
X51750000Y-26750000D01*
X61000000Y-26750000D02*
X52000000Y-26750000D01*
X61250000Y-19250000D02*
X61000000Y-19250000D01*
X61250000Y-19500000D02*
X61250000Y-19250000D01*
X61250000Y-19500000D02*
X61250000Y-26500000D01*
X61250000Y-26500000D02*
X61250000Y-26750000D01*
X61250000Y-26750000D02*
X61000000Y-26750000D01*
%TO.C,S51*%
X3750000Y-51250000D02*
X3750000Y-51500000D01*
X3750000Y-58500000D02*
X3750000Y-51500000D01*
X3750000Y-58750000D02*
X3750000Y-58500000D01*
X4000000Y-51250000D02*
X3750000Y-51250000D01*
X4000000Y-51250000D02*
X13000000Y-51250000D01*
X4000000Y-58750000D02*
X3750000Y-58750000D01*
X13000000Y-58750000D02*
X4000000Y-58750000D01*
X13250000Y-51250000D02*
X13000000Y-51250000D01*
X13250000Y-51500000D02*
X13250000Y-51250000D01*
X13250000Y-51500000D02*
X13250000Y-58500000D01*
X13250000Y-58500000D02*
X13250000Y-58750000D01*
X13250000Y-58750000D02*
X13000000Y-58750000D01*
%TO.C,S03*%
X39750000Y-75250000D02*
X39750000Y-75500000D01*
X39750000Y-82500000D02*
X39750000Y-75500000D01*
X39750000Y-82750000D02*
X39750000Y-82500000D01*
X40000000Y-75250000D02*
X39750000Y-75250000D01*
X40000000Y-75250000D02*
X49000000Y-75250000D01*
X40000000Y-82750000D02*
X39750000Y-82750000D01*
X49000000Y-82750000D02*
X40000000Y-82750000D01*
X49250000Y-75250000D02*
X49000000Y-75250000D01*
X49250000Y-75500000D02*
X49250000Y-75250000D01*
X49250000Y-75500000D02*
X49250000Y-82500000D01*
X49250000Y-82500000D02*
X49250000Y-82750000D01*
X49250000Y-82750000D02*
X49000000Y-82750000D01*
%TO.C,S31*%
X3750000Y-35250000D02*
X3750000Y-35500000D01*
X3750000Y-42500000D02*
X3750000Y-35500000D01*
X3750000Y-42750000D02*
X3750000Y-42500000D01*
X4000000Y-35250000D02*
X3750000Y-35250000D01*
X4000000Y-35250000D02*
X13000000Y-35250000D01*
X4000000Y-42750000D02*
X3750000Y-42750000D01*
X13000000Y-42750000D02*
X4000000Y-42750000D01*
X13250000Y-35250000D02*
X13000000Y-35250000D01*
X13250000Y-35500000D02*
X13250000Y-35250000D01*
X13250000Y-35500000D02*
X13250000Y-42500000D01*
X13250000Y-42500000D02*
X13250000Y-42750000D01*
X13250000Y-42750000D02*
X13000000Y-42750000D01*
%TO.C,REF\u002A\u002A*%
X64000000Y-102500000D02*
G75*
G02*
X59000000Y-102500000I-2500000J0D01*
G01*
X59000000Y-102500000D02*
G75*
G02*
X64000000Y-102500000I2500000J0D01*
G01*
%TO.C,JP1*%
X62651000Y-10625000D02*
X59351000Y-10625000D01*
X62651000Y-10625000D02*
X62651000Y-8125000D01*
X59351000Y-8125000D02*
X59351000Y-10625000D01*
X59351000Y-8125000D02*
X62651000Y-8125000D01*
%TO.C,S01*%
X15750000Y-75250000D02*
X15750000Y-75500000D01*
X15750000Y-82500000D02*
X15750000Y-75500000D01*
X15750000Y-82750000D02*
X15750000Y-82500000D01*
X16000000Y-75250000D02*
X15750000Y-75250000D01*
X16000000Y-75250000D02*
X25000000Y-75250000D01*
X16000000Y-82750000D02*
X15750000Y-82750000D01*
X25000000Y-82750000D02*
X16000000Y-82750000D01*
X25250000Y-75250000D02*
X25000000Y-75250000D01*
X25250000Y-75500000D02*
X25250000Y-75250000D01*
X25250000Y-75500000D02*
X25250000Y-82500000D01*
X25250000Y-82500000D02*
X25250000Y-82750000D01*
X25250000Y-82750000D02*
X25000000Y-82750000D01*
%TO.C,S13*%
X27750000Y-19250000D02*
X27750000Y-19500000D01*
X27750000Y-26500000D02*
X27750000Y-19500000D01*
X27750000Y-26750000D02*
X27750000Y-26500000D01*
X28000000Y-19250000D02*
X27750000Y-19250000D01*
X28000000Y-19250000D02*
X37000000Y-19250000D01*
X28000000Y-26750000D02*
X27750000Y-26750000D01*
X37000000Y-26750000D02*
X28000000Y-26750000D01*
X37250000Y-19250000D02*
X37000000Y-19250000D01*
X37250000Y-19500000D02*
X37250000Y-19250000D01*
X37250000Y-19500000D02*
X37250000Y-26500000D01*
X37250000Y-26500000D02*
X37250000Y-26750000D01*
X37250000Y-26750000D02*
X37000000Y-26750000D01*
%TO.C,S06*%
X39750000Y-67250000D02*
X39750000Y-67500000D01*
X39750000Y-74500000D02*
X39750000Y-67500000D01*
X39750000Y-74750000D02*
X39750000Y-74500000D01*
X40000000Y-67250000D02*
X39750000Y-67250000D01*
X40000000Y-67250000D02*
X49000000Y-67250000D01*
X40000000Y-74750000D02*
X39750000Y-74750000D01*
X49000000Y-74750000D02*
X40000000Y-74750000D01*
X49250000Y-67250000D02*
X49000000Y-67250000D01*
X49250000Y-67500000D02*
X49250000Y-67250000D01*
X49250000Y-67500000D02*
X49250000Y-74500000D01*
X49250000Y-74500000D02*
X49250000Y-74750000D01*
X49250000Y-74750000D02*
X49000000Y-74750000D01*
%TO.C,S94*%
X39750000Y-83250000D02*
X39750000Y-83500000D01*
X39750000Y-90500000D02*
X39750000Y-83500000D01*
X39750000Y-90750000D02*
X39750000Y-90500000D01*
X40000000Y-83250000D02*
X39750000Y-83250000D01*
X40000000Y-83250000D02*
X49000000Y-83250000D01*
X40000000Y-90750000D02*
X39750000Y-90750000D01*
X49000000Y-90750000D02*
X40000000Y-90750000D01*
X49250000Y-83250000D02*
X49000000Y-83250000D01*
X49250000Y-83500000D02*
X49250000Y-83250000D01*
X49250000Y-83500000D02*
X49250000Y-90500000D01*
X49250000Y-90500000D02*
X49250000Y-90750000D01*
X49250000Y-90750000D02*
X49000000Y-90750000D01*
%TO.C,S23*%
X27750000Y-27250000D02*
X27750000Y-27500000D01*
X27750000Y-34500000D02*
X27750000Y-27500000D01*
X27750000Y-34750000D02*
X27750000Y-34500000D01*
X28000000Y-27250000D02*
X27750000Y-27250000D01*
X28000000Y-27250000D02*
X37000000Y-27250000D01*
X28000000Y-34750000D02*
X27750000Y-34750000D01*
X37000000Y-34750000D02*
X28000000Y-34750000D01*
X37250000Y-27250000D02*
X37000000Y-27250000D01*
X37250000Y-27500000D02*
X37250000Y-27250000D01*
X37250000Y-27500000D02*
X37250000Y-34500000D01*
X37250000Y-34500000D02*
X37250000Y-34750000D01*
X37250000Y-34750000D02*
X37000000Y-34750000D01*
%TO.C,S41*%
X3750000Y-43250000D02*
X3750000Y-43500000D01*
X3750000Y-50500000D02*
X3750000Y-43500000D01*
X3750000Y-50750000D02*
X3750000Y-50500000D01*
X4000000Y-43250000D02*
X3750000Y-43250000D01*
X4000000Y-43250000D02*
X13000000Y-43250000D01*
X4000000Y-50750000D02*
X3750000Y-50750000D01*
X13000000Y-50750000D02*
X4000000Y-50750000D01*
X13250000Y-43250000D02*
X13000000Y-43250000D01*
X13250000Y-43500000D02*
X13250000Y-43250000D01*
X13250000Y-43500000D02*
X13250000Y-50500000D01*
X13250000Y-50500000D02*
X13250000Y-50750000D01*
X13250000Y-50750000D02*
X13000000Y-50750000D01*
%TO.C,S54*%
X39750000Y-51250000D02*
X39750000Y-51500000D01*
X39750000Y-58500000D02*
X39750000Y-51500000D01*
X39750000Y-58750000D02*
X39750000Y-58500000D01*
X40000000Y-51250000D02*
X39750000Y-51250000D01*
X40000000Y-51250000D02*
X49000000Y-51250000D01*
X40000000Y-58750000D02*
X39750000Y-58750000D01*
X49000000Y-58750000D02*
X40000000Y-58750000D01*
X49250000Y-51250000D02*
X49000000Y-51250000D01*
X49250000Y-51500000D02*
X49250000Y-51250000D01*
X49250000Y-51500000D02*
X49250000Y-58500000D01*
X49250000Y-58500000D02*
X49250000Y-58750000D01*
X49250000Y-58750000D02*
X49000000Y-58750000D01*
%TO.C,REF\u002A\u002A*%
X6000000Y-3500000D02*
G75*
G02*
X1000000Y-3500000I-2500000J0D01*
G01*
X1000000Y-3500000D02*
G75*
G02*
X6000000Y-3500000I2500000J0D01*
G01*
%TO.C,S33*%
X27750000Y-35250000D02*
X27750000Y-35500000D01*
X27750000Y-42500000D02*
X27750000Y-35500000D01*
X27750000Y-42750000D02*
X27750000Y-42500000D01*
X28000000Y-35250000D02*
X27750000Y-35250000D01*
X28000000Y-35250000D02*
X37000000Y-35250000D01*
X28000000Y-42750000D02*
X27750000Y-42750000D01*
X37000000Y-42750000D02*
X28000000Y-42750000D01*
X37250000Y-35250000D02*
X37000000Y-35250000D01*
X37250000Y-35500000D02*
X37250000Y-35250000D01*
X37250000Y-35500000D02*
X37250000Y-42500000D01*
X37250000Y-42500000D02*
X37250000Y-42750000D01*
X37250000Y-42750000D02*
X37000000Y-42750000D01*
%TO.C,S42*%
X15750000Y-43250000D02*
X15750000Y-43500000D01*
X15750000Y-50500000D02*
X15750000Y-43500000D01*
X15750000Y-50750000D02*
X15750000Y-50500000D01*
X16000000Y-43250000D02*
X15750000Y-43250000D01*
X16000000Y-43250000D02*
X25000000Y-43250000D01*
X16000000Y-50750000D02*
X15750000Y-50750000D01*
X25000000Y-50750000D02*
X16000000Y-50750000D01*
X25250000Y-43250000D02*
X25000000Y-43250000D01*
X25250000Y-43500000D02*
X25250000Y-43250000D01*
X25250000Y-43500000D02*
X25250000Y-50500000D01*
X25250000Y-50500000D02*
X25250000Y-50750000D01*
X25250000Y-50750000D02*
X25000000Y-50750000D01*
%TD*%
M02*
