%TF.GenerationSoftware,KiCad,Pcbnew,9.0.7*%
%TF.CreationDate,2026-05-24T09:29:46+02:00*%
%TF.ProjectId,BarePi_PicoPadHSTX,42617265-5069-45f5-9069-636f50616448,rev?*%
%TF.SameCoordinates,Original*%
%TF.FileFunction,Other,User*%
%FSLAX46Y46*%
G04 Gerber Fmt 4.6, Leading zero omitted, Abs format (unit mm)*
G04 Created by KiCad (PCBNEW 9.0.7) date 2026-05-24 09:29:46*
%MOMM*%
%LPD*%
G01*
G04 APERTURE LIST*
%ADD10C,0.050000*%
G04 APERTURE END LIST*
D10*
%TO.C,J1*%
X58380000Y-34630000D02*
X58380000Y-48000000D01*
X6580000Y-34630000D02*
X58380000Y-34630000D01*
X58380000Y-48000000D02*
X6580000Y-48000000D01*
X6580000Y-48000000D02*
X6580000Y-34630000D01*
%TO.C,REF\u002A\u002A*%
X6000000Y-3500000D02*
G75*
G02*
X1000000Y-3500000I-2500000J0D01*
G01*
X1000000Y-3500000D02*
G75*
G02*
X6000000Y-3500000I2500000J0D01*
G01*
X64000000Y-3500000D02*
G75*
G02*
X59000000Y-3500000I-2500000J0D01*
G01*
X59000000Y-3500000D02*
G75*
G02*
X64000000Y-3500000I2500000J0D01*
G01*
X64000000Y-44500000D02*
G75*
G02*
X59000000Y-44500000I-2500000J0D01*
G01*
X59000000Y-44500000D02*
G75*
G02*
X64000000Y-44500000I2500000J0D01*
G01*
X6000000Y-44500000D02*
G75*
G02*
X1000000Y-44500000I-2500000J0D01*
G01*
X1000000Y-44500000D02*
G75*
G02*
X6000000Y-44500000I2500000J0D01*
G01*
%TO.C,J2*%
X-3550000Y-7000000D02*
X-3550000Y-33400000D01*
X-3550000Y-33400000D02*
X11300000Y-33400000D01*
X11300000Y-7000000D02*
X-3550000Y-7000000D01*
X11300000Y-33400000D02*
X11300000Y-7000000D01*
%TO.C,C1*%
X58825000Y-31795000D02*
X63805000Y-31795000D01*
X63805000Y-33895000D01*
X58825000Y-33895000D01*
X58825000Y-31795000D01*
%TO.C,IC1*%
X65100000Y-13500000D02*
X66650000Y-13500000D01*
X66650000Y-22500000D01*
X65100000Y-22500000D01*
X65100000Y-29540000D01*
X12800000Y-29540000D01*
X12800000Y-6460000D01*
X65100000Y-6460000D01*
X65100000Y-13500000D01*
%TD*%
M02*
