M48
; DRILL file {KiCad 9.0.7} date 2026-05-24T09:29:49+0200
; FORMAT={-:-/ absolute / metric / decimal}
; #@! TF.CreationDate,2026-05-24T09:29:49+02:00
; #@! TF.GenerationSoftware,Kicad,Pcbnew,9.0.7
; #@! TF.FileFunction,Plated,1,2,PTH
FMAT,2
METRIC
; #@! TA.AperFunction,Plated,PTH,ViaDrill
T1C0.600
; #@! TA.AperFunction,Plated,PTH,ComponentDrill
T2C1.000
%
G90
G05
T1
X2.28Y-36.4
X6.61Y-34.44
X7.28Y-5.58
X8.67Y-2.28
X9.13Y-4.64
X12.025Y-18.881
X12.18Y-4.11
X12.943Y-33.485
X13.565Y-13.646
X15.686Y-42.212
X17.506Y-41.671
X20.17Y-30.711
X20.275Y-24.39
X20.76Y-3.47
X21.02Y-12.34
X21.891Y-31.518
X22.037Y-23.488
X23.622Y-22.088
X23.7Y-33.287
X26.23Y-33.47
X28.071Y-32.731
X28.545Y-22.965
X29.885Y-11.935
X30.018Y-41.533
X31.261Y-31.356
X32.1Y-41.664
X33.07Y-3.11
X33.125Y-30.987
X34.549Y-11.411
X38.46Y-21.13
X40.61Y-30.52
X43.645Y-30.3
X43.986Y-32.169
X45.64Y-11.36
X46.076Y-33.006
X47.37Y-20.06
X47.67Y-23.12
X50.07Y-23.69
X51.541Y-33.033
X53.185Y-32.08
X53.344Y-30.141
X53.545Y-12.275
X54.59Y-24.18
X57.93Y-5.18
X58.4Y-30.9
X61.23Y-37.01
T2
X6.96Y-8.75
X6.96Y-11.29
X6.96Y-13.83
X6.96Y-16.37
X6.96Y-18.91
X6.96Y-21.45
X6.96Y-23.99
X6.96Y-26.53
X6.96Y-29.07
X6.96Y-31.61
X8.37Y-36.43
X8.37Y-38.97
X9.5Y-8.75
X9.5Y-11.29
X9.5Y-13.83
X9.5Y-16.37
X9.5Y-18.91
X9.5Y-21.45
X9.5Y-23.99
X9.5Y-26.53
X9.5Y-29.07
X9.5Y-31.61
X10.91Y-36.43
X10.91Y-38.97
X13.45Y-36.43
X13.45Y-38.97
X15.22Y-9.11
X15.22Y-26.89
X15.99Y-36.43
X15.99Y-38.97
X17.76Y-9.11
X17.76Y-26.89
X18.53Y-36.43
X18.53Y-38.97
X20.3Y-9.11
X20.3Y-26.89
X21.07Y-36.43
X21.07Y-38.97
X22.84Y-9.11
X22.84Y-26.89
X23.61Y-36.43
X23.61Y-38.97
X25.38Y-9.11
X25.38Y-26.89
X26.15Y-36.43
X26.15Y-38.97
X27.92Y-9.11
X27.92Y-26.89
X28.69Y-36.43
X28.69Y-38.97
X30.46Y-9.11
X30.46Y-26.89
X31.23Y-36.43
X31.23Y-38.97
X33.0Y-9.11
X33.0Y-26.89
X33.77Y-36.43
X33.77Y-38.97
X35.54Y-9.11
X35.54Y-26.89
X36.31Y-36.43
X36.31Y-38.97
X38.08Y-9.11
X38.08Y-26.89
X38.85Y-36.43
X38.85Y-38.97
X40.62Y-9.11
X40.62Y-26.89
X41.39Y-36.43
X41.39Y-38.97
X43.16Y-9.11
X43.16Y-26.89
X43.93Y-36.43
X43.93Y-38.97
X45.7Y-9.11
X45.7Y-26.89
X46.47Y-36.43
X46.47Y-38.97
X48.24Y-9.11
X48.24Y-26.89
X49.01Y-36.43
X49.01Y-38.97
X50.78Y-9.11
X50.78Y-26.89
X51.55Y-36.43
X51.55Y-38.97
X53.32Y-9.11
X53.32Y-26.89
X54.09Y-36.43
X54.09Y-38.97
X55.86Y-9.11
X55.86Y-26.89
X56.63Y-36.43
X56.63Y-38.97
X58.4Y-9.11
X58.4Y-26.89
X60.94Y-9.11
X60.94Y-26.89
X63.48Y-9.11
X63.48Y-26.89
M30
