%TF.GenerationSoftware,KiCad,Pcbnew,9.0.7*%
%TF.CreationDate,2026-05-24T09:29:46+02:00*%
%TF.ProjectId,BarePi_PicoPadHSTX,42617265-5069-45f5-9069-636f50616448,rev?*%
%TF.SameCoordinates,Original*%
%TF.FileFunction,AssemblyDrawing,Bot*%
%FSLAX46Y46*%
G04 Gerber Fmt 4.6, Leading zero omitted, Abs format (unit mm)*
G04 Created by KiCad (PCBNEW 9.0.7) date 2026-05-24 09:29:46*
%MOMM*%
%LPD*%
G01*
G04 APERTURE LIST*
%ADD10C,0.100000*%
G04 APERTURE END LIST*
%TO.C,C2*%
D10*
X2105000Y-20205000D02*
X3705000Y-20205000D01*
X3705000Y-23405000D01*
X2105000Y-23405000D01*
X2105000Y-20205000D01*
%TO.C,R1*%
X26020000Y-5355000D02*
X24770000Y-5355000D01*
X24770000Y-3355000D01*
X26020000Y-3355000D01*
X26020000Y-5355000D01*
%TO.C,R5*%
X14530000Y-30895000D02*
X15780000Y-30895000D01*
X15780000Y-32895000D01*
X14530000Y-32895000D01*
X14530000Y-30895000D01*
%TO.C,R4*%
X15520000Y-5265000D02*
X14270000Y-5265000D01*
X14270000Y-3265000D01*
X15520000Y-3265000D01*
X15520000Y-5265000D01*
%TO.C,R6*%
X17480000Y-30895000D02*
X18730000Y-30895000D01*
X18730000Y-32895000D01*
X17480000Y-32895000D01*
X17480000Y-30895000D01*
%TO.C,C4*%
X4155000Y-12005000D02*
X2555000Y-12005000D01*
X2555000Y-8805000D01*
X4155000Y-8805000D01*
X4155000Y-12005000D01*
%TO.C,R3*%
X18520000Y-5125000D02*
X17270000Y-5125000D01*
X17270000Y-3125000D01*
X18520000Y-3125000D01*
X18520000Y-5125000D01*
%TO.C,R2*%
X23370000Y-5375000D02*
X22120000Y-5375000D01*
X22120000Y-3375000D01*
X23370000Y-3375000D01*
X23370000Y-5375000D01*
%TO.C,C3*%
X2205000Y-14995000D02*
X3805000Y-14995000D01*
X3805000Y-18195000D01*
X2205000Y-18195000D01*
X2205000Y-14995000D01*
%TD*%
M02*
