%TF.GenerationSoftware,KiCad,Pcbnew,9.0.7*%
%TF.CreationDate,2026-07-07T21:11:44+02:00*%
%TF.ProjectId,BarePi_PicoPadHSTX,42617265-5069-45f5-9069-636f50616448,rev?*%
%TF.SameCoordinates,Original*%
%TF.FileFunction,AssemblyDrawing,Top*%
%FSLAX46Y46*%
G04 Gerber Fmt 4.6, Leading zero omitted, Abs format (unit mm)*
G04 Created by KiCad (PCBNEW 9.0.7) date 2026-07-07 21:11:44*
%MOMM*%
%LPD*%
G01*
G04 APERTURE LIST*
%ADD10C,0.120000*%
%ADD11C,0.100000*%
G04 APERTURE END LIST*
D10*
X3437142Y-35315724D02*
X3008571Y-35315724D01*
X3222856Y-35315724D02*
X3222856Y-34565724D01*
X3222856Y-34565724D02*
X3151428Y-34672867D01*
X3151428Y-34672867D02*
X3079999Y-34744295D01*
X3079999Y-34744295D02*
X3008571Y-34780010D01*
X4115714Y-34565724D02*
X3758571Y-34565724D01*
X3758571Y-34565724D02*
X3722857Y-34922867D01*
X3722857Y-34922867D02*
X3758571Y-34887152D01*
X3758571Y-34887152D02*
X3830000Y-34851438D01*
X3830000Y-34851438D02*
X4008571Y-34851438D01*
X4008571Y-34851438D02*
X4080000Y-34887152D01*
X4080000Y-34887152D02*
X4115714Y-34922867D01*
X4115714Y-34922867D02*
X4151428Y-34994295D01*
X4151428Y-34994295D02*
X4151428Y-35172867D01*
X4151428Y-35172867D02*
X4115714Y-35244295D01*
X4115714Y-35244295D02*
X4080000Y-35280010D01*
X4080000Y-35280010D02*
X4008571Y-35315724D01*
X4008571Y-35315724D02*
X3830000Y-35315724D01*
X3830000Y-35315724D02*
X3758571Y-35280010D01*
X3758571Y-35280010D02*
X3722857Y-35244295D01*
X4472857Y-35315724D02*
X4472857Y-34565724D01*
X4901428Y-35315724D02*
X4580000Y-34887152D01*
X4901428Y-34565724D02*
X4472857Y-34994295D01*
X3919999Y-34395724D02*
X3669999Y-34038581D01*
X3491428Y-34395724D02*
X3491428Y-33645724D01*
X3491428Y-33645724D02*
X3777142Y-33645724D01*
X3777142Y-33645724D02*
X3848571Y-33681438D01*
X3848571Y-33681438D02*
X3884285Y-33717152D01*
X3884285Y-33717152D02*
X3919999Y-33788581D01*
X3919999Y-33788581D02*
X3919999Y-33895724D01*
X3919999Y-33895724D02*
X3884285Y-33967152D01*
X3884285Y-33967152D02*
X3848571Y-34002867D01*
X3848571Y-34002867D02*
X3777142Y-34038581D01*
X3777142Y-34038581D02*
X3491428Y-34038581D01*
X4348571Y-33967152D02*
X4277142Y-33931438D01*
X4277142Y-33931438D02*
X4241428Y-33895724D01*
X4241428Y-33895724D02*
X4205714Y-33824295D01*
X4205714Y-33824295D02*
X4205714Y-33788581D01*
X4205714Y-33788581D02*
X4241428Y-33717152D01*
X4241428Y-33717152D02*
X4277142Y-33681438D01*
X4277142Y-33681438D02*
X4348571Y-33645724D01*
X4348571Y-33645724D02*
X4491428Y-33645724D01*
X4491428Y-33645724D02*
X4562857Y-33681438D01*
X4562857Y-33681438D02*
X4598571Y-33717152D01*
X4598571Y-33717152D02*
X4634285Y-33788581D01*
X4634285Y-33788581D02*
X4634285Y-33824295D01*
X4634285Y-33824295D02*
X4598571Y-33895724D01*
X4598571Y-33895724D02*
X4562857Y-33931438D01*
X4562857Y-33931438D02*
X4491428Y-33967152D01*
X4491428Y-33967152D02*
X4348571Y-33967152D01*
X4348571Y-33967152D02*
X4277142Y-34002867D01*
X4277142Y-34002867D02*
X4241428Y-34038581D01*
X4241428Y-34038581D02*
X4205714Y-34110010D01*
X4205714Y-34110010D02*
X4205714Y-34252867D01*
X4205714Y-34252867D02*
X4241428Y-34324295D01*
X4241428Y-34324295D02*
X4277142Y-34360010D01*
X4277142Y-34360010D02*
X4348571Y-34395724D01*
X4348571Y-34395724D02*
X4491428Y-34395724D01*
X4491428Y-34395724D02*
X4562857Y-34360010D01*
X4562857Y-34360010D02*
X4598571Y-34324295D01*
X4598571Y-34324295D02*
X4634285Y-34252867D01*
X4634285Y-34252867D02*
X4634285Y-34110010D01*
X4634285Y-34110010D02*
X4598571Y-34038581D01*
X4598571Y-34038581D02*
X4562857Y-34002867D01*
X4562857Y-34002867D02*
X4491428Y-33967152D01*
X4347142Y-41325724D02*
X3918571Y-41325724D01*
X4132856Y-41325724D02*
X4132856Y-40575724D01*
X4132856Y-40575724D02*
X4061428Y-40682867D01*
X4061428Y-40682867D02*
X3989999Y-40754295D01*
X3989999Y-40754295D02*
X3918571Y-40790010D01*
X5025714Y-40575724D02*
X4668571Y-40575724D01*
X4668571Y-40575724D02*
X4632857Y-40932867D01*
X4632857Y-40932867D02*
X4668571Y-40897152D01*
X4668571Y-40897152D02*
X4740000Y-40861438D01*
X4740000Y-40861438D02*
X4918571Y-40861438D01*
X4918571Y-40861438D02*
X4990000Y-40897152D01*
X4990000Y-40897152D02*
X5025714Y-40932867D01*
X5025714Y-40932867D02*
X5061428Y-41004295D01*
X5061428Y-41004295D02*
X5061428Y-41182867D01*
X5061428Y-41182867D02*
X5025714Y-41254295D01*
X5025714Y-41254295D02*
X4990000Y-41290010D01*
X4990000Y-41290010D02*
X4918571Y-41325724D01*
X4918571Y-41325724D02*
X4740000Y-41325724D01*
X4740000Y-41325724D02*
X4668571Y-41290010D01*
X4668571Y-41290010D02*
X4632857Y-41254295D01*
X5382857Y-41325724D02*
X5382857Y-40575724D01*
X5811428Y-41325724D02*
X5490000Y-40897152D01*
X5811428Y-40575724D02*
X5382857Y-41004295D01*
X2209999Y-41335724D02*
X1959999Y-40978581D01*
X1781428Y-41335724D02*
X1781428Y-40585724D01*
X1781428Y-40585724D02*
X2067142Y-40585724D01*
X2067142Y-40585724D02*
X2138571Y-40621438D01*
X2138571Y-40621438D02*
X2174285Y-40657152D01*
X2174285Y-40657152D02*
X2209999Y-40728581D01*
X2209999Y-40728581D02*
X2209999Y-40835724D01*
X2209999Y-40835724D02*
X2174285Y-40907152D01*
X2174285Y-40907152D02*
X2138571Y-40942867D01*
X2138571Y-40942867D02*
X2067142Y-40978581D01*
X2067142Y-40978581D02*
X1781428Y-40978581D01*
X2459999Y-40585724D02*
X2959999Y-40585724D01*
X2959999Y-40585724D02*
X2638571Y-41335724D01*
X59020000Y-38610724D02*
X59162857Y-38610724D01*
X59162857Y-38610724D02*
X59234286Y-38646438D01*
X59234286Y-38646438D02*
X59305714Y-38717867D01*
X59305714Y-38717867D02*
X59341429Y-38860724D01*
X59341429Y-38860724D02*
X59341429Y-39110724D01*
X59341429Y-39110724D02*
X59305714Y-39253581D01*
X59305714Y-39253581D02*
X59234286Y-39325010D01*
X59234286Y-39325010D02*
X59162857Y-39360724D01*
X59162857Y-39360724D02*
X59020000Y-39360724D01*
X59020000Y-39360724D02*
X58948572Y-39325010D01*
X58948572Y-39325010D02*
X58877143Y-39253581D01*
X58877143Y-39253581D02*
X58841429Y-39110724D01*
X58841429Y-39110724D02*
X58841429Y-38860724D01*
X58841429Y-38860724D02*
X58877143Y-38717867D01*
X58877143Y-38717867D02*
X58948572Y-38646438D01*
X58948572Y-38646438D02*
X59020000Y-38610724D01*
X59662857Y-38610724D02*
X59662857Y-39217867D01*
X59662857Y-39217867D02*
X59698571Y-39289295D01*
X59698571Y-39289295D02*
X59734286Y-39325010D01*
X59734286Y-39325010D02*
X59805714Y-39360724D01*
X59805714Y-39360724D02*
X59948571Y-39360724D01*
X59948571Y-39360724D02*
X60020000Y-39325010D01*
X60020000Y-39325010D02*
X60055714Y-39289295D01*
X60055714Y-39289295D02*
X60091428Y-39217867D01*
X60091428Y-39217867D02*
X60091428Y-38610724D01*
X60341428Y-38610724D02*
X60770000Y-38610724D01*
X60555714Y-39360724D02*
X60555714Y-38610724D01*
X58990000Y-36990724D02*
X58990000Y-37526438D01*
X58990000Y-37526438D02*
X58954285Y-37633581D01*
X58954285Y-37633581D02*
X58882857Y-37705010D01*
X58882857Y-37705010D02*
X58775714Y-37740724D01*
X58775714Y-37740724D02*
X58704285Y-37740724D01*
X59740000Y-37740724D02*
X59311429Y-37740724D01*
X59525714Y-37740724D02*
X59525714Y-36990724D01*
X59525714Y-36990724D02*
X59454286Y-37097867D01*
X59454286Y-37097867D02*
X59382857Y-37169295D01*
X59382857Y-37169295D02*
X59311429Y-37205010D01*
X7966428Y-6790724D02*
X7966428Y-6040724D01*
X7966428Y-6040724D02*
X8144999Y-6040724D01*
X8144999Y-6040724D02*
X8252142Y-6076438D01*
X8252142Y-6076438D02*
X8323571Y-6147867D01*
X8323571Y-6147867D02*
X8359285Y-6219295D01*
X8359285Y-6219295D02*
X8394999Y-6362152D01*
X8394999Y-6362152D02*
X8394999Y-6469295D01*
X8394999Y-6469295D02*
X8359285Y-6612152D01*
X8359285Y-6612152D02*
X8323571Y-6683581D01*
X8323571Y-6683581D02*
X8252142Y-6755010D01*
X8252142Y-6755010D02*
X8144999Y-6790724D01*
X8144999Y-6790724D02*
X7966428Y-6790724D01*
X8716428Y-6790724D02*
X8716428Y-6040724D01*
X9037857Y-6755010D02*
X9145000Y-6790724D01*
X9145000Y-6790724D02*
X9323571Y-6790724D01*
X9323571Y-6790724D02*
X9395000Y-6755010D01*
X9395000Y-6755010D02*
X9430714Y-6719295D01*
X9430714Y-6719295D02*
X9466428Y-6647867D01*
X9466428Y-6647867D02*
X9466428Y-6576438D01*
X9466428Y-6576438D02*
X9430714Y-6505010D01*
X9430714Y-6505010D02*
X9395000Y-6469295D01*
X9395000Y-6469295D02*
X9323571Y-6433581D01*
X9323571Y-6433581D02*
X9180714Y-6397867D01*
X9180714Y-6397867D02*
X9109285Y-6362152D01*
X9109285Y-6362152D02*
X9073571Y-6326438D01*
X9073571Y-6326438D02*
X9037857Y-6255010D01*
X9037857Y-6255010D02*
X9037857Y-6183581D01*
X9037857Y-6183581D02*
X9073571Y-6112152D01*
X9073571Y-6112152D02*
X9109285Y-6076438D01*
X9109285Y-6076438D02*
X9180714Y-6040724D01*
X9180714Y-6040724D02*
X9359285Y-6040724D01*
X9359285Y-6040724D02*
X9466428Y-6076438D01*
X9787857Y-6790724D02*
X9787857Y-6040724D01*
X9787857Y-6040724D02*
X10073571Y-6040724D01*
X10073571Y-6040724D02*
X10145000Y-6076438D01*
X10145000Y-6076438D02*
X10180714Y-6112152D01*
X10180714Y-6112152D02*
X10216428Y-6183581D01*
X10216428Y-6183581D02*
X10216428Y-6290724D01*
X10216428Y-6290724D02*
X10180714Y-6362152D01*
X10180714Y-6362152D02*
X10145000Y-6397867D01*
X10145000Y-6397867D02*
X10073571Y-6433581D01*
X10073571Y-6433581D02*
X9787857Y-6433581D01*
X10895000Y-6790724D02*
X10537857Y-6790724D01*
X10537857Y-6790724D02*
X10537857Y-6040724D01*
X11109286Y-6576438D02*
X11466429Y-6576438D01*
X11037857Y-6790724D02*
X11287857Y-6040724D01*
X11287857Y-6040724D02*
X11537857Y-6790724D01*
X11930714Y-6433581D02*
X11930714Y-6790724D01*
X11680714Y-6040724D02*
X11930714Y-6433581D01*
X11930714Y-6433581D02*
X12180714Y-6040724D01*
X5875000Y-6040724D02*
X5875000Y-6576438D01*
X5875000Y-6576438D02*
X5839285Y-6683581D01*
X5839285Y-6683581D02*
X5767857Y-6755010D01*
X5767857Y-6755010D02*
X5660714Y-6790724D01*
X5660714Y-6790724D02*
X5589285Y-6790724D01*
X6196429Y-6112152D02*
X6232143Y-6076438D01*
X6232143Y-6076438D02*
X6303572Y-6040724D01*
X6303572Y-6040724D02*
X6482143Y-6040724D01*
X6482143Y-6040724D02*
X6553572Y-6076438D01*
X6553572Y-6076438D02*
X6589286Y-6112152D01*
X6589286Y-6112152D02*
X6625000Y-6183581D01*
X6625000Y-6183581D02*
X6625000Y-6255010D01*
X6625000Y-6255010D02*
X6589286Y-6362152D01*
X6589286Y-6362152D02*
X6160714Y-6790724D01*
X6160714Y-6790724D02*
X6625000Y-6790724D01*
X60440000Y-34645724D02*
X60440000Y-35145724D01*
X60261428Y-34360010D02*
X60082857Y-34895724D01*
X60082857Y-34895724D02*
X60547142Y-34895724D01*
X60761428Y-34395724D02*
X61261428Y-34395724D01*
X61261428Y-34395724D02*
X60940000Y-35145724D01*
X61868572Y-34645724D02*
X61868572Y-35145724D01*
X61547143Y-34645724D02*
X61547143Y-35038581D01*
X61547143Y-35038581D02*
X61582857Y-35110010D01*
X61582857Y-35110010D02*
X61654286Y-35145724D01*
X61654286Y-35145724D02*
X61761429Y-35145724D01*
X61761429Y-35145724D02*
X61832857Y-35110010D01*
X61832857Y-35110010D02*
X61868572Y-35074295D01*
X62475714Y-34752867D02*
X62225714Y-34752867D01*
X62225714Y-35145724D02*
X62225714Y-34395724D01*
X62225714Y-34395724D02*
X62582857Y-34395724D01*
X61189999Y-31364295D02*
X61154285Y-31400010D01*
X61154285Y-31400010D02*
X61047142Y-31435724D01*
X61047142Y-31435724D02*
X60975714Y-31435724D01*
X60975714Y-31435724D02*
X60868571Y-31400010D01*
X60868571Y-31400010D02*
X60797142Y-31328581D01*
X60797142Y-31328581D02*
X60761428Y-31257152D01*
X60761428Y-31257152D02*
X60725714Y-31114295D01*
X60725714Y-31114295D02*
X60725714Y-31007152D01*
X60725714Y-31007152D02*
X60761428Y-30864295D01*
X60761428Y-30864295D02*
X60797142Y-30792867D01*
X60797142Y-30792867D02*
X60868571Y-30721438D01*
X60868571Y-30721438D02*
X60975714Y-30685724D01*
X60975714Y-30685724D02*
X61047142Y-30685724D01*
X61047142Y-30685724D02*
X61154285Y-30721438D01*
X61154285Y-30721438D02*
X61189999Y-30757152D01*
X61904285Y-31435724D02*
X61475714Y-31435724D01*
X61689999Y-31435724D02*
X61689999Y-30685724D01*
X61689999Y-30685724D02*
X61618571Y-30792867D01*
X61618571Y-30792867D02*
X61547142Y-30864295D01*
X61547142Y-30864295D02*
X61475714Y-30900010D01*
X33769542Y-5608724D02*
X33519542Y-5251581D01*
X33340971Y-5608724D02*
X33340971Y-4858724D01*
X33340971Y-4858724D02*
X33626685Y-4858724D01*
X33626685Y-4858724D02*
X33698114Y-4894438D01*
X33698114Y-4894438D02*
X33733828Y-4930152D01*
X33733828Y-4930152D02*
X33769542Y-5001581D01*
X33769542Y-5001581D02*
X33769542Y-5108724D01*
X33769542Y-5108724D02*
X33733828Y-5180152D01*
X33733828Y-5180152D02*
X33698114Y-5215867D01*
X33698114Y-5215867D02*
X33626685Y-5251581D01*
X33626685Y-5251581D02*
X33340971Y-5251581D01*
X34412400Y-5608724D02*
X34412400Y-5215867D01*
X34412400Y-5215867D02*
X34376685Y-5144438D01*
X34376685Y-5144438D02*
X34305257Y-5108724D01*
X34305257Y-5108724D02*
X34162400Y-5108724D01*
X34162400Y-5108724D02*
X34090971Y-5144438D01*
X34412400Y-5573010D02*
X34340971Y-5608724D01*
X34340971Y-5608724D02*
X34162400Y-5608724D01*
X34162400Y-5608724D02*
X34090971Y-5573010D01*
X34090971Y-5573010D02*
X34055257Y-5501581D01*
X34055257Y-5501581D02*
X34055257Y-5430152D01*
X34055257Y-5430152D02*
X34090971Y-5358724D01*
X34090971Y-5358724D02*
X34162400Y-5323010D01*
X34162400Y-5323010D02*
X34340971Y-5323010D01*
X34340971Y-5323010D02*
X34412400Y-5287295D01*
X34733828Y-5573010D02*
X34805256Y-5608724D01*
X34805256Y-5608724D02*
X34948113Y-5608724D01*
X34948113Y-5608724D02*
X35019542Y-5573010D01*
X35019542Y-5573010D02*
X35055256Y-5501581D01*
X35055256Y-5501581D02*
X35055256Y-5465867D01*
X35055256Y-5465867D02*
X35019542Y-5394438D01*
X35019542Y-5394438D02*
X34948113Y-5358724D01*
X34948113Y-5358724D02*
X34840971Y-5358724D01*
X34840971Y-5358724D02*
X34769542Y-5323010D01*
X34769542Y-5323010D02*
X34733828Y-5251581D01*
X34733828Y-5251581D02*
X34733828Y-5215867D01*
X34733828Y-5215867D02*
X34769542Y-5144438D01*
X34769542Y-5144438D02*
X34840971Y-5108724D01*
X34840971Y-5108724D02*
X34948113Y-5108724D01*
X34948113Y-5108724D02*
X35019542Y-5144438D01*
X35376685Y-5108724D02*
X35376685Y-5858724D01*
X35376685Y-5144438D02*
X35448114Y-5108724D01*
X35448114Y-5108724D02*
X35590971Y-5108724D01*
X35590971Y-5108724D02*
X35662399Y-5144438D01*
X35662399Y-5144438D02*
X35698114Y-5180152D01*
X35698114Y-5180152D02*
X35733828Y-5251581D01*
X35733828Y-5251581D02*
X35733828Y-5465867D01*
X35733828Y-5465867D02*
X35698114Y-5537295D01*
X35698114Y-5537295D02*
X35662399Y-5573010D01*
X35662399Y-5573010D02*
X35590971Y-5608724D01*
X35590971Y-5608724D02*
X35448114Y-5608724D01*
X35448114Y-5608724D02*
X35376685Y-5573010D01*
X36055256Y-5608724D02*
X36055256Y-4858724D01*
X36055256Y-5144438D02*
X36126685Y-5108724D01*
X36126685Y-5108724D02*
X36269542Y-5108724D01*
X36269542Y-5108724D02*
X36340970Y-5144438D01*
X36340970Y-5144438D02*
X36376685Y-5180152D01*
X36376685Y-5180152D02*
X36412399Y-5251581D01*
X36412399Y-5251581D02*
X36412399Y-5465867D01*
X36412399Y-5465867D02*
X36376685Y-5537295D01*
X36376685Y-5537295D02*
X36340970Y-5573010D01*
X36340970Y-5573010D02*
X36269542Y-5608724D01*
X36269542Y-5608724D02*
X36126685Y-5608724D01*
X36126685Y-5608724D02*
X36055256Y-5573010D01*
X37019541Y-5573010D02*
X36948113Y-5608724D01*
X36948113Y-5608724D02*
X36805256Y-5608724D01*
X36805256Y-5608724D02*
X36733827Y-5573010D01*
X36733827Y-5573010D02*
X36698113Y-5501581D01*
X36698113Y-5501581D02*
X36698113Y-5215867D01*
X36698113Y-5215867D02*
X36733827Y-5144438D01*
X36733827Y-5144438D02*
X36805256Y-5108724D01*
X36805256Y-5108724D02*
X36948113Y-5108724D01*
X36948113Y-5108724D02*
X37019541Y-5144438D01*
X37019541Y-5144438D02*
X37055256Y-5215867D01*
X37055256Y-5215867D02*
X37055256Y-5287295D01*
X37055256Y-5287295D02*
X36698113Y-5358724D01*
X37376684Y-5608724D02*
X37376684Y-5108724D01*
X37376684Y-5251581D02*
X37412398Y-5180152D01*
X37412398Y-5180152D02*
X37448113Y-5144438D01*
X37448113Y-5144438D02*
X37519541Y-5108724D01*
X37519541Y-5108724D02*
X37590970Y-5108724D01*
X37840970Y-5608724D02*
X37840970Y-5108724D01*
X37840970Y-5251581D02*
X37876684Y-5180152D01*
X37876684Y-5180152D02*
X37912399Y-5144438D01*
X37912399Y-5144438D02*
X37983827Y-5108724D01*
X37983827Y-5108724D02*
X38055256Y-5108724D01*
X38233827Y-5108724D02*
X38412399Y-5608724D01*
X38590970Y-5108724D02*
X38412399Y-5608724D01*
X38412399Y-5608724D02*
X38340970Y-5787295D01*
X38340970Y-5787295D02*
X38305256Y-5823010D01*
X38305256Y-5823010D02*
X38233827Y-5858724D01*
X39448114Y-5608724D02*
X39448114Y-4858724D01*
X39448114Y-4858724D02*
X39733828Y-4858724D01*
X39733828Y-4858724D02*
X39805257Y-4894438D01*
X39805257Y-4894438D02*
X39840971Y-4930152D01*
X39840971Y-4930152D02*
X39876685Y-5001581D01*
X39876685Y-5001581D02*
X39876685Y-5108724D01*
X39876685Y-5108724D02*
X39840971Y-5180152D01*
X39840971Y-5180152D02*
X39805257Y-5215867D01*
X39805257Y-5215867D02*
X39733828Y-5251581D01*
X39733828Y-5251581D02*
X39448114Y-5251581D01*
X40198114Y-5608724D02*
X40198114Y-5108724D01*
X40198114Y-4858724D02*
X40162400Y-4894438D01*
X40162400Y-4894438D02*
X40198114Y-4930152D01*
X40198114Y-4930152D02*
X40233828Y-4894438D01*
X40233828Y-4894438D02*
X40198114Y-4858724D01*
X40198114Y-4858724D02*
X40198114Y-4930152D01*
X41126686Y-5608724D02*
X41126686Y-4858724D01*
X41126686Y-4858724D02*
X41412400Y-4858724D01*
X41412400Y-4858724D02*
X41483829Y-4894438D01*
X41483829Y-4894438D02*
X41519543Y-4930152D01*
X41519543Y-4930152D02*
X41555257Y-5001581D01*
X41555257Y-5001581D02*
X41555257Y-5108724D01*
X41555257Y-5108724D02*
X41519543Y-5180152D01*
X41519543Y-5180152D02*
X41483829Y-5215867D01*
X41483829Y-5215867D02*
X41412400Y-5251581D01*
X41412400Y-5251581D02*
X41126686Y-5251581D01*
X41876686Y-5608724D02*
X41876686Y-5108724D01*
X41876686Y-4858724D02*
X41840972Y-4894438D01*
X41840972Y-4894438D02*
X41876686Y-4930152D01*
X41876686Y-4930152D02*
X41912400Y-4894438D01*
X41912400Y-4894438D02*
X41876686Y-4858724D01*
X41876686Y-4858724D02*
X41876686Y-4930152D01*
X42555258Y-5573010D02*
X42483829Y-5608724D01*
X42483829Y-5608724D02*
X42340972Y-5608724D01*
X42340972Y-5608724D02*
X42269543Y-5573010D01*
X42269543Y-5573010D02*
X42233829Y-5537295D01*
X42233829Y-5537295D02*
X42198115Y-5465867D01*
X42198115Y-5465867D02*
X42198115Y-5251581D01*
X42198115Y-5251581D02*
X42233829Y-5180152D01*
X42233829Y-5180152D02*
X42269543Y-5144438D01*
X42269543Y-5144438D02*
X42340972Y-5108724D01*
X42340972Y-5108724D02*
X42483829Y-5108724D01*
X42483829Y-5108724D02*
X42555258Y-5144438D01*
X42983829Y-5608724D02*
X42912400Y-5573010D01*
X42912400Y-5573010D02*
X42876686Y-5537295D01*
X42876686Y-5537295D02*
X42840972Y-5465867D01*
X42840972Y-5465867D02*
X42840972Y-5251581D01*
X42840972Y-5251581D02*
X42876686Y-5180152D01*
X42876686Y-5180152D02*
X42912400Y-5144438D01*
X42912400Y-5144438D02*
X42983829Y-5108724D01*
X42983829Y-5108724D02*
X43090972Y-5108724D01*
X43090972Y-5108724D02*
X43162400Y-5144438D01*
X43162400Y-5144438D02*
X43198115Y-5180152D01*
X43198115Y-5180152D02*
X43233829Y-5251581D01*
X43233829Y-5251581D02*
X43233829Y-5465867D01*
X43233829Y-5465867D02*
X43198115Y-5537295D01*
X43198115Y-5537295D02*
X43162400Y-5573010D01*
X43162400Y-5573010D02*
X43090972Y-5608724D01*
X43090972Y-5608724D02*
X42983829Y-5608724D01*
X44090972Y-4930152D02*
X44126686Y-4894438D01*
X44126686Y-4894438D02*
X44198115Y-4858724D01*
X44198115Y-4858724D02*
X44376686Y-4858724D01*
X44376686Y-4858724D02*
X44448115Y-4894438D01*
X44448115Y-4894438D02*
X44483829Y-4930152D01*
X44483829Y-4930152D02*
X44519543Y-5001581D01*
X44519543Y-5001581D02*
X44519543Y-5073010D01*
X44519543Y-5073010D02*
X44483829Y-5180152D01*
X44483829Y-5180152D02*
X44055257Y-5608724D01*
X44055257Y-5608724D02*
X44519543Y-5608724D01*
X37887857Y-3720324D02*
X37887857Y-2970324D01*
X38673571Y-3648895D02*
X38637857Y-3684610D01*
X38637857Y-3684610D02*
X38530714Y-3720324D01*
X38530714Y-3720324D02*
X38459286Y-3720324D01*
X38459286Y-3720324D02*
X38352143Y-3684610D01*
X38352143Y-3684610D02*
X38280714Y-3613181D01*
X38280714Y-3613181D02*
X38245000Y-3541752D01*
X38245000Y-3541752D02*
X38209286Y-3398895D01*
X38209286Y-3398895D02*
X38209286Y-3291752D01*
X38209286Y-3291752D02*
X38245000Y-3148895D01*
X38245000Y-3148895D02*
X38280714Y-3077467D01*
X38280714Y-3077467D02*
X38352143Y-3006038D01*
X38352143Y-3006038D02*
X38459286Y-2970324D01*
X38459286Y-2970324D02*
X38530714Y-2970324D01*
X38530714Y-2970324D02*
X38637857Y-3006038D01*
X38637857Y-3006038D02*
X38673571Y-3041752D01*
X39387857Y-3720324D02*
X38959286Y-3720324D01*
X39173571Y-3720324D02*
X39173571Y-2970324D01*
X39173571Y-2970324D02*
X39102143Y-3077467D01*
X39102143Y-3077467D02*
X39030714Y-3148895D01*
X39030714Y-3148895D02*
X38959286Y-3184610D01*
X1015714Y-24517152D02*
X1051428Y-24481438D01*
X1051428Y-24481438D02*
X1122857Y-24445724D01*
X1122857Y-24445724D02*
X1301428Y-24445724D01*
X1301428Y-24445724D02*
X1372857Y-24481438D01*
X1372857Y-24481438D02*
X1408571Y-24517152D01*
X1408571Y-24517152D02*
X1444285Y-24588581D01*
X1444285Y-24588581D02*
X1444285Y-24660010D01*
X1444285Y-24660010D02*
X1408571Y-24767152D01*
X1408571Y-24767152D02*
X979999Y-25195724D01*
X979999Y-25195724D02*
X1444285Y-25195724D01*
X1730000Y-24517152D02*
X1765714Y-24481438D01*
X1765714Y-24481438D02*
X1837143Y-24445724D01*
X1837143Y-24445724D02*
X2015714Y-24445724D01*
X2015714Y-24445724D02*
X2087143Y-24481438D01*
X2087143Y-24481438D02*
X2122857Y-24517152D01*
X2122857Y-24517152D02*
X2158571Y-24588581D01*
X2158571Y-24588581D02*
X2158571Y-24660010D01*
X2158571Y-24660010D02*
X2122857Y-24767152D01*
X2122857Y-24767152D02*
X1694285Y-25195724D01*
X1694285Y-25195724D02*
X2158571Y-25195724D01*
X2622857Y-24445724D02*
X2694286Y-24445724D01*
X2694286Y-24445724D02*
X2765714Y-24481438D01*
X2765714Y-24481438D02*
X2801429Y-24517152D01*
X2801429Y-24517152D02*
X2837143Y-24588581D01*
X2837143Y-24588581D02*
X2872857Y-24731438D01*
X2872857Y-24731438D02*
X2872857Y-24910010D01*
X2872857Y-24910010D02*
X2837143Y-25052867D01*
X2837143Y-25052867D02*
X2801429Y-25124295D01*
X2801429Y-25124295D02*
X2765714Y-25160010D01*
X2765714Y-25160010D02*
X2694286Y-25195724D01*
X2694286Y-25195724D02*
X2622857Y-25195724D01*
X2622857Y-25195724D02*
X2551429Y-25160010D01*
X2551429Y-25160010D02*
X2515714Y-25124295D01*
X2515714Y-25124295D02*
X2480000Y-25052867D01*
X2480000Y-25052867D02*
X2444286Y-24910010D01*
X2444286Y-24910010D02*
X2444286Y-24731438D01*
X2444286Y-24731438D02*
X2480000Y-24588581D01*
X2480000Y-24588581D02*
X2515714Y-24517152D01*
X2515714Y-24517152D02*
X2551429Y-24481438D01*
X2551429Y-24481438D02*
X2622857Y-24445724D01*
X3194286Y-24695724D02*
X3194286Y-25445724D01*
X3194286Y-24731438D02*
X3265715Y-24695724D01*
X3265715Y-24695724D02*
X3408572Y-24695724D01*
X3408572Y-24695724D02*
X3480000Y-24731438D01*
X3480000Y-24731438D02*
X3515715Y-24767152D01*
X3515715Y-24767152D02*
X3551429Y-24838581D01*
X3551429Y-24838581D02*
X3551429Y-25052867D01*
X3551429Y-25052867D02*
X3515715Y-25124295D01*
X3515715Y-25124295D02*
X3480000Y-25160010D01*
X3480000Y-25160010D02*
X3408572Y-25195724D01*
X3408572Y-25195724D02*
X3265715Y-25195724D01*
X3265715Y-25195724D02*
X3194286Y-25160010D01*
X4122857Y-24802867D02*
X3872857Y-24802867D01*
X3872857Y-25195724D02*
X3872857Y-24445724D01*
X3872857Y-24445724D02*
X4230000Y-24445724D01*
X914999Y-23269295D02*
X879285Y-23305010D01*
X879285Y-23305010D02*
X772142Y-23340724D01*
X772142Y-23340724D02*
X700714Y-23340724D01*
X700714Y-23340724D02*
X593571Y-23305010D01*
X593571Y-23305010D02*
X522142Y-23233581D01*
X522142Y-23233581D02*
X486428Y-23162152D01*
X486428Y-23162152D02*
X450714Y-23019295D01*
X450714Y-23019295D02*
X450714Y-22912152D01*
X450714Y-22912152D02*
X486428Y-22769295D01*
X486428Y-22769295D02*
X522142Y-22697867D01*
X522142Y-22697867D02*
X593571Y-22626438D01*
X593571Y-22626438D02*
X700714Y-22590724D01*
X700714Y-22590724D02*
X772142Y-22590724D01*
X772142Y-22590724D02*
X879285Y-22626438D01*
X879285Y-22626438D02*
X914999Y-22662152D01*
X1200714Y-22662152D02*
X1236428Y-22626438D01*
X1236428Y-22626438D02*
X1307857Y-22590724D01*
X1307857Y-22590724D02*
X1486428Y-22590724D01*
X1486428Y-22590724D02*
X1557857Y-22626438D01*
X1557857Y-22626438D02*
X1593571Y-22662152D01*
X1593571Y-22662152D02*
X1629285Y-22733581D01*
X1629285Y-22733581D02*
X1629285Y-22805010D01*
X1629285Y-22805010D02*
X1593571Y-22912152D01*
X1593571Y-22912152D02*
X1164999Y-23340724D01*
X1164999Y-23340724D02*
X1629285Y-23340724D01*
X24659285Y-1647152D02*
X24587856Y-1611438D01*
X24587856Y-1611438D02*
X24552142Y-1575724D01*
X24552142Y-1575724D02*
X24516428Y-1504295D01*
X24516428Y-1504295D02*
X24516428Y-1468581D01*
X24516428Y-1468581D02*
X24552142Y-1397152D01*
X24552142Y-1397152D02*
X24587856Y-1361438D01*
X24587856Y-1361438D02*
X24659285Y-1325724D01*
X24659285Y-1325724D02*
X24802142Y-1325724D01*
X24802142Y-1325724D02*
X24873571Y-1361438D01*
X24873571Y-1361438D02*
X24909285Y-1397152D01*
X24909285Y-1397152D02*
X24944999Y-1468581D01*
X24944999Y-1468581D02*
X24944999Y-1504295D01*
X24944999Y-1504295D02*
X24909285Y-1575724D01*
X24909285Y-1575724D02*
X24873571Y-1611438D01*
X24873571Y-1611438D02*
X24802142Y-1647152D01*
X24802142Y-1647152D02*
X24659285Y-1647152D01*
X24659285Y-1647152D02*
X24587856Y-1682867D01*
X24587856Y-1682867D02*
X24552142Y-1718581D01*
X24552142Y-1718581D02*
X24516428Y-1790010D01*
X24516428Y-1790010D02*
X24516428Y-1932867D01*
X24516428Y-1932867D02*
X24552142Y-2004295D01*
X24552142Y-2004295D02*
X24587856Y-2040010D01*
X24587856Y-2040010D02*
X24659285Y-2075724D01*
X24659285Y-2075724D02*
X24802142Y-2075724D01*
X24802142Y-2075724D02*
X24873571Y-2040010D01*
X24873571Y-2040010D02*
X24909285Y-2004295D01*
X24909285Y-2004295D02*
X24944999Y-1932867D01*
X24944999Y-1932867D02*
X24944999Y-1790010D01*
X24944999Y-1790010D02*
X24909285Y-1718581D01*
X24909285Y-1718581D02*
X24873571Y-1682867D01*
X24873571Y-1682867D02*
X24802142Y-1647152D01*
X25409285Y-1325724D02*
X25480714Y-1325724D01*
X25480714Y-1325724D02*
X25552142Y-1361438D01*
X25552142Y-1361438D02*
X25587857Y-1397152D01*
X25587857Y-1397152D02*
X25623571Y-1468581D01*
X25623571Y-1468581D02*
X25659285Y-1611438D01*
X25659285Y-1611438D02*
X25659285Y-1790010D01*
X25659285Y-1790010D02*
X25623571Y-1932867D01*
X25623571Y-1932867D02*
X25587857Y-2004295D01*
X25587857Y-2004295D02*
X25552142Y-2040010D01*
X25552142Y-2040010D02*
X25480714Y-2075724D01*
X25480714Y-2075724D02*
X25409285Y-2075724D01*
X25409285Y-2075724D02*
X25337857Y-2040010D01*
X25337857Y-2040010D02*
X25302142Y-2004295D01*
X25302142Y-2004295D02*
X25266428Y-1932867D01*
X25266428Y-1932867D02*
X25230714Y-1790010D01*
X25230714Y-1790010D02*
X25230714Y-1611438D01*
X25230714Y-1611438D02*
X25266428Y-1468581D01*
X25266428Y-1468581D02*
X25302142Y-1397152D01*
X25302142Y-1397152D02*
X25337857Y-1361438D01*
X25337857Y-1361438D02*
X25409285Y-1325724D01*
X26123571Y-1325724D02*
X26195000Y-1325724D01*
X26195000Y-1325724D02*
X26266428Y-1361438D01*
X26266428Y-1361438D02*
X26302143Y-1397152D01*
X26302143Y-1397152D02*
X26337857Y-1468581D01*
X26337857Y-1468581D02*
X26373571Y-1611438D01*
X26373571Y-1611438D02*
X26373571Y-1790010D01*
X26373571Y-1790010D02*
X26337857Y-1932867D01*
X26337857Y-1932867D02*
X26302143Y-2004295D01*
X26302143Y-2004295D02*
X26266428Y-2040010D01*
X26266428Y-2040010D02*
X26195000Y-2075724D01*
X26195000Y-2075724D02*
X26123571Y-2075724D01*
X26123571Y-2075724D02*
X26052143Y-2040010D01*
X26052143Y-2040010D02*
X26016428Y-2004295D01*
X26016428Y-2004295D02*
X25980714Y-1932867D01*
X25980714Y-1932867D02*
X25945000Y-1790010D01*
X25945000Y-1790010D02*
X25945000Y-1611438D01*
X25945000Y-1611438D02*
X25980714Y-1468581D01*
X25980714Y-1468581D02*
X26016428Y-1397152D01*
X26016428Y-1397152D02*
X26052143Y-1361438D01*
X26052143Y-1361438D02*
X26123571Y-1325724D01*
X27139999Y-4415724D02*
X26889999Y-4058581D01*
X26711428Y-4415724D02*
X26711428Y-3665724D01*
X26711428Y-3665724D02*
X26997142Y-3665724D01*
X26997142Y-3665724D02*
X27068571Y-3701438D01*
X27068571Y-3701438D02*
X27104285Y-3737152D01*
X27104285Y-3737152D02*
X27139999Y-3808581D01*
X27139999Y-3808581D02*
X27139999Y-3915724D01*
X27139999Y-3915724D02*
X27104285Y-3987152D01*
X27104285Y-3987152D02*
X27068571Y-4022867D01*
X27068571Y-4022867D02*
X26997142Y-4058581D01*
X26997142Y-4058581D02*
X26711428Y-4058581D01*
X27854285Y-4415724D02*
X27425714Y-4415724D01*
X27639999Y-4415724D02*
X27639999Y-3665724D01*
X27639999Y-3665724D02*
X27568571Y-3772867D01*
X27568571Y-3772867D02*
X27497142Y-3844295D01*
X27497142Y-3844295D02*
X27425714Y-3880010D01*
X12209285Y-31457152D02*
X12137856Y-31421438D01*
X12137856Y-31421438D02*
X12102142Y-31385724D01*
X12102142Y-31385724D02*
X12066428Y-31314295D01*
X12066428Y-31314295D02*
X12066428Y-31278581D01*
X12066428Y-31278581D02*
X12102142Y-31207152D01*
X12102142Y-31207152D02*
X12137856Y-31171438D01*
X12137856Y-31171438D02*
X12209285Y-31135724D01*
X12209285Y-31135724D02*
X12352142Y-31135724D01*
X12352142Y-31135724D02*
X12423571Y-31171438D01*
X12423571Y-31171438D02*
X12459285Y-31207152D01*
X12459285Y-31207152D02*
X12494999Y-31278581D01*
X12494999Y-31278581D02*
X12494999Y-31314295D01*
X12494999Y-31314295D02*
X12459285Y-31385724D01*
X12459285Y-31385724D02*
X12423571Y-31421438D01*
X12423571Y-31421438D02*
X12352142Y-31457152D01*
X12352142Y-31457152D02*
X12209285Y-31457152D01*
X12209285Y-31457152D02*
X12137856Y-31492867D01*
X12137856Y-31492867D02*
X12102142Y-31528581D01*
X12102142Y-31528581D02*
X12066428Y-31600010D01*
X12066428Y-31600010D02*
X12066428Y-31742867D01*
X12066428Y-31742867D02*
X12102142Y-31814295D01*
X12102142Y-31814295D02*
X12137856Y-31850010D01*
X12137856Y-31850010D02*
X12209285Y-31885724D01*
X12209285Y-31885724D02*
X12352142Y-31885724D01*
X12352142Y-31885724D02*
X12423571Y-31850010D01*
X12423571Y-31850010D02*
X12459285Y-31814295D01*
X12459285Y-31814295D02*
X12494999Y-31742867D01*
X12494999Y-31742867D02*
X12494999Y-31600010D01*
X12494999Y-31600010D02*
X12459285Y-31528581D01*
X12459285Y-31528581D02*
X12423571Y-31492867D01*
X12423571Y-31492867D02*
X12352142Y-31457152D01*
X12959285Y-31135724D02*
X13030714Y-31135724D01*
X13030714Y-31135724D02*
X13102142Y-31171438D01*
X13102142Y-31171438D02*
X13137857Y-31207152D01*
X13137857Y-31207152D02*
X13173571Y-31278581D01*
X13173571Y-31278581D02*
X13209285Y-31421438D01*
X13209285Y-31421438D02*
X13209285Y-31600010D01*
X13209285Y-31600010D02*
X13173571Y-31742867D01*
X13173571Y-31742867D02*
X13137857Y-31814295D01*
X13137857Y-31814295D02*
X13102142Y-31850010D01*
X13102142Y-31850010D02*
X13030714Y-31885724D01*
X13030714Y-31885724D02*
X12959285Y-31885724D01*
X12959285Y-31885724D02*
X12887857Y-31850010D01*
X12887857Y-31850010D02*
X12852142Y-31814295D01*
X12852142Y-31814295D02*
X12816428Y-31742867D01*
X12816428Y-31742867D02*
X12780714Y-31600010D01*
X12780714Y-31600010D02*
X12780714Y-31421438D01*
X12780714Y-31421438D02*
X12816428Y-31278581D01*
X12816428Y-31278581D02*
X12852142Y-31207152D01*
X12852142Y-31207152D02*
X12887857Y-31171438D01*
X12887857Y-31171438D02*
X12959285Y-31135724D01*
X13673571Y-31135724D02*
X13745000Y-31135724D01*
X13745000Y-31135724D02*
X13816428Y-31171438D01*
X13816428Y-31171438D02*
X13852143Y-31207152D01*
X13852143Y-31207152D02*
X13887857Y-31278581D01*
X13887857Y-31278581D02*
X13923571Y-31421438D01*
X13923571Y-31421438D02*
X13923571Y-31600010D01*
X13923571Y-31600010D02*
X13887857Y-31742867D01*
X13887857Y-31742867D02*
X13852143Y-31814295D01*
X13852143Y-31814295D02*
X13816428Y-31850010D01*
X13816428Y-31850010D02*
X13745000Y-31885724D01*
X13745000Y-31885724D02*
X13673571Y-31885724D01*
X13673571Y-31885724D02*
X13602143Y-31850010D01*
X13602143Y-31850010D02*
X13566428Y-31814295D01*
X13566428Y-31814295D02*
X13530714Y-31742867D01*
X13530714Y-31742867D02*
X13495000Y-31600010D01*
X13495000Y-31600010D02*
X13495000Y-31421438D01*
X13495000Y-31421438D02*
X13530714Y-31278581D01*
X13530714Y-31278581D02*
X13566428Y-31207152D01*
X13566428Y-31207152D02*
X13602143Y-31171438D01*
X13602143Y-31171438D02*
X13673571Y-31135724D01*
X13079999Y-30755724D02*
X12829999Y-30398581D01*
X12651428Y-30755724D02*
X12651428Y-30005724D01*
X12651428Y-30005724D02*
X12937142Y-30005724D01*
X12937142Y-30005724D02*
X13008571Y-30041438D01*
X13008571Y-30041438D02*
X13044285Y-30077152D01*
X13044285Y-30077152D02*
X13079999Y-30148581D01*
X13079999Y-30148581D02*
X13079999Y-30255724D01*
X13079999Y-30255724D02*
X13044285Y-30327152D01*
X13044285Y-30327152D02*
X13008571Y-30362867D01*
X13008571Y-30362867D02*
X12937142Y-30398581D01*
X12937142Y-30398581D02*
X12651428Y-30398581D01*
X13758571Y-30005724D02*
X13401428Y-30005724D01*
X13401428Y-30005724D02*
X13365714Y-30362867D01*
X13365714Y-30362867D02*
X13401428Y-30327152D01*
X13401428Y-30327152D02*
X13472857Y-30291438D01*
X13472857Y-30291438D02*
X13651428Y-30291438D01*
X13651428Y-30291438D02*
X13722857Y-30327152D01*
X13722857Y-30327152D02*
X13758571Y-30362867D01*
X13758571Y-30362867D02*
X13794285Y-30434295D01*
X13794285Y-30434295D02*
X13794285Y-30612867D01*
X13794285Y-30612867D02*
X13758571Y-30684295D01*
X13758571Y-30684295D02*
X13722857Y-30720010D01*
X13722857Y-30720010D02*
X13651428Y-30755724D01*
X13651428Y-30755724D02*
X13472857Y-30755724D01*
X13472857Y-30755724D02*
X13401428Y-30720010D01*
X13401428Y-30720010D02*
X13365714Y-30684295D01*
X14143571Y-1315724D02*
X14143571Y-1815724D01*
X13964999Y-1030010D02*
X13786428Y-1565724D01*
X13786428Y-1565724D02*
X14250713Y-1565724D01*
X14679285Y-1065724D02*
X14750714Y-1065724D01*
X14750714Y-1065724D02*
X14822142Y-1101438D01*
X14822142Y-1101438D02*
X14857857Y-1137152D01*
X14857857Y-1137152D02*
X14893571Y-1208581D01*
X14893571Y-1208581D02*
X14929285Y-1351438D01*
X14929285Y-1351438D02*
X14929285Y-1530010D01*
X14929285Y-1530010D02*
X14893571Y-1672867D01*
X14893571Y-1672867D02*
X14857857Y-1744295D01*
X14857857Y-1744295D02*
X14822142Y-1780010D01*
X14822142Y-1780010D02*
X14750714Y-1815724D01*
X14750714Y-1815724D02*
X14679285Y-1815724D01*
X14679285Y-1815724D02*
X14607857Y-1780010D01*
X14607857Y-1780010D02*
X14572142Y-1744295D01*
X14572142Y-1744295D02*
X14536428Y-1672867D01*
X14536428Y-1672867D02*
X14500714Y-1530010D01*
X14500714Y-1530010D02*
X14500714Y-1351438D01*
X14500714Y-1351438D02*
X14536428Y-1208581D01*
X14536428Y-1208581D02*
X14572142Y-1137152D01*
X14572142Y-1137152D02*
X14607857Y-1101438D01*
X14607857Y-1101438D02*
X14679285Y-1065724D01*
X15393571Y-1065724D02*
X15465000Y-1065724D01*
X15465000Y-1065724D02*
X15536428Y-1101438D01*
X15536428Y-1101438D02*
X15572143Y-1137152D01*
X15572143Y-1137152D02*
X15607857Y-1208581D01*
X15607857Y-1208581D02*
X15643571Y-1351438D01*
X15643571Y-1351438D02*
X15643571Y-1530010D01*
X15643571Y-1530010D02*
X15607857Y-1672867D01*
X15607857Y-1672867D02*
X15572143Y-1744295D01*
X15572143Y-1744295D02*
X15536428Y-1780010D01*
X15536428Y-1780010D02*
X15465000Y-1815724D01*
X15465000Y-1815724D02*
X15393571Y-1815724D01*
X15393571Y-1815724D02*
X15322143Y-1780010D01*
X15322143Y-1780010D02*
X15286428Y-1744295D01*
X15286428Y-1744295D02*
X15250714Y-1672867D01*
X15250714Y-1672867D02*
X15215000Y-1530010D01*
X15215000Y-1530010D02*
X15215000Y-1351438D01*
X15215000Y-1351438D02*
X15250714Y-1208581D01*
X15250714Y-1208581D02*
X15286428Y-1137152D01*
X15286428Y-1137152D02*
X15322143Y-1101438D01*
X15322143Y-1101438D02*
X15393571Y-1065724D01*
X12389706Y-2986513D02*
X12139706Y-2629370D01*
X11961135Y-2986513D02*
X11961135Y-2236513D01*
X11961135Y-2236513D02*
X12246849Y-2236513D01*
X12246849Y-2236513D02*
X12318278Y-2272227D01*
X12318278Y-2272227D02*
X12353992Y-2307941D01*
X12353992Y-2307941D02*
X12389706Y-2379370D01*
X12389706Y-2379370D02*
X12389706Y-2486513D01*
X12389706Y-2486513D02*
X12353992Y-2557941D01*
X12353992Y-2557941D02*
X12318278Y-2593656D01*
X12318278Y-2593656D02*
X12246849Y-2629370D01*
X12246849Y-2629370D02*
X11961135Y-2629370D01*
X13032564Y-2486513D02*
X13032564Y-2986513D01*
X12853992Y-2200799D02*
X12675421Y-2736513D01*
X12675421Y-2736513D02*
X13139706Y-2736513D01*
X19533571Y-33335724D02*
X19533571Y-33835724D01*
X19354999Y-33050010D02*
X19176428Y-33585724D01*
X19176428Y-33585724D02*
X19640713Y-33585724D01*
X20069285Y-33085724D02*
X20140714Y-33085724D01*
X20140714Y-33085724D02*
X20212142Y-33121438D01*
X20212142Y-33121438D02*
X20247857Y-33157152D01*
X20247857Y-33157152D02*
X20283571Y-33228581D01*
X20283571Y-33228581D02*
X20319285Y-33371438D01*
X20319285Y-33371438D02*
X20319285Y-33550010D01*
X20319285Y-33550010D02*
X20283571Y-33692867D01*
X20283571Y-33692867D02*
X20247857Y-33764295D01*
X20247857Y-33764295D02*
X20212142Y-33800010D01*
X20212142Y-33800010D02*
X20140714Y-33835724D01*
X20140714Y-33835724D02*
X20069285Y-33835724D01*
X20069285Y-33835724D02*
X19997857Y-33800010D01*
X19997857Y-33800010D02*
X19962142Y-33764295D01*
X19962142Y-33764295D02*
X19926428Y-33692867D01*
X19926428Y-33692867D02*
X19890714Y-33550010D01*
X19890714Y-33550010D02*
X19890714Y-33371438D01*
X19890714Y-33371438D02*
X19926428Y-33228581D01*
X19926428Y-33228581D02*
X19962142Y-33157152D01*
X19962142Y-33157152D02*
X19997857Y-33121438D01*
X19997857Y-33121438D02*
X20069285Y-33085724D01*
X20783571Y-33085724D02*
X20855000Y-33085724D01*
X20855000Y-33085724D02*
X20926428Y-33121438D01*
X20926428Y-33121438D02*
X20962143Y-33157152D01*
X20962143Y-33157152D02*
X20997857Y-33228581D01*
X20997857Y-33228581D02*
X21033571Y-33371438D01*
X21033571Y-33371438D02*
X21033571Y-33550010D01*
X21033571Y-33550010D02*
X20997857Y-33692867D01*
X20997857Y-33692867D02*
X20962143Y-33764295D01*
X20962143Y-33764295D02*
X20926428Y-33800010D01*
X20926428Y-33800010D02*
X20855000Y-33835724D01*
X20855000Y-33835724D02*
X20783571Y-33835724D01*
X20783571Y-33835724D02*
X20712143Y-33800010D01*
X20712143Y-33800010D02*
X20676428Y-33764295D01*
X20676428Y-33764295D02*
X20640714Y-33692867D01*
X20640714Y-33692867D02*
X20605000Y-33550010D01*
X20605000Y-33550010D02*
X20605000Y-33371438D01*
X20605000Y-33371438D02*
X20640714Y-33228581D01*
X20640714Y-33228581D02*
X20676428Y-33157152D01*
X20676428Y-33157152D02*
X20712143Y-33121438D01*
X20712143Y-33121438D02*
X20783571Y-33085724D01*
X19899999Y-32615724D02*
X19649999Y-32258581D01*
X19471428Y-32615724D02*
X19471428Y-31865724D01*
X19471428Y-31865724D02*
X19757142Y-31865724D01*
X19757142Y-31865724D02*
X19828571Y-31901438D01*
X19828571Y-31901438D02*
X19864285Y-31937152D01*
X19864285Y-31937152D02*
X19899999Y-32008581D01*
X19899999Y-32008581D02*
X19899999Y-32115724D01*
X19899999Y-32115724D02*
X19864285Y-32187152D01*
X19864285Y-32187152D02*
X19828571Y-32222867D01*
X19828571Y-32222867D02*
X19757142Y-32258581D01*
X19757142Y-32258581D02*
X19471428Y-32258581D01*
X20542857Y-31865724D02*
X20399999Y-31865724D01*
X20399999Y-31865724D02*
X20328571Y-31901438D01*
X20328571Y-31901438D02*
X20292857Y-31937152D01*
X20292857Y-31937152D02*
X20221428Y-32044295D01*
X20221428Y-32044295D02*
X20185714Y-32187152D01*
X20185714Y-32187152D02*
X20185714Y-32472867D01*
X20185714Y-32472867D02*
X20221428Y-32544295D01*
X20221428Y-32544295D02*
X20257142Y-32580010D01*
X20257142Y-32580010D02*
X20328571Y-32615724D01*
X20328571Y-32615724D02*
X20471428Y-32615724D01*
X20471428Y-32615724D02*
X20542857Y-32580010D01*
X20542857Y-32580010D02*
X20578571Y-32544295D01*
X20578571Y-32544295D02*
X20614285Y-32472867D01*
X20614285Y-32472867D02*
X20614285Y-32294295D01*
X20614285Y-32294295D02*
X20578571Y-32222867D01*
X20578571Y-32222867D02*
X20542857Y-32187152D01*
X20542857Y-32187152D02*
X20471428Y-32151438D01*
X20471428Y-32151438D02*
X20328571Y-32151438D01*
X20328571Y-32151438D02*
X20257142Y-32187152D01*
X20257142Y-32187152D02*
X20221428Y-32222867D01*
X20221428Y-32222867D02*
X20185714Y-32294295D01*
X1245714Y-6367152D02*
X1281428Y-6331438D01*
X1281428Y-6331438D02*
X1352857Y-6295724D01*
X1352857Y-6295724D02*
X1531428Y-6295724D01*
X1531428Y-6295724D02*
X1602857Y-6331438D01*
X1602857Y-6331438D02*
X1638571Y-6367152D01*
X1638571Y-6367152D02*
X1674285Y-6438581D01*
X1674285Y-6438581D02*
X1674285Y-6510010D01*
X1674285Y-6510010D02*
X1638571Y-6617152D01*
X1638571Y-6617152D02*
X1209999Y-7045724D01*
X1209999Y-7045724D02*
X1674285Y-7045724D01*
X1960000Y-6367152D02*
X1995714Y-6331438D01*
X1995714Y-6331438D02*
X2067143Y-6295724D01*
X2067143Y-6295724D02*
X2245714Y-6295724D01*
X2245714Y-6295724D02*
X2317143Y-6331438D01*
X2317143Y-6331438D02*
X2352857Y-6367152D01*
X2352857Y-6367152D02*
X2388571Y-6438581D01*
X2388571Y-6438581D02*
X2388571Y-6510010D01*
X2388571Y-6510010D02*
X2352857Y-6617152D01*
X2352857Y-6617152D02*
X1924285Y-7045724D01*
X1924285Y-7045724D02*
X2388571Y-7045724D01*
X2852857Y-6295724D02*
X2924286Y-6295724D01*
X2924286Y-6295724D02*
X2995714Y-6331438D01*
X2995714Y-6331438D02*
X3031429Y-6367152D01*
X3031429Y-6367152D02*
X3067143Y-6438581D01*
X3067143Y-6438581D02*
X3102857Y-6581438D01*
X3102857Y-6581438D02*
X3102857Y-6760010D01*
X3102857Y-6760010D02*
X3067143Y-6902867D01*
X3067143Y-6902867D02*
X3031429Y-6974295D01*
X3031429Y-6974295D02*
X2995714Y-7010010D01*
X2995714Y-7010010D02*
X2924286Y-7045724D01*
X2924286Y-7045724D02*
X2852857Y-7045724D01*
X2852857Y-7045724D02*
X2781429Y-7010010D01*
X2781429Y-7010010D02*
X2745714Y-6974295D01*
X2745714Y-6974295D02*
X2710000Y-6902867D01*
X2710000Y-6902867D02*
X2674286Y-6760010D01*
X2674286Y-6760010D02*
X2674286Y-6581438D01*
X2674286Y-6581438D02*
X2710000Y-6438581D01*
X2710000Y-6438581D02*
X2745714Y-6367152D01*
X2745714Y-6367152D02*
X2781429Y-6331438D01*
X2781429Y-6331438D02*
X2852857Y-6295724D01*
X3424286Y-6545724D02*
X3424286Y-7295724D01*
X3424286Y-6581438D02*
X3495715Y-6545724D01*
X3495715Y-6545724D02*
X3638572Y-6545724D01*
X3638572Y-6545724D02*
X3710000Y-6581438D01*
X3710000Y-6581438D02*
X3745715Y-6617152D01*
X3745715Y-6617152D02*
X3781429Y-6688581D01*
X3781429Y-6688581D02*
X3781429Y-6902867D01*
X3781429Y-6902867D02*
X3745715Y-6974295D01*
X3745715Y-6974295D02*
X3710000Y-7010010D01*
X3710000Y-7010010D02*
X3638572Y-7045724D01*
X3638572Y-7045724D02*
X3495715Y-7045724D01*
X3495715Y-7045724D02*
X3424286Y-7010010D01*
X4352857Y-6652867D02*
X4102857Y-6652867D01*
X4102857Y-7045724D02*
X4102857Y-6295724D01*
X4102857Y-6295724D02*
X4460000Y-6295724D01*
X1149999Y-9664295D02*
X1114285Y-9700010D01*
X1114285Y-9700010D02*
X1007142Y-9735724D01*
X1007142Y-9735724D02*
X935714Y-9735724D01*
X935714Y-9735724D02*
X828571Y-9700010D01*
X828571Y-9700010D02*
X757142Y-9628581D01*
X757142Y-9628581D02*
X721428Y-9557152D01*
X721428Y-9557152D02*
X685714Y-9414295D01*
X685714Y-9414295D02*
X685714Y-9307152D01*
X685714Y-9307152D02*
X721428Y-9164295D01*
X721428Y-9164295D02*
X757142Y-9092867D01*
X757142Y-9092867D02*
X828571Y-9021438D01*
X828571Y-9021438D02*
X935714Y-8985724D01*
X935714Y-8985724D02*
X1007142Y-8985724D01*
X1007142Y-8985724D02*
X1114285Y-9021438D01*
X1114285Y-9021438D02*
X1149999Y-9057152D01*
X1792857Y-9235724D02*
X1792857Y-9735724D01*
X1614285Y-8950010D02*
X1435714Y-9485724D01*
X1435714Y-9485724D02*
X1899999Y-9485724D01*
X17219285Y-1197152D02*
X17147856Y-1161438D01*
X17147856Y-1161438D02*
X17112142Y-1125724D01*
X17112142Y-1125724D02*
X17076428Y-1054295D01*
X17076428Y-1054295D02*
X17076428Y-1018581D01*
X17076428Y-1018581D02*
X17112142Y-947152D01*
X17112142Y-947152D02*
X17147856Y-911438D01*
X17147856Y-911438D02*
X17219285Y-875724D01*
X17219285Y-875724D02*
X17362142Y-875724D01*
X17362142Y-875724D02*
X17433571Y-911438D01*
X17433571Y-911438D02*
X17469285Y-947152D01*
X17469285Y-947152D02*
X17504999Y-1018581D01*
X17504999Y-1018581D02*
X17504999Y-1054295D01*
X17504999Y-1054295D02*
X17469285Y-1125724D01*
X17469285Y-1125724D02*
X17433571Y-1161438D01*
X17433571Y-1161438D02*
X17362142Y-1197152D01*
X17362142Y-1197152D02*
X17219285Y-1197152D01*
X17219285Y-1197152D02*
X17147856Y-1232867D01*
X17147856Y-1232867D02*
X17112142Y-1268581D01*
X17112142Y-1268581D02*
X17076428Y-1340010D01*
X17076428Y-1340010D02*
X17076428Y-1482867D01*
X17076428Y-1482867D02*
X17112142Y-1554295D01*
X17112142Y-1554295D02*
X17147856Y-1590010D01*
X17147856Y-1590010D02*
X17219285Y-1625724D01*
X17219285Y-1625724D02*
X17362142Y-1625724D01*
X17362142Y-1625724D02*
X17433571Y-1590010D01*
X17433571Y-1590010D02*
X17469285Y-1554295D01*
X17469285Y-1554295D02*
X17504999Y-1482867D01*
X17504999Y-1482867D02*
X17504999Y-1340010D01*
X17504999Y-1340010D02*
X17469285Y-1268581D01*
X17469285Y-1268581D02*
X17433571Y-1232867D01*
X17433571Y-1232867D02*
X17362142Y-1197152D01*
X17969285Y-875724D02*
X18040714Y-875724D01*
X18040714Y-875724D02*
X18112142Y-911438D01*
X18112142Y-911438D02*
X18147857Y-947152D01*
X18147857Y-947152D02*
X18183571Y-1018581D01*
X18183571Y-1018581D02*
X18219285Y-1161438D01*
X18219285Y-1161438D02*
X18219285Y-1340010D01*
X18219285Y-1340010D02*
X18183571Y-1482867D01*
X18183571Y-1482867D02*
X18147857Y-1554295D01*
X18147857Y-1554295D02*
X18112142Y-1590010D01*
X18112142Y-1590010D02*
X18040714Y-1625724D01*
X18040714Y-1625724D02*
X17969285Y-1625724D01*
X17969285Y-1625724D02*
X17897857Y-1590010D01*
X17897857Y-1590010D02*
X17862142Y-1554295D01*
X17862142Y-1554295D02*
X17826428Y-1482867D01*
X17826428Y-1482867D02*
X17790714Y-1340010D01*
X17790714Y-1340010D02*
X17790714Y-1161438D01*
X17790714Y-1161438D02*
X17826428Y-1018581D01*
X17826428Y-1018581D02*
X17862142Y-947152D01*
X17862142Y-947152D02*
X17897857Y-911438D01*
X17897857Y-911438D02*
X17969285Y-875724D01*
X18683571Y-875724D02*
X18755000Y-875724D01*
X18755000Y-875724D02*
X18826428Y-911438D01*
X18826428Y-911438D02*
X18862143Y-947152D01*
X18862143Y-947152D02*
X18897857Y-1018581D01*
X18897857Y-1018581D02*
X18933571Y-1161438D01*
X18933571Y-1161438D02*
X18933571Y-1340010D01*
X18933571Y-1340010D02*
X18897857Y-1482867D01*
X18897857Y-1482867D02*
X18862143Y-1554295D01*
X18862143Y-1554295D02*
X18826428Y-1590010D01*
X18826428Y-1590010D02*
X18755000Y-1625724D01*
X18755000Y-1625724D02*
X18683571Y-1625724D01*
X18683571Y-1625724D02*
X18612143Y-1590010D01*
X18612143Y-1590010D02*
X18576428Y-1554295D01*
X18576428Y-1554295D02*
X18540714Y-1482867D01*
X18540714Y-1482867D02*
X18505000Y-1340010D01*
X18505000Y-1340010D02*
X18505000Y-1161438D01*
X18505000Y-1161438D02*
X18540714Y-1018581D01*
X18540714Y-1018581D02*
X18576428Y-947152D01*
X18576428Y-947152D02*
X18612143Y-911438D01*
X18612143Y-911438D02*
X18683571Y-875724D01*
X19509999Y-3115724D02*
X19259999Y-2758581D01*
X19081428Y-3115724D02*
X19081428Y-2365724D01*
X19081428Y-2365724D02*
X19367142Y-2365724D01*
X19367142Y-2365724D02*
X19438571Y-2401438D01*
X19438571Y-2401438D02*
X19474285Y-2437152D01*
X19474285Y-2437152D02*
X19509999Y-2508581D01*
X19509999Y-2508581D02*
X19509999Y-2615724D01*
X19509999Y-2615724D02*
X19474285Y-2687152D01*
X19474285Y-2687152D02*
X19438571Y-2722867D01*
X19438571Y-2722867D02*
X19367142Y-2758581D01*
X19367142Y-2758581D02*
X19081428Y-2758581D01*
X19759999Y-2365724D02*
X20224285Y-2365724D01*
X20224285Y-2365724D02*
X19974285Y-2651438D01*
X19974285Y-2651438D02*
X20081428Y-2651438D01*
X20081428Y-2651438D02*
X20152857Y-2687152D01*
X20152857Y-2687152D02*
X20188571Y-2722867D01*
X20188571Y-2722867D02*
X20224285Y-2794295D01*
X20224285Y-2794295D02*
X20224285Y-2972867D01*
X20224285Y-2972867D02*
X20188571Y-3044295D01*
X20188571Y-3044295D02*
X20152857Y-3080010D01*
X20152857Y-3080010D02*
X20081428Y-3115724D01*
X20081428Y-3115724D02*
X19867142Y-3115724D01*
X19867142Y-3115724D02*
X19795714Y-3080010D01*
X19795714Y-3080010D02*
X19759999Y-3044295D01*
X22063571Y-1495724D02*
X22063571Y-1995724D01*
X21884999Y-1210010D02*
X21706428Y-1745724D01*
X21706428Y-1745724D02*
X22170713Y-1745724D01*
X22599285Y-1245724D02*
X22670714Y-1245724D01*
X22670714Y-1245724D02*
X22742142Y-1281438D01*
X22742142Y-1281438D02*
X22777857Y-1317152D01*
X22777857Y-1317152D02*
X22813571Y-1388581D01*
X22813571Y-1388581D02*
X22849285Y-1531438D01*
X22849285Y-1531438D02*
X22849285Y-1710010D01*
X22849285Y-1710010D02*
X22813571Y-1852867D01*
X22813571Y-1852867D02*
X22777857Y-1924295D01*
X22777857Y-1924295D02*
X22742142Y-1960010D01*
X22742142Y-1960010D02*
X22670714Y-1995724D01*
X22670714Y-1995724D02*
X22599285Y-1995724D01*
X22599285Y-1995724D02*
X22527857Y-1960010D01*
X22527857Y-1960010D02*
X22492142Y-1924295D01*
X22492142Y-1924295D02*
X22456428Y-1852867D01*
X22456428Y-1852867D02*
X22420714Y-1710010D01*
X22420714Y-1710010D02*
X22420714Y-1531438D01*
X22420714Y-1531438D02*
X22456428Y-1388581D01*
X22456428Y-1388581D02*
X22492142Y-1317152D01*
X22492142Y-1317152D02*
X22527857Y-1281438D01*
X22527857Y-1281438D02*
X22599285Y-1245724D01*
X23313571Y-1245724D02*
X23385000Y-1245724D01*
X23385000Y-1245724D02*
X23456428Y-1281438D01*
X23456428Y-1281438D02*
X23492143Y-1317152D01*
X23492143Y-1317152D02*
X23527857Y-1388581D01*
X23527857Y-1388581D02*
X23563571Y-1531438D01*
X23563571Y-1531438D02*
X23563571Y-1710010D01*
X23563571Y-1710010D02*
X23527857Y-1852867D01*
X23527857Y-1852867D02*
X23492143Y-1924295D01*
X23492143Y-1924295D02*
X23456428Y-1960010D01*
X23456428Y-1960010D02*
X23385000Y-1995724D01*
X23385000Y-1995724D02*
X23313571Y-1995724D01*
X23313571Y-1995724D02*
X23242143Y-1960010D01*
X23242143Y-1960010D02*
X23206428Y-1924295D01*
X23206428Y-1924295D02*
X23170714Y-1852867D01*
X23170714Y-1852867D02*
X23135000Y-1710010D01*
X23135000Y-1710010D02*
X23135000Y-1531438D01*
X23135000Y-1531438D02*
X23170714Y-1388581D01*
X23170714Y-1388581D02*
X23206428Y-1317152D01*
X23206428Y-1317152D02*
X23242143Y-1281438D01*
X23242143Y-1281438D02*
X23313571Y-1245724D01*
X20969999Y-5775724D02*
X20719999Y-5418581D01*
X20541428Y-5775724D02*
X20541428Y-5025724D01*
X20541428Y-5025724D02*
X20827142Y-5025724D01*
X20827142Y-5025724D02*
X20898571Y-5061438D01*
X20898571Y-5061438D02*
X20934285Y-5097152D01*
X20934285Y-5097152D02*
X20969999Y-5168581D01*
X20969999Y-5168581D02*
X20969999Y-5275724D01*
X20969999Y-5275724D02*
X20934285Y-5347152D01*
X20934285Y-5347152D02*
X20898571Y-5382867D01*
X20898571Y-5382867D02*
X20827142Y-5418581D01*
X20827142Y-5418581D02*
X20541428Y-5418581D01*
X21255714Y-5097152D02*
X21291428Y-5061438D01*
X21291428Y-5061438D02*
X21362857Y-5025724D01*
X21362857Y-5025724D02*
X21541428Y-5025724D01*
X21541428Y-5025724D02*
X21612857Y-5061438D01*
X21612857Y-5061438D02*
X21648571Y-5097152D01*
X21648571Y-5097152D02*
X21684285Y-5168581D01*
X21684285Y-5168581D02*
X21684285Y-5240010D01*
X21684285Y-5240010D02*
X21648571Y-5347152D01*
X21648571Y-5347152D02*
X21219999Y-5775724D01*
X21219999Y-5775724D02*
X21684285Y-5775724D01*
X1345714Y-13207152D02*
X1381428Y-13171438D01*
X1381428Y-13171438D02*
X1452857Y-13135724D01*
X1452857Y-13135724D02*
X1631428Y-13135724D01*
X1631428Y-13135724D02*
X1702857Y-13171438D01*
X1702857Y-13171438D02*
X1738571Y-13207152D01*
X1738571Y-13207152D02*
X1774285Y-13278581D01*
X1774285Y-13278581D02*
X1774285Y-13350010D01*
X1774285Y-13350010D02*
X1738571Y-13457152D01*
X1738571Y-13457152D02*
X1309999Y-13885724D01*
X1309999Y-13885724D02*
X1774285Y-13885724D01*
X2060000Y-13207152D02*
X2095714Y-13171438D01*
X2095714Y-13171438D02*
X2167143Y-13135724D01*
X2167143Y-13135724D02*
X2345714Y-13135724D01*
X2345714Y-13135724D02*
X2417143Y-13171438D01*
X2417143Y-13171438D02*
X2452857Y-13207152D01*
X2452857Y-13207152D02*
X2488571Y-13278581D01*
X2488571Y-13278581D02*
X2488571Y-13350010D01*
X2488571Y-13350010D02*
X2452857Y-13457152D01*
X2452857Y-13457152D02*
X2024285Y-13885724D01*
X2024285Y-13885724D02*
X2488571Y-13885724D01*
X2952857Y-13135724D02*
X3024286Y-13135724D01*
X3024286Y-13135724D02*
X3095714Y-13171438D01*
X3095714Y-13171438D02*
X3131429Y-13207152D01*
X3131429Y-13207152D02*
X3167143Y-13278581D01*
X3167143Y-13278581D02*
X3202857Y-13421438D01*
X3202857Y-13421438D02*
X3202857Y-13600010D01*
X3202857Y-13600010D02*
X3167143Y-13742867D01*
X3167143Y-13742867D02*
X3131429Y-13814295D01*
X3131429Y-13814295D02*
X3095714Y-13850010D01*
X3095714Y-13850010D02*
X3024286Y-13885724D01*
X3024286Y-13885724D02*
X2952857Y-13885724D01*
X2952857Y-13885724D02*
X2881429Y-13850010D01*
X2881429Y-13850010D02*
X2845714Y-13814295D01*
X2845714Y-13814295D02*
X2810000Y-13742867D01*
X2810000Y-13742867D02*
X2774286Y-13600010D01*
X2774286Y-13600010D02*
X2774286Y-13421438D01*
X2774286Y-13421438D02*
X2810000Y-13278581D01*
X2810000Y-13278581D02*
X2845714Y-13207152D01*
X2845714Y-13207152D02*
X2881429Y-13171438D01*
X2881429Y-13171438D02*
X2952857Y-13135724D01*
X3524286Y-13385724D02*
X3524286Y-14135724D01*
X3524286Y-13421438D02*
X3595715Y-13385724D01*
X3595715Y-13385724D02*
X3738572Y-13385724D01*
X3738572Y-13385724D02*
X3810000Y-13421438D01*
X3810000Y-13421438D02*
X3845715Y-13457152D01*
X3845715Y-13457152D02*
X3881429Y-13528581D01*
X3881429Y-13528581D02*
X3881429Y-13742867D01*
X3881429Y-13742867D02*
X3845715Y-13814295D01*
X3845715Y-13814295D02*
X3810000Y-13850010D01*
X3810000Y-13850010D02*
X3738572Y-13885724D01*
X3738572Y-13885724D02*
X3595715Y-13885724D01*
X3595715Y-13885724D02*
X3524286Y-13850010D01*
X4452857Y-13492867D02*
X4202857Y-13492867D01*
X4202857Y-13885724D02*
X4202857Y-13135724D01*
X4202857Y-13135724D02*
X4560000Y-13135724D01*
X1109999Y-17849295D02*
X1074285Y-17885010D01*
X1074285Y-17885010D02*
X967142Y-17920724D01*
X967142Y-17920724D02*
X895714Y-17920724D01*
X895714Y-17920724D02*
X788571Y-17885010D01*
X788571Y-17885010D02*
X717142Y-17813581D01*
X717142Y-17813581D02*
X681428Y-17742152D01*
X681428Y-17742152D02*
X645714Y-17599295D01*
X645714Y-17599295D02*
X645714Y-17492152D01*
X645714Y-17492152D02*
X681428Y-17349295D01*
X681428Y-17349295D02*
X717142Y-17277867D01*
X717142Y-17277867D02*
X788571Y-17206438D01*
X788571Y-17206438D02*
X895714Y-17170724D01*
X895714Y-17170724D02*
X967142Y-17170724D01*
X967142Y-17170724D02*
X1074285Y-17206438D01*
X1074285Y-17206438D02*
X1109999Y-17242152D01*
X1359999Y-17170724D02*
X1824285Y-17170724D01*
X1824285Y-17170724D02*
X1574285Y-17456438D01*
X1574285Y-17456438D02*
X1681428Y-17456438D01*
X1681428Y-17456438D02*
X1752857Y-17492152D01*
X1752857Y-17492152D02*
X1788571Y-17527867D01*
X1788571Y-17527867D02*
X1824285Y-17599295D01*
X1824285Y-17599295D02*
X1824285Y-17777867D01*
X1824285Y-17777867D02*
X1788571Y-17849295D01*
X1788571Y-17849295D02*
X1752857Y-17885010D01*
X1752857Y-17885010D02*
X1681428Y-17920724D01*
X1681428Y-17920724D02*
X1467142Y-17920724D01*
X1467142Y-17920724D02*
X1395714Y-17885010D01*
X1395714Y-17885010D02*
X1359999Y-17849295D01*
%TO.C,R8*%
D11*
X2325000Y-35825000D02*
X5525000Y-35825000D01*
X5525000Y-37425000D01*
X2325000Y-37425000D01*
X2325000Y-35825000D01*
%TO.C,R7*%
X2305000Y-38405000D02*
X5505000Y-38405000D01*
X5505000Y-40005000D01*
X2305000Y-40005000D01*
X2305000Y-38405000D01*
D10*
%TO.C,J1*%
X57960000Y-35320000D02*
X56630000Y-35320000D01*
X57960000Y-36430000D02*
X57960000Y-35320000D01*
D11*
X56930000Y-36430000D02*
X56930000Y-40490000D01*
X56330000Y-36430000D02*
X56930000Y-36430000D01*
X54390000Y-36430000D02*
X54390000Y-40490000D01*
X53790000Y-36430000D02*
X54390000Y-36430000D01*
X51850000Y-36430000D02*
X51850000Y-40490000D01*
X51250000Y-36430000D02*
X51850000Y-36430000D01*
X49310000Y-36430000D02*
X49310000Y-40490000D01*
X48710000Y-36430000D02*
X49310000Y-36430000D01*
X46770000Y-36430000D02*
X46770000Y-40490000D01*
X46170000Y-36430000D02*
X46770000Y-36430000D01*
X44230000Y-36430000D02*
X44230000Y-40490000D01*
X43630000Y-36430000D02*
X44230000Y-36430000D01*
X41690000Y-36430000D02*
X41690000Y-40490000D01*
X41090000Y-36430000D02*
X41690000Y-36430000D01*
X39150000Y-36430000D02*
X39150000Y-40490000D01*
X38550000Y-36430000D02*
X39150000Y-36430000D01*
X36610000Y-36430000D02*
X36610000Y-40490000D01*
X36010000Y-36430000D02*
X36610000Y-36430000D01*
X34070000Y-36430000D02*
X34070000Y-40490000D01*
X33470000Y-36430000D02*
X34070000Y-36430000D01*
X31530000Y-36430000D02*
X31530000Y-40490000D01*
X30930000Y-36430000D02*
X31530000Y-36430000D01*
X28990000Y-36430000D02*
X28990000Y-40490000D01*
X28390000Y-36430000D02*
X28990000Y-36430000D01*
X26450000Y-36430000D02*
X26450000Y-40490000D01*
X25850000Y-36430000D02*
X26450000Y-36430000D01*
X23910000Y-36430000D02*
X23910000Y-40490000D01*
X23310000Y-36430000D02*
X23910000Y-36430000D01*
X21370000Y-36430000D02*
X21370000Y-40490000D01*
X20770000Y-36430000D02*
X21370000Y-36430000D01*
X18830000Y-36430000D02*
X18830000Y-40490000D01*
X18230000Y-36430000D02*
X18830000Y-36430000D01*
X16290000Y-36430000D02*
X16290000Y-40490000D01*
X15690000Y-36430000D02*
X16290000Y-36430000D01*
X13750000Y-36430000D02*
X13750000Y-40490000D01*
X13150000Y-36430000D02*
X13750000Y-36430000D01*
X11210000Y-36430000D02*
X11210000Y-40490000D01*
X10610000Y-36430000D02*
X11210000Y-36430000D01*
X8670000Y-36430000D02*
X8670000Y-40490000D01*
X8070000Y-36430000D02*
X8670000Y-36430000D01*
D10*
X56990000Y-37920000D02*
X56990000Y-37540000D01*
X56270000Y-37920000D02*
X56270000Y-37540000D01*
X54450000Y-37920000D02*
X54450000Y-37480000D01*
X53730000Y-37920000D02*
X53730000Y-37480000D01*
X51910000Y-37920000D02*
X51910000Y-37480000D01*
X51190000Y-37920000D02*
X51190000Y-37480000D01*
X49370000Y-37920000D02*
X49370000Y-37480000D01*
X48650000Y-37920000D02*
X48650000Y-37480000D01*
X46830000Y-37920000D02*
X46830000Y-37480000D01*
X46110000Y-37920000D02*
X46110000Y-37480000D01*
X44290000Y-37920000D02*
X44290000Y-37480000D01*
X43570000Y-37920000D02*
X43570000Y-37480000D01*
X41750000Y-37920000D02*
X41750000Y-37480000D01*
X41030000Y-37920000D02*
X41030000Y-37480000D01*
X39210000Y-37920000D02*
X39210000Y-37480000D01*
X38490000Y-37920000D02*
X38490000Y-37480000D01*
X36670000Y-37920000D02*
X36670000Y-37480000D01*
X35950000Y-37920000D02*
X35950000Y-37480000D01*
X34130000Y-37920000D02*
X34130000Y-37480000D01*
X33410000Y-37920000D02*
X33410000Y-37480000D01*
X31590000Y-37920000D02*
X31590000Y-37480000D01*
X30870000Y-37920000D02*
X30870000Y-37480000D01*
X29050000Y-37920000D02*
X29050000Y-37480000D01*
X28330000Y-37920000D02*
X28330000Y-37480000D01*
X26510000Y-37920000D02*
X26510000Y-37480000D01*
X25790000Y-37920000D02*
X25790000Y-37480000D01*
X23970000Y-37920000D02*
X23970000Y-37480000D01*
X23250000Y-37920000D02*
X23250000Y-37480000D01*
X21430000Y-37920000D02*
X21430000Y-37480000D01*
X20710000Y-37920000D02*
X20710000Y-37480000D01*
X18890000Y-37920000D02*
X18890000Y-37480000D01*
X18170000Y-37920000D02*
X18170000Y-37480000D01*
X16350000Y-37920000D02*
X16350000Y-37480000D01*
X15630000Y-37920000D02*
X15630000Y-37480000D01*
X13810000Y-37920000D02*
X13810000Y-37480000D01*
X13090000Y-37920000D02*
X13090000Y-37480000D01*
X11270000Y-37920000D02*
X11270000Y-37480000D01*
X10550000Y-37920000D02*
X10550000Y-37480000D01*
X8730000Y-37920000D02*
X8730000Y-37480000D01*
X8010000Y-37920000D02*
X8010000Y-37480000D01*
X57960000Y-40430000D02*
X7040000Y-40430000D01*
X56990000Y-40430000D02*
X56990000Y-40020000D01*
X56270000Y-40430000D02*
X56270000Y-40020000D01*
X54450000Y-40430000D02*
X54450000Y-40020000D01*
X53730000Y-40430000D02*
X53730000Y-40020000D01*
X51910000Y-40430000D02*
X51910000Y-40020000D01*
X51190000Y-40430000D02*
X51190000Y-40020000D01*
X49370000Y-40430000D02*
X49370000Y-40020000D01*
X48650000Y-40430000D02*
X48650000Y-40020000D01*
X46830000Y-40430000D02*
X46830000Y-40020000D01*
X46110000Y-40430000D02*
X46110000Y-40020000D01*
X44290000Y-40430000D02*
X44290000Y-40020000D01*
X43570000Y-40430000D02*
X43570000Y-40020000D01*
X41750000Y-40430000D02*
X41750000Y-40020000D01*
X41030000Y-40430000D02*
X41030000Y-40020000D01*
X39210000Y-40430000D02*
X39210000Y-40020000D01*
X38490000Y-40430000D02*
X38490000Y-40020000D01*
X36670000Y-40430000D02*
X36670000Y-40020000D01*
X35950000Y-40430000D02*
X35950000Y-40020000D01*
X34130000Y-40430000D02*
X34130000Y-40020000D01*
X33410000Y-40430000D02*
X33410000Y-40020000D01*
X31590000Y-40430000D02*
X31590000Y-40020000D01*
X30870000Y-40430000D02*
X30870000Y-40020000D01*
X29050000Y-40430000D02*
X29050000Y-40020000D01*
X28330000Y-40430000D02*
X28330000Y-40020000D01*
X26510000Y-40430000D02*
X26510000Y-40020000D01*
X25790000Y-40430000D02*
X25790000Y-40020000D01*
X23970000Y-40430000D02*
X23970000Y-40020000D01*
X23250000Y-40430000D02*
X23250000Y-40020000D01*
X21430000Y-40430000D02*
X21430000Y-40020000D01*
X20710000Y-40430000D02*
X20710000Y-40020000D01*
X18890000Y-40430000D02*
X18890000Y-40020000D01*
X18170000Y-40430000D02*
X18170000Y-40020000D01*
X16350000Y-40430000D02*
X16350000Y-40020000D01*
X15630000Y-40430000D02*
X15630000Y-40020000D01*
X13810000Y-40430000D02*
X13810000Y-40020000D01*
X13090000Y-40430000D02*
X13090000Y-40020000D01*
X11270000Y-40430000D02*
X11270000Y-40020000D01*
X10550000Y-40430000D02*
X10550000Y-40020000D01*
X8730000Y-40430000D02*
X8730000Y-40020000D01*
X8010000Y-40430000D02*
X8010000Y-40020000D01*
D11*
X56930000Y-40490000D02*
X7100000Y-40490000D01*
X56330000Y-40490000D02*
X56330000Y-36430000D01*
X53790000Y-40490000D02*
X53790000Y-36430000D01*
X51250000Y-40490000D02*
X51250000Y-36430000D01*
X48710000Y-40490000D02*
X48710000Y-36430000D01*
X46170000Y-40490000D02*
X46170000Y-36430000D01*
X43630000Y-40490000D02*
X43630000Y-36430000D01*
X41090000Y-40490000D02*
X41090000Y-36430000D01*
X38550000Y-40490000D02*
X38550000Y-36430000D01*
X36010000Y-40490000D02*
X36010000Y-36430000D01*
X33470000Y-40490000D02*
X33470000Y-36430000D01*
X30930000Y-40490000D02*
X30930000Y-36430000D01*
X28390000Y-40490000D02*
X28390000Y-36430000D01*
X25850000Y-40490000D02*
X25850000Y-36430000D01*
X23310000Y-40490000D02*
X23310000Y-36430000D01*
X20770000Y-40490000D02*
X20770000Y-36430000D01*
X18230000Y-40490000D02*
X18230000Y-36430000D01*
X15690000Y-40490000D02*
X15690000Y-36430000D01*
X13150000Y-40490000D02*
X13150000Y-36430000D01*
X10610000Y-40490000D02*
X10610000Y-36430000D01*
X8070000Y-40490000D02*
X8070000Y-36430000D01*
D10*
X57960000Y-48000000D02*
X57960000Y-40430000D01*
X57960000Y-48000000D02*
X7040000Y-48000000D01*
X55360000Y-48000000D02*
X55360000Y-40430000D01*
X52820000Y-48000000D02*
X52820000Y-40430000D01*
X50280000Y-48000000D02*
X50280000Y-40430000D01*
X47740000Y-48000000D02*
X47740000Y-40430000D01*
X45200000Y-48000000D02*
X45200000Y-40430000D01*
X42660000Y-48000000D02*
X42660000Y-40430000D01*
X40120000Y-48000000D02*
X40120000Y-40430000D01*
X37580000Y-48000000D02*
X37580000Y-40430000D01*
X35040000Y-48000000D02*
X35040000Y-40430000D01*
X32500000Y-48000000D02*
X32500000Y-40430000D01*
X29960000Y-48000000D02*
X29960000Y-40430000D01*
X27420000Y-48000000D02*
X27420000Y-40430000D01*
X24880000Y-48000000D02*
X24880000Y-40430000D01*
X22340000Y-48000000D02*
X22340000Y-40430000D01*
X19800000Y-48000000D02*
X19800000Y-40430000D01*
X17260000Y-48000000D02*
X17260000Y-40430000D01*
X14720000Y-48000000D02*
X14720000Y-40430000D01*
X12180000Y-48000000D02*
X12180000Y-40430000D01*
X9640000Y-48000000D02*
X9640000Y-40430000D01*
D11*
X7100000Y-48000000D02*
X57900000Y-48000000D01*
D10*
X7040000Y-48000000D02*
X7040000Y-40430000D01*
%TO.C,J2*%
X-3130000Y-7420000D02*
X-3130000Y-32940000D01*
X-3130000Y-7420000D02*
X5500000Y-7420000D01*
X-3130000Y-7540000D02*
X5500000Y-7540000D01*
X-3130000Y-7658095D02*
X5500000Y-7658095D01*
X-3130000Y-7776190D02*
X5500000Y-7776190D01*
X-3130000Y-7894285D02*
X5500000Y-7894285D01*
X-3130000Y-8012380D02*
X5500000Y-8012380D01*
X-3130000Y-8130475D02*
X5500000Y-8130475D01*
X-3130000Y-8248570D02*
X5500000Y-8248570D01*
X-3130000Y-8366665D02*
X5500000Y-8366665D01*
X-3130000Y-8484760D02*
X5500000Y-8484760D01*
X-3130000Y-8602855D02*
X5500000Y-8602855D01*
X-3130000Y-8720950D02*
X5500000Y-8720950D01*
X-3130000Y-8839045D02*
X5500000Y-8839045D01*
X-3130000Y-8957140D02*
X5500000Y-8957140D01*
X-3130000Y-9075235D02*
X5500000Y-9075235D01*
X-3130000Y-9193330D02*
X5500000Y-9193330D01*
X-3130000Y-9311425D02*
X5500000Y-9311425D01*
X-3130000Y-9429520D02*
X5500000Y-9429520D01*
X-3130000Y-9547615D02*
X5500000Y-9547615D01*
X-3130000Y-9665710D02*
X5500000Y-9665710D01*
X-3130000Y-9783805D02*
X5500000Y-9783805D01*
X-3130000Y-9901900D02*
X5500000Y-9901900D01*
X-3130000Y-10020000D02*
X5500000Y-10020000D01*
X-3130000Y-12560000D02*
X5500000Y-12560000D01*
X-3130000Y-15100000D02*
X5500000Y-15100000D01*
X-3130000Y-17640000D02*
X5500000Y-17640000D01*
X-3130000Y-20180000D02*
X5500000Y-20180000D01*
X-3130000Y-22720000D02*
X5500000Y-22720000D01*
X-3130000Y-25260000D02*
X5500000Y-25260000D01*
X-3130000Y-27800000D02*
X5500000Y-27800000D01*
X-3130000Y-30340000D02*
X5500000Y-30340000D01*
X-3130000Y-32940000D02*
X5500000Y-32940000D01*
D11*
X-3070000Y-7480000D02*
X4470000Y-7480000D01*
X-3070000Y-32880000D02*
X-3070000Y-7480000D01*
X4470000Y-7480000D02*
X5440000Y-8450000D01*
X5440000Y-8450000D02*
X5440000Y-32880000D01*
X5440000Y-9050000D02*
X9500000Y-9050000D01*
X5440000Y-11590000D02*
X9500000Y-11590000D01*
X5440000Y-14130000D02*
X9500000Y-14130000D01*
X5440000Y-16670000D02*
X9500000Y-16670000D01*
X5440000Y-19210000D02*
X9500000Y-19210000D01*
X5440000Y-21750000D02*
X9500000Y-21750000D01*
X5440000Y-24290000D02*
X9500000Y-24290000D01*
X5440000Y-26830000D02*
X9500000Y-26830000D01*
X5440000Y-29370000D02*
X9500000Y-29370000D01*
X5440000Y-31910000D02*
X9500000Y-31910000D01*
X5440000Y-32880000D02*
X-3070000Y-32880000D01*
D10*
X5500000Y-7420000D02*
X5500000Y-32940000D01*
X5500000Y-8390000D02*
X5910000Y-8390000D01*
X5500000Y-9110000D02*
X5910000Y-9110000D01*
X5500000Y-10930000D02*
X5910000Y-10930000D01*
X5500000Y-11650000D02*
X5910000Y-11650000D01*
X5500000Y-13470000D02*
X5910000Y-13470000D01*
X5500000Y-14190000D02*
X5910000Y-14190000D01*
X5500000Y-16010000D02*
X5910000Y-16010000D01*
X5500000Y-16730000D02*
X5910000Y-16730000D01*
X5500000Y-18550000D02*
X5910000Y-18550000D01*
X5500000Y-19270000D02*
X5910000Y-19270000D01*
X5500000Y-21090000D02*
X5910000Y-21090000D01*
X5500000Y-21810000D02*
X5910000Y-21810000D01*
X5500000Y-23630000D02*
X5910000Y-23630000D01*
X5500000Y-24350000D02*
X5910000Y-24350000D01*
X5500000Y-26170000D02*
X5910000Y-26170000D01*
X5500000Y-26890000D02*
X5910000Y-26890000D01*
X5500000Y-28710000D02*
X5910000Y-28710000D01*
X5500000Y-29430000D02*
X5910000Y-29430000D01*
X5500000Y-31250000D02*
X5910000Y-31250000D01*
X5500000Y-31970000D02*
X5910000Y-31970000D01*
X8010000Y-8390000D02*
X8390000Y-8390000D01*
X8010000Y-9110000D02*
X8390000Y-9110000D01*
X8010000Y-10930000D02*
X8450000Y-10930000D01*
X8010000Y-11650000D02*
X8450000Y-11650000D01*
X8010000Y-13470000D02*
X8450000Y-13470000D01*
X8010000Y-14190000D02*
X8450000Y-14190000D01*
X8010000Y-16010000D02*
X8450000Y-16010000D01*
X8010000Y-16730000D02*
X8450000Y-16730000D01*
X8010000Y-18550000D02*
X8450000Y-18550000D01*
X8010000Y-19270000D02*
X8450000Y-19270000D01*
X8010000Y-21090000D02*
X8450000Y-21090000D01*
X8010000Y-21810000D02*
X8450000Y-21810000D01*
X8010000Y-23630000D02*
X8450000Y-23630000D01*
X8010000Y-24350000D02*
X8450000Y-24350000D01*
X8010000Y-26170000D02*
X8450000Y-26170000D01*
X8010000Y-26890000D02*
X8450000Y-26890000D01*
X8010000Y-28710000D02*
X8450000Y-28710000D01*
X8010000Y-29430000D02*
X8450000Y-29430000D01*
X8010000Y-31250000D02*
X8450000Y-31250000D01*
X8010000Y-31970000D02*
X8450000Y-31970000D01*
X9500000Y-7420000D02*
X10610000Y-7420000D01*
D11*
X9500000Y-8450000D02*
X5440000Y-8450000D01*
X9500000Y-9050000D02*
X9500000Y-8450000D01*
X9500000Y-10990000D02*
X5440000Y-10990000D01*
X9500000Y-11590000D02*
X9500000Y-10990000D01*
X9500000Y-13530000D02*
X5440000Y-13530000D01*
X9500000Y-14130000D02*
X9500000Y-13530000D01*
X9500000Y-16070000D02*
X5440000Y-16070000D01*
X9500000Y-16670000D02*
X9500000Y-16070000D01*
X9500000Y-18610000D02*
X5440000Y-18610000D01*
X9500000Y-19210000D02*
X9500000Y-18610000D01*
X9500000Y-21150000D02*
X5440000Y-21150000D01*
X9500000Y-21750000D02*
X9500000Y-21150000D01*
X9500000Y-23690000D02*
X5440000Y-23690000D01*
X9500000Y-24290000D02*
X9500000Y-23690000D01*
X9500000Y-26230000D02*
X5440000Y-26230000D01*
X9500000Y-26830000D02*
X9500000Y-26230000D01*
X9500000Y-28770000D02*
X5440000Y-28770000D01*
X9500000Y-29370000D02*
X9500000Y-28770000D01*
X9500000Y-31310000D02*
X5440000Y-31310000D01*
X9500000Y-31910000D02*
X9500000Y-31310000D01*
D10*
X10610000Y-7420000D02*
X10610000Y-8750000D01*
D11*
%TO.C,C1*%
X59715000Y-32445000D02*
X59715000Y-33645000D01*
X59715000Y-33645000D02*
X62915000Y-33645000D01*
X60115000Y-32045000D02*
X59715000Y-32445000D01*
X62915000Y-32045000D02*
X60115000Y-32045000D01*
X62915000Y-33645000D02*
X62915000Y-32045000D01*
D10*
%TO.C,IC1*%
X62420000Y-7390000D02*
X62420000Y-6910000D01*
X62420000Y-7390000D02*
X62000000Y-7390000D01*
X59880000Y-7390000D02*
X59460000Y-7390000D01*
X57340000Y-7390000D02*
X56920000Y-7390000D01*
X54800000Y-7390000D02*
X54380000Y-7390000D01*
X52260000Y-7390000D02*
X51840000Y-7390000D01*
X49720000Y-7390000D02*
X49300000Y-7390000D01*
X47180000Y-7390000D02*
X46760000Y-7390000D01*
X44640000Y-7390000D02*
X44220000Y-7390000D01*
X42100000Y-7390000D02*
X41680000Y-7390000D01*
X39560000Y-7390000D02*
X39140000Y-7390000D01*
X37020000Y-7390000D02*
X36600000Y-7390000D01*
X34480000Y-7390000D02*
X34060000Y-7390000D01*
X31940000Y-7390000D02*
X31520000Y-7390000D01*
X29400000Y-7390000D02*
X28980000Y-7390000D01*
X26860000Y-7390000D02*
X26440000Y-7390000D01*
X24320000Y-7390000D02*
X23900000Y-7390000D01*
X21780000Y-7390000D02*
X21360000Y-7390000D01*
X19240000Y-7390000D02*
X18820000Y-7390000D01*
X16700000Y-7390000D02*
X16280000Y-7390000D01*
X64540000Y-7420324D02*
X64540000Y-6910000D01*
D11*
X63850000Y-7500000D02*
X64850000Y-8500000D01*
X14350000Y-7500000D02*
X63850000Y-7500000D01*
D10*
X64539937Y-7730000D02*
X64897000Y-7730000D01*
X62420000Y-7730000D02*
X62000000Y-7730000D01*
X59880000Y-7730000D02*
X59460000Y-7730000D01*
X57340000Y-7730000D02*
X56920000Y-7730000D01*
X54800000Y-7730000D02*
X54380000Y-7730000D01*
X52260000Y-7730000D02*
X51840000Y-7730000D01*
X49720000Y-7730000D02*
X49300000Y-7730000D01*
X47180000Y-7730000D02*
X46760000Y-7730000D01*
X44640000Y-7730000D02*
X44220000Y-7730000D01*
X42100000Y-7730000D02*
X41680000Y-7730000D01*
X39560000Y-7730000D02*
X39140000Y-7730000D01*
X37020000Y-7730000D02*
X36600000Y-7730000D01*
X34480000Y-7730000D02*
X34060000Y-7730000D01*
X31940000Y-7730000D02*
X31520000Y-7730000D01*
X29400000Y-7730000D02*
X28980000Y-7730000D01*
X26860000Y-7730000D02*
X26440000Y-7730000D01*
X24320000Y-7730000D02*
X23900000Y-7730000D01*
X21780000Y-7730000D02*
X21360000Y-7730000D01*
X19240000Y-7730000D02*
X18820000Y-7730000D01*
X16700000Y-7730000D02*
X16280000Y-7730000D01*
X14160063Y-7730000D02*
X13803000Y-7730000D01*
X64960000Y-8000000D02*
X64960000Y-10490000D01*
X13740000Y-8000000D02*
X13740000Y-11837939D01*
D11*
X64850000Y-8500000D02*
X64850000Y-28000000D01*
D10*
X64960000Y-10490000D02*
X64046480Y-10490000D01*
X64960000Y-10490000D02*
X64960000Y-11837940D01*
X61653520Y-10490000D02*
X17046480Y-10490000D01*
X14653520Y-10490000D02*
X13740000Y-10490000D01*
X64960000Y-12762061D02*
X64960000Y-13765000D01*
D11*
X53425000Y-13375000D02*
X52275000Y-13375000D01*
D10*
X64960000Y-13765000D02*
X64960000Y-22235000D01*
X64960000Y-14100000D02*
X64044000Y-14100000D01*
X61656000Y-14100000D02*
X60440000Y-14100000D01*
X60440000Y-14100000D02*
X60440000Y-14396090D01*
X13740000Y-14400000D02*
X13740000Y-12762061D01*
D11*
X53425000Y-15625000D02*
X52275000Y-15625000D01*
D10*
X60440000Y-16753910D02*
X60440000Y-19246090D01*
X13740000Y-21600000D02*
X13740000Y-14400000D01*
X60440000Y-21603910D02*
X60440000Y-21900000D01*
X64960000Y-21900000D02*
X64044000Y-21900000D01*
X61656000Y-21900000D02*
X60440000Y-21900000D01*
X64960000Y-22235000D02*
X64960000Y-23237939D01*
X13740000Y-23237939D02*
X13740000Y-21600000D01*
X64960000Y-24162061D02*
X64960000Y-25510000D01*
X13740000Y-24162061D02*
X13740000Y-28000000D01*
X64960000Y-25510000D02*
X64046480Y-25510000D01*
X61653520Y-25510000D02*
X17046480Y-25510000D01*
X14653520Y-25510000D02*
X13740000Y-25510000D01*
X64960000Y-28000000D02*
X64960000Y-25510000D01*
D11*
X13850000Y-28000000D02*
X13850000Y-8000000D01*
D10*
X64539937Y-28270000D02*
X64897000Y-28270000D01*
X62420000Y-28270000D02*
X62000000Y-28270000D01*
X59880000Y-28270000D02*
X59460000Y-28270000D01*
X57340000Y-28270000D02*
X56920000Y-28270000D01*
X54800000Y-28270000D02*
X54380000Y-28270000D01*
X52260000Y-28270000D02*
X51840000Y-28270000D01*
X49720000Y-28270000D02*
X49300000Y-28270000D01*
X47180000Y-28270000D02*
X46760000Y-28270000D01*
X44640000Y-28270000D02*
X44220000Y-28270000D01*
X42100000Y-28270000D02*
X41680000Y-28270000D01*
X39560000Y-28270000D02*
X39140000Y-28270000D01*
X37020000Y-28270000D02*
X36600000Y-28270000D01*
X34480000Y-28270000D02*
X34060000Y-28270000D01*
X31940000Y-28270000D02*
X31520000Y-28270000D01*
X29400000Y-28270000D02*
X28980000Y-28270000D01*
X26860000Y-28270000D02*
X26440000Y-28270000D01*
X24320000Y-28270000D02*
X23900000Y-28270000D01*
X21780000Y-28270000D02*
X21360000Y-28270000D01*
X19240000Y-28270000D02*
X18820000Y-28270000D01*
X16700000Y-28270000D02*
X16280000Y-28270000D01*
X14160063Y-28270000D02*
X13803000Y-28270000D01*
D11*
X64350000Y-28500000D02*
X14350000Y-28500000D01*
D10*
X62420000Y-28610000D02*
X62000000Y-28610000D01*
X59880000Y-28610000D02*
X59460000Y-28610000D01*
X57340000Y-28610000D02*
X56920000Y-28610000D01*
X54800000Y-28610000D02*
X54380000Y-28610000D01*
X52260000Y-28610000D02*
X51840000Y-28610000D01*
X49720000Y-28610000D02*
X49300000Y-28610000D01*
X47180000Y-28610000D02*
X46760000Y-28610000D01*
X44640000Y-28610000D02*
X44220000Y-28610000D01*
X42100000Y-28610000D02*
X41680000Y-28610000D01*
X39560000Y-28610000D02*
X39140000Y-28610000D01*
X37020000Y-28610000D02*
X36600000Y-28610000D01*
X34480000Y-28610000D02*
X34060000Y-28610000D01*
X31940000Y-28610000D02*
X31520000Y-28610000D01*
X29400000Y-28610000D02*
X28980000Y-28610000D01*
X26860000Y-28610000D02*
X26440000Y-28610000D01*
X24320000Y-28610000D02*
X23900000Y-28610000D01*
X21780000Y-28610000D02*
X21360000Y-28610000D01*
X19240000Y-28610000D02*
X18820000Y-28610000D01*
X16700000Y-28610000D02*
X16280000Y-28610000D01*
D11*
X60450000Y-11500000D02*
X59650000Y-11500000D01*
X59650000Y-13100000D01*
X60450000Y-13100000D01*
X60450000Y-11500000D01*
X60450000Y-11800000D02*
X59650000Y-11800000D01*
X59650000Y-12800000D01*
X60450000Y-12800000D01*
X60450000Y-11800000D01*
X54975000Y-12900000D02*
X50725000Y-12900000D01*
X50725000Y-16100000D01*
X54975000Y-16100000D01*
X54975000Y-12900000D01*
D10*
X64540000Y-7420324D02*
G75*
G02*
X64960000Y-8000000I-190051J-579692D01*
G01*
D11*
X13850000Y-8000000D02*
G75*
G02*
X14350000Y-7500000I500001J-1D01*
G01*
D10*
X13740000Y-8000000D02*
G75*
G02*
X14160063Y-7420324I610002J-1D01*
G01*
D11*
X53425000Y-13375000D02*
G75*
G02*
X53425000Y-15625000I0J-1125000D01*
G01*
X52275000Y-15625000D02*
G75*
G02*
X52275000Y-13375000I0J1125000D01*
G01*
D10*
X64960000Y-28000000D02*
G75*
G02*
X64539937Y-28579676I-610000J0D01*
G01*
D11*
X64850000Y-28000000D02*
G75*
G02*
X64350000Y-28500000I-500000J0D01*
G01*
X14350000Y-28500000D02*
G75*
G02*
X13850000Y-28000000I0J500000D01*
G01*
D10*
X14160063Y-28579676D02*
G75*
G02*
X13739931Y-28000000I189837J579676D01*
G01*
D11*
X66150000Y-22000000D02*
X65550000Y-22000000D01*
X65550000Y-21790000D01*
X60550000Y-21790000D01*
X60550000Y-14210000D01*
X65550000Y-14210000D01*
X65550000Y-14000000D01*
X66150000Y-14000000D01*
X66150000Y-22000000D01*
%TD*%
M02*
