%TF.GenerationSoftware,KiCad,Pcbnew,9.0.7*%
%TF.CreationDate,2026-07-07T21:11:43+02:00*%
%TF.ProjectId,BarePi_PicoPadHSTX,42617265-5069-45f5-9069-636f50616448,rev?*%
%TF.SameCoordinates,Original*%
%TF.FileFunction,Legend,Top*%
%TF.FilePolarity,Positive*%
%FSLAX46Y46*%
G04 Gerber Fmt 4.6, Leading zero omitted, Abs format (unit mm)*
G04 Created by KiCad (PCBNEW 9.0.7) date 2026-07-07 21:11:43*
%MOMM*%
%LPD*%
G01*
G04 APERTURE LIST*
%ADD10C,0.120000*%
G04 APERTURE END LIST*
D10*
X3899999Y-34395724D02*
X3649999Y-34038581D01*
X3471428Y-34395724D02*
X3471428Y-33645724D01*
X3471428Y-33645724D02*
X3757142Y-33645724D01*
X3757142Y-33645724D02*
X3828571Y-33681438D01*
X3828571Y-33681438D02*
X3864285Y-33717152D01*
X3864285Y-33717152D02*
X3899999Y-33788581D01*
X3899999Y-33788581D02*
X3899999Y-33895724D01*
X3899999Y-33895724D02*
X3864285Y-33967152D01*
X3864285Y-33967152D02*
X3828571Y-34002867D01*
X3828571Y-34002867D02*
X3757142Y-34038581D01*
X3757142Y-34038581D02*
X3471428Y-34038581D01*
X4328571Y-33967152D02*
X4257142Y-33931438D01*
X4257142Y-33931438D02*
X4221428Y-33895724D01*
X4221428Y-33895724D02*
X4185714Y-33824295D01*
X4185714Y-33824295D02*
X4185714Y-33788581D01*
X4185714Y-33788581D02*
X4221428Y-33717152D01*
X4221428Y-33717152D02*
X4257142Y-33681438D01*
X4257142Y-33681438D02*
X4328571Y-33645724D01*
X4328571Y-33645724D02*
X4471428Y-33645724D01*
X4471428Y-33645724D02*
X4542857Y-33681438D01*
X4542857Y-33681438D02*
X4578571Y-33717152D01*
X4578571Y-33717152D02*
X4614285Y-33788581D01*
X4614285Y-33788581D02*
X4614285Y-33824295D01*
X4614285Y-33824295D02*
X4578571Y-33895724D01*
X4578571Y-33895724D02*
X4542857Y-33931438D01*
X4542857Y-33931438D02*
X4471428Y-33967152D01*
X4471428Y-33967152D02*
X4328571Y-33967152D01*
X4328571Y-33967152D02*
X4257142Y-34002867D01*
X4257142Y-34002867D02*
X4221428Y-34038581D01*
X4221428Y-34038581D02*
X4185714Y-34110010D01*
X4185714Y-34110010D02*
X4185714Y-34252867D01*
X4185714Y-34252867D02*
X4221428Y-34324295D01*
X4221428Y-34324295D02*
X4257142Y-34360010D01*
X4257142Y-34360010D02*
X4328571Y-34395724D01*
X4328571Y-34395724D02*
X4471428Y-34395724D01*
X4471428Y-34395724D02*
X4542857Y-34360010D01*
X4542857Y-34360010D02*
X4578571Y-34324295D01*
X4578571Y-34324295D02*
X4614285Y-34252867D01*
X4614285Y-34252867D02*
X4614285Y-34110010D01*
X4614285Y-34110010D02*
X4578571Y-34038581D01*
X4578571Y-34038581D02*
X4542857Y-34002867D01*
X4542857Y-34002867D02*
X4471428Y-33967152D01*
X2219999Y-41335724D02*
X1969999Y-40978581D01*
X1791428Y-41335724D02*
X1791428Y-40585724D01*
X1791428Y-40585724D02*
X2077142Y-40585724D01*
X2077142Y-40585724D02*
X2148571Y-40621438D01*
X2148571Y-40621438D02*
X2184285Y-40657152D01*
X2184285Y-40657152D02*
X2219999Y-40728581D01*
X2219999Y-40728581D02*
X2219999Y-40835724D01*
X2219999Y-40835724D02*
X2184285Y-40907152D01*
X2184285Y-40907152D02*
X2148571Y-40942867D01*
X2148571Y-40942867D02*
X2077142Y-40978581D01*
X2077142Y-40978581D02*
X1791428Y-40978581D01*
X2469999Y-40585724D02*
X2969999Y-40585724D01*
X2969999Y-40585724D02*
X2648571Y-41335724D01*
X58990000Y-36990724D02*
X58990000Y-37526438D01*
X58990000Y-37526438D02*
X58954285Y-37633581D01*
X58954285Y-37633581D02*
X58882857Y-37705010D01*
X58882857Y-37705010D02*
X58775714Y-37740724D01*
X58775714Y-37740724D02*
X58704285Y-37740724D01*
X59740000Y-37740724D02*
X59311429Y-37740724D01*
X59525714Y-37740724D02*
X59525714Y-36990724D01*
X59525714Y-36990724D02*
X59454286Y-37097867D01*
X59454286Y-37097867D02*
X59382857Y-37169295D01*
X59382857Y-37169295D02*
X59311429Y-37205010D01*
X6460375Y-42231974D02*
X6031804Y-42231974D01*
X6246089Y-42231974D02*
X6246089Y-41481974D01*
X6246089Y-41481974D02*
X6174661Y-41589117D01*
X6174661Y-41589117D02*
X6103232Y-41660545D01*
X6103232Y-41660545D02*
X6031804Y-41696260D01*
X5870000Y-6030724D02*
X5870000Y-6566438D01*
X5870000Y-6566438D02*
X5834285Y-6673581D01*
X5834285Y-6673581D02*
X5762857Y-6745010D01*
X5762857Y-6745010D02*
X5655714Y-6780724D01*
X5655714Y-6780724D02*
X5584285Y-6780724D01*
X6191429Y-6102152D02*
X6227143Y-6066438D01*
X6227143Y-6066438D02*
X6298572Y-6030724D01*
X6298572Y-6030724D02*
X6477143Y-6030724D01*
X6477143Y-6030724D02*
X6548572Y-6066438D01*
X6548572Y-6066438D02*
X6584286Y-6102152D01*
X6584286Y-6102152D02*
X6620000Y-6173581D01*
X6620000Y-6173581D02*
X6620000Y-6245010D01*
X6620000Y-6245010D02*
X6584286Y-6352152D01*
X6584286Y-6352152D02*
X6155714Y-6780724D01*
X6155714Y-6780724D02*
X6620000Y-6780724D01*
X61189999Y-31364295D02*
X61154285Y-31400010D01*
X61154285Y-31400010D02*
X61047142Y-31435724D01*
X61047142Y-31435724D02*
X60975714Y-31435724D01*
X60975714Y-31435724D02*
X60868571Y-31400010D01*
X60868571Y-31400010D02*
X60797142Y-31328581D01*
X60797142Y-31328581D02*
X60761428Y-31257152D01*
X60761428Y-31257152D02*
X60725714Y-31114295D01*
X60725714Y-31114295D02*
X60725714Y-31007152D01*
X60725714Y-31007152D02*
X60761428Y-30864295D01*
X60761428Y-30864295D02*
X60797142Y-30792867D01*
X60797142Y-30792867D02*
X60868571Y-30721438D01*
X60868571Y-30721438D02*
X60975714Y-30685724D01*
X60975714Y-30685724D02*
X61047142Y-30685724D01*
X61047142Y-30685724D02*
X61154285Y-30721438D01*
X61154285Y-30721438D02*
X61189999Y-30757152D01*
X61904285Y-31435724D02*
X61475714Y-31435724D01*
X61689999Y-31435724D02*
X61689999Y-30685724D01*
X61689999Y-30685724D02*
X61618571Y-30792867D01*
X61618571Y-30792867D02*
X61547142Y-30864295D01*
X61547142Y-30864295D02*
X61475714Y-30900010D01*
X37887518Y-3720324D02*
X37887518Y-2970324D01*
X38673232Y-3648895D02*
X38637518Y-3684610D01*
X38637518Y-3684610D02*
X38530375Y-3720324D01*
X38530375Y-3720324D02*
X38458947Y-3720324D01*
X38458947Y-3720324D02*
X38351804Y-3684610D01*
X38351804Y-3684610D02*
X38280375Y-3613181D01*
X38280375Y-3613181D02*
X38244661Y-3541752D01*
X38244661Y-3541752D02*
X38208947Y-3398895D01*
X38208947Y-3398895D02*
X38208947Y-3291752D01*
X38208947Y-3291752D02*
X38244661Y-3148895D01*
X38244661Y-3148895D02*
X38280375Y-3077467D01*
X38280375Y-3077467D02*
X38351804Y-3006038D01*
X38351804Y-3006038D02*
X38458947Y-2970324D01*
X38458947Y-2970324D02*
X38530375Y-2970324D01*
X38530375Y-2970324D02*
X38637518Y-3006038D01*
X38637518Y-3006038D02*
X38673232Y-3041752D01*
X39387518Y-3720324D02*
X38958947Y-3720324D01*
X39173232Y-3720324D02*
X39173232Y-2970324D01*
X39173232Y-2970324D02*
X39101804Y-3077467D01*
X39101804Y-3077467D02*
X39030375Y-3148895D01*
X39030375Y-3148895D02*
X38958947Y-3184610D01*
%TO.C,R8*%
X3197936Y-35715000D02*
X4652064Y-35715000D01*
X3197936Y-37535000D02*
X4652064Y-37535000D01*
%TO.C,R7*%
X3177936Y-38295000D02*
X4632064Y-38295000D01*
X3177936Y-40115000D02*
X4632064Y-40115000D01*
%TO.C,C1*%
X58820000Y-31890000D02*
X58820000Y-33800000D01*
X58820000Y-33800000D02*
X62915000Y-33800000D01*
X62915000Y-31890000D02*
X58820000Y-31890000D01*
%TD*%
M02*
