%TF.GenerationSoftware,KiCad,Pcbnew,9.0.7*%
%TF.CreationDate,2026-05-24T09:29:46+02:00*%
%TF.ProjectId,BarePi_PicoPadHSTX,42617265-5069-45f5-9069-636f50616448,rev?*%
%TF.SameCoordinates,Original*%
%TF.FileFunction,Legend,Top*%
%TF.FilePolarity,Positive*%
%FSLAX46Y46*%
G04 Gerber Fmt 4.6, Leading zero omitted, Abs format (unit mm)*
G04 Created by KiCad (PCBNEW 9.0.7) date 2026-05-24 09:29:46*
%MOMM*%
%LPD*%
G01*
G04 APERTURE LIST*
%ADD10C,0.187500*%
%ADD11C,0.120000*%
G04 APERTURE END LIST*
D10*
X4630000Y-36237214D02*
X4630000Y-36772928D01*
X4630000Y-36772928D02*
X4594285Y-36880071D01*
X4594285Y-36880071D02*
X4522857Y-36951500D01*
X4522857Y-36951500D02*
X4415714Y-36987214D01*
X4415714Y-36987214D02*
X4344285Y-36987214D01*
X5380000Y-36987214D02*
X4951429Y-36987214D01*
X5165714Y-36987214D02*
X5165714Y-36237214D01*
X5165714Y-36237214D02*
X5094286Y-36344357D01*
X5094286Y-36344357D02*
X5022857Y-36415785D01*
X5022857Y-36415785D02*
X4951429Y-36451500D01*
X6024783Y-39658464D02*
X5596212Y-39658464D01*
X5810497Y-39658464D02*
X5810497Y-38908464D01*
X5810497Y-38908464D02*
X5739069Y-39015607D01*
X5739069Y-39015607D02*
X5667640Y-39087035D01*
X5667640Y-39087035D02*
X5596212Y-39122750D01*
X5870000Y-6027214D02*
X5870000Y-6562928D01*
X5870000Y-6562928D02*
X5834285Y-6670071D01*
X5834285Y-6670071D02*
X5762857Y-6741500D01*
X5762857Y-6741500D02*
X5655714Y-6777214D01*
X5655714Y-6777214D02*
X5584285Y-6777214D01*
X6191429Y-6098642D02*
X6227143Y-6062928D01*
X6227143Y-6062928D02*
X6298572Y-6027214D01*
X6298572Y-6027214D02*
X6477143Y-6027214D01*
X6477143Y-6027214D02*
X6548572Y-6062928D01*
X6548572Y-6062928D02*
X6584286Y-6098642D01*
X6584286Y-6098642D02*
X6620000Y-6170071D01*
X6620000Y-6170071D02*
X6620000Y-6241500D01*
X6620000Y-6241500D02*
X6584286Y-6348642D01*
X6584286Y-6348642D02*
X6155714Y-6777214D01*
X6155714Y-6777214D02*
X6620000Y-6777214D01*
X61189999Y-31360785D02*
X61154285Y-31396500D01*
X61154285Y-31396500D02*
X61047142Y-31432214D01*
X61047142Y-31432214D02*
X60975714Y-31432214D01*
X60975714Y-31432214D02*
X60868571Y-31396500D01*
X60868571Y-31396500D02*
X60797142Y-31325071D01*
X60797142Y-31325071D02*
X60761428Y-31253642D01*
X60761428Y-31253642D02*
X60725714Y-31110785D01*
X60725714Y-31110785D02*
X60725714Y-31003642D01*
X60725714Y-31003642D02*
X60761428Y-30860785D01*
X60761428Y-30860785D02*
X60797142Y-30789357D01*
X60797142Y-30789357D02*
X60868571Y-30717928D01*
X60868571Y-30717928D02*
X60975714Y-30682214D01*
X60975714Y-30682214D02*
X61047142Y-30682214D01*
X61047142Y-30682214D02*
X61154285Y-30717928D01*
X61154285Y-30717928D02*
X61189999Y-30753642D01*
X61904285Y-31432214D02*
X61475714Y-31432214D01*
X61689999Y-31432214D02*
X61689999Y-30682214D01*
X61689999Y-30682214D02*
X61618571Y-30789357D01*
X61618571Y-30789357D02*
X61547142Y-30860785D01*
X61547142Y-30860785D02*
X61475714Y-30896500D01*
X37931926Y-3716814D02*
X37931926Y-2966814D01*
X38717640Y-3645385D02*
X38681926Y-3681100D01*
X38681926Y-3681100D02*
X38574783Y-3716814D01*
X38574783Y-3716814D02*
X38503355Y-3716814D01*
X38503355Y-3716814D02*
X38396212Y-3681100D01*
X38396212Y-3681100D02*
X38324783Y-3609671D01*
X38324783Y-3609671D02*
X38289069Y-3538242D01*
X38289069Y-3538242D02*
X38253355Y-3395385D01*
X38253355Y-3395385D02*
X38253355Y-3288242D01*
X38253355Y-3288242D02*
X38289069Y-3145385D01*
X38289069Y-3145385D02*
X38324783Y-3073957D01*
X38324783Y-3073957D02*
X38396212Y-3002528D01*
X38396212Y-3002528D02*
X38503355Y-2966814D01*
X38503355Y-2966814D02*
X38574783Y-2966814D01*
X38574783Y-2966814D02*
X38681926Y-3002528D01*
X38681926Y-3002528D02*
X38717640Y-3038242D01*
X39431926Y-3716814D02*
X39003355Y-3716814D01*
X39217640Y-3716814D02*
X39217640Y-2966814D01*
X39217640Y-2966814D02*
X39146212Y-3073957D01*
X39146212Y-3073957D02*
X39074783Y-3145385D01*
X39074783Y-3145385D02*
X39003355Y-3181100D01*
D11*
%TO.C,C1*%
X58820000Y-31890000D02*
X58820000Y-33800000D01*
X58820000Y-33800000D02*
X62915000Y-33800000D01*
X62915000Y-31890000D02*
X58820000Y-31890000D01*
%TD*%
M02*
