%TF.GenerationSoftware,KiCad,Pcbnew,9.0.7*%
%TF.CreationDate,2026-05-06T21:03:10+02:00*%
%TF.ProjectId,BarePi_DispVGA,42617265-5069-45f4-9469-73705647412e,rev?*%
%TF.SameCoordinates,Original*%
%TF.FileFunction,AssemblyDrawing,Top*%
%FSLAX46Y46*%
G04 Gerber Fmt 4.6, Leading zero omitted, Abs format (unit mm)*
G04 Created by KiCad (PCBNEW 9.0.7) date 2026-05-06 21:03:10*
%MOMM*%
%LPD*%
G01*
G04 APERTURE LIST*
%ADD10C,0.150000*%
%ADD11C,0.080000*%
%ADD12C,0.120000*%
%ADD13C,0.100000*%
G04 APERTURE END LIST*
D10*
X863095Y-17604819D02*
X1196428Y-18604819D01*
X1196428Y-18604819D02*
X1529761Y-17604819D01*
X2386904Y-17652438D02*
X2291666Y-17604819D01*
X2291666Y-17604819D02*
X2148809Y-17604819D01*
X2148809Y-17604819D02*
X2005952Y-17652438D01*
X2005952Y-17652438D02*
X1910714Y-17747676D01*
X1910714Y-17747676D02*
X1863095Y-17842914D01*
X1863095Y-17842914D02*
X1815476Y-18033390D01*
X1815476Y-18033390D02*
X1815476Y-18176247D01*
X1815476Y-18176247D02*
X1863095Y-18366723D01*
X1863095Y-18366723D02*
X1910714Y-18461961D01*
X1910714Y-18461961D02*
X2005952Y-18557200D01*
X2005952Y-18557200D02*
X2148809Y-18604819D01*
X2148809Y-18604819D02*
X2244047Y-18604819D01*
X2244047Y-18604819D02*
X2386904Y-18557200D01*
X2386904Y-18557200D02*
X2434523Y-18509580D01*
X2434523Y-18509580D02*
X2434523Y-18176247D01*
X2434523Y-18176247D02*
X2244047Y-18176247D01*
X2815476Y-18319104D02*
X3291666Y-18319104D01*
X2720238Y-18604819D02*
X3053571Y-17604819D01*
X3053571Y-17604819D02*
X3386904Y-18604819D01*
X1666666Y-16104819D02*
X1666666Y-16819104D01*
X1666666Y-16819104D02*
X1619047Y-16961961D01*
X1619047Y-16961961D02*
X1523809Y-17057200D01*
X1523809Y-17057200D02*
X1380952Y-17104819D01*
X1380952Y-17104819D02*
X1285714Y-17104819D01*
X2095238Y-16200057D02*
X2142857Y-16152438D01*
X2142857Y-16152438D02*
X2238095Y-16104819D01*
X2238095Y-16104819D02*
X2476190Y-16104819D01*
X2476190Y-16104819D02*
X2571428Y-16152438D01*
X2571428Y-16152438D02*
X2619047Y-16200057D01*
X2619047Y-16200057D02*
X2666666Y-16295295D01*
X2666666Y-16295295D02*
X2666666Y-16390533D01*
X2666666Y-16390533D02*
X2619047Y-16533390D01*
X2619047Y-16533390D02*
X2047619Y-17104819D01*
X2047619Y-17104819D02*
X2666666Y-17104819D01*
X2354819Y-25913094D02*
X1354819Y-25913094D01*
X1354819Y-25913094D02*
X1354819Y-25674999D01*
X1354819Y-25674999D02*
X1402438Y-25532142D01*
X1402438Y-25532142D02*
X1497676Y-25436904D01*
X1497676Y-25436904D02*
X1592914Y-25389285D01*
X1592914Y-25389285D02*
X1783390Y-25341666D01*
X1783390Y-25341666D02*
X1926247Y-25341666D01*
X1926247Y-25341666D02*
X2116723Y-25389285D01*
X2116723Y-25389285D02*
X2211961Y-25436904D01*
X2211961Y-25436904D02*
X2307200Y-25532142D01*
X2307200Y-25532142D02*
X2354819Y-25674999D01*
X2354819Y-25674999D02*
X2354819Y-25913094D01*
X2354819Y-24913094D02*
X1354819Y-24913094D01*
X2307200Y-24484523D02*
X2354819Y-24341666D01*
X2354819Y-24341666D02*
X2354819Y-24103571D01*
X2354819Y-24103571D02*
X2307200Y-24008333D01*
X2307200Y-24008333D02*
X2259580Y-23960714D01*
X2259580Y-23960714D02*
X2164342Y-23913095D01*
X2164342Y-23913095D02*
X2069104Y-23913095D01*
X2069104Y-23913095D02*
X1973866Y-23960714D01*
X1973866Y-23960714D02*
X1926247Y-24008333D01*
X1926247Y-24008333D02*
X1878628Y-24103571D01*
X1878628Y-24103571D02*
X1831009Y-24294047D01*
X1831009Y-24294047D02*
X1783390Y-24389285D01*
X1783390Y-24389285D02*
X1735771Y-24436904D01*
X1735771Y-24436904D02*
X1640533Y-24484523D01*
X1640533Y-24484523D02*
X1545295Y-24484523D01*
X1545295Y-24484523D02*
X1450057Y-24436904D01*
X1450057Y-24436904D02*
X1402438Y-24389285D01*
X1402438Y-24389285D02*
X1354819Y-24294047D01*
X1354819Y-24294047D02*
X1354819Y-24055952D01*
X1354819Y-24055952D02*
X1402438Y-23913095D01*
X2354819Y-23484523D02*
X1354819Y-23484523D01*
X1354819Y-23484523D02*
X1354819Y-23103571D01*
X1354819Y-23103571D02*
X1402438Y-23008333D01*
X1402438Y-23008333D02*
X1450057Y-22960714D01*
X1450057Y-22960714D02*
X1545295Y-22913095D01*
X1545295Y-22913095D02*
X1688152Y-22913095D01*
X1688152Y-22913095D02*
X1783390Y-22960714D01*
X1783390Y-22960714D02*
X1831009Y-23008333D01*
X1831009Y-23008333D02*
X1878628Y-23103571D01*
X1878628Y-23103571D02*
X1878628Y-23484523D01*
X2354819Y-22008333D02*
X2354819Y-22484523D01*
X2354819Y-22484523D02*
X1354819Y-22484523D01*
X2069104Y-21722618D02*
X2069104Y-21246428D01*
X2354819Y-21817856D02*
X1354819Y-21484523D01*
X1354819Y-21484523D02*
X2354819Y-21151190D01*
X1878628Y-20627380D02*
X2354819Y-20627380D01*
X1354819Y-20960713D02*
X1878628Y-20627380D01*
X1878628Y-20627380D02*
X1354819Y-20294047D01*
X29891666Y-26229819D02*
X29891666Y-26944104D01*
X29891666Y-26944104D02*
X29844047Y-27086961D01*
X29844047Y-27086961D02*
X29748809Y-27182200D01*
X29748809Y-27182200D02*
X29605952Y-27229819D01*
X29605952Y-27229819D02*
X29510714Y-27229819D01*
X30891666Y-27229819D02*
X30320238Y-27229819D01*
X30605952Y-27229819D02*
X30605952Y-26229819D01*
X30605952Y-26229819D02*
X30510714Y-26372676D01*
X30510714Y-26372676D02*
X30415476Y-26467914D01*
X30415476Y-26467914D02*
X30320238Y-26515533D01*
X30264285Y-24938152D02*
X30264285Y-25604819D01*
X30026190Y-24557200D02*
X29788095Y-25271485D01*
X29788095Y-25271485D02*
X30407142Y-25271485D01*
X30692857Y-24604819D02*
X31359523Y-24604819D01*
X31359523Y-24604819D02*
X30930952Y-25604819D01*
D11*
X30533333Y-24258459D02*
X30200000Y-23782268D01*
X29961905Y-24258459D02*
X29961905Y-23258459D01*
X29961905Y-23258459D02*
X30342857Y-23258459D01*
X30342857Y-23258459D02*
X30438095Y-23306078D01*
X30438095Y-23306078D02*
X30485714Y-23353697D01*
X30485714Y-23353697D02*
X30533333Y-23448935D01*
X30533333Y-23448935D02*
X30533333Y-23591792D01*
X30533333Y-23591792D02*
X30485714Y-23687030D01*
X30485714Y-23687030D02*
X30438095Y-23734649D01*
X30438095Y-23734649D02*
X30342857Y-23782268D01*
X30342857Y-23782268D02*
X29961905Y-23782268D01*
X31485714Y-24258459D02*
X30914286Y-24258459D01*
X31200000Y-24258459D02*
X31200000Y-23258459D01*
X31200000Y-23258459D02*
X31104762Y-23401316D01*
X31104762Y-23401316D02*
X31009524Y-23496554D01*
X31009524Y-23496554D02*
X30914286Y-23544173D01*
D10*
X4839285Y-18213152D02*
X4839285Y-18879819D01*
X4601190Y-17832200D02*
X4363095Y-18546485D01*
X4363095Y-18546485D02*
X4982142Y-18546485D01*
X5267857Y-17879819D02*
X5934523Y-17879819D01*
X5934523Y-17879819D02*
X5505952Y-18879819D01*
D11*
X4958333Y-17308459D02*
X4625000Y-16832268D01*
X4386905Y-17308459D02*
X4386905Y-16308459D01*
X4386905Y-16308459D02*
X4767857Y-16308459D01*
X4767857Y-16308459D02*
X4863095Y-16356078D01*
X4863095Y-16356078D02*
X4910714Y-16403697D01*
X4910714Y-16403697D02*
X4958333Y-16498935D01*
X4958333Y-16498935D02*
X4958333Y-16641792D01*
X4958333Y-16641792D02*
X4910714Y-16737030D01*
X4910714Y-16737030D02*
X4863095Y-16784649D01*
X4863095Y-16784649D02*
X4767857Y-16832268D01*
X4767857Y-16832268D02*
X4386905Y-16832268D01*
X5291667Y-16308459D02*
X5910714Y-16308459D01*
X5910714Y-16308459D02*
X5577381Y-16689411D01*
X5577381Y-16689411D02*
X5720238Y-16689411D01*
X5720238Y-16689411D02*
X5815476Y-16737030D01*
X5815476Y-16737030D02*
X5863095Y-16784649D01*
X5863095Y-16784649D02*
X5910714Y-16879887D01*
X5910714Y-16879887D02*
X5910714Y-17117982D01*
X5910714Y-17117982D02*
X5863095Y-17213220D01*
X5863095Y-17213220D02*
X5815476Y-17260840D01*
X5815476Y-17260840D02*
X5720238Y-17308459D01*
X5720238Y-17308459D02*
X5434524Y-17308459D01*
X5434524Y-17308459D02*
X5339286Y-17260840D01*
X5339286Y-17260840D02*
X5291667Y-17213220D01*
D10*
X28414285Y-17988152D02*
X28414285Y-18654819D01*
X28176190Y-17607200D02*
X27938095Y-18321485D01*
X27938095Y-18321485D02*
X28557142Y-18321485D01*
X28842857Y-17654819D02*
X29509523Y-17654819D01*
X29509523Y-17654819D02*
X29080952Y-18654819D01*
D11*
X28733333Y-17158459D02*
X28400000Y-16682268D01*
X28161905Y-17158459D02*
X28161905Y-16158459D01*
X28161905Y-16158459D02*
X28542857Y-16158459D01*
X28542857Y-16158459D02*
X28638095Y-16206078D01*
X28638095Y-16206078D02*
X28685714Y-16253697D01*
X28685714Y-16253697D02*
X28733333Y-16348935D01*
X28733333Y-16348935D02*
X28733333Y-16491792D01*
X28733333Y-16491792D02*
X28685714Y-16587030D01*
X28685714Y-16587030D02*
X28638095Y-16634649D01*
X28638095Y-16634649D02*
X28542857Y-16682268D01*
X28542857Y-16682268D02*
X28161905Y-16682268D01*
X29114286Y-16253697D02*
X29161905Y-16206078D01*
X29161905Y-16206078D02*
X29257143Y-16158459D01*
X29257143Y-16158459D02*
X29495238Y-16158459D01*
X29495238Y-16158459D02*
X29590476Y-16206078D01*
X29590476Y-16206078D02*
X29638095Y-16253697D01*
X29638095Y-16253697D02*
X29685714Y-16348935D01*
X29685714Y-16348935D02*
X29685714Y-16444173D01*
X29685714Y-16444173D02*
X29638095Y-16587030D01*
X29638095Y-16587030D02*
X29066667Y-17158459D01*
X29066667Y-17158459D02*
X29685714Y-17158459D01*
D12*
%TO.C,J2*%
X31550000Y-15430000D02*
X580000Y-15430000D01*
X31550000Y-230000D02*
X31550000Y-15430000D01*
D13*
X30165000Y-170000D02*
X30165000Y-11060000D01*
X26965000Y-170000D02*
X26965000Y-11060000D01*
D12*
X12000000Y-16324338D02*
X11500000Y-16324338D01*
X11750000Y-15891325D02*
X12000000Y-16324338D01*
X11500000Y-16324338D02*
X11750000Y-15891325D01*
D13*
X5165000Y-170000D02*
X5165000Y-11060000D01*
X1965000Y-170000D02*
X1965000Y-11060000D01*
D12*
X580000Y-15430000D02*
X580000Y-230000D01*
D13*
X31490000Y-15370000D02*
X640000Y-15370000D01*
X640000Y-170000D01*
X31490000Y-170000D01*
X31490000Y-15370000D01*
X31490000Y-170000D02*
X640000Y-170000D01*
X640000Y230000D01*
X31490000Y230000D01*
X31490000Y-170000D01*
X31065000Y230000D02*
X26065000Y230000D01*
X26065000Y5230000D01*
X31065000Y5230000D01*
X31065000Y230000D01*
X24215000Y230000D02*
X7915000Y230000D01*
X7915000Y6230000D01*
X24215000Y6230000D01*
X24215000Y230000D01*
X6065000Y230000D02*
X1065000Y230000D01*
X1065000Y5230000D01*
X6065000Y5230000D01*
X6065000Y230000D01*
X30165000Y-11060000D02*
G75*
G02*
X26965000Y-11060000I-1600000J0D01*
G01*
X5165000Y-11060000D02*
G75*
G02*
X1965000Y-11060000I-1600000J0D01*
G01*
%TO.C,J1*%
X27750000Y-21080000D02*
X27110000Y-21080000D01*
X27750000Y-21080000D02*
X27750000Y-25440000D01*
X27110000Y-21080000D02*
X27110000Y-25440000D01*
X25210000Y-21080000D02*
X24570000Y-21080000D01*
X25210000Y-21080000D02*
X25210000Y-25440000D01*
X24570000Y-21080000D02*
X24570000Y-25440000D01*
X22670000Y-21080000D02*
X22030000Y-21080000D01*
X22670000Y-21080000D02*
X22670000Y-25440000D01*
X22030000Y-21080000D02*
X22030000Y-25440000D01*
X20130000Y-21080000D02*
X19490000Y-21080000D01*
X20130000Y-21080000D02*
X20130000Y-25440000D01*
X19490000Y-21080000D02*
X19490000Y-25440000D01*
X17590000Y-21080000D02*
X16950000Y-21080000D01*
X17590000Y-21080000D02*
X17590000Y-25440000D01*
X16950000Y-21080000D02*
X16950000Y-25440000D01*
X15050000Y-21080000D02*
X14410000Y-21080000D01*
X15050000Y-21080000D02*
X15050000Y-25440000D01*
X14410000Y-21080000D02*
X14410000Y-25440000D01*
X12510000Y-21080000D02*
X11870000Y-21080000D01*
X12510000Y-21080000D02*
X12510000Y-25440000D01*
X11870000Y-21080000D02*
X11870000Y-25440000D01*
X9970000Y-21080000D02*
X9330000Y-21080000D01*
X9970000Y-21080000D02*
X9970000Y-25440000D01*
X9330000Y-21080000D02*
X9330000Y-25440000D01*
X7430000Y-21080000D02*
X6790000Y-21080000D01*
X7430000Y-21080000D02*
X7430000Y-25440000D01*
X6790000Y-21080000D02*
X6790000Y-25440000D01*
X4890000Y-21080000D02*
X4250000Y-21080000D01*
X4890000Y-21080000D02*
X4890000Y-25440000D01*
X4250000Y-21080000D02*
X4250000Y-25440000D01*
X28065000Y-25440000D02*
X28700000Y-26075000D01*
X3300000Y-25440000D02*
X28065000Y-25440000D01*
X28700000Y-26075000D02*
X28700000Y-27980000D01*
X28700000Y-27980000D02*
X3300000Y-27980000D01*
X27750000Y-27980000D02*
X27750000Y-33980000D01*
X27110000Y-27980000D02*
X27110000Y-33980000D01*
X25210000Y-27980000D02*
X25210000Y-33980000D01*
X24570000Y-27980000D02*
X24570000Y-33980000D01*
X22670000Y-27980000D02*
X22670000Y-33980000D01*
X22030000Y-27980000D02*
X22030000Y-33980000D01*
X20130000Y-27980000D02*
X20130000Y-33980000D01*
X19490000Y-27980000D02*
X19490000Y-33980000D01*
X17590000Y-27980000D02*
X17590000Y-33980000D01*
X16950000Y-27980000D02*
X16950000Y-33980000D01*
X15050000Y-27980000D02*
X15050000Y-33980000D01*
X14410000Y-27980000D02*
X14410000Y-33980000D01*
X12510000Y-27980000D02*
X12510000Y-33980000D01*
X11870000Y-27980000D02*
X11870000Y-33980000D01*
X9970000Y-27980000D02*
X9970000Y-33980000D01*
X9330000Y-27980000D02*
X9330000Y-33980000D01*
X7430000Y-27980000D02*
X7430000Y-33980000D01*
X6790000Y-27980000D02*
X6790000Y-33980000D01*
X4890000Y-27980000D02*
X4890000Y-33980000D01*
X4250000Y-27980000D02*
X4250000Y-33980000D01*
X3300000Y-27980000D02*
X3300000Y-25440000D01*
X27750000Y-33980000D02*
X27110000Y-33980000D01*
X25210000Y-33980000D02*
X24570000Y-33980000D01*
X22670000Y-33980000D02*
X22030000Y-33980000D01*
X20130000Y-33980000D02*
X19490000Y-33980000D01*
X17590000Y-33980000D02*
X16950000Y-33980000D01*
X15050000Y-33980000D02*
X14410000Y-33980000D01*
X12510000Y-33980000D02*
X11870000Y-33980000D01*
X9970000Y-33980000D02*
X9330000Y-33980000D01*
X7430000Y-33980000D02*
X6790000Y-33980000D01*
X4890000Y-33980000D02*
X4250000Y-33980000D01*
%TD*%
M02*
