M48
; DRILL file {KiCad 9.0.7} date 2026-05-06T21:03:12+0200
; FORMAT={-:-/ absolute / metric / decimal}
; #@! TF.CreationDate,2026-05-06T21:03:12+02:00
; #@! TF.GenerationSoftware,Kicad,Pcbnew,9.0.7
; #@! TF.FileFunction,Plated,1,2,PTH
FMAT,2
METRIC
; #@! TA.AperFunction,Plated,PTH,ViaDrill
T1C0.600
; #@! TA.AperFunction,Plated,PTH,ComponentDrill
T2C1.000
; #@! TA.AperFunction,Plated,PTH,ComponentDrill
T3C3.200
%
G90
G05
T1
X6.725Y-17.475
X17.425Y-5.875
T2
X4.57Y-21.4
X4.57Y-23.94
X7.11Y-21.4
X7.11Y-23.94
X9.65Y-21.4
X9.65Y-23.94
X10.605Y-11.06
X11.75Y-8.52
X11.75Y-13.6
X12.19Y-21.4
X12.19Y-23.94
X12.895Y-11.06
X14.04Y-8.52
X14.04Y-13.6
X14.73Y-21.4
X14.73Y-23.94
X15.185Y-11.06
X16.33Y-8.52
X16.33Y-13.6
X17.27Y-21.4
X17.27Y-23.94
X17.475Y-11.06
X18.62Y-8.52
X18.62Y-13.6
X19.765Y-11.06
X19.81Y-21.4
X19.81Y-23.94
X20.91Y-8.52
X20.91Y-13.6
X22.35Y-21.4
X22.35Y-23.94
X24.89Y-21.4
X24.89Y-23.94
X27.43Y-21.4
X27.43Y-23.94
T3
X3.565Y-11.06
X28.565Y-11.06
M30
