%TF.GenerationSoftware,KiCad,Pcbnew,9.0.7*%
%TF.CreationDate,2026-05-06T21:03:10+02:00*%
%TF.ProjectId,BarePi_DispVGA,42617265-5069-45f4-9469-73705647412e,rev?*%
%TF.SameCoordinates,Original*%
%TF.FileFunction,Soldermask,Bot*%
%TF.FilePolarity,Negative*%
%FSLAX46Y46*%
G04 Gerber Fmt 4.6, Leading zero omitted, Abs format (unit mm)*
G04 Created by KiCad (PCBNEW 9.0.7) date 2026-05-06 21:03:10*
%MOMM*%
%LPD*%
G01*
G04 APERTURE LIST*
G04 Aperture macros list*
%AMRoundRect*
0 Rectangle with rounded corners*
0 $1 Rounding radius*
0 $2 $3 $4 $5 $6 $7 $8 $9 X,Y pos of 4 corners*
0 Add a 4 corners polygon primitive as box body*
4,1,4,$2,$3,$4,$5,$6,$7,$8,$9,$2,$3,0*
0 Add four circle primitives for the rounded corners*
1,1,$1+$1,$2,$3*
1,1,$1+$1,$4,$5*
1,1,$1+$1,$6,$7*
1,1,$1+$1,$8,$9*
0 Add four rect primitives between the rounded corners*
20,1,$1+$1,$2,$3,$4,$5,0*
20,1,$1+$1,$4,$5,$6,$7,0*
20,1,$1+$1,$6,$7,$8,$9,0*
20,1,$1+$1,$8,$9,$2,$3,0*%
%AMOutline4P*
0 Free polygon, 4 corners , with rotation*
0 The origin of the aperture is its center*
0 number of corners: always 4*
0 $1 to $8 corner X, Y*
0 $9 Rotation angle, in degrees counterclockwise*
0 create outline with 4 corners*
4,1,4,$1,$2,$3,$4,$5,$6,$7,$8,$1,$2,$9*%
G04 Aperture macros list end*
%ADD10C,6.000000*%
%ADD11O,1.400000X2.800000*%
%ADD12Outline4P,-1.500000X-0.800000X1.500000X-0.800000X1.500000X0.800000X-1.500000X0.800000X270.000000*%
%ADD13O,1.600000X3.000000*%
%ADD14RoundRect,0.250000X-0.450000X0.350000X-0.450000X-0.350000X0.450000X-0.350000X0.450000X0.350000X0*%
%ADD15RoundRect,0.250000X0.350000X0.450000X-0.350000X0.450000X-0.350000X-0.450000X0.350000X-0.450000X0*%
%ADD16RoundRect,0.250000X-0.350000X-0.450000X0.350000X-0.450000X0.350000X0.450000X-0.350000X0.450000X0*%
G04 APERTURE END LIST*
D10*
%TO.C,J2*%
X28565000Y-11060000D03*
X3565000Y-11060000D03*
D11*
X11750000Y-14000000D03*
X14040000Y-14000000D03*
X16330000Y-14000000D03*
X18620000Y-14000000D03*
X20910000Y-14000000D03*
X10605000Y-11060000D03*
X12895000Y-11060000D03*
X15185000Y-11060000D03*
X17475000Y-11060000D03*
X19765000Y-11060000D03*
X11750000Y-8120000D03*
X14040000Y-8120000D03*
X16330000Y-8120000D03*
X18620000Y-8120000D03*
X20910000Y-8120000D03*
%TD*%
D12*
%TO.C,J1*%
X27430000Y-24340000D03*
D13*
X27430000Y-21000000D03*
X24890000Y-24340000D03*
X24890000Y-21000000D03*
X22350000Y-24340000D03*
X22350000Y-21000000D03*
X19810000Y-24340000D03*
X19810000Y-21000000D03*
X17270000Y-24340000D03*
X17270000Y-21000000D03*
X14730000Y-24340000D03*
X14730000Y-21000000D03*
X12190000Y-24340000D03*
X12190000Y-21000000D03*
X9650000Y-24340000D03*
X9650000Y-21000000D03*
X7110000Y-24340000D03*
X7110000Y-21000000D03*
X4570000Y-24340000D03*
X4570000Y-21000000D03*
%TD*%
D14*
%TO.C,R1*%
X30550000Y-19825000D03*
X30550000Y-21825000D03*
%TD*%
D15*
%TO.C,R3*%
X10450000Y-17750000D03*
X8450000Y-17750000D03*
%TD*%
D16*
%TO.C,R2*%
X24850000Y-17325000D03*
X26850000Y-17325000D03*
%TD*%
M02*
