%TF.GenerationSoftware,KiCad,Pcbnew,9.0.7*%
%TF.CreationDate,2026-05-06T21:03:10+02:00*%
%TF.ProjectId,BarePi_DispVGA,42617265-5069-45f4-9469-73705647412e,rev?*%
%TF.SameCoordinates,Original*%
%TF.FileFunction,Copper,L1,Top*%
%TF.FilePolarity,Positive*%
%FSLAX46Y46*%
G04 Gerber Fmt 4.6, Leading zero omitted, Abs format (unit mm)*
G04 Created by KiCad (PCBNEW 9.0.7) date 2026-05-06 21:03:10*
%MOMM*%
%LPD*%
G01*
G04 APERTURE LIST*
G04 Aperture macros list*
%AMOutline4P*
0 Free polygon, 4 corners , with rotation*
0 The origin of the aperture is its center*
0 number of corners: always 4*
0 $1 to $8 corner X, Y*
0 $9 Rotation angle, in degrees counterclockwise*
0 create outline with 4 corners*
4,1,4,$1,$2,$3,$4,$5,$6,$7,$8,$1,$2,$9*%
G04 Aperture macros list end*
%ADD10C,0.200000*%
%TA.AperFunction,ComponentPad*%
%ADD11C,6.000000*%
%TD*%
%TA.AperFunction,ComponentPad*%
%ADD12O,1.400000X2.800000*%
%TD*%
%TA.AperFunction,ComponentPad*%
%ADD13Outline4P,-1.500000X-0.800000X1.500000X-0.800000X1.500000X0.800000X-1.500000X0.800000X270.000000*%
%TD*%
%TA.AperFunction,ComponentPad*%
%ADD14O,1.600000X3.000000*%
%TD*%
%TA.AperFunction,ViaPad*%
%ADD15C,1.600000*%
%TD*%
%TA.AperFunction,Conductor*%
%ADD16C,0.500000*%
%TD*%
G04 APERTURE END LIST*
D10*
G36*
X1159030Y-2162500D02*
G01*
X1159030Y-1117140D01*
X787552Y-1117140D01*
X787552Y-907091D01*
X1782383Y-907091D01*
X1782383Y-1117140D01*
X1411745Y-1117140D01*
X1411745Y-2162500D01*
X1159030Y-2162500D01*
G37*
G36*
X2578834Y-895047D02*
G01*
X2676652Y-916561D01*
X2763631Y-951176D01*
X2841345Y-998730D01*
X2910938Y-1059819D01*
X2968627Y-1130982D01*
X3014337Y-1212700D01*
X3048173Y-1306529D01*
X3069509Y-1414475D01*
X3077023Y-1538917D01*
X3069579Y-1662293D01*
X3048430Y-1769462D01*
X3014870Y-1862752D01*
X2969507Y-1944128D01*
X2912236Y-2015114D01*
X2843164Y-2076018D01*
X2765925Y-2123438D01*
X2679370Y-2157969D01*
X2581912Y-2179440D01*
X2471606Y-2186924D01*
X2359740Y-2179434D01*
X2261226Y-2157981D01*
X2174057Y-2123555D01*
X2096588Y-2076389D01*
X2027619Y-2015954D01*
X1970211Y-1945220D01*
X1924831Y-1864426D01*
X1891321Y-1772107D01*
X1870241Y-1666366D01*
X1862831Y-1544947D01*
X1863305Y-1536398D01*
X2123255Y-1536398D01*
X2130431Y-1644721D01*
X2150252Y-1732693D01*
X2180856Y-1803939D01*
X2221410Y-1861394D01*
X2274228Y-1910074D01*
X2332516Y-1944186D01*
X2397446Y-1964863D01*
X2470767Y-1971990D01*
X2544145Y-1964888D01*
X2608855Y-1944324D01*
X2666683Y-1910467D01*
X2718826Y-1862233D01*
X2758614Y-1805347D01*
X2788858Y-1733786D01*
X2808581Y-1644313D01*
X2815760Y-1532964D01*
X2808729Y-1422708D01*
X2789466Y-1334585D01*
X2760024Y-1264543D01*
X2721421Y-1209265D01*
X2670744Y-1162817D01*
X2613107Y-1129832D01*
X2547121Y-1109558D01*
X2470767Y-1102486D01*
X2394545Y-1109608D01*
X2328371Y-1130069D01*
X2270270Y-1163446D01*
X2218891Y-1210563D01*
X2179690Y-1266539D01*
X2149848Y-1337204D01*
X2130358Y-1425822D01*
X2123255Y-1536398D01*
X1863305Y-1536398D01*
X1869889Y-1417745D01*
X1889559Y-1311405D01*
X1920075Y-1222699D01*
X1970457Y-1131726D01*
X2036549Y-1050431D01*
X2088374Y-1003129D01*
X2142229Y-965666D01*
X2198436Y-937240D01*
X2277858Y-910290D01*
X2367271Y-893438D01*
X2468248Y-887552D01*
X2578834Y-895047D01*
G37*
G36*
X3890887Y-913226D02*
G01*
X3980645Y-925944D01*
X4048009Y-951892D01*
X4107687Y-992355D01*
X4160851Y-1048828D01*
X4200042Y-1115387D01*
X4224663Y-1195692D01*
X4233437Y-1293148D01*
X4228348Y-1369287D01*
X4214062Y-1433403D01*
X4191610Y-1487473D01*
X4160452Y-1537257D01*
X4125054Y-1578172D01*
X4085288Y-1611198D01*
X4019101Y-1649062D01*
X3954160Y-1670655D01*
X3853498Y-1683432D01*
X3691981Y-1688668D01*
X3527193Y-1688668D01*
X3527193Y-2162500D01*
X3274478Y-2162500D01*
X3274478Y-1478620D01*
X3527193Y-1478620D01*
X3665496Y-1478620D01*
X3802607Y-1472252D01*
X3865317Y-1458622D01*
X3910529Y-1432777D01*
X3944314Y-1396111D01*
X3965608Y-1350642D01*
X3972937Y-1297040D01*
X3968215Y-1252212D01*
X3954753Y-1214478D01*
X3932789Y-1182322D01*
X3903706Y-1155999D01*
X3870141Y-1137282D01*
X3831199Y-1125841D01*
X3774628Y-1119923D01*
X3649315Y-1117140D01*
X3527193Y-1117140D01*
X3527193Y-1478620D01*
X3274478Y-1478620D01*
X3274478Y-907091D01*
X3680074Y-907091D01*
X3890887Y-913226D01*
G37*
G36*
X26247868Y-535761D02*
G01*
X26330328Y-544532D01*
X26399992Y-563841D01*
X26460998Y-596281D01*
X26513317Y-641591D01*
X26557016Y-701077D01*
X26578237Y-746036D01*
X26591090Y-794644D01*
X26595484Y-847775D01*
X26590174Y-905157D01*
X26574456Y-958745D01*
X26548086Y-1009510D01*
X26512736Y-1054476D01*
X26470169Y-1091070D01*
X26419553Y-1119877D01*
X26491944Y-1148430D01*
X26549802Y-1186439D01*
X26595408Y-1233908D01*
X26629364Y-1290253D01*
X26649872Y-1352806D01*
X26656926Y-1423272D01*
X26652573Y-1479529D01*
X26639465Y-1534896D01*
X26617237Y-1589968D01*
X26587095Y-1640982D01*
X26551034Y-1683853D01*
X26508778Y-1719417D01*
X26460906Y-1746842D01*
X26404890Y-1766850D01*
X26339258Y-1778951D01*
X26254437Y-1783814D01*
X26034412Y-1787500D01*
X25608361Y-1787500D01*
X25608361Y-1577451D01*
X25861153Y-1577451D01*
X26095092Y-1577451D01*
X26219517Y-1574883D01*
X26268428Y-1569742D01*
X26319937Y-1551752D01*
X26360171Y-1519443D01*
X26379347Y-1490879D01*
X26391364Y-1455773D01*
X26395663Y-1412358D01*
X26388543Y-1358936D01*
X26368338Y-1316111D01*
X26335565Y-1282366D01*
X26289341Y-1258485D01*
X26222791Y-1246294D01*
X26065248Y-1240396D01*
X25861153Y-1240396D01*
X25861153Y-1577451D01*
X25608361Y-1577451D01*
X25608361Y-1030347D01*
X25861153Y-1030347D01*
X26026780Y-1030347D01*
X26210420Y-1026072D01*
X26269794Y-1010473D01*
X26312391Y-981498D01*
X26332736Y-954773D01*
X26345180Y-922812D01*
X26349562Y-884106D01*
X26341173Y-830664D01*
X26317505Y-790225D01*
X26293920Y-770045D01*
X26262843Y-755289D01*
X26222327Y-746414D01*
X26006325Y-742140D01*
X25861153Y-742140D01*
X25861153Y-1030347D01*
X25608361Y-1030347D01*
X25608361Y-532091D01*
X26108754Y-532091D01*
X26247868Y-535761D01*
G37*
G36*
X27330426Y-859725D02*
G01*
X27407830Y-873332D01*
X27461936Y-892731D01*
X27511225Y-922002D01*
X27547349Y-954333D01*
X27572532Y-989818D01*
X27588165Y-1031220D01*
X27599863Y-1099665D01*
X27604589Y-1205896D01*
X27602070Y-1487691D01*
X27605495Y-1600016D01*
X27613595Y-1665073D01*
X27629533Y-1722533D01*
X27656719Y-1787500D01*
X27419346Y-1787500D01*
X27396295Y-1717585D01*
X27387747Y-1689802D01*
X27323131Y-1743937D01*
X27256237Y-1781393D01*
X27184241Y-1804217D01*
X27106791Y-1811924D01*
X27037097Y-1806618D01*
X26978266Y-1791655D01*
X26928406Y-1767919D01*
X26886057Y-1735522D01*
X26850737Y-1694763D01*
X26825811Y-1649648D01*
X26810626Y-1599273D01*
X26805380Y-1542341D01*
X26807538Y-1516543D01*
X27045273Y-1516543D01*
X27049440Y-1548777D01*
X27061757Y-1577635D01*
X27082825Y-1604088D01*
X27109806Y-1624383D01*
X27141250Y-1636671D01*
X27178461Y-1640954D01*
X27220386Y-1636338D01*
X27261377Y-1622328D01*
X27302262Y-1598059D01*
X27338734Y-1561306D01*
X27359506Y-1518298D01*
X27365935Y-1480471D01*
X27368894Y-1400756D01*
X27368894Y-1352747D01*
X27222883Y-1389613D01*
X27132140Y-1413552D01*
X27092213Y-1431668D01*
X27065535Y-1456719D01*
X27050368Y-1484598D01*
X27045273Y-1516543D01*
X26807538Y-1516543D01*
X26809600Y-1491886D01*
X26821889Y-1446265D01*
X26842093Y-1404573D01*
X26869737Y-1367491D01*
X26903787Y-1336749D01*
X26944980Y-1311913D01*
X27019062Y-1283755D01*
X27135795Y-1255661D01*
X27290619Y-1221752D01*
X27368894Y-1196432D01*
X27368894Y-1171855D01*
X27364411Y-1125692D01*
X27352579Y-1093064D01*
X27334700Y-1070418D01*
X27309682Y-1055339D01*
X27268909Y-1044466D01*
X27205786Y-1040116D01*
X27146399Y-1047265D01*
X27105875Y-1066144D01*
X27075190Y-1099277D01*
X27047868Y-1157353D01*
X26830110Y-1118274D01*
X26862074Y-1033116D01*
X26904276Y-967931D01*
X26956429Y-919140D01*
X27001943Y-892980D01*
X27059674Y-872729D01*
X27132283Y-859376D01*
X27222883Y-854492D01*
X27330426Y-859725D01*
G37*
G36*
X28070329Y-1787500D02*
G01*
X27830361Y-1787500D01*
X27830361Y-878916D01*
X28053232Y-878916D01*
X28053232Y-1007831D01*
X28112110Y-926262D01*
X28156120Y-885480D01*
X28204594Y-862334D01*
X28259846Y-854492D01*
X28313307Y-859414D01*
X28365713Y-874271D01*
X28417841Y-899677D01*
X28343576Y-1108657D01*
X28282714Y-1078422D01*
X28230843Y-1069426D01*
X28183675Y-1076636D01*
X28145434Y-1097437D01*
X28116156Y-1133179D01*
X28090403Y-1198569D01*
X28076820Y-1291513D01*
X28070329Y-1505094D01*
X28070329Y-1787500D01*
G37*
G36*
X28965795Y-863531D02*
G01*
X29050336Y-889282D01*
X29123082Y-930890D01*
X29185985Y-989131D01*
X29224831Y-1043393D01*
X29256260Y-1109436D01*
X29279749Y-1189381D01*
X29294174Y-1285791D01*
X29297879Y-1401596D01*
X28696736Y-1401596D01*
X28705062Y-1470416D01*
X28724774Y-1524549D01*
X28754820Y-1567147D01*
X28794963Y-1600079D01*
X28840466Y-1619597D01*
X28893122Y-1626299D01*
X28945898Y-1618501D01*
X28987919Y-1596227D01*
X29020315Y-1559188D01*
X29046003Y-1499293D01*
X29285056Y-1538372D01*
X29247143Y-1622602D01*
X29198654Y-1689629D01*
X29139426Y-1742009D01*
X29069997Y-1779866D01*
X28988004Y-1803546D01*
X28890527Y-1811924D01*
X28795670Y-1804889D01*
X28715453Y-1785049D01*
X28647374Y-1753608D01*
X28589480Y-1710791D01*
X28540497Y-1655837D01*
X28502431Y-1591634D01*
X28474476Y-1518647D01*
X28456957Y-1435391D01*
X28450814Y-1340077D01*
X28457003Y-1255050D01*
X28701010Y-1255050D01*
X29059665Y-1255050D01*
X29051702Y-1186663D01*
X29033315Y-1134493D01*
X29005856Y-1094918D01*
X28968855Y-1064231D01*
X28927812Y-1046237D01*
X28881215Y-1040116D01*
X28831399Y-1046671D01*
X28788723Y-1065734D01*
X28751385Y-1097971D01*
X28723901Y-1139279D01*
X28706783Y-1190704D01*
X28701010Y-1255050D01*
X28457003Y-1255050D01*
X28459095Y-1226308D01*
X28482347Y-1130957D01*
X28519002Y-1050847D01*
X28568661Y-983483D01*
X28631809Y-926809D01*
X28701487Y-886996D01*
X28779084Y-862827D01*
X28866637Y-854492D01*
X28965795Y-863531D01*
G37*
G36*
X30111055Y-538226D02*
G01*
X30200814Y-550944D01*
X30268177Y-576892D01*
X30327855Y-617355D01*
X30381019Y-673828D01*
X30420210Y-740387D01*
X30444832Y-820692D01*
X30453605Y-918148D01*
X30448516Y-994287D01*
X30434230Y-1058403D01*
X30411779Y-1112473D01*
X30380621Y-1162257D01*
X30345222Y-1203172D01*
X30305457Y-1236198D01*
X30239269Y-1274062D01*
X30174329Y-1295655D01*
X30073666Y-1308432D01*
X29912149Y-1313668D01*
X29747362Y-1313668D01*
X29747362Y-1787500D01*
X29494647Y-1787500D01*
X29494647Y-1103620D01*
X29747362Y-1103620D01*
X29885664Y-1103620D01*
X30022775Y-1097252D01*
X30085485Y-1083622D01*
X30130698Y-1057777D01*
X30164483Y-1021111D01*
X30185777Y-975642D01*
X30193105Y-922040D01*
X30188383Y-877212D01*
X30174922Y-839478D01*
X30152957Y-807322D01*
X30123874Y-780999D01*
X30090309Y-762282D01*
X30051368Y-750841D01*
X29994796Y-744923D01*
X29869483Y-742140D01*
X29747362Y-742140D01*
X29747362Y-1103620D01*
X29494647Y-1103620D01*
X29494647Y-532091D01*
X29900242Y-532091D01*
X30111055Y-538226D01*
G37*
G36*
X30659227Y-751910D02*
G01*
X30659227Y-532091D01*
X30899119Y-532091D01*
X30899119Y-751910D01*
X30659227Y-751910D01*
G37*
G36*
X30659227Y-1787500D02*
G01*
X30659227Y-878916D01*
X30899119Y-878916D01*
X30899119Y-1787500D01*
X30659227Y-1787500D01*
G37*
G36*
X24320813Y-2289062D02*
G01*
X24412106Y-2306058D01*
X24482281Y-2333465D01*
X24544879Y-2371826D01*
X24600859Y-2421691D01*
X24648351Y-2480196D01*
X24688204Y-2547626D01*
X24720386Y-2625100D01*
X24742115Y-2706323D01*
X24756269Y-2804281D01*
X24761373Y-2921779D01*
X24756692Y-3024810D01*
X24743529Y-3113245D01*
X24722981Y-3188995D01*
X24685916Y-3277020D01*
X24641139Y-3350285D01*
X24588876Y-3410722D01*
X24542071Y-3448966D01*
X24483541Y-3482493D01*
X24411266Y-3510938D01*
X24320381Y-3530012D01*
X24187555Y-3537500D01*
X23711968Y-3537500D01*
X23711968Y-3327451D01*
X23964683Y-3327451D01*
X24153437Y-3327451D01*
X24251948Y-3323813D01*
X24306242Y-3315391D01*
X24363437Y-3294057D01*
X24408289Y-3262955D01*
X24431751Y-3235805D01*
X24453960Y-3196350D01*
X24474464Y-3141215D01*
X24492821Y-3048694D01*
X24500109Y-2910253D01*
X24492694Y-2772624D01*
X24474464Y-2685703D01*
X24442554Y-2614014D01*
X24402717Y-2563581D01*
X24351383Y-2527277D01*
X24285786Y-2504200D01*
X24220225Y-2495972D01*
X24078256Y-2492140D01*
X23964683Y-2492140D01*
X23964683Y-3327451D01*
X23711968Y-3327451D01*
X23711968Y-2282091D01*
X24173892Y-2282091D01*
X24320813Y-2289062D01*
G37*
G36*
X24973864Y-2501910D02*
G01*
X24973864Y-2282091D01*
X25213756Y-2282091D01*
X25213756Y-2501910D01*
X24973864Y-2501910D01*
G37*
G36*
X24973864Y-3537500D02*
G01*
X24973864Y-2628916D01*
X25213756Y-2628916D01*
X25213756Y-3537500D01*
X24973864Y-3537500D01*
G37*
G36*
X25375338Y-3278602D02*
G01*
X25616146Y-3249293D01*
X25630511Y-3293331D01*
X25651301Y-3327989D01*
X25678428Y-3354928D01*
X25711664Y-3374006D01*
X25754623Y-3386405D01*
X25809938Y-3390954D01*
X25871305Y-3386373D01*
X25916776Y-3374184D01*
X25949996Y-3355997D01*
X25973641Y-3327544D01*
X25981595Y-3290585D01*
X25977197Y-3264666D01*
X25964498Y-3244255D01*
X25940255Y-3229447D01*
X25884279Y-3211970D01*
X25687072Y-3161793D01*
X25573667Y-3122691D01*
X25516236Y-3092901D01*
X25468636Y-3051539D01*
X25435602Y-3004233D01*
X25415577Y-2949821D01*
X25408616Y-2886287D01*
X25414487Y-2828756D01*
X25431666Y-2776966D01*
X25460316Y-2729594D01*
X25501658Y-2685779D01*
X25549767Y-2652764D01*
X25611661Y-2627372D01*
X25690547Y-2610635D01*
X25790322Y-2604492D01*
X25886405Y-2609261D01*
X25962215Y-2622190D01*
X26021353Y-2641567D01*
X26066927Y-2666239D01*
X26120122Y-2712916D01*
X26161606Y-2772896D01*
X26191644Y-2848735D01*
X25965414Y-2892698D01*
X25943869Y-2841742D01*
X25910306Y-2805687D01*
X25881690Y-2789788D01*
X25843963Y-2779332D01*
X25794596Y-2775462D01*
X25731291Y-2779242D01*
X25687727Y-2788913D01*
X25658813Y-2802558D01*
X25638157Y-2824856D01*
X25631488Y-2852246D01*
X25637245Y-2876110D01*
X25655378Y-2896820D01*
X25707716Y-2919887D01*
X25879547Y-2965819D01*
X26006893Y-3001859D01*
X26092630Y-3038350D01*
X26147222Y-3074201D01*
X26188320Y-3121933D01*
X26213472Y-3180932D01*
X26222403Y-3254636D01*
X26215973Y-3315065D01*
X26196980Y-3370510D01*
X26164946Y-3422309D01*
X26118218Y-3471325D01*
X26064276Y-3508608D01*
X25996948Y-3536875D01*
X25913347Y-3555252D01*
X25809938Y-3561924D01*
X25716215Y-3556450D01*
X25637593Y-3541153D01*
X25571723Y-3517323D01*
X25516618Y-3485674D01*
X25467117Y-3443968D01*
X25427484Y-3396055D01*
X25396952Y-3341288D01*
X25375338Y-3278602D01*
G37*
G36*
X27007550Y-2612326D02*
G01*
X27076562Y-2635330D01*
X27140209Y-2673839D01*
X27199603Y-2729590D01*
X27245765Y-2794628D01*
X27280059Y-2872575D01*
X27301926Y-2965977D01*
X27309742Y-3078018D01*
X27301824Y-3193257D01*
X27279710Y-3289003D01*
X27245118Y-3368587D01*
X27198687Y-3434689D01*
X27138754Y-3491522D01*
X27074796Y-3530670D01*
X27005709Y-3553995D01*
X26929791Y-3561924D01*
X26857298Y-3554258D01*
X26793550Y-3532004D01*
X26734142Y-3493947D01*
X26665093Y-3429498D01*
X26665093Y-3884324D01*
X26425125Y-3884324D01*
X26425125Y-3065500D01*
X26662498Y-3065500D01*
X26670510Y-3168476D01*
X26691674Y-3243277D01*
X26723101Y-3296691D01*
X26767652Y-3339032D01*
X26816270Y-3363278D01*
X26870868Y-3371414D01*
X26923415Y-3363819D01*
X26969156Y-3341431D01*
X27010010Y-3302797D01*
X27038414Y-3253560D01*
X27058013Y-3181199D01*
X27065575Y-3077712D01*
X27058043Y-2981685D01*
X27038083Y-2911481D01*
X27008331Y-2860947D01*
X26966269Y-2820956D01*
X26919658Y-2797902D01*
X26866594Y-2790116D01*
X26811188Y-2797873D01*
X26763187Y-2820636D01*
X26720582Y-2859649D01*
X26690079Y-2909310D01*
X26669981Y-2976210D01*
X26662498Y-3065500D01*
X26425125Y-3065500D01*
X26425125Y-2628916D01*
X26648836Y-2628916D01*
X26648836Y-2762105D01*
X26699604Y-2700173D01*
X26766683Y-2649142D01*
X26817759Y-2624427D01*
X26872371Y-2609551D01*
X26931471Y-2604492D01*
X27007550Y-2612326D01*
G37*
G36*
X27821583Y-3537500D02*
G01*
X27374161Y-2282091D01*
X27648247Y-2282091D01*
X27965076Y-3210214D01*
X28271601Y-2282091D01*
X28539733Y-2282091D01*
X28091395Y-3537500D01*
X27821583Y-3537500D01*
G37*
G36*
X29250862Y-3078323D02*
G01*
X29250862Y-2868274D01*
X29795600Y-2868274D01*
X29795600Y-3369048D01*
X29739225Y-3414922D01*
X29663828Y-3459953D01*
X29565477Y-3503763D01*
X29463708Y-3536291D01*
X29362181Y-3555538D01*
X29260173Y-3561924D01*
X29162044Y-3556404D01*
X29073015Y-3540437D01*
X28991926Y-3514640D01*
X28917775Y-3479263D01*
X28849130Y-3433309D01*
X28790127Y-3378975D01*
X28739984Y-3315731D01*
X28698339Y-3242653D01*
X28657801Y-3137922D01*
X28633258Y-3026815D01*
X28624913Y-2907964D01*
X28630318Y-2810037D01*
X28646051Y-2719889D01*
X28671626Y-2636545D01*
X28706887Y-2559154D01*
X28752662Y-2487264D01*
X28807479Y-2424741D01*
X28871889Y-2370820D01*
X28946856Y-2325139D01*
X29029418Y-2291649D01*
X29128255Y-2270219D01*
X29246587Y-2262552D01*
X29364638Y-2269597D01*
X29462600Y-2289200D01*
X29543724Y-2319607D01*
X29610738Y-2359867D01*
X29670130Y-2412828D01*
X29717678Y-2474525D01*
X29754120Y-2546016D01*
X29779418Y-2628916D01*
X29528383Y-2677765D01*
X29505147Y-2619465D01*
X29472128Y-2571095D01*
X29428854Y-2531219D01*
X29377754Y-2502039D01*
X29317712Y-2483887D01*
X29246587Y-2477486D01*
X29165209Y-2484617D01*
X29095540Y-2504940D01*
X29035387Y-2537721D01*
X28983187Y-2583426D01*
X28942760Y-2638618D01*
X28912294Y-2707312D01*
X28892563Y-2792421D01*
X28885413Y-2897583D01*
X28892747Y-3011583D01*
X28912894Y-3103176D01*
X28943783Y-3176423D01*
X28984408Y-3234638D01*
X29037666Y-3283705D01*
X29097666Y-3318392D01*
X29165774Y-3339615D01*
X29243992Y-3346990D01*
X29322793Y-3339257D01*
X29403284Y-3315467D01*
X29478885Y-3279785D01*
X29540289Y-3238989D01*
X29540289Y-3078323D01*
X29250862Y-3078323D01*
G37*
G36*
X31157788Y-3537500D02*
G01*
X30882786Y-3537500D01*
X30773487Y-3254178D01*
X30273171Y-3254178D01*
X30169825Y-3537500D01*
X29901693Y-3537500D01*
X30093306Y-3044129D01*
X30350870Y-3044129D01*
X30692429Y-3044129D01*
X30519932Y-2575183D01*
X30350870Y-3044129D01*
X30093306Y-3044129D01*
X30389262Y-2282091D01*
X30656556Y-2282091D01*
X31157788Y-3537500D01*
G37*
D11*
%TO.P,J2,0*%
%TO.N,/GND*%
X28565000Y-11060000D03*
X3565000Y-11060000D03*
D12*
%TO.P,J2,1*%
%TO.N,/RED*%
X11750000Y-14000000D03*
%TO.P,J2,2*%
%TO.N,/GREEN*%
X14040000Y-14000000D03*
%TO.P,J2,3*%
%TO.N,/BLUE*%
X16330000Y-14000000D03*
%TO.P,J2,4*%
%TO.N,unconnected-(J2-Pad4)*%
X18620000Y-14000000D03*
%TO.P,J2,5*%
%TO.N,/GND*%
X20910000Y-14000000D03*
%TO.P,J2,6*%
X10605000Y-11060000D03*
%TO.P,J2,7*%
X12895000Y-11060000D03*
%TO.P,J2,8*%
X15185000Y-11060000D03*
%TO.P,J2,9*%
%TO.N,Net-(J2-Pad9)*%
X17475000Y-11060000D03*
%TO.P,J2,10*%
%TO.N,/GND*%
X19765000Y-11060000D03*
%TO.P,J2,11*%
%TO.N,unconnected-(J2-Pad11)*%
X11750000Y-8120000D03*
%TO.P,J2,12*%
%TO.N,unconnected-(J2-Pad12)*%
X14040000Y-8120000D03*
%TO.P,J2,13*%
%TO.N,Net-(J2-Pad13)*%
X16330000Y-8120000D03*
%TO.P,J2,14*%
%TO.N,Net-(J2-Pad14)*%
X18620000Y-8120000D03*
%TO.P,J2,15*%
%TO.N,unconnected-(J2-Pad15)*%
X20910000Y-8120000D03*
%TD*%
D13*
%TO.P,J1,1,Pin_1*%
%TO.N,/HSYNC*%
X27430000Y-24340000D03*
D14*
%TO.P,J1,2,Pin_2*%
%TO.N,/VSYNC*%
X27430000Y-21000000D03*
%TO.P,J1,3,Pin_3*%
%TO.N,/GND*%
X24890000Y-24340000D03*
%TO.P,J1,4,Pin_4*%
%TO.N,/BLUE*%
X24890000Y-21000000D03*
%TO.P,J1,5,Pin_5*%
%TO.N,/GND*%
X22350000Y-24340000D03*
%TO.P,J1,6,Pin_6*%
%TO.N,/GREEN*%
X22350000Y-21000000D03*
%TO.P,J1,7,Pin_7*%
%TO.N,unconnected-(J1-Pin_7-Pad7)*%
X19810000Y-24340000D03*
%TO.P,J1,8,Pin_8*%
%TO.N,/RED*%
X19810000Y-21000000D03*
%TO.P,J1,9,Pin_9*%
%TO.N,unconnected-(J1-Pin_9-Pad9)*%
X17270000Y-24340000D03*
%TO.P,J1,10,Pin_10*%
%TO.N,/5V*%
X17270000Y-21000000D03*
%TO.P,J1,11,Pin_11*%
%TO.N,unconnected-(J1-Pin_11-Pad11)*%
X14730000Y-24340000D03*
%TO.P,J1,12,Pin_12*%
%TO.N,unconnected-(J1-Pin_12-Pad12)*%
X14730000Y-21000000D03*
%TO.P,J1,13,Pin_13*%
%TO.N,unconnected-(J1-Pin_13-Pad13)*%
X12190000Y-24340000D03*
%TO.P,J1,14,Pin_14*%
%TO.N,unconnected-(J1-Pin_14-Pad14)*%
X12190000Y-21000000D03*
%TO.P,J1,15,Pin_15*%
%TO.N,unconnected-(J1-Pin_15-Pad15)*%
X9650000Y-24340000D03*
%TO.P,J1,16,Pin_16*%
%TO.N,unconnected-(J1-Pin_16-Pad16)*%
X9650000Y-21000000D03*
%TO.P,J1,17,Pin_17*%
%TO.N,unconnected-(J1-Pin_17-Pad17)*%
X7110000Y-24340000D03*
%TO.P,J1,18,Pin_18*%
%TO.N,unconnected-(J1-Pin_18-Pad18)*%
X7110000Y-21000000D03*
%TO.P,J1,19,Pin_19*%
%TO.N,unconnected-(J1-Pin_19-Pad19)*%
X4570000Y-24340000D03*
%TO.P,J1,20,Pin_20*%
%TO.N,unconnected-(J1-Pin_20-Pad20)*%
X4570000Y-21000000D03*
%TD*%
D15*
%TO.N,Net-(J2-Pad9)*%
X17425000Y-5875000D03*
X6725000Y-17475000D03*
%TD*%
D16*
%TO.N,Net-(J2-Pad9)*%
X11525819Y-5875000D02*
X9050000Y-8350819D01*
X17425000Y-5875000D02*
X11525819Y-5875000D01*
X9050000Y-15150000D02*
X6725000Y-17475000D01*
X9050000Y-8350819D02*
X9050000Y-15150000D01*
%TD*%
%TA.AperFunction,Conductor*%
%TO.N,/GND*%
G36*
X25045900Y-420185D02*
G01*
X25091655Y-472989D01*
X25102861Y-524500D01*
X25102861Y-1633061D01*
X25083176Y-1700100D01*
X25030372Y-1745855D01*
X24978861Y-1757061D01*
X23206468Y-1757061D01*
X23206468Y-4389824D01*
X31475500Y-4389824D01*
X31542539Y-4409509D01*
X31588294Y-4462313D01*
X31599500Y-4513824D01*
X31599500Y-8893909D01*
X31579815Y-8960948D01*
X31527011Y-9006703D01*
X31457853Y-9016647D01*
X31394297Y-8987622D01*
X31379647Y-8972574D01*
X31211213Y-8767339D01*
X31211212Y-8767338D01*
X29859250Y-10119300D01*
X29785412Y-10017670D01*
X29607330Y-9839588D01*
X29505697Y-9765747D01*
X30857660Y-8413786D01*
X30857659Y-8413785D01*
X30652467Y-8245387D01*
X30652453Y-8245377D01*
X30366536Y-8054333D01*
X30366518Y-8054322D01*
X30063255Y-7892226D01*
X30063241Y-7892219D01*
X29745540Y-7760623D01*
X29416443Y-7660792D01*
X29416437Y-7660791D01*
X29079182Y-7593708D01*
X29079165Y-7593705D01*
X28736941Y-7560000D01*
X28393059Y-7560000D01*
X28050834Y-7593705D01*
X28050817Y-7593708D01*
X27713562Y-7660791D01*
X27713556Y-7660792D01*
X27384459Y-7760623D01*
X27066758Y-7892219D01*
X27066744Y-7892226D01*
X26763481Y-8054322D01*
X26763463Y-8054333D01*
X26477546Y-8245377D01*
X26477532Y-8245387D01*
X26272338Y-8413786D01*
X27624301Y-9765748D01*
X27522670Y-9839588D01*
X27344588Y-10017670D01*
X27270748Y-10119301D01*
X25918786Y-8767338D01*
X25750387Y-8972532D01*
X25750377Y-8972546D01*
X25559333Y-9258463D01*
X25559322Y-9258481D01*
X25397226Y-9561744D01*
X25397219Y-9561758D01*
X25265623Y-9879459D01*
X25165792Y-10208556D01*
X25165791Y-10208562D01*
X25098708Y-10545817D01*
X25098705Y-10545834D01*
X25065000Y-10888059D01*
X25065000Y-11231940D01*
X25098705Y-11574165D01*
X25098708Y-11574182D01*
X25165791Y-11911437D01*
X25165792Y-11911443D01*
X25265623Y-12240540D01*
X25397219Y-12558241D01*
X25397226Y-12558255D01*
X25559322Y-12861518D01*
X25559333Y-12861536D01*
X25750377Y-13147453D01*
X25750387Y-13147467D01*
X25918785Y-13352659D01*
X25918786Y-13352660D01*
X27270747Y-12000698D01*
X27344588Y-12102330D01*
X27522670Y-12280412D01*
X27624300Y-12354251D01*
X26272338Y-13706212D01*
X26272339Y-13706213D01*
X26477533Y-13874612D01*
X26477546Y-13874622D01*
X26763463Y-14065666D01*
X26763481Y-14065677D01*
X27066744Y-14227773D01*
X27066758Y-14227780D01*
X27384459Y-14359376D01*
X27713556Y-14459207D01*
X27713562Y-14459208D01*
X28050817Y-14526291D01*
X28050834Y-14526294D01*
X28393059Y-14560000D01*
X28736941Y-14560000D01*
X29079165Y-14526294D01*
X29079182Y-14526291D01*
X29416437Y-14459208D01*
X29416443Y-14459207D01*
X29745540Y-14359376D01*
X30063241Y-14227780D01*
X30063255Y-14227773D01*
X30366518Y-14065677D01*
X30366536Y-14065666D01*
X30652453Y-13874622D01*
X30652466Y-13874612D01*
X30857659Y-13706213D01*
X30857659Y-13706212D01*
X29505698Y-12354251D01*
X29607330Y-12280412D01*
X29785412Y-12102330D01*
X29859251Y-12000698D01*
X31211212Y-13352659D01*
X31211213Y-13352659D01*
X31379647Y-13147425D01*
X31437393Y-13108091D01*
X31507238Y-13106220D01*
X31567006Y-13142408D01*
X31597722Y-13205164D01*
X31599500Y-13226090D01*
X31599500Y-27475500D01*
X31579815Y-27542539D01*
X31527011Y-27588294D01*
X31475500Y-27599500D01*
X524500Y-27599500D01*
X457461Y-27579815D01*
X411706Y-27527011D01*
X400500Y-27475500D01*
X400500Y-20213389D01*
X3469500Y-20213389D01*
X3469500Y-21786611D01*
X3496598Y-21957701D01*
X3550127Y-22122445D01*
X3628768Y-22276788D01*
X3730586Y-22416928D01*
X3730588Y-22416930D01*
X3853072Y-22539414D01*
X3894733Y-22569683D01*
X3937398Y-22625013D01*
X3943376Y-22694627D01*
X3910769Y-22756421D01*
X3894733Y-22770317D01*
X3853072Y-22800585D01*
X3730588Y-22923069D01*
X3730588Y-22923070D01*
X3730586Y-22923072D01*
X3686859Y-22983256D01*
X3628768Y-23063211D01*
X3550128Y-23217552D01*
X3496597Y-23382302D01*
X3487459Y-23440000D01*
X3469500Y-23553389D01*
X3469500Y-25126611D01*
X3496598Y-25297701D01*
X3550127Y-25462445D01*
X3628768Y-25616788D01*
X3730586Y-25756928D01*
X3853072Y-25879414D01*
X3993212Y-25981232D01*
X4147555Y-26059873D01*
X4312299Y-26113402D01*
X4483389Y-26140500D01*
X4483390Y-26140500D01*
X4656610Y-26140500D01*
X4656611Y-26140500D01*
X4827701Y-26113402D01*
X4992445Y-26059873D01*
X5146788Y-25981232D01*
X5286928Y-25879414D01*
X5409414Y-25756928D01*
X5511232Y-25616788D01*
X5589873Y-25462445D01*
X5643402Y-25297701D01*
X5670500Y-25126611D01*
X5670500Y-23553389D01*
X5643402Y-23382299D01*
X5589873Y-23217555D01*
X5511232Y-23063212D01*
X5409414Y-22923072D01*
X5286928Y-22800586D01*
X5245265Y-22770316D01*
X5202602Y-22714988D01*
X5196623Y-22645374D01*
X5229229Y-22583579D01*
X5245266Y-22569683D01*
X5286928Y-22539414D01*
X5409414Y-22416928D01*
X5511232Y-22276788D01*
X5589873Y-22122445D01*
X5643402Y-21957701D01*
X5670500Y-21786611D01*
X5670500Y-20213389D01*
X6009500Y-20213389D01*
X6009500Y-21786611D01*
X6036598Y-21957701D01*
X6090127Y-22122445D01*
X6168768Y-22276788D01*
X6270586Y-22416928D01*
X6270588Y-22416930D01*
X6393072Y-22539414D01*
X6434733Y-22569683D01*
X6477398Y-22625013D01*
X6483376Y-22694627D01*
X6450769Y-22756421D01*
X6434733Y-22770317D01*
X6393072Y-22800585D01*
X6270588Y-22923069D01*
X6270588Y-22923070D01*
X6270586Y-22923072D01*
X6226859Y-22983256D01*
X6168768Y-23063211D01*
X6090128Y-23217552D01*
X6036597Y-23382302D01*
X6027459Y-23440000D01*
X6009500Y-23553389D01*
X6009500Y-25126611D01*
X6036598Y-25297701D01*
X6090127Y-25462445D01*
X6168768Y-25616788D01*
X6270586Y-25756928D01*
X6393072Y-25879414D01*
X6533212Y-25981232D01*
X6687555Y-26059873D01*
X6852299Y-26113402D01*
X7023389Y-26140500D01*
X7023390Y-26140500D01*
X7196610Y-26140500D01*
X7196611Y-26140500D01*
X7367701Y-26113402D01*
X7532445Y-26059873D01*
X7686788Y-25981232D01*
X7826928Y-25879414D01*
X7949414Y-25756928D01*
X8051232Y-25616788D01*
X8129873Y-25462445D01*
X8183402Y-25297701D01*
X8210500Y-25126611D01*
X8210500Y-23553389D01*
X8183402Y-23382299D01*
X8129873Y-23217555D01*
X8051232Y-23063212D01*
X7949414Y-22923072D01*
X7826928Y-22800586D01*
X7785265Y-22770316D01*
X7742602Y-22714988D01*
X7736623Y-22645374D01*
X7769229Y-22583579D01*
X7785266Y-22569683D01*
X7826928Y-22539414D01*
X7949414Y-22416928D01*
X8051232Y-22276788D01*
X8129873Y-22122445D01*
X8183402Y-21957701D01*
X8210500Y-21786611D01*
X8210500Y-20213389D01*
X8549500Y-20213389D01*
X8549500Y-21786611D01*
X8576598Y-21957701D01*
X8630127Y-22122445D01*
X8708768Y-22276788D01*
X8810586Y-22416928D01*
X8810588Y-22416930D01*
X8933072Y-22539414D01*
X8974733Y-22569683D01*
X9017398Y-22625013D01*
X9023376Y-22694627D01*
X8990769Y-22756421D01*
X8974733Y-22770317D01*
X8933072Y-22800585D01*
X8810588Y-22923069D01*
X8810588Y-22923070D01*
X8810586Y-22923072D01*
X8766859Y-22983256D01*
X8708768Y-23063211D01*
X8630128Y-23217552D01*
X8576597Y-23382302D01*
X8567459Y-23440000D01*
X8549500Y-23553389D01*
X8549500Y-25126611D01*
X8576598Y-25297701D01*
X8630127Y-25462445D01*
X8708768Y-25616788D01*
X8810586Y-25756928D01*
X8933072Y-25879414D01*
X9073212Y-25981232D01*
X9227555Y-26059873D01*
X9392299Y-26113402D01*
X9563389Y-26140500D01*
X9563390Y-26140500D01*
X9736610Y-26140500D01*
X9736611Y-26140500D01*
X9907701Y-26113402D01*
X10072445Y-26059873D01*
X10226788Y-25981232D01*
X10366928Y-25879414D01*
X10489414Y-25756928D01*
X10591232Y-25616788D01*
X10669873Y-25462445D01*
X10723402Y-25297701D01*
X10750500Y-25126611D01*
X10750500Y-23553389D01*
X10723402Y-23382299D01*
X10669873Y-23217555D01*
X10591232Y-23063212D01*
X10489414Y-22923072D01*
X10366928Y-22800586D01*
X10325265Y-22770316D01*
X10282602Y-22714988D01*
X10276623Y-22645374D01*
X10309229Y-22583579D01*
X10325266Y-22569683D01*
X10366928Y-22539414D01*
X10489414Y-22416928D01*
X10591232Y-22276788D01*
X10669873Y-22122445D01*
X10723402Y-21957701D01*
X10750500Y-21786611D01*
X10750500Y-20213389D01*
X11089500Y-20213389D01*
X11089500Y-21786611D01*
X11116598Y-21957701D01*
X11170127Y-22122445D01*
X11248768Y-22276788D01*
X11350586Y-22416928D01*
X11350588Y-22416930D01*
X11473072Y-22539414D01*
X11514733Y-22569683D01*
X11557398Y-22625013D01*
X11563376Y-22694627D01*
X11530769Y-22756421D01*
X11514733Y-22770317D01*
X11473072Y-22800585D01*
X11350588Y-22923069D01*
X11350588Y-22923070D01*
X11350586Y-22923072D01*
X11306859Y-22983256D01*
X11248768Y-23063211D01*
X11170128Y-23217552D01*
X11116597Y-23382302D01*
X11107459Y-23440000D01*
X11089500Y-23553389D01*
X11089500Y-25126611D01*
X11116598Y-25297701D01*
X11170127Y-25462445D01*
X11248768Y-25616788D01*
X11350586Y-25756928D01*
X11473072Y-25879414D01*
X11613212Y-25981232D01*
X11767555Y-26059873D01*
X11932299Y-26113402D01*
X12103389Y-26140500D01*
X12103390Y-26140500D01*
X12276610Y-26140500D01*
X12276611Y-26140500D01*
X12447701Y-26113402D01*
X12612445Y-26059873D01*
X12766788Y-25981232D01*
X12906928Y-25879414D01*
X13029414Y-25756928D01*
X13131232Y-25616788D01*
X13209873Y-25462445D01*
X13263402Y-25297701D01*
X13290500Y-25126611D01*
X13290500Y-23553389D01*
X13263402Y-23382299D01*
X13209873Y-23217555D01*
X13131232Y-23063212D01*
X13029414Y-22923072D01*
X12906928Y-22800586D01*
X12865265Y-22770316D01*
X12822602Y-22714988D01*
X12816623Y-22645374D01*
X12849229Y-22583579D01*
X12865266Y-22569683D01*
X12906928Y-22539414D01*
X13029414Y-22416928D01*
X13131232Y-22276788D01*
X13209873Y-22122445D01*
X13263402Y-21957701D01*
X13290500Y-21786611D01*
X13290500Y-20213389D01*
X13629500Y-20213389D01*
X13629500Y-21786611D01*
X13656598Y-21957701D01*
X13710127Y-22122445D01*
X13788768Y-22276788D01*
X13890586Y-22416928D01*
X13890588Y-22416930D01*
X14013072Y-22539414D01*
X14054733Y-22569683D01*
X14097398Y-22625013D01*
X14103376Y-22694627D01*
X14070769Y-22756421D01*
X14054733Y-22770317D01*
X14013072Y-22800585D01*
X13890588Y-22923069D01*
X13890588Y-22923070D01*
X13890586Y-22923072D01*
X13846859Y-22983256D01*
X13788768Y-23063211D01*
X13710128Y-23217552D01*
X13656597Y-23382302D01*
X13647459Y-23440000D01*
X13629500Y-23553389D01*
X13629500Y-25126611D01*
X13656598Y-25297701D01*
X13710127Y-25462445D01*
X13788768Y-25616788D01*
X13890586Y-25756928D01*
X14013072Y-25879414D01*
X14153212Y-25981232D01*
X14307555Y-26059873D01*
X14472299Y-26113402D01*
X14643389Y-26140500D01*
X14643390Y-26140500D01*
X14816610Y-26140500D01*
X14816611Y-26140500D01*
X14987701Y-26113402D01*
X15152445Y-26059873D01*
X15306788Y-25981232D01*
X15446928Y-25879414D01*
X15569414Y-25756928D01*
X15671232Y-25616788D01*
X15749873Y-25462445D01*
X15803402Y-25297701D01*
X15830500Y-25126611D01*
X15830500Y-23553389D01*
X15803402Y-23382299D01*
X15749873Y-23217555D01*
X15671232Y-23063212D01*
X15569414Y-22923072D01*
X15446928Y-22800586D01*
X15405265Y-22770316D01*
X15362602Y-22714988D01*
X15356623Y-22645374D01*
X15389229Y-22583579D01*
X15405266Y-22569683D01*
X15446928Y-22539414D01*
X15569414Y-22416928D01*
X15671232Y-22276788D01*
X15749873Y-22122445D01*
X15803402Y-21957701D01*
X15830500Y-21786611D01*
X15830500Y-20213389D01*
X16169500Y-20213389D01*
X16169500Y-21786611D01*
X16196598Y-21957701D01*
X16250127Y-22122445D01*
X16328768Y-22276788D01*
X16430586Y-22416928D01*
X16430588Y-22416930D01*
X16553072Y-22539414D01*
X16594733Y-22569683D01*
X16637398Y-22625013D01*
X16643376Y-22694627D01*
X16610769Y-22756421D01*
X16594733Y-22770317D01*
X16553072Y-22800585D01*
X16430588Y-22923069D01*
X16430588Y-22923070D01*
X16430586Y-22923072D01*
X16386859Y-22983256D01*
X16328768Y-23063211D01*
X16250128Y-23217552D01*
X16196597Y-23382302D01*
X16187459Y-23440000D01*
X16169500Y-23553389D01*
X16169500Y-25126611D01*
X16196598Y-25297701D01*
X16250127Y-25462445D01*
X16328768Y-25616788D01*
X16430586Y-25756928D01*
X16553072Y-25879414D01*
X16693212Y-25981232D01*
X16847555Y-26059873D01*
X17012299Y-26113402D01*
X17183389Y-26140500D01*
X17183390Y-26140500D01*
X17356610Y-26140500D01*
X17356611Y-26140500D01*
X17527701Y-26113402D01*
X17692445Y-26059873D01*
X17846788Y-25981232D01*
X17986928Y-25879414D01*
X18109414Y-25756928D01*
X18211232Y-25616788D01*
X18289873Y-25462445D01*
X18343402Y-25297701D01*
X18370500Y-25126611D01*
X18370500Y-23553389D01*
X18343402Y-23382299D01*
X18289873Y-23217555D01*
X18211232Y-23063212D01*
X18109414Y-22923072D01*
X17986928Y-22800586D01*
X17945265Y-22770316D01*
X17902602Y-22714988D01*
X17896623Y-22645374D01*
X17929229Y-22583579D01*
X17945266Y-22569683D01*
X17986928Y-22539414D01*
X18109414Y-22416928D01*
X18211232Y-22276788D01*
X18289873Y-22122445D01*
X18343402Y-21957701D01*
X18370500Y-21786611D01*
X18370500Y-20213389D01*
X18709500Y-20213389D01*
X18709500Y-21786611D01*
X18736598Y-21957701D01*
X18790127Y-22122445D01*
X18868768Y-22276788D01*
X18970586Y-22416928D01*
X18970588Y-22416930D01*
X19093072Y-22539414D01*
X19134733Y-22569683D01*
X19177398Y-22625013D01*
X19183376Y-22694627D01*
X19150769Y-22756421D01*
X19134733Y-22770317D01*
X19093072Y-22800585D01*
X18970588Y-22923069D01*
X18970588Y-22923070D01*
X18970586Y-22923072D01*
X18926859Y-22983256D01*
X18868768Y-23063211D01*
X18790128Y-23217552D01*
X18736597Y-23382302D01*
X18727459Y-23440000D01*
X18709500Y-23553389D01*
X18709500Y-25126611D01*
X18736598Y-25297701D01*
X18790127Y-25462445D01*
X18868768Y-25616788D01*
X18970586Y-25756928D01*
X19093072Y-25879414D01*
X19233212Y-25981232D01*
X19387555Y-26059873D01*
X19552299Y-26113402D01*
X19723389Y-26140500D01*
X19723390Y-26140500D01*
X19896610Y-26140500D01*
X19896611Y-26140500D01*
X20067701Y-26113402D01*
X20232445Y-26059873D01*
X20386788Y-25981232D01*
X20526928Y-25879414D01*
X20636306Y-25770036D01*
X21273513Y-25770036D01*
X21358417Y-25886895D01*
X21503104Y-26031582D01*
X21668650Y-26151859D01*
X21850968Y-26244755D01*
X22045582Y-26307990D01*
X22247683Y-26340000D01*
X22452317Y-26340000D01*
X22654417Y-26307990D01*
X22849031Y-26244755D01*
X23031349Y-26151859D01*
X23196894Y-26031582D01*
X23196895Y-26031582D01*
X23341584Y-25886893D01*
X23426484Y-25770037D01*
X23426484Y-25770036D01*
X23813513Y-25770036D01*
X23898417Y-25886895D01*
X24043104Y-26031582D01*
X24208650Y-26151859D01*
X24390968Y-26244755D01*
X24585582Y-26307990D01*
X24787683Y-26340000D01*
X24992317Y-26340000D01*
X25194417Y-26307990D01*
X25389031Y-26244755D01*
X25571349Y-26151859D01*
X25736894Y-26031582D01*
X25736895Y-26031582D01*
X25881584Y-25886893D01*
X25966484Y-25770037D01*
X25966484Y-25770036D01*
X24890000Y-24693552D01*
X23813513Y-25770036D01*
X23426484Y-25770036D01*
X22350000Y-24693552D01*
X21273513Y-25770036D01*
X20636306Y-25770036D01*
X20649414Y-25756928D01*
X20751232Y-25616788D01*
X20829873Y-25462445D01*
X20871974Y-25332870D01*
X20911410Y-25275198D01*
X20975769Y-25247999D01*
X21028222Y-25253260D01*
X21069707Y-25266739D01*
X21996448Y-24340000D01*
X21996448Y-24339999D01*
X21069707Y-23413258D01*
X21028221Y-23426738D01*
X20958380Y-23428733D01*
X20898547Y-23392653D01*
X20871974Y-23347129D01*
X20829873Y-23217555D01*
X20751232Y-23063212D01*
X20649414Y-22923072D01*
X20526928Y-22800586D01*
X20485265Y-22770316D01*
X20442602Y-22714988D01*
X20436623Y-22645374D01*
X20469229Y-22583579D01*
X20485266Y-22569683D01*
X20526928Y-22539414D01*
X20649414Y-22416928D01*
X20751232Y-22276788D01*
X20829873Y-22122445D01*
X20883402Y-21957701D01*
X20910500Y-21786611D01*
X20910500Y-20213389D01*
X21249500Y-20213389D01*
X21249500Y-21786611D01*
X21276598Y-21957701D01*
X21330127Y-22122445D01*
X21408768Y-22276788D01*
X21510586Y-22416928D01*
X21510588Y-22416930D01*
X21538852Y-22445194D01*
X21572337Y-22506517D01*
X21567353Y-22576209D01*
X21525481Y-22632142D01*
X21524061Y-22633190D01*
X21503107Y-22648414D01*
X21358416Y-22793105D01*
X21273513Y-22909962D01*
X21273514Y-22909963D01*
X21973222Y-23609671D01*
X21949901Y-23632993D01*
X21884075Y-23747007D01*
X21850000Y-23874174D01*
X21850000Y-24005826D01*
X21884075Y-24132993D01*
X21949901Y-24247007D01*
X22042993Y-24340099D01*
X22157007Y-24405925D01*
X22284174Y-24440000D01*
X22415826Y-24440000D01*
X22542993Y-24405925D01*
X22657007Y-24340099D01*
X22657106Y-24340000D01*
X22703552Y-24340000D01*
X23620000Y-25256448D01*
X24536448Y-24340000D01*
X23620000Y-23423552D01*
X22703552Y-24340000D01*
X22657106Y-24340000D01*
X22750099Y-24247007D01*
X22815925Y-24132993D01*
X22850000Y-24005826D01*
X22850000Y-23874174D01*
X22815925Y-23747007D01*
X22750099Y-23632993D01*
X22726777Y-23609671D01*
X23426484Y-22909963D01*
X23426485Y-22909961D01*
X23341587Y-22793110D01*
X23341582Y-22793104D01*
X23196895Y-22648417D01*
X23196889Y-22648412D01*
X23175940Y-22633191D01*
X23133276Y-22577860D01*
X23127298Y-22508247D01*
X23159906Y-22446453D01*
X23161017Y-22445324D01*
X23189414Y-22416928D01*
X23291232Y-22276788D01*
X23369873Y-22122445D01*
X23423402Y-21957701D01*
X23450500Y-21786611D01*
X23450500Y-20213389D01*
X23789500Y-20213389D01*
X23789500Y-21786611D01*
X23816598Y-21957701D01*
X23870127Y-22122445D01*
X23948768Y-22276788D01*
X24050586Y-22416928D01*
X24050588Y-22416930D01*
X24078852Y-22445194D01*
X24112337Y-22506517D01*
X24107353Y-22576209D01*
X24065481Y-22632142D01*
X24064061Y-22633190D01*
X24043107Y-22648414D01*
X23898416Y-22793105D01*
X23813513Y-22909962D01*
X23813514Y-22909963D01*
X24513222Y-23609671D01*
X24489901Y-23632993D01*
X24424075Y-23747007D01*
X24390000Y-23874174D01*
X24390000Y-24005826D01*
X24424075Y-24132993D01*
X24489901Y-24247007D01*
X24582993Y-24340099D01*
X24697007Y-24405925D01*
X24824174Y-24440000D01*
X24955826Y-24440000D01*
X25082993Y-24405925D01*
X25197007Y-24340099D01*
X25197107Y-24339999D01*
X25243552Y-24339999D01*
X25243552Y-24340000D01*
X26171187Y-25267635D01*
X26237023Y-25265755D01*
X26296856Y-25301835D01*
X26327684Y-25364536D01*
X26329500Y-25385681D01*
X26329500Y-25884856D01*
X26329502Y-25884882D01*
X26332413Y-25909987D01*
X26332415Y-25909991D01*
X26377793Y-26012764D01*
X26377794Y-26012765D01*
X26457235Y-26092206D01*
X26560009Y-26137585D01*
X26585135Y-26140500D01*
X28274864Y-26140499D01*
X28274879Y-26140497D01*
X28274882Y-26140497D01*
X28299987Y-26137586D01*
X28299988Y-26137585D01*
X28299991Y-26137585D01*
X28402765Y-26092206D01*
X28482206Y-26012765D01*
X28527585Y-25909991D01*
X28530500Y-25884865D01*
X28530499Y-22795136D01*
X28530264Y-22793110D01*
X28527586Y-22770012D01*
X28527585Y-22770010D01*
X28527585Y-22770009D01*
X28482206Y-22667235D01*
X28402765Y-22587794D01*
X28348333Y-22563760D01*
X28294957Y-22518674D01*
X28274430Y-22451888D01*
X28293268Y-22384606D01*
X28298083Y-22377468D01*
X28371232Y-22276788D01*
X28449873Y-22122445D01*
X28503402Y-21957701D01*
X28530500Y-21786611D01*
X28530500Y-20213389D01*
X28503402Y-20042299D01*
X28449873Y-19877555D01*
X28371232Y-19723212D01*
X28269414Y-19583072D01*
X28146928Y-19460586D01*
X28006788Y-19358768D01*
X27852445Y-19280127D01*
X27687701Y-19226598D01*
X27687699Y-19226597D01*
X27687698Y-19226597D01*
X27556271Y-19205781D01*
X27516611Y-19199500D01*
X27343389Y-19199500D01*
X27303728Y-19205781D01*
X27172302Y-19226597D01*
X27007552Y-19280128D01*
X26853211Y-19358768D01*
X26773256Y-19416859D01*
X26713072Y-19460586D01*
X26713070Y-19460588D01*
X26713069Y-19460588D01*
X26590588Y-19583069D01*
X26590588Y-19583070D01*
X26590586Y-19583072D01*
X26546859Y-19643256D01*
X26488768Y-19723211D01*
X26410128Y-19877552D01*
X26356597Y-20042302D01*
X26329500Y-20213389D01*
X26329500Y-21786611D01*
X26356598Y-21957701D01*
X26410127Y-22122445D01*
X26488768Y-22276788D01*
X26561897Y-22377442D01*
X26585377Y-22443246D01*
X26569552Y-22511300D01*
X26519446Y-22559995D01*
X26511666Y-22563760D01*
X26457234Y-22587794D01*
X26377794Y-22667234D01*
X26332415Y-22770006D01*
X26332415Y-22770008D01*
X26329500Y-22795131D01*
X26329500Y-23294317D01*
X26309815Y-23361356D01*
X26257011Y-23407111D01*
X26187853Y-23417055D01*
X26170525Y-23413025D01*
X25243552Y-24339999D01*
X25197107Y-24339999D01*
X25290099Y-24247007D01*
X25355925Y-24132993D01*
X25390000Y-24005826D01*
X25390000Y-23874174D01*
X25355925Y-23747007D01*
X25290099Y-23632993D01*
X25266777Y-23609671D01*
X25966484Y-22909963D01*
X25966485Y-22909961D01*
X25881587Y-22793110D01*
X25881582Y-22793104D01*
X25736895Y-22648417D01*
X25736889Y-22648412D01*
X25715940Y-22633191D01*
X25673276Y-22577860D01*
X25667298Y-22508247D01*
X25699906Y-22446453D01*
X25701017Y-22445324D01*
X25729414Y-22416928D01*
X25831232Y-22276788D01*
X25909873Y-22122445D01*
X25963402Y-21957701D01*
X25990500Y-21786611D01*
X25990500Y-20213389D01*
X25963402Y-20042299D01*
X25909873Y-19877555D01*
X25831232Y-19723212D01*
X25729414Y-19583072D01*
X25606928Y-19460586D01*
X25466788Y-19358768D01*
X25312445Y-19280127D01*
X25147701Y-19226598D01*
X25147699Y-19226597D01*
X25147698Y-19226597D01*
X25016271Y-19205781D01*
X24976611Y-19199500D01*
X24803389Y-19199500D01*
X24763728Y-19205781D01*
X24632302Y-19226597D01*
X24467552Y-19280128D01*
X24313211Y-19358768D01*
X24233256Y-19416859D01*
X24173072Y-19460586D01*
X24173070Y-19460588D01*
X24173069Y-19460588D01*
X24050588Y-19583069D01*
X24050588Y-19583070D01*
X24050586Y-19583072D01*
X24006859Y-19643256D01*
X23948768Y-19723211D01*
X23870128Y-19877552D01*
X23816597Y-20042302D01*
X23789500Y-20213389D01*
X23450500Y-20213389D01*
X23423402Y-20042299D01*
X23369873Y-19877555D01*
X23291232Y-19723212D01*
X23189414Y-19583072D01*
X23066928Y-19460586D01*
X22926788Y-19358768D01*
X22772445Y-19280127D01*
X22607701Y-19226598D01*
X22607699Y-19226597D01*
X22607698Y-19226597D01*
X22476271Y-19205781D01*
X22436611Y-19199500D01*
X22263389Y-19199500D01*
X22223728Y-19205781D01*
X22092302Y-19226597D01*
X21927552Y-19280128D01*
X21773211Y-19358768D01*
X21693256Y-19416859D01*
X21633072Y-19460586D01*
X21633070Y-19460588D01*
X21633069Y-19460588D01*
X21510588Y-19583069D01*
X21510588Y-19583070D01*
X21510586Y-19583072D01*
X21466859Y-19643256D01*
X21408768Y-19723211D01*
X21330128Y-19877552D01*
X21276597Y-20042302D01*
X21249500Y-20213389D01*
X20910500Y-20213389D01*
X20883402Y-20042299D01*
X20829873Y-19877555D01*
X20751232Y-19723212D01*
X20649414Y-19583072D01*
X20526928Y-19460586D01*
X20386788Y-19358768D01*
X20232445Y-19280127D01*
X20067701Y-19226598D01*
X20067699Y-19226597D01*
X20067698Y-19226597D01*
X19936271Y-19205781D01*
X19896611Y-19199500D01*
X19723389Y-19199500D01*
X19683728Y-19205781D01*
X19552302Y-19226597D01*
X19387552Y-19280128D01*
X19233211Y-19358768D01*
X19153256Y-19416859D01*
X19093072Y-19460586D01*
X19093070Y-19460588D01*
X19093069Y-19460588D01*
X18970588Y-19583069D01*
X18970588Y-19583070D01*
X18970586Y-19583072D01*
X18926859Y-19643256D01*
X18868768Y-19723211D01*
X18790128Y-19877552D01*
X18736597Y-20042302D01*
X18709500Y-20213389D01*
X18370500Y-20213389D01*
X18343402Y-20042299D01*
X18289873Y-19877555D01*
X18211232Y-19723212D01*
X18109414Y-19583072D01*
X17986928Y-19460586D01*
X17846788Y-19358768D01*
X17692445Y-19280127D01*
X17527701Y-19226598D01*
X17527699Y-19226597D01*
X17527698Y-19226597D01*
X17396271Y-19205781D01*
X17356611Y-19199500D01*
X17183389Y-19199500D01*
X17143728Y-19205781D01*
X17012302Y-19226597D01*
X16847552Y-19280128D01*
X16693211Y-19358768D01*
X16613256Y-19416859D01*
X16553072Y-19460586D01*
X16553070Y-19460588D01*
X16553069Y-19460588D01*
X16430588Y-19583069D01*
X16430588Y-19583070D01*
X16430586Y-19583072D01*
X16386859Y-19643256D01*
X16328768Y-19723211D01*
X16250128Y-19877552D01*
X16196597Y-20042302D01*
X16169500Y-20213389D01*
X15830500Y-20213389D01*
X15803402Y-20042299D01*
X15749873Y-19877555D01*
X15671232Y-19723212D01*
X15569414Y-19583072D01*
X15446928Y-19460586D01*
X15306788Y-19358768D01*
X15152445Y-19280127D01*
X14987701Y-19226598D01*
X14987699Y-19226597D01*
X14987698Y-19226597D01*
X14856271Y-19205781D01*
X14816611Y-19199500D01*
X14643389Y-19199500D01*
X14603728Y-19205781D01*
X14472302Y-19226597D01*
X14307552Y-19280128D01*
X14153211Y-19358768D01*
X14073256Y-19416859D01*
X14013072Y-19460586D01*
X14013070Y-19460588D01*
X14013069Y-19460588D01*
X13890588Y-19583069D01*
X13890588Y-19583070D01*
X13890586Y-19583072D01*
X13846859Y-19643256D01*
X13788768Y-19723211D01*
X13710128Y-19877552D01*
X13656597Y-20042302D01*
X13629500Y-20213389D01*
X13290500Y-20213389D01*
X13263402Y-20042299D01*
X13209873Y-19877555D01*
X13131232Y-19723212D01*
X13029414Y-19583072D01*
X12906928Y-19460586D01*
X12766788Y-19358768D01*
X12612445Y-19280127D01*
X12447701Y-19226598D01*
X12447699Y-19226597D01*
X12447698Y-19226597D01*
X12316271Y-19205781D01*
X12276611Y-19199500D01*
X12103389Y-19199500D01*
X12063728Y-19205781D01*
X11932302Y-19226597D01*
X11767552Y-19280128D01*
X11613211Y-19358768D01*
X11533256Y-19416859D01*
X11473072Y-19460586D01*
X11473070Y-19460588D01*
X11473069Y-19460588D01*
X11350588Y-19583069D01*
X11350588Y-19583070D01*
X11350586Y-19583072D01*
X11306859Y-19643256D01*
X11248768Y-19723211D01*
X11170128Y-19877552D01*
X11116597Y-20042302D01*
X11089500Y-20213389D01*
X10750500Y-20213389D01*
X10723402Y-20042299D01*
X10669873Y-19877555D01*
X10591232Y-19723212D01*
X10489414Y-19583072D01*
X10366928Y-19460586D01*
X10226788Y-19358768D01*
X10072445Y-19280127D01*
X9907701Y-19226598D01*
X9907699Y-19226597D01*
X9907698Y-19226597D01*
X9776271Y-19205781D01*
X9736611Y-19199500D01*
X9563389Y-19199500D01*
X9523728Y-19205781D01*
X9392302Y-19226597D01*
X9227552Y-19280128D01*
X9073211Y-19358768D01*
X8993256Y-19416859D01*
X8933072Y-19460586D01*
X8933070Y-19460588D01*
X8933069Y-19460588D01*
X8810588Y-19583069D01*
X8810588Y-19583070D01*
X8810586Y-19583072D01*
X8766859Y-19643256D01*
X8708768Y-19723211D01*
X8630128Y-19877552D01*
X8576597Y-20042302D01*
X8549500Y-20213389D01*
X8210500Y-20213389D01*
X8183402Y-20042299D01*
X8129873Y-19877555D01*
X8051232Y-19723212D01*
X7949414Y-19583072D01*
X7826928Y-19460586D01*
X7686788Y-19358768D01*
X7532445Y-19280127D01*
X7367701Y-19226598D01*
X7367699Y-19226597D01*
X7367698Y-19226597D01*
X7236271Y-19205781D01*
X7196611Y-19199500D01*
X7023389Y-19199500D01*
X6983728Y-19205781D01*
X6852302Y-19226597D01*
X6687552Y-19280128D01*
X6533211Y-19358768D01*
X6453256Y-19416859D01*
X6393072Y-19460586D01*
X6393070Y-19460588D01*
X6393069Y-19460588D01*
X6270588Y-19583069D01*
X6270588Y-19583070D01*
X6270586Y-19583072D01*
X6226859Y-19643256D01*
X6168768Y-19723211D01*
X6090128Y-19877552D01*
X6036597Y-20042302D01*
X6009500Y-20213389D01*
X5670500Y-20213389D01*
X5643402Y-20042299D01*
X5589873Y-19877555D01*
X5511232Y-19723212D01*
X5409414Y-19583072D01*
X5286928Y-19460586D01*
X5146788Y-19358768D01*
X4992445Y-19280127D01*
X4827701Y-19226598D01*
X4827699Y-19226597D01*
X4827698Y-19226597D01*
X4696271Y-19205781D01*
X4656611Y-19199500D01*
X4483389Y-19199500D01*
X4443728Y-19205781D01*
X4312302Y-19226597D01*
X4147552Y-19280128D01*
X3993211Y-19358768D01*
X3913256Y-19416859D01*
X3853072Y-19460586D01*
X3853070Y-19460588D01*
X3853069Y-19460588D01*
X3730588Y-19583069D01*
X3730588Y-19583070D01*
X3730586Y-19583072D01*
X3686859Y-19643256D01*
X3628768Y-19723211D01*
X3550128Y-19877552D01*
X3496597Y-20042302D01*
X3469500Y-20213389D01*
X400500Y-20213389D01*
X400500Y-17372648D01*
X5424500Y-17372648D01*
X5424500Y-17577351D01*
X5456522Y-17779534D01*
X5519781Y-17974223D01*
X5612715Y-18156613D01*
X5733028Y-18322213D01*
X5877786Y-18466971D01*
X6032749Y-18579556D01*
X6043390Y-18587287D01*
X6159607Y-18646503D01*
X6225776Y-18680218D01*
X6225778Y-18680218D01*
X6225781Y-18680220D01*
X6330137Y-18714127D01*
X6420465Y-18743477D01*
X6521557Y-18759488D01*
X6622648Y-18775500D01*
X6622649Y-18775500D01*
X6827351Y-18775500D01*
X6827352Y-18775500D01*
X7029534Y-18743477D01*
X7224219Y-18680220D01*
X7406610Y-18587287D01*
X7499590Y-18519732D01*
X7572213Y-18466971D01*
X7572215Y-18466968D01*
X7572219Y-18466966D01*
X7716966Y-18322219D01*
X7716968Y-18322215D01*
X7716971Y-18322213D01*
X7769732Y-18249590D01*
X7837287Y-18156610D01*
X7930220Y-17974219D01*
X7993477Y-17779534D01*
X8025500Y-17577352D01*
X8025500Y-17372648D01*
X8016681Y-17316971D01*
X8025635Y-17247679D01*
X8051470Y-17209895D01*
X9632952Y-15628415D01*
X9660870Y-15586632D01*
X9715084Y-15505495D01*
X9738518Y-15448920D01*
X9771659Y-15368912D01*
X9800500Y-15223917D01*
X9800500Y-15076082D01*
X9800500Y-12899227D01*
X9820185Y-12832188D01*
X9872989Y-12786433D01*
X9942147Y-12776489D01*
X9980796Y-12788743D01*
X10144360Y-12872084D01*
X10144359Y-12872084D01*
X10323997Y-12930451D01*
X10510553Y-12960000D01*
X10646435Y-12960000D01*
X10713474Y-12979685D01*
X10759229Y-13032489D01*
X10769173Y-13101647D01*
X10768052Y-13108192D01*
X10749500Y-13201456D01*
X10749500Y-13201459D01*
X10749500Y-14798541D01*
X10749500Y-14798543D01*
X10749499Y-14798543D01*
X10787947Y-14991829D01*
X10787950Y-14991839D01*
X10863364Y-15173907D01*
X10863371Y-15173920D01*
X10972860Y-15337781D01*
X10972863Y-15337785D01*
X11112214Y-15477136D01*
X11112218Y-15477139D01*
X11276079Y-15586628D01*
X11276092Y-15586635D01*
X11458160Y-15662049D01*
X11458165Y-15662051D01*
X11458169Y-15662051D01*
X11458170Y-15662052D01*
X11651456Y-15700500D01*
X11651459Y-15700500D01*
X11848543Y-15700500D01*
X11978582Y-15674632D01*
X12041835Y-15662051D01*
X12223914Y-15586632D01*
X12387782Y-15477139D01*
X12527139Y-15337782D01*
X12636632Y-15173914D01*
X12712051Y-14991835D01*
X12733834Y-14882326D01*
X12750500Y-14798543D01*
X12750500Y-13201456D01*
X12731948Y-13108192D01*
X12733825Y-13087207D01*
X12730827Y-13066353D01*
X12736877Y-13053105D01*
X12738175Y-13038600D01*
X12751099Y-13021962D01*
X12759852Y-13002797D01*
X12772104Y-12994922D01*
X12781038Y-12983423D01*
X12800904Y-12976414D01*
X12818630Y-12965023D01*
X12843212Y-12961488D01*
X12846927Y-12960178D01*
X12853565Y-12960000D01*
X12936435Y-12960000D01*
X13003474Y-12979685D01*
X13049229Y-13032489D01*
X13059173Y-13101647D01*
X13058052Y-13108192D01*
X13039500Y-13201456D01*
X13039500Y-13201459D01*
X13039500Y-14798541D01*
X13039500Y-14798543D01*
X13039499Y-14798543D01*
X13077947Y-14991829D01*
X13077950Y-14991839D01*
X13153364Y-15173907D01*
X13153371Y-15173920D01*
X13262860Y-15337781D01*
X13262863Y-15337785D01*
X13402214Y-15477136D01*
X13402218Y-15477139D01*
X13566079Y-15586628D01*
X13566092Y-15586635D01*
X13748160Y-15662049D01*
X13748165Y-15662051D01*
X13748169Y-15662051D01*
X13748170Y-15662052D01*
X13941456Y-15700500D01*
X13941459Y-15700500D01*
X14138543Y-15700500D01*
X14268582Y-15674632D01*
X14331835Y-15662051D01*
X14513914Y-15586632D01*
X14677782Y-15477139D01*
X14817139Y-15337782D01*
X14926632Y-15173914D01*
X15002051Y-14991835D01*
X15023834Y-14882326D01*
X15040500Y-14798543D01*
X15040500Y-13201456D01*
X15021948Y-13108192D01*
X15023825Y-13087207D01*
X15020827Y-13066353D01*
X15026877Y-13053105D01*
X15028175Y-13038600D01*
X15041099Y-13021962D01*
X15049852Y-13002797D01*
X15062104Y-12994922D01*
X15071038Y-12983423D01*
X15090904Y-12976414D01*
X15108630Y-12965023D01*
X15133212Y-12961488D01*
X15136927Y-12960178D01*
X15143565Y-12960000D01*
X15226435Y-12960000D01*
X15293474Y-12979685D01*
X15339229Y-13032489D01*
X15349173Y-13101647D01*
X15348052Y-13108192D01*
X15329500Y-13201456D01*
X15329500Y-13201459D01*
X15329500Y-14798541D01*
X15329500Y-14798543D01*
X15329499Y-14798543D01*
X15367947Y-14991829D01*
X15367950Y-14991839D01*
X15443364Y-15173907D01*
X15443371Y-15173920D01*
X15552860Y-15337781D01*
X15552863Y-15337785D01*
X15692214Y-15477136D01*
X15692218Y-15477139D01*
X15856079Y-15586628D01*
X15856092Y-15586635D01*
X16038160Y-15662049D01*
X16038165Y-15662051D01*
X16038169Y-15662051D01*
X16038170Y-15662052D01*
X16231456Y-15700500D01*
X16231459Y-15700500D01*
X16428543Y-15700500D01*
X16558582Y-15674632D01*
X16621835Y-15662051D01*
X16803914Y-15586632D01*
X16967782Y-15477139D01*
X17107139Y-15337782D01*
X17216632Y-15173914D01*
X17292051Y-14991835D01*
X17313834Y-14882326D01*
X17330500Y-14798543D01*
X17330500Y-13201456D01*
X17292052Y-13008170D01*
X17292051Y-13008169D01*
X17292051Y-13008165D01*
X17280254Y-12979685D01*
X17260483Y-12931952D01*
X17256975Y-12899326D01*
X17252306Y-12866853D01*
X17253259Y-12864765D01*
X17253014Y-12862483D01*
X17267702Y-12833139D01*
X17281331Y-12803297D01*
X17283261Y-12802056D01*
X17284289Y-12800004D01*
X17312504Y-12783263D01*
X17340109Y-12765523D01*
X17343138Y-12765087D01*
X17344378Y-12764352D01*
X17375044Y-12760500D01*
X17574956Y-12760500D01*
X17641995Y-12780185D01*
X17687750Y-12832989D01*
X17697694Y-12902147D01*
X17689517Y-12931952D01*
X17657950Y-13008160D01*
X17657947Y-13008170D01*
X17619500Y-13201456D01*
X17619500Y-13201459D01*
X17619500Y-14798541D01*
X17619500Y-14798543D01*
X17619499Y-14798543D01*
X17657947Y-14991829D01*
X17657950Y-14991839D01*
X17733364Y-15173907D01*
X17733371Y-15173920D01*
X17842860Y-15337781D01*
X17842863Y-15337785D01*
X17982214Y-15477136D01*
X17982218Y-15477139D01*
X18146079Y-15586628D01*
X18146092Y-15586635D01*
X18328160Y-15662049D01*
X18328165Y-15662051D01*
X18328169Y-15662051D01*
X18328170Y-15662052D01*
X18521456Y-15700500D01*
X18521459Y-15700500D01*
X18718543Y-15700500D01*
X18848582Y-15674632D01*
X18911835Y-15662051D01*
X19093914Y-15586632D01*
X19257782Y-15477139D01*
X19376477Y-15358444D01*
X19905105Y-15358444D01*
X19994693Y-15481750D01*
X20128253Y-15615310D01*
X20128258Y-15615314D01*
X20281059Y-15726329D01*
X20449362Y-15812085D01*
X20628997Y-15870451D01*
X20815553Y-15900000D01*
X21004447Y-15900000D01*
X21191002Y-15870451D01*
X21370637Y-15812085D01*
X21538940Y-15726329D01*
X21691741Y-15615314D01*
X21691746Y-15615310D01*
X21825308Y-15481748D01*
X21914892Y-15358445D01*
X21914892Y-15358444D01*
X20910000Y-14353552D01*
X19905105Y-15358444D01*
X19376477Y-15358444D01*
X19397139Y-15337782D01*
X19397178Y-15337723D01*
X19405394Y-15325429D01*
X19506628Y-15173920D01*
X19506628Y-15173919D01*
X19506632Y-15173914D01*
X19582051Y-14991835D01*
X19591519Y-14944234D01*
X19623903Y-14882326D01*
X19684618Y-14847751D01*
X19707746Y-14848701D01*
X20579670Y-13976776D01*
X20602993Y-14000099D01*
X20717007Y-14065925D01*
X20844174Y-14100000D01*
X20975826Y-14100000D01*
X21102993Y-14065925D01*
X21217007Y-14000099D01*
X21217107Y-13999999D01*
X21263552Y-13999999D01*
X21263552Y-14000000D01*
X22102889Y-14839337D01*
X22102889Y-14839336D01*
X22110000Y-14794442D01*
X22110000Y-13205558D01*
X22102889Y-13160662D01*
X21263552Y-13999999D01*
X21217107Y-13999999D01*
X21310099Y-13907007D01*
X21375925Y-13792993D01*
X21410000Y-13665826D01*
X21410000Y-13534174D01*
X21375925Y-13407007D01*
X21310099Y-13292993D01*
X21286777Y-13269671D01*
X21914893Y-12641555D01*
X21914893Y-12641553D01*
X21825311Y-12518255D01*
X21825306Y-12518249D01*
X21691746Y-12384689D01*
X21691741Y-12384685D01*
X21538940Y-12273670D01*
X21370637Y-12187914D01*
X21191002Y-12129548D01*
X21050496Y-12107293D01*
X20987362Y-12077363D01*
X20950431Y-12018051D01*
X20947422Y-11965421D01*
X20965000Y-11854446D01*
X20965000Y-10265552D01*
X20935452Y-10079000D01*
X20903968Y-9982103D01*
X20901973Y-9912262D01*
X20938053Y-9852429D01*
X21000754Y-9821600D01*
X21007838Y-9820640D01*
X21096547Y-9802994D01*
X21201835Y-9782051D01*
X21383914Y-9706632D01*
X21547782Y-9597139D01*
X21687139Y-9457782D01*
X21796632Y-9293914D01*
X21872051Y-9111835D01*
X21899760Y-8972533D01*
X21910500Y-8918543D01*
X21910500Y-7321456D01*
X21872052Y-7128170D01*
X21872051Y-7128169D01*
X21872051Y-7128165D01*
X21872049Y-7128160D01*
X21796635Y-6946092D01*
X21796628Y-6946079D01*
X21687139Y-6782218D01*
X21687136Y-6782214D01*
X21547785Y-6642863D01*
X21547781Y-6642860D01*
X21383920Y-6533371D01*
X21383907Y-6533364D01*
X21201839Y-6457950D01*
X21201829Y-6457947D01*
X21008543Y-6419500D01*
X21008541Y-6419500D01*
X20811459Y-6419500D01*
X20811457Y-6419500D01*
X20618170Y-6457947D01*
X20618160Y-6457950D01*
X20436092Y-6533364D01*
X20436079Y-6533371D01*
X20272218Y-6642860D01*
X20272214Y-6642863D01*
X20132863Y-6782214D01*
X20132860Y-6782218D01*
X20023371Y-6946079D01*
X20023364Y-6946092D01*
X19947950Y-7128160D01*
X19947947Y-7128170D01*
X19909500Y-7321456D01*
X19909500Y-7321458D01*
X19909500Y-7321459D01*
X19909500Y-8918541D01*
X19909500Y-8918543D01*
X19909499Y-8918543D01*
X19928052Y-9011808D01*
X19926174Y-9032792D01*
X19929173Y-9053647D01*
X19923122Y-9066894D01*
X19921825Y-9081400D01*
X19908900Y-9098037D01*
X19900148Y-9117203D01*
X19887895Y-9125077D01*
X19878962Y-9136577D01*
X19859095Y-9143585D01*
X19841370Y-9154977D01*
X19816787Y-9158511D01*
X19813073Y-9159822D01*
X19806435Y-9160000D01*
X19723565Y-9160000D01*
X19656526Y-9140315D01*
X19610771Y-9087511D01*
X19600827Y-9018353D01*
X19601948Y-9011808D01*
X19620500Y-8918543D01*
X19620500Y-7321456D01*
X19582052Y-7128170D01*
X19582051Y-7128169D01*
X19582051Y-7128165D01*
X19582049Y-7128160D01*
X19506635Y-6946092D01*
X19506628Y-6946079D01*
X19397139Y-6782218D01*
X19397136Y-6782214D01*
X19257785Y-6642863D01*
X19257781Y-6642860D01*
X19093920Y-6533371D01*
X19093907Y-6533364D01*
X18911839Y-6457950D01*
X18911829Y-6457947D01*
X18758622Y-6427472D01*
X18696711Y-6395087D01*
X18662137Y-6334371D01*
X18664883Y-6267536D01*
X18693477Y-6179534D01*
X18725500Y-5977351D01*
X18725500Y-5772648D01*
X18693477Y-5570465D01*
X18630218Y-5375776D01*
X18562469Y-5242813D01*
X18537287Y-5193390D01*
X18487236Y-5124500D01*
X18416971Y-5027786D01*
X18272213Y-4883028D01*
X18106613Y-4762715D01*
X18106612Y-4762714D01*
X18106610Y-4762713D01*
X18049653Y-4733691D01*
X17924223Y-4669781D01*
X17729534Y-4606522D01*
X17554995Y-4578878D01*
X17527352Y-4574500D01*
X17322648Y-4574500D01*
X17298329Y-4578351D01*
X17120465Y-4606522D01*
X16925776Y-4669781D01*
X16743386Y-4762715D01*
X16577786Y-4883028D01*
X16433032Y-5027782D01*
X16433028Y-5027787D01*
X16399900Y-5073385D01*
X16344571Y-5116051D01*
X16299582Y-5124500D01*
X11451899Y-5124500D01*
X11306911Y-5153340D01*
X11306905Y-5153342D01*
X11170327Y-5209914D01*
X11170315Y-5209921D01*
X11121088Y-5242813D01*
X11047407Y-5292044D01*
X11047399Y-5292050D01*
X8467050Y-7872399D01*
X8467044Y-7872407D01*
X8417812Y-7946087D01*
X8417813Y-7946088D01*
X8384921Y-7995315D01*
X8384914Y-7995327D01*
X8328342Y-8131905D01*
X8328340Y-8131911D01*
X8299500Y-8276898D01*
X8299500Y-14787770D01*
X8279815Y-14854809D01*
X8263181Y-14875451D01*
X6990105Y-16148526D01*
X6928782Y-16182011D01*
X6883026Y-16183318D01*
X6827352Y-16174500D01*
X6622648Y-16174500D01*
X6598329Y-16178351D01*
X6420465Y-16206522D01*
X6225776Y-16269781D01*
X6043386Y-16362715D01*
X5877786Y-16483028D01*
X5733028Y-16627786D01*
X5612715Y-16793386D01*
X5519781Y-16975776D01*
X5456522Y-17170465D01*
X5424500Y-17372648D01*
X400500Y-17372648D01*
X400500Y-13032598D01*
X420185Y-12965559D01*
X472989Y-12919804D01*
X542147Y-12909860D01*
X605703Y-12938885D01*
X627602Y-12963707D01*
X750377Y-13147453D01*
X750387Y-13147467D01*
X918785Y-13352659D01*
X918786Y-13352660D01*
X2270747Y-12000698D01*
X2344588Y-12102330D01*
X2522670Y-12280412D01*
X2624300Y-12354251D01*
X1272338Y-13706212D01*
X1272339Y-13706213D01*
X1477533Y-13874612D01*
X1477546Y-13874622D01*
X1763463Y-14065666D01*
X1763481Y-14065677D01*
X2066744Y-14227773D01*
X2066758Y-14227780D01*
X2384459Y-14359376D01*
X2713556Y-14459207D01*
X2713562Y-14459208D01*
X3050817Y-14526291D01*
X3050834Y-14526294D01*
X3393059Y-14560000D01*
X3736941Y-14560000D01*
X4079165Y-14526294D01*
X4079182Y-14526291D01*
X4416437Y-14459208D01*
X4416443Y-14459207D01*
X4745540Y-14359376D01*
X5063241Y-14227780D01*
X5063255Y-14227773D01*
X5366518Y-14065677D01*
X5366536Y-14065666D01*
X5652453Y-13874622D01*
X5652466Y-13874612D01*
X5857659Y-13706213D01*
X5857659Y-13706212D01*
X4505698Y-12354251D01*
X4607330Y-12280412D01*
X4785412Y-12102330D01*
X4859251Y-12000698D01*
X6211212Y-13352659D01*
X6211213Y-13352659D01*
X6379612Y-13147466D01*
X6379622Y-13147453D01*
X6570666Y-12861536D01*
X6570677Y-12861518D01*
X6732773Y-12558255D01*
X6732780Y-12558241D01*
X6864376Y-12240540D01*
X6964207Y-11911443D01*
X6964208Y-11911437D01*
X7031291Y-11574182D01*
X7031294Y-11574165D01*
X7065000Y-11231940D01*
X7065000Y-10888059D01*
X7031294Y-10545834D01*
X7031291Y-10545817D01*
X6964208Y-10208562D01*
X6964207Y-10208556D01*
X6864376Y-9879459D01*
X6732780Y-9561758D01*
X6732773Y-9561744D01*
X6570677Y-9258481D01*
X6570666Y-9258463D01*
X6379622Y-8972546D01*
X6379612Y-8972533D01*
X6211213Y-8767339D01*
X6211212Y-8767338D01*
X4859250Y-10119300D01*
X4785412Y-10017670D01*
X4607330Y-9839588D01*
X4505697Y-9765747D01*
X5857660Y-8413786D01*
X5857659Y-8413785D01*
X5652467Y-8245387D01*
X5652453Y-8245377D01*
X5366536Y-8054333D01*
X5366518Y-8054322D01*
X5063255Y-7892226D01*
X5063241Y-7892219D01*
X4745540Y-7760623D01*
X4416443Y-7660792D01*
X4416437Y-7660791D01*
X4079182Y-7593708D01*
X4079165Y-7593705D01*
X3736941Y-7560000D01*
X3393059Y-7560000D01*
X3050834Y-7593705D01*
X3050817Y-7593708D01*
X2713562Y-7660791D01*
X2713556Y-7660792D01*
X2384459Y-7760623D01*
X2066758Y-7892219D01*
X2066744Y-7892226D01*
X1763481Y-8054322D01*
X1763463Y-8054333D01*
X1477546Y-8245377D01*
X1477532Y-8245387D01*
X1272338Y-8413786D01*
X2624301Y-9765748D01*
X2522670Y-9839588D01*
X2344588Y-10017670D01*
X2270748Y-10119301D01*
X918786Y-8767338D01*
X750387Y-8972532D01*
X750377Y-8972546D01*
X627602Y-9156292D01*
X573990Y-9201097D01*
X504665Y-9209804D01*
X441637Y-9179650D01*
X404918Y-9120206D01*
X400500Y-9087401D01*
X400500Y-2816413D01*
X420185Y-2749374D01*
X472989Y-2703619D01*
X524500Y-2692413D01*
X4738926Y-2692413D01*
X4738926Y-524500D01*
X4758611Y-457461D01*
X4811415Y-411706D01*
X4862926Y-400500D01*
X24978861Y-400500D01*
X25045900Y-420185D01*
G37*
%TD.AperFunction*%
%TD*%
%TA.AperFunction,NonConductor*%
G36*
X15492628Y-6645185D02*
G01*
X15538383Y-6697989D01*
X15548327Y-6767147D01*
X15528691Y-6818391D01*
X15443371Y-6946079D01*
X15443364Y-6946092D01*
X15367950Y-7128160D01*
X15367947Y-7128170D01*
X15329500Y-7321456D01*
X15329500Y-7321458D01*
X15329500Y-7321459D01*
X15329500Y-8918541D01*
X15329500Y-8918543D01*
X15329499Y-8918543D01*
X15348052Y-9011808D01*
X15346174Y-9032792D01*
X15349173Y-9053647D01*
X15343122Y-9066894D01*
X15341825Y-9081400D01*
X15328900Y-9098037D01*
X15320148Y-9117203D01*
X15307895Y-9125077D01*
X15298962Y-9136577D01*
X15279095Y-9143585D01*
X15261370Y-9154977D01*
X15236787Y-9158511D01*
X15233073Y-9159822D01*
X15226435Y-9160000D01*
X15143565Y-9160000D01*
X15076526Y-9140315D01*
X15030771Y-9087511D01*
X15020827Y-9018353D01*
X15021948Y-9011808D01*
X15040500Y-8918543D01*
X15040500Y-7321456D01*
X15002052Y-7128170D01*
X15002051Y-7128169D01*
X15002051Y-7128165D01*
X15002049Y-7128160D01*
X14926635Y-6946092D01*
X14926628Y-6946079D01*
X14841309Y-6818391D01*
X14820431Y-6751714D01*
X14838915Y-6684333D01*
X14890894Y-6637643D01*
X14944411Y-6625500D01*
X15425589Y-6625500D01*
X15492628Y-6645185D01*
G37*
%TD.AperFunction*%
%TA.AperFunction,NonConductor*%
G36*
X13145340Y-6628363D02*
G01*
X13155424Y-6627097D01*
X13178298Y-6638040D01*
X13202628Y-6645185D01*
X13209282Y-6652865D01*
X13218452Y-6657252D01*
X13231779Y-6678828D01*
X13248383Y-6697989D01*
X13249829Y-6708047D01*
X13255171Y-6716695D01*
X13254718Y-6742050D01*
X13258327Y-6767147D01*
X13254072Y-6778250D01*
X13253924Y-6786553D01*
X13238691Y-6818391D01*
X13153371Y-6946079D01*
X13153364Y-6946092D01*
X13077950Y-7128160D01*
X13077947Y-7128170D01*
X13039500Y-7321456D01*
X13039500Y-7321458D01*
X13039500Y-7321459D01*
X13039500Y-8918541D01*
X13039500Y-8918543D01*
X13039499Y-8918543D01*
X13058052Y-9011808D01*
X13056174Y-9032792D01*
X13059173Y-9053647D01*
X13053122Y-9066894D01*
X13051825Y-9081400D01*
X13038900Y-9098037D01*
X13030148Y-9117203D01*
X13017895Y-9125077D01*
X13008962Y-9136577D01*
X12989095Y-9143585D01*
X12971370Y-9154977D01*
X12946787Y-9158511D01*
X12943073Y-9159822D01*
X12936435Y-9160000D01*
X12853565Y-9160000D01*
X12786526Y-9140315D01*
X12740771Y-9087511D01*
X12730827Y-9018353D01*
X12731948Y-9011808D01*
X12750500Y-8918543D01*
X12750500Y-7321456D01*
X12712052Y-7128170D01*
X12712051Y-7128169D01*
X12712051Y-7128165D01*
X12712049Y-7128160D01*
X12636635Y-6946092D01*
X12636628Y-6946079D01*
X12551309Y-6818391D01*
X12530431Y-6751714D01*
X12548915Y-6684333D01*
X12600894Y-6637643D01*
X12654411Y-6625500D01*
X13135589Y-6625500D01*
X13145340Y-6628363D01*
G37*
%TD.AperFunction*%
%TA.AperFunction,NonConductor*%
G36*
X10668834Y-7895867D02*
G01*
X10724767Y-7937739D01*
X10749184Y-8003203D01*
X10749500Y-8012049D01*
X10749500Y-8918541D01*
X10749500Y-8918543D01*
X10749499Y-8918543D01*
X10768052Y-9011808D01*
X10761825Y-9081400D01*
X10718962Y-9136577D01*
X10653073Y-9159822D01*
X10646435Y-9160000D01*
X10510553Y-9160000D01*
X10323997Y-9189548D01*
X10144362Y-9247914D01*
X9980795Y-9331257D01*
X9912126Y-9344153D01*
X9847385Y-9317877D01*
X9807128Y-9260771D01*
X9800500Y-9220772D01*
X9800500Y-8713049D01*
X9820185Y-8646010D01*
X9836819Y-8625368D01*
X10537819Y-7924368D01*
X10599142Y-7890883D01*
X10668834Y-7895867D01*
G37*
%TD.AperFunction*%
%TA.AperFunction,NonConductor*%
G36*
X17564478Y-7195185D02*
G01*
X17610233Y-7247989D01*
X17619922Y-7315378D01*
X17620097Y-7315396D01*
X17620027Y-7316105D01*
X17620177Y-7317147D01*
X17619583Y-7320610D01*
X17619500Y-7321458D01*
X17619500Y-7321459D01*
X17619500Y-8918541D01*
X17619500Y-8918543D01*
X17619499Y-8918543D01*
X17657947Y-9111829D01*
X17657950Y-9111839D01*
X17689517Y-9188048D01*
X17693024Y-9220673D01*
X17697694Y-9253147D01*
X17696740Y-9255234D01*
X17696986Y-9257517D01*
X17682297Y-9286860D01*
X17668669Y-9316703D01*
X17666738Y-9317943D01*
X17665711Y-9319996D01*
X17637495Y-9336736D01*
X17609891Y-9354477D01*
X17606861Y-9354912D01*
X17605622Y-9355648D01*
X17574956Y-9359500D01*
X17375044Y-9359500D01*
X17308005Y-9339815D01*
X17262250Y-9287011D01*
X17252306Y-9217853D01*
X17260483Y-9188048D01*
X17280254Y-9140315D01*
X17292051Y-9111835D01*
X17319760Y-8972533D01*
X17330500Y-8918543D01*
X17330500Y-7321456D01*
X17329903Y-7315394D01*
X17331701Y-7315216D01*
X17332821Y-7302702D01*
X17329824Y-7281853D01*
X17335876Y-7268600D01*
X17337176Y-7254090D01*
X17350098Y-7237457D01*
X17358849Y-7218297D01*
X17371105Y-7210420D01*
X17380044Y-7198916D01*
X17399908Y-7191910D01*
X17417627Y-7180523D01*
X17442221Y-7176986D01*
X17445935Y-7175677D01*
X17452562Y-7175500D01*
X17497439Y-7175500D01*
X17564478Y-7195185D01*
G37*
%TD.AperFunction*%
M02*
