M48
; DRILL file {KiCad 9.0.7} date 2026-05-06T21:06:32+0200
; FORMAT={-:-/ absolute / metric / decimal}
; #@! TF.CreationDate,2026-05-06T21:06:32+02:00
; #@! TF.GenerationSoftware,Kicad,Pcbnew,9.0.7
; #@! TF.FileFunction,Plated,1,2,PTH
FMAT,2
METRIC
; #@! TA.AperFunction,Plated,PTH,ViaDrill
T1C0.600
; #@! TA.AperFunction,Plated,PTH,ComponentDrill
T2C1.000
; #@! TA.AperFunction,Plated,PTH,ComponentDrill
T3C1.100
%
G90
G05
T1
X8.255Y-27.425
X18.081Y-31.281
X20.7Y-30.5
X35.625Y-26.622
X40.8Y-20.55
X43.882Y-21.941
X45.202Y-31.914
X45.401Y-20.8
X47.076Y-31.598
X51.775Y-22.175
T2
X8.37Y-4.23
X8.37Y-6.77
X8.37Y-35.43
X8.37Y-37.97
X10.91Y-4.23
X10.91Y-6.77
X10.91Y-35.43
X10.91Y-37.97
X13.45Y-4.23
X13.45Y-6.77
X13.45Y-35.43
X13.45Y-37.97
X15.99Y-4.23
X15.99Y-6.77
X15.99Y-35.43
X15.99Y-37.97
X18.53Y-4.23
X18.53Y-6.77
X18.53Y-35.43
X18.53Y-37.97
X21.07Y-4.23
X21.07Y-6.77
X21.07Y-35.43
X21.07Y-37.97
X23.61Y-4.23
X23.61Y-6.77
X23.61Y-35.43
X23.61Y-37.97
X26.15Y-4.23
X26.15Y-6.77
X26.15Y-35.43
X26.15Y-37.97
X28.69Y-4.23
X28.69Y-6.77
X28.69Y-35.43
X28.69Y-37.97
X31.23Y-4.23
X31.23Y-6.77
X31.23Y-35.43
X31.23Y-37.97
X33.77Y-4.23
X33.77Y-6.77
X33.77Y-35.43
X33.77Y-37.97
X36.31Y-4.23
X36.31Y-6.77
X36.31Y-35.43
X36.31Y-37.97
X38.85Y-4.23
X38.85Y-6.77
X38.85Y-35.43
X38.85Y-37.97
X41.39Y-4.23
X41.39Y-6.77
X41.39Y-35.43
X41.39Y-37.97
X43.93Y-4.23
X43.93Y-6.77
X43.93Y-35.43
X43.93Y-37.97
X46.47Y-4.23
X46.47Y-6.77
X46.47Y-35.43
X46.47Y-37.97
X49.01Y-4.23
X49.01Y-6.77
X49.01Y-35.43
X49.01Y-37.97
X51.55Y-4.23
X51.55Y-6.77
X51.55Y-35.43
X51.55Y-37.97
X54.09Y-4.23
X54.09Y-6.77
X54.09Y-35.43
X54.09Y-37.97
X56.63Y-4.23
X56.63Y-6.77
X56.63Y-35.43
X56.63Y-37.97
T3
X5.126Y-19.924
X8.672Y-17.154
X9.128Y-25.046
X11.054Y-15.228
X11.054Y-27.428
X12.674Y-22.276
X13.824Y-18.774
X13.824Y-30.974
X16.176Y-11.226
X16.176Y-23.426
X17.326Y-19.924
X18.946Y-14.772
X18.946Y-26.972
X20.872Y-17.154
X21.328Y-25.046
X24.874Y-22.276
X29.75Y-12.75
X29.75Y-17.25
X36.25Y-12.75
X36.25Y-17.25
X41.25Y-24.75
X41.25Y-29.25
X42.25Y-13.75
X42.25Y-18.25
X47.75Y-24.75
X47.75Y-29.25
X48.75Y-13.75
X48.75Y-18.25
X52.25Y-24.75
X52.25Y-29.25
X53.25Y-13.75
X53.25Y-18.25
X58.75Y-24.75
X58.75Y-29.25
X59.75Y-13.75
X59.75Y-18.25
M30
