%TF.GenerationSoftware,KiCad,Pcbnew,9.0.7*%
%TF.CreationDate,2026-05-06T21:21:55+02:00*%
%TF.ProjectId,BarePi_TinyJoypad,42617265-5069-45f5-9469-6e794a6f7970,rev?*%
%TF.SameCoordinates,Original*%
%TF.FileFunction,Copper,L2,Bot*%
%TF.FilePolarity,Positive*%
%FSLAX46Y46*%
G04 Gerber Fmt 4.6, Leading zero omitted, Abs format (unit mm)*
G04 Created by KiCad (PCBNEW 9.0.7) date 2026-05-06 21:21:55*
%MOMM*%
%LPD*%
G01*
G04 APERTURE LIST*
G04 Aperture macros list*
%AMRoundRect*
0 Rectangle with rounded corners*
0 $1 Rounding radius*
0 $2 $3 $4 $5 $6 $7 $8 $9 X,Y pos of 4 corners*
0 Add a 4 corners polygon primitive as box body*
4,1,4,$2,$3,$4,$5,$6,$7,$8,$9,$2,$3,0*
0 Add four circle primitives for the rounded corners*
1,1,$1+$1,$2,$3*
1,1,$1+$1,$4,$5*
1,1,$1+$1,$6,$7*
1,1,$1+$1,$8,$9*
0 Add four rect primitives between the rounded corners*
20,1,$1+$1,$2,$3,$4,$5,0*
20,1,$1+$1,$4,$5,$6,$7,0*
20,1,$1+$1,$6,$7,$8,$9,0*
20,1,$1+$1,$8,$9,$2,$3,0*%
%AMOutline4P*
0 Free polygon, 4 corners , with rotation*
0 The origin of the aperture is its center*
0 number of corners: always 4*
0 $1 to $8 corner X, Y*
0 $9 Rotation angle, in degrees counterclockwise*
0 create outline with 4 corners*
4,1,4,$1,$2,$3,$4,$5,$6,$7,$8,$1,$2,$9*%
G04 Aperture macros list end*
%TA.AperFunction,NonConductor*%
%ADD10C,0.500000*%
%TD*%
%ADD11C,0.300000*%
%ADD12C,0.500000*%
%TA.AperFunction,ComponentPad*%
%ADD13RoundRect,0.250000X-0.950000X-0.550000X0.950000X-0.550000X0.950000X0.550000X-0.950000X0.550000X0*%
%TD*%
%TA.AperFunction,ComponentPad*%
%ADD14O,2.400000X1.600000*%
%TD*%
%TA.AperFunction,ComponentPad*%
%ADD15Outline4P,-1.500000X-0.800000X1.500000X-0.800000X1.500000X0.800000X-1.500000X0.800000X270.000000*%
%TD*%
%TA.AperFunction,ComponentPad*%
%ADD16O,1.600000X3.000000*%
%TD*%
%TA.AperFunction,SMDPad,CuDef*%
%ADD17RoundRect,0.250000X-0.625000X0.400000X-0.625000X-0.400000X0.625000X-0.400000X0.625000X0.400000X0*%
%TD*%
%TA.AperFunction,SMDPad,CuDef*%
%ADD18RoundRect,0.250000X-0.650000X0.412500X-0.650000X-0.412500X0.650000X-0.412500X0.650000X0.412500X0*%
%TD*%
%TA.AperFunction,SMDPad,CuDef*%
%ADD19RoundRect,0.250000X-0.400000X-0.625000X0.400000X-0.625000X0.400000X0.625000X-0.400000X0.625000X0*%
%TD*%
%TA.AperFunction,ViaPad*%
%ADD20C,1.600000*%
%TD*%
%TA.AperFunction,Conductor*%
%ADD21C,0.600000*%
%TD*%
%TA.AperFunction,Conductor*%
%ADD22C,0.330000*%
%TD*%
%TA.AperFunction,Conductor*%
%ADD23C,0.400000*%
%TD*%
G04 APERTURE END LIST*
D10*
X26010000Y-1540000D02*
G75*
G02*
X25810000Y-1540000I-100000J0D01*
G01*
X25810000Y-1540000D02*
G75*
G02*
X26010000Y-1540000I100000J0D01*
G01*
D11*
G36*
X2521000Y-9081960D02*
G01*
X2517462Y-9293184D01*
X2512793Y-9374612D01*
X2501176Y-9437619D01*
X2481968Y-9491394D01*
X2455640Y-9537351D01*
X2421499Y-9577917D01*
X2380343Y-9612536D01*
X2331369Y-9641472D01*
X2278500Y-9662811D01*
X2225348Y-9675394D01*
X2171341Y-9679574D01*
X2103694Y-9672802D01*
X2043643Y-9653114D01*
X1989551Y-9620516D01*
X1943982Y-9576734D01*
X1907493Y-9521191D01*
X1880082Y-9451695D01*
X1852428Y-9500286D01*
X1817297Y-9541151D01*
X1774129Y-9575087D01*
X1725395Y-9600402D01*
X1673951Y-9615491D01*
X1618864Y-9620589D01*
X1567859Y-9616371D01*
X1521194Y-9604032D01*
X1478034Y-9583660D01*
X1420927Y-9541709D01*
X1377430Y-9491482D01*
X1346287Y-9432917D01*
X1327751Y-9366039D01*
X1319331Y-9286877D01*
X1315808Y-9153328D01*
X1315808Y-9054996D01*
X1517454Y-9054996D01*
X1521558Y-9262358D01*
X1530077Y-9301254D01*
X1544243Y-9331087D01*
X1563616Y-9353729D01*
X1602438Y-9376450D01*
X1653742Y-9384504D01*
X1690899Y-9380297D01*
X1721582Y-9368351D01*
X1747238Y-9348820D01*
X1775054Y-9307927D01*
X1790030Y-9250928D01*
X1793274Y-9111563D01*
X1995780Y-9111563D01*
X2001442Y-9262804D01*
X2013145Y-9326692D01*
X2036072Y-9371067D01*
X2068466Y-9402529D01*
X2109579Y-9421926D01*
X2160863Y-9428761D01*
X2202542Y-9424634D01*
X2236244Y-9413098D01*
X2263665Y-9394689D01*
X2294682Y-9356064D01*
X2311952Y-9306615D01*
X2316887Y-9259661D01*
X2319353Y-9140212D01*
X2319353Y-8915631D01*
X1995780Y-8915631D01*
X1995780Y-9111563D01*
X1793274Y-9111563D01*
X1794133Y-9074633D01*
X1794133Y-8915631D01*
X1517454Y-8915631D01*
X1517454Y-9054996D01*
X1315808Y-9054996D01*
X1315808Y-8672951D01*
X2521000Y-8672951D01*
X2521000Y-9081960D01*
G37*
G36*
X2044711Y-9842319D02*
G01*
X2146223Y-9862556D01*
X2234849Y-9894725D01*
X2312412Y-9938291D01*
X2380316Y-9993401D01*
X2438334Y-10059612D01*
X2483613Y-10133982D01*
X2516662Y-10217665D01*
X2537256Y-10312238D01*
X2544447Y-10419630D01*
X2537262Y-10525523D01*
X2516650Y-10619083D01*
X2483501Y-10702176D01*
X2437977Y-10776325D01*
X2379510Y-10842634D01*
X2311363Y-10897614D01*
X2233242Y-10941163D01*
X2143684Y-10973380D01*
X2040802Y-10993683D01*
X1922360Y-11000830D01*
X1802896Y-10993616D01*
X1699267Y-10973134D01*
X1609192Y-10940651D01*
X1530742Y-10896769D01*
X1462427Y-10841388D01*
X1403781Y-10774579D01*
X1358129Y-10699973D01*
X1324898Y-10616474D01*
X1304245Y-10522569D01*
X1297214Y-10418824D01*
X1503386Y-10418824D01*
X1510176Y-10492124D01*
X1529639Y-10555470D01*
X1561304Y-10610802D01*
X1605895Y-10659452D01*
X1658961Y-10696510D01*
X1726202Y-10724775D01*
X1810799Y-10743268D01*
X1916645Y-10750017D01*
X2023540Y-10743125D01*
X2109434Y-10724191D01*
X2178134Y-10695157D01*
X2232744Y-10656960D01*
X2279048Y-10606903D01*
X2311551Y-10551389D01*
X2331293Y-10489267D01*
X2338110Y-10418824D01*
X2331268Y-10348436D01*
X2311419Y-10286103D01*
X2278671Y-10230147D01*
X2231938Y-10179441D01*
X2176781Y-10140510D01*
X2108385Y-10111130D01*
X2023932Y-10092101D01*
X1919942Y-10085212D01*
X1813790Y-10092031D01*
X1728716Y-10110742D01*
X1660878Y-10139390D01*
X1607140Y-10177023D01*
X1561908Y-10226347D01*
X1529867Y-10282124D01*
X1510223Y-10345651D01*
X1503386Y-10418824D01*
X1297214Y-10418824D01*
X1297050Y-10416406D01*
X1302700Y-10319468D01*
X1318879Y-10233631D01*
X1344750Y-10157386D01*
X1372039Y-10103428D01*
X1408004Y-10051727D01*
X1453414Y-10001974D01*
X1531457Y-9938526D01*
X1618791Y-9890160D01*
X1703948Y-9860865D01*
X1806035Y-9841981D01*
X1928149Y-9835205D01*
X2044711Y-9842319D01*
G37*
G36*
X2521000Y-11460910D02*
G01*
X1517454Y-11460910D01*
X1517454Y-11104291D01*
X1315808Y-11104291D01*
X1315808Y-12059330D01*
X1517454Y-12059330D01*
X1517454Y-11703517D01*
X2521000Y-11703517D01*
X2521000Y-11460910D01*
G37*
G36*
X2521000Y-12486730D02*
G01*
X1517454Y-12486730D01*
X1517454Y-12130111D01*
X1315808Y-12130111D01*
X1315808Y-13085150D01*
X1517454Y-13085150D01*
X1517454Y-12729337D01*
X2521000Y-12729337D01*
X2521000Y-12486730D01*
G37*
G36*
X2044711Y-13169493D02*
G01*
X2146223Y-13189730D01*
X2234849Y-13221899D01*
X2312412Y-13265464D01*
X2380316Y-13320575D01*
X2438334Y-13386786D01*
X2483613Y-13461156D01*
X2516662Y-13544838D01*
X2537256Y-13639412D01*
X2544447Y-13746803D01*
X2537262Y-13852697D01*
X2516650Y-13946257D01*
X2483501Y-14029349D01*
X2437977Y-14103499D01*
X2379510Y-14169808D01*
X2311363Y-14224788D01*
X2233242Y-14268336D01*
X2143684Y-14300554D01*
X2040802Y-14320857D01*
X1922360Y-14328004D01*
X1802896Y-14320790D01*
X1699267Y-14300307D01*
X1609192Y-14267825D01*
X1530742Y-14223943D01*
X1462427Y-14168562D01*
X1403781Y-14101753D01*
X1358129Y-14027147D01*
X1324898Y-13943648D01*
X1304245Y-13849742D01*
X1297214Y-13745997D01*
X1503386Y-13745997D01*
X1510176Y-13819298D01*
X1529639Y-13882644D01*
X1561304Y-13937976D01*
X1605895Y-13986625D01*
X1658961Y-14023684D01*
X1726202Y-14051949D01*
X1810799Y-14070441D01*
X1916645Y-14077191D01*
X2023540Y-14070299D01*
X2109434Y-14051365D01*
X2178134Y-14022331D01*
X2232744Y-13984134D01*
X2279048Y-13934077D01*
X2311551Y-13878563D01*
X2331293Y-13816441D01*
X2338110Y-13745997D01*
X2331268Y-13675609D01*
X2311419Y-13613277D01*
X2278671Y-13557320D01*
X2231938Y-13506615D01*
X2176781Y-13467683D01*
X2108385Y-13438304D01*
X2023932Y-13419275D01*
X1919942Y-13412386D01*
X1813790Y-13419205D01*
X1728716Y-13437915D01*
X1660878Y-13466564D01*
X1607140Y-13504197D01*
X1561908Y-13553520D01*
X1529867Y-13609298D01*
X1510223Y-13672825D01*
X1503386Y-13745997D01*
X1297214Y-13745997D01*
X1297050Y-13743579D01*
X1302700Y-13646641D01*
X1318879Y-13560805D01*
X1344750Y-13484560D01*
X1372039Y-13430602D01*
X1408004Y-13378900D01*
X1453414Y-13329148D01*
X1531457Y-13265700D01*
X1618791Y-13217334D01*
X1703948Y-13188038D01*
X1806035Y-13169155D01*
X1928149Y-13162379D01*
X2044711Y-13169493D01*
G37*
G36*
X2521000Y-14514263D02*
G01*
X1315808Y-14514263D01*
X1315808Y-14877404D01*
X2137929Y-15095464D01*
X1315808Y-15311032D01*
X1315808Y-15675052D01*
X2521000Y-15675052D01*
X2521000Y-15449591D01*
X1572336Y-15449591D01*
X2521000Y-15211088D01*
X2521000Y-14977421D01*
X1572336Y-14739724D01*
X2521000Y-14739724D01*
X2521000Y-14514263D01*
G37*
D12*
G36*
X44863816Y-23660000D02*
G01*
X44182134Y-23660000D01*
X43830094Y-23654103D01*
X43694381Y-23646322D01*
X43589370Y-23626960D01*
X43499744Y-23594947D01*
X43423149Y-23551067D01*
X43355540Y-23494165D01*
X43297841Y-23425571D01*
X43249615Y-23343949D01*
X43214049Y-23255833D01*
X43193077Y-23167247D01*
X43186112Y-23077236D01*
X43187860Y-23059773D01*
X43604133Y-23059773D01*
X43611011Y-23129238D01*
X43630239Y-23185407D01*
X43660920Y-23231109D01*
X43725295Y-23282803D01*
X43807710Y-23311587D01*
X43885967Y-23319813D01*
X44085047Y-23323921D01*
X44459350Y-23323921D01*
X44459350Y-22784633D01*
X44132797Y-22784633D01*
X43880728Y-22794071D01*
X43774248Y-22813576D01*
X43700289Y-22851786D01*
X43647853Y-22905778D01*
X43615525Y-22974299D01*
X43604133Y-23059773D01*
X43187860Y-23059773D01*
X43197398Y-22964491D01*
X43230212Y-22864405D01*
X43284542Y-22774253D01*
X43357511Y-22698303D01*
X43450083Y-22637488D01*
X43565909Y-22591803D01*
X43484924Y-22545713D01*
X43416816Y-22487162D01*
X43360257Y-22415216D01*
X43318065Y-22333992D01*
X43292916Y-22248252D01*
X43289799Y-22214570D01*
X43677895Y-22214570D01*
X43684906Y-22276499D01*
X43704816Y-22327637D01*
X43737368Y-22370397D01*
X43805523Y-22416758D01*
X43900522Y-22441716D01*
X44194346Y-22448555D01*
X44459350Y-22448555D01*
X44459350Y-21987424D01*
X44227075Y-21987424D01*
X43881471Y-21994263D01*
X43816644Y-22008462D01*
X43766922Y-22032072D01*
X43729186Y-22064361D01*
X43691317Y-22129063D01*
X43677895Y-22214570D01*
X43289799Y-22214570D01*
X43284419Y-22156441D01*
X43291449Y-22071431D01*
X43312015Y-21993657D01*
X43345969Y-21921723D01*
X43415887Y-21826546D01*
X43499597Y-21754050D01*
X43597206Y-21702145D01*
X43708669Y-21671252D01*
X43840606Y-21657218D01*
X44063188Y-21651346D01*
X44863816Y-21651346D01*
X44863816Y-23660000D01*
G37*
G36*
X42425542Y-22175003D02*
G01*
X42541716Y-22196367D01*
X42634086Y-22228768D01*
X42706907Y-22270624D01*
X42790352Y-22348690D01*
X42857875Y-22452986D01*
X42909018Y-22589239D01*
X42560606Y-22651765D01*
X42516890Y-22558843D01*
X42467793Y-22505830D01*
X42402955Y-22475625D01*
X42307936Y-22464187D01*
X42206940Y-22471146D01*
X42141703Y-22488542D01*
X42101673Y-22512669D01*
X42073068Y-22548902D01*
X42054137Y-22601107D01*
X42046963Y-22674968D01*
X42046963Y-22714291D01*
X42172203Y-22754803D01*
X42419922Y-22809057D01*
X42606695Y-22854009D01*
X42725225Y-22899061D01*
X42791135Y-22938799D01*
X42845614Y-22987986D01*
X42889845Y-23047316D01*
X42922172Y-23114025D01*
X42941833Y-23187018D01*
X42948585Y-23267745D01*
X42940192Y-23358837D01*
X42915897Y-23439438D01*
X42876015Y-23511621D01*
X42819503Y-23576835D01*
X42751744Y-23628670D01*
X42671968Y-23666648D01*
X42577839Y-23690589D01*
X42466328Y-23699078D01*
X42342408Y-23686748D01*
X42227214Y-23650230D01*
X42120184Y-23590299D01*
X42016799Y-23503684D01*
X42003121Y-23548136D01*
X41966241Y-23660000D01*
X41586443Y-23660000D01*
X41629942Y-23556053D01*
X41655442Y-23464117D01*
X41668403Y-23360026D01*
X41673882Y-23180307D01*
X41672639Y-23041210D01*
X42046963Y-23041210D01*
X42051698Y-23168754D01*
X42061984Y-23229277D01*
X42095220Y-23298089D01*
X42153575Y-23356894D01*
X42218990Y-23395726D01*
X42284576Y-23418140D01*
X42351656Y-23425526D01*
X42411194Y-23418673D01*
X42461504Y-23399014D01*
X42504674Y-23366542D01*
X42538383Y-23324216D01*
X42558090Y-23278043D01*
X42564758Y-23226468D01*
X42556604Y-23175358D01*
X42532337Y-23130751D01*
X42489653Y-23090669D01*
X42425770Y-23061684D01*
X42280581Y-23023381D01*
X42046963Y-22964396D01*
X42046963Y-23041210D01*
X41672639Y-23041210D01*
X41669852Y-22729434D01*
X41677413Y-22559464D01*
X41696129Y-22449952D01*
X41721143Y-22383709D01*
X41761436Y-22326933D01*
X41819234Y-22275203D01*
X41898097Y-22228370D01*
X41984667Y-22197331D01*
X42108512Y-22175561D01*
X42280581Y-22167187D01*
X42425542Y-22175003D01*
G37*
G36*
X40924667Y-23660000D02*
G01*
X41308617Y-23660000D01*
X41308617Y-22206266D01*
X40952022Y-22206266D01*
X40952022Y-22412529D01*
X40857817Y-22282019D01*
X40787403Y-22216769D01*
X40709844Y-22179735D01*
X40621440Y-22167187D01*
X40535903Y-22175062D01*
X40452054Y-22198835D01*
X40368648Y-22239483D01*
X40487472Y-22573852D01*
X40584851Y-22525476D01*
X40667846Y-22511081D01*
X40743314Y-22522618D01*
X40804500Y-22555900D01*
X40851345Y-22613087D01*
X40892549Y-22717711D01*
X40914282Y-22866422D01*
X40924667Y-23208150D01*
X40924667Y-23660000D01*
G37*
G36*
X39790659Y-22180523D02*
G01*
X39914815Y-22219194D01*
X40026299Y-22282894D01*
X40127336Y-22373572D01*
X40206791Y-22481356D01*
X40265439Y-22609532D01*
X40302642Y-22762094D01*
X40315892Y-22944124D01*
X40306062Y-23096626D01*
X40278033Y-23229835D01*
X40233304Y-23346615D01*
X40172399Y-23449340D01*
X40094026Y-23537267D01*
X40001395Y-23605773D01*
X39892469Y-23656079D01*
X39764121Y-23687823D01*
X39612350Y-23699078D01*
X39456388Y-23685673D01*
X39325198Y-23647786D01*
X39214112Y-23587215D01*
X39119347Y-23503406D01*
X39041765Y-23396163D01*
X38981105Y-23261395D01*
X39363589Y-23198869D01*
X39404690Y-23294702D01*
X39456523Y-23353963D01*
X39523756Y-23389601D01*
X39608198Y-23402079D01*
X39692449Y-23391355D01*
X39765253Y-23360127D01*
X39829482Y-23307435D01*
X39877555Y-23239278D01*
X39909094Y-23152666D01*
X39922417Y-23042554D01*
X38960588Y-23042554D01*
X38966515Y-22857266D01*
X38973875Y-22808080D01*
X39341729Y-22808080D01*
X39915578Y-22808080D01*
X39906341Y-22705126D01*
X39878953Y-22622846D01*
X39834978Y-22556755D01*
X39775238Y-22505175D01*
X39706956Y-22474673D01*
X39627249Y-22464187D01*
X39552694Y-22473980D01*
X39487026Y-22502770D01*
X39427825Y-22551870D01*
X39383890Y-22615190D01*
X39354470Y-22698662D01*
X39341729Y-22808080D01*
X38973875Y-22808080D01*
X38989596Y-22703009D01*
X39027178Y-22575098D01*
X39077464Y-22469429D01*
X39139618Y-22382609D01*
X39240262Y-22289424D01*
X39356656Y-22222852D01*
X39491923Y-22181650D01*
X39650574Y-22167187D01*
X39790659Y-22180523D01*
G37*
G36*
X38645759Y-23660000D02*
G01*
X38241415Y-23660000D01*
X38241415Y-22901870D01*
X37977755Y-22901870D01*
X37719328Y-22893492D01*
X37558268Y-22873049D01*
X37454363Y-22838500D01*
X37348463Y-22777916D01*
X37284839Y-22725075D01*
X37228201Y-22659611D01*
X37178348Y-22579958D01*
X37142425Y-22493445D01*
X37119568Y-22390859D01*
X37111842Y-22275265D01*
X37528226Y-22275265D01*
X37539951Y-22361028D01*
X37574022Y-22433778D01*
X37628078Y-22492444D01*
X37700417Y-22533796D01*
X37800753Y-22555604D01*
X38020131Y-22565792D01*
X38241415Y-22565792D01*
X38241415Y-21987424D01*
X38046021Y-21987424D01*
X37845520Y-21991877D01*
X37755006Y-22001346D01*
X37692699Y-22019651D01*
X37638996Y-22049598D01*
X37592462Y-22091716D01*
X37557319Y-22143165D01*
X37535781Y-22203540D01*
X37528226Y-22275265D01*
X37111842Y-22275265D01*
X37111426Y-22269036D01*
X37125463Y-22113107D01*
X37164858Y-21984620D01*
X37227563Y-21878126D01*
X37312626Y-21787768D01*
X37408111Y-21723028D01*
X37515892Y-21681510D01*
X37659506Y-21661162D01*
X37996806Y-21651346D01*
X38645759Y-21651346D01*
X38645759Y-23660000D01*
G37*
G36*
X36782431Y-22003056D02*
G01*
X36782431Y-21651346D01*
X36398603Y-21651346D01*
X36398603Y-22003056D01*
X36782431Y-22003056D01*
G37*
G36*
X36782431Y-23660000D02*
G01*
X36782431Y-22206266D01*
X36398603Y-22206266D01*
X36398603Y-23660000D01*
X36782431Y-23660000D01*
G37*
G36*
X34773533Y-23660000D02*
G01*
X34773533Y-21987424D01*
X35367898Y-21987424D01*
X35367898Y-21651346D01*
X33776167Y-21651346D01*
X33776167Y-21987424D01*
X34369189Y-21987424D01*
X34369189Y-23660000D01*
X34773533Y-23660000D01*
G37*
G36*
X33568195Y-22003056D02*
G01*
X33568195Y-21651346D01*
X33184367Y-21651346D01*
X33184367Y-22003056D01*
X33568195Y-22003056D01*
G37*
G36*
X33568195Y-23660000D02*
G01*
X33568195Y-22206266D01*
X33184367Y-22206266D01*
X33184367Y-23660000D01*
X33568195Y-23660000D01*
G37*
G36*
X31470759Y-23660000D02*
G01*
X31854709Y-23660000D01*
X31854709Y-22915914D01*
X31862786Y-22700277D01*
X31879378Y-22610488D01*
X31912060Y-22548253D01*
X31959245Y-22502655D01*
X32018997Y-22474159D01*
X32092479Y-22464187D01*
X32187397Y-22478038D01*
X32271387Y-22519141D01*
X32338266Y-22583024D01*
X32380075Y-22664588D01*
X32400217Y-22774326D01*
X32409384Y-22999567D01*
X32409384Y-23660000D01*
X32793334Y-23660000D01*
X32793334Y-22206266D01*
X32436740Y-22206266D01*
X32436740Y-22419368D01*
X32353767Y-22325640D01*
X32265598Y-22255698D01*
X32171420Y-22206728D01*
X32069743Y-22177244D01*
X31958512Y-22167187D01*
X31835529Y-22178985D01*
X31726359Y-22213227D01*
X31631405Y-22267516D01*
X31567113Y-22330830D01*
X31521529Y-22406703D01*
X31492008Y-22493007D01*
X31476914Y-22593510D01*
X31470759Y-22752759D01*
X31470759Y-23660000D01*
G37*
G36*
X31262542Y-22206266D02*
G01*
X30854046Y-22206266D01*
X30507099Y-23241001D01*
X30168212Y-22206266D01*
X29770707Y-22206266D01*
X30283006Y-23606144D01*
X30374475Y-23863698D01*
X30427093Y-23982038D01*
X30470829Y-24057383D01*
X30520760Y-24118722D01*
X30576098Y-24165949D01*
X30640323Y-24202091D01*
X30722277Y-24230795D01*
X30812151Y-24247900D01*
X30918282Y-24253998D01*
X31028101Y-24248208D01*
X31135536Y-24230917D01*
X31169730Y-23931231D01*
X31081478Y-23944973D01*
X31007186Y-23949183D01*
X30921524Y-23939347D01*
X30857250Y-23912453D01*
X30809105Y-23869804D01*
X30753775Y-23782520D01*
X30710675Y-23667815D01*
X31262542Y-22206266D01*
G37*
G36*
X28800086Y-21651346D02*
G01*
X28397085Y-21651346D01*
X28397085Y-22925806D01*
X28402970Y-23093701D01*
X28418483Y-23219094D01*
X28440805Y-23310366D01*
X28490704Y-23420088D01*
X28561159Y-23513518D01*
X28653906Y-23592711D01*
X28761799Y-23649512D01*
X28895442Y-23685925D01*
X29061059Y-23699078D01*
X29208457Y-23687381D01*
X29330748Y-23654598D01*
X29432542Y-23602834D01*
X29517305Y-23532260D01*
X29583920Y-23444801D01*
X29633909Y-23337065D01*
X29666335Y-23204784D01*
X29678505Y-23042554D01*
X29297364Y-23003475D01*
X29286966Y-23119102D01*
X29269151Y-23197027D01*
X29246806Y-23247107D01*
X29195510Y-23307143D01*
X29130547Y-23342677D01*
X29047382Y-23355184D01*
X28960865Y-23345280D01*
X28899319Y-23318784D01*
X28856140Y-23277515D01*
X28829209Y-23221035D01*
X28808604Y-23120295D01*
X28800086Y-22954626D01*
X28800086Y-21651346D01*
G37*
G36*
X27451330Y-22178092D02*
G01*
X27579298Y-22209965D01*
X27697696Y-22262442D01*
X27803950Y-22335256D01*
X27892514Y-22426578D01*
X27964775Y-22538436D01*
X28017605Y-22661652D01*
X28048717Y-22785802D01*
X28059053Y-22912372D01*
X28047675Y-23078673D01*
X28015563Y-23220214D01*
X27964775Y-23341018D01*
X27892219Y-23448923D01*
X27801140Y-23537349D01*
X27689514Y-23607976D01*
X27566164Y-23658775D01*
X27439804Y-23688971D01*
X27308983Y-23699078D01*
X27151522Y-23684830D01*
X27012050Y-23643598D01*
X26887066Y-23575984D01*
X26774091Y-23480359D01*
X26681715Y-23364789D01*
X26615921Y-23236242D01*
X26575581Y-23092144D01*
X26561715Y-22930324D01*
X26956419Y-22930324D01*
X26969333Y-23075392D01*
X27004360Y-23185914D01*
X27058268Y-23269699D01*
X27132432Y-23335181D01*
X27215353Y-23373431D01*
X27310327Y-23386448D01*
X27405328Y-23373447D01*
X27488505Y-23335206D01*
X27563118Y-23269699D01*
X27617481Y-23185911D01*
X27652653Y-23076220D01*
X27665578Y-22933133D01*
X27652650Y-22790047D01*
X27617476Y-22680401D01*
X27563118Y-22596688D01*
X27488496Y-22531108D01*
X27405320Y-22492830D01*
X27310327Y-22479818D01*
X27215361Y-22492846D01*
X27132441Y-22531132D01*
X27058268Y-22596688D01*
X27004148Y-22680305D01*
X26969222Y-22789114D01*
X26956419Y-22930324D01*
X26561715Y-22930324D01*
X26561600Y-22928981D01*
X26575461Y-22767166D01*
X26615431Y-22624456D01*
X26680583Y-22497332D01*
X26772015Y-22383220D01*
X26883822Y-22289265D01*
X27009071Y-22222431D01*
X27150439Y-22181428D01*
X27311670Y-22167187D01*
X27451330Y-22178092D01*
G37*
G36*
X26442165Y-22206266D02*
G01*
X26033669Y-22206266D01*
X25686722Y-23241001D01*
X25347835Y-22206266D01*
X24950330Y-22206266D01*
X25462629Y-23606144D01*
X25554098Y-23863698D01*
X25606717Y-23982038D01*
X25650452Y-24057383D01*
X25700383Y-24118722D01*
X25755721Y-24165949D01*
X25819946Y-24202091D01*
X25901900Y-24230795D01*
X25991774Y-24247900D01*
X26097905Y-24253998D01*
X26207724Y-24248208D01*
X26315159Y-24230917D01*
X26349353Y-23931231D01*
X26261101Y-23944973D01*
X26186809Y-23949183D01*
X26101148Y-23939347D01*
X26036873Y-23912453D01*
X25988729Y-23869804D01*
X25933398Y-23782520D01*
X25890299Y-23667815D01*
X26442165Y-22206266D01*
G37*
G36*
X24000508Y-22175282D02*
G01*
X24087887Y-22199083D01*
X24169608Y-22238628D01*
X24276934Y-22320278D01*
X24358163Y-22419368D01*
X24358163Y-22206266D01*
X24716101Y-22206266D01*
X24716101Y-24214919D01*
X24332151Y-24214919D01*
X24332151Y-23487198D01*
X24221673Y-23590315D01*
X24126621Y-23651207D01*
X24024623Y-23686813D01*
X23908634Y-23699078D01*
X23787167Y-23686392D01*
X23676627Y-23649072D01*
X23574294Y-23586436D01*
X23478401Y-23495502D01*
X23404112Y-23389740D01*
X23348764Y-23262404D01*
X23313382Y-23109211D01*
X23300714Y-22924829D01*
X23300748Y-22924340D01*
X23691380Y-22924340D01*
X23703479Y-23089919D01*
X23734838Y-23205696D01*
X23780285Y-23284476D01*
X23845651Y-23346290D01*
X23918836Y-23382110D01*
X24002912Y-23394263D01*
X24090268Y-23381246D01*
X24168058Y-23342452D01*
X24239339Y-23274706D01*
X24289622Y-23189243D01*
X24323485Y-23069561D01*
X24336304Y-22904801D01*
X24324330Y-22761937D01*
X24292174Y-22654896D01*
X24243369Y-22575439D01*
X24175202Y-22513018D01*
X24098400Y-22476597D01*
X24009751Y-22464187D01*
X23924848Y-22476644D01*
X23850271Y-22513530D01*
X23782971Y-22577515D01*
X23735368Y-22658369D01*
X23703432Y-22770697D01*
X23691380Y-22924340D01*
X23300748Y-22924340D01*
X23313218Y-22745564D01*
X23348207Y-22596120D01*
X23403077Y-22471405D01*
X23476935Y-22367344D01*
X23571966Y-22278143D01*
X23673801Y-22216528D01*
X23784221Y-22179722D01*
X23905948Y-22167187D01*
X24000508Y-22175282D01*
G37*
G36*
X22573483Y-22175003D02*
G01*
X22689657Y-22196367D01*
X22782027Y-22228768D01*
X22854849Y-22270624D01*
X22938294Y-22348690D01*
X23005816Y-22452986D01*
X23056960Y-22589239D01*
X22708547Y-22651765D01*
X22664831Y-22558843D01*
X22615735Y-22505830D01*
X22550896Y-22475625D01*
X22455878Y-22464187D01*
X22354882Y-22471146D01*
X22289644Y-22488542D01*
X22249615Y-22512669D01*
X22221009Y-22548902D01*
X22202078Y-22601107D01*
X22194904Y-22674968D01*
X22194904Y-22714291D01*
X22320145Y-22754803D01*
X22567863Y-22809057D01*
X22754637Y-22854009D01*
X22873167Y-22899061D01*
X22939076Y-22938799D01*
X22993556Y-22987986D01*
X23037786Y-23047316D01*
X23070114Y-23114025D01*
X23089775Y-23187018D01*
X23096527Y-23267745D01*
X23088133Y-23358837D01*
X23063838Y-23439438D01*
X23023956Y-23511621D01*
X22967445Y-23576835D01*
X22899686Y-23628670D01*
X22819910Y-23666648D01*
X22725781Y-23690589D01*
X22614269Y-23699078D01*
X22490349Y-23686748D01*
X22375156Y-23650230D01*
X22268125Y-23590299D01*
X22164740Y-23503684D01*
X22151063Y-23548136D01*
X22114182Y-23660000D01*
X21734384Y-23660000D01*
X21777883Y-23556053D01*
X21803383Y-23464117D01*
X21816344Y-23360026D01*
X21821823Y-23180307D01*
X21820580Y-23041210D01*
X22194904Y-23041210D01*
X22199640Y-23168754D01*
X22209925Y-23229277D01*
X22243162Y-23298089D01*
X22301516Y-23356894D01*
X22366932Y-23395726D01*
X22432518Y-23418140D01*
X22499597Y-23425526D01*
X22559135Y-23418673D01*
X22609445Y-23399014D01*
X22652615Y-23366542D01*
X22686324Y-23324216D01*
X22706031Y-23278043D01*
X22712699Y-23226468D01*
X22704546Y-23175358D01*
X22680279Y-23130751D01*
X22637595Y-23090669D01*
X22573712Y-23061684D01*
X22428523Y-23023381D01*
X22194904Y-22964396D01*
X22194904Y-23041210D01*
X21820580Y-23041210D01*
X21817793Y-22729434D01*
X21825354Y-22559464D01*
X21844071Y-22449952D01*
X21869084Y-22383709D01*
X21909377Y-22326933D01*
X21967176Y-22275203D01*
X22046038Y-22228370D01*
X22132608Y-22197331D01*
X22256454Y-22175561D01*
X22428523Y-22167187D01*
X22573483Y-22175003D01*
G37*
G36*
X20493264Y-22369420D02*
G01*
X20589183Y-22278590D01*
X20690045Y-22216415D01*
X20797501Y-22179620D01*
X20914095Y-22167187D01*
X21042659Y-22179667D01*
X21156751Y-22215900D01*
X21259398Y-22275717D01*
X21352633Y-22361116D01*
X21424496Y-22461925D01*
X21478584Y-22586416D01*
X21513535Y-22739588D01*
X21526167Y-22927637D01*
X21513499Y-23110427D01*
X21478067Y-23262704D01*
X21422541Y-23389672D01*
X21347870Y-23495502D01*
X21251592Y-23586616D01*
X21149424Y-23649237D01*
X21039642Y-23686455D01*
X20919590Y-23699078D01*
X20798732Y-23683527D01*
X20675714Y-23635209D01*
X20599873Y-23586751D01*
X20530125Y-23524471D01*
X20466031Y-23446898D01*
X20466031Y-23660000D01*
X20109437Y-23660000D01*
X20109437Y-22943635D01*
X20491921Y-22943635D01*
X20503992Y-23093596D01*
X20536256Y-23205144D01*
X20584856Y-23287163D01*
X20653031Y-23352350D01*
X20727207Y-23389600D01*
X20810292Y-23402079D01*
X20889148Y-23392456D01*
X20957153Y-23364528D01*
X21016942Y-23317700D01*
X21069800Y-23248817D01*
X21102191Y-23174621D01*
X21125112Y-23064321D01*
X21134036Y-22905900D01*
X21122100Y-22761621D01*
X21090143Y-22654151D01*
X21041834Y-22574951D01*
X20974244Y-22512603D01*
X20898976Y-22476444D01*
X20812978Y-22464187D01*
X20724513Y-22476745D01*
X20648698Y-22513490D01*
X20582169Y-22576416D01*
X20536039Y-22656806D01*
X20504203Y-22774875D01*
X20491921Y-22943635D01*
X20109437Y-22943635D01*
X20109437Y-21651346D01*
X20493264Y-21651346D01*
X20493264Y-22369420D01*
G37*
D13*
%TO.P,U1,1,~{RESET}/PB5*%
%TO.N,/KEY_LR*%
X28380000Y-2450000D03*
D14*
%TO.P,U1,2,XTAL1/PB3*%
%TO.N,/KEY_UD*%
X28380000Y-4990000D03*
%TO.P,U1,3,XTAL2/PB4*%
%TO.N,/AUDIO*%
X28380000Y-7530000D03*
%TO.P,U1,4,GND*%
%TO.N,/GND*%
X28380000Y-10070000D03*
%TO.P,U1,5,AREF/PB0*%
%TO.N,/I2C_SDA*%
X36000000Y-10070000D03*
%TO.P,U1,6,PB1*%
%TO.N,/KEY_A*%
X36000000Y-7530000D03*
%TO.P,U1,7,PB2*%
%TO.N,/I2C_SCL*%
X36000000Y-4990000D03*
%TO.P,U1,8,VCC*%
%TO.N,/3V3*%
X36000000Y-2450000D03*
%TD*%
D15*
%TO.P,J1,1,Pin_1*%
%TO.N,unconnected-(J1-Pin_1-Pad1)*%
X8370000Y-17270000D03*
D16*
%TO.P,J1,2,Pin_2*%
%TO.N,unconnected-(J1-Pin_2-Pad2)*%
X8370000Y-13930000D03*
%TO.P,J1,3,Pin_3*%
%TO.N,/3V3*%
X10910000Y-17270000D03*
%TO.P,J1,4,Pin_4*%
X10910000Y-13930000D03*
%TO.P,J1,5,Pin_5*%
%TO.N,/I2C_SDA*%
X13450000Y-17270000D03*
%TO.P,J1,6,Pin_6*%
%TO.N,/I2C_SCL*%
X13450000Y-13930000D03*
%TO.P,J1,7,Pin_7*%
%TO.N,/I2C_SDA*%
X15990000Y-17270000D03*
%TO.P,J1,8,Pin_8*%
%TO.N,/I2C_SCL*%
X15990000Y-13930000D03*
%TO.P,J1,9,Pin_9*%
%TO.N,unconnected-(J1-Pin_9-Pad9)*%
X18530000Y-17270000D03*
%TO.P,J1,10,Pin_10*%
%TO.N,/KEY_DOWN*%
X18530000Y-13930000D03*
%TO.P,J1,11,Pin_11*%
%TO.N,/KEY_UP*%
X21070000Y-17270000D03*
%TO.P,J1,12,Pin_12*%
%TO.N,unconnected-(J1-Pin_12-Pad12)*%
X21070000Y-13930000D03*
%TO.P,J1,13,Pin_13*%
%TO.N,unconnected-(J1-Pin_13-Pad13)*%
X23610000Y-17270000D03*
%TO.P,J1,14,Pin_14*%
%TO.N,unconnected-(J1-Pin_14-Pad14)*%
X23610000Y-13930000D03*
%TO.P,J1,15,Pin_15*%
%TO.N,unconnected-(J1-Pin_15-Pad15)*%
X26150000Y-17270000D03*
%TO.P,J1,16,Pin_16*%
%TO.N,unconnected-(J1-Pin_16-Pad16)*%
X26150000Y-13930000D03*
%TO.P,J1,17,Pin_17*%
%TO.N,/AUDIO*%
X28690000Y-17270000D03*
%TO.P,J1,18,Pin_18*%
X28690000Y-13930000D03*
%TO.P,J1,19,Pin_19*%
%TO.N,unconnected-(J1-Pin_19-Pad19)*%
X31230000Y-17270000D03*
%TO.P,J1,20,Pin_20*%
%TO.N,unconnected-(J1-Pin_20-Pad20)*%
X31230000Y-13930000D03*
%TO.P,J1,21,Pin_21*%
%TO.N,unconnected-(J1-Pin_21-Pad21)*%
X33770000Y-17270000D03*
%TO.P,J1,22,Pin_22*%
%TO.N,unconnected-(J1-Pin_22-Pad22)*%
X33770000Y-13930000D03*
%TO.P,J1,23,Pin_23*%
%TO.N,unconnected-(J1-Pin_23-Pad23)*%
X36310000Y-17270000D03*
%TO.P,J1,24,Pin_24*%
%TO.N,unconnected-(J1-Pin_24-Pad24)*%
X36310000Y-13930000D03*
%TO.P,J1,25,Pin_25*%
%TO.N,unconnected-(J1-Pin_25-Pad25)*%
X38850000Y-17270000D03*
%TO.P,J1,26,Pin_26*%
%TO.N,unconnected-(J1-Pin_26-Pad26)*%
X38850000Y-13930000D03*
%TO.P,J1,27,Pin_27*%
%TO.N,/KEY_A*%
X41390000Y-17270000D03*
%TO.P,J1,28,Pin_28*%
%TO.N,unconnected-(J1-Pin_28-Pad28)*%
X41390000Y-13930000D03*
%TO.P,J1,29,Pin_29*%
%TO.N,unconnected-(J1-Pin_29-Pad29)*%
X43930000Y-17270000D03*
%TO.P,J1,30,Pin_30*%
%TO.N,/KEY_RIGHT*%
X43930000Y-13930000D03*
%TO.P,J1,31,Pin_31*%
%TO.N,/KEY_LEFT*%
X46470000Y-17270000D03*
%TO.P,J1,32,Pin_32*%
%TO.N,unconnected-(J1-Pin_32-Pad32)*%
X46470000Y-13930000D03*
%TO.P,J1,33,Pin_33*%
%TO.N,unconnected-(J1-Pin_33-Pad33)*%
X49010000Y-17270000D03*
%TO.P,J1,34,Pin_34*%
%TO.N,unconnected-(J1-Pin_34-Pad34)*%
X49010000Y-13930000D03*
%TO.P,J1,35,Pin_35*%
%TO.N,unconnected-(J1-Pin_35-Pad35)*%
X51550000Y-17270000D03*
%TO.P,J1,36,Pin_36*%
%TO.N,unconnected-(J1-Pin_36-Pad36)*%
X51550000Y-13930000D03*
%TO.P,J1,37,Pin_37*%
%TO.N,unconnected-(J1-Pin_37-Pad37)*%
X54090000Y-17270000D03*
%TO.P,J1,38,Pin_38*%
%TO.N,unconnected-(J1-Pin_38-Pad38)*%
X54090000Y-13930000D03*
%TO.P,J1,39,Pin_39*%
%TO.N,/GND*%
X56630000Y-17270000D03*
%TO.P,J1,40,Pin_40*%
X56630000Y-13930000D03*
%TD*%
D17*
%TO.P,R5,1*%
%TO.N,/KEY_UD*%
X22340000Y-7350000D03*
%TO.P,R5,2*%
%TO.N,/KEY_UP*%
X22340000Y-10450000D03*
%TD*%
%TO.P,R2,1*%
%TO.N,/KEY_LR*%
X46720000Y-6700000D03*
%TO.P,R2,2*%
%TO.N,/KEY_RIGHT*%
X46720000Y-9800000D03*
%TD*%
D18*
%TO.P,C1,1*%
%TO.N,/3V3*%
X41080000Y-2017500D03*
%TO.P,C1,2*%
%TO.N,/GND*%
X41080000Y-5142500D03*
%TD*%
D17*
%TO.P,R7,1*%
%TO.N,/3V3*%
X43990000Y-3940000D03*
%TO.P,R7,2*%
%TO.N,/KEY_A*%
X43990000Y-7040000D03*
%TD*%
D19*
%TO.P,R4,1*%
%TO.N,/3V3*%
X13230000Y-5930000D03*
%TO.P,R4,2*%
%TO.N,/KEY_UD*%
X16330000Y-5930000D03*
%TD*%
%TO.P,R1,1*%
%TO.N,/3V3*%
X16290000Y-2790000D03*
%TO.P,R1,2*%
%TO.N,/KEY_LR*%
X19390000Y-2790000D03*
%TD*%
D17*
%TO.P,R3,1*%
%TO.N,/KEY_LR*%
X49610000Y-6900000D03*
%TO.P,R3,2*%
%TO.N,/KEY_LEFT*%
X49610000Y-10000000D03*
%TD*%
%TO.P,R6,1*%
%TO.N,/KEY_UD*%
X19140000Y-7620000D03*
%TO.P,R6,2*%
%TO.N,/KEY_DOWN*%
X19140000Y-10720000D03*
%TD*%
D20*
%TO.N,/I2C_SDA*%
X38870000Y-10210000D03*
X17110000Y-11400000D03*
%TD*%
D21*
%TO.N,/GND*%
X54601313Y-19440000D02*
X30420000Y-19440000D01*
X56630000Y-14330000D02*
X56630000Y-16870000D01*
X56630000Y-16870000D02*
X56630000Y-17411313D01*
X56630000Y-17411313D02*
X54601313Y-19440000D01*
D22*
X29810000Y-10070000D02*
X31269606Y-10070000D01*
X28380000Y-10070000D02*
X29810000Y-10070000D01*
X31269606Y-10070000D02*
X35079606Y-6260000D01*
X35079606Y-6260000D02*
X39962500Y-6260000D01*
X39962500Y-6260000D02*
X41080000Y-5142500D01*
X30420000Y-19440000D02*
X29964000Y-18984000D01*
X29964000Y-10224000D02*
X29810000Y-10070000D01*
X29964000Y-18984000D02*
X29964000Y-10224000D01*
%TO.N,/3V3*%
X18106000Y-974000D02*
X16290000Y-2790000D01*
D23*
X16290000Y-2790000D02*
X16290000Y-2870000D01*
D21*
X10910000Y-14330000D02*
X10910000Y-16870000D01*
D23*
X13230000Y-5930000D02*
X10910000Y-8250000D01*
D22*
X40647500Y-2450000D02*
X41080000Y-2017500D01*
D23*
X16290000Y-2870000D02*
X13230000Y-5930000D01*
D22*
X36000000Y-2450000D02*
X34524000Y-974000D01*
X42067500Y-2017500D02*
X43990000Y-3940000D01*
X34524000Y-974000D02*
X18106000Y-974000D01*
X36000000Y-2450000D02*
X40647500Y-2450000D01*
D23*
X10910000Y-8250000D02*
X10910000Y-14330000D01*
D22*
X41080000Y-2017500D02*
X42067500Y-2017500D01*
%TO.N,/KEY_UP*%
X22340000Y-10450000D02*
X22340000Y-15600000D01*
X22340000Y-15600000D02*
X21070000Y-16870000D01*
%TO.N,/KEY_RIGHT*%
X46720000Y-9800000D02*
X43930000Y-12590000D01*
X43930000Y-12590000D02*
X43930000Y-14330000D01*
%TO.N,/KEY_LEFT*%
X49610000Y-10000000D02*
X47736000Y-11874000D01*
X47736000Y-15604000D02*
X46470000Y-16870000D01*
X47736000Y-11874000D02*
X47736000Y-15604000D01*
%TO.N,/KEY_A*%
X40135000Y-10135000D02*
X42315000Y-12315000D01*
X43990000Y-10640000D02*
X42315000Y-12315000D01*
X42656000Y-15604000D02*
X41390000Y-16870000D01*
X36000000Y-7530000D02*
X37978981Y-7530000D01*
X37978981Y-7530000D02*
X40135000Y-9686019D01*
X43990000Y-7040000D02*
X43990000Y-10640000D01*
X42656000Y-12656000D02*
X42656000Y-15604000D01*
X42315000Y-12315000D02*
X42656000Y-12656000D01*
X40135000Y-9686019D02*
X40135000Y-10135000D01*
D23*
%TO.N,/KEY_DOWN*%
X18530000Y-11330000D02*
X18530000Y-14330000D01*
X19140000Y-10720000D02*
X18530000Y-11330000D01*
D22*
%TO.N,/I2C_SDA*%
X17256000Y-11546000D02*
X17256000Y-15604000D01*
X17110000Y-11400000D02*
X17256000Y-11546000D01*
D23*
X38730000Y-10070000D02*
X38870000Y-10210000D01*
X36000000Y-10070000D02*
X38730000Y-10070000D01*
D22*
X17256000Y-15604000D02*
X15990000Y-16870000D01*
D21*
X13450000Y-16870000D02*
X15990000Y-16870000D01*
D22*
%TO.N,/I2C_SCL*%
X19079496Y-8736000D02*
X24983606Y-8736000D01*
X34470000Y-4990000D02*
X36000000Y-4990000D01*
X15845000Y-10876019D02*
X16586019Y-10135000D01*
X15990000Y-12068981D02*
X15845000Y-11923981D01*
X15990000Y-14330000D02*
X15990000Y-12068981D01*
X27463606Y-6256000D02*
X33204000Y-6256000D01*
X17680496Y-10135000D02*
X19079496Y-8736000D01*
D21*
X13450000Y-14330000D02*
X15990000Y-14330000D01*
D22*
X24983606Y-8736000D02*
X27463606Y-6256000D01*
X16586019Y-10135000D02*
X17680496Y-10135000D01*
X15845000Y-11923981D02*
X15845000Y-10876019D01*
X33204000Y-6256000D02*
X34470000Y-4990000D01*
%TO.N,/AUDIO*%
X28380000Y-7530000D02*
X26714000Y-9196000D01*
X26714000Y-12003606D02*
X28690000Y-13979606D01*
X26714000Y-9196000D02*
X26714000Y-12003606D01*
X28690000Y-14330000D02*
X28690000Y-16870000D01*
X28690000Y-13979606D02*
X28690000Y-14330000D01*
D23*
%TO.N,/KEY_LR*%
X28380000Y-2450000D02*
X19730000Y-2450000D01*
D22*
X42649000Y-4559000D02*
X42649000Y-4643504D01*
X42649000Y-4643504D02*
X43929496Y-5924000D01*
X49410000Y-6700000D02*
X49610000Y-6900000D01*
X29654000Y-3724000D02*
X41814000Y-3724000D01*
D23*
X19730000Y-2450000D02*
X19390000Y-2790000D01*
D22*
X43929496Y-5924000D02*
X45944000Y-5924000D01*
X46720000Y-6700000D02*
X49410000Y-6700000D01*
X28380000Y-2450000D02*
X29654000Y-3724000D01*
X45944000Y-5924000D02*
X46720000Y-6700000D01*
X41814000Y-3724000D02*
X42649000Y-4559000D01*
D23*
%TO.N,/KEY_UD*%
X16330000Y-5930000D02*
X17450000Y-5930000D01*
X22070000Y-7620000D02*
X22340000Y-7350000D01*
X24700000Y-4990000D02*
X22340000Y-7350000D01*
X19140000Y-7620000D02*
X22070000Y-7620000D01*
X17450000Y-5930000D02*
X19140000Y-7620000D01*
X28380000Y-4990000D02*
X24700000Y-4990000D01*
%TD*%
%TA.AperFunction,Conductor*%
%TO.N,/GND*%
G36*
X17506017Y-420185D02*
G01*
X17551772Y-472989D01*
X17561716Y-542147D01*
X17532691Y-605703D01*
X17526659Y-612181D01*
X16760658Y-1378181D01*
X16699335Y-1411666D01*
X16672977Y-1414500D01*
X15839998Y-1414500D01*
X15839980Y-1414501D01*
X15737203Y-1425000D01*
X15737200Y-1425001D01*
X15570668Y-1480185D01*
X15570663Y-1480187D01*
X15421342Y-1572289D01*
X15297289Y-1696342D01*
X15205187Y-1845663D01*
X15205186Y-1845666D01*
X15150001Y-2012203D01*
X15150001Y-2012204D01*
X15150000Y-2012204D01*
X15139500Y-2114983D01*
X15139500Y-2978480D01*
X15119815Y-3045519D01*
X15103181Y-3066161D01*
X13651160Y-4518181D01*
X13589837Y-4551666D01*
X13563479Y-4554500D01*
X12779998Y-4554500D01*
X12779980Y-4554501D01*
X12677203Y-4565000D01*
X12677200Y-4565001D01*
X12510668Y-4620185D01*
X12510663Y-4620187D01*
X12361342Y-4712289D01*
X12237289Y-4836342D01*
X12145187Y-4985663D01*
X12145185Y-4985668D01*
X12130957Y-5028605D01*
X12090001Y-5152203D01*
X12090001Y-5152204D01*
X12090000Y-5152204D01*
X12079500Y-5254983D01*
X12079500Y-6038480D01*
X12059815Y-6105519D01*
X12043181Y-6126161D01*
X10365888Y-7803453D01*
X10365887Y-7803454D01*
X10289222Y-7918192D01*
X10236421Y-8045667D01*
X10236418Y-8045679D01*
X10209712Y-8179941D01*
X10209702Y-8179995D01*
X10209500Y-8181008D01*
X10209500Y-12322795D01*
X10189815Y-12389834D01*
X10173182Y-12410476D01*
X10070585Y-12513073D01*
X9968768Y-12653211D01*
X9890128Y-12807552D01*
X9836597Y-12972302D01*
X9809500Y-13143389D01*
X9809500Y-14716610D01*
X9835934Y-14883512D01*
X9836598Y-14887701D01*
X9890127Y-15052445D01*
X9968768Y-15206788D01*
X10070586Y-15346928D01*
X10070588Y-15346930D01*
X10073181Y-15349523D01*
X10106666Y-15410846D01*
X10109500Y-15437204D01*
X10109500Y-15762796D01*
X10089815Y-15829835D01*
X10073181Y-15850477D01*
X10070588Y-15853069D01*
X10070588Y-15853070D01*
X10070586Y-15853072D01*
X10026859Y-15913256D01*
X9968768Y-15993211D01*
X9890128Y-16147552D01*
X9836597Y-16312302D01*
X9827459Y-16370000D01*
X9809500Y-16483389D01*
X9809500Y-18056611D01*
X9836598Y-18227701D01*
X9890127Y-18392445D01*
X9968768Y-18546788D01*
X10070586Y-18686928D01*
X10193072Y-18809414D01*
X10333212Y-18911232D01*
X10487555Y-18989873D01*
X10652299Y-19043402D01*
X10823389Y-19070500D01*
X10823390Y-19070500D01*
X10996610Y-19070500D01*
X10996611Y-19070500D01*
X11167701Y-19043402D01*
X11332445Y-18989873D01*
X11486788Y-18911232D01*
X11626928Y-18809414D01*
X11749414Y-18686928D01*
X11851232Y-18546788D01*
X11929873Y-18392445D01*
X11983402Y-18227701D01*
X12010500Y-18056611D01*
X12010500Y-16483389D01*
X11983402Y-16312299D01*
X11929873Y-16147555D01*
X11851232Y-15993212D01*
X11749414Y-15853072D01*
X11746819Y-15850477D01*
X11713334Y-15789154D01*
X11710500Y-15762796D01*
X11710500Y-15437204D01*
X11730185Y-15370165D01*
X11746819Y-15349523D01*
X11749414Y-15346928D01*
X11851232Y-15206788D01*
X11929873Y-15052445D01*
X11983402Y-14887701D01*
X12010500Y-14716611D01*
X12010500Y-13143389D01*
X11983402Y-12972299D01*
X11929873Y-12807555D01*
X11851232Y-12653212D01*
X11749414Y-12513072D01*
X11646818Y-12410476D01*
X11613334Y-12349153D01*
X11610500Y-12322795D01*
X11610500Y-8591517D01*
X11630185Y-8524478D01*
X11646814Y-8503840D01*
X12808837Y-7341817D01*
X12870160Y-7308333D01*
X12896518Y-7305499D01*
X13680002Y-7305499D01*
X13680008Y-7305499D01*
X13782797Y-7294999D01*
X13949334Y-7239814D01*
X14098656Y-7147712D01*
X14222712Y-7023656D01*
X14314814Y-6874334D01*
X14369999Y-6707797D01*
X14380500Y-6605009D01*
X14380499Y-5821517D01*
X14400183Y-5754479D01*
X14416813Y-5733842D01*
X14967821Y-5182834D01*
X15029142Y-5149351D01*
X15098834Y-5154335D01*
X15154767Y-5196207D01*
X15179184Y-5261671D01*
X15179500Y-5270517D01*
X15179500Y-6605001D01*
X15179501Y-6605018D01*
X15190000Y-6707796D01*
X15190001Y-6707799D01*
X15245185Y-6874331D01*
X15245187Y-6874336D01*
X15273044Y-6919500D01*
X15337288Y-7023656D01*
X15461344Y-7147712D01*
X15610666Y-7239814D01*
X15777203Y-7294999D01*
X15879991Y-7305500D01*
X16780008Y-7305499D01*
X16780016Y-7305498D01*
X16780019Y-7305498D01*
X16836302Y-7299748D01*
X16882797Y-7294999D01*
X17049334Y-7239814D01*
X17198656Y-7147712D01*
X17322712Y-7023656D01*
X17328237Y-7014698D01*
X17380180Y-6967975D01*
X17449142Y-6956750D01*
X17513225Y-6984591D01*
X17521456Y-6992113D01*
X17728181Y-7198838D01*
X17761666Y-7260161D01*
X17764500Y-7286519D01*
X17764500Y-8070001D01*
X17764501Y-8070019D01*
X17775000Y-8172796D01*
X17775001Y-8172799D01*
X17830185Y-8339331D01*
X17830187Y-8339336D01*
X17848739Y-8369414D01*
X17922288Y-8488656D01*
X18046344Y-8612712D01*
X18046346Y-8612713D01*
X18052008Y-8617190D01*
X18051175Y-8618243D01*
X18092744Y-8664459D01*
X18103967Y-8733421D01*
X18076124Y-8797503D01*
X18068604Y-8805731D01*
X17441155Y-9433181D01*
X17379832Y-9466666D01*
X17353474Y-9469500D01*
X16520471Y-9469500D01*
X16504506Y-9472675D01*
X16504498Y-9472677D01*
X16499140Y-9473743D01*
X16391900Y-9495075D01*
X16311471Y-9528390D01*
X16305284Y-9530952D01*
X16305276Y-9530955D01*
X16270782Y-9545243D01*
X16270780Y-9545244D01*
X16218767Y-9580000D01*
X16218766Y-9580001D01*
X16180034Y-9605881D01*
X16180033Y-9605880D01*
X16161790Y-9618070D01*
X16161784Y-9618075D01*
X15328076Y-10451781D01*
X15328075Y-10451782D01*
X15255241Y-10560788D01*
X15205075Y-10681899D01*
X15205075Y-10681900D01*
X15190711Y-10754114D01*
X15186974Y-10772900D01*
X15184184Y-10786928D01*
X15179500Y-10810473D01*
X15179500Y-11858434D01*
X15179500Y-11989528D01*
X15179500Y-11989530D01*
X15179499Y-11989530D01*
X15205073Y-12118094D01*
X15205075Y-12118100D01*
X15255241Y-12239211D01*
X15266480Y-12256033D01*
X15287355Y-12322711D01*
X15268868Y-12390090D01*
X15251057Y-12412601D01*
X15150585Y-12513073D01*
X15048768Y-12653211D01*
X14970128Y-12807552D01*
X14916597Y-12972302D01*
X14889500Y-13143389D01*
X14889500Y-13405500D01*
X14886949Y-13414185D01*
X14888238Y-13423147D01*
X14877259Y-13447187D01*
X14869815Y-13472539D01*
X14862974Y-13478466D01*
X14859213Y-13486703D01*
X14836978Y-13500992D01*
X14817011Y-13518294D01*
X14806496Y-13520581D01*
X14800435Y-13524477D01*
X14765500Y-13529500D01*
X14674500Y-13529500D01*
X14607461Y-13509815D01*
X14561706Y-13457011D01*
X14550500Y-13405500D01*
X14550500Y-13143389D01*
X14523402Y-12972302D01*
X14523402Y-12972299D01*
X14469873Y-12807555D01*
X14391232Y-12653212D01*
X14289414Y-12513072D01*
X14166928Y-12390586D01*
X14026788Y-12288768D01*
X13876109Y-12211994D01*
X13872447Y-12210128D01*
X13872446Y-12210127D01*
X13872445Y-12210127D01*
X13707701Y-12156598D01*
X13707699Y-12156597D01*
X13707698Y-12156597D01*
X13576271Y-12135781D01*
X13536611Y-12129500D01*
X13363389Y-12129500D01*
X13323728Y-12135781D01*
X13192302Y-12156597D01*
X13027552Y-12210128D01*
X12873211Y-12288768D01*
X12801640Y-12340768D01*
X12733072Y-12390586D01*
X12733070Y-12390588D01*
X12733069Y-12390588D01*
X12610588Y-12513069D01*
X12610588Y-12513070D01*
X12610586Y-12513072D01*
X12585512Y-12547583D01*
X12508768Y-12653211D01*
X12430128Y-12807552D01*
X12376597Y-12972302D01*
X12349500Y-13143389D01*
X12349500Y-14716610D01*
X12375934Y-14883512D01*
X12376598Y-14887701D01*
X12430127Y-15052445D01*
X12508768Y-15206788D01*
X12610586Y-15346928D01*
X12610588Y-15346930D01*
X12733072Y-15469414D01*
X12774733Y-15499683D01*
X12817398Y-15555013D01*
X12823376Y-15624627D01*
X12790769Y-15686421D01*
X12774733Y-15700317D01*
X12733072Y-15730585D01*
X12610588Y-15853069D01*
X12610588Y-15853070D01*
X12610586Y-15853072D01*
X12566859Y-15913256D01*
X12508768Y-15993211D01*
X12430128Y-16147552D01*
X12376597Y-16312302D01*
X12367459Y-16370000D01*
X12349500Y-16483389D01*
X12349500Y-18056611D01*
X12376598Y-18227701D01*
X12430127Y-18392445D01*
X12508768Y-18546788D01*
X12610586Y-18686928D01*
X12733072Y-18809414D01*
X12873212Y-18911232D01*
X13027555Y-18989873D01*
X13192299Y-19043402D01*
X13363389Y-19070500D01*
X13363390Y-19070500D01*
X13536610Y-19070500D01*
X13536611Y-19070500D01*
X13707701Y-19043402D01*
X13872445Y-18989873D01*
X14026788Y-18911232D01*
X14166928Y-18809414D01*
X14289414Y-18686928D01*
X14391232Y-18546788D01*
X14469873Y-18392445D01*
X14523402Y-18227701D01*
X14550500Y-18056611D01*
X14550500Y-17794500D01*
X14553050Y-17785814D01*
X14551762Y-17776853D01*
X14562740Y-17752812D01*
X14570185Y-17727461D01*
X14577025Y-17721533D01*
X14580787Y-17713297D01*
X14603021Y-17699007D01*
X14622989Y-17681706D01*
X14633503Y-17679418D01*
X14639565Y-17675523D01*
X14674500Y-17670500D01*
X14765500Y-17670500D01*
X14832539Y-17690185D01*
X14878294Y-17742989D01*
X14889500Y-17794500D01*
X14889500Y-18056611D01*
X14916598Y-18227701D01*
X14970127Y-18392445D01*
X15048768Y-18546788D01*
X15150586Y-18686928D01*
X15273072Y-18809414D01*
X15413212Y-18911232D01*
X15567555Y-18989873D01*
X15732299Y-19043402D01*
X15903389Y-19070500D01*
X15903390Y-19070500D01*
X16076610Y-19070500D01*
X16076611Y-19070500D01*
X16247701Y-19043402D01*
X16412445Y-18989873D01*
X16566788Y-18911232D01*
X16706928Y-18809414D01*
X16829414Y-18686928D01*
X16931232Y-18546788D01*
X17009873Y-18392445D01*
X17063402Y-18227701D01*
X17090500Y-18056611D01*
X17090500Y-16762020D01*
X17099144Y-16732579D01*
X17105668Y-16702593D01*
X17109422Y-16697577D01*
X17110185Y-16694981D01*
X17126815Y-16674343D01*
X17217820Y-16583338D01*
X17279142Y-16549854D01*
X17348834Y-16554838D01*
X17404767Y-16596710D01*
X17429184Y-16662174D01*
X17429500Y-16671020D01*
X17429500Y-18056611D01*
X17456598Y-18227701D01*
X17510127Y-18392445D01*
X17588768Y-18546788D01*
X17690586Y-18686928D01*
X17813072Y-18809414D01*
X17953212Y-18911232D01*
X18107555Y-18989873D01*
X18272299Y-19043402D01*
X18443389Y-19070500D01*
X18443390Y-19070500D01*
X18616610Y-19070500D01*
X18616611Y-19070500D01*
X18787701Y-19043402D01*
X18952445Y-18989873D01*
X19106788Y-18911232D01*
X19246928Y-18809414D01*
X19369414Y-18686928D01*
X19471232Y-18546788D01*
X19549873Y-18392445D01*
X19603402Y-18227701D01*
X19630500Y-18056611D01*
X19630500Y-16483389D01*
X19603402Y-16312299D01*
X19549873Y-16147555D01*
X19471232Y-15993212D01*
X19369414Y-15853072D01*
X19246928Y-15730586D01*
X19205265Y-15700316D01*
X19162602Y-15644988D01*
X19156623Y-15575374D01*
X19189229Y-15513579D01*
X19205266Y-15499683D01*
X19246928Y-15469414D01*
X19369414Y-15346928D01*
X19471232Y-15206788D01*
X19549873Y-15052445D01*
X19603402Y-14887701D01*
X19630500Y-14716611D01*
X19630500Y-13143389D01*
X19603402Y-12972299D01*
X19549873Y-12807555D01*
X19471232Y-12653212D01*
X19369414Y-12513072D01*
X19266818Y-12410476D01*
X19233334Y-12349153D01*
X19230500Y-12322795D01*
X19230500Y-11994499D01*
X19250185Y-11927460D01*
X19302989Y-11881705D01*
X19354500Y-11870499D01*
X19815002Y-11870499D01*
X19815008Y-11870499D01*
X19917797Y-11859999D01*
X20084334Y-11804814D01*
X20233656Y-11712712D01*
X20357712Y-11588656D01*
X20449814Y-11439334D01*
X20504999Y-11272797D01*
X20515500Y-11170009D01*
X20515499Y-10269992D01*
X20513458Y-10250016D01*
X20504999Y-10167203D01*
X20504998Y-10167200D01*
X20472789Y-10070000D01*
X20449814Y-10000666D01*
X20357712Y-9851344D01*
X20233656Y-9727288D01*
X20084334Y-9635186D01*
X20084332Y-9635185D01*
X20078187Y-9631395D01*
X20079790Y-9628796D01*
X20037662Y-9591686D01*
X20018525Y-9524489D01*
X20038756Y-9457612D01*
X20091931Y-9412289D01*
X20142521Y-9401500D01*
X21011042Y-9401500D01*
X21078081Y-9421185D01*
X21123836Y-9473989D01*
X21133780Y-9543147D01*
X21116581Y-9590596D01*
X21030189Y-9730659D01*
X21030185Y-9730668D01*
X21004018Y-9809635D01*
X20975001Y-9897203D01*
X20975001Y-9897204D01*
X20975000Y-9897204D01*
X20964500Y-9999983D01*
X20964500Y-10900001D01*
X20964501Y-10900019D01*
X20975000Y-11002796D01*
X20975001Y-11002799D01*
X21030185Y-11169331D01*
X21030187Y-11169336D01*
X21065069Y-11225888D01*
X21122288Y-11318656D01*
X21246344Y-11442712D01*
X21395666Y-11534814D01*
X21562203Y-11589999D01*
X21563089Y-11590089D01*
X21563600Y-11590297D01*
X21568827Y-11591417D01*
X21568627Y-11592348D01*
X21627783Y-11616477D01*
X21667941Y-11673653D01*
X21674500Y-11713448D01*
X21674500Y-12100538D01*
X21654815Y-12167577D01*
X21602011Y-12213332D01*
X21532853Y-12223276D01*
X21496990Y-12211907D01*
X21496954Y-12211994D01*
X21495940Y-12211574D01*
X21494214Y-12211027D01*
X21492454Y-12210130D01*
X21492452Y-12210129D01*
X21372542Y-12171168D01*
X21327701Y-12156598D01*
X21327699Y-12156597D01*
X21327698Y-12156597D01*
X21196271Y-12135781D01*
X21156611Y-12129500D01*
X20983389Y-12129500D01*
X20943728Y-12135781D01*
X20812302Y-12156597D01*
X20647552Y-12210128D01*
X20493211Y-12288768D01*
X20421640Y-12340768D01*
X20353072Y-12390586D01*
X20353070Y-12390588D01*
X20353069Y-12390588D01*
X20230588Y-12513069D01*
X20230588Y-12513070D01*
X20230586Y-12513072D01*
X20205512Y-12547583D01*
X20128768Y-12653211D01*
X20050128Y-12807552D01*
X19996597Y-12972302D01*
X19969500Y-13143389D01*
X19969500Y-14716610D01*
X19995934Y-14883512D01*
X19996598Y-14887701D01*
X20050127Y-15052445D01*
X20128768Y-15206788D01*
X20230586Y-15346928D01*
X20230588Y-15346930D01*
X20353072Y-15469414D01*
X20394733Y-15499683D01*
X20437398Y-15555013D01*
X20443376Y-15624627D01*
X20410769Y-15686421D01*
X20394733Y-15700317D01*
X20353072Y-15730585D01*
X20230588Y-15853069D01*
X20230588Y-15853070D01*
X20230586Y-15853072D01*
X20186859Y-15913256D01*
X20128768Y-15993211D01*
X20050128Y-16147552D01*
X19996597Y-16312302D01*
X19987459Y-16370000D01*
X19969500Y-16483389D01*
X19969500Y-18056611D01*
X19996598Y-18227701D01*
X20050127Y-18392445D01*
X20128768Y-18546788D01*
X20230586Y-18686928D01*
X20353072Y-18809414D01*
X20493212Y-18911232D01*
X20647555Y-18989873D01*
X20812299Y-19043402D01*
X20983389Y-19070500D01*
X20983390Y-19070500D01*
X21156610Y-19070500D01*
X21156611Y-19070500D01*
X21327701Y-19043402D01*
X21492445Y-18989873D01*
X21646788Y-18911232D01*
X21786928Y-18809414D01*
X21909414Y-18686928D01*
X22011232Y-18546788D01*
X22089873Y-18392445D01*
X22143402Y-18227701D01*
X22170500Y-18056611D01*
X22170500Y-16762020D01*
X22179144Y-16732579D01*
X22185668Y-16702593D01*
X22189422Y-16697577D01*
X22190185Y-16694981D01*
X22206815Y-16674343D01*
X22297820Y-16583338D01*
X22359142Y-16549854D01*
X22428834Y-16554838D01*
X22484767Y-16596710D01*
X22509184Y-16662174D01*
X22509500Y-16671020D01*
X22509500Y-18056611D01*
X22536598Y-18227701D01*
X22590127Y-18392445D01*
X22668768Y-18546788D01*
X22770586Y-18686928D01*
X22893072Y-18809414D01*
X23033212Y-18911232D01*
X23187555Y-18989873D01*
X23352299Y-19043402D01*
X23523389Y-19070500D01*
X23523390Y-19070500D01*
X23696610Y-19070500D01*
X23696611Y-19070500D01*
X23867701Y-19043402D01*
X24032445Y-18989873D01*
X24186788Y-18911232D01*
X24326928Y-18809414D01*
X24449414Y-18686928D01*
X24551232Y-18546788D01*
X24629873Y-18392445D01*
X24683402Y-18227701D01*
X24710500Y-18056611D01*
X24710500Y-16483389D01*
X24683402Y-16312299D01*
X24629873Y-16147555D01*
X24551232Y-15993212D01*
X24449414Y-15853072D01*
X24326928Y-15730586D01*
X24285265Y-15700316D01*
X24242602Y-15644988D01*
X24236623Y-15575374D01*
X24269229Y-15513579D01*
X24285266Y-15499683D01*
X24326928Y-15469414D01*
X24449414Y-15346928D01*
X24551232Y-15206788D01*
X24629873Y-15052445D01*
X24683402Y-14887701D01*
X24710500Y-14716611D01*
X24710500Y-13143389D01*
X24683402Y-12972299D01*
X24629873Y-12807555D01*
X24551232Y-12653212D01*
X24449414Y-12513072D01*
X24326928Y-12390586D01*
X24186788Y-12288768D01*
X24036109Y-12211994D01*
X24032447Y-12210128D01*
X24032446Y-12210127D01*
X24032445Y-12210127D01*
X23867701Y-12156598D01*
X23867699Y-12156597D01*
X23867698Y-12156597D01*
X23736271Y-12135781D01*
X23696611Y-12129500D01*
X23523389Y-12129500D01*
X23483728Y-12135781D01*
X23352302Y-12156597D01*
X23187547Y-12210129D01*
X23187545Y-12210130D01*
X23185786Y-12211027D01*
X23185045Y-12211166D01*
X23183046Y-12211994D01*
X23182872Y-12211574D01*
X23117116Y-12223918D01*
X23052377Y-12197636D01*
X23012125Y-12140527D01*
X23005500Y-12100538D01*
X23005500Y-11713448D01*
X23025185Y-11646409D01*
X23077989Y-11600654D01*
X23111227Y-11591631D01*
X23111181Y-11591415D01*
X23115171Y-11590560D01*
X23116906Y-11590089D01*
X23117797Y-11589999D01*
X23284334Y-11534814D01*
X23433656Y-11442712D01*
X23557712Y-11318656D01*
X23649814Y-11169334D01*
X23704999Y-11002797D01*
X23715500Y-10900009D01*
X23715499Y-9999992D01*
X23704999Y-9897203D01*
X23649814Y-9730666D01*
X23647731Y-9727289D01*
X23563419Y-9590596D01*
X23544979Y-9523204D01*
X23565902Y-9456540D01*
X23619544Y-9411771D01*
X23668958Y-9401500D01*
X25049155Y-9401500D01*
X25135650Y-9384294D01*
X25177725Y-9375925D01*
X25298838Y-9325758D01*
X25407838Y-9252928D01*
X25928431Y-8732333D01*
X25989754Y-8698849D01*
X26059445Y-8703833D01*
X26115379Y-8745704D01*
X26139796Y-8811169D01*
X26133673Y-8859453D01*
X26128821Y-8873913D01*
X26124242Y-8880768D01*
X26074075Y-9001881D01*
X26058404Y-9080666D01*
X26056862Y-9088413D01*
X26056862Y-9088416D01*
X26048500Y-9130453D01*
X26048500Y-12025952D01*
X26028815Y-12092991D01*
X25976011Y-12138746D01*
X25943899Y-12148425D01*
X25892301Y-12156597D01*
X25727552Y-12210128D01*
X25573211Y-12288768D01*
X25501640Y-12340768D01*
X25433072Y-12390586D01*
X25433070Y-12390588D01*
X25433069Y-12390588D01*
X25310588Y-12513069D01*
X25310588Y-12513070D01*
X25310586Y-12513072D01*
X25285512Y-12547583D01*
X25208768Y-12653211D01*
X25130128Y-12807552D01*
X25076597Y-12972302D01*
X25049500Y-13143389D01*
X25049500Y-14716610D01*
X25075934Y-14883512D01*
X25076598Y-14887701D01*
X25130127Y-15052445D01*
X25208768Y-15206788D01*
X25310586Y-15346928D01*
X25310588Y-15346930D01*
X25433072Y-15469414D01*
X25474733Y-15499683D01*
X25517398Y-15555013D01*
X25523376Y-15624627D01*
X25490769Y-15686421D01*
X25474733Y-15700317D01*
X25433072Y-15730585D01*
X25310588Y-15853069D01*
X25310588Y-15853070D01*
X25310586Y-15853072D01*
X25266859Y-15913256D01*
X25208768Y-15993211D01*
X25130128Y-16147552D01*
X25076597Y-16312302D01*
X25067459Y-16370000D01*
X25049500Y-16483389D01*
X25049500Y-18056611D01*
X25076598Y-18227701D01*
X25130127Y-18392445D01*
X25208768Y-18546788D01*
X25310586Y-18686928D01*
X25433072Y-18809414D01*
X25573212Y-18911232D01*
X25727555Y-18989873D01*
X25892299Y-19043402D01*
X26063389Y-19070500D01*
X26063390Y-19070500D01*
X26236610Y-19070500D01*
X26236611Y-19070500D01*
X26407701Y-19043402D01*
X26572445Y-18989873D01*
X26726788Y-18911232D01*
X26866928Y-18809414D01*
X26989414Y-18686928D01*
X27091232Y-18546788D01*
X27169873Y-18392445D01*
X27223402Y-18227701D01*
X27250500Y-18056611D01*
X27250500Y-16483389D01*
X27223402Y-16312299D01*
X27169873Y-16147555D01*
X27091232Y-15993212D01*
X26989414Y-15853072D01*
X26866928Y-15730586D01*
X26825265Y-15700316D01*
X26782602Y-15644988D01*
X26776623Y-15575374D01*
X26809229Y-15513579D01*
X26825266Y-15499683D01*
X26866928Y-15469414D01*
X26989414Y-15346928D01*
X27091232Y-15206788D01*
X27169873Y-15052445D01*
X27223402Y-14887701D01*
X27250500Y-14716611D01*
X27250500Y-13780628D01*
X27256738Y-13759382D01*
X27258318Y-13737294D01*
X27266390Y-13726510D01*
X27270185Y-13713589D01*
X27286918Y-13699089D01*
X27300190Y-13681361D01*
X27312810Y-13676653D01*
X27322989Y-13667834D01*
X27344906Y-13664682D01*
X27365654Y-13656944D01*
X27378814Y-13659806D01*
X27392147Y-13657890D01*
X27412290Y-13667089D01*
X27433927Y-13671796D01*
X27451652Y-13685064D01*
X27455703Y-13686915D01*
X27462181Y-13692947D01*
X27553181Y-13783947D01*
X27586666Y-13845270D01*
X27589500Y-13871628D01*
X27589500Y-14716610D01*
X27615934Y-14883512D01*
X27616598Y-14887701D01*
X27670127Y-15052445D01*
X27748768Y-15206788D01*
X27850586Y-15346928D01*
X27973072Y-15469414D01*
X27973374Y-15469633D01*
X27973461Y-15469746D01*
X27976779Y-15472580D01*
X27976184Y-15473276D01*
X27976719Y-15473969D01*
X27981703Y-15476246D01*
X27997831Y-15501342D01*
X28016046Y-15524958D01*
X28017300Y-15531637D01*
X28019477Y-15535024D01*
X28024500Y-15569959D01*
X28024500Y-15630040D01*
X28004815Y-15697079D01*
X27976484Y-15727079D01*
X27976777Y-15727422D01*
X27973592Y-15730142D01*
X27973394Y-15730352D01*
X27973075Y-15730583D01*
X27973069Y-15730588D01*
X27850588Y-15853069D01*
X27850588Y-15853070D01*
X27850586Y-15853072D01*
X27806859Y-15913256D01*
X27748768Y-15993211D01*
X27670128Y-16147552D01*
X27616597Y-16312302D01*
X27607459Y-16370000D01*
X27589500Y-16483389D01*
X27589500Y-18056611D01*
X27616598Y-18227701D01*
X27670127Y-18392445D01*
X27748768Y-18546788D01*
X27850586Y-18686928D01*
X27973072Y-18809414D01*
X28113212Y-18911232D01*
X28267555Y-18989873D01*
X28432299Y-19043402D01*
X28603389Y-19070500D01*
X28603390Y-19070500D01*
X28776610Y-19070500D01*
X28776611Y-19070500D01*
X28947701Y-19043402D01*
X29112445Y-18989873D01*
X29266788Y-18911232D01*
X29406928Y-18809414D01*
X29529414Y-18686928D01*
X29631232Y-18546788D01*
X29709873Y-18392445D01*
X29763402Y-18227701D01*
X29790500Y-18056611D01*
X29790500Y-16483389D01*
X29763402Y-16312299D01*
X29709873Y-16147555D01*
X29631232Y-15993212D01*
X29529414Y-15853072D01*
X29406928Y-15730586D01*
X29406606Y-15730352D01*
X29406514Y-15730233D01*
X29403223Y-15727422D01*
X29403813Y-15726730D01*
X29403268Y-15726023D01*
X29398297Y-15723753D01*
X29382163Y-15698648D01*
X29363945Y-15675018D01*
X29362693Y-15668352D01*
X29360523Y-15664975D01*
X29355500Y-15630040D01*
X29355500Y-15569959D01*
X29375185Y-15502920D01*
X29403516Y-15472925D01*
X29403221Y-15472580D01*
X29406436Y-15469833D01*
X29406624Y-15469634D01*
X29406928Y-15469414D01*
X29529414Y-15346928D01*
X29631232Y-15206788D01*
X29709873Y-15052445D01*
X29763402Y-14887701D01*
X29790500Y-14716611D01*
X29790500Y-13143389D01*
X30129500Y-13143389D01*
X30129500Y-14716610D01*
X30155934Y-14883512D01*
X30156598Y-14887701D01*
X30210127Y-15052445D01*
X30288768Y-15206788D01*
X30390586Y-15346928D01*
X30390588Y-15346930D01*
X30513072Y-15469414D01*
X30554733Y-15499683D01*
X30597398Y-15555013D01*
X30603376Y-15624627D01*
X30570769Y-15686421D01*
X30554733Y-15700317D01*
X30513072Y-15730585D01*
X30390588Y-15853069D01*
X30390588Y-15853070D01*
X30390586Y-15853072D01*
X30346859Y-15913256D01*
X30288768Y-15993211D01*
X30210128Y-16147552D01*
X30156597Y-16312302D01*
X30147459Y-16370000D01*
X30129500Y-16483389D01*
X30129500Y-18056611D01*
X30156598Y-18227701D01*
X30210127Y-18392445D01*
X30288768Y-18546788D01*
X30390586Y-18686928D01*
X30513072Y-18809414D01*
X30653212Y-18911232D01*
X30807555Y-18989873D01*
X30972299Y-19043402D01*
X31143389Y-19070500D01*
X31143390Y-19070500D01*
X31316610Y-19070500D01*
X31316611Y-19070500D01*
X31487701Y-19043402D01*
X31652445Y-18989873D01*
X31806788Y-18911232D01*
X31946928Y-18809414D01*
X32069414Y-18686928D01*
X32171232Y-18546788D01*
X32249873Y-18392445D01*
X32303402Y-18227701D01*
X32330500Y-18056611D01*
X32330500Y-16483389D01*
X32303402Y-16312299D01*
X32249873Y-16147555D01*
X32171232Y-15993212D01*
X32069414Y-15853072D01*
X31946928Y-15730586D01*
X31905265Y-15700316D01*
X31862602Y-15644988D01*
X31856623Y-15575374D01*
X31889229Y-15513579D01*
X31905266Y-15499683D01*
X31946928Y-15469414D01*
X32069414Y-15346928D01*
X32171232Y-15206788D01*
X32249873Y-15052445D01*
X32303402Y-14887701D01*
X32330500Y-14716611D01*
X32330500Y-13143389D01*
X32669500Y-13143389D01*
X32669500Y-14716610D01*
X32695934Y-14883512D01*
X32696598Y-14887701D01*
X32750127Y-15052445D01*
X32828768Y-15206788D01*
X32930586Y-15346928D01*
X32930588Y-15346930D01*
X33053072Y-15469414D01*
X33094733Y-15499683D01*
X33137398Y-15555013D01*
X33143376Y-15624627D01*
X33110769Y-15686421D01*
X33094733Y-15700317D01*
X33053072Y-15730585D01*
X32930588Y-15853069D01*
X32930588Y-15853070D01*
X32930586Y-15853072D01*
X32886859Y-15913256D01*
X32828768Y-15993211D01*
X32750128Y-16147552D01*
X32696597Y-16312302D01*
X32687459Y-16370000D01*
X32669500Y-16483389D01*
X32669500Y-18056611D01*
X32696598Y-18227701D01*
X32750127Y-18392445D01*
X32828768Y-18546788D01*
X32930586Y-18686928D01*
X33053072Y-18809414D01*
X33193212Y-18911232D01*
X33347555Y-18989873D01*
X33512299Y-19043402D01*
X33683389Y-19070500D01*
X33683390Y-19070500D01*
X33856610Y-19070500D01*
X33856611Y-19070500D01*
X34027701Y-19043402D01*
X34192445Y-18989873D01*
X34346788Y-18911232D01*
X34486928Y-18809414D01*
X34609414Y-18686928D01*
X34711232Y-18546788D01*
X34789873Y-18392445D01*
X34843402Y-18227701D01*
X34870500Y-18056611D01*
X34870500Y-16483389D01*
X34843402Y-16312299D01*
X34789873Y-16147555D01*
X34711232Y-15993212D01*
X34609414Y-15853072D01*
X34486928Y-15730586D01*
X34445265Y-15700316D01*
X34402602Y-15644988D01*
X34396623Y-15575374D01*
X34429229Y-15513579D01*
X34445266Y-15499683D01*
X34486928Y-15469414D01*
X34609414Y-15346928D01*
X34711232Y-15206788D01*
X34789873Y-15052445D01*
X34843402Y-14887701D01*
X34870500Y-14716611D01*
X34870500Y-13143389D01*
X35209500Y-13143389D01*
X35209500Y-14716610D01*
X35235934Y-14883512D01*
X35236598Y-14887701D01*
X35290127Y-15052445D01*
X35368768Y-15206788D01*
X35470586Y-15346928D01*
X35470588Y-15346930D01*
X35593072Y-15469414D01*
X35634733Y-15499683D01*
X35677398Y-15555013D01*
X35683376Y-15624627D01*
X35650769Y-15686421D01*
X35634733Y-15700317D01*
X35593072Y-15730585D01*
X35470588Y-15853069D01*
X35470588Y-15853070D01*
X35470586Y-15853072D01*
X35426859Y-15913256D01*
X35368768Y-15993211D01*
X35290128Y-16147552D01*
X35236597Y-16312302D01*
X35227459Y-16370000D01*
X35209500Y-16483389D01*
X35209500Y-18056611D01*
X35236598Y-18227701D01*
X35290127Y-18392445D01*
X35368768Y-18546788D01*
X35470586Y-18686928D01*
X35593072Y-18809414D01*
X35733212Y-18911232D01*
X35887555Y-18989873D01*
X36052299Y-19043402D01*
X36223389Y-19070500D01*
X36223390Y-19070500D01*
X36396610Y-19070500D01*
X36396611Y-19070500D01*
X36567701Y-19043402D01*
X36732445Y-18989873D01*
X36886788Y-18911232D01*
X37026928Y-18809414D01*
X37149414Y-18686928D01*
X37251232Y-18546788D01*
X37329873Y-18392445D01*
X37383402Y-18227701D01*
X37410500Y-18056611D01*
X37410500Y-16483389D01*
X37383402Y-16312299D01*
X37329873Y-16147555D01*
X37251232Y-15993212D01*
X37149414Y-15853072D01*
X37026928Y-15730586D01*
X36985265Y-15700316D01*
X36942602Y-15644988D01*
X36936623Y-15575374D01*
X36969229Y-15513579D01*
X36985266Y-15499683D01*
X37026928Y-15469414D01*
X37149414Y-15346928D01*
X37251232Y-15206788D01*
X37329873Y-15052445D01*
X37383402Y-14887701D01*
X37410500Y-14716611D01*
X37410500Y-13143389D01*
X37749500Y-13143389D01*
X37749500Y-14716610D01*
X37775934Y-14883512D01*
X37776598Y-14887701D01*
X37830127Y-15052445D01*
X37908768Y-15206788D01*
X38010586Y-15346928D01*
X38010588Y-15346930D01*
X38133072Y-15469414D01*
X38174733Y-15499683D01*
X38217398Y-15555013D01*
X38223376Y-15624627D01*
X38190769Y-15686421D01*
X38174733Y-15700317D01*
X38133072Y-15730585D01*
X38010588Y-15853069D01*
X38010588Y-15853070D01*
X38010586Y-15853072D01*
X37966859Y-15913256D01*
X37908768Y-15993211D01*
X37830128Y-16147552D01*
X37776597Y-16312302D01*
X37767459Y-16370000D01*
X37749500Y-16483389D01*
X37749500Y-18056611D01*
X37776598Y-18227701D01*
X37830127Y-18392445D01*
X37908768Y-18546788D01*
X38010586Y-18686928D01*
X38133072Y-18809414D01*
X38273212Y-18911232D01*
X38427555Y-18989873D01*
X38592299Y-19043402D01*
X38763389Y-19070500D01*
X38763390Y-19070500D01*
X38936610Y-19070500D01*
X38936611Y-19070500D01*
X39107701Y-19043402D01*
X39272445Y-18989873D01*
X39426788Y-18911232D01*
X39566928Y-18809414D01*
X39689414Y-18686928D01*
X39791232Y-18546788D01*
X39869873Y-18392445D01*
X39923402Y-18227701D01*
X39950500Y-18056611D01*
X39950500Y-16483389D01*
X39923402Y-16312299D01*
X39869873Y-16147555D01*
X39791232Y-15993212D01*
X39689414Y-15853072D01*
X39566928Y-15730586D01*
X39525265Y-15700316D01*
X39482602Y-15644988D01*
X39476623Y-15575374D01*
X39509229Y-15513579D01*
X39525266Y-15499683D01*
X39566928Y-15469414D01*
X39689414Y-15346928D01*
X39791232Y-15206788D01*
X39869873Y-15052445D01*
X39923402Y-14887701D01*
X39950500Y-14716611D01*
X39950500Y-13143389D01*
X39923402Y-12972299D01*
X39869873Y-12807555D01*
X39791232Y-12653212D01*
X39689414Y-12513072D01*
X39566928Y-12390586D01*
X39426788Y-12288768D01*
X39276109Y-12211994D01*
X39272447Y-12210128D01*
X39272446Y-12210127D01*
X39272445Y-12210127D01*
X39107701Y-12156598D01*
X39107699Y-12156597D01*
X39107698Y-12156597D01*
X38976271Y-12135781D01*
X38936611Y-12129500D01*
X38763389Y-12129500D01*
X38723728Y-12135781D01*
X38592302Y-12156597D01*
X38427552Y-12210128D01*
X38273211Y-12288768D01*
X38201640Y-12340768D01*
X38133072Y-12390586D01*
X38133070Y-12390588D01*
X38133069Y-12390588D01*
X38010588Y-12513069D01*
X38010588Y-12513070D01*
X38010586Y-12513072D01*
X37985512Y-12547583D01*
X37908768Y-12653211D01*
X37830128Y-12807552D01*
X37776597Y-12972302D01*
X37749500Y-13143389D01*
X37410500Y-13143389D01*
X37383402Y-12972299D01*
X37329873Y-12807555D01*
X37251232Y-12653212D01*
X37149414Y-12513072D01*
X37026928Y-12390586D01*
X36886788Y-12288768D01*
X36736109Y-12211994D01*
X36732447Y-12210128D01*
X36732446Y-12210127D01*
X36732445Y-12210127D01*
X36567701Y-12156598D01*
X36567699Y-12156597D01*
X36567698Y-12156597D01*
X36436271Y-12135781D01*
X36396611Y-12129500D01*
X36223389Y-12129500D01*
X36183728Y-12135781D01*
X36052302Y-12156597D01*
X35887552Y-12210128D01*
X35733211Y-12288768D01*
X35661640Y-12340768D01*
X35593072Y-12390586D01*
X35593070Y-12390588D01*
X35593069Y-12390588D01*
X35470588Y-12513069D01*
X35470588Y-12513070D01*
X35470586Y-12513072D01*
X35445512Y-12547583D01*
X35368768Y-12653211D01*
X35290128Y-12807552D01*
X35236597Y-12972302D01*
X35209500Y-13143389D01*
X34870500Y-13143389D01*
X34843402Y-12972299D01*
X34789873Y-12807555D01*
X34711232Y-12653212D01*
X34609414Y-12513072D01*
X34486928Y-12390586D01*
X34346788Y-12288768D01*
X34196109Y-12211994D01*
X34192447Y-12210128D01*
X34192446Y-12210127D01*
X34192445Y-12210127D01*
X34027701Y-12156598D01*
X34027699Y-12156597D01*
X34027698Y-12156597D01*
X33896271Y-12135781D01*
X33856611Y-12129500D01*
X33683389Y-12129500D01*
X33643728Y-12135781D01*
X33512302Y-12156597D01*
X33347552Y-12210128D01*
X33193211Y-12288768D01*
X33121640Y-12340768D01*
X33053072Y-12390586D01*
X33053070Y-12390588D01*
X33053069Y-12390588D01*
X32930588Y-12513069D01*
X32930588Y-12513070D01*
X32930586Y-12513072D01*
X32905512Y-12547583D01*
X32828768Y-12653211D01*
X32750128Y-12807552D01*
X32696597Y-12972302D01*
X32669500Y-13143389D01*
X32330500Y-13143389D01*
X32303402Y-12972299D01*
X32249873Y-12807555D01*
X32171232Y-12653212D01*
X32069414Y-12513072D01*
X31946928Y-12390586D01*
X31806788Y-12288768D01*
X31656109Y-12211994D01*
X31652447Y-12210128D01*
X31652446Y-12210127D01*
X31652445Y-12210127D01*
X31487701Y-12156598D01*
X31487699Y-12156597D01*
X31487698Y-12156597D01*
X31356271Y-12135781D01*
X31316611Y-12129500D01*
X31143389Y-12129500D01*
X31103728Y-12135781D01*
X30972302Y-12156597D01*
X30807552Y-12210128D01*
X30653211Y-12288768D01*
X30581640Y-12340768D01*
X30513072Y-12390586D01*
X30513070Y-12390588D01*
X30513069Y-12390588D01*
X30390588Y-12513069D01*
X30390588Y-12513070D01*
X30390586Y-12513072D01*
X30365512Y-12547583D01*
X30288768Y-12653211D01*
X30210128Y-12807552D01*
X30156597Y-12972302D01*
X30129500Y-13143389D01*
X29790500Y-13143389D01*
X29763402Y-12972299D01*
X29709873Y-12807555D01*
X29631232Y-12653212D01*
X29529414Y-12513072D01*
X29406928Y-12390586D01*
X29266788Y-12288768D01*
X29116109Y-12211994D01*
X29112447Y-12210128D01*
X29112446Y-12210127D01*
X29112445Y-12210127D01*
X28947701Y-12156598D01*
X28947699Y-12156597D01*
X28947698Y-12156597D01*
X28816271Y-12135781D01*
X28776611Y-12129500D01*
X28603389Y-12129500D01*
X28563728Y-12135781D01*
X28432302Y-12156597D01*
X28267552Y-12210128D01*
X28113209Y-12288769D01*
X28098749Y-12299275D01*
X28032942Y-12322751D01*
X27964889Y-12306923D01*
X27938188Y-12286634D01*
X27415819Y-11764265D01*
X27382334Y-11702942D01*
X27379500Y-11676584D01*
X27379500Y-11412457D01*
X27399185Y-11345418D01*
X27451989Y-11299663D01*
X27521147Y-11289719D01*
X27541819Y-11294526D01*
X27675582Y-11337990D01*
X27877683Y-11370000D01*
X28130000Y-11370000D01*
X28130000Y-10385686D01*
X28134394Y-10390080D01*
X28225606Y-10442741D01*
X28327339Y-10470000D01*
X28432661Y-10470000D01*
X28534394Y-10442741D01*
X28625606Y-10390080D01*
X28630000Y-10385686D01*
X28630000Y-11370000D01*
X28882317Y-11370000D01*
X29084417Y-11337990D01*
X29279031Y-11274755D01*
X29461349Y-11181859D01*
X29626894Y-11061582D01*
X29626895Y-11061582D01*
X29771582Y-10916895D01*
X29771582Y-10916894D01*
X29891859Y-10751349D01*
X29984755Y-10569029D01*
X30047990Y-10374413D01*
X30056609Y-10320000D01*
X28695686Y-10320000D01*
X28700080Y-10315606D01*
X28752741Y-10224394D01*
X28780000Y-10122661D01*
X28780000Y-10017339D01*
X28752741Y-9915606D01*
X28700080Y-9824394D01*
X28695686Y-9820000D01*
X30056609Y-9820000D01*
X30047990Y-9765586D01*
X29984755Y-9570970D01*
X29891859Y-9388650D01*
X29771582Y-9223105D01*
X29771582Y-9223104D01*
X29626895Y-9078417D01*
X29461349Y-8958140D01*
X29279031Y-8865244D01*
X29118385Y-8813047D01*
X29060710Y-8773609D01*
X29033512Y-8709250D01*
X29045427Y-8640404D01*
X29092671Y-8588928D01*
X29118381Y-8577187D01*
X29202445Y-8549873D01*
X29356788Y-8471232D01*
X29496928Y-8369414D01*
X29619414Y-8246928D01*
X29721232Y-8106788D01*
X29799873Y-7952445D01*
X29853402Y-7787701D01*
X29880500Y-7616611D01*
X29880500Y-7443389D01*
X29853402Y-7272299D01*
X29799873Y-7107555D01*
X29796938Y-7101796D01*
X29784042Y-7033128D01*
X29810317Y-6968387D01*
X29867422Y-6928129D01*
X29907423Y-6921500D01*
X33269549Y-6921500D01*
X33356044Y-6904294D01*
X33398119Y-6895925D01*
X33519232Y-6845758D01*
X33628232Y-6772928D01*
X34639727Y-5761430D01*
X34701050Y-5727946D01*
X34770741Y-5732930D01*
X34815089Y-5761431D01*
X34883072Y-5829414D01*
X35023212Y-5931232D01*
X35177555Y-6009873D01*
X35342299Y-6063402D01*
X35513389Y-6090500D01*
X35513390Y-6090500D01*
X36486610Y-6090500D01*
X36486611Y-6090500D01*
X36657701Y-6063402D01*
X36822445Y-6009873D01*
X36976788Y-5931232D01*
X37116928Y-5829414D01*
X37239414Y-5706928D01*
X37313479Y-5604986D01*
X39680001Y-5604986D01*
X39690494Y-5707697D01*
X39745641Y-5874119D01*
X39745643Y-5874124D01*
X39837684Y-6023345D01*
X39961654Y-6147315D01*
X40110875Y-6239356D01*
X40110880Y-6239358D01*
X40277302Y-6294505D01*
X40277309Y-6294506D01*
X40380019Y-6304999D01*
X40829999Y-6304999D01*
X40830000Y-6304998D01*
X40830000Y-5392500D01*
X39680001Y-5392500D01*
X39680001Y-5604986D01*
X37313479Y-5604986D01*
X37341232Y-5566788D01*
X37419873Y-5412445D01*
X37473402Y-5247701D01*
X37500500Y-5076611D01*
X37500500Y-4903389D01*
X37473402Y-4732299D01*
X37419873Y-4567555D01*
X37419871Y-4567552D01*
X37419870Y-4567547D01*
X37418006Y-4563046D01*
X37419626Y-4562374D01*
X37408116Y-4501148D01*
X37434380Y-4436403D01*
X37491479Y-4396136D01*
X37531499Y-4389500D01*
X39581006Y-4389500D01*
X39648045Y-4409185D01*
X39693800Y-4461989D01*
X39703744Y-4531147D01*
X39698712Y-4552503D01*
X39690495Y-4577298D01*
X39690493Y-4577309D01*
X39680000Y-4680013D01*
X39680000Y-4892500D01*
X40956000Y-4892500D01*
X41023039Y-4912185D01*
X41068794Y-4964989D01*
X41080000Y-5016500D01*
X41080000Y-5142500D01*
X41206000Y-5142500D01*
X41273039Y-5162185D01*
X41318794Y-5214989D01*
X41330000Y-5266500D01*
X41330000Y-6304999D01*
X41779972Y-6304999D01*
X41779986Y-6304998D01*
X41882697Y-6294505D01*
X42049119Y-6239358D01*
X42049124Y-6239356D01*
X42198345Y-6147315D01*
X42322315Y-6023345D01*
X42414356Y-5874124D01*
X42414358Y-5874119D01*
X42469505Y-5707697D01*
X42469506Y-5707689D01*
X42471027Y-5692808D01*
X42497423Y-5628116D01*
X42554603Y-5587965D01*
X42624414Y-5585101D01*
X42682066Y-5617729D01*
X42918604Y-5854267D01*
X42952089Y-5915590D01*
X42947105Y-5985282D01*
X42905233Y-6041215D01*
X42896535Y-6047136D01*
X42896343Y-6047288D01*
X42772289Y-6171342D01*
X42680187Y-6320663D01*
X42680185Y-6320668D01*
X42668050Y-6357289D01*
X42625001Y-6487203D01*
X42625001Y-6487204D01*
X42625000Y-6487204D01*
X42614500Y-6589983D01*
X42614500Y-7490001D01*
X42614501Y-7490019D01*
X42625000Y-7592796D01*
X42625001Y-7592799D01*
X42679993Y-7758752D01*
X42680186Y-7759334D01*
X42772288Y-7908656D01*
X42896344Y-8032712D01*
X43045666Y-8124814D01*
X43212203Y-8179999D01*
X43213089Y-8180089D01*
X43213600Y-8180297D01*
X43218827Y-8181417D01*
X43218627Y-8182348D01*
X43277783Y-8206477D01*
X43317941Y-8263653D01*
X43324500Y-8303448D01*
X43324500Y-10312977D01*
X43304815Y-10380016D01*
X43288181Y-10400658D01*
X42402680Y-11286159D01*
X42341357Y-11319644D01*
X42271665Y-11314660D01*
X42227318Y-11286159D01*
X40836819Y-9895659D01*
X40822495Y-9869428D01*
X40806000Y-9844499D01*
X40804901Y-9837207D01*
X40803334Y-9834336D01*
X40800511Y-9809635D01*
X40800500Y-9808812D01*
X40800500Y-9620473D01*
X40800022Y-9618072D01*
X40792717Y-9581344D01*
X40792717Y-9581342D01*
X40792717Y-9581341D01*
X40774926Y-9491905D01*
X40774925Y-9491904D01*
X40774925Y-9491900D01*
X40732766Y-9390119D01*
X40732158Y-9388650D01*
X40724761Y-9370792D01*
X40724754Y-9370779D01*
X40651927Y-9261787D01*
X40651924Y-9261783D01*
X38403218Y-7013076D01*
X38403217Y-7013075D01*
X38360587Y-6984591D01*
X38294213Y-6940242D01*
X38187225Y-6895926D01*
X38173100Y-6890075D01*
X38173094Y-6890073D01*
X38044530Y-6864500D01*
X38044528Y-6864500D01*
X38044527Y-6864500D01*
X37339960Y-6864500D01*
X37272921Y-6844815D01*
X37242920Y-6816484D01*
X37242578Y-6816777D01*
X37239857Y-6813592D01*
X37239648Y-6813394D01*
X37239416Y-6813075D01*
X37239411Y-6813069D01*
X37116930Y-6690588D01*
X37116928Y-6690586D01*
X36976788Y-6588768D01*
X36871628Y-6535187D01*
X36822447Y-6510128D01*
X36822446Y-6510127D01*
X36822445Y-6510127D01*
X36657701Y-6456598D01*
X36657699Y-6456597D01*
X36657698Y-6456597D01*
X36509852Y-6433181D01*
X36486611Y-6429500D01*
X35513389Y-6429500D01*
X35490148Y-6433181D01*
X35342302Y-6456597D01*
X35177552Y-6510128D01*
X35023211Y-6588768D01*
X34965542Y-6630668D01*
X34883072Y-6690586D01*
X34883070Y-6690588D01*
X34883069Y-6690588D01*
X34760588Y-6813069D01*
X34760588Y-6813070D01*
X34760586Y-6813072D01*
X34736838Y-6845758D01*
X34658768Y-6953211D01*
X34580128Y-7107552D01*
X34526597Y-7272302D01*
X34499500Y-7443389D01*
X34499500Y-7616610D01*
X34526140Y-7784814D01*
X34526598Y-7787701D01*
X34572461Y-7928853D01*
X34580128Y-7952447D01*
X34658768Y-8106788D01*
X34760586Y-8246928D01*
X34883072Y-8369414D01*
X35023212Y-8471232D01*
X35177555Y-8549873D01*
X35342299Y-8603402D01*
X35513389Y-8630500D01*
X35513390Y-8630500D01*
X36486610Y-8630500D01*
X36486611Y-8630500D01*
X36657701Y-8603402D01*
X36822445Y-8549873D01*
X36976788Y-8471232D01*
X37116928Y-8369414D01*
X37239414Y-8246928D01*
X37239648Y-8246606D01*
X37239766Y-8246514D01*
X37242578Y-8243223D01*
X37243269Y-8243813D01*
X37294982Y-8203945D01*
X37339960Y-8195500D01*
X37651959Y-8195500D01*
X37718998Y-8215185D01*
X37739640Y-8231819D01*
X38344048Y-8836227D01*
X38377533Y-8897550D01*
X38372549Y-8967242D01*
X38330677Y-9023175D01*
X38312662Y-9034393D01*
X38188386Y-9097715D01*
X38022786Y-9218028D01*
X38022782Y-9218032D01*
X37907634Y-9333181D01*
X37846311Y-9366666D01*
X37819953Y-9369500D01*
X37307205Y-9369500D01*
X37240166Y-9349815D01*
X37219524Y-9333182D01*
X37186037Y-9299695D01*
X37116928Y-9230586D01*
X36976788Y-9128768D01*
X36822445Y-9050127D01*
X36657701Y-8996598D01*
X36657699Y-8996597D01*
X36657698Y-8996597D01*
X36526271Y-8975781D01*
X36486611Y-8969500D01*
X35513389Y-8969500D01*
X35473728Y-8975781D01*
X35342302Y-8996597D01*
X35177552Y-9050128D01*
X35023211Y-9128768D01*
X34943256Y-9186859D01*
X34883072Y-9230586D01*
X34883070Y-9230588D01*
X34883069Y-9230588D01*
X34760588Y-9353069D01*
X34760588Y-9353070D01*
X34760586Y-9353072D01*
X34733670Y-9390119D01*
X34658768Y-9493211D01*
X34580128Y-9647552D01*
X34526597Y-9812302D01*
X34499500Y-9983389D01*
X34499500Y-10156611D01*
X34526598Y-10327701D01*
X34566916Y-10451787D01*
X34580128Y-10492447D01*
X34610877Y-10552795D01*
X34658768Y-10646788D01*
X34760586Y-10786928D01*
X34883072Y-10909414D01*
X35023212Y-11011232D01*
X35177555Y-11089873D01*
X35342299Y-11143402D01*
X35513389Y-11170500D01*
X35513390Y-11170500D01*
X36486610Y-11170500D01*
X36486611Y-11170500D01*
X36657701Y-11143402D01*
X36822445Y-11089873D01*
X36976788Y-11011232D01*
X37116928Y-10909414D01*
X37219524Y-10806818D01*
X37280847Y-10773334D01*
X37307205Y-10770500D01*
X37620017Y-10770500D01*
X37687056Y-10790185D01*
X37730502Y-10838205D01*
X37757715Y-10891614D01*
X37878028Y-11057213D01*
X38022786Y-11201971D01*
X38150180Y-11294526D01*
X38188390Y-11322287D01*
X38304607Y-11381503D01*
X38370776Y-11415218D01*
X38370778Y-11415218D01*
X38370781Y-11415220D01*
X38455387Y-11442710D01*
X38565465Y-11478477D01*
X38666557Y-11494488D01*
X38767648Y-11510500D01*
X38767649Y-11510500D01*
X38972351Y-11510500D01*
X38972352Y-11510500D01*
X39174534Y-11478477D01*
X39369219Y-11415220D01*
X39551610Y-11322287D01*
X39644590Y-11254732D01*
X39717213Y-11201971D01*
X39717215Y-11201968D01*
X39717219Y-11201966D01*
X39861966Y-11057219D01*
X39883552Y-11027507D01*
X39938879Y-10984842D01*
X40008492Y-10978861D01*
X40070288Y-11011465D01*
X40071551Y-11012711D01*
X40569340Y-11510500D01*
X41051967Y-11993126D01*
X41085452Y-12054449D01*
X41080468Y-12124140D01*
X41038596Y-12180074D01*
X41002607Y-12198737D01*
X40967553Y-12210127D01*
X40813211Y-12288768D01*
X40741640Y-12340768D01*
X40673072Y-12390586D01*
X40673070Y-12390588D01*
X40673069Y-12390588D01*
X40550588Y-12513069D01*
X40550588Y-12513070D01*
X40550586Y-12513072D01*
X40525512Y-12547583D01*
X40448768Y-12653211D01*
X40370128Y-12807552D01*
X40316597Y-12972302D01*
X40289500Y-13143389D01*
X40289500Y-14716610D01*
X40315934Y-14883512D01*
X40316598Y-14887701D01*
X40370127Y-15052445D01*
X40448768Y-15206788D01*
X40550586Y-15346928D01*
X40550588Y-15346930D01*
X40673072Y-15469414D01*
X40714733Y-15499683D01*
X40757398Y-15555013D01*
X40763376Y-15624627D01*
X40730769Y-15686421D01*
X40714733Y-15700317D01*
X40673072Y-15730585D01*
X40550588Y-15853069D01*
X40550588Y-15853070D01*
X40550586Y-15853072D01*
X40506859Y-15913256D01*
X40448768Y-15993211D01*
X40370128Y-16147552D01*
X40316597Y-16312302D01*
X40307459Y-16370000D01*
X40289500Y-16483389D01*
X40289500Y-18056611D01*
X40316598Y-18227701D01*
X40370127Y-18392445D01*
X40448768Y-18546788D01*
X40550586Y-18686928D01*
X40673072Y-18809414D01*
X40813212Y-18911232D01*
X40967555Y-18989873D01*
X41132299Y-19043402D01*
X41303389Y-19070500D01*
X41303390Y-19070500D01*
X41476610Y-19070500D01*
X41476611Y-19070500D01*
X41647701Y-19043402D01*
X41812445Y-18989873D01*
X41966788Y-18911232D01*
X42106928Y-18809414D01*
X42229414Y-18686928D01*
X42331232Y-18546788D01*
X42409873Y-18392445D01*
X42463402Y-18227701D01*
X42490500Y-18056611D01*
X42490500Y-16762020D01*
X42499144Y-16732579D01*
X42505668Y-16702593D01*
X42509422Y-16697577D01*
X42510185Y-16694981D01*
X42526815Y-16674343D01*
X42617820Y-16583338D01*
X42679142Y-16549854D01*
X42748834Y-16554838D01*
X42804767Y-16596710D01*
X42829184Y-16662174D01*
X42829500Y-16671020D01*
X42829500Y-18056611D01*
X42856598Y-18227701D01*
X42910127Y-18392445D01*
X42988768Y-18546788D01*
X43090586Y-18686928D01*
X43213072Y-18809414D01*
X43353212Y-18911232D01*
X43507555Y-18989873D01*
X43672299Y-19043402D01*
X43843389Y-19070500D01*
X43843390Y-19070500D01*
X44016610Y-19070500D01*
X44016611Y-19070500D01*
X44187701Y-19043402D01*
X44352445Y-18989873D01*
X44506788Y-18911232D01*
X44646928Y-18809414D01*
X44769414Y-18686928D01*
X44871232Y-18546788D01*
X44949873Y-18392445D01*
X45003402Y-18227701D01*
X45030500Y-18056611D01*
X45030500Y-16483389D01*
X45003402Y-16312299D01*
X44949873Y-16147555D01*
X44871232Y-15993212D01*
X44769414Y-15853072D01*
X44646928Y-15730586D01*
X44605265Y-15700316D01*
X44562602Y-15644988D01*
X44556623Y-15575374D01*
X44589229Y-15513579D01*
X44605266Y-15499683D01*
X44646928Y-15469414D01*
X44769414Y-15346928D01*
X44871232Y-15206788D01*
X44949873Y-15052445D01*
X45003402Y-14887701D01*
X45030500Y-14716611D01*
X45030500Y-13143389D01*
X45003402Y-12972299D01*
X44949873Y-12807555D01*
X44949870Y-12807549D01*
X44890771Y-12691558D01*
X44877875Y-12622889D01*
X44904152Y-12558149D01*
X44913567Y-12547591D01*
X46474340Y-10986817D01*
X46535663Y-10953333D01*
X46562021Y-10950499D01*
X47395002Y-10950499D01*
X47395008Y-10950499D01*
X47408384Y-10949132D01*
X47477074Y-10961900D01*
X47527960Y-11009779D01*
X47544883Y-11077568D01*
X47522470Y-11143745D01*
X47508668Y-11160171D01*
X47219073Y-11449766D01*
X47146241Y-11558769D01*
X47096075Y-11679880D01*
X47096073Y-11679888D01*
X47076848Y-11776541D01*
X47076848Y-11776544D01*
X47070500Y-11808453D01*
X47070500Y-12098500D01*
X47050815Y-12165539D01*
X46998011Y-12211294D01*
X46928853Y-12221238D01*
X46897271Y-12211228D01*
X46896954Y-12211994D01*
X46892452Y-12210129D01*
X46772542Y-12171168D01*
X46727701Y-12156598D01*
X46727699Y-12156597D01*
X46727698Y-12156597D01*
X46596271Y-12135781D01*
X46556611Y-12129500D01*
X46383389Y-12129500D01*
X46343728Y-12135781D01*
X46212302Y-12156597D01*
X46047552Y-12210128D01*
X45893211Y-12288768D01*
X45821640Y-12340768D01*
X45753072Y-12390586D01*
X45753070Y-12390588D01*
X45753069Y-12390588D01*
X45630588Y-12513069D01*
X45630588Y-12513070D01*
X45630586Y-12513072D01*
X45605512Y-12547583D01*
X45528768Y-12653211D01*
X45450128Y-12807552D01*
X45396597Y-12972302D01*
X45369500Y-13143389D01*
X45369500Y-14716610D01*
X45395934Y-14883512D01*
X45396598Y-14887701D01*
X45450127Y-15052445D01*
X45528768Y-15206788D01*
X45630586Y-15346928D01*
X45630588Y-15346930D01*
X45753072Y-15469414D01*
X45794733Y-15499683D01*
X45837398Y-15555013D01*
X45843376Y-15624627D01*
X45810769Y-15686421D01*
X45794733Y-15700317D01*
X45753072Y-15730585D01*
X45630588Y-15853069D01*
X45630588Y-15853070D01*
X45630586Y-15853072D01*
X45586859Y-15913256D01*
X45528768Y-15993211D01*
X45450128Y-16147552D01*
X45396597Y-16312302D01*
X45387459Y-16370000D01*
X45369500Y-16483389D01*
X45369500Y-18056611D01*
X45396598Y-18227701D01*
X45450127Y-18392445D01*
X45528768Y-18546788D01*
X45630586Y-18686928D01*
X45753072Y-18809414D01*
X45893212Y-18911232D01*
X46047555Y-18989873D01*
X46212299Y-19043402D01*
X46383389Y-19070500D01*
X46383390Y-19070500D01*
X46556610Y-19070500D01*
X46556611Y-19070500D01*
X46727701Y-19043402D01*
X46892445Y-18989873D01*
X47046788Y-18911232D01*
X47186928Y-18809414D01*
X47309414Y-18686928D01*
X47411232Y-18546788D01*
X47489873Y-18392445D01*
X47543402Y-18227701D01*
X47570500Y-18056611D01*
X47570500Y-16762020D01*
X47579144Y-16732579D01*
X47585668Y-16702593D01*
X47589422Y-16697577D01*
X47590185Y-16694981D01*
X47606815Y-16674343D01*
X47697820Y-16583338D01*
X47759142Y-16549854D01*
X47828834Y-16554838D01*
X47884767Y-16596710D01*
X47909184Y-16662174D01*
X47909500Y-16671020D01*
X47909500Y-18056611D01*
X47936598Y-18227701D01*
X47990127Y-18392445D01*
X48068768Y-18546788D01*
X48170586Y-18686928D01*
X48293072Y-18809414D01*
X48433212Y-18911232D01*
X48587555Y-18989873D01*
X48752299Y-19043402D01*
X48923389Y-19070500D01*
X48923390Y-19070500D01*
X49096610Y-19070500D01*
X49096611Y-19070500D01*
X49267701Y-19043402D01*
X49432445Y-18989873D01*
X49586788Y-18911232D01*
X49726928Y-18809414D01*
X49849414Y-18686928D01*
X49951232Y-18546788D01*
X50029873Y-18392445D01*
X50083402Y-18227701D01*
X50110500Y-18056611D01*
X50110500Y-16483389D01*
X50083402Y-16312299D01*
X50029873Y-16147555D01*
X49951232Y-15993212D01*
X49849414Y-15853072D01*
X49726928Y-15730586D01*
X49685265Y-15700316D01*
X49642602Y-15644988D01*
X49636623Y-15575374D01*
X49669229Y-15513579D01*
X49685266Y-15499683D01*
X49726928Y-15469414D01*
X49849414Y-15346928D01*
X49951232Y-15206788D01*
X50029873Y-15052445D01*
X50083402Y-14887701D01*
X50110500Y-14716611D01*
X50110500Y-13143389D01*
X50449500Y-13143389D01*
X50449500Y-14716610D01*
X50475934Y-14883512D01*
X50476598Y-14887701D01*
X50530127Y-15052445D01*
X50608768Y-15206788D01*
X50710586Y-15346928D01*
X50710588Y-15346930D01*
X50833072Y-15469414D01*
X50874733Y-15499683D01*
X50917398Y-15555013D01*
X50923376Y-15624627D01*
X50890769Y-15686421D01*
X50874733Y-15700317D01*
X50833072Y-15730585D01*
X50710588Y-15853069D01*
X50710588Y-15853070D01*
X50710586Y-15853072D01*
X50666859Y-15913256D01*
X50608768Y-15993211D01*
X50530128Y-16147552D01*
X50476597Y-16312302D01*
X50467459Y-16370000D01*
X50449500Y-16483389D01*
X50449500Y-18056611D01*
X50476598Y-18227701D01*
X50530127Y-18392445D01*
X50608768Y-18546788D01*
X50710586Y-18686928D01*
X50833072Y-18809414D01*
X50973212Y-18911232D01*
X51127555Y-18989873D01*
X51292299Y-19043402D01*
X51463389Y-19070500D01*
X51463390Y-19070500D01*
X51636610Y-19070500D01*
X51636611Y-19070500D01*
X51807701Y-19043402D01*
X51972445Y-18989873D01*
X52126788Y-18911232D01*
X52266928Y-18809414D01*
X52389414Y-18686928D01*
X52491232Y-18546788D01*
X52569873Y-18392445D01*
X52623402Y-18227701D01*
X52650500Y-18056611D01*
X52650500Y-16483389D01*
X52623402Y-16312299D01*
X52569873Y-16147555D01*
X52491232Y-15993212D01*
X52389414Y-15853072D01*
X52266928Y-15730586D01*
X52225265Y-15700316D01*
X52182602Y-15644988D01*
X52176623Y-15575374D01*
X52209229Y-15513579D01*
X52225266Y-15499683D01*
X52266928Y-15469414D01*
X52389414Y-15346928D01*
X52491232Y-15206788D01*
X52569873Y-15052445D01*
X52623402Y-14887701D01*
X52650500Y-14716611D01*
X52650500Y-13143389D01*
X52989500Y-13143389D01*
X52989500Y-14716610D01*
X53015934Y-14883512D01*
X53016598Y-14887701D01*
X53070127Y-15052445D01*
X53148768Y-15206788D01*
X53250586Y-15346928D01*
X53250588Y-15346930D01*
X53373072Y-15469414D01*
X53414733Y-15499683D01*
X53457398Y-15555013D01*
X53463376Y-15624627D01*
X53430769Y-15686421D01*
X53414733Y-15700317D01*
X53373072Y-15730585D01*
X53250588Y-15853069D01*
X53250588Y-15853070D01*
X53250586Y-15853072D01*
X53206859Y-15913256D01*
X53148768Y-15993211D01*
X53070128Y-16147552D01*
X53016597Y-16312302D01*
X53007459Y-16370000D01*
X52989500Y-16483389D01*
X52989500Y-18056611D01*
X53016598Y-18227701D01*
X53070127Y-18392445D01*
X53148768Y-18546788D01*
X53250586Y-18686928D01*
X53373072Y-18809414D01*
X53513212Y-18911232D01*
X53667555Y-18989873D01*
X53832299Y-19043402D01*
X54003389Y-19070500D01*
X54003390Y-19070500D01*
X54176610Y-19070500D01*
X54176611Y-19070500D01*
X54347701Y-19043402D01*
X54512445Y-18989873D01*
X54666788Y-18911232D01*
X54806928Y-18809414D01*
X54916306Y-18700036D01*
X55553513Y-18700036D01*
X55638417Y-18816895D01*
X55783104Y-18961582D01*
X55948650Y-19081859D01*
X56130968Y-19174755D01*
X56325582Y-19237990D01*
X56527683Y-19270000D01*
X56732317Y-19270000D01*
X56934417Y-19237990D01*
X57129031Y-19174755D01*
X57311349Y-19081859D01*
X57476894Y-18961582D01*
X57476895Y-18961582D01*
X57621584Y-18816893D01*
X57706484Y-18700037D01*
X57706484Y-18700036D01*
X56630000Y-17623552D01*
X55553513Y-18700036D01*
X54916306Y-18700036D01*
X54929414Y-18686928D01*
X55031232Y-18546788D01*
X55109873Y-18392445D01*
X55151974Y-18262870D01*
X55191410Y-18205198D01*
X55255769Y-18177999D01*
X55308222Y-18183260D01*
X55349707Y-18196739D01*
X56276448Y-17270000D01*
X56276448Y-17269999D01*
X55349707Y-16343258D01*
X55308221Y-16356738D01*
X55238380Y-16358733D01*
X55178547Y-16322653D01*
X55151974Y-16277129D01*
X55109873Y-16147555D01*
X55031232Y-15993212D01*
X54929414Y-15853072D01*
X54806928Y-15730586D01*
X54765265Y-15700316D01*
X54722602Y-15644988D01*
X54716623Y-15575374D01*
X54749229Y-15513579D01*
X54765266Y-15499683D01*
X54806928Y-15469414D01*
X54929414Y-15346928D01*
X55031232Y-15206788D01*
X55109873Y-15052445D01*
X55137186Y-14968384D01*
X55176622Y-14910711D01*
X55240981Y-14883512D01*
X55309827Y-14895427D01*
X55361303Y-14942671D01*
X55373047Y-14968385D01*
X55425244Y-15129031D01*
X55518140Y-15311349D01*
X55638417Y-15476894D01*
X55638417Y-15476895D01*
X55673841Y-15512319D01*
X55707326Y-15573642D01*
X55702342Y-15643334D01*
X55673841Y-15687681D01*
X55638417Y-15723104D01*
X55638416Y-15723105D01*
X55553513Y-15839962D01*
X55553514Y-15839963D01*
X56253222Y-16539671D01*
X56229901Y-16562993D01*
X56164075Y-16677007D01*
X56130000Y-16804174D01*
X56130000Y-16935826D01*
X56164075Y-17062993D01*
X56229901Y-17177007D01*
X56322993Y-17270099D01*
X56437007Y-17335925D01*
X56564174Y-17370000D01*
X56695826Y-17370000D01*
X56822993Y-17335925D01*
X56937007Y-17270099D01*
X56937107Y-17269999D01*
X56983552Y-17269999D01*
X56983552Y-17270000D01*
X57910291Y-18196740D01*
X57910292Y-18196739D01*
X57930000Y-18072311D01*
X57930000Y-16467688D01*
X57910292Y-16343259D01*
X56983552Y-17269999D01*
X56937107Y-17269999D01*
X57030099Y-17177007D01*
X57095925Y-17062993D01*
X57130000Y-16935826D01*
X57130000Y-16804174D01*
X57095925Y-16677007D01*
X57030099Y-16562993D01*
X57006777Y-16539671D01*
X57706484Y-15839963D01*
X57706485Y-15839961D01*
X57621587Y-15723110D01*
X57621582Y-15723104D01*
X57586159Y-15687681D01*
X57552674Y-15626358D01*
X57557658Y-15556666D01*
X57586159Y-15512319D01*
X57621582Y-15476895D01*
X57621582Y-15476894D01*
X57741859Y-15311349D01*
X57834755Y-15129031D01*
X57897990Y-14934417D01*
X57930000Y-14732317D01*
X57930000Y-14180000D01*
X57107445Y-14180000D01*
X57095925Y-14137007D01*
X57030099Y-14022993D01*
X56937007Y-13929901D01*
X56822993Y-13864075D01*
X56695826Y-13830000D01*
X56564174Y-13830000D01*
X56437007Y-13864075D01*
X56410269Y-13879511D01*
X56391206Y-13857511D01*
X56380000Y-13806000D01*
X56380000Y-13680000D01*
X56880000Y-13680000D01*
X57930000Y-13680000D01*
X57930000Y-13127682D01*
X57897990Y-12925582D01*
X57834755Y-12730968D01*
X57741859Y-12548650D01*
X57621582Y-12383105D01*
X57621582Y-12383104D01*
X57476895Y-12238417D01*
X57311349Y-12118140D01*
X57129029Y-12025244D01*
X56934413Y-11962009D01*
X56880000Y-11953390D01*
X56880000Y-13680000D01*
X56380000Y-13680000D01*
X56380000Y-11953390D01*
X56325586Y-11962009D01*
X56130970Y-12025244D01*
X55948650Y-12118140D01*
X55783105Y-12238417D01*
X55783104Y-12238417D01*
X55638417Y-12383104D01*
X55638417Y-12383105D01*
X55518140Y-12548650D01*
X55425244Y-12730968D01*
X55373047Y-12891614D01*
X55333609Y-12949289D01*
X55269250Y-12976487D01*
X55200404Y-12964572D01*
X55148928Y-12917328D01*
X55137186Y-12891615D01*
X55109873Y-12807555D01*
X55031232Y-12653212D01*
X54929414Y-12513072D01*
X54806928Y-12390586D01*
X54666788Y-12288768D01*
X54516109Y-12211994D01*
X54512447Y-12210128D01*
X54512446Y-12210127D01*
X54512445Y-12210127D01*
X54347701Y-12156598D01*
X54347699Y-12156597D01*
X54347698Y-12156597D01*
X54216271Y-12135781D01*
X54176611Y-12129500D01*
X54003389Y-12129500D01*
X53963728Y-12135781D01*
X53832302Y-12156597D01*
X53667552Y-12210128D01*
X53513211Y-12288768D01*
X53441640Y-12340768D01*
X53373072Y-12390586D01*
X53373070Y-12390588D01*
X53373069Y-12390588D01*
X53250588Y-12513069D01*
X53250588Y-12513070D01*
X53250586Y-12513072D01*
X53225512Y-12547583D01*
X53148768Y-12653211D01*
X53070128Y-12807552D01*
X53016597Y-12972302D01*
X52989500Y-13143389D01*
X52650500Y-13143389D01*
X52623402Y-12972299D01*
X52569873Y-12807555D01*
X52491232Y-12653212D01*
X52389414Y-12513072D01*
X52266928Y-12390586D01*
X52126788Y-12288768D01*
X51976109Y-12211994D01*
X51972447Y-12210128D01*
X51972446Y-12210127D01*
X51972445Y-12210127D01*
X51807701Y-12156598D01*
X51807699Y-12156597D01*
X51807698Y-12156597D01*
X51676271Y-12135781D01*
X51636611Y-12129500D01*
X51463389Y-12129500D01*
X51423728Y-12135781D01*
X51292302Y-12156597D01*
X51127552Y-12210128D01*
X50973211Y-12288768D01*
X50901640Y-12340768D01*
X50833072Y-12390586D01*
X50833070Y-12390588D01*
X50833069Y-12390588D01*
X50710588Y-12513069D01*
X50710588Y-12513070D01*
X50710586Y-12513072D01*
X50685512Y-12547583D01*
X50608768Y-12653211D01*
X50530128Y-12807552D01*
X50476597Y-12972302D01*
X50449500Y-13143389D01*
X50110500Y-13143389D01*
X50083402Y-12972299D01*
X50029873Y-12807555D01*
X49951232Y-12653212D01*
X49849414Y-12513072D01*
X49726928Y-12390586D01*
X49586788Y-12288768D01*
X49436109Y-12211994D01*
X49432447Y-12210128D01*
X49432446Y-12210127D01*
X49432445Y-12210127D01*
X49267701Y-12156598D01*
X49267699Y-12156597D01*
X49267698Y-12156597D01*
X49136271Y-12135781D01*
X49096611Y-12129500D01*
X48923389Y-12129500D01*
X48871760Y-12137677D01*
X48752303Y-12156597D01*
X48752300Y-12156597D01*
X48752299Y-12156598D01*
X48736676Y-12161674D01*
X48713593Y-12169174D01*
X48643751Y-12171168D01*
X48583919Y-12135086D01*
X48553093Y-12072384D01*
X48561059Y-12002970D01*
X48587592Y-11963566D01*
X49364340Y-11186817D01*
X49425663Y-11153333D01*
X49452021Y-11150499D01*
X50285002Y-11150499D01*
X50285008Y-11150499D01*
X50387797Y-11139999D01*
X50554334Y-11084814D01*
X50703656Y-10992712D01*
X50827712Y-10868656D01*
X50919814Y-10719334D01*
X50974999Y-10552797D01*
X50985500Y-10450009D01*
X50985499Y-9549992D01*
X50983554Y-9530955D01*
X50974999Y-9447203D01*
X50974998Y-9447200D01*
X50919814Y-9280666D01*
X50827712Y-9131344D01*
X50703656Y-9007288D01*
X50610888Y-8950069D01*
X50554336Y-8915187D01*
X50554331Y-8915185D01*
X50501112Y-8897550D01*
X50387797Y-8860001D01*
X50387795Y-8860000D01*
X50285010Y-8849500D01*
X48934998Y-8849500D01*
X48934981Y-8849501D01*
X48832203Y-8860000D01*
X48832200Y-8860001D01*
X48665668Y-8915185D01*
X48665663Y-8915187D01*
X48516342Y-9007289D01*
X48392289Y-9131342D01*
X48307016Y-9269592D01*
X48255068Y-9316317D01*
X48186105Y-9327538D01*
X48122023Y-9299695D01*
X48083772Y-9243500D01*
X48029814Y-9080666D01*
X47937712Y-8931344D01*
X47813656Y-8807288D01*
X47693898Y-8733421D01*
X47664336Y-8715187D01*
X47664331Y-8715185D01*
X47615032Y-8698849D01*
X47497797Y-8660001D01*
X47497795Y-8660000D01*
X47395010Y-8649500D01*
X46044998Y-8649500D01*
X46044981Y-8649501D01*
X45942203Y-8660000D01*
X45942200Y-8660001D01*
X45775668Y-8715185D01*
X45775663Y-8715187D01*
X45626342Y-8807289D01*
X45502289Y-8931342D01*
X45410187Y-9080663D01*
X45410185Y-9080668D01*
X45393393Y-9131344D01*
X45355001Y-9247203D01*
X45355001Y-9247204D01*
X45355000Y-9247204D01*
X45344500Y-9349983D01*
X45344500Y-10182977D01*
X45324815Y-10250016D01*
X45308181Y-10270658D01*
X44867181Y-10711658D01*
X44805858Y-10745143D01*
X44736166Y-10740159D01*
X44680233Y-10698287D01*
X44655816Y-10632823D01*
X44655500Y-10623977D01*
X44655500Y-8303448D01*
X44675185Y-8236409D01*
X44727989Y-8190654D01*
X44761227Y-8181631D01*
X44761181Y-8181415D01*
X44765171Y-8180560D01*
X44766906Y-8180089D01*
X44767797Y-8179999D01*
X44934334Y-8124814D01*
X45083656Y-8032712D01*
X45207712Y-7908656D01*
X45299814Y-7759334D01*
X45334432Y-7654861D01*
X45374203Y-7597419D01*
X45438719Y-7570595D01*
X45507494Y-7582910D01*
X45539818Y-7606186D01*
X45626344Y-7692712D01*
X45775666Y-7784814D01*
X45942203Y-7839999D01*
X46044991Y-7850500D01*
X47395008Y-7850499D01*
X47497797Y-7839999D01*
X47664334Y-7784814D01*
X47813656Y-7692712D01*
X47937712Y-7568656D01*
X48022984Y-7430406D01*
X48074931Y-7383683D01*
X48143893Y-7372460D01*
X48207975Y-7400303D01*
X48246228Y-7456500D01*
X48257332Y-7490009D01*
X48300186Y-7619334D01*
X48392288Y-7768656D01*
X48516344Y-7892712D01*
X48665666Y-7984814D01*
X48832203Y-8039999D01*
X48934991Y-8050500D01*
X50285008Y-8050499D01*
X50387797Y-8039999D01*
X50554334Y-7984814D01*
X50703656Y-7892712D01*
X50827712Y-7768656D01*
X50919814Y-7619334D01*
X50974999Y-7452797D01*
X50985500Y-7350009D01*
X50985499Y-6449992D01*
X50974999Y-6347203D01*
X50919814Y-6180666D01*
X50827712Y-6031344D01*
X50703656Y-5907288D01*
X50610888Y-5850069D01*
X50554336Y-5815187D01*
X50554331Y-5815185D01*
X50552862Y-5814698D01*
X50387797Y-5760001D01*
X50387795Y-5760000D01*
X50285010Y-5749500D01*
X48934998Y-5749500D01*
X48934981Y-5749501D01*
X48832203Y-5760000D01*
X48832200Y-5760001D01*
X48665668Y-5815185D01*
X48665663Y-5815187D01*
X48516342Y-5907289D01*
X48425451Y-5998181D01*
X48398523Y-6012884D01*
X48372705Y-6029477D01*
X48366504Y-6030368D01*
X48364128Y-6031666D01*
X48337770Y-6034500D01*
X48132226Y-6034500D01*
X48065187Y-6014815D01*
X48026687Y-5975597D01*
X47999322Y-5931231D01*
X47937712Y-5831344D01*
X47813656Y-5707288D01*
X47664334Y-5615186D01*
X47497797Y-5560001D01*
X47497795Y-5560000D01*
X47395016Y-5549500D01*
X47395009Y-5549500D01*
X46562022Y-5549500D01*
X46494983Y-5529815D01*
X46474345Y-5513185D01*
X46368232Y-5407072D01*
X46259232Y-5334242D01*
X46138119Y-5284075D01*
X46138113Y-5284073D01*
X46009549Y-5258500D01*
X46009547Y-5258500D01*
X46009546Y-5258500D01*
X44992521Y-5258500D01*
X44925482Y-5238815D01*
X44879727Y-5186011D01*
X44869783Y-5116853D01*
X44898808Y-5053297D01*
X44929244Y-5030318D01*
X44928187Y-5028605D01*
X44934332Y-5024814D01*
X44934334Y-5024814D01*
X45083656Y-4932712D01*
X45207712Y-4808656D01*
X45299814Y-4659334D01*
X45354999Y-4492797D01*
X45365500Y-4390009D01*
X45365499Y-3489992D01*
X45362947Y-3465008D01*
X45355741Y-3394464D01*
X45355546Y-3392565D01*
X45354999Y-3387203D01*
X45354574Y-3385921D01*
X59759500Y-3385921D01*
X59759500Y-3614078D01*
X59789278Y-3840272D01*
X59789279Y-3840277D01*
X59789280Y-3840283D01*
X59824072Y-3970128D01*
X59848331Y-4060666D01*
X59935638Y-4271446D01*
X59935646Y-4271462D01*
X60049717Y-4469037D01*
X60049728Y-4469053D01*
X60188613Y-4650052D01*
X60188619Y-4650059D01*
X60349940Y-4811380D01*
X60349947Y-4811386D01*
X60382473Y-4836344D01*
X60530955Y-4950278D01*
X60530962Y-4950282D01*
X60728537Y-5064353D01*
X60728553Y-5064361D01*
X60842268Y-5111463D01*
X60939334Y-5151669D01*
X61159717Y-5210720D01*
X61319474Y-5231752D01*
X61385921Y-5240500D01*
X61385922Y-5240500D01*
X61614079Y-5240500D01*
X61665438Y-5233738D01*
X61840283Y-5210720D01*
X62060666Y-5151669D01*
X62233692Y-5079999D01*
X62271446Y-5064361D01*
X62271449Y-5064359D01*
X62271455Y-5064357D01*
X62469045Y-4950278D01*
X62650054Y-4811385D01*
X62811385Y-4650054D01*
X62950278Y-4469045D01*
X63064357Y-4271455D01*
X63151669Y-4060666D01*
X63210720Y-3840283D01*
X63240500Y-3614078D01*
X63240500Y-3385922D01*
X63210720Y-3159717D01*
X63151669Y-2939334D01*
X63093955Y-2800000D01*
X63064361Y-2728553D01*
X63064353Y-2728537D01*
X62957445Y-2543369D01*
X62950278Y-2530955D01*
X62811385Y-2349946D01*
X62811380Y-2349940D01*
X62650059Y-2188619D01*
X62650052Y-2188613D01*
X62469053Y-2049728D01*
X62469051Y-2049726D01*
X62469045Y-2049722D01*
X62469040Y-2049719D01*
X62469037Y-2049717D01*
X62271462Y-1935646D01*
X62271446Y-1935638D01*
X62060666Y-1848331D01*
X62050709Y-1845663D01*
X61840283Y-1789280D01*
X61840277Y-1789279D01*
X61840272Y-1789278D01*
X61614079Y-1759500D01*
X61614078Y-1759500D01*
X61385922Y-1759500D01*
X61385921Y-1759500D01*
X61159727Y-1789278D01*
X61159720Y-1789279D01*
X61159717Y-1789280D01*
X61066567Y-1814239D01*
X60939333Y-1848331D01*
X60728553Y-1935638D01*
X60728537Y-1935646D01*
X60530962Y-2049717D01*
X60530946Y-2049728D01*
X60349947Y-2188613D01*
X60349940Y-2188619D01*
X60188619Y-2349940D01*
X60188613Y-2349947D01*
X60049728Y-2530946D01*
X60049717Y-2530962D01*
X59935646Y-2728537D01*
X59935638Y-2728553D01*
X59848331Y-2939333D01*
X59789281Y-3159714D01*
X59789278Y-3159727D01*
X59759500Y-3385921D01*
X45354574Y-3385921D01*
X45299814Y-3220666D01*
X45207712Y-3071344D01*
X45083656Y-2947288D01*
X44962317Y-2872446D01*
X44934336Y-2855187D01*
X44934331Y-2855185D01*
X44932862Y-2854698D01*
X44767797Y-2800001D01*
X44767795Y-2800000D01*
X44665016Y-2789500D01*
X44665009Y-2789500D01*
X43832022Y-2789500D01*
X43764983Y-2769815D01*
X43744341Y-2753181D01*
X42503157Y-1511997D01*
X42473727Y-1458100D01*
X42472129Y-1458630D01*
X42444946Y-1376598D01*
X42414814Y-1285666D01*
X42322712Y-1136344D01*
X42198656Y-1012288D01*
X42049334Y-920186D01*
X41882797Y-865001D01*
X41882795Y-865000D01*
X41780010Y-854500D01*
X40379998Y-854500D01*
X40379981Y-854501D01*
X40277203Y-865000D01*
X40277200Y-865001D01*
X40110668Y-920185D01*
X40110663Y-920187D01*
X39961342Y-1012289D01*
X39837289Y-1136342D01*
X39745187Y-1285663D01*
X39745186Y-1285666D01*
X39690001Y-1452203D01*
X39690001Y-1452204D01*
X39690000Y-1452204D01*
X39679500Y-1554983D01*
X39679500Y-1660500D01*
X39659815Y-1727539D01*
X39607011Y-1773294D01*
X39555500Y-1784500D01*
X37339960Y-1784500D01*
X37272921Y-1764815D01*
X37242920Y-1736484D01*
X37242578Y-1736777D01*
X37239857Y-1733592D01*
X37239648Y-1733394D01*
X37239416Y-1733075D01*
X37239411Y-1733069D01*
X37116930Y-1610588D01*
X37116928Y-1610586D01*
X36976788Y-1508768D01*
X36822445Y-1430127D01*
X36657701Y-1376598D01*
X36657699Y-1376597D01*
X36657698Y-1376597D01*
X36526271Y-1355781D01*
X36486611Y-1349500D01*
X36486610Y-1349500D01*
X35892021Y-1349500D01*
X35824982Y-1329815D01*
X35804340Y-1313181D01*
X35103342Y-612181D01*
X35069857Y-550858D01*
X35074841Y-481166D01*
X35116713Y-425233D01*
X35182177Y-400816D01*
X35191023Y-400500D01*
X64475500Y-400500D01*
X64542539Y-420185D01*
X64588294Y-472989D01*
X64599500Y-524500D01*
X64599500Y-25475500D01*
X64579815Y-25542539D01*
X64527011Y-25588294D01*
X64475500Y-25599500D01*
X524500Y-25599500D01*
X457461Y-25579815D01*
X411706Y-25527011D01*
X400500Y-25475500D01*
X400500Y-24759491D01*
X19603937Y-24759491D01*
X45369316Y-24759491D01*
X45369316Y-22385921D01*
X59759500Y-22385921D01*
X59759500Y-22614078D01*
X59789278Y-22840272D01*
X59789279Y-22840277D01*
X59789280Y-22840283D01*
X59789281Y-22840285D01*
X59848331Y-23060666D01*
X59935638Y-23271446D01*
X59935646Y-23271462D01*
X60049717Y-23469037D01*
X60049728Y-23469053D01*
X60188613Y-23650052D01*
X60188619Y-23650059D01*
X60349940Y-23811380D01*
X60349946Y-23811385D01*
X60530955Y-23950278D01*
X60530962Y-23950282D01*
X60728537Y-24064353D01*
X60728553Y-24064361D01*
X60842268Y-24111463D01*
X60939334Y-24151669D01*
X61159717Y-24210720D01*
X61319474Y-24231752D01*
X61385921Y-24240500D01*
X61385922Y-24240500D01*
X61614079Y-24240500D01*
X61665438Y-24233738D01*
X61840283Y-24210720D01*
X62060666Y-24151669D01*
X62226365Y-24083033D01*
X62271446Y-24064361D01*
X62271449Y-24064359D01*
X62271455Y-24064357D01*
X62469045Y-23950278D01*
X62650054Y-23811385D01*
X62811385Y-23650054D01*
X62950278Y-23469045D01*
X63064357Y-23271455D01*
X63151669Y-23060666D01*
X63210720Y-22840283D01*
X63240500Y-22614078D01*
X63240500Y-22385922D01*
X63210720Y-22159717D01*
X63151669Y-21939334D01*
X63111463Y-21842268D01*
X63064361Y-21728553D01*
X63064353Y-21728537D01*
X62950282Y-21530962D01*
X62950278Y-21530955D01*
X62811385Y-21349946D01*
X62811380Y-21349940D01*
X62650059Y-21188619D01*
X62650052Y-21188613D01*
X62469053Y-21049728D01*
X62469051Y-21049726D01*
X62469045Y-21049722D01*
X62469040Y-21049719D01*
X62469037Y-21049717D01*
X62271462Y-20935646D01*
X62271446Y-20935638D01*
X62060666Y-20848331D01*
X61840283Y-20789280D01*
X61840277Y-20789279D01*
X61840272Y-20789278D01*
X61614079Y-20759500D01*
X61614078Y-20759500D01*
X61385922Y-20759500D01*
X61385921Y-20759500D01*
X61159727Y-20789278D01*
X61159720Y-20789279D01*
X61159717Y-20789280D01*
X61066567Y-20814239D01*
X60939333Y-20848331D01*
X60728553Y-20935638D01*
X60728537Y-20935646D01*
X60530962Y-21049717D01*
X60530946Y-21049728D01*
X60349947Y-21188613D01*
X60349940Y-21188619D01*
X60188619Y-21349940D01*
X60188613Y-21349947D01*
X60049728Y-21530946D01*
X60049717Y-21530962D01*
X59935646Y-21728537D01*
X59935638Y-21728553D01*
X59848331Y-21939333D01*
X59789281Y-22159714D01*
X59789278Y-22159727D01*
X59759500Y-22385921D01*
X45369316Y-22385921D01*
X45369316Y-21145846D01*
X19603937Y-21145846D01*
X19603937Y-24759491D01*
X400500Y-24759491D01*
X400500Y-22385921D01*
X1759500Y-22385921D01*
X1759500Y-22614078D01*
X1789278Y-22840272D01*
X1789279Y-22840277D01*
X1789280Y-22840283D01*
X1789281Y-22840285D01*
X1848331Y-23060666D01*
X1935638Y-23271446D01*
X1935646Y-23271462D01*
X2049717Y-23469037D01*
X2049728Y-23469053D01*
X2188613Y-23650052D01*
X2188619Y-23650059D01*
X2349940Y-23811380D01*
X2349946Y-23811385D01*
X2530955Y-23950278D01*
X2530962Y-23950282D01*
X2728537Y-24064353D01*
X2728553Y-24064361D01*
X2842268Y-24111463D01*
X2939334Y-24151669D01*
X3159717Y-24210720D01*
X3319474Y-24231752D01*
X3385921Y-24240500D01*
X3385922Y-24240500D01*
X3614079Y-24240500D01*
X3665438Y-24233738D01*
X3840283Y-24210720D01*
X4060666Y-24151669D01*
X4226365Y-24083033D01*
X4271446Y-24064361D01*
X4271449Y-24064359D01*
X4271455Y-24064357D01*
X4469045Y-23950278D01*
X4650054Y-23811385D01*
X4811385Y-23650054D01*
X4950278Y-23469045D01*
X5064357Y-23271455D01*
X5151669Y-23060666D01*
X5210720Y-22840283D01*
X5240500Y-22614078D01*
X5240500Y-22385922D01*
X5210720Y-22159717D01*
X5151669Y-21939334D01*
X5111463Y-21842268D01*
X5064361Y-21728553D01*
X5064353Y-21728537D01*
X4950282Y-21530962D01*
X4950278Y-21530955D01*
X4811385Y-21349946D01*
X4811380Y-21349940D01*
X4650055Y-21188615D01*
X4469053Y-21049728D01*
X4469051Y-21049726D01*
X4469045Y-21049722D01*
X4469040Y-21049719D01*
X4469037Y-21049717D01*
X4271462Y-20935646D01*
X4271446Y-20935638D01*
X4060666Y-20848331D01*
X3840283Y-20789280D01*
X3840277Y-20789279D01*
X3840272Y-20789278D01*
X3614079Y-20759500D01*
X3614078Y-20759500D01*
X3385922Y-20759500D01*
X3385921Y-20759500D01*
X3159727Y-20789278D01*
X3159720Y-20789279D01*
X3159717Y-20789280D01*
X3066567Y-20814239D01*
X2939333Y-20848331D01*
X2728553Y-20935638D01*
X2728537Y-20935646D01*
X2530962Y-21049717D01*
X2530946Y-21049728D01*
X2349947Y-21188613D01*
X2349940Y-21188619D01*
X2188619Y-21349940D01*
X2188613Y-21349947D01*
X2049728Y-21530946D01*
X2049717Y-21530962D01*
X1935646Y-21728537D01*
X1935638Y-21728553D01*
X1848331Y-21939333D01*
X1789281Y-22159714D01*
X1789278Y-22159727D01*
X1759500Y-22385921D01*
X400500Y-22385921D01*
X400500Y-16180552D01*
X791558Y-16180552D01*
X3049936Y-16180552D01*
X3049936Y-13143389D01*
X7269500Y-13143389D01*
X7269500Y-14716610D01*
X7295934Y-14883512D01*
X7296598Y-14887701D01*
X7350127Y-15052445D01*
X7428768Y-15206788D01*
X7501897Y-15307442D01*
X7525377Y-15373246D01*
X7509552Y-15441300D01*
X7459446Y-15489995D01*
X7451666Y-15493760D01*
X7397234Y-15517794D01*
X7317794Y-15597234D01*
X7272415Y-15700006D01*
X7272415Y-15700008D01*
X7269500Y-15725131D01*
X7269500Y-18814856D01*
X7269502Y-18814882D01*
X7272413Y-18839987D01*
X7272415Y-18839991D01*
X7317793Y-18942764D01*
X7317794Y-18942765D01*
X7397235Y-19022206D01*
X7500009Y-19067585D01*
X7525135Y-19070500D01*
X9214864Y-19070499D01*
X9214879Y-19070497D01*
X9214882Y-19070497D01*
X9239987Y-19067586D01*
X9239988Y-19067585D01*
X9239991Y-19067585D01*
X9342765Y-19022206D01*
X9422206Y-18942765D01*
X9467585Y-18839991D01*
X9470500Y-18814865D01*
X9470499Y-15725136D01*
X9470264Y-15723110D01*
X9467586Y-15700012D01*
X9467585Y-15700010D01*
X9467585Y-15700009D01*
X9422206Y-15597235D01*
X9342765Y-15517794D01*
X9288333Y-15493760D01*
X9234957Y-15448674D01*
X9214430Y-15381888D01*
X9233268Y-15314606D01*
X9238083Y-15307468D01*
X9311232Y-15206788D01*
X9389873Y-15052445D01*
X9443402Y-14887701D01*
X9470500Y-14716611D01*
X9470500Y-13143389D01*
X9443402Y-12972299D01*
X9389873Y-12807555D01*
X9311232Y-12653212D01*
X9209414Y-12513072D01*
X9086928Y-12390586D01*
X8946788Y-12288768D01*
X8796109Y-12211994D01*
X8792447Y-12210128D01*
X8792446Y-12210127D01*
X8792445Y-12210127D01*
X8627701Y-12156598D01*
X8627699Y-12156597D01*
X8627698Y-12156597D01*
X8496271Y-12135781D01*
X8456611Y-12129500D01*
X8283389Y-12129500D01*
X8243728Y-12135781D01*
X8112302Y-12156597D01*
X7947552Y-12210128D01*
X7793211Y-12288768D01*
X7721640Y-12340768D01*
X7653072Y-12390586D01*
X7653070Y-12390588D01*
X7653069Y-12390588D01*
X7530588Y-12513069D01*
X7530588Y-12513070D01*
X7530586Y-12513072D01*
X7505512Y-12547583D01*
X7428768Y-12653211D01*
X7350128Y-12807552D01*
X7296597Y-12972302D01*
X7269500Y-13143389D01*
X3049936Y-13143389D01*
X3049936Y-8167451D01*
X791558Y-8167451D01*
X791558Y-16180552D01*
X400500Y-16180552D01*
X400500Y-3385921D01*
X1759500Y-3385921D01*
X1759500Y-3614078D01*
X1789278Y-3840272D01*
X1789279Y-3840277D01*
X1789280Y-3840283D01*
X1824072Y-3970128D01*
X1848331Y-4060666D01*
X1935638Y-4271446D01*
X1935646Y-4271462D01*
X2049717Y-4469037D01*
X2049728Y-4469053D01*
X2188613Y-4650052D01*
X2188619Y-4650059D01*
X2349940Y-4811380D01*
X2349947Y-4811386D01*
X2382473Y-4836344D01*
X2530955Y-4950278D01*
X2530962Y-4950282D01*
X2728537Y-5064353D01*
X2728553Y-5064361D01*
X2842268Y-5111463D01*
X2939334Y-5151669D01*
X3159717Y-5210720D01*
X3319474Y-5231752D01*
X3385921Y-5240500D01*
X3385922Y-5240500D01*
X3614079Y-5240500D01*
X3665438Y-5233738D01*
X3840283Y-5210720D01*
X4060666Y-5151669D01*
X4233692Y-5079999D01*
X4271446Y-5064361D01*
X4271449Y-5064359D01*
X4271455Y-5064357D01*
X4469045Y-4950278D01*
X4650054Y-4811385D01*
X4811385Y-4650054D01*
X4950278Y-4469045D01*
X5064357Y-4271455D01*
X5151669Y-4060666D01*
X5210720Y-3840283D01*
X5240500Y-3614078D01*
X5240500Y-3385922D01*
X5210720Y-3159717D01*
X5151669Y-2939334D01*
X5093955Y-2800000D01*
X5064361Y-2728553D01*
X5064353Y-2728537D01*
X4957445Y-2543369D01*
X4950278Y-2530955D01*
X4811385Y-2349946D01*
X4811380Y-2349940D01*
X4650059Y-2188619D01*
X4650052Y-2188613D01*
X4469053Y-2049728D01*
X4469051Y-2049726D01*
X4469045Y-2049722D01*
X4469040Y-2049719D01*
X4469037Y-2049717D01*
X4271462Y-1935646D01*
X4271446Y-1935638D01*
X4060666Y-1848331D01*
X4050709Y-1845663D01*
X3840283Y-1789280D01*
X3840277Y-1789279D01*
X3840272Y-1789278D01*
X3614079Y-1759500D01*
X3614078Y-1759500D01*
X3385922Y-1759500D01*
X3385921Y-1759500D01*
X3159727Y-1789278D01*
X3159720Y-1789279D01*
X3159717Y-1789280D01*
X3066567Y-1814239D01*
X2939333Y-1848331D01*
X2728553Y-1935638D01*
X2728537Y-1935646D01*
X2530962Y-2049717D01*
X2530946Y-2049728D01*
X2349947Y-2188613D01*
X2349940Y-2188619D01*
X2188619Y-2349940D01*
X2188613Y-2349947D01*
X2049728Y-2530946D01*
X2049717Y-2530962D01*
X1935646Y-2728537D01*
X1935638Y-2728553D01*
X1848331Y-2939333D01*
X1789281Y-3159714D01*
X1789278Y-3159727D01*
X1759500Y-3385921D01*
X400500Y-3385921D01*
X400500Y-524500D01*
X420185Y-457461D01*
X472989Y-411706D01*
X524500Y-400500D01*
X17438978Y-400500D01*
X17506017Y-420185D01*
G37*
%TD.AperFunction*%
%TD*%
%TA.AperFunction,NonConductor*%
G36*
X34264017Y-1659185D02*
G01*
X34284659Y-1675819D01*
X34540194Y-1931354D01*
X34573679Y-1992677D01*
X34570444Y-2057352D01*
X34526598Y-2192297D01*
X34526597Y-2192301D01*
X34501630Y-2349940D01*
X34499500Y-2363389D01*
X34499500Y-2536611D01*
X34526598Y-2707701D01*
X34546780Y-2769815D01*
X34580127Y-2872446D01*
X34583061Y-2878203D01*
X34595958Y-2946872D01*
X34569683Y-3011613D01*
X34512578Y-3051871D01*
X34472577Y-3058500D01*
X30004500Y-3058500D01*
X29937461Y-3038815D01*
X29891706Y-2986011D01*
X29880500Y-2934500D01*
X29880500Y-1856904D01*
X29880500Y-1856898D01*
X29871059Y-1778281D01*
X29882611Y-1709376D01*
X29929583Y-1657652D01*
X29994175Y-1639500D01*
X34196978Y-1639500D01*
X34264017Y-1659185D01*
G37*
%TD.AperFunction*%
%TA.AperFunction,NonConductor*%
G36*
X33897017Y-4409185D02*
G01*
X33942772Y-4461989D01*
X33952716Y-4531147D01*
X33923691Y-4594703D01*
X33917659Y-4601181D01*
X32964659Y-5554181D01*
X32903336Y-5587666D01*
X32876978Y-5590500D01*
X29911499Y-5590500D01*
X29844460Y-5570815D01*
X29798705Y-5518011D01*
X29788761Y-5448853D01*
X29798776Y-5417273D01*
X29798006Y-5416954D01*
X29799870Y-5412452D01*
X29799872Y-5412447D01*
X29799873Y-5412445D01*
X29853402Y-5247701D01*
X29880500Y-5076611D01*
X29880500Y-4903389D01*
X29853402Y-4732299D01*
X29799873Y-4567555D01*
X29799871Y-4567552D01*
X29799870Y-4567547D01*
X29798006Y-4563046D01*
X29799626Y-4562374D01*
X29788116Y-4501148D01*
X29814380Y-4436403D01*
X29871479Y-4396136D01*
X29911499Y-4389500D01*
X33829978Y-4389500D01*
X33897017Y-4409185D01*
G37*
%TD.AperFunction*%
%TA.AperFunction,NonConductor*%
G36*
X18161980Y-1961692D02*
G01*
X18217913Y-2003564D01*
X18242330Y-2069028D01*
X18242004Y-2090475D01*
X18239500Y-2114978D01*
X18239500Y-3465001D01*
X18239501Y-3465018D01*
X18250000Y-3567796D01*
X18250001Y-3567799D01*
X18305185Y-3734331D01*
X18305187Y-3734336D01*
X18340069Y-3790888D01*
X18397288Y-3883656D01*
X18521344Y-4007712D01*
X18670666Y-4099814D01*
X18837203Y-4154999D01*
X18939991Y-4165500D01*
X19840008Y-4165499D01*
X19840016Y-4165498D01*
X19840019Y-4165498D01*
X19896302Y-4159748D01*
X19942797Y-4154999D01*
X20109334Y-4099814D01*
X20258656Y-4007712D01*
X20382712Y-3883656D01*
X20474814Y-3734334D01*
X20529999Y-3567797D01*
X20540500Y-3465009D01*
X20540500Y-3274500D01*
X20560185Y-3207461D01*
X20612989Y-3161706D01*
X20664500Y-3150500D01*
X26813196Y-3150500D01*
X26880235Y-3170185D01*
X26925990Y-3222989D01*
X26928550Y-3229010D01*
X26945637Y-3272339D01*
X26945638Y-3272341D01*
X27037077Y-3392922D01*
X27157656Y-3484360D01*
X27157657Y-3484360D01*
X27157658Y-3484361D01*
X27298436Y-3539877D01*
X27386898Y-3550500D01*
X28487978Y-3550500D01*
X28517418Y-3559144D01*
X28547405Y-3565668D01*
X28552420Y-3569422D01*
X28555017Y-3570185D01*
X28575659Y-3586819D01*
X28666659Y-3677819D01*
X28700144Y-3739142D01*
X28695160Y-3808834D01*
X28653288Y-3864767D01*
X28587824Y-3889184D01*
X28578978Y-3889500D01*
X27893389Y-3889500D01*
X27879455Y-3891707D01*
X27722302Y-3916597D01*
X27557552Y-3970128D01*
X27403211Y-4048768D01*
X27263073Y-4150585D01*
X27160476Y-4253182D01*
X27099153Y-4286666D01*
X27072795Y-4289500D01*
X24631004Y-4289500D01*
X24495677Y-4316418D01*
X24495667Y-4316421D01*
X24368192Y-4369222D01*
X24253454Y-4445887D01*
X22536160Y-6163181D01*
X22474837Y-6196666D01*
X22448479Y-6199500D01*
X21664998Y-6199500D01*
X21664980Y-6199501D01*
X21562203Y-6210000D01*
X21562200Y-6210001D01*
X21395668Y-6265185D01*
X21395663Y-6265187D01*
X21246342Y-6357289D01*
X21122289Y-6481342D01*
X21030187Y-6630663D01*
X21030185Y-6630668D01*
X20975001Y-6797203D01*
X20973887Y-6808106D01*
X20947489Y-6872797D01*
X20890307Y-6912947D01*
X20850529Y-6919500D01*
X20530638Y-6919500D01*
X20463599Y-6899815D01*
X20425099Y-6860597D01*
X20357712Y-6751344D01*
X20233656Y-6627288D01*
X20084334Y-6535186D01*
X19917797Y-6480001D01*
X19917795Y-6480000D01*
X19815016Y-6469500D01*
X19815009Y-6469500D01*
X19031519Y-6469500D01*
X18964480Y-6449815D01*
X18943838Y-6433181D01*
X17896546Y-5385888D01*
X17896545Y-5385887D01*
X17781807Y-5309222D01*
X17654332Y-5256421D01*
X17654323Y-5256419D01*
X17564767Y-5238604D01*
X17502857Y-5206218D01*
X17471254Y-5155991D01*
X17469822Y-5151669D01*
X17414814Y-4985666D01*
X17322712Y-4836344D01*
X17198656Y-4712288D01*
X17049334Y-4620186D01*
X16882797Y-4565001D01*
X16882795Y-4565000D01*
X16780016Y-4554500D01*
X15895517Y-4554500D01*
X15874271Y-4548261D01*
X15852183Y-4546682D01*
X15841399Y-4538609D01*
X15828478Y-4534815D01*
X15813978Y-4518081D01*
X15796250Y-4504810D01*
X15791542Y-4492189D01*
X15782723Y-4482011D01*
X15779571Y-4460093D01*
X15771833Y-4439346D01*
X15774695Y-4426185D01*
X15772779Y-4412853D01*
X15781978Y-4392709D01*
X15786685Y-4371073D01*
X15799954Y-4353346D01*
X15801804Y-4349297D01*
X15807809Y-4342846D01*
X15948840Y-4201815D01*
X16010161Y-4168333D01*
X16036519Y-4165499D01*
X16740002Y-4165499D01*
X16740008Y-4165499D01*
X16842797Y-4154999D01*
X17009334Y-4099814D01*
X17158656Y-4007712D01*
X17282712Y-3883656D01*
X17374814Y-3734334D01*
X17429999Y-3567797D01*
X17440500Y-3465009D01*
X17440499Y-2632020D01*
X17460183Y-2564982D01*
X17476813Y-2544345D01*
X18030967Y-1990191D01*
X18092288Y-1956708D01*
X18161980Y-1961692D01*
G37*
%TD.AperFunction*%
%TA.AperFunction,NonConductor*%
G36*
X26855623Y-5710185D02*
G01*
X26901378Y-5762989D01*
X26911322Y-5832147D01*
X26882297Y-5895703D01*
X26876265Y-5902181D01*
X24744265Y-8034181D01*
X24682942Y-8067666D01*
X24656584Y-8070500D01*
X23821148Y-8070500D01*
X23754109Y-8050815D01*
X23708354Y-7998011D01*
X23698410Y-7928853D01*
X23703441Y-7907500D01*
X23704040Y-7905689D01*
X23704999Y-7902797D01*
X23715500Y-7800009D01*
X23715499Y-7016517D01*
X23735183Y-6949479D01*
X23751813Y-6928842D01*
X24953838Y-5726819D01*
X25015161Y-5693334D01*
X25041519Y-5690500D01*
X26788584Y-5690500D01*
X26855623Y-5710185D01*
G37*
%TD.AperFunction*%
%TA.AperFunction,NonConductor*%
G36*
X15000949Y-15150185D02*
G01*
X15044393Y-15198202D01*
X15048765Y-15206783D01*
X15048770Y-15206792D01*
X15091100Y-15265053D01*
X15150586Y-15346928D01*
X15150588Y-15346930D01*
X15273072Y-15469414D01*
X15314733Y-15499683D01*
X15357398Y-15555013D01*
X15363376Y-15624627D01*
X15330769Y-15686421D01*
X15314733Y-15700317D01*
X15273072Y-15730585D01*
X15150588Y-15853069D01*
X15150588Y-15853070D01*
X15150586Y-15853072D01*
X15125040Y-15888232D01*
X15048770Y-15993207D01*
X15048765Y-15993216D01*
X15044393Y-16001798D01*
X14996418Y-16052592D01*
X14933910Y-16069500D01*
X14506090Y-16069500D01*
X14439051Y-16049815D01*
X14395607Y-16001798D01*
X14391234Y-15993216D01*
X14391229Y-15993207D01*
X14361672Y-15952526D01*
X14289414Y-15853072D01*
X14166928Y-15730586D01*
X14125265Y-15700316D01*
X14082602Y-15644988D01*
X14076623Y-15575374D01*
X14109229Y-15513579D01*
X14125266Y-15499683D01*
X14166928Y-15469414D01*
X14289414Y-15346928D01*
X14391232Y-15206788D01*
X14395607Y-15198202D01*
X14443582Y-15147408D01*
X14506090Y-15130500D01*
X14933910Y-15130500D01*
X15000949Y-15150185D01*
G37*
%TD.AperFunction*%
M02*
