%TF.GenerationSoftware,KiCad,Pcbnew,9.0.7*%
%TF.CreationDate,2026-05-06T21:21:55+02:00*%
%TF.ProjectId,BarePi_TinyJoypad,42617265-5069-45f5-9469-6e794a6f7970,rev?*%
%TF.SameCoordinates,Original*%
%TF.FileFunction,Legend,Bot*%
%TF.FilePolarity,Positive*%
%FSLAX46Y46*%
G04 Gerber Fmt 4.6, Leading zero omitted, Abs format (unit mm)*
G04 Created by KiCad (PCBNEW 9.0.7) date 2026-05-06 21:21:55*
%MOMM*%
%LPD*%
G01*
G04 APERTURE LIST*
%ADD10C,0.150000*%
%ADD11C,0.120000*%
G04 APERTURE END LIST*
D10*
X24706666Y-8014819D02*
X25039999Y-7538628D01*
X25278094Y-8014819D02*
X25278094Y-7014819D01*
X25278094Y-7014819D02*
X24897142Y-7014819D01*
X24897142Y-7014819D02*
X24801904Y-7062438D01*
X24801904Y-7062438D02*
X24754285Y-7110057D01*
X24754285Y-7110057D02*
X24706666Y-7205295D01*
X24706666Y-7205295D02*
X24706666Y-7348152D01*
X24706666Y-7348152D02*
X24754285Y-7443390D01*
X24754285Y-7443390D02*
X24801904Y-7491009D01*
X24801904Y-7491009D02*
X24897142Y-7538628D01*
X24897142Y-7538628D02*
X25278094Y-7538628D01*
X23801904Y-7014819D02*
X24278094Y-7014819D01*
X24278094Y-7014819D02*
X24325713Y-7491009D01*
X24325713Y-7491009D02*
X24278094Y-7443390D01*
X24278094Y-7443390D02*
X24182856Y-7395771D01*
X24182856Y-7395771D02*
X23944761Y-7395771D01*
X23944761Y-7395771D02*
X23849523Y-7443390D01*
X23849523Y-7443390D02*
X23801904Y-7491009D01*
X23801904Y-7491009D02*
X23754285Y-7586247D01*
X23754285Y-7586247D02*
X23754285Y-7824342D01*
X23754285Y-7824342D02*
X23801904Y-7919580D01*
X23801904Y-7919580D02*
X23849523Y-7967200D01*
X23849523Y-7967200D02*
X23944761Y-8014819D01*
X23944761Y-8014819D02*
X24182856Y-8014819D01*
X24182856Y-8014819D02*
X24278094Y-7967200D01*
X24278094Y-7967200D02*
X24325713Y-7919580D01*
X46736666Y-11874819D02*
X47069999Y-11398628D01*
X47308094Y-11874819D02*
X47308094Y-10874819D01*
X47308094Y-10874819D02*
X46927142Y-10874819D01*
X46927142Y-10874819D02*
X46831904Y-10922438D01*
X46831904Y-10922438D02*
X46784285Y-10970057D01*
X46784285Y-10970057D02*
X46736666Y-11065295D01*
X46736666Y-11065295D02*
X46736666Y-11208152D01*
X46736666Y-11208152D02*
X46784285Y-11303390D01*
X46784285Y-11303390D02*
X46831904Y-11351009D01*
X46831904Y-11351009D02*
X46927142Y-11398628D01*
X46927142Y-11398628D02*
X47308094Y-11398628D01*
X46355713Y-10970057D02*
X46308094Y-10922438D01*
X46308094Y-10922438D02*
X46212856Y-10874819D01*
X46212856Y-10874819D02*
X45974761Y-10874819D01*
X45974761Y-10874819D02*
X45879523Y-10922438D01*
X45879523Y-10922438D02*
X45831904Y-10970057D01*
X45831904Y-10970057D02*
X45784285Y-11065295D01*
X45784285Y-11065295D02*
X45784285Y-11160533D01*
X45784285Y-11160533D02*
X45831904Y-11303390D01*
X45831904Y-11303390D02*
X46403332Y-11874819D01*
X46403332Y-11874819D02*
X45784285Y-11874819D01*
X40736666Y-7499580D02*
X40784285Y-7547200D01*
X40784285Y-7547200D02*
X40927142Y-7594819D01*
X40927142Y-7594819D02*
X41022380Y-7594819D01*
X41022380Y-7594819D02*
X41165237Y-7547200D01*
X41165237Y-7547200D02*
X41260475Y-7451961D01*
X41260475Y-7451961D02*
X41308094Y-7356723D01*
X41308094Y-7356723D02*
X41355713Y-7166247D01*
X41355713Y-7166247D02*
X41355713Y-7023390D01*
X41355713Y-7023390D02*
X41308094Y-6832914D01*
X41308094Y-6832914D02*
X41260475Y-6737676D01*
X41260475Y-6737676D02*
X41165237Y-6642438D01*
X41165237Y-6642438D02*
X41022380Y-6594819D01*
X41022380Y-6594819D02*
X40927142Y-6594819D01*
X40927142Y-6594819D02*
X40784285Y-6642438D01*
X40784285Y-6642438D02*
X40736666Y-6690057D01*
X39784285Y-7594819D02*
X40355713Y-7594819D01*
X40069999Y-7594819D02*
X40069999Y-6594819D01*
X40069999Y-6594819D02*
X40165237Y-6737676D01*
X40165237Y-6737676D02*
X40260475Y-6832914D01*
X40260475Y-6832914D02*
X40355713Y-6880533D01*
X43976666Y-9424819D02*
X44309999Y-8948628D01*
X44548094Y-9424819D02*
X44548094Y-8424819D01*
X44548094Y-8424819D02*
X44167142Y-8424819D01*
X44167142Y-8424819D02*
X44071904Y-8472438D01*
X44071904Y-8472438D02*
X44024285Y-8520057D01*
X44024285Y-8520057D02*
X43976666Y-8615295D01*
X43976666Y-8615295D02*
X43976666Y-8758152D01*
X43976666Y-8758152D02*
X44024285Y-8853390D01*
X44024285Y-8853390D02*
X44071904Y-8901009D01*
X44071904Y-8901009D02*
X44167142Y-8948628D01*
X44167142Y-8948628D02*
X44548094Y-8948628D01*
X43643332Y-8424819D02*
X42976666Y-8424819D01*
X42976666Y-8424819D02*
X43405237Y-9424819D01*
X14946666Y-8214819D02*
X15279999Y-7738628D01*
X15518094Y-8214819D02*
X15518094Y-7214819D01*
X15518094Y-7214819D02*
X15137142Y-7214819D01*
X15137142Y-7214819D02*
X15041904Y-7262438D01*
X15041904Y-7262438D02*
X14994285Y-7310057D01*
X14994285Y-7310057D02*
X14946666Y-7405295D01*
X14946666Y-7405295D02*
X14946666Y-7548152D01*
X14946666Y-7548152D02*
X14994285Y-7643390D01*
X14994285Y-7643390D02*
X15041904Y-7691009D01*
X15041904Y-7691009D02*
X15137142Y-7738628D01*
X15137142Y-7738628D02*
X15518094Y-7738628D01*
X14089523Y-7548152D02*
X14089523Y-8214819D01*
X14327618Y-7167200D02*
X14565713Y-7881485D01*
X14565713Y-7881485D02*
X13946666Y-7881485D01*
X21366666Y-3994819D02*
X21699999Y-3518628D01*
X21938094Y-3994819D02*
X21938094Y-2994819D01*
X21938094Y-2994819D02*
X21557142Y-2994819D01*
X21557142Y-2994819D02*
X21461904Y-3042438D01*
X21461904Y-3042438D02*
X21414285Y-3090057D01*
X21414285Y-3090057D02*
X21366666Y-3185295D01*
X21366666Y-3185295D02*
X21366666Y-3328152D01*
X21366666Y-3328152D02*
X21414285Y-3423390D01*
X21414285Y-3423390D02*
X21461904Y-3471009D01*
X21461904Y-3471009D02*
X21557142Y-3518628D01*
X21557142Y-3518628D02*
X21938094Y-3518628D01*
X20414285Y-3994819D02*
X20985713Y-3994819D01*
X20699999Y-3994819D02*
X20699999Y-2994819D01*
X20699999Y-2994819D02*
X20795237Y-3137676D01*
X20795237Y-3137676D02*
X20890475Y-3232914D01*
X20890475Y-3232914D02*
X20985713Y-3280533D01*
X49816666Y-12014819D02*
X50149999Y-11538628D01*
X50388094Y-12014819D02*
X50388094Y-11014819D01*
X50388094Y-11014819D02*
X50007142Y-11014819D01*
X50007142Y-11014819D02*
X49911904Y-11062438D01*
X49911904Y-11062438D02*
X49864285Y-11110057D01*
X49864285Y-11110057D02*
X49816666Y-11205295D01*
X49816666Y-11205295D02*
X49816666Y-11348152D01*
X49816666Y-11348152D02*
X49864285Y-11443390D01*
X49864285Y-11443390D02*
X49911904Y-11491009D01*
X49911904Y-11491009D02*
X50007142Y-11538628D01*
X50007142Y-11538628D02*
X50388094Y-11538628D01*
X49483332Y-11014819D02*
X48864285Y-11014819D01*
X48864285Y-11014819D02*
X49197618Y-11395771D01*
X49197618Y-11395771D02*
X49054761Y-11395771D01*
X49054761Y-11395771D02*
X48959523Y-11443390D01*
X48959523Y-11443390D02*
X48911904Y-11491009D01*
X48911904Y-11491009D02*
X48864285Y-11586247D01*
X48864285Y-11586247D02*
X48864285Y-11824342D01*
X48864285Y-11824342D02*
X48911904Y-11919580D01*
X48911904Y-11919580D02*
X48959523Y-11967200D01*
X48959523Y-11967200D02*
X49054761Y-12014819D01*
X49054761Y-12014819D02*
X49340475Y-12014819D01*
X49340475Y-12014819D02*
X49435713Y-11967200D01*
X49435713Y-11967200D02*
X49483332Y-11919580D01*
X16936666Y-9644819D02*
X17269999Y-9168628D01*
X17508094Y-9644819D02*
X17508094Y-8644819D01*
X17508094Y-8644819D02*
X17127142Y-8644819D01*
X17127142Y-8644819D02*
X17031904Y-8692438D01*
X17031904Y-8692438D02*
X16984285Y-8740057D01*
X16984285Y-8740057D02*
X16936666Y-8835295D01*
X16936666Y-8835295D02*
X16936666Y-8978152D01*
X16936666Y-8978152D02*
X16984285Y-9073390D01*
X16984285Y-9073390D02*
X17031904Y-9121009D01*
X17031904Y-9121009D02*
X17127142Y-9168628D01*
X17127142Y-9168628D02*
X17508094Y-9168628D01*
X16079523Y-8644819D02*
X16269999Y-8644819D01*
X16269999Y-8644819D02*
X16365237Y-8692438D01*
X16365237Y-8692438D02*
X16412856Y-8740057D01*
X16412856Y-8740057D02*
X16508094Y-8882914D01*
X16508094Y-8882914D02*
X16555713Y-9073390D01*
X16555713Y-9073390D02*
X16555713Y-9454342D01*
X16555713Y-9454342D02*
X16508094Y-9549580D01*
X16508094Y-9549580D02*
X16460475Y-9597200D01*
X16460475Y-9597200D02*
X16365237Y-9644819D01*
X16365237Y-9644819D02*
X16174761Y-9644819D01*
X16174761Y-9644819D02*
X16079523Y-9597200D01*
X16079523Y-9597200D02*
X16031904Y-9549580D01*
X16031904Y-9549580D02*
X15984285Y-9454342D01*
X15984285Y-9454342D02*
X15984285Y-9216247D01*
X15984285Y-9216247D02*
X16031904Y-9121009D01*
X16031904Y-9121009D02*
X16079523Y-9073390D01*
X16079523Y-9073390D02*
X16174761Y-9025771D01*
X16174761Y-9025771D02*
X16365237Y-9025771D01*
X16365237Y-9025771D02*
X16460475Y-9073390D01*
X16460475Y-9073390D02*
X16508094Y-9121009D01*
X16508094Y-9121009D02*
X16555713Y-9216247D01*
D11*
%TO.C,R5*%
X21430000Y-8172936D02*
X21430000Y-9627064D01*
X23250000Y-8172936D02*
X23250000Y-9627064D01*
%TO.C,R2*%
X45810000Y-7522936D02*
X45810000Y-8977064D01*
X47630000Y-7522936D02*
X47630000Y-8977064D01*
%TO.C,C1*%
X40170000Y-2868748D02*
X40170000Y-4291252D01*
X41990000Y-2868748D02*
X41990000Y-4291252D01*
%TO.C,R7*%
X43080000Y-4762936D02*
X43080000Y-6217064D01*
X44900000Y-4762936D02*
X44900000Y-6217064D01*
%TO.C,R4*%
X14052936Y-6840000D02*
X15507064Y-6840000D01*
X14052936Y-5020000D02*
X15507064Y-5020000D01*
%TO.C,R1*%
X17112936Y-3700000D02*
X18567064Y-3700000D01*
X17112936Y-1880000D02*
X18567064Y-1880000D01*
%TO.C,R3*%
X48700000Y-7722936D02*
X48700000Y-9177064D01*
X50520000Y-7722936D02*
X50520000Y-9177064D01*
%TO.C,R6*%
X18230000Y-8442936D02*
X18230000Y-9897064D01*
X20050000Y-8442936D02*
X20050000Y-9897064D01*
%TD*%
M02*
