M48
; DRILL file {KiCad 9.0.7} date 2026-05-06T21:21:58+0200
; FORMAT={-:-/ absolute / metric / decimal}
; #@! TF.CreationDate,2026-05-06T21:21:58+02:00
; #@! TF.GenerationSoftware,Kicad,Pcbnew,9.0.7
; #@! TF.FileFunction,Plated,1,2,PTH
FMAT,2
METRIC
; #@! TA.AperFunction,Plated,PTH,ViaDrill
T1C0.600
; #@! TA.AperFunction,Plated,PTH,ComponentDrill
T2C0.800
; #@! TA.AperFunction,Plated,PTH,ComponentDrill
T3C1.000
%
G90
G05
T1
X17.11Y-11.4
X38.87Y-10.21
T2
X28.38Y-2.45
X28.38Y-4.99
X28.38Y-7.53
X28.38Y-10.07
X36.0Y-2.45
X36.0Y-4.99
X36.0Y-7.53
X36.0Y-10.07
T3
X8.37Y-14.33
X8.37Y-16.87
X10.91Y-14.33
X10.91Y-16.87
X13.45Y-14.33
X13.45Y-16.87
X15.99Y-14.33
X15.99Y-16.87
X18.53Y-14.33
X18.53Y-16.87
X21.07Y-14.33
X21.07Y-16.87
X23.61Y-14.33
X23.61Y-16.87
X26.15Y-14.33
X26.15Y-16.87
X28.69Y-14.33
X28.69Y-16.87
X31.23Y-14.33
X31.23Y-16.87
X33.77Y-14.33
X33.77Y-16.87
X36.31Y-14.33
X36.31Y-16.87
X38.85Y-14.33
X38.85Y-16.87
X41.39Y-14.33
X41.39Y-16.87
X43.93Y-14.33
X43.93Y-16.87
X46.47Y-14.33
X46.47Y-16.87
X49.01Y-14.33
X49.01Y-16.87
X51.55Y-14.33
X51.55Y-16.87
X54.09Y-14.33
X54.09Y-16.87
X56.63Y-14.33
X56.63Y-16.87
M30
