%TF.GenerationSoftware,KiCad,Pcbnew,9.0.7*%
%TF.CreationDate,2026-05-06T21:21:56+02:00*%
%TF.ProjectId,BarePi_TinyJoypad,42617265-5069-45f5-9469-6e794a6f7970,rev?*%
%TF.SameCoordinates,Original*%
%TF.FileFunction,AssemblyDrawing,Bot*%
%FSLAX46Y46*%
G04 Gerber Fmt 4.6, Leading zero omitted, Abs format (unit mm)*
G04 Created by KiCad (PCBNEW 9.0.7) date 2026-05-06 21:21:56*
%MOMM*%
%LPD*%
G01*
G04 APERTURE LIST*
%ADD10C,0.100000*%
G04 APERTURE END LIST*
%TO.C,R5*%
D10*
X21540000Y-7300000D02*
X23140000Y-7300000D01*
X23140000Y-10500000D01*
X21540000Y-10500000D01*
X21540000Y-7300000D01*
%TO.C,R2*%
X45920000Y-6650000D02*
X47520000Y-6650000D01*
X47520000Y-9850000D01*
X45920000Y-9850000D01*
X45920000Y-6650000D01*
%TO.C,C1*%
X40280000Y-1980000D02*
X41880000Y-1980000D01*
X41880000Y-5180000D01*
X40280000Y-5180000D01*
X40280000Y-1980000D01*
%TO.C,R7*%
X43190000Y-3890000D02*
X44790000Y-3890000D01*
X44790000Y-7090000D01*
X43190000Y-7090000D01*
X43190000Y-3890000D01*
%TO.C,R4*%
X13180000Y-6730000D02*
X16380000Y-6730000D01*
X16380000Y-5130000D01*
X13180000Y-5130000D01*
X13180000Y-6730000D01*
%TO.C,R1*%
X16240000Y-3590000D02*
X19440000Y-3590000D01*
X19440000Y-1990000D01*
X16240000Y-1990000D01*
X16240000Y-3590000D01*
%TO.C,R3*%
X48810000Y-6850000D02*
X50410000Y-6850000D01*
X50410000Y-10050000D01*
X48810000Y-10050000D01*
X48810000Y-6850000D01*
%TO.C,R6*%
X18340000Y-7570000D02*
X19940000Y-7570000D01*
X19940000Y-10770000D01*
X18340000Y-10770000D01*
X18340000Y-7570000D01*
%TD*%
M02*
