%TF.GenerationSoftware,KiCad,Pcbnew,9.0.7*%
%TF.CreationDate,2026-05-06T21:16:24+02:00*%
%TF.ProjectId,BarePi_OLED128x64,42617265-5069-45f4-9f4c-454431323878,rev?*%
%TF.SameCoordinates,Original*%
%TF.FileFunction,Legend,Bot*%
%TF.FilePolarity,Positive*%
%FSLAX46Y46*%
G04 Gerber Fmt 4.6, Leading zero omitted, Abs format (unit mm)*
G04 Created by KiCad (PCBNEW 9.0.7) date 2026-05-06 21:16:24*
%MOMM*%
%LPD*%
G01*
G04 APERTURE LIST*
%ADD10C,0.150000*%
G04 APERTURE END LIST*
D10*
X5763533Y-32461419D02*
X5763533Y-33175704D01*
X5763533Y-33175704D02*
X5811152Y-33318561D01*
X5811152Y-33318561D02*
X5906390Y-33413800D01*
X5906390Y-33413800D02*
X6049247Y-33461419D01*
X6049247Y-33461419D02*
X6144485Y-33461419D01*
X5334961Y-32556657D02*
X5287342Y-32509038D01*
X5287342Y-32509038D02*
X5192104Y-32461419D01*
X5192104Y-32461419D02*
X4954009Y-32461419D01*
X4954009Y-32461419D02*
X4858771Y-32509038D01*
X4858771Y-32509038D02*
X4811152Y-32556657D01*
X4811152Y-32556657D02*
X4763533Y-32651895D01*
X4763533Y-32651895D02*
X4763533Y-32747133D01*
X4763533Y-32747133D02*
X4811152Y-32889990D01*
X4811152Y-32889990D02*
X5382580Y-33461419D01*
X5382580Y-33461419D02*
X4763533Y-33461419D01*
X5359411Y-36809819D02*
X5930839Y-36809819D01*
X5645125Y-36809819D02*
X5645125Y-35809819D01*
X5645125Y-35809819D02*
X5740363Y-35952676D01*
X5740363Y-35952676D02*
X5835601Y-36047914D01*
X5835601Y-36047914D02*
X5930839Y-36095533D01*
X6023333Y-7624819D02*
X6023333Y-8339104D01*
X6023333Y-8339104D02*
X6070952Y-8481961D01*
X6070952Y-8481961D02*
X6166190Y-8577200D01*
X6166190Y-8577200D02*
X6309047Y-8624819D01*
X6309047Y-8624819D02*
X6404285Y-8624819D01*
X5023333Y-8624819D02*
X5594761Y-8624819D01*
X5309047Y-8624819D02*
X5309047Y-7624819D01*
X5309047Y-7624819D02*
X5404285Y-7767676D01*
X5404285Y-7767676D02*
X5499523Y-7862914D01*
X5499523Y-7862914D02*
X5594761Y-7910533D01*
X5459411Y-6939819D02*
X6030839Y-6939819D01*
X5745125Y-6939819D02*
X5745125Y-5939819D01*
X5745125Y-5939819D02*
X5840363Y-6082676D01*
X5840363Y-6082676D02*
X5935601Y-6177914D01*
X5935601Y-6177914D02*
X6030839Y-6225533D01*
M02*
