%TF.GenerationSoftware,KiCad,Pcbnew,9.0.7*%
%TF.CreationDate,2026-05-23T10:15:05+02:00*%
%TF.ProjectId,BarePi_MegaTinyJoypad,42617265-5069-45f4-9d65-676154696e79,rev?*%
%TF.SameCoordinates,Original*%
%TF.FileFunction,Soldermask,Bot*%
%TF.FilePolarity,Negative*%
%FSLAX46Y46*%
G04 Gerber Fmt 4.6, Leading zero omitted, Abs format (unit mm)*
G04 Created by KiCad (PCBNEW 9.0.7) date 2026-05-23 10:15:05*
%MOMM*%
%LPD*%
G01*
G04 APERTURE LIST*
G04 Aperture macros list*
%AMRoundRect*
0 Rectangle with rounded corners*
0 $1 Rounding radius*
0 $2 $3 $4 $5 $6 $7 $8 $9 X,Y pos of 4 corners*
0 Add a 4 corners polygon primitive as box body*
4,1,4,$2,$3,$4,$5,$6,$7,$8,$9,$2,$3,0*
0 Add four circle primitives for the rounded corners*
1,1,$1+$1,$2,$3*
1,1,$1+$1,$4,$5*
1,1,$1+$1,$6,$7*
1,1,$1+$1,$8,$9*
0 Add four rect primitives between the rounded corners*
20,1,$1+$1,$2,$3,$4,$5,0*
20,1,$1+$1,$4,$5,$6,$7,0*
20,1,$1+$1,$6,$7,$8,$9,0*
20,1,$1+$1,$8,$9,$2,$3,0*%
%AMOutline4P*
0 Free polygon, 4 corners , with rotation*
0 The origin of the aperture is its center*
0 number of corners: always 4*
0 $1 to $8 corner X, Y*
0 $9 Rotation angle, in degrees counterclockwise*
0 create outline with 4 corners*
4,1,4,$1,$2,$3,$4,$5,$6,$7,$8,$1,$2,$9*%
G04 Aperture macros list end*
%ADD10RoundRect,0.250000X0.545000X0.445000X-0.545000X0.445000X-0.545000X-0.445000X0.545000X-0.445000X0*%
%ADD11C,3.000000*%
%ADD12Outline4P,-1.600000X-0.800000X1.600000X-0.800000X1.600000X0.800000X-1.600000X0.800000X0.000000*%
%ADD13O,3.200000X1.600000*%
%ADD14Outline4P,-1.500000X-0.800000X1.500000X-0.800000X1.500000X0.800000X-1.500000X0.800000X270.000000*%
%ADD15O,1.600000X3.000000*%
G04 APERTURE END LIST*
D10*
%TO.C,C1*%
X11045000Y-21565000D03*
X8165000Y-21565000D03*
%TD*%
D11*
%TO.C,REF\u002A\u002A*%
X61500000Y-3500000D03*
%TD*%
%TO.C,REF\u002A\u002A*%
X3500000Y-34500000D03*
%TD*%
D12*
%TO.C,J3*%
X46250000Y-3000000D03*
D13*
X46250000Y-5540000D03*
X46250000Y-8080000D03*
X46250000Y-10620000D03*
X46250000Y-13160000D03*
X46250000Y-15700000D03*
X46250000Y-18240000D03*
X46250000Y-20780000D03*
%TD*%
D14*
%TO.C,J1*%
X8370000Y-29270000D03*
D15*
X8370000Y-25930000D03*
X10910000Y-29270000D03*
X10910000Y-25930000D03*
X13450000Y-29270000D03*
X13450000Y-25930000D03*
X15990000Y-29270000D03*
X15990000Y-25930000D03*
X18530000Y-29270000D03*
X18530000Y-25930000D03*
X21070000Y-29270000D03*
X21070000Y-25930000D03*
X23610000Y-29270000D03*
X23610000Y-25930000D03*
X26150000Y-29270000D03*
X26150000Y-25930000D03*
X28690000Y-29270000D03*
X28690000Y-25930000D03*
X31230000Y-29270000D03*
X31230000Y-25930000D03*
X33770000Y-29270000D03*
X33770000Y-25930000D03*
X36310000Y-29270000D03*
X36310000Y-25930000D03*
X38850000Y-29270000D03*
X38850000Y-25930000D03*
X41390000Y-29270000D03*
X41390000Y-25930000D03*
X43930000Y-29270000D03*
X43930000Y-25930000D03*
X46470000Y-29270000D03*
X46470000Y-25930000D03*
X49010000Y-29270000D03*
X49010000Y-25930000D03*
X51550000Y-29270000D03*
X51550000Y-25930000D03*
X54090000Y-29270000D03*
X54090000Y-25930000D03*
X56630000Y-29270000D03*
X56630000Y-25930000D03*
%TD*%
D11*
%TO.C,REF\u002A\u002A*%
X61500000Y-34500000D03*
%TD*%
D12*
%TO.C,J2*%
X18750000Y-3000000D03*
D13*
X18750000Y-5540000D03*
X18750000Y-8080000D03*
X18750000Y-10620000D03*
X18750000Y-13160000D03*
X18750000Y-15700000D03*
X18750000Y-18240000D03*
X18750000Y-20780000D03*
%TD*%
D11*
%TO.C,REF\u002A\u002A*%
X3500000Y-3500000D03*
%TD*%
M02*
