M48
; DRILL file {KiCad 9.0.7} date 2026-05-23T10:15:07+0200
; FORMAT={-:-/ absolute / metric / decimal}
; #@! TF.CreationDate,2026-05-23T10:15:07+02:00
; #@! TF.GenerationSoftware,Kicad,Pcbnew,9.0.7
; #@! TF.FileFunction,Plated,1,2,PTH
FMAT,2
METRIC
; #@! TA.AperFunction,Plated,PTH,ViaDrill
T1C0.600
; #@! TA.AperFunction,Plated,PTH,ComponentDrill
T2C1.000
%
G90
G05
T1
X13.965Y-19.465
X15.23Y-5.52
X18.348Y-23.942
X21.8Y-5.27
X21.83Y-3.24
X21.91Y-9.87
X22.01Y-23.392
X22.106Y-14.377
X22.116Y-12.25
X22.623Y-16.205
X24.684Y-18.265
X29.16Y-22.86
X29.21Y-19.86
X31.12Y-19.74
X32.173Y-22.198
X33.87Y-22.3
X38.804Y-22.34
X40.46Y-23.24
X42.89Y-5.81
X42.89Y-17.2
X42.92Y-14.83
X42.94Y-3.78
X43.009Y-19.037
X43.085Y-10.285
X43.1Y-8.02
X43.18Y-12.55
X51.16Y-22.0
T2
X8.37Y-26.33
X8.37Y-28.87
X10.91Y-26.33
X10.91Y-28.87
X13.45Y-26.33
X13.45Y-28.87
X15.99Y-26.33
X15.99Y-28.87
X18.53Y-26.33
X18.53Y-28.87
X18.75Y-3.0
X18.75Y-5.54
X18.75Y-8.08
X18.75Y-10.62
X18.75Y-13.16
X18.75Y-15.7
X18.75Y-18.24
X18.75Y-20.78
X21.07Y-26.33
X21.07Y-28.87
X23.61Y-26.33
X23.61Y-28.87
X26.15Y-26.33
X26.15Y-28.87
X28.69Y-26.33
X28.69Y-28.87
X31.23Y-26.33
X31.23Y-28.87
X33.77Y-26.33
X33.77Y-28.87
X36.31Y-26.33
X36.31Y-28.87
X38.85Y-26.33
X38.85Y-28.87
X41.39Y-26.33
X41.39Y-28.87
X43.93Y-26.33
X43.93Y-28.87
X46.25Y-3.0
X46.25Y-5.54
X46.25Y-8.08
X46.25Y-10.62
X46.25Y-13.16
X46.25Y-15.7
X46.25Y-18.24
X46.25Y-20.78
X46.47Y-26.33
X46.47Y-28.87
X49.01Y-26.33
X49.01Y-28.87
X51.55Y-26.33
X51.55Y-28.87
X54.09Y-26.33
X54.09Y-28.87
X56.63Y-26.33
X56.63Y-28.87
M30
