%TF.GenerationSoftware,KiCad,Pcbnew,9.0.7*%
%TF.CreationDate,2026-05-23T10:15:05+02:00*%
%TF.ProjectId,BarePi_MegaTinyJoypad,42617265-5069-45f4-9d65-676154696e79,rev?*%
%TF.SameCoordinates,Original*%
%TF.FileFunction,Copper,L1,Top*%
%TF.FilePolarity,Positive*%
%FSLAX46Y46*%
G04 Gerber Fmt 4.6, Leading zero omitted, Abs format (unit mm)*
G04 Created by KiCad (PCBNEW 9.0.7) date 2026-05-23 10:15:05*
%MOMM*%
%LPD*%
G01*
G04 APERTURE LIST*
G04 Aperture macros list*
%AMOutline4P*
0 Free polygon, 4 corners , with rotation*
0 The origin of the aperture is its center*
0 number of corners: always 4*
0 $1 to $8 corner X, Y*
0 $9 Rotation angle, in degrees counterclockwise*
0 create outline with 4 corners*
4,1,4,$1,$2,$3,$4,$5,$6,$7,$8,$1,$2,$9*%
G04 Aperture macros list end*
%TA.AperFunction,NonConductor*%
%ADD10C,0.500000*%
%TD*%
%ADD11C,0.375000*%
%ADD12C,0.500000*%
%TA.AperFunction,SMDPad,CuDef*%
%ADD13R,2.500000X1.000000*%
%TD*%
%TA.AperFunction,ComponentPad*%
%ADD14Outline4P,-1.600000X-0.800000X1.600000X-0.800000X1.600000X0.800000X-1.600000X0.800000X0.000000*%
%TD*%
%TA.AperFunction,ComponentPad*%
%ADD15O,3.200000X1.600000*%
%TD*%
%TA.AperFunction,ComponentPad*%
%ADD16Outline4P,-1.500000X-0.800000X1.500000X-0.800000X1.500000X0.800000X-1.500000X0.800000X270.000000*%
%TD*%
%TA.AperFunction,ComponentPad*%
%ADD17O,1.600000X3.000000*%
%TD*%
%TA.AperFunction,ViaPad*%
%ADD18C,1.600000*%
%TD*%
%TA.AperFunction,ViaPad*%
%ADD19C,1.400000*%
%TD*%
%TA.AperFunction,Conductor*%
%ADD20C,0.330000*%
%TD*%
%TA.AperFunction,Conductor*%
%ADD21C,0.400000*%
%TD*%
G04 APERTURE END LIST*
D10*
X22760000Y-2060000D02*
G75*
G02*
X22560000Y-2060000I-100000J0D01*
G01*
X22560000Y-2060000D02*
G75*
G02*
X22760000Y-2060000I100000J0D01*
G01*
D11*
G36*
X2770000Y-12784163D02*
G01*
X1515568Y-12784163D01*
X1515568Y-13229937D01*
X1263510Y-13229937D01*
X1263510Y-12036139D01*
X1515568Y-12036139D01*
X1515568Y-12480905D01*
X2770000Y-12480905D01*
X2770000Y-12784163D01*
G37*
G36*
X2169752Y-10491504D02*
G01*
X2298355Y-10516883D01*
X2410302Y-10557155D01*
X2507954Y-10611590D01*
X2593137Y-10680316D01*
X2666222Y-10763203D01*
X2723126Y-10855889D01*
X2764562Y-10959755D01*
X2790328Y-11076705D01*
X2799309Y-11209071D01*
X2790320Y-11343311D01*
X2764578Y-11461528D01*
X2723267Y-11566131D01*
X2666667Y-11659093D01*
X2594145Y-11741857D01*
X2509265Y-11810745D01*
X2412311Y-11865202D01*
X2301529Y-11905413D01*
X2174639Y-11930710D01*
X2028936Y-11939602D01*
X1876294Y-11931132D01*
X1748686Y-11907528D01*
X1642239Y-11870908D01*
X1533072Y-11810450D01*
X1435518Y-11731140D01*
X1378755Y-11668950D01*
X1333799Y-11604324D01*
X1299688Y-11536876D01*
X1267349Y-11441570D01*
X1247125Y-11334274D01*
X1240062Y-11213101D01*
X1240267Y-11210079D01*
X1497983Y-11210079D01*
X1506529Y-11301544D01*
X1531083Y-11380954D01*
X1571135Y-11450675D01*
X1627676Y-11512329D01*
X1694847Y-11559371D01*
X1779645Y-11595182D01*
X1885987Y-11618569D01*
X2018678Y-11627093D01*
X2148665Y-11618482D01*
X2254232Y-11594696D01*
X2339726Y-11557971D01*
X2408673Y-11509307D01*
X2467089Y-11445925D01*
X2508023Y-11375980D01*
X2532835Y-11298064D01*
X2541388Y-11210079D01*
X2532866Y-11122025D01*
X2508189Y-11044372D01*
X2467560Y-10974979D01*
X2409680Y-10912408D01*
X2341417Y-10864662D01*
X2255543Y-10828369D01*
X2148175Y-10804702D01*
X2014556Y-10796087D01*
X1882249Y-10804524D01*
X1776503Y-10827640D01*
X1692451Y-10862971D01*
X1626119Y-10909294D01*
X1570380Y-10970106D01*
X1530799Y-11039271D01*
X1506470Y-11118454D01*
X1497983Y-11210079D01*
X1240267Y-11210079D01*
X1249057Y-11080398D01*
X1274873Y-10963016D01*
X1316412Y-10858642D01*
X1373476Y-10765385D01*
X1446783Y-10681873D01*
X1532178Y-10612647D01*
X1630240Y-10557794D01*
X1742834Y-10517191D01*
X1872370Y-10491588D01*
X2021700Y-10482571D01*
X2169752Y-10491504D01*
G37*
G36*
X1818144Y-9100982D02*
G01*
X1895084Y-9118124D01*
X1959968Y-9145067D01*
X2019708Y-9182456D01*
X2068806Y-9224935D01*
X2108437Y-9272653D01*
X2153875Y-9352078D01*
X2179787Y-9430006D01*
X2195119Y-9550802D01*
X2201402Y-9744622D01*
X2201402Y-9942367D01*
X2770000Y-9942367D01*
X2770000Y-10245625D01*
X1263510Y-10245625D01*
X1263510Y-9795821D01*
X1515568Y-9795821D01*
X1515568Y-9942367D01*
X1949344Y-9942367D01*
X1949344Y-9776404D01*
X1941703Y-9611871D01*
X1925347Y-9536618D01*
X1894333Y-9482364D01*
X1850334Y-9441822D01*
X1795771Y-9416269D01*
X1731448Y-9407475D01*
X1677655Y-9413141D01*
X1632374Y-9429295D01*
X1593787Y-9455652D01*
X1562198Y-9490552D01*
X1539738Y-9530830D01*
X1526010Y-9577560D01*
X1518908Y-9645445D01*
X1515568Y-9795821D01*
X1263510Y-9795821D01*
X1263510Y-9758910D01*
X1270872Y-9505935D01*
X1286133Y-9398224D01*
X1317271Y-9317388D01*
X1365826Y-9245775D01*
X1433594Y-9181978D01*
X1513465Y-9134949D01*
X1609830Y-9105403D01*
X1726777Y-9094875D01*
X1818144Y-9100982D01*
G37*
D12*
G36*
X17583677Y-33657218D02*
G01*
X17715614Y-33671252D01*
X17827077Y-33702145D01*
X17924686Y-33754050D01*
X18008396Y-33826546D01*
X18078314Y-33921723D01*
X18112268Y-33993657D01*
X18132834Y-34071431D01*
X18139864Y-34156441D01*
X18131367Y-34248252D01*
X18106218Y-34333992D01*
X18064026Y-34415216D01*
X18007467Y-34487162D01*
X17939359Y-34545713D01*
X17858374Y-34591803D01*
X17974200Y-34637488D01*
X18066772Y-34698303D01*
X18139741Y-34774253D01*
X18194071Y-34864405D01*
X18226885Y-34964491D01*
X18238171Y-35077236D01*
X18231206Y-35167247D01*
X18210234Y-35255833D01*
X18174668Y-35343949D01*
X18126442Y-35425571D01*
X18068743Y-35494165D01*
X18001134Y-35551067D01*
X17924539Y-35594947D01*
X17834913Y-35626960D01*
X17729902Y-35646322D01*
X17594189Y-35654103D01*
X17242149Y-35660000D01*
X16560467Y-35660000D01*
X16560467Y-35323921D01*
X16964933Y-35323921D01*
X17339236Y-35323921D01*
X17538316Y-35319813D01*
X17616573Y-35311587D01*
X17698988Y-35282803D01*
X17763363Y-35231109D01*
X17794044Y-35185407D01*
X17813272Y-35129238D01*
X17820150Y-35059773D01*
X17808758Y-34974299D01*
X17776430Y-34905778D01*
X17723994Y-34851786D01*
X17650035Y-34813576D01*
X17543555Y-34794071D01*
X17291486Y-34784633D01*
X16964933Y-34784633D01*
X16964933Y-35323921D01*
X16560467Y-35323921D01*
X16560467Y-34448555D01*
X16964933Y-34448555D01*
X17229937Y-34448555D01*
X17523761Y-34441716D01*
X17618760Y-34416758D01*
X17686915Y-34370397D01*
X17719467Y-34327637D01*
X17739377Y-34276499D01*
X17746388Y-34214570D01*
X17732966Y-34129063D01*
X17695097Y-34064361D01*
X17657361Y-34032072D01*
X17607639Y-34008462D01*
X17542812Y-33994263D01*
X17197208Y-33987424D01*
X16964933Y-33987424D01*
X16964933Y-34448555D01*
X16560467Y-34448555D01*
X16560467Y-33651346D01*
X17361095Y-33651346D01*
X17583677Y-33657218D01*
G37*
G36*
X19315771Y-34175561D02*
G01*
X19439616Y-34197331D01*
X19526186Y-34228370D01*
X19605049Y-34275203D01*
X19662847Y-34326933D01*
X19703140Y-34383709D01*
X19728154Y-34449952D01*
X19746870Y-34559464D01*
X19754431Y-34729434D01*
X19750401Y-35180307D01*
X19755880Y-35360026D01*
X19768841Y-35464117D01*
X19794341Y-35556053D01*
X19837840Y-35660000D01*
X19458042Y-35660000D01*
X19421162Y-35548136D01*
X19407484Y-35503684D01*
X19304099Y-35590299D01*
X19197069Y-35650230D01*
X19081875Y-35686748D01*
X18957955Y-35699078D01*
X18846444Y-35690589D01*
X18752315Y-35666648D01*
X18672539Y-35628670D01*
X18604780Y-35576835D01*
X18548268Y-35511621D01*
X18508386Y-35439438D01*
X18484091Y-35358837D01*
X18475698Y-35267745D01*
X18479150Y-35226468D01*
X18859525Y-35226468D01*
X18866193Y-35278043D01*
X18885900Y-35324216D01*
X18919609Y-35366542D01*
X18962779Y-35399014D01*
X19013089Y-35418673D01*
X19072627Y-35425526D01*
X19139707Y-35418140D01*
X19205293Y-35395726D01*
X19270708Y-35356894D01*
X19329063Y-35298089D01*
X19362299Y-35229277D01*
X19372585Y-35168754D01*
X19377320Y-35041210D01*
X19377320Y-34964396D01*
X19143702Y-35023381D01*
X18998513Y-35061684D01*
X18934630Y-35090669D01*
X18891946Y-35130751D01*
X18867679Y-35175358D01*
X18859525Y-35226468D01*
X18479150Y-35226468D01*
X18482450Y-35187018D01*
X18502111Y-35114025D01*
X18534438Y-35047316D01*
X18578669Y-34987986D01*
X18633148Y-34938799D01*
X18699058Y-34899061D01*
X18817588Y-34854009D01*
X19004361Y-34809057D01*
X19252080Y-34754803D01*
X19377320Y-34714291D01*
X19377320Y-34674968D01*
X19370146Y-34601107D01*
X19351215Y-34548902D01*
X19322610Y-34512669D01*
X19282580Y-34488542D01*
X19217343Y-34471146D01*
X19116347Y-34464187D01*
X19021328Y-34475625D01*
X18956490Y-34505830D01*
X18907393Y-34558843D01*
X18863677Y-34651765D01*
X18515265Y-34589239D01*
X18566408Y-34452986D01*
X18633931Y-34348690D01*
X18717376Y-34270624D01*
X18790197Y-34228768D01*
X18882567Y-34196367D01*
X18998741Y-34175003D01*
X19143702Y-34167187D01*
X19315771Y-34175561D01*
G37*
G36*
X20499616Y-35660000D02*
G01*
X20115666Y-35660000D01*
X20115666Y-34206266D01*
X20472261Y-34206266D01*
X20472261Y-34412529D01*
X20566466Y-34282019D01*
X20636880Y-34216769D01*
X20714439Y-34179735D01*
X20802843Y-34167187D01*
X20888380Y-34175062D01*
X20972229Y-34198835D01*
X21055635Y-34239483D01*
X20936811Y-34573852D01*
X20839432Y-34525476D01*
X20756437Y-34511081D01*
X20680969Y-34522618D01*
X20619783Y-34555900D01*
X20572938Y-34613087D01*
X20531734Y-34717711D01*
X20510001Y-34866422D01*
X20499616Y-35208150D01*
X20499616Y-35660000D01*
G37*
G36*
X21932360Y-34181650D02*
G01*
X22067627Y-34222852D01*
X22184021Y-34289424D01*
X22284665Y-34382609D01*
X22346819Y-34469429D01*
X22397105Y-34575098D01*
X22434687Y-34703009D01*
X22457768Y-34857266D01*
X22463695Y-35042554D01*
X21501866Y-35042554D01*
X21515189Y-35152666D01*
X21546728Y-35239278D01*
X21594801Y-35307435D01*
X21659030Y-35360127D01*
X21731834Y-35391355D01*
X21816085Y-35402079D01*
X21900527Y-35389601D01*
X21967760Y-35353963D01*
X22019593Y-35294702D01*
X22060694Y-35198869D01*
X22443178Y-35261395D01*
X22382518Y-35396163D01*
X22304936Y-35503406D01*
X22210171Y-35587215D01*
X22099085Y-35647786D01*
X21967895Y-35685673D01*
X21811933Y-35699078D01*
X21660162Y-35687823D01*
X21531814Y-35656079D01*
X21422888Y-35605773D01*
X21330257Y-35537267D01*
X21251884Y-35449340D01*
X21190979Y-35346615D01*
X21146250Y-35229835D01*
X21118221Y-35096626D01*
X21108391Y-34944124D01*
X21118294Y-34808080D01*
X21508705Y-34808080D01*
X22082554Y-34808080D01*
X22069813Y-34698662D01*
X22040393Y-34615190D01*
X21996458Y-34551870D01*
X21937257Y-34502770D01*
X21871589Y-34473980D01*
X21797034Y-34464187D01*
X21717327Y-34474673D01*
X21649045Y-34505175D01*
X21589305Y-34556755D01*
X21545330Y-34622846D01*
X21517942Y-34705126D01*
X21508705Y-34808080D01*
X21118294Y-34808080D01*
X21121641Y-34762094D01*
X21158844Y-34609532D01*
X21217492Y-34481356D01*
X21296947Y-34373572D01*
X21397984Y-34282894D01*
X21509468Y-34219194D01*
X21633624Y-34180523D01*
X21773709Y-34167187D01*
X21932360Y-34181650D01*
G37*
G36*
X23764777Y-33661162D02*
G01*
X23908391Y-33681510D01*
X24016172Y-33723028D01*
X24111657Y-33787768D01*
X24196720Y-33878126D01*
X24259425Y-33984620D01*
X24298820Y-34113107D01*
X24312857Y-34269036D01*
X24304715Y-34390859D01*
X24281858Y-34493445D01*
X24245935Y-34579958D01*
X24196082Y-34659611D01*
X24139444Y-34725075D01*
X24075820Y-34777916D01*
X23969920Y-34838500D01*
X23866015Y-34873049D01*
X23704955Y-34893492D01*
X23446528Y-34901870D01*
X23182868Y-34901870D01*
X23182868Y-35660000D01*
X22778524Y-35660000D01*
X22778524Y-34565792D01*
X23182868Y-34565792D01*
X23404152Y-34565792D01*
X23623530Y-34555604D01*
X23723866Y-34533796D01*
X23796205Y-34492444D01*
X23850261Y-34433778D01*
X23884332Y-34361028D01*
X23896057Y-34275265D01*
X23888502Y-34203540D01*
X23866964Y-34143165D01*
X23831821Y-34091716D01*
X23785287Y-34049598D01*
X23731584Y-34019651D01*
X23669277Y-34001346D01*
X23578763Y-33991877D01*
X23378262Y-33987424D01*
X23182868Y-33987424D01*
X23182868Y-34565792D01*
X22778524Y-34565792D01*
X22778524Y-33651346D01*
X23427477Y-33651346D01*
X23764777Y-33661162D01*
G37*
G36*
X24641852Y-34003056D02*
G01*
X24641852Y-33651346D01*
X25025680Y-33651346D01*
X25025680Y-34003056D01*
X24641852Y-34003056D01*
G37*
G36*
X24641852Y-35660000D02*
G01*
X24641852Y-34206266D01*
X25025680Y-34206266D01*
X25025680Y-35660000D01*
X24641852Y-35660000D01*
G37*
G36*
X26194382Y-35660000D02*
G01*
X26194382Y-33651346D01*
X26799616Y-33651346D01*
X27163049Y-35021549D01*
X27522330Y-33651346D01*
X28129030Y-33651346D01*
X28129030Y-35660000D01*
X27753262Y-35660000D01*
X27753262Y-34078893D01*
X27355757Y-35660000D01*
X26966312Y-35660000D01*
X26570150Y-34078893D01*
X26570150Y-35660000D01*
X26194382Y-35660000D01*
G37*
G36*
X29240106Y-34181650D02*
G01*
X29375373Y-34222852D01*
X29491767Y-34289424D01*
X29592411Y-34382609D01*
X29654565Y-34469429D01*
X29704851Y-34575098D01*
X29742433Y-34703009D01*
X29765514Y-34857266D01*
X29771441Y-35042554D01*
X28809612Y-35042554D01*
X28822935Y-35152666D01*
X28854474Y-35239278D01*
X28902547Y-35307435D01*
X28966776Y-35360127D01*
X29039580Y-35391355D01*
X29123831Y-35402079D01*
X29208273Y-35389601D01*
X29275506Y-35353963D01*
X29327339Y-35294702D01*
X29368440Y-35198869D01*
X29750924Y-35261395D01*
X29690264Y-35396163D01*
X29612682Y-35503406D01*
X29517917Y-35587215D01*
X29406831Y-35647786D01*
X29275641Y-35685673D01*
X29119679Y-35699078D01*
X28967908Y-35687823D01*
X28839560Y-35656079D01*
X28730633Y-35605773D01*
X28638003Y-35537267D01*
X28559630Y-35449340D01*
X28498725Y-35346615D01*
X28453996Y-35229835D01*
X28425967Y-35096626D01*
X28416137Y-34944124D01*
X28426040Y-34808080D01*
X28816451Y-34808080D01*
X29390300Y-34808080D01*
X29377559Y-34698662D01*
X29348139Y-34615190D01*
X29304204Y-34551870D01*
X29245003Y-34502770D01*
X29179335Y-34473980D01*
X29104780Y-34464187D01*
X29025073Y-34474673D01*
X28956791Y-34505175D01*
X28897051Y-34556755D01*
X28853076Y-34622846D01*
X28825688Y-34705126D01*
X28816451Y-34808080D01*
X28426040Y-34808080D01*
X28429387Y-34762094D01*
X28466590Y-34609532D01*
X28525238Y-34481356D01*
X28604693Y-34373572D01*
X28705730Y-34282894D01*
X28817214Y-34219194D01*
X28941370Y-34180523D01*
X29081455Y-34167187D01*
X29240106Y-34181650D01*
G37*
G36*
X30737656Y-34181981D02*
G01*
X30852303Y-34225416D01*
X30956963Y-34298662D01*
X31053594Y-34406179D01*
X31053594Y-34206266D01*
X31412875Y-34206266D01*
X31412875Y-35513332D01*
X31407028Y-35686941D01*
X31391864Y-35811891D01*
X31370499Y-35898747D01*
X31317732Y-36015699D01*
X31251552Y-36099026D01*
X31165404Y-36162057D01*
X31047365Y-36212843D01*
X30910723Y-36242662D01*
X30724354Y-36253998D01*
X30533002Y-36243761D01*
X30387991Y-36216473D01*
X30279969Y-36176282D01*
X30201064Y-36125771D01*
X30132604Y-36056261D01*
X30085096Y-35980092D01*
X30056514Y-35895766D01*
X30046702Y-35800928D01*
X30048046Y-35753789D01*
X30486584Y-35800683D01*
X30506384Y-35873423D01*
X30537142Y-35913157D01*
X30601580Y-35944470D01*
X30709211Y-35956999D01*
X30809190Y-35950879D01*
X30882302Y-35934786D01*
X30934647Y-35911325D01*
X30978048Y-35872872D01*
X31011217Y-35813140D01*
X31023396Y-35754476D01*
X31028925Y-35634598D01*
X31028925Y-35420153D01*
X30933539Y-35528487D01*
X30830845Y-35601924D01*
X30718976Y-35645278D01*
X30594539Y-35660000D01*
X30481104Y-35649796D01*
X30380141Y-35620217D01*
X30289209Y-35571635D01*
X30206571Y-35502862D01*
X30131333Y-35411238D01*
X30074479Y-35310640D01*
X30032738Y-35197035D01*
X30006624Y-35068301D01*
X29997487Y-34921898D01*
X29998970Y-34900282D01*
X30390963Y-34900282D01*
X30402858Y-35052875D01*
X30434133Y-35162514D01*
X30480356Y-35239780D01*
X30545946Y-35300438D01*
X30618537Y-35335512D01*
X30701029Y-35347369D01*
X30789977Y-35335117D01*
X30868227Y-35298998D01*
X30938799Y-35236971D01*
X30989905Y-35157656D01*
X31023353Y-35051345D01*
X31035764Y-34909930D01*
X31023605Y-34761487D01*
X30991289Y-34652655D01*
X30942829Y-34573974D01*
X30874810Y-34512538D01*
X30797584Y-34476511D01*
X30707868Y-34464187D01*
X30620876Y-34476267D01*
X30546114Y-34511587D01*
X30480356Y-34571898D01*
X30433766Y-34648920D01*
X30402665Y-34755329D01*
X30390963Y-34900282D01*
X29998970Y-34900282D01*
X30010171Y-34737040D01*
X30045363Y-34585692D01*
X30100031Y-34461927D01*
X30172976Y-34360994D01*
X30267241Y-34275376D01*
X30369988Y-34215612D01*
X30483141Y-34179558D01*
X30609560Y-34167187D01*
X30737656Y-34181981D01*
G37*
G36*
X32532240Y-34175561D02*
G01*
X32656085Y-34197331D01*
X32742655Y-34228370D01*
X32821518Y-34275203D01*
X32879316Y-34326933D01*
X32919609Y-34383709D01*
X32944623Y-34449952D01*
X32963339Y-34559464D01*
X32970900Y-34729434D01*
X32966870Y-35180307D01*
X32972349Y-35360026D01*
X32985310Y-35464117D01*
X33010810Y-35556053D01*
X33054309Y-35660000D01*
X32674511Y-35660000D01*
X32637631Y-35548136D01*
X32623953Y-35503684D01*
X32520568Y-35590299D01*
X32413538Y-35650230D01*
X32298344Y-35686748D01*
X32174424Y-35699078D01*
X32062913Y-35690589D01*
X31968784Y-35666648D01*
X31889008Y-35628670D01*
X31821249Y-35576835D01*
X31764737Y-35511621D01*
X31724855Y-35439438D01*
X31700560Y-35358837D01*
X31692166Y-35267745D01*
X31695619Y-35226468D01*
X32075994Y-35226468D01*
X32082662Y-35278043D01*
X32102369Y-35324216D01*
X32136078Y-35366542D01*
X32179248Y-35399014D01*
X32229558Y-35418673D01*
X32289096Y-35425526D01*
X32356176Y-35418140D01*
X32421762Y-35395726D01*
X32487177Y-35356894D01*
X32545532Y-35298089D01*
X32578768Y-35229277D01*
X32589054Y-35168754D01*
X32593789Y-35041210D01*
X32593789Y-34964396D01*
X32360171Y-35023381D01*
X32214982Y-35061684D01*
X32151099Y-35090669D01*
X32108415Y-35130751D01*
X32084147Y-35175358D01*
X32075994Y-35226468D01*
X31695619Y-35226468D01*
X31698919Y-35187018D01*
X31718580Y-35114025D01*
X31750907Y-35047316D01*
X31795138Y-34987986D01*
X31849617Y-34938799D01*
X31915527Y-34899061D01*
X32034056Y-34854009D01*
X32220830Y-34809057D01*
X32468548Y-34754803D01*
X32593789Y-34714291D01*
X32593789Y-34674968D01*
X32586615Y-34601107D01*
X32567684Y-34548902D01*
X32539079Y-34512669D01*
X32499049Y-34488542D01*
X32433812Y-34471146D01*
X32332815Y-34464187D01*
X32237797Y-34475625D01*
X32172959Y-34505830D01*
X32123862Y-34558843D01*
X32080146Y-34651765D01*
X31731734Y-34589239D01*
X31782877Y-34452986D01*
X31850400Y-34348690D01*
X31933845Y-34270624D01*
X32006666Y-34228768D01*
X32099036Y-34196367D01*
X32215210Y-34175003D01*
X32360171Y-34167187D01*
X32532240Y-34175561D01*
G37*
G36*
X33802180Y-35660000D02*
G01*
X33802180Y-33987424D01*
X33207815Y-33987424D01*
X33207815Y-33651346D01*
X34799546Y-33651346D01*
X34799546Y-33987424D01*
X34206524Y-33987424D01*
X34206524Y-35660000D01*
X33802180Y-35660000D01*
G37*
G36*
X35007519Y-34003056D02*
G01*
X35007519Y-33651346D01*
X35391347Y-33651346D01*
X35391347Y-34003056D01*
X35007519Y-34003056D01*
G37*
G36*
X35007519Y-35660000D02*
G01*
X35007519Y-34206266D01*
X35391347Y-34206266D01*
X35391347Y-35660000D01*
X35007519Y-35660000D01*
G37*
G36*
X37104954Y-35660000D02*
G01*
X36721005Y-35660000D01*
X36721005Y-34915914D01*
X36712927Y-34700277D01*
X36696336Y-34610488D01*
X36663654Y-34548253D01*
X36616469Y-34502655D01*
X36556717Y-34474159D01*
X36483234Y-34464187D01*
X36388317Y-34478038D01*
X36304326Y-34519141D01*
X36237447Y-34583024D01*
X36195638Y-34664588D01*
X36175496Y-34774326D01*
X36166329Y-34999567D01*
X36166329Y-35660000D01*
X35782379Y-35660000D01*
X35782379Y-34206266D01*
X36138974Y-34206266D01*
X36138974Y-34419368D01*
X36221947Y-34325640D01*
X36310115Y-34255698D01*
X36404294Y-34206728D01*
X36505971Y-34177244D01*
X36617201Y-34167187D01*
X36740184Y-34178985D01*
X36849354Y-34213227D01*
X36944309Y-34267516D01*
X37008601Y-34330830D01*
X37054184Y-34406703D01*
X37083705Y-34493007D01*
X37098800Y-34593510D01*
X37104954Y-34752759D01*
X37104954Y-35660000D01*
G37*
G36*
X37313171Y-34206266D02*
G01*
X37721668Y-34206266D01*
X38068614Y-35241001D01*
X38407501Y-34206266D01*
X38805007Y-34206266D01*
X38292707Y-35606144D01*
X38201238Y-35863698D01*
X38148620Y-35982038D01*
X38104885Y-36057383D01*
X38054954Y-36118722D01*
X37999616Y-36165949D01*
X37935391Y-36202091D01*
X37853437Y-36230795D01*
X37763563Y-36247900D01*
X37657432Y-36253998D01*
X37547613Y-36248208D01*
X37440178Y-36230917D01*
X37405984Y-35931231D01*
X37494235Y-35944973D01*
X37568527Y-35949183D01*
X37654189Y-35939347D01*
X37718463Y-35912453D01*
X37766608Y-35869804D01*
X37821939Y-35782520D01*
X37865038Y-35667815D01*
X37313171Y-34206266D01*
G37*
G36*
X39775628Y-33651346D02*
G01*
X40178628Y-33651346D01*
X40178628Y-34925806D01*
X40172744Y-35093701D01*
X40157231Y-35219094D01*
X40134909Y-35310366D01*
X40085010Y-35420088D01*
X40014555Y-35513518D01*
X39921807Y-35592711D01*
X39813915Y-35649512D01*
X39680272Y-35685925D01*
X39514654Y-35699078D01*
X39367257Y-35687381D01*
X39244966Y-35654598D01*
X39143171Y-35602834D01*
X39058409Y-35532260D01*
X38991794Y-35444801D01*
X38941804Y-35337065D01*
X38909379Y-35204784D01*
X38897208Y-35042554D01*
X39278349Y-35003475D01*
X39288748Y-35119102D01*
X39306563Y-35197027D01*
X39328908Y-35247107D01*
X39380204Y-35307143D01*
X39445167Y-35342677D01*
X39528332Y-35355184D01*
X39614848Y-35345280D01*
X39676395Y-35318784D01*
X39719574Y-35277515D01*
X39746505Y-35221035D01*
X39767109Y-35120295D01*
X39775628Y-34954626D01*
X39775628Y-33651346D01*
G37*
G36*
X41425274Y-34181428D02*
G01*
X41566643Y-34222431D01*
X41691892Y-34289265D01*
X41803698Y-34383220D01*
X41895131Y-34497332D01*
X41960283Y-34624456D01*
X42000252Y-34767166D01*
X42014113Y-34928981D01*
X42000132Y-35092144D01*
X41959793Y-35236242D01*
X41893999Y-35364789D01*
X41801622Y-35480359D01*
X41688648Y-35575984D01*
X41563664Y-35643598D01*
X41424192Y-35684830D01*
X41266730Y-35699078D01*
X41135910Y-35688971D01*
X41009550Y-35658775D01*
X40886200Y-35607976D01*
X40774574Y-35537349D01*
X40683495Y-35448923D01*
X40610938Y-35341018D01*
X40560151Y-35220214D01*
X40528039Y-35078673D01*
X40518081Y-34933133D01*
X40910136Y-34933133D01*
X40923060Y-35076220D01*
X40958233Y-35185911D01*
X41012596Y-35269699D01*
X41087209Y-35335206D01*
X41170385Y-35373447D01*
X41265387Y-35386448D01*
X41360361Y-35373431D01*
X41443281Y-35335181D01*
X41517446Y-35269699D01*
X41571354Y-35185914D01*
X41606381Y-35075392D01*
X41619295Y-34930324D01*
X41606491Y-34789114D01*
X41571565Y-34680305D01*
X41517446Y-34596688D01*
X41443272Y-34531132D01*
X41360352Y-34492846D01*
X41265387Y-34479818D01*
X41170394Y-34492830D01*
X41087217Y-34531108D01*
X41012596Y-34596688D01*
X40958238Y-34680401D01*
X40923063Y-34790047D01*
X40910136Y-34933133D01*
X40518081Y-34933133D01*
X40516661Y-34912372D01*
X40526996Y-34785802D01*
X40558108Y-34661652D01*
X40610938Y-34538436D01*
X40683199Y-34426578D01*
X40771764Y-34335256D01*
X40878018Y-34262442D01*
X40996415Y-34209965D01*
X41124384Y-34178092D01*
X41264044Y-34167187D01*
X41425274Y-34181428D01*
G37*
G36*
X42133548Y-34206266D02*
G01*
X42542044Y-34206266D01*
X42888991Y-35241001D01*
X43227878Y-34206266D01*
X43625384Y-34206266D01*
X43113084Y-35606144D01*
X43021615Y-35863698D01*
X42968997Y-35982038D01*
X42925261Y-36057383D01*
X42875330Y-36118722D01*
X42819993Y-36165949D01*
X42755768Y-36202091D01*
X42673813Y-36230795D01*
X42583939Y-36247900D01*
X42477808Y-36253998D01*
X42367990Y-36248208D01*
X42260554Y-36230917D01*
X42226360Y-35931231D01*
X42314612Y-35944973D01*
X42388904Y-35949183D01*
X42474566Y-35939347D01*
X42538840Y-35912453D01*
X42586985Y-35869804D01*
X42642315Y-35782520D01*
X42685415Y-35667815D01*
X42133548Y-34206266D01*
G37*
G36*
X44791493Y-34179722D02*
G01*
X44901913Y-34216528D01*
X45003748Y-34278143D01*
X45098778Y-34367344D01*
X45172637Y-34471405D01*
X45227507Y-34596120D01*
X45262495Y-34745564D01*
X45275000Y-34924829D01*
X45262331Y-35109211D01*
X45226950Y-35262404D01*
X45171602Y-35389740D01*
X45097313Y-35495502D01*
X45001420Y-35586436D01*
X44899086Y-35649072D01*
X44788547Y-35686392D01*
X44667079Y-35699078D01*
X44551090Y-35686813D01*
X44449093Y-35651207D01*
X44354040Y-35590315D01*
X44243562Y-35487198D01*
X44243562Y-36214919D01*
X43859612Y-36214919D01*
X43859612Y-34904801D01*
X44239410Y-34904801D01*
X44252229Y-35069561D01*
X44286091Y-35189243D01*
X44336374Y-35274706D01*
X44407656Y-35342452D01*
X44485446Y-35381246D01*
X44572802Y-35394263D01*
X44656877Y-35382110D01*
X44730063Y-35346290D01*
X44795429Y-35284476D01*
X44840875Y-35205696D01*
X44872234Y-35089919D01*
X44884333Y-34924340D01*
X44872281Y-34770697D01*
X44840345Y-34658369D01*
X44792742Y-34577515D01*
X44725443Y-34513530D01*
X44650866Y-34476644D01*
X44565963Y-34464187D01*
X44477313Y-34476597D01*
X44400512Y-34513018D01*
X44332344Y-34575439D01*
X44283539Y-34654896D01*
X44251383Y-34761937D01*
X44239410Y-34904801D01*
X43859612Y-34904801D01*
X43859612Y-34206266D01*
X44217550Y-34206266D01*
X44217550Y-34419368D01*
X44298780Y-34320278D01*
X44406106Y-34238628D01*
X44487827Y-34199083D01*
X44575206Y-34175282D01*
X44669766Y-34167187D01*
X44791493Y-34179722D01*
G37*
G36*
X46319260Y-34175561D02*
G01*
X46443106Y-34197331D01*
X46529675Y-34228370D01*
X46608538Y-34275203D01*
X46666337Y-34326933D01*
X46706629Y-34383709D01*
X46731643Y-34449952D01*
X46750359Y-34559464D01*
X46757920Y-34729434D01*
X46753890Y-35180307D01*
X46759369Y-35360026D01*
X46772330Y-35464117D01*
X46797831Y-35556053D01*
X46841329Y-35660000D01*
X46461531Y-35660000D01*
X46424651Y-35548136D01*
X46410973Y-35503684D01*
X46307588Y-35590299D01*
X46200558Y-35650230D01*
X46085364Y-35686748D01*
X45961444Y-35699078D01*
X45849933Y-35690589D01*
X45755804Y-35666648D01*
X45676028Y-35628670D01*
X45608269Y-35576835D01*
X45551757Y-35511621D01*
X45511875Y-35439438D01*
X45487581Y-35358837D01*
X45479187Y-35267745D01*
X45482639Y-35226468D01*
X45863014Y-35226468D01*
X45869683Y-35278043D01*
X45889389Y-35324216D01*
X45923098Y-35366542D01*
X45966269Y-35399014D01*
X46016578Y-35418673D01*
X46076116Y-35425526D01*
X46143196Y-35418140D01*
X46208782Y-35395726D01*
X46274197Y-35356894D01*
X46332552Y-35298089D01*
X46365788Y-35229277D01*
X46376074Y-35168754D01*
X46380809Y-35041210D01*
X46380809Y-34964396D01*
X46147191Y-35023381D01*
X46002002Y-35061684D01*
X45938119Y-35090669D01*
X45895435Y-35130751D01*
X45871168Y-35175358D01*
X45863014Y-35226468D01*
X45482639Y-35226468D01*
X45485939Y-35187018D01*
X45505600Y-35114025D01*
X45537927Y-35047316D01*
X45582158Y-34987986D01*
X45636638Y-34938799D01*
X45702547Y-34899061D01*
X45821077Y-34854009D01*
X46007850Y-34809057D01*
X46255569Y-34754803D01*
X46380809Y-34714291D01*
X46380809Y-34674968D01*
X46373635Y-34601107D01*
X46354704Y-34548902D01*
X46326099Y-34512669D01*
X46286069Y-34488542D01*
X46220832Y-34471146D01*
X46119836Y-34464187D01*
X46024817Y-34475625D01*
X45959979Y-34505830D01*
X45910882Y-34558843D01*
X45867166Y-34651765D01*
X45518754Y-34589239D01*
X45569897Y-34452986D01*
X45637420Y-34348690D01*
X45720865Y-34270624D01*
X45793687Y-34228768D01*
X45886056Y-34196367D01*
X46002230Y-34175003D01*
X46147191Y-34167187D01*
X46319260Y-34175561D01*
G37*
G36*
X48466277Y-35660000D02*
G01*
X48109682Y-35660000D01*
X48109682Y-35446898D01*
X48045588Y-35524471D01*
X47975840Y-35586751D01*
X47900000Y-35635209D01*
X47776982Y-35683527D01*
X47656123Y-35699078D01*
X47536072Y-35686455D01*
X47426290Y-35649237D01*
X47324122Y-35586616D01*
X47227843Y-35495502D01*
X47153172Y-35389672D01*
X47097647Y-35262704D01*
X47062215Y-35110427D01*
X47049546Y-34927637D01*
X47051006Y-34905900D01*
X47441678Y-34905900D01*
X47450602Y-35064321D01*
X47473523Y-35174621D01*
X47505914Y-35248817D01*
X47558772Y-35317700D01*
X47618561Y-35364528D01*
X47686566Y-35392456D01*
X47765422Y-35402079D01*
X47848507Y-35389600D01*
X47922682Y-35352350D01*
X47990858Y-35287163D01*
X48039458Y-35205144D01*
X48071721Y-35093596D01*
X48083792Y-34943635D01*
X48071511Y-34774875D01*
X48039675Y-34656806D01*
X47993545Y-34576416D01*
X47927016Y-34513490D01*
X47851201Y-34476745D01*
X47762735Y-34464187D01*
X47676737Y-34476444D01*
X47601470Y-34512603D01*
X47533880Y-34574951D01*
X47485570Y-34654151D01*
X47453614Y-34761621D01*
X47441678Y-34905900D01*
X47051006Y-34905900D01*
X47062179Y-34739588D01*
X47097130Y-34586416D01*
X47151218Y-34461925D01*
X47223081Y-34361116D01*
X47316316Y-34275717D01*
X47418963Y-34215900D01*
X47533055Y-34179667D01*
X47661619Y-34167187D01*
X47778212Y-34179620D01*
X47885669Y-34216415D01*
X47986531Y-34278590D01*
X48082449Y-34369420D01*
X48082449Y-33651346D01*
X48466277Y-33651346D01*
X48466277Y-35660000D01*
G37*
D13*
%TO.P,U2,1,~{RST}*%
%TO.N,/RESET*%
X24900000Y-3100000D03*
%TO.P,U2,2,ADC*%
%TO.N,/KEY_ALT*%
X24900000Y-5100000D03*
%TO.P,U2,3,EN*%
%TO.N,unconnected-(U2-EN-Pad3)*%
X24900000Y-7100000D03*
%TO.P,U2,4,GPIO16*%
%TO.N,/AUDIO*%
X24900000Y-9100000D03*
%TO.P,U2,5,GPIO14*%
%TO.N,/KEY_RIGHT*%
X24900000Y-11100000D03*
%TO.P,U2,6,GPIO12*%
%TO.N,/KEY_DOWN*%
X24900000Y-13100000D03*
%TO.P,U2,7,GPIO13*%
%TO.N,/KEY_LEFT*%
X24900000Y-15100000D03*
%TO.P,U2,8,VCC*%
%TO.N,/3V3*%
X24900000Y-17100000D03*
%TO.P,U2,9,GND*%
%TO.N,/GND*%
X40100000Y-17100000D03*
%TO.P,U2,10,GPIO15*%
%TO.N,/KEY_B*%
X40100000Y-15100000D03*
%TO.P,U2,11,GPIO2*%
%TO.N,/KEY_UP*%
X40100000Y-13100000D03*
%TO.P,U2,12,GPIO0*%
%TO.N,/KEY_A*%
X40100000Y-11100000D03*
%TO.P,U2,13,GPIO4*%
%TO.N,/I2C_SDA*%
X40100000Y-9100000D03*
%TO.P,U2,14,GPIO5*%
%TO.N,/I2C_SCL*%
X40100000Y-7100000D03*
%TO.P,U2,15,GPIO3/RXD*%
%TO.N,/UART_RX*%
X40100000Y-5100000D03*
%TO.P,U2,16,GPIO1/TXD*%
%TO.N,/UART_TX*%
X40100000Y-3100000D03*
%TD*%
D14*
%TO.P,J3,1,Pin_1*%
%TO.N,/UART_TX*%
X46250000Y-3000000D03*
D15*
%TO.P,J3,2,Pin_2*%
%TO.N,/UART_RX*%
X46250000Y-5540000D03*
%TO.P,J3,3,Pin_3*%
%TO.N,/I2C_SCL*%
X46250000Y-8080000D03*
%TO.P,J3,4,Pin_4*%
%TO.N,/I2C_SDA*%
X46250000Y-10620000D03*
%TO.P,J3,5,Pin_5*%
%TO.N,/KEY_A*%
X46250000Y-13160000D03*
%TO.P,J3,6,Pin_6*%
%TO.N,/KEY_UP*%
X46250000Y-15700000D03*
%TO.P,J3,7,Pin_7*%
%TO.N,/KEY_B*%
X46250000Y-18240000D03*
%TO.P,J3,8,Pin_8*%
%TO.N,/GND*%
X46250000Y-20780000D03*
%TD*%
D16*
%TO.P,J1,1,Pin_1*%
%TO.N,unconnected-(J1-Pin_1-Pad1)*%
X8370000Y-29270000D03*
D17*
%TO.P,J1,2,Pin_2*%
%TO.N,unconnected-(J1-Pin_2-Pad2)*%
X8370000Y-25930000D03*
%TO.P,J1,3,Pin_3*%
%TO.N,/3V3*%
X10910000Y-29270000D03*
%TO.P,J1,4,Pin_4*%
X10910000Y-25930000D03*
%TO.P,J1,5,Pin_5*%
%TO.N,/I2C_SDA*%
X13450000Y-29270000D03*
%TO.P,J1,6,Pin_6*%
%TO.N,/I2C_SCL*%
X13450000Y-25930000D03*
%TO.P,J1,7,Pin_7*%
%TO.N,/I2C_SDA*%
X15990000Y-29270000D03*
%TO.P,J1,8,Pin_8*%
%TO.N,/I2C_SCL*%
X15990000Y-25930000D03*
%TO.P,J1,9,Pin_9*%
%TO.N,/KEY_ALT*%
X18530000Y-29270000D03*
%TO.P,J1,10,Pin_10*%
%TO.N,/KEY_DOWN*%
X18530000Y-25930000D03*
%TO.P,J1,11,Pin_11*%
%TO.N,/KEY_UP*%
X21070000Y-29270000D03*
%TO.P,J1,12,Pin_12*%
%TO.N,unconnected-(J1-Pin_12-Pad12)*%
X21070000Y-25930000D03*
%TO.P,J1,13,Pin_13*%
%TO.N,unconnected-(J1-Pin_13-Pad13)*%
X23610000Y-29270000D03*
%TO.P,J1,14,Pin_14*%
%TO.N,unconnected-(J1-Pin_14-Pad14)*%
X23610000Y-25930000D03*
%TO.P,J1,15,Pin_15*%
%TO.N,unconnected-(J1-Pin_15-Pad15)*%
X26150000Y-29270000D03*
%TO.P,J1,16,Pin_16*%
%TO.N,unconnected-(J1-Pin_16-Pad16)*%
X26150000Y-25930000D03*
%TO.P,J1,17,Pin_17*%
%TO.N,/AUDIO*%
X28690000Y-29270000D03*
%TO.P,J1,18,Pin_18*%
X28690000Y-25930000D03*
%TO.P,J1,19,Pin_19*%
%TO.N,/UART_TX*%
X31230000Y-29270000D03*
%TO.P,J1,20,Pin_20*%
%TO.N,/UART_RX*%
X31230000Y-25930000D03*
%TO.P,J1,21,Pin_21*%
%TO.N,unconnected-(J1-Pin_21-Pad21)*%
X33770000Y-29270000D03*
%TO.P,J1,22,Pin_22*%
%TO.N,unconnected-(J1-Pin_22-Pad22)*%
X33770000Y-25930000D03*
%TO.P,J1,23,Pin_23*%
%TO.N,unconnected-(J1-Pin_23-Pad23)*%
X36310000Y-29270000D03*
%TO.P,J1,24,Pin_24*%
%TO.N,unconnected-(J1-Pin_24-Pad24)*%
X36310000Y-25930000D03*
%TO.P,J1,25,Pin_25*%
%TO.N,unconnected-(J1-Pin_25-Pad25)*%
X38850000Y-29270000D03*
%TO.P,J1,26,Pin_26*%
%TO.N,unconnected-(J1-Pin_26-Pad26)*%
X38850000Y-25930000D03*
%TO.P,J1,27,Pin_27*%
%TO.N,/KEY_A*%
X41390000Y-29270000D03*
%TO.P,J1,28,Pin_28*%
%TO.N,/KEY_B*%
X41390000Y-25930000D03*
%TO.P,J1,29,Pin_29*%
%TO.N,unconnected-(J1-Pin_29-Pad29)*%
X43930000Y-29270000D03*
%TO.P,J1,30,Pin_30*%
%TO.N,/KEY_RIGHT*%
X43930000Y-25930000D03*
%TO.P,J1,31,Pin_31*%
%TO.N,/KEY_LEFT*%
X46470000Y-29270000D03*
%TO.P,J1,32,Pin_32*%
%TO.N,unconnected-(J1-Pin_32-Pad32)*%
X46470000Y-25930000D03*
%TO.P,J1,33,Pin_33*%
%TO.N,unconnected-(J1-Pin_33-Pad33)*%
X49010000Y-29270000D03*
%TO.P,J1,34,Pin_34*%
%TO.N,unconnected-(J1-Pin_34-Pad34)*%
X49010000Y-25930000D03*
%TO.P,J1,35,Pin_35*%
%TO.N,unconnected-(J1-Pin_35-Pad35)*%
X51550000Y-29270000D03*
%TO.P,J1,36,Pin_36*%
%TO.N,unconnected-(J1-Pin_36-Pad36)*%
X51550000Y-25930000D03*
%TO.P,J1,37,Pin_37*%
%TO.N,unconnected-(J1-Pin_37-Pad37)*%
X54090000Y-29270000D03*
%TO.P,J1,38,Pin_38*%
%TO.N,/RESET*%
X54090000Y-25930000D03*
%TO.P,J1,39,Pin_39*%
%TO.N,/GND*%
X56630000Y-29270000D03*
%TO.P,J1,40,Pin_40*%
X56630000Y-25930000D03*
%TD*%
D14*
%TO.P,J2,1,Pin_1*%
%TO.N,/RESET*%
X18750000Y-3000000D03*
D15*
%TO.P,J2,2,Pin_2*%
%TO.N,/KEY_ALT*%
X18750000Y-5540000D03*
%TO.P,J2,3,Pin_3*%
%TO.N,unconnected-(J2-Pin_3-Pad3)*%
X18750000Y-8080000D03*
%TO.P,J2,4,Pin_4*%
%TO.N,/AUDIO*%
X18750000Y-10620000D03*
%TO.P,J2,5,Pin_5*%
%TO.N,/KEY_RIGHT*%
X18750000Y-13160000D03*
%TO.P,J2,6,Pin_6*%
%TO.N,/KEY_DOWN*%
X18750000Y-15700000D03*
%TO.P,J2,7,Pin_7*%
%TO.N,/KEY_LEFT*%
X18750000Y-18240000D03*
%TO.P,J2,8,Pin_8*%
%TO.N,/3V3*%
X18750000Y-20780000D03*
%TD*%
D18*
%TO.N,/GND*%
X43008549Y-19037027D03*
%TO.N,/3V3*%
X24683538Y-18265060D03*
%TO.N,/KEY_UP*%
X42920000Y-14830000D03*
D19*
%TO.N,/KEY_ALT*%
X22009782Y-23392264D03*
X21800000Y-5270000D03*
X15230000Y-5520000D03*
D18*
%TO.N,/KEY_RIGHT*%
X22116000Y-12249711D03*
X29210000Y-19860000D03*
%TO.N,/KEY_LEFT*%
X31120000Y-19740000D03*
X22623314Y-16205132D03*
D19*
%TO.N,/UART_TX*%
X32173062Y-22197971D03*
X42940000Y-3780000D03*
D18*
%TO.N,/KEY_A*%
X43180000Y-12550000D03*
X38804087Y-22340000D03*
%TO.N,/KEY_DOWN*%
X22106387Y-14376800D03*
X18347509Y-23942000D03*
X13965000Y-19465220D03*
D19*
%TO.N,/KEY_B*%
X40460000Y-23240000D03*
X42890000Y-17200000D03*
%TO.N,/RESET*%
X51160000Y-22000000D03*
X21830000Y-3240000D03*
D18*
%TO.N,/I2C_SDA*%
X43085000Y-10285000D03*
%TO.N,/I2C_SCL*%
X43100000Y-8020000D03*
%TO.N,/AUDIO*%
X21910000Y-9870000D03*
X29160000Y-22860000D03*
D19*
%TO.N,/UART_RX*%
X33870000Y-22300000D03*
X42890000Y-5810000D03*
%TD*%
D20*
%TO.N,/GND*%
X40100000Y-17100000D02*
X40850000Y-17100000D01*
X42787027Y-19037027D02*
X43008549Y-19037027D01*
X40850000Y-17100000D02*
X42787027Y-19037027D01*
D21*
%TO.N,/3V3*%
X24900000Y-17100000D02*
X24900000Y-18048599D01*
X24900000Y-18048599D02*
X24683538Y-18265060D01*
%TO.N,/KEY_UP*%
X41190000Y-13100000D02*
X42920000Y-14830000D01*
X40100000Y-13100000D02*
X41190000Y-13100000D01*
D20*
%TO.N,/KEY_ALT*%
X19586754Y-23392264D02*
X22009782Y-23392264D01*
X18871490Y-22677000D02*
X19586754Y-23392264D01*
X18057000Y-22677000D02*
X18871490Y-22677000D01*
D21*
X24730000Y-5270000D02*
X24900000Y-5100000D01*
D20*
X15230000Y-19850000D02*
X18057000Y-22677000D01*
D21*
X21800000Y-5270000D02*
X24730000Y-5270000D01*
D20*
X15230000Y-5520000D02*
X15230000Y-19850000D01*
D21*
%TO.N,/KEY_RIGHT*%
X29495600Y-14945600D02*
X29495600Y-19574400D01*
X24150000Y-11100000D02*
X23000289Y-12249711D01*
X23000289Y-12249711D02*
X22116000Y-12249711D01*
X29495600Y-19574400D02*
X29210000Y-19860000D01*
X25650000Y-11100000D02*
X29495600Y-14945600D01*
X24900000Y-11100000D02*
X24150000Y-11100000D01*
X24900000Y-11100000D02*
X25650000Y-11100000D01*
%TO.N,/KEY_LEFT*%
X29748478Y-21160000D02*
X31120000Y-19788478D01*
X28195600Y-19035922D02*
X27910000Y-19321522D01*
X23728446Y-15100000D02*
X22623314Y-16205132D01*
X24900000Y-15100000D02*
X23728446Y-15100000D01*
X24900000Y-15100000D02*
X25650000Y-15100000D01*
X28195600Y-17645600D02*
X28195600Y-19035922D01*
X27910000Y-19321522D02*
X27910000Y-20398478D01*
X28671522Y-21160000D02*
X29748478Y-21160000D01*
X31120000Y-19788478D02*
X31120000Y-19740000D01*
X25650000Y-15100000D02*
X28195600Y-17645600D01*
X27910000Y-20398478D02*
X28671522Y-21160000D01*
%TO.N,/UART_TX*%
X40100000Y-3100000D02*
X42260000Y-3100000D01*
X42260000Y-3100000D02*
X42940000Y-3780000D01*
X39350000Y-3100000D02*
X32420000Y-10030000D01*
X40100000Y-3100000D02*
X39350000Y-3100000D01*
X32420000Y-21951033D02*
X32173062Y-22197971D01*
X32420000Y-10030000D02*
X32420000Y-21951033D01*
D20*
%TO.N,/KEY_A*%
X39350000Y-11100000D02*
X38384000Y-12066000D01*
X38657216Y-19865942D02*
X38490000Y-20033158D01*
X38657216Y-18817980D02*
X38657216Y-19865942D01*
X38490000Y-22025913D02*
X38804087Y-22340000D01*
D21*
X41730000Y-11100000D02*
X43180000Y-12550000D01*
D20*
X40100000Y-11100000D02*
X39350000Y-11100000D01*
X38384000Y-18544764D02*
X38657216Y-18817980D01*
X38384000Y-12066000D02*
X38384000Y-18544764D01*
D21*
X40100000Y-11100000D02*
X41730000Y-11100000D01*
D20*
X38490000Y-20033158D02*
X38490000Y-22025913D01*
D21*
%TO.N,/KEY_DOWN*%
X24900000Y-13100000D02*
X23383187Y-13100000D01*
X17699873Y-23942000D02*
X18347509Y-23942000D01*
X23383187Y-13100000D02*
X22106387Y-14376800D01*
X13965000Y-20207127D02*
X17699873Y-23942000D01*
X13965000Y-19465220D02*
X13965000Y-20207127D01*
%TO.N,/KEY_B*%
X41150108Y-23240000D02*
X46150108Y-18240000D01*
X40460000Y-23240000D02*
X41150108Y-23240000D01*
X40100000Y-15100000D02*
X40790000Y-15100000D01*
X46150108Y-18240000D02*
X46250000Y-18240000D01*
X40790000Y-15100000D02*
X42890000Y-17200000D01*
%TO.N,/RESET*%
X48351000Y-1699000D02*
X51160000Y-4508000D01*
X24900000Y-3100000D02*
X26301000Y-1699000D01*
X26301000Y-1699000D02*
X48351000Y-1699000D01*
X21830000Y-3240000D02*
X24760000Y-3240000D01*
X51160000Y-4508000D02*
X51160000Y-22000000D01*
X24760000Y-3240000D02*
X24900000Y-3100000D01*
%TO.N,/I2C_SDA*%
X41900000Y-9100000D02*
X43085000Y-10285000D01*
X40100000Y-9100000D02*
X41900000Y-9100000D01*
%TO.N,/I2C_SCL*%
X40100000Y-7100000D02*
X42180000Y-7100000D01*
X42180000Y-7100000D02*
X43100000Y-8020000D01*
%TO.N,/AUDIO*%
X20806705Y-15116813D02*
X20851000Y-15161108D01*
X20816000Y-12586108D02*
X20851000Y-12621108D01*
X22680000Y-9100000D02*
X21910000Y-9870000D01*
X24900000Y-9100000D02*
X22680000Y-9100000D01*
X20851000Y-15161108D02*
X20851000Y-19411000D01*
X29100000Y-22920000D02*
X29160000Y-22860000D01*
X20851000Y-12621108D02*
X20851000Y-13794900D01*
X20851000Y-13794900D02*
X20806705Y-13839195D01*
X20816000Y-10964000D02*
X20816000Y-12586108D01*
X24360000Y-22920000D02*
X29100000Y-22920000D01*
X20806705Y-13839195D02*
X20806705Y-15116813D01*
X20851000Y-19411000D02*
X24360000Y-22920000D01*
D20*
X20816000Y-10964000D02*
X21910000Y-9870000D01*
D21*
%TO.N,/UART_RX*%
X33870000Y-10580000D02*
X33870000Y-22300000D01*
X40100000Y-5100000D02*
X39350000Y-5100000D01*
X39350000Y-5100000D02*
X33870000Y-10580000D01*
X40100000Y-5100000D02*
X42180000Y-5100000D01*
X42180000Y-5100000D02*
X42890000Y-5810000D01*
%TD*%
%TA.AperFunction,Conductor*%
%TO.N,/GND*%
G36*
X64542539Y-420185D02*
G01*
X64588294Y-472989D01*
X64599500Y-524500D01*
X64599500Y-37475500D01*
X64579815Y-37542539D01*
X64527011Y-37588294D01*
X64475500Y-37599500D01*
X524500Y-37599500D01*
X457461Y-37579815D01*
X411706Y-37527011D01*
X400500Y-37475500D01*
X400500Y-36759491D01*
X16054967Y-36759491D01*
X48971777Y-36759491D01*
X48971777Y-34385921D01*
X59759500Y-34385921D01*
X59759500Y-34614078D01*
X59789278Y-34840272D01*
X59789279Y-34840277D01*
X59789280Y-34840283D01*
X59789281Y-34840285D01*
X59848331Y-35060666D01*
X59935638Y-35271446D01*
X59935646Y-35271462D01*
X60049717Y-35469037D01*
X60049728Y-35469053D01*
X60188613Y-35650052D01*
X60188619Y-35650059D01*
X60349940Y-35811380D01*
X60349946Y-35811385D01*
X60530955Y-35950278D01*
X60530962Y-35950282D01*
X60728537Y-36064353D01*
X60728553Y-36064361D01*
X60842268Y-36111463D01*
X60939334Y-36151669D01*
X61159717Y-36210720D01*
X61319474Y-36231752D01*
X61385921Y-36240500D01*
X61385922Y-36240500D01*
X61614079Y-36240500D01*
X61665438Y-36233738D01*
X61840283Y-36210720D01*
X62060666Y-36151669D01*
X62226365Y-36083033D01*
X62271446Y-36064361D01*
X62271449Y-36064359D01*
X62271455Y-36064357D01*
X62469045Y-35950278D01*
X62650054Y-35811385D01*
X62811385Y-35650054D01*
X62950278Y-35469045D01*
X63064357Y-35271455D01*
X63151669Y-35060666D01*
X63210720Y-34840283D01*
X63240500Y-34614078D01*
X63240500Y-34385922D01*
X63210720Y-34159717D01*
X63151669Y-33939334D01*
X63111463Y-33842268D01*
X63064361Y-33728553D01*
X63064353Y-33728537D01*
X62950282Y-33530962D01*
X62950278Y-33530955D01*
X62811385Y-33349946D01*
X62811380Y-33349940D01*
X62650059Y-33188619D01*
X62650052Y-33188613D01*
X62469053Y-33049728D01*
X62469051Y-33049726D01*
X62469045Y-33049722D01*
X62469040Y-33049719D01*
X62469037Y-33049717D01*
X62271462Y-32935646D01*
X62271446Y-32935638D01*
X62060666Y-32848331D01*
X61840283Y-32789280D01*
X61840277Y-32789279D01*
X61840272Y-32789278D01*
X61614079Y-32759500D01*
X61614078Y-32759500D01*
X61385922Y-32759500D01*
X61385921Y-32759500D01*
X61159727Y-32789278D01*
X61159720Y-32789279D01*
X61159717Y-32789280D01*
X61066567Y-32814239D01*
X60939333Y-32848331D01*
X60728553Y-32935638D01*
X60728537Y-32935646D01*
X60530962Y-33049717D01*
X60530946Y-33049728D01*
X60349947Y-33188613D01*
X60349940Y-33188619D01*
X60188619Y-33349940D01*
X60188613Y-33349947D01*
X60049728Y-33530946D01*
X60049717Y-33530962D01*
X59935646Y-33728537D01*
X59935638Y-33728553D01*
X59848331Y-33939333D01*
X59789281Y-34159714D01*
X59789278Y-34159727D01*
X59759500Y-34385921D01*
X48971777Y-34385921D01*
X48971777Y-33145846D01*
X16054967Y-33145846D01*
X16054967Y-36759491D01*
X400500Y-36759491D01*
X400500Y-34385921D01*
X1759500Y-34385921D01*
X1759500Y-34614078D01*
X1789278Y-34840272D01*
X1789279Y-34840277D01*
X1789280Y-34840283D01*
X1789281Y-34840285D01*
X1848331Y-35060666D01*
X1935638Y-35271446D01*
X1935646Y-35271462D01*
X2049717Y-35469037D01*
X2049728Y-35469053D01*
X2188613Y-35650052D01*
X2188619Y-35650059D01*
X2349940Y-35811380D01*
X2349946Y-35811385D01*
X2530955Y-35950278D01*
X2530962Y-35950282D01*
X2728537Y-36064353D01*
X2728553Y-36064361D01*
X2842268Y-36111463D01*
X2939334Y-36151669D01*
X3159717Y-36210720D01*
X3319474Y-36231752D01*
X3385921Y-36240500D01*
X3385922Y-36240500D01*
X3614079Y-36240500D01*
X3665438Y-36233738D01*
X3840283Y-36210720D01*
X4060666Y-36151669D01*
X4226365Y-36083033D01*
X4271446Y-36064361D01*
X4271449Y-36064359D01*
X4271455Y-36064357D01*
X4469045Y-35950278D01*
X4650054Y-35811385D01*
X4811385Y-35650054D01*
X4950278Y-35469045D01*
X5064357Y-35271455D01*
X5151669Y-35060666D01*
X5210720Y-34840283D01*
X5240500Y-34614078D01*
X5240500Y-34385922D01*
X5210720Y-34159717D01*
X5151669Y-33939334D01*
X5111463Y-33842268D01*
X5064361Y-33728553D01*
X5064353Y-33728537D01*
X4950282Y-33530962D01*
X4950278Y-33530955D01*
X4811385Y-33349946D01*
X4811380Y-33349940D01*
X4650055Y-33188615D01*
X4469053Y-33049728D01*
X4469051Y-33049726D01*
X4469045Y-33049722D01*
X4469040Y-33049719D01*
X4469037Y-33049717D01*
X4271462Y-32935646D01*
X4271446Y-32935638D01*
X4060666Y-32848331D01*
X3840283Y-32789280D01*
X3840277Y-32789279D01*
X3840272Y-32789278D01*
X3614079Y-32759500D01*
X3614078Y-32759500D01*
X3385922Y-32759500D01*
X3385921Y-32759500D01*
X3159727Y-32789278D01*
X3159720Y-32789279D01*
X3159717Y-32789280D01*
X3066567Y-32814239D01*
X2939333Y-32848331D01*
X2728553Y-32935638D01*
X2728537Y-32935646D01*
X2530962Y-33049717D01*
X2530946Y-33049728D01*
X2349947Y-33188613D01*
X2349940Y-33188619D01*
X2188619Y-33349940D01*
X2188613Y-33349947D01*
X2049728Y-33530946D01*
X2049717Y-33530962D01*
X1935646Y-33728537D01*
X1935638Y-33728553D01*
X1848331Y-33939333D01*
X1789281Y-34159714D01*
X1789278Y-34159727D01*
X1759500Y-34385921D01*
X400500Y-34385921D01*
X400500Y-25143389D01*
X7269500Y-25143389D01*
X7269500Y-26716610D01*
X7295934Y-26883512D01*
X7296598Y-26887701D01*
X7350127Y-27052445D01*
X7428768Y-27206788D01*
X7501897Y-27307442D01*
X7525377Y-27373246D01*
X7509552Y-27441300D01*
X7459446Y-27489995D01*
X7451666Y-27493760D01*
X7397234Y-27517794D01*
X7317794Y-27597234D01*
X7272415Y-27700006D01*
X7272415Y-27700008D01*
X7269500Y-27725131D01*
X7269500Y-30814856D01*
X7269502Y-30814882D01*
X7272413Y-30839987D01*
X7272415Y-30839991D01*
X7317793Y-30942764D01*
X7317794Y-30942765D01*
X7397235Y-31022206D01*
X7500009Y-31067585D01*
X7525135Y-31070500D01*
X9214864Y-31070499D01*
X9214879Y-31070497D01*
X9214882Y-31070497D01*
X9239987Y-31067586D01*
X9239988Y-31067585D01*
X9239991Y-31067585D01*
X9342765Y-31022206D01*
X9422206Y-30942765D01*
X9467585Y-30839991D01*
X9470500Y-30814865D01*
X9470499Y-27725136D01*
X9470264Y-27723110D01*
X9467586Y-27700012D01*
X9467585Y-27700010D01*
X9467585Y-27700009D01*
X9422206Y-27597235D01*
X9342765Y-27517794D01*
X9288333Y-27493760D01*
X9234957Y-27448674D01*
X9214430Y-27381888D01*
X9233268Y-27314606D01*
X9238083Y-27307468D01*
X9311232Y-27206788D01*
X9389873Y-27052445D01*
X9443402Y-26887701D01*
X9470500Y-26716611D01*
X9470500Y-25143389D01*
X9809500Y-25143389D01*
X9809500Y-26716610D01*
X9835934Y-26883512D01*
X9836598Y-26887701D01*
X9890127Y-27052445D01*
X9968768Y-27206788D01*
X10070586Y-27346928D01*
X10070588Y-27346930D01*
X10193072Y-27469414D01*
X10234733Y-27499683D01*
X10277398Y-27555013D01*
X10283376Y-27624627D01*
X10250769Y-27686421D01*
X10234733Y-27700317D01*
X10193072Y-27730585D01*
X10070588Y-27853069D01*
X10070588Y-27853070D01*
X10070586Y-27853072D01*
X10026859Y-27913256D01*
X9968768Y-27993211D01*
X9890128Y-28147552D01*
X9836597Y-28312302D01*
X9827459Y-28370000D01*
X9809500Y-28483389D01*
X9809500Y-30056611D01*
X9836598Y-30227701D01*
X9890127Y-30392445D01*
X9968768Y-30546788D01*
X10070586Y-30686928D01*
X10193072Y-30809414D01*
X10333212Y-30911232D01*
X10487555Y-30989873D01*
X10652299Y-31043402D01*
X10823389Y-31070500D01*
X10823390Y-31070500D01*
X10996610Y-31070500D01*
X10996611Y-31070500D01*
X11167701Y-31043402D01*
X11332445Y-30989873D01*
X11486788Y-30911232D01*
X11626928Y-30809414D01*
X11749414Y-30686928D01*
X11851232Y-30546788D01*
X11929873Y-30392445D01*
X11983402Y-30227701D01*
X12010500Y-30056611D01*
X12010500Y-28483389D01*
X11983402Y-28312299D01*
X11929873Y-28147555D01*
X11851232Y-27993212D01*
X11749414Y-27853072D01*
X11626928Y-27730586D01*
X11585265Y-27700316D01*
X11542602Y-27644988D01*
X11536623Y-27575374D01*
X11569229Y-27513579D01*
X11585266Y-27499683D01*
X11626928Y-27469414D01*
X11749414Y-27346928D01*
X11851232Y-27206788D01*
X11929873Y-27052445D01*
X11983402Y-26887701D01*
X12010500Y-26716611D01*
X12010500Y-25143389D01*
X12349500Y-25143389D01*
X12349500Y-26716610D01*
X12375934Y-26883512D01*
X12376598Y-26887701D01*
X12430127Y-27052445D01*
X12508768Y-27206788D01*
X12610586Y-27346928D01*
X12610588Y-27346930D01*
X12733072Y-27469414D01*
X12774733Y-27499683D01*
X12817398Y-27555013D01*
X12823376Y-27624627D01*
X12790769Y-27686421D01*
X12774733Y-27700317D01*
X12733072Y-27730585D01*
X12610588Y-27853069D01*
X12610588Y-27853070D01*
X12610586Y-27853072D01*
X12566859Y-27913256D01*
X12508768Y-27993211D01*
X12430128Y-28147552D01*
X12376597Y-28312302D01*
X12367459Y-28370000D01*
X12349500Y-28483389D01*
X12349500Y-30056611D01*
X12376598Y-30227701D01*
X12430127Y-30392445D01*
X12508768Y-30546788D01*
X12610586Y-30686928D01*
X12733072Y-30809414D01*
X12873212Y-30911232D01*
X13027555Y-30989873D01*
X13192299Y-31043402D01*
X13363389Y-31070500D01*
X13363390Y-31070500D01*
X13536610Y-31070500D01*
X13536611Y-31070500D01*
X13707701Y-31043402D01*
X13872445Y-30989873D01*
X14026788Y-30911232D01*
X14166928Y-30809414D01*
X14289414Y-30686928D01*
X14391232Y-30546788D01*
X14469873Y-30392445D01*
X14523402Y-30227701D01*
X14550500Y-30056611D01*
X14550500Y-28483389D01*
X14523402Y-28312299D01*
X14469873Y-28147555D01*
X14391232Y-27993212D01*
X14289414Y-27853072D01*
X14166928Y-27730586D01*
X14125265Y-27700316D01*
X14082602Y-27644988D01*
X14076623Y-27575374D01*
X14109229Y-27513579D01*
X14125266Y-27499683D01*
X14166928Y-27469414D01*
X14289414Y-27346928D01*
X14391232Y-27206788D01*
X14469873Y-27052445D01*
X14523402Y-26887701D01*
X14550500Y-26716611D01*
X14550500Y-25143389D01*
X14889500Y-25143389D01*
X14889500Y-26716610D01*
X14915934Y-26883512D01*
X14916598Y-26887701D01*
X14970127Y-27052445D01*
X15048768Y-27206788D01*
X15150586Y-27346928D01*
X15150588Y-27346930D01*
X15273072Y-27469414D01*
X15314733Y-27499683D01*
X15357398Y-27555013D01*
X15363376Y-27624627D01*
X15330769Y-27686421D01*
X15314733Y-27700317D01*
X15273072Y-27730585D01*
X15150588Y-27853069D01*
X15150588Y-27853070D01*
X15150586Y-27853072D01*
X15106859Y-27913256D01*
X15048768Y-27993211D01*
X14970128Y-28147552D01*
X14916597Y-28312302D01*
X14907459Y-28370000D01*
X14889500Y-28483389D01*
X14889500Y-30056611D01*
X14916598Y-30227701D01*
X14970127Y-30392445D01*
X15048768Y-30546788D01*
X15150586Y-30686928D01*
X15273072Y-30809414D01*
X15413212Y-30911232D01*
X15567555Y-30989873D01*
X15732299Y-31043402D01*
X15903389Y-31070500D01*
X15903390Y-31070500D01*
X16076610Y-31070500D01*
X16076611Y-31070500D01*
X16247701Y-31043402D01*
X16412445Y-30989873D01*
X16566788Y-30911232D01*
X16706928Y-30809414D01*
X16829414Y-30686928D01*
X16931232Y-30546788D01*
X17009873Y-30392445D01*
X17063402Y-30227701D01*
X17090500Y-30056611D01*
X17090500Y-28483389D01*
X17063402Y-28312299D01*
X17009873Y-28147555D01*
X16931232Y-27993212D01*
X16829414Y-27853072D01*
X16706928Y-27730586D01*
X16665265Y-27700316D01*
X16622602Y-27644988D01*
X16616623Y-27575374D01*
X16649229Y-27513579D01*
X16665266Y-27499683D01*
X16706928Y-27469414D01*
X16829414Y-27346928D01*
X16931232Y-27206788D01*
X17009873Y-27052445D01*
X17063402Y-26887701D01*
X17090500Y-26716611D01*
X17090500Y-25143389D01*
X17063402Y-24972299D01*
X17009873Y-24807555D01*
X16931232Y-24653212D01*
X16829414Y-24513072D01*
X16706928Y-24390586D01*
X16566788Y-24288768D01*
X16564284Y-24287492D01*
X16412447Y-24210128D01*
X16412446Y-24210127D01*
X16412445Y-24210127D01*
X16247701Y-24156598D01*
X16247699Y-24156597D01*
X16247698Y-24156597D01*
X16110118Y-24134807D01*
X16076611Y-24129500D01*
X15903389Y-24129500D01*
X15869882Y-24134807D01*
X15732302Y-24156597D01*
X15567552Y-24210128D01*
X15413211Y-24288768D01*
X15338243Y-24343236D01*
X15273072Y-24390586D01*
X15273070Y-24390588D01*
X15273069Y-24390588D01*
X15150588Y-24513069D01*
X15150588Y-24513070D01*
X15150586Y-24513072D01*
X15114163Y-24563204D01*
X15048768Y-24653211D01*
X14970128Y-24807552D01*
X14916597Y-24972302D01*
X14889500Y-25143389D01*
X14550500Y-25143389D01*
X14523402Y-24972299D01*
X14469873Y-24807555D01*
X14391232Y-24653212D01*
X14289414Y-24513072D01*
X14166928Y-24390586D01*
X14026788Y-24288768D01*
X14024284Y-24287492D01*
X13872447Y-24210128D01*
X13872446Y-24210127D01*
X13872445Y-24210127D01*
X13707701Y-24156598D01*
X13707699Y-24156597D01*
X13707698Y-24156597D01*
X13570118Y-24134807D01*
X13536611Y-24129500D01*
X13363389Y-24129500D01*
X13329882Y-24134807D01*
X13192302Y-24156597D01*
X13027552Y-24210128D01*
X12873211Y-24288768D01*
X12798243Y-24343236D01*
X12733072Y-24390586D01*
X12733070Y-24390588D01*
X12733069Y-24390588D01*
X12610588Y-24513069D01*
X12610588Y-24513070D01*
X12610586Y-24513072D01*
X12574163Y-24563204D01*
X12508768Y-24653211D01*
X12430128Y-24807552D01*
X12376597Y-24972302D01*
X12349500Y-25143389D01*
X12010500Y-25143389D01*
X11983402Y-24972299D01*
X11929873Y-24807555D01*
X11851232Y-24653212D01*
X11749414Y-24513072D01*
X11626928Y-24390586D01*
X11486788Y-24288768D01*
X11484284Y-24287492D01*
X11332447Y-24210128D01*
X11332446Y-24210127D01*
X11332445Y-24210127D01*
X11167701Y-24156598D01*
X11167699Y-24156597D01*
X11167698Y-24156597D01*
X11030118Y-24134807D01*
X10996611Y-24129500D01*
X10823389Y-24129500D01*
X10789882Y-24134807D01*
X10652302Y-24156597D01*
X10487552Y-24210128D01*
X10333211Y-24288768D01*
X10258243Y-24343236D01*
X10193072Y-24390586D01*
X10193070Y-24390588D01*
X10193069Y-24390588D01*
X10070588Y-24513069D01*
X10070588Y-24513070D01*
X10070586Y-24513072D01*
X10034163Y-24563204D01*
X9968768Y-24653211D01*
X9890128Y-24807552D01*
X9836597Y-24972302D01*
X9809500Y-25143389D01*
X9470500Y-25143389D01*
X9443402Y-24972299D01*
X9389873Y-24807555D01*
X9311232Y-24653212D01*
X9209414Y-24513072D01*
X9086928Y-24390586D01*
X8946788Y-24288768D01*
X8944284Y-24287492D01*
X8792447Y-24210128D01*
X8792446Y-24210127D01*
X8792445Y-24210127D01*
X8627701Y-24156598D01*
X8627699Y-24156597D01*
X8627698Y-24156597D01*
X8490118Y-24134807D01*
X8456611Y-24129500D01*
X8283389Y-24129500D01*
X8249882Y-24134807D01*
X8112302Y-24156597D01*
X7947552Y-24210128D01*
X7793211Y-24288768D01*
X7718243Y-24343236D01*
X7653072Y-24390586D01*
X7653070Y-24390588D01*
X7653069Y-24390588D01*
X7530588Y-24513069D01*
X7530588Y-24513070D01*
X7530586Y-24513072D01*
X7494163Y-24563204D01*
X7428768Y-24653211D01*
X7350128Y-24807552D01*
X7296597Y-24972302D01*
X7269500Y-25143389D01*
X400500Y-25143389D01*
X400500Y-19362868D01*
X12664500Y-19362868D01*
X12664500Y-19567571D01*
X12696522Y-19769754D01*
X12759781Y-19964443D01*
X12852715Y-20146833D01*
X12973028Y-20312433D01*
X13117786Y-20457191D01*
X13283385Y-20577504D01*
X13283387Y-20577505D01*
X13283390Y-20577507D01*
X13333050Y-20602810D01*
X13390939Y-20632306D01*
X13422325Y-20655110D01*
X17089401Y-24322185D01*
X17119651Y-24371547D01*
X17142290Y-24441222D01*
X17173790Y-24503044D01*
X17230740Y-24614814D01*
X17235224Y-24623613D01*
X17355537Y-24789213D01*
X17423374Y-24857050D01*
X17456859Y-24918373D01*
X17456335Y-24967324D01*
X17457360Y-24967487D01*
X17429500Y-25143389D01*
X17429500Y-26716610D01*
X17455934Y-26883512D01*
X17456598Y-26887701D01*
X17510127Y-27052445D01*
X17588768Y-27206788D01*
X17690586Y-27346928D01*
X17690588Y-27346930D01*
X17813072Y-27469414D01*
X17854733Y-27499683D01*
X17897398Y-27555013D01*
X17903376Y-27624627D01*
X17870769Y-27686421D01*
X17854733Y-27700317D01*
X17813072Y-27730585D01*
X17690588Y-27853069D01*
X17690588Y-27853070D01*
X17690586Y-27853072D01*
X17646859Y-27913256D01*
X17588768Y-27993211D01*
X17510128Y-28147552D01*
X17456597Y-28312302D01*
X17447459Y-28370000D01*
X17429500Y-28483389D01*
X17429500Y-30056611D01*
X17456598Y-30227701D01*
X17510127Y-30392445D01*
X17588768Y-30546788D01*
X17690586Y-30686928D01*
X17813072Y-30809414D01*
X17953212Y-30911232D01*
X18107555Y-30989873D01*
X18272299Y-31043402D01*
X18443389Y-31070500D01*
X18443390Y-31070500D01*
X18616610Y-31070500D01*
X18616611Y-31070500D01*
X18787701Y-31043402D01*
X18952445Y-30989873D01*
X19106788Y-30911232D01*
X19246928Y-30809414D01*
X19369414Y-30686928D01*
X19471232Y-30546788D01*
X19549873Y-30392445D01*
X19603402Y-30227701D01*
X19630500Y-30056611D01*
X19630500Y-28483389D01*
X19603402Y-28312299D01*
X19549873Y-28147555D01*
X19471232Y-27993212D01*
X19369414Y-27853072D01*
X19246928Y-27730586D01*
X19205265Y-27700316D01*
X19162602Y-27644988D01*
X19156623Y-27575374D01*
X19189229Y-27513579D01*
X19205266Y-27499683D01*
X19246928Y-27469414D01*
X19369414Y-27346928D01*
X19471232Y-27206788D01*
X19549873Y-27052445D01*
X19603402Y-26887701D01*
X19630500Y-26716611D01*
X19630500Y-25143389D01*
X19603402Y-24972299D01*
X19549873Y-24807555D01*
X19486655Y-24683483D01*
X19473760Y-24614814D01*
X19486656Y-24570894D01*
X19511600Y-24521939D01*
X19552729Y-24441219D01*
X19615986Y-24246534D01*
X19629317Y-24162365D01*
X19659246Y-24099231D01*
X19718558Y-24062300D01*
X19751790Y-24057764D01*
X20430505Y-24057764D01*
X20497544Y-24077449D01*
X20543299Y-24130253D01*
X20553243Y-24199411D01*
X20524218Y-24262967D01*
X20495294Y-24287492D01*
X20493213Y-24288766D01*
X20418243Y-24343236D01*
X20353072Y-24390586D01*
X20353070Y-24390588D01*
X20353069Y-24390588D01*
X20230588Y-24513069D01*
X20230588Y-24513070D01*
X20230586Y-24513072D01*
X20194163Y-24563204D01*
X20128768Y-24653211D01*
X20050128Y-24807552D01*
X19996597Y-24972302D01*
X19969500Y-25143389D01*
X19969500Y-26716610D01*
X19995934Y-26883512D01*
X19996598Y-26887701D01*
X20050127Y-27052445D01*
X20128768Y-27206788D01*
X20230586Y-27346928D01*
X20230588Y-27346930D01*
X20353072Y-27469414D01*
X20394733Y-27499683D01*
X20437398Y-27555013D01*
X20443376Y-27624627D01*
X20410769Y-27686421D01*
X20394733Y-27700317D01*
X20353072Y-27730585D01*
X20230588Y-27853069D01*
X20230588Y-27853070D01*
X20230586Y-27853072D01*
X20186859Y-27913256D01*
X20128768Y-27993211D01*
X20050128Y-28147552D01*
X19996597Y-28312302D01*
X19987459Y-28370000D01*
X19969500Y-28483389D01*
X19969500Y-30056611D01*
X19996598Y-30227701D01*
X20050127Y-30392445D01*
X20128768Y-30546788D01*
X20230586Y-30686928D01*
X20353072Y-30809414D01*
X20493212Y-30911232D01*
X20647555Y-30989873D01*
X20812299Y-31043402D01*
X20983389Y-31070500D01*
X20983390Y-31070500D01*
X21156610Y-31070500D01*
X21156611Y-31070500D01*
X21327701Y-31043402D01*
X21492445Y-30989873D01*
X21646788Y-30911232D01*
X21786928Y-30809414D01*
X21909414Y-30686928D01*
X22011232Y-30546788D01*
X22089873Y-30392445D01*
X22143402Y-30227701D01*
X22170500Y-30056611D01*
X22170500Y-28483389D01*
X22143402Y-28312299D01*
X22089873Y-28147555D01*
X22011232Y-27993212D01*
X21909414Y-27853072D01*
X21786928Y-27730586D01*
X21745265Y-27700316D01*
X21702602Y-27644988D01*
X21696623Y-27575374D01*
X21729229Y-27513579D01*
X21745266Y-27499683D01*
X21786928Y-27469414D01*
X21909414Y-27346928D01*
X22011232Y-27206788D01*
X22089873Y-27052445D01*
X22143402Y-26887701D01*
X22170500Y-26716611D01*
X22170500Y-25143389D01*
X22143402Y-24972299D01*
X22089873Y-24807555D01*
X22067161Y-24762981D01*
X22054266Y-24694313D01*
X22080542Y-24629572D01*
X22137649Y-24589315D01*
X22158249Y-24584214D01*
X22290900Y-24563204D01*
X22335692Y-24548650D01*
X22470614Y-24504811D01*
X22500340Y-24489665D01*
X22569009Y-24476768D01*
X22633750Y-24503044D01*
X22674007Y-24560149D01*
X22677000Y-24629955D01*
X22667121Y-24656443D01*
X22590129Y-24807549D01*
X22536597Y-24972302D01*
X22509500Y-25143389D01*
X22509500Y-26716610D01*
X22535934Y-26883512D01*
X22536598Y-26887701D01*
X22590127Y-27052445D01*
X22668768Y-27206788D01*
X22770586Y-27346928D01*
X22770588Y-27346930D01*
X22893072Y-27469414D01*
X22934733Y-27499683D01*
X22977398Y-27555013D01*
X22983376Y-27624627D01*
X22950769Y-27686421D01*
X22934733Y-27700317D01*
X22893072Y-27730585D01*
X22770588Y-27853069D01*
X22770588Y-27853070D01*
X22770586Y-27853072D01*
X22726859Y-27913256D01*
X22668768Y-27993211D01*
X22590128Y-28147552D01*
X22536597Y-28312302D01*
X22527459Y-28370000D01*
X22509500Y-28483389D01*
X22509500Y-30056611D01*
X22536598Y-30227701D01*
X22590127Y-30392445D01*
X22668768Y-30546788D01*
X22770586Y-30686928D01*
X22893072Y-30809414D01*
X23033212Y-30911232D01*
X23187555Y-30989873D01*
X23352299Y-31043402D01*
X23523389Y-31070500D01*
X23523390Y-31070500D01*
X23696610Y-31070500D01*
X23696611Y-31070500D01*
X23867701Y-31043402D01*
X24032445Y-30989873D01*
X24186788Y-30911232D01*
X24326928Y-30809414D01*
X24449414Y-30686928D01*
X24551232Y-30546788D01*
X24629873Y-30392445D01*
X24683402Y-30227701D01*
X24710500Y-30056611D01*
X24710500Y-28483389D01*
X24683402Y-28312299D01*
X24629873Y-28147555D01*
X24551232Y-27993212D01*
X24449414Y-27853072D01*
X24326928Y-27730586D01*
X24285265Y-27700316D01*
X24242602Y-27644988D01*
X24236623Y-27575374D01*
X24269229Y-27513579D01*
X24285266Y-27499683D01*
X24326928Y-27469414D01*
X24449414Y-27346928D01*
X24551232Y-27206788D01*
X24629873Y-27052445D01*
X24683402Y-26887701D01*
X24710500Y-26716611D01*
X24710500Y-25143389D01*
X25049500Y-25143389D01*
X25049500Y-26716610D01*
X25075934Y-26883512D01*
X25076598Y-26887701D01*
X25130127Y-27052445D01*
X25208768Y-27206788D01*
X25310586Y-27346928D01*
X25310588Y-27346930D01*
X25433072Y-27469414D01*
X25474733Y-27499683D01*
X25517398Y-27555013D01*
X25523376Y-27624627D01*
X25490769Y-27686421D01*
X25474733Y-27700317D01*
X25433072Y-27730585D01*
X25310588Y-27853069D01*
X25310588Y-27853070D01*
X25310586Y-27853072D01*
X25266859Y-27913256D01*
X25208768Y-27993211D01*
X25130128Y-28147552D01*
X25076597Y-28312302D01*
X25067459Y-28370000D01*
X25049500Y-28483389D01*
X25049500Y-30056611D01*
X25076598Y-30227701D01*
X25130127Y-30392445D01*
X25208768Y-30546788D01*
X25310586Y-30686928D01*
X25433072Y-30809414D01*
X25573212Y-30911232D01*
X25727555Y-30989873D01*
X25892299Y-31043402D01*
X26063389Y-31070500D01*
X26063390Y-31070500D01*
X26236610Y-31070500D01*
X26236611Y-31070500D01*
X26407701Y-31043402D01*
X26572445Y-30989873D01*
X26726788Y-30911232D01*
X26866928Y-30809414D01*
X26989414Y-30686928D01*
X27091232Y-30546788D01*
X27169873Y-30392445D01*
X27223402Y-30227701D01*
X27250500Y-30056611D01*
X27250500Y-28483389D01*
X27223402Y-28312299D01*
X27169873Y-28147555D01*
X27091232Y-27993212D01*
X26989414Y-27853072D01*
X26866928Y-27730586D01*
X26825265Y-27700316D01*
X26782602Y-27644988D01*
X26776623Y-27575374D01*
X26809229Y-27513579D01*
X26825266Y-27499683D01*
X26866928Y-27469414D01*
X26989414Y-27346928D01*
X27091232Y-27206788D01*
X27169873Y-27052445D01*
X27223402Y-26887701D01*
X27250500Y-26716611D01*
X27250500Y-25143389D01*
X27223402Y-24972299D01*
X27169873Y-24807555D01*
X27091232Y-24653212D01*
X26989414Y-24513072D01*
X26866928Y-24390586D01*
X26726788Y-24288768D01*
X26724284Y-24287492D01*
X26572447Y-24210128D01*
X26572446Y-24210127D01*
X26572445Y-24210127D01*
X26407701Y-24156598D01*
X26407699Y-24156597D01*
X26407698Y-24156597D01*
X26270118Y-24134807D01*
X26236611Y-24129500D01*
X26063389Y-24129500D01*
X26029882Y-24134807D01*
X25892302Y-24156597D01*
X25727552Y-24210128D01*
X25573211Y-24288768D01*
X25498243Y-24343236D01*
X25433072Y-24390586D01*
X25433070Y-24390588D01*
X25433069Y-24390588D01*
X25310588Y-24513069D01*
X25310588Y-24513070D01*
X25310586Y-24513072D01*
X25274163Y-24563204D01*
X25208768Y-24653211D01*
X25130128Y-24807552D01*
X25076597Y-24972302D01*
X25049500Y-25143389D01*
X24710500Y-25143389D01*
X24683402Y-24972299D01*
X24629873Y-24807555D01*
X24551232Y-24653212D01*
X24449414Y-24513072D01*
X24326928Y-24390586D01*
X24186788Y-24288768D01*
X24184284Y-24287492D01*
X24032447Y-24210128D01*
X24032446Y-24210127D01*
X24032445Y-24210127D01*
X23867701Y-24156598D01*
X23867699Y-24156597D01*
X23867698Y-24156597D01*
X23730118Y-24134807D01*
X23696611Y-24129500D01*
X23523389Y-24129500D01*
X23489882Y-24134807D01*
X23352302Y-24156597D01*
X23187547Y-24210129D01*
X23183046Y-24211994D01*
X23182313Y-24210225D01*
X23121619Y-24221598D01*
X23056889Y-24195294D01*
X23016656Y-24138171D01*
X23013693Y-24068364D01*
X23033731Y-24025331D01*
X23036542Y-24021463D01*
X23122329Y-23853096D01*
X23180722Y-23673382D01*
X23191002Y-23608477D01*
X23210282Y-23486750D01*
X23210282Y-23297777D01*
X23180722Y-23111145D01*
X23157544Y-23039812D01*
X23155549Y-22969971D01*
X23191629Y-22910138D01*
X23254330Y-22879309D01*
X23323744Y-22887273D01*
X23363155Y-22913811D01*
X23815886Y-23366542D01*
X23901628Y-23452284D01*
X23913459Y-23464115D01*
X24028182Y-23540771D01*
X24028195Y-23540778D01*
X24078040Y-23561424D01*
X24081413Y-23562821D01*
X24155671Y-23593580D01*
X24182591Y-23598934D01*
X24276143Y-23617543D01*
X24291006Y-23620500D01*
X24291007Y-23620500D01*
X28041848Y-23620500D01*
X28108887Y-23640185D01*
X28142164Y-23671612D01*
X28168034Y-23707219D01*
X28312781Y-23851966D01*
X28442552Y-23946249D01*
X28485217Y-24001578D01*
X28491196Y-24071191D01*
X28458591Y-24132987D01*
X28407985Y-24164498D01*
X28267550Y-24210128D01*
X28113211Y-24288768D01*
X28038243Y-24343236D01*
X27973072Y-24390586D01*
X27973070Y-24390588D01*
X27973069Y-24390588D01*
X27850588Y-24513069D01*
X27850588Y-24513070D01*
X27850586Y-24513072D01*
X27814163Y-24563204D01*
X27748768Y-24653211D01*
X27670128Y-24807552D01*
X27616597Y-24972302D01*
X27589500Y-25143389D01*
X27589500Y-26716610D01*
X27615934Y-26883512D01*
X27616598Y-26887701D01*
X27670127Y-27052445D01*
X27748768Y-27206788D01*
X27850586Y-27346928D01*
X27850588Y-27346930D01*
X27973072Y-27469414D01*
X28014733Y-27499683D01*
X28057398Y-27555013D01*
X28063376Y-27624627D01*
X28030769Y-27686421D01*
X28014733Y-27700317D01*
X27973072Y-27730585D01*
X27850588Y-27853069D01*
X27850588Y-27853070D01*
X27850586Y-27853072D01*
X27806859Y-27913256D01*
X27748768Y-27993211D01*
X27670128Y-28147552D01*
X27616597Y-28312302D01*
X27607459Y-28370000D01*
X27589500Y-28483389D01*
X27589500Y-30056611D01*
X27616598Y-30227701D01*
X27670127Y-30392445D01*
X27748768Y-30546788D01*
X27850586Y-30686928D01*
X27973072Y-30809414D01*
X28113212Y-30911232D01*
X28267555Y-30989873D01*
X28432299Y-31043402D01*
X28603389Y-31070500D01*
X28603390Y-31070500D01*
X28776610Y-31070500D01*
X28776611Y-31070500D01*
X28947701Y-31043402D01*
X29112445Y-30989873D01*
X29266788Y-30911232D01*
X29406928Y-30809414D01*
X29529414Y-30686928D01*
X29631232Y-30546788D01*
X29709873Y-30392445D01*
X29763402Y-30227701D01*
X29790500Y-30056611D01*
X29790500Y-28483389D01*
X29763402Y-28312299D01*
X29709873Y-28147555D01*
X29631232Y-27993212D01*
X29529414Y-27853072D01*
X29406928Y-27730586D01*
X29365265Y-27700316D01*
X29322602Y-27644988D01*
X29316623Y-27575374D01*
X29349229Y-27513579D01*
X29365266Y-27499683D01*
X29406928Y-27469414D01*
X29529414Y-27346928D01*
X29631232Y-27206788D01*
X29709873Y-27052445D01*
X29763402Y-26887701D01*
X29790500Y-26716611D01*
X29790500Y-25143389D01*
X30129500Y-25143389D01*
X30129500Y-26716610D01*
X30155934Y-26883512D01*
X30156598Y-26887701D01*
X30210127Y-27052445D01*
X30288768Y-27206788D01*
X30390586Y-27346928D01*
X30390588Y-27346930D01*
X30513072Y-27469414D01*
X30554733Y-27499683D01*
X30597398Y-27555013D01*
X30603376Y-27624627D01*
X30570769Y-27686421D01*
X30554733Y-27700317D01*
X30513072Y-27730585D01*
X30390588Y-27853069D01*
X30390588Y-27853070D01*
X30390586Y-27853072D01*
X30346859Y-27913256D01*
X30288768Y-27993211D01*
X30210128Y-28147552D01*
X30156597Y-28312302D01*
X30147459Y-28370000D01*
X30129500Y-28483389D01*
X30129500Y-30056611D01*
X30156598Y-30227701D01*
X30210127Y-30392445D01*
X30288768Y-30546788D01*
X30390586Y-30686928D01*
X30513072Y-30809414D01*
X30653212Y-30911232D01*
X30807555Y-30989873D01*
X30972299Y-31043402D01*
X31143389Y-31070500D01*
X31143390Y-31070500D01*
X31316610Y-31070500D01*
X31316611Y-31070500D01*
X31487701Y-31043402D01*
X31652445Y-30989873D01*
X31806788Y-30911232D01*
X31946928Y-30809414D01*
X32069414Y-30686928D01*
X32171232Y-30546788D01*
X32249873Y-30392445D01*
X32303402Y-30227701D01*
X32330500Y-30056611D01*
X32330500Y-28483389D01*
X32303402Y-28312299D01*
X32249873Y-28147555D01*
X32171232Y-27993212D01*
X32069414Y-27853072D01*
X31946928Y-27730586D01*
X31905265Y-27700316D01*
X31862602Y-27644988D01*
X31856623Y-27575374D01*
X31889229Y-27513579D01*
X31905266Y-27499683D01*
X31946928Y-27469414D01*
X32069414Y-27346928D01*
X32171232Y-27206788D01*
X32249873Y-27052445D01*
X32303402Y-26887701D01*
X32330500Y-26716611D01*
X32330500Y-25143389D01*
X32669500Y-25143389D01*
X32669500Y-26716610D01*
X32695934Y-26883512D01*
X32696598Y-26887701D01*
X32750127Y-27052445D01*
X32828768Y-27206788D01*
X32930586Y-27346928D01*
X32930588Y-27346930D01*
X33053072Y-27469414D01*
X33094733Y-27499683D01*
X33137398Y-27555013D01*
X33143376Y-27624627D01*
X33110769Y-27686421D01*
X33094733Y-27700317D01*
X33053072Y-27730585D01*
X32930588Y-27853069D01*
X32930588Y-27853070D01*
X32930586Y-27853072D01*
X32886859Y-27913256D01*
X32828768Y-27993211D01*
X32750128Y-28147552D01*
X32696597Y-28312302D01*
X32687459Y-28370000D01*
X32669500Y-28483389D01*
X32669500Y-30056611D01*
X32696598Y-30227701D01*
X32750127Y-30392445D01*
X32828768Y-30546788D01*
X32930586Y-30686928D01*
X33053072Y-30809414D01*
X33193212Y-30911232D01*
X33347555Y-30989873D01*
X33512299Y-31043402D01*
X33683389Y-31070500D01*
X33683390Y-31070500D01*
X33856610Y-31070500D01*
X33856611Y-31070500D01*
X34027701Y-31043402D01*
X34192445Y-30989873D01*
X34346788Y-30911232D01*
X34486928Y-30809414D01*
X34609414Y-30686928D01*
X34711232Y-30546788D01*
X34789873Y-30392445D01*
X34843402Y-30227701D01*
X34870500Y-30056611D01*
X34870500Y-28483389D01*
X34843402Y-28312299D01*
X34789873Y-28147555D01*
X34711232Y-27993212D01*
X34609414Y-27853072D01*
X34486928Y-27730586D01*
X34445265Y-27700316D01*
X34402602Y-27644988D01*
X34396623Y-27575374D01*
X34429229Y-27513579D01*
X34445266Y-27499683D01*
X34486928Y-27469414D01*
X34609414Y-27346928D01*
X34711232Y-27206788D01*
X34789873Y-27052445D01*
X34843402Y-26887701D01*
X34870500Y-26716611D01*
X34870500Y-25143389D01*
X35209500Y-25143389D01*
X35209500Y-26716610D01*
X35235934Y-26883512D01*
X35236598Y-26887701D01*
X35290127Y-27052445D01*
X35368768Y-27206788D01*
X35470586Y-27346928D01*
X35470588Y-27346930D01*
X35593072Y-27469414D01*
X35634733Y-27499683D01*
X35677398Y-27555013D01*
X35683376Y-27624627D01*
X35650769Y-27686421D01*
X35634733Y-27700317D01*
X35593072Y-27730585D01*
X35470588Y-27853069D01*
X35470588Y-27853070D01*
X35470586Y-27853072D01*
X35426859Y-27913256D01*
X35368768Y-27993211D01*
X35290128Y-28147552D01*
X35236597Y-28312302D01*
X35227459Y-28370000D01*
X35209500Y-28483389D01*
X35209500Y-30056611D01*
X35236598Y-30227701D01*
X35290127Y-30392445D01*
X35368768Y-30546788D01*
X35470586Y-30686928D01*
X35593072Y-30809414D01*
X35733212Y-30911232D01*
X35887555Y-30989873D01*
X36052299Y-31043402D01*
X36223389Y-31070500D01*
X36223390Y-31070500D01*
X36396610Y-31070500D01*
X36396611Y-31070500D01*
X36567701Y-31043402D01*
X36732445Y-30989873D01*
X36886788Y-30911232D01*
X37026928Y-30809414D01*
X37149414Y-30686928D01*
X37251232Y-30546788D01*
X37329873Y-30392445D01*
X37383402Y-30227701D01*
X37410500Y-30056611D01*
X37410500Y-28483389D01*
X37383402Y-28312299D01*
X37329873Y-28147555D01*
X37251232Y-27993212D01*
X37149414Y-27853072D01*
X37026928Y-27730586D01*
X36985265Y-27700316D01*
X36942602Y-27644988D01*
X36936623Y-27575374D01*
X36969229Y-27513579D01*
X36985266Y-27499683D01*
X37026928Y-27469414D01*
X37149414Y-27346928D01*
X37251232Y-27206788D01*
X37329873Y-27052445D01*
X37383402Y-26887701D01*
X37410500Y-26716611D01*
X37410500Y-25143389D01*
X37749500Y-25143389D01*
X37749500Y-26716610D01*
X37775934Y-26883512D01*
X37776598Y-26887701D01*
X37830127Y-27052445D01*
X37908768Y-27206788D01*
X38010586Y-27346928D01*
X38010588Y-27346930D01*
X38133072Y-27469414D01*
X38174733Y-27499683D01*
X38217398Y-27555013D01*
X38223376Y-27624627D01*
X38190769Y-27686421D01*
X38174733Y-27700317D01*
X38133072Y-27730585D01*
X38010588Y-27853069D01*
X38010588Y-27853070D01*
X38010586Y-27853072D01*
X37966859Y-27913256D01*
X37908768Y-27993211D01*
X37830128Y-28147552D01*
X37776597Y-28312302D01*
X37767459Y-28370000D01*
X37749500Y-28483389D01*
X37749500Y-30056611D01*
X37776598Y-30227701D01*
X37830127Y-30392445D01*
X37908768Y-30546788D01*
X38010586Y-30686928D01*
X38133072Y-30809414D01*
X38273212Y-30911232D01*
X38427555Y-30989873D01*
X38592299Y-31043402D01*
X38763389Y-31070500D01*
X38763390Y-31070500D01*
X38936610Y-31070500D01*
X38936611Y-31070500D01*
X39107701Y-31043402D01*
X39272445Y-30989873D01*
X39426788Y-30911232D01*
X39566928Y-30809414D01*
X39689414Y-30686928D01*
X39791232Y-30546788D01*
X39869873Y-30392445D01*
X39923402Y-30227701D01*
X39950500Y-30056611D01*
X39950500Y-28483389D01*
X39923402Y-28312299D01*
X39869873Y-28147555D01*
X39791232Y-27993212D01*
X39689414Y-27853072D01*
X39566928Y-27730586D01*
X39525265Y-27700316D01*
X39482602Y-27644988D01*
X39476623Y-27575374D01*
X39509229Y-27513579D01*
X39525266Y-27499683D01*
X39566928Y-27469414D01*
X39689414Y-27346928D01*
X39791232Y-27206788D01*
X39869873Y-27052445D01*
X39923402Y-26887701D01*
X39950500Y-26716611D01*
X39950500Y-25143389D01*
X39923402Y-24972299D01*
X39869873Y-24807555D01*
X39791232Y-24653212D01*
X39689414Y-24513072D01*
X39566928Y-24390586D01*
X39426788Y-24288768D01*
X39424284Y-24287492D01*
X39272447Y-24210128D01*
X39272446Y-24210127D01*
X39272445Y-24210127D01*
X39107701Y-24156598D01*
X39107699Y-24156597D01*
X39107698Y-24156597D01*
X38970118Y-24134807D01*
X38936611Y-24129500D01*
X38763389Y-24129500D01*
X38729882Y-24134807D01*
X38592302Y-24156597D01*
X38427552Y-24210128D01*
X38273211Y-24288768D01*
X38198243Y-24343236D01*
X38133072Y-24390586D01*
X38133070Y-24390588D01*
X38133069Y-24390588D01*
X38010588Y-24513069D01*
X38010588Y-24513070D01*
X38010586Y-24513072D01*
X37974163Y-24563204D01*
X37908768Y-24653211D01*
X37830128Y-24807552D01*
X37776597Y-24972302D01*
X37749500Y-25143389D01*
X37410500Y-25143389D01*
X37383402Y-24972299D01*
X37329873Y-24807555D01*
X37251232Y-24653212D01*
X37149414Y-24513072D01*
X37026928Y-24390586D01*
X36886788Y-24288768D01*
X36884284Y-24287492D01*
X36732447Y-24210128D01*
X36732446Y-24210127D01*
X36732445Y-24210127D01*
X36567701Y-24156598D01*
X36567699Y-24156597D01*
X36567698Y-24156597D01*
X36430118Y-24134807D01*
X36396611Y-24129500D01*
X36223389Y-24129500D01*
X36189882Y-24134807D01*
X36052302Y-24156597D01*
X35887552Y-24210128D01*
X35733211Y-24288768D01*
X35658243Y-24343236D01*
X35593072Y-24390586D01*
X35593070Y-24390588D01*
X35593069Y-24390588D01*
X35470588Y-24513069D01*
X35470588Y-24513070D01*
X35470586Y-24513072D01*
X35434163Y-24563204D01*
X35368768Y-24653211D01*
X35290128Y-24807552D01*
X35236597Y-24972302D01*
X35209500Y-25143389D01*
X34870500Y-25143389D01*
X34843402Y-24972299D01*
X34789873Y-24807555D01*
X34711232Y-24653212D01*
X34609414Y-24513072D01*
X34486928Y-24390586D01*
X34346788Y-24288768D01*
X34344284Y-24287492D01*
X34192447Y-24210128D01*
X34192446Y-24210127D01*
X34192445Y-24210127D01*
X34027701Y-24156598D01*
X34027699Y-24156597D01*
X34027698Y-24156597D01*
X33890118Y-24134807D01*
X33856611Y-24129500D01*
X33683389Y-24129500D01*
X33649882Y-24134807D01*
X33512302Y-24156597D01*
X33347552Y-24210128D01*
X33193211Y-24288768D01*
X33118243Y-24343236D01*
X33053072Y-24390586D01*
X33053070Y-24390588D01*
X33053069Y-24390588D01*
X32930588Y-24513069D01*
X32930588Y-24513070D01*
X32930586Y-24513072D01*
X32894163Y-24563204D01*
X32828768Y-24653211D01*
X32750128Y-24807552D01*
X32696597Y-24972302D01*
X32669500Y-25143389D01*
X32330500Y-25143389D01*
X32303402Y-24972299D01*
X32249873Y-24807555D01*
X32171232Y-24653212D01*
X32069414Y-24513072D01*
X31946928Y-24390586D01*
X31806788Y-24288768D01*
X31804284Y-24287492D01*
X31652447Y-24210128D01*
X31652446Y-24210127D01*
X31652445Y-24210127D01*
X31487701Y-24156598D01*
X31487699Y-24156597D01*
X31487698Y-24156597D01*
X31350118Y-24134807D01*
X31316611Y-24129500D01*
X31143389Y-24129500D01*
X31109882Y-24134807D01*
X30972302Y-24156597D01*
X30807552Y-24210128D01*
X30653211Y-24288768D01*
X30578243Y-24343236D01*
X30513072Y-24390586D01*
X30513070Y-24390588D01*
X30513069Y-24390588D01*
X30390588Y-24513069D01*
X30390588Y-24513070D01*
X30390586Y-24513072D01*
X30354163Y-24563204D01*
X30288768Y-24653211D01*
X30210128Y-24807552D01*
X30156597Y-24972302D01*
X30129500Y-25143389D01*
X29790500Y-25143389D01*
X29763402Y-24972299D01*
X29709873Y-24807555D01*
X29631232Y-24653212D01*
X29529414Y-24513072D01*
X29406928Y-24390586D01*
X29406927Y-24390585D01*
X29363233Y-24358839D01*
X29320568Y-24303508D01*
X29314590Y-24233895D01*
X29347197Y-24172100D01*
X29408036Y-24137744D01*
X29416683Y-24136055D01*
X29464534Y-24128477D01*
X29659219Y-24065220D01*
X29841610Y-23972287D01*
X29983500Y-23869199D01*
X30007213Y-23851971D01*
X30007215Y-23851968D01*
X30007219Y-23851966D01*
X30151966Y-23707219D01*
X30151968Y-23707215D01*
X30151971Y-23707213D01*
X30204732Y-23634590D01*
X30272287Y-23541610D01*
X30365220Y-23359219D01*
X30428477Y-23164534D01*
X30460500Y-22962352D01*
X30460500Y-22757648D01*
X30428477Y-22555466D01*
X30365220Y-22360781D01*
X30365218Y-22360778D01*
X30365218Y-22360776D01*
X30330405Y-22292452D01*
X30272287Y-22178390D01*
X30235281Y-22127455D01*
X30151971Y-22012786D01*
X30091018Y-21951833D01*
X30057533Y-21890510D01*
X30062517Y-21820818D01*
X30104389Y-21764885D01*
X30109789Y-21761063D01*
X30195021Y-21704114D01*
X30835702Y-21063431D01*
X30897023Y-21029948D01*
X30942774Y-21028641D01*
X31017648Y-21040500D01*
X31017650Y-21040500D01*
X31222351Y-21040500D01*
X31222352Y-21040500D01*
X31353415Y-21019741D01*
X31422707Y-21028695D01*
X31476159Y-21073691D01*
X31496799Y-21140443D01*
X31478074Y-21207757D01*
X31445699Y-21242531D01*
X31390989Y-21282280D01*
X31257374Y-21415895D01*
X31257374Y-21415896D01*
X31257372Y-21415898D01*
X31224350Y-21461349D01*
X31146302Y-21568771D01*
X31060516Y-21737134D01*
X31002121Y-21916852D01*
X30972562Y-22103484D01*
X30972562Y-22292457D01*
X31002121Y-22479089D01*
X31060516Y-22658807D01*
X31123325Y-22782075D01*
X31146302Y-22827170D01*
X31257372Y-22980044D01*
X31390989Y-23113661D01*
X31543863Y-23224731D01*
X31623409Y-23265261D01*
X31712225Y-23310516D01*
X31712227Y-23310516D01*
X31712230Y-23310518D01*
X31778240Y-23331966D01*
X31891943Y-23368911D01*
X32078576Y-23398471D01*
X32078581Y-23398471D01*
X32267548Y-23398471D01*
X32454180Y-23368911D01*
X32483996Y-23359223D01*
X32633894Y-23310518D01*
X32802261Y-23224731D01*
X32887274Y-23162964D01*
X32953077Y-23139485D01*
X33021131Y-23155310D01*
X33047839Y-23175602D01*
X33087927Y-23215690D01*
X33240801Y-23326760D01*
X33318878Y-23366542D01*
X33409163Y-23412545D01*
X33409165Y-23412545D01*
X33409168Y-23412547D01*
X33505497Y-23443846D01*
X33588881Y-23470940D01*
X33775514Y-23500500D01*
X33775519Y-23500500D01*
X33964486Y-23500500D01*
X34151118Y-23470940D01*
X34172126Y-23464114D01*
X34330832Y-23412547D01*
X34499199Y-23326760D01*
X34652073Y-23215690D01*
X34785690Y-23082073D01*
X34896760Y-22929199D01*
X34982547Y-22760832D01*
X35040940Y-22581118D01*
X35059991Y-22460836D01*
X35070500Y-22394486D01*
X35070500Y-22205513D01*
X35040940Y-22018881D01*
X35009343Y-21921638D01*
X34982547Y-21839168D01*
X34982545Y-21839165D01*
X34982545Y-21839163D01*
X34913734Y-21704115D01*
X34896760Y-21670801D01*
X34785690Y-21517927D01*
X34652073Y-21384310D01*
X34633478Y-21370800D01*
X34621613Y-21362179D01*
X34578948Y-21306848D01*
X34570500Y-21261862D01*
X34570500Y-10921517D01*
X34590185Y-10854478D01*
X34606814Y-10833841D01*
X38337821Y-7102833D01*
X38399142Y-7069350D01*
X38468834Y-7074334D01*
X38524767Y-7116206D01*
X38549184Y-7181670D01*
X38549500Y-7190516D01*
X38549500Y-7644856D01*
X38549502Y-7644882D01*
X38552413Y-7669987D01*
X38552415Y-7669991D01*
X38597793Y-7772764D01*
X38597794Y-7772765D01*
X38677235Y-7852206D01*
X38780009Y-7897585D01*
X38805135Y-7900500D01*
X41394864Y-7900499D01*
X41394879Y-7900497D01*
X41394882Y-7900497D01*
X41419987Y-7897586D01*
X41419988Y-7897585D01*
X41419991Y-7897585D01*
X41522765Y-7852206D01*
X41538152Y-7836819D01*
X41565079Y-7822115D01*
X41590898Y-7805523D01*
X41597098Y-7804631D01*
X41599475Y-7803334D01*
X41625833Y-7800500D01*
X41675500Y-7800500D01*
X41742539Y-7820185D01*
X41788294Y-7872989D01*
X41799500Y-7924500D01*
X41799500Y-8122351D01*
X41820684Y-8256102D01*
X41818288Y-8274641D01*
X41820949Y-8293147D01*
X41813902Y-8308576D01*
X41811729Y-8325396D01*
X41799690Y-8339697D01*
X41791924Y-8356703D01*
X41777655Y-8365872D01*
X41766733Y-8378848D01*
X41748872Y-8384370D01*
X41733146Y-8394477D01*
X41701442Y-8399035D01*
X41699982Y-8399487D01*
X41698211Y-8399500D01*
X41625833Y-8399500D01*
X41558794Y-8379815D01*
X41538152Y-8363181D01*
X41522765Y-8347794D01*
X41419992Y-8302415D01*
X41394865Y-8299500D01*
X38805143Y-8299500D01*
X38805117Y-8299502D01*
X38780012Y-8302413D01*
X38780008Y-8302415D01*
X38677235Y-8347793D01*
X38597794Y-8427234D01*
X38552415Y-8530006D01*
X38552415Y-8530008D01*
X38549500Y-8555134D01*
X38549500Y-9644856D01*
X38549502Y-9644882D01*
X38552413Y-9669987D01*
X38552415Y-9669991D01*
X38597793Y-9772764D01*
X38597794Y-9772765D01*
X38677235Y-9852206D01*
X38780009Y-9897585D01*
X38805135Y-9900500D01*
X41394864Y-9900499D01*
X41394879Y-9900497D01*
X41394882Y-9900497D01*
X41419987Y-9897586D01*
X41419988Y-9897585D01*
X41419991Y-9897585D01*
X41522765Y-9852206D01*
X41522765Y-9852205D01*
X41533276Y-9847565D01*
X41534104Y-9849441D01*
X41551010Y-9843929D01*
X41581410Y-9832591D01*
X41584036Y-9833162D01*
X41586593Y-9832329D01*
X41617978Y-9840546D01*
X41649683Y-9847443D01*
X41652566Y-9849601D01*
X41654184Y-9850025D01*
X41677937Y-9868594D01*
X41768194Y-9958851D01*
X41801679Y-10020174D01*
X41802986Y-10065929D01*
X41784500Y-10182647D01*
X41784500Y-10275500D01*
X41781949Y-10284185D01*
X41783238Y-10293147D01*
X41772259Y-10317187D01*
X41764815Y-10342539D01*
X41757974Y-10348466D01*
X41754213Y-10356703D01*
X41731978Y-10370992D01*
X41712011Y-10388294D01*
X41701496Y-10390581D01*
X41695435Y-10394477D01*
X41660500Y-10399500D01*
X41625833Y-10399500D01*
X41558794Y-10379815D01*
X41538152Y-10363181D01*
X41522765Y-10347794D01*
X41419992Y-10302415D01*
X41394865Y-10299500D01*
X38805143Y-10299500D01*
X38805117Y-10299502D01*
X38780012Y-10302413D01*
X38780008Y-10302415D01*
X38677235Y-10347793D01*
X38597794Y-10427234D01*
X38552415Y-10530006D01*
X38552415Y-10530008D01*
X38549500Y-10555131D01*
X38549500Y-10907977D01*
X38529815Y-10975016D01*
X38513181Y-10995658D01*
X37867076Y-11641762D01*
X37867075Y-11641763D01*
X37794241Y-11750769D01*
X37744076Y-11871878D01*
X37744073Y-11871888D01*
X37734382Y-11920609D01*
X37734382Y-11920610D01*
X37718500Y-12000451D01*
X37718500Y-12000454D01*
X37718500Y-18479217D01*
X37718500Y-18610311D01*
X37718500Y-18610313D01*
X37718499Y-18610313D01*
X37744073Y-18738877D01*
X37744075Y-18738883D01*
X37794072Y-18859587D01*
X37794242Y-18859996D01*
X37867072Y-18968996D01*
X37867073Y-18968997D01*
X37867074Y-18968998D01*
X37955397Y-19057320D01*
X37988882Y-19118643D01*
X37991716Y-19145002D01*
X37991716Y-19543408D01*
X37972031Y-19610447D01*
X37970819Y-19612298D01*
X37900241Y-19717927D01*
X37850075Y-19839038D01*
X37850073Y-19839046D01*
X37829536Y-19942294D01*
X37829536Y-19942297D01*
X37824500Y-19967611D01*
X37824500Y-21435452D01*
X37804815Y-21502491D01*
X37800818Y-21508337D01*
X37691802Y-21658386D01*
X37598868Y-21840776D01*
X37535609Y-22035465D01*
X37503587Y-22237648D01*
X37503587Y-22442351D01*
X37535609Y-22644534D01*
X37598868Y-22839223D01*
X37691802Y-23021613D01*
X37812115Y-23187213D01*
X37956873Y-23331971D01*
X38067776Y-23412545D01*
X38122477Y-23452287D01*
X38238694Y-23511503D01*
X38304863Y-23545218D01*
X38304865Y-23545218D01*
X38304868Y-23545220D01*
X38409224Y-23579127D01*
X38499552Y-23608477D01*
X38569186Y-23619506D01*
X38701735Y-23640500D01*
X38701736Y-23640500D01*
X38906438Y-23640500D01*
X38906439Y-23640500D01*
X39108621Y-23608477D01*
X39179576Y-23585421D01*
X39249413Y-23583426D01*
X39309246Y-23619506D01*
X39335820Y-23665031D01*
X39338534Y-23673382D01*
X39347454Y-23700836D01*
X39424233Y-23851522D01*
X39433240Y-23869199D01*
X39544310Y-24022073D01*
X39677927Y-24155690D01*
X39830801Y-24266760D01*
X39902923Y-24303508D01*
X39999163Y-24352545D01*
X39999165Y-24352545D01*
X39999168Y-24352547D01*
X40057644Y-24371547D01*
X40178881Y-24410940D01*
X40365515Y-24440500D01*
X40369708Y-24440830D01*
X40434998Y-24465710D01*
X40476472Y-24521939D01*
X40480962Y-24591664D01*
X40460304Y-24637333D01*
X40448770Y-24653207D01*
X40370128Y-24807552D01*
X40316597Y-24972302D01*
X40289500Y-25143389D01*
X40289500Y-26716610D01*
X40315934Y-26883512D01*
X40316598Y-26887701D01*
X40370127Y-27052445D01*
X40448768Y-27206788D01*
X40550586Y-27346928D01*
X40550588Y-27346930D01*
X40673072Y-27469414D01*
X40714733Y-27499683D01*
X40757398Y-27555013D01*
X40763376Y-27624627D01*
X40730769Y-27686421D01*
X40714733Y-27700317D01*
X40673072Y-27730585D01*
X40550588Y-27853069D01*
X40550588Y-27853070D01*
X40550586Y-27853072D01*
X40506859Y-27913256D01*
X40448768Y-27993211D01*
X40370128Y-28147552D01*
X40316597Y-28312302D01*
X40307459Y-28370000D01*
X40289500Y-28483389D01*
X40289500Y-30056611D01*
X40316598Y-30227701D01*
X40370127Y-30392445D01*
X40448768Y-30546788D01*
X40550586Y-30686928D01*
X40673072Y-30809414D01*
X40813212Y-30911232D01*
X40967555Y-30989873D01*
X41132299Y-31043402D01*
X41303389Y-31070500D01*
X41303390Y-31070500D01*
X41476610Y-31070500D01*
X41476611Y-31070500D01*
X41647701Y-31043402D01*
X41812445Y-30989873D01*
X41966788Y-30911232D01*
X42106928Y-30809414D01*
X42229414Y-30686928D01*
X42331232Y-30546788D01*
X42409873Y-30392445D01*
X42463402Y-30227701D01*
X42490500Y-30056611D01*
X42490500Y-28483389D01*
X42463402Y-28312299D01*
X42409873Y-28147555D01*
X42331232Y-27993212D01*
X42229414Y-27853072D01*
X42106928Y-27730586D01*
X42065265Y-27700316D01*
X42022602Y-27644988D01*
X42016623Y-27575374D01*
X42049229Y-27513579D01*
X42065266Y-27499683D01*
X42106928Y-27469414D01*
X42229414Y-27346928D01*
X42331232Y-27206788D01*
X42409873Y-27052445D01*
X42463402Y-26887701D01*
X42490500Y-26716611D01*
X42490500Y-25143389D01*
X42829500Y-25143389D01*
X42829500Y-26716610D01*
X42855934Y-26883512D01*
X42856598Y-26887701D01*
X42910127Y-27052445D01*
X42988768Y-27206788D01*
X43090586Y-27346928D01*
X43090588Y-27346930D01*
X43213072Y-27469414D01*
X43254733Y-27499683D01*
X43297398Y-27555013D01*
X43303376Y-27624627D01*
X43270769Y-27686421D01*
X43254733Y-27700317D01*
X43213072Y-27730585D01*
X43090588Y-27853069D01*
X43090588Y-27853070D01*
X43090586Y-27853072D01*
X43046859Y-27913256D01*
X42988768Y-27993211D01*
X42910128Y-28147552D01*
X42856597Y-28312302D01*
X42847459Y-28370000D01*
X42829500Y-28483389D01*
X42829500Y-30056611D01*
X42856598Y-30227701D01*
X42910127Y-30392445D01*
X42988768Y-30546788D01*
X43090586Y-30686928D01*
X43213072Y-30809414D01*
X43353212Y-30911232D01*
X43507555Y-30989873D01*
X43672299Y-31043402D01*
X43843389Y-31070500D01*
X43843390Y-31070500D01*
X44016610Y-31070500D01*
X44016611Y-31070500D01*
X44187701Y-31043402D01*
X44352445Y-30989873D01*
X44506788Y-30911232D01*
X44646928Y-30809414D01*
X44769414Y-30686928D01*
X44871232Y-30546788D01*
X44949873Y-30392445D01*
X45003402Y-30227701D01*
X45030500Y-30056611D01*
X45030500Y-28483389D01*
X45003402Y-28312299D01*
X44949873Y-28147555D01*
X44871232Y-27993212D01*
X44769414Y-27853072D01*
X44646928Y-27730586D01*
X44605265Y-27700316D01*
X44562602Y-27644988D01*
X44556623Y-27575374D01*
X44589229Y-27513579D01*
X44605266Y-27499683D01*
X44646928Y-27469414D01*
X44769414Y-27346928D01*
X44871232Y-27206788D01*
X44949873Y-27052445D01*
X45003402Y-26887701D01*
X45030500Y-26716611D01*
X45030500Y-25143389D01*
X45369500Y-25143389D01*
X45369500Y-26716610D01*
X45395934Y-26883512D01*
X45396598Y-26887701D01*
X45450127Y-27052445D01*
X45528768Y-27206788D01*
X45630586Y-27346928D01*
X45630588Y-27346930D01*
X45753072Y-27469414D01*
X45794733Y-27499683D01*
X45837398Y-27555013D01*
X45843376Y-27624627D01*
X45810769Y-27686421D01*
X45794733Y-27700317D01*
X45753072Y-27730585D01*
X45630588Y-27853069D01*
X45630588Y-27853070D01*
X45630586Y-27853072D01*
X45586859Y-27913256D01*
X45528768Y-27993211D01*
X45450128Y-28147552D01*
X45396597Y-28312302D01*
X45387459Y-28370000D01*
X45369500Y-28483389D01*
X45369500Y-30056611D01*
X45396598Y-30227701D01*
X45450127Y-30392445D01*
X45528768Y-30546788D01*
X45630586Y-30686928D01*
X45753072Y-30809414D01*
X45893212Y-30911232D01*
X46047555Y-30989873D01*
X46212299Y-31043402D01*
X46383389Y-31070500D01*
X46383390Y-31070500D01*
X46556610Y-31070500D01*
X46556611Y-31070500D01*
X46727701Y-31043402D01*
X46892445Y-30989873D01*
X47046788Y-30911232D01*
X47186928Y-30809414D01*
X47309414Y-30686928D01*
X47411232Y-30546788D01*
X47489873Y-30392445D01*
X47543402Y-30227701D01*
X47570500Y-30056611D01*
X47570500Y-28483389D01*
X47543402Y-28312299D01*
X47489873Y-28147555D01*
X47411232Y-27993212D01*
X47309414Y-27853072D01*
X47186928Y-27730586D01*
X47145265Y-27700316D01*
X47102602Y-27644988D01*
X47096623Y-27575374D01*
X47129229Y-27513579D01*
X47145266Y-27499683D01*
X47186928Y-27469414D01*
X47309414Y-27346928D01*
X47411232Y-27206788D01*
X47489873Y-27052445D01*
X47543402Y-26887701D01*
X47570500Y-26716611D01*
X47570500Y-25143389D01*
X47909500Y-25143389D01*
X47909500Y-26716610D01*
X47935934Y-26883512D01*
X47936598Y-26887701D01*
X47990127Y-27052445D01*
X48068768Y-27206788D01*
X48170586Y-27346928D01*
X48170588Y-27346930D01*
X48293072Y-27469414D01*
X48334733Y-27499683D01*
X48377398Y-27555013D01*
X48383376Y-27624627D01*
X48350769Y-27686421D01*
X48334733Y-27700317D01*
X48293072Y-27730585D01*
X48170588Y-27853069D01*
X48170588Y-27853070D01*
X48170586Y-27853072D01*
X48126859Y-27913256D01*
X48068768Y-27993211D01*
X47990128Y-28147552D01*
X47936597Y-28312302D01*
X47927459Y-28370000D01*
X47909500Y-28483389D01*
X47909500Y-30056611D01*
X47936598Y-30227701D01*
X47990127Y-30392445D01*
X48068768Y-30546788D01*
X48170586Y-30686928D01*
X48293072Y-30809414D01*
X48433212Y-30911232D01*
X48587555Y-30989873D01*
X48752299Y-31043402D01*
X48923389Y-31070500D01*
X48923390Y-31070500D01*
X49096610Y-31070500D01*
X49096611Y-31070500D01*
X49267701Y-31043402D01*
X49432445Y-30989873D01*
X49586788Y-30911232D01*
X49726928Y-30809414D01*
X49849414Y-30686928D01*
X49951232Y-30546788D01*
X50029873Y-30392445D01*
X50083402Y-30227701D01*
X50110500Y-30056611D01*
X50110500Y-28483389D01*
X50083402Y-28312299D01*
X50029873Y-28147555D01*
X49951232Y-27993212D01*
X49849414Y-27853072D01*
X49726928Y-27730586D01*
X49685265Y-27700316D01*
X49642602Y-27644988D01*
X49636623Y-27575374D01*
X49669229Y-27513579D01*
X49685266Y-27499683D01*
X49726928Y-27469414D01*
X49849414Y-27346928D01*
X49951232Y-27206788D01*
X50029873Y-27052445D01*
X50083402Y-26887701D01*
X50110500Y-26716611D01*
X50110500Y-25143389D01*
X50449500Y-25143389D01*
X50449500Y-26716610D01*
X50475934Y-26883512D01*
X50476598Y-26887701D01*
X50530127Y-27052445D01*
X50608768Y-27206788D01*
X50710586Y-27346928D01*
X50710588Y-27346930D01*
X50833072Y-27469414D01*
X50874733Y-27499683D01*
X50917398Y-27555013D01*
X50923376Y-27624627D01*
X50890769Y-27686421D01*
X50874733Y-27700317D01*
X50833072Y-27730585D01*
X50710588Y-27853069D01*
X50710588Y-27853070D01*
X50710586Y-27853072D01*
X50666859Y-27913256D01*
X50608768Y-27993211D01*
X50530128Y-28147552D01*
X50476597Y-28312302D01*
X50467459Y-28370000D01*
X50449500Y-28483389D01*
X50449500Y-30056611D01*
X50476598Y-30227701D01*
X50530127Y-30392445D01*
X50608768Y-30546788D01*
X50710586Y-30686928D01*
X50833072Y-30809414D01*
X50973212Y-30911232D01*
X51127555Y-30989873D01*
X51292299Y-31043402D01*
X51463389Y-31070500D01*
X51463390Y-31070500D01*
X51636610Y-31070500D01*
X51636611Y-31070500D01*
X51807701Y-31043402D01*
X51972445Y-30989873D01*
X52126788Y-30911232D01*
X52266928Y-30809414D01*
X52389414Y-30686928D01*
X52491232Y-30546788D01*
X52569873Y-30392445D01*
X52623402Y-30227701D01*
X52650500Y-30056611D01*
X52650500Y-28483389D01*
X52623402Y-28312299D01*
X52569873Y-28147555D01*
X52491232Y-27993212D01*
X52389414Y-27853072D01*
X52266928Y-27730586D01*
X52225265Y-27700316D01*
X52182602Y-27644988D01*
X52176623Y-27575374D01*
X52209229Y-27513579D01*
X52225266Y-27499683D01*
X52266928Y-27469414D01*
X52389414Y-27346928D01*
X52491232Y-27206788D01*
X52569873Y-27052445D01*
X52623402Y-26887701D01*
X52650500Y-26716611D01*
X52650500Y-25143389D01*
X52989500Y-25143389D01*
X52989500Y-26716610D01*
X53015934Y-26883512D01*
X53016598Y-26887701D01*
X53070127Y-27052445D01*
X53148768Y-27206788D01*
X53250586Y-27346928D01*
X53250588Y-27346930D01*
X53373072Y-27469414D01*
X53414733Y-27499683D01*
X53457398Y-27555013D01*
X53463376Y-27624627D01*
X53430769Y-27686421D01*
X53414733Y-27700317D01*
X53373072Y-27730585D01*
X53250588Y-27853069D01*
X53250588Y-27853070D01*
X53250586Y-27853072D01*
X53206859Y-27913256D01*
X53148768Y-27993211D01*
X53070128Y-28147552D01*
X53016597Y-28312302D01*
X53007459Y-28370000D01*
X52989500Y-28483389D01*
X52989500Y-30056611D01*
X53016598Y-30227701D01*
X53070127Y-30392445D01*
X53148768Y-30546788D01*
X53250586Y-30686928D01*
X53373072Y-30809414D01*
X53513212Y-30911232D01*
X53667555Y-30989873D01*
X53832299Y-31043402D01*
X54003389Y-31070500D01*
X54003390Y-31070500D01*
X54176610Y-31070500D01*
X54176611Y-31070500D01*
X54347701Y-31043402D01*
X54512445Y-30989873D01*
X54666788Y-30911232D01*
X54806928Y-30809414D01*
X54916306Y-30700036D01*
X55553513Y-30700036D01*
X55638417Y-30816895D01*
X55783104Y-30961582D01*
X55948650Y-31081859D01*
X56130968Y-31174755D01*
X56325582Y-31237990D01*
X56527683Y-31270000D01*
X56732317Y-31270000D01*
X56934417Y-31237990D01*
X57129031Y-31174755D01*
X57311349Y-31081859D01*
X57476894Y-30961582D01*
X57476895Y-30961582D01*
X57621584Y-30816893D01*
X57706484Y-30700037D01*
X57706484Y-30700036D01*
X56630000Y-29623552D01*
X55553513Y-30700036D01*
X54916306Y-30700036D01*
X54929414Y-30686928D01*
X55031232Y-30546788D01*
X55109873Y-30392445D01*
X55151974Y-30262870D01*
X55191410Y-30205198D01*
X55255769Y-30177999D01*
X55308222Y-30183260D01*
X55349707Y-30196739D01*
X56276448Y-29270000D01*
X56276448Y-29269999D01*
X55349707Y-28343258D01*
X55308221Y-28356738D01*
X55238380Y-28358733D01*
X55178547Y-28322653D01*
X55151974Y-28277129D01*
X55109873Y-28147555D01*
X55031232Y-27993212D01*
X54929414Y-27853072D01*
X54806928Y-27730586D01*
X54765265Y-27700316D01*
X54722602Y-27644988D01*
X54716623Y-27575374D01*
X54749229Y-27513579D01*
X54765266Y-27499683D01*
X54806928Y-27469414D01*
X54929414Y-27346928D01*
X55031232Y-27206788D01*
X55109873Y-27052445D01*
X55137186Y-26968384D01*
X55176622Y-26910711D01*
X55240981Y-26883512D01*
X55309827Y-26895427D01*
X55361303Y-26942671D01*
X55373047Y-26968385D01*
X55425244Y-27129031D01*
X55518140Y-27311349D01*
X55638417Y-27476894D01*
X55638417Y-27476895D01*
X55673841Y-27512319D01*
X55707326Y-27573642D01*
X55702342Y-27643334D01*
X55673841Y-27687681D01*
X55638417Y-27723104D01*
X55638416Y-27723105D01*
X55553513Y-27839962D01*
X55553514Y-27839963D01*
X56253222Y-28539671D01*
X56229901Y-28562993D01*
X56164075Y-28677007D01*
X56130000Y-28804174D01*
X56130000Y-28935826D01*
X56164075Y-29062993D01*
X56229901Y-29177007D01*
X56322993Y-29270099D01*
X56437007Y-29335925D01*
X56564174Y-29370000D01*
X56695826Y-29370000D01*
X56822993Y-29335925D01*
X56937007Y-29270099D01*
X56937107Y-29269999D01*
X56983552Y-29269999D01*
X56983552Y-29270000D01*
X57910291Y-30196740D01*
X57910292Y-30196739D01*
X57930000Y-30072311D01*
X57930000Y-28467688D01*
X57910292Y-28343259D01*
X56983552Y-29269999D01*
X56937107Y-29269999D01*
X57030099Y-29177007D01*
X57095925Y-29062993D01*
X57130000Y-28935826D01*
X57130000Y-28804174D01*
X57095925Y-28677007D01*
X57030099Y-28562993D01*
X57006777Y-28539671D01*
X57706484Y-27839963D01*
X57706485Y-27839961D01*
X57621587Y-27723110D01*
X57621582Y-27723104D01*
X57586159Y-27687681D01*
X57552674Y-27626358D01*
X57557658Y-27556666D01*
X57586159Y-27512319D01*
X57621582Y-27476895D01*
X57621582Y-27476894D01*
X57741859Y-27311349D01*
X57834755Y-27129031D01*
X57897990Y-26934417D01*
X57930000Y-26732317D01*
X57930000Y-26180000D01*
X57107445Y-26180000D01*
X57095925Y-26137007D01*
X57030099Y-26022993D01*
X56937007Y-25929901D01*
X56822993Y-25864075D01*
X56695826Y-25830000D01*
X56564174Y-25830000D01*
X56437007Y-25864075D01*
X56410269Y-25879511D01*
X56391206Y-25857511D01*
X56380000Y-25806000D01*
X56380000Y-25680000D01*
X56880000Y-25680000D01*
X57930000Y-25680000D01*
X57930000Y-25127682D01*
X57897990Y-24925582D01*
X57834755Y-24730968D01*
X57741859Y-24548650D01*
X57621582Y-24383105D01*
X57621582Y-24383104D01*
X57476895Y-24238417D01*
X57311349Y-24118140D01*
X57129029Y-24025244D01*
X56934413Y-23962009D01*
X56880000Y-23953390D01*
X56880000Y-25680000D01*
X56380000Y-25680000D01*
X56380000Y-23953390D01*
X56325586Y-23962009D01*
X56130970Y-24025244D01*
X55948650Y-24118140D01*
X55783105Y-24238417D01*
X55783104Y-24238417D01*
X55638417Y-24383104D01*
X55638417Y-24383105D01*
X55518140Y-24548650D01*
X55425244Y-24730968D01*
X55373047Y-24891614D01*
X55333609Y-24949289D01*
X55269250Y-24976487D01*
X55200404Y-24964572D01*
X55148928Y-24917328D01*
X55137186Y-24891615D01*
X55109873Y-24807555D01*
X55031232Y-24653212D01*
X54929414Y-24513072D01*
X54806928Y-24390586D01*
X54666788Y-24288768D01*
X54664284Y-24287492D01*
X54512447Y-24210128D01*
X54512446Y-24210127D01*
X54512445Y-24210127D01*
X54347701Y-24156598D01*
X54347699Y-24156597D01*
X54347698Y-24156597D01*
X54210118Y-24134807D01*
X54176611Y-24129500D01*
X54003389Y-24129500D01*
X53969882Y-24134807D01*
X53832302Y-24156597D01*
X53667552Y-24210128D01*
X53513211Y-24288768D01*
X53438243Y-24343236D01*
X53373072Y-24390586D01*
X53373070Y-24390588D01*
X53373069Y-24390588D01*
X53250588Y-24513069D01*
X53250588Y-24513070D01*
X53250586Y-24513072D01*
X53214163Y-24563204D01*
X53148768Y-24653211D01*
X53070128Y-24807552D01*
X53016597Y-24972302D01*
X52989500Y-25143389D01*
X52650500Y-25143389D01*
X52623402Y-24972299D01*
X52569873Y-24807555D01*
X52491232Y-24653212D01*
X52389414Y-24513072D01*
X52266928Y-24390586D01*
X52126788Y-24288768D01*
X52124284Y-24287492D01*
X51972447Y-24210128D01*
X51972446Y-24210127D01*
X51972445Y-24210127D01*
X51807701Y-24156598D01*
X51807699Y-24156597D01*
X51807698Y-24156597D01*
X51670118Y-24134807D01*
X51636611Y-24129500D01*
X51463389Y-24129500D01*
X51429882Y-24134807D01*
X51292302Y-24156597D01*
X51127552Y-24210128D01*
X50973211Y-24288768D01*
X50898243Y-24343236D01*
X50833072Y-24390586D01*
X50833070Y-24390588D01*
X50833069Y-24390588D01*
X50710588Y-24513069D01*
X50710588Y-24513070D01*
X50710586Y-24513072D01*
X50674163Y-24563204D01*
X50608768Y-24653211D01*
X50530128Y-24807552D01*
X50476597Y-24972302D01*
X50449500Y-25143389D01*
X50110500Y-25143389D01*
X50083402Y-24972299D01*
X50029873Y-24807555D01*
X49951232Y-24653212D01*
X49849414Y-24513072D01*
X49726928Y-24390586D01*
X49586788Y-24288768D01*
X49584284Y-24287492D01*
X49432447Y-24210128D01*
X49432446Y-24210127D01*
X49432445Y-24210127D01*
X49267701Y-24156598D01*
X49267699Y-24156597D01*
X49267698Y-24156597D01*
X49130118Y-24134807D01*
X49096611Y-24129500D01*
X48923389Y-24129500D01*
X48889882Y-24134807D01*
X48752302Y-24156597D01*
X48587552Y-24210128D01*
X48433211Y-24288768D01*
X48358243Y-24343236D01*
X48293072Y-24390586D01*
X48293070Y-24390588D01*
X48293069Y-24390588D01*
X48170588Y-24513069D01*
X48170588Y-24513070D01*
X48170586Y-24513072D01*
X48134163Y-24563204D01*
X48068768Y-24653211D01*
X47990128Y-24807552D01*
X47936597Y-24972302D01*
X47909500Y-25143389D01*
X47570500Y-25143389D01*
X47543402Y-24972299D01*
X47489873Y-24807555D01*
X47411232Y-24653212D01*
X47309414Y-24513072D01*
X47186928Y-24390586D01*
X47046788Y-24288768D01*
X47044284Y-24287492D01*
X46892447Y-24210128D01*
X46892446Y-24210127D01*
X46892445Y-24210127D01*
X46727701Y-24156598D01*
X46727699Y-24156597D01*
X46727698Y-24156597D01*
X46590118Y-24134807D01*
X46556611Y-24129500D01*
X46383389Y-24129500D01*
X46349882Y-24134807D01*
X46212302Y-24156597D01*
X46047552Y-24210128D01*
X45893211Y-24288768D01*
X45818243Y-24343236D01*
X45753072Y-24390586D01*
X45753070Y-24390588D01*
X45753069Y-24390588D01*
X45630588Y-24513069D01*
X45630588Y-24513070D01*
X45630586Y-24513072D01*
X45594163Y-24563204D01*
X45528768Y-24653211D01*
X45450128Y-24807552D01*
X45396597Y-24972302D01*
X45369500Y-25143389D01*
X45030500Y-25143389D01*
X45003402Y-24972299D01*
X44949873Y-24807555D01*
X44871232Y-24653212D01*
X44769414Y-24513072D01*
X44646928Y-24390586D01*
X44506788Y-24288768D01*
X44504284Y-24287492D01*
X44352447Y-24210128D01*
X44352446Y-24210127D01*
X44352445Y-24210127D01*
X44187701Y-24156598D01*
X44187699Y-24156597D01*
X44187698Y-24156597D01*
X44050118Y-24134807D01*
X44016611Y-24129500D01*
X43843389Y-24129500D01*
X43809882Y-24134807D01*
X43672302Y-24156597D01*
X43507552Y-24210128D01*
X43353211Y-24288768D01*
X43278243Y-24343236D01*
X43213072Y-24390586D01*
X43213070Y-24390588D01*
X43213069Y-24390588D01*
X43090588Y-24513069D01*
X43090588Y-24513070D01*
X43090586Y-24513072D01*
X43054163Y-24563204D01*
X42988768Y-24653211D01*
X42910128Y-24807552D01*
X42856597Y-24972302D01*
X42829500Y-25143389D01*
X42490500Y-25143389D01*
X42463402Y-24972299D01*
X42409873Y-24807555D01*
X42331232Y-24653212D01*
X42229414Y-24513072D01*
X42106928Y-24390586D01*
X41966788Y-24288768D01*
X41964284Y-24287492D01*
X41812447Y-24210128D01*
X41812446Y-24210127D01*
X41812445Y-24210127D01*
X41647701Y-24156598D01*
X41647699Y-24156597D01*
X41647697Y-24156597D01*
X41515967Y-24135733D01*
X41513520Y-24134573D01*
X41510823Y-24134807D01*
X41482140Y-24119697D01*
X41452832Y-24105804D01*
X41451399Y-24103504D01*
X41449006Y-24102243D01*
X41433048Y-24074031D01*
X41415901Y-24046492D01*
X41415939Y-24043784D01*
X41414607Y-24041428D01*
X41416435Y-24009057D01*
X41416899Y-23976630D01*
X41418442Y-23973544D01*
X41418548Y-23971670D01*
X41434745Y-23940946D01*
X41434994Y-23940447D01*
X41486760Y-23869199D01*
X41486938Y-23868848D01*
X41490002Y-23864626D01*
X41499189Y-23857531D01*
X41521477Y-23834342D01*
X41596651Y-23784114D01*
X44076124Y-21304640D01*
X44137443Y-21271158D01*
X44207134Y-21276142D01*
X44263068Y-21318013D01*
X44274286Y-21336029D01*
X44338140Y-21461349D01*
X44458417Y-21626894D01*
X44458417Y-21626895D01*
X44603104Y-21771582D01*
X44768646Y-21891856D01*
X44768649Y-21891858D01*
X44779209Y-21897238D01*
X45767037Y-20909410D01*
X45784075Y-20972993D01*
X45849901Y-21087007D01*
X45942993Y-21180099D01*
X46057007Y-21245925D01*
X46120589Y-21262962D01*
X45309586Y-22073965D01*
X45347689Y-22080000D01*
X47152311Y-22080000D01*
X47190412Y-22073964D01*
X46379410Y-21262962D01*
X46442993Y-21245925D01*
X46557007Y-21180099D01*
X46650099Y-21087007D01*
X46715925Y-20972993D01*
X46732962Y-20909410D01*
X47720790Y-21897239D01*
X47731347Y-21891860D01*
X47731351Y-21891858D01*
X47896894Y-21771582D01*
X47896895Y-21771582D01*
X48041582Y-21626895D01*
X48041582Y-21626894D01*
X48161859Y-21461349D01*
X48254755Y-21279031D01*
X48317990Y-21084417D01*
X48350000Y-20882317D01*
X48350000Y-20677682D01*
X48317990Y-20475582D01*
X48254755Y-20280968D01*
X48161859Y-20098650D01*
X48041582Y-19933105D01*
X48041582Y-19933104D01*
X47896895Y-19788417D01*
X47731347Y-19668139D01*
X47720792Y-19662760D01*
X47720790Y-19662760D01*
X46732962Y-20650588D01*
X46715925Y-20587007D01*
X46650099Y-20472993D01*
X46557007Y-20379901D01*
X46442993Y-20314075D01*
X46379410Y-20297037D01*
X47190413Y-19486034D01*
X47187672Y-19477598D01*
X47185677Y-19407756D01*
X47221757Y-19347923D01*
X47284458Y-19317095D01*
X47286070Y-19316827D01*
X47307701Y-19313402D01*
X47472445Y-19259873D01*
X47626788Y-19181232D01*
X47766928Y-19079414D01*
X47889414Y-18956928D01*
X47991232Y-18816788D01*
X48069873Y-18662445D01*
X48123402Y-18497701D01*
X48150500Y-18326611D01*
X48150500Y-18153389D01*
X48123402Y-17982299D01*
X48069873Y-17817555D01*
X47991232Y-17663212D01*
X47889414Y-17523072D01*
X47766928Y-17400586D01*
X47626788Y-17298768D01*
X47472445Y-17220127D01*
X47307701Y-17166598D01*
X47307699Y-17166597D01*
X47307698Y-17166597D01*
X47176271Y-17145781D01*
X47136611Y-17139500D01*
X45363389Y-17139500D01*
X45323728Y-17145781D01*
X45192302Y-17166597D01*
X45027552Y-17220128D01*
X44873211Y-17298768D01*
X44847545Y-17317416D01*
X44733072Y-17400586D01*
X44733070Y-17400588D01*
X44733069Y-17400588D01*
X44610588Y-17523069D01*
X44610588Y-17523070D01*
X44610586Y-17523072D01*
X44566859Y-17583256D01*
X44508768Y-17663211D01*
X44430128Y-17817552D01*
X44376597Y-17982302D01*
X44349500Y-18153389D01*
X44349500Y-18326610D01*
X44372451Y-18471522D01*
X44376598Y-18497701D01*
X44430127Y-18662445D01*
X44492810Y-18785469D01*
X44505706Y-18854136D01*
X44479430Y-18918877D01*
X44470006Y-18929443D01*
X41217169Y-22182280D01*
X41155846Y-22215765D01*
X41086154Y-22210781D01*
X41073194Y-22205084D01*
X40920838Y-22127455D01*
X40741118Y-22069059D01*
X40554486Y-22039500D01*
X40554481Y-22039500D01*
X40365519Y-22039500D01*
X40365514Y-22039500D01*
X40192751Y-22066863D01*
X40123457Y-22057908D01*
X40070006Y-22012912D01*
X40055422Y-21982708D01*
X40034024Y-21916852D01*
X40009307Y-21840781D01*
X39916374Y-21658390D01*
X39888057Y-21619414D01*
X39796058Y-21492786D01*
X39651300Y-21348028D01*
X39485700Y-21227715D01*
X39485699Y-21227714D01*
X39485697Y-21227713D01*
X39427263Y-21197939D01*
X39303306Y-21134779D01*
X39241180Y-21114593D01*
X39183505Y-21075155D01*
X39156308Y-21010796D01*
X39155500Y-20996663D01*
X39155500Y-20355690D01*
X39159789Y-20339910D01*
X39159211Y-20325583D01*
X39170782Y-20299471D01*
X39172565Y-20292913D01*
X39174389Y-20289804D01*
X39246974Y-20181175D01*
X39264802Y-20138133D01*
X39297141Y-20060061D01*
X39305510Y-20017986D01*
X39322716Y-19931490D01*
X39322716Y-18752434D01*
X39322715Y-18752428D01*
X39322289Y-18750286D01*
X39322289Y-18750285D01*
X39322287Y-18750279D01*
X39297141Y-18623861D01*
X39246974Y-18502748D01*
X39174144Y-18393749D01*
X39092075Y-18311679D01*
X39058592Y-18250357D01*
X39063576Y-18180666D01*
X39105448Y-18124732D01*
X39170913Y-18100316D01*
X39179758Y-18100000D01*
X39850000Y-18100000D01*
X39850000Y-17224000D01*
X39869685Y-17156961D01*
X39922489Y-17111206D01*
X39974000Y-17100000D01*
X40226000Y-17100000D01*
X40293039Y-17119685D01*
X40338794Y-17172489D01*
X40350000Y-17224000D01*
X40350000Y-18100000D01*
X41397828Y-18100000D01*
X41397844Y-18099999D01*
X41457372Y-18093598D01*
X41457379Y-18093596D01*
X41592086Y-18043354D01*
X41592093Y-18043350D01*
X41707185Y-17957191D01*
X41732811Y-17922960D01*
X41788745Y-17881089D01*
X41858436Y-17876104D01*
X41919760Y-17909588D01*
X41932392Y-17924378D01*
X41974310Y-17982073D01*
X42107927Y-18115690D01*
X42260801Y-18226760D01*
X42340347Y-18267290D01*
X42429163Y-18312545D01*
X42429165Y-18312545D01*
X42429168Y-18312547D01*
X42525497Y-18343846D01*
X42608881Y-18370940D01*
X42795514Y-18400500D01*
X42795519Y-18400500D01*
X42984486Y-18400500D01*
X43171118Y-18370940D01*
X43226537Y-18352933D01*
X43350832Y-18312547D01*
X43519199Y-18226760D01*
X43672073Y-18115690D01*
X43805690Y-17982073D01*
X43916760Y-17829199D01*
X44002547Y-17660832D01*
X44060940Y-17481118D01*
X44072148Y-17410352D01*
X44090500Y-17294486D01*
X44090500Y-17105513D01*
X44060940Y-16918881D01*
X44002545Y-16739163D01*
X43916759Y-16570800D01*
X43805690Y-16417927D01*
X43672073Y-16284310D01*
X43582010Y-16218875D01*
X43530029Y-16181108D01*
X43487364Y-16125777D01*
X43481385Y-16056164D01*
X43513991Y-15994369D01*
X43546619Y-15970306D01*
X43601610Y-15942287D01*
X43659127Y-15900499D01*
X43767213Y-15821971D01*
X43767215Y-15821968D01*
X43767219Y-15821966D01*
X43911966Y-15677219D01*
X43911968Y-15677215D01*
X43911971Y-15677213D01*
X43958341Y-15613389D01*
X44349500Y-15613389D01*
X44349500Y-15786611D01*
X44357677Y-15838239D01*
X44374426Y-15943992D01*
X44376598Y-15957701D01*
X44430127Y-16122445D01*
X44508768Y-16276788D01*
X44610586Y-16416928D01*
X44733072Y-16539414D01*
X44873212Y-16641232D01*
X45027555Y-16719873D01*
X45192299Y-16773402D01*
X45363389Y-16800500D01*
X45363390Y-16800500D01*
X47136610Y-16800500D01*
X47136611Y-16800500D01*
X47307701Y-16773402D01*
X47472445Y-16719873D01*
X47626788Y-16641232D01*
X47766928Y-16539414D01*
X47889414Y-16416928D01*
X47991232Y-16276788D01*
X48069873Y-16122445D01*
X48123402Y-15957701D01*
X48150500Y-15786611D01*
X48150500Y-15613389D01*
X48123402Y-15442299D01*
X48069873Y-15277555D01*
X47991232Y-15123212D01*
X47889414Y-14983072D01*
X47766928Y-14860586D01*
X47626788Y-14758768D01*
X47472445Y-14680127D01*
X47307701Y-14626598D01*
X47307699Y-14626597D01*
X47307698Y-14626597D01*
X47176271Y-14605781D01*
X47136611Y-14599500D01*
X45363389Y-14599500D01*
X45323728Y-14605781D01*
X45192302Y-14626597D01*
X45027552Y-14680128D01*
X44873211Y-14758768D01*
X44793256Y-14816859D01*
X44733072Y-14860586D01*
X44733070Y-14860588D01*
X44733069Y-14860588D01*
X44610588Y-14983069D01*
X44610588Y-14983070D01*
X44610586Y-14983072D01*
X44566859Y-15043256D01*
X44508768Y-15123211D01*
X44430128Y-15277552D01*
X44376597Y-15442302D01*
X44361815Y-15535635D01*
X44349500Y-15613389D01*
X43958341Y-15613389D01*
X44014832Y-15535635D01*
X44014834Y-15535632D01*
X44032287Y-15511610D01*
X44125220Y-15329219D01*
X44188477Y-15134534D01*
X44220500Y-14932352D01*
X44220500Y-14727648D01*
X44200203Y-14599500D01*
X44188477Y-14525465D01*
X44125218Y-14330776D01*
X44070423Y-14223236D01*
X44032287Y-14148390D01*
X43998025Y-14101232D01*
X43911971Y-13982786D01*
X43803337Y-13874152D01*
X43769852Y-13812829D01*
X43774836Y-13743137D01*
X43816708Y-13687204D01*
X43834724Y-13675986D01*
X43846490Y-13669991D01*
X43861610Y-13662287D01*
X43911144Y-13626298D01*
X44027213Y-13541971D01*
X44027215Y-13541968D01*
X44027219Y-13541966D01*
X44171966Y-13397219D01*
X44171966Y-13397218D01*
X44175411Y-13393774D01*
X44176256Y-13394619D01*
X44230074Y-13359478D01*
X44299942Y-13358970D01*
X44358993Y-13396316D01*
X44383804Y-13439879D01*
X44430128Y-13582449D01*
X44477788Y-13675986D01*
X44508768Y-13736788D01*
X44610586Y-13876928D01*
X44733072Y-13999414D01*
X44873212Y-14101232D01*
X45027555Y-14179873D01*
X45192299Y-14233402D01*
X45363389Y-14260500D01*
X45363390Y-14260500D01*
X47136610Y-14260500D01*
X47136611Y-14260500D01*
X47307701Y-14233402D01*
X47472445Y-14179873D01*
X47626788Y-14101232D01*
X47766928Y-13999414D01*
X47889414Y-13876928D01*
X47991232Y-13736788D01*
X48069873Y-13582445D01*
X48123402Y-13417701D01*
X48150500Y-13246611D01*
X48150500Y-13073389D01*
X48123402Y-12902299D01*
X48069873Y-12737555D01*
X47991232Y-12583212D01*
X47889414Y-12443072D01*
X47766928Y-12320586D01*
X47626788Y-12218768D01*
X47472445Y-12140127D01*
X47307701Y-12086598D01*
X47307699Y-12086597D01*
X47307698Y-12086597D01*
X47176271Y-12065781D01*
X47136611Y-12059500D01*
X45363389Y-12059500D01*
X45323728Y-12065781D01*
X45192302Y-12086597D01*
X45027552Y-12140128D01*
X44873211Y-12218768D01*
X44733073Y-12320585D01*
X44669744Y-12383914D01*
X44608420Y-12417398D01*
X44538729Y-12412413D01*
X44482795Y-12370542D01*
X44459590Y-12315630D01*
X44453917Y-12279815D01*
X44448477Y-12245466D01*
X44385220Y-12050781D01*
X44385218Y-12050778D01*
X44385218Y-12050776D01*
X44351503Y-11984607D01*
X44292287Y-11868390D01*
X44284556Y-11857749D01*
X44171971Y-11702786D01*
X44027217Y-11558032D01*
X44027212Y-11558028D01*
X43924367Y-11483307D01*
X43881701Y-11427977D01*
X43875722Y-11358364D01*
X43908327Y-11296569D01*
X43924364Y-11282672D01*
X43932219Y-11276966D01*
X44076966Y-11132219D01*
X44197287Y-10966610D01*
X44197288Y-10966607D01*
X44198103Y-10965486D01*
X44253433Y-10922820D01*
X44323046Y-10916841D01*
X44384842Y-10949446D01*
X44416353Y-11000052D01*
X44430128Y-11042449D01*
X44508768Y-11196788D01*
X44610586Y-11336928D01*
X44733072Y-11459414D01*
X44873212Y-11561232D01*
X45027555Y-11639873D01*
X45192299Y-11693402D01*
X45363389Y-11720500D01*
X45363390Y-11720500D01*
X47136610Y-11720500D01*
X47136611Y-11720500D01*
X47307701Y-11693402D01*
X47472445Y-11639873D01*
X47626788Y-11561232D01*
X47766928Y-11459414D01*
X47889414Y-11336928D01*
X47991232Y-11196788D01*
X48069873Y-11042445D01*
X48123402Y-10877701D01*
X48150500Y-10706611D01*
X48150500Y-10533389D01*
X48123402Y-10362299D01*
X48069873Y-10197555D01*
X47991232Y-10043212D01*
X47889414Y-9903072D01*
X47766928Y-9780586D01*
X47626788Y-9678768D01*
X47472445Y-9600127D01*
X47307701Y-9546598D01*
X47307699Y-9546597D01*
X47307698Y-9546597D01*
X47176271Y-9525781D01*
X47136611Y-9519500D01*
X45363389Y-9519500D01*
X45323728Y-9525781D01*
X45192302Y-9546597D01*
X45027552Y-9600128D01*
X44873211Y-9678768D01*
X44846481Y-9698189D01*
X44733072Y-9780586D01*
X44733070Y-9780588D01*
X44733069Y-9780588D01*
X44610585Y-9903072D01*
X44558596Y-9974628D01*
X44503265Y-10017293D01*
X44433652Y-10023271D01*
X44371857Y-9990664D01*
X44340348Y-9940059D01*
X44338829Y-9935386D01*
X44290220Y-9785781D01*
X44197287Y-9603390D01*
X44136338Y-9519500D01*
X44076971Y-9437786D01*
X43932217Y-9293032D01*
X43884366Y-9258266D01*
X43841701Y-9202935D01*
X43835722Y-9133322D01*
X43868328Y-9071527D01*
X43884364Y-9057632D01*
X43947219Y-9011966D01*
X44091966Y-8867219D01*
X44091968Y-8867215D01*
X44091971Y-8867213D01*
X44212286Y-8701611D01*
X44231053Y-8664780D01*
X44261461Y-8605099D01*
X44309435Y-8554304D01*
X44377256Y-8537508D01*
X44443391Y-8560045D01*
X44482431Y-8605099D01*
X44508768Y-8656788D01*
X44610586Y-8796928D01*
X44733072Y-8919414D01*
X44873212Y-9021232D01*
X45027555Y-9099873D01*
X45192299Y-9153402D01*
X45363389Y-9180500D01*
X45363390Y-9180500D01*
X47136610Y-9180500D01*
X47136611Y-9180500D01*
X47307701Y-9153402D01*
X47472445Y-9099873D01*
X47626788Y-9021232D01*
X47766928Y-8919414D01*
X47889414Y-8796928D01*
X47991232Y-8656788D01*
X48069873Y-8502445D01*
X48123402Y-8337701D01*
X48150500Y-8166611D01*
X48150500Y-7993389D01*
X48123402Y-7822299D01*
X48069873Y-7657555D01*
X47991232Y-7503212D01*
X47889414Y-7363072D01*
X47766928Y-7240586D01*
X47626788Y-7138768D01*
X47472445Y-7060127D01*
X47307701Y-7006598D01*
X47307699Y-7006597D01*
X47307698Y-7006597D01*
X47176271Y-6985781D01*
X47136611Y-6979500D01*
X45363389Y-6979500D01*
X45323728Y-6985781D01*
X45192302Y-7006597D01*
X45027552Y-7060128D01*
X44873211Y-7138768D01*
X44801987Y-7190516D01*
X44733072Y-7240586D01*
X44733070Y-7240588D01*
X44733069Y-7240588D01*
X44610588Y-7363069D01*
X44610588Y-7363070D01*
X44610586Y-7363072D01*
X44555340Y-7439111D01*
X44508761Y-7503221D01*
X44508425Y-7503770D01*
X44508243Y-7503934D01*
X44505904Y-7507154D01*
X44505227Y-7506662D01*
X44456609Y-7550640D01*
X44387678Y-7562056D01*
X44323518Y-7534393D01*
X44292219Y-7495265D01*
X44286689Y-7484413D01*
X44212287Y-7338390D01*
X44204556Y-7327749D01*
X44091971Y-7172786D01*
X43947213Y-7028028D01*
X43781611Y-6907713D01*
X43740531Y-6886781D01*
X43689735Y-6838806D01*
X43672941Y-6770985D01*
X43695479Y-6704850D01*
X43709135Y-6688627D01*
X43805690Y-6592073D01*
X43916760Y-6439199D01*
X44002547Y-6270832D01*
X44060940Y-6091118D01*
X44067124Y-6052072D01*
X44090500Y-5904486D01*
X44090500Y-5715513D01*
X44073303Y-5606940D01*
X44060940Y-5528882D01*
X44060938Y-5528877D01*
X44060938Y-5528874D01*
X44047282Y-5486846D01*
X44047278Y-5486836D01*
X44036410Y-5453389D01*
X44349500Y-5453389D01*
X44349500Y-5626610D01*
X44372648Y-5772765D01*
X44376598Y-5797701D01*
X44430127Y-5962445D01*
X44508768Y-6116788D01*
X44610586Y-6256928D01*
X44733072Y-6379414D01*
X44873212Y-6481232D01*
X45027555Y-6559873D01*
X45192299Y-6613402D01*
X45363389Y-6640500D01*
X45363390Y-6640500D01*
X47136610Y-6640500D01*
X47136611Y-6640500D01*
X47307701Y-6613402D01*
X47472445Y-6559873D01*
X47626788Y-6481232D01*
X47766928Y-6379414D01*
X47889414Y-6256928D01*
X47991232Y-6116788D01*
X48069873Y-5962445D01*
X48123402Y-5797701D01*
X48150500Y-5626611D01*
X48150500Y-5453389D01*
X48123402Y-5282299D01*
X48069873Y-5117555D01*
X47991232Y-4963212D01*
X47889414Y-4823072D01*
X47766928Y-4700586D01*
X47626788Y-4598768D01*
X47531905Y-4550423D01*
X47472447Y-4520128D01*
X47472446Y-4520127D01*
X47472445Y-4520127D01*
X47307701Y-4466598D01*
X47307699Y-4466597D01*
X47307698Y-4466597D01*
X47176271Y-4445781D01*
X47136611Y-4439500D01*
X45363389Y-4439500D01*
X45323728Y-4445781D01*
X45192302Y-4466597D01*
X45027552Y-4520128D01*
X44873211Y-4598768D01*
X44802626Y-4650052D01*
X44733072Y-4700586D01*
X44733070Y-4700588D01*
X44733069Y-4700588D01*
X44610588Y-4823069D01*
X44610588Y-4823070D01*
X44610586Y-4823072D01*
X44597089Y-4841649D01*
X44508768Y-4963211D01*
X44430128Y-5117552D01*
X44376597Y-5282302D01*
X44349500Y-5453389D01*
X44036410Y-5453389D01*
X44002547Y-5349168D01*
X44002545Y-5349165D01*
X44002545Y-5349163D01*
X43932003Y-5210718D01*
X43916760Y-5180801D01*
X43805690Y-5027927D01*
X43680735Y-4902972D01*
X43647250Y-4841649D01*
X43652234Y-4771957D01*
X43694106Y-4716024D01*
X43695398Y-4715070D01*
X43722073Y-4695690D01*
X43855690Y-4562073D01*
X43966760Y-4409199D01*
X44052547Y-4240832D01*
X44110940Y-4061118D01*
X44131112Y-3933756D01*
X44161041Y-3870621D01*
X44220352Y-3833689D01*
X44290215Y-3834687D01*
X44348448Y-3873296D01*
X44367018Y-3903065D01*
X44397794Y-3972765D01*
X44477235Y-4052206D01*
X44580009Y-4097585D01*
X44605135Y-4100500D01*
X47894864Y-4100499D01*
X47894879Y-4100497D01*
X47894882Y-4100497D01*
X47919987Y-4097586D01*
X47919988Y-4097585D01*
X47919991Y-4097585D01*
X48022765Y-4052206D01*
X48102206Y-3972765D01*
X48147585Y-3869991D01*
X48150500Y-3844865D01*
X48150499Y-2788517D01*
X48170183Y-2721479D01*
X48222987Y-2675724D01*
X48292146Y-2665780D01*
X48355702Y-2694805D01*
X48362180Y-2700837D01*
X50423181Y-4761838D01*
X50456666Y-4823161D01*
X50459500Y-4849519D01*
X50459500Y-20961862D01*
X50439815Y-21028901D01*
X50408387Y-21062179D01*
X50377927Y-21084309D01*
X50244312Y-21217924D01*
X50244312Y-21217925D01*
X50244310Y-21217927D01*
X50237200Y-21227713D01*
X50133240Y-21370800D01*
X50047454Y-21539163D01*
X49989059Y-21718881D01*
X49959500Y-21905513D01*
X49959500Y-22094486D01*
X49989059Y-22281118D01*
X50047454Y-22460836D01*
X50123553Y-22610188D01*
X50133240Y-22629199D01*
X50244310Y-22782073D01*
X50377927Y-22915690D01*
X50530801Y-23026760D01*
X50610347Y-23067290D01*
X50699163Y-23112545D01*
X50699165Y-23112545D01*
X50699168Y-23112547D01*
X50782074Y-23139485D01*
X50878881Y-23170940D01*
X51065514Y-23200500D01*
X51065519Y-23200500D01*
X51254486Y-23200500D01*
X51441118Y-23170940D01*
X51620832Y-23112547D01*
X51789199Y-23026760D01*
X51942073Y-22915690D01*
X52075690Y-22782073D01*
X52186760Y-22629199D01*
X52272547Y-22460832D01*
X52330940Y-22281118D01*
X52335828Y-22250254D01*
X52360500Y-22094486D01*
X52360500Y-21905513D01*
X52330940Y-21718881D01*
X52282166Y-21568772D01*
X52272547Y-21539168D01*
X52272545Y-21539165D01*
X52272545Y-21539163D01*
X52193643Y-21384310D01*
X52186760Y-21370801D01*
X52075690Y-21217927D01*
X51942073Y-21084310D01*
X51929472Y-21075155D01*
X51911613Y-21062179D01*
X51868948Y-21006848D01*
X51860500Y-20961862D01*
X51860500Y-4439010D01*
X51860500Y-4439007D01*
X51858158Y-4427235D01*
X51833580Y-4303672D01*
X51828614Y-4291682D01*
X51780777Y-4176192D01*
X51704112Y-4061454D01*
X51028579Y-3385921D01*
X59759500Y-3385921D01*
X59759500Y-3614078D01*
X59789278Y-3840272D01*
X59789279Y-3840277D01*
X59789280Y-3840283D01*
X59837990Y-4022072D01*
X59848331Y-4060666D01*
X59935638Y-4271446D01*
X59935646Y-4271462D01*
X60049717Y-4469037D01*
X60049728Y-4469053D01*
X60188613Y-4650052D01*
X60188619Y-4650059D01*
X60349940Y-4811380D01*
X60349947Y-4811386D01*
X60365293Y-4823161D01*
X60530955Y-4950278D01*
X60530962Y-4950282D01*
X60728537Y-5064353D01*
X60728553Y-5064361D01*
X60842268Y-5111463D01*
X60939334Y-5151669D01*
X61159717Y-5210720D01*
X61319474Y-5231752D01*
X61385921Y-5240500D01*
X61385922Y-5240500D01*
X61614079Y-5240500D01*
X61665438Y-5233738D01*
X61840283Y-5210720D01*
X62060666Y-5151669D01*
X62226365Y-5083033D01*
X62271446Y-5064361D01*
X62271449Y-5064359D01*
X62271455Y-5064357D01*
X62469045Y-4950278D01*
X62650054Y-4811385D01*
X62811385Y-4650054D01*
X62950278Y-4469045D01*
X63064357Y-4271455D01*
X63075688Y-4244101D01*
X63103816Y-4176192D01*
X63151669Y-4060666D01*
X63210720Y-3840283D01*
X63240500Y-3614078D01*
X63240500Y-3385922D01*
X63210720Y-3159717D01*
X63151669Y-2939334D01*
X63085326Y-2779168D01*
X63064361Y-2728553D01*
X63064353Y-2728537D01*
X62950282Y-2530962D01*
X62950278Y-2530955D01*
X62902576Y-2468788D01*
X62811386Y-2349947D01*
X62811380Y-2349940D01*
X62650059Y-2188619D01*
X62650052Y-2188613D01*
X62469053Y-2049728D01*
X62469051Y-2049726D01*
X62469045Y-2049722D01*
X62469040Y-2049719D01*
X62469037Y-2049717D01*
X62271462Y-1935646D01*
X62271446Y-1935638D01*
X62060666Y-1848331D01*
X61840283Y-1789280D01*
X61840277Y-1789279D01*
X61840272Y-1789278D01*
X61614079Y-1759500D01*
X61614078Y-1759500D01*
X61385922Y-1759500D01*
X61385921Y-1759500D01*
X61159727Y-1789278D01*
X61159720Y-1789279D01*
X61159717Y-1789280D01*
X61075234Y-1811917D01*
X60939333Y-1848331D01*
X60728553Y-1935638D01*
X60728537Y-1935646D01*
X60530962Y-2049717D01*
X60530946Y-2049728D01*
X60349947Y-2188613D01*
X60349940Y-2188619D01*
X60188619Y-2349940D01*
X60188613Y-2349947D01*
X60049728Y-2530946D01*
X60049717Y-2530962D01*
X59935646Y-2728537D01*
X59935638Y-2728553D01*
X59848331Y-2939333D01*
X59789281Y-3159714D01*
X59789278Y-3159727D01*
X59759500Y-3385921D01*
X51028579Y-3385921D01*
X48797545Y-1154887D01*
X48682807Y-1078222D01*
X48555332Y-1025421D01*
X48555322Y-1025418D01*
X48419996Y-998500D01*
X48419994Y-998500D01*
X48419993Y-998500D01*
X26232007Y-998500D01*
X26232003Y-998500D01*
X26123590Y-1020065D01*
X26123589Y-1020065D01*
X26096681Y-1025418D01*
X26096671Y-1025420D01*
X25969190Y-1078224D01*
X25854454Y-1154887D01*
X24746160Y-2263181D01*
X24684837Y-2296666D01*
X24658479Y-2299500D01*
X23630617Y-2299500D01*
X23563578Y-2279815D01*
X23517823Y-2227011D01*
X23507879Y-2157853D01*
X23509000Y-2151306D01*
X23510500Y-2143765D01*
X23510500Y-1976232D01*
X23510499Y-1976228D01*
X23477817Y-1811925D01*
X23477816Y-1811918D01*
X23413703Y-1657137D01*
X23382537Y-1610494D01*
X23320626Y-1517837D01*
X23202162Y-1399373D01*
X23062860Y-1306295D01*
X22908082Y-1242184D01*
X22908074Y-1242182D01*
X22743771Y-1209500D01*
X22743767Y-1209500D01*
X22576233Y-1209500D01*
X22576228Y-1209500D01*
X22411925Y-1242182D01*
X22411917Y-1242184D01*
X22257139Y-1306295D01*
X22117837Y-1399373D01*
X21999373Y-1517837D01*
X21906295Y-1657139D01*
X21842184Y-1811917D01*
X21842182Y-1811925D01*
X21815772Y-1944696D01*
X21783387Y-2006607D01*
X21722671Y-2041182D01*
X21713553Y-2042978D01*
X21548881Y-2069059D01*
X21369163Y-2127454D01*
X21200800Y-2213240D01*
X21132063Y-2263181D01*
X21047927Y-2324310D01*
X21047925Y-2324312D01*
X21047924Y-2324312D01*
X20914309Y-2457927D01*
X20874816Y-2512285D01*
X20819486Y-2554950D01*
X20749872Y-2560928D01*
X20688078Y-2528321D01*
X20653721Y-2467482D01*
X20650499Y-2439398D01*
X20650499Y-2155143D01*
X20650499Y-2155136D01*
X20649181Y-2143767D01*
X20647586Y-2130012D01*
X20647585Y-2130010D01*
X20647585Y-2130009D01*
X20602206Y-2027235D01*
X20522765Y-1947794D01*
X20515749Y-1944696D01*
X20419992Y-1902415D01*
X20394865Y-1899500D01*
X17105143Y-1899500D01*
X17105117Y-1899502D01*
X17080012Y-1902413D01*
X17080008Y-1902415D01*
X16977235Y-1947793D01*
X16897794Y-2027234D01*
X16852415Y-2130006D01*
X16852415Y-2130008D01*
X16849500Y-2155131D01*
X16849500Y-3844856D01*
X16849502Y-3844882D01*
X16852413Y-3869987D01*
X16852415Y-3869991D01*
X16897793Y-3972764D01*
X16897794Y-3972765D01*
X16977235Y-4052206D01*
X17080009Y-4097585D01*
X17105135Y-4100500D01*
X20394864Y-4100499D01*
X20394879Y-4100497D01*
X20394882Y-4100497D01*
X20419987Y-4097586D01*
X20419988Y-4097585D01*
X20419991Y-4097585D01*
X20522765Y-4052206D01*
X20602206Y-3972765D01*
X20619581Y-3933412D01*
X20664665Y-3880040D01*
X20731451Y-3859512D01*
X20798733Y-3878350D01*
X20833330Y-3910614D01*
X20914310Y-4022073D01*
X20914312Y-4022075D01*
X21047680Y-4155443D01*
X21081165Y-4216766D01*
X21076181Y-4286458D01*
X21034309Y-4342391D01*
X21032888Y-4343439D01*
X21017933Y-4354305D01*
X21017924Y-4354312D01*
X20884312Y-4487924D01*
X20884312Y-4487925D01*
X20884310Y-4487927D01*
X20853385Y-4530491D01*
X20773240Y-4640800D01*
X20687452Y-4809167D01*
X20667434Y-4870776D01*
X20627996Y-4928451D01*
X20563637Y-4955648D01*
X20494791Y-4943732D01*
X20449186Y-4905341D01*
X20447465Y-4902972D01*
X20389414Y-4823072D01*
X20266928Y-4700586D01*
X20126788Y-4598768D01*
X20031905Y-4550423D01*
X19972447Y-4520128D01*
X19972446Y-4520127D01*
X19972445Y-4520127D01*
X19807701Y-4466598D01*
X19807699Y-4466597D01*
X19807698Y-4466597D01*
X19676271Y-4445781D01*
X19636611Y-4439500D01*
X17863389Y-4439500D01*
X17823728Y-4445781D01*
X17692302Y-4466597D01*
X17527552Y-4520128D01*
X17373211Y-4598768D01*
X17302626Y-4650052D01*
X17233072Y-4700586D01*
X17233070Y-4700588D01*
X17233069Y-4700588D01*
X17110588Y-4823069D01*
X17110588Y-4823070D01*
X17110586Y-4823072D01*
X17097089Y-4841649D01*
X17008768Y-4963211D01*
X16930128Y-5117552D01*
X16876597Y-5282302D01*
X16849500Y-5453389D01*
X16849500Y-5626610D01*
X16872648Y-5772765D01*
X16876598Y-5797701D01*
X16930127Y-5962445D01*
X17008768Y-6116788D01*
X17110586Y-6256928D01*
X17233072Y-6379414D01*
X17373212Y-6481232D01*
X17527555Y-6559873D01*
X17692299Y-6613402D01*
X17863389Y-6640500D01*
X17863390Y-6640500D01*
X19636610Y-6640500D01*
X19636611Y-6640500D01*
X19807701Y-6613402D01*
X19972445Y-6559873D01*
X19981752Y-6555131D01*
X23349500Y-6555131D01*
X23349500Y-7644856D01*
X23349502Y-7644882D01*
X23352413Y-7669987D01*
X23352415Y-7669991D01*
X23397793Y-7772764D01*
X23397794Y-7772765D01*
X23477235Y-7852206D01*
X23580009Y-7897585D01*
X23605135Y-7900500D01*
X26194864Y-7900499D01*
X26194879Y-7900497D01*
X26194882Y-7900497D01*
X26219987Y-7897586D01*
X26219988Y-7897585D01*
X26219991Y-7897585D01*
X26322765Y-7852206D01*
X26402206Y-7772765D01*
X26447585Y-7669991D01*
X26450500Y-7644865D01*
X26450499Y-6555136D01*
X26448579Y-6538577D01*
X26447586Y-6530012D01*
X26447585Y-6530010D01*
X26447585Y-6530009D01*
X26402206Y-6427235D01*
X26322765Y-6347794D01*
X26284991Y-6331115D01*
X26219992Y-6302415D01*
X26194865Y-6299500D01*
X23605143Y-6299500D01*
X23605117Y-6299502D01*
X23580012Y-6302413D01*
X23580008Y-6302415D01*
X23477235Y-6347793D01*
X23397794Y-6427234D01*
X23352415Y-6530006D01*
X23352415Y-6530008D01*
X23349500Y-6555131D01*
X19981752Y-6555131D01*
X20126788Y-6481232D01*
X20266928Y-6379414D01*
X20389414Y-6256928D01*
X20491232Y-6116788D01*
X20569873Y-5962445D01*
X20571711Y-5956786D01*
X20611144Y-5899111D01*
X20675501Y-5871909D01*
X20744348Y-5883819D01*
X20789961Y-5922214D01*
X20825043Y-5970500D01*
X20884310Y-6052073D01*
X21017927Y-6185690D01*
X21170801Y-6296760D01*
X21238227Y-6331115D01*
X21339163Y-6382545D01*
X21339165Y-6382545D01*
X21339168Y-6382547D01*
X21385755Y-6397684D01*
X21518881Y-6440940D01*
X21705514Y-6470500D01*
X21705519Y-6470500D01*
X21894486Y-6470500D01*
X22081118Y-6440940D01*
X22103638Y-6433623D01*
X22143684Y-6420610D01*
X22260832Y-6382547D01*
X22429199Y-6296760D01*
X22582073Y-6185690D01*
X22715690Y-6052073D01*
X22737821Y-6021613D01*
X22793152Y-5978948D01*
X22838138Y-5970500D01*
X24798996Y-5970500D01*
X24922589Y-5945915D01*
X24934328Y-5943580D01*
X25015546Y-5909937D01*
X25062999Y-5900499D01*
X26194856Y-5900499D01*
X26194864Y-5900499D01*
X26194879Y-5900497D01*
X26194882Y-5900497D01*
X26219987Y-5897586D01*
X26219988Y-5897585D01*
X26219991Y-5897585D01*
X26322765Y-5852206D01*
X26402206Y-5772765D01*
X26447585Y-5669991D01*
X26450500Y-5644865D01*
X26450499Y-4555136D01*
X26450192Y-4552486D01*
X26447586Y-4530012D01*
X26447585Y-4530010D01*
X26447585Y-4530009D01*
X26402206Y-4427235D01*
X26322765Y-4347794D01*
X26265022Y-4322298D01*
X26219992Y-4302415D01*
X26194865Y-4299500D01*
X23605143Y-4299500D01*
X23605117Y-4299502D01*
X23580012Y-4302413D01*
X23580008Y-4302415D01*
X23477235Y-4347793D01*
X23397793Y-4427235D01*
X23367614Y-4495586D01*
X23322528Y-4548962D01*
X23255742Y-4569490D01*
X23254180Y-4569500D01*
X22838138Y-4569500D01*
X22806976Y-4560349D01*
X22775448Y-4552486D01*
X22773172Y-4550423D01*
X22771099Y-4549815D01*
X22747846Y-4530491D01*
X22742449Y-4524758D01*
X22715690Y-4487927D01*
X22582073Y-4354310D01*
X22581868Y-4354161D01*
X22579708Y-4351866D01*
X22564704Y-4322298D01*
X22548834Y-4293233D01*
X22548972Y-4291293D01*
X22548092Y-4289558D01*
X22551455Y-4256583D01*
X22553818Y-4223541D01*
X22554983Y-4221983D01*
X22555181Y-4220049D01*
X22575836Y-4194128D01*
X22595690Y-4167608D01*
X22597012Y-4166632D01*
X22612073Y-4155690D01*
X22745690Y-4022073D01*
X22767821Y-3991613D01*
X22823152Y-3948948D01*
X22868138Y-3940500D01*
X24828996Y-3940500D01*
X24964323Y-3913581D01*
X24964323Y-3913580D01*
X24964328Y-3913580D01*
X24973118Y-3909938D01*
X25020573Y-3900499D01*
X26194856Y-3900499D01*
X26194864Y-3900499D01*
X26194879Y-3900497D01*
X26194882Y-3900497D01*
X26219987Y-3897586D01*
X26219988Y-3897585D01*
X26219991Y-3897585D01*
X26322765Y-3852206D01*
X26402206Y-3772765D01*
X26447585Y-3669991D01*
X26450500Y-3644865D01*
X26450499Y-2591519D01*
X26459144Y-2562076D01*
X26465667Y-2532092D01*
X26469420Y-2527078D01*
X26470183Y-2524481D01*
X26486818Y-2503838D01*
X26554839Y-2435818D01*
X26616163Y-2402334D01*
X26642520Y-2399500D01*
X38428338Y-2399500D01*
X38495377Y-2419185D01*
X38541132Y-2471989D01*
X38551512Y-2537790D01*
X38549500Y-2555128D01*
X38549500Y-2858480D01*
X38529815Y-2925519D01*
X38513181Y-2946161D01*
X31875888Y-9583453D01*
X31875887Y-9583454D01*
X31799222Y-9698192D01*
X31746421Y-9825667D01*
X31746418Y-9825679D01*
X31727984Y-9918356D01*
X31724565Y-9935546D01*
X31722211Y-9947381D01*
X31719500Y-9961007D01*
X31719500Y-18396691D01*
X31699815Y-18463730D01*
X31647011Y-18509485D01*
X31577853Y-18519429D01*
X31557182Y-18514622D01*
X31424537Y-18471523D01*
X31272897Y-18447505D01*
X31222352Y-18439500D01*
X31017648Y-18439500D01*
X30993329Y-18443351D01*
X30815465Y-18471522D01*
X30620776Y-18534781D01*
X30438387Y-18627714D01*
X30392984Y-18660701D01*
X30327177Y-18684180D01*
X30259124Y-18668354D01*
X30210430Y-18618247D01*
X30196100Y-18560382D01*
X30196100Y-14876606D01*
X30186689Y-14829298D01*
X30186689Y-14829297D01*
X30169180Y-14741272D01*
X30163537Y-14727648D01*
X30116377Y-14613792D01*
X30039712Y-14499054D01*
X26486818Y-10946160D01*
X26453333Y-10884837D01*
X26450499Y-10858479D01*
X26450499Y-10555143D01*
X26450499Y-10555136D01*
X26450497Y-10555117D01*
X26447586Y-10530012D01*
X26447585Y-10530010D01*
X26447585Y-10530009D01*
X26402206Y-10427235D01*
X26322765Y-10347794D01*
X26293565Y-10334901D01*
X26219992Y-10302415D01*
X26194865Y-10299500D01*
X23605143Y-10299500D01*
X23605117Y-10299502D01*
X23580012Y-10302413D01*
X23580008Y-10302415D01*
X23477235Y-10347793D01*
X23397794Y-10427234D01*
X23352415Y-10530006D01*
X23352415Y-10530008D01*
X23349500Y-10555131D01*
X23349500Y-10858480D01*
X23329815Y-10925519D01*
X23313181Y-10946161D01*
X23060334Y-11199007D01*
X23033561Y-11213626D01*
X23007932Y-11230202D01*
X23003179Y-11230215D01*
X22999011Y-11232492D01*
X22968580Y-11230315D01*
X22938062Y-11230404D01*
X22932634Y-11227745D01*
X22929319Y-11227508D01*
X22905915Y-11215835D01*
X22902770Y-11213827D01*
X22797610Y-11137424D01*
X22725944Y-11100908D01*
X22720870Y-11097668D01*
X22701712Y-11075687D01*
X22680517Y-11055669D01*
X22679029Y-11049661D01*
X22674963Y-11044996D01*
X22670730Y-11016149D01*
X22663722Y-10987848D01*
X22665718Y-10981989D01*
X22664820Y-10975867D01*
X22676852Y-10949315D01*
X22686259Y-10921713D01*
X22692002Y-10915887D01*
X22693661Y-10912227D01*
X22699041Y-10908746D01*
X22714724Y-10892840D01*
X22725740Y-10884837D01*
X22757219Y-10861966D01*
X22901966Y-10717219D01*
X22901968Y-10717215D01*
X22901971Y-10717213D01*
X22954732Y-10644590D01*
X23022287Y-10551610D01*
X23115220Y-10369219D01*
X23178477Y-10174534D01*
X23210500Y-9972352D01*
X23210500Y-9924500D01*
X23213050Y-9915814D01*
X23211762Y-9906853D01*
X23222740Y-9882812D01*
X23230185Y-9857461D01*
X23237025Y-9851533D01*
X23240787Y-9843297D01*
X23263021Y-9829007D01*
X23282989Y-9811706D01*
X23293503Y-9809418D01*
X23299565Y-9805523D01*
X23334500Y-9800500D01*
X23374167Y-9800500D01*
X23441206Y-9820185D01*
X23461848Y-9836819D01*
X23477235Y-9852206D01*
X23580009Y-9897585D01*
X23605135Y-9900500D01*
X26194864Y-9900499D01*
X26194879Y-9900497D01*
X26194882Y-9900497D01*
X26219987Y-9897586D01*
X26219988Y-9897585D01*
X26219991Y-9897585D01*
X26322765Y-9852206D01*
X26402206Y-9772765D01*
X26447585Y-9669991D01*
X26450500Y-9644865D01*
X26450499Y-8555136D01*
X26448455Y-8537508D01*
X26447586Y-8530012D01*
X26447585Y-8530010D01*
X26447585Y-8530009D01*
X26402206Y-8427235D01*
X26322765Y-8347794D01*
X26304427Y-8339697D01*
X26219992Y-8302415D01*
X26194865Y-8299500D01*
X23605143Y-8299500D01*
X23605117Y-8299502D01*
X23580012Y-8302413D01*
X23580008Y-8302415D01*
X23477235Y-8347793D01*
X23477234Y-8347794D01*
X23461848Y-8363181D01*
X23400525Y-8396666D01*
X23374167Y-8399500D01*
X22611003Y-8399500D01*
X22502590Y-8421065D01*
X22502589Y-8421065D01*
X22489131Y-8423742D01*
X22475673Y-8426419D01*
X22473703Y-8427235D01*
X22422866Y-8448292D01*
X22422864Y-8448293D01*
X22422863Y-8448292D01*
X22348191Y-8479223D01*
X22348186Y-8479226D01*
X22234589Y-8555128D01*
X22234590Y-8555129D01*
X22233464Y-8555881D01*
X22228749Y-8559751D01*
X22227327Y-8558019D01*
X22174789Y-8586687D01*
X22129071Y-8587986D01*
X22012352Y-8569500D01*
X21807648Y-8569500D01*
X21783329Y-8573351D01*
X21605465Y-8601522D01*
X21410776Y-8664781D01*
X21228386Y-8757715D01*
X21062786Y-8878028D01*
X20918028Y-9022786D01*
X20797715Y-9188386D01*
X20704781Y-9370776D01*
X20641522Y-9565465D01*
X20609500Y-9767648D01*
X20609500Y-9824643D01*
X20589815Y-9891682D01*
X20537011Y-9937437D01*
X20467853Y-9947381D01*
X20404297Y-9918356D01*
X20391212Y-9905178D01*
X20389418Y-9903078D01*
X20389414Y-9903072D01*
X20266928Y-9780586D01*
X20126788Y-9678768D01*
X19972445Y-9600127D01*
X19807701Y-9546598D01*
X19807699Y-9546597D01*
X19807698Y-9546597D01*
X19676271Y-9525781D01*
X19636611Y-9519500D01*
X17863389Y-9519500D01*
X17823728Y-9525781D01*
X17692302Y-9546597D01*
X17527552Y-9600128D01*
X17373211Y-9678768D01*
X17346481Y-9698189D01*
X17233072Y-9780586D01*
X17233070Y-9780588D01*
X17233069Y-9780588D01*
X17110588Y-9903069D01*
X17110588Y-9903070D01*
X17110586Y-9903072D01*
X17083713Y-9940059D01*
X17008768Y-10043211D01*
X16930128Y-10197552D01*
X16876597Y-10362302D01*
X16849500Y-10533389D01*
X16849500Y-10706610D01*
X16873553Y-10858480D01*
X16876598Y-10877701D01*
X16930127Y-11042445D01*
X17008768Y-11196788D01*
X17110586Y-11336928D01*
X17233072Y-11459414D01*
X17373212Y-11561232D01*
X17527555Y-11639873D01*
X17692299Y-11693402D01*
X17863389Y-11720500D01*
X17863390Y-11720500D01*
X19636610Y-11720500D01*
X19636611Y-11720500D01*
X19807701Y-11693402D01*
X19953185Y-11646130D01*
X20023022Y-11644136D01*
X20082855Y-11680216D01*
X20113684Y-11742917D01*
X20115500Y-11764062D01*
X20115500Y-12015937D01*
X20095815Y-12082976D01*
X20043011Y-12128731D01*
X19973853Y-12138675D01*
X19953182Y-12133868D01*
X19807698Y-12086597D01*
X19676271Y-12065781D01*
X19636611Y-12059500D01*
X17863389Y-12059500D01*
X17823728Y-12065781D01*
X17692302Y-12086597D01*
X17527552Y-12140128D01*
X17373211Y-12218768D01*
X17304725Y-12268527D01*
X17233072Y-12320586D01*
X17233070Y-12320588D01*
X17233069Y-12320588D01*
X17110588Y-12443069D01*
X17110588Y-12443070D01*
X17110586Y-12443072D01*
X17092895Y-12467422D01*
X17008768Y-12583211D01*
X16930128Y-12737552D01*
X16876597Y-12902302D01*
X16850388Y-13067780D01*
X16849500Y-13073389D01*
X16849500Y-13246611D01*
X16876598Y-13417701D01*
X16930127Y-13582445D01*
X17008768Y-13736788D01*
X17110586Y-13876928D01*
X17233072Y-13999414D01*
X17373212Y-14101232D01*
X17527555Y-14179873D01*
X17692299Y-14233402D01*
X17863389Y-14260500D01*
X17863390Y-14260500D01*
X19636610Y-14260500D01*
X19636611Y-14260500D01*
X19807701Y-14233402D01*
X19943890Y-14189150D01*
X19972007Y-14188347D01*
X19999852Y-14184344D01*
X20006463Y-14187363D01*
X20013727Y-14187156D01*
X20037813Y-14201680D01*
X20063408Y-14213369D01*
X20067337Y-14219483D01*
X20073560Y-14223236D01*
X20085972Y-14248479D01*
X20101182Y-14272147D01*
X20102658Y-14282416D01*
X20104389Y-14285936D01*
X20106205Y-14307082D01*
X20106205Y-14552917D01*
X20086520Y-14619956D01*
X20033716Y-14665711D01*
X19964558Y-14675655D01*
X19943887Y-14670848D01*
X19928077Y-14665711D01*
X19807701Y-14626598D01*
X19807699Y-14626597D01*
X19807698Y-14626597D01*
X19676271Y-14605781D01*
X19636611Y-14599500D01*
X17863389Y-14599500D01*
X17823728Y-14605781D01*
X17692302Y-14626597D01*
X17527552Y-14680128D01*
X17373211Y-14758768D01*
X17293256Y-14816859D01*
X17233072Y-14860586D01*
X17233070Y-14860588D01*
X17233069Y-14860588D01*
X17110588Y-14983069D01*
X17110588Y-14983070D01*
X17110586Y-14983072D01*
X17066859Y-15043256D01*
X17008768Y-15123211D01*
X16930128Y-15277552D01*
X16876597Y-15442302D01*
X16861815Y-15535635D01*
X16849500Y-15613389D01*
X16849500Y-15786611D01*
X16857677Y-15838239D01*
X16874426Y-15943992D01*
X16876598Y-15957701D01*
X16930127Y-16122445D01*
X17008768Y-16276788D01*
X17110586Y-16416928D01*
X17233072Y-16539414D01*
X17373212Y-16641232D01*
X17527555Y-16719873D01*
X17692299Y-16773402D01*
X17863389Y-16800500D01*
X17863390Y-16800500D01*
X19636610Y-16800500D01*
X19636611Y-16800500D01*
X19807701Y-16773402D01*
X19972445Y-16719873D01*
X19972448Y-16719870D01*
X19972452Y-16719870D01*
X19976954Y-16718006D01*
X19977625Y-16719626D01*
X20038852Y-16708116D01*
X20103597Y-16734380D01*
X20143864Y-16791479D01*
X20150500Y-16831499D01*
X20150500Y-17108500D01*
X20130815Y-17175539D01*
X20078011Y-17221294D01*
X20008853Y-17231238D01*
X19977271Y-17221228D01*
X19976954Y-17221994D01*
X19972452Y-17220129D01*
X19893694Y-17194539D01*
X19807701Y-17166598D01*
X19807699Y-17166597D01*
X19807698Y-17166597D01*
X19676271Y-17145781D01*
X19636611Y-17139500D01*
X17863389Y-17139500D01*
X17823728Y-17145781D01*
X17692302Y-17166597D01*
X17527552Y-17220128D01*
X17373211Y-17298768D01*
X17347545Y-17317416D01*
X17233072Y-17400586D01*
X17233070Y-17400588D01*
X17233069Y-17400588D01*
X17110588Y-17523069D01*
X17110588Y-17523070D01*
X17110586Y-17523072D01*
X17066859Y-17583256D01*
X17008768Y-17663211D01*
X16930128Y-17817552D01*
X16876597Y-17982302D01*
X16849500Y-18153389D01*
X16849500Y-18326610D01*
X16872451Y-18471522D01*
X16876598Y-18497701D01*
X16930127Y-18662445D01*
X17008768Y-18816788D01*
X17110586Y-18956928D01*
X17233072Y-19079414D01*
X17373212Y-19181232D01*
X17527555Y-19259873D01*
X17692299Y-19313402D01*
X17863389Y-19340500D01*
X17863390Y-19340500D01*
X19636610Y-19340500D01*
X19636611Y-19340500D01*
X19807701Y-19313402D01*
X19972445Y-19259873D01*
X19972448Y-19259870D01*
X19972452Y-19259870D01*
X19976954Y-19258006D01*
X19977625Y-19259626D01*
X20038852Y-19248116D01*
X20103597Y-19274380D01*
X20143864Y-19331479D01*
X20150500Y-19371499D01*
X20150500Y-19479994D01*
X20150500Y-19479996D01*
X20150499Y-19479996D01*
X20177418Y-19615322D01*
X20177421Y-19615332D01*
X20179649Y-19620710D01*
X20187118Y-19690179D01*
X20155842Y-19752658D01*
X20095753Y-19788310D01*
X20025928Y-19785816D01*
X20008793Y-19778647D01*
X19972447Y-19760128D01*
X19972446Y-19760127D01*
X19972445Y-19760127D01*
X19807701Y-19706598D01*
X19807699Y-19706597D01*
X19807698Y-19706597D01*
X19676271Y-19685781D01*
X19636611Y-19679500D01*
X17863389Y-19679500D01*
X17823728Y-19685781D01*
X17692302Y-19706597D01*
X17527552Y-19760128D01*
X17373211Y-19838768D01*
X17293256Y-19896859D01*
X17233072Y-19940586D01*
X17233070Y-19940588D01*
X17233069Y-19940588D01*
X17110588Y-20063069D01*
X17110588Y-20063070D01*
X17110586Y-20063072D01*
X17084737Y-20098650D01*
X17008768Y-20203211D01*
X16930126Y-20357556D01*
X16928266Y-20362048D01*
X16926582Y-20361350D01*
X16891517Y-20412579D01*
X16827145Y-20439746D01*
X16758304Y-20427799D01*
X16725388Y-20404229D01*
X16381221Y-20060062D01*
X15931819Y-19610659D01*
X15898334Y-19549336D01*
X15895500Y-19522978D01*
X15895500Y-7993389D01*
X16849500Y-7993389D01*
X16849500Y-8166610D01*
X16874512Y-8324534D01*
X16876598Y-8337701D01*
X16930127Y-8502445D01*
X17008768Y-8656788D01*
X17110586Y-8796928D01*
X17233072Y-8919414D01*
X17373212Y-9021232D01*
X17527555Y-9099873D01*
X17692299Y-9153402D01*
X17863389Y-9180500D01*
X17863390Y-9180500D01*
X19636610Y-9180500D01*
X19636611Y-9180500D01*
X19807701Y-9153402D01*
X19972445Y-9099873D01*
X20126788Y-9021232D01*
X20266928Y-8919414D01*
X20389414Y-8796928D01*
X20491232Y-8656788D01*
X20569873Y-8502445D01*
X20623402Y-8337701D01*
X20650500Y-8166611D01*
X20650500Y-7993389D01*
X20623402Y-7822299D01*
X20569873Y-7657555D01*
X20491232Y-7503212D01*
X20389414Y-7363072D01*
X20266928Y-7240586D01*
X20126788Y-7138768D01*
X19972445Y-7060127D01*
X19807701Y-7006598D01*
X19807699Y-7006597D01*
X19807698Y-7006597D01*
X19676271Y-6985781D01*
X19636611Y-6979500D01*
X17863389Y-6979500D01*
X17823728Y-6985781D01*
X17692302Y-7006597D01*
X17527552Y-7060128D01*
X17373211Y-7138768D01*
X17301987Y-7190516D01*
X17233072Y-7240586D01*
X17233070Y-7240588D01*
X17233069Y-7240588D01*
X17110588Y-7363069D01*
X17110588Y-7363070D01*
X17110586Y-7363072D01*
X17066859Y-7423256D01*
X17008768Y-7503211D01*
X16930128Y-7657552D01*
X16876597Y-7822302D01*
X16849500Y-7993389D01*
X15895500Y-7993389D01*
X15895500Y-6583566D01*
X15915185Y-6516527D01*
X15946616Y-6483247D01*
X15949390Y-6481232D01*
X16012073Y-6435690D01*
X16145690Y-6302073D01*
X16256760Y-6149199D01*
X16342547Y-5980832D01*
X16400940Y-5801118D01*
X16412072Y-5730832D01*
X16430500Y-5614486D01*
X16430500Y-5425513D01*
X16400940Y-5238881D01*
X16344233Y-5064357D01*
X16342547Y-5059168D01*
X16342545Y-5059165D01*
X16342545Y-5059163D01*
X16287061Y-4950271D01*
X16256760Y-4890801D01*
X16145690Y-4737927D01*
X16012073Y-4604310D01*
X15859199Y-4493240D01*
X15848766Y-4487924D01*
X15690836Y-4407454D01*
X15511118Y-4349059D01*
X15324486Y-4319500D01*
X15324481Y-4319500D01*
X15135519Y-4319500D01*
X15135514Y-4319500D01*
X14948881Y-4349059D01*
X14769163Y-4407454D01*
X14600800Y-4493240D01*
X14522096Y-4550423D01*
X14447927Y-4604310D01*
X14447925Y-4604312D01*
X14447924Y-4604312D01*
X14314312Y-4737924D01*
X14314312Y-4737925D01*
X14314310Y-4737927D01*
X14296938Y-4761838D01*
X14203240Y-4890800D01*
X14117454Y-5059163D01*
X14059059Y-5238881D01*
X14029500Y-5425513D01*
X14029500Y-5614486D01*
X14059059Y-5801118D01*
X14117454Y-5980836D01*
X14186726Y-6116788D01*
X14203240Y-6149199D01*
X14314310Y-6302073D01*
X14314312Y-6302075D01*
X14447930Y-6435693D01*
X14495839Y-6470500D01*
X14510610Y-6481232D01*
X14513384Y-6483247D01*
X14556051Y-6538577D01*
X14564500Y-6583566D01*
X14564500Y-18121911D01*
X14544815Y-18188950D01*
X14492011Y-18234705D01*
X14422853Y-18244649D01*
X14402182Y-18239842D01*
X14269537Y-18196743D01*
X14117897Y-18172725D01*
X14067352Y-18164720D01*
X13862648Y-18164720D01*
X13838329Y-18168571D01*
X13660465Y-18196742D01*
X13465776Y-18260001D01*
X13283386Y-18352935D01*
X13117786Y-18473248D01*
X12973028Y-18618006D01*
X12852715Y-18783606D01*
X12759781Y-18965996D01*
X12696522Y-19160685D01*
X12664500Y-19362868D01*
X400500Y-19362868D01*
X400500Y-13735437D01*
X734570Y-13735437D01*
X3304798Y-13735437D01*
X3304798Y-8589386D01*
X734570Y-8589386D01*
X734570Y-13735437D01*
X400500Y-13735437D01*
X400500Y-3385921D01*
X1759500Y-3385921D01*
X1759500Y-3614078D01*
X1789278Y-3840272D01*
X1789279Y-3840277D01*
X1789280Y-3840283D01*
X1837990Y-4022072D01*
X1848331Y-4060666D01*
X1935638Y-4271446D01*
X1935646Y-4271462D01*
X2049717Y-4469037D01*
X2049728Y-4469053D01*
X2188613Y-4650052D01*
X2188619Y-4650059D01*
X2349940Y-4811380D01*
X2349947Y-4811386D01*
X2365293Y-4823161D01*
X2530955Y-4950278D01*
X2530962Y-4950282D01*
X2728537Y-5064353D01*
X2728553Y-5064361D01*
X2842268Y-5111463D01*
X2939334Y-5151669D01*
X3159717Y-5210720D01*
X3319474Y-5231752D01*
X3385921Y-5240500D01*
X3385922Y-5240500D01*
X3614079Y-5240500D01*
X3665438Y-5233738D01*
X3840283Y-5210720D01*
X4060666Y-5151669D01*
X4226365Y-5083033D01*
X4271446Y-5064361D01*
X4271449Y-5064359D01*
X4271455Y-5064357D01*
X4469045Y-4950278D01*
X4650054Y-4811385D01*
X4811385Y-4650054D01*
X4950278Y-4469045D01*
X5064357Y-4271455D01*
X5075688Y-4244101D01*
X5103816Y-4176192D01*
X5151669Y-4060666D01*
X5210720Y-3840283D01*
X5240500Y-3614078D01*
X5240500Y-3385922D01*
X5210720Y-3159717D01*
X5151669Y-2939334D01*
X5085326Y-2779168D01*
X5064361Y-2728553D01*
X5064353Y-2728537D01*
X4950282Y-2530962D01*
X4950278Y-2530955D01*
X4902576Y-2468788D01*
X4811386Y-2349947D01*
X4811380Y-2349940D01*
X4650059Y-2188619D01*
X4650052Y-2188613D01*
X4469053Y-2049728D01*
X4469051Y-2049726D01*
X4469045Y-2049722D01*
X4469040Y-2049719D01*
X4469037Y-2049717D01*
X4271462Y-1935646D01*
X4271446Y-1935638D01*
X4060666Y-1848331D01*
X3840283Y-1789280D01*
X3840277Y-1789279D01*
X3840272Y-1789278D01*
X3614079Y-1759500D01*
X3614078Y-1759500D01*
X3385922Y-1759500D01*
X3385921Y-1759500D01*
X3159727Y-1789278D01*
X3159720Y-1789279D01*
X3159717Y-1789280D01*
X3075234Y-1811917D01*
X2939333Y-1848331D01*
X2728553Y-1935638D01*
X2728537Y-1935646D01*
X2530962Y-2049717D01*
X2530946Y-2049728D01*
X2349947Y-2188613D01*
X2349940Y-2188619D01*
X2188619Y-2349940D01*
X2188613Y-2349947D01*
X2049728Y-2530946D01*
X2049717Y-2530962D01*
X1935646Y-2728537D01*
X1935638Y-2728553D01*
X1848331Y-2939333D01*
X1789281Y-3159714D01*
X1789278Y-3159727D01*
X1759500Y-3385921D01*
X400500Y-3385921D01*
X400500Y-524500D01*
X420185Y-457461D01*
X472989Y-411706D01*
X524500Y-400500D01*
X64475500Y-400500D01*
X64542539Y-420185D01*
G37*
%TD.AperFunction*%
%TD*%
%TA.AperFunction,NonConductor*%
G36*
X44292539Y-2419185D02*
G01*
X44338294Y-2471989D01*
X44349500Y-2523500D01*
X44349500Y-3450189D01*
X44329815Y-3517228D01*
X44277011Y-3562983D01*
X44207853Y-3572927D01*
X44144297Y-3543902D01*
X44107569Y-3488508D01*
X44052547Y-3319168D01*
X44052545Y-3319165D01*
X44052545Y-3319163D01*
X43971308Y-3159727D01*
X43966760Y-3150801D01*
X43855690Y-2997927D01*
X43722073Y-2864310D01*
X43569199Y-2753240D01*
X43520748Y-2728553D01*
X43400836Y-2667454D01*
X43363239Y-2655238D01*
X43320743Y-2641430D01*
X43263069Y-2601993D01*
X43235871Y-2537634D01*
X43247786Y-2468788D01*
X43295030Y-2417312D01*
X43359063Y-2399500D01*
X44225500Y-2399500D01*
X44292539Y-2419185D01*
G37*
%TD.AperFunction*%
%TA.AperFunction,NonConductor*%
G36*
X41642802Y-3810091D02*
G01*
X41665748Y-3811732D01*
X41675829Y-3819278D01*
X41687960Y-3822653D01*
X41703268Y-3839818D01*
X41721682Y-3853602D01*
X41727195Y-3866647D01*
X41734464Y-3874798D01*
X41744890Y-3908517D01*
X41769059Y-4061118D01*
X41800491Y-4157853D01*
X41819633Y-4216766D01*
X41826267Y-4237181D01*
X41828262Y-4307022D01*
X41792182Y-4366855D01*
X41729481Y-4397684D01*
X41708336Y-4399500D01*
X41625833Y-4399500D01*
X41558794Y-4379815D01*
X41538152Y-4363181D01*
X41522765Y-4347794D01*
X41419992Y-4302415D01*
X41394868Y-4299500D01*
X41394865Y-4299500D01*
X39440518Y-4299500D01*
X39419272Y-4293261D01*
X39397184Y-4291682D01*
X39386400Y-4283609D01*
X39373479Y-4279815D01*
X39358979Y-4263081D01*
X39341251Y-4249810D01*
X39336543Y-4237189D01*
X39327724Y-4227011D01*
X39324572Y-4205093D01*
X39316834Y-4184346D01*
X39319696Y-4171185D01*
X39317780Y-4157853D01*
X39326979Y-4137709D01*
X39331686Y-4116073D01*
X39344954Y-4098347D01*
X39346805Y-4094297D01*
X39352837Y-4087819D01*
X39503838Y-3936818D01*
X39565161Y-3903333D01*
X39591519Y-3900499D01*
X41394856Y-3900499D01*
X41394864Y-3900499D01*
X41394879Y-3900497D01*
X41394882Y-3900497D01*
X41419987Y-3897586D01*
X41419988Y-3897585D01*
X41419991Y-3897585D01*
X41522765Y-3852206D01*
X41534736Y-3840234D01*
X41545786Y-3834200D01*
X41553895Y-3824568D01*
X41575866Y-3817774D01*
X41596056Y-3806749D01*
X41608617Y-3807647D01*
X41620646Y-3803928D01*
X41642802Y-3810091D01*
G37*
%TD.AperFunction*%
%TA.AperFunction,NonConductor*%
G36*
X41655965Y-5872631D02*
G01*
X41692996Y-5931880D01*
X41696061Y-5945915D01*
X41712876Y-6052074D01*
X41719060Y-6091118D01*
X41766520Y-6237184D01*
X41767323Y-6265305D01*
X41771327Y-6293147D01*
X41768308Y-6299756D01*
X41768516Y-6307022D01*
X41753987Y-6331115D01*
X41742302Y-6356703D01*
X41736188Y-6360631D01*
X41732436Y-6366855D01*
X41707189Y-6379268D01*
X41683524Y-6394477D01*
X41673254Y-6395953D01*
X41669735Y-6397684D01*
X41648589Y-6399500D01*
X41625833Y-6399500D01*
X41558794Y-6379815D01*
X41538152Y-6363181D01*
X41522765Y-6347794D01*
X41419992Y-6302415D01*
X41394868Y-6299500D01*
X41394865Y-6299500D01*
X39440517Y-6299500D01*
X39419271Y-6293261D01*
X39397183Y-6291682D01*
X39386399Y-6283609D01*
X39373478Y-6279815D01*
X39358978Y-6263081D01*
X39341250Y-6249810D01*
X39336542Y-6237189D01*
X39327723Y-6227011D01*
X39324571Y-6205093D01*
X39316833Y-6184346D01*
X39319695Y-6171185D01*
X39317779Y-6157853D01*
X39326978Y-6137709D01*
X39331685Y-6116073D01*
X39344953Y-6098347D01*
X39346804Y-6094297D01*
X39352836Y-6087819D01*
X39503837Y-5936818D01*
X39565160Y-5903333D01*
X39591518Y-5900499D01*
X41394856Y-5900499D01*
X41394864Y-5900499D01*
X41394879Y-5900497D01*
X41394882Y-5900497D01*
X41419987Y-5897586D01*
X41419987Y-5897585D01*
X41419991Y-5897585D01*
X41522765Y-5852206D01*
X41522766Y-5852204D01*
X41523501Y-5851880D01*
X41592779Y-5842808D01*
X41655965Y-5872631D01*
G37*
%TD.AperFunction*%
%TA.AperFunction,NonConductor*%
G36*
X25437920Y-11909143D02*
G01*
X25467907Y-11915667D01*
X25472922Y-11919421D01*
X25475519Y-11920184D01*
X25496161Y-11936818D01*
X25647162Y-12087819D01*
X25680647Y-12149142D01*
X25675663Y-12218834D01*
X25633791Y-12274767D01*
X25568327Y-12299184D01*
X25559481Y-12299500D01*
X24240518Y-12299500D01*
X24173479Y-12279815D01*
X24127724Y-12227011D01*
X24117780Y-12157853D01*
X24146805Y-12094297D01*
X24152837Y-12087819D01*
X24303838Y-11936818D01*
X24365161Y-11903333D01*
X24391519Y-11900499D01*
X25408480Y-11900499D01*
X25437920Y-11909143D01*
G37*
%TD.AperFunction*%
%TA.AperFunction,NonConductor*%
G36*
X41555866Y-11916826D02*
G01*
X41561173Y-11921830D01*
X41863194Y-12223851D01*
X41896679Y-12285174D01*
X41897986Y-12330929D01*
X41879500Y-12447647D01*
X41879500Y-12467422D01*
X41859815Y-12534461D01*
X41807011Y-12580216D01*
X41737853Y-12590160D01*
X41674297Y-12561135D01*
X41642066Y-12517509D01*
X41611219Y-12447648D01*
X41602206Y-12427235D01*
X41522765Y-12347794D01*
X41419992Y-12302415D01*
X41394868Y-12299500D01*
X41394865Y-12299500D01*
X39391020Y-12299500D01*
X39369774Y-12293261D01*
X39347686Y-12291682D01*
X39336902Y-12283609D01*
X39323981Y-12279815D01*
X39309481Y-12263081D01*
X39291753Y-12249810D01*
X39287045Y-12237189D01*
X39278226Y-12227011D01*
X39275074Y-12205093D01*
X39267336Y-12184346D01*
X39270198Y-12171185D01*
X39268282Y-12157853D01*
X39277481Y-12137709D01*
X39282188Y-12116073D01*
X39295456Y-12098347D01*
X39297307Y-12094297D01*
X39303339Y-12087819D01*
X39454340Y-11936818D01*
X39515663Y-11903333D01*
X39542021Y-11900499D01*
X41394856Y-11900499D01*
X41394864Y-11900499D01*
X41394879Y-11900497D01*
X41394882Y-11900497D01*
X41419986Y-11897586D01*
X41419987Y-11897585D01*
X41419991Y-11897585D01*
X41423404Y-11896077D01*
X41427505Y-11895540D01*
X41428989Y-11895137D01*
X41429043Y-11895339D01*
X41492680Y-11887005D01*
X41555866Y-11916826D01*
G37*
%TD.AperFunction*%
%TA.AperFunction,NonConductor*%
G36*
X41015519Y-13920184D02*
G01*
X41036161Y-13936818D01*
X41187162Y-14087819D01*
X41220647Y-14149142D01*
X41215663Y-14218834D01*
X41173791Y-14274767D01*
X41108327Y-14299184D01*
X41099481Y-14299500D01*
X39173500Y-14299500D01*
X39164814Y-14296949D01*
X39155853Y-14298238D01*
X39131812Y-14287259D01*
X39106461Y-14279815D01*
X39100533Y-14272974D01*
X39092297Y-14269213D01*
X39078007Y-14246978D01*
X39060706Y-14227011D01*
X39058418Y-14216496D01*
X39054523Y-14210435D01*
X39049500Y-14175500D01*
X39049500Y-14024499D01*
X39069185Y-13957460D01*
X39121989Y-13911705D01*
X39173500Y-13900499D01*
X40948480Y-13900499D01*
X41015519Y-13920184D01*
G37*
%TD.AperFunction*%
%TA.AperFunction,NonConductor*%
G36*
X25475519Y-15920184D02*
G01*
X25496161Y-15936818D01*
X25647162Y-16087819D01*
X25680647Y-16149142D01*
X25675663Y-16218834D01*
X25633791Y-16274767D01*
X25568327Y-16299184D01*
X25559481Y-16299500D01*
X24047814Y-16299500D01*
X24043452Y-16298219D01*
X24039012Y-16299187D01*
X24010232Y-16288464D01*
X23980775Y-16279815D01*
X23977799Y-16276381D01*
X23973539Y-16274794D01*
X23955123Y-16250211D01*
X23935020Y-16227011D01*
X23933611Y-16221495D01*
X23931648Y-16218875D01*
X23928525Y-16201584D01*
X23924133Y-16184390D01*
X23923814Y-16179952D01*
X23923814Y-16102780D01*
X23913657Y-16038658D01*
X23913279Y-16033389D01*
X23919614Y-16004214D01*
X23923441Y-15974605D01*
X23926950Y-15970435D01*
X23928107Y-15965111D01*
X23949210Y-15943992D01*
X23968437Y-15921152D01*
X23973642Y-15919542D01*
X23977494Y-15915688D01*
X24006666Y-15909331D01*
X24035188Y-15900512D01*
X24036960Y-15900499D01*
X25408480Y-15900499D01*
X25475519Y-15920184D01*
G37*
%TD.AperFunction*%
%TA.AperFunction,NonConductor*%
G36*
X26655702Y-13096805D02*
G01*
X26662180Y-13102837D01*
X28758781Y-15199438D01*
X28792266Y-15260761D01*
X28795100Y-15287119D01*
X28795100Y-16955080D01*
X28775415Y-17022119D01*
X28722611Y-17067874D01*
X28653453Y-17077818D01*
X28589897Y-17048793D01*
X28583419Y-17042761D01*
X26486818Y-14946160D01*
X26453333Y-14884837D01*
X26450499Y-14858479D01*
X26450499Y-14555143D01*
X26450499Y-14555136D01*
X26450242Y-14552917D01*
X26447586Y-14530012D01*
X26447585Y-14530010D01*
X26447585Y-14530009D01*
X26402206Y-14427235D01*
X26322765Y-14347794D01*
X26284223Y-14330776D01*
X26219992Y-14302415D01*
X26194865Y-14299500D01*
X23605143Y-14299500D01*
X23605117Y-14299502D01*
X23580012Y-14302413D01*
X23580010Y-14302414D01*
X23569699Y-14306967D01*
X23545092Y-14310188D01*
X23521387Y-14317518D01*
X23511054Y-14314643D01*
X23500420Y-14316036D01*
X23477978Y-14305442D01*
X23454073Y-14298793D01*
X23446935Y-14290789D01*
X23437236Y-14286211D01*
X23424084Y-14265166D01*
X23407569Y-14246648D01*
X23402729Y-14230996D01*
X23400207Y-14226960D01*
X23397143Y-14212929D01*
X23388400Y-14157729D01*
X23397354Y-14088436D01*
X23423189Y-14050653D01*
X23537026Y-13936816D01*
X23598347Y-13903333D01*
X23624695Y-13900499D01*
X26194864Y-13900499D01*
X26194879Y-13900497D01*
X26194882Y-13900497D01*
X26219987Y-13897586D01*
X26219988Y-13897585D01*
X26219991Y-13897585D01*
X26322765Y-13852206D01*
X26402206Y-13772765D01*
X26447585Y-13669991D01*
X26450500Y-13644865D01*
X26450499Y-13190516D01*
X26470183Y-13123479D01*
X26522987Y-13077724D01*
X26592146Y-13067780D01*
X26655702Y-13096805D01*
G37*
%TD.AperFunction*%
%TA.AperFunction,NonConductor*%
G36*
X26655702Y-17096805D02*
G01*
X26662180Y-17102837D01*
X27458781Y-17899438D01*
X27492266Y-17960761D01*
X27495100Y-17987119D01*
X27495100Y-18694402D01*
X27475415Y-18761441D01*
X27458781Y-18782083D01*
X27365888Y-18874975D01*
X27365887Y-18874976D01*
X27289222Y-18989714D01*
X27236421Y-19117189D01*
X27236418Y-19117201D01*
X27213639Y-19231720D01*
X27213639Y-19231723D01*
X27209500Y-19252529D01*
X27209500Y-20329484D01*
X27209500Y-20467472D01*
X27209500Y-20467474D01*
X27209499Y-20467474D01*
X27236418Y-20602800D01*
X27236421Y-20602810D01*
X27289222Y-20730285D01*
X27365887Y-20845023D01*
X28224975Y-21704111D01*
X28224980Y-21704115D01*
X28250243Y-21720995D01*
X28295049Y-21774607D01*
X28303758Y-21843932D01*
X28273604Y-21906959D01*
X28269036Y-21911779D01*
X28168027Y-22012788D01*
X28054981Y-22168385D01*
X27999652Y-22211051D01*
X27954663Y-22219500D01*
X24701518Y-22219500D01*
X24634479Y-22199815D01*
X24613837Y-22183181D01*
X21587819Y-19157162D01*
X21554334Y-19095839D01*
X21551500Y-19069481D01*
X21551500Y-17271865D01*
X21571185Y-17204826D01*
X21623989Y-17159071D01*
X21693147Y-17149127D01*
X21756703Y-17178152D01*
X21763181Y-17184184D01*
X21776100Y-17197103D01*
X21910132Y-17294481D01*
X21941704Y-17317419D01*
X22057921Y-17376635D01*
X22124090Y-17410350D01*
X22124092Y-17410350D01*
X22124095Y-17410352D01*
X22228451Y-17444259D01*
X22318779Y-17473609D01*
X22366189Y-17481118D01*
X22520962Y-17505632D01*
X22520963Y-17505632D01*
X22725665Y-17505632D01*
X22725666Y-17505632D01*
X22927848Y-17473609D01*
X23122533Y-17410352D01*
X23169204Y-17386572D01*
X23237873Y-17373675D01*
X23302614Y-17399951D01*
X23342871Y-17457057D01*
X23349500Y-17497055D01*
X23349500Y-17644855D01*
X23349502Y-17644882D01*
X23352413Y-17669987D01*
X23352415Y-17669991D01*
X23397793Y-17772764D01*
X23403140Y-17778111D01*
X23436625Y-17839434D01*
X23433391Y-17904108D01*
X23415060Y-17960526D01*
X23383038Y-18162708D01*
X23383038Y-18367411D01*
X23415060Y-18569594D01*
X23478319Y-18764283D01*
X23542229Y-18889713D01*
X23562473Y-18929443D01*
X23571253Y-18946673D01*
X23691566Y-19112273D01*
X23836324Y-19257031D01*
X23961429Y-19347923D01*
X24001928Y-19377347D01*
X24118145Y-19436563D01*
X24184314Y-19470278D01*
X24184316Y-19470278D01*
X24184319Y-19470280D01*
X24232805Y-19486034D01*
X24379003Y-19533537D01*
X24441326Y-19543408D01*
X24581186Y-19565560D01*
X24581187Y-19565560D01*
X24785889Y-19565560D01*
X24785890Y-19565560D01*
X24988072Y-19533537D01*
X25182757Y-19470280D01*
X25365148Y-19377347D01*
X25458128Y-19309792D01*
X25530751Y-19257031D01*
X25530753Y-19257028D01*
X25530757Y-19257026D01*
X25675504Y-19112279D01*
X25675506Y-19112275D01*
X25675509Y-19112273D01*
X25764554Y-18989711D01*
X25795825Y-18946670D01*
X25888758Y-18764279D01*
X25952015Y-18569594D01*
X25984038Y-18367412D01*
X25984038Y-18162708D01*
X25976591Y-18115690D01*
X25965220Y-18043897D01*
X25974175Y-17974603D01*
X26019171Y-17921152D01*
X26085922Y-17900512D01*
X26087693Y-17900499D01*
X26194856Y-17900499D01*
X26194864Y-17900499D01*
X26194879Y-17900497D01*
X26194882Y-17900497D01*
X26219987Y-17897586D01*
X26219988Y-17897585D01*
X26219991Y-17897585D01*
X26322765Y-17852206D01*
X26402206Y-17772765D01*
X26447585Y-17669991D01*
X26450500Y-17644865D01*
X26450499Y-17190516D01*
X26470183Y-17123479D01*
X26522987Y-17077724D01*
X26592146Y-17067780D01*
X26655702Y-17096805D01*
G37*
%TD.AperFunction*%
%TA.AperFunction,NonConductor*%
G36*
X20781599Y-20345129D02*
G01*
X20821010Y-20371667D01*
X22488232Y-22038889D01*
X22521717Y-22100212D01*
X22516733Y-22169904D01*
X22474861Y-22225837D01*
X22409397Y-22250254D01*
X22362233Y-22244501D01*
X22290902Y-22221324D01*
X22104268Y-22191764D01*
X22104263Y-22191764D01*
X21915301Y-22191764D01*
X21915296Y-22191764D01*
X21728663Y-22221323D01*
X21548945Y-22279718D01*
X21380582Y-22365504D01*
X21293361Y-22428874D01*
X21227709Y-22476574D01*
X21227707Y-22476576D01*
X21227706Y-22476576D01*
X21094094Y-22610188D01*
X21094087Y-22610197D01*
X21046532Y-22675650D01*
X20991202Y-22718316D01*
X20946215Y-22726764D01*
X19913776Y-22726764D01*
X19846737Y-22707079D01*
X19826095Y-22690445D01*
X19295727Y-22160076D01*
X19295723Y-22160073D01*
X19295722Y-22160072D01*
X19217192Y-22107601D01*
X19172389Y-22053991D01*
X19163681Y-21984666D01*
X19193835Y-21921638D01*
X19253277Y-21884919D01*
X19286084Y-21880500D01*
X19636610Y-21880500D01*
X19636611Y-21880500D01*
X19807701Y-21853402D01*
X19972445Y-21799873D01*
X20126788Y-21721232D01*
X20266928Y-21619414D01*
X20389414Y-21496928D01*
X20491232Y-21356788D01*
X20569873Y-21202445D01*
X20623402Y-21037701D01*
X20650500Y-20866611D01*
X20650500Y-20693389D01*
X20623402Y-20522299D01*
X20615397Y-20497665D01*
X20613403Y-20427825D01*
X20649484Y-20367992D01*
X20712185Y-20337164D01*
X20781599Y-20345129D01*
G37*
%TD.AperFunction*%
M02*
