%TF.GenerationSoftware,KiCad,Pcbnew,9.0.7*%
%TF.CreationDate,2026-05-23T10:15:05+02:00*%
%TF.ProjectId,BarePi_MegaTinyJoypad,42617265-5069-45f4-9d65-676154696e79,rev?*%
%TF.SameCoordinates,Original*%
%TF.FileFunction,AssemblyDrawing,Top*%
%FSLAX46Y46*%
G04 Gerber Fmt 4.6, Leading zero omitted, Abs format (unit mm)*
G04 Created by KiCad (PCBNEW 9.0.7) date 2026-05-23 10:15:05*
%MOMM*%
%LPD*%
G01*
G04 APERTURE LIST*
%ADD10C,0.150000*%
%ADD11C,0.100000*%
%ADD12C,0.120000*%
G04 APERTURE END LIST*
D10*
X4068333Y-22643152D02*
X4068333Y-23309819D01*
X3830238Y-22262200D02*
X3592143Y-22976485D01*
X3592143Y-22976485D02*
X4211190Y-22976485D01*
X4496905Y-22309819D02*
X5163571Y-22309819D01*
X5163571Y-22309819D02*
X4735000Y-23309819D01*
X5973095Y-22643152D02*
X5973095Y-23309819D01*
X5544524Y-22643152D02*
X5544524Y-23166961D01*
X5544524Y-23166961D02*
X5592143Y-23262200D01*
X5592143Y-23262200D02*
X5687381Y-23309819D01*
X5687381Y-23309819D02*
X5830238Y-23309819D01*
X5830238Y-23309819D02*
X5925476Y-23262200D01*
X5925476Y-23262200D02*
X5973095Y-23214580D01*
X6782619Y-22786009D02*
X6449286Y-22786009D01*
X6449286Y-23309819D02*
X6449286Y-22309819D01*
X6449286Y-22309819D02*
X6925476Y-22309819D01*
X5608333Y-21794580D02*
X5560714Y-21842200D01*
X5560714Y-21842200D02*
X5417857Y-21889819D01*
X5417857Y-21889819D02*
X5322619Y-21889819D01*
X5322619Y-21889819D02*
X5179762Y-21842200D01*
X5179762Y-21842200D02*
X5084524Y-21746961D01*
X5084524Y-21746961D02*
X5036905Y-21651723D01*
X5036905Y-21651723D02*
X4989286Y-21461247D01*
X4989286Y-21461247D02*
X4989286Y-21318390D01*
X4989286Y-21318390D02*
X5036905Y-21127914D01*
X5036905Y-21127914D02*
X5084524Y-21032676D01*
X5084524Y-21032676D02*
X5179762Y-20937438D01*
X5179762Y-20937438D02*
X5322619Y-20889819D01*
X5322619Y-20889819D02*
X5417857Y-20889819D01*
X5417857Y-20889819D02*
X5560714Y-20937438D01*
X5560714Y-20937438D02*
X5608333Y-20985057D01*
X6560714Y-21889819D02*
X5989286Y-21889819D01*
X6275000Y-21889819D02*
X6275000Y-20889819D01*
X6275000Y-20889819D02*
X6179762Y-21032676D01*
X6179762Y-21032676D02*
X6084524Y-21127914D01*
X6084524Y-21127914D02*
X5989286Y-21175533D01*
X32241905Y-20971009D02*
X32575238Y-20971009D01*
X32718095Y-21494819D02*
X32241905Y-21494819D01*
X32241905Y-21494819D02*
X32241905Y-20494819D01*
X32241905Y-20494819D02*
X32718095Y-20494819D01*
X33099048Y-21447200D02*
X33241905Y-21494819D01*
X33241905Y-21494819D02*
X33480000Y-21494819D01*
X33480000Y-21494819D02*
X33575238Y-21447200D01*
X33575238Y-21447200D02*
X33622857Y-21399580D01*
X33622857Y-21399580D02*
X33670476Y-21304342D01*
X33670476Y-21304342D02*
X33670476Y-21209104D01*
X33670476Y-21209104D02*
X33622857Y-21113866D01*
X33622857Y-21113866D02*
X33575238Y-21066247D01*
X33575238Y-21066247D02*
X33480000Y-21018628D01*
X33480000Y-21018628D02*
X33289524Y-20971009D01*
X33289524Y-20971009D02*
X33194286Y-20923390D01*
X33194286Y-20923390D02*
X33146667Y-20875771D01*
X33146667Y-20875771D02*
X33099048Y-20780533D01*
X33099048Y-20780533D02*
X33099048Y-20685295D01*
X33099048Y-20685295D02*
X33146667Y-20590057D01*
X33146667Y-20590057D02*
X33194286Y-20542438D01*
X33194286Y-20542438D02*
X33289524Y-20494819D01*
X33289524Y-20494819D02*
X33527619Y-20494819D01*
X33527619Y-20494819D02*
X33670476Y-20542438D01*
X34099048Y-21494819D02*
X34099048Y-20494819D01*
X34099048Y-20494819D02*
X34480000Y-20494819D01*
X34480000Y-20494819D02*
X34575238Y-20542438D01*
X34575238Y-20542438D02*
X34622857Y-20590057D01*
X34622857Y-20590057D02*
X34670476Y-20685295D01*
X34670476Y-20685295D02*
X34670476Y-20828152D01*
X34670476Y-20828152D02*
X34622857Y-20923390D01*
X34622857Y-20923390D02*
X34575238Y-20971009D01*
X34575238Y-20971009D02*
X34480000Y-21018628D01*
X34480000Y-21018628D02*
X34099048Y-21018628D01*
X35099048Y-21113866D02*
X35860953Y-21113866D01*
X36527619Y-20494819D02*
X36622857Y-20494819D01*
X36622857Y-20494819D02*
X36718095Y-20542438D01*
X36718095Y-20542438D02*
X36765714Y-20590057D01*
X36765714Y-20590057D02*
X36813333Y-20685295D01*
X36813333Y-20685295D02*
X36860952Y-20875771D01*
X36860952Y-20875771D02*
X36860952Y-21113866D01*
X36860952Y-21113866D02*
X36813333Y-21304342D01*
X36813333Y-21304342D02*
X36765714Y-21399580D01*
X36765714Y-21399580D02*
X36718095Y-21447200D01*
X36718095Y-21447200D02*
X36622857Y-21494819D01*
X36622857Y-21494819D02*
X36527619Y-21494819D01*
X36527619Y-21494819D02*
X36432381Y-21447200D01*
X36432381Y-21447200D02*
X36384762Y-21399580D01*
X36384762Y-21399580D02*
X36337143Y-21304342D01*
X36337143Y-21304342D02*
X36289524Y-21113866D01*
X36289524Y-21113866D02*
X36289524Y-20875771D01*
X36289524Y-20875771D02*
X36337143Y-20685295D01*
X36337143Y-20685295D02*
X36384762Y-20590057D01*
X36384762Y-20590057D02*
X36432381Y-20542438D01*
X36432381Y-20542438D02*
X36527619Y-20494819D01*
X37194286Y-20494819D02*
X37860952Y-20494819D01*
X37860952Y-20494819D02*
X37432381Y-21494819D01*
X38194286Y-21447200D02*
X38337143Y-21494819D01*
X38337143Y-21494819D02*
X38575238Y-21494819D01*
X38575238Y-21494819D02*
X38670476Y-21447200D01*
X38670476Y-21447200D02*
X38718095Y-21399580D01*
X38718095Y-21399580D02*
X38765714Y-21304342D01*
X38765714Y-21304342D02*
X38765714Y-21209104D01*
X38765714Y-21209104D02*
X38718095Y-21113866D01*
X38718095Y-21113866D02*
X38670476Y-21066247D01*
X38670476Y-21066247D02*
X38575238Y-21018628D01*
X38575238Y-21018628D02*
X38384762Y-20971009D01*
X38384762Y-20971009D02*
X38289524Y-20923390D01*
X38289524Y-20923390D02*
X38241905Y-20875771D01*
X38241905Y-20875771D02*
X38194286Y-20780533D01*
X38194286Y-20780533D02*
X38194286Y-20685295D01*
X38194286Y-20685295D02*
X38241905Y-20590057D01*
X38241905Y-20590057D02*
X38289524Y-20542438D01*
X38289524Y-20542438D02*
X38384762Y-20494819D01*
X38384762Y-20494819D02*
X38622857Y-20494819D01*
X38622857Y-20494819D02*
X38765714Y-20542438D01*
X34888095Y-18994819D02*
X34888095Y-19804342D01*
X34888095Y-19804342D02*
X34935714Y-19899580D01*
X34935714Y-19899580D02*
X34983333Y-19947200D01*
X34983333Y-19947200D02*
X35078571Y-19994819D01*
X35078571Y-19994819D02*
X35269047Y-19994819D01*
X35269047Y-19994819D02*
X35364285Y-19947200D01*
X35364285Y-19947200D02*
X35411904Y-19899580D01*
X35411904Y-19899580D02*
X35459523Y-19804342D01*
X35459523Y-19804342D02*
X35459523Y-18994819D01*
X35888095Y-19090057D02*
X35935714Y-19042438D01*
X35935714Y-19042438D02*
X36030952Y-18994819D01*
X36030952Y-18994819D02*
X36269047Y-18994819D01*
X36269047Y-18994819D02*
X36364285Y-19042438D01*
X36364285Y-19042438D02*
X36411904Y-19090057D01*
X36411904Y-19090057D02*
X36459523Y-19185295D01*
X36459523Y-19185295D02*
X36459523Y-19280533D01*
X36459523Y-19280533D02*
X36411904Y-19423390D01*
X36411904Y-19423390D02*
X35840476Y-19994819D01*
X35840476Y-19994819D02*
X36459523Y-19994819D01*
X49599523Y-5314819D02*
X49266190Y-4838628D01*
X49028095Y-5314819D02*
X49028095Y-4314819D01*
X49028095Y-4314819D02*
X49409047Y-4314819D01*
X49409047Y-4314819D02*
X49504285Y-4362438D01*
X49504285Y-4362438D02*
X49551904Y-4410057D01*
X49551904Y-4410057D02*
X49599523Y-4505295D01*
X49599523Y-4505295D02*
X49599523Y-4648152D01*
X49599523Y-4648152D02*
X49551904Y-4743390D01*
X49551904Y-4743390D02*
X49504285Y-4791009D01*
X49504285Y-4791009D02*
X49409047Y-4838628D01*
X49409047Y-4838628D02*
X49028095Y-4838628D01*
X45704819Y-12223333D02*
X46419104Y-12223333D01*
X46419104Y-12223333D02*
X46561961Y-12270952D01*
X46561961Y-12270952D02*
X46657200Y-12366190D01*
X46657200Y-12366190D02*
X46704819Y-12509047D01*
X46704819Y-12509047D02*
X46704819Y-12604285D01*
X45704819Y-11842380D02*
X45704819Y-11223333D01*
X45704819Y-11223333D02*
X46085771Y-11556666D01*
X46085771Y-11556666D02*
X46085771Y-11413809D01*
X46085771Y-11413809D02*
X46133390Y-11318571D01*
X46133390Y-11318571D02*
X46181009Y-11270952D01*
X46181009Y-11270952D02*
X46276247Y-11223333D01*
X46276247Y-11223333D02*
X46514342Y-11223333D01*
X46514342Y-11223333D02*
X46609580Y-11270952D01*
X46609580Y-11270952D02*
X46657200Y-11318571D01*
X46657200Y-11318571D02*
X46704819Y-11413809D01*
X46704819Y-11413809D02*
X46704819Y-11699523D01*
X46704819Y-11699523D02*
X46657200Y-11794761D01*
X46657200Y-11794761D02*
X46609580Y-11842380D01*
X2380000Y-28274819D02*
X2570476Y-28274819D01*
X2570476Y-28274819D02*
X2665714Y-28322438D01*
X2665714Y-28322438D02*
X2760952Y-28417676D01*
X2760952Y-28417676D02*
X2808571Y-28608152D01*
X2808571Y-28608152D02*
X2808571Y-28941485D01*
X2808571Y-28941485D02*
X2760952Y-29131961D01*
X2760952Y-29131961D02*
X2665714Y-29227200D01*
X2665714Y-29227200D02*
X2570476Y-29274819D01*
X2570476Y-29274819D02*
X2380000Y-29274819D01*
X2380000Y-29274819D02*
X2284762Y-29227200D01*
X2284762Y-29227200D02*
X2189524Y-29131961D01*
X2189524Y-29131961D02*
X2141905Y-28941485D01*
X2141905Y-28941485D02*
X2141905Y-28608152D01*
X2141905Y-28608152D02*
X2189524Y-28417676D01*
X2189524Y-28417676D02*
X2284762Y-28322438D01*
X2284762Y-28322438D02*
X2380000Y-28274819D01*
X3237143Y-28274819D02*
X3237143Y-29084342D01*
X3237143Y-29084342D02*
X3284762Y-29179580D01*
X3284762Y-29179580D02*
X3332381Y-29227200D01*
X3332381Y-29227200D02*
X3427619Y-29274819D01*
X3427619Y-29274819D02*
X3618095Y-29274819D01*
X3618095Y-29274819D02*
X3713333Y-29227200D01*
X3713333Y-29227200D02*
X3760952Y-29179580D01*
X3760952Y-29179580D02*
X3808571Y-29084342D01*
X3808571Y-29084342D02*
X3808571Y-28274819D01*
X4141905Y-28274819D02*
X4713333Y-28274819D01*
X4427619Y-29274819D02*
X4427619Y-28274819D01*
X4966666Y-26054819D02*
X4966666Y-26769104D01*
X4966666Y-26769104D02*
X4919047Y-26911961D01*
X4919047Y-26911961D02*
X4823809Y-27007200D01*
X4823809Y-27007200D02*
X4680952Y-27054819D01*
X4680952Y-27054819D02*
X4585714Y-27054819D01*
X5966666Y-27054819D02*
X5395238Y-27054819D01*
X5680952Y-27054819D02*
X5680952Y-26054819D01*
X5680952Y-26054819D02*
X5585714Y-26197676D01*
X5585714Y-26197676D02*
X5490476Y-26292914D01*
X5490476Y-26292914D02*
X5395238Y-26340533D01*
X14349523Y-4674819D02*
X13873333Y-4674819D01*
X13873333Y-4674819D02*
X13873333Y-3674819D01*
X15056666Y-2274819D02*
X15056666Y-2989104D01*
X15056666Y-2989104D02*
X15009047Y-3131961D01*
X15009047Y-3131961D02*
X14913809Y-3227200D01*
X14913809Y-3227200D02*
X14770952Y-3274819D01*
X14770952Y-3274819D02*
X14675714Y-3274819D01*
X15485238Y-2370057D02*
X15532857Y-2322438D01*
X15532857Y-2322438D02*
X15628095Y-2274819D01*
X15628095Y-2274819D02*
X15866190Y-2274819D01*
X15866190Y-2274819D02*
X15961428Y-2322438D01*
X15961428Y-2322438D02*
X16009047Y-2370057D01*
X16009047Y-2370057D02*
X16056666Y-2465295D01*
X16056666Y-2465295D02*
X16056666Y-2560533D01*
X16056666Y-2560533D02*
X16009047Y-2703390D01*
X16009047Y-2703390D02*
X15437619Y-3274819D01*
X15437619Y-3274819D02*
X16056666Y-3274819D01*
D11*
%TO.C,U2*%
X24500000Y-1400000D02*
X40500000Y-1400000D01*
X24500000Y-2600000D02*
X24500000Y-1400000D01*
X24500000Y-3600000D02*
X25000000Y-3100000D01*
X24500000Y-18600000D02*
X24500000Y-3600000D01*
X25000000Y-3100000D02*
X24500000Y-2600000D01*
X40500000Y-1400000D02*
X40500000Y-18600000D01*
X40500000Y-18600000D02*
X24500000Y-18600000D01*
D12*
%TO.C,J3*%
X44920000Y-4270000D02*
X44920000Y-22110000D01*
X44920000Y-4270000D02*
X47580000Y-4270000D01*
X44920000Y-22110000D02*
X47580000Y-22110000D01*
D11*
X44980000Y-1730000D02*
X46885000Y-1730000D01*
X44980000Y-22050000D02*
X44980000Y-1730000D01*
D12*
X46250000Y-1670000D02*
X47580000Y-1670000D01*
D11*
X46885000Y-1730000D02*
X47520000Y-2365000D01*
X47520000Y-2365000D02*
X47520000Y-22050000D01*
X47520000Y-22050000D02*
X44980000Y-22050000D01*
D12*
X47580000Y-1670000D02*
X47580000Y-3000000D01*
X47580000Y-4270000D02*
X47580000Y-22110000D01*
%TO.C,J1*%
X57960000Y-25220000D02*
X56630000Y-25220000D01*
X57960000Y-26330000D02*
X57960000Y-25220000D01*
D11*
X56930000Y-26330000D02*
X56930000Y-30390000D01*
X56330000Y-26330000D02*
X56930000Y-26330000D01*
X54390000Y-26330000D02*
X54390000Y-30390000D01*
X53790000Y-26330000D02*
X54390000Y-26330000D01*
X51850000Y-26330000D02*
X51850000Y-30390000D01*
X51250000Y-26330000D02*
X51850000Y-26330000D01*
X49310000Y-26330000D02*
X49310000Y-30390000D01*
X48710000Y-26330000D02*
X49310000Y-26330000D01*
X46770000Y-26330000D02*
X46770000Y-30390000D01*
X46170000Y-26330000D02*
X46770000Y-26330000D01*
X44230000Y-26330000D02*
X44230000Y-30390000D01*
X43630000Y-26330000D02*
X44230000Y-26330000D01*
X41690000Y-26330000D02*
X41690000Y-30390000D01*
X41090000Y-26330000D02*
X41690000Y-26330000D01*
X39150000Y-26330000D02*
X39150000Y-30390000D01*
X38550000Y-26330000D02*
X39150000Y-26330000D01*
X36610000Y-26330000D02*
X36610000Y-30390000D01*
X36010000Y-26330000D02*
X36610000Y-26330000D01*
X34070000Y-26330000D02*
X34070000Y-30390000D01*
X33470000Y-26330000D02*
X34070000Y-26330000D01*
X31530000Y-26330000D02*
X31530000Y-30390000D01*
X30930000Y-26330000D02*
X31530000Y-26330000D01*
X28990000Y-26330000D02*
X28990000Y-30390000D01*
X28390000Y-26330000D02*
X28990000Y-26330000D01*
X26450000Y-26330000D02*
X26450000Y-30390000D01*
X25850000Y-26330000D02*
X26450000Y-26330000D01*
X23910000Y-26330000D02*
X23910000Y-30390000D01*
X23310000Y-26330000D02*
X23910000Y-26330000D01*
X21370000Y-26330000D02*
X21370000Y-30390000D01*
X20770000Y-26330000D02*
X21370000Y-26330000D01*
X18830000Y-26330000D02*
X18830000Y-30390000D01*
X18230000Y-26330000D02*
X18830000Y-26330000D01*
X16290000Y-26330000D02*
X16290000Y-30390000D01*
X15690000Y-26330000D02*
X16290000Y-26330000D01*
X13750000Y-26330000D02*
X13750000Y-30390000D01*
X13150000Y-26330000D02*
X13750000Y-26330000D01*
X11210000Y-26330000D02*
X11210000Y-30390000D01*
X10610000Y-26330000D02*
X11210000Y-26330000D01*
X8670000Y-26330000D02*
X8670000Y-30390000D01*
X8070000Y-26330000D02*
X8670000Y-26330000D01*
D12*
X56990000Y-27820000D02*
X56990000Y-27440000D01*
X56270000Y-27820000D02*
X56270000Y-27440000D01*
X54450000Y-27820000D02*
X54450000Y-27380000D01*
X53730000Y-27820000D02*
X53730000Y-27380000D01*
X51910000Y-27820000D02*
X51910000Y-27380000D01*
X51190000Y-27820000D02*
X51190000Y-27380000D01*
X49370000Y-27820000D02*
X49370000Y-27380000D01*
X48650000Y-27820000D02*
X48650000Y-27380000D01*
X46830000Y-27820000D02*
X46830000Y-27380000D01*
X46110000Y-27820000D02*
X46110000Y-27380000D01*
X44290000Y-27820000D02*
X44290000Y-27380000D01*
X43570000Y-27820000D02*
X43570000Y-27380000D01*
X41750000Y-27820000D02*
X41750000Y-27380000D01*
X41030000Y-27820000D02*
X41030000Y-27380000D01*
X39210000Y-27820000D02*
X39210000Y-27380000D01*
X38490000Y-27820000D02*
X38490000Y-27380000D01*
X36670000Y-27820000D02*
X36670000Y-27380000D01*
X35950000Y-27820000D02*
X35950000Y-27380000D01*
X34130000Y-27820000D02*
X34130000Y-27380000D01*
X33410000Y-27820000D02*
X33410000Y-27380000D01*
X31590000Y-27820000D02*
X31590000Y-27380000D01*
X30870000Y-27820000D02*
X30870000Y-27380000D01*
X29050000Y-27820000D02*
X29050000Y-27380000D01*
X28330000Y-27820000D02*
X28330000Y-27380000D01*
X26510000Y-27820000D02*
X26510000Y-27380000D01*
X25790000Y-27820000D02*
X25790000Y-27380000D01*
X23970000Y-27820000D02*
X23970000Y-27380000D01*
X23250000Y-27820000D02*
X23250000Y-27380000D01*
X21430000Y-27820000D02*
X21430000Y-27380000D01*
X20710000Y-27820000D02*
X20710000Y-27380000D01*
X18890000Y-27820000D02*
X18890000Y-27380000D01*
X18170000Y-27820000D02*
X18170000Y-27380000D01*
X16350000Y-27820000D02*
X16350000Y-27380000D01*
X15630000Y-27820000D02*
X15630000Y-27380000D01*
X13810000Y-27820000D02*
X13810000Y-27380000D01*
X13090000Y-27820000D02*
X13090000Y-27380000D01*
X11270000Y-27820000D02*
X11270000Y-27380000D01*
X10550000Y-27820000D02*
X10550000Y-27380000D01*
X8730000Y-27820000D02*
X8730000Y-27380000D01*
X8010000Y-27820000D02*
X8010000Y-27380000D01*
X57960000Y-30330000D02*
X7040000Y-30330000D01*
X56990000Y-30330000D02*
X56990000Y-29920000D01*
X56270000Y-30330000D02*
X56270000Y-29920000D01*
X54450000Y-30330000D02*
X54450000Y-29920000D01*
X53730000Y-30330000D02*
X53730000Y-29920000D01*
X51910000Y-30330000D02*
X51910000Y-29920000D01*
X51190000Y-30330000D02*
X51190000Y-29920000D01*
X49370000Y-30330000D02*
X49370000Y-29920000D01*
X48650000Y-30330000D02*
X48650000Y-29920000D01*
X46830000Y-30330000D02*
X46830000Y-29920000D01*
X46110000Y-30330000D02*
X46110000Y-29920000D01*
X44290000Y-30330000D02*
X44290000Y-29920000D01*
X43570000Y-30330000D02*
X43570000Y-29920000D01*
X41750000Y-30330000D02*
X41750000Y-29920000D01*
X41030000Y-30330000D02*
X41030000Y-29920000D01*
X39210000Y-30330000D02*
X39210000Y-29920000D01*
X38490000Y-30330000D02*
X38490000Y-29920000D01*
X36670000Y-30330000D02*
X36670000Y-29920000D01*
X35950000Y-30330000D02*
X35950000Y-29920000D01*
X34130000Y-30330000D02*
X34130000Y-29920000D01*
X33410000Y-30330000D02*
X33410000Y-29920000D01*
X31590000Y-30330000D02*
X31590000Y-29920000D01*
X30870000Y-30330000D02*
X30870000Y-29920000D01*
X29050000Y-30330000D02*
X29050000Y-29920000D01*
X28330000Y-30330000D02*
X28330000Y-29920000D01*
X26510000Y-30330000D02*
X26510000Y-29920000D01*
X25790000Y-30330000D02*
X25790000Y-29920000D01*
X23970000Y-30330000D02*
X23970000Y-29920000D01*
X23250000Y-30330000D02*
X23250000Y-29920000D01*
X21430000Y-30330000D02*
X21430000Y-29920000D01*
X20710000Y-30330000D02*
X20710000Y-29920000D01*
X18890000Y-30330000D02*
X18890000Y-29920000D01*
X18170000Y-30330000D02*
X18170000Y-29920000D01*
X16350000Y-30330000D02*
X16350000Y-29920000D01*
X15630000Y-30330000D02*
X15630000Y-29920000D01*
X13810000Y-30330000D02*
X13810000Y-29920000D01*
X13090000Y-30330000D02*
X13090000Y-29920000D01*
X11270000Y-30330000D02*
X11270000Y-29920000D01*
X10550000Y-30330000D02*
X10550000Y-29920000D01*
X8730000Y-30330000D02*
X8730000Y-29920000D01*
X8010000Y-30330000D02*
X8010000Y-29920000D01*
D11*
X56930000Y-30390000D02*
X7100000Y-30390000D01*
X56330000Y-30390000D02*
X56330000Y-26330000D01*
X53790000Y-30390000D02*
X53790000Y-26330000D01*
X51250000Y-30390000D02*
X51250000Y-26330000D01*
X48710000Y-30390000D02*
X48710000Y-26330000D01*
X46170000Y-30390000D02*
X46170000Y-26330000D01*
X43630000Y-30390000D02*
X43630000Y-26330000D01*
X41090000Y-30390000D02*
X41090000Y-26330000D01*
X38550000Y-30390000D02*
X38550000Y-26330000D01*
X36010000Y-30390000D02*
X36010000Y-26330000D01*
X33470000Y-30390000D02*
X33470000Y-26330000D01*
X30930000Y-30390000D02*
X30930000Y-26330000D01*
X28390000Y-30390000D02*
X28390000Y-26330000D01*
X25850000Y-30390000D02*
X25850000Y-26330000D01*
X23310000Y-30390000D02*
X23310000Y-26330000D01*
X20770000Y-30390000D02*
X20770000Y-26330000D01*
X18230000Y-30390000D02*
X18230000Y-26330000D01*
X15690000Y-30390000D02*
X15690000Y-26330000D01*
X13150000Y-30390000D02*
X13150000Y-26330000D01*
X10610000Y-30390000D02*
X10610000Y-26330000D01*
X8070000Y-30390000D02*
X8070000Y-26330000D01*
D12*
X57960000Y-37900000D02*
X57960000Y-30330000D01*
X57960000Y-37900000D02*
X7040000Y-37900000D01*
X55360000Y-37900000D02*
X55360000Y-30330000D01*
X52820000Y-37900000D02*
X52820000Y-30330000D01*
X50280000Y-37900000D02*
X50280000Y-30330000D01*
X47740000Y-37900000D02*
X47740000Y-30330000D01*
X45200000Y-37900000D02*
X45200000Y-30330000D01*
X42660000Y-37900000D02*
X42660000Y-30330000D01*
X40120000Y-37900000D02*
X40120000Y-30330000D01*
X37580000Y-37900000D02*
X37580000Y-30330000D01*
X35040000Y-37900000D02*
X35040000Y-30330000D01*
X32500000Y-37900000D02*
X32500000Y-30330000D01*
X29960000Y-37900000D02*
X29960000Y-30330000D01*
X27420000Y-37900000D02*
X27420000Y-30330000D01*
X24880000Y-37900000D02*
X24880000Y-30330000D01*
X22340000Y-37900000D02*
X22340000Y-30330000D01*
X19800000Y-37900000D02*
X19800000Y-30330000D01*
X17260000Y-37900000D02*
X17260000Y-30330000D01*
X14720000Y-37900000D02*
X14720000Y-30330000D01*
X12180000Y-37900000D02*
X12180000Y-30330000D01*
X9640000Y-37900000D02*
X9640000Y-30330000D01*
D11*
X7100000Y-37900000D02*
X57900000Y-37900000D01*
D12*
X7040000Y-37900000D02*
X7040000Y-30330000D01*
%TO.C,J2*%
X17420000Y-4270000D02*
X17420000Y-22110000D01*
X17420000Y-4270000D02*
X20080000Y-4270000D01*
X17420000Y-22110000D02*
X20080000Y-22110000D01*
D11*
X17480000Y-1730000D02*
X19385000Y-1730000D01*
X17480000Y-22050000D02*
X17480000Y-1730000D01*
D12*
X18750000Y-1670000D02*
X20080000Y-1670000D01*
D11*
X19385000Y-1730000D02*
X20020000Y-2365000D01*
X20020000Y-2365000D02*
X20020000Y-22050000D01*
X20020000Y-22050000D02*
X17480000Y-22050000D01*
D12*
X20080000Y-1670000D02*
X20080000Y-3000000D01*
X20080000Y-4270000D02*
X20080000Y-22110000D01*
%TD*%
M02*
