%TF.GenerationSoftware,KiCad,Pcbnew,9.0.7*%
%TF.CreationDate,2026-05-23T10:15:05+02:00*%
%TF.ProjectId,BarePi_MegaTinyJoypad,42617265-5069-45f4-9d65-676154696e79,rev?*%
%TF.SameCoordinates,Original*%
%TF.FileFunction,Legend,Top*%
%TF.FilePolarity,Positive*%
%FSLAX46Y46*%
G04 Gerber Fmt 4.6, Leading zero omitted, Abs format (unit mm)*
G04 Created by KiCad (PCBNEW 9.0.7) date 2026-05-23 10:15:05*
%MOMM*%
%LPD*%
G01*
G04 APERTURE LIST*
%ADD10C,0.150000*%
%ADD11C,0.120000*%
G04 APERTURE END LIST*
D10*
X34888095Y-18994819D02*
X34888095Y-19804342D01*
X34888095Y-19804342D02*
X34935714Y-19899580D01*
X34935714Y-19899580D02*
X34983333Y-19947200D01*
X34983333Y-19947200D02*
X35078571Y-19994819D01*
X35078571Y-19994819D02*
X35269047Y-19994819D01*
X35269047Y-19994819D02*
X35364285Y-19947200D01*
X35364285Y-19947200D02*
X35411904Y-19899580D01*
X35411904Y-19899580D02*
X35459523Y-19804342D01*
X35459523Y-19804342D02*
X35459523Y-18994819D01*
X35888095Y-19090057D02*
X35935714Y-19042438D01*
X35935714Y-19042438D02*
X36030952Y-18994819D01*
X36030952Y-18994819D02*
X36269047Y-18994819D01*
X36269047Y-18994819D02*
X36364285Y-19042438D01*
X36364285Y-19042438D02*
X36411904Y-19090057D01*
X36411904Y-19090057D02*
X36459523Y-19185295D01*
X36459523Y-19185295D02*
X36459523Y-19280533D01*
X36459523Y-19280533D02*
X36411904Y-19423390D01*
X36411904Y-19423390D02*
X35840476Y-19994819D01*
X35840476Y-19994819D02*
X36459523Y-19994819D01*
X49116666Y-2364819D02*
X49116666Y-3079104D01*
X49116666Y-3079104D02*
X49069047Y-3221961D01*
X49069047Y-3221961D02*
X48973809Y-3317200D01*
X48973809Y-3317200D02*
X48830952Y-3364819D01*
X48830952Y-3364819D02*
X48735714Y-3364819D01*
X49497619Y-2364819D02*
X50116666Y-2364819D01*
X50116666Y-2364819D02*
X49783333Y-2745771D01*
X49783333Y-2745771D02*
X49926190Y-2745771D01*
X49926190Y-2745771D02*
X50021428Y-2793390D01*
X50021428Y-2793390D02*
X50069047Y-2841009D01*
X50069047Y-2841009D02*
X50116666Y-2936247D01*
X50116666Y-2936247D02*
X50116666Y-3174342D01*
X50116666Y-3174342D02*
X50069047Y-3269580D01*
X50069047Y-3269580D02*
X50021428Y-3317200D01*
X50021428Y-3317200D02*
X49926190Y-3364819D01*
X49926190Y-3364819D02*
X49640476Y-3364819D01*
X49640476Y-3364819D02*
X49545238Y-3317200D01*
X49545238Y-3317200D02*
X49497619Y-3269580D01*
X4966666Y-26014819D02*
X4966666Y-26729104D01*
X4966666Y-26729104D02*
X4919047Y-26871961D01*
X4919047Y-26871961D02*
X4823809Y-26967200D01*
X4823809Y-26967200D02*
X4680952Y-27014819D01*
X4680952Y-27014819D02*
X4585714Y-27014819D01*
X5966666Y-27014819D02*
X5395238Y-27014819D01*
X5680952Y-27014819D02*
X5680952Y-26014819D01*
X5680952Y-26014819D02*
X5585714Y-26157676D01*
X5585714Y-26157676D02*
X5490476Y-26252914D01*
X5490476Y-26252914D02*
X5395238Y-26300533D01*
X6060588Y-29794819D02*
X5489160Y-29794819D01*
X5774874Y-29794819D02*
X5774874Y-28794819D01*
X5774874Y-28794819D02*
X5679636Y-28937676D01*
X5679636Y-28937676D02*
X5584398Y-29032914D01*
X5584398Y-29032914D02*
X5489160Y-29080533D01*
X15056666Y-2274819D02*
X15056666Y-2989104D01*
X15056666Y-2989104D02*
X15009047Y-3131961D01*
X15009047Y-3131961D02*
X14913809Y-3227200D01*
X14913809Y-3227200D02*
X14770952Y-3274819D01*
X14770952Y-3274819D02*
X14675714Y-3274819D01*
X15485238Y-2370057D02*
X15532857Y-2322438D01*
X15532857Y-2322438D02*
X15628095Y-2274819D01*
X15628095Y-2274819D02*
X15866190Y-2274819D01*
X15866190Y-2274819D02*
X15961428Y-2322438D01*
X15961428Y-2322438D02*
X16009047Y-2370057D01*
X16009047Y-2370057D02*
X16056666Y-2465295D01*
X16056666Y-2465295D02*
X16056666Y-2560533D01*
X16056666Y-2560533D02*
X16009047Y-2703390D01*
X16009047Y-2703390D02*
X15437619Y-3274819D01*
X15437619Y-3274819D02*
X16056666Y-3274819D01*
D11*
%TO.C,U2*%
X24380000Y-4300000D02*
X24380000Y-3900000D01*
X24380000Y-6300000D02*
X24380000Y-5900000D01*
X24380000Y-8300000D02*
X24380000Y-7900000D01*
X24380000Y-10300000D02*
X24380000Y-9900000D01*
X24380000Y-12300000D02*
X24380000Y-11900000D01*
X24380000Y-14300000D02*
X24380000Y-13900000D01*
X24380000Y-16300000D02*
X24380000Y-15900000D01*
X24380000Y-18720000D02*
X24380000Y-17900000D01*
X40620000Y-4300000D02*
X40620000Y-3900000D01*
X40620000Y-6300000D02*
X40620000Y-5900000D01*
X40620000Y-8300000D02*
X40620000Y-7900000D01*
X40620000Y-10300000D02*
X40620000Y-9900000D01*
X40620000Y-12300000D02*
X40620000Y-11900000D01*
X40620000Y-14300000D02*
X40620000Y-13900000D01*
X40620000Y-16300000D02*
X40620000Y-15900000D01*
X40620000Y-17900000D02*
X40620000Y-18720000D01*
X40620000Y-18720000D02*
X24380000Y-18720000D01*
X24000000Y-2300000D02*
X23760000Y-1964000D01*
X24240000Y-1964000D01*
X24000000Y-2300000D01*
G36*
X24000000Y-2300000D02*
G01*
X23760000Y-1964000D01*
X24240000Y-1964000D01*
X24000000Y-2300000D01*
G37*
%TD*%
M02*
