%TF.GenerationSoftware,KiCad,Pcbnew,9.0.7*%
%TF.CreationDate,2026-05-23T17:34:20+02:00*%
%TF.ProjectId,BarePi_PidiMetAdapter,42617265-5069-45f5-9069-64694d657441,rev?*%
%TF.SameCoordinates,Original*%
%TF.FileFunction,Legend,Top*%
%TF.FilePolarity,Positive*%
%FSLAX46Y46*%
G04 Gerber Fmt 4.6, Leading zero omitted, Abs format (unit mm)*
G04 Created by KiCad (PCBNEW 9.0.7) date 2026-05-23 17:34:20*
%MOMM*%
%LPD*%
G01*
G04 APERTURE LIST*
%ADD10C,0.140000*%
%ADD11C,0.120000*%
%ADD12C,0.150000*%
G04 APERTURE END LIST*
D10*
X56130000Y-13707053D02*
X55896667Y-13373720D01*
X55730000Y-13707053D02*
X55730000Y-13007053D01*
X55730000Y-13007053D02*
X55996667Y-13007053D01*
X55996667Y-13007053D02*
X56063334Y-13040386D01*
X56063334Y-13040386D02*
X56096667Y-13073720D01*
X56096667Y-13073720D02*
X56130000Y-13140386D01*
X56130000Y-13140386D02*
X56130000Y-13240386D01*
X56130000Y-13240386D02*
X56096667Y-13307053D01*
X56096667Y-13307053D02*
X56063334Y-13340386D01*
X56063334Y-13340386D02*
X55996667Y-13373720D01*
X55996667Y-13373720D02*
X55730000Y-13373720D01*
X56930000Y-12973720D02*
X56330000Y-13873720D01*
X57563333Y-13640386D02*
X57530000Y-13673720D01*
X57530000Y-13673720D02*
X57430000Y-13707053D01*
X57430000Y-13707053D02*
X57363333Y-13707053D01*
X57363333Y-13707053D02*
X57263333Y-13673720D01*
X57263333Y-13673720D02*
X57196667Y-13607053D01*
X57196667Y-13607053D02*
X57163333Y-13540386D01*
X57163333Y-13540386D02*
X57130000Y-13407053D01*
X57130000Y-13407053D02*
X57130000Y-13307053D01*
X57130000Y-13307053D02*
X57163333Y-13173720D01*
X57163333Y-13173720D02*
X57196667Y-13107053D01*
X57196667Y-13107053D02*
X57263333Y-13040386D01*
X57263333Y-13040386D02*
X57363333Y-13007053D01*
X57363333Y-13007053D02*
X57430000Y-13007053D01*
X57430000Y-13007053D02*
X57530000Y-13040386D01*
X57530000Y-13040386D02*
X57563333Y-13073720D01*
X53556667Y-11840386D02*
X53490000Y-11807053D01*
X53490000Y-11807053D02*
X53390000Y-11807053D01*
X53390000Y-11807053D02*
X53290000Y-11840386D01*
X53290000Y-11840386D02*
X53223334Y-11907053D01*
X53223334Y-11907053D02*
X53190000Y-11973720D01*
X53190000Y-11973720D02*
X53156667Y-12107053D01*
X53156667Y-12107053D02*
X53156667Y-12207053D01*
X53156667Y-12207053D02*
X53190000Y-12340386D01*
X53190000Y-12340386D02*
X53223334Y-12407053D01*
X53223334Y-12407053D02*
X53290000Y-12473720D01*
X53290000Y-12473720D02*
X53390000Y-12507053D01*
X53390000Y-12507053D02*
X53456667Y-12507053D01*
X53456667Y-12507053D02*
X53556667Y-12473720D01*
X53556667Y-12473720D02*
X53590000Y-12440386D01*
X53590000Y-12440386D02*
X53590000Y-12207053D01*
X53590000Y-12207053D02*
X53456667Y-12207053D01*
X53890000Y-12507053D02*
X53890000Y-11807053D01*
X53890000Y-11807053D02*
X54290000Y-12507053D01*
X54290000Y-12507053D02*
X54290000Y-11807053D01*
X54623333Y-12507053D02*
X54623333Y-11807053D01*
X54623333Y-11807053D02*
X54790000Y-11807053D01*
X54790000Y-11807053D02*
X54890000Y-11840386D01*
X54890000Y-11840386D02*
X54956667Y-11907053D01*
X54956667Y-11907053D02*
X54990000Y-11973720D01*
X54990000Y-11973720D02*
X55023333Y-12107053D01*
X55023333Y-12107053D02*
X55023333Y-12207053D01*
X55023333Y-12207053D02*
X54990000Y-12340386D01*
X54990000Y-12340386D02*
X54956667Y-12407053D01*
X54956667Y-12407053D02*
X54890000Y-12473720D01*
X54890000Y-12473720D02*
X54790000Y-12507053D01*
X54790000Y-12507053D02*
X54623333Y-12507053D01*
X51766667Y-13707053D02*
X51433333Y-13707053D01*
X51433333Y-13707053D02*
X51433333Y-13007053D01*
X48476667Y-11840386D02*
X48410000Y-11807053D01*
X48410000Y-11807053D02*
X48310000Y-11807053D01*
X48310000Y-11807053D02*
X48210000Y-11840386D01*
X48210000Y-11840386D02*
X48143334Y-11907053D01*
X48143334Y-11907053D02*
X48110000Y-11973720D01*
X48110000Y-11973720D02*
X48076667Y-12107053D01*
X48076667Y-12107053D02*
X48076667Y-12207053D01*
X48076667Y-12207053D02*
X48110000Y-12340386D01*
X48110000Y-12340386D02*
X48143334Y-12407053D01*
X48143334Y-12407053D02*
X48210000Y-12473720D01*
X48210000Y-12473720D02*
X48310000Y-12507053D01*
X48310000Y-12507053D02*
X48376667Y-12507053D01*
X48376667Y-12507053D02*
X48476667Y-12473720D01*
X48476667Y-12473720D02*
X48510000Y-12440386D01*
X48510000Y-12440386D02*
X48510000Y-12207053D01*
X48510000Y-12207053D02*
X48376667Y-12207053D01*
X48810000Y-12507053D02*
X48810000Y-11807053D01*
X48810000Y-11807053D02*
X49210000Y-12507053D01*
X49210000Y-12507053D02*
X49210000Y-11807053D01*
X49543333Y-12507053D02*
X49543333Y-11807053D01*
X49543333Y-11807053D02*
X49710000Y-11807053D01*
X49710000Y-11807053D02*
X49810000Y-11840386D01*
X49810000Y-11840386D02*
X49876667Y-11907053D01*
X49876667Y-11907053D02*
X49910000Y-11973720D01*
X49910000Y-11973720D02*
X49943333Y-12107053D01*
X49943333Y-12107053D02*
X49943333Y-12207053D01*
X49943333Y-12207053D02*
X49910000Y-12340386D01*
X49910000Y-12340386D02*
X49876667Y-12407053D01*
X49876667Y-12407053D02*
X49810000Y-12473720D01*
X49810000Y-12473720D02*
X49710000Y-12507053D01*
X49710000Y-12507053D02*
X49543333Y-12507053D01*
X45369999Y-13707053D02*
X45369999Y-13007053D01*
X45903332Y-13973720D02*
X45869999Y-13940386D01*
X45869999Y-13940386D02*
X45803332Y-13840386D01*
X45803332Y-13840386D02*
X45769999Y-13773720D01*
X45769999Y-13773720D02*
X45736666Y-13673720D01*
X45736666Y-13673720D02*
X45703332Y-13507053D01*
X45703332Y-13507053D02*
X45703332Y-13373720D01*
X45703332Y-13373720D02*
X45736666Y-13207053D01*
X45736666Y-13207053D02*
X45769999Y-13107053D01*
X45769999Y-13107053D02*
X45803332Y-13040386D01*
X45803332Y-13040386D02*
X45869999Y-12940386D01*
X45869999Y-12940386D02*
X45903332Y-12907053D01*
X46536666Y-13707053D02*
X46136666Y-13707053D01*
X46336666Y-13707053D02*
X46336666Y-13007053D01*
X46336666Y-13007053D02*
X46269999Y-13107053D01*
X46269999Y-13107053D02*
X46203333Y-13173720D01*
X46203333Y-13173720D02*
X46136666Y-13207053D01*
X46803333Y-13507053D02*
X47136666Y-13507053D01*
X46736666Y-13707053D02*
X46970000Y-13007053D01*
X46970000Y-13007053D02*
X47203333Y-13707053D01*
X47370000Y-13973720D02*
X47403333Y-13940386D01*
X47403333Y-13940386D02*
X47470000Y-13840386D01*
X47470000Y-13840386D02*
X47503333Y-13773720D01*
X47503333Y-13773720D02*
X47536666Y-13673720D01*
X47536666Y-13673720D02*
X47570000Y-13507053D01*
X47570000Y-13507053D02*
X47570000Y-13373720D01*
X47570000Y-13373720D02*
X47536666Y-13207053D01*
X47536666Y-13207053D02*
X47503333Y-13107053D01*
X47503333Y-13107053D02*
X47470000Y-13040386D01*
X47470000Y-13040386D02*
X47403333Y-12940386D01*
X47403333Y-12940386D02*
X47370000Y-12907053D01*
X42296666Y-11807053D02*
X42296666Y-12373720D01*
X42296666Y-12373720D02*
X42330000Y-12440386D01*
X42330000Y-12440386D02*
X42363333Y-12473720D01*
X42363333Y-12473720D02*
X42430000Y-12507053D01*
X42430000Y-12507053D02*
X42563333Y-12507053D01*
X42563333Y-12507053D02*
X42630000Y-12473720D01*
X42630000Y-12473720D02*
X42663333Y-12440386D01*
X42663333Y-12440386D02*
X42696666Y-12373720D01*
X42696666Y-12373720D02*
X42696666Y-11807053D01*
X43396666Y-12507053D02*
X42996666Y-12507053D01*
X43196666Y-12507053D02*
X43196666Y-11807053D01*
X43196666Y-11807053D02*
X43129999Y-11907053D01*
X43129999Y-11907053D02*
X43063333Y-11973720D01*
X43063333Y-11973720D02*
X42996666Y-12007053D01*
X43896666Y-12773720D02*
X43863333Y-12740386D01*
X43863333Y-12740386D02*
X43796666Y-12640386D01*
X43796666Y-12640386D02*
X43763333Y-12573720D01*
X43763333Y-12573720D02*
X43730000Y-12473720D01*
X43730000Y-12473720D02*
X43696666Y-12307053D01*
X43696666Y-12307053D02*
X43696666Y-12173720D01*
X43696666Y-12173720D02*
X43730000Y-12007053D01*
X43730000Y-12007053D02*
X43763333Y-11907053D01*
X43763333Y-11907053D02*
X43796666Y-11840386D01*
X43796666Y-11840386D02*
X43863333Y-11740386D01*
X43863333Y-11740386D02*
X43896666Y-11707053D01*
X44096667Y-11807053D02*
X44530000Y-11807053D01*
X44530000Y-11807053D02*
X44296667Y-12073720D01*
X44296667Y-12073720D02*
X44396667Y-12073720D01*
X44396667Y-12073720D02*
X44463333Y-12107053D01*
X44463333Y-12107053D02*
X44496667Y-12140386D01*
X44496667Y-12140386D02*
X44530000Y-12207053D01*
X44530000Y-12207053D02*
X44530000Y-12373720D01*
X44530000Y-12373720D02*
X44496667Y-12440386D01*
X44496667Y-12440386D02*
X44463333Y-12473720D01*
X44463333Y-12473720D02*
X44396667Y-12507053D01*
X44396667Y-12507053D02*
X44196667Y-12507053D01*
X44196667Y-12507053D02*
X44130000Y-12473720D01*
X44130000Y-12473720D02*
X44096667Y-12440386D01*
X44730000Y-11807053D02*
X44963334Y-12507053D01*
X44963334Y-12507053D02*
X45196667Y-11807053D01*
X45363334Y-12773720D02*
X45396667Y-12740386D01*
X45396667Y-12740386D02*
X45463334Y-12640386D01*
X45463334Y-12640386D02*
X45496667Y-12573720D01*
X45496667Y-12573720D02*
X45530000Y-12473720D01*
X45530000Y-12473720D02*
X45563334Y-12307053D01*
X45563334Y-12307053D02*
X45563334Y-12173720D01*
X45563334Y-12173720D02*
X45530000Y-12007053D01*
X45530000Y-12007053D02*
X45496667Y-11907053D01*
X45496667Y-11907053D02*
X45463334Y-11840386D01*
X45463334Y-11840386D02*
X45396667Y-11740386D01*
X45396667Y-11740386D02*
X45363334Y-11707053D01*
X40306667Y-13007053D02*
X40440000Y-13007053D01*
X40440000Y-13007053D02*
X40506667Y-13040386D01*
X40506667Y-13040386D02*
X40573333Y-13107053D01*
X40573333Y-13107053D02*
X40606667Y-13240386D01*
X40606667Y-13240386D02*
X40606667Y-13473720D01*
X40606667Y-13473720D02*
X40573333Y-13607053D01*
X40573333Y-13607053D02*
X40506667Y-13673720D01*
X40506667Y-13673720D02*
X40440000Y-13707053D01*
X40440000Y-13707053D02*
X40306667Y-13707053D01*
X40306667Y-13707053D02*
X40240000Y-13673720D01*
X40240000Y-13673720D02*
X40173333Y-13607053D01*
X40173333Y-13607053D02*
X40140000Y-13473720D01*
X40140000Y-13473720D02*
X40140000Y-13240386D01*
X40140000Y-13240386D02*
X40173333Y-13107053D01*
X40173333Y-13107053D02*
X40240000Y-13040386D01*
X40240000Y-13040386D02*
X40306667Y-13007053D01*
X40873333Y-13673720D02*
X40973333Y-13707053D01*
X40973333Y-13707053D02*
X41140000Y-13707053D01*
X41140000Y-13707053D02*
X41206666Y-13673720D01*
X41206666Y-13673720D02*
X41240000Y-13640386D01*
X41240000Y-13640386D02*
X41273333Y-13573720D01*
X41273333Y-13573720D02*
X41273333Y-13507053D01*
X41273333Y-13507053D02*
X41240000Y-13440386D01*
X41240000Y-13440386D02*
X41206666Y-13407053D01*
X41206666Y-13407053D02*
X41140000Y-13373720D01*
X41140000Y-13373720D02*
X41006666Y-13340386D01*
X41006666Y-13340386D02*
X40940000Y-13307053D01*
X40940000Y-13307053D02*
X40906666Y-13273720D01*
X40906666Y-13273720D02*
X40873333Y-13207053D01*
X40873333Y-13207053D02*
X40873333Y-13140386D01*
X40873333Y-13140386D02*
X40906666Y-13073720D01*
X40906666Y-13073720D02*
X40940000Y-13040386D01*
X40940000Y-13040386D02*
X41006666Y-13007053D01*
X41006666Y-13007053D02*
X41173333Y-13007053D01*
X41173333Y-13007053D02*
X41273333Y-13040386D01*
X41973333Y-13640386D02*
X41940000Y-13673720D01*
X41940000Y-13673720D02*
X41840000Y-13707053D01*
X41840000Y-13707053D02*
X41773333Y-13707053D01*
X41773333Y-13707053D02*
X41673333Y-13673720D01*
X41673333Y-13673720D02*
X41606667Y-13607053D01*
X41606667Y-13607053D02*
X41573333Y-13540386D01*
X41573333Y-13540386D02*
X41540000Y-13407053D01*
X41540000Y-13407053D02*
X41540000Y-13307053D01*
X41540000Y-13307053D02*
X41573333Y-13173720D01*
X41573333Y-13173720D02*
X41606667Y-13107053D01*
X41606667Y-13107053D02*
X41673333Y-13040386D01*
X41673333Y-13040386D02*
X41773333Y-13007053D01*
X41773333Y-13007053D02*
X41840000Y-13007053D01*
X41840000Y-13007053D02*
X41940000Y-13040386D01*
X41940000Y-13040386D02*
X41973333Y-13073720D01*
X42240000Y-13073720D02*
X42273333Y-13040386D01*
X42273333Y-13040386D02*
X42340000Y-13007053D01*
X42340000Y-13007053D02*
X42506667Y-13007053D01*
X42506667Y-13007053D02*
X42573333Y-13040386D01*
X42573333Y-13040386D02*
X42606667Y-13073720D01*
X42606667Y-13073720D02*
X42640000Y-13140386D01*
X42640000Y-13140386D02*
X42640000Y-13207053D01*
X42640000Y-13207053D02*
X42606667Y-13307053D01*
X42606667Y-13307053D02*
X42206667Y-13707053D01*
X42206667Y-13707053D02*
X42640000Y-13707053D01*
X36883332Y-11807053D02*
X36883332Y-12373720D01*
X36883332Y-12373720D02*
X36916666Y-12440386D01*
X36916666Y-12440386D02*
X36949999Y-12473720D01*
X36949999Y-12473720D02*
X37016666Y-12507053D01*
X37016666Y-12507053D02*
X37149999Y-12507053D01*
X37149999Y-12507053D02*
X37216666Y-12473720D01*
X37216666Y-12473720D02*
X37249999Y-12440386D01*
X37249999Y-12440386D02*
X37283332Y-12373720D01*
X37283332Y-12373720D02*
X37283332Y-11807053D01*
X37583332Y-11873720D02*
X37616665Y-11840386D01*
X37616665Y-11840386D02*
X37683332Y-11807053D01*
X37683332Y-11807053D02*
X37849999Y-11807053D01*
X37849999Y-11807053D02*
X37916665Y-11840386D01*
X37916665Y-11840386D02*
X37949999Y-11873720D01*
X37949999Y-11873720D02*
X37983332Y-11940386D01*
X37983332Y-11940386D02*
X37983332Y-12007053D01*
X37983332Y-12007053D02*
X37949999Y-12107053D01*
X37949999Y-12107053D02*
X37549999Y-12507053D01*
X37549999Y-12507053D02*
X37983332Y-12507053D01*
X38483332Y-12773720D02*
X38449999Y-12740386D01*
X38449999Y-12740386D02*
X38383332Y-12640386D01*
X38383332Y-12640386D02*
X38349999Y-12573720D01*
X38349999Y-12573720D02*
X38316666Y-12473720D01*
X38316666Y-12473720D02*
X38283332Y-12307053D01*
X38283332Y-12307053D02*
X38283332Y-12173720D01*
X38283332Y-12173720D02*
X38316666Y-12007053D01*
X38316666Y-12007053D02*
X38349999Y-11907053D01*
X38349999Y-11907053D02*
X38383332Y-11840386D01*
X38383332Y-11840386D02*
X38449999Y-11740386D01*
X38449999Y-11740386D02*
X38483332Y-11707053D01*
X38683333Y-11807053D02*
X39116666Y-11807053D01*
X39116666Y-11807053D02*
X38883333Y-12073720D01*
X38883333Y-12073720D02*
X38983333Y-12073720D01*
X38983333Y-12073720D02*
X39049999Y-12107053D01*
X39049999Y-12107053D02*
X39083333Y-12140386D01*
X39083333Y-12140386D02*
X39116666Y-12207053D01*
X39116666Y-12207053D02*
X39116666Y-12373720D01*
X39116666Y-12373720D02*
X39083333Y-12440386D01*
X39083333Y-12440386D02*
X39049999Y-12473720D01*
X39049999Y-12473720D02*
X38983333Y-12507053D01*
X38983333Y-12507053D02*
X38783333Y-12507053D01*
X38783333Y-12507053D02*
X38716666Y-12473720D01*
X38716666Y-12473720D02*
X38683333Y-12440386D01*
X39550000Y-11807053D02*
X39616666Y-11807053D01*
X39616666Y-11807053D02*
X39683333Y-11840386D01*
X39683333Y-11840386D02*
X39716666Y-11873720D01*
X39716666Y-11873720D02*
X39750000Y-11940386D01*
X39750000Y-11940386D02*
X39783333Y-12073720D01*
X39783333Y-12073720D02*
X39783333Y-12240386D01*
X39783333Y-12240386D02*
X39750000Y-12373720D01*
X39750000Y-12373720D02*
X39716666Y-12440386D01*
X39716666Y-12440386D02*
X39683333Y-12473720D01*
X39683333Y-12473720D02*
X39616666Y-12507053D01*
X39616666Y-12507053D02*
X39550000Y-12507053D01*
X39550000Y-12507053D02*
X39483333Y-12473720D01*
X39483333Y-12473720D02*
X39450000Y-12440386D01*
X39450000Y-12440386D02*
X39416666Y-12373720D01*
X39416666Y-12373720D02*
X39383333Y-12240386D01*
X39383333Y-12240386D02*
X39383333Y-12073720D01*
X39383333Y-12073720D02*
X39416666Y-11940386D01*
X39416666Y-11940386D02*
X39450000Y-11873720D01*
X39450000Y-11873720D02*
X39483333Y-11840386D01*
X39483333Y-11840386D02*
X39550000Y-11807053D01*
X39983333Y-11807053D02*
X40216667Y-12507053D01*
X40216667Y-12507053D02*
X40450000Y-11807053D01*
X40616667Y-12773720D02*
X40650000Y-12740386D01*
X40650000Y-12740386D02*
X40716667Y-12640386D01*
X40716667Y-12640386D02*
X40750000Y-12573720D01*
X40750000Y-12573720D02*
X40783333Y-12473720D01*
X40783333Y-12473720D02*
X40816667Y-12307053D01*
X40816667Y-12307053D02*
X40816667Y-12173720D01*
X40816667Y-12173720D02*
X40783333Y-12007053D01*
X40783333Y-12007053D02*
X40750000Y-11907053D01*
X40750000Y-11907053D02*
X40716667Y-11840386D01*
X40716667Y-11840386D02*
X40650000Y-11740386D01*
X40650000Y-11740386D02*
X40616667Y-11707053D01*
X35226667Y-13007053D02*
X35360000Y-13007053D01*
X35360000Y-13007053D02*
X35426667Y-13040386D01*
X35426667Y-13040386D02*
X35493333Y-13107053D01*
X35493333Y-13107053D02*
X35526667Y-13240386D01*
X35526667Y-13240386D02*
X35526667Y-13473720D01*
X35526667Y-13473720D02*
X35493333Y-13607053D01*
X35493333Y-13607053D02*
X35426667Y-13673720D01*
X35426667Y-13673720D02*
X35360000Y-13707053D01*
X35360000Y-13707053D02*
X35226667Y-13707053D01*
X35226667Y-13707053D02*
X35160000Y-13673720D01*
X35160000Y-13673720D02*
X35093333Y-13607053D01*
X35093333Y-13607053D02*
X35060000Y-13473720D01*
X35060000Y-13473720D02*
X35060000Y-13240386D01*
X35060000Y-13240386D02*
X35093333Y-13107053D01*
X35093333Y-13107053D02*
X35160000Y-13040386D01*
X35160000Y-13040386D02*
X35226667Y-13007053D01*
X35793333Y-13673720D02*
X35893333Y-13707053D01*
X35893333Y-13707053D02*
X36060000Y-13707053D01*
X36060000Y-13707053D02*
X36126666Y-13673720D01*
X36126666Y-13673720D02*
X36160000Y-13640386D01*
X36160000Y-13640386D02*
X36193333Y-13573720D01*
X36193333Y-13573720D02*
X36193333Y-13507053D01*
X36193333Y-13507053D02*
X36160000Y-13440386D01*
X36160000Y-13440386D02*
X36126666Y-13407053D01*
X36126666Y-13407053D02*
X36060000Y-13373720D01*
X36060000Y-13373720D02*
X35926666Y-13340386D01*
X35926666Y-13340386D02*
X35860000Y-13307053D01*
X35860000Y-13307053D02*
X35826666Y-13273720D01*
X35826666Y-13273720D02*
X35793333Y-13207053D01*
X35793333Y-13207053D02*
X35793333Y-13140386D01*
X35793333Y-13140386D02*
X35826666Y-13073720D01*
X35826666Y-13073720D02*
X35860000Y-13040386D01*
X35860000Y-13040386D02*
X35926666Y-13007053D01*
X35926666Y-13007053D02*
X36093333Y-13007053D01*
X36093333Y-13007053D02*
X36193333Y-13040386D01*
X36893333Y-13640386D02*
X36860000Y-13673720D01*
X36860000Y-13673720D02*
X36760000Y-13707053D01*
X36760000Y-13707053D02*
X36693333Y-13707053D01*
X36693333Y-13707053D02*
X36593333Y-13673720D01*
X36593333Y-13673720D02*
X36526667Y-13607053D01*
X36526667Y-13607053D02*
X36493333Y-13540386D01*
X36493333Y-13540386D02*
X36460000Y-13407053D01*
X36460000Y-13407053D02*
X36460000Y-13307053D01*
X36460000Y-13307053D02*
X36493333Y-13173720D01*
X36493333Y-13173720D02*
X36526667Y-13107053D01*
X36526667Y-13107053D02*
X36593333Y-13040386D01*
X36593333Y-13040386D02*
X36693333Y-13007053D01*
X36693333Y-13007053D02*
X36760000Y-13007053D01*
X36760000Y-13007053D02*
X36860000Y-13040386D01*
X36860000Y-13040386D02*
X36893333Y-13073720D01*
X37560000Y-13707053D02*
X37160000Y-13707053D01*
X37360000Y-13707053D02*
X37360000Y-13007053D01*
X37360000Y-13007053D02*
X37293333Y-13107053D01*
X37293333Y-13107053D02*
X37226667Y-13173720D01*
X37226667Y-13173720D02*
X37160000Y-13207053D01*
X33070000Y-12507053D02*
X33070000Y-11807053D01*
X33403333Y-12507053D02*
X33403333Y-11807053D01*
X33403333Y-11807053D02*
X33803333Y-12507053D01*
X33803333Y-12507053D02*
X33803333Y-11807053D01*
X34103333Y-11873720D02*
X34136666Y-11840386D01*
X34136666Y-11840386D02*
X34203333Y-11807053D01*
X34203333Y-11807053D02*
X34370000Y-11807053D01*
X34370000Y-11807053D02*
X34436666Y-11840386D01*
X34436666Y-11840386D02*
X34470000Y-11873720D01*
X34470000Y-11873720D02*
X34503333Y-11940386D01*
X34503333Y-11940386D02*
X34503333Y-12007053D01*
X34503333Y-12007053D02*
X34470000Y-12107053D01*
X34470000Y-12107053D02*
X34070000Y-12507053D01*
X34070000Y-12507053D02*
X34503333Y-12507053D01*
X30530000Y-13707053D02*
X30530000Y-13007053D01*
X30863333Y-13707053D02*
X30863333Y-13007053D01*
X30863333Y-13007053D02*
X31263333Y-13707053D01*
X31263333Y-13707053D02*
X31263333Y-13007053D01*
X31963333Y-13707053D02*
X31563333Y-13707053D01*
X31763333Y-13707053D02*
X31763333Y-13007053D01*
X31763333Y-13007053D02*
X31696666Y-13107053D01*
X31696666Y-13107053D02*
X31630000Y-13173720D01*
X31630000Y-13173720D02*
X31563333Y-13207053D01*
X28156667Y-11840386D02*
X28090000Y-11807053D01*
X28090000Y-11807053D02*
X27990000Y-11807053D01*
X27990000Y-11807053D02*
X27890000Y-11840386D01*
X27890000Y-11840386D02*
X27823334Y-11907053D01*
X27823334Y-11907053D02*
X27790000Y-11973720D01*
X27790000Y-11973720D02*
X27756667Y-12107053D01*
X27756667Y-12107053D02*
X27756667Y-12207053D01*
X27756667Y-12207053D02*
X27790000Y-12340386D01*
X27790000Y-12340386D02*
X27823334Y-12407053D01*
X27823334Y-12407053D02*
X27890000Y-12473720D01*
X27890000Y-12473720D02*
X27990000Y-12507053D01*
X27990000Y-12507053D02*
X28056667Y-12507053D01*
X28056667Y-12507053D02*
X28156667Y-12473720D01*
X28156667Y-12473720D02*
X28190000Y-12440386D01*
X28190000Y-12440386D02*
X28190000Y-12207053D01*
X28190000Y-12207053D02*
X28056667Y-12207053D01*
X28490000Y-12507053D02*
X28490000Y-11807053D01*
X28490000Y-11807053D02*
X28890000Y-12507053D01*
X28890000Y-12507053D02*
X28890000Y-11807053D01*
X29223333Y-12507053D02*
X29223333Y-11807053D01*
X29223333Y-11807053D02*
X29390000Y-11807053D01*
X29390000Y-11807053D02*
X29490000Y-11840386D01*
X29490000Y-11840386D02*
X29556667Y-11907053D01*
X29556667Y-11907053D02*
X29590000Y-11973720D01*
X29590000Y-11973720D02*
X29623333Y-12107053D01*
X29623333Y-12107053D02*
X29623333Y-12207053D01*
X29623333Y-12207053D02*
X29590000Y-12340386D01*
X29590000Y-12340386D02*
X29556667Y-12407053D01*
X29556667Y-12407053D02*
X29490000Y-12473720D01*
X29490000Y-12473720D02*
X29390000Y-12507053D01*
X29390000Y-12507053D02*
X29223333Y-12507053D01*
X25166666Y-13707053D02*
X25166666Y-13007053D01*
X25166666Y-13007053D02*
X25433333Y-13007053D01*
X25433333Y-13007053D02*
X25500000Y-13040386D01*
X25500000Y-13040386D02*
X25533333Y-13073720D01*
X25533333Y-13073720D02*
X25566666Y-13140386D01*
X25566666Y-13140386D02*
X25566666Y-13240386D01*
X25566666Y-13240386D02*
X25533333Y-13307053D01*
X25533333Y-13307053D02*
X25500000Y-13340386D01*
X25500000Y-13340386D02*
X25433333Y-13373720D01*
X25433333Y-13373720D02*
X25166666Y-13373720D01*
X25800000Y-13007053D02*
X25966666Y-13707053D01*
X25966666Y-13707053D02*
X26100000Y-13207053D01*
X26100000Y-13207053D02*
X26233333Y-13707053D01*
X26233333Y-13707053D02*
X26400000Y-13007053D01*
X26666666Y-13707053D02*
X26666666Y-13007053D01*
X26666666Y-13007053D02*
X26900000Y-13507053D01*
X26900000Y-13507053D02*
X27133333Y-13007053D01*
X27133333Y-13007053D02*
X27133333Y-13707053D01*
X23110000Y-11840386D02*
X23043333Y-11807053D01*
X23043333Y-11807053D02*
X22943333Y-11807053D01*
X22943333Y-11807053D02*
X22843333Y-11840386D01*
X22843333Y-11840386D02*
X22776667Y-11907053D01*
X22776667Y-11907053D02*
X22743333Y-11973720D01*
X22743333Y-11973720D02*
X22710000Y-12107053D01*
X22710000Y-12107053D02*
X22710000Y-12207053D01*
X22710000Y-12207053D02*
X22743333Y-12340386D01*
X22743333Y-12340386D02*
X22776667Y-12407053D01*
X22776667Y-12407053D02*
X22843333Y-12473720D01*
X22843333Y-12473720D02*
X22943333Y-12507053D01*
X22943333Y-12507053D02*
X23010000Y-12507053D01*
X23010000Y-12507053D02*
X23110000Y-12473720D01*
X23110000Y-12473720D02*
X23143333Y-12440386D01*
X23143333Y-12440386D02*
X23143333Y-12207053D01*
X23143333Y-12207053D02*
X23010000Y-12207053D01*
X23443333Y-12140386D02*
X23676667Y-12140386D01*
X23776667Y-12507053D02*
X23443333Y-12507053D01*
X23443333Y-12507053D02*
X23443333Y-11807053D01*
X23443333Y-11807053D02*
X23776667Y-11807053D01*
X24076666Y-12507053D02*
X24076666Y-11807053D01*
X24076666Y-11807053D02*
X24476666Y-12507053D01*
X24476666Y-12507053D02*
X24476666Y-11807053D01*
X19203333Y-13007053D02*
X19603333Y-13007053D01*
X19403333Y-13707053D02*
X19403333Y-13007053D01*
X19770000Y-13007053D02*
X20236666Y-13707053D01*
X20236666Y-13007053D02*
X19770000Y-13707053D01*
X21003333Y-12973720D02*
X20403333Y-13873720D01*
X21203333Y-13673720D02*
X21303333Y-13707053D01*
X21303333Y-13707053D02*
X21470000Y-13707053D01*
X21470000Y-13707053D02*
X21536666Y-13673720D01*
X21536666Y-13673720D02*
X21570000Y-13640386D01*
X21570000Y-13640386D02*
X21603333Y-13573720D01*
X21603333Y-13573720D02*
X21603333Y-13507053D01*
X21603333Y-13507053D02*
X21570000Y-13440386D01*
X21570000Y-13440386D02*
X21536666Y-13407053D01*
X21536666Y-13407053D02*
X21470000Y-13373720D01*
X21470000Y-13373720D02*
X21336666Y-13340386D01*
X21336666Y-13340386D02*
X21270000Y-13307053D01*
X21270000Y-13307053D02*
X21236666Y-13273720D01*
X21236666Y-13273720D02*
X21203333Y-13207053D01*
X21203333Y-13207053D02*
X21203333Y-13140386D01*
X21203333Y-13140386D02*
X21236666Y-13073720D01*
X21236666Y-13073720D02*
X21270000Y-13040386D01*
X21270000Y-13040386D02*
X21336666Y-13007053D01*
X21336666Y-13007053D02*
X21503333Y-13007053D01*
X21503333Y-13007053D02*
X21603333Y-13040386D01*
X22303333Y-13640386D02*
X22270000Y-13673720D01*
X22270000Y-13673720D02*
X22170000Y-13707053D01*
X22170000Y-13707053D02*
X22103333Y-13707053D01*
X22103333Y-13707053D02*
X22003333Y-13673720D01*
X22003333Y-13673720D02*
X21936667Y-13607053D01*
X21936667Y-13607053D02*
X21903333Y-13540386D01*
X21903333Y-13540386D02*
X21870000Y-13407053D01*
X21870000Y-13407053D02*
X21870000Y-13307053D01*
X21870000Y-13307053D02*
X21903333Y-13173720D01*
X21903333Y-13173720D02*
X21936667Y-13107053D01*
X21936667Y-13107053D02*
X22003333Y-13040386D01*
X22003333Y-13040386D02*
X22103333Y-13007053D01*
X22103333Y-13007053D02*
X22170000Y-13007053D01*
X22170000Y-13007053D02*
X22270000Y-13040386D01*
X22270000Y-13040386D02*
X22303333Y-13073720D01*
X22936667Y-13707053D02*
X22603333Y-13707053D01*
X22603333Y-13707053D02*
X22603333Y-13007053D01*
X17063333Y-12507053D02*
X16830000Y-12173720D01*
X16663333Y-12507053D02*
X16663333Y-11807053D01*
X16663333Y-11807053D02*
X16930000Y-11807053D01*
X16930000Y-11807053D02*
X16996667Y-11840386D01*
X16996667Y-11840386D02*
X17030000Y-11873720D01*
X17030000Y-11873720D02*
X17063333Y-11940386D01*
X17063333Y-11940386D02*
X17063333Y-12040386D01*
X17063333Y-12040386D02*
X17030000Y-12107053D01*
X17030000Y-12107053D02*
X16996667Y-12140386D01*
X16996667Y-12140386D02*
X16930000Y-12173720D01*
X16930000Y-12173720D02*
X16663333Y-12173720D01*
X17296667Y-11807053D02*
X17763333Y-12507053D01*
X17763333Y-11807053D02*
X17296667Y-12507053D01*
X18530000Y-11773720D02*
X17930000Y-12673720D01*
X18730000Y-12473720D02*
X18830000Y-12507053D01*
X18830000Y-12507053D02*
X18996667Y-12507053D01*
X18996667Y-12507053D02*
X19063333Y-12473720D01*
X19063333Y-12473720D02*
X19096667Y-12440386D01*
X19096667Y-12440386D02*
X19130000Y-12373720D01*
X19130000Y-12373720D02*
X19130000Y-12307053D01*
X19130000Y-12307053D02*
X19096667Y-12240386D01*
X19096667Y-12240386D02*
X19063333Y-12207053D01*
X19063333Y-12207053D02*
X18996667Y-12173720D01*
X18996667Y-12173720D02*
X18863333Y-12140386D01*
X18863333Y-12140386D02*
X18796667Y-12107053D01*
X18796667Y-12107053D02*
X18763333Y-12073720D01*
X18763333Y-12073720D02*
X18730000Y-12007053D01*
X18730000Y-12007053D02*
X18730000Y-11940386D01*
X18730000Y-11940386D02*
X18763333Y-11873720D01*
X18763333Y-11873720D02*
X18796667Y-11840386D01*
X18796667Y-11840386D02*
X18863333Y-11807053D01*
X18863333Y-11807053D02*
X19030000Y-11807053D01*
X19030000Y-11807053D02*
X19130000Y-11840386D01*
X19430000Y-12507053D02*
X19430000Y-11807053D01*
X19430000Y-11807053D02*
X19596667Y-11807053D01*
X19596667Y-11807053D02*
X19696667Y-11840386D01*
X19696667Y-11840386D02*
X19763334Y-11907053D01*
X19763334Y-11907053D02*
X19796667Y-11973720D01*
X19796667Y-11973720D02*
X19830000Y-12107053D01*
X19830000Y-12107053D02*
X19830000Y-12207053D01*
X19830000Y-12207053D02*
X19796667Y-12340386D01*
X19796667Y-12340386D02*
X19763334Y-12407053D01*
X19763334Y-12407053D02*
X19696667Y-12473720D01*
X19696667Y-12473720D02*
X19596667Y-12507053D01*
X19596667Y-12507053D02*
X19430000Y-12507053D01*
X20096667Y-12307053D02*
X20430000Y-12307053D01*
X20030000Y-12507053D02*
X20263334Y-11807053D01*
X20263334Y-11807053D02*
X20496667Y-12507053D01*
X14406666Y-13673720D02*
X14506666Y-13707053D01*
X14506666Y-13707053D02*
X14673333Y-13707053D01*
X14673333Y-13707053D02*
X14739999Y-13673720D01*
X14739999Y-13673720D02*
X14773333Y-13640386D01*
X14773333Y-13640386D02*
X14806666Y-13573720D01*
X14806666Y-13573720D02*
X14806666Y-13507053D01*
X14806666Y-13507053D02*
X14773333Y-13440386D01*
X14773333Y-13440386D02*
X14739999Y-13407053D01*
X14739999Y-13407053D02*
X14673333Y-13373720D01*
X14673333Y-13373720D02*
X14539999Y-13340386D01*
X14539999Y-13340386D02*
X14473333Y-13307053D01*
X14473333Y-13307053D02*
X14439999Y-13273720D01*
X14439999Y-13273720D02*
X14406666Y-13207053D01*
X14406666Y-13207053D02*
X14406666Y-13140386D01*
X14406666Y-13140386D02*
X14439999Y-13073720D01*
X14439999Y-13073720D02*
X14473333Y-13040386D01*
X14473333Y-13040386D02*
X14539999Y-13007053D01*
X14539999Y-13007053D02*
X14706666Y-13007053D01*
X14706666Y-13007053D02*
X14806666Y-13040386D01*
X15040000Y-13007053D02*
X15206666Y-13707053D01*
X15206666Y-13707053D02*
X15340000Y-13207053D01*
X15340000Y-13207053D02*
X15473333Y-13707053D01*
X15473333Y-13707053D02*
X15640000Y-13007053D01*
X16306666Y-13640386D02*
X16273333Y-13673720D01*
X16273333Y-13673720D02*
X16173333Y-13707053D01*
X16173333Y-13707053D02*
X16106666Y-13707053D01*
X16106666Y-13707053D02*
X16006666Y-13673720D01*
X16006666Y-13673720D02*
X15940000Y-13607053D01*
X15940000Y-13607053D02*
X15906666Y-13540386D01*
X15906666Y-13540386D02*
X15873333Y-13407053D01*
X15873333Y-13407053D02*
X15873333Y-13307053D01*
X15873333Y-13307053D02*
X15906666Y-13173720D01*
X15906666Y-13173720D02*
X15940000Y-13107053D01*
X15940000Y-13107053D02*
X16006666Y-13040386D01*
X16006666Y-13040386D02*
X16106666Y-13007053D01*
X16106666Y-13007053D02*
X16173333Y-13007053D01*
X16173333Y-13007053D02*
X16273333Y-13040386D01*
X16273333Y-13040386D02*
X16306666Y-13073720D01*
X16940000Y-13707053D02*
X16606666Y-13707053D01*
X16606666Y-13707053D02*
X16606666Y-13007053D01*
X17173333Y-13707053D02*
X17173333Y-13007053D01*
X17573333Y-13707053D02*
X17273333Y-13307053D01*
X17573333Y-13007053D02*
X17173333Y-13407053D01*
X12316667Y-12473720D02*
X12416667Y-12507053D01*
X12416667Y-12507053D02*
X12583334Y-12507053D01*
X12583334Y-12507053D02*
X12650000Y-12473720D01*
X12650000Y-12473720D02*
X12683334Y-12440386D01*
X12683334Y-12440386D02*
X12716667Y-12373720D01*
X12716667Y-12373720D02*
X12716667Y-12307053D01*
X12716667Y-12307053D02*
X12683334Y-12240386D01*
X12683334Y-12240386D02*
X12650000Y-12207053D01*
X12650000Y-12207053D02*
X12583334Y-12173720D01*
X12583334Y-12173720D02*
X12450000Y-12140386D01*
X12450000Y-12140386D02*
X12383334Y-12107053D01*
X12383334Y-12107053D02*
X12350000Y-12073720D01*
X12350000Y-12073720D02*
X12316667Y-12007053D01*
X12316667Y-12007053D02*
X12316667Y-11940386D01*
X12316667Y-11940386D02*
X12350000Y-11873720D01*
X12350000Y-11873720D02*
X12383334Y-11840386D01*
X12383334Y-11840386D02*
X12450000Y-11807053D01*
X12450000Y-11807053D02*
X12616667Y-11807053D01*
X12616667Y-11807053D02*
X12716667Y-11840386D01*
X12950001Y-11807053D02*
X13116667Y-12507053D01*
X13116667Y-12507053D02*
X13250001Y-12007053D01*
X13250001Y-12007053D02*
X13383334Y-12507053D01*
X13383334Y-12507053D02*
X13550001Y-11807053D01*
X13816667Y-12507053D02*
X13816667Y-11807053D01*
X14283334Y-11807053D02*
X14416667Y-11807053D01*
X14416667Y-11807053D02*
X14483334Y-11840386D01*
X14483334Y-11840386D02*
X14550000Y-11907053D01*
X14550000Y-11907053D02*
X14583334Y-12040386D01*
X14583334Y-12040386D02*
X14583334Y-12273720D01*
X14583334Y-12273720D02*
X14550000Y-12407053D01*
X14550000Y-12407053D02*
X14483334Y-12473720D01*
X14483334Y-12473720D02*
X14416667Y-12507053D01*
X14416667Y-12507053D02*
X14283334Y-12507053D01*
X14283334Y-12507053D02*
X14216667Y-12473720D01*
X14216667Y-12473720D02*
X14150000Y-12407053D01*
X14150000Y-12407053D02*
X14116667Y-12273720D01*
X14116667Y-12273720D02*
X14116667Y-12040386D01*
X14116667Y-12040386D02*
X14150000Y-11907053D01*
X14150000Y-11907053D02*
X14216667Y-11840386D01*
X14216667Y-11840386D02*
X14283334Y-11807053D01*
X10376667Y-13040386D02*
X10310000Y-13007053D01*
X10310000Y-13007053D02*
X10210000Y-13007053D01*
X10210000Y-13007053D02*
X10110000Y-13040386D01*
X10110000Y-13040386D02*
X10043334Y-13107053D01*
X10043334Y-13107053D02*
X10010000Y-13173720D01*
X10010000Y-13173720D02*
X9976667Y-13307053D01*
X9976667Y-13307053D02*
X9976667Y-13407053D01*
X9976667Y-13407053D02*
X10010000Y-13540386D01*
X10010000Y-13540386D02*
X10043334Y-13607053D01*
X10043334Y-13607053D02*
X10110000Y-13673720D01*
X10110000Y-13673720D02*
X10210000Y-13707053D01*
X10210000Y-13707053D02*
X10276667Y-13707053D01*
X10276667Y-13707053D02*
X10376667Y-13673720D01*
X10376667Y-13673720D02*
X10410000Y-13640386D01*
X10410000Y-13640386D02*
X10410000Y-13407053D01*
X10410000Y-13407053D02*
X10276667Y-13407053D01*
X10710000Y-13707053D02*
X10710000Y-13007053D01*
X10710000Y-13007053D02*
X11110000Y-13707053D01*
X11110000Y-13707053D02*
X11110000Y-13007053D01*
X11443333Y-13707053D02*
X11443333Y-13007053D01*
X11443333Y-13007053D02*
X11610000Y-13007053D01*
X11610000Y-13007053D02*
X11710000Y-13040386D01*
X11710000Y-13040386D02*
X11776667Y-13107053D01*
X11776667Y-13107053D02*
X11810000Y-13173720D01*
X11810000Y-13173720D02*
X11843333Y-13307053D01*
X11843333Y-13307053D02*
X11843333Y-13407053D01*
X11843333Y-13407053D02*
X11810000Y-13540386D01*
X11810000Y-13540386D02*
X11776667Y-13607053D01*
X11776667Y-13607053D02*
X11710000Y-13673720D01*
X11710000Y-13673720D02*
X11610000Y-13707053D01*
X11610000Y-13707053D02*
X11443333Y-13707053D01*
X6969999Y-12240386D02*
X7503333Y-12240386D01*
X7236666Y-12507053D02*
X7236666Y-11973720D01*
X7770000Y-11807053D02*
X8203333Y-11807053D01*
X8203333Y-11807053D02*
X7970000Y-12073720D01*
X7970000Y-12073720D02*
X8070000Y-12073720D01*
X8070000Y-12073720D02*
X8136666Y-12107053D01*
X8136666Y-12107053D02*
X8170000Y-12140386D01*
X8170000Y-12140386D02*
X8203333Y-12207053D01*
X8203333Y-12207053D02*
X8203333Y-12373720D01*
X8203333Y-12373720D02*
X8170000Y-12440386D01*
X8170000Y-12440386D02*
X8136666Y-12473720D01*
X8136666Y-12473720D02*
X8070000Y-12507053D01*
X8070000Y-12507053D02*
X7870000Y-12507053D01*
X7870000Y-12507053D02*
X7803333Y-12473720D01*
X7803333Y-12473720D02*
X7770000Y-12440386D01*
X8503333Y-12440386D02*
X8536667Y-12473720D01*
X8536667Y-12473720D02*
X8503333Y-12507053D01*
X8503333Y-12507053D02*
X8470000Y-12473720D01*
X8470000Y-12473720D02*
X8503333Y-12440386D01*
X8503333Y-12440386D02*
X8503333Y-12507053D01*
X8770000Y-11807053D02*
X9203333Y-11807053D01*
X9203333Y-11807053D02*
X8970000Y-12073720D01*
X8970000Y-12073720D02*
X9070000Y-12073720D01*
X9070000Y-12073720D02*
X9136666Y-12107053D01*
X9136666Y-12107053D02*
X9170000Y-12140386D01*
X9170000Y-12140386D02*
X9203333Y-12207053D01*
X9203333Y-12207053D02*
X9203333Y-12373720D01*
X9203333Y-12373720D02*
X9170000Y-12440386D01*
X9170000Y-12440386D02*
X9136666Y-12473720D01*
X9136666Y-12473720D02*
X9070000Y-12507053D01*
X9070000Y-12507053D02*
X8870000Y-12507053D01*
X8870000Y-12507053D02*
X8803333Y-12473720D01*
X8803333Y-12473720D02*
X8770000Y-12440386D01*
X9403333Y-11807053D02*
X9636667Y-12507053D01*
X9636667Y-12507053D02*
X9870000Y-11807053D01*
D11*
X6060375Y-10251974D02*
X5631804Y-10251974D01*
X5846089Y-10251974D02*
X5846089Y-9501974D01*
X5846089Y-9501974D02*
X5774661Y-9609117D01*
X5774661Y-9609117D02*
X5703232Y-9680545D01*
X5703232Y-9680545D02*
X5631804Y-9716260D01*
D12*
X59276666Y-7414819D02*
X59276666Y-8129104D01*
X59276666Y-8129104D02*
X59229047Y-8271961D01*
X59229047Y-8271961D02*
X59133809Y-8367200D01*
X59133809Y-8367200D02*
X58990952Y-8414819D01*
X58990952Y-8414819D02*
X58895714Y-8414819D01*
X60276666Y-8414819D02*
X59705238Y-8414819D01*
X59990952Y-8414819D02*
X59990952Y-7414819D01*
X59990952Y-7414819D02*
X59895714Y-7557676D01*
X59895714Y-7557676D02*
X59800476Y-7652914D01*
X59800476Y-7652914D02*
X59705238Y-7700533D01*
X59156666Y-12169819D02*
X59156666Y-12884104D01*
X59156666Y-12884104D02*
X59109047Y-13026961D01*
X59109047Y-13026961D02*
X59013809Y-13122200D01*
X59013809Y-13122200D02*
X58870952Y-13169819D01*
X58870952Y-13169819D02*
X58775714Y-13169819D01*
X59585238Y-12265057D02*
X59632857Y-12217438D01*
X59632857Y-12217438D02*
X59728095Y-12169819D01*
X59728095Y-12169819D02*
X59966190Y-12169819D01*
X59966190Y-12169819D02*
X60061428Y-12217438D01*
X60061428Y-12217438D02*
X60109047Y-12265057D01*
X60109047Y-12265057D02*
X60156666Y-12360295D01*
X60156666Y-12360295D02*
X60156666Y-12455533D01*
X60156666Y-12455533D02*
X60109047Y-12598390D01*
X60109047Y-12598390D02*
X59537619Y-13169819D01*
X59537619Y-13169819D02*
X60156666Y-13169819D01*
M02*
