%TF.GenerationSoftware,KiCad,Pcbnew,9.0.7*%
%TF.CreationDate,2026-05-23T17:34:19+02:00*%
%TF.ProjectId,BarePi_PidiMetAdapter,42617265-5069-45f5-9069-64694d657441,rev?*%
%TF.SameCoordinates,Original*%
%TF.FileFunction,Copper,L1,Top*%
%TF.FilePolarity,Positive*%
%FSLAX46Y46*%
G04 Gerber Fmt 4.6, Leading zero omitted, Abs format (unit mm)*
G04 Created by KiCad (PCBNEW 9.0.7) date 2026-05-23 17:34:19*
%MOMM*%
%LPD*%
G01*
G04 APERTURE LIST*
G04 Aperture macros list*
%AMRoundRect*
0 Rectangle with rounded corners*
0 $1 Rounding radius*
0 $2 $3 $4 $5 $6 $7 $8 $9 X,Y pos of 4 corners*
0 Add a 4 corners polygon primitive as box body*
4,1,4,$2,$3,$4,$5,$6,$7,$8,$9,$2,$3,0*
0 Add four circle primitives for the rounded corners*
1,1,$1+$1,$2,$3*
1,1,$1+$1,$4,$5*
1,1,$1+$1,$6,$7*
1,1,$1+$1,$8,$9*
0 Add four rect primitives between the rounded corners*
20,1,$1+$1,$2,$3,$4,$5,0*
20,1,$1+$1,$4,$5,$6,$7,0*
20,1,$1+$1,$6,$7,$8,$9,0*
20,1,$1+$1,$8,$9,$2,$3,0*%
%AMOutline4P*
0 Free polygon, 4 corners , with rotation*
0 The origin of the aperture is its center*
0 number of corners: always 4*
0 $1 to $8 corner X, Y*
0 $9 Rotation angle, in degrees counterclockwise*
0 create outline with 4 corners*
4,1,4,$1,$2,$3,$4,$5,$6,$7,$8,$1,$2,$9*%
G04 Aperture macros list end*
%ADD10C,0.375000*%
%TA.AperFunction,ComponentPad*%
%ADD11Outline4P,-1.600000X-0.800000X1.600000X-0.800000X1.600000X0.800000X-1.600000X0.800000X270.000000*%
%TD*%
%TA.AperFunction,ComponentPad*%
%ADD12O,1.600000X3.200000*%
%TD*%
%TA.AperFunction,ComponentPad*%
%ADD13RoundRect,0.190000X-1.510000X0.760000X-1.510000X-0.760000X1.510000X-0.760000X1.510000X0.760000X0*%
%TD*%
G04 APERTURE END LIST*
D10*
G36*
X2295000Y-11739163D02*
G01*
X1040568Y-11739163D01*
X1040568Y-12184937D01*
X788510Y-12184937D01*
X788510Y-10991139D01*
X1040568Y-10991139D01*
X1040568Y-11435905D01*
X2295000Y-11435905D01*
X2295000Y-11739163D01*
G37*
G36*
X1694752Y-9446504D02*
G01*
X1823355Y-9471883D01*
X1935302Y-9512155D01*
X2032954Y-9566590D01*
X2118137Y-9635316D01*
X2191222Y-9718203D01*
X2248126Y-9810889D01*
X2289562Y-9914755D01*
X2315328Y-10031705D01*
X2324309Y-10164071D01*
X2315320Y-10298311D01*
X2289578Y-10416528D01*
X2248267Y-10521131D01*
X2191667Y-10614093D01*
X2119145Y-10696857D01*
X2034265Y-10765745D01*
X1937311Y-10820202D01*
X1826529Y-10860413D01*
X1699639Y-10885710D01*
X1553936Y-10894602D01*
X1401294Y-10886132D01*
X1273686Y-10862528D01*
X1167239Y-10825908D01*
X1058072Y-10765450D01*
X960518Y-10686140D01*
X903755Y-10623950D01*
X858799Y-10559324D01*
X824688Y-10491876D01*
X792349Y-10396570D01*
X772125Y-10289274D01*
X765062Y-10168101D01*
X765267Y-10165079D01*
X1022983Y-10165079D01*
X1031529Y-10256544D01*
X1056083Y-10335954D01*
X1096135Y-10405675D01*
X1152676Y-10467329D01*
X1219847Y-10514371D01*
X1304645Y-10550182D01*
X1410987Y-10573569D01*
X1543678Y-10582093D01*
X1673665Y-10573482D01*
X1779232Y-10549696D01*
X1864726Y-10512971D01*
X1933673Y-10464307D01*
X1992089Y-10400925D01*
X2033023Y-10330980D01*
X2057835Y-10253064D01*
X2066388Y-10165079D01*
X2057866Y-10077025D01*
X2033189Y-9999372D01*
X1992560Y-9929979D01*
X1934680Y-9867408D01*
X1866417Y-9819662D01*
X1780543Y-9783369D01*
X1673175Y-9759702D01*
X1539556Y-9751087D01*
X1407249Y-9759524D01*
X1301503Y-9782640D01*
X1217451Y-9817971D01*
X1151119Y-9864294D01*
X1095380Y-9925106D01*
X1055799Y-9994271D01*
X1031470Y-10073454D01*
X1022983Y-10165079D01*
X765267Y-10165079D01*
X774057Y-10035398D01*
X799873Y-9918016D01*
X841412Y-9813642D01*
X898476Y-9720385D01*
X971783Y-9636873D01*
X1057178Y-9567647D01*
X1155240Y-9512794D01*
X1267834Y-9472191D01*
X1397370Y-9446588D01*
X1546700Y-9437571D01*
X1694752Y-9446504D01*
G37*
G36*
X1343144Y-8055982D02*
G01*
X1420084Y-8073124D01*
X1484968Y-8100067D01*
X1544708Y-8137456D01*
X1593806Y-8179935D01*
X1633437Y-8227653D01*
X1678875Y-8307078D01*
X1704787Y-8385006D01*
X1720119Y-8505802D01*
X1726402Y-8699622D01*
X1726402Y-8897367D01*
X2295000Y-8897367D01*
X2295000Y-9200625D01*
X788510Y-9200625D01*
X788510Y-8750821D01*
X1040568Y-8750821D01*
X1040568Y-8897367D01*
X1474344Y-8897367D01*
X1474344Y-8731404D01*
X1466703Y-8566871D01*
X1450347Y-8491618D01*
X1419333Y-8437364D01*
X1375334Y-8396822D01*
X1320771Y-8371269D01*
X1256448Y-8362475D01*
X1202655Y-8368141D01*
X1157374Y-8384295D01*
X1118787Y-8410652D01*
X1087198Y-8445552D01*
X1064738Y-8485830D01*
X1051010Y-8532560D01*
X1043908Y-8600445D01*
X1040568Y-8750821D01*
X788510Y-8750821D01*
X788510Y-8713910D01*
X795872Y-8460935D01*
X811133Y-8353224D01*
X842271Y-8272388D01*
X890826Y-8200775D01*
X958594Y-8136978D01*
X1038465Y-8089949D01*
X1134830Y-8060403D01*
X1251777Y-8049875D01*
X1343144Y-8055982D01*
G37*
D11*
%TO.P,J1,1,Pin_1*%
%TO.N,/3V3*%
X8370000Y-10000000D03*
D12*
%TO.P,J1,2,Pin_2*%
%TO.N,/GND*%
X10910000Y-10000000D03*
%TO.P,J1,3,Pin_3*%
%TO.N,/SWIO{slash}RC5*%
X13450000Y-10000000D03*
%TO.P,J1,4,Pin_4*%
%TO.N,/SWCLK{slash}RC4*%
X15990000Y-10000000D03*
%TO.P,J1,5,Pin_5*%
%TO.N,/IN2{slash}RX{slash}SDA*%
X18530000Y-10000000D03*
%TO.P,J1,6,Pin_6*%
%TO.N,/IN1{slash}TX{slash}SCL*%
X21070000Y-10000000D03*
%TO.P,J1,7,Pin_7*%
%TO.N,/GEN*%
X23610000Y-10000000D03*
%TO.P,J1,8,Pin_8*%
%TO.N,/PWM*%
X26150000Y-10000000D03*
%TO.P,J1,9,Pin_9*%
%TO.N,/GND*%
X28690000Y-10000000D03*
%TO.P,J1,10,Pin_10*%
%TO.N,/IN1*%
X31230000Y-10000000D03*
%TO.P,J1,11,Pin_11*%
%TO.N,/IN2*%
X33770000Y-10000000D03*
%TO.P,J1,12,Pin_12*%
%TO.N,/OSC1*%
X36310000Y-10000000D03*
%TO.P,J1,13,Pin_13*%
%TO.N,/U2*%
X38850000Y-10000000D03*
%TO.P,J1,14,Pin_14*%
%TO.N,/OSC2*%
X41390000Y-10000000D03*
%TO.P,J1,15,Pin_15*%
%TO.N,/U1*%
X43930000Y-10000000D03*
%TO.P,J1,16,Pin_16*%
%TO.N,/I*%
X46470000Y-10000000D03*
%TO.P,J1,17,Pin_17*%
%TO.N,/GND*%
X49010000Y-10000000D03*
%TO.P,J1,18,Pin_18*%
%TO.N,/L*%
X51550000Y-10000000D03*
%TO.P,J1,19,Pin_19*%
%TO.N,/GND*%
X54090000Y-10000000D03*
%TO.P,J1,20,Pin_20*%
%TO.N,/RC*%
X56630000Y-10000000D03*
%TD*%
D13*
%TO.P,J2,1,Pin_1*%
%TO.N,/3V3*%
X8370000Y-15000000D03*
%TO.P,J2,2,Pin_2*%
%TO.N,/GND*%
X10910000Y-17540000D03*
%TO.P,J2,3,Pin_3*%
%TO.N,/SWIO{slash}RC5*%
X13450000Y-15000000D03*
%TO.P,J2,4,Pin_4*%
%TO.N,/SWCLK{slash}RC4*%
X15990000Y-17540000D03*
%TO.P,J2,5,Pin_5*%
%TO.N,/IN2{slash}RX{slash}SDA*%
X18530000Y-15000000D03*
%TO.P,J2,6,Pin_6*%
%TO.N,/IN1{slash}TX{slash}SCL*%
X21070000Y-17540000D03*
%TO.P,J2,7,Pin_7*%
%TO.N,/GEN*%
X23610000Y-15000000D03*
%TO.P,J2,8,Pin_8*%
%TO.N,/PWM*%
X26150000Y-17540000D03*
%TO.P,J2,9,Pin_9*%
%TO.N,/GND*%
X28690000Y-15000000D03*
%TO.P,J2,10,Pin_10*%
%TO.N,/IN1*%
X31230000Y-17540000D03*
%TO.P,J2,11,Pin_11*%
%TO.N,/IN2*%
X33770000Y-15000000D03*
%TO.P,J2,12,Pin_12*%
%TO.N,/OSC1*%
X36310000Y-17540000D03*
%TO.P,J2,13,Pin_13*%
%TO.N,/U2*%
X38850000Y-15000000D03*
%TO.P,J2,14,Pin_14*%
%TO.N,/OSC2*%
X41390000Y-17540000D03*
%TO.P,J2,15,Pin_15*%
%TO.N,/U1*%
X43930000Y-15000000D03*
%TO.P,J2,16,Pin_16*%
%TO.N,/I*%
X46470000Y-17540000D03*
%TO.P,J2,17,Pin_17*%
%TO.N,/GND*%
X49010000Y-15000000D03*
%TO.P,J2,18,Pin_18*%
%TO.N,/L*%
X51550000Y-17540000D03*
%TO.P,J2,19,Pin_19*%
%TO.N,/GND*%
X54090000Y-15000000D03*
%TO.P,J2,20,Pin_20*%
%TO.N,/RC*%
X56630000Y-17540000D03*
%TD*%
%TA.AperFunction,Conductor*%
%TO.N,/GND*%
G36*
X64542539Y-420185D02*
G01*
X64588294Y-472989D01*
X64599500Y-524500D01*
X64599500Y-18475500D01*
X64579815Y-18542539D01*
X64527011Y-18588294D01*
X64475500Y-18599500D01*
X58730394Y-18599500D01*
X58663355Y-18579815D01*
X58617600Y-18527011D01*
X58607656Y-18457853D01*
X58614212Y-18432168D01*
X58624217Y-18405340D01*
X58624216Y-18405340D01*
X58624219Y-18405335D01*
X58630500Y-18346915D01*
X58630499Y-16733086D01*
X58624219Y-16674665D01*
X58616774Y-16654705D01*
X58574930Y-16542514D01*
X58574929Y-16542512D01*
X58574929Y-16542511D01*
X58490403Y-16429597D01*
X58377489Y-16345071D01*
X58377487Y-16345070D01*
X58377485Y-16345069D01*
X58245338Y-16295782D01*
X58245337Y-16295781D01*
X58245335Y-16295781D01*
X58186915Y-16289500D01*
X58186906Y-16289500D01*
X56306045Y-16289500D01*
X56239006Y-16269815D01*
X56193251Y-16217011D01*
X56183307Y-16147853D01*
X56199927Y-16101351D01*
X56233833Y-16045260D01*
X56283681Y-15885294D01*
X56283683Y-15885287D01*
X56290000Y-15815769D01*
X56290000Y-15385921D01*
X59759500Y-15385921D01*
X59759500Y-15614078D01*
X59789278Y-15840272D01*
X59789279Y-15840277D01*
X59789280Y-15840283D01*
X59801339Y-15885287D01*
X59848331Y-16060666D01*
X59935638Y-16271446D01*
X59935646Y-16271462D01*
X60049717Y-16469037D01*
X60049728Y-16469053D01*
X60188613Y-16650052D01*
X60188619Y-16650059D01*
X60349940Y-16811380D01*
X60349946Y-16811385D01*
X60530955Y-16950278D01*
X60530962Y-16950282D01*
X60728537Y-17064353D01*
X60728553Y-17064361D01*
X60842268Y-17111463D01*
X60939334Y-17151669D01*
X61159717Y-17210720D01*
X61319474Y-17231752D01*
X61385921Y-17240500D01*
X61385922Y-17240500D01*
X61614079Y-17240500D01*
X61665438Y-17233738D01*
X61840283Y-17210720D01*
X62060666Y-17151669D01*
X62226365Y-17083033D01*
X62271446Y-17064361D01*
X62271449Y-17064359D01*
X62271455Y-17064357D01*
X62469045Y-16950278D01*
X62650054Y-16811385D01*
X62811385Y-16650054D01*
X62950278Y-16469045D01*
X63064357Y-16271455D01*
X63064884Y-16270184D01*
X63083630Y-16224927D01*
X63151669Y-16060666D01*
X63210720Y-15840283D01*
X63240500Y-15614078D01*
X63240500Y-15385922D01*
X63210720Y-15159717D01*
X63151669Y-14939334D01*
X63111463Y-14842268D01*
X63064361Y-14728553D01*
X63064353Y-14728537D01*
X62950282Y-14530962D01*
X62950278Y-14530955D01*
X62811385Y-14349946D01*
X62811380Y-14349940D01*
X62650059Y-14188619D01*
X62650052Y-14188613D01*
X62469053Y-14049728D01*
X62469051Y-14049726D01*
X62469045Y-14049722D01*
X62469040Y-14049719D01*
X62469037Y-14049717D01*
X62271462Y-13935646D01*
X62271446Y-13935638D01*
X62060666Y-13848331D01*
X61840283Y-13789280D01*
X61840277Y-13789279D01*
X61840272Y-13789278D01*
X61614079Y-13759500D01*
X61614078Y-13759500D01*
X61385922Y-13759500D01*
X61385921Y-13759500D01*
X61159727Y-13789278D01*
X61159720Y-13789279D01*
X61159717Y-13789280D01*
X61077395Y-13811338D01*
X60939333Y-13848331D01*
X60728553Y-13935638D01*
X60728537Y-13935646D01*
X60530962Y-14049717D01*
X60530946Y-14049728D01*
X60349947Y-14188613D01*
X60349940Y-14188619D01*
X60188619Y-14349940D01*
X60188613Y-14349947D01*
X60049728Y-14530946D01*
X60049717Y-14530962D01*
X59935646Y-14728537D01*
X59935638Y-14728553D01*
X59848331Y-14939333D01*
X59789281Y-15159714D01*
X59789278Y-15159727D01*
X59759500Y-15385921D01*
X56290000Y-15385921D01*
X56290000Y-14184230D01*
X56283683Y-14114712D01*
X56283681Y-14114705D01*
X56233833Y-13954738D01*
X56233831Y-13954732D01*
X56147149Y-13811342D01*
X56147146Y-13811338D01*
X56028661Y-13692853D01*
X56028657Y-13692850D01*
X55885267Y-13606168D01*
X55885260Y-13606166D01*
X55842995Y-13592995D01*
X55839227Y-13599229D01*
X55820792Y-13622759D01*
X54654612Y-14788939D01*
X54649111Y-14768409D01*
X54570119Y-14631592D01*
X54458408Y-14519881D01*
X54321591Y-14440889D01*
X54301060Y-14435387D01*
X55186448Y-13550000D01*
X52993551Y-13550000D01*
X53878939Y-14435387D01*
X53858409Y-14440889D01*
X53721592Y-14519881D01*
X53609881Y-14631592D01*
X53530889Y-14768409D01*
X53525387Y-14788939D01*
X52359207Y-13622759D01*
X52340776Y-13599236D01*
X52337003Y-13592996D01*
X52294732Y-13606169D01*
X52151342Y-13692850D01*
X52151338Y-13692853D01*
X52032853Y-13811338D01*
X52032850Y-13811342D01*
X51946168Y-13954732D01*
X51946166Y-13954738D01*
X51896318Y-14114705D01*
X51896316Y-14114712D01*
X51890000Y-14184230D01*
X51890000Y-15815769D01*
X51896316Y-15885287D01*
X51896318Y-15885294D01*
X51946166Y-16045260D01*
X51980073Y-16101351D01*
X51997908Y-16168906D01*
X51976390Y-16235380D01*
X51922349Y-16279667D01*
X51873955Y-16289500D01*
X51226045Y-16289500D01*
X51159006Y-16269815D01*
X51113251Y-16217011D01*
X51103307Y-16147853D01*
X51119927Y-16101351D01*
X51153833Y-16045260D01*
X51203681Y-15885294D01*
X51203683Y-15885287D01*
X51210000Y-15815769D01*
X51210000Y-14184230D01*
X51203683Y-14114712D01*
X51203681Y-14114705D01*
X51153833Y-13954738D01*
X51153831Y-13954732D01*
X51067149Y-13811342D01*
X51067146Y-13811338D01*
X50948661Y-13692853D01*
X50948657Y-13692850D01*
X50805267Y-13606168D01*
X50805260Y-13606166D01*
X50762995Y-13592995D01*
X50759227Y-13599229D01*
X50740792Y-13622759D01*
X49574612Y-14788939D01*
X49569111Y-14768409D01*
X49490119Y-14631592D01*
X49378408Y-14519881D01*
X49241591Y-14440889D01*
X49221060Y-14435387D01*
X50106448Y-13550000D01*
X47913551Y-13550000D01*
X48798939Y-14435387D01*
X48778409Y-14440889D01*
X48641592Y-14519881D01*
X48529881Y-14631592D01*
X48450889Y-14768409D01*
X48445387Y-14788939D01*
X47279207Y-13622759D01*
X47260776Y-13599236D01*
X47257003Y-13592996D01*
X47214732Y-13606169D01*
X47071342Y-13692850D01*
X47071338Y-13692853D01*
X46952853Y-13811338D01*
X46952850Y-13811342D01*
X46866168Y-13954732D01*
X46866166Y-13954738D01*
X46816318Y-14114705D01*
X46816316Y-14114712D01*
X46810000Y-14184230D01*
X46810000Y-15815769D01*
X46816316Y-15885287D01*
X46816318Y-15885294D01*
X46866166Y-16045260D01*
X46900073Y-16101351D01*
X46917908Y-16168906D01*
X46896390Y-16235380D01*
X46842349Y-16279667D01*
X46793955Y-16289500D01*
X45904052Y-16289500D01*
X45837013Y-16269815D01*
X45791258Y-16217011D01*
X45781314Y-16147853D01*
X45804783Y-16091193D01*
X45874929Y-15997489D01*
X45924219Y-15865335D01*
X45930500Y-15806915D01*
X45930499Y-14193086D01*
X45924219Y-14134665D01*
X45916774Y-14114705D01*
X45874930Y-14002514D01*
X45874929Y-14002511D01*
X45790403Y-13889597D01*
X45677489Y-13805071D01*
X45677487Y-13805070D01*
X45677485Y-13805069D01*
X45545338Y-13755782D01*
X45545337Y-13755781D01*
X45545335Y-13755781D01*
X45486915Y-13749500D01*
X45486905Y-13749500D01*
X42373087Y-13749500D01*
X42373081Y-13749501D01*
X42314664Y-13755780D01*
X42182514Y-13805069D01*
X42182507Y-13805073D01*
X42069597Y-13889597D01*
X41985073Y-14002507D01*
X41985069Y-14002514D01*
X41935782Y-14134661D01*
X41935781Y-14134665D01*
X41929500Y-14193085D01*
X41929500Y-14193092D01*
X41929500Y-14193093D01*
X41929500Y-15806912D01*
X41929501Y-15806918D01*
X41935780Y-15865335D01*
X41985069Y-15997485D01*
X41985073Y-15997492D01*
X42055214Y-16091190D01*
X42079631Y-16156654D01*
X42064779Y-16224927D01*
X42015373Y-16274332D01*
X41955947Y-16289500D01*
X40824052Y-16289500D01*
X40757013Y-16269815D01*
X40711258Y-16217011D01*
X40701314Y-16147853D01*
X40724783Y-16091193D01*
X40794929Y-15997489D01*
X40844219Y-15865335D01*
X40850500Y-15806915D01*
X40850499Y-14193086D01*
X40844219Y-14134665D01*
X40836774Y-14114705D01*
X40794930Y-14002514D01*
X40794929Y-14002511D01*
X40710403Y-13889597D01*
X40597489Y-13805071D01*
X40597487Y-13805070D01*
X40597485Y-13805069D01*
X40465338Y-13755782D01*
X40465337Y-13755781D01*
X40465335Y-13755781D01*
X40406915Y-13749500D01*
X40406905Y-13749500D01*
X37293087Y-13749500D01*
X37293081Y-13749501D01*
X37234664Y-13755780D01*
X37102514Y-13805069D01*
X37102507Y-13805073D01*
X36989597Y-13889597D01*
X36905073Y-14002507D01*
X36905069Y-14002514D01*
X36855782Y-14134661D01*
X36855781Y-14134665D01*
X36849500Y-14193085D01*
X36849500Y-14193092D01*
X36849500Y-14193093D01*
X36849500Y-15806912D01*
X36849501Y-15806918D01*
X36855780Y-15865335D01*
X36905069Y-15997485D01*
X36905073Y-15997492D01*
X36975214Y-16091190D01*
X36999631Y-16156654D01*
X36984779Y-16224927D01*
X36935373Y-16274332D01*
X36875947Y-16289500D01*
X35744052Y-16289500D01*
X35677013Y-16269815D01*
X35631258Y-16217011D01*
X35621314Y-16147853D01*
X35644783Y-16091193D01*
X35714929Y-15997489D01*
X35764219Y-15865335D01*
X35770500Y-15806915D01*
X35770499Y-14193086D01*
X35764219Y-14134665D01*
X35756774Y-14114705D01*
X35714930Y-14002514D01*
X35714929Y-14002511D01*
X35630403Y-13889597D01*
X35517489Y-13805071D01*
X35517487Y-13805070D01*
X35517485Y-13805069D01*
X35385338Y-13755782D01*
X35385337Y-13755781D01*
X35385335Y-13755781D01*
X35326915Y-13749500D01*
X35326905Y-13749500D01*
X32213087Y-13749500D01*
X32213081Y-13749501D01*
X32154664Y-13755780D01*
X32022514Y-13805069D01*
X32022507Y-13805073D01*
X31909597Y-13889597D01*
X31825073Y-14002507D01*
X31825069Y-14002514D01*
X31775782Y-14134661D01*
X31775781Y-14134665D01*
X31769500Y-14193085D01*
X31769500Y-14193092D01*
X31769500Y-14193093D01*
X31769500Y-15806912D01*
X31769501Y-15806918D01*
X31775780Y-15865335D01*
X31825069Y-15997485D01*
X31825073Y-15997492D01*
X31895214Y-16091190D01*
X31919631Y-16156654D01*
X31904779Y-16224927D01*
X31855373Y-16274332D01*
X31795947Y-16289500D01*
X30906045Y-16289500D01*
X30839006Y-16269815D01*
X30793251Y-16217011D01*
X30783307Y-16147853D01*
X30799927Y-16101351D01*
X30833833Y-16045260D01*
X30883681Y-15885294D01*
X30883683Y-15885287D01*
X30890000Y-15815769D01*
X30890000Y-14184230D01*
X30883683Y-14114712D01*
X30883681Y-14114705D01*
X30833833Y-13954738D01*
X30833831Y-13954732D01*
X30747149Y-13811342D01*
X30747146Y-13811338D01*
X30628661Y-13692853D01*
X30628657Y-13692850D01*
X30485267Y-13606168D01*
X30485260Y-13606166D01*
X30442995Y-13592995D01*
X30439227Y-13599229D01*
X30420792Y-13622759D01*
X29254612Y-14788939D01*
X29249111Y-14768409D01*
X29170119Y-14631592D01*
X29058408Y-14519881D01*
X28921591Y-14440889D01*
X28901060Y-14435387D01*
X29786448Y-13550000D01*
X27593551Y-13550000D01*
X28478939Y-14435387D01*
X28458409Y-14440889D01*
X28321592Y-14519881D01*
X28209881Y-14631592D01*
X28130889Y-14768409D01*
X28125387Y-14788939D01*
X26959207Y-13622759D01*
X26940776Y-13599236D01*
X26937003Y-13592996D01*
X26894732Y-13606169D01*
X26751342Y-13692850D01*
X26751338Y-13692853D01*
X26632853Y-13811338D01*
X26632850Y-13811342D01*
X26546168Y-13954732D01*
X26546166Y-13954738D01*
X26496318Y-14114705D01*
X26496316Y-14114712D01*
X26490000Y-14184230D01*
X26490000Y-15815769D01*
X26496316Y-15885287D01*
X26496318Y-15885294D01*
X26546166Y-16045260D01*
X26580073Y-16101351D01*
X26597908Y-16168906D01*
X26576390Y-16235380D01*
X26522349Y-16279667D01*
X26473955Y-16289500D01*
X25584052Y-16289500D01*
X25517013Y-16269815D01*
X25471258Y-16217011D01*
X25461314Y-16147853D01*
X25484783Y-16091193D01*
X25554929Y-15997489D01*
X25604219Y-15865335D01*
X25610500Y-15806915D01*
X25610499Y-14193086D01*
X25604219Y-14134665D01*
X25596774Y-14114705D01*
X25554930Y-14002514D01*
X25554929Y-14002511D01*
X25470403Y-13889597D01*
X25357489Y-13805071D01*
X25357487Y-13805070D01*
X25357485Y-13805069D01*
X25225338Y-13755782D01*
X25225337Y-13755781D01*
X25225335Y-13755781D01*
X25166915Y-13749500D01*
X25166905Y-13749500D01*
X22053087Y-13749500D01*
X22053081Y-13749501D01*
X21994664Y-13755780D01*
X21862514Y-13805069D01*
X21862507Y-13805073D01*
X21749597Y-13889597D01*
X21665073Y-14002507D01*
X21665069Y-14002514D01*
X21615782Y-14134661D01*
X21615781Y-14134665D01*
X21609500Y-14193085D01*
X21609500Y-14193092D01*
X21609500Y-14193093D01*
X21609500Y-15806912D01*
X21609501Y-15806918D01*
X21615780Y-15865335D01*
X21665069Y-15997485D01*
X21665073Y-15997492D01*
X21735214Y-16091190D01*
X21759631Y-16156654D01*
X21744779Y-16224927D01*
X21695373Y-16274332D01*
X21635947Y-16289500D01*
X20504052Y-16289500D01*
X20437013Y-16269815D01*
X20391258Y-16217011D01*
X20381314Y-16147853D01*
X20404783Y-16091193D01*
X20474929Y-15997489D01*
X20524219Y-15865335D01*
X20530500Y-15806915D01*
X20530499Y-14193086D01*
X20524219Y-14134665D01*
X20516774Y-14114705D01*
X20474930Y-14002514D01*
X20474929Y-14002511D01*
X20390403Y-13889597D01*
X20277489Y-13805071D01*
X20277487Y-13805070D01*
X20277485Y-13805069D01*
X20145338Y-13755782D01*
X20145337Y-13755781D01*
X20145335Y-13755781D01*
X20086915Y-13749500D01*
X20086905Y-13749500D01*
X16973087Y-13749500D01*
X16973081Y-13749501D01*
X16914664Y-13755780D01*
X16782514Y-13805069D01*
X16782507Y-13805073D01*
X16669597Y-13889597D01*
X16585073Y-14002507D01*
X16585069Y-14002514D01*
X16535782Y-14134661D01*
X16535781Y-14134665D01*
X16529500Y-14193085D01*
X16529500Y-14193092D01*
X16529500Y-14193093D01*
X16529500Y-15806912D01*
X16529501Y-15806918D01*
X16535780Y-15865335D01*
X16585069Y-15997485D01*
X16585073Y-15997492D01*
X16655214Y-16091190D01*
X16679631Y-16156654D01*
X16664779Y-16224927D01*
X16615373Y-16274332D01*
X16555947Y-16289500D01*
X15424052Y-16289500D01*
X15357013Y-16269815D01*
X15311258Y-16217011D01*
X15301314Y-16147853D01*
X15324783Y-16091193D01*
X15394929Y-15997489D01*
X15444219Y-15865335D01*
X15450500Y-15806915D01*
X15450499Y-14193086D01*
X15444219Y-14134665D01*
X15436774Y-14114705D01*
X15394930Y-14002514D01*
X15394929Y-14002511D01*
X15310403Y-13889597D01*
X15197489Y-13805071D01*
X15197487Y-13805070D01*
X15197485Y-13805069D01*
X15065338Y-13755782D01*
X15065337Y-13755781D01*
X15065335Y-13755781D01*
X15006915Y-13749500D01*
X15006905Y-13749500D01*
X11893087Y-13749500D01*
X11893081Y-13749501D01*
X11834664Y-13755780D01*
X11702514Y-13805069D01*
X11702507Y-13805073D01*
X11589597Y-13889597D01*
X11505073Y-14002507D01*
X11505069Y-14002514D01*
X11455782Y-14134661D01*
X11455781Y-14134665D01*
X11449500Y-14193085D01*
X11449500Y-14193092D01*
X11449500Y-14193093D01*
X11449500Y-15806912D01*
X11449501Y-15806918D01*
X11455780Y-15865335D01*
X11477164Y-15922667D01*
X11482148Y-15992359D01*
X11448663Y-16053682D01*
X11387339Y-16087166D01*
X11360982Y-16090000D01*
X10459018Y-16090000D01*
X10391979Y-16070315D01*
X10346224Y-16017511D01*
X10336280Y-15948353D01*
X10342836Y-15922667D01*
X10348824Y-15906610D01*
X10364219Y-15865335D01*
X10370500Y-15806915D01*
X10370499Y-14193086D01*
X10364219Y-14134665D01*
X10356774Y-14114705D01*
X10314930Y-14002514D01*
X10314929Y-14002511D01*
X10230403Y-13889597D01*
X10117489Y-13805071D01*
X10117487Y-13805070D01*
X10117485Y-13805069D01*
X9985338Y-13755782D01*
X9985337Y-13755781D01*
X9985335Y-13755781D01*
X9926915Y-13749500D01*
X9926905Y-13749500D01*
X6813087Y-13749500D01*
X6813081Y-13749501D01*
X6754664Y-13755780D01*
X6622514Y-13805069D01*
X6622507Y-13805073D01*
X6509597Y-13889597D01*
X6425073Y-14002507D01*
X6425069Y-14002514D01*
X6375782Y-14134661D01*
X6375781Y-14134665D01*
X6369500Y-14193085D01*
X6369500Y-14193092D01*
X6369500Y-14193093D01*
X6369500Y-15806912D01*
X6369501Y-15806918D01*
X6375780Y-15865335D01*
X6425069Y-15997485D01*
X6425070Y-15997487D01*
X6425071Y-15997489D01*
X6509597Y-16110403D01*
X6622511Y-16194929D01*
X6754665Y-16244219D01*
X6813085Y-16250500D01*
X8693957Y-16250499D01*
X8760995Y-16270184D01*
X8806750Y-16322987D01*
X8816694Y-16392146D01*
X8800073Y-16438648D01*
X8766169Y-16494732D01*
X8766166Y-16494738D01*
X8716318Y-16654705D01*
X8716316Y-16654712D01*
X8710000Y-16724230D01*
X8710000Y-18355769D01*
X8716316Y-18425287D01*
X8716318Y-18425292D01*
X8720468Y-18438611D01*
X8721618Y-18508472D01*
X8684816Y-18567864D01*
X8621747Y-18597931D01*
X8602082Y-18599500D01*
X524500Y-18599500D01*
X457461Y-18579815D01*
X411706Y-18527011D01*
X400500Y-18475500D01*
X400500Y-15385921D01*
X1759500Y-15385921D01*
X1759500Y-15614078D01*
X1789278Y-15840272D01*
X1789279Y-15840277D01*
X1789280Y-15840283D01*
X1801339Y-15885287D01*
X1848331Y-16060666D01*
X1935638Y-16271446D01*
X1935646Y-16271462D01*
X2049717Y-16469037D01*
X2049728Y-16469053D01*
X2188613Y-16650052D01*
X2188619Y-16650059D01*
X2349940Y-16811380D01*
X2349946Y-16811385D01*
X2530955Y-16950278D01*
X2530962Y-16950282D01*
X2728537Y-17064353D01*
X2728553Y-17064361D01*
X2842268Y-17111463D01*
X2939334Y-17151669D01*
X3159717Y-17210720D01*
X3319474Y-17231752D01*
X3385921Y-17240500D01*
X3385922Y-17240500D01*
X3614079Y-17240500D01*
X3665438Y-17233738D01*
X3840283Y-17210720D01*
X4060666Y-17151669D01*
X4226365Y-17083033D01*
X4271446Y-17064361D01*
X4271449Y-17064359D01*
X4271455Y-17064357D01*
X4469045Y-16950278D01*
X4650054Y-16811385D01*
X4811385Y-16650054D01*
X4950278Y-16469045D01*
X5064357Y-16271455D01*
X5064884Y-16270184D01*
X5083630Y-16224927D01*
X5151669Y-16060666D01*
X5210720Y-15840283D01*
X5240500Y-15614078D01*
X5240500Y-15385922D01*
X5210720Y-15159717D01*
X5151669Y-14939334D01*
X5111463Y-14842268D01*
X5064361Y-14728553D01*
X5064353Y-14728537D01*
X4950282Y-14530962D01*
X4950278Y-14530955D01*
X4811385Y-14349946D01*
X4811380Y-14349940D01*
X4650059Y-14188619D01*
X4650052Y-14188613D01*
X4469053Y-14049728D01*
X4469051Y-14049726D01*
X4469045Y-14049722D01*
X4469040Y-14049719D01*
X4469037Y-14049717D01*
X4271462Y-13935646D01*
X4271446Y-13935638D01*
X4060666Y-13848331D01*
X3840283Y-13789280D01*
X3840277Y-13789279D01*
X3840272Y-13789278D01*
X3614079Y-13759500D01*
X3614078Y-13759500D01*
X3385922Y-13759500D01*
X3385921Y-13759500D01*
X3159727Y-13789278D01*
X3159720Y-13789279D01*
X3159717Y-13789280D01*
X3077395Y-13811338D01*
X2939333Y-13848331D01*
X2728553Y-13935638D01*
X2728537Y-13935646D01*
X2530962Y-14049717D01*
X2530946Y-14049728D01*
X2349947Y-14188613D01*
X2349940Y-14188619D01*
X2188619Y-14349940D01*
X2188613Y-14349947D01*
X2049728Y-14530946D01*
X2049717Y-14530962D01*
X1935646Y-14728537D01*
X1935638Y-14728553D01*
X1848331Y-14939333D01*
X1789281Y-15159714D01*
X1789278Y-15159727D01*
X1759500Y-15385921D01*
X400500Y-15385921D01*
X400500Y-12814437D01*
X420185Y-12747398D01*
X472989Y-12701643D01*
X524500Y-12690437D01*
X2829798Y-12690437D01*
X2829798Y-8355131D01*
X7269500Y-8355131D01*
X7269500Y-11644856D01*
X7269502Y-11644882D01*
X7272413Y-11669987D01*
X7272415Y-11669991D01*
X7317793Y-11772764D01*
X7317794Y-11772765D01*
X7397235Y-11852206D01*
X7500009Y-11897585D01*
X7525135Y-11900500D01*
X9214864Y-11900499D01*
X9214879Y-11900497D01*
X9214882Y-11900497D01*
X9239987Y-11897586D01*
X9239988Y-11897585D01*
X9239991Y-11897585D01*
X9342765Y-11852206D01*
X9422206Y-11772765D01*
X9467585Y-11669991D01*
X9470500Y-11644865D01*
X9470499Y-11063794D01*
X9490183Y-10996758D01*
X9542987Y-10951003D01*
X9612146Y-10941059D01*
X9614777Y-10941670D01*
X10427037Y-10129410D01*
X10444075Y-10192993D01*
X10509901Y-10307007D01*
X10602993Y-10400099D01*
X10717007Y-10465925D01*
X10780589Y-10482962D01*
X9792760Y-11470790D01*
X9792760Y-11470792D01*
X9798139Y-11481347D01*
X9918417Y-11646894D01*
X9918417Y-11646895D01*
X10063104Y-11791582D01*
X10228650Y-11911859D01*
X10410968Y-12004755D01*
X10605582Y-12067990D01*
X10807683Y-12100000D01*
X11012317Y-12100000D01*
X11214417Y-12067990D01*
X11409031Y-12004755D01*
X11591349Y-11911859D01*
X11756894Y-11791582D01*
X11756895Y-11791582D01*
X11901582Y-11646895D01*
X11901582Y-11646894D01*
X12021858Y-11481351D01*
X12021860Y-11481347D01*
X12027239Y-11470790D01*
X11039410Y-10482962D01*
X11102993Y-10465925D01*
X11217007Y-10400099D01*
X11310099Y-10307007D01*
X11375925Y-10192993D01*
X11392962Y-10129410D01*
X12203964Y-10940412D01*
X12212401Y-10937671D01*
X12282243Y-10935676D01*
X12342076Y-10971756D01*
X12372904Y-11034457D01*
X12373193Y-11036204D01*
X12376598Y-11057701D01*
X12430127Y-11222445D01*
X12508768Y-11376788D01*
X12610586Y-11516928D01*
X12733072Y-11639414D01*
X12873212Y-11741232D01*
X13027555Y-11819873D01*
X13192299Y-11873402D01*
X13363389Y-11900500D01*
X13363390Y-11900500D01*
X13536610Y-11900500D01*
X13536611Y-11900500D01*
X13707701Y-11873402D01*
X13872445Y-11819873D01*
X14026788Y-11741232D01*
X14166928Y-11639414D01*
X14289414Y-11516928D01*
X14391232Y-11376788D01*
X14469873Y-11222445D01*
X14523402Y-11057701D01*
X14550500Y-10886611D01*
X14550500Y-9113389D01*
X14889500Y-9113389D01*
X14889500Y-10886610D01*
X14912916Y-11034457D01*
X14916598Y-11057701D01*
X14970127Y-11222445D01*
X15048768Y-11376788D01*
X15150586Y-11516928D01*
X15273072Y-11639414D01*
X15413212Y-11741232D01*
X15567555Y-11819873D01*
X15732299Y-11873402D01*
X15903389Y-11900500D01*
X15903390Y-11900500D01*
X16076610Y-11900500D01*
X16076611Y-11900500D01*
X16247701Y-11873402D01*
X16412445Y-11819873D01*
X16566788Y-11741232D01*
X16706928Y-11639414D01*
X16829414Y-11516928D01*
X16931232Y-11376788D01*
X17009873Y-11222445D01*
X17063402Y-11057701D01*
X17090500Y-10886611D01*
X17090500Y-9113389D01*
X17429500Y-9113389D01*
X17429500Y-10886610D01*
X17452916Y-11034457D01*
X17456598Y-11057701D01*
X17510127Y-11222445D01*
X17588768Y-11376788D01*
X17690586Y-11516928D01*
X17813072Y-11639414D01*
X17953212Y-11741232D01*
X18107555Y-11819873D01*
X18272299Y-11873402D01*
X18443389Y-11900500D01*
X18443390Y-11900500D01*
X18616610Y-11900500D01*
X18616611Y-11900500D01*
X18787701Y-11873402D01*
X18952445Y-11819873D01*
X19106788Y-11741232D01*
X19246928Y-11639414D01*
X19369414Y-11516928D01*
X19471232Y-11376788D01*
X19549873Y-11222445D01*
X19603402Y-11057701D01*
X19630500Y-10886611D01*
X19630500Y-9113389D01*
X19969500Y-9113389D01*
X19969500Y-10886610D01*
X19992916Y-11034457D01*
X19996598Y-11057701D01*
X20050127Y-11222445D01*
X20128768Y-11376788D01*
X20230586Y-11516928D01*
X20353072Y-11639414D01*
X20493212Y-11741232D01*
X20647555Y-11819873D01*
X20812299Y-11873402D01*
X20983389Y-11900500D01*
X20983390Y-11900500D01*
X21156610Y-11900500D01*
X21156611Y-11900500D01*
X21327701Y-11873402D01*
X21492445Y-11819873D01*
X21646788Y-11741232D01*
X21786928Y-11639414D01*
X21909414Y-11516928D01*
X22011232Y-11376788D01*
X22089873Y-11222445D01*
X22143402Y-11057701D01*
X22170500Y-10886611D01*
X22170500Y-9113389D01*
X22509500Y-9113389D01*
X22509500Y-10886610D01*
X22532916Y-11034457D01*
X22536598Y-11057701D01*
X22590127Y-11222445D01*
X22668768Y-11376788D01*
X22770586Y-11516928D01*
X22893072Y-11639414D01*
X23033212Y-11741232D01*
X23187555Y-11819873D01*
X23352299Y-11873402D01*
X23523389Y-11900500D01*
X23523390Y-11900500D01*
X23696610Y-11900500D01*
X23696611Y-11900500D01*
X23867701Y-11873402D01*
X24032445Y-11819873D01*
X24186788Y-11741232D01*
X24326928Y-11639414D01*
X24449414Y-11516928D01*
X24551232Y-11376788D01*
X24629873Y-11222445D01*
X24683402Y-11057701D01*
X24710500Y-10886611D01*
X24710500Y-9113389D01*
X25049500Y-9113389D01*
X25049500Y-10886610D01*
X25072916Y-11034457D01*
X25076598Y-11057701D01*
X25130127Y-11222445D01*
X25208768Y-11376788D01*
X25310586Y-11516928D01*
X25433072Y-11639414D01*
X25573212Y-11741232D01*
X25727555Y-11819873D01*
X25892299Y-11873402D01*
X26063389Y-11900500D01*
X26063390Y-11900500D01*
X26236610Y-11900500D01*
X26236611Y-11900500D01*
X26407701Y-11873402D01*
X26572445Y-11819873D01*
X26726788Y-11741232D01*
X26866928Y-11639414D01*
X26989414Y-11516928D01*
X27091232Y-11376788D01*
X27169873Y-11222445D01*
X27223402Y-11057701D01*
X27226807Y-11036204D01*
X27256733Y-10973073D01*
X27316043Y-10936140D01*
X27385906Y-10937136D01*
X27387598Y-10937672D01*
X27396034Y-10940413D01*
X28207037Y-10129410D01*
X28224075Y-10192993D01*
X28289901Y-10307007D01*
X28382993Y-10400099D01*
X28497007Y-10465925D01*
X28560589Y-10482962D01*
X27572760Y-11470790D01*
X27572760Y-11470792D01*
X27578139Y-11481347D01*
X27698417Y-11646894D01*
X27698417Y-11646895D01*
X27843104Y-11791582D01*
X28008650Y-11911859D01*
X28190968Y-12004755D01*
X28385582Y-12067990D01*
X28587683Y-12100000D01*
X28792317Y-12100000D01*
X28994417Y-12067990D01*
X29189031Y-12004755D01*
X29371349Y-11911859D01*
X29536894Y-11791582D01*
X29536895Y-11791582D01*
X29681582Y-11646895D01*
X29681582Y-11646894D01*
X29801858Y-11481351D01*
X29801860Y-11481347D01*
X29807239Y-11470790D01*
X28819410Y-10482962D01*
X28882993Y-10465925D01*
X28997007Y-10400099D01*
X29090099Y-10307007D01*
X29155925Y-10192993D01*
X29172962Y-10129410D01*
X29983964Y-10940412D01*
X29992401Y-10937671D01*
X30062243Y-10935676D01*
X30122076Y-10971756D01*
X30152904Y-11034457D01*
X30153193Y-11036204D01*
X30156598Y-11057701D01*
X30210127Y-11222445D01*
X30288768Y-11376788D01*
X30390586Y-11516928D01*
X30513072Y-11639414D01*
X30653212Y-11741232D01*
X30807555Y-11819873D01*
X30972299Y-11873402D01*
X31143389Y-11900500D01*
X31143390Y-11900500D01*
X31316610Y-11900500D01*
X31316611Y-11900500D01*
X31487701Y-11873402D01*
X31652445Y-11819873D01*
X31806788Y-11741232D01*
X31946928Y-11639414D01*
X32069414Y-11516928D01*
X32171232Y-11376788D01*
X32249873Y-11222445D01*
X32303402Y-11057701D01*
X32330500Y-10886611D01*
X32330500Y-9113389D01*
X32669500Y-9113389D01*
X32669500Y-10886610D01*
X32692916Y-11034457D01*
X32696598Y-11057701D01*
X32750127Y-11222445D01*
X32828768Y-11376788D01*
X32930586Y-11516928D01*
X33053072Y-11639414D01*
X33193212Y-11741232D01*
X33347555Y-11819873D01*
X33512299Y-11873402D01*
X33683389Y-11900500D01*
X33683390Y-11900500D01*
X33856610Y-11900500D01*
X33856611Y-11900500D01*
X34027701Y-11873402D01*
X34192445Y-11819873D01*
X34346788Y-11741232D01*
X34486928Y-11639414D01*
X34609414Y-11516928D01*
X34711232Y-11376788D01*
X34789873Y-11222445D01*
X34843402Y-11057701D01*
X34870500Y-10886611D01*
X34870500Y-9113389D01*
X35209500Y-9113389D01*
X35209500Y-10886610D01*
X35232916Y-11034457D01*
X35236598Y-11057701D01*
X35290127Y-11222445D01*
X35368768Y-11376788D01*
X35470586Y-11516928D01*
X35593072Y-11639414D01*
X35733212Y-11741232D01*
X35887555Y-11819873D01*
X36052299Y-11873402D01*
X36223389Y-11900500D01*
X36223390Y-11900500D01*
X36396610Y-11900500D01*
X36396611Y-11900500D01*
X36567701Y-11873402D01*
X36732445Y-11819873D01*
X36886788Y-11741232D01*
X37026928Y-11639414D01*
X37149414Y-11516928D01*
X37251232Y-11376788D01*
X37329873Y-11222445D01*
X37383402Y-11057701D01*
X37410500Y-10886611D01*
X37410500Y-9113389D01*
X37749500Y-9113389D01*
X37749500Y-10886610D01*
X37772916Y-11034457D01*
X37776598Y-11057701D01*
X37830127Y-11222445D01*
X37908768Y-11376788D01*
X38010586Y-11516928D01*
X38133072Y-11639414D01*
X38273212Y-11741232D01*
X38427555Y-11819873D01*
X38592299Y-11873402D01*
X38763389Y-11900500D01*
X38763390Y-11900500D01*
X38936610Y-11900500D01*
X38936611Y-11900500D01*
X39107701Y-11873402D01*
X39272445Y-11819873D01*
X39426788Y-11741232D01*
X39566928Y-11639414D01*
X39689414Y-11516928D01*
X39791232Y-11376788D01*
X39869873Y-11222445D01*
X39923402Y-11057701D01*
X39950500Y-10886611D01*
X39950500Y-9113389D01*
X40289500Y-9113389D01*
X40289500Y-10886610D01*
X40312916Y-11034457D01*
X40316598Y-11057701D01*
X40370127Y-11222445D01*
X40448768Y-11376788D01*
X40550586Y-11516928D01*
X40673072Y-11639414D01*
X40813212Y-11741232D01*
X40967555Y-11819873D01*
X41132299Y-11873402D01*
X41303389Y-11900500D01*
X41303390Y-11900500D01*
X41476610Y-11900500D01*
X41476611Y-11900500D01*
X41647701Y-11873402D01*
X41812445Y-11819873D01*
X41966788Y-11741232D01*
X42106928Y-11639414D01*
X42229414Y-11516928D01*
X42331232Y-11376788D01*
X42409873Y-11222445D01*
X42463402Y-11057701D01*
X42490500Y-10886611D01*
X42490500Y-9113389D01*
X42829500Y-9113389D01*
X42829500Y-10886610D01*
X42852916Y-11034457D01*
X42856598Y-11057701D01*
X42910127Y-11222445D01*
X42988768Y-11376788D01*
X43090586Y-11516928D01*
X43213072Y-11639414D01*
X43353212Y-11741232D01*
X43507555Y-11819873D01*
X43672299Y-11873402D01*
X43843389Y-11900500D01*
X43843390Y-11900500D01*
X44016610Y-11900500D01*
X44016611Y-11900500D01*
X44187701Y-11873402D01*
X44352445Y-11819873D01*
X44506788Y-11741232D01*
X44646928Y-11639414D01*
X44769414Y-11516928D01*
X44871232Y-11376788D01*
X44949873Y-11222445D01*
X45003402Y-11057701D01*
X45030500Y-10886611D01*
X45030500Y-9113389D01*
X45369500Y-9113389D01*
X45369500Y-10886610D01*
X45392916Y-11034457D01*
X45396598Y-11057701D01*
X45450127Y-11222445D01*
X45528768Y-11376788D01*
X45630586Y-11516928D01*
X45753072Y-11639414D01*
X45893212Y-11741232D01*
X46047555Y-11819873D01*
X46212299Y-11873402D01*
X46383389Y-11900500D01*
X46383390Y-11900500D01*
X46556610Y-11900500D01*
X46556611Y-11900500D01*
X46727701Y-11873402D01*
X46892445Y-11819873D01*
X47046788Y-11741232D01*
X47186928Y-11639414D01*
X47309414Y-11516928D01*
X47411232Y-11376788D01*
X47489873Y-11222445D01*
X47543402Y-11057701D01*
X47546807Y-11036204D01*
X47576733Y-10973073D01*
X47636043Y-10936140D01*
X47705906Y-10937136D01*
X47707598Y-10937672D01*
X47716034Y-10940413D01*
X48527037Y-10129410D01*
X48544075Y-10192993D01*
X48609901Y-10307007D01*
X48702993Y-10400099D01*
X48817007Y-10465925D01*
X48880589Y-10482962D01*
X47892760Y-11470790D01*
X47892760Y-11470792D01*
X47898139Y-11481347D01*
X48018417Y-11646894D01*
X48018417Y-11646895D01*
X48163104Y-11791582D01*
X48328650Y-11911859D01*
X48510968Y-12004755D01*
X48705582Y-12067990D01*
X48907683Y-12100000D01*
X49112317Y-12100000D01*
X49314417Y-12067990D01*
X49509031Y-12004755D01*
X49691349Y-11911859D01*
X49856894Y-11791582D01*
X49856895Y-11791582D01*
X50001582Y-11646895D01*
X50001582Y-11646894D01*
X50121858Y-11481351D01*
X50121860Y-11481347D01*
X50127239Y-11470790D01*
X49139410Y-10482962D01*
X49202993Y-10465925D01*
X49317007Y-10400099D01*
X49410099Y-10307007D01*
X49475925Y-10192993D01*
X49492962Y-10129410D01*
X50303964Y-10940412D01*
X50312401Y-10937671D01*
X50382243Y-10935676D01*
X50442076Y-10971756D01*
X50472904Y-11034457D01*
X50473193Y-11036204D01*
X50476598Y-11057701D01*
X50530127Y-11222445D01*
X50608768Y-11376788D01*
X50710586Y-11516928D01*
X50833072Y-11639414D01*
X50973212Y-11741232D01*
X51127555Y-11819873D01*
X51292299Y-11873402D01*
X51463389Y-11900500D01*
X51463390Y-11900500D01*
X51636610Y-11900500D01*
X51636611Y-11900500D01*
X51807701Y-11873402D01*
X51972445Y-11819873D01*
X52126788Y-11741232D01*
X52266928Y-11639414D01*
X52389414Y-11516928D01*
X52491232Y-11376788D01*
X52569873Y-11222445D01*
X52623402Y-11057701D01*
X52626807Y-11036204D01*
X52656733Y-10973073D01*
X52716043Y-10936140D01*
X52785906Y-10937136D01*
X52787598Y-10937672D01*
X52796034Y-10940413D01*
X53607037Y-10129410D01*
X53624075Y-10192993D01*
X53689901Y-10307007D01*
X53782993Y-10400099D01*
X53897007Y-10465925D01*
X53960589Y-10482962D01*
X52972760Y-11470790D01*
X52972760Y-11470792D01*
X52978139Y-11481347D01*
X53098417Y-11646894D01*
X53098417Y-11646895D01*
X53243104Y-11791582D01*
X53408650Y-11911859D01*
X53590968Y-12004755D01*
X53785582Y-12067990D01*
X53987683Y-12100000D01*
X54192317Y-12100000D01*
X54394417Y-12067990D01*
X54589031Y-12004755D01*
X54771349Y-11911859D01*
X54936894Y-11791582D01*
X54936895Y-11791582D01*
X55081582Y-11646895D01*
X55081582Y-11646894D01*
X55201858Y-11481351D01*
X55201860Y-11481347D01*
X55207239Y-11470790D01*
X54219410Y-10482962D01*
X54282993Y-10465925D01*
X54397007Y-10400099D01*
X54490099Y-10307007D01*
X54555925Y-10192993D01*
X54572962Y-10129410D01*
X55383964Y-10940412D01*
X55392401Y-10937671D01*
X55462243Y-10935676D01*
X55522076Y-10971756D01*
X55552904Y-11034457D01*
X55553193Y-11036204D01*
X55556598Y-11057701D01*
X55610127Y-11222445D01*
X55688768Y-11376788D01*
X55790586Y-11516928D01*
X55913072Y-11639414D01*
X56053212Y-11741232D01*
X56207555Y-11819873D01*
X56372299Y-11873402D01*
X56543389Y-11900500D01*
X56543390Y-11900500D01*
X56716610Y-11900500D01*
X56716611Y-11900500D01*
X56887701Y-11873402D01*
X57052445Y-11819873D01*
X57206788Y-11741232D01*
X57346928Y-11639414D01*
X57469414Y-11516928D01*
X57571232Y-11376788D01*
X57649873Y-11222445D01*
X57703402Y-11057701D01*
X57730500Y-10886611D01*
X57730500Y-9113389D01*
X57703402Y-8942299D01*
X57649873Y-8777555D01*
X57571232Y-8623212D01*
X57469414Y-8483072D01*
X57346928Y-8360586D01*
X57206788Y-8258768D01*
X57052445Y-8180127D01*
X56887701Y-8126598D01*
X56887699Y-8126597D01*
X56887698Y-8126597D01*
X56756271Y-8105781D01*
X56716611Y-8099500D01*
X56543389Y-8099500D01*
X56503728Y-8105781D01*
X56372302Y-8126597D01*
X56207552Y-8180128D01*
X56053211Y-8258768D01*
X55973256Y-8316859D01*
X55913072Y-8360586D01*
X55913070Y-8360588D01*
X55913069Y-8360588D01*
X55790588Y-8483069D01*
X55790588Y-8483070D01*
X55790586Y-8483072D01*
X55746859Y-8543256D01*
X55688768Y-8623211D01*
X55610128Y-8777552D01*
X55556597Y-8942300D01*
X55553193Y-8963796D01*
X55523263Y-9026930D01*
X55463951Y-9063860D01*
X55394088Y-9062862D01*
X55392403Y-9062327D01*
X55383965Y-9059585D01*
X54572962Y-9870588D01*
X54555925Y-9807007D01*
X54490099Y-9692993D01*
X54397007Y-9599901D01*
X54282993Y-9534075D01*
X54219410Y-9517037D01*
X55207238Y-8529209D01*
X55201858Y-8518649D01*
X55201856Y-8518646D01*
X55081582Y-8353105D01*
X55081582Y-8353104D01*
X54936895Y-8208417D01*
X54771349Y-8088140D01*
X54589031Y-7995244D01*
X54394417Y-7932009D01*
X54192317Y-7900000D01*
X53987683Y-7900000D01*
X53785582Y-7932009D01*
X53590968Y-7995244D01*
X53408650Y-8088140D01*
X53243105Y-8208417D01*
X53243104Y-8208417D01*
X53098417Y-8353104D01*
X52978136Y-8518656D01*
X52972759Y-8529206D01*
X52972760Y-8529208D01*
X53960589Y-9517037D01*
X53897007Y-9534075D01*
X53782993Y-9599901D01*
X53689901Y-9692993D01*
X53624075Y-9807007D01*
X53607037Y-9870588D01*
X52796034Y-9059585D01*
X52787598Y-9062327D01*
X52717756Y-9064322D01*
X52657923Y-9028242D01*
X52627095Y-8965541D01*
X52626827Y-8963927D01*
X52623402Y-8942299D01*
X52569873Y-8777555D01*
X52491232Y-8623212D01*
X52389414Y-8483072D01*
X52266928Y-8360586D01*
X52126788Y-8258768D01*
X51972445Y-8180127D01*
X51807701Y-8126598D01*
X51807699Y-8126597D01*
X51807698Y-8126597D01*
X51676271Y-8105781D01*
X51636611Y-8099500D01*
X51463389Y-8099500D01*
X51423728Y-8105781D01*
X51292302Y-8126597D01*
X51127552Y-8180128D01*
X50973211Y-8258768D01*
X50893256Y-8316859D01*
X50833072Y-8360586D01*
X50833070Y-8360588D01*
X50833069Y-8360588D01*
X50710588Y-8483069D01*
X50710588Y-8483070D01*
X50710586Y-8483072D01*
X50666859Y-8543256D01*
X50608768Y-8623211D01*
X50530128Y-8777552D01*
X50476597Y-8942300D01*
X50473193Y-8963796D01*
X50443263Y-9026930D01*
X50383951Y-9063860D01*
X50314088Y-9062862D01*
X50312403Y-9062327D01*
X50303965Y-9059585D01*
X49492962Y-9870588D01*
X49475925Y-9807007D01*
X49410099Y-9692993D01*
X49317007Y-9599901D01*
X49202993Y-9534075D01*
X49139410Y-9517037D01*
X50127238Y-8529209D01*
X50121858Y-8518649D01*
X50121856Y-8518646D01*
X50001582Y-8353105D01*
X50001582Y-8353104D01*
X49856895Y-8208417D01*
X49691349Y-8088140D01*
X49509031Y-7995244D01*
X49314417Y-7932009D01*
X49112317Y-7900000D01*
X48907683Y-7900000D01*
X48705582Y-7932009D01*
X48510968Y-7995244D01*
X48328650Y-8088140D01*
X48163105Y-8208417D01*
X48163104Y-8208417D01*
X48018417Y-8353104D01*
X47898136Y-8518656D01*
X47892759Y-8529206D01*
X47892760Y-8529208D01*
X48880589Y-9517037D01*
X48817007Y-9534075D01*
X48702993Y-9599901D01*
X48609901Y-9692993D01*
X48544075Y-9807007D01*
X48527037Y-9870588D01*
X47716034Y-9059585D01*
X47707598Y-9062327D01*
X47637756Y-9064322D01*
X47577923Y-9028242D01*
X47547095Y-8965541D01*
X47546827Y-8963927D01*
X47543402Y-8942299D01*
X47489873Y-8777555D01*
X47411232Y-8623212D01*
X47309414Y-8483072D01*
X47186928Y-8360586D01*
X47046788Y-8258768D01*
X46892445Y-8180127D01*
X46727701Y-8126598D01*
X46727699Y-8126597D01*
X46727698Y-8126597D01*
X46596271Y-8105781D01*
X46556611Y-8099500D01*
X46383389Y-8099500D01*
X46343728Y-8105781D01*
X46212302Y-8126597D01*
X46047552Y-8180128D01*
X45893211Y-8258768D01*
X45813256Y-8316859D01*
X45753072Y-8360586D01*
X45753070Y-8360588D01*
X45753069Y-8360588D01*
X45630588Y-8483069D01*
X45630588Y-8483070D01*
X45630586Y-8483072D01*
X45586859Y-8543256D01*
X45528768Y-8623211D01*
X45450128Y-8777552D01*
X45396597Y-8942302D01*
X45369500Y-9113389D01*
X45030500Y-9113389D01*
X45003402Y-8942299D01*
X44949873Y-8777555D01*
X44871232Y-8623212D01*
X44769414Y-8483072D01*
X44646928Y-8360586D01*
X44506788Y-8258768D01*
X44352445Y-8180127D01*
X44187701Y-8126598D01*
X44187699Y-8126597D01*
X44187698Y-8126597D01*
X44056271Y-8105781D01*
X44016611Y-8099500D01*
X43843389Y-8099500D01*
X43803728Y-8105781D01*
X43672302Y-8126597D01*
X43507552Y-8180128D01*
X43353211Y-8258768D01*
X43273256Y-8316859D01*
X43213072Y-8360586D01*
X43213070Y-8360588D01*
X43213069Y-8360588D01*
X43090588Y-8483069D01*
X43090588Y-8483070D01*
X43090586Y-8483072D01*
X43046859Y-8543256D01*
X42988768Y-8623211D01*
X42910128Y-8777552D01*
X42856597Y-8942302D01*
X42829500Y-9113389D01*
X42490500Y-9113389D01*
X42463402Y-8942299D01*
X42409873Y-8777555D01*
X42331232Y-8623212D01*
X42229414Y-8483072D01*
X42106928Y-8360586D01*
X41966788Y-8258768D01*
X41812445Y-8180127D01*
X41647701Y-8126598D01*
X41647699Y-8126597D01*
X41647698Y-8126597D01*
X41516271Y-8105781D01*
X41476611Y-8099500D01*
X41303389Y-8099500D01*
X41263728Y-8105781D01*
X41132302Y-8126597D01*
X40967552Y-8180128D01*
X40813211Y-8258768D01*
X40733256Y-8316859D01*
X40673072Y-8360586D01*
X40673070Y-8360588D01*
X40673069Y-8360588D01*
X40550588Y-8483069D01*
X40550588Y-8483070D01*
X40550586Y-8483072D01*
X40506859Y-8543256D01*
X40448768Y-8623211D01*
X40370128Y-8777552D01*
X40316597Y-8942302D01*
X40289500Y-9113389D01*
X39950500Y-9113389D01*
X39923402Y-8942299D01*
X39869873Y-8777555D01*
X39791232Y-8623212D01*
X39689414Y-8483072D01*
X39566928Y-8360586D01*
X39426788Y-8258768D01*
X39272445Y-8180127D01*
X39107701Y-8126598D01*
X39107699Y-8126597D01*
X39107698Y-8126597D01*
X38976271Y-8105781D01*
X38936611Y-8099500D01*
X38763389Y-8099500D01*
X38723728Y-8105781D01*
X38592302Y-8126597D01*
X38427552Y-8180128D01*
X38273211Y-8258768D01*
X38193256Y-8316859D01*
X38133072Y-8360586D01*
X38133070Y-8360588D01*
X38133069Y-8360588D01*
X38010588Y-8483069D01*
X38010588Y-8483070D01*
X38010586Y-8483072D01*
X37966859Y-8543256D01*
X37908768Y-8623211D01*
X37830128Y-8777552D01*
X37776597Y-8942302D01*
X37749500Y-9113389D01*
X37410500Y-9113389D01*
X37383402Y-8942299D01*
X37329873Y-8777555D01*
X37251232Y-8623212D01*
X37149414Y-8483072D01*
X37026928Y-8360586D01*
X36886788Y-8258768D01*
X36732445Y-8180127D01*
X36567701Y-8126598D01*
X36567699Y-8126597D01*
X36567698Y-8126597D01*
X36436271Y-8105781D01*
X36396611Y-8099500D01*
X36223389Y-8099500D01*
X36183728Y-8105781D01*
X36052302Y-8126597D01*
X35887552Y-8180128D01*
X35733211Y-8258768D01*
X35653256Y-8316859D01*
X35593072Y-8360586D01*
X35593070Y-8360588D01*
X35593069Y-8360588D01*
X35470588Y-8483069D01*
X35470588Y-8483070D01*
X35470586Y-8483072D01*
X35426859Y-8543256D01*
X35368768Y-8623211D01*
X35290128Y-8777552D01*
X35236597Y-8942302D01*
X35209500Y-9113389D01*
X34870500Y-9113389D01*
X34843402Y-8942299D01*
X34789873Y-8777555D01*
X34711232Y-8623212D01*
X34609414Y-8483072D01*
X34486928Y-8360586D01*
X34346788Y-8258768D01*
X34192445Y-8180127D01*
X34027701Y-8126598D01*
X34027699Y-8126597D01*
X34027698Y-8126597D01*
X33896271Y-8105781D01*
X33856611Y-8099500D01*
X33683389Y-8099500D01*
X33643728Y-8105781D01*
X33512302Y-8126597D01*
X33347552Y-8180128D01*
X33193211Y-8258768D01*
X33113256Y-8316859D01*
X33053072Y-8360586D01*
X33053070Y-8360588D01*
X33053069Y-8360588D01*
X32930588Y-8483069D01*
X32930588Y-8483070D01*
X32930586Y-8483072D01*
X32886859Y-8543256D01*
X32828768Y-8623211D01*
X32750128Y-8777552D01*
X32696597Y-8942302D01*
X32669500Y-9113389D01*
X32330500Y-9113389D01*
X32303402Y-8942299D01*
X32249873Y-8777555D01*
X32171232Y-8623212D01*
X32069414Y-8483072D01*
X31946928Y-8360586D01*
X31806788Y-8258768D01*
X31652445Y-8180127D01*
X31487701Y-8126598D01*
X31487699Y-8126597D01*
X31487698Y-8126597D01*
X31356271Y-8105781D01*
X31316611Y-8099500D01*
X31143389Y-8099500D01*
X31103728Y-8105781D01*
X30972302Y-8126597D01*
X30807552Y-8180128D01*
X30653211Y-8258768D01*
X30573256Y-8316859D01*
X30513072Y-8360586D01*
X30513070Y-8360588D01*
X30513069Y-8360588D01*
X30390588Y-8483069D01*
X30390588Y-8483070D01*
X30390586Y-8483072D01*
X30346859Y-8543256D01*
X30288768Y-8623211D01*
X30210128Y-8777552D01*
X30156597Y-8942300D01*
X30153193Y-8963796D01*
X30123263Y-9026930D01*
X30063951Y-9063860D01*
X29994088Y-9062862D01*
X29992403Y-9062327D01*
X29983965Y-9059585D01*
X29172962Y-9870588D01*
X29155925Y-9807007D01*
X29090099Y-9692993D01*
X28997007Y-9599901D01*
X28882993Y-9534075D01*
X28819410Y-9517037D01*
X29807238Y-8529209D01*
X29801858Y-8518649D01*
X29801856Y-8518646D01*
X29681582Y-8353105D01*
X29681582Y-8353104D01*
X29536895Y-8208417D01*
X29371349Y-8088140D01*
X29189031Y-7995244D01*
X28994417Y-7932009D01*
X28792317Y-7900000D01*
X28587683Y-7900000D01*
X28385582Y-7932009D01*
X28190968Y-7995244D01*
X28008650Y-8088140D01*
X27843105Y-8208417D01*
X27843104Y-8208417D01*
X27698417Y-8353104D01*
X27578136Y-8518656D01*
X27572759Y-8529206D01*
X27572760Y-8529208D01*
X28560589Y-9517037D01*
X28497007Y-9534075D01*
X28382993Y-9599901D01*
X28289901Y-9692993D01*
X28224075Y-9807007D01*
X28207037Y-9870588D01*
X27396034Y-9059585D01*
X27387598Y-9062327D01*
X27317756Y-9064322D01*
X27257923Y-9028242D01*
X27227095Y-8965541D01*
X27226827Y-8963927D01*
X27223402Y-8942299D01*
X27169873Y-8777555D01*
X27091232Y-8623212D01*
X26989414Y-8483072D01*
X26866928Y-8360586D01*
X26726788Y-8258768D01*
X26572445Y-8180127D01*
X26407701Y-8126598D01*
X26407699Y-8126597D01*
X26407698Y-8126597D01*
X26276271Y-8105781D01*
X26236611Y-8099500D01*
X26063389Y-8099500D01*
X26023728Y-8105781D01*
X25892302Y-8126597D01*
X25727552Y-8180128D01*
X25573211Y-8258768D01*
X25493256Y-8316859D01*
X25433072Y-8360586D01*
X25433070Y-8360588D01*
X25433069Y-8360588D01*
X25310588Y-8483069D01*
X25310588Y-8483070D01*
X25310586Y-8483072D01*
X25266859Y-8543256D01*
X25208768Y-8623211D01*
X25130128Y-8777552D01*
X25076597Y-8942302D01*
X25049500Y-9113389D01*
X24710500Y-9113389D01*
X24683402Y-8942299D01*
X24629873Y-8777555D01*
X24551232Y-8623212D01*
X24449414Y-8483072D01*
X24326928Y-8360586D01*
X24186788Y-8258768D01*
X24032445Y-8180127D01*
X23867701Y-8126598D01*
X23867699Y-8126597D01*
X23867698Y-8126597D01*
X23736271Y-8105781D01*
X23696611Y-8099500D01*
X23523389Y-8099500D01*
X23483728Y-8105781D01*
X23352302Y-8126597D01*
X23187552Y-8180128D01*
X23033211Y-8258768D01*
X22953256Y-8316859D01*
X22893072Y-8360586D01*
X22893070Y-8360588D01*
X22893069Y-8360588D01*
X22770588Y-8483069D01*
X22770588Y-8483070D01*
X22770586Y-8483072D01*
X22726859Y-8543256D01*
X22668768Y-8623211D01*
X22590128Y-8777552D01*
X22536597Y-8942302D01*
X22509500Y-9113389D01*
X22170500Y-9113389D01*
X22143402Y-8942299D01*
X22089873Y-8777555D01*
X22011232Y-8623212D01*
X21909414Y-8483072D01*
X21786928Y-8360586D01*
X21646788Y-8258768D01*
X21492445Y-8180127D01*
X21327701Y-8126598D01*
X21327699Y-8126597D01*
X21327698Y-8126597D01*
X21196271Y-8105781D01*
X21156611Y-8099500D01*
X20983389Y-8099500D01*
X20943728Y-8105781D01*
X20812302Y-8126597D01*
X20647552Y-8180128D01*
X20493211Y-8258768D01*
X20413256Y-8316859D01*
X20353072Y-8360586D01*
X20353070Y-8360588D01*
X20353069Y-8360588D01*
X20230588Y-8483069D01*
X20230588Y-8483070D01*
X20230586Y-8483072D01*
X20186859Y-8543256D01*
X20128768Y-8623211D01*
X20050128Y-8777552D01*
X19996597Y-8942302D01*
X19969500Y-9113389D01*
X19630500Y-9113389D01*
X19603402Y-8942299D01*
X19549873Y-8777555D01*
X19471232Y-8623212D01*
X19369414Y-8483072D01*
X19246928Y-8360586D01*
X19106788Y-8258768D01*
X18952445Y-8180127D01*
X18787701Y-8126598D01*
X18787699Y-8126597D01*
X18787698Y-8126597D01*
X18656271Y-8105781D01*
X18616611Y-8099500D01*
X18443389Y-8099500D01*
X18403728Y-8105781D01*
X18272302Y-8126597D01*
X18107552Y-8180128D01*
X17953211Y-8258768D01*
X17873256Y-8316859D01*
X17813072Y-8360586D01*
X17813070Y-8360588D01*
X17813069Y-8360588D01*
X17690588Y-8483069D01*
X17690588Y-8483070D01*
X17690586Y-8483072D01*
X17646859Y-8543256D01*
X17588768Y-8623211D01*
X17510128Y-8777552D01*
X17456597Y-8942302D01*
X17429500Y-9113389D01*
X17090500Y-9113389D01*
X17063402Y-8942299D01*
X17009873Y-8777555D01*
X16931232Y-8623212D01*
X16829414Y-8483072D01*
X16706928Y-8360586D01*
X16566788Y-8258768D01*
X16412445Y-8180127D01*
X16247701Y-8126598D01*
X16247699Y-8126597D01*
X16247698Y-8126597D01*
X16116271Y-8105781D01*
X16076611Y-8099500D01*
X15903389Y-8099500D01*
X15863728Y-8105781D01*
X15732302Y-8126597D01*
X15567552Y-8180128D01*
X15413211Y-8258768D01*
X15333256Y-8316859D01*
X15273072Y-8360586D01*
X15273070Y-8360588D01*
X15273069Y-8360588D01*
X15150588Y-8483069D01*
X15150588Y-8483070D01*
X15150586Y-8483072D01*
X15106859Y-8543256D01*
X15048768Y-8623211D01*
X14970128Y-8777552D01*
X14916597Y-8942302D01*
X14889500Y-9113389D01*
X14550500Y-9113389D01*
X14523402Y-8942299D01*
X14469873Y-8777555D01*
X14391232Y-8623212D01*
X14289414Y-8483072D01*
X14166928Y-8360586D01*
X14026788Y-8258768D01*
X13872445Y-8180127D01*
X13707701Y-8126598D01*
X13707699Y-8126597D01*
X13707698Y-8126597D01*
X13576271Y-8105781D01*
X13536611Y-8099500D01*
X13363389Y-8099500D01*
X13323728Y-8105781D01*
X13192302Y-8126597D01*
X13027552Y-8180128D01*
X12873211Y-8258768D01*
X12793256Y-8316859D01*
X12733072Y-8360586D01*
X12733070Y-8360588D01*
X12733069Y-8360588D01*
X12610588Y-8483069D01*
X12610588Y-8483070D01*
X12610586Y-8483072D01*
X12566859Y-8543256D01*
X12508768Y-8623211D01*
X12430128Y-8777552D01*
X12376597Y-8942300D01*
X12373193Y-8963796D01*
X12343263Y-9026930D01*
X12283951Y-9063860D01*
X12214088Y-9062862D01*
X12212403Y-9062327D01*
X12203965Y-9059585D01*
X11392962Y-9870588D01*
X11375925Y-9807007D01*
X11310099Y-9692993D01*
X11217007Y-9599901D01*
X11102993Y-9534075D01*
X11039410Y-9517037D01*
X12027238Y-8529209D01*
X12021858Y-8518649D01*
X12021856Y-8518646D01*
X11901582Y-8353105D01*
X11901582Y-8353104D01*
X11756895Y-8208417D01*
X11591349Y-8088140D01*
X11409031Y-7995244D01*
X11214417Y-7932009D01*
X11012317Y-7900000D01*
X10807683Y-7900000D01*
X10605582Y-7932009D01*
X10410968Y-7995244D01*
X10228650Y-8088140D01*
X10063105Y-8208417D01*
X10063104Y-8208417D01*
X9918417Y-8353104D01*
X9798136Y-8518656D01*
X9792759Y-8529206D01*
X9792760Y-8529208D01*
X10780589Y-9517037D01*
X10717007Y-9534075D01*
X10602993Y-9599901D01*
X10509901Y-9692993D01*
X10444075Y-9807007D01*
X10427037Y-9870588D01*
X9611198Y-9054749D01*
X9562976Y-9056127D01*
X9503143Y-9020046D01*
X9472315Y-8957345D01*
X9470499Y-8936201D01*
X9470499Y-8355143D01*
X9470499Y-8355136D01*
X9470497Y-8355117D01*
X9467586Y-8330012D01*
X9467585Y-8330010D01*
X9467585Y-8330009D01*
X9422206Y-8227235D01*
X9342765Y-8147794D01*
X9342763Y-8147793D01*
X9239992Y-8102415D01*
X9214865Y-8099500D01*
X7525143Y-8099500D01*
X7525117Y-8099502D01*
X7500012Y-8102413D01*
X7500008Y-8102415D01*
X7397235Y-8147793D01*
X7317794Y-8227234D01*
X7272415Y-8330006D01*
X7272415Y-8330008D01*
X7269500Y-8355131D01*
X2829798Y-8355131D01*
X2829798Y-7544386D01*
X524500Y-7544386D01*
X457461Y-7524701D01*
X411706Y-7471897D01*
X400500Y-7420386D01*
X400500Y-3385921D01*
X1759500Y-3385921D01*
X1759500Y-3614078D01*
X1789278Y-3840272D01*
X1789279Y-3840277D01*
X1789280Y-3840283D01*
X1789281Y-3840285D01*
X1848331Y-4060666D01*
X1935638Y-4271446D01*
X1935646Y-4271462D01*
X2049717Y-4469037D01*
X2049728Y-4469053D01*
X2188613Y-4650052D01*
X2188619Y-4650059D01*
X2349940Y-4811380D01*
X2349946Y-4811385D01*
X2530955Y-4950278D01*
X2530962Y-4950282D01*
X2728537Y-5064353D01*
X2728553Y-5064361D01*
X2842268Y-5111463D01*
X2939334Y-5151669D01*
X3159717Y-5210720D01*
X3319474Y-5231752D01*
X3385921Y-5240500D01*
X3385922Y-5240500D01*
X3614079Y-5240500D01*
X3665438Y-5233738D01*
X3840283Y-5210720D01*
X4060666Y-5151669D01*
X4226365Y-5083033D01*
X4271446Y-5064361D01*
X4271449Y-5064359D01*
X4271455Y-5064357D01*
X4469045Y-4950278D01*
X4650054Y-4811385D01*
X4811385Y-4650054D01*
X4950278Y-4469045D01*
X5064357Y-4271455D01*
X5151669Y-4060666D01*
X5210720Y-3840283D01*
X5240500Y-3614078D01*
X5240500Y-3385922D01*
X5240500Y-3385921D01*
X59759500Y-3385921D01*
X59759500Y-3614078D01*
X59789278Y-3840272D01*
X59789279Y-3840277D01*
X59789280Y-3840283D01*
X59789281Y-3840285D01*
X59848331Y-4060666D01*
X59935638Y-4271446D01*
X59935646Y-4271462D01*
X60049717Y-4469037D01*
X60049728Y-4469053D01*
X60188613Y-4650052D01*
X60188619Y-4650059D01*
X60349940Y-4811380D01*
X60349946Y-4811385D01*
X60530955Y-4950278D01*
X60530962Y-4950282D01*
X60728537Y-5064353D01*
X60728553Y-5064361D01*
X60842268Y-5111463D01*
X60939334Y-5151669D01*
X61159717Y-5210720D01*
X61319474Y-5231752D01*
X61385921Y-5240500D01*
X61385922Y-5240500D01*
X61614079Y-5240500D01*
X61665438Y-5233738D01*
X61840283Y-5210720D01*
X62060666Y-5151669D01*
X62226365Y-5083033D01*
X62271446Y-5064361D01*
X62271449Y-5064359D01*
X62271455Y-5064357D01*
X62469045Y-4950278D01*
X62650054Y-4811385D01*
X62811385Y-4650054D01*
X62950278Y-4469045D01*
X63064357Y-4271455D01*
X63151669Y-4060666D01*
X63210720Y-3840283D01*
X63240500Y-3614078D01*
X63240500Y-3385922D01*
X63210720Y-3159717D01*
X63151669Y-2939334D01*
X63111463Y-2842268D01*
X63064361Y-2728553D01*
X63064353Y-2728537D01*
X62950282Y-2530962D01*
X62950278Y-2530955D01*
X62811385Y-2349946D01*
X62811380Y-2349940D01*
X62650059Y-2188619D01*
X62650052Y-2188613D01*
X62469053Y-2049728D01*
X62469051Y-2049726D01*
X62469045Y-2049722D01*
X62469040Y-2049719D01*
X62469037Y-2049717D01*
X62271462Y-1935646D01*
X62271446Y-1935638D01*
X62060666Y-1848331D01*
X61840283Y-1789280D01*
X61840277Y-1789279D01*
X61840272Y-1789278D01*
X61614079Y-1759500D01*
X61614078Y-1759500D01*
X61385922Y-1759500D01*
X61385921Y-1759500D01*
X61159727Y-1789278D01*
X61159720Y-1789279D01*
X61159717Y-1789280D01*
X61066567Y-1814239D01*
X60939333Y-1848331D01*
X60728553Y-1935638D01*
X60728537Y-1935646D01*
X60530962Y-2049717D01*
X60530946Y-2049728D01*
X60349947Y-2188613D01*
X60349940Y-2188619D01*
X60188619Y-2349940D01*
X60188613Y-2349947D01*
X60049728Y-2530946D01*
X60049717Y-2530962D01*
X59935646Y-2728537D01*
X59935638Y-2728553D01*
X59848331Y-2939333D01*
X59789281Y-3159714D01*
X59789278Y-3159727D01*
X59759500Y-3385921D01*
X5240500Y-3385921D01*
X5210720Y-3159717D01*
X5151669Y-2939334D01*
X5111463Y-2842268D01*
X5064361Y-2728553D01*
X5064353Y-2728537D01*
X4950282Y-2530962D01*
X4950278Y-2530955D01*
X4811385Y-2349946D01*
X4811380Y-2349940D01*
X4650059Y-2188619D01*
X4650052Y-2188613D01*
X4469053Y-2049728D01*
X4469051Y-2049726D01*
X4469045Y-2049722D01*
X4469040Y-2049719D01*
X4469037Y-2049717D01*
X4271462Y-1935646D01*
X4271446Y-1935638D01*
X4060666Y-1848331D01*
X3840283Y-1789280D01*
X3840277Y-1789279D01*
X3840272Y-1789278D01*
X3614079Y-1759500D01*
X3614078Y-1759500D01*
X3385922Y-1759500D01*
X3385921Y-1759500D01*
X3159727Y-1789278D01*
X3159720Y-1789279D01*
X3159717Y-1789280D01*
X3066567Y-1814239D01*
X2939333Y-1848331D01*
X2728553Y-1935638D01*
X2728537Y-1935646D01*
X2530962Y-2049717D01*
X2530946Y-2049728D01*
X2349947Y-2188613D01*
X2349940Y-2188619D01*
X2188619Y-2349940D01*
X2188613Y-2349947D01*
X2049728Y-2530946D01*
X2049717Y-2530962D01*
X1935646Y-2728537D01*
X1935638Y-2728553D01*
X1848331Y-2939333D01*
X1789281Y-3159714D01*
X1789278Y-3159727D01*
X1759500Y-3385921D01*
X400500Y-3385921D01*
X400500Y-524500D01*
X420185Y-457461D01*
X472989Y-411706D01*
X524500Y-400500D01*
X64475500Y-400500D01*
X64542539Y-420185D01*
G37*
%TD.AperFunction*%
%TD*%
%TA.AperFunction,NonConductor*%
G36*
X54608021Y-16469685D02*
G01*
X54653776Y-16522489D01*
X54663720Y-16591647D01*
X54657164Y-16617333D01*
X54643226Y-16654705D01*
X54635781Y-16674665D01*
X54629500Y-16733085D01*
X54629500Y-16733092D01*
X54629500Y-16733093D01*
X54629500Y-18346912D01*
X54629501Y-18346918D01*
X54635781Y-18405337D01*
X54645788Y-18432168D01*
X54650772Y-18501860D01*
X54617286Y-18563183D01*
X54555962Y-18596667D01*
X54529606Y-18599500D01*
X53650394Y-18599500D01*
X53583355Y-18579815D01*
X53537600Y-18527011D01*
X53527656Y-18457853D01*
X53534212Y-18432168D01*
X53544217Y-18405340D01*
X53544216Y-18405340D01*
X53544219Y-18405335D01*
X53550500Y-18346915D01*
X53550499Y-16733086D01*
X53544219Y-16674665D01*
X53536774Y-16654705D01*
X53522836Y-16617333D01*
X53517852Y-16547641D01*
X53551337Y-16486318D01*
X53612661Y-16452834D01*
X53639018Y-16450000D01*
X54540982Y-16450000D01*
X54608021Y-16469685D01*
G37*
%TD.AperFunction*%
%TA.AperFunction,NonConductor*%
G36*
X49490418Y-16458643D02*
G01*
X49520408Y-16465167D01*
X49523639Y-16468398D01*
X49528021Y-16469685D01*
X49548106Y-16492865D01*
X49569814Y-16514572D01*
X49570785Y-16519037D01*
X49573776Y-16522489D01*
X49578142Y-16552857D01*
X49584666Y-16582845D01*
X49583334Y-16588966D01*
X49583720Y-16591647D01*
X49577164Y-16617333D01*
X49563226Y-16654705D01*
X49555781Y-16674665D01*
X49549500Y-16733085D01*
X49549500Y-16733092D01*
X49549500Y-16733093D01*
X49549500Y-18346912D01*
X49549501Y-18346918D01*
X49555781Y-18405337D01*
X49565788Y-18432168D01*
X49570772Y-18501860D01*
X49537286Y-18563183D01*
X49475962Y-18596667D01*
X49449606Y-18599500D01*
X48570394Y-18599500D01*
X48503355Y-18579815D01*
X48457600Y-18527011D01*
X48447656Y-18457853D01*
X48454212Y-18432168D01*
X48464217Y-18405340D01*
X48464216Y-18405340D01*
X48464219Y-18405335D01*
X48470500Y-18346915D01*
X48470499Y-16733086D01*
X48464219Y-16674665D01*
X48456774Y-16654705D01*
X48442836Y-16617333D01*
X48437852Y-16547641D01*
X48471337Y-16486318D01*
X48532661Y-16452834D01*
X48559018Y-16450000D01*
X49460982Y-16450000D01*
X49490418Y-16458643D01*
G37*
%TD.AperFunction*%
%TA.AperFunction,NonConductor*%
G36*
X44562986Y-16270184D02*
G01*
X44608741Y-16322988D01*
X44618685Y-16392146D01*
X44595215Y-16448809D01*
X44525070Y-16542512D01*
X44525069Y-16542514D01*
X44475782Y-16674661D01*
X44475781Y-16674665D01*
X44469500Y-16733085D01*
X44469500Y-16733092D01*
X44469500Y-16733093D01*
X44469500Y-18346912D01*
X44469501Y-18346918D01*
X44475781Y-18405337D01*
X44485788Y-18432168D01*
X44490772Y-18501860D01*
X44457286Y-18563183D01*
X44395962Y-18596667D01*
X44369606Y-18599500D01*
X43490394Y-18599500D01*
X43423355Y-18579815D01*
X43377600Y-18527011D01*
X43367656Y-18457853D01*
X43374212Y-18432168D01*
X43384217Y-18405340D01*
X43384216Y-18405340D01*
X43384219Y-18405335D01*
X43390500Y-18346915D01*
X43390499Y-16733086D01*
X43384219Y-16674665D01*
X43376774Y-16654705D01*
X43334930Y-16542514D01*
X43334929Y-16542512D01*
X43334929Y-16542511D01*
X43277030Y-16465167D01*
X43264785Y-16448809D01*
X43240368Y-16383345D01*
X43255220Y-16315072D01*
X43304625Y-16265667D01*
X43364049Y-16250499D01*
X44495948Y-16250499D01*
X44562986Y-16270184D01*
G37*
%TD.AperFunction*%
%TA.AperFunction,NonConductor*%
G36*
X39428870Y-16254293D02*
G01*
X39442304Y-16253333D01*
X39461739Y-16263945D01*
X39482986Y-16270184D01*
X39491805Y-16280362D01*
X39503627Y-16286817D01*
X39514240Y-16306253D01*
X39528741Y-16322988D01*
X39530657Y-16336318D01*
X39537113Y-16348140D01*
X39535533Y-16370227D01*
X39538685Y-16392146D01*
X39532981Y-16405916D01*
X39532129Y-16417832D01*
X39515215Y-16448809D01*
X39445070Y-16542512D01*
X39445069Y-16542514D01*
X39395782Y-16674661D01*
X39395781Y-16674665D01*
X39389500Y-16733085D01*
X39389500Y-16733092D01*
X39389500Y-16733093D01*
X39389500Y-18346912D01*
X39389501Y-18346918D01*
X39395781Y-18405337D01*
X39405788Y-18432168D01*
X39410772Y-18501860D01*
X39377286Y-18563183D01*
X39315962Y-18596667D01*
X39289606Y-18599500D01*
X38410394Y-18599500D01*
X38343355Y-18579815D01*
X38297600Y-18527011D01*
X38287656Y-18457853D01*
X38294212Y-18432168D01*
X38304217Y-18405340D01*
X38304216Y-18405340D01*
X38304219Y-18405335D01*
X38310500Y-18346915D01*
X38310499Y-16733086D01*
X38304219Y-16674665D01*
X38296774Y-16654705D01*
X38254930Y-16542514D01*
X38254929Y-16542512D01*
X38254929Y-16542511D01*
X38197030Y-16465167D01*
X38184785Y-16448809D01*
X38160368Y-16383345D01*
X38175220Y-16315072D01*
X38224625Y-16265667D01*
X38284049Y-16250499D01*
X39415948Y-16250499D01*
X39428870Y-16254293D01*
G37*
%TD.AperFunction*%
%TA.AperFunction,NonConductor*%
G36*
X34402986Y-16270184D02*
G01*
X34448741Y-16322988D01*
X34458685Y-16392146D01*
X34435215Y-16448809D01*
X34365070Y-16542512D01*
X34365069Y-16542514D01*
X34315782Y-16674661D01*
X34315781Y-16674665D01*
X34309500Y-16733085D01*
X34309500Y-16733092D01*
X34309500Y-16733093D01*
X34309500Y-18346912D01*
X34309501Y-18346918D01*
X34315781Y-18405337D01*
X34325788Y-18432168D01*
X34330772Y-18501860D01*
X34297286Y-18563183D01*
X34235962Y-18596667D01*
X34209606Y-18599500D01*
X33330394Y-18599500D01*
X33263355Y-18579815D01*
X33217600Y-18527011D01*
X33207656Y-18457853D01*
X33214212Y-18432168D01*
X33224217Y-18405340D01*
X33224216Y-18405340D01*
X33224219Y-18405335D01*
X33230500Y-18346915D01*
X33230499Y-16733086D01*
X33224219Y-16674665D01*
X33216774Y-16654705D01*
X33174930Y-16542514D01*
X33174929Y-16542512D01*
X33174929Y-16542511D01*
X33117030Y-16465167D01*
X33104785Y-16448809D01*
X33080368Y-16383345D01*
X33095220Y-16315072D01*
X33144625Y-16265667D01*
X33204049Y-16250499D01*
X34335948Y-16250499D01*
X34402986Y-16270184D01*
G37*
%TD.AperFunction*%
%TA.AperFunction,NonConductor*%
G36*
X29170418Y-16458643D02*
G01*
X29200408Y-16465167D01*
X29203639Y-16468398D01*
X29208021Y-16469685D01*
X29228106Y-16492865D01*
X29249814Y-16514572D01*
X29250785Y-16519037D01*
X29253776Y-16522489D01*
X29258142Y-16552857D01*
X29264666Y-16582845D01*
X29263334Y-16588966D01*
X29263720Y-16591647D01*
X29257164Y-16617333D01*
X29243226Y-16654705D01*
X29235781Y-16674665D01*
X29229500Y-16733085D01*
X29229500Y-16733092D01*
X29229500Y-16733093D01*
X29229500Y-18346912D01*
X29229501Y-18346918D01*
X29235781Y-18405337D01*
X29245788Y-18432168D01*
X29250772Y-18501860D01*
X29217286Y-18563183D01*
X29155962Y-18596667D01*
X29129606Y-18599500D01*
X28250394Y-18599500D01*
X28183355Y-18579815D01*
X28137600Y-18527011D01*
X28127656Y-18457853D01*
X28134212Y-18432168D01*
X28144217Y-18405340D01*
X28144216Y-18405340D01*
X28144219Y-18405335D01*
X28150500Y-18346915D01*
X28150499Y-16733086D01*
X28144219Y-16674665D01*
X28136774Y-16654705D01*
X28122836Y-16617333D01*
X28117852Y-16547641D01*
X28151337Y-16486318D01*
X28212661Y-16452834D01*
X28239018Y-16450000D01*
X29140982Y-16450000D01*
X29170418Y-16458643D01*
G37*
%TD.AperFunction*%
%TA.AperFunction,NonConductor*%
G36*
X24242986Y-16270184D02*
G01*
X24288741Y-16322988D01*
X24298685Y-16392146D01*
X24275215Y-16448809D01*
X24205070Y-16542512D01*
X24205069Y-16542514D01*
X24155782Y-16674661D01*
X24155781Y-16674665D01*
X24149500Y-16733085D01*
X24149500Y-16733092D01*
X24149500Y-16733093D01*
X24149500Y-18346912D01*
X24149501Y-18346918D01*
X24155781Y-18405337D01*
X24165788Y-18432168D01*
X24170772Y-18501860D01*
X24137286Y-18563183D01*
X24075962Y-18596667D01*
X24049606Y-18599500D01*
X23170394Y-18599500D01*
X23103355Y-18579815D01*
X23057600Y-18527011D01*
X23047656Y-18457853D01*
X23054212Y-18432168D01*
X23064217Y-18405340D01*
X23064216Y-18405340D01*
X23064219Y-18405335D01*
X23070500Y-18346915D01*
X23070499Y-16733086D01*
X23064219Y-16674665D01*
X23056774Y-16654705D01*
X23014930Y-16542514D01*
X23014929Y-16542512D01*
X23014929Y-16542511D01*
X22957030Y-16465167D01*
X22944785Y-16448809D01*
X22920368Y-16383345D01*
X22935220Y-16315072D01*
X22984625Y-16265667D01*
X23044049Y-16250499D01*
X24175948Y-16250499D01*
X24242986Y-16270184D01*
G37*
%TD.AperFunction*%
%TA.AperFunction,NonConductor*%
G36*
X19108870Y-16254293D02*
G01*
X19122304Y-16253333D01*
X19141739Y-16263945D01*
X19162986Y-16270184D01*
X19171805Y-16280362D01*
X19183627Y-16286817D01*
X19194240Y-16306253D01*
X19208741Y-16322988D01*
X19210657Y-16336318D01*
X19217113Y-16348140D01*
X19215533Y-16370227D01*
X19218685Y-16392146D01*
X19212981Y-16405916D01*
X19212129Y-16417832D01*
X19195215Y-16448809D01*
X19125070Y-16542512D01*
X19125069Y-16542514D01*
X19075782Y-16674661D01*
X19075781Y-16674665D01*
X19069500Y-16733085D01*
X19069500Y-16733092D01*
X19069500Y-16733093D01*
X19069500Y-18346912D01*
X19069501Y-18346918D01*
X19075781Y-18405337D01*
X19085788Y-18432168D01*
X19090772Y-18501860D01*
X19057286Y-18563183D01*
X18995962Y-18596667D01*
X18969606Y-18599500D01*
X18090394Y-18599500D01*
X18023355Y-18579815D01*
X17977600Y-18527011D01*
X17967656Y-18457853D01*
X17974212Y-18432168D01*
X17984217Y-18405340D01*
X17984216Y-18405340D01*
X17984219Y-18405335D01*
X17990500Y-18346915D01*
X17990499Y-16733086D01*
X17984219Y-16674665D01*
X17976774Y-16654705D01*
X17934930Y-16542514D01*
X17934929Y-16542512D01*
X17934929Y-16542511D01*
X17877030Y-16465167D01*
X17864785Y-16448809D01*
X17840368Y-16383345D01*
X17855220Y-16315072D01*
X17904625Y-16265667D01*
X17964049Y-16250499D01*
X19095948Y-16250499D01*
X19108870Y-16254293D01*
G37*
%TD.AperFunction*%
%TA.AperFunction,NonConductor*%
G36*
X14082987Y-16270184D02*
G01*
X14128742Y-16322988D01*
X14138686Y-16392146D01*
X14115215Y-16448809D01*
X14045073Y-16542507D01*
X14045069Y-16542514D01*
X13995782Y-16674661D01*
X13995781Y-16674665D01*
X13989500Y-16733085D01*
X13989500Y-16733092D01*
X13989500Y-16733093D01*
X13989500Y-18346912D01*
X13989501Y-18346918D01*
X13995781Y-18405337D01*
X14005788Y-18432168D01*
X14010772Y-18501860D01*
X13977286Y-18563183D01*
X13915962Y-18596667D01*
X13889606Y-18599500D01*
X13217918Y-18599500D01*
X13150879Y-18579815D01*
X13105124Y-18527011D01*
X13095180Y-18457853D01*
X13099532Y-18438611D01*
X13103681Y-18425292D01*
X13103683Y-18425287D01*
X13110000Y-18355769D01*
X13110000Y-16724230D01*
X13103683Y-16654712D01*
X13103681Y-16654705D01*
X13053833Y-16494738D01*
X13053830Y-16494732D01*
X13019927Y-16438648D01*
X13002091Y-16371093D01*
X13023609Y-16304620D01*
X13077650Y-16260332D01*
X13126041Y-16250499D01*
X14015949Y-16250499D01*
X14082987Y-16270184D01*
G37*
%TD.AperFunction*%
M02*
