%TF.GenerationSoftware,KiCad,Pcbnew,9.0.7*%
%TF.CreationDate,2026-05-23T10:24:24+02:00*%
%TF.ProjectId,BarePi_MiniKey,42617265-5069-45f4-9d69-6e694b65792e,rev?*%
%TF.SameCoordinates,Original*%
%TF.FileFunction,Legend,Bot*%
%TF.FilePolarity,Positive*%
%FSLAX46Y46*%
G04 Gerber Fmt 4.6, Leading zero omitted, Abs format (unit mm)*
G04 Created by KiCad (PCBNEW 9.0.7) date 2026-05-23 10:24:24*
%MOMM*%
%LPD*%
G01*
G04 APERTURE LIST*
%ADD10C,0.150000*%
%ADD11C,0.120000*%
G04 APERTURE END LIST*
D10*
X61924666Y-16997580D02*
X61972285Y-17045200D01*
X61972285Y-17045200D02*
X62115142Y-17092819D01*
X62115142Y-17092819D02*
X62210380Y-17092819D01*
X62210380Y-17092819D02*
X62353237Y-17045200D01*
X62353237Y-17045200D02*
X62448475Y-16949961D01*
X62448475Y-16949961D02*
X62496094Y-16854723D01*
X62496094Y-16854723D02*
X62543713Y-16664247D01*
X62543713Y-16664247D02*
X62543713Y-16521390D01*
X62543713Y-16521390D02*
X62496094Y-16330914D01*
X62496094Y-16330914D02*
X62448475Y-16235676D01*
X62448475Y-16235676D02*
X62353237Y-16140438D01*
X62353237Y-16140438D02*
X62210380Y-16092819D01*
X62210380Y-16092819D02*
X62115142Y-16092819D01*
X62115142Y-16092819D02*
X61972285Y-16140438D01*
X61972285Y-16140438D02*
X61924666Y-16188057D01*
X60972285Y-17092819D02*
X61543713Y-17092819D01*
X61257999Y-17092819D02*
X61257999Y-16092819D01*
X61257999Y-16092819D02*
X61353237Y-16235676D01*
X61353237Y-16235676D02*
X61448475Y-16330914D01*
X61448475Y-16330914D02*
X61543713Y-16378533D01*
X48739819Y-14036595D02*
X49549342Y-14036595D01*
X49549342Y-14036595D02*
X49644580Y-14084214D01*
X49644580Y-14084214D02*
X49692200Y-14131833D01*
X49692200Y-14131833D02*
X49739819Y-14227071D01*
X49739819Y-14227071D02*
X49739819Y-14417547D01*
X49739819Y-14417547D02*
X49692200Y-14512785D01*
X49692200Y-14512785D02*
X49644580Y-14560404D01*
X49644580Y-14560404D02*
X49549342Y-14608023D01*
X49549342Y-14608023D02*
X48739819Y-14608023D01*
X49739819Y-15608023D02*
X49739819Y-15036595D01*
X49739819Y-15322309D02*
X48739819Y-15322309D01*
X48739819Y-15322309D02*
X48882676Y-15227071D01*
X48882676Y-15227071D02*
X48977914Y-15131833D01*
X48977914Y-15131833D02*
X49025533Y-15036595D01*
X19016666Y-16804819D02*
X19349999Y-16328628D01*
X19588094Y-16804819D02*
X19588094Y-15804819D01*
X19588094Y-15804819D02*
X19207142Y-15804819D01*
X19207142Y-15804819D02*
X19111904Y-15852438D01*
X19111904Y-15852438D02*
X19064285Y-15900057D01*
X19064285Y-15900057D02*
X19016666Y-15995295D01*
X19016666Y-15995295D02*
X19016666Y-16138152D01*
X19016666Y-16138152D02*
X19064285Y-16233390D01*
X19064285Y-16233390D02*
X19111904Y-16281009D01*
X19111904Y-16281009D02*
X19207142Y-16328628D01*
X19207142Y-16328628D02*
X19588094Y-16328628D01*
X18064285Y-16804819D02*
X18635713Y-16804819D01*
X18349999Y-16804819D02*
X18349999Y-15804819D01*
X18349999Y-15804819D02*
X18445237Y-15947676D01*
X18445237Y-15947676D02*
X18540475Y-16042914D01*
X18540475Y-16042914D02*
X18635713Y-16090533D01*
X9403333Y-13073819D02*
X9403333Y-13788104D01*
X9403333Y-13788104D02*
X9450952Y-13930961D01*
X9450952Y-13930961D02*
X9546190Y-14026200D01*
X9546190Y-14026200D02*
X9689047Y-14073819D01*
X9689047Y-14073819D02*
X9784285Y-14073819D01*
X8927142Y-14073819D02*
X8927142Y-13073819D01*
X8927142Y-13073819D02*
X8546190Y-13073819D01*
X8546190Y-13073819D02*
X8450952Y-13121438D01*
X8450952Y-13121438D02*
X8403333Y-13169057D01*
X8403333Y-13169057D02*
X8355714Y-13264295D01*
X8355714Y-13264295D02*
X8355714Y-13407152D01*
X8355714Y-13407152D02*
X8403333Y-13502390D01*
X8403333Y-13502390D02*
X8450952Y-13550009D01*
X8450952Y-13550009D02*
X8546190Y-13597628D01*
X8546190Y-13597628D02*
X8927142Y-13597628D01*
X7403333Y-14073819D02*
X7974761Y-14073819D01*
X7689047Y-14073819D02*
X7689047Y-13073819D01*
X7689047Y-13073819D02*
X7784285Y-13216676D01*
X7784285Y-13216676D02*
X7879523Y-13311914D01*
X7879523Y-13311914D02*
X7974761Y-13359533D01*
X9690333Y-15622819D02*
X9690333Y-16337104D01*
X9690333Y-16337104D02*
X9737952Y-16479961D01*
X9737952Y-16479961D02*
X9833190Y-16575200D01*
X9833190Y-16575200D02*
X9976047Y-16622819D01*
X9976047Y-16622819D02*
X10071285Y-16622819D01*
X9214142Y-16622819D02*
X9214142Y-15622819D01*
X9214142Y-15622819D02*
X8833190Y-15622819D01*
X8833190Y-15622819D02*
X8737952Y-15670438D01*
X8737952Y-15670438D02*
X8690333Y-15718057D01*
X8690333Y-15718057D02*
X8642714Y-15813295D01*
X8642714Y-15813295D02*
X8642714Y-15956152D01*
X8642714Y-15956152D02*
X8690333Y-16051390D01*
X8690333Y-16051390D02*
X8737952Y-16099009D01*
X8737952Y-16099009D02*
X8833190Y-16146628D01*
X8833190Y-16146628D02*
X9214142Y-16146628D01*
X8261761Y-15718057D02*
X8214142Y-15670438D01*
X8214142Y-15670438D02*
X8118904Y-15622819D01*
X8118904Y-15622819D02*
X7880809Y-15622819D01*
X7880809Y-15622819D02*
X7785571Y-15670438D01*
X7785571Y-15670438D02*
X7737952Y-15718057D01*
X7737952Y-15718057D02*
X7690333Y-15813295D01*
X7690333Y-15813295D02*
X7690333Y-15908533D01*
X7690333Y-15908533D02*
X7737952Y-16051390D01*
X7737952Y-16051390D02*
X8309380Y-16622819D01*
X8309380Y-16622819D02*
X7690333Y-16622819D01*
D11*
%TO.C,C1*%
X60538748Y-12865000D02*
X61961252Y-12865000D01*
X60538748Y-15585000D02*
X61961252Y-15585000D01*
%TO.C,R1*%
X15940000Y-16502064D02*
X15940000Y-16047936D01*
X17410000Y-16502064D02*
X17410000Y-16047936D01*
%TO.C,JP1*%
X4061000Y-13295000D02*
X4061000Y-13895000D01*
X4761000Y-14595000D02*
X6161000Y-14595000D01*
X6161000Y-12595000D02*
X4761000Y-12595000D01*
X6861000Y-13895000D02*
X6861000Y-13295000D01*
X4061000Y-13295000D02*
G75*
G02*
X4761000Y-12595000I700000J0D01*
G01*
X4761000Y-14595000D02*
G75*
G02*
X4061000Y-13895000I0J700000D01*
G01*
X6161000Y-12595000D02*
G75*
G02*
X6861000Y-13295000I1J-699999D01*
G01*
X6861000Y-13895000D02*
G75*
G02*
X6161000Y-14595000I-699999J-1D01*
G01*
%TO.C,JP2*%
X4061000Y-16845000D02*
X4061000Y-17445000D01*
X4761000Y-18145000D02*
X6161000Y-18145000D01*
X6161000Y-16145000D02*
X4761000Y-16145000D01*
X6861000Y-17445000D02*
X6861000Y-16845000D01*
X4061000Y-16845000D02*
G75*
G02*
X4761000Y-16145000I700000J0D01*
G01*
X4761000Y-18145000D02*
G75*
G02*
X4061000Y-17445000I0J700000D01*
G01*
X6161000Y-16145000D02*
G75*
G02*
X6861000Y-16845000I1J-699999D01*
G01*
X6861000Y-17445000D02*
G75*
G02*
X6161000Y-18145000I-699999J-1D01*
G01*
%TD*%
M02*
