%TF.GenerationSoftware,KiCad,Pcbnew,9.0.7*%
%TF.CreationDate,2026-05-23T10:24:24+02:00*%
%TF.ProjectId,BarePi_MiniKey,42617265-5069-45f4-9d69-6e694b65792e,rev?*%
%TF.SameCoordinates,Original*%
%TF.FileFunction,Soldermask,Bot*%
%TF.FilePolarity,Negative*%
%FSLAX46Y46*%
G04 Gerber Fmt 4.6, Leading zero omitted, Abs format (unit mm)*
G04 Created by KiCad (PCBNEW 9.0.7) date 2026-05-23 10:24:24*
%MOMM*%
%LPD*%
G01*
G04 APERTURE LIST*
G04 Aperture macros list*
%AMRoundRect*
0 Rectangle with rounded corners*
0 $1 Rounding radius*
0 $2 $3 $4 $5 $6 $7 $8 $9 X,Y pos of 4 corners*
0 Add a 4 corners polygon primitive as box body*
4,1,4,$2,$3,$4,$5,$6,$7,$8,$9,$2,$3,0*
0 Add four circle primitives for the rounded corners*
1,1,$1+$1,$2,$3*
1,1,$1+$1,$4,$5*
1,1,$1+$1,$6,$7*
1,1,$1+$1,$8,$9*
0 Add four rect primitives between the rounded corners*
20,1,$1+$1,$2,$3,$4,$5,0*
20,1,$1+$1,$4,$5,$6,$7,0*
20,1,$1+$1,$6,$7,$8,$9,0*
20,1,$1+$1,$8,$9,$2,$3,0*%
%AMOutline4P*
0 Free polygon, 4 corners , with rotation*
0 The origin of the aperture is its center*
0 number of corners: always 4*
0 $1 to $8 corner X, Y*
0 $9 Rotation angle, in degrees counterclockwise*
0 create outline with 4 corners*
4,1,4,$1,$2,$3,$4,$5,$6,$7,$8,$1,$2,$9*%
%AMFreePoly0*
4,1,23,0.500000,-0.750000,0.000000,-0.750000,0.000000,-0.745722,-0.065263,-0.745722,-0.191342,-0.711940,-0.304381,-0.646677,-0.396677,-0.554381,-0.461940,-0.441342,-0.495722,-0.315263,-0.495722,-0.250000,-0.500000,-0.250000,-0.500000,0.250000,-0.495722,0.250000,-0.495722,0.315263,-0.461940,0.441342,-0.396677,0.554381,-0.304381,0.646677,-0.191342,0.711940,-0.065263,0.745722,0.000000,0.745722,
0.000000,0.750000,0.500000,0.750000,0.500000,-0.750000,0.500000,-0.750000,$1*%
%AMFreePoly1*
4,1,23,0.000000,0.745722,0.065263,0.745722,0.191342,0.711940,0.304381,0.646677,0.396677,0.554381,0.461940,0.441342,0.495722,0.315263,0.495722,0.250000,0.500000,0.250000,0.500000,-0.250000,0.495722,-0.250000,0.495722,-0.315263,0.461940,-0.441342,0.396677,-0.554381,0.304381,-0.646677,0.191342,-0.711940,0.065263,-0.745722,0.000000,-0.745722,0.000000,-0.750000,-0.500000,-0.750000,
-0.500000,0.750000,0.000000,0.750000,0.000000,0.745722,0.000000,0.745722,$1*%
G04 Aperture macros list end*
%ADD10RoundRect,0.700000X-0.550000X0.550000X-0.550000X-0.550000X0.550000X-0.550000X0.550000X0.550000X0*%
%ADD11RoundRect,0.700000X0.550000X-0.550000X0.550000X0.550000X-0.550000X0.550000X-0.550000X-0.550000X0*%
%ADD12C,3.000000*%
%ADD13Outline4P,-1.600000X-0.800000X1.600000X-0.800000X1.600000X0.800000X-1.600000X0.800000X90.000000*%
%ADD14O,1.600000X3.200000*%
%ADD15Outline4P,-1.500000X-0.800000X1.500000X-0.800000X1.500000X0.800000X-1.500000X0.800000X270.000000*%
%ADD16O,1.600000X3.000000*%
%ADD17RoundRect,0.250000X-0.412500X-1.100000X0.412500X-1.100000X0.412500X1.100000X-0.412500X1.100000X0*%
%ADD18RoundRect,0.100000X0.100000X-0.637500X0.100000X0.637500X-0.100000X0.637500X-0.100000X-0.637500X0*%
%ADD19RoundRect,0.250000X0.450000X-0.350000X0.450000X0.350000X-0.450000X0.350000X-0.450000X-0.350000X0*%
%ADD20FreePoly0,180.000000*%
%ADD21FreePoly1,180.000000*%
G04 APERTURE END LIST*
%TO.C,JP1*%
G36*
X5611000Y-12845000D02*
G01*
X5311000Y-12845000D01*
X5311000Y-14345000D01*
X5611000Y-14345000D01*
X5611000Y-12845000D01*
G37*
%TO.C,JP2*%
G36*
X5611000Y-16395000D02*
G01*
X5311000Y-16395000D01*
X5311000Y-17895000D01*
X5611000Y-17895000D01*
X5611000Y-16395000D01*
G37*
%TD*%
D10*
%TO.C,SW9*%
X86500000Y-27250000D03*
X80000000Y-27250000D03*
X86500000Y-22750000D03*
X80000000Y-22750000D03*
%TD*%
D11*
%TO.C,SW47*%
X76750000Y-60750000D03*
X83250000Y-60750000D03*
X76750000Y-65250000D03*
X83250000Y-65250000D03*
%TD*%
%TO.C,SW25*%
X42000000Y-41750000D03*
X48500000Y-41750000D03*
X42000000Y-46250000D03*
X48500000Y-46250000D03*
%TD*%
D10*
%TO.C,SW26*%
X58000000Y-46250000D03*
X51500000Y-46250000D03*
X58000000Y-41750000D03*
X51500000Y-41750000D03*
%TD*%
D11*
%TO.C,SW37*%
X61000000Y-51250000D03*
X67500000Y-51250000D03*
X61000000Y-55750000D03*
X67500000Y-55750000D03*
%TD*%
%TO.C,SW22*%
X13500000Y-41750000D03*
X20000000Y-41750000D03*
X13500000Y-46250000D03*
X20000000Y-46250000D03*
%TD*%
D10*
%TO.C,SW41*%
X20000000Y-65250000D03*
X13500000Y-65250000D03*
X20000000Y-60750000D03*
X13500000Y-60750000D03*
%TD*%
D11*
%TO.C,SW35*%
X42000000Y-51250000D03*
X48500000Y-51250000D03*
X42000000Y-55750000D03*
X48500000Y-55750000D03*
%TD*%
D12*
%TO.C,REF\u002A\u002A*%
X96500000Y-3500000D03*
%TD*%
D11*
%TO.C,SW2*%
X13500000Y-22750000D03*
X20000000Y-22750000D03*
X13500000Y-27250000D03*
X20000000Y-27250000D03*
%TD*%
D10*
%TO.C,SW33*%
X29500000Y-55750000D03*
X23000000Y-55750000D03*
X29500000Y-51250000D03*
X23000000Y-51250000D03*
%TD*%
D12*
%TO.C,REF\u002A\u002A*%
X3500000Y-71500000D03*
%TD*%
D10*
%TO.C,SW31*%
X10500000Y-55750000D03*
X4000000Y-55750000D03*
X10500000Y-51250000D03*
X4000000Y-51250000D03*
%TD*%
%TO.C,SW18*%
X77000000Y-36750000D03*
X70500000Y-36750000D03*
X77000000Y-32250000D03*
X70500000Y-32250000D03*
%TD*%
D11*
%TO.C,SW23*%
X23000000Y-41750000D03*
X29500000Y-41750000D03*
X23000000Y-46250000D03*
X29500000Y-46250000D03*
%TD*%
%TO.C,SW1*%
X4000000Y-22750000D03*
X10500000Y-22750000D03*
X4000000Y-27250000D03*
X10500000Y-27250000D03*
%TD*%
%TO.C,SW43*%
X33250000Y-60750000D03*
X39750000Y-60750000D03*
X33250000Y-65250000D03*
X39750000Y-65250000D03*
%TD*%
D10*
%TO.C,SW6*%
X58000000Y-27250000D03*
X51500000Y-27250000D03*
X58000000Y-22750000D03*
X51500000Y-22750000D03*
%TD*%
D11*
%TO.C,SW14*%
X32500000Y-32250000D03*
X39000000Y-32250000D03*
X32500000Y-36750000D03*
X39000000Y-36750000D03*
%TD*%
%TO.C,SW12*%
X13500000Y-32250000D03*
X20000000Y-32250000D03*
X13500000Y-36750000D03*
X20000000Y-36750000D03*
%TD*%
D13*
%TO.C,J2*%
X12573000Y-11000000D03*
D14*
X15113000Y-11000000D03*
X17653000Y-11000000D03*
%TD*%
D10*
%TO.C,SW10*%
X96000000Y-27250000D03*
X89500000Y-27250000D03*
X96000000Y-22750000D03*
X89500000Y-22750000D03*
%TD*%
%TO.C,SW29*%
X86500000Y-46250000D03*
X80000000Y-46250000D03*
X86500000Y-41750000D03*
X80000000Y-41750000D03*
%TD*%
D11*
%TO.C,SW15*%
X42000000Y-32250000D03*
X48500000Y-32250000D03*
X42000000Y-36750000D03*
X48500000Y-36750000D03*
%TD*%
D10*
%TO.C,SW19*%
X86500000Y-36750000D03*
X80000000Y-36750000D03*
X86500000Y-32250000D03*
X80000000Y-32250000D03*
%TD*%
D11*
%TO.C,SW38*%
X76750000Y-51250000D03*
X83250000Y-51250000D03*
X76750000Y-55750000D03*
X83250000Y-55750000D03*
%TD*%
D10*
%TO.C,SW27*%
X67500000Y-46250000D03*
X61000000Y-46250000D03*
X67500000Y-41750000D03*
X61000000Y-41750000D03*
%TD*%
%TO.C,SW32*%
X20000000Y-55750000D03*
X13500000Y-55750000D03*
X20000000Y-51250000D03*
X13500000Y-51250000D03*
%TD*%
%TO.C,SW20*%
X96000000Y-36750000D03*
X89500000Y-36750000D03*
X96000000Y-32250000D03*
X89500000Y-32250000D03*
%TD*%
%TO.C,SW28*%
X77000000Y-46250000D03*
X70500000Y-46250000D03*
X77000000Y-41750000D03*
X70500000Y-41750000D03*
%TD*%
D11*
%TO.C,SW34*%
X32500000Y-51250000D03*
X39000000Y-51250000D03*
X32500000Y-55750000D03*
X39000000Y-55750000D03*
%TD*%
D10*
%TO.C,SW7*%
X67500000Y-27250000D03*
X61000000Y-27250000D03*
X67500000Y-22750000D03*
X61000000Y-22750000D03*
%TD*%
D11*
%TO.C,SW4*%
X32500000Y-22750000D03*
X39000000Y-22750000D03*
X32500000Y-27250000D03*
X39000000Y-27250000D03*
%TD*%
%TO.C,SW39*%
X89500000Y-51250000D03*
X96000000Y-51250000D03*
X89500000Y-55750000D03*
X96000000Y-55750000D03*
%TD*%
%TO.C,SW5*%
X42000000Y-22750000D03*
X48500000Y-22750000D03*
X42000000Y-27250000D03*
X48500000Y-27250000D03*
%TD*%
%TO.C,SW45*%
X43500000Y-60750000D03*
X50000000Y-60750000D03*
X43500000Y-65250000D03*
X50000000Y-65250000D03*
%TD*%
%TO.C,SW21*%
X4000000Y-41750000D03*
X10500000Y-41750000D03*
X4000000Y-46250000D03*
X10500000Y-46250000D03*
%TD*%
D10*
%TO.C,SW30*%
X96000000Y-46250000D03*
X89500000Y-46250000D03*
X96000000Y-41750000D03*
X89500000Y-41750000D03*
%TD*%
D11*
%TO.C,SW11*%
X4000000Y-32250000D03*
X10500000Y-32250000D03*
X4000000Y-36750000D03*
X10500000Y-36750000D03*
%TD*%
D12*
%TO.C,REF\u002A\u002A*%
X96500000Y-71500000D03*
%TD*%
D11*
%TO.C,SW40*%
X4000000Y-60750000D03*
X10500000Y-60750000D03*
X4000000Y-65250000D03*
X10500000Y-65250000D03*
%TD*%
D10*
%TO.C,SW42*%
X29500000Y-65250000D03*
X23000000Y-65250000D03*
X29500000Y-60750000D03*
X23000000Y-60750000D03*
%TD*%
D11*
%TO.C,SW3*%
X23000000Y-22750000D03*
X29500000Y-22750000D03*
X23000000Y-27250000D03*
X29500000Y-27250000D03*
%TD*%
%TO.C,SW36*%
X51500000Y-51250000D03*
X58000000Y-51250000D03*
X51500000Y-55750000D03*
X58000000Y-55750000D03*
%TD*%
%TO.C,SW44*%
X53000000Y-60750000D03*
X59500000Y-60750000D03*
X53000000Y-65250000D03*
X59500000Y-65250000D03*
%TD*%
D10*
%TO.C,SW8*%
X77000000Y-27250000D03*
X70500000Y-27250000D03*
X77000000Y-22750000D03*
X70500000Y-22750000D03*
%TD*%
D15*
%TO.C,J1*%
X25870000Y-3830000D03*
D16*
X25870000Y-7170000D03*
X28410000Y-3830000D03*
X28410000Y-7170000D03*
X30950000Y-3830000D03*
X30950000Y-7170000D03*
X33490000Y-3830000D03*
X33490000Y-7170000D03*
X36030000Y-3830000D03*
X36030000Y-7170000D03*
X38570000Y-3830000D03*
X38570000Y-7170000D03*
X41110000Y-3830000D03*
X41110000Y-7170000D03*
X43650000Y-3830000D03*
X43650000Y-7170000D03*
X46190000Y-3830000D03*
X46190000Y-7170000D03*
X48730000Y-3830000D03*
X48730000Y-7170000D03*
X51270000Y-3830000D03*
X51270000Y-7170000D03*
X53810000Y-3830000D03*
X53810000Y-7170000D03*
X56350000Y-3830000D03*
X56350000Y-7170000D03*
X58890000Y-3830000D03*
X58890000Y-7170000D03*
X61430000Y-3830000D03*
X61430000Y-7170000D03*
X63970000Y-3830000D03*
X63970000Y-7170000D03*
X66510000Y-3830000D03*
X66510000Y-7170000D03*
X69050000Y-3830000D03*
X69050000Y-7170000D03*
X71590000Y-3830000D03*
X71590000Y-7170000D03*
X74130000Y-3830000D03*
X74130000Y-7170000D03*
%TD*%
D10*
%TO.C,SW16*%
X58000000Y-36750000D03*
X51500000Y-36750000D03*
X58000000Y-32250000D03*
X51500000Y-32250000D03*
%TD*%
D11*
%TO.C,SW48*%
X89500000Y-60750000D03*
X96000000Y-60750000D03*
X89500000Y-65250000D03*
X96000000Y-65250000D03*
%TD*%
%TO.C,SW24*%
X32500000Y-41750000D03*
X39000000Y-41750000D03*
X32500000Y-46250000D03*
X39000000Y-46250000D03*
%TD*%
D12*
%TO.C,REF\u002A\u002A*%
X3500000Y-3500000D03*
%TD*%
D11*
%TO.C,SW46*%
X64000000Y-60750000D03*
X70500000Y-60750000D03*
X64000000Y-65250000D03*
X70500000Y-65250000D03*
%TD*%
%TO.C,SW13*%
X23000000Y-32250000D03*
X29500000Y-32250000D03*
X23000000Y-36750000D03*
X29500000Y-36750000D03*
%TD*%
D10*
%TO.C,SW17*%
X67500000Y-36750000D03*
X61000000Y-36750000D03*
X67500000Y-32250000D03*
X61000000Y-32250000D03*
%TD*%
D17*
%TO.C,C1*%
X59687500Y-14225000D03*
X62812500Y-14225000D03*
%TD*%
D18*
%TO.C,U1*%
X48010000Y-17661000D03*
X47360000Y-17661000D03*
X46710000Y-17661000D03*
X46060000Y-17661000D03*
X45410000Y-17661000D03*
X44760000Y-17661000D03*
X44110000Y-17661000D03*
X43460000Y-17661000D03*
X42810000Y-17661000D03*
X42160000Y-17661000D03*
X42160000Y-11936000D03*
X42810000Y-11936000D03*
X43460000Y-11936000D03*
X44110000Y-11936000D03*
X44760000Y-11936000D03*
X45410000Y-11936000D03*
X46060000Y-11936000D03*
X46710000Y-11936000D03*
X47360000Y-11936000D03*
X48010000Y-11936000D03*
%TD*%
D19*
%TO.C,R1*%
X16675000Y-17275000D03*
X16675000Y-15275000D03*
%TD*%
D20*
%TO.C,JP1*%
X6111000Y-13595000D03*
D21*
X4811000Y-13595000D03*
%TD*%
D20*
%TO.C,JP2*%
X6111000Y-17145000D03*
D21*
X4811000Y-17145000D03*
%TD*%
M02*
