%TF.GenerationSoftware,KiCad,Pcbnew,9.0.7*%
%TF.CreationDate,2026-05-23T10:24:24+02:00*%
%TF.ProjectId,BarePi_MiniKey,42617265-5069-45f4-9d69-6e694b65792e,rev?*%
%TF.SameCoordinates,Original*%
%TF.FileFunction,Other,User*%
%FSLAX46Y46*%
G04 Gerber Fmt 4.6, Leading zero omitted, Abs format (unit mm)*
G04 Created by KiCad (PCBNEW 9.0.7) date 2026-05-23 10:24:24*
%MOMM*%
%LPD*%
G01*
G04 APERTURE LIST*
%ADD10C,0.050000*%
G04 APERTURE END LIST*
%TO.C,C1*%
D10*
X58770000Y-15825000D02*
X63730000Y-15825000D01*
X63730000Y-12625000D01*
X58770000Y-12625000D01*
X58770000Y-15825000D01*
%TO.C,U1*%
X41585000Y-12348500D02*
X41585000Y-17248500D01*
X41585000Y-17248500D02*
X41705000Y-17248500D01*
X41705000Y-10948500D02*
X41705000Y-12348500D01*
X41705000Y-12348500D02*
X41585000Y-12348500D01*
X41705000Y-17248500D02*
X41705000Y-18648500D01*
X41705000Y-18648500D02*
X48465000Y-18648500D01*
X48465000Y-10948500D02*
X41705000Y-10948500D01*
X48465000Y-12348500D02*
X48465000Y-10948500D01*
X48465000Y-17248500D02*
X48585000Y-17248500D01*
X48465000Y-18648500D02*
X48465000Y-17248500D01*
X48585000Y-12348500D02*
X48465000Y-12348500D01*
X48585000Y-17248500D02*
X48585000Y-12348500D01*
%TO.C,R1*%
X17625000Y-18125000D02*
X15725000Y-18125000D01*
X15725000Y-14425000D01*
X17625000Y-14425000D01*
X17625000Y-18125000D01*
%TO.C,JP1*%
X3811000Y-14845000D02*
X3811000Y-12345000D01*
X3811000Y-14845000D02*
X7111000Y-14845000D01*
X7111000Y-12345000D02*
X3811000Y-12345000D01*
X7111000Y-12345000D02*
X7111000Y-14845000D01*
%TO.C,JP2*%
X3811000Y-18395000D02*
X3811000Y-15895000D01*
X3811000Y-18395000D02*
X7111000Y-18395000D01*
X7111000Y-15895000D02*
X3811000Y-15895000D01*
X7111000Y-15895000D02*
X7111000Y-18395000D01*
%TD*%
M02*
