M48
; DRILL file {KiCad 9.0.7} date 2026-05-06T21:01:07+0200
; FORMAT={-:-/ absolute / metric / decimal}
; #@! TF.CreationDate,2026-05-06T21:01:07+02:00
; #@! TF.GenerationSoftware,Kicad,Pcbnew,9.0.7
; #@! TF.FileFunction,Plated,1,2,PTH
FMAT,2
METRIC
; #@! TA.AperFunction,Plated,PTH,ViaDrill
T1C0.600
; #@! TA.AperFunction,Plated,PTH,ComponentDrill
T2C0.750
; #@! TA.AperFunction,Plated,PTH,ComponentDrill
T3C0.900
; #@! TA.AperFunction,Plated,PTH,ComponentDrill
T4C1.000
; #@! TA.AperFunction,Plated,PTH,ComponentDrill
T5C1.500
%
G90
G05
T1
X2.825Y-8.575
X7.05Y-23.95
X7.125Y-27.025
X10.1Y-27.5
X15.375Y-13.675
X15.625Y-15.6
X15.675Y-17.825
X18.18Y-9.764
X20.335Y-20.95
X38.073Y-25.315
X38.825Y-10.565
X46.821Y-26.584
X48.925Y-16.275
X49.494Y-27.751
X61.025Y-7.925
T2
X19.05Y-23.1
X19.05Y-25.64
X20.32Y-24.37
T3
X46.255Y-24.0
X46.26Y-19.425
X48.795Y-24.0
X48.8Y-19.425
T4
X8.37Y-4.23
X8.37Y-6.77
X8.37Y-30.48
X8.37Y-33.02
X10.91Y-4.23
X10.91Y-6.77
X10.91Y-30.48
X10.91Y-33.02
X13.45Y-4.23
X13.45Y-6.77
X13.45Y-30.48
X13.45Y-33.02
X15.99Y-4.23
X15.99Y-6.77
X15.99Y-30.48
X15.99Y-33.02
X18.53Y-4.23
X18.53Y-6.77
X18.53Y-30.48
X18.53Y-33.02
X21.07Y-4.23
X21.07Y-6.77
X21.07Y-30.48
X21.07Y-33.02
X23.61Y-4.23
X23.61Y-6.77
X23.61Y-30.48
X23.61Y-33.02
X26.15Y-4.23
X26.15Y-6.77
X26.15Y-30.48
X26.15Y-33.02
X28.69Y-4.23
X28.69Y-6.77
X28.69Y-30.48
X28.69Y-33.02
X28.85Y-19.645
X28.85Y-22.185
X28.85Y-24.725
X31.23Y-4.23
X31.23Y-6.77
X31.23Y-30.48
X31.23Y-33.02
X33.77Y-4.23
X33.77Y-6.77
X33.77Y-30.48
X33.77Y-33.02
X36.31Y-4.23
X36.31Y-6.77
X36.31Y-30.48
X36.31Y-33.02
X38.3Y-15.575
X38.3Y-20.575
X38.85Y-4.23
X38.85Y-6.77
X38.85Y-30.48
X38.85Y-33.02
X41.39Y-4.23
X41.39Y-6.77
X41.39Y-30.48
X41.39Y-33.02
X43.93Y-4.23
X43.93Y-6.77
X43.93Y-30.48
X43.93Y-33.02
X46.47Y-4.23
X46.47Y-6.77
X46.47Y-30.48
X46.47Y-33.02
X49.01Y-4.23
X49.01Y-6.77
X49.01Y-30.48
X49.01Y-33.02
X51.55Y-4.23
X51.55Y-6.77
X51.55Y-30.48
X51.55Y-33.02
X54.09Y-4.23
X54.09Y-6.77
X54.09Y-30.48
X54.09Y-33.02
X56.63Y-4.23
X56.63Y-6.77
X56.63Y-30.48
X56.63Y-33.02
X62.7Y-28.65
X62.7Y-33.15
T5
X60.2Y-27.4
X60.2Y-34.4
T4
G00X2.087Y-15.75
M15
G01X2.087Y-16.95
M16
G05
G00X5.787Y-20.95
M15
G01X6.987Y-20.95
M16
G05
G00X8.588Y-13.75
M15
G01X9.787Y-13.75
M16
G05
G00X9.787Y-11.15
M15
G01X10.987Y-11.15
M16
G05
G00X13.587Y-21.05
M15
G01X13.587Y-19.85
M16
G05
M30
