%TF.GenerationSoftware,KiCad,Pcbnew,9.0.7*%
%TF.CreationDate,2026-06-05T15:07:50+02:00*%
%TF.ProjectId,BarePi_Base,42617265-5069-45f4-9261-73652e6b6963,rev?*%
%TF.SameCoordinates,Original*%
%TF.FileFunction,Other,User*%
%FSLAX46Y46*%
G04 Gerber Fmt 4.6, Leading zero omitted, Abs format (unit mm)*
G04 Created by KiCad (PCBNEW 9.0.7) date 2026-06-05 15:07:50*
%MOMM*%
%LPD*%
G01*
G04 APERTURE LIST*
%ADD10C,0.050000*%
G04 APERTURE END LIST*
D10*
%TO.C,J2*%
X6580000Y-28680000D02*
X58380000Y-28680000D01*
X6580000Y-42050000D02*
X6580000Y-28680000D01*
X58380000Y-28680000D02*
X58380000Y-42050000D01*
X58380000Y-42050000D02*
X6580000Y-42050000D01*
%TO.C,C6*%
X26840000Y-22875000D02*
X21860000Y-22875000D01*
X21860000Y-20775000D01*
X26840000Y-20775000D01*
X26840000Y-22875000D01*
%TO.C,J5*%
X50107500Y-25680000D02*
X50107500Y-9520000D01*
X64807500Y-9520000D02*
X50107500Y-9520000D01*
X64807500Y-25680000D02*
X50107500Y-25680000D01*
X64807500Y-25680000D02*
X64807500Y-9520000D01*
%TO.C,LS1*%
X44650000Y-18075000D02*
G75*
G02*
X31950000Y-18075000I-6350000J0D01*
G01*
X31950000Y-18075000D02*
G75*
G02*
X44650000Y-18075000I6350000J0D01*
G01*
%TO.C,J4*%
X-1750000Y-24025000D02*
X-1750000Y-34825000D01*
X-1750000Y-34825000D02*
X5550000Y-34825000D01*
X5550000Y-24025000D02*
X-1750000Y-24025000D01*
X5550000Y-34825000D02*
X5550000Y-24025000D01*
%TO.C,C1*%
X25100000Y-14205000D02*
X27400000Y-14205000D01*
X27400000Y-9245000D01*
X25100000Y-9245000D01*
X25100000Y-14205000D01*
%TO.C,REF\u002A\u002A*%
X64000000Y-38500000D02*
G75*
G02*
X59000000Y-38500000I-2500000J0D01*
G01*
X59000000Y-38500000D02*
G75*
G02*
X64000000Y-38500000I2500000J0D01*
G01*
X64000000Y-3500000D02*
G75*
G02*
X59000000Y-3500000I-2500000J0D01*
G01*
X59000000Y-3500000D02*
G75*
G02*
X64000000Y-3500000I2500000J0D01*
G01*
X6000000Y-3500000D02*
G75*
G02*
X1000000Y-3500000I-2500000J0D01*
G01*
X1000000Y-3500000D02*
G75*
G02*
X6000000Y-3500000I2500000J0D01*
G01*
%TO.C,C2*%
X26400000Y-14335000D02*
X24300000Y-14335000D01*
X24300000Y-19315000D01*
X26400000Y-19315000D01*
X26400000Y-14335000D01*
%TO.C,J6*%
X30620000Y-26495000D02*
X27080000Y-26495000D01*
X27080000Y-17875000D01*
X30620000Y-17875000D01*
X30620000Y-26495000D01*
%TO.C,C5*%
X12642500Y-25625000D02*
X7682500Y-25625000D01*
X7682500Y-23325000D01*
X12642500Y-23325000D01*
X12642500Y-25625000D01*
%TO.C,J1*%
X58400000Y-80000D02*
X6600000Y-80000D01*
X6600000Y-8540000D01*
X58400000Y-8540000D01*
X58400000Y-80000D01*
%TO.C,IC1*%
X17040000Y-27100000D02*
X17040000Y-21640000D01*
X17040000Y-27100000D02*
X21780000Y-27100000D01*
X21780000Y-21640000D02*
X17040000Y-21640000D01*
X21780000Y-21640000D02*
X21780000Y-27100000D01*
%TO.C,SW1*%
X58450000Y-27000000D02*
X58800000Y-27000000D01*
X58450000Y-28050000D02*
X58450000Y-27000000D01*
X58450000Y-28050000D02*
X58900000Y-28050000D01*
X58450000Y-33750000D02*
X58450000Y-34800000D01*
X58450000Y-33750000D02*
X58900000Y-33750000D01*
X58450000Y-34800000D02*
X58800000Y-34800000D01*
X61000000Y-28610000D02*
X61000000Y-33190000D01*
X61600000Y-27000000D02*
X65200000Y-27000000D01*
X61600000Y-34800000D02*
X65200000Y-34800000D01*
X65200000Y-29450000D02*
X65200000Y-27000000D01*
X65200000Y-32350000D02*
X69100000Y-32350000D01*
X65200000Y-34800000D02*
X65200000Y-32350000D01*
X69100000Y-29450000D02*
X65200000Y-29450000D01*
X69100000Y-32350000D02*
X69100000Y-29450000D01*
X58800000Y-27000000D02*
G75*
G02*
X61600000Y-27000000I1400000J-408333D01*
G01*
X58900000Y-33750000D02*
G75*
G02*
X61000002Y-33189998I1299170J-654380D01*
G01*
X61000000Y-28610000D02*
G75*
G02*
X58899999Y-28050000I-798845J1221833D01*
G01*
X61600000Y-34800000D02*
G75*
G02*
X58800000Y-34800000I-1400000J408330D01*
G01*
%TO.C,D1*%
X49945000Y-26210000D02*
X45105000Y-26210000D01*
X45105000Y-21790000D01*
X49945000Y-21790000D01*
X49945000Y-26210000D01*
%TO.C,C7*%
X49925000Y-10470000D02*
X47625000Y-10470000D01*
X47625000Y-15430000D01*
X49925000Y-15430000D01*
X49925000Y-10470000D01*
%TO.C,R5*%
X45150000Y-15700000D02*
X47050000Y-15700000D01*
X47050000Y-12000000D01*
X45150000Y-12000000D01*
X45150000Y-15700000D01*
%TO.C,R3*%
X31875000Y-17230000D02*
X26975000Y-17230000D01*
X26975000Y-14970000D01*
X31875000Y-14970000D01*
X31875000Y-17230000D01*
%TO.C,C3*%
X21775000Y-9295000D02*
X19475000Y-9295000D01*
X19475000Y-14255000D01*
X21775000Y-14255000D01*
X21775000Y-9295000D01*
%TO.C,R1*%
X30080000Y-9675000D02*
X27820000Y-9675000D01*
X27820000Y-14575000D01*
X30080000Y-14575000D01*
X30080000Y-9675000D01*
%TO.C,D2*%
X49950000Y-21635000D02*
X45110000Y-21635000D01*
X45110000Y-17215000D01*
X49950000Y-17215000D01*
X49950000Y-21635000D01*
%TO.C,R4*%
X18980000Y-9825000D02*
X16720000Y-9825000D01*
X16720000Y-14725000D01*
X18980000Y-14725000D01*
X18980000Y-9825000D01*
%TO.C,REF\u002A\u002A*%
X6000000Y-38500000D02*
G75*
G02*
X1000000Y-38500000I-2500000J0D01*
G01*
X1000000Y-38500000D02*
G75*
G02*
X6000000Y-38500000I2500000J0D01*
G01*
%TO.C,R2*%
X24130000Y-14425000D02*
X21870000Y-14425000D01*
X21870000Y-19325000D01*
X24130000Y-19325000D01*
X24130000Y-14425000D01*
%TO.C,J3*%
X-3712500Y-10100000D02*
X14787500Y-10100000D01*
X14787500Y-22600000D01*
X-3712500Y-22600000D01*
X-3712500Y-10100000D01*
%TO.C,R6*%
X53250000Y-26125000D02*
X56950000Y-26125000D01*
X56950000Y-28025000D01*
X53250000Y-28025000D01*
X53250000Y-26125000D01*
%TO.C,C4*%
X21640000Y-16925000D02*
X16660000Y-16925000D01*
X16660000Y-14825000D01*
X21640000Y-14825000D01*
X21640000Y-16925000D01*
%TD*%
M02*
