%TF.GenerationSoftware,KiCad,Pcbnew,9.0.7*%
%TF.CreationDate,2026-05-06T21:01:05+02:00*%
%TF.ProjectId,BarePi_Base,42617265-5069-45f4-9261-73652e6b6963,rev?*%
%TF.SameCoordinates,Original*%
%TF.FileFunction,AssemblyDrawing,Top*%
%FSLAX46Y46*%
G04 Gerber Fmt 4.6, Leading zero omitted, Abs format (unit mm)*
G04 Created by KiCad (PCBNEW 9.0.7) date 2026-05-06 21:01:05*
%MOMM*%
%LPD*%
G01*
G04 APERTURE LIST*
%ADD10C,0.100000*%
%ADD11C,0.150000*%
%ADD12C,0.120000*%
G04 APERTURE END LIST*
D10*
X4875000Y-35116764D02*
X5017857Y-35116764D01*
X5017857Y-35116764D02*
X5089286Y-35152478D01*
X5089286Y-35152478D02*
X5160714Y-35223907D01*
X5160714Y-35223907D02*
X5196429Y-35366764D01*
X5196429Y-35366764D02*
X5196429Y-35616764D01*
X5196429Y-35616764D02*
X5160714Y-35759621D01*
X5160714Y-35759621D02*
X5089286Y-35831050D01*
X5089286Y-35831050D02*
X5017857Y-35866764D01*
X5017857Y-35866764D02*
X4875000Y-35866764D01*
X4875000Y-35866764D02*
X4803572Y-35831050D01*
X4803572Y-35831050D02*
X4732143Y-35759621D01*
X4732143Y-35759621D02*
X4696429Y-35616764D01*
X4696429Y-35616764D02*
X4696429Y-35366764D01*
X4696429Y-35366764D02*
X4732143Y-35223907D01*
X4732143Y-35223907D02*
X4803572Y-35152478D01*
X4803572Y-35152478D02*
X4875000Y-35116764D01*
X5517857Y-35116764D02*
X5517857Y-35723907D01*
X5517857Y-35723907D02*
X5553571Y-35795335D01*
X5553571Y-35795335D02*
X5589286Y-35831050D01*
X5589286Y-35831050D02*
X5660714Y-35866764D01*
X5660714Y-35866764D02*
X5803571Y-35866764D01*
X5803571Y-35866764D02*
X5875000Y-35831050D01*
X5875000Y-35831050D02*
X5910714Y-35795335D01*
X5910714Y-35795335D02*
X5946428Y-35723907D01*
X5946428Y-35723907D02*
X5946428Y-35116764D01*
X6196428Y-35116764D02*
X6625000Y-35116764D01*
X6410714Y-35866764D02*
X6410714Y-35116764D01*
X58700000Y-32216764D02*
X58700000Y-32752478D01*
X58700000Y-32752478D02*
X58664285Y-32859621D01*
X58664285Y-32859621D02*
X58592857Y-32931050D01*
X58592857Y-32931050D02*
X58485714Y-32966764D01*
X58485714Y-32966764D02*
X58414285Y-32966764D01*
X59021429Y-32288192D02*
X59057143Y-32252478D01*
X59057143Y-32252478D02*
X59128572Y-32216764D01*
X59128572Y-32216764D02*
X59307143Y-32216764D01*
X59307143Y-32216764D02*
X59378572Y-32252478D01*
X59378572Y-32252478D02*
X59414286Y-32288192D01*
X59414286Y-32288192D02*
X59450000Y-32359621D01*
X59450000Y-32359621D02*
X59450000Y-32431050D01*
X59450000Y-32431050D02*
X59414286Y-32538192D01*
X59414286Y-32538192D02*
X58985714Y-32966764D01*
X58985714Y-32966764D02*
X59450000Y-32966764D01*
X22325000Y-23241764D02*
X22325000Y-23741764D01*
X22146428Y-22956050D02*
X21967857Y-23491764D01*
X21967857Y-23491764D02*
X22432142Y-23491764D01*
X22646428Y-22991764D02*
X23146428Y-22991764D01*
X23146428Y-22991764D02*
X22825000Y-23741764D01*
X23753572Y-23241764D02*
X23753572Y-23741764D01*
X23432143Y-23241764D02*
X23432143Y-23634621D01*
X23432143Y-23634621D02*
X23467857Y-23706050D01*
X23467857Y-23706050D02*
X23539286Y-23741764D01*
X23539286Y-23741764D02*
X23646429Y-23741764D01*
X23646429Y-23741764D02*
X23717857Y-23706050D01*
X23717857Y-23706050D02*
X23753572Y-23670335D01*
X24360714Y-23348907D02*
X24110714Y-23348907D01*
X24110714Y-23741764D02*
X24110714Y-22991764D01*
X24110714Y-22991764D02*
X24467857Y-22991764D01*
X25549999Y-23745335D02*
X25514285Y-23781050D01*
X25514285Y-23781050D02*
X25407142Y-23816764D01*
X25407142Y-23816764D02*
X25335714Y-23816764D01*
X25335714Y-23816764D02*
X25228571Y-23781050D01*
X25228571Y-23781050D02*
X25157142Y-23709621D01*
X25157142Y-23709621D02*
X25121428Y-23638192D01*
X25121428Y-23638192D02*
X25085714Y-23495335D01*
X25085714Y-23495335D02*
X25085714Y-23388192D01*
X25085714Y-23388192D02*
X25121428Y-23245335D01*
X25121428Y-23245335D02*
X25157142Y-23173907D01*
X25157142Y-23173907D02*
X25228571Y-23102478D01*
X25228571Y-23102478D02*
X25335714Y-23066764D01*
X25335714Y-23066764D02*
X25407142Y-23066764D01*
X25407142Y-23066764D02*
X25514285Y-23102478D01*
X25514285Y-23102478D02*
X25549999Y-23138192D01*
X26192857Y-23066764D02*
X26049999Y-23066764D01*
X26049999Y-23066764D02*
X25978571Y-23102478D01*
X25978571Y-23102478D02*
X25942857Y-23138192D01*
X25942857Y-23138192D02*
X25871428Y-23245335D01*
X25871428Y-23245335D02*
X25835714Y-23388192D01*
X25835714Y-23388192D02*
X25835714Y-23673907D01*
X25835714Y-23673907D02*
X25871428Y-23745335D01*
X25871428Y-23745335D02*
X25907142Y-23781050D01*
X25907142Y-23781050D02*
X25978571Y-23816764D01*
X25978571Y-23816764D02*
X26121428Y-23816764D01*
X26121428Y-23816764D02*
X26192857Y-23781050D01*
X26192857Y-23781050D02*
X26228571Y-23745335D01*
X26228571Y-23745335D02*
X26264285Y-23673907D01*
X26264285Y-23673907D02*
X26264285Y-23495335D01*
X26264285Y-23495335D02*
X26228571Y-23423907D01*
X26228571Y-23423907D02*
X26192857Y-23388192D01*
X26192857Y-23388192D02*
X26121428Y-23352478D01*
X26121428Y-23352478D02*
X25978571Y-23352478D01*
X25978571Y-23352478D02*
X25907142Y-23388192D01*
X25907142Y-23388192D02*
X25871428Y-23423907D01*
X25871428Y-23423907D02*
X25835714Y-23495335D01*
X56214285Y-26116764D02*
X56214285Y-25366764D01*
X56214285Y-25366764D02*
X56464285Y-25902478D01*
X56464285Y-25902478D02*
X56714285Y-25366764D01*
X56714285Y-25366764D02*
X56714285Y-26116764D01*
X57071428Y-26116764D02*
X57071428Y-25616764D01*
X57071428Y-25366764D02*
X57035714Y-25402478D01*
X57035714Y-25402478D02*
X57071428Y-25438192D01*
X57071428Y-25438192D02*
X57107142Y-25402478D01*
X57107142Y-25402478D02*
X57071428Y-25366764D01*
X57071428Y-25366764D02*
X57071428Y-25438192D01*
X57750000Y-26081050D02*
X57678571Y-26116764D01*
X57678571Y-26116764D02*
X57535714Y-26116764D01*
X57535714Y-26116764D02*
X57464285Y-26081050D01*
X57464285Y-26081050D02*
X57428571Y-26045335D01*
X57428571Y-26045335D02*
X57392857Y-25973907D01*
X57392857Y-25973907D02*
X57392857Y-25759621D01*
X57392857Y-25759621D02*
X57428571Y-25688192D01*
X57428571Y-25688192D02*
X57464285Y-25652478D01*
X57464285Y-25652478D02*
X57535714Y-25616764D01*
X57535714Y-25616764D02*
X57678571Y-25616764D01*
X57678571Y-25616764D02*
X57750000Y-25652478D01*
X58071428Y-26116764D02*
X58071428Y-25616764D01*
X58071428Y-25759621D02*
X58107142Y-25688192D01*
X58107142Y-25688192D02*
X58142857Y-25652478D01*
X58142857Y-25652478D02*
X58214285Y-25616764D01*
X58214285Y-25616764D02*
X58285714Y-25616764D01*
X58642857Y-26116764D02*
X58571428Y-26081050D01*
X58571428Y-26081050D02*
X58535714Y-26045335D01*
X58535714Y-26045335D02*
X58500000Y-25973907D01*
X58500000Y-25973907D02*
X58500000Y-25759621D01*
X58500000Y-25759621D02*
X58535714Y-25688192D01*
X58535714Y-25688192D02*
X58571428Y-25652478D01*
X58571428Y-25652478D02*
X58642857Y-25616764D01*
X58642857Y-25616764D02*
X58750000Y-25616764D01*
X58750000Y-25616764D02*
X58821428Y-25652478D01*
X58821428Y-25652478D02*
X58857143Y-25688192D01*
X58857143Y-25688192D02*
X58892857Y-25759621D01*
X58892857Y-25759621D02*
X58892857Y-25973907D01*
X58892857Y-25973907D02*
X58857143Y-26045335D01*
X58857143Y-26045335D02*
X58821428Y-26081050D01*
X58821428Y-26081050D02*
X58750000Y-26116764D01*
X58750000Y-26116764D02*
X58642857Y-26116764D01*
X59750000Y-26081050D02*
X59857143Y-26116764D01*
X59857143Y-26116764D02*
X60035714Y-26116764D01*
X60035714Y-26116764D02*
X60107143Y-26081050D01*
X60107143Y-26081050D02*
X60142857Y-26045335D01*
X60142857Y-26045335D02*
X60178571Y-25973907D01*
X60178571Y-25973907D02*
X60178571Y-25902478D01*
X60178571Y-25902478D02*
X60142857Y-25831050D01*
X60142857Y-25831050D02*
X60107143Y-25795335D01*
X60107143Y-25795335D02*
X60035714Y-25759621D01*
X60035714Y-25759621D02*
X59892857Y-25723907D01*
X59892857Y-25723907D02*
X59821428Y-25688192D01*
X59821428Y-25688192D02*
X59785714Y-25652478D01*
X59785714Y-25652478D02*
X59750000Y-25581050D01*
X59750000Y-25581050D02*
X59750000Y-25509621D01*
X59750000Y-25509621D02*
X59785714Y-25438192D01*
X59785714Y-25438192D02*
X59821428Y-25402478D01*
X59821428Y-25402478D02*
X59892857Y-25366764D01*
X59892857Y-25366764D02*
X60071428Y-25366764D01*
X60071428Y-25366764D02*
X60178571Y-25402478D01*
X60500000Y-26116764D02*
X60500000Y-25366764D01*
X60500000Y-25366764D02*
X60678571Y-25366764D01*
X60678571Y-25366764D02*
X60785714Y-25402478D01*
X60785714Y-25402478D02*
X60857143Y-25473907D01*
X60857143Y-25473907D02*
X60892857Y-25545335D01*
X60892857Y-25545335D02*
X60928571Y-25688192D01*
X60928571Y-25688192D02*
X60928571Y-25795335D01*
X60928571Y-25795335D02*
X60892857Y-25938192D01*
X60892857Y-25938192D02*
X60857143Y-26009621D01*
X60857143Y-26009621D02*
X60785714Y-26081050D01*
X60785714Y-26081050D02*
X60678571Y-26116764D01*
X60678571Y-26116764D02*
X60500000Y-26116764D01*
X62250000Y-26045335D02*
X62214286Y-26081050D01*
X62214286Y-26081050D02*
X62107143Y-26116764D01*
X62107143Y-26116764D02*
X62035715Y-26116764D01*
X62035715Y-26116764D02*
X61928572Y-26081050D01*
X61928572Y-26081050D02*
X61857143Y-26009621D01*
X61857143Y-26009621D02*
X61821429Y-25938192D01*
X61821429Y-25938192D02*
X61785715Y-25795335D01*
X61785715Y-25795335D02*
X61785715Y-25688192D01*
X61785715Y-25688192D02*
X61821429Y-25545335D01*
X61821429Y-25545335D02*
X61857143Y-25473907D01*
X61857143Y-25473907D02*
X61928572Y-25402478D01*
X61928572Y-25402478D02*
X62035715Y-25366764D01*
X62035715Y-25366764D02*
X62107143Y-25366764D01*
X62107143Y-25366764D02*
X62214286Y-25402478D01*
X62214286Y-25402478D02*
X62250000Y-25438192D01*
X62892858Y-26116764D02*
X62892858Y-25723907D01*
X62892858Y-25723907D02*
X62857143Y-25652478D01*
X62857143Y-25652478D02*
X62785715Y-25616764D01*
X62785715Y-25616764D02*
X62642858Y-25616764D01*
X62642858Y-25616764D02*
X62571429Y-25652478D01*
X62892858Y-26081050D02*
X62821429Y-26116764D01*
X62821429Y-26116764D02*
X62642858Y-26116764D01*
X62642858Y-26116764D02*
X62571429Y-26081050D01*
X62571429Y-26081050D02*
X62535715Y-26009621D01*
X62535715Y-26009621D02*
X62535715Y-25938192D01*
X62535715Y-25938192D02*
X62571429Y-25866764D01*
X62571429Y-25866764D02*
X62642858Y-25831050D01*
X62642858Y-25831050D02*
X62821429Y-25831050D01*
X62821429Y-25831050D02*
X62892858Y-25795335D01*
X63250000Y-26116764D02*
X63250000Y-25616764D01*
X63250000Y-25759621D02*
X63285714Y-25688192D01*
X63285714Y-25688192D02*
X63321429Y-25652478D01*
X63321429Y-25652478D02*
X63392857Y-25616764D01*
X63392857Y-25616764D02*
X63464286Y-25616764D01*
X64035715Y-26116764D02*
X64035715Y-25366764D01*
X64035715Y-26081050D02*
X63964286Y-26116764D01*
X63964286Y-26116764D02*
X63821429Y-26116764D01*
X63821429Y-26116764D02*
X63750000Y-26081050D01*
X63750000Y-26081050D02*
X63714286Y-26045335D01*
X63714286Y-26045335D02*
X63678572Y-25973907D01*
X63678572Y-25973907D02*
X63678572Y-25759621D01*
X63678572Y-25759621D02*
X63714286Y-25688192D01*
X63714286Y-25688192D02*
X63750000Y-25652478D01*
X63750000Y-25652478D02*
X63821429Y-25616764D01*
X63821429Y-25616764D02*
X63964286Y-25616764D01*
X63964286Y-25616764D02*
X64035715Y-25652478D01*
X62225000Y-26291764D02*
X62225000Y-26827478D01*
X62225000Y-26827478D02*
X62189285Y-26934621D01*
X62189285Y-26934621D02*
X62117857Y-27006050D01*
X62117857Y-27006050D02*
X62010714Y-27041764D01*
X62010714Y-27041764D02*
X61939285Y-27041764D01*
X62939286Y-26291764D02*
X62582143Y-26291764D01*
X62582143Y-26291764D02*
X62546429Y-26648907D01*
X62546429Y-26648907D02*
X62582143Y-26613192D01*
X62582143Y-26613192D02*
X62653572Y-26577478D01*
X62653572Y-26577478D02*
X62832143Y-26577478D01*
X62832143Y-26577478D02*
X62903572Y-26613192D01*
X62903572Y-26613192D02*
X62939286Y-26648907D01*
X62939286Y-26648907D02*
X62975000Y-26720335D01*
X62975000Y-26720335D02*
X62975000Y-26898907D01*
X62975000Y-26898907D02*
X62939286Y-26970335D01*
X62939286Y-26970335D02*
X62903572Y-27006050D01*
X62903572Y-27006050D02*
X62832143Y-27041764D01*
X62832143Y-27041764D02*
X62653572Y-27041764D01*
X62653572Y-27041764D02*
X62582143Y-27006050D01*
X62582143Y-27006050D02*
X62546429Y-26970335D01*
X34628572Y-10751834D02*
X34735715Y-10787548D01*
X34735715Y-10787548D02*
X34914286Y-10787548D01*
X34914286Y-10787548D02*
X34985715Y-10751834D01*
X34985715Y-10751834D02*
X35021429Y-10716119D01*
X35021429Y-10716119D02*
X35057143Y-10644691D01*
X35057143Y-10644691D02*
X35057143Y-10573262D01*
X35057143Y-10573262D02*
X35021429Y-10501834D01*
X35021429Y-10501834D02*
X34985715Y-10466119D01*
X34985715Y-10466119D02*
X34914286Y-10430405D01*
X34914286Y-10430405D02*
X34771429Y-10394691D01*
X34771429Y-10394691D02*
X34700000Y-10358976D01*
X34700000Y-10358976D02*
X34664286Y-10323262D01*
X34664286Y-10323262D02*
X34628572Y-10251834D01*
X34628572Y-10251834D02*
X34628572Y-10180405D01*
X34628572Y-10180405D02*
X34664286Y-10108976D01*
X34664286Y-10108976D02*
X34700000Y-10073262D01*
X34700000Y-10073262D02*
X34771429Y-10037548D01*
X34771429Y-10037548D02*
X34950000Y-10037548D01*
X34950000Y-10037548D02*
X35057143Y-10073262D01*
X35378572Y-10287548D02*
X35378572Y-11037548D01*
X35378572Y-10323262D02*
X35450001Y-10287548D01*
X35450001Y-10287548D02*
X35592858Y-10287548D01*
X35592858Y-10287548D02*
X35664286Y-10323262D01*
X35664286Y-10323262D02*
X35700001Y-10358976D01*
X35700001Y-10358976D02*
X35735715Y-10430405D01*
X35735715Y-10430405D02*
X35735715Y-10644691D01*
X35735715Y-10644691D02*
X35700001Y-10716119D01*
X35700001Y-10716119D02*
X35664286Y-10751834D01*
X35664286Y-10751834D02*
X35592858Y-10787548D01*
X35592858Y-10787548D02*
X35450001Y-10787548D01*
X35450001Y-10787548D02*
X35378572Y-10751834D01*
X36342857Y-10751834D02*
X36271429Y-10787548D01*
X36271429Y-10787548D02*
X36128572Y-10787548D01*
X36128572Y-10787548D02*
X36057143Y-10751834D01*
X36057143Y-10751834D02*
X36021429Y-10680405D01*
X36021429Y-10680405D02*
X36021429Y-10394691D01*
X36021429Y-10394691D02*
X36057143Y-10323262D01*
X36057143Y-10323262D02*
X36128572Y-10287548D01*
X36128572Y-10287548D02*
X36271429Y-10287548D01*
X36271429Y-10287548D02*
X36342857Y-10323262D01*
X36342857Y-10323262D02*
X36378572Y-10394691D01*
X36378572Y-10394691D02*
X36378572Y-10466119D01*
X36378572Y-10466119D02*
X36021429Y-10537548D01*
X37021429Y-10787548D02*
X37021429Y-10394691D01*
X37021429Y-10394691D02*
X36985714Y-10323262D01*
X36985714Y-10323262D02*
X36914286Y-10287548D01*
X36914286Y-10287548D02*
X36771429Y-10287548D01*
X36771429Y-10287548D02*
X36700000Y-10323262D01*
X37021429Y-10751834D02*
X36950000Y-10787548D01*
X36950000Y-10787548D02*
X36771429Y-10787548D01*
X36771429Y-10787548D02*
X36700000Y-10751834D01*
X36700000Y-10751834D02*
X36664286Y-10680405D01*
X36664286Y-10680405D02*
X36664286Y-10608976D01*
X36664286Y-10608976D02*
X36700000Y-10537548D01*
X36700000Y-10537548D02*
X36771429Y-10501834D01*
X36771429Y-10501834D02*
X36950000Y-10501834D01*
X36950000Y-10501834D02*
X37021429Y-10466119D01*
X37378571Y-10787548D02*
X37378571Y-10037548D01*
X37450000Y-10501834D02*
X37664285Y-10787548D01*
X37664285Y-10287548D02*
X37378571Y-10573262D01*
X38271428Y-10751834D02*
X38200000Y-10787548D01*
X38200000Y-10787548D02*
X38057143Y-10787548D01*
X38057143Y-10787548D02*
X37985714Y-10751834D01*
X37985714Y-10751834D02*
X37950000Y-10680405D01*
X37950000Y-10680405D02*
X37950000Y-10394691D01*
X37950000Y-10394691D02*
X37985714Y-10323262D01*
X37985714Y-10323262D02*
X38057143Y-10287548D01*
X38057143Y-10287548D02*
X38200000Y-10287548D01*
X38200000Y-10287548D02*
X38271428Y-10323262D01*
X38271428Y-10323262D02*
X38307143Y-10394691D01*
X38307143Y-10394691D02*
X38307143Y-10466119D01*
X38307143Y-10466119D02*
X37950000Y-10537548D01*
X38628571Y-10787548D02*
X38628571Y-10287548D01*
X38628571Y-10430405D02*
X38664285Y-10358976D01*
X38664285Y-10358976D02*
X38700000Y-10323262D01*
X38700000Y-10323262D02*
X38771428Y-10287548D01*
X38771428Y-10287548D02*
X38842857Y-10287548D01*
X34042857Y-12012548D02*
X33685714Y-12012548D01*
X33685714Y-12012548D02*
X33685714Y-11262548D01*
X34257143Y-11976834D02*
X34364286Y-12012548D01*
X34364286Y-12012548D02*
X34542857Y-12012548D01*
X34542857Y-12012548D02*
X34614286Y-11976834D01*
X34614286Y-11976834D02*
X34650000Y-11941119D01*
X34650000Y-11941119D02*
X34685714Y-11869691D01*
X34685714Y-11869691D02*
X34685714Y-11798262D01*
X34685714Y-11798262D02*
X34650000Y-11726834D01*
X34650000Y-11726834D02*
X34614286Y-11691119D01*
X34614286Y-11691119D02*
X34542857Y-11655405D01*
X34542857Y-11655405D02*
X34400000Y-11619691D01*
X34400000Y-11619691D02*
X34328571Y-11583976D01*
X34328571Y-11583976D02*
X34292857Y-11548262D01*
X34292857Y-11548262D02*
X34257143Y-11476834D01*
X34257143Y-11476834D02*
X34257143Y-11405405D01*
X34257143Y-11405405D02*
X34292857Y-11333976D01*
X34292857Y-11333976D02*
X34328571Y-11298262D01*
X34328571Y-11298262D02*
X34400000Y-11262548D01*
X34400000Y-11262548D02*
X34578571Y-11262548D01*
X34578571Y-11262548D02*
X34685714Y-11298262D01*
X35400000Y-12012548D02*
X34971429Y-12012548D01*
X35185714Y-12012548D02*
X35185714Y-11262548D01*
X35185714Y-11262548D02*
X35114286Y-11369691D01*
X35114286Y-11369691D02*
X35042857Y-11441119D01*
X35042857Y-11441119D02*
X34971429Y-11476834D01*
X6491764Y-31332142D02*
X5741764Y-31332142D01*
X5741764Y-31332142D02*
X5741764Y-31046428D01*
X5741764Y-31046428D02*
X5777478Y-30974999D01*
X5777478Y-30974999D02*
X5813192Y-30939285D01*
X5813192Y-30939285D02*
X5884621Y-30903571D01*
X5884621Y-30903571D02*
X5991764Y-30903571D01*
X5991764Y-30903571D02*
X6063192Y-30939285D01*
X6063192Y-30939285D02*
X6098907Y-30974999D01*
X6098907Y-30974999D02*
X6134621Y-31046428D01*
X6134621Y-31046428D02*
X6134621Y-31332142D01*
X5741764Y-30439285D02*
X5741764Y-30296428D01*
X5741764Y-30296428D02*
X5777478Y-30224999D01*
X5777478Y-30224999D02*
X5848907Y-30153571D01*
X5848907Y-30153571D02*
X5991764Y-30117856D01*
X5991764Y-30117856D02*
X6241764Y-30117856D01*
X6241764Y-30117856D02*
X6384621Y-30153571D01*
X6384621Y-30153571D02*
X6456050Y-30224999D01*
X6456050Y-30224999D02*
X6491764Y-30296428D01*
X6491764Y-30296428D02*
X6491764Y-30439285D01*
X6491764Y-30439285D02*
X6456050Y-30510714D01*
X6456050Y-30510714D02*
X6384621Y-30582142D01*
X6384621Y-30582142D02*
X6241764Y-30617856D01*
X6241764Y-30617856D02*
X5991764Y-30617856D01*
X5991764Y-30617856D02*
X5848907Y-30582142D01*
X5848907Y-30582142D02*
X5777478Y-30510714D01*
X5777478Y-30510714D02*
X5741764Y-30439285D01*
X5741764Y-29867857D02*
X6491764Y-29689285D01*
X6491764Y-29689285D02*
X5956050Y-29546428D01*
X5956050Y-29546428D02*
X6491764Y-29403571D01*
X6491764Y-29403571D02*
X5741764Y-29225000D01*
X6098907Y-28939285D02*
X6098907Y-28689285D01*
X6491764Y-28582142D02*
X6491764Y-28939285D01*
X6491764Y-28939285D02*
X5741764Y-28939285D01*
X5741764Y-28939285D02*
X5741764Y-28582142D01*
X6491764Y-27832143D02*
X6134621Y-28082143D01*
X6491764Y-28260714D02*
X5741764Y-28260714D01*
X5741764Y-28260714D02*
X5741764Y-27975000D01*
X5741764Y-27975000D02*
X5777478Y-27903571D01*
X5777478Y-27903571D02*
X5813192Y-27867857D01*
X5813192Y-27867857D02*
X5884621Y-27832143D01*
X5884621Y-27832143D02*
X5991764Y-27832143D01*
X5991764Y-27832143D02*
X6063192Y-27867857D01*
X6063192Y-27867857D02*
X6098907Y-27903571D01*
X6098907Y-27903571D02*
X6134621Y-27975000D01*
X6134621Y-27975000D02*
X6134621Y-28260714D01*
X5800000Y-31841764D02*
X5800000Y-32377478D01*
X5800000Y-32377478D02*
X5764285Y-32484621D01*
X5764285Y-32484621D02*
X5692857Y-32556050D01*
X5692857Y-32556050D02*
X5585714Y-32591764D01*
X5585714Y-32591764D02*
X5514285Y-32591764D01*
X6478572Y-32091764D02*
X6478572Y-32591764D01*
X6300000Y-31806050D02*
X6121429Y-32341764D01*
X6121429Y-32341764D02*
X6585714Y-32341764D01*
X23617857Y-10716764D02*
X23189286Y-10716764D01*
X23403571Y-10716764D02*
X23403571Y-9966764D01*
X23403571Y-9966764D02*
X23332143Y-10073907D01*
X23332143Y-10073907D02*
X23260714Y-10145335D01*
X23260714Y-10145335D02*
X23189286Y-10181050D01*
X24082143Y-9966764D02*
X24153572Y-9966764D01*
X24153572Y-9966764D02*
X24225000Y-10002478D01*
X24225000Y-10002478D02*
X24260715Y-10038192D01*
X24260715Y-10038192D02*
X24296429Y-10109621D01*
X24296429Y-10109621D02*
X24332143Y-10252478D01*
X24332143Y-10252478D02*
X24332143Y-10431050D01*
X24332143Y-10431050D02*
X24296429Y-10573907D01*
X24296429Y-10573907D02*
X24260715Y-10645335D01*
X24260715Y-10645335D02*
X24225000Y-10681050D01*
X24225000Y-10681050D02*
X24153572Y-10716764D01*
X24153572Y-10716764D02*
X24082143Y-10716764D01*
X24082143Y-10716764D02*
X24010715Y-10681050D01*
X24010715Y-10681050D02*
X23975000Y-10645335D01*
X23975000Y-10645335D02*
X23939286Y-10573907D01*
X23939286Y-10573907D02*
X23903572Y-10431050D01*
X23903572Y-10431050D02*
X23903572Y-10252478D01*
X23903572Y-10252478D02*
X23939286Y-10109621D01*
X23939286Y-10109621D02*
X23975000Y-10038192D01*
X23975000Y-10038192D02*
X24010715Y-10002478D01*
X24010715Y-10002478D02*
X24082143Y-9966764D01*
X24653572Y-10216764D02*
X24653572Y-10716764D01*
X24653572Y-10288192D02*
X24689286Y-10252478D01*
X24689286Y-10252478D02*
X24760715Y-10216764D01*
X24760715Y-10216764D02*
X24867858Y-10216764D01*
X24867858Y-10216764D02*
X24939286Y-10252478D01*
X24939286Y-10252478D02*
X24975001Y-10323907D01*
X24975001Y-10323907D02*
X24975001Y-10716764D01*
X24324999Y-9720335D02*
X24289285Y-9756050D01*
X24289285Y-9756050D02*
X24182142Y-9791764D01*
X24182142Y-9791764D02*
X24110714Y-9791764D01*
X24110714Y-9791764D02*
X24003571Y-9756050D01*
X24003571Y-9756050D02*
X23932142Y-9684621D01*
X23932142Y-9684621D02*
X23896428Y-9613192D01*
X23896428Y-9613192D02*
X23860714Y-9470335D01*
X23860714Y-9470335D02*
X23860714Y-9363192D01*
X23860714Y-9363192D02*
X23896428Y-9220335D01*
X23896428Y-9220335D02*
X23932142Y-9148907D01*
X23932142Y-9148907D02*
X24003571Y-9077478D01*
X24003571Y-9077478D02*
X24110714Y-9041764D01*
X24110714Y-9041764D02*
X24182142Y-9041764D01*
X24182142Y-9041764D02*
X24289285Y-9077478D01*
X24289285Y-9077478D02*
X24324999Y-9113192D01*
X25039285Y-9791764D02*
X24610714Y-9791764D01*
X24824999Y-9791764D02*
X24824999Y-9041764D01*
X24824999Y-9041764D02*
X24753571Y-9148907D01*
X24753571Y-9148907D02*
X24682142Y-9220335D01*
X24682142Y-9220335D02*
X24610714Y-9256050D01*
X23717857Y-14266764D02*
X23289286Y-14266764D01*
X23503571Y-14266764D02*
X23503571Y-13516764D01*
X23503571Y-13516764D02*
X23432143Y-13623907D01*
X23432143Y-13623907D02*
X23360714Y-13695335D01*
X23360714Y-13695335D02*
X23289286Y-13731050D01*
X24182143Y-13516764D02*
X24253572Y-13516764D01*
X24253572Y-13516764D02*
X24325000Y-13552478D01*
X24325000Y-13552478D02*
X24360715Y-13588192D01*
X24360715Y-13588192D02*
X24396429Y-13659621D01*
X24396429Y-13659621D02*
X24432143Y-13802478D01*
X24432143Y-13802478D02*
X24432143Y-13981050D01*
X24432143Y-13981050D02*
X24396429Y-14123907D01*
X24396429Y-14123907D02*
X24360715Y-14195335D01*
X24360715Y-14195335D02*
X24325000Y-14231050D01*
X24325000Y-14231050D02*
X24253572Y-14266764D01*
X24253572Y-14266764D02*
X24182143Y-14266764D01*
X24182143Y-14266764D02*
X24110715Y-14231050D01*
X24110715Y-14231050D02*
X24075000Y-14195335D01*
X24075000Y-14195335D02*
X24039286Y-14123907D01*
X24039286Y-14123907D02*
X24003572Y-13981050D01*
X24003572Y-13981050D02*
X24003572Y-13802478D01*
X24003572Y-13802478D02*
X24039286Y-13659621D01*
X24039286Y-13659621D02*
X24075000Y-13588192D01*
X24075000Y-13588192D02*
X24110715Y-13552478D01*
X24110715Y-13552478D02*
X24182143Y-13516764D01*
X25075001Y-13766764D02*
X25075001Y-14266764D01*
X24753572Y-13766764D02*
X24753572Y-14159621D01*
X24753572Y-14159621D02*
X24789286Y-14231050D01*
X24789286Y-14231050D02*
X24860715Y-14266764D01*
X24860715Y-14266764D02*
X24967858Y-14266764D01*
X24967858Y-14266764D02*
X25039286Y-14231050D01*
X25039286Y-14231050D02*
X25075001Y-14195335D01*
X24199999Y-13370335D02*
X24164285Y-13406050D01*
X24164285Y-13406050D02*
X24057142Y-13441764D01*
X24057142Y-13441764D02*
X23985714Y-13441764D01*
X23985714Y-13441764D02*
X23878571Y-13406050D01*
X23878571Y-13406050D02*
X23807142Y-13334621D01*
X23807142Y-13334621D02*
X23771428Y-13263192D01*
X23771428Y-13263192D02*
X23735714Y-13120335D01*
X23735714Y-13120335D02*
X23735714Y-13013192D01*
X23735714Y-13013192D02*
X23771428Y-12870335D01*
X23771428Y-12870335D02*
X23807142Y-12798907D01*
X23807142Y-12798907D02*
X23878571Y-12727478D01*
X23878571Y-12727478D02*
X23985714Y-12691764D01*
X23985714Y-12691764D02*
X24057142Y-12691764D01*
X24057142Y-12691764D02*
X24164285Y-12727478D01*
X24164285Y-12727478D02*
X24199999Y-12763192D01*
X24485714Y-12763192D02*
X24521428Y-12727478D01*
X24521428Y-12727478D02*
X24592857Y-12691764D01*
X24592857Y-12691764D02*
X24771428Y-12691764D01*
X24771428Y-12691764D02*
X24842857Y-12727478D01*
X24842857Y-12727478D02*
X24878571Y-12763192D01*
X24878571Y-12763192D02*
X24914285Y-12834621D01*
X24914285Y-12834621D02*
X24914285Y-12906050D01*
X24914285Y-12906050D02*
X24878571Y-13013192D01*
X24878571Y-13013192D02*
X24449999Y-13441764D01*
X24449999Y-13441764D02*
X24914285Y-13441764D01*
X30991764Y-26085000D02*
X30991764Y-25620714D01*
X30991764Y-25620714D02*
X31277478Y-25870714D01*
X31277478Y-25870714D02*
X31277478Y-25763571D01*
X31277478Y-25763571D02*
X31313192Y-25692143D01*
X31313192Y-25692143D02*
X31348907Y-25656428D01*
X31348907Y-25656428D02*
X31420335Y-25620714D01*
X31420335Y-25620714D02*
X31598907Y-25620714D01*
X31598907Y-25620714D02*
X31670335Y-25656428D01*
X31670335Y-25656428D02*
X31706050Y-25692143D01*
X31706050Y-25692143D02*
X31741764Y-25763571D01*
X31741764Y-25763571D02*
X31741764Y-25977857D01*
X31741764Y-25977857D02*
X31706050Y-26049285D01*
X31706050Y-26049285D02*
X31670335Y-26085000D01*
X30991764Y-25406428D02*
X31741764Y-25156428D01*
X31741764Y-25156428D02*
X30991764Y-24906428D01*
X30991764Y-24727857D02*
X30991764Y-24263571D01*
X30991764Y-24263571D02*
X31277478Y-24513571D01*
X31277478Y-24513571D02*
X31277478Y-24406428D01*
X31277478Y-24406428D02*
X31313192Y-24335000D01*
X31313192Y-24335000D02*
X31348907Y-24299285D01*
X31348907Y-24299285D02*
X31420335Y-24263571D01*
X31420335Y-24263571D02*
X31598907Y-24263571D01*
X31598907Y-24263571D02*
X31670335Y-24299285D01*
X31670335Y-24299285D02*
X31706050Y-24335000D01*
X31706050Y-24335000D02*
X31741764Y-24406428D01*
X31741764Y-24406428D02*
X31741764Y-24620714D01*
X31741764Y-24620714D02*
X31706050Y-24692142D01*
X31706050Y-24692142D02*
X31670335Y-24727857D01*
X31706050Y-23406427D02*
X31741764Y-23299285D01*
X31741764Y-23299285D02*
X31741764Y-23120713D01*
X31741764Y-23120713D02*
X31706050Y-23049285D01*
X31706050Y-23049285D02*
X31670335Y-23013570D01*
X31670335Y-23013570D02*
X31598907Y-22977856D01*
X31598907Y-22977856D02*
X31527478Y-22977856D01*
X31527478Y-22977856D02*
X31456050Y-23013570D01*
X31456050Y-23013570D02*
X31420335Y-23049285D01*
X31420335Y-23049285D02*
X31384621Y-23120713D01*
X31384621Y-23120713D02*
X31348907Y-23263570D01*
X31348907Y-23263570D02*
X31313192Y-23334999D01*
X31313192Y-23334999D02*
X31277478Y-23370713D01*
X31277478Y-23370713D02*
X31206050Y-23406427D01*
X31206050Y-23406427D02*
X31134621Y-23406427D01*
X31134621Y-23406427D02*
X31063192Y-23370713D01*
X31063192Y-23370713D02*
X31027478Y-23334999D01*
X31027478Y-23334999D02*
X30991764Y-23263570D01*
X30991764Y-23263570D02*
X30991764Y-23084999D01*
X30991764Y-23084999D02*
X31027478Y-22977856D01*
X31241764Y-22763570D02*
X31241764Y-22477856D01*
X30991764Y-22656427D02*
X31634621Y-22656427D01*
X31634621Y-22656427D02*
X31706050Y-22620713D01*
X31706050Y-22620713D02*
X31741764Y-22549284D01*
X31741764Y-22549284D02*
X31741764Y-22477856D01*
X31741764Y-21906428D02*
X31348907Y-21906428D01*
X31348907Y-21906428D02*
X31277478Y-21942142D01*
X31277478Y-21942142D02*
X31241764Y-22013570D01*
X31241764Y-22013570D02*
X31241764Y-22156428D01*
X31241764Y-22156428D02*
X31277478Y-22227856D01*
X31706050Y-21906428D02*
X31741764Y-21977856D01*
X31741764Y-21977856D02*
X31741764Y-22156428D01*
X31741764Y-22156428D02*
X31706050Y-22227856D01*
X31706050Y-22227856D02*
X31634621Y-22263570D01*
X31634621Y-22263570D02*
X31563192Y-22263570D01*
X31563192Y-22263570D02*
X31491764Y-22227856D01*
X31491764Y-22227856D02*
X31456050Y-22156428D01*
X31456050Y-22156428D02*
X31456050Y-21977856D01*
X31456050Y-21977856D02*
X31420335Y-21906428D01*
X31741764Y-21549285D02*
X30991764Y-21549285D01*
X31277478Y-21549285D02*
X31241764Y-21477857D01*
X31241764Y-21477857D02*
X31241764Y-21334999D01*
X31241764Y-21334999D02*
X31277478Y-21263571D01*
X31277478Y-21263571D02*
X31313192Y-21227857D01*
X31313192Y-21227857D02*
X31384621Y-21192142D01*
X31384621Y-21192142D02*
X31598907Y-21192142D01*
X31598907Y-21192142D02*
X31670335Y-21227857D01*
X31670335Y-21227857D02*
X31706050Y-21263571D01*
X31706050Y-21263571D02*
X31741764Y-21334999D01*
X31741764Y-21334999D02*
X31741764Y-21477857D01*
X31741764Y-21477857D02*
X31706050Y-21549285D01*
X31741764Y-20870714D02*
X31241764Y-20870714D01*
X30991764Y-20870714D02*
X31027478Y-20906428D01*
X31027478Y-20906428D02*
X31063192Y-20870714D01*
X31063192Y-20870714D02*
X31027478Y-20835000D01*
X31027478Y-20835000D02*
X30991764Y-20870714D01*
X30991764Y-20870714D02*
X31063192Y-20870714D01*
X31741764Y-20406428D02*
X31706050Y-20477857D01*
X31706050Y-20477857D02*
X31634621Y-20513571D01*
X31634621Y-20513571D02*
X30991764Y-20513571D01*
X31741764Y-20120714D02*
X31241764Y-20120714D01*
X30991764Y-20120714D02*
X31027478Y-20156428D01*
X31027478Y-20156428D02*
X31063192Y-20120714D01*
X31063192Y-20120714D02*
X31027478Y-20085000D01*
X31027478Y-20085000D02*
X30991764Y-20120714D01*
X30991764Y-20120714D02*
X31063192Y-20120714D01*
X31241764Y-19835000D02*
X31241764Y-19442143D01*
X31241764Y-19442143D02*
X31741764Y-19835000D01*
X31741764Y-19835000D02*
X31741764Y-19442143D01*
X31706050Y-18870714D02*
X31741764Y-18942142D01*
X31741764Y-18942142D02*
X31741764Y-19085000D01*
X31741764Y-19085000D02*
X31706050Y-19156428D01*
X31706050Y-19156428D02*
X31634621Y-19192142D01*
X31634621Y-19192142D02*
X31348907Y-19192142D01*
X31348907Y-19192142D02*
X31277478Y-19156428D01*
X31277478Y-19156428D02*
X31241764Y-19085000D01*
X31241764Y-19085000D02*
X31241764Y-18942142D01*
X31241764Y-18942142D02*
X31277478Y-18870714D01*
X31277478Y-18870714D02*
X31348907Y-18835000D01*
X31348907Y-18835000D02*
X31420335Y-18835000D01*
X31420335Y-18835000D02*
X31491764Y-19192142D01*
X31741764Y-18513571D02*
X31241764Y-18513571D01*
X31384621Y-18513571D02*
X31313192Y-18477857D01*
X31313192Y-18477857D02*
X31277478Y-18442143D01*
X31277478Y-18442143D02*
X31241764Y-18370714D01*
X31241764Y-18370714D02*
X31241764Y-18299285D01*
X32250000Y-22751764D02*
X32250000Y-23287478D01*
X32250000Y-23287478D02*
X32214285Y-23394621D01*
X32214285Y-23394621D02*
X32142857Y-23466050D01*
X32142857Y-23466050D02*
X32035714Y-23501764D01*
X32035714Y-23501764D02*
X31964285Y-23501764D01*
X32928572Y-22751764D02*
X32785714Y-22751764D01*
X32785714Y-22751764D02*
X32714286Y-22787478D01*
X32714286Y-22787478D02*
X32678572Y-22823192D01*
X32678572Y-22823192D02*
X32607143Y-22930335D01*
X32607143Y-22930335D02*
X32571429Y-23073192D01*
X32571429Y-23073192D02*
X32571429Y-23358907D01*
X32571429Y-23358907D02*
X32607143Y-23430335D01*
X32607143Y-23430335D02*
X32642857Y-23466050D01*
X32642857Y-23466050D02*
X32714286Y-23501764D01*
X32714286Y-23501764D02*
X32857143Y-23501764D01*
X32857143Y-23501764D02*
X32928572Y-23466050D01*
X32928572Y-23466050D02*
X32964286Y-23430335D01*
X32964286Y-23430335D02*
X33000000Y-23358907D01*
X33000000Y-23358907D02*
X33000000Y-23180335D01*
X33000000Y-23180335D02*
X32964286Y-23108907D01*
X32964286Y-23108907D02*
X32928572Y-23073192D01*
X32928572Y-23073192D02*
X32857143Y-23037478D01*
X32857143Y-23037478D02*
X32714286Y-23037478D01*
X32714286Y-23037478D02*
X32642857Y-23073192D01*
X32642857Y-23073192D02*
X32607143Y-23108907D01*
X32607143Y-23108907D02*
X32571429Y-23180335D01*
X13364285Y-25541764D02*
X12935714Y-25541764D01*
X13149999Y-25541764D02*
X13149999Y-24791764D01*
X13149999Y-24791764D02*
X13078571Y-24898907D01*
X13078571Y-24898907D02*
X13007142Y-24970335D01*
X13007142Y-24970335D02*
X12935714Y-25006050D01*
X13828571Y-24791764D02*
X13900000Y-24791764D01*
X13900000Y-24791764D02*
X13971428Y-24827478D01*
X13971428Y-24827478D02*
X14007143Y-24863192D01*
X14007143Y-24863192D02*
X14042857Y-24934621D01*
X14042857Y-24934621D02*
X14078571Y-25077478D01*
X14078571Y-25077478D02*
X14078571Y-25256050D01*
X14078571Y-25256050D02*
X14042857Y-25398907D01*
X14042857Y-25398907D02*
X14007143Y-25470335D01*
X14007143Y-25470335D02*
X13971428Y-25506050D01*
X13971428Y-25506050D02*
X13900000Y-25541764D01*
X13900000Y-25541764D02*
X13828571Y-25541764D01*
X13828571Y-25541764D02*
X13757143Y-25506050D01*
X13757143Y-25506050D02*
X13721428Y-25470335D01*
X13721428Y-25470335D02*
X13685714Y-25398907D01*
X13685714Y-25398907D02*
X13650000Y-25256050D01*
X13650000Y-25256050D02*
X13650000Y-25077478D01*
X13650000Y-25077478D02*
X13685714Y-24934621D01*
X13685714Y-24934621D02*
X13721428Y-24863192D01*
X13721428Y-24863192D02*
X13757143Y-24827478D01*
X13757143Y-24827478D02*
X13828571Y-24791764D01*
X14542857Y-24791764D02*
X14614286Y-24791764D01*
X14614286Y-24791764D02*
X14685714Y-24827478D01*
X14685714Y-24827478D02*
X14721429Y-24863192D01*
X14721429Y-24863192D02*
X14757143Y-24934621D01*
X14757143Y-24934621D02*
X14792857Y-25077478D01*
X14792857Y-25077478D02*
X14792857Y-25256050D01*
X14792857Y-25256050D02*
X14757143Y-25398907D01*
X14757143Y-25398907D02*
X14721429Y-25470335D01*
X14721429Y-25470335D02*
X14685714Y-25506050D01*
X14685714Y-25506050D02*
X14614286Y-25541764D01*
X14614286Y-25541764D02*
X14542857Y-25541764D01*
X14542857Y-25541764D02*
X14471429Y-25506050D01*
X14471429Y-25506050D02*
X14435714Y-25470335D01*
X14435714Y-25470335D02*
X14400000Y-25398907D01*
X14400000Y-25398907D02*
X14364286Y-25256050D01*
X14364286Y-25256050D02*
X14364286Y-25077478D01*
X14364286Y-25077478D02*
X14400000Y-24934621D01*
X14400000Y-24934621D02*
X14435714Y-24863192D01*
X14435714Y-24863192D02*
X14471429Y-24827478D01*
X14471429Y-24827478D02*
X14542857Y-24791764D01*
X15114286Y-25041764D02*
X15114286Y-25541764D01*
X15114286Y-25113192D02*
X15150000Y-25077478D01*
X15150000Y-25077478D02*
X15221429Y-25041764D01*
X15221429Y-25041764D02*
X15328572Y-25041764D01*
X15328572Y-25041764D02*
X15400000Y-25077478D01*
X15400000Y-25077478D02*
X15435715Y-25148907D01*
X15435715Y-25148907D02*
X15435715Y-25541764D01*
X16042857Y-25148907D02*
X15792857Y-25148907D01*
X15792857Y-25541764D02*
X15792857Y-24791764D01*
X15792857Y-24791764D02*
X16150000Y-24791764D01*
X13524999Y-24170335D02*
X13489285Y-24206050D01*
X13489285Y-24206050D02*
X13382142Y-24241764D01*
X13382142Y-24241764D02*
X13310714Y-24241764D01*
X13310714Y-24241764D02*
X13203571Y-24206050D01*
X13203571Y-24206050D02*
X13132142Y-24134621D01*
X13132142Y-24134621D02*
X13096428Y-24063192D01*
X13096428Y-24063192D02*
X13060714Y-23920335D01*
X13060714Y-23920335D02*
X13060714Y-23813192D01*
X13060714Y-23813192D02*
X13096428Y-23670335D01*
X13096428Y-23670335D02*
X13132142Y-23598907D01*
X13132142Y-23598907D02*
X13203571Y-23527478D01*
X13203571Y-23527478D02*
X13310714Y-23491764D01*
X13310714Y-23491764D02*
X13382142Y-23491764D01*
X13382142Y-23491764D02*
X13489285Y-23527478D01*
X13489285Y-23527478D02*
X13524999Y-23563192D01*
X14203571Y-23491764D02*
X13846428Y-23491764D01*
X13846428Y-23491764D02*
X13810714Y-23848907D01*
X13810714Y-23848907D02*
X13846428Y-23813192D01*
X13846428Y-23813192D02*
X13917857Y-23777478D01*
X13917857Y-23777478D02*
X14096428Y-23777478D01*
X14096428Y-23777478D02*
X14167857Y-23813192D01*
X14167857Y-23813192D02*
X14203571Y-23848907D01*
X14203571Y-23848907D02*
X14239285Y-23920335D01*
X14239285Y-23920335D02*
X14239285Y-24098907D01*
X14239285Y-24098907D02*
X14203571Y-24170335D01*
X14203571Y-24170335D02*
X14167857Y-24206050D01*
X14167857Y-24206050D02*
X14096428Y-24241764D01*
X14096428Y-24241764D02*
X13917857Y-24241764D01*
X13917857Y-24241764D02*
X13846428Y-24206050D01*
X13846428Y-24206050D02*
X13810714Y-24170335D01*
X5382143Y-6291764D02*
X5382143Y-5541764D01*
X5739286Y-6291764D02*
X5739286Y-5541764D01*
X5739286Y-5541764D02*
X6167857Y-6291764D01*
X6167857Y-6291764D02*
X6167857Y-5541764D01*
X5725000Y-616764D02*
X5725000Y-1152478D01*
X5725000Y-1152478D02*
X5689285Y-1259621D01*
X5689285Y-1259621D02*
X5617857Y-1331050D01*
X5617857Y-1331050D02*
X5510714Y-1366764D01*
X5510714Y-1366764D02*
X5439285Y-1366764D01*
X6475000Y-1366764D02*
X6046429Y-1366764D01*
X6260714Y-1366764D02*
X6260714Y-616764D01*
X6260714Y-616764D02*
X6189286Y-723907D01*
X6189286Y-723907D02*
X6117857Y-795335D01*
X6117857Y-795335D02*
X6046429Y-831050D01*
X21609999Y-27111764D02*
X21609999Y-26361764D01*
X21609999Y-26718907D02*
X22038570Y-26718907D01*
X22038570Y-27111764D02*
X22038570Y-26361764D01*
X22288570Y-26361764D02*
X22717142Y-26361764D01*
X22502856Y-27111764D02*
X22502856Y-26361764D01*
X22895713Y-26361764D02*
X23395713Y-26361764D01*
X23395713Y-26361764D02*
X23074285Y-27111764D01*
X24038571Y-26361764D02*
X23681428Y-26361764D01*
X23681428Y-26361764D02*
X23645714Y-26718907D01*
X23645714Y-26718907D02*
X23681428Y-26683192D01*
X23681428Y-26683192D02*
X23752857Y-26647478D01*
X23752857Y-26647478D02*
X23931428Y-26647478D01*
X23931428Y-26647478D02*
X24002857Y-26683192D01*
X24002857Y-26683192D02*
X24038571Y-26718907D01*
X24038571Y-26718907D02*
X24074285Y-26790335D01*
X24074285Y-26790335D02*
X24074285Y-26968907D01*
X24074285Y-26968907D02*
X24038571Y-27040335D01*
X24038571Y-27040335D02*
X24002857Y-27076050D01*
X24002857Y-27076050D02*
X23931428Y-27111764D01*
X23931428Y-27111764D02*
X23752857Y-27111764D01*
X23752857Y-27111764D02*
X23681428Y-27076050D01*
X23681428Y-27076050D02*
X23645714Y-27040335D01*
X24324285Y-26361764D02*
X24788571Y-26361764D01*
X24788571Y-26361764D02*
X24538571Y-26647478D01*
X24538571Y-26647478D02*
X24645714Y-26647478D01*
X24645714Y-26647478D02*
X24717143Y-26683192D01*
X24717143Y-26683192D02*
X24752857Y-26718907D01*
X24752857Y-26718907D02*
X24788571Y-26790335D01*
X24788571Y-26790335D02*
X24788571Y-26968907D01*
X24788571Y-26968907D02*
X24752857Y-27040335D01*
X24752857Y-27040335D02*
X24717143Y-27076050D01*
X24717143Y-27076050D02*
X24645714Y-27111764D01*
X24645714Y-27111764D02*
X24431428Y-27111764D01*
X24431428Y-27111764D02*
X24360000Y-27076050D01*
X24360000Y-27076050D02*
X24324285Y-27040335D01*
X25038571Y-26361764D02*
X25502857Y-26361764D01*
X25502857Y-26361764D02*
X25252857Y-26647478D01*
X25252857Y-26647478D02*
X25360000Y-26647478D01*
X25360000Y-26647478D02*
X25431429Y-26683192D01*
X25431429Y-26683192D02*
X25467143Y-26718907D01*
X25467143Y-26718907D02*
X25502857Y-26790335D01*
X25502857Y-26790335D02*
X25502857Y-26968907D01*
X25502857Y-26968907D02*
X25467143Y-27040335D01*
X25467143Y-27040335D02*
X25431429Y-27076050D01*
X25431429Y-27076050D02*
X25360000Y-27111764D01*
X25360000Y-27111764D02*
X25145714Y-27111764D01*
X25145714Y-27111764D02*
X25074286Y-27076050D01*
X25074286Y-27076050D02*
X25038571Y-27040335D01*
X25824286Y-26826050D02*
X26395715Y-26826050D01*
X27145714Y-27111764D02*
X26717143Y-27111764D01*
X26931428Y-27111764D02*
X26931428Y-26361764D01*
X26931428Y-26361764D02*
X26860000Y-26468907D01*
X26860000Y-26468907D02*
X26788571Y-26540335D01*
X26788571Y-26540335D02*
X26717143Y-26576050D01*
X22277857Y-25711764D02*
X22277857Y-24961764D01*
X23063571Y-25640335D02*
X23027857Y-25676050D01*
X23027857Y-25676050D02*
X22920714Y-25711764D01*
X22920714Y-25711764D02*
X22849286Y-25711764D01*
X22849286Y-25711764D02*
X22742143Y-25676050D01*
X22742143Y-25676050D02*
X22670714Y-25604621D01*
X22670714Y-25604621D02*
X22635000Y-25533192D01*
X22635000Y-25533192D02*
X22599286Y-25390335D01*
X22599286Y-25390335D02*
X22599286Y-25283192D01*
X22599286Y-25283192D02*
X22635000Y-25140335D01*
X22635000Y-25140335D02*
X22670714Y-25068907D01*
X22670714Y-25068907D02*
X22742143Y-24997478D01*
X22742143Y-24997478D02*
X22849286Y-24961764D01*
X22849286Y-24961764D02*
X22920714Y-24961764D01*
X22920714Y-24961764D02*
X23027857Y-24997478D01*
X23027857Y-24997478D02*
X23063571Y-25033192D01*
X23777857Y-25711764D02*
X23349286Y-25711764D01*
X23563571Y-25711764D02*
X23563571Y-24961764D01*
X23563571Y-24961764D02*
X23492143Y-25068907D01*
X23492143Y-25068907D02*
X23420714Y-25140335D01*
X23420714Y-25140335D02*
X23349286Y-25176050D01*
D11*
X60754819Y-32377381D02*
X60278628Y-32710714D01*
X60754819Y-32948809D02*
X59754819Y-32948809D01*
X59754819Y-32948809D02*
X59754819Y-32567857D01*
X59754819Y-32567857D02*
X59802438Y-32472619D01*
X59802438Y-32472619D02*
X59850057Y-32425000D01*
X59850057Y-32425000D02*
X59945295Y-32377381D01*
X59945295Y-32377381D02*
X60088152Y-32377381D01*
X60088152Y-32377381D02*
X60183390Y-32425000D01*
X60183390Y-32425000D02*
X60231009Y-32472619D01*
X60231009Y-32472619D02*
X60278628Y-32567857D01*
X60278628Y-32567857D02*
X60278628Y-32948809D01*
X60231009Y-31948809D02*
X60231009Y-31615476D01*
X60754819Y-31472619D02*
X60754819Y-31948809D01*
X60754819Y-31948809D02*
X59754819Y-31948809D01*
X59754819Y-31948809D02*
X59754819Y-31472619D01*
X60707200Y-31091666D02*
X60754819Y-30948809D01*
X60754819Y-30948809D02*
X60754819Y-30710714D01*
X60754819Y-30710714D02*
X60707200Y-30615476D01*
X60707200Y-30615476D02*
X60659580Y-30567857D01*
X60659580Y-30567857D02*
X60564342Y-30520238D01*
X60564342Y-30520238D02*
X60469104Y-30520238D01*
X60469104Y-30520238D02*
X60373866Y-30567857D01*
X60373866Y-30567857D02*
X60326247Y-30615476D01*
X60326247Y-30615476D02*
X60278628Y-30710714D01*
X60278628Y-30710714D02*
X60231009Y-30901190D01*
X60231009Y-30901190D02*
X60183390Y-30996428D01*
X60183390Y-30996428D02*
X60135771Y-31044047D01*
X60135771Y-31044047D02*
X60040533Y-31091666D01*
X60040533Y-31091666D02*
X59945295Y-31091666D01*
X59945295Y-31091666D02*
X59850057Y-31044047D01*
X59850057Y-31044047D02*
X59802438Y-30996428D01*
X59802438Y-30996428D02*
X59754819Y-30901190D01*
X59754819Y-30901190D02*
X59754819Y-30663095D01*
X59754819Y-30663095D02*
X59802438Y-30520238D01*
X60231009Y-30091666D02*
X60231009Y-29758333D01*
X60754819Y-29615476D02*
X60754819Y-30091666D01*
X60754819Y-30091666D02*
X59754819Y-30091666D01*
X59754819Y-30091666D02*
X59754819Y-29615476D01*
X59754819Y-29329761D02*
X59754819Y-28758333D01*
X60754819Y-29044047D02*
X59754819Y-29044047D01*
X61866667Y-35907200D02*
X62009524Y-35954819D01*
X62009524Y-35954819D02*
X62247619Y-35954819D01*
X62247619Y-35954819D02*
X62342857Y-35907200D01*
X62342857Y-35907200D02*
X62390476Y-35859580D01*
X62390476Y-35859580D02*
X62438095Y-35764342D01*
X62438095Y-35764342D02*
X62438095Y-35669104D01*
X62438095Y-35669104D02*
X62390476Y-35573866D01*
X62390476Y-35573866D02*
X62342857Y-35526247D01*
X62342857Y-35526247D02*
X62247619Y-35478628D01*
X62247619Y-35478628D02*
X62057143Y-35431009D01*
X62057143Y-35431009D02*
X61961905Y-35383390D01*
X61961905Y-35383390D02*
X61914286Y-35335771D01*
X61914286Y-35335771D02*
X61866667Y-35240533D01*
X61866667Y-35240533D02*
X61866667Y-35145295D01*
X61866667Y-35145295D02*
X61914286Y-35050057D01*
X61914286Y-35050057D02*
X61961905Y-35002438D01*
X61961905Y-35002438D02*
X62057143Y-34954819D01*
X62057143Y-34954819D02*
X62295238Y-34954819D01*
X62295238Y-34954819D02*
X62438095Y-35002438D01*
X62771429Y-34954819D02*
X63009524Y-35954819D01*
X63009524Y-35954819D02*
X63200000Y-35240533D01*
X63200000Y-35240533D02*
X63390476Y-35954819D01*
X63390476Y-35954819D02*
X63628572Y-34954819D01*
X64533333Y-35954819D02*
X63961905Y-35954819D01*
X64247619Y-35954819D02*
X64247619Y-34954819D01*
X64247619Y-34954819D02*
X64152381Y-35097676D01*
X64152381Y-35097676D02*
X64057143Y-35192914D01*
X64057143Y-35192914D02*
X63961905Y-35240533D01*
D10*
X40982143Y-26081050D02*
X41089286Y-26116764D01*
X41089286Y-26116764D02*
X41267857Y-26116764D01*
X41267857Y-26116764D02*
X41339286Y-26081050D01*
X41339286Y-26081050D02*
X41375000Y-26045335D01*
X41375000Y-26045335D02*
X41410714Y-25973907D01*
X41410714Y-25973907D02*
X41410714Y-25902478D01*
X41410714Y-25902478D02*
X41375000Y-25831050D01*
X41375000Y-25831050D02*
X41339286Y-25795335D01*
X41339286Y-25795335D02*
X41267857Y-25759621D01*
X41267857Y-25759621D02*
X41125000Y-25723907D01*
X41125000Y-25723907D02*
X41053571Y-25688192D01*
X41053571Y-25688192D02*
X41017857Y-25652478D01*
X41017857Y-25652478D02*
X40982143Y-25581050D01*
X40982143Y-25581050D02*
X40982143Y-25509621D01*
X40982143Y-25509621D02*
X41017857Y-25438192D01*
X41017857Y-25438192D02*
X41053571Y-25402478D01*
X41053571Y-25402478D02*
X41125000Y-25366764D01*
X41125000Y-25366764D02*
X41303571Y-25366764D01*
X41303571Y-25366764D02*
X41410714Y-25402478D01*
X41732143Y-26116764D02*
X41732143Y-25366764D01*
X41732143Y-25366764D02*
X41910714Y-25366764D01*
X41910714Y-25366764D02*
X42017857Y-25402478D01*
X42017857Y-25402478D02*
X42089286Y-25473907D01*
X42089286Y-25473907D02*
X42125000Y-25545335D01*
X42125000Y-25545335D02*
X42160714Y-25688192D01*
X42160714Y-25688192D02*
X42160714Y-25795335D01*
X42160714Y-25795335D02*
X42125000Y-25938192D01*
X42125000Y-25938192D02*
X42089286Y-26009621D01*
X42089286Y-26009621D02*
X42017857Y-26081050D01*
X42017857Y-26081050D02*
X41910714Y-26116764D01*
X41910714Y-26116764D02*
X41732143Y-26116764D01*
X42303572Y-26188192D02*
X42875000Y-26188192D01*
X43410715Y-26116764D02*
X43053572Y-26116764D01*
X43053572Y-26116764D02*
X43053572Y-25366764D01*
X43660715Y-25723907D02*
X43910715Y-25723907D01*
X44017858Y-26116764D02*
X43660715Y-26116764D01*
X43660715Y-26116764D02*
X43660715Y-25366764D01*
X43660715Y-25366764D02*
X44017858Y-25366764D01*
X44339286Y-26116764D02*
X44339286Y-25366764D01*
X44339286Y-25366764D02*
X44517857Y-25366764D01*
X44517857Y-25366764D02*
X44625000Y-25402478D01*
X44625000Y-25402478D02*
X44696429Y-25473907D01*
X44696429Y-25473907D02*
X44732143Y-25545335D01*
X44732143Y-25545335D02*
X44767857Y-25688192D01*
X44767857Y-25688192D02*
X44767857Y-25795335D01*
X44767857Y-25795335D02*
X44732143Y-25938192D01*
X44732143Y-25938192D02*
X44696429Y-26009621D01*
X44696429Y-26009621D02*
X44625000Y-26081050D01*
X44625000Y-26081050D02*
X44517857Y-26116764D01*
X44517857Y-26116764D02*
X44339286Y-26116764D01*
X48721428Y-26616764D02*
X48721428Y-25866764D01*
X48721428Y-25866764D02*
X48899999Y-25866764D01*
X48899999Y-25866764D02*
X49007142Y-25902478D01*
X49007142Y-25902478D02*
X49078571Y-25973907D01*
X49078571Y-25973907D02*
X49114285Y-26045335D01*
X49114285Y-26045335D02*
X49149999Y-26188192D01*
X49149999Y-26188192D02*
X49149999Y-26295335D01*
X49149999Y-26295335D02*
X49114285Y-26438192D01*
X49114285Y-26438192D02*
X49078571Y-26509621D01*
X49078571Y-26509621D02*
X49007142Y-26581050D01*
X49007142Y-26581050D02*
X48899999Y-26616764D01*
X48899999Y-26616764D02*
X48721428Y-26616764D01*
X49864285Y-26616764D02*
X49435714Y-26616764D01*
X49649999Y-26616764D02*
X49649999Y-25866764D01*
X49649999Y-25866764D02*
X49578571Y-25973907D01*
X49578571Y-25973907D02*
X49507142Y-26045335D01*
X49507142Y-26045335D02*
X49435714Y-26081050D01*
X47264285Y-10016764D02*
X46835714Y-10016764D01*
X47049999Y-10016764D02*
X47049999Y-9266764D01*
X47049999Y-9266764D02*
X46978571Y-9373907D01*
X46978571Y-9373907D02*
X46907142Y-9445335D01*
X46907142Y-9445335D02*
X46835714Y-9481050D01*
X47728571Y-9266764D02*
X47800000Y-9266764D01*
X47800000Y-9266764D02*
X47871428Y-9302478D01*
X47871428Y-9302478D02*
X47907143Y-9338192D01*
X47907143Y-9338192D02*
X47942857Y-9409621D01*
X47942857Y-9409621D02*
X47978571Y-9552478D01*
X47978571Y-9552478D02*
X47978571Y-9731050D01*
X47978571Y-9731050D02*
X47942857Y-9873907D01*
X47942857Y-9873907D02*
X47907143Y-9945335D01*
X47907143Y-9945335D02*
X47871428Y-9981050D01*
X47871428Y-9981050D02*
X47800000Y-10016764D01*
X47800000Y-10016764D02*
X47728571Y-10016764D01*
X47728571Y-10016764D02*
X47657143Y-9981050D01*
X47657143Y-9981050D02*
X47621428Y-9945335D01*
X47621428Y-9945335D02*
X47585714Y-9873907D01*
X47585714Y-9873907D02*
X47550000Y-9731050D01*
X47550000Y-9731050D02*
X47550000Y-9552478D01*
X47550000Y-9552478D02*
X47585714Y-9409621D01*
X47585714Y-9409621D02*
X47621428Y-9338192D01*
X47621428Y-9338192D02*
X47657143Y-9302478D01*
X47657143Y-9302478D02*
X47728571Y-9266764D01*
X48442857Y-9266764D02*
X48514286Y-9266764D01*
X48514286Y-9266764D02*
X48585714Y-9302478D01*
X48585714Y-9302478D02*
X48621429Y-9338192D01*
X48621429Y-9338192D02*
X48657143Y-9409621D01*
X48657143Y-9409621D02*
X48692857Y-9552478D01*
X48692857Y-9552478D02*
X48692857Y-9731050D01*
X48692857Y-9731050D02*
X48657143Y-9873907D01*
X48657143Y-9873907D02*
X48621429Y-9945335D01*
X48621429Y-9945335D02*
X48585714Y-9981050D01*
X48585714Y-9981050D02*
X48514286Y-10016764D01*
X48514286Y-10016764D02*
X48442857Y-10016764D01*
X48442857Y-10016764D02*
X48371429Y-9981050D01*
X48371429Y-9981050D02*
X48335714Y-9945335D01*
X48335714Y-9945335D02*
X48300000Y-9873907D01*
X48300000Y-9873907D02*
X48264286Y-9731050D01*
X48264286Y-9731050D02*
X48264286Y-9552478D01*
X48264286Y-9552478D02*
X48300000Y-9409621D01*
X48300000Y-9409621D02*
X48335714Y-9338192D01*
X48335714Y-9338192D02*
X48371429Y-9302478D01*
X48371429Y-9302478D02*
X48442857Y-9266764D01*
X49014286Y-9516764D02*
X49014286Y-10016764D01*
X49014286Y-9588192D02*
X49050000Y-9552478D01*
X49050000Y-9552478D02*
X49121429Y-9516764D01*
X49121429Y-9516764D02*
X49228572Y-9516764D01*
X49228572Y-9516764D02*
X49300000Y-9552478D01*
X49300000Y-9552478D02*
X49335715Y-9623907D01*
X49335715Y-9623907D02*
X49335715Y-10016764D01*
X49942857Y-9623907D02*
X49692857Y-9623907D01*
X49692857Y-10016764D02*
X49692857Y-9266764D01*
X49692857Y-9266764D02*
X50050000Y-9266764D01*
X45624999Y-9620335D02*
X45589285Y-9656050D01*
X45589285Y-9656050D02*
X45482142Y-9691764D01*
X45482142Y-9691764D02*
X45410714Y-9691764D01*
X45410714Y-9691764D02*
X45303571Y-9656050D01*
X45303571Y-9656050D02*
X45232142Y-9584621D01*
X45232142Y-9584621D02*
X45196428Y-9513192D01*
X45196428Y-9513192D02*
X45160714Y-9370335D01*
X45160714Y-9370335D02*
X45160714Y-9263192D01*
X45160714Y-9263192D02*
X45196428Y-9120335D01*
X45196428Y-9120335D02*
X45232142Y-9048907D01*
X45232142Y-9048907D02*
X45303571Y-8977478D01*
X45303571Y-8977478D02*
X45410714Y-8941764D01*
X45410714Y-8941764D02*
X45482142Y-8941764D01*
X45482142Y-8941764D02*
X45589285Y-8977478D01*
X45589285Y-8977478D02*
X45624999Y-9013192D01*
X45874999Y-8941764D02*
X46374999Y-8941764D01*
X46374999Y-8941764D02*
X46053571Y-9691764D01*
X45078571Y-11088192D02*
X45114285Y-11052478D01*
X45114285Y-11052478D02*
X45185714Y-11016764D01*
X45185714Y-11016764D02*
X45364285Y-11016764D01*
X45364285Y-11016764D02*
X45435714Y-11052478D01*
X45435714Y-11052478D02*
X45471428Y-11088192D01*
X45471428Y-11088192D02*
X45507142Y-11159621D01*
X45507142Y-11159621D02*
X45507142Y-11231050D01*
X45507142Y-11231050D02*
X45471428Y-11338192D01*
X45471428Y-11338192D02*
X45042856Y-11766764D01*
X45042856Y-11766764D02*
X45507142Y-11766764D01*
X45828571Y-11766764D02*
X45828571Y-11016764D01*
X46257142Y-11766764D02*
X45935714Y-11338192D01*
X46257142Y-11016764D02*
X45828571Y-11445335D01*
X46542857Y-11088192D02*
X46578571Y-11052478D01*
X46578571Y-11052478D02*
X46650000Y-11016764D01*
X46650000Y-11016764D02*
X46828571Y-11016764D01*
X46828571Y-11016764D02*
X46900000Y-11052478D01*
X46900000Y-11052478D02*
X46935714Y-11088192D01*
X46935714Y-11088192D02*
X46971428Y-11159621D01*
X46971428Y-11159621D02*
X46971428Y-11231050D01*
X46971428Y-11231050D02*
X46935714Y-11338192D01*
X46935714Y-11338192D02*
X46507142Y-11766764D01*
X46507142Y-11766764D02*
X46971428Y-11766764D01*
X43974999Y-11216764D02*
X43724999Y-10859621D01*
X43546428Y-11216764D02*
X43546428Y-10466764D01*
X43546428Y-10466764D02*
X43832142Y-10466764D01*
X43832142Y-10466764D02*
X43903571Y-10502478D01*
X43903571Y-10502478D02*
X43939285Y-10538192D01*
X43939285Y-10538192D02*
X43974999Y-10609621D01*
X43974999Y-10609621D02*
X43974999Y-10716764D01*
X43974999Y-10716764D02*
X43939285Y-10788192D01*
X43939285Y-10788192D02*
X43903571Y-10823907D01*
X43903571Y-10823907D02*
X43832142Y-10859621D01*
X43832142Y-10859621D02*
X43546428Y-10859621D01*
X44653571Y-10466764D02*
X44296428Y-10466764D01*
X44296428Y-10466764D02*
X44260714Y-10823907D01*
X44260714Y-10823907D02*
X44296428Y-10788192D01*
X44296428Y-10788192D02*
X44367857Y-10752478D01*
X44367857Y-10752478D02*
X44546428Y-10752478D01*
X44546428Y-10752478D02*
X44617857Y-10788192D01*
X44617857Y-10788192D02*
X44653571Y-10823907D01*
X44653571Y-10823907D02*
X44689285Y-10895335D01*
X44689285Y-10895335D02*
X44689285Y-11073907D01*
X44689285Y-11073907D02*
X44653571Y-11145335D01*
X44653571Y-11145335D02*
X44617857Y-11181050D01*
X44617857Y-11181050D02*
X44546428Y-11216764D01*
X44546428Y-11216764D02*
X44367857Y-11216764D01*
X44367857Y-11216764D02*
X44296428Y-11181050D01*
X44296428Y-11181050D02*
X44260714Y-11145335D01*
X30810713Y-13991764D02*
X31274999Y-13991764D01*
X31274999Y-13991764D02*
X31024999Y-14277478D01*
X31024999Y-14277478D02*
X31132142Y-14277478D01*
X31132142Y-14277478D02*
X31203571Y-14313192D01*
X31203571Y-14313192D02*
X31239285Y-14348907D01*
X31239285Y-14348907D02*
X31274999Y-14420335D01*
X31274999Y-14420335D02*
X31274999Y-14598907D01*
X31274999Y-14598907D02*
X31239285Y-14670335D01*
X31239285Y-14670335D02*
X31203571Y-14706050D01*
X31203571Y-14706050D02*
X31132142Y-14741764D01*
X31132142Y-14741764D02*
X30917856Y-14741764D01*
X30917856Y-14741764D02*
X30846428Y-14706050D01*
X30846428Y-14706050D02*
X30810713Y-14670335D01*
X31524999Y-13991764D02*
X31989285Y-13991764D01*
X31989285Y-13991764D02*
X31739285Y-14277478D01*
X31739285Y-14277478D02*
X31846428Y-14277478D01*
X31846428Y-14277478D02*
X31917857Y-14313192D01*
X31917857Y-14313192D02*
X31953571Y-14348907D01*
X31953571Y-14348907D02*
X31989285Y-14420335D01*
X31989285Y-14420335D02*
X31989285Y-14598907D01*
X31989285Y-14598907D02*
X31953571Y-14670335D01*
X31953571Y-14670335D02*
X31917857Y-14706050D01*
X31917857Y-14706050D02*
X31846428Y-14741764D01*
X31846428Y-14741764D02*
X31632142Y-14741764D01*
X31632142Y-14741764D02*
X31560714Y-14706050D01*
X31560714Y-14706050D02*
X31524999Y-14670335D01*
X32453571Y-13991764D02*
X32525000Y-13991764D01*
X32525000Y-13991764D02*
X32596428Y-14027478D01*
X32596428Y-14027478D02*
X32632143Y-14063192D01*
X32632143Y-14063192D02*
X32667857Y-14134621D01*
X32667857Y-14134621D02*
X32703571Y-14277478D01*
X32703571Y-14277478D02*
X32703571Y-14456050D01*
X32703571Y-14456050D02*
X32667857Y-14598907D01*
X32667857Y-14598907D02*
X32632143Y-14670335D01*
X32632143Y-14670335D02*
X32596428Y-14706050D01*
X32596428Y-14706050D02*
X32525000Y-14741764D01*
X32525000Y-14741764D02*
X32453571Y-14741764D01*
X32453571Y-14741764D02*
X32382143Y-14706050D01*
X32382143Y-14706050D02*
X32346428Y-14670335D01*
X32346428Y-14670335D02*
X32310714Y-14598907D01*
X32310714Y-14598907D02*
X32275000Y-14456050D01*
X32275000Y-14456050D02*
X32275000Y-14277478D01*
X32275000Y-14277478D02*
X32310714Y-14134621D01*
X32310714Y-14134621D02*
X32346428Y-14063192D01*
X32346428Y-14063192D02*
X32382143Y-14027478D01*
X32382143Y-14027478D02*
X32453571Y-13991764D01*
X31899999Y-13616764D02*
X31649999Y-13259621D01*
X31471428Y-13616764D02*
X31471428Y-12866764D01*
X31471428Y-12866764D02*
X31757142Y-12866764D01*
X31757142Y-12866764D02*
X31828571Y-12902478D01*
X31828571Y-12902478D02*
X31864285Y-12938192D01*
X31864285Y-12938192D02*
X31899999Y-13009621D01*
X31899999Y-13009621D02*
X31899999Y-13116764D01*
X31899999Y-13116764D02*
X31864285Y-13188192D01*
X31864285Y-13188192D02*
X31828571Y-13223907D01*
X31828571Y-13223907D02*
X31757142Y-13259621D01*
X31757142Y-13259621D02*
X31471428Y-13259621D01*
X32149999Y-12866764D02*
X32614285Y-12866764D01*
X32614285Y-12866764D02*
X32364285Y-13152478D01*
X32364285Y-13152478D02*
X32471428Y-13152478D01*
X32471428Y-13152478D02*
X32542857Y-13188192D01*
X32542857Y-13188192D02*
X32578571Y-13223907D01*
X32578571Y-13223907D02*
X32614285Y-13295335D01*
X32614285Y-13295335D02*
X32614285Y-13473907D01*
X32614285Y-13473907D02*
X32578571Y-13545335D01*
X32578571Y-13545335D02*
X32542857Y-13581050D01*
X32542857Y-13581050D02*
X32471428Y-13616764D01*
X32471428Y-13616764D02*
X32257142Y-13616764D01*
X32257142Y-13616764D02*
X32185714Y-13581050D01*
X32185714Y-13581050D02*
X32149999Y-13545335D01*
X22267857Y-12541764D02*
X21839286Y-12541764D01*
X22053571Y-12541764D02*
X22053571Y-11791764D01*
X22053571Y-11791764D02*
X21982143Y-11898907D01*
X21982143Y-11898907D02*
X21910714Y-11970335D01*
X21910714Y-11970335D02*
X21839286Y-12006050D01*
X22732143Y-11791764D02*
X22803572Y-11791764D01*
X22803572Y-11791764D02*
X22875000Y-11827478D01*
X22875000Y-11827478D02*
X22910715Y-11863192D01*
X22910715Y-11863192D02*
X22946429Y-11934621D01*
X22946429Y-11934621D02*
X22982143Y-12077478D01*
X22982143Y-12077478D02*
X22982143Y-12256050D01*
X22982143Y-12256050D02*
X22946429Y-12398907D01*
X22946429Y-12398907D02*
X22910715Y-12470335D01*
X22910715Y-12470335D02*
X22875000Y-12506050D01*
X22875000Y-12506050D02*
X22803572Y-12541764D01*
X22803572Y-12541764D02*
X22732143Y-12541764D01*
X22732143Y-12541764D02*
X22660715Y-12506050D01*
X22660715Y-12506050D02*
X22625000Y-12470335D01*
X22625000Y-12470335D02*
X22589286Y-12398907D01*
X22589286Y-12398907D02*
X22553572Y-12256050D01*
X22553572Y-12256050D02*
X22553572Y-12077478D01*
X22553572Y-12077478D02*
X22589286Y-11934621D01*
X22589286Y-11934621D02*
X22625000Y-11863192D01*
X22625000Y-11863192D02*
X22660715Y-11827478D01*
X22660715Y-11827478D02*
X22732143Y-11791764D01*
X23303572Y-12041764D02*
X23303572Y-12541764D01*
X23303572Y-12113192D02*
X23339286Y-12077478D01*
X23339286Y-12077478D02*
X23410715Y-12041764D01*
X23410715Y-12041764D02*
X23517858Y-12041764D01*
X23517858Y-12041764D02*
X23589286Y-12077478D01*
X23589286Y-12077478D02*
X23625001Y-12148907D01*
X23625001Y-12148907D02*
X23625001Y-12541764D01*
X22349999Y-11470335D02*
X22314285Y-11506050D01*
X22314285Y-11506050D02*
X22207142Y-11541764D01*
X22207142Y-11541764D02*
X22135714Y-11541764D01*
X22135714Y-11541764D02*
X22028571Y-11506050D01*
X22028571Y-11506050D02*
X21957142Y-11434621D01*
X21957142Y-11434621D02*
X21921428Y-11363192D01*
X21921428Y-11363192D02*
X21885714Y-11220335D01*
X21885714Y-11220335D02*
X21885714Y-11113192D01*
X21885714Y-11113192D02*
X21921428Y-10970335D01*
X21921428Y-10970335D02*
X21957142Y-10898907D01*
X21957142Y-10898907D02*
X22028571Y-10827478D01*
X22028571Y-10827478D02*
X22135714Y-10791764D01*
X22135714Y-10791764D02*
X22207142Y-10791764D01*
X22207142Y-10791764D02*
X22314285Y-10827478D01*
X22314285Y-10827478D02*
X22349999Y-10863192D01*
X22599999Y-10791764D02*
X23064285Y-10791764D01*
X23064285Y-10791764D02*
X22814285Y-11077478D01*
X22814285Y-11077478D02*
X22921428Y-11077478D01*
X22921428Y-11077478D02*
X22992857Y-11113192D01*
X22992857Y-11113192D02*
X23028571Y-11148907D01*
X23028571Y-11148907D02*
X23064285Y-11220335D01*
X23064285Y-11220335D02*
X23064285Y-11398907D01*
X23064285Y-11398907D02*
X23028571Y-11470335D01*
X23028571Y-11470335D02*
X22992857Y-11506050D01*
X22992857Y-11506050D02*
X22921428Y-11541764D01*
X22921428Y-11541764D02*
X22707142Y-11541764D01*
X22707142Y-11541764D02*
X22635714Y-11506050D01*
X22635714Y-11506050D02*
X22599999Y-11470335D01*
X30335713Y-11266764D02*
X30799999Y-11266764D01*
X30799999Y-11266764D02*
X30549999Y-11552478D01*
X30549999Y-11552478D02*
X30657142Y-11552478D01*
X30657142Y-11552478D02*
X30728571Y-11588192D01*
X30728571Y-11588192D02*
X30764285Y-11623907D01*
X30764285Y-11623907D02*
X30799999Y-11695335D01*
X30799999Y-11695335D02*
X30799999Y-11873907D01*
X30799999Y-11873907D02*
X30764285Y-11945335D01*
X30764285Y-11945335D02*
X30728571Y-11981050D01*
X30728571Y-11981050D02*
X30657142Y-12016764D01*
X30657142Y-12016764D02*
X30442856Y-12016764D01*
X30442856Y-12016764D02*
X30371428Y-11981050D01*
X30371428Y-11981050D02*
X30335713Y-11945335D01*
X31049999Y-11266764D02*
X31514285Y-11266764D01*
X31514285Y-11266764D02*
X31264285Y-11552478D01*
X31264285Y-11552478D02*
X31371428Y-11552478D01*
X31371428Y-11552478D02*
X31442857Y-11588192D01*
X31442857Y-11588192D02*
X31478571Y-11623907D01*
X31478571Y-11623907D02*
X31514285Y-11695335D01*
X31514285Y-11695335D02*
X31514285Y-11873907D01*
X31514285Y-11873907D02*
X31478571Y-11945335D01*
X31478571Y-11945335D02*
X31442857Y-11981050D01*
X31442857Y-11981050D02*
X31371428Y-12016764D01*
X31371428Y-12016764D02*
X31157142Y-12016764D01*
X31157142Y-12016764D02*
X31085714Y-11981050D01*
X31085714Y-11981050D02*
X31049999Y-11945335D01*
X31978571Y-11266764D02*
X32050000Y-11266764D01*
X32050000Y-11266764D02*
X32121428Y-11302478D01*
X32121428Y-11302478D02*
X32157143Y-11338192D01*
X32157143Y-11338192D02*
X32192857Y-11409621D01*
X32192857Y-11409621D02*
X32228571Y-11552478D01*
X32228571Y-11552478D02*
X32228571Y-11731050D01*
X32228571Y-11731050D02*
X32192857Y-11873907D01*
X32192857Y-11873907D02*
X32157143Y-11945335D01*
X32157143Y-11945335D02*
X32121428Y-11981050D01*
X32121428Y-11981050D02*
X32050000Y-12016764D01*
X32050000Y-12016764D02*
X31978571Y-12016764D01*
X31978571Y-12016764D02*
X31907143Y-11981050D01*
X31907143Y-11981050D02*
X31871428Y-11945335D01*
X31871428Y-11945335D02*
X31835714Y-11873907D01*
X31835714Y-11873907D02*
X31800000Y-11731050D01*
X31800000Y-11731050D02*
X31800000Y-11552478D01*
X31800000Y-11552478D02*
X31835714Y-11409621D01*
X31835714Y-11409621D02*
X31871428Y-11338192D01*
X31871428Y-11338192D02*
X31907143Y-11302478D01*
X31907143Y-11302478D02*
X31978571Y-11266764D01*
X30964199Y-10742964D02*
X30714199Y-10385821D01*
X30535628Y-10742964D02*
X30535628Y-9992964D01*
X30535628Y-9992964D02*
X30821342Y-9992964D01*
X30821342Y-9992964D02*
X30892771Y-10028678D01*
X30892771Y-10028678D02*
X30928485Y-10064392D01*
X30928485Y-10064392D02*
X30964199Y-10135821D01*
X30964199Y-10135821D02*
X30964199Y-10242964D01*
X30964199Y-10242964D02*
X30928485Y-10314392D01*
X30928485Y-10314392D02*
X30892771Y-10350107D01*
X30892771Y-10350107D02*
X30821342Y-10385821D01*
X30821342Y-10385821D02*
X30535628Y-10385821D01*
X31678485Y-10742964D02*
X31249914Y-10742964D01*
X31464199Y-10742964D02*
X31464199Y-9992964D01*
X31464199Y-9992964D02*
X31392771Y-10100107D01*
X31392771Y-10100107D02*
X31321342Y-10171535D01*
X31321342Y-10171535D02*
X31249914Y-10207250D01*
X40300000Y-24266764D02*
X40300000Y-24873907D01*
X40300000Y-24873907D02*
X40335714Y-24945335D01*
X40335714Y-24945335D02*
X40371429Y-24981050D01*
X40371429Y-24981050D02*
X40442857Y-25016764D01*
X40442857Y-25016764D02*
X40585714Y-25016764D01*
X40585714Y-25016764D02*
X40657143Y-24981050D01*
X40657143Y-24981050D02*
X40692857Y-24945335D01*
X40692857Y-24945335D02*
X40728571Y-24873907D01*
X40728571Y-24873907D02*
X40728571Y-24266764D01*
X41050000Y-24981050D02*
X41157143Y-25016764D01*
X41157143Y-25016764D02*
X41335714Y-25016764D01*
X41335714Y-25016764D02*
X41407143Y-24981050D01*
X41407143Y-24981050D02*
X41442857Y-24945335D01*
X41442857Y-24945335D02*
X41478571Y-24873907D01*
X41478571Y-24873907D02*
X41478571Y-24802478D01*
X41478571Y-24802478D02*
X41442857Y-24731050D01*
X41442857Y-24731050D02*
X41407143Y-24695335D01*
X41407143Y-24695335D02*
X41335714Y-24659621D01*
X41335714Y-24659621D02*
X41192857Y-24623907D01*
X41192857Y-24623907D02*
X41121428Y-24588192D01*
X41121428Y-24588192D02*
X41085714Y-24552478D01*
X41085714Y-24552478D02*
X41050000Y-24481050D01*
X41050000Y-24481050D02*
X41050000Y-24409621D01*
X41050000Y-24409621D02*
X41085714Y-24338192D01*
X41085714Y-24338192D02*
X41121428Y-24302478D01*
X41121428Y-24302478D02*
X41192857Y-24266764D01*
X41192857Y-24266764D02*
X41371428Y-24266764D01*
X41371428Y-24266764D02*
X41478571Y-24302478D01*
X42228571Y-25016764D02*
X41978571Y-24659621D01*
X41800000Y-25016764D02*
X41800000Y-24266764D01*
X41800000Y-24266764D02*
X42085714Y-24266764D01*
X42085714Y-24266764D02*
X42157143Y-24302478D01*
X42157143Y-24302478D02*
X42192857Y-24338192D01*
X42192857Y-24338192D02*
X42228571Y-24409621D01*
X42228571Y-24409621D02*
X42228571Y-24516764D01*
X42228571Y-24516764D02*
X42192857Y-24588192D01*
X42192857Y-24588192D02*
X42157143Y-24623907D01*
X42157143Y-24623907D02*
X42085714Y-24659621D01*
X42085714Y-24659621D02*
X41800000Y-24659621D01*
X42371429Y-25088192D02*
X42942857Y-25088192D01*
X43478572Y-25016764D02*
X43121429Y-25016764D01*
X43121429Y-25016764D02*
X43121429Y-24266764D01*
X43728572Y-24623907D02*
X43978572Y-24623907D01*
X44085715Y-25016764D02*
X43728572Y-25016764D01*
X43728572Y-25016764D02*
X43728572Y-24266764D01*
X43728572Y-24266764D02*
X44085715Y-24266764D01*
X44407143Y-25016764D02*
X44407143Y-24266764D01*
X44407143Y-24266764D02*
X44585714Y-24266764D01*
X44585714Y-24266764D02*
X44692857Y-24302478D01*
X44692857Y-24302478D02*
X44764286Y-24373907D01*
X44764286Y-24373907D02*
X44800000Y-24445335D01*
X44800000Y-24445335D02*
X44835714Y-24588192D01*
X44835714Y-24588192D02*
X44835714Y-24695335D01*
X44835714Y-24695335D02*
X44800000Y-24838192D01*
X44800000Y-24838192D02*
X44764286Y-24909621D01*
X44764286Y-24909621D02*
X44692857Y-24981050D01*
X44692857Y-24981050D02*
X44585714Y-25016764D01*
X44585714Y-25016764D02*
X44407143Y-25016764D01*
X43596428Y-22716764D02*
X43596428Y-21966764D01*
X43596428Y-21966764D02*
X43774999Y-21966764D01*
X43774999Y-21966764D02*
X43882142Y-22002478D01*
X43882142Y-22002478D02*
X43953571Y-22073907D01*
X43953571Y-22073907D02*
X43989285Y-22145335D01*
X43989285Y-22145335D02*
X44024999Y-22288192D01*
X44024999Y-22288192D02*
X44024999Y-22395335D01*
X44024999Y-22395335D02*
X43989285Y-22538192D01*
X43989285Y-22538192D02*
X43953571Y-22609621D01*
X43953571Y-22609621D02*
X43882142Y-22681050D01*
X43882142Y-22681050D02*
X43774999Y-22716764D01*
X43774999Y-22716764D02*
X43596428Y-22716764D01*
X44310714Y-22038192D02*
X44346428Y-22002478D01*
X44346428Y-22002478D02*
X44417857Y-21966764D01*
X44417857Y-21966764D02*
X44596428Y-21966764D01*
X44596428Y-21966764D02*
X44667857Y-22002478D01*
X44667857Y-22002478D02*
X44703571Y-22038192D01*
X44703571Y-22038192D02*
X44739285Y-22109621D01*
X44739285Y-22109621D02*
X44739285Y-22181050D01*
X44739285Y-22181050D02*
X44703571Y-22288192D01*
X44703571Y-22288192D02*
X44274999Y-22716764D01*
X44274999Y-22716764D02*
X44739285Y-22716764D01*
X14585713Y-9691764D02*
X15049999Y-9691764D01*
X15049999Y-9691764D02*
X14799999Y-9977478D01*
X14799999Y-9977478D02*
X14907142Y-9977478D01*
X14907142Y-9977478D02*
X14978571Y-10013192D01*
X14978571Y-10013192D02*
X15014285Y-10048907D01*
X15014285Y-10048907D02*
X15049999Y-10120335D01*
X15049999Y-10120335D02*
X15049999Y-10298907D01*
X15049999Y-10298907D02*
X15014285Y-10370335D01*
X15014285Y-10370335D02*
X14978571Y-10406050D01*
X14978571Y-10406050D02*
X14907142Y-10441764D01*
X14907142Y-10441764D02*
X14692856Y-10441764D01*
X14692856Y-10441764D02*
X14621428Y-10406050D01*
X14621428Y-10406050D02*
X14585713Y-10370335D01*
X15299999Y-9691764D02*
X15764285Y-9691764D01*
X15764285Y-9691764D02*
X15514285Y-9977478D01*
X15514285Y-9977478D02*
X15621428Y-9977478D01*
X15621428Y-9977478D02*
X15692857Y-10013192D01*
X15692857Y-10013192D02*
X15728571Y-10048907D01*
X15728571Y-10048907D02*
X15764285Y-10120335D01*
X15764285Y-10120335D02*
X15764285Y-10298907D01*
X15764285Y-10298907D02*
X15728571Y-10370335D01*
X15728571Y-10370335D02*
X15692857Y-10406050D01*
X15692857Y-10406050D02*
X15621428Y-10441764D01*
X15621428Y-10441764D02*
X15407142Y-10441764D01*
X15407142Y-10441764D02*
X15335714Y-10406050D01*
X15335714Y-10406050D02*
X15299999Y-10370335D01*
X16228571Y-9691764D02*
X16300000Y-9691764D01*
X16300000Y-9691764D02*
X16371428Y-9727478D01*
X16371428Y-9727478D02*
X16407143Y-9763192D01*
X16407143Y-9763192D02*
X16442857Y-9834621D01*
X16442857Y-9834621D02*
X16478571Y-9977478D01*
X16478571Y-9977478D02*
X16478571Y-10156050D01*
X16478571Y-10156050D02*
X16442857Y-10298907D01*
X16442857Y-10298907D02*
X16407143Y-10370335D01*
X16407143Y-10370335D02*
X16371428Y-10406050D01*
X16371428Y-10406050D02*
X16300000Y-10441764D01*
X16300000Y-10441764D02*
X16228571Y-10441764D01*
X16228571Y-10441764D02*
X16157143Y-10406050D01*
X16157143Y-10406050D02*
X16121428Y-10370335D01*
X16121428Y-10370335D02*
X16085714Y-10298907D01*
X16085714Y-10298907D02*
X16050000Y-10156050D01*
X16050000Y-10156050D02*
X16050000Y-9977478D01*
X16050000Y-9977478D02*
X16085714Y-9834621D01*
X16085714Y-9834621D02*
X16121428Y-9763192D01*
X16121428Y-9763192D02*
X16157143Y-9727478D01*
X16157143Y-9727478D02*
X16228571Y-9691764D01*
X15674999Y-11591764D02*
X15424999Y-11234621D01*
X15246428Y-11591764D02*
X15246428Y-10841764D01*
X15246428Y-10841764D02*
X15532142Y-10841764D01*
X15532142Y-10841764D02*
X15603571Y-10877478D01*
X15603571Y-10877478D02*
X15639285Y-10913192D01*
X15639285Y-10913192D02*
X15674999Y-10984621D01*
X15674999Y-10984621D02*
X15674999Y-11091764D01*
X15674999Y-11091764D02*
X15639285Y-11163192D01*
X15639285Y-11163192D02*
X15603571Y-11198907D01*
X15603571Y-11198907D02*
X15532142Y-11234621D01*
X15532142Y-11234621D02*
X15246428Y-11234621D01*
X16317857Y-11091764D02*
X16317857Y-11591764D01*
X16139285Y-10806050D02*
X15960714Y-11341764D01*
X15960714Y-11341764D02*
X16424999Y-11341764D01*
X19910713Y-19041764D02*
X20374999Y-19041764D01*
X20374999Y-19041764D02*
X20124999Y-19327478D01*
X20124999Y-19327478D02*
X20232142Y-19327478D01*
X20232142Y-19327478D02*
X20303571Y-19363192D01*
X20303571Y-19363192D02*
X20339285Y-19398907D01*
X20339285Y-19398907D02*
X20374999Y-19470335D01*
X20374999Y-19470335D02*
X20374999Y-19648907D01*
X20374999Y-19648907D02*
X20339285Y-19720335D01*
X20339285Y-19720335D02*
X20303571Y-19756050D01*
X20303571Y-19756050D02*
X20232142Y-19791764D01*
X20232142Y-19791764D02*
X20017856Y-19791764D01*
X20017856Y-19791764D02*
X19946428Y-19756050D01*
X19946428Y-19756050D02*
X19910713Y-19720335D01*
X20624999Y-19041764D02*
X21089285Y-19041764D01*
X21089285Y-19041764D02*
X20839285Y-19327478D01*
X20839285Y-19327478D02*
X20946428Y-19327478D01*
X20946428Y-19327478D02*
X21017857Y-19363192D01*
X21017857Y-19363192D02*
X21053571Y-19398907D01*
X21053571Y-19398907D02*
X21089285Y-19470335D01*
X21089285Y-19470335D02*
X21089285Y-19648907D01*
X21089285Y-19648907D02*
X21053571Y-19720335D01*
X21053571Y-19720335D02*
X21017857Y-19756050D01*
X21017857Y-19756050D02*
X20946428Y-19791764D01*
X20946428Y-19791764D02*
X20732142Y-19791764D01*
X20732142Y-19791764D02*
X20660714Y-19756050D01*
X20660714Y-19756050D02*
X20624999Y-19720335D01*
X21553571Y-19041764D02*
X21625000Y-19041764D01*
X21625000Y-19041764D02*
X21696428Y-19077478D01*
X21696428Y-19077478D02*
X21732143Y-19113192D01*
X21732143Y-19113192D02*
X21767857Y-19184621D01*
X21767857Y-19184621D02*
X21803571Y-19327478D01*
X21803571Y-19327478D02*
X21803571Y-19506050D01*
X21803571Y-19506050D02*
X21767857Y-19648907D01*
X21767857Y-19648907D02*
X21732143Y-19720335D01*
X21732143Y-19720335D02*
X21696428Y-19756050D01*
X21696428Y-19756050D02*
X21625000Y-19791764D01*
X21625000Y-19791764D02*
X21553571Y-19791764D01*
X21553571Y-19791764D02*
X21482143Y-19756050D01*
X21482143Y-19756050D02*
X21446428Y-19720335D01*
X21446428Y-19720335D02*
X21410714Y-19648907D01*
X21410714Y-19648907D02*
X21375000Y-19506050D01*
X21375000Y-19506050D02*
X21375000Y-19327478D01*
X21375000Y-19327478D02*
X21410714Y-19184621D01*
X21410714Y-19184621D02*
X21446428Y-19113192D01*
X21446428Y-19113192D02*
X21482143Y-19077478D01*
X21482143Y-19077478D02*
X21553571Y-19041764D01*
X20874999Y-18791764D02*
X20624999Y-18434621D01*
X20446428Y-18791764D02*
X20446428Y-18041764D01*
X20446428Y-18041764D02*
X20732142Y-18041764D01*
X20732142Y-18041764D02*
X20803571Y-18077478D01*
X20803571Y-18077478D02*
X20839285Y-18113192D01*
X20839285Y-18113192D02*
X20874999Y-18184621D01*
X20874999Y-18184621D02*
X20874999Y-18291764D01*
X20874999Y-18291764D02*
X20839285Y-18363192D01*
X20839285Y-18363192D02*
X20803571Y-18398907D01*
X20803571Y-18398907D02*
X20732142Y-18434621D01*
X20732142Y-18434621D02*
X20446428Y-18434621D01*
X21160714Y-18113192D02*
X21196428Y-18077478D01*
X21196428Y-18077478D02*
X21267857Y-18041764D01*
X21267857Y-18041764D02*
X21446428Y-18041764D01*
X21446428Y-18041764D02*
X21517857Y-18077478D01*
X21517857Y-18077478D02*
X21553571Y-18113192D01*
X21553571Y-18113192D02*
X21589285Y-18184621D01*
X21589285Y-18184621D02*
X21589285Y-18256050D01*
X21589285Y-18256050D02*
X21553571Y-18363192D01*
X21553571Y-18363192D02*
X21124999Y-18791764D01*
X21124999Y-18791764D02*
X21589285Y-18791764D01*
X1100001Y-7177478D02*
X1457144Y-7177478D01*
X1028572Y-7391764D02*
X1278572Y-6641764D01*
X1278572Y-6641764D02*
X1528572Y-7391764D01*
X2100001Y-6891764D02*
X2100001Y-7391764D01*
X1778572Y-6891764D02*
X1778572Y-7284621D01*
X1778572Y-7284621D02*
X1814286Y-7356050D01*
X1814286Y-7356050D02*
X1885715Y-7391764D01*
X1885715Y-7391764D02*
X1992858Y-7391764D01*
X1992858Y-7391764D02*
X2064286Y-7356050D01*
X2064286Y-7356050D02*
X2100001Y-7320335D01*
X2778572Y-7391764D02*
X2778572Y-6641764D01*
X2778572Y-7356050D02*
X2707143Y-7391764D01*
X2707143Y-7391764D02*
X2564286Y-7391764D01*
X2564286Y-7391764D02*
X2492857Y-7356050D01*
X2492857Y-7356050D02*
X2457143Y-7320335D01*
X2457143Y-7320335D02*
X2421429Y-7248907D01*
X2421429Y-7248907D02*
X2421429Y-7034621D01*
X2421429Y-7034621D02*
X2457143Y-6963192D01*
X2457143Y-6963192D02*
X2492857Y-6927478D01*
X2492857Y-6927478D02*
X2564286Y-6891764D01*
X2564286Y-6891764D02*
X2707143Y-6891764D01*
X2707143Y-6891764D02*
X2778572Y-6927478D01*
X3135714Y-7391764D02*
X3135714Y-6891764D01*
X3135714Y-6641764D02*
X3100000Y-6677478D01*
X3100000Y-6677478D02*
X3135714Y-6713192D01*
X3135714Y-6713192D02*
X3171428Y-6677478D01*
X3171428Y-6677478D02*
X3135714Y-6641764D01*
X3135714Y-6641764D02*
X3135714Y-6713192D01*
X3600000Y-7391764D02*
X3528571Y-7356050D01*
X3528571Y-7356050D02*
X3492857Y-7320335D01*
X3492857Y-7320335D02*
X3457143Y-7248907D01*
X3457143Y-7248907D02*
X3457143Y-7034621D01*
X3457143Y-7034621D02*
X3492857Y-6963192D01*
X3492857Y-6963192D02*
X3528571Y-6927478D01*
X3528571Y-6927478D02*
X3600000Y-6891764D01*
X3600000Y-6891764D02*
X3707143Y-6891764D01*
X3707143Y-6891764D02*
X3778571Y-6927478D01*
X3778571Y-6927478D02*
X3814286Y-6963192D01*
X3814286Y-6963192D02*
X3850000Y-7034621D01*
X3850000Y-7034621D02*
X3850000Y-7248907D01*
X3850000Y-7248907D02*
X3814286Y-7320335D01*
X3814286Y-7320335D02*
X3778571Y-7356050D01*
X3778571Y-7356050D02*
X3707143Y-7391764D01*
X3707143Y-7391764D02*
X3600000Y-7391764D01*
X4385714Y-6641764D02*
X4385714Y-7177478D01*
X4385714Y-7177478D02*
X4349999Y-7284621D01*
X4349999Y-7284621D02*
X4278571Y-7356050D01*
X4278571Y-7356050D02*
X4171428Y-7391764D01*
X4171428Y-7391764D02*
X4099999Y-7391764D01*
X5064286Y-7391764D02*
X5064286Y-6998907D01*
X5064286Y-6998907D02*
X5028571Y-6927478D01*
X5028571Y-6927478D02*
X4957143Y-6891764D01*
X4957143Y-6891764D02*
X4814286Y-6891764D01*
X4814286Y-6891764D02*
X4742857Y-6927478D01*
X5064286Y-7356050D02*
X4992857Y-7391764D01*
X4992857Y-7391764D02*
X4814286Y-7391764D01*
X4814286Y-7391764D02*
X4742857Y-7356050D01*
X4742857Y-7356050D02*
X4707143Y-7284621D01*
X4707143Y-7284621D02*
X4707143Y-7213192D01*
X4707143Y-7213192D02*
X4742857Y-7141764D01*
X4742857Y-7141764D02*
X4814286Y-7106050D01*
X4814286Y-7106050D02*
X4992857Y-7106050D01*
X4992857Y-7106050D02*
X5064286Y-7070335D01*
X5742857Y-7356050D02*
X5671428Y-7391764D01*
X5671428Y-7391764D02*
X5528571Y-7391764D01*
X5528571Y-7391764D02*
X5457142Y-7356050D01*
X5457142Y-7356050D02*
X5421428Y-7320335D01*
X5421428Y-7320335D02*
X5385714Y-7248907D01*
X5385714Y-7248907D02*
X5385714Y-7034621D01*
X5385714Y-7034621D02*
X5421428Y-6963192D01*
X5421428Y-6963192D02*
X5457142Y-6927478D01*
X5457142Y-6927478D02*
X5528571Y-6891764D01*
X5528571Y-6891764D02*
X5671428Y-6891764D01*
X5671428Y-6891764D02*
X5742857Y-6927478D01*
X6064285Y-7391764D02*
X6064285Y-6641764D01*
X6135714Y-7106050D02*
X6349999Y-7391764D01*
X6349999Y-6891764D02*
X6064285Y-7177478D01*
X3950000Y-9016764D02*
X3950000Y-9552478D01*
X3950000Y-9552478D02*
X3914285Y-9659621D01*
X3914285Y-9659621D02*
X3842857Y-9731050D01*
X3842857Y-9731050D02*
X3735714Y-9766764D01*
X3735714Y-9766764D02*
X3664285Y-9766764D01*
X4235714Y-9016764D02*
X4700000Y-9016764D01*
X4700000Y-9016764D02*
X4450000Y-9302478D01*
X4450000Y-9302478D02*
X4557143Y-9302478D01*
X4557143Y-9302478D02*
X4628572Y-9338192D01*
X4628572Y-9338192D02*
X4664286Y-9373907D01*
X4664286Y-9373907D02*
X4700000Y-9445335D01*
X4700000Y-9445335D02*
X4700000Y-9623907D01*
X4700000Y-9623907D02*
X4664286Y-9695335D01*
X4664286Y-9695335D02*
X4628572Y-9731050D01*
X4628572Y-9731050D02*
X4557143Y-9766764D01*
X4557143Y-9766764D02*
X4342857Y-9766764D01*
X4342857Y-9766764D02*
X4271429Y-9731050D01*
X4271429Y-9731050D02*
X4235714Y-9695335D01*
X51128571Y-27363192D02*
X51164285Y-27327478D01*
X51164285Y-27327478D02*
X51235714Y-27291764D01*
X51235714Y-27291764D02*
X51414285Y-27291764D01*
X51414285Y-27291764D02*
X51485714Y-27327478D01*
X51485714Y-27327478D02*
X51521428Y-27363192D01*
X51521428Y-27363192D02*
X51557142Y-27434621D01*
X51557142Y-27434621D02*
X51557142Y-27506050D01*
X51557142Y-27506050D02*
X51521428Y-27613192D01*
X51521428Y-27613192D02*
X51092856Y-28041764D01*
X51092856Y-28041764D02*
X51557142Y-28041764D01*
X51878571Y-28041764D02*
X51878571Y-27291764D01*
X52307142Y-28041764D02*
X51985714Y-27613192D01*
X52307142Y-27291764D02*
X51878571Y-27720335D01*
X52592857Y-27363192D02*
X52628571Y-27327478D01*
X52628571Y-27327478D02*
X52700000Y-27291764D01*
X52700000Y-27291764D02*
X52878571Y-27291764D01*
X52878571Y-27291764D02*
X52950000Y-27327478D01*
X52950000Y-27327478D02*
X52985714Y-27363192D01*
X52985714Y-27363192D02*
X53021428Y-27434621D01*
X53021428Y-27434621D02*
X53021428Y-27506050D01*
X53021428Y-27506050D02*
X52985714Y-27613192D01*
X52985714Y-27613192D02*
X52557142Y-28041764D01*
X52557142Y-28041764D02*
X53021428Y-28041764D01*
X52224999Y-27041764D02*
X51974999Y-26684621D01*
X51796428Y-27041764D02*
X51796428Y-26291764D01*
X51796428Y-26291764D02*
X52082142Y-26291764D01*
X52082142Y-26291764D02*
X52153571Y-26327478D01*
X52153571Y-26327478D02*
X52189285Y-26363192D01*
X52189285Y-26363192D02*
X52224999Y-26434621D01*
X52224999Y-26434621D02*
X52224999Y-26541764D01*
X52224999Y-26541764D02*
X52189285Y-26613192D01*
X52189285Y-26613192D02*
X52153571Y-26648907D01*
X52153571Y-26648907D02*
X52082142Y-26684621D01*
X52082142Y-26684621D02*
X51796428Y-26684621D01*
X52867857Y-26291764D02*
X52724999Y-26291764D01*
X52724999Y-26291764D02*
X52653571Y-26327478D01*
X52653571Y-26327478D02*
X52617857Y-26363192D01*
X52617857Y-26363192D02*
X52546428Y-26470335D01*
X52546428Y-26470335D02*
X52510714Y-26613192D01*
X52510714Y-26613192D02*
X52510714Y-26898907D01*
X52510714Y-26898907D02*
X52546428Y-26970335D01*
X52546428Y-26970335D02*
X52582142Y-27006050D01*
X52582142Y-27006050D02*
X52653571Y-27041764D01*
X52653571Y-27041764D02*
X52796428Y-27041764D01*
X52796428Y-27041764D02*
X52867857Y-27006050D01*
X52867857Y-27006050D02*
X52903571Y-26970335D01*
X52903571Y-26970335D02*
X52939285Y-26898907D01*
X52939285Y-26898907D02*
X52939285Y-26720335D01*
X52939285Y-26720335D02*
X52903571Y-26648907D01*
X52903571Y-26648907D02*
X52867857Y-26613192D01*
X52867857Y-26613192D02*
X52796428Y-26577478D01*
X52796428Y-26577478D02*
X52653571Y-26577478D01*
X52653571Y-26577478D02*
X52582142Y-26613192D01*
X52582142Y-26613192D02*
X52546428Y-26648907D01*
X52546428Y-26648907D02*
X52510714Y-26720335D01*
X18692857Y-17791764D02*
X18264286Y-17791764D01*
X18478571Y-17791764D02*
X18478571Y-17041764D01*
X18478571Y-17041764D02*
X18407143Y-17148907D01*
X18407143Y-17148907D02*
X18335714Y-17220335D01*
X18335714Y-17220335D02*
X18264286Y-17256050D01*
X19157143Y-17041764D02*
X19228572Y-17041764D01*
X19228572Y-17041764D02*
X19300000Y-17077478D01*
X19300000Y-17077478D02*
X19335715Y-17113192D01*
X19335715Y-17113192D02*
X19371429Y-17184621D01*
X19371429Y-17184621D02*
X19407143Y-17327478D01*
X19407143Y-17327478D02*
X19407143Y-17506050D01*
X19407143Y-17506050D02*
X19371429Y-17648907D01*
X19371429Y-17648907D02*
X19335715Y-17720335D01*
X19335715Y-17720335D02*
X19300000Y-17756050D01*
X19300000Y-17756050D02*
X19228572Y-17791764D01*
X19228572Y-17791764D02*
X19157143Y-17791764D01*
X19157143Y-17791764D02*
X19085715Y-17756050D01*
X19085715Y-17756050D02*
X19050000Y-17720335D01*
X19050000Y-17720335D02*
X19014286Y-17648907D01*
X19014286Y-17648907D02*
X18978572Y-17506050D01*
X18978572Y-17506050D02*
X18978572Y-17327478D01*
X18978572Y-17327478D02*
X19014286Y-17184621D01*
X19014286Y-17184621D02*
X19050000Y-17113192D01*
X19050000Y-17113192D02*
X19085715Y-17077478D01*
X19085715Y-17077478D02*
X19157143Y-17041764D01*
X20050001Y-17291764D02*
X20050001Y-17791764D01*
X19728572Y-17291764D02*
X19728572Y-17684621D01*
X19728572Y-17684621D02*
X19764286Y-17756050D01*
X19764286Y-17756050D02*
X19835715Y-17791764D01*
X19835715Y-17791764D02*
X19942858Y-17791764D01*
X19942858Y-17791764D02*
X20014286Y-17756050D01*
X20014286Y-17756050D02*
X20050001Y-17720335D01*
X17099999Y-17720335D02*
X17064285Y-17756050D01*
X17064285Y-17756050D02*
X16957142Y-17791764D01*
X16957142Y-17791764D02*
X16885714Y-17791764D01*
X16885714Y-17791764D02*
X16778571Y-17756050D01*
X16778571Y-17756050D02*
X16707142Y-17684621D01*
X16707142Y-17684621D02*
X16671428Y-17613192D01*
X16671428Y-17613192D02*
X16635714Y-17470335D01*
X16635714Y-17470335D02*
X16635714Y-17363192D01*
X16635714Y-17363192D02*
X16671428Y-17220335D01*
X16671428Y-17220335D02*
X16707142Y-17148907D01*
X16707142Y-17148907D02*
X16778571Y-17077478D01*
X16778571Y-17077478D02*
X16885714Y-17041764D01*
X16885714Y-17041764D02*
X16957142Y-17041764D01*
X16957142Y-17041764D02*
X17064285Y-17077478D01*
X17064285Y-17077478D02*
X17099999Y-17113192D01*
X17742857Y-17291764D02*
X17742857Y-17791764D01*
X17564285Y-17006050D02*
X17385714Y-17541764D01*
X17385714Y-17541764D02*
X17849999Y-17541764D01*
D12*
%TO.C,J2*%
X57960000Y-29370000D02*
X56630000Y-29370000D01*
X57960000Y-30480000D02*
X57960000Y-29370000D01*
D10*
X56930000Y-30480000D02*
X56930000Y-34540000D01*
X56330000Y-30480000D02*
X56930000Y-30480000D01*
X54390000Y-30480000D02*
X54390000Y-34540000D01*
X53790000Y-30480000D02*
X54390000Y-30480000D01*
X51850000Y-30480000D02*
X51850000Y-34540000D01*
X51250000Y-30480000D02*
X51850000Y-30480000D01*
X49310000Y-30480000D02*
X49310000Y-34540000D01*
X48710000Y-30480000D02*
X49310000Y-30480000D01*
X46770000Y-30480000D02*
X46770000Y-34540000D01*
X46170000Y-30480000D02*
X46770000Y-30480000D01*
X44230000Y-30480000D02*
X44230000Y-34540000D01*
X43630000Y-30480000D02*
X44230000Y-30480000D01*
X41690000Y-30480000D02*
X41690000Y-34540000D01*
X41090000Y-30480000D02*
X41690000Y-30480000D01*
X39150000Y-30480000D02*
X39150000Y-34540000D01*
X38550000Y-30480000D02*
X39150000Y-30480000D01*
X36610000Y-30480000D02*
X36610000Y-34540000D01*
X36010000Y-30480000D02*
X36610000Y-30480000D01*
X34070000Y-30480000D02*
X34070000Y-34540000D01*
X33470000Y-30480000D02*
X34070000Y-30480000D01*
X31530000Y-30480000D02*
X31530000Y-34540000D01*
X30930000Y-30480000D02*
X31530000Y-30480000D01*
X28990000Y-30480000D02*
X28990000Y-34540000D01*
X28390000Y-30480000D02*
X28990000Y-30480000D01*
X26450000Y-30480000D02*
X26450000Y-34540000D01*
X25850000Y-30480000D02*
X26450000Y-30480000D01*
X23910000Y-30480000D02*
X23910000Y-34540000D01*
X23310000Y-30480000D02*
X23910000Y-30480000D01*
X21370000Y-30480000D02*
X21370000Y-34540000D01*
X20770000Y-30480000D02*
X21370000Y-30480000D01*
X18830000Y-30480000D02*
X18830000Y-34540000D01*
X18230000Y-30480000D02*
X18830000Y-30480000D01*
X16290000Y-30480000D02*
X16290000Y-34540000D01*
X15690000Y-30480000D02*
X16290000Y-30480000D01*
X13750000Y-30480000D02*
X13750000Y-34540000D01*
X13150000Y-30480000D02*
X13750000Y-30480000D01*
X11210000Y-30480000D02*
X11210000Y-34540000D01*
X10610000Y-30480000D02*
X11210000Y-30480000D01*
X8670000Y-30480000D02*
X8670000Y-34540000D01*
X8070000Y-30480000D02*
X8670000Y-30480000D01*
D12*
X56990000Y-31970000D02*
X56990000Y-31590000D01*
X56270000Y-31970000D02*
X56270000Y-31590000D01*
X54450000Y-31970000D02*
X54450000Y-31530000D01*
X53730000Y-31970000D02*
X53730000Y-31530000D01*
X51910000Y-31970000D02*
X51910000Y-31530000D01*
X51190000Y-31970000D02*
X51190000Y-31530000D01*
X49370000Y-31970000D02*
X49370000Y-31530000D01*
X48650000Y-31970000D02*
X48650000Y-31530000D01*
X46830000Y-31970000D02*
X46830000Y-31530000D01*
X46110000Y-31970000D02*
X46110000Y-31530000D01*
X44290000Y-31970000D02*
X44290000Y-31530000D01*
X43570000Y-31970000D02*
X43570000Y-31530000D01*
X41750000Y-31970000D02*
X41750000Y-31530000D01*
X41030000Y-31970000D02*
X41030000Y-31530000D01*
X39210000Y-31970000D02*
X39210000Y-31530000D01*
X38490000Y-31970000D02*
X38490000Y-31530000D01*
X36670000Y-31970000D02*
X36670000Y-31530000D01*
X35950000Y-31970000D02*
X35950000Y-31530000D01*
X34130000Y-31970000D02*
X34130000Y-31530000D01*
X33410000Y-31970000D02*
X33410000Y-31530000D01*
X31590000Y-31970000D02*
X31590000Y-31530000D01*
X30870000Y-31970000D02*
X30870000Y-31530000D01*
X29050000Y-31970000D02*
X29050000Y-31530000D01*
X28330000Y-31970000D02*
X28330000Y-31530000D01*
X26510000Y-31970000D02*
X26510000Y-31530000D01*
X25790000Y-31970000D02*
X25790000Y-31530000D01*
X23970000Y-31970000D02*
X23970000Y-31530000D01*
X23250000Y-31970000D02*
X23250000Y-31530000D01*
X21430000Y-31970000D02*
X21430000Y-31530000D01*
X20710000Y-31970000D02*
X20710000Y-31530000D01*
X18890000Y-31970000D02*
X18890000Y-31530000D01*
X18170000Y-31970000D02*
X18170000Y-31530000D01*
X16350000Y-31970000D02*
X16350000Y-31530000D01*
X15630000Y-31970000D02*
X15630000Y-31530000D01*
X13810000Y-31970000D02*
X13810000Y-31530000D01*
X13090000Y-31970000D02*
X13090000Y-31530000D01*
X11270000Y-31970000D02*
X11270000Y-31530000D01*
X10550000Y-31970000D02*
X10550000Y-31530000D01*
X8730000Y-31970000D02*
X8730000Y-31530000D01*
X8010000Y-31970000D02*
X8010000Y-31530000D01*
X57960000Y-34480000D02*
X7040000Y-34480000D01*
X56990000Y-34480000D02*
X56990000Y-34070000D01*
X56270000Y-34480000D02*
X56270000Y-34070000D01*
X54450000Y-34480000D02*
X54450000Y-34070000D01*
X53730000Y-34480000D02*
X53730000Y-34070000D01*
X51910000Y-34480000D02*
X51910000Y-34070000D01*
X51190000Y-34480000D02*
X51190000Y-34070000D01*
X49370000Y-34480000D02*
X49370000Y-34070000D01*
X48650000Y-34480000D02*
X48650000Y-34070000D01*
X46830000Y-34480000D02*
X46830000Y-34070000D01*
X46110000Y-34480000D02*
X46110000Y-34070000D01*
X44290000Y-34480000D02*
X44290000Y-34070000D01*
X43570000Y-34480000D02*
X43570000Y-34070000D01*
X41750000Y-34480000D02*
X41750000Y-34070000D01*
X41030000Y-34480000D02*
X41030000Y-34070000D01*
X39210000Y-34480000D02*
X39210000Y-34070000D01*
X38490000Y-34480000D02*
X38490000Y-34070000D01*
X36670000Y-34480000D02*
X36670000Y-34070000D01*
X35950000Y-34480000D02*
X35950000Y-34070000D01*
X34130000Y-34480000D02*
X34130000Y-34070000D01*
X33410000Y-34480000D02*
X33410000Y-34070000D01*
X31590000Y-34480000D02*
X31590000Y-34070000D01*
X30870000Y-34480000D02*
X30870000Y-34070000D01*
X29050000Y-34480000D02*
X29050000Y-34070000D01*
X28330000Y-34480000D02*
X28330000Y-34070000D01*
X26510000Y-34480000D02*
X26510000Y-34070000D01*
X25790000Y-34480000D02*
X25790000Y-34070000D01*
X23970000Y-34480000D02*
X23970000Y-34070000D01*
X23250000Y-34480000D02*
X23250000Y-34070000D01*
X21430000Y-34480000D02*
X21430000Y-34070000D01*
X20710000Y-34480000D02*
X20710000Y-34070000D01*
X18890000Y-34480000D02*
X18890000Y-34070000D01*
X18170000Y-34480000D02*
X18170000Y-34070000D01*
X16350000Y-34480000D02*
X16350000Y-34070000D01*
X15630000Y-34480000D02*
X15630000Y-34070000D01*
X13810000Y-34480000D02*
X13810000Y-34070000D01*
X13090000Y-34480000D02*
X13090000Y-34070000D01*
X11270000Y-34480000D02*
X11270000Y-34070000D01*
X10550000Y-34480000D02*
X10550000Y-34070000D01*
X8730000Y-34480000D02*
X8730000Y-34070000D01*
X8010000Y-34480000D02*
X8010000Y-34070000D01*
D10*
X56930000Y-34540000D02*
X7100000Y-34540000D01*
X56330000Y-34540000D02*
X56330000Y-30480000D01*
X53790000Y-34540000D02*
X53790000Y-30480000D01*
X51250000Y-34540000D02*
X51250000Y-30480000D01*
X48710000Y-34540000D02*
X48710000Y-30480000D01*
X46170000Y-34540000D02*
X46170000Y-30480000D01*
X43630000Y-34540000D02*
X43630000Y-30480000D01*
X41090000Y-34540000D02*
X41090000Y-30480000D01*
X38550000Y-34540000D02*
X38550000Y-30480000D01*
X36010000Y-34540000D02*
X36010000Y-30480000D01*
X33470000Y-34540000D02*
X33470000Y-30480000D01*
X30930000Y-34540000D02*
X30930000Y-30480000D01*
X28390000Y-34540000D02*
X28390000Y-30480000D01*
X25850000Y-34540000D02*
X25850000Y-30480000D01*
X23310000Y-34540000D02*
X23310000Y-30480000D01*
X20770000Y-34540000D02*
X20770000Y-30480000D01*
X18230000Y-34540000D02*
X18230000Y-30480000D01*
X15690000Y-34540000D02*
X15690000Y-30480000D01*
X13150000Y-34540000D02*
X13150000Y-30480000D01*
X10610000Y-34540000D02*
X10610000Y-30480000D01*
X8070000Y-34540000D02*
X8070000Y-30480000D01*
D12*
X57960000Y-42050000D02*
X57960000Y-34480000D01*
X57960000Y-42050000D02*
X7040000Y-42050000D01*
X55360000Y-42050000D02*
X55360000Y-34480000D01*
X52820000Y-42050000D02*
X52820000Y-34480000D01*
X50280000Y-42050000D02*
X50280000Y-34480000D01*
X47740000Y-42050000D02*
X47740000Y-34480000D01*
X45200000Y-42050000D02*
X45200000Y-34480000D01*
X42660000Y-42050000D02*
X42660000Y-34480000D01*
X40120000Y-42050000D02*
X40120000Y-34480000D01*
X37580000Y-42050000D02*
X37580000Y-34480000D01*
X35040000Y-42050000D02*
X35040000Y-34480000D01*
X32500000Y-42050000D02*
X32500000Y-34480000D01*
X29960000Y-42050000D02*
X29960000Y-34480000D01*
X27420000Y-42050000D02*
X27420000Y-34480000D01*
X24880000Y-42050000D02*
X24880000Y-34480000D01*
X22340000Y-42050000D02*
X22340000Y-34480000D01*
X19800000Y-42050000D02*
X19800000Y-34480000D01*
X17260000Y-42050000D02*
X17260000Y-34480000D01*
X14720000Y-42050000D02*
X14720000Y-34480000D01*
X12180000Y-42050000D02*
X12180000Y-34480000D01*
X9640000Y-42050000D02*
X9640000Y-34480000D01*
D10*
X7100000Y-42050000D02*
X57900000Y-42050000D01*
D12*
X7040000Y-42050000D02*
X7040000Y-34480000D01*
D10*
%TO.C,C6*%
X25950000Y-22225000D02*
X25950000Y-21025000D01*
X25950000Y-21025000D02*
X22750000Y-21025000D01*
X25550000Y-22625000D02*
X25950000Y-22225000D01*
X22750000Y-22625000D02*
X25550000Y-22625000D01*
X22750000Y-21025000D02*
X22750000Y-22625000D01*
D12*
%TO.C,J5*%
X64417500Y-10690000D02*
X64017500Y-10690000D01*
X64417500Y-10690000D02*
X64417500Y-24510000D01*
X61497500Y-10690000D02*
X55717500Y-10690000D01*
X53197500Y-10690000D02*
X50497500Y-10690000D01*
D10*
X64307500Y-10800000D02*
X50607500Y-10800000D01*
X50607500Y-10800000D02*
X50607500Y-24400000D01*
D12*
X62767500Y-11420000D02*
X58317500Y-11420000D01*
X56917500Y-11420000D02*
X54617500Y-11420000D01*
X53217500Y-11420000D02*
X52497500Y-11420000D01*
X52497500Y-11420000D02*
X52497500Y-14100000D01*
D10*
X64017500Y-11535000D02*
X52617500Y-11535000D01*
X64017500Y-11535000D02*
X64017500Y-13230000D01*
X67517500Y-12085000D02*
X64017500Y-12085000D01*
D12*
X65317500Y-12100000D02*
X65117500Y-12900000D01*
X64417500Y-12100000D02*
X65417500Y-12100000D01*
D10*
X68017500Y-12585000D02*
X68017500Y-22585000D01*
D12*
X65917500Y-12600000D02*
X65917500Y-22600000D01*
X65117500Y-12900000D02*
X64817500Y-14600000D01*
X64137500Y-12900000D02*
X64137500Y-13760000D01*
D10*
X63117500Y-13730000D02*
X63517500Y-13730000D01*
D12*
X64817500Y-14600000D02*
X64717500Y-15400000D01*
X64717500Y-15400000D02*
X64617500Y-16700000D01*
X52497500Y-16400000D02*
X52497500Y-20070000D01*
X64617500Y-16700000D02*
X64617500Y-18500000D01*
X64617500Y-18500000D02*
X64717500Y-19800000D01*
X64717500Y-19800000D02*
X64917500Y-21300000D01*
X64917500Y-21300000D02*
X65217500Y-22600000D01*
D10*
X62617500Y-21890000D02*
X62617500Y-14230000D01*
D12*
X52497500Y-22370000D02*
X52497500Y-23600000D01*
D10*
X63717500Y-22390000D02*
X63117500Y-22390000D01*
D12*
X65217500Y-22600000D02*
X65317500Y-23100000D01*
D10*
X64017500Y-23085000D02*
X67517500Y-23085000D01*
D12*
X64417500Y-23100000D02*
X65417500Y-23100000D01*
D10*
X64017500Y-23485000D02*
X64017500Y-22700000D01*
X52617500Y-23485000D02*
X52617500Y-11535000D01*
X52617500Y-23485000D02*
X64017500Y-23485000D01*
D12*
X52497500Y-23600000D02*
X62317500Y-23600000D01*
D10*
X64307500Y-24400000D02*
X64307500Y-10800000D01*
X50607500Y-24400000D02*
X64307500Y-24400000D01*
D12*
X64417500Y-24510000D02*
X64017500Y-24510000D01*
X61497500Y-24510000D02*
X55717500Y-24510000D01*
X53197500Y-24510000D02*
X50497500Y-24510000D01*
X50497500Y-24510000D02*
X50497500Y-10690000D01*
D10*
X67517500Y-12085000D02*
G75*
G02*
X68017500Y-12585000I-1J-500001D01*
G01*
D12*
X65417500Y-12100000D02*
G75*
G02*
X65917500Y-12600000I-1J-500001D01*
G01*
D10*
X64017500Y-13230000D02*
G75*
G02*
X63517500Y-13730000I-500001J1D01*
G01*
X62617500Y-14230000D02*
G75*
G02*
X63117500Y-13730000I500001J-1D01*
G01*
X63717500Y-22390000D02*
G75*
G02*
X64017500Y-22690000I0J-300000D01*
G01*
X63117500Y-22390000D02*
G75*
G02*
X62617500Y-21890000I0J500000D01*
G01*
X68017500Y-22585000D02*
G75*
G02*
X67517500Y-23085000I-500000J0D01*
G01*
D12*
X65917500Y-22600000D02*
G75*
G02*
X65417500Y-23100000I-500000J0D01*
G01*
D10*
%TO.C,LS1*%
X39300000Y-14275000D02*
X37300000Y-14275000D01*
X39300000Y-18075000D02*
G75*
G02*
X37300000Y-18075000I-1000000J0D01*
G01*
X37300000Y-18075000D02*
G75*
G02*
X39300000Y-18075000I1000000J0D01*
G01*
X44400000Y-18075000D02*
G75*
G02*
X32200000Y-18075000I-6100000J0D01*
G01*
X32200000Y-18075000D02*
G75*
G02*
X44400000Y-18075000I6100000J0D01*
G01*
D12*
%TO.C,J4*%
X4460000Y-25565000D02*
X4460000Y-27625000D01*
X2750000Y-25565000D02*
X4460000Y-25565000D01*
X-1360000Y-25565000D02*
X250000Y-25565000D01*
X-1360000Y-25565000D02*
X-1360000Y-33285000D01*
D10*
X4350000Y-25675000D02*
X4350000Y-33175000D01*
X-1250000Y-25675000D02*
X4350000Y-25675000D01*
X50000Y-26825000D02*
X50000Y-32025000D01*
D12*
X4460000Y-27625000D02*
X5050000Y-27625000D01*
D10*
X5050000Y-27725000D02*
X4650000Y-28125000D01*
X4650000Y-28125000D02*
X5050000Y-28525000D01*
X5050000Y-28525000D02*
X5050000Y-27725000D01*
X4350000Y-33175000D02*
X-1250000Y-33175000D01*
X-1250000Y-33175000D02*
X-1250000Y-25675000D01*
D12*
X4460000Y-33285000D02*
X4460000Y-31225000D01*
X2750000Y-33285000D02*
X4460000Y-33285000D01*
X-1360000Y-33285000D02*
X250000Y-33285000D01*
%TO.C,C1*%
D10*
X25450000Y-13325000D02*
X27050000Y-13325000D01*
X27050000Y-10125000D01*
X25450000Y-10125000D01*
X25450000Y-13325000D01*
%TO.C,C2*%
X25750000Y-15225000D02*
X24550000Y-15225000D01*
X24550000Y-15225000D02*
X24550000Y-18425000D01*
X26150000Y-15625000D02*
X25750000Y-15225000D01*
X26150000Y-18425000D02*
X26150000Y-15625000D01*
X24550000Y-18425000D02*
X26150000Y-18425000D01*
D12*
%TO.C,J6*%
X30230000Y-26105000D02*
X28850000Y-26105000D01*
X30230000Y-24725000D02*
X30230000Y-26105000D01*
X30230000Y-23455000D02*
X30230000Y-18265000D01*
X30230000Y-23455000D02*
X27470000Y-23455000D01*
X30230000Y-18265000D02*
X27470000Y-18265000D01*
D10*
X30120000Y-25360000D02*
X29485000Y-25995000D01*
X30120000Y-18375000D02*
X30120000Y-25360000D01*
X29485000Y-25995000D02*
X27580000Y-25995000D01*
X27580000Y-25995000D02*
X27580000Y-18375000D01*
X27580000Y-18375000D02*
X30120000Y-18375000D01*
D12*
X27470000Y-23455000D02*
X27470000Y-18265000D01*
%TO.C,C5*%
D10*
X11762500Y-25275000D02*
X8562500Y-25275000D01*
X8562500Y-23675000D01*
X11762500Y-23675000D01*
X11762500Y-25275000D01*
D12*
%TO.C,J1*%
X57060000Y5920000D02*
X56200000Y5920000D01*
X56200000Y5920000D02*
X56200000Y-80000D01*
X54520000Y5920000D02*
X53660000Y5920000D01*
X53660000Y5920000D02*
X53660000Y-80000D01*
X51980000Y5920000D02*
X51120000Y5920000D01*
X51120000Y5920000D02*
X51120000Y-80000D01*
X49440000Y5920000D02*
X48580000Y5920000D01*
X48580000Y5920000D02*
X48580000Y-80000D01*
X46900000Y5920000D02*
X46040000Y5920000D01*
X46040000Y5920000D02*
X46040000Y-80000D01*
X44360000Y5920000D02*
X43500000Y5920000D01*
X43500000Y5920000D02*
X43500000Y-80000D01*
X41820000Y5920000D02*
X40960000Y5920000D01*
X40960000Y5920000D02*
X40960000Y-80000D01*
X39280000Y5920000D02*
X38420000Y5920000D01*
X38420000Y5920000D02*
X38420000Y-80000D01*
X36740000Y5920000D02*
X35880000Y5920000D01*
X35880000Y5920000D02*
X35880000Y-80000D01*
X34200000Y5920000D02*
X33340000Y5920000D01*
X33340000Y5920000D02*
X33340000Y-80000D01*
X31660000Y5920000D02*
X30800000Y5920000D01*
X30800000Y5920000D02*
X30800000Y-80000D01*
X29120000Y5920000D02*
X28260000Y5920000D01*
X28260000Y5920000D02*
X28260000Y-80000D01*
X26580000Y5920000D02*
X25720000Y5920000D01*
X25720000Y5920000D02*
X25720000Y-80000D01*
X24040000Y5920000D02*
X23180000Y5920000D01*
X23180000Y5920000D02*
X23180000Y-80000D01*
X21500000Y5920000D02*
X20640000Y5920000D01*
X20640000Y5920000D02*
X20640000Y-80000D01*
X18960000Y5920000D02*
X18100000Y5920000D01*
X18100000Y5920000D02*
X18100000Y-80000D01*
X16420000Y5920000D02*
X15560000Y5920000D01*
X15560000Y5920000D02*
X15560000Y-80000D01*
X13880000Y5920000D02*
X13020000Y5920000D01*
X13020000Y5920000D02*
X13020000Y-80000D01*
X11340000Y5920000D02*
X10480000Y5920000D01*
X10480000Y5920000D02*
X10480000Y-80000D01*
X8800000Y5920000D02*
X7940000Y5920000D01*
X7940000Y5920000D02*
X7940000Y-80000D01*
X57060000Y-80000D02*
X57060000Y5920000D01*
X54520000Y-80000D02*
X54520000Y5920000D01*
X51980000Y-80000D02*
X51980000Y5920000D01*
X49440000Y-80000D02*
X49440000Y5920000D01*
X46900000Y-80000D02*
X46900000Y5920000D01*
X44360000Y-80000D02*
X44360000Y5920000D01*
X41820000Y-80000D02*
X41820000Y5920000D01*
X39280000Y-80000D02*
X39280000Y5920000D01*
X36740000Y-80000D02*
X36740000Y5920000D01*
X34200000Y-80000D02*
X34200000Y5920000D01*
X31660000Y-80000D02*
X31660000Y5920000D01*
X29120000Y-80000D02*
X29120000Y5920000D01*
X26580000Y-80000D02*
X26580000Y5920000D01*
X24040000Y-80000D02*
X24040000Y5920000D01*
X21500000Y-80000D02*
X21500000Y5920000D01*
X18960000Y-80000D02*
X18960000Y5920000D01*
X16420000Y-80000D02*
X16420000Y5920000D01*
X13880000Y-80000D02*
X13880000Y5920000D01*
X11340000Y-80000D02*
X11340000Y5920000D01*
X8800000Y-80000D02*
X8800000Y5920000D01*
X55360000Y-2840000D02*
X55360000Y-80000D01*
X52820000Y-2840000D02*
X52820000Y-80000D01*
X50280000Y-2840000D02*
X50280000Y-80000D01*
X47740000Y-2840000D02*
X47740000Y-80000D01*
X45200000Y-2840000D02*
X45200000Y-80000D01*
X42660000Y-2840000D02*
X42660000Y-80000D01*
X40120000Y-2840000D02*
X40120000Y-80000D01*
X37580000Y-2840000D02*
X37580000Y-80000D01*
X35040000Y-2840000D02*
X35040000Y-80000D01*
X32500000Y-2840000D02*
X32500000Y-80000D01*
X29960000Y-2840000D02*
X29960000Y-80000D01*
X27420000Y-2840000D02*
X27420000Y-80000D01*
X24880000Y-2840000D02*
X24880000Y-80000D01*
X22340000Y-2840000D02*
X22340000Y-80000D01*
X19800000Y-2840000D02*
X19800000Y-80000D01*
X17260000Y-2840000D02*
X17260000Y-80000D01*
X14720000Y-2840000D02*
X14720000Y-80000D01*
X12180000Y-2840000D02*
X12180000Y-80000D01*
X9640000Y-2840000D02*
X9640000Y-80000D01*
X57060000Y-3152642D02*
X57060000Y-2840000D01*
X56200000Y-3152642D02*
X56200000Y-2840000D01*
X54520000Y-3152642D02*
X54520000Y-2840000D01*
X53660000Y-3152642D02*
X53660000Y-2840000D01*
X51980000Y-3152642D02*
X51980000Y-2840000D01*
X51120000Y-3152642D02*
X51120000Y-2840000D01*
X49440000Y-3152642D02*
X49440000Y-2840000D01*
X48580000Y-3152642D02*
X48580000Y-2840000D01*
X46900000Y-3152642D02*
X46900000Y-2840000D01*
X46040000Y-3152642D02*
X46040000Y-2840000D01*
X44360000Y-3152642D02*
X44360000Y-2840000D01*
X43500000Y-3152642D02*
X43500000Y-2840000D01*
X41820000Y-3152642D02*
X41820000Y-2840000D01*
X40960000Y-3152642D02*
X40960000Y-2840000D01*
X39280000Y-3152642D02*
X39280000Y-2840000D01*
X38420000Y-3152642D02*
X38420000Y-2840000D01*
X36740000Y-3152642D02*
X36740000Y-2840000D01*
X35880000Y-3152642D02*
X35880000Y-2840000D01*
X34200000Y-3152642D02*
X34200000Y-2840000D01*
X33340000Y-3152642D02*
X33340000Y-2840000D01*
X31660000Y-3152642D02*
X31660000Y-2840000D01*
X30800000Y-3152642D02*
X30800000Y-2840000D01*
X29120000Y-3152642D02*
X29120000Y-2840000D01*
X28260000Y-3152642D02*
X28260000Y-2840000D01*
X26580000Y-3152642D02*
X26580000Y-2840000D01*
X25720000Y-3152642D02*
X25720000Y-2840000D01*
X24040000Y-3152642D02*
X24040000Y-2840000D01*
X23180000Y-3152642D02*
X23180000Y-2840000D01*
X21500000Y-3152642D02*
X21500000Y-2840000D01*
X20640000Y-3152642D02*
X20640000Y-2840000D01*
X18960000Y-3152642D02*
X18960000Y-2840000D01*
X18100000Y-3152642D02*
X18100000Y-2840000D01*
X16420000Y-3152642D02*
X16420000Y-2840000D01*
X15560000Y-3152642D02*
X15560000Y-2840000D01*
X13880000Y-3152642D02*
X13880000Y-2840000D01*
X13020000Y-3152642D02*
X13020000Y-2840000D01*
X11340000Y-3152642D02*
X11340000Y-2840000D01*
X10480000Y-3152642D02*
X10480000Y-2840000D01*
X8800000Y-3152642D02*
X8800000Y-2840000D01*
X7940000Y-3152642D02*
X7940000Y-2840000D01*
X57060000Y-5610000D02*
X57060000Y-5307358D01*
X56200000Y-5610000D02*
X56200000Y-5307358D01*
X54520000Y-5692642D02*
X54520000Y-5307358D01*
X53660000Y-5692642D02*
X53660000Y-5307358D01*
X51980000Y-5692642D02*
X51980000Y-5307358D01*
X51120000Y-5692642D02*
X51120000Y-5307358D01*
X49440000Y-5692642D02*
X49440000Y-5307358D01*
X48580000Y-5692642D02*
X48580000Y-5307358D01*
X46900000Y-5692642D02*
X46900000Y-5307358D01*
X46040000Y-5692642D02*
X46040000Y-5307358D01*
X44360000Y-5692642D02*
X44360000Y-5307358D01*
X43500000Y-5692642D02*
X43500000Y-5307358D01*
X41820000Y-5692642D02*
X41820000Y-5307358D01*
X40960000Y-5692642D02*
X40960000Y-5307358D01*
X39280000Y-5692642D02*
X39280000Y-5307358D01*
X38420000Y-5692642D02*
X38420000Y-5307358D01*
X36740000Y-5692642D02*
X36740000Y-5307358D01*
X35880000Y-5692642D02*
X35880000Y-5307358D01*
X34200000Y-5692642D02*
X34200000Y-5307358D01*
X33340000Y-5692642D02*
X33340000Y-5307358D01*
X31660000Y-5692642D02*
X31660000Y-5307358D01*
X30800000Y-5692642D02*
X30800000Y-5307358D01*
X29120000Y-5692642D02*
X29120000Y-5307358D01*
X28260000Y-5692642D02*
X28260000Y-5307358D01*
X26580000Y-5692642D02*
X26580000Y-5307358D01*
X25720000Y-5692642D02*
X25720000Y-5307358D01*
X24040000Y-5692642D02*
X24040000Y-5307358D01*
X23180000Y-5692642D02*
X23180000Y-5307358D01*
X21500000Y-5692642D02*
X21500000Y-5307358D01*
X20640000Y-5692642D02*
X20640000Y-5307358D01*
X18960000Y-5692642D02*
X18960000Y-5307358D01*
X18100000Y-5692642D02*
X18100000Y-5307358D01*
X16420000Y-5692642D02*
X16420000Y-5307358D01*
X15560000Y-5692642D02*
X15560000Y-5307358D01*
X13880000Y-5692642D02*
X13880000Y-5307358D01*
X13020000Y-5692642D02*
X13020000Y-5307358D01*
X11340000Y-5692642D02*
X11340000Y-5307358D01*
X10480000Y-5692642D02*
X10480000Y-5307358D01*
X8800000Y-5692642D02*
X8800000Y-5307358D01*
X7940000Y-5692642D02*
X7940000Y-5307358D01*
D10*
X56950000Y-7090000D02*
X56950000Y-2730000D01*
X56950000Y-7090000D02*
X56310000Y-7090000D01*
X56310000Y-7090000D02*
X56310000Y-2730000D01*
X54410000Y-7090000D02*
X54410000Y-2730000D01*
X54410000Y-7090000D02*
X53770000Y-7090000D01*
X53770000Y-7090000D02*
X53770000Y-2730000D01*
X51870000Y-7090000D02*
X51870000Y-2730000D01*
X51870000Y-7090000D02*
X51230000Y-7090000D01*
X51230000Y-7090000D02*
X51230000Y-2730000D01*
X49330000Y-7090000D02*
X49330000Y-2730000D01*
X49330000Y-7090000D02*
X48690000Y-7090000D01*
X48690000Y-7090000D02*
X48690000Y-2730000D01*
X46790000Y-7090000D02*
X46790000Y-2730000D01*
X46790000Y-7090000D02*
X46150000Y-7090000D01*
X46150000Y-7090000D02*
X46150000Y-2730000D01*
X44250000Y-7090000D02*
X44250000Y-2730000D01*
X44250000Y-7090000D02*
X43610000Y-7090000D01*
X43610000Y-7090000D02*
X43610000Y-2730000D01*
X41710000Y-7090000D02*
X41710000Y-2730000D01*
X41710000Y-7090000D02*
X41070000Y-7090000D01*
X41070000Y-7090000D02*
X41070000Y-2730000D01*
X39170000Y-7090000D02*
X39170000Y-2730000D01*
X39170000Y-7090000D02*
X38530000Y-7090000D01*
X38530000Y-7090000D02*
X38530000Y-2730000D01*
X36630000Y-7090000D02*
X36630000Y-2730000D01*
X36630000Y-7090000D02*
X35990000Y-7090000D01*
X35990000Y-7090000D02*
X35990000Y-2730000D01*
X34090000Y-7090000D02*
X34090000Y-2730000D01*
X34090000Y-7090000D02*
X33450000Y-7090000D01*
X33450000Y-7090000D02*
X33450000Y-2730000D01*
X31550000Y-7090000D02*
X31550000Y-2730000D01*
X31550000Y-7090000D02*
X30910000Y-7090000D01*
X30910000Y-7090000D02*
X30910000Y-2730000D01*
X29010000Y-7090000D02*
X29010000Y-2730000D01*
X29010000Y-7090000D02*
X28370000Y-7090000D01*
X28370000Y-7090000D02*
X28370000Y-2730000D01*
X26470000Y-7090000D02*
X26470000Y-2730000D01*
X26470000Y-7090000D02*
X25830000Y-7090000D01*
X25830000Y-7090000D02*
X25830000Y-2730000D01*
X23930000Y-7090000D02*
X23930000Y-2730000D01*
X23930000Y-7090000D02*
X23290000Y-7090000D01*
X23290000Y-7090000D02*
X23290000Y-2730000D01*
X21390000Y-7090000D02*
X21390000Y-2730000D01*
X21390000Y-7090000D02*
X20750000Y-7090000D01*
X20750000Y-7090000D02*
X20750000Y-2730000D01*
X18850000Y-7090000D02*
X18850000Y-2730000D01*
X18850000Y-7090000D02*
X18210000Y-7090000D01*
X18210000Y-7090000D02*
X18210000Y-2730000D01*
X16310000Y-7090000D02*
X16310000Y-2730000D01*
X16310000Y-7090000D02*
X15670000Y-7090000D01*
X15670000Y-7090000D02*
X15670000Y-2730000D01*
X13770000Y-7090000D02*
X13770000Y-2730000D01*
X13770000Y-7090000D02*
X13130000Y-7090000D01*
X13130000Y-7090000D02*
X13130000Y-2730000D01*
X11230000Y-7090000D02*
X11230000Y-2730000D01*
X11230000Y-7090000D02*
X10590000Y-7090000D01*
X10590000Y-7090000D02*
X10590000Y-2730000D01*
X8690000Y-7090000D02*
X8690000Y-2730000D01*
X8690000Y-7090000D02*
X8050000Y-7090000D01*
X8050000Y-7090000D02*
X8050000Y-2730000D01*
D12*
X57900000Y-8040000D02*
X57900000Y-6770000D01*
X56630000Y-8040000D02*
X57900000Y-8040000D01*
X58010000Y-80000D02*
X6990000Y-80000D01*
X6990000Y-2840000D01*
X58010000Y-2840000D01*
X58010000Y-80000D01*
D10*
%TO.C,IC1*%
X17300000Y-22600000D02*
X17300000Y-26100000D01*
X17296375Y-22616375D02*
G75*
G02*
X21530000Y-24370000I1753625J-1753625D01*
G01*
X21530000Y-24370000D02*
G75*
G02*
X17296375Y-26123625I-2480000J0D01*
G01*
D12*
%TO.C,SW1*%
X65070000Y-27130000D02*
X61620000Y-27130000D01*
X58780000Y-27130000D02*
X58580000Y-27130000D01*
D10*
X58700000Y-27250000D02*
X64950000Y-27250000D01*
X61250000Y-27800000D02*
X58700000Y-27800000D01*
X58700000Y-27800000D02*
X58700000Y-27250000D01*
D12*
X58580000Y-27920000D02*
X58580000Y-27130000D01*
X58580000Y-27920000D02*
X58830000Y-27920000D01*
X61130000Y-28510000D02*
X61130000Y-33290000D01*
D10*
X68850000Y-29700000D02*
X68850000Y-32100000D01*
X64950000Y-29700000D02*
X68850000Y-29700000D01*
X64950000Y-32100000D02*
X68850000Y-32100000D01*
D12*
X58580000Y-33880000D02*
X58830000Y-33880000D01*
D10*
X61250000Y-34000000D02*
X61250000Y-27800000D01*
X61250000Y-34000000D02*
X58700000Y-34000000D01*
X64950000Y-34550000D02*
X64950000Y-27250000D01*
X64950000Y-34550000D02*
X58700000Y-34550000D01*
X58700000Y-34550000D02*
X58700000Y-34000000D01*
D12*
X65070000Y-34670000D02*
X65070000Y-27130000D01*
X61620000Y-34670000D02*
X65070000Y-34670000D01*
X58780000Y-34670000D02*
X58580000Y-34670000D01*
X58580000Y-34670000D02*
X58580000Y-33880000D01*
D10*
%TO.C,D1*%
X49025000Y-25166190D02*
X49025000Y-22833810D01*
X49025000Y-25166190D02*
G75*
G02*
X49025000Y-22833810I-1500000J1166190D01*
G01*
X49025000Y-24000000D02*
G75*
G02*
X46025000Y-24000000I-1500000J0D01*
G01*
X46025000Y-24000000D02*
G75*
G02*
X49025000Y-24000000I1500000J0D01*
G01*
%TO.C,C7*%
X49575000Y-11350000D02*
X47975000Y-11350000D01*
X47975000Y-14550000D01*
X49575000Y-14550000D01*
X49575000Y-11350000D01*
%TO.C,R5*%
X45475000Y-14850000D02*
X46725000Y-14850000D01*
X46725000Y-12850000D01*
X45475000Y-12850000D01*
X45475000Y-14850000D01*
%TO.C,R3*%
X31025000Y-16900000D02*
X27825000Y-16900000D01*
X27825000Y-15300000D01*
X31025000Y-15300000D01*
X31025000Y-16900000D01*
%TO.C,C3*%
X21425000Y-10175000D02*
X19825000Y-10175000D01*
X19825000Y-13375000D01*
X21425000Y-13375000D01*
X21425000Y-10175000D01*
%TO.C,R1*%
X29750000Y-10525000D02*
X28150000Y-10525000D01*
X28150000Y-13725000D01*
X29750000Y-13725000D01*
X29750000Y-10525000D01*
%TO.C,D2*%
X49030000Y-20591190D02*
X49030000Y-18258810D01*
X49030000Y-20591190D02*
G75*
G02*
X49030000Y-18258810I-1500000J1166190D01*
G01*
X49030000Y-19425000D02*
G75*
G02*
X46030000Y-19425000I-1500000J0D01*
G01*
X46030000Y-19425000D02*
G75*
G02*
X49030000Y-19425000I1500000J0D01*
G01*
%TO.C,R4*%
X18650000Y-10675000D02*
X17050000Y-10675000D01*
X17050000Y-13875000D01*
X18650000Y-13875000D01*
X18650000Y-10675000D01*
%TO.C,R2*%
X23800000Y-15275000D02*
X22200000Y-15275000D01*
X22200000Y-18475000D01*
X23800000Y-18475000D01*
X23800000Y-15275000D01*
%TO.C,J3*%
X-3212500Y-13350000D02*
X-3212500Y-19350000D01*
X287500Y-10600000D02*
X287500Y-13350000D01*
X287500Y-13350000D02*
X-3212500Y-13350000D01*
X287500Y-19350000D02*
X-3212500Y-19350000D01*
X287500Y-22100000D02*
X287500Y-19350000D01*
X14287500Y-10600000D02*
X287500Y-10600000D01*
X14287500Y-10600000D02*
X14287500Y-22100000D01*
X14287500Y-22100000D02*
X287500Y-22100000D01*
%TO.C,R6*%
X54100000Y-26450000D02*
X56100000Y-26450000D01*
X56100000Y-27700000D01*
X54100000Y-27700000D01*
X54100000Y-26450000D01*
%TO.C,C4*%
X20750000Y-16275000D02*
X20750000Y-15075000D01*
X20750000Y-15075000D02*
X17550000Y-15075000D01*
X20350000Y-16675000D02*
X20750000Y-16275000D01*
X17550000Y-16675000D02*
X20350000Y-16675000D01*
X17550000Y-15075000D02*
X17550000Y-16675000D01*
%TD*%
M02*
