%TF.GenerationSoftware,KiCad,Pcbnew,9.0.7*%
%TF.CreationDate,2026-05-06T21:18:25+02:00*%
%TF.ProjectId,BarePi_PicoPad,42617265-5069-45f5-9069-636f5061642e,rev?*%
%TF.SameCoordinates,Original*%
%TF.FileFunction,AssemblyDrawing,Top*%
%FSLAX46Y46*%
G04 Gerber Fmt 4.6, Leading zero omitted, Abs format (unit mm)*
G04 Created by KiCad (PCBNEW 9.0.7) date 2026-05-06 21:18:25*
%MOMM*%
%LPD*%
G01*
G04 APERTURE LIST*
%ADD10C,0.150000*%
%ADD11C,0.120000*%
%ADD12C,0.100000*%
G04 APERTURE END LIST*
D10*
X3820000Y-30864819D02*
X4010476Y-30864819D01*
X4010476Y-30864819D02*
X4105714Y-30912438D01*
X4105714Y-30912438D02*
X4200952Y-31007676D01*
X4200952Y-31007676D02*
X4248571Y-31198152D01*
X4248571Y-31198152D02*
X4248571Y-31531485D01*
X4248571Y-31531485D02*
X4200952Y-31721961D01*
X4200952Y-31721961D02*
X4105714Y-31817200D01*
X4105714Y-31817200D02*
X4010476Y-31864819D01*
X4010476Y-31864819D02*
X3820000Y-31864819D01*
X3820000Y-31864819D02*
X3724762Y-31817200D01*
X3724762Y-31817200D02*
X3629524Y-31721961D01*
X3629524Y-31721961D02*
X3581905Y-31531485D01*
X3581905Y-31531485D02*
X3581905Y-31198152D01*
X3581905Y-31198152D02*
X3629524Y-31007676D01*
X3629524Y-31007676D02*
X3724762Y-30912438D01*
X3724762Y-30912438D02*
X3820000Y-30864819D01*
X4677143Y-30864819D02*
X4677143Y-31674342D01*
X4677143Y-31674342D02*
X4724762Y-31769580D01*
X4724762Y-31769580D02*
X4772381Y-31817200D01*
X4772381Y-31817200D02*
X4867619Y-31864819D01*
X4867619Y-31864819D02*
X5058095Y-31864819D01*
X5058095Y-31864819D02*
X5153333Y-31817200D01*
X5153333Y-31817200D02*
X5200952Y-31769580D01*
X5200952Y-31769580D02*
X5248571Y-31674342D01*
X5248571Y-31674342D02*
X5248571Y-30864819D01*
X5581905Y-30864819D02*
X6153333Y-30864819D01*
X5867619Y-31864819D02*
X5867619Y-30864819D01*
X4546666Y-33104819D02*
X4546666Y-33819104D01*
X4546666Y-33819104D02*
X4499047Y-33961961D01*
X4499047Y-33961961D02*
X4403809Y-34057200D01*
X4403809Y-34057200D02*
X4260952Y-34104819D01*
X4260952Y-34104819D02*
X4165714Y-34104819D01*
X5546666Y-34104819D02*
X4975238Y-34104819D01*
X5260952Y-34104819D02*
X5260952Y-33104819D01*
X5260952Y-33104819D02*
X5165714Y-33247676D01*
X5165714Y-33247676D02*
X5070476Y-33342914D01*
X5070476Y-33342914D02*
X4975238Y-33390533D01*
X31062399Y-6042819D02*
X30729066Y-5566628D01*
X30490971Y-6042819D02*
X30490971Y-5042819D01*
X30490971Y-5042819D02*
X30871923Y-5042819D01*
X30871923Y-5042819D02*
X30967161Y-5090438D01*
X30967161Y-5090438D02*
X31014780Y-5138057D01*
X31014780Y-5138057D02*
X31062399Y-5233295D01*
X31062399Y-5233295D02*
X31062399Y-5376152D01*
X31062399Y-5376152D02*
X31014780Y-5471390D01*
X31014780Y-5471390D02*
X30967161Y-5519009D01*
X30967161Y-5519009D02*
X30871923Y-5566628D01*
X30871923Y-5566628D02*
X30490971Y-5566628D01*
X31919542Y-6042819D02*
X31919542Y-5519009D01*
X31919542Y-5519009D02*
X31871923Y-5423771D01*
X31871923Y-5423771D02*
X31776685Y-5376152D01*
X31776685Y-5376152D02*
X31586209Y-5376152D01*
X31586209Y-5376152D02*
X31490971Y-5423771D01*
X31919542Y-5995200D02*
X31824304Y-6042819D01*
X31824304Y-6042819D02*
X31586209Y-6042819D01*
X31586209Y-6042819D02*
X31490971Y-5995200D01*
X31490971Y-5995200D02*
X31443352Y-5899961D01*
X31443352Y-5899961D02*
X31443352Y-5804723D01*
X31443352Y-5804723D02*
X31490971Y-5709485D01*
X31490971Y-5709485D02*
X31586209Y-5661866D01*
X31586209Y-5661866D02*
X31824304Y-5661866D01*
X31824304Y-5661866D02*
X31919542Y-5614247D01*
X32348114Y-5995200D02*
X32443352Y-6042819D01*
X32443352Y-6042819D02*
X32633828Y-6042819D01*
X32633828Y-6042819D02*
X32729066Y-5995200D01*
X32729066Y-5995200D02*
X32776685Y-5899961D01*
X32776685Y-5899961D02*
X32776685Y-5852342D01*
X32776685Y-5852342D02*
X32729066Y-5757104D01*
X32729066Y-5757104D02*
X32633828Y-5709485D01*
X32633828Y-5709485D02*
X32490971Y-5709485D01*
X32490971Y-5709485D02*
X32395733Y-5661866D01*
X32395733Y-5661866D02*
X32348114Y-5566628D01*
X32348114Y-5566628D02*
X32348114Y-5519009D01*
X32348114Y-5519009D02*
X32395733Y-5423771D01*
X32395733Y-5423771D02*
X32490971Y-5376152D01*
X32490971Y-5376152D02*
X32633828Y-5376152D01*
X32633828Y-5376152D02*
X32729066Y-5423771D01*
X33205257Y-5376152D02*
X33205257Y-6376152D01*
X33205257Y-5423771D02*
X33300495Y-5376152D01*
X33300495Y-5376152D02*
X33490971Y-5376152D01*
X33490971Y-5376152D02*
X33586209Y-5423771D01*
X33586209Y-5423771D02*
X33633828Y-5471390D01*
X33633828Y-5471390D02*
X33681447Y-5566628D01*
X33681447Y-5566628D02*
X33681447Y-5852342D01*
X33681447Y-5852342D02*
X33633828Y-5947580D01*
X33633828Y-5947580D02*
X33586209Y-5995200D01*
X33586209Y-5995200D02*
X33490971Y-6042819D01*
X33490971Y-6042819D02*
X33300495Y-6042819D01*
X33300495Y-6042819D02*
X33205257Y-5995200D01*
X34110019Y-6042819D02*
X34110019Y-5042819D01*
X34110019Y-5423771D02*
X34205257Y-5376152D01*
X34205257Y-5376152D02*
X34395733Y-5376152D01*
X34395733Y-5376152D02*
X34490971Y-5423771D01*
X34490971Y-5423771D02*
X34538590Y-5471390D01*
X34538590Y-5471390D02*
X34586209Y-5566628D01*
X34586209Y-5566628D02*
X34586209Y-5852342D01*
X34586209Y-5852342D02*
X34538590Y-5947580D01*
X34538590Y-5947580D02*
X34490971Y-5995200D01*
X34490971Y-5995200D02*
X34395733Y-6042819D01*
X34395733Y-6042819D02*
X34205257Y-6042819D01*
X34205257Y-6042819D02*
X34110019Y-5995200D01*
X35395733Y-5995200D02*
X35300495Y-6042819D01*
X35300495Y-6042819D02*
X35110019Y-6042819D01*
X35110019Y-6042819D02*
X35014781Y-5995200D01*
X35014781Y-5995200D02*
X34967162Y-5899961D01*
X34967162Y-5899961D02*
X34967162Y-5519009D01*
X34967162Y-5519009D02*
X35014781Y-5423771D01*
X35014781Y-5423771D02*
X35110019Y-5376152D01*
X35110019Y-5376152D02*
X35300495Y-5376152D01*
X35300495Y-5376152D02*
X35395733Y-5423771D01*
X35395733Y-5423771D02*
X35443352Y-5519009D01*
X35443352Y-5519009D02*
X35443352Y-5614247D01*
X35443352Y-5614247D02*
X34967162Y-5709485D01*
X35871924Y-6042819D02*
X35871924Y-5376152D01*
X35871924Y-5566628D02*
X35919543Y-5471390D01*
X35919543Y-5471390D02*
X35967162Y-5423771D01*
X35967162Y-5423771D02*
X36062400Y-5376152D01*
X36062400Y-5376152D02*
X36157638Y-5376152D01*
X36490972Y-6042819D02*
X36490972Y-5376152D01*
X36490972Y-5566628D02*
X36538591Y-5471390D01*
X36538591Y-5471390D02*
X36586210Y-5423771D01*
X36586210Y-5423771D02*
X36681448Y-5376152D01*
X36681448Y-5376152D02*
X36776686Y-5376152D01*
X37014782Y-5376152D02*
X37252877Y-6042819D01*
X37490972Y-5376152D02*
X37252877Y-6042819D01*
X37252877Y-6042819D02*
X37157639Y-6280914D01*
X37157639Y-6280914D02*
X37110020Y-6328533D01*
X37110020Y-6328533D02*
X37014782Y-6376152D01*
X38633830Y-6042819D02*
X38633830Y-5042819D01*
X38633830Y-5042819D02*
X39014782Y-5042819D01*
X39014782Y-5042819D02*
X39110020Y-5090438D01*
X39110020Y-5090438D02*
X39157639Y-5138057D01*
X39157639Y-5138057D02*
X39205258Y-5233295D01*
X39205258Y-5233295D02*
X39205258Y-5376152D01*
X39205258Y-5376152D02*
X39157639Y-5471390D01*
X39157639Y-5471390D02*
X39110020Y-5519009D01*
X39110020Y-5519009D02*
X39014782Y-5566628D01*
X39014782Y-5566628D02*
X38633830Y-5566628D01*
X39633830Y-6042819D02*
X39633830Y-5376152D01*
X39633830Y-5042819D02*
X39586211Y-5090438D01*
X39586211Y-5090438D02*
X39633830Y-5138057D01*
X39633830Y-5138057D02*
X39681449Y-5090438D01*
X39681449Y-5090438D02*
X39633830Y-5042819D01*
X39633830Y-5042819D02*
X39633830Y-5138057D01*
X40871925Y-6042819D02*
X40871925Y-5042819D01*
X40871925Y-5042819D02*
X41252877Y-5042819D01*
X41252877Y-5042819D02*
X41348115Y-5090438D01*
X41348115Y-5090438D02*
X41395734Y-5138057D01*
X41395734Y-5138057D02*
X41443353Y-5233295D01*
X41443353Y-5233295D02*
X41443353Y-5376152D01*
X41443353Y-5376152D02*
X41395734Y-5471390D01*
X41395734Y-5471390D02*
X41348115Y-5519009D01*
X41348115Y-5519009D02*
X41252877Y-5566628D01*
X41252877Y-5566628D02*
X40871925Y-5566628D01*
X41871925Y-6042819D02*
X41871925Y-5376152D01*
X41871925Y-5042819D02*
X41824306Y-5090438D01*
X41824306Y-5090438D02*
X41871925Y-5138057D01*
X41871925Y-5138057D02*
X41919544Y-5090438D01*
X41919544Y-5090438D02*
X41871925Y-5042819D01*
X41871925Y-5042819D02*
X41871925Y-5138057D01*
X42776686Y-5995200D02*
X42681448Y-6042819D01*
X42681448Y-6042819D02*
X42490972Y-6042819D01*
X42490972Y-6042819D02*
X42395734Y-5995200D01*
X42395734Y-5995200D02*
X42348115Y-5947580D01*
X42348115Y-5947580D02*
X42300496Y-5852342D01*
X42300496Y-5852342D02*
X42300496Y-5566628D01*
X42300496Y-5566628D02*
X42348115Y-5471390D01*
X42348115Y-5471390D02*
X42395734Y-5423771D01*
X42395734Y-5423771D02*
X42490972Y-5376152D01*
X42490972Y-5376152D02*
X42681448Y-5376152D01*
X42681448Y-5376152D02*
X42776686Y-5423771D01*
X43348115Y-6042819D02*
X43252877Y-5995200D01*
X43252877Y-5995200D02*
X43205258Y-5947580D01*
X43205258Y-5947580D02*
X43157639Y-5852342D01*
X43157639Y-5852342D02*
X43157639Y-5566628D01*
X43157639Y-5566628D02*
X43205258Y-5471390D01*
X43205258Y-5471390D02*
X43252877Y-5423771D01*
X43252877Y-5423771D02*
X43348115Y-5376152D01*
X43348115Y-5376152D02*
X43490972Y-5376152D01*
X43490972Y-5376152D02*
X43586210Y-5423771D01*
X43586210Y-5423771D02*
X43633829Y-5471390D01*
X43633829Y-5471390D02*
X43681448Y-5566628D01*
X43681448Y-5566628D02*
X43681448Y-5852342D01*
X43681448Y-5852342D02*
X43633829Y-5947580D01*
X43633829Y-5947580D02*
X43586210Y-5995200D01*
X43586210Y-5995200D02*
X43490972Y-6042819D01*
X43490972Y-6042819D02*
X43348115Y-6042819D01*
X26333810Y-6144419D02*
X26333810Y-5144419D01*
X27381428Y-6049180D02*
X27333809Y-6096800D01*
X27333809Y-6096800D02*
X27190952Y-6144419D01*
X27190952Y-6144419D02*
X27095714Y-6144419D01*
X27095714Y-6144419D02*
X26952857Y-6096800D01*
X26952857Y-6096800D02*
X26857619Y-6001561D01*
X26857619Y-6001561D02*
X26810000Y-5906323D01*
X26810000Y-5906323D02*
X26762381Y-5715847D01*
X26762381Y-5715847D02*
X26762381Y-5572990D01*
X26762381Y-5572990D02*
X26810000Y-5382514D01*
X26810000Y-5382514D02*
X26857619Y-5287276D01*
X26857619Y-5287276D02*
X26952857Y-5192038D01*
X26952857Y-5192038D02*
X27095714Y-5144419D01*
X27095714Y-5144419D02*
X27190952Y-5144419D01*
X27190952Y-5144419D02*
X27333809Y-5192038D01*
X27333809Y-5192038D02*
X27381428Y-5239657D01*
X28333809Y-6144419D02*
X27762381Y-6144419D01*
X28048095Y-6144419D02*
X28048095Y-5144419D01*
X28048095Y-5144419D02*
X27952857Y-5287276D01*
X27952857Y-5287276D02*
X27857619Y-5382514D01*
X27857619Y-5382514D02*
X27762381Y-5430133D01*
D11*
%TO.C,J1*%
X57960000Y-32320000D02*
X56630000Y-32320000D01*
X57960000Y-33430000D02*
X57960000Y-32320000D01*
D12*
X56930000Y-33430000D02*
X56930000Y-37490000D01*
X56330000Y-33430000D02*
X56930000Y-33430000D01*
X54390000Y-33430000D02*
X54390000Y-37490000D01*
X53790000Y-33430000D02*
X54390000Y-33430000D01*
X51850000Y-33430000D02*
X51850000Y-37490000D01*
X51250000Y-33430000D02*
X51850000Y-33430000D01*
X49310000Y-33430000D02*
X49310000Y-37490000D01*
X48710000Y-33430000D02*
X49310000Y-33430000D01*
X46770000Y-33430000D02*
X46770000Y-37490000D01*
X46170000Y-33430000D02*
X46770000Y-33430000D01*
X44230000Y-33430000D02*
X44230000Y-37490000D01*
X43630000Y-33430000D02*
X44230000Y-33430000D01*
X41690000Y-33430000D02*
X41690000Y-37490000D01*
X41090000Y-33430000D02*
X41690000Y-33430000D01*
X39150000Y-33430000D02*
X39150000Y-37490000D01*
X38550000Y-33430000D02*
X39150000Y-33430000D01*
X36610000Y-33430000D02*
X36610000Y-37490000D01*
X36010000Y-33430000D02*
X36610000Y-33430000D01*
X34070000Y-33430000D02*
X34070000Y-37490000D01*
X33470000Y-33430000D02*
X34070000Y-33430000D01*
X31530000Y-33430000D02*
X31530000Y-37490000D01*
X30930000Y-33430000D02*
X31530000Y-33430000D01*
X28990000Y-33430000D02*
X28990000Y-37490000D01*
X28390000Y-33430000D02*
X28990000Y-33430000D01*
X26450000Y-33430000D02*
X26450000Y-37490000D01*
X25850000Y-33430000D02*
X26450000Y-33430000D01*
X23910000Y-33430000D02*
X23910000Y-37490000D01*
X23310000Y-33430000D02*
X23910000Y-33430000D01*
X21370000Y-33430000D02*
X21370000Y-37490000D01*
X20770000Y-33430000D02*
X21370000Y-33430000D01*
X18830000Y-33430000D02*
X18830000Y-37490000D01*
X18230000Y-33430000D02*
X18830000Y-33430000D01*
X16290000Y-33430000D02*
X16290000Y-37490000D01*
X15690000Y-33430000D02*
X16290000Y-33430000D01*
X13750000Y-33430000D02*
X13750000Y-37490000D01*
X13150000Y-33430000D02*
X13750000Y-33430000D01*
X11210000Y-33430000D02*
X11210000Y-37490000D01*
X10610000Y-33430000D02*
X11210000Y-33430000D01*
X8670000Y-33430000D02*
X8670000Y-37490000D01*
X8070000Y-33430000D02*
X8670000Y-33430000D01*
D11*
X56990000Y-34920000D02*
X56990000Y-34540000D01*
X56270000Y-34920000D02*
X56270000Y-34540000D01*
X54450000Y-34920000D02*
X54450000Y-34480000D01*
X53730000Y-34920000D02*
X53730000Y-34480000D01*
X51910000Y-34920000D02*
X51910000Y-34480000D01*
X51190000Y-34920000D02*
X51190000Y-34480000D01*
X49370000Y-34920000D02*
X49370000Y-34480000D01*
X48650000Y-34920000D02*
X48650000Y-34480000D01*
X46830000Y-34920000D02*
X46830000Y-34480000D01*
X46110000Y-34920000D02*
X46110000Y-34480000D01*
X44290000Y-34920000D02*
X44290000Y-34480000D01*
X43570000Y-34920000D02*
X43570000Y-34480000D01*
X41750000Y-34920000D02*
X41750000Y-34480000D01*
X41030000Y-34920000D02*
X41030000Y-34480000D01*
X39210000Y-34920000D02*
X39210000Y-34480000D01*
X38490000Y-34920000D02*
X38490000Y-34480000D01*
X36670000Y-34920000D02*
X36670000Y-34480000D01*
X35950000Y-34920000D02*
X35950000Y-34480000D01*
X34130000Y-34920000D02*
X34130000Y-34480000D01*
X33410000Y-34920000D02*
X33410000Y-34480000D01*
X31590000Y-34920000D02*
X31590000Y-34480000D01*
X30870000Y-34920000D02*
X30870000Y-34480000D01*
X29050000Y-34920000D02*
X29050000Y-34480000D01*
X28330000Y-34920000D02*
X28330000Y-34480000D01*
X26510000Y-34920000D02*
X26510000Y-34480000D01*
X25790000Y-34920000D02*
X25790000Y-34480000D01*
X23970000Y-34920000D02*
X23970000Y-34480000D01*
X23250000Y-34920000D02*
X23250000Y-34480000D01*
X21430000Y-34920000D02*
X21430000Y-34480000D01*
X20710000Y-34920000D02*
X20710000Y-34480000D01*
X18890000Y-34920000D02*
X18890000Y-34480000D01*
X18170000Y-34920000D02*
X18170000Y-34480000D01*
X16350000Y-34920000D02*
X16350000Y-34480000D01*
X15630000Y-34920000D02*
X15630000Y-34480000D01*
X13810000Y-34920000D02*
X13810000Y-34480000D01*
X13090000Y-34920000D02*
X13090000Y-34480000D01*
X11270000Y-34920000D02*
X11270000Y-34480000D01*
X10550000Y-34920000D02*
X10550000Y-34480000D01*
X8730000Y-34920000D02*
X8730000Y-34480000D01*
X8010000Y-34920000D02*
X8010000Y-34480000D01*
X57960000Y-37430000D02*
X7040000Y-37430000D01*
X56990000Y-37430000D02*
X56990000Y-37020000D01*
X56270000Y-37430000D02*
X56270000Y-37020000D01*
X54450000Y-37430000D02*
X54450000Y-37020000D01*
X53730000Y-37430000D02*
X53730000Y-37020000D01*
X51910000Y-37430000D02*
X51910000Y-37020000D01*
X51190000Y-37430000D02*
X51190000Y-37020000D01*
X49370000Y-37430000D02*
X49370000Y-37020000D01*
X48650000Y-37430000D02*
X48650000Y-37020000D01*
X46830000Y-37430000D02*
X46830000Y-37020000D01*
X46110000Y-37430000D02*
X46110000Y-37020000D01*
X44290000Y-37430000D02*
X44290000Y-37020000D01*
X43570000Y-37430000D02*
X43570000Y-37020000D01*
X41750000Y-37430000D02*
X41750000Y-37020000D01*
X41030000Y-37430000D02*
X41030000Y-37020000D01*
X39210000Y-37430000D02*
X39210000Y-37020000D01*
X38490000Y-37430000D02*
X38490000Y-37020000D01*
X36670000Y-37430000D02*
X36670000Y-37020000D01*
X35950000Y-37430000D02*
X35950000Y-37020000D01*
X34130000Y-37430000D02*
X34130000Y-37020000D01*
X33410000Y-37430000D02*
X33410000Y-37020000D01*
X31590000Y-37430000D02*
X31590000Y-37020000D01*
X30870000Y-37430000D02*
X30870000Y-37020000D01*
X29050000Y-37430000D02*
X29050000Y-37020000D01*
X28330000Y-37430000D02*
X28330000Y-37020000D01*
X26510000Y-37430000D02*
X26510000Y-37020000D01*
X25790000Y-37430000D02*
X25790000Y-37020000D01*
X23970000Y-37430000D02*
X23970000Y-37020000D01*
X23250000Y-37430000D02*
X23250000Y-37020000D01*
X21430000Y-37430000D02*
X21430000Y-37020000D01*
X20710000Y-37430000D02*
X20710000Y-37020000D01*
X18890000Y-37430000D02*
X18890000Y-37020000D01*
X18170000Y-37430000D02*
X18170000Y-37020000D01*
X16350000Y-37430000D02*
X16350000Y-37020000D01*
X15630000Y-37430000D02*
X15630000Y-37020000D01*
X13810000Y-37430000D02*
X13810000Y-37020000D01*
X13090000Y-37430000D02*
X13090000Y-37020000D01*
X11270000Y-37430000D02*
X11270000Y-37020000D01*
X10550000Y-37430000D02*
X10550000Y-37020000D01*
X8730000Y-37430000D02*
X8730000Y-37020000D01*
X8010000Y-37430000D02*
X8010000Y-37020000D01*
D12*
X56930000Y-37490000D02*
X7100000Y-37490000D01*
X56330000Y-37490000D02*
X56330000Y-33430000D01*
X53790000Y-37490000D02*
X53790000Y-33430000D01*
X51250000Y-37490000D02*
X51250000Y-33430000D01*
X48710000Y-37490000D02*
X48710000Y-33430000D01*
X46170000Y-37490000D02*
X46170000Y-33430000D01*
X43630000Y-37490000D02*
X43630000Y-33430000D01*
X41090000Y-37490000D02*
X41090000Y-33430000D01*
X38550000Y-37490000D02*
X38550000Y-33430000D01*
X36010000Y-37490000D02*
X36010000Y-33430000D01*
X33470000Y-37490000D02*
X33470000Y-33430000D01*
X30930000Y-37490000D02*
X30930000Y-33430000D01*
X28390000Y-37490000D02*
X28390000Y-33430000D01*
X25850000Y-37490000D02*
X25850000Y-33430000D01*
X23310000Y-37490000D02*
X23310000Y-33430000D01*
X20770000Y-37490000D02*
X20770000Y-33430000D01*
X18230000Y-37490000D02*
X18230000Y-33430000D01*
X15690000Y-37490000D02*
X15690000Y-33430000D01*
X13150000Y-37490000D02*
X13150000Y-33430000D01*
X10610000Y-37490000D02*
X10610000Y-33430000D01*
X8070000Y-37490000D02*
X8070000Y-33430000D01*
D11*
X57960000Y-45000000D02*
X57960000Y-37430000D01*
X57960000Y-45000000D02*
X7040000Y-45000000D01*
X55360000Y-45000000D02*
X55360000Y-37430000D01*
X52820000Y-45000000D02*
X52820000Y-37430000D01*
X50280000Y-45000000D02*
X50280000Y-37430000D01*
X47740000Y-45000000D02*
X47740000Y-37430000D01*
X45200000Y-45000000D02*
X45200000Y-37430000D01*
X42660000Y-45000000D02*
X42660000Y-37430000D01*
X40120000Y-45000000D02*
X40120000Y-37430000D01*
X37580000Y-45000000D02*
X37580000Y-37430000D01*
X35040000Y-45000000D02*
X35040000Y-37430000D01*
X32500000Y-45000000D02*
X32500000Y-37430000D01*
X29960000Y-45000000D02*
X29960000Y-37430000D01*
X27420000Y-45000000D02*
X27420000Y-37430000D01*
X24880000Y-45000000D02*
X24880000Y-37430000D01*
X22340000Y-45000000D02*
X22340000Y-37430000D01*
X19800000Y-45000000D02*
X19800000Y-37430000D01*
X17260000Y-45000000D02*
X17260000Y-37430000D01*
X14720000Y-45000000D02*
X14720000Y-37430000D01*
X12180000Y-45000000D02*
X12180000Y-37430000D01*
X9640000Y-45000000D02*
X9640000Y-37430000D01*
D12*
X7100000Y-45000000D02*
X57900000Y-45000000D01*
D11*
X7040000Y-45000000D02*
X7040000Y-37430000D01*
%TO.C,IC1*%
X62420000Y-7390000D02*
X62420000Y-6910000D01*
X62420000Y-7390000D02*
X62000000Y-7390000D01*
X59880000Y-7390000D02*
X59460000Y-7390000D01*
X57340000Y-7390000D02*
X56920000Y-7390000D01*
X54800000Y-7390000D02*
X54380000Y-7390000D01*
X52260000Y-7390000D02*
X51840000Y-7390000D01*
X49720000Y-7390000D02*
X49300000Y-7390000D01*
X47180000Y-7390000D02*
X46760000Y-7390000D01*
X44640000Y-7390000D02*
X44220000Y-7390000D01*
X42100000Y-7390000D02*
X41680000Y-7390000D01*
X39560000Y-7390000D02*
X39140000Y-7390000D01*
X37020000Y-7390000D02*
X36600000Y-7390000D01*
X34480000Y-7390000D02*
X34060000Y-7390000D01*
X31940000Y-7390000D02*
X31520000Y-7390000D01*
X29400000Y-7390000D02*
X28980000Y-7390000D01*
X26860000Y-7390000D02*
X26440000Y-7390000D01*
X24320000Y-7390000D02*
X23900000Y-7390000D01*
X21780000Y-7390000D02*
X21360000Y-7390000D01*
X19240000Y-7390000D02*
X18820000Y-7390000D01*
X16700000Y-7390000D02*
X16280000Y-7390000D01*
X64540000Y-7420324D02*
X64540000Y-6910000D01*
D12*
X63850000Y-7500000D02*
X64850000Y-8500000D01*
X14350000Y-7500000D02*
X63850000Y-7500000D01*
D11*
X64539937Y-7730000D02*
X64897000Y-7730000D01*
X62420000Y-7730000D02*
X62000000Y-7730000D01*
X59880000Y-7730000D02*
X59460000Y-7730000D01*
X57340000Y-7730000D02*
X56920000Y-7730000D01*
X54800000Y-7730000D02*
X54380000Y-7730000D01*
X52260000Y-7730000D02*
X51840000Y-7730000D01*
X49720000Y-7730000D02*
X49300000Y-7730000D01*
X47180000Y-7730000D02*
X46760000Y-7730000D01*
X44640000Y-7730000D02*
X44220000Y-7730000D01*
X42100000Y-7730000D02*
X41680000Y-7730000D01*
X39560000Y-7730000D02*
X39140000Y-7730000D01*
X37020000Y-7730000D02*
X36600000Y-7730000D01*
X34480000Y-7730000D02*
X34060000Y-7730000D01*
X31940000Y-7730000D02*
X31520000Y-7730000D01*
X29400000Y-7730000D02*
X28980000Y-7730000D01*
X26860000Y-7730000D02*
X26440000Y-7730000D01*
X24320000Y-7730000D02*
X23900000Y-7730000D01*
X21780000Y-7730000D02*
X21360000Y-7730000D01*
X19240000Y-7730000D02*
X18820000Y-7730000D01*
X16700000Y-7730000D02*
X16280000Y-7730000D01*
X14160063Y-7730000D02*
X13803000Y-7730000D01*
X64960000Y-8000000D02*
X64960000Y-10490000D01*
X13740000Y-8000000D02*
X13740000Y-11837939D01*
D12*
X64850000Y-8500000D02*
X64850000Y-28000000D01*
D11*
X64960000Y-10490000D02*
X64046480Y-10490000D01*
X64960000Y-10490000D02*
X64960000Y-11837940D01*
X61653520Y-10490000D02*
X17046480Y-10490000D01*
X14653520Y-10490000D02*
X13740000Y-10490000D01*
X64960000Y-12762061D02*
X64960000Y-13765000D01*
D12*
X53425000Y-13375000D02*
X52275000Y-13375000D01*
D11*
X64960000Y-13765000D02*
X64960000Y-22235000D01*
X64960000Y-14100000D02*
X64044000Y-14100000D01*
X61656000Y-14100000D02*
X60440000Y-14100000D01*
X60440000Y-14100000D02*
X60440000Y-14396090D01*
X13740000Y-14400000D02*
X13740000Y-12762061D01*
D12*
X53425000Y-15625000D02*
X52275000Y-15625000D01*
D11*
X60440000Y-16753910D02*
X60440000Y-19246090D01*
X13740000Y-21600000D02*
X13740000Y-14400000D01*
X60440000Y-21603910D02*
X60440000Y-21900000D01*
X64960000Y-21900000D02*
X64044000Y-21900000D01*
X61656000Y-21900000D02*
X60440000Y-21900000D01*
X64960000Y-22235000D02*
X64960000Y-23237939D01*
X13740000Y-23237939D02*
X13740000Y-21600000D01*
X64960000Y-24162061D02*
X64960000Y-25510000D01*
X13740000Y-24162061D02*
X13740000Y-28000000D01*
X64960000Y-25510000D02*
X64046480Y-25510000D01*
X61653520Y-25510000D02*
X17046480Y-25510000D01*
X14653520Y-25510000D02*
X13740000Y-25510000D01*
X64960000Y-28000000D02*
X64960000Y-25510000D01*
D12*
X13850000Y-28000000D02*
X13850000Y-8000000D01*
D11*
X64539937Y-28270000D02*
X64897000Y-28270000D01*
X62420000Y-28270000D02*
X62000000Y-28270000D01*
X59880000Y-28270000D02*
X59460000Y-28270000D01*
X57340000Y-28270000D02*
X56920000Y-28270000D01*
X54800000Y-28270000D02*
X54380000Y-28270000D01*
X52260000Y-28270000D02*
X51840000Y-28270000D01*
X49720000Y-28270000D02*
X49300000Y-28270000D01*
X47180000Y-28270000D02*
X46760000Y-28270000D01*
X44640000Y-28270000D02*
X44220000Y-28270000D01*
X42100000Y-28270000D02*
X41680000Y-28270000D01*
X39560000Y-28270000D02*
X39140000Y-28270000D01*
X37020000Y-28270000D02*
X36600000Y-28270000D01*
X34480000Y-28270000D02*
X34060000Y-28270000D01*
X31940000Y-28270000D02*
X31520000Y-28270000D01*
X29400000Y-28270000D02*
X28980000Y-28270000D01*
X26860000Y-28270000D02*
X26440000Y-28270000D01*
X24320000Y-28270000D02*
X23900000Y-28270000D01*
X21780000Y-28270000D02*
X21360000Y-28270000D01*
X19240000Y-28270000D02*
X18820000Y-28270000D01*
X16700000Y-28270000D02*
X16280000Y-28270000D01*
X14160063Y-28270000D02*
X13803000Y-28270000D01*
D12*
X64350000Y-28500000D02*
X14350000Y-28500000D01*
D11*
X62420000Y-28610000D02*
X62000000Y-28610000D01*
X59880000Y-28610000D02*
X59460000Y-28610000D01*
X57340000Y-28610000D02*
X56920000Y-28610000D01*
X54800000Y-28610000D02*
X54380000Y-28610000D01*
X52260000Y-28610000D02*
X51840000Y-28610000D01*
X49720000Y-28610000D02*
X49300000Y-28610000D01*
X47180000Y-28610000D02*
X46760000Y-28610000D01*
X44640000Y-28610000D02*
X44220000Y-28610000D01*
X42100000Y-28610000D02*
X41680000Y-28610000D01*
X39560000Y-28610000D02*
X39140000Y-28610000D01*
X37020000Y-28610000D02*
X36600000Y-28610000D01*
X34480000Y-28610000D02*
X34060000Y-28610000D01*
X31940000Y-28610000D02*
X31520000Y-28610000D01*
X29400000Y-28610000D02*
X28980000Y-28610000D01*
X26860000Y-28610000D02*
X26440000Y-28610000D01*
X24320000Y-28610000D02*
X23900000Y-28610000D01*
X21780000Y-28610000D02*
X21360000Y-28610000D01*
X19240000Y-28610000D02*
X18820000Y-28610000D01*
X16700000Y-28610000D02*
X16280000Y-28610000D01*
D12*
X60450000Y-11500000D02*
X59650000Y-11500000D01*
X59650000Y-13100000D01*
X60450000Y-13100000D01*
X60450000Y-11500000D01*
X60450000Y-11800000D02*
X59650000Y-11800000D01*
X59650000Y-12800000D01*
X60450000Y-12800000D01*
X60450000Y-11800000D01*
X54975000Y-12900000D02*
X50725000Y-12900000D01*
X50725000Y-16100000D01*
X54975000Y-16100000D01*
X54975000Y-12900000D01*
D11*
X64540000Y-7420324D02*
G75*
G02*
X64960000Y-8000000I-190051J-579692D01*
G01*
D12*
X13850000Y-8000000D02*
G75*
G02*
X14350000Y-7500000I500001J-1D01*
G01*
D11*
X13740000Y-8000000D02*
G75*
G02*
X14160063Y-7420324I610002J-1D01*
G01*
D12*
X53425000Y-13375000D02*
G75*
G02*
X53425000Y-15625000I0J-1125000D01*
G01*
X52275000Y-15625000D02*
G75*
G02*
X52275000Y-13375000I0J1125000D01*
G01*
D11*
X64960000Y-28000000D02*
G75*
G02*
X64539937Y-28579676I-610000J0D01*
G01*
D12*
X64850000Y-28000000D02*
G75*
G02*
X64350000Y-28500000I-500000J0D01*
G01*
X14350000Y-28500000D02*
G75*
G02*
X13850000Y-28000000I0J500000D01*
G01*
D11*
X14160063Y-28579676D02*
G75*
G02*
X13739931Y-28000000I189837J579676D01*
G01*
D12*
X66150000Y-22000000D02*
X65550000Y-22000000D01*
X65550000Y-21790000D01*
X60550000Y-21790000D01*
X60550000Y-14210000D01*
X65550000Y-14210000D01*
X65550000Y-14000000D01*
X66150000Y-14000000D01*
X66150000Y-22000000D01*
%TD*%
M02*
