M48
; DRILL file {KiCad 9.0.7} date 2026-05-06T21:18:28+0200
; FORMAT={-:-/ absolute / metric / decimal}
; #@! TF.CreationDate,2026-05-06T21:18:28+02:00
; #@! TF.GenerationSoftware,Kicad,Pcbnew,9.0.7
; #@! TF.FileFunction,Plated,1,2,PTH
FMAT,2
METRIC
; #@! TA.AperFunction,Plated,PTH,ViaDrill
T1C0.600
; #@! TA.AperFunction,Plated,PTH,ComponentDrill
T2C1.000
%
G90
G05
T1
X15.271Y-23.987
X15.84Y-5.94
X16.36Y-39.18
X17.401Y-24.027
X17.73Y-12.16
X17.82Y-14.11
X18.766Y-40.47
X18.77Y-24.64
X19.12Y-16.32
X19.579Y-38.407
X20.185Y-20.662
X20.982Y-24.558
X21.584Y-21.203
X21.93Y-18.68
X22.34Y-38.2
X23.112Y-24.361
X24.592Y-14.372
X25.547Y-19.464
X26.161Y-16.074
X26.453Y-12.429
X26.502Y-24.485
X27.015Y-21.008
X27.482Y-11.04
X28.923Y-23.003
X29.194Y-5.965
X29.66Y-17.58
X30.16Y-24.45
X30.216Y-12.3
X30.593Y-20.145
X31.522Y-5.965
X31.993Y-23.271
X32.036Y-20.555
X32.454Y-39.135
X34.911Y-10.689
X35.01Y-38.27
X35.873Y-23.721
X36.636Y-15.301
X36.971Y-18.074
X37.72Y-39.215
X38.453Y-17.375
X39.263Y-23.943
X39.6Y-12.875
X40.201Y-39.947
X40.727Y-23.614
X43.723Y-11.345
X44.005Y-23.554
X44.041Y-15.951
X45.271Y-21.224
X46.31Y-23.17
X46.461Y-17.566
X47.53Y-40.02
X48.343Y-14.886
X48.625Y-16.359
X50.306Y-13.839
X50.473Y-12.348
X50.571Y-17.535
X51.763Y-24.465
X53.167Y-23.835
X54.463Y-38.162
X55.842Y-38.852
X56.088Y-20.319
X58.187Y-23.983
X59.55Y-22.42
X59.58Y-6.04
X59.76Y-34.98
X62.66Y-37.68
T2
X8.37Y-33.43
X8.37Y-35.97
X10.91Y-33.43
X10.91Y-35.97
X13.45Y-33.43
X13.45Y-35.97
X15.22Y-9.11
X15.22Y-26.89
X15.99Y-33.43
X15.99Y-35.97
X17.76Y-9.11
X17.76Y-26.89
X18.53Y-33.43
X18.53Y-35.97
X20.3Y-9.11
X20.3Y-26.89
X21.07Y-33.43
X21.07Y-35.97
X22.84Y-9.11
X22.84Y-26.89
X23.61Y-33.43
X23.61Y-35.97
X25.38Y-9.11
X25.38Y-26.89
X26.15Y-33.43
X26.15Y-35.97
X27.92Y-9.11
X27.92Y-26.89
X28.69Y-33.43
X28.69Y-35.97
X30.46Y-9.11
X30.46Y-26.89
X31.23Y-33.43
X31.23Y-35.97
X33.0Y-9.11
X33.0Y-26.89
X33.77Y-33.43
X33.77Y-35.97
X35.54Y-9.11
X35.54Y-26.89
X36.31Y-33.43
X36.31Y-35.97
X38.08Y-9.11
X38.08Y-26.89
X38.85Y-33.43
X38.85Y-35.97
X40.62Y-9.11
X40.62Y-26.89
X41.39Y-33.43
X41.39Y-35.97
X43.16Y-9.11
X43.16Y-26.89
X43.93Y-33.43
X43.93Y-35.97
X45.7Y-9.11
X45.7Y-26.89
X46.47Y-33.43
X46.47Y-35.97
X48.24Y-9.11
X48.24Y-26.89
X49.01Y-33.43
X49.01Y-35.97
X50.78Y-9.11
X50.78Y-26.89
X51.55Y-33.43
X51.55Y-35.97
X53.32Y-9.11
X53.32Y-26.89
X54.09Y-33.43
X54.09Y-35.97
X55.86Y-9.11
X55.86Y-26.89
X56.63Y-33.43
X56.63Y-35.97
X58.4Y-9.11
X58.4Y-26.89
X60.94Y-9.11
X60.94Y-26.89
X63.48Y-9.11
X63.48Y-26.89
M30
