M48
; DRILL file {KiCad 9.0.7} date 2026-05-06T21:09:39+0200
; FORMAT={-:-/ absolute / metric / decimal}
; #@! TF.CreationDate,2026-05-06T21:09:39+02:00
; #@! TF.GenerationSoftware,Kicad,Pcbnew,9.0.7
; #@! TF.FileFunction,Plated,1,2,PTH
FMAT,2
METRIC
; #@! TA.AperFunction,Plated,PTH,ViaDrill
T1C0.600
; #@! TA.AperFunction,Plated,PTH,ComponentDrill
T2C1.000
%
G90
G05
T1
X9.93Y-30.77
X11.97Y-17.96
X12.129Y-25.267
X12.639Y-23.437
X12.85Y-20.5
X13.768Y-26.364
X14.85Y-30.604
X15.03Y-28.06
X15.971Y-22.13
X18.787Y-30.075
X19.394Y-28.275
X33.77Y-33.26
X35.036Y-20.23
X36.301Y-31.31
X37.576Y-23.58
X38.802Y-25.138
X40.116Y-26.51
X52.88Y-25.35
X55.058Y-25.597
X55.284Y-27.483
X55.884Y-29.286
T2
X6.125Y-15.61
X6.125Y-18.15
X6.125Y-20.69
X6.125Y-23.23
X6.125Y-25.77
X6.125Y-28.31
X6.125Y-30.85
X6.125Y-33.39
X8.37Y-4.23
X8.37Y-6.77
X8.37Y-37.43
X8.37Y-39.97
X10.91Y-4.23
X10.91Y-6.77
X10.91Y-37.43
X10.91Y-39.97
X13.45Y-4.23
X13.45Y-6.77
X13.45Y-37.43
X13.45Y-39.97
X15.99Y-4.23
X15.99Y-6.77
X15.99Y-37.43
X15.99Y-39.97
X18.53Y-4.23
X18.53Y-6.77
X18.53Y-37.43
X18.53Y-39.97
X21.07Y-4.23
X21.07Y-6.77
X21.07Y-37.43
X21.07Y-39.97
X23.61Y-4.23
X23.61Y-6.77
X23.61Y-37.43
X23.61Y-39.97
X26.15Y-4.23
X26.15Y-6.77
X26.15Y-37.43
X26.15Y-39.97
X28.69Y-4.23
X28.69Y-6.77
X28.69Y-37.43
X28.69Y-39.97
X31.23Y-4.23
X31.23Y-6.77
X31.23Y-37.43
X31.23Y-39.97
X33.77Y-4.23
X33.77Y-6.77
X33.77Y-37.43
X33.77Y-39.97
X36.31Y-4.23
X36.31Y-6.77
X36.31Y-37.43
X36.31Y-39.97
X38.85Y-4.23
X38.85Y-6.77
X38.85Y-37.43
X38.85Y-39.97
X41.39Y-4.23
X41.39Y-6.77
X41.39Y-37.43
X41.39Y-39.97
X43.93Y-4.23
X43.93Y-6.77
X43.93Y-37.43
X43.93Y-39.97
X46.47Y-4.23
X46.47Y-6.77
X46.47Y-37.43
X46.47Y-39.97
X49.01Y-4.23
X49.01Y-6.77
X49.01Y-37.43
X49.01Y-39.97
X51.55Y-4.23
X51.55Y-6.77
X51.55Y-37.43
X51.55Y-39.97
X54.09Y-4.23
X54.09Y-6.77
X54.09Y-37.43
X54.09Y-39.97
X54.5Y-17.5
X54.5Y-20.04
X54.5Y-22.58
X56.63Y-4.23
X56.63Y-6.77
X56.63Y-37.43
X56.63Y-39.97
M30
