%TF.GenerationSoftware,KiCad,Pcbnew,9.0.7*%
%TF.CreationDate,2026-05-06T21:09:36+02:00*%
%TF.ProjectId,BarePi_LCD320x240,42617265-5069-45f4-9c43-443332307832,rev?*%
%TF.SameCoordinates,Original*%
%TF.FileFunction,Soldermask,Bot*%
%TF.FilePolarity,Negative*%
%FSLAX46Y46*%
G04 Gerber Fmt 4.6, Leading zero omitted, Abs format (unit mm)*
G04 Created by KiCad (PCBNEW 9.0.7) date 2026-05-06 21:09:36*
%MOMM*%
%LPD*%
G01*
G04 APERTURE LIST*
G04 Aperture macros list*
%AMRoundRect*
0 Rectangle with rounded corners*
0 $1 Rounding radius*
0 $2 $3 $4 $5 $6 $7 $8 $9 X,Y pos of 4 corners*
0 Add a 4 corners polygon primitive as box body*
4,1,4,$2,$3,$4,$5,$6,$7,$8,$9,$2,$3,0*
0 Add four circle primitives for the rounded corners*
1,1,$1+$1,$2,$3*
1,1,$1+$1,$4,$5*
1,1,$1+$1,$6,$7*
1,1,$1+$1,$8,$9*
0 Add four rect primitives between the rounded corners*
20,1,$1+$1,$2,$3,$4,$5,0*
20,1,$1+$1,$4,$5,$6,$7,0*
20,1,$1+$1,$6,$7,$8,$9,0*
20,1,$1+$1,$8,$9,$2,$3,0*%
%AMOutline4P*
0 Free polygon, 4 corners , with rotation*
0 The origin of the aperture is its center*
0 number of corners: always 4*
0 $1 to $8 corner X, Y*
0 $9 Rotation angle, in degrees counterclockwise*
0 create outline with 4 corners*
4,1,4,$1,$2,$3,$4,$5,$6,$7,$8,$1,$2,$9*%
%AMFreePoly0*
4,1,23,0.500000,-0.750000,0.000000,-0.750000,0.000000,-0.745722,-0.065263,-0.745722,-0.191342,-0.711940,-0.304381,-0.646677,-0.396677,-0.554381,-0.461940,-0.441342,-0.495722,-0.315263,-0.495722,-0.250000,-0.500000,-0.250000,-0.500000,0.250000,-0.495722,0.250000,-0.495722,0.315263,-0.461940,0.441342,-0.396677,0.554381,-0.304381,0.646677,-0.191342,0.711940,-0.065263,0.745722,0.000000,0.745722,
0.000000,0.750000,0.500000,0.750000,0.500000,-0.750000,0.500000,-0.750000,$1*%
%AMFreePoly1*
4,1,23,0.000000,0.745722,0.065263,0.745722,0.191342,0.711940,0.304381,0.646677,0.396677,0.554381,0.461940,0.441342,0.495722,0.315263,0.495722,0.250000,0.500000,0.250000,0.500000,-0.250000,0.495722,-0.250000,0.495722,-0.315263,0.461940,-0.441342,0.396677,-0.554381,0.304381,-0.646677,0.191342,-0.711940,0.065263,-0.745722,0.000000,-0.745722,0.000000,-0.750000,-0.500000,-0.750000,
-0.500000,0.750000,0.000000,0.750000,0.000000,0.745722,0.000000,0.745722,$1*%
G04 Aperture macros list end*
%ADD10Outline4P,-1.500000X-0.800000X1.500000X-0.800000X1.500000X0.800000X-1.500000X0.800000X270.000000*%
%ADD11O,1.600000X3.000000*%
%ADD12Outline4P,-1.600000X-0.800000X1.600000X-0.800000X1.600000X0.800000X-1.600000X0.800000X0.000000*%
%ADD13O,3.200000X1.600000*%
%ADD14C,3.000000*%
%ADD15RoundRect,0.250000X-0.412500X-1.100000X0.412500X-1.100000X0.412500X1.100000X-0.412500X1.100000X0*%
%ADD16FreePoly0,180.000000*%
%ADD17FreePoly1,180.000000*%
%ADD18RoundRect,0.137500X0.137500X-0.612500X0.137500X0.612500X-0.137500X0.612500X-0.137500X-0.612500X0*%
%ADD19RoundRect,0.250000X-0.625000X0.400000X-0.625000X-0.400000X0.625000X-0.400000X0.625000X0.400000X0*%
%ADD20FreePoly0,0.000000*%
%ADD21FreePoly1,0.000000*%
%ADD22RoundRect,0.250000X0.445000X-0.545000X0.445000X0.545000X-0.445000X0.545000X-0.445000X-0.545000X0*%
G04 APERTURE END LIST*
%TO.C,JP2*%
G36*
X60500000Y-38570000D02*
G01*
X60200000Y-38570000D01*
X60200000Y-40070000D01*
X60500000Y-40070000D01*
X60500000Y-38570000D01*
G37*
%TO.C,JP4*%
G36*
X12860000Y-27550000D02*
G01*
X12560000Y-27550000D01*
X12560000Y-29050000D01*
X12860000Y-29050000D01*
X12860000Y-27550000D01*
G37*
%TO.C,JP1*%
G36*
X62290000Y-37170000D02*
G01*
X62590000Y-37170000D01*
X62590000Y-35670000D01*
X62290000Y-35670000D01*
X62290000Y-37170000D01*
G37*
%TO.C,JP3*%
G36*
X12740000Y-30560000D02*
G01*
X12440000Y-30560000D01*
X12440000Y-32060000D01*
X12740000Y-32060000D01*
X12740000Y-30560000D01*
G37*
%TD*%
D10*
%TO.C,J2*%
X8370000Y-40370000D03*
D11*
X8370000Y-37030000D03*
X10910000Y-40370000D03*
X10910000Y-37030000D03*
X13450000Y-40370000D03*
X13450000Y-37030000D03*
X15990000Y-40370000D03*
X15990000Y-37030000D03*
X18530000Y-40370000D03*
X18530000Y-37030000D03*
X21070000Y-40370000D03*
X21070000Y-37030000D03*
X23610000Y-40370000D03*
X23610000Y-37030000D03*
X26150000Y-40370000D03*
X26150000Y-37030000D03*
X28690000Y-40370000D03*
X28690000Y-37030000D03*
X31230000Y-40370000D03*
X31230000Y-37030000D03*
X33770000Y-40370000D03*
X33770000Y-37030000D03*
X36310000Y-40370000D03*
X36310000Y-37030000D03*
X38850000Y-40370000D03*
X38850000Y-37030000D03*
X41390000Y-40370000D03*
X41390000Y-37030000D03*
X43930000Y-40370000D03*
X43930000Y-37030000D03*
X46470000Y-40370000D03*
X46470000Y-37030000D03*
X49010000Y-40370000D03*
X49010000Y-37030000D03*
X51550000Y-40370000D03*
X51550000Y-37030000D03*
X54090000Y-40370000D03*
X54090000Y-37030000D03*
X56630000Y-40370000D03*
X56630000Y-37030000D03*
%TD*%
D12*
%TO.C,J3*%
X6125000Y-15610000D03*
D13*
X6125000Y-18150000D03*
X6125000Y-20690000D03*
X6125000Y-23230000D03*
X6125000Y-25770000D03*
X6125000Y-28310000D03*
X6125000Y-30850000D03*
X6125000Y-33390000D03*
%TD*%
D12*
%TO.C,J4*%
X54500000Y-17500000D03*
D13*
X54500000Y-20040000D03*
X54500000Y-22580000D03*
%TD*%
D14*
%TO.C,REF\u002A\u002A*%
X3500000Y-45500000D03*
%TD*%
D10*
%TO.C,J1*%
X8370000Y-3830000D03*
D11*
X8370000Y-7170000D03*
X10910000Y-3830000D03*
X10910000Y-7170000D03*
X13450000Y-3830000D03*
X13450000Y-7170000D03*
X15990000Y-3830000D03*
X15990000Y-7170000D03*
X18530000Y-3830000D03*
X18530000Y-7170000D03*
X21070000Y-3830000D03*
X21070000Y-7170000D03*
X23610000Y-3830000D03*
X23610000Y-7170000D03*
X26150000Y-3830000D03*
X26150000Y-7170000D03*
X28690000Y-3830000D03*
X28690000Y-7170000D03*
X31230000Y-3830000D03*
X31230000Y-7170000D03*
X33770000Y-3830000D03*
X33770000Y-7170000D03*
X36310000Y-3830000D03*
X36310000Y-7170000D03*
X38850000Y-3830000D03*
X38850000Y-7170000D03*
X41390000Y-3830000D03*
X41390000Y-7170000D03*
X43930000Y-3830000D03*
X43930000Y-7170000D03*
X46470000Y-3830000D03*
X46470000Y-7170000D03*
X49010000Y-3830000D03*
X49010000Y-7170000D03*
X51550000Y-3830000D03*
X51550000Y-7170000D03*
X54090000Y-3830000D03*
X54090000Y-7170000D03*
X56630000Y-3830000D03*
X56630000Y-7170000D03*
%TD*%
D14*
%TO.C,REF\u002A\u002A*%
X3500000Y-3500000D03*
%TD*%
%TO.C,REF\u002A\u002A*%
X61500000Y-3500000D03*
%TD*%
%TO.C,REF\u002A\u002A*%
X61500000Y-45500000D03*
%TD*%
D15*
%TO.C,C2*%
X56643500Y-12954000D03*
X59768500Y-12954000D03*
%TD*%
D16*
%TO.C,JP2*%
X61000000Y-39320000D03*
D17*
X59700000Y-39320000D03*
%TD*%
D18*
%TO.C,U1*%
X60887500Y-32460000D03*
X59617500Y-32460000D03*
X58347500Y-32460000D03*
X57077500Y-32460000D03*
X57077500Y-27160000D03*
X58347500Y-27160000D03*
X59617500Y-27160000D03*
X60887500Y-27160000D03*
%TD*%
D16*
%TO.C,JP4*%
X13360000Y-28300000D03*
D17*
X12060000Y-28300000D03*
%TD*%
D19*
%TO.C,R1*%
X10450000Y-20500000D03*
X10450000Y-23600000D03*
%TD*%
D20*
%TO.C,JP1*%
X61790000Y-36420000D03*
D21*
X63090000Y-36420000D03*
%TD*%
D16*
%TO.C,JP3*%
X13240000Y-31310000D03*
D17*
X11940000Y-31310000D03*
%TD*%
D22*
%TO.C,C1*%
X10220000Y-17790000D03*
X10220000Y-14910000D03*
%TD*%
M02*
