%TF.GenerationSoftware,KiCad,Pcbnew,9.0.7*%
%TF.CreationDate,2026-05-06T21:09:36+02:00*%
%TF.ProjectId,BarePi_LCD320x240,42617265-5069-45f4-9c43-443332307832,rev?*%
%TF.SameCoordinates,Original*%
%TF.FileFunction,Copper,L1,Top*%
%TF.FilePolarity,Positive*%
%FSLAX46Y46*%
G04 Gerber Fmt 4.6, Leading zero omitted, Abs format (unit mm)*
G04 Created by KiCad (PCBNEW 9.0.7) date 2026-05-06 21:09:36*
%MOMM*%
%LPD*%
G01*
G04 APERTURE LIST*
G04 Aperture macros list*
%AMOutline4P*
0 Free polygon, 4 corners , with rotation*
0 The origin of the aperture is its center*
0 number of corners: always 4*
0 $1 to $8 corner X, Y*
0 $9 Rotation angle, in degrees counterclockwise*
0 create outline with 4 corners*
4,1,4,$1,$2,$3,$4,$5,$6,$7,$8,$1,$2,$9*%
G04 Aperture macros list end*
%ADD10C,0.375000*%
%ADD11C,0.200000*%
%TA.AperFunction,NonConductor*%
%ADD12C,0.200000*%
%TD*%
%ADD13C,0.500000*%
%TA.AperFunction,ComponentPad*%
%ADD14Outline4P,-1.500000X-0.800000X1.500000X-0.800000X1.500000X0.800000X-1.500000X0.800000X270.000000*%
%TD*%
%TA.AperFunction,ComponentPad*%
%ADD15O,1.600000X3.000000*%
%TD*%
%TA.AperFunction,ComponentPad*%
%ADD16Outline4P,-1.600000X-0.800000X1.600000X-0.800000X1.600000X0.800000X-1.600000X0.800000X0.000000*%
%TD*%
%TA.AperFunction,ComponentPad*%
%ADD17O,3.200000X1.600000*%
%TD*%
%TA.AperFunction,ViaPad*%
%ADD18C,1.600000*%
%TD*%
%TA.AperFunction,Conductor*%
%ADD19C,0.400000*%
%TD*%
%TA.AperFunction,Conductor*%
%ADD20C,0.600000*%
%TD*%
G04 APERTURE END LIST*
D10*
G36*
X3351800Y-35780363D02*
G01*
X2097368Y-35780363D01*
X2097368Y-36226137D01*
X1845310Y-36226137D01*
X1845310Y-35032339D01*
X2097368Y-35032339D01*
X2097368Y-35477105D01*
X3351800Y-35477105D01*
X3351800Y-35780363D01*
G37*
G36*
X2751552Y-33487704D02*
G01*
X2880155Y-33513083D01*
X2992102Y-33553355D01*
X3089754Y-33607790D01*
X3174937Y-33676516D01*
X3248022Y-33759403D01*
X3304926Y-33852089D01*
X3346362Y-33955955D01*
X3372128Y-34072905D01*
X3381109Y-34205271D01*
X3372120Y-34339511D01*
X3346378Y-34457728D01*
X3305067Y-34562331D01*
X3248467Y-34655293D01*
X3175945Y-34738057D01*
X3091065Y-34806945D01*
X2994111Y-34861402D01*
X2883329Y-34901613D01*
X2756439Y-34926910D01*
X2610736Y-34935802D01*
X2458094Y-34927332D01*
X2330486Y-34903728D01*
X2224039Y-34867108D01*
X2114872Y-34806650D01*
X2017318Y-34727340D01*
X1960555Y-34665150D01*
X1915599Y-34600524D01*
X1881488Y-34533076D01*
X1849149Y-34437770D01*
X1828925Y-34330474D01*
X1821862Y-34209301D01*
X1822067Y-34206279D01*
X2079783Y-34206279D01*
X2088329Y-34297744D01*
X2112883Y-34377154D01*
X2152935Y-34446875D01*
X2209476Y-34508529D01*
X2276647Y-34555571D01*
X2361445Y-34591382D01*
X2467787Y-34614769D01*
X2600478Y-34623293D01*
X2730465Y-34614682D01*
X2836032Y-34590896D01*
X2921526Y-34554171D01*
X2990473Y-34505507D01*
X3048889Y-34442125D01*
X3089823Y-34372180D01*
X3114635Y-34294264D01*
X3123188Y-34206279D01*
X3114666Y-34118225D01*
X3089989Y-34040572D01*
X3049360Y-33971179D01*
X2991480Y-33908608D01*
X2923217Y-33860862D01*
X2837343Y-33824569D01*
X2729975Y-33800902D01*
X2596356Y-33792287D01*
X2464049Y-33800724D01*
X2358303Y-33823840D01*
X2274251Y-33859171D01*
X2207919Y-33905494D01*
X2152180Y-33966306D01*
X2112599Y-34035471D01*
X2088270Y-34114654D01*
X2079783Y-34206279D01*
X1822067Y-34206279D01*
X1830857Y-34076598D01*
X1856673Y-33959216D01*
X1898212Y-33854842D01*
X1955276Y-33761585D01*
X2028583Y-33678073D01*
X2113978Y-33608847D01*
X2212040Y-33553994D01*
X2324634Y-33513391D01*
X2454170Y-33487788D01*
X2603500Y-33478771D01*
X2751552Y-33487704D01*
G37*
G36*
X2399944Y-32097182D02*
G01*
X2476884Y-32114324D01*
X2541768Y-32141267D01*
X2601508Y-32178656D01*
X2650606Y-32221135D01*
X2690237Y-32268853D01*
X2735675Y-32348278D01*
X2761587Y-32426206D01*
X2776919Y-32547002D01*
X2783202Y-32740822D01*
X2783202Y-32938567D01*
X3351800Y-32938567D01*
X3351800Y-33241825D01*
X1845310Y-33241825D01*
X1845310Y-32792021D01*
X2097368Y-32792021D01*
X2097368Y-32938567D01*
X2531144Y-32938567D01*
X2531144Y-32772604D01*
X2523503Y-32608071D01*
X2507147Y-32532818D01*
X2476133Y-32478564D01*
X2432134Y-32438022D01*
X2377571Y-32412469D01*
X2313248Y-32403675D01*
X2259455Y-32409341D01*
X2214174Y-32425495D01*
X2175587Y-32451852D01*
X2143998Y-32486752D01*
X2121538Y-32527030D01*
X2107810Y-32573760D01*
X2100708Y-32641645D01*
X2097368Y-32792021D01*
X1845310Y-32792021D01*
X1845310Y-32755110D01*
X1852672Y-32502135D01*
X1867933Y-32394424D01*
X1899071Y-32313588D01*
X1947626Y-32241975D01*
X2015394Y-32178178D01*
X2095265Y-32131149D01*
X2191630Y-32101603D01*
X2308577Y-32091075D01*
X2399944Y-32097182D01*
G37*
D11*
D12*
X63423600Y-24539523D02*
X63461695Y-24425237D01*
X63461695Y-24425237D02*
X63461695Y-24234761D01*
X63461695Y-24234761D02*
X63423600Y-24158570D01*
X63423600Y-24158570D02*
X63385504Y-24120475D01*
X63385504Y-24120475D02*
X63309314Y-24082380D01*
X63309314Y-24082380D02*
X63233123Y-24082380D01*
X63233123Y-24082380D02*
X63156933Y-24120475D01*
X63156933Y-24120475D02*
X63118838Y-24158570D01*
X63118838Y-24158570D02*
X63080742Y-24234761D01*
X63080742Y-24234761D02*
X63042647Y-24387142D01*
X63042647Y-24387142D02*
X63004552Y-24463332D01*
X63004552Y-24463332D02*
X62966457Y-24501427D01*
X62966457Y-24501427D02*
X62890266Y-24539523D01*
X62890266Y-24539523D02*
X62814076Y-24539523D01*
X62814076Y-24539523D02*
X62737885Y-24501427D01*
X62737885Y-24501427D02*
X62699790Y-24463332D01*
X62699790Y-24463332D02*
X62661695Y-24387142D01*
X62661695Y-24387142D02*
X62661695Y-24196665D01*
X62661695Y-24196665D02*
X62699790Y-24082380D01*
X62661695Y-23815713D02*
X63461695Y-23625237D01*
X63461695Y-23625237D02*
X62890266Y-23472856D01*
X62890266Y-23472856D02*
X63461695Y-23320475D01*
X63461695Y-23320475D02*
X62661695Y-23129999D01*
X63461695Y-22825236D02*
X62661695Y-22825236D01*
X62661695Y-22291903D02*
X62661695Y-22139522D01*
X62661695Y-22139522D02*
X62699790Y-22063332D01*
X62699790Y-22063332D02*
X62775980Y-21987141D01*
X62775980Y-21987141D02*
X62928361Y-21949046D01*
X62928361Y-21949046D02*
X63195028Y-21949046D01*
X63195028Y-21949046D02*
X63347409Y-21987141D01*
X63347409Y-21987141D02*
X63423600Y-22063332D01*
X63423600Y-22063332D02*
X63461695Y-22139522D01*
X63461695Y-22139522D02*
X63461695Y-22291903D01*
X63461695Y-22291903D02*
X63423600Y-22368094D01*
X63423600Y-22368094D02*
X63347409Y-22444284D01*
X63347409Y-22444284D02*
X63195028Y-22482380D01*
X63195028Y-22482380D02*
X62928361Y-22482380D01*
X62928361Y-22482380D02*
X62775980Y-22444284D01*
X62775980Y-22444284D02*
X62699790Y-22368094D01*
X62699790Y-22368094D02*
X62661695Y-22291903D01*
X63156933Y-21606189D02*
X63156933Y-20996666D01*
X62699790Y-20196666D02*
X62661695Y-20272856D01*
X62661695Y-20272856D02*
X62661695Y-20387142D01*
X62661695Y-20387142D02*
X62699790Y-20501428D01*
X62699790Y-20501428D02*
X62775980Y-20577618D01*
X62775980Y-20577618D02*
X62852171Y-20615713D01*
X62852171Y-20615713D02*
X63004552Y-20653809D01*
X63004552Y-20653809D02*
X63118838Y-20653809D01*
X63118838Y-20653809D02*
X63271219Y-20615713D01*
X63271219Y-20615713D02*
X63347409Y-20577618D01*
X63347409Y-20577618D02*
X63423600Y-20501428D01*
X63423600Y-20501428D02*
X63461695Y-20387142D01*
X63461695Y-20387142D02*
X63461695Y-20310951D01*
X63461695Y-20310951D02*
X63423600Y-20196666D01*
X63423600Y-20196666D02*
X63385504Y-20158570D01*
X63385504Y-20158570D02*
X63118838Y-20158570D01*
X63118838Y-20158570D02*
X63118838Y-20310951D01*
X63461695Y-19815713D02*
X62661695Y-19815713D01*
X62661695Y-19815713D02*
X63461695Y-19358570D01*
X63461695Y-19358570D02*
X62661695Y-19358570D01*
X63461695Y-18977618D02*
X62661695Y-18977618D01*
X62661695Y-18977618D02*
X62661695Y-18787142D01*
X62661695Y-18787142D02*
X62699790Y-18672856D01*
X62699790Y-18672856D02*
X62775980Y-18596666D01*
X62775980Y-18596666D02*
X62852171Y-18558571D01*
X62852171Y-18558571D02*
X63004552Y-18520475D01*
X63004552Y-18520475D02*
X63118838Y-18520475D01*
X63118838Y-18520475D02*
X63271219Y-18558571D01*
X63271219Y-18558571D02*
X63347409Y-18596666D01*
X63347409Y-18596666D02*
X63423600Y-18672856D01*
X63423600Y-18672856D02*
X63461695Y-18787142D01*
X63461695Y-18787142D02*
X63461695Y-18977618D01*
X63156933Y-18177618D02*
X63156933Y-17568095D01*
X62661695Y-17263333D02*
X62661695Y-16768095D01*
X62661695Y-16768095D02*
X62966457Y-17034761D01*
X62966457Y-17034761D02*
X62966457Y-16920476D01*
X62966457Y-16920476D02*
X63004552Y-16844285D01*
X63004552Y-16844285D02*
X63042647Y-16806190D01*
X63042647Y-16806190D02*
X63118838Y-16768095D01*
X63118838Y-16768095D02*
X63309314Y-16768095D01*
X63309314Y-16768095D02*
X63385504Y-16806190D01*
X63385504Y-16806190D02*
X63423600Y-16844285D01*
X63423600Y-16844285D02*
X63461695Y-16920476D01*
X63461695Y-16920476D02*
X63461695Y-17149047D01*
X63461695Y-17149047D02*
X63423600Y-17225238D01*
X63423600Y-17225238D02*
X63385504Y-17263333D01*
X62661695Y-16539523D02*
X63461695Y-16272856D01*
X63461695Y-16272856D02*
X62661695Y-16006190D01*
X62661695Y-15815714D02*
X62661695Y-15320476D01*
X62661695Y-15320476D02*
X62966457Y-15587142D01*
X62966457Y-15587142D02*
X62966457Y-15472857D01*
X62966457Y-15472857D02*
X63004552Y-15396666D01*
X63004552Y-15396666D02*
X63042647Y-15358571D01*
X63042647Y-15358571D02*
X63118838Y-15320476D01*
X63118838Y-15320476D02*
X63309314Y-15320476D01*
X63309314Y-15320476D02*
X63385504Y-15358571D01*
X63385504Y-15358571D02*
X63423600Y-15396666D01*
X63423600Y-15396666D02*
X63461695Y-15472857D01*
X63461695Y-15472857D02*
X63461695Y-15701428D01*
X63461695Y-15701428D02*
X63423600Y-15777619D01*
X63423600Y-15777619D02*
X63385504Y-15815714D01*
D13*
G36*
X20588841Y-44657218D02*
G01*
X20720778Y-44671252D01*
X20832241Y-44702145D01*
X20929850Y-44754050D01*
X21013560Y-44826546D01*
X21083478Y-44921723D01*
X21117432Y-44993657D01*
X21137998Y-45071431D01*
X21145028Y-45156441D01*
X21136531Y-45248252D01*
X21111382Y-45333992D01*
X21069190Y-45415216D01*
X21012631Y-45487162D01*
X20944523Y-45545713D01*
X20863538Y-45591803D01*
X20979364Y-45637488D01*
X21071936Y-45698303D01*
X21144905Y-45774253D01*
X21199235Y-45864405D01*
X21232049Y-45964491D01*
X21243335Y-46077236D01*
X21236370Y-46167247D01*
X21215398Y-46255833D01*
X21179832Y-46343949D01*
X21131606Y-46425571D01*
X21073907Y-46494165D01*
X21006298Y-46551067D01*
X20929703Y-46594947D01*
X20840077Y-46626960D01*
X20735066Y-46646322D01*
X20599353Y-46654103D01*
X20247313Y-46660000D01*
X19565631Y-46660000D01*
X19565631Y-46323921D01*
X19970097Y-46323921D01*
X20344400Y-46323921D01*
X20543480Y-46319813D01*
X20621737Y-46311587D01*
X20704152Y-46282803D01*
X20768527Y-46231109D01*
X20799208Y-46185407D01*
X20818436Y-46129238D01*
X20825314Y-46059773D01*
X20813922Y-45974299D01*
X20781594Y-45905778D01*
X20729158Y-45851786D01*
X20655199Y-45813576D01*
X20548719Y-45794071D01*
X20296650Y-45784633D01*
X19970097Y-45784633D01*
X19970097Y-46323921D01*
X19565631Y-46323921D01*
X19565631Y-45448555D01*
X19970097Y-45448555D01*
X20235101Y-45448555D01*
X20528925Y-45441716D01*
X20623924Y-45416758D01*
X20692079Y-45370397D01*
X20724631Y-45327637D01*
X20744541Y-45276499D01*
X20751552Y-45214570D01*
X20738130Y-45129063D01*
X20700261Y-45064361D01*
X20662525Y-45032072D01*
X20612803Y-45008462D01*
X20547976Y-44994263D01*
X20202372Y-44987424D01*
X19970097Y-44987424D01*
X19970097Y-45448555D01*
X19565631Y-45448555D01*
X19565631Y-44651346D01*
X20366259Y-44651346D01*
X20588841Y-44657218D01*
G37*
G36*
X22320935Y-45175561D02*
G01*
X22444780Y-45197331D01*
X22531350Y-45228370D01*
X22610213Y-45275203D01*
X22668011Y-45326933D01*
X22708304Y-45383709D01*
X22733318Y-45449952D01*
X22752034Y-45559464D01*
X22759595Y-45729434D01*
X22755565Y-46180307D01*
X22761044Y-46360026D01*
X22774005Y-46464117D01*
X22799505Y-46556053D01*
X22843004Y-46660000D01*
X22463206Y-46660000D01*
X22426326Y-46548136D01*
X22412648Y-46503684D01*
X22309263Y-46590299D01*
X22202233Y-46650230D01*
X22087039Y-46686748D01*
X21963119Y-46699078D01*
X21851608Y-46690589D01*
X21757479Y-46666648D01*
X21677703Y-46628670D01*
X21609944Y-46576835D01*
X21553432Y-46511621D01*
X21513550Y-46439438D01*
X21489255Y-46358837D01*
X21480862Y-46267745D01*
X21484314Y-46226468D01*
X21864689Y-46226468D01*
X21871357Y-46278043D01*
X21891064Y-46324216D01*
X21924773Y-46366542D01*
X21967943Y-46399014D01*
X22018253Y-46418673D01*
X22077791Y-46425526D01*
X22144871Y-46418140D01*
X22210457Y-46395726D01*
X22275872Y-46356894D01*
X22334227Y-46298089D01*
X22367463Y-46229277D01*
X22377749Y-46168754D01*
X22382484Y-46041210D01*
X22382484Y-45964396D01*
X22148866Y-46023381D01*
X22003677Y-46061684D01*
X21939794Y-46090669D01*
X21897110Y-46130751D01*
X21872843Y-46175358D01*
X21864689Y-46226468D01*
X21484314Y-46226468D01*
X21487614Y-46187018D01*
X21507275Y-46114025D01*
X21539602Y-46047316D01*
X21583833Y-45987986D01*
X21638312Y-45938799D01*
X21704222Y-45899061D01*
X21822752Y-45854009D01*
X22009525Y-45809057D01*
X22257244Y-45754803D01*
X22382484Y-45714291D01*
X22382484Y-45674968D01*
X22375310Y-45601107D01*
X22356379Y-45548902D01*
X22327774Y-45512669D01*
X22287744Y-45488542D01*
X22222507Y-45471146D01*
X22121511Y-45464187D01*
X22026492Y-45475625D01*
X21961654Y-45505830D01*
X21912557Y-45558843D01*
X21868841Y-45651765D01*
X21520429Y-45589239D01*
X21571572Y-45452986D01*
X21639095Y-45348690D01*
X21722540Y-45270624D01*
X21795361Y-45228768D01*
X21887731Y-45196367D01*
X22003905Y-45175003D01*
X22148866Y-45167187D01*
X22320935Y-45175561D01*
G37*
G36*
X23504780Y-46660000D02*
G01*
X23120830Y-46660000D01*
X23120830Y-45206266D01*
X23477425Y-45206266D01*
X23477425Y-45412529D01*
X23571630Y-45282019D01*
X23642044Y-45216769D01*
X23719603Y-45179735D01*
X23808007Y-45167187D01*
X23893544Y-45175062D01*
X23977393Y-45198835D01*
X24060799Y-45239483D01*
X23941975Y-45573852D01*
X23844596Y-45525476D01*
X23761601Y-45511081D01*
X23686133Y-45522618D01*
X23624947Y-45555900D01*
X23578102Y-45613087D01*
X23536898Y-45717711D01*
X23515165Y-45866422D01*
X23504780Y-46208150D01*
X23504780Y-46660000D01*
G37*
G36*
X24937524Y-45181650D02*
G01*
X25072791Y-45222852D01*
X25189185Y-45289424D01*
X25289829Y-45382609D01*
X25351983Y-45469429D01*
X25402269Y-45575098D01*
X25439851Y-45703009D01*
X25462932Y-45857266D01*
X25468859Y-46042554D01*
X24507030Y-46042554D01*
X24520353Y-46152666D01*
X24551892Y-46239278D01*
X24599965Y-46307435D01*
X24664194Y-46360127D01*
X24736998Y-46391355D01*
X24821249Y-46402079D01*
X24905691Y-46389601D01*
X24972924Y-46353963D01*
X25024757Y-46294702D01*
X25065858Y-46198869D01*
X25448342Y-46261395D01*
X25387682Y-46396163D01*
X25310100Y-46503406D01*
X25215335Y-46587215D01*
X25104249Y-46647786D01*
X24973059Y-46685673D01*
X24817097Y-46699078D01*
X24665326Y-46687823D01*
X24536978Y-46656079D01*
X24428052Y-46605773D01*
X24335421Y-46537267D01*
X24257048Y-46449340D01*
X24196143Y-46346615D01*
X24151414Y-46229835D01*
X24123385Y-46096626D01*
X24113555Y-45944124D01*
X24123458Y-45808080D01*
X24513869Y-45808080D01*
X25087718Y-45808080D01*
X25074977Y-45698662D01*
X25045557Y-45615190D01*
X25001622Y-45551870D01*
X24942421Y-45502770D01*
X24876753Y-45473980D01*
X24802198Y-45464187D01*
X24722491Y-45474673D01*
X24654209Y-45505175D01*
X24594469Y-45556755D01*
X24550494Y-45622846D01*
X24523106Y-45705126D01*
X24513869Y-45808080D01*
X24123458Y-45808080D01*
X24126805Y-45762094D01*
X24164008Y-45609532D01*
X24222656Y-45481356D01*
X24302111Y-45373572D01*
X24403148Y-45282894D01*
X24514632Y-45219194D01*
X24638788Y-45180523D01*
X24778873Y-45167187D01*
X24937524Y-45181650D01*
G37*
G36*
X26769941Y-44661162D02*
G01*
X26913555Y-44681510D01*
X27021336Y-44723028D01*
X27116821Y-44787768D01*
X27201884Y-44878126D01*
X27264589Y-44984620D01*
X27303984Y-45113107D01*
X27318021Y-45269036D01*
X27309879Y-45390859D01*
X27287022Y-45493445D01*
X27251099Y-45579958D01*
X27201246Y-45659611D01*
X27144608Y-45725075D01*
X27080984Y-45777916D01*
X26975084Y-45838500D01*
X26871179Y-45873049D01*
X26710119Y-45893492D01*
X26451692Y-45901870D01*
X26188032Y-45901870D01*
X26188032Y-46660000D01*
X25783688Y-46660000D01*
X25783688Y-45565792D01*
X26188032Y-45565792D01*
X26409316Y-45565792D01*
X26628694Y-45555604D01*
X26729030Y-45533796D01*
X26801369Y-45492444D01*
X26855425Y-45433778D01*
X26889496Y-45361028D01*
X26901221Y-45275265D01*
X26893666Y-45203540D01*
X26872128Y-45143165D01*
X26836985Y-45091716D01*
X26790451Y-45049598D01*
X26736748Y-45019651D01*
X26674441Y-45001346D01*
X26583927Y-44991877D01*
X26383426Y-44987424D01*
X26188032Y-44987424D01*
X26188032Y-45565792D01*
X25783688Y-45565792D01*
X25783688Y-44651346D01*
X26432641Y-44651346D01*
X26769941Y-44661162D01*
G37*
G36*
X27647016Y-45003056D02*
G01*
X27647016Y-44651346D01*
X28030844Y-44651346D01*
X28030844Y-45003056D01*
X27647016Y-45003056D01*
G37*
G36*
X27647016Y-46660000D02*
G01*
X27647016Y-45206266D01*
X28030844Y-45206266D01*
X28030844Y-46660000D01*
X27647016Y-46660000D01*
G37*
G36*
X29215910Y-46660000D02*
G01*
X29215910Y-44674794D01*
X29620377Y-44674794D01*
X29620377Y-46323921D01*
X30625924Y-46323921D01*
X30625924Y-46660000D01*
X29215910Y-46660000D01*
G37*
G36*
X32196284Y-45917501D02*
G01*
X32588416Y-46042554D01*
X32532466Y-46204584D01*
X32463362Y-46337421D01*
X32382056Y-46445314D01*
X32288485Y-46531528D01*
X32180359Y-46599504D01*
X32057448Y-46649248D01*
X31917181Y-46680358D01*
X31756402Y-46691263D01*
X31598594Y-46679777D01*
X31456345Y-46646493D01*
X31327148Y-46592289D01*
X31208993Y-46516850D01*
X31100488Y-46418688D01*
X31011034Y-46306186D01*
X30940286Y-46177990D01*
X30888049Y-46031828D01*
X30855204Y-45864778D01*
X30843667Y-45673381D01*
X30855477Y-45469732D01*
X30888913Y-45293914D01*
X30941726Y-45141959D01*
X31012723Y-45010481D01*
X31101832Y-44896810D01*
X31210688Y-44797920D01*
X31331078Y-44721456D01*
X31464620Y-44666145D01*
X31613622Y-44631951D01*
X31780949Y-44620083D01*
X31962386Y-44634715D01*
X32119735Y-44676530D01*
X32257214Y-44743916D01*
X32378000Y-44837337D01*
X32457969Y-44930330D01*
X32526632Y-45051392D01*
X32582920Y-45206266D01*
X32182606Y-45300055D01*
X32149468Y-45201647D01*
X32100171Y-45120633D01*
X32034351Y-45054225D01*
X31955051Y-45004665D01*
X31864713Y-44974467D01*
X31760432Y-44963977D01*
X31652164Y-44974430D01*
X31557520Y-45004584D01*
X31473732Y-45054049D01*
X31398953Y-45124323D01*
X31343418Y-45206817D01*
X31300062Y-45316115D01*
X31271091Y-45458930D01*
X31260345Y-45643339D01*
X31271173Y-45840343D01*
X31300115Y-45990410D01*
X31342919Y-46102937D01*
X31396999Y-46185802D01*
X31470890Y-46256828D01*
X31553381Y-46306631D01*
X31646259Y-46336897D01*
X31752250Y-46347369D01*
X31855763Y-46335598D01*
X31947243Y-46301242D01*
X32029588Y-46243688D01*
X32095743Y-46167322D01*
X32151853Y-46061163D01*
X32196284Y-45917501D01*
G37*
G36*
X33907927Y-44662499D02*
G01*
X34053995Y-44689692D01*
X34166276Y-44733545D01*
X34266432Y-44794922D01*
X34356001Y-44874706D01*
X34431987Y-44968314D01*
X34495752Y-45076202D01*
X34547243Y-45200160D01*
X34582010Y-45330117D01*
X34604657Y-45486849D01*
X34612822Y-45674846D01*
X34605334Y-45839697D01*
X34584272Y-45981192D01*
X34551395Y-46102393D01*
X34492091Y-46243233D01*
X34420448Y-46360456D01*
X34336828Y-46457156D01*
X34261939Y-46518345D01*
X34168291Y-46571990D01*
X34052651Y-46617501D01*
X33907235Y-46648019D01*
X33694714Y-46660000D01*
X32933775Y-46660000D01*
X32933775Y-46323921D01*
X33338119Y-46323921D01*
X33640125Y-46323921D01*
X33797743Y-46318101D01*
X33884612Y-46304626D01*
X33976126Y-46270492D01*
X34047889Y-46220729D01*
X34085428Y-46177289D01*
X34120962Y-46114160D01*
X34153768Y-46025945D01*
X34183139Y-45877911D01*
X34194801Y-45656406D01*
X34182937Y-45436199D01*
X34153768Y-45297124D01*
X34102713Y-45182422D01*
X34038974Y-45101730D01*
X33956839Y-45043643D01*
X33851884Y-45006720D01*
X33746986Y-44993556D01*
X33519836Y-44987424D01*
X33338119Y-44987424D01*
X33338119Y-46323921D01*
X32933775Y-46323921D01*
X32933775Y-44651346D01*
X33672854Y-44651346D01*
X33907927Y-44662499D01*
G37*
G36*
X34857065Y-46120833D02*
G01*
X35228681Y-46073817D01*
X35248608Y-46169466D01*
X35280898Y-46243541D01*
X35324302Y-46300352D01*
X35380205Y-46344031D01*
X35442328Y-46369828D01*
X35512857Y-46378632D01*
X35588178Y-46368543D01*
X35654046Y-46338927D01*
X35713014Y-46288384D01*
X35756929Y-46223726D01*
X35784478Y-46143896D01*
X35794347Y-46044752D01*
X35784893Y-45950982D01*
X35758512Y-45875660D01*
X35716434Y-45814797D01*
X35660102Y-45767229D01*
X35597584Y-45739388D01*
X35526535Y-45729923D01*
X35449861Y-45736417D01*
X35350314Y-45758621D01*
X35392690Y-45448555D01*
X35494254Y-45441937D01*
X35571594Y-45418740D01*
X35630338Y-45381388D01*
X35675650Y-45329077D01*
X35702889Y-45266921D01*
X35712404Y-45191856D01*
X35705234Y-45127346D01*
X35685013Y-45074830D01*
X35652198Y-45031632D01*
X35608822Y-44998979D01*
X35556435Y-44978897D01*
X35492463Y-44971793D01*
X35429582Y-44979439D01*
X35374161Y-45001812D01*
X35324302Y-45039570D01*
X35285594Y-45088914D01*
X35257016Y-45153594D01*
X35239672Y-45237529D01*
X34885764Y-45177934D01*
X34916574Y-45057758D01*
X34954078Y-44961680D01*
X34997139Y-44885819D01*
X35052380Y-44819085D01*
X35120994Y-44761927D01*
X35204745Y-44713995D01*
X35295476Y-44679674D01*
X35394517Y-44658601D01*
X35503332Y-44651346D01*
X35642271Y-44663444D01*
X35761982Y-44698003D01*
X35866041Y-44753866D01*
X35957013Y-44831842D01*
X36019967Y-44910166D01*
X36063355Y-44991052D01*
X36089054Y-45075635D01*
X36097697Y-45165478D01*
X36086702Y-45264438D01*
X36054327Y-45354068D01*
X35999717Y-45436829D01*
X35919761Y-45514201D01*
X35809368Y-45586552D01*
X35918020Y-45622097D01*
X36008815Y-45677047D01*
X36084630Y-45752149D01*
X36141389Y-45842599D01*
X36175874Y-45945048D01*
X36187822Y-46062704D01*
X36175599Y-46190806D01*
X36139822Y-46306931D01*
X36080351Y-46413709D01*
X35995115Y-46512965D01*
X35893353Y-46594116D01*
X35781077Y-46651724D01*
X35656155Y-46686919D01*
X35515666Y-46699078D01*
X35381491Y-46688433D01*
X35263329Y-46657824D01*
X35158424Y-46608225D01*
X35064672Y-46539221D01*
X34985095Y-46453718D01*
X34924382Y-46356772D01*
X34881589Y-46246640D01*
X34857065Y-46120833D01*
G37*
G36*
X37722645Y-46300474D02*
G01*
X37722645Y-46660000D01*
X36376989Y-46660000D01*
X36401116Y-46528546D01*
X36444562Y-46401578D01*
X36508147Y-46277882D01*
X36590127Y-46162389D01*
X36727936Y-46006204D01*
X36939846Y-45798921D01*
X37171511Y-45573323D01*
X37258095Y-45471880D01*
X37303471Y-45390116D01*
X37329100Y-45312532D01*
X37337351Y-45237529D01*
X37328838Y-45154855D01*
X37305387Y-45090639D01*
X37268353Y-45040669D01*
X37218377Y-45003409D01*
X37156021Y-44980138D01*
X37077721Y-44971793D01*
X37000633Y-44980416D01*
X36937961Y-45004733D01*
X36886479Y-45044211D01*
X36848727Y-45097202D01*
X36820494Y-45174571D01*
X36804536Y-45284424D01*
X36422051Y-45246200D01*
X36451100Y-45087806D01*
X36497703Y-44962838D01*
X36559616Y-44865066D01*
X36636497Y-44789832D01*
X36729660Y-44730612D01*
X36834432Y-44687514D01*
X36952835Y-44660703D01*
X37087369Y-44651346D01*
X37235106Y-44662460D01*
X37359437Y-44693750D01*
X37464437Y-44743277D01*
X37553262Y-44810715D01*
X37627795Y-44895803D01*
X37680085Y-44988910D01*
X37711754Y-45091794D01*
X37722645Y-45206999D01*
X37710443Y-45339012D01*
X37674162Y-45463698D01*
X37614062Y-45584141D01*
X37520411Y-45718932D01*
X37434570Y-45814849D01*
X37269086Y-45973677D01*
X37038887Y-46194228D01*
X36960363Y-46300474D01*
X37722645Y-46300474D01*
G37*
G36*
X38772101Y-44665184D02*
G01*
X38892557Y-44704657D01*
X38996053Y-44768772D01*
X39085397Y-44859319D01*
X39148302Y-44956360D01*
X39201405Y-45080484D01*
X39243076Y-45237299D01*
X39270693Y-45433341D01*
X39280792Y-45675945D01*
X39270673Y-45917559D01*
X39242958Y-46113427D01*
X39201062Y-46270685D01*
X39147561Y-46395694D01*
X39084054Y-46493914D01*
X38995523Y-46583058D01*
X38892559Y-46646329D01*
X38772295Y-46685369D01*
X38630373Y-46699078D01*
X38489143Y-46684561D01*
X38365823Y-46642591D01*
X38256576Y-46573352D01*
X38158984Y-46474131D01*
X38102688Y-46386201D01*
X38054290Y-46269287D01*
X38015660Y-46116637D01*
X37989682Y-45920407D01*
X37980236Y-45675945D01*
X38381734Y-45675945D01*
X38392830Y-46000532D01*
X38417271Y-46159668D01*
X38446499Y-46245995D01*
X38476595Y-46301661D01*
X38506786Y-46335034D01*
X38564647Y-46367724D01*
X38630373Y-46378632D01*
X38696252Y-46367573D01*
X38754693Y-46334302D01*
X38800288Y-46277826D01*
X38839567Y-46175300D01*
X38867058Y-46002398D01*
X38879134Y-45675945D01*
X38868035Y-45351265D01*
X38843597Y-45192222D01*
X38799389Y-45074575D01*
X38754082Y-45016123D01*
X38696153Y-44982871D01*
X38630373Y-44971793D01*
X38564579Y-44982843D01*
X38506053Y-45016123D01*
X38460554Y-45072584D01*
X38421301Y-45175125D01*
X38393789Y-45349222D01*
X38381734Y-45675945D01*
X37980236Y-45675945D01*
X37980076Y-45671793D01*
X37990177Y-45431465D01*
X38017856Y-45236420D01*
X38059728Y-45079615D01*
X38113240Y-44954773D01*
X38176814Y-44856510D01*
X38265346Y-44767360D01*
X38368293Y-44704090D01*
X38488517Y-44665053D01*
X38630373Y-44651346D01*
X38772101Y-44665184D01*
G37*
G36*
X39434298Y-46660000D02*
G01*
X39957589Y-45911273D01*
X39456158Y-45206266D01*
X39924860Y-45206266D01*
X40181681Y-45605969D01*
X40452180Y-45206266D01*
X40903053Y-45206266D01*
X40411148Y-45894787D01*
X40948116Y-46660000D01*
X40476727Y-46660000D01*
X40181681Y-46209616D01*
X39883827Y-46660000D01*
X39434298Y-46660000D01*
G37*
G36*
X42388660Y-46300474D02*
G01*
X42388660Y-46660000D01*
X41043004Y-46660000D01*
X41067132Y-46528546D01*
X41110577Y-46401578D01*
X41174162Y-46277882D01*
X41256142Y-46162389D01*
X41393952Y-46006204D01*
X41605862Y-45798921D01*
X41837527Y-45573323D01*
X41924110Y-45471880D01*
X41969487Y-45390116D01*
X41995115Y-45312532D01*
X42003367Y-45237529D01*
X41994853Y-45154855D01*
X41971402Y-45090639D01*
X41934368Y-45040669D01*
X41884393Y-45003409D01*
X41822036Y-44980138D01*
X41743737Y-44971793D01*
X41666648Y-44980416D01*
X41603977Y-45004733D01*
X41552494Y-45044211D01*
X41514742Y-45097202D01*
X41486509Y-45174571D01*
X41470551Y-45284424D01*
X41088067Y-45246200D01*
X41117116Y-45087806D01*
X41163718Y-44962838D01*
X41225632Y-44865066D01*
X41302512Y-44789832D01*
X41395675Y-44730612D01*
X41500447Y-44687514D01*
X41618850Y-44660703D01*
X41753384Y-44651346D01*
X41901121Y-44662460D01*
X42025452Y-44693750D01*
X42130452Y-44743277D01*
X42219277Y-44810715D01*
X42293810Y-44895803D01*
X42346101Y-44988910D01*
X42377770Y-45091794D01*
X42388660Y-45206999D01*
X42376459Y-45339012D01*
X42340178Y-45463698D01*
X42280078Y-45584141D01*
X42186427Y-45718932D01*
X42100586Y-45814849D01*
X41935101Y-45973677D01*
X41704902Y-46194228D01*
X41626378Y-46300474D01*
X42388660Y-46300474D01*
G37*
G36*
X43771929Y-45917501D02*
G01*
X44020568Y-45917501D01*
X44020568Y-46253579D01*
X43771929Y-46253579D01*
X43771929Y-46660000D01*
X43400314Y-46660000D01*
X43400314Y-46253579D01*
X42580513Y-46253579D01*
X42580513Y-45918845D01*
X42581434Y-45917501D01*
X42939794Y-45917501D01*
X43400314Y-45917501D01*
X43400314Y-45245589D01*
X42939794Y-45917501D01*
X42581434Y-45917501D01*
X43449407Y-44651346D01*
X43771929Y-44651346D01*
X43771929Y-45917501D01*
G37*
G36*
X44993454Y-44665184D02*
G01*
X45113911Y-44704657D01*
X45217407Y-44768772D01*
X45306751Y-44859319D01*
X45369656Y-44956360D01*
X45422759Y-45080484D01*
X45464430Y-45237299D01*
X45492047Y-45433341D01*
X45502146Y-45675945D01*
X45492027Y-45917559D01*
X45464312Y-46113427D01*
X45422415Y-46270685D01*
X45368915Y-46395694D01*
X45305408Y-46493914D01*
X45216877Y-46583058D01*
X45113912Y-46646329D01*
X44993649Y-46685369D01*
X44851727Y-46699078D01*
X44710497Y-46684561D01*
X44587177Y-46642591D01*
X44477930Y-46573352D01*
X44380338Y-46474131D01*
X44324042Y-46386201D01*
X44275644Y-46269287D01*
X44237014Y-46116637D01*
X44211036Y-45920407D01*
X44201590Y-45675945D01*
X44603088Y-45675945D01*
X44614184Y-46000532D01*
X44638625Y-46159668D01*
X44667852Y-46245995D01*
X44697949Y-46301661D01*
X44728140Y-46335034D01*
X44786000Y-46367724D01*
X44851727Y-46378632D01*
X44917606Y-46367573D01*
X44976046Y-46334302D01*
X45021641Y-46277826D01*
X45060921Y-46175300D01*
X45088411Y-46002398D01*
X45100488Y-45675945D01*
X45089389Y-45351265D01*
X45064951Y-45192222D01*
X45020743Y-45074575D01*
X44975436Y-45016123D01*
X44917507Y-44982871D01*
X44851727Y-44971793D01*
X44785933Y-44982843D01*
X44727407Y-45016123D01*
X44681907Y-45072584D01*
X44642655Y-45175125D01*
X44615143Y-45349222D01*
X44603088Y-45675945D01*
X44201590Y-45675945D01*
X44201430Y-45671793D01*
X44211531Y-45431465D01*
X44239210Y-45236420D01*
X44281082Y-45079615D01*
X44334594Y-44954773D01*
X44398168Y-44856510D01*
X44486700Y-44767360D01*
X44589646Y-44704090D01*
X44709871Y-44665053D01*
X44851727Y-44651346D01*
X44993454Y-44665184D01*
G37*
D14*
%TO.P,J2,1,Pin_1*%
%TO.N,/5V*%
X8370000Y-40370000D03*
D15*
%TO.P,J2,2,Pin_2*%
X8370000Y-37030000D03*
%TO.P,J2,3,Pin_3*%
%TO.N,/3V3*%
X10910000Y-40370000D03*
%TO.P,J2,4,Pin_4*%
X10910000Y-37030000D03*
%TO.P,J2,5,Pin_5*%
%TO.N,/BUS_SDA*%
X13450000Y-40370000D03*
%TO.P,J2,6,Pin_6*%
%TO.N,/BUS_SCL*%
X13450000Y-37030000D03*
%TO.P,J2,7,Pin_7*%
%TO.N,/I2C_SDA*%
X15990000Y-40370000D03*
%TO.P,J2,8,Pin_8*%
%TO.N,/I2C_SCL*%
X15990000Y-37030000D03*
%TO.P,J2,9,Pin_9*%
%TO.N,/KEY_ALT*%
X18530000Y-40370000D03*
%TO.P,J2,10,Pin_10*%
%TO.N,/KEY_DOWN*%
X18530000Y-37030000D03*
%TO.P,J2,11,Pin_11*%
%TO.N,/KEY_UP*%
X21070000Y-40370000D03*
%TO.P,J2,12,Pin_12*%
%TO.N,/SPI_CS1*%
X21070000Y-37030000D03*
%TO.P,J2,13,Pin_13*%
%TO.N,/SPI_CS0*%
X23610000Y-40370000D03*
%TO.P,J2,14,Pin_14*%
%TO.N,/SPI_MISO*%
X23610000Y-37030000D03*
%TO.P,J2,15,Pin_15*%
%TO.N,/SPI_MOSI*%
X26150000Y-40370000D03*
%TO.P,J2,16,Pin_16*%
%TO.N,/SPI_SCLK*%
X26150000Y-37030000D03*
%TO.P,J2,17,Pin_17*%
%TO.N,/PWM_L*%
X28690000Y-40370000D03*
%TO.P,J2,18,Pin_18*%
%TO.N,/PWM_R*%
X28690000Y-37030000D03*
%TO.P,J2,19,Pin_19*%
%TO.N,/UART_TX*%
X31230000Y-40370000D03*
%TO.P,J2,20,Pin_20*%
%TO.N,/UART_RX*%
X31230000Y-37030000D03*
%TO.P,J2,21,Pin_21*%
%TO.N,/LCD_DC*%
X33770000Y-40370000D03*
%TO.P,J2,22,Pin_22*%
%TO.N,/LCD_RES*%
X33770000Y-37030000D03*
%TO.P,J2,23,Pin_23*%
%TO.N,/LCD_CS*%
X36310000Y-40370000D03*
%TO.P,J2,24,Pin_24*%
%TO.N,/LCD_BL*%
X36310000Y-37030000D03*
%TO.P,J2,25,Pin_25*%
%TO.N,/LCD_MOSI*%
X38850000Y-40370000D03*
%TO.P,J2,26,Pin_26*%
%TO.N,/LCD_SCK*%
X38850000Y-37030000D03*
%TO.P,J2,27,Pin_27*%
%TO.N,/KEY_A*%
X41390000Y-40370000D03*
%TO.P,J2,28,Pin_28*%
%TO.N,/KEY_B*%
X41390000Y-37030000D03*
%TO.P,J2,29,Pin_29*%
%TO.N,/KEY_X*%
X43930000Y-40370000D03*
%TO.P,J2,30,Pin_30*%
%TO.N,/KEY_RIGHT*%
X43930000Y-37030000D03*
%TO.P,J2,31,Pin_31*%
%TO.N,/KEY_LEFT*%
X46470000Y-40370000D03*
%TO.P,J2,32,Pin_32*%
%TO.N,/KEY_Y*%
X46470000Y-37030000D03*
%TO.P,J2,33,Pin_33*%
%TO.N,/SD_CS*%
X49010000Y-40370000D03*
%TO.P,J2,34,Pin_34*%
%TO.N,/SD_MISO*%
X49010000Y-37030000D03*
%TO.P,J2,35,Pin_35*%
%TO.N,/SD_MOSI*%
X51550000Y-40370000D03*
%TO.P,J2,36,Pin_36*%
%TO.N,/SD_SCLK*%
X51550000Y-37030000D03*
%TO.P,J2,37,Pin_37*%
%TO.N,/USR_LED*%
X54090000Y-40370000D03*
%TO.P,J2,38,Pin_38*%
%TO.N,/RESET*%
X54090000Y-37030000D03*
%TO.P,J2,39,Pin_39*%
%TO.N,/GND*%
X56630000Y-40370000D03*
%TO.P,J2,40,Pin_40*%
X56630000Y-37030000D03*
%TD*%
D16*
%TO.P,J3,1,Pin_1*%
%TO.N,/GND*%
X6125000Y-15610000D03*
D17*
%TO.P,J3,2,Pin_2*%
%TO.N,/3V3*%
X6125000Y-18150000D03*
%TO.P,J3,3,Pin_3*%
%TO.N,/LCD_DC*%
X6125000Y-20690000D03*
%TO.P,J3,4,Pin_4*%
%TO.N,/LCD_CS*%
X6125000Y-23230000D03*
%TO.P,J3,5,Pin_5*%
%TO.N,/LCD_SCK*%
X6125000Y-25770000D03*
%TO.P,J3,6,Pin_6*%
%TO.N,/LCD_MOSI*%
X6125000Y-28310000D03*
%TO.P,J3,7,Pin_7*%
%TO.N,/LCD_RES*%
X6125000Y-30850000D03*
%TO.P,J3,8,Pin_8*%
%TO.N,/LCD_BL2*%
X6125000Y-33390000D03*
%TD*%
D16*
%TO.P,J4,1,Pin_1*%
%TO.N,/3V3*%
X54500000Y-17500000D03*
D17*
%TO.P,J4,2,Pin_2*%
%TO.N,/GND*%
X54500000Y-20040000D03*
%TO.P,J4,3,Pin_3*%
%TO.N,/SWIO*%
X54500000Y-22580000D03*
%TD*%
D14*
%TO.P,J1,1,Pin_1*%
%TO.N,/5V*%
X8370000Y-3830000D03*
D15*
%TO.P,J1,2,Pin_2*%
X8370000Y-7170000D03*
%TO.P,J1,3,Pin_3*%
%TO.N,/3V3*%
X10910000Y-3830000D03*
%TO.P,J1,4,Pin_4*%
X10910000Y-7170000D03*
%TO.P,J1,5,Pin_5*%
%TO.N,/BUS_SDA*%
X13450000Y-3830000D03*
%TO.P,J1,6,Pin_6*%
%TO.N,/BUS_SCL*%
X13450000Y-7170000D03*
%TO.P,J1,7,Pin_7*%
%TO.N,/I2C_SDA*%
X15990000Y-3830000D03*
%TO.P,J1,8,Pin_8*%
%TO.N,/I2C_SCL*%
X15990000Y-7170000D03*
%TO.P,J1,9,Pin_9*%
%TO.N,/KEY_ALT*%
X18530000Y-3830000D03*
%TO.P,J1,10,Pin_10*%
%TO.N,/KEY_DOWN*%
X18530000Y-7170000D03*
%TO.P,J1,11,Pin_11*%
%TO.N,/KEY_UP*%
X21070000Y-3830000D03*
%TO.P,J1,12,Pin_12*%
%TO.N,/SPI_CS1*%
X21070000Y-7170000D03*
%TO.P,J1,13,Pin_13*%
%TO.N,/SPI_CS0*%
X23610000Y-3830000D03*
%TO.P,J1,14,Pin_14*%
%TO.N,/SPI_MISO*%
X23610000Y-7170000D03*
%TO.P,J1,15,Pin_15*%
%TO.N,/SPI_MOSI*%
X26150000Y-3830000D03*
%TO.P,J1,16,Pin_16*%
%TO.N,/SPI_SCLK*%
X26150000Y-7170000D03*
%TO.P,J1,17,Pin_17*%
%TO.N,/PWM_L*%
X28690000Y-3830000D03*
%TO.P,J1,18,Pin_18*%
%TO.N,/PWM_R*%
X28690000Y-7170000D03*
%TO.P,J1,19,Pin_19*%
%TO.N,/UART_TX*%
X31230000Y-3830000D03*
%TO.P,J1,20,Pin_20*%
%TO.N,/UART_RX*%
X31230000Y-7170000D03*
%TO.P,J1,21,Pin_21*%
%TO.N,/LCD_DC*%
X33770000Y-3830000D03*
%TO.P,J1,22,Pin_22*%
%TO.N,/LCD_RES*%
X33770000Y-7170000D03*
%TO.P,J1,23,Pin_23*%
%TO.N,/LCD_CS*%
X36310000Y-3830000D03*
%TO.P,J1,24,Pin_24*%
%TO.N,/LCD_BL*%
X36310000Y-7170000D03*
%TO.P,J1,25,Pin_25*%
%TO.N,/LCD_MOSI*%
X38850000Y-3830000D03*
%TO.P,J1,26,Pin_26*%
%TO.N,/LCD_SCK*%
X38850000Y-7170000D03*
%TO.P,J1,27,Pin_27*%
%TO.N,/KEY_A*%
X41390000Y-3830000D03*
%TO.P,J1,28,Pin_28*%
%TO.N,/KEY_B*%
X41390000Y-7170000D03*
%TO.P,J1,29,Pin_29*%
%TO.N,/KEY_X*%
X43930000Y-3830000D03*
%TO.P,J1,30,Pin_30*%
%TO.N,/KEY_RIGHT*%
X43930000Y-7170000D03*
%TO.P,J1,31,Pin_31*%
%TO.N,/KEY_LEFT*%
X46470000Y-3830000D03*
%TO.P,J1,32,Pin_32*%
%TO.N,/KEY_Y*%
X46470000Y-7170000D03*
%TO.P,J1,33,Pin_33*%
%TO.N,/SD_CS*%
X49010000Y-3830000D03*
%TO.P,J1,34,Pin_34*%
%TO.N,/SD_MISO*%
X49010000Y-7170000D03*
%TO.P,J1,35,Pin_35*%
%TO.N,/SD_MOSI*%
X51550000Y-3830000D03*
%TO.P,J1,36,Pin_36*%
%TO.N,/SD_SCLK*%
X51550000Y-7170000D03*
%TO.P,J1,37,Pin_37*%
%TO.N,/USR_LED*%
X54090000Y-3830000D03*
%TO.P,J1,38,Pin_38*%
%TO.N,/RESET*%
X54090000Y-7170000D03*
%TO.P,J1,39,Pin_39*%
%TO.N,/GND*%
X56630000Y-3830000D03*
%TO.P,J1,40,Pin_40*%
X56630000Y-7170000D03*
%TD*%
D18*
%TO.N,/LCD_BL*%
X36301000Y-31310000D03*
X14850414Y-30603607D03*
%TO.N,/LCD_DC*%
X12850000Y-20500000D03*
X35036000Y-20230000D03*
%TO.N,/3V3*%
X52880000Y-25350000D03*
X11970000Y-17960000D03*
X15971000Y-22130000D03*
%TO.N,/BUS_SDA*%
X19394412Y-28274999D03*
X55283995Y-27483424D03*
%TO.N,/LCD_RES*%
X33770000Y-33260000D03*
X9930000Y-30770000D03*
%TO.N,/LCD_MOSI*%
X13767925Y-26363648D03*
X40116000Y-26510000D03*
%TO.N,/BUS_SCL*%
X55883700Y-29286300D03*
X18786520Y-30075132D03*
%TO.N,/LCD_CS*%
X37576000Y-23580000D03*
X12639036Y-23436909D03*
%TO.N,/LCD_SCK*%
X38801685Y-25137926D03*
X12129149Y-25267217D03*
%TO.N,/LCD_BL3*%
X55057730Y-25596943D03*
X15030000Y-28060000D03*
%TD*%
D19*
%TO.N,/LCD_BL*%
X19564614Y-31135516D02*
X19324998Y-31375132D01*
X15621939Y-31375132D02*
X14850414Y-30603607D01*
X36126516Y-31135516D02*
X19564614Y-31135516D01*
X19324998Y-31375132D02*
X15621939Y-31375132D01*
X36301000Y-31310000D02*
X36126516Y-31135516D01*
%TO.N,/LCD_DC*%
X12860000Y-20510000D02*
X12850000Y-20500000D01*
X34756000Y-20510000D02*
X12860000Y-20510000D01*
X35036000Y-20230000D02*
X34756000Y-20510000D01*
D20*
%TO.N,/3V3*%
X12270101Y-21900000D02*
X11450000Y-21079899D01*
X11450000Y-19920101D02*
X11540000Y-19830101D01*
X15741000Y-21900000D02*
X12270101Y-21900000D01*
X15971000Y-22130000D02*
X49660000Y-22130000D01*
X11450000Y-21079899D02*
X11450000Y-19920101D01*
X11540000Y-18390000D02*
X11970000Y-17960000D01*
X49660000Y-22130000D02*
X52880000Y-25350000D01*
X15971000Y-22130000D02*
X15741000Y-21900000D01*
X11540000Y-19830101D02*
X11540000Y-18390000D01*
D19*
%TO.N,/BUS_SDA*%
X19629413Y-28510000D02*
X19394412Y-28274999D01*
X55283995Y-27483424D02*
X54257419Y-28510000D01*
X54257419Y-28510000D02*
X19629413Y-28510000D01*
%TO.N,/LCD_RES*%
X33770000Y-33260000D02*
X33720000Y-33310000D01*
X12470000Y-33310000D02*
X9930000Y-30770000D01*
X33720000Y-33310000D02*
X12470000Y-33310000D01*
%TO.N,/LCD_MOSI*%
X39936000Y-26710000D02*
X20659255Y-26710000D01*
X20223546Y-26274292D02*
X13857281Y-26274292D01*
X13857281Y-26274292D02*
X13767925Y-26363648D01*
X20659255Y-26710000D02*
X20223546Y-26274292D01*
X40116000Y-26530000D02*
X39936000Y-26710000D01*
X40116000Y-26510000D02*
X40116000Y-26530000D01*
%TO.N,/BUS_SCL*%
X55160000Y-30010000D02*
X18851652Y-30010000D01*
X55883700Y-29286300D02*
X55160000Y-30010000D01*
X18851652Y-30010000D02*
X18786520Y-30075132D01*
%TO.N,/LCD_CS*%
X12672127Y-23470000D02*
X12639036Y-23436909D01*
X37576000Y-23580000D02*
X37466000Y-23470000D01*
X37466000Y-23470000D02*
X12672127Y-23470000D01*
%TO.N,/LCD_SCK*%
X14379792Y-25063648D02*
X12332718Y-25063648D01*
X14726144Y-25410000D02*
X14379792Y-25063648D01*
X38529611Y-25410000D02*
X14726144Y-25410000D01*
X12332718Y-25063648D02*
X12129149Y-25267217D01*
X38801685Y-25137926D02*
X38529611Y-25410000D01*
%TO.N,/LCD_BL3*%
X55057730Y-25596943D02*
X52844673Y-27810000D01*
X16586590Y-26974292D02*
X15500882Y-28060000D01*
X52844673Y-27810000D02*
X20769305Y-27810000D01*
X19933597Y-26974292D02*
X16586590Y-26974292D01*
X15500882Y-28060000D02*
X15030000Y-28060000D01*
X20769305Y-27810000D02*
X19933597Y-26974292D01*
%TD*%
%TA.AperFunction,Conductor*%
%TO.N,/GND*%
G36*
X64542539Y-420185D02*
G01*
X64588294Y-472989D01*
X64599500Y-524500D01*
X64599500Y-48475500D01*
X64579815Y-48542539D01*
X64527011Y-48588294D01*
X64475500Y-48599500D01*
X524500Y-48599500D01*
X457461Y-48579815D01*
X411706Y-48527011D01*
X400500Y-48475500D01*
X400500Y-45385921D01*
X1759500Y-45385921D01*
X1759500Y-45614078D01*
X1789278Y-45840272D01*
X1789279Y-45840277D01*
X1789280Y-45840283D01*
X1789281Y-45840285D01*
X1848331Y-46060666D01*
X1935638Y-46271446D01*
X1935646Y-46271462D01*
X2049717Y-46469037D01*
X2049728Y-46469053D01*
X2188613Y-46650052D01*
X2188619Y-46650059D01*
X2349940Y-46811380D01*
X2349946Y-46811385D01*
X2530955Y-46950278D01*
X2530962Y-46950282D01*
X2728537Y-47064353D01*
X2728553Y-47064361D01*
X2842268Y-47111463D01*
X2939334Y-47151669D01*
X3159717Y-47210720D01*
X3319474Y-47231752D01*
X3385921Y-47240500D01*
X3385922Y-47240500D01*
X3614079Y-47240500D01*
X3665438Y-47233738D01*
X3840283Y-47210720D01*
X3863258Y-47204564D01*
X19060131Y-47204564D01*
X46007642Y-47204564D01*
X46007642Y-45385921D01*
X59759500Y-45385921D01*
X59759500Y-45614078D01*
X59789278Y-45840272D01*
X59789279Y-45840277D01*
X59789280Y-45840283D01*
X59789281Y-45840285D01*
X59848331Y-46060666D01*
X59935638Y-46271446D01*
X59935646Y-46271462D01*
X60049717Y-46469037D01*
X60049728Y-46469053D01*
X60188613Y-46650052D01*
X60188619Y-46650059D01*
X60349940Y-46811380D01*
X60349946Y-46811385D01*
X60530955Y-46950278D01*
X60530962Y-46950282D01*
X60728537Y-47064353D01*
X60728553Y-47064361D01*
X60842268Y-47111463D01*
X60939334Y-47151669D01*
X61159717Y-47210720D01*
X61319474Y-47231752D01*
X61385921Y-47240500D01*
X61385922Y-47240500D01*
X61614079Y-47240500D01*
X61665438Y-47233738D01*
X61840283Y-47210720D01*
X62060666Y-47151669D01*
X62226365Y-47083033D01*
X62271446Y-47064361D01*
X62271449Y-47064359D01*
X62271455Y-47064357D01*
X62469045Y-46950278D01*
X62650054Y-46811385D01*
X62811385Y-46650054D01*
X62950278Y-46469045D01*
X63064357Y-46271455D01*
X63151669Y-46060666D01*
X63210720Y-45840283D01*
X63240500Y-45614078D01*
X63240500Y-45385922D01*
X63210720Y-45159717D01*
X63151669Y-44939334D01*
X63111463Y-44842268D01*
X63064361Y-44728553D01*
X63064353Y-44728537D01*
X62950282Y-44530962D01*
X62950278Y-44530955D01*
X62811385Y-44349946D01*
X62811380Y-44349940D01*
X62650059Y-44188619D01*
X62650052Y-44188613D01*
X62469053Y-44049728D01*
X62469051Y-44049726D01*
X62469045Y-44049722D01*
X62469040Y-44049719D01*
X62469037Y-44049717D01*
X62271462Y-43935646D01*
X62271446Y-43935638D01*
X62060666Y-43848331D01*
X61840283Y-43789280D01*
X61840277Y-43789279D01*
X61840272Y-43789278D01*
X61614079Y-43759500D01*
X61614078Y-43759500D01*
X61385922Y-43759500D01*
X61385921Y-43759500D01*
X61159727Y-43789278D01*
X61159720Y-43789279D01*
X61159717Y-43789280D01*
X61066567Y-43814239D01*
X60939333Y-43848331D01*
X60728553Y-43935638D01*
X60728537Y-43935646D01*
X60530962Y-44049717D01*
X60530946Y-44049728D01*
X60349947Y-44188613D01*
X60349940Y-44188619D01*
X60188619Y-44349940D01*
X60188613Y-44349947D01*
X60049728Y-44530946D01*
X60049717Y-44530962D01*
X59935646Y-44728537D01*
X59935638Y-44728553D01*
X59848331Y-44939333D01*
X59789281Y-45159714D01*
X59789278Y-45159727D01*
X59759500Y-45385921D01*
X46007642Y-45385921D01*
X46007642Y-44114596D01*
X19060131Y-44114596D01*
X19060131Y-47204564D01*
X3863258Y-47204564D01*
X4060666Y-47151669D01*
X4226365Y-47083033D01*
X4271446Y-47064361D01*
X4271449Y-47064359D01*
X4271455Y-47064357D01*
X4469045Y-46950278D01*
X4650054Y-46811385D01*
X4811385Y-46650054D01*
X4950278Y-46469045D01*
X5064357Y-46271455D01*
X5151669Y-46060666D01*
X5210720Y-45840283D01*
X5240500Y-45614078D01*
X5240500Y-45385922D01*
X5210720Y-45159717D01*
X5151669Y-44939334D01*
X5111463Y-44842268D01*
X5064361Y-44728553D01*
X5064353Y-44728537D01*
X4950282Y-44530962D01*
X4950278Y-44530955D01*
X4811385Y-44349946D01*
X4811380Y-44349940D01*
X4650059Y-44188619D01*
X4650052Y-44188613D01*
X4614861Y-44161610D01*
X4469053Y-44049728D01*
X4469051Y-44049726D01*
X4469045Y-44049722D01*
X4469040Y-44049719D01*
X4469037Y-44049717D01*
X4271462Y-43935646D01*
X4271446Y-43935638D01*
X4060666Y-43848331D01*
X3840283Y-43789280D01*
X3840277Y-43789279D01*
X3840272Y-43789278D01*
X3614079Y-43759500D01*
X3614078Y-43759500D01*
X3385922Y-43759500D01*
X3385921Y-43759500D01*
X3159727Y-43789278D01*
X3159720Y-43789279D01*
X3159717Y-43789280D01*
X3066567Y-43814239D01*
X2939333Y-43848331D01*
X2728553Y-43935638D01*
X2728537Y-43935646D01*
X2530962Y-44049717D01*
X2530946Y-44049728D01*
X2349947Y-44188613D01*
X2349940Y-44188619D01*
X2188619Y-44349940D01*
X2188613Y-44349947D01*
X2049728Y-44530946D01*
X2049717Y-44530962D01*
X1935646Y-44728537D01*
X1935638Y-44728553D01*
X1848331Y-44939333D01*
X1789281Y-45159714D01*
X1789278Y-45159727D01*
X1759500Y-45385921D01*
X400500Y-45385921D01*
X400500Y-36731637D01*
X1316370Y-36731637D01*
X3886598Y-36731637D01*
X3886598Y-36243389D01*
X7269500Y-36243389D01*
X7269500Y-37816610D01*
X7295934Y-37983512D01*
X7296598Y-37987701D01*
X7350127Y-38152445D01*
X7428768Y-38306788D01*
X7501897Y-38407442D01*
X7525377Y-38473246D01*
X7509552Y-38541300D01*
X7459446Y-38589995D01*
X7451666Y-38593760D01*
X7397234Y-38617794D01*
X7317794Y-38697234D01*
X7272415Y-38800006D01*
X7272415Y-38800008D01*
X7269500Y-38825131D01*
X7269500Y-41914856D01*
X7269502Y-41914882D01*
X7272413Y-41939987D01*
X7272415Y-41939991D01*
X7317793Y-42042764D01*
X7317794Y-42042765D01*
X7397235Y-42122206D01*
X7500009Y-42167585D01*
X7525135Y-42170500D01*
X9214864Y-42170499D01*
X9214879Y-42170497D01*
X9214882Y-42170497D01*
X9239987Y-42167586D01*
X9239988Y-42167585D01*
X9239991Y-42167585D01*
X9342765Y-42122206D01*
X9422206Y-42042765D01*
X9467585Y-41939991D01*
X9470500Y-41914865D01*
X9470499Y-38825136D01*
X9470264Y-38823110D01*
X9467586Y-38800012D01*
X9467585Y-38800010D01*
X9467585Y-38800009D01*
X9422206Y-38697235D01*
X9342765Y-38617794D01*
X9288333Y-38593760D01*
X9234957Y-38548674D01*
X9214430Y-38481888D01*
X9233268Y-38414606D01*
X9238083Y-38407468D01*
X9311232Y-38306788D01*
X9389873Y-38152445D01*
X9443402Y-37987701D01*
X9470500Y-37816611D01*
X9470500Y-36243389D01*
X9809500Y-36243389D01*
X9809500Y-37816610D01*
X9835934Y-37983512D01*
X9836598Y-37987701D01*
X9890127Y-38152445D01*
X9968768Y-38306788D01*
X10070586Y-38446928D01*
X10070588Y-38446930D01*
X10193072Y-38569414D01*
X10234733Y-38599683D01*
X10277398Y-38655013D01*
X10283376Y-38724627D01*
X10250769Y-38786421D01*
X10234733Y-38800317D01*
X10193072Y-38830585D01*
X10070588Y-38953069D01*
X10070588Y-38953070D01*
X10070586Y-38953072D01*
X10026859Y-39013256D01*
X9968768Y-39093211D01*
X9890128Y-39247552D01*
X9836597Y-39412302D01*
X9827459Y-39470000D01*
X9809500Y-39583389D01*
X9809500Y-41156611D01*
X9836598Y-41327701D01*
X9890127Y-41492445D01*
X9968768Y-41646788D01*
X10070586Y-41786928D01*
X10193072Y-41909414D01*
X10333212Y-42011232D01*
X10487555Y-42089873D01*
X10652299Y-42143402D01*
X10823389Y-42170500D01*
X10823390Y-42170500D01*
X10996610Y-42170500D01*
X10996611Y-42170500D01*
X11167701Y-42143402D01*
X11332445Y-42089873D01*
X11486788Y-42011232D01*
X11626928Y-41909414D01*
X11749414Y-41786928D01*
X11851232Y-41646788D01*
X11929873Y-41492445D01*
X11983402Y-41327701D01*
X12010500Y-41156611D01*
X12010500Y-39583389D01*
X11983402Y-39412299D01*
X11929873Y-39247555D01*
X11851232Y-39093212D01*
X11749414Y-38953072D01*
X11626928Y-38830586D01*
X11585265Y-38800316D01*
X11542602Y-38744988D01*
X11536623Y-38675374D01*
X11569229Y-38613579D01*
X11585266Y-38599683D01*
X11626928Y-38569414D01*
X11749414Y-38446928D01*
X11851232Y-38306788D01*
X11929873Y-38152445D01*
X11983402Y-37987701D01*
X12010500Y-37816611D01*
X12010500Y-36243389D01*
X12349500Y-36243389D01*
X12349500Y-37816610D01*
X12375934Y-37983512D01*
X12376598Y-37987701D01*
X12430127Y-38152445D01*
X12508768Y-38306788D01*
X12610586Y-38446928D01*
X12610588Y-38446930D01*
X12733072Y-38569414D01*
X12774733Y-38599683D01*
X12817398Y-38655013D01*
X12823376Y-38724627D01*
X12790769Y-38786421D01*
X12774733Y-38800317D01*
X12733072Y-38830585D01*
X12610588Y-38953069D01*
X12610588Y-38953070D01*
X12610586Y-38953072D01*
X12566859Y-39013256D01*
X12508768Y-39093211D01*
X12430128Y-39247552D01*
X12376597Y-39412302D01*
X12367459Y-39470000D01*
X12349500Y-39583389D01*
X12349500Y-41156611D01*
X12376598Y-41327701D01*
X12430127Y-41492445D01*
X12508768Y-41646788D01*
X12610586Y-41786928D01*
X12733072Y-41909414D01*
X12873212Y-42011232D01*
X13027555Y-42089873D01*
X13192299Y-42143402D01*
X13363389Y-42170500D01*
X13363390Y-42170500D01*
X13536610Y-42170500D01*
X13536611Y-42170500D01*
X13707701Y-42143402D01*
X13872445Y-42089873D01*
X14026788Y-42011232D01*
X14166928Y-41909414D01*
X14289414Y-41786928D01*
X14391232Y-41646788D01*
X14469873Y-41492445D01*
X14523402Y-41327701D01*
X14550500Y-41156611D01*
X14550500Y-39583389D01*
X14523402Y-39412299D01*
X14469873Y-39247555D01*
X14391232Y-39093212D01*
X14289414Y-38953072D01*
X14166928Y-38830586D01*
X14125265Y-38800316D01*
X14082602Y-38744988D01*
X14076623Y-38675374D01*
X14109229Y-38613579D01*
X14125266Y-38599683D01*
X14166928Y-38569414D01*
X14289414Y-38446928D01*
X14391232Y-38306788D01*
X14469873Y-38152445D01*
X14523402Y-37987701D01*
X14550500Y-37816611D01*
X14550500Y-36243389D01*
X14889500Y-36243389D01*
X14889500Y-37816610D01*
X14915934Y-37983512D01*
X14916598Y-37987701D01*
X14970127Y-38152445D01*
X15048768Y-38306788D01*
X15150586Y-38446928D01*
X15150588Y-38446930D01*
X15273072Y-38569414D01*
X15314733Y-38599683D01*
X15357398Y-38655013D01*
X15363376Y-38724627D01*
X15330769Y-38786421D01*
X15314733Y-38800317D01*
X15273072Y-38830585D01*
X15150588Y-38953069D01*
X15150588Y-38953070D01*
X15150586Y-38953072D01*
X15106859Y-39013256D01*
X15048768Y-39093211D01*
X14970128Y-39247552D01*
X14916597Y-39412302D01*
X14907459Y-39470000D01*
X14889500Y-39583389D01*
X14889500Y-41156611D01*
X14916598Y-41327701D01*
X14970127Y-41492445D01*
X15048768Y-41646788D01*
X15150586Y-41786928D01*
X15273072Y-41909414D01*
X15413212Y-42011232D01*
X15567555Y-42089873D01*
X15732299Y-42143402D01*
X15903389Y-42170500D01*
X15903390Y-42170500D01*
X16076610Y-42170500D01*
X16076611Y-42170500D01*
X16247701Y-42143402D01*
X16412445Y-42089873D01*
X16566788Y-42011232D01*
X16706928Y-41909414D01*
X16829414Y-41786928D01*
X16931232Y-41646788D01*
X17009873Y-41492445D01*
X17063402Y-41327701D01*
X17090500Y-41156611D01*
X17090500Y-39583389D01*
X17063402Y-39412299D01*
X17009873Y-39247555D01*
X16931232Y-39093212D01*
X16829414Y-38953072D01*
X16706928Y-38830586D01*
X16665265Y-38800316D01*
X16622602Y-38744988D01*
X16616623Y-38675374D01*
X16649229Y-38613579D01*
X16665266Y-38599683D01*
X16706928Y-38569414D01*
X16829414Y-38446928D01*
X16931232Y-38306788D01*
X17009873Y-38152445D01*
X17063402Y-37987701D01*
X17090500Y-37816611D01*
X17090500Y-36243389D01*
X17429500Y-36243389D01*
X17429500Y-37816610D01*
X17455934Y-37983512D01*
X17456598Y-37987701D01*
X17510127Y-38152445D01*
X17588768Y-38306788D01*
X17690586Y-38446928D01*
X17690588Y-38446930D01*
X17813072Y-38569414D01*
X17854733Y-38599683D01*
X17897398Y-38655013D01*
X17903376Y-38724627D01*
X17870769Y-38786421D01*
X17854733Y-38800317D01*
X17813072Y-38830585D01*
X17690588Y-38953069D01*
X17690588Y-38953070D01*
X17690586Y-38953072D01*
X17646859Y-39013256D01*
X17588768Y-39093211D01*
X17510128Y-39247552D01*
X17456597Y-39412302D01*
X17447459Y-39470000D01*
X17429500Y-39583389D01*
X17429500Y-41156611D01*
X17456598Y-41327701D01*
X17510127Y-41492445D01*
X17588768Y-41646788D01*
X17690586Y-41786928D01*
X17813072Y-41909414D01*
X17953212Y-42011232D01*
X18107555Y-42089873D01*
X18272299Y-42143402D01*
X18443389Y-42170500D01*
X18443390Y-42170500D01*
X18616610Y-42170500D01*
X18616611Y-42170500D01*
X18787701Y-42143402D01*
X18952445Y-42089873D01*
X19106788Y-42011232D01*
X19246928Y-41909414D01*
X19369414Y-41786928D01*
X19471232Y-41646788D01*
X19549873Y-41492445D01*
X19603402Y-41327701D01*
X19630500Y-41156611D01*
X19630500Y-39583389D01*
X19603402Y-39412299D01*
X19549873Y-39247555D01*
X19471232Y-39093212D01*
X19369414Y-38953072D01*
X19246928Y-38830586D01*
X19205265Y-38800316D01*
X19162602Y-38744988D01*
X19156623Y-38675374D01*
X19189229Y-38613579D01*
X19205266Y-38599683D01*
X19246928Y-38569414D01*
X19369414Y-38446928D01*
X19471232Y-38306788D01*
X19549873Y-38152445D01*
X19603402Y-37987701D01*
X19630500Y-37816611D01*
X19630500Y-36243389D01*
X19969500Y-36243389D01*
X19969500Y-37816610D01*
X19995934Y-37983512D01*
X19996598Y-37987701D01*
X20050127Y-38152445D01*
X20128768Y-38306788D01*
X20230586Y-38446928D01*
X20230588Y-38446930D01*
X20353072Y-38569414D01*
X20394733Y-38599683D01*
X20437398Y-38655013D01*
X20443376Y-38724627D01*
X20410769Y-38786421D01*
X20394733Y-38800317D01*
X20353072Y-38830585D01*
X20230588Y-38953069D01*
X20230588Y-38953070D01*
X20230586Y-38953072D01*
X20186859Y-39013256D01*
X20128768Y-39093211D01*
X20050128Y-39247552D01*
X19996597Y-39412302D01*
X19987459Y-39470000D01*
X19969500Y-39583389D01*
X19969500Y-41156611D01*
X19996598Y-41327701D01*
X20050127Y-41492445D01*
X20128768Y-41646788D01*
X20230586Y-41786928D01*
X20353072Y-41909414D01*
X20493212Y-42011232D01*
X20647555Y-42089873D01*
X20812299Y-42143402D01*
X20983389Y-42170500D01*
X20983390Y-42170500D01*
X21156610Y-42170500D01*
X21156611Y-42170500D01*
X21327701Y-42143402D01*
X21492445Y-42089873D01*
X21646788Y-42011232D01*
X21786928Y-41909414D01*
X21909414Y-41786928D01*
X22011232Y-41646788D01*
X22089873Y-41492445D01*
X22143402Y-41327701D01*
X22170500Y-41156611D01*
X22170500Y-39583389D01*
X22143402Y-39412299D01*
X22089873Y-39247555D01*
X22011232Y-39093212D01*
X21909414Y-38953072D01*
X21786928Y-38830586D01*
X21745265Y-38800316D01*
X21702602Y-38744988D01*
X21696623Y-38675374D01*
X21729229Y-38613579D01*
X21745266Y-38599683D01*
X21786928Y-38569414D01*
X21909414Y-38446928D01*
X22011232Y-38306788D01*
X22089873Y-38152445D01*
X22143402Y-37987701D01*
X22170500Y-37816611D01*
X22170500Y-36243389D01*
X22509500Y-36243389D01*
X22509500Y-37816610D01*
X22535934Y-37983512D01*
X22536598Y-37987701D01*
X22590127Y-38152445D01*
X22668768Y-38306788D01*
X22770586Y-38446928D01*
X22770588Y-38446930D01*
X22893072Y-38569414D01*
X22934733Y-38599683D01*
X22977398Y-38655013D01*
X22983376Y-38724627D01*
X22950769Y-38786421D01*
X22934733Y-38800317D01*
X22893072Y-38830585D01*
X22770588Y-38953069D01*
X22770588Y-38953070D01*
X22770586Y-38953072D01*
X22726859Y-39013256D01*
X22668768Y-39093211D01*
X22590128Y-39247552D01*
X22536597Y-39412302D01*
X22527459Y-39470000D01*
X22509500Y-39583389D01*
X22509500Y-41156611D01*
X22536598Y-41327701D01*
X22590127Y-41492445D01*
X22668768Y-41646788D01*
X22770586Y-41786928D01*
X22893072Y-41909414D01*
X23033212Y-42011232D01*
X23187555Y-42089873D01*
X23352299Y-42143402D01*
X23523389Y-42170500D01*
X23523390Y-42170500D01*
X23696610Y-42170500D01*
X23696611Y-42170500D01*
X23867701Y-42143402D01*
X24032445Y-42089873D01*
X24186788Y-42011232D01*
X24326928Y-41909414D01*
X24449414Y-41786928D01*
X24551232Y-41646788D01*
X24629873Y-41492445D01*
X24683402Y-41327701D01*
X24710500Y-41156611D01*
X24710500Y-39583389D01*
X24683402Y-39412299D01*
X24629873Y-39247555D01*
X24551232Y-39093212D01*
X24449414Y-38953072D01*
X24326928Y-38830586D01*
X24285265Y-38800316D01*
X24242602Y-38744988D01*
X24236623Y-38675374D01*
X24269229Y-38613579D01*
X24285266Y-38599683D01*
X24326928Y-38569414D01*
X24449414Y-38446928D01*
X24551232Y-38306788D01*
X24629873Y-38152445D01*
X24683402Y-37987701D01*
X24710500Y-37816611D01*
X24710500Y-36243389D01*
X25049500Y-36243389D01*
X25049500Y-37816610D01*
X25075934Y-37983512D01*
X25076598Y-37987701D01*
X25130127Y-38152445D01*
X25208768Y-38306788D01*
X25310586Y-38446928D01*
X25310588Y-38446930D01*
X25433072Y-38569414D01*
X25474733Y-38599683D01*
X25517398Y-38655013D01*
X25523376Y-38724627D01*
X25490769Y-38786421D01*
X25474733Y-38800317D01*
X25433072Y-38830585D01*
X25310588Y-38953069D01*
X25310588Y-38953070D01*
X25310586Y-38953072D01*
X25266859Y-39013256D01*
X25208768Y-39093211D01*
X25130128Y-39247552D01*
X25076597Y-39412302D01*
X25067459Y-39470000D01*
X25049500Y-39583389D01*
X25049500Y-41156611D01*
X25076598Y-41327701D01*
X25130127Y-41492445D01*
X25208768Y-41646788D01*
X25310586Y-41786928D01*
X25433072Y-41909414D01*
X25573212Y-42011232D01*
X25727555Y-42089873D01*
X25892299Y-42143402D01*
X26063389Y-42170500D01*
X26063390Y-42170500D01*
X26236610Y-42170500D01*
X26236611Y-42170500D01*
X26407701Y-42143402D01*
X26572445Y-42089873D01*
X26726788Y-42011232D01*
X26866928Y-41909414D01*
X26989414Y-41786928D01*
X27091232Y-41646788D01*
X27169873Y-41492445D01*
X27223402Y-41327701D01*
X27250500Y-41156611D01*
X27250500Y-39583389D01*
X27223402Y-39412299D01*
X27169873Y-39247555D01*
X27091232Y-39093212D01*
X26989414Y-38953072D01*
X26866928Y-38830586D01*
X26825265Y-38800316D01*
X26782602Y-38744988D01*
X26776623Y-38675374D01*
X26809229Y-38613579D01*
X26825266Y-38599683D01*
X26866928Y-38569414D01*
X26989414Y-38446928D01*
X27091232Y-38306788D01*
X27169873Y-38152445D01*
X27223402Y-37987701D01*
X27250500Y-37816611D01*
X27250500Y-36243389D01*
X27589500Y-36243389D01*
X27589500Y-37816610D01*
X27615934Y-37983512D01*
X27616598Y-37987701D01*
X27670127Y-38152445D01*
X27748768Y-38306788D01*
X27850586Y-38446928D01*
X27850588Y-38446930D01*
X27973072Y-38569414D01*
X28014733Y-38599683D01*
X28057398Y-38655013D01*
X28063376Y-38724627D01*
X28030769Y-38786421D01*
X28014733Y-38800317D01*
X27973072Y-38830585D01*
X27850588Y-38953069D01*
X27850588Y-38953070D01*
X27850586Y-38953072D01*
X27806859Y-39013256D01*
X27748768Y-39093211D01*
X27670128Y-39247552D01*
X27616597Y-39412302D01*
X27607459Y-39470000D01*
X27589500Y-39583389D01*
X27589500Y-41156611D01*
X27616598Y-41327701D01*
X27670127Y-41492445D01*
X27748768Y-41646788D01*
X27850586Y-41786928D01*
X27973072Y-41909414D01*
X28113212Y-42011232D01*
X28267555Y-42089873D01*
X28432299Y-42143402D01*
X28603389Y-42170500D01*
X28603390Y-42170500D01*
X28776610Y-42170500D01*
X28776611Y-42170500D01*
X28947701Y-42143402D01*
X29112445Y-42089873D01*
X29266788Y-42011232D01*
X29406928Y-41909414D01*
X29529414Y-41786928D01*
X29631232Y-41646788D01*
X29709873Y-41492445D01*
X29763402Y-41327701D01*
X29790500Y-41156611D01*
X29790500Y-39583389D01*
X29763402Y-39412299D01*
X29709873Y-39247555D01*
X29631232Y-39093212D01*
X29529414Y-38953072D01*
X29406928Y-38830586D01*
X29365265Y-38800316D01*
X29322602Y-38744988D01*
X29316623Y-38675374D01*
X29349229Y-38613579D01*
X29365266Y-38599683D01*
X29406928Y-38569414D01*
X29529414Y-38446928D01*
X29631232Y-38306788D01*
X29709873Y-38152445D01*
X29763402Y-37987701D01*
X29790500Y-37816611D01*
X29790500Y-36243389D01*
X30129500Y-36243389D01*
X30129500Y-37816610D01*
X30155934Y-37983512D01*
X30156598Y-37987701D01*
X30210127Y-38152445D01*
X30288768Y-38306788D01*
X30390586Y-38446928D01*
X30390588Y-38446930D01*
X30513072Y-38569414D01*
X30554733Y-38599683D01*
X30597398Y-38655013D01*
X30603376Y-38724627D01*
X30570769Y-38786421D01*
X30554733Y-38800317D01*
X30513072Y-38830585D01*
X30390588Y-38953069D01*
X30390588Y-38953070D01*
X30390586Y-38953072D01*
X30346859Y-39013256D01*
X30288768Y-39093211D01*
X30210128Y-39247552D01*
X30156597Y-39412302D01*
X30147459Y-39470000D01*
X30129500Y-39583389D01*
X30129500Y-41156611D01*
X30156598Y-41327701D01*
X30210127Y-41492445D01*
X30288768Y-41646788D01*
X30390586Y-41786928D01*
X30513072Y-41909414D01*
X30653212Y-42011232D01*
X30807555Y-42089873D01*
X30972299Y-42143402D01*
X31143389Y-42170500D01*
X31143390Y-42170500D01*
X31316610Y-42170500D01*
X31316611Y-42170500D01*
X31487701Y-42143402D01*
X31652445Y-42089873D01*
X31806788Y-42011232D01*
X31946928Y-41909414D01*
X32069414Y-41786928D01*
X32171232Y-41646788D01*
X32249873Y-41492445D01*
X32303402Y-41327701D01*
X32330500Y-41156611D01*
X32330500Y-39583389D01*
X32303402Y-39412299D01*
X32249873Y-39247555D01*
X32171232Y-39093212D01*
X32069414Y-38953072D01*
X31946928Y-38830586D01*
X31905265Y-38800316D01*
X31862602Y-38744988D01*
X31856623Y-38675374D01*
X31889229Y-38613579D01*
X31905266Y-38599683D01*
X31946928Y-38569414D01*
X32069414Y-38446928D01*
X32171232Y-38306788D01*
X32249873Y-38152445D01*
X32303402Y-37987701D01*
X32330500Y-37816611D01*
X32330500Y-36243389D01*
X32669500Y-36243389D01*
X32669500Y-37816610D01*
X32695934Y-37983512D01*
X32696598Y-37987701D01*
X32750127Y-38152445D01*
X32828768Y-38306788D01*
X32930586Y-38446928D01*
X32930588Y-38446930D01*
X33053072Y-38569414D01*
X33094733Y-38599683D01*
X33137398Y-38655013D01*
X33143376Y-38724627D01*
X33110769Y-38786421D01*
X33094733Y-38800317D01*
X33053072Y-38830585D01*
X32930588Y-38953069D01*
X32930588Y-38953070D01*
X32930586Y-38953072D01*
X32886859Y-39013256D01*
X32828768Y-39093211D01*
X32750128Y-39247552D01*
X32696597Y-39412302D01*
X32687459Y-39470000D01*
X32669500Y-39583389D01*
X32669500Y-41156611D01*
X32696598Y-41327701D01*
X32750127Y-41492445D01*
X32828768Y-41646788D01*
X32930586Y-41786928D01*
X33053072Y-41909414D01*
X33193212Y-42011232D01*
X33347555Y-42089873D01*
X33512299Y-42143402D01*
X33683389Y-42170500D01*
X33683390Y-42170500D01*
X33856610Y-42170500D01*
X33856611Y-42170500D01*
X34027701Y-42143402D01*
X34192445Y-42089873D01*
X34346788Y-42011232D01*
X34486928Y-41909414D01*
X34609414Y-41786928D01*
X34711232Y-41646788D01*
X34789873Y-41492445D01*
X34843402Y-41327701D01*
X34870500Y-41156611D01*
X34870500Y-39583389D01*
X34843402Y-39412299D01*
X34789873Y-39247555D01*
X34711232Y-39093212D01*
X34609414Y-38953072D01*
X34486928Y-38830586D01*
X34445265Y-38800316D01*
X34402602Y-38744988D01*
X34396623Y-38675374D01*
X34429229Y-38613579D01*
X34445266Y-38599683D01*
X34486928Y-38569414D01*
X34609414Y-38446928D01*
X34711232Y-38306788D01*
X34789873Y-38152445D01*
X34843402Y-37987701D01*
X34870500Y-37816611D01*
X34870500Y-36243389D01*
X35209500Y-36243389D01*
X35209500Y-37816610D01*
X35235934Y-37983512D01*
X35236598Y-37987701D01*
X35290127Y-38152445D01*
X35368768Y-38306788D01*
X35470586Y-38446928D01*
X35470588Y-38446930D01*
X35593072Y-38569414D01*
X35634733Y-38599683D01*
X35677398Y-38655013D01*
X35683376Y-38724627D01*
X35650769Y-38786421D01*
X35634733Y-38800317D01*
X35593072Y-38830585D01*
X35470588Y-38953069D01*
X35470588Y-38953070D01*
X35470586Y-38953072D01*
X35426859Y-39013256D01*
X35368768Y-39093211D01*
X35290128Y-39247552D01*
X35236597Y-39412302D01*
X35227459Y-39470000D01*
X35209500Y-39583389D01*
X35209500Y-41156611D01*
X35236598Y-41327701D01*
X35290127Y-41492445D01*
X35368768Y-41646788D01*
X35470586Y-41786928D01*
X35593072Y-41909414D01*
X35733212Y-42011232D01*
X35887555Y-42089873D01*
X36052299Y-42143402D01*
X36223389Y-42170500D01*
X36223390Y-42170500D01*
X36396610Y-42170500D01*
X36396611Y-42170500D01*
X36567701Y-42143402D01*
X36732445Y-42089873D01*
X36886788Y-42011232D01*
X37026928Y-41909414D01*
X37149414Y-41786928D01*
X37251232Y-41646788D01*
X37329873Y-41492445D01*
X37383402Y-41327701D01*
X37410500Y-41156611D01*
X37410500Y-39583389D01*
X37383402Y-39412299D01*
X37329873Y-39247555D01*
X37251232Y-39093212D01*
X37149414Y-38953072D01*
X37026928Y-38830586D01*
X36985265Y-38800316D01*
X36942602Y-38744988D01*
X36936623Y-38675374D01*
X36969229Y-38613579D01*
X36985266Y-38599683D01*
X37026928Y-38569414D01*
X37149414Y-38446928D01*
X37251232Y-38306788D01*
X37329873Y-38152445D01*
X37383402Y-37987701D01*
X37410500Y-37816611D01*
X37410500Y-36243389D01*
X37749500Y-36243389D01*
X37749500Y-37816610D01*
X37775934Y-37983512D01*
X37776598Y-37987701D01*
X37830127Y-38152445D01*
X37908768Y-38306788D01*
X38010586Y-38446928D01*
X38010588Y-38446930D01*
X38133072Y-38569414D01*
X38174733Y-38599683D01*
X38217398Y-38655013D01*
X38223376Y-38724627D01*
X38190769Y-38786421D01*
X38174733Y-38800317D01*
X38133072Y-38830585D01*
X38010588Y-38953069D01*
X38010588Y-38953070D01*
X38010586Y-38953072D01*
X37966859Y-39013256D01*
X37908768Y-39093211D01*
X37830128Y-39247552D01*
X37776597Y-39412302D01*
X37767459Y-39470000D01*
X37749500Y-39583389D01*
X37749500Y-41156611D01*
X37776598Y-41327701D01*
X37830127Y-41492445D01*
X37908768Y-41646788D01*
X38010586Y-41786928D01*
X38133072Y-41909414D01*
X38273212Y-42011232D01*
X38427555Y-42089873D01*
X38592299Y-42143402D01*
X38763389Y-42170500D01*
X38763390Y-42170500D01*
X38936610Y-42170500D01*
X38936611Y-42170500D01*
X39107701Y-42143402D01*
X39272445Y-42089873D01*
X39426788Y-42011232D01*
X39566928Y-41909414D01*
X39689414Y-41786928D01*
X39791232Y-41646788D01*
X39869873Y-41492445D01*
X39923402Y-41327701D01*
X39950500Y-41156611D01*
X39950500Y-39583389D01*
X39923402Y-39412299D01*
X39869873Y-39247555D01*
X39791232Y-39093212D01*
X39689414Y-38953072D01*
X39566928Y-38830586D01*
X39525265Y-38800316D01*
X39482602Y-38744988D01*
X39476623Y-38675374D01*
X39509229Y-38613579D01*
X39525266Y-38599683D01*
X39566928Y-38569414D01*
X39689414Y-38446928D01*
X39791232Y-38306788D01*
X39869873Y-38152445D01*
X39923402Y-37987701D01*
X39950500Y-37816611D01*
X39950500Y-36243389D01*
X40289500Y-36243389D01*
X40289500Y-37816610D01*
X40315934Y-37983512D01*
X40316598Y-37987701D01*
X40370127Y-38152445D01*
X40448768Y-38306788D01*
X40550586Y-38446928D01*
X40550588Y-38446930D01*
X40673072Y-38569414D01*
X40714733Y-38599683D01*
X40757398Y-38655013D01*
X40763376Y-38724627D01*
X40730769Y-38786421D01*
X40714733Y-38800317D01*
X40673072Y-38830585D01*
X40550588Y-38953069D01*
X40550588Y-38953070D01*
X40550586Y-38953072D01*
X40506859Y-39013256D01*
X40448768Y-39093211D01*
X40370128Y-39247552D01*
X40316597Y-39412302D01*
X40307459Y-39470000D01*
X40289500Y-39583389D01*
X40289500Y-41156611D01*
X40316598Y-41327701D01*
X40370127Y-41492445D01*
X40448768Y-41646788D01*
X40550586Y-41786928D01*
X40673072Y-41909414D01*
X40813212Y-42011232D01*
X40967555Y-42089873D01*
X41132299Y-42143402D01*
X41303389Y-42170500D01*
X41303390Y-42170500D01*
X41476610Y-42170500D01*
X41476611Y-42170500D01*
X41647701Y-42143402D01*
X41812445Y-42089873D01*
X41966788Y-42011232D01*
X42106928Y-41909414D01*
X42229414Y-41786928D01*
X42331232Y-41646788D01*
X42409873Y-41492445D01*
X42463402Y-41327701D01*
X42490500Y-41156611D01*
X42490500Y-39583389D01*
X42463402Y-39412299D01*
X42409873Y-39247555D01*
X42331232Y-39093212D01*
X42229414Y-38953072D01*
X42106928Y-38830586D01*
X42065265Y-38800316D01*
X42022602Y-38744988D01*
X42016623Y-38675374D01*
X42049229Y-38613579D01*
X42065266Y-38599683D01*
X42106928Y-38569414D01*
X42229414Y-38446928D01*
X42331232Y-38306788D01*
X42409873Y-38152445D01*
X42463402Y-37987701D01*
X42490500Y-37816611D01*
X42490500Y-36243389D01*
X42829500Y-36243389D01*
X42829500Y-37816610D01*
X42855934Y-37983512D01*
X42856598Y-37987701D01*
X42910127Y-38152445D01*
X42988768Y-38306788D01*
X43090586Y-38446928D01*
X43090588Y-38446930D01*
X43213072Y-38569414D01*
X43254733Y-38599683D01*
X43297398Y-38655013D01*
X43303376Y-38724627D01*
X43270769Y-38786421D01*
X43254733Y-38800317D01*
X43213072Y-38830585D01*
X43090588Y-38953069D01*
X43090588Y-38953070D01*
X43090586Y-38953072D01*
X43046859Y-39013256D01*
X42988768Y-39093211D01*
X42910128Y-39247552D01*
X42856597Y-39412302D01*
X42847459Y-39470000D01*
X42829500Y-39583389D01*
X42829500Y-41156611D01*
X42856598Y-41327701D01*
X42910127Y-41492445D01*
X42988768Y-41646788D01*
X43090586Y-41786928D01*
X43213072Y-41909414D01*
X43353212Y-42011232D01*
X43507555Y-42089873D01*
X43672299Y-42143402D01*
X43843389Y-42170500D01*
X43843390Y-42170500D01*
X44016610Y-42170500D01*
X44016611Y-42170500D01*
X44187701Y-42143402D01*
X44352445Y-42089873D01*
X44506788Y-42011232D01*
X44646928Y-41909414D01*
X44769414Y-41786928D01*
X44871232Y-41646788D01*
X44949873Y-41492445D01*
X45003402Y-41327701D01*
X45030500Y-41156611D01*
X45030500Y-39583389D01*
X45003402Y-39412299D01*
X44949873Y-39247555D01*
X44871232Y-39093212D01*
X44769414Y-38953072D01*
X44646928Y-38830586D01*
X44605265Y-38800316D01*
X44562602Y-38744988D01*
X44556623Y-38675374D01*
X44589229Y-38613579D01*
X44605266Y-38599683D01*
X44646928Y-38569414D01*
X44769414Y-38446928D01*
X44871232Y-38306788D01*
X44949873Y-38152445D01*
X45003402Y-37987701D01*
X45030500Y-37816611D01*
X45030500Y-36243389D01*
X45369500Y-36243389D01*
X45369500Y-37816610D01*
X45395934Y-37983512D01*
X45396598Y-37987701D01*
X45450127Y-38152445D01*
X45528768Y-38306788D01*
X45630586Y-38446928D01*
X45630588Y-38446930D01*
X45753072Y-38569414D01*
X45794733Y-38599683D01*
X45837398Y-38655013D01*
X45843376Y-38724627D01*
X45810769Y-38786421D01*
X45794733Y-38800317D01*
X45753072Y-38830585D01*
X45630588Y-38953069D01*
X45630588Y-38953070D01*
X45630586Y-38953072D01*
X45586859Y-39013256D01*
X45528768Y-39093211D01*
X45450128Y-39247552D01*
X45396597Y-39412302D01*
X45387459Y-39470000D01*
X45369500Y-39583389D01*
X45369500Y-41156611D01*
X45396598Y-41327701D01*
X45450127Y-41492445D01*
X45528768Y-41646788D01*
X45630586Y-41786928D01*
X45753072Y-41909414D01*
X45893212Y-42011232D01*
X46047555Y-42089873D01*
X46212299Y-42143402D01*
X46383389Y-42170500D01*
X46383390Y-42170500D01*
X46556610Y-42170500D01*
X46556611Y-42170500D01*
X46727701Y-42143402D01*
X46892445Y-42089873D01*
X47046788Y-42011232D01*
X47186928Y-41909414D01*
X47309414Y-41786928D01*
X47411232Y-41646788D01*
X47489873Y-41492445D01*
X47543402Y-41327701D01*
X47570500Y-41156611D01*
X47570500Y-39583389D01*
X47543402Y-39412299D01*
X47489873Y-39247555D01*
X47411232Y-39093212D01*
X47309414Y-38953072D01*
X47186928Y-38830586D01*
X47145265Y-38800316D01*
X47102602Y-38744988D01*
X47096623Y-38675374D01*
X47129229Y-38613579D01*
X47145266Y-38599683D01*
X47186928Y-38569414D01*
X47309414Y-38446928D01*
X47411232Y-38306788D01*
X47489873Y-38152445D01*
X47543402Y-37987701D01*
X47570500Y-37816611D01*
X47570500Y-36243389D01*
X47909500Y-36243389D01*
X47909500Y-37816610D01*
X47935934Y-37983512D01*
X47936598Y-37987701D01*
X47990127Y-38152445D01*
X48068768Y-38306788D01*
X48170586Y-38446928D01*
X48170588Y-38446930D01*
X48293072Y-38569414D01*
X48334733Y-38599683D01*
X48377398Y-38655013D01*
X48383376Y-38724627D01*
X48350769Y-38786421D01*
X48334733Y-38800317D01*
X48293072Y-38830585D01*
X48170588Y-38953069D01*
X48170588Y-38953070D01*
X48170586Y-38953072D01*
X48126859Y-39013256D01*
X48068768Y-39093211D01*
X47990128Y-39247552D01*
X47936597Y-39412302D01*
X47927459Y-39470000D01*
X47909500Y-39583389D01*
X47909500Y-41156611D01*
X47936598Y-41327701D01*
X47990127Y-41492445D01*
X48068768Y-41646788D01*
X48170586Y-41786928D01*
X48293072Y-41909414D01*
X48433212Y-42011232D01*
X48587555Y-42089873D01*
X48752299Y-42143402D01*
X48923389Y-42170500D01*
X48923390Y-42170500D01*
X49096610Y-42170500D01*
X49096611Y-42170500D01*
X49267701Y-42143402D01*
X49432445Y-42089873D01*
X49586788Y-42011232D01*
X49726928Y-41909414D01*
X49849414Y-41786928D01*
X49951232Y-41646788D01*
X50029873Y-41492445D01*
X50083402Y-41327701D01*
X50110500Y-41156611D01*
X50110500Y-39583389D01*
X50083402Y-39412299D01*
X50029873Y-39247555D01*
X49951232Y-39093212D01*
X49849414Y-38953072D01*
X49726928Y-38830586D01*
X49685265Y-38800316D01*
X49642602Y-38744988D01*
X49636623Y-38675374D01*
X49669229Y-38613579D01*
X49685266Y-38599683D01*
X49726928Y-38569414D01*
X49849414Y-38446928D01*
X49951232Y-38306788D01*
X50029873Y-38152445D01*
X50083402Y-37987701D01*
X50110500Y-37816611D01*
X50110500Y-36243389D01*
X50449500Y-36243389D01*
X50449500Y-37816610D01*
X50475934Y-37983512D01*
X50476598Y-37987701D01*
X50530127Y-38152445D01*
X50608768Y-38306788D01*
X50710586Y-38446928D01*
X50710588Y-38446930D01*
X50833072Y-38569414D01*
X50874733Y-38599683D01*
X50917398Y-38655013D01*
X50923376Y-38724627D01*
X50890769Y-38786421D01*
X50874733Y-38800317D01*
X50833072Y-38830585D01*
X50710588Y-38953069D01*
X50710588Y-38953070D01*
X50710586Y-38953072D01*
X50666859Y-39013256D01*
X50608768Y-39093211D01*
X50530128Y-39247552D01*
X50476597Y-39412302D01*
X50467459Y-39470000D01*
X50449500Y-39583389D01*
X50449500Y-41156611D01*
X50476598Y-41327701D01*
X50530127Y-41492445D01*
X50608768Y-41646788D01*
X50710586Y-41786928D01*
X50833072Y-41909414D01*
X50973212Y-42011232D01*
X51127555Y-42089873D01*
X51292299Y-42143402D01*
X51463389Y-42170500D01*
X51463390Y-42170500D01*
X51636610Y-42170500D01*
X51636611Y-42170500D01*
X51807701Y-42143402D01*
X51972445Y-42089873D01*
X52126788Y-42011232D01*
X52266928Y-41909414D01*
X52389414Y-41786928D01*
X52491232Y-41646788D01*
X52569873Y-41492445D01*
X52623402Y-41327701D01*
X52650500Y-41156611D01*
X52650500Y-39583389D01*
X52623402Y-39412299D01*
X52569873Y-39247555D01*
X52491232Y-39093212D01*
X52389414Y-38953072D01*
X52266928Y-38830586D01*
X52225265Y-38800316D01*
X52182602Y-38744988D01*
X52176623Y-38675374D01*
X52209229Y-38613579D01*
X52225266Y-38599683D01*
X52266928Y-38569414D01*
X52389414Y-38446928D01*
X52491232Y-38306788D01*
X52569873Y-38152445D01*
X52623402Y-37987701D01*
X52650500Y-37816611D01*
X52650500Y-36243389D01*
X52989500Y-36243389D01*
X52989500Y-37816610D01*
X53015934Y-37983512D01*
X53016598Y-37987701D01*
X53070127Y-38152445D01*
X53148768Y-38306788D01*
X53250586Y-38446928D01*
X53250588Y-38446930D01*
X53373072Y-38569414D01*
X53414733Y-38599683D01*
X53457398Y-38655013D01*
X53463376Y-38724627D01*
X53430769Y-38786421D01*
X53414733Y-38800317D01*
X53373072Y-38830585D01*
X53250588Y-38953069D01*
X53250588Y-38953070D01*
X53250586Y-38953072D01*
X53206859Y-39013256D01*
X53148768Y-39093211D01*
X53070128Y-39247552D01*
X53016597Y-39412302D01*
X53007459Y-39470000D01*
X52989500Y-39583389D01*
X52989500Y-41156611D01*
X53016598Y-41327701D01*
X53070127Y-41492445D01*
X53148768Y-41646788D01*
X53250586Y-41786928D01*
X53373072Y-41909414D01*
X53513212Y-42011232D01*
X53667555Y-42089873D01*
X53832299Y-42143402D01*
X54003389Y-42170500D01*
X54003390Y-42170500D01*
X54176610Y-42170500D01*
X54176611Y-42170500D01*
X54347701Y-42143402D01*
X54512445Y-42089873D01*
X54666788Y-42011232D01*
X54806928Y-41909414D01*
X54916306Y-41800036D01*
X55553513Y-41800036D01*
X55638417Y-41916895D01*
X55783104Y-42061582D01*
X55948650Y-42181859D01*
X56130968Y-42274755D01*
X56325582Y-42337990D01*
X56527683Y-42370000D01*
X56732317Y-42370000D01*
X56934417Y-42337990D01*
X57129031Y-42274755D01*
X57311349Y-42181859D01*
X57476894Y-42061582D01*
X57476895Y-42061582D01*
X57621584Y-41916893D01*
X57706484Y-41800037D01*
X57706484Y-41800036D01*
X56630000Y-40723552D01*
X55553513Y-41800036D01*
X54916306Y-41800036D01*
X54929414Y-41786928D01*
X55031232Y-41646788D01*
X55109873Y-41492445D01*
X55151974Y-41362870D01*
X55191410Y-41305198D01*
X55255769Y-41277999D01*
X55308222Y-41283260D01*
X55349707Y-41296739D01*
X56276448Y-40370000D01*
X56276448Y-40369999D01*
X55349707Y-39443258D01*
X55308221Y-39456738D01*
X55238380Y-39458733D01*
X55178547Y-39422653D01*
X55151974Y-39377129D01*
X55109873Y-39247555D01*
X55031232Y-39093212D01*
X54929414Y-38953072D01*
X54806928Y-38830586D01*
X54765265Y-38800316D01*
X54722602Y-38744988D01*
X54716623Y-38675374D01*
X54749229Y-38613579D01*
X54765266Y-38599683D01*
X54806928Y-38569414D01*
X54929414Y-38446928D01*
X55031232Y-38306788D01*
X55109873Y-38152445D01*
X55137186Y-38068384D01*
X55176622Y-38010711D01*
X55240981Y-37983512D01*
X55309827Y-37995427D01*
X55361303Y-38042671D01*
X55373047Y-38068385D01*
X55425244Y-38229031D01*
X55518140Y-38411349D01*
X55638417Y-38576894D01*
X55638417Y-38576895D01*
X55673841Y-38612319D01*
X55707326Y-38673642D01*
X55702342Y-38743334D01*
X55673841Y-38787681D01*
X55638417Y-38823104D01*
X55638416Y-38823105D01*
X55553513Y-38939962D01*
X55553514Y-38939963D01*
X56253222Y-39639671D01*
X56229901Y-39662993D01*
X56164075Y-39777007D01*
X56130000Y-39904174D01*
X56130000Y-40035826D01*
X56164075Y-40162993D01*
X56229901Y-40277007D01*
X56322993Y-40370099D01*
X56437007Y-40435925D01*
X56564174Y-40470000D01*
X56695826Y-40470000D01*
X56822993Y-40435925D01*
X56937007Y-40370099D01*
X56937107Y-40369999D01*
X56983552Y-40369999D01*
X56983552Y-40370000D01*
X57910292Y-41296740D01*
X57910292Y-41296739D01*
X57930000Y-41172311D01*
X57930000Y-39567688D01*
X57910292Y-39443259D01*
X56983552Y-40369999D01*
X56937107Y-40369999D01*
X57030099Y-40277007D01*
X57095925Y-40162993D01*
X57130000Y-40035826D01*
X57130000Y-39904174D01*
X57095925Y-39777007D01*
X57030099Y-39662993D01*
X57006777Y-39639671D01*
X57706484Y-38939963D01*
X57706485Y-38939961D01*
X57621587Y-38823110D01*
X57621582Y-38823104D01*
X57586159Y-38787681D01*
X57552674Y-38726358D01*
X57557658Y-38656666D01*
X57586159Y-38612319D01*
X57621582Y-38576895D01*
X57621582Y-38576894D01*
X57741859Y-38411349D01*
X57834755Y-38229031D01*
X57897990Y-38034417D01*
X57930000Y-37832317D01*
X57930000Y-37280000D01*
X57107445Y-37280000D01*
X57095925Y-37237007D01*
X57030099Y-37122993D01*
X56937007Y-37029901D01*
X56822993Y-36964075D01*
X56695826Y-36930000D01*
X56564174Y-36930000D01*
X56437007Y-36964075D01*
X56410269Y-36979511D01*
X56391206Y-36957511D01*
X56380000Y-36906000D01*
X56380000Y-36780000D01*
X56880000Y-36780000D01*
X57930000Y-36780000D01*
X57930000Y-36227682D01*
X57897990Y-36025582D01*
X57834755Y-35830968D01*
X57741859Y-35648650D01*
X57621582Y-35483105D01*
X57621582Y-35483104D01*
X57476895Y-35338417D01*
X57311349Y-35218140D01*
X57129029Y-35125244D01*
X56934413Y-35062009D01*
X56880000Y-35053390D01*
X56880000Y-36780000D01*
X56380000Y-36780000D01*
X56380000Y-35053390D01*
X56325586Y-35062009D01*
X56130970Y-35125244D01*
X55948650Y-35218140D01*
X55783105Y-35338417D01*
X55783104Y-35338417D01*
X55638417Y-35483104D01*
X55638417Y-35483105D01*
X55518140Y-35648650D01*
X55425244Y-35830968D01*
X55373047Y-35991614D01*
X55333609Y-36049289D01*
X55269250Y-36076487D01*
X55200404Y-36064572D01*
X55148928Y-36017328D01*
X55137186Y-35991615D01*
X55109873Y-35907555D01*
X55031232Y-35753212D01*
X54929414Y-35613072D01*
X54806928Y-35490586D01*
X54666788Y-35388768D01*
X54512445Y-35310127D01*
X54347701Y-35256598D01*
X54347699Y-35256597D01*
X54347698Y-35256597D01*
X54216271Y-35235781D01*
X54176611Y-35229500D01*
X54003389Y-35229500D01*
X53963728Y-35235781D01*
X53832302Y-35256597D01*
X53667552Y-35310128D01*
X53513211Y-35388768D01*
X53433256Y-35446859D01*
X53373072Y-35490586D01*
X53373070Y-35490588D01*
X53373069Y-35490588D01*
X53250588Y-35613069D01*
X53250588Y-35613070D01*
X53250586Y-35613072D01*
X53224737Y-35648650D01*
X53148768Y-35753211D01*
X53070128Y-35907552D01*
X53016597Y-36072302D01*
X52989500Y-36243389D01*
X52650500Y-36243389D01*
X52623402Y-36072299D01*
X52569873Y-35907555D01*
X52491232Y-35753212D01*
X52389414Y-35613072D01*
X52266928Y-35490586D01*
X52126788Y-35388768D01*
X51972445Y-35310127D01*
X51807701Y-35256598D01*
X51807699Y-35256597D01*
X51807698Y-35256597D01*
X51676271Y-35235781D01*
X51636611Y-35229500D01*
X51463389Y-35229500D01*
X51423728Y-35235781D01*
X51292302Y-35256597D01*
X51127552Y-35310128D01*
X50973211Y-35388768D01*
X50893256Y-35446859D01*
X50833072Y-35490586D01*
X50833070Y-35490588D01*
X50833069Y-35490588D01*
X50710588Y-35613069D01*
X50710588Y-35613070D01*
X50710586Y-35613072D01*
X50684737Y-35648650D01*
X50608768Y-35753211D01*
X50530128Y-35907552D01*
X50476597Y-36072302D01*
X50449500Y-36243389D01*
X50110500Y-36243389D01*
X50083402Y-36072299D01*
X50029873Y-35907555D01*
X49951232Y-35753212D01*
X49849414Y-35613072D01*
X49726928Y-35490586D01*
X49586788Y-35388768D01*
X49432445Y-35310127D01*
X49267701Y-35256598D01*
X49267699Y-35256597D01*
X49267698Y-35256597D01*
X49136271Y-35235781D01*
X49096611Y-35229500D01*
X48923389Y-35229500D01*
X48883728Y-35235781D01*
X48752302Y-35256597D01*
X48587552Y-35310128D01*
X48433211Y-35388768D01*
X48353256Y-35446859D01*
X48293072Y-35490586D01*
X48293070Y-35490588D01*
X48293069Y-35490588D01*
X48170588Y-35613069D01*
X48170588Y-35613070D01*
X48170586Y-35613072D01*
X48144737Y-35648650D01*
X48068768Y-35753211D01*
X47990128Y-35907552D01*
X47936597Y-36072302D01*
X47909500Y-36243389D01*
X47570500Y-36243389D01*
X47543402Y-36072299D01*
X47489873Y-35907555D01*
X47411232Y-35753212D01*
X47309414Y-35613072D01*
X47186928Y-35490586D01*
X47046788Y-35388768D01*
X46892445Y-35310127D01*
X46727701Y-35256598D01*
X46727699Y-35256597D01*
X46727698Y-35256597D01*
X46596271Y-35235781D01*
X46556611Y-35229500D01*
X46383389Y-35229500D01*
X46343728Y-35235781D01*
X46212302Y-35256597D01*
X46047552Y-35310128D01*
X45893211Y-35388768D01*
X45813256Y-35446859D01*
X45753072Y-35490586D01*
X45753070Y-35490588D01*
X45753069Y-35490588D01*
X45630588Y-35613069D01*
X45630588Y-35613070D01*
X45630586Y-35613072D01*
X45604737Y-35648650D01*
X45528768Y-35753211D01*
X45450128Y-35907552D01*
X45396597Y-36072302D01*
X45369500Y-36243389D01*
X45030500Y-36243389D01*
X45003402Y-36072299D01*
X44949873Y-35907555D01*
X44871232Y-35753212D01*
X44769414Y-35613072D01*
X44646928Y-35490586D01*
X44506788Y-35388768D01*
X44352445Y-35310127D01*
X44187701Y-35256598D01*
X44187699Y-35256597D01*
X44187698Y-35256597D01*
X44056271Y-35235781D01*
X44016611Y-35229500D01*
X43843389Y-35229500D01*
X43803728Y-35235781D01*
X43672302Y-35256597D01*
X43507552Y-35310128D01*
X43353211Y-35388768D01*
X43273256Y-35446859D01*
X43213072Y-35490586D01*
X43213070Y-35490588D01*
X43213069Y-35490588D01*
X43090588Y-35613069D01*
X43090588Y-35613070D01*
X43090586Y-35613072D01*
X43064737Y-35648650D01*
X42988768Y-35753211D01*
X42910128Y-35907552D01*
X42856597Y-36072302D01*
X42829500Y-36243389D01*
X42490500Y-36243389D01*
X42463402Y-36072299D01*
X42409873Y-35907555D01*
X42331232Y-35753212D01*
X42229414Y-35613072D01*
X42106928Y-35490586D01*
X41966788Y-35388768D01*
X41812445Y-35310127D01*
X41647701Y-35256598D01*
X41647699Y-35256597D01*
X41647698Y-35256597D01*
X41516271Y-35235781D01*
X41476611Y-35229500D01*
X41303389Y-35229500D01*
X41263728Y-35235781D01*
X41132302Y-35256597D01*
X40967552Y-35310128D01*
X40813211Y-35388768D01*
X40733256Y-35446859D01*
X40673072Y-35490586D01*
X40673070Y-35490588D01*
X40673069Y-35490588D01*
X40550588Y-35613069D01*
X40550588Y-35613070D01*
X40550586Y-35613072D01*
X40524737Y-35648650D01*
X40448768Y-35753211D01*
X40370128Y-35907552D01*
X40316597Y-36072302D01*
X40289500Y-36243389D01*
X39950500Y-36243389D01*
X39923402Y-36072299D01*
X39869873Y-35907555D01*
X39791232Y-35753212D01*
X39689414Y-35613072D01*
X39566928Y-35490586D01*
X39426788Y-35388768D01*
X39272445Y-35310127D01*
X39107701Y-35256598D01*
X39107699Y-35256597D01*
X39107698Y-35256597D01*
X38976271Y-35235781D01*
X38936611Y-35229500D01*
X38763389Y-35229500D01*
X38723728Y-35235781D01*
X38592302Y-35256597D01*
X38427552Y-35310128D01*
X38273211Y-35388768D01*
X38193256Y-35446859D01*
X38133072Y-35490586D01*
X38133070Y-35490588D01*
X38133069Y-35490588D01*
X38010588Y-35613069D01*
X38010588Y-35613070D01*
X38010586Y-35613072D01*
X37984737Y-35648650D01*
X37908768Y-35753211D01*
X37830128Y-35907552D01*
X37776597Y-36072302D01*
X37749500Y-36243389D01*
X37410500Y-36243389D01*
X37383402Y-36072299D01*
X37329873Y-35907555D01*
X37251232Y-35753212D01*
X37149414Y-35613072D01*
X37026928Y-35490586D01*
X36886788Y-35388768D01*
X36732445Y-35310127D01*
X36567701Y-35256598D01*
X36567699Y-35256597D01*
X36567698Y-35256597D01*
X36436271Y-35235781D01*
X36396611Y-35229500D01*
X36223389Y-35229500D01*
X36183728Y-35235781D01*
X36052302Y-35256597D01*
X35887552Y-35310128D01*
X35733211Y-35388768D01*
X35653256Y-35446859D01*
X35593072Y-35490586D01*
X35593070Y-35490588D01*
X35593069Y-35490588D01*
X35470588Y-35613069D01*
X35470588Y-35613070D01*
X35470586Y-35613072D01*
X35444737Y-35648650D01*
X35368768Y-35753211D01*
X35290128Y-35907552D01*
X35236597Y-36072302D01*
X35209500Y-36243389D01*
X34870500Y-36243389D01*
X34843402Y-36072299D01*
X34789873Y-35907555D01*
X34711232Y-35753212D01*
X34609414Y-35613072D01*
X34486928Y-35490586D01*
X34346788Y-35388768D01*
X34192445Y-35310127D01*
X34027701Y-35256598D01*
X34027699Y-35256597D01*
X34027698Y-35256597D01*
X33896271Y-35235781D01*
X33856611Y-35229500D01*
X33683389Y-35229500D01*
X33643728Y-35235781D01*
X33512302Y-35256597D01*
X33347552Y-35310128D01*
X33193211Y-35388768D01*
X33113256Y-35446859D01*
X33053072Y-35490586D01*
X33053070Y-35490588D01*
X33053069Y-35490588D01*
X32930588Y-35613069D01*
X32930588Y-35613070D01*
X32930586Y-35613072D01*
X32904737Y-35648650D01*
X32828768Y-35753211D01*
X32750128Y-35907552D01*
X32696597Y-36072302D01*
X32669500Y-36243389D01*
X32330500Y-36243389D01*
X32303402Y-36072299D01*
X32249873Y-35907555D01*
X32171232Y-35753212D01*
X32069414Y-35613072D01*
X31946928Y-35490586D01*
X31806788Y-35388768D01*
X31652445Y-35310127D01*
X31487701Y-35256598D01*
X31487699Y-35256597D01*
X31487698Y-35256597D01*
X31356271Y-35235781D01*
X31316611Y-35229500D01*
X31143389Y-35229500D01*
X31103728Y-35235781D01*
X30972302Y-35256597D01*
X30807552Y-35310128D01*
X30653211Y-35388768D01*
X30573256Y-35446859D01*
X30513072Y-35490586D01*
X30513070Y-35490588D01*
X30513069Y-35490588D01*
X30390588Y-35613069D01*
X30390588Y-35613070D01*
X30390586Y-35613072D01*
X30364737Y-35648650D01*
X30288768Y-35753211D01*
X30210128Y-35907552D01*
X30156597Y-36072302D01*
X30129500Y-36243389D01*
X29790500Y-36243389D01*
X29763402Y-36072299D01*
X29709873Y-35907555D01*
X29631232Y-35753212D01*
X29529414Y-35613072D01*
X29406928Y-35490586D01*
X29266788Y-35388768D01*
X29112445Y-35310127D01*
X28947701Y-35256598D01*
X28947699Y-35256597D01*
X28947698Y-35256597D01*
X28816271Y-35235781D01*
X28776611Y-35229500D01*
X28603389Y-35229500D01*
X28563728Y-35235781D01*
X28432302Y-35256597D01*
X28267552Y-35310128D01*
X28113211Y-35388768D01*
X28033256Y-35446859D01*
X27973072Y-35490586D01*
X27973070Y-35490588D01*
X27973069Y-35490588D01*
X27850588Y-35613069D01*
X27850588Y-35613070D01*
X27850586Y-35613072D01*
X27824737Y-35648650D01*
X27748768Y-35753211D01*
X27670128Y-35907552D01*
X27616597Y-36072302D01*
X27589500Y-36243389D01*
X27250500Y-36243389D01*
X27223402Y-36072299D01*
X27169873Y-35907555D01*
X27091232Y-35753212D01*
X26989414Y-35613072D01*
X26866928Y-35490586D01*
X26726788Y-35388768D01*
X26572445Y-35310127D01*
X26407701Y-35256598D01*
X26407699Y-35256597D01*
X26407698Y-35256597D01*
X26276271Y-35235781D01*
X26236611Y-35229500D01*
X26063389Y-35229500D01*
X26023728Y-35235781D01*
X25892302Y-35256597D01*
X25727552Y-35310128D01*
X25573211Y-35388768D01*
X25493256Y-35446859D01*
X25433072Y-35490586D01*
X25433070Y-35490588D01*
X25433069Y-35490588D01*
X25310588Y-35613069D01*
X25310588Y-35613070D01*
X25310586Y-35613072D01*
X25284737Y-35648650D01*
X25208768Y-35753211D01*
X25130128Y-35907552D01*
X25076597Y-36072302D01*
X25049500Y-36243389D01*
X24710500Y-36243389D01*
X24683402Y-36072299D01*
X24629873Y-35907555D01*
X24551232Y-35753212D01*
X24449414Y-35613072D01*
X24326928Y-35490586D01*
X24186788Y-35388768D01*
X24032445Y-35310127D01*
X23867701Y-35256598D01*
X23867699Y-35256597D01*
X23867698Y-35256597D01*
X23736271Y-35235781D01*
X23696611Y-35229500D01*
X23523389Y-35229500D01*
X23483728Y-35235781D01*
X23352302Y-35256597D01*
X23187552Y-35310128D01*
X23033211Y-35388768D01*
X22953256Y-35446859D01*
X22893072Y-35490586D01*
X22893070Y-35490588D01*
X22893069Y-35490588D01*
X22770588Y-35613069D01*
X22770588Y-35613070D01*
X22770586Y-35613072D01*
X22744737Y-35648650D01*
X22668768Y-35753211D01*
X22590128Y-35907552D01*
X22536597Y-36072302D01*
X22509500Y-36243389D01*
X22170500Y-36243389D01*
X22143402Y-36072299D01*
X22089873Y-35907555D01*
X22011232Y-35753212D01*
X21909414Y-35613072D01*
X21786928Y-35490586D01*
X21646788Y-35388768D01*
X21492445Y-35310127D01*
X21327701Y-35256598D01*
X21327699Y-35256597D01*
X21327698Y-35256597D01*
X21196271Y-35235781D01*
X21156611Y-35229500D01*
X20983389Y-35229500D01*
X20943728Y-35235781D01*
X20812302Y-35256597D01*
X20647552Y-35310128D01*
X20493211Y-35388768D01*
X20413256Y-35446859D01*
X20353072Y-35490586D01*
X20353070Y-35490588D01*
X20353069Y-35490588D01*
X20230588Y-35613069D01*
X20230588Y-35613070D01*
X20230586Y-35613072D01*
X20204737Y-35648650D01*
X20128768Y-35753211D01*
X20050128Y-35907552D01*
X19996597Y-36072302D01*
X19969500Y-36243389D01*
X19630500Y-36243389D01*
X19603402Y-36072299D01*
X19549873Y-35907555D01*
X19471232Y-35753212D01*
X19369414Y-35613072D01*
X19246928Y-35490586D01*
X19106788Y-35388768D01*
X18952445Y-35310127D01*
X18787701Y-35256598D01*
X18787699Y-35256597D01*
X18787698Y-35256597D01*
X18656271Y-35235781D01*
X18616611Y-35229500D01*
X18443389Y-35229500D01*
X18403728Y-35235781D01*
X18272302Y-35256597D01*
X18107552Y-35310128D01*
X17953211Y-35388768D01*
X17873256Y-35446859D01*
X17813072Y-35490586D01*
X17813070Y-35490588D01*
X17813069Y-35490588D01*
X17690588Y-35613069D01*
X17690588Y-35613070D01*
X17690586Y-35613072D01*
X17664737Y-35648650D01*
X17588768Y-35753211D01*
X17510128Y-35907552D01*
X17456597Y-36072302D01*
X17429500Y-36243389D01*
X17090500Y-36243389D01*
X17063402Y-36072299D01*
X17009873Y-35907555D01*
X16931232Y-35753212D01*
X16829414Y-35613072D01*
X16706928Y-35490586D01*
X16566788Y-35388768D01*
X16412445Y-35310127D01*
X16247701Y-35256598D01*
X16247699Y-35256597D01*
X16247698Y-35256597D01*
X16116271Y-35235781D01*
X16076611Y-35229500D01*
X15903389Y-35229500D01*
X15863728Y-35235781D01*
X15732302Y-35256597D01*
X15567552Y-35310128D01*
X15413211Y-35388768D01*
X15333256Y-35446859D01*
X15273072Y-35490586D01*
X15273070Y-35490588D01*
X15273069Y-35490588D01*
X15150588Y-35613069D01*
X15150588Y-35613070D01*
X15150586Y-35613072D01*
X15124737Y-35648650D01*
X15048768Y-35753211D01*
X14970128Y-35907552D01*
X14916597Y-36072302D01*
X14889500Y-36243389D01*
X14550500Y-36243389D01*
X14523402Y-36072299D01*
X14469873Y-35907555D01*
X14391232Y-35753212D01*
X14289414Y-35613072D01*
X14166928Y-35490586D01*
X14026788Y-35388768D01*
X13872445Y-35310127D01*
X13707701Y-35256598D01*
X13707699Y-35256597D01*
X13707698Y-35256597D01*
X13576271Y-35235781D01*
X13536611Y-35229500D01*
X13363389Y-35229500D01*
X13323728Y-35235781D01*
X13192302Y-35256597D01*
X13027552Y-35310128D01*
X12873211Y-35388768D01*
X12793256Y-35446859D01*
X12733072Y-35490586D01*
X12733070Y-35490588D01*
X12733069Y-35490588D01*
X12610588Y-35613069D01*
X12610588Y-35613070D01*
X12610586Y-35613072D01*
X12584737Y-35648650D01*
X12508768Y-35753211D01*
X12430128Y-35907552D01*
X12376597Y-36072302D01*
X12349500Y-36243389D01*
X12010500Y-36243389D01*
X11983402Y-36072299D01*
X11929873Y-35907555D01*
X11851232Y-35753212D01*
X11749414Y-35613072D01*
X11626928Y-35490586D01*
X11486788Y-35388768D01*
X11332445Y-35310127D01*
X11167701Y-35256598D01*
X11167699Y-35256597D01*
X11167698Y-35256597D01*
X11036271Y-35235781D01*
X10996611Y-35229500D01*
X10823389Y-35229500D01*
X10783728Y-35235781D01*
X10652302Y-35256597D01*
X10487552Y-35310128D01*
X10333211Y-35388768D01*
X10253256Y-35446859D01*
X10193072Y-35490586D01*
X10193070Y-35490588D01*
X10193069Y-35490588D01*
X10070588Y-35613069D01*
X10070588Y-35613070D01*
X10070586Y-35613072D01*
X10044737Y-35648650D01*
X9968768Y-35753211D01*
X9890128Y-35907552D01*
X9836597Y-36072302D01*
X9809500Y-36243389D01*
X9470500Y-36243389D01*
X9443402Y-36072299D01*
X9389873Y-35907555D01*
X9311232Y-35753212D01*
X9209414Y-35613072D01*
X9086928Y-35490586D01*
X8946788Y-35388768D01*
X8792445Y-35310127D01*
X8627701Y-35256598D01*
X8627699Y-35256597D01*
X8627698Y-35256597D01*
X8496271Y-35235781D01*
X8456611Y-35229500D01*
X8283389Y-35229500D01*
X8243728Y-35235781D01*
X8112302Y-35256597D01*
X7947552Y-35310128D01*
X7793211Y-35388768D01*
X7713256Y-35446859D01*
X7653072Y-35490586D01*
X7653070Y-35490588D01*
X7653069Y-35490588D01*
X7530588Y-35613069D01*
X7530588Y-35613070D01*
X7530586Y-35613072D01*
X7504737Y-35648650D01*
X7428768Y-35753211D01*
X7350128Y-35907552D01*
X7296597Y-36072302D01*
X7269500Y-36243389D01*
X3886598Y-36243389D01*
X3886598Y-33303389D01*
X4224500Y-33303389D01*
X4224500Y-33476611D01*
X4251598Y-33647701D01*
X4305127Y-33812445D01*
X4383768Y-33966788D01*
X4485586Y-34106928D01*
X4608072Y-34229414D01*
X4748212Y-34331232D01*
X4902555Y-34409873D01*
X5067299Y-34463402D01*
X5238389Y-34490500D01*
X5238390Y-34490500D01*
X7011610Y-34490500D01*
X7011611Y-34490500D01*
X7182701Y-34463402D01*
X7347445Y-34409873D01*
X7501788Y-34331232D01*
X7641928Y-34229414D01*
X7764414Y-34106928D01*
X7866232Y-33966788D01*
X7944873Y-33812445D01*
X7998402Y-33647701D01*
X8025500Y-33476611D01*
X8025500Y-33303389D01*
X7998402Y-33132299D01*
X7944873Y-32967555D01*
X7866232Y-32813212D01*
X7764414Y-32673072D01*
X7641928Y-32550586D01*
X7501788Y-32448768D01*
X7347445Y-32370127D01*
X7182701Y-32316598D01*
X7182699Y-32316597D01*
X7182698Y-32316597D01*
X7051271Y-32295781D01*
X7011611Y-32289500D01*
X5238389Y-32289500D01*
X5198728Y-32295781D01*
X5067302Y-32316597D01*
X4902552Y-32370128D01*
X4748211Y-32448768D01*
X4668256Y-32506859D01*
X4608072Y-32550586D01*
X4608070Y-32550588D01*
X4608069Y-32550588D01*
X4485588Y-32673069D01*
X4485588Y-32673070D01*
X4485586Y-32673072D01*
X4441859Y-32733256D01*
X4383768Y-32813211D01*
X4305128Y-32967552D01*
X4251597Y-33132302D01*
X4247583Y-33157648D01*
X4224500Y-33303389D01*
X3886598Y-33303389D01*
X3886598Y-31585586D01*
X1316370Y-31585586D01*
X1316370Y-36731637D01*
X400500Y-36731637D01*
X400500Y-30763389D01*
X4224500Y-30763389D01*
X4224500Y-30936610D01*
X4250826Y-31102830D01*
X4251598Y-31107701D01*
X4305127Y-31272445D01*
X4383768Y-31426788D01*
X4485586Y-31566928D01*
X4608072Y-31689414D01*
X4748212Y-31791232D01*
X4902555Y-31869873D01*
X5067299Y-31923402D01*
X5238389Y-31950500D01*
X5238390Y-31950500D01*
X7011610Y-31950500D01*
X7011611Y-31950500D01*
X7182701Y-31923402D01*
X7347445Y-31869873D01*
X7501788Y-31791232D01*
X7641928Y-31689414D01*
X7764414Y-31566928D01*
X7866232Y-31426788D01*
X7944873Y-31272445D01*
X7998402Y-31107701D01*
X8025500Y-30936611D01*
X8025500Y-30763389D01*
X8012860Y-30683581D01*
X8012637Y-30682173D01*
X8010336Y-30667648D01*
X8629500Y-30667648D01*
X8629500Y-30872351D01*
X8661522Y-31074534D01*
X8724781Y-31269223D01*
X8788691Y-31394653D01*
X8817310Y-31450820D01*
X8817715Y-31451613D01*
X8938028Y-31617213D01*
X9082786Y-31761971D01*
X9237749Y-31874556D01*
X9248390Y-31882287D01*
X9329083Y-31923402D01*
X9430776Y-31975218D01*
X9430778Y-31975218D01*
X9430781Y-31975220D01*
X9535137Y-32009127D01*
X9625465Y-32038477D01*
X9726557Y-32054488D01*
X9827648Y-32070500D01*
X9827649Y-32070500D01*
X10032350Y-32070500D01*
X10032352Y-32070500D01*
X10149068Y-32052013D01*
X10218362Y-32060967D01*
X10256148Y-32086805D01*
X11925886Y-33756542D01*
X11981789Y-33812445D01*
X12023459Y-33854115D01*
X12138182Y-33930771D01*
X12138186Y-33930773D01*
X12138189Y-33930775D01*
X12212866Y-33961707D01*
X12265671Y-33983580D01*
X12292591Y-33988934D01*
X12389630Y-34008237D01*
X12401006Y-34010500D01*
X12401007Y-34010500D01*
X32644582Y-34010500D01*
X32711621Y-34030185D01*
X32744900Y-34061615D01*
X32778028Y-34107212D01*
X32778032Y-34107217D01*
X32922786Y-34251971D01*
X33031882Y-34331232D01*
X33088390Y-34372287D01*
X33162153Y-34409871D01*
X33270776Y-34465218D01*
X33270778Y-34465218D01*
X33270781Y-34465220D01*
X33348585Y-34490500D01*
X33465465Y-34528477D01*
X33566557Y-34544488D01*
X33667648Y-34560500D01*
X33667649Y-34560500D01*
X33872351Y-34560500D01*
X33872352Y-34560500D01*
X34074534Y-34528477D01*
X34269219Y-34465220D01*
X34451610Y-34372287D01*
X34544590Y-34304732D01*
X34617213Y-34251971D01*
X34617215Y-34251968D01*
X34617219Y-34251966D01*
X34761966Y-34107219D01*
X34761968Y-34107215D01*
X34761971Y-34107213D01*
X34863994Y-33966788D01*
X34882287Y-33941610D01*
X34975220Y-33759219D01*
X35038477Y-33564534D01*
X35070500Y-33362352D01*
X35070500Y-33157648D01*
X35038477Y-32955466D01*
X34975220Y-32760781D01*
X34975218Y-32760778D01*
X34975218Y-32760776D01*
X34930528Y-32673069D01*
X34882287Y-32578390D01*
X34862088Y-32550588D01*
X34761971Y-32412786D01*
X34617213Y-32268028D01*
X34451614Y-32147715D01*
X34401649Y-32122256D01*
X34300072Y-32070500D01*
X34249277Y-32022526D01*
X34232482Y-31954705D01*
X34255019Y-31888570D01*
X34309735Y-31845119D01*
X34356368Y-31836016D01*
X35033446Y-31836016D01*
X35100485Y-31855701D01*
X35143931Y-31903721D01*
X35167766Y-31950500D01*
X35188715Y-31991613D01*
X35309028Y-32157213D01*
X35453786Y-32301971D01*
X35606305Y-32412780D01*
X35619390Y-32422287D01*
X35735607Y-32481503D01*
X35801776Y-32515218D01*
X35801778Y-32515218D01*
X35801781Y-32515220D01*
X35906137Y-32549127D01*
X35996465Y-32578477D01*
X36068050Y-32589815D01*
X36198648Y-32610500D01*
X36198649Y-32610500D01*
X36403351Y-32610500D01*
X36403352Y-32610500D01*
X36605534Y-32578477D01*
X36800219Y-32515220D01*
X36982610Y-32422287D01*
X37128080Y-32316598D01*
X37148213Y-32301971D01*
X37148215Y-32301968D01*
X37148219Y-32301966D01*
X37292966Y-32157219D01*
X37292968Y-32157215D01*
X37292971Y-32157213D01*
X37355970Y-32070501D01*
X37413287Y-31991610D01*
X37506220Y-31809219D01*
X37569477Y-31614534D01*
X37601500Y-31412352D01*
X37601500Y-31207648D01*
X37583840Y-31096148D01*
X37569477Y-31005465D01*
X37526377Y-30872819D01*
X37524382Y-30802977D01*
X37560462Y-30743144D01*
X37623163Y-30712316D01*
X37644308Y-30710500D01*
X55228996Y-30710500D01*
X55320040Y-30692389D01*
X55364328Y-30683580D01*
X55491811Y-30630775D01*
X55560140Y-30585118D01*
X55626816Y-30564240D01*
X55648425Y-30565746D01*
X55781348Y-30586800D01*
X55781349Y-30586800D01*
X55986051Y-30586800D01*
X55986052Y-30586800D01*
X56188234Y-30554777D01*
X56382919Y-30491520D01*
X56565310Y-30398587D01*
X56658290Y-30331032D01*
X56730913Y-30278271D01*
X56730915Y-30278268D01*
X56730919Y-30278266D01*
X56875666Y-30133519D01*
X56875668Y-30133515D01*
X56875671Y-30133513D01*
X56928432Y-30060890D01*
X56995987Y-29967910D01*
X57088920Y-29785519D01*
X57152177Y-29590834D01*
X57184200Y-29388652D01*
X57184200Y-29183948D01*
X57175495Y-29128987D01*
X57152177Y-28981765D01*
X57088918Y-28787076D01*
X57055203Y-28720907D01*
X56995987Y-28604690D01*
X56962951Y-28559219D01*
X56875671Y-28439086D01*
X56730913Y-28294328D01*
X56565313Y-28174014D01*
X56537970Y-28160082D01*
X56487175Y-28112106D01*
X56470381Y-28044285D01*
X56483783Y-27993303D01*
X56489215Y-27982643D01*
X56552472Y-27787958D01*
X56584495Y-27585776D01*
X56584495Y-27381072D01*
X56570091Y-27290128D01*
X56552472Y-27178889D01*
X56506373Y-27037011D01*
X56489215Y-26984205D01*
X56489213Y-26984202D01*
X56489213Y-26984200D01*
X56427390Y-26862867D01*
X56396282Y-26801814D01*
X56346955Y-26733920D01*
X56275966Y-26636210D01*
X56138983Y-26499227D01*
X56105498Y-26437904D01*
X56110482Y-26368212D01*
X56126346Y-26338660D01*
X56170017Y-26278553D01*
X56262950Y-26096162D01*
X56326207Y-25901477D01*
X56358230Y-25699295D01*
X56358230Y-25494591D01*
X56338428Y-25369568D01*
X56326207Y-25292408D01*
X56278690Y-25146168D01*
X62054370Y-25146168D01*
X64069020Y-25146168D01*
X64069020Y-14713831D01*
X62054370Y-14713831D01*
X62054370Y-25146168D01*
X56278690Y-25146168D01*
X56262948Y-25097719D01*
X56229233Y-25031550D01*
X56170017Y-24915333D01*
X56110484Y-24833392D01*
X56049701Y-24749729D01*
X55904943Y-24604971D01*
X55739343Y-24484658D01*
X55739342Y-24484657D01*
X55739340Y-24484656D01*
X55682383Y-24455634D01*
X55556953Y-24391724D01*
X55362264Y-24328465D01*
X55187725Y-24300821D01*
X55160082Y-24296443D01*
X54955378Y-24296443D01*
X54931059Y-24300294D01*
X54753195Y-24328465D01*
X54558506Y-24391724D01*
X54376116Y-24484658D01*
X54210516Y-24604971D01*
X54160093Y-24655394D01*
X54098770Y-24688878D01*
X54029078Y-24683893D01*
X53973145Y-24642022D01*
X53972094Y-24640597D01*
X53970717Y-24638702D01*
X53871966Y-24502781D01*
X53727219Y-24358034D01*
X53727213Y-24358028D01*
X53561613Y-24237715D01*
X53561612Y-24237714D01*
X53561610Y-24237713D01*
X53504653Y-24208691D01*
X53379223Y-24144781D01*
X53184534Y-24081522D01*
X53009995Y-24053878D01*
X52982352Y-24049500D01*
X52777648Y-24049500D01*
X52777638Y-24049500D01*
X52773377Y-24049835D01*
X52705001Y-24035466D01*
X52675976Y-24013898D01*
X51238277Y-22576198D01*
X50170292Y-21508213D01*
X50170288Y-21508210D01*
X50039185Y-21420609D01*
X50039172Y-21420602D01*
X49893501Y-21360264D01*
X49893489Y-21360261D01*
X49738845Y-21329500D01*
X49738842Y-21329500D01*
X36075047Y-21329500D01*
X36008008Y-21309815D01*
X35962253Y-21257011D01*
X35952309Y-21187853D01*
X35981334Y-21124297D01*
X35987366Y-21117819D01*
X35992740Y-21112445D01*
X36027966Y-21077219D01*
X36027968Y-21077215D01*
X36027971Y-21077213D01*
X36083300Y-21001057D01*
X36148287Y-20911610D01*
X36241220Y-20729219D01*
X36304477Y-20534534D01*
X36336500Y-20332352D01*
X36336500Y-20127648D01*
X36312192Y-19974174D01*
X36308714Y-19952214D01*
X36306412Y-19937682D01*
X52400000Y-19937682D01*
X52400000Y-20142317D01*
X52432009Y-20344417D01*
X52495244Y-20539031D01*
X52588140Y-20721349D01*
X52708417Y-20886894D01*
X52708417Y-20886895D01*
X52853104Y-21031582D01*
X53018646Y-21151856D01*
X53018649Y-21151858D01*
X53029209Y-21157238D01*
X54017037Y-20169410D01*
X54034075Y-20232993D01*
X54099901Y-20347007D01*
X54192993Y-20440099D01*
X54307007Y-20505925D01*
X54370589Y-20522962D01*
X53559585Y-21333965D01*
X53562327Y-21342403D01*
X53564322Y-21412244D01*
X53528241Y-21472077D01*
X53465540Y-21502904D01*
X53463796Y-21503193D01*
X53442300Y-21506597D01*
X53277552Y-21560128D01*
X53123211Y-21638768D01*
X53043256Y-21696859D01*
X52983072Y-21740586D01*
X52983070Y-21740588D01*
X52983069Y-21740588D01*
X52860588Y-21863069D01*
X52860588Y-21863070D01*
X52860586Y-21863072D01*
X52816859Y-21923256D01*
X52758768Y-22003211D01*
X52680128Y-22157552D01*
X52626597Y-22322302D01*
X52612440Y-22411686D01*
X52599500Y-22493389D01*
X52599500Y-22666611D01*
X52626598Y-22837701D01*
X52680127Y-23002445D01*
X52758768Y-23156788D01*
X52860586Y-23296928D01*
X52983072Y-23419414D01*
X53123212Y-23521232D01*
X53277555Y-23599873D01*
X53442299Y-23653402D01*
X53613389Y-23680500D01*
X53613390Y-23680500D01*
X55386610Y-23680500D01*
X55386611Y-23680500D01*
X55557701Y-23653402D01*
X55722445Y-23599873D01*
X55876788Y-23521232D01*
X56016928Y-23419414D01*
X56139414Y-23296928D01*
X56241232Y-23156788D01*
X56319873Y-23002445D01*
X56373402Y-22837701D01*
X56400500Y-22666611D01*
X56400500Y-22493389D01*
X56373402Y-22322299D01*
X56319873Y-22157555D01*
X56241232Y-22003212D01*
X56139414Y-21863072D01*
X56016928Y-21740586D01*
X55876788Y-21638768D01*
X55722445Y-21560127D01*
X55557701Y-21506598D01*
X55557699Y-21506597D01*
X55557697Y-21506597D01*
X55536204Y-21503193D01*
X55473069Y-21473264D01*
X55436138Y-21413952D01*
X55437136Y-21344090D01*
X55437671Y-21342401D01*
X55440412Y-21333964D01*
X54629410Y-20522962D01*
X54692993Y-20505925D01*
X54807007Y-20440099D01*
X54900099Y-20347007D01*
X54965925Y-20232993D01*
X54982962Y-20169410D01*
X55970790Y-21157239D01*
X55981347Y-21151860D01*
X55981351Y-21151858D01*
X56146894Y-21031582D01*
X56146895Y-21031582D01*
X56291582Y-20886895D01*
X56291582Y-20886894D01*
X56411859Y-20721349D01*
X56504755Y-20539031D01*
X56567990Y-20344417D01*
X56600000Y-20142317D01*
X56600000Y-19937682D01*
X56567990Y-19735582D01*
X56504755Y-19540968D01*
X56411859Y-19358650D01*
X56291582Y-19193105D01*
X56291582Y-19193104D01*
X56146895Y-19048417D01*
X55981347Y-18928139D01*
X55970792Y-18922760D01*
X55970790Y-18922760D01*
X54982962Y-19910588D01*
X54965925Y-19847007D01*
X54900099Y-19732993D01*
X54807007Y-19639901D01*
X54692993Y-19574075D01*
X54629410Y-19557037D01*
X55445248Y-18741199D01*
X55443870Y-18692978D01*
X55479950Y-18633144D01*
X55542651Y-18602315D01*
X55563794Y-18600499D01*
X56144864Y-18600499D01*
X56144879Y-18600497D01*
X56144882Y-18600497D01*
X56169987Y-18597586D01*
X56169988Y-18597585D01*
X56169991Y-18597585D01*
X56272765Y-18552206D01*
X56352206Y-18472765D01*
X56397585Y-18369991D01*
X56400500Y-18344865D01*
X56400499Y-16655136D01*
X56400146Y-16652093D01*
X56397586Y-16630012D01*
X56397585Y-16630010D01*
X56397585Y-16630009D01*
X56352206Y-16527235D01*
X56272765Y-16447794D01*
X56272763Y-16447793D01*
X56169992Y-16402415D01*
X56144865Y-16399500D01*
X52855143Y-16399500D01*
X52855117Y-16399502D01*
X52830012Y-16402413D01*
X52830008Y-16402415D01*
X52727235Y-16447793D01*
X52647794Y-16527234D01*
X52602415Y-16630006D01*
X52602415Y-16630008D01*
X52599500Y-16655131D01*
X52599500Y-18344856D01*
X52599502Y-18344882D01*
X52602413Y-18369987D01*
X52602415Y-18369991D01*
X52647793Y-18472764D01*
X52647794Y-18472765D01*
X52727235Y-18552206D01*
X52830009Y-18597585D01*
X52855135Y-18600500D01*
X53436203Y-18600499D01*
X53503240Y-18620183D01*
X53548995Y-18672987D01*
X53558939Y-18742146D01*
X53558327Y-18744776D01*
X54370589Y-19557037D01*
X54307007Y-19574075D01*
X54192993Y-19639901D01*
X54099901Y-19732993D01*
X54034075Y-19847007D01*
X54017037Y-19910589D01*
X53029208Y-18922760D01*
X53029206Y-18922759D01*
X53018656Y-18928136D01*
X52853104Y-19048417D01*
X52708417Y-19193104D01*
X52708417Y-19193105D01*
X52588140Y-19358650D01*
X52495244Y-19540968D01*
X52432009Y-19735582D01*
X52400000Y-19937682D01*
X36306412Y-19937682D01*
X36304477Y-19925466D01*
X36241220Y-19730781D01*
X36241218Y-19730778D01*
X36241218Y-19730776D01*
X36194914Y-19639901D01*
X36148287Y-19548390D01*
X36118963Y-19508028D01*
X36027971Y-19382786D01*
X35883213Y-19238028D01*
X35717613Y-19117715D01*
X35717612Y-19117714D01*
X35717610Y-19117713D01*
X35628457Y-19072287D01*
X35535223Y-19024781D01*
X35340534Y-18961522D01*
X35165995Y-18933878D01*
X35138352Y-18929500D01*
X34933648Y-18929500D01*
X34909329Y-18933351D01*
X34731465Y-18961522D01*
X34536776Y-19024781D01*
X34354386Y-19117715D01*
X34188786Y-19238028D01*
X34044028Y-19382786D01*
X33923715Y-19548386D01*
X33830776Y-19730787D01*
X33829880Y-19732952D01*
X33829318Y-19733648D01*
X33828568Y-19735122D01*
X33828258Y-19734964D01*
X33786040Y-19787356D01*
X33719746Y-19809421D01*
X33715319Y-19809500D01*
X14019009Y-19809500D01*
X13951970Y-19789815D01*
X13918690Y-19758384D01*
X13841969Y-19652784D01*
X13697213Y-19508028D01*
X13531613Y-19387715D01*
X13531612Y-19387714D01*
X13531610Y-19387713D01*
X13474571Y-19358650D01*
X13349223Y-19294781D01*
X13154534Y-19231522D01*
X12979995Y-19203878D01*
X12952352Y-19199500D01*
X12858151Y-19199500D01*
X12791112Y-19179815D01*
X12745357Y-19127011D01*
X12735413Y-19057853D01*
X12764438Y-18994297D01*
X12785266Y-18975182D01*
X12817213Y-18951971D01*
X12817215Y-18951968D01*
X12817219Y-18951966D01*
X12961966Y-18807219D01*
X12961968Y-18807215D01*
X12961971Y-18807213D01*
X13059490Y-18672987D01*
X13082287Y-18641610D01*
X13175220Y-18459219D01*
X13238477Y-18264534D01*
X13270500Y-18062352D01*
X13270500Y-17857648D01*
X13249895Y-17727555D01*
X13238477Y-17655465D01*
X13175218Y-17460776D01*
X13141503Y-17394607D01*
X13082287Y-17278390D01*
X13074556Y-17267749D01*
X12961971Y-17112786D01*
X12817213Y-16968028D01*
X12651613Y-16847715D01*
X12651612Y-16847714D01*
X12651610Y-16847713D01*
X12469219Y-16754780D01*
X12389035Y-16728726D01*
X12274534Y-16691522D01*
X12099995Y-16663878D01*
X12072352Y-16659500D01*
X11867648Y-16659500D01*
X11843329Y-16663351D01*
X11665465Y-16691522D01*
X11470776Y-16754781D01*
X11288386Y-16847715D01*
X11122786Y-16968028D01*
X10978028Y-17112786D01*
X10857715Y-17278386D01*
X10764781Y-17460776D01*
X10701522Y-17655465D01*
X10669500Y-17857648D01*
X10669500Y-18062351D01*
X10701522Y-18264530D01*
X10701522Y-18264531D01*
X10733431Y-18362736D01*
X10739500Y-18401054D01*
X10739500Y-19518928D01*
X10730061Y-19566380D01*
X10680263Y-19686602D01*
X10680260Y-19686612D01*
X10649500Y-19841254D01*
X10649500Y-21158745D01*
X10680261Y-21313388D01*
X10680264Y-21313400D01*
X10740602Y-21459071D01*
X10740609Y-21459084D01*
X10828210Y-21590187D01*
X10828213Y-21590191D01*
X11648312Y-22410289D01*
X11649709Y-22411686D01*
X11683194Y-22473009D01*
X11678210Y-22542701D01*
X11649724Y-22587034D01*
X11647074Y-22589684D01*
X11647069Y-22589690D01*
X11526751Y-22755295D01*
X11433817Y-22937685D01*
X11370558Y-23132374D01*
X11338536Y-23334557D01*
X11338536Y-23539260D01*
X11370559Y-23741444D01*
X11370559Y-23741447D01*
X11433815Y-23936127D01*
X11433815Y-23936128D01*
X11470807Y-24008729D01*
X11483703Y-24077398D01*
X11457426Y-24142138D01*
X11433207Y-24165341D01*
X11281936Y-24275245D01*
X11281931Y-24275249D01*
X11137177Y-24420003D01*
X11016864Y-24585603D01*
X10923930Y-24767993D01*
X10860671Y-24962682D01*
X10828649Y-25164865D01*
X10828649Y-25369568D01*
X10860671Y-25571751D01*
X10923930Y-25766440D01*
X11016864Y-25948830D01*
X11137177Y-26114430D01*
X11281935Y-26259188D01*
X11402509Y-26346788D01*
X11447539Y-26379504D01*
X11559111Y-26436353D01*
X11629925Y-26472435D01*
X11629927Y-26472435D01*
X11629930Y-26472437D01*
X11688471Y-26491458D01*
X11824614Y-26535694D01*
X11903403Y-26548173D01*
X12026797Y-26567717D01*
X12026798Y-26567717D01*
X12231500Y-26567717D01*
X12231501Y-26567717D01*
X12354894Y-26548173D01*
X12424187Y-26557127D01*
X12477639Y-26602124D01*
X12496765Y-26651245D01*
X12499447Y-26668180D01*
X12531076Y-26765524D01*
X12562705Y-26862867D01*
X12637275Y-27009219D01*
X12655640Y-27045261D01*
X12775953Y-27210861D01*
X12920711Y-27355619D01*
X13075674Y-27468204D01*
X13086315Y-27475935D01*
X13202532Y-27535151D01*
X13268701Y-27568866D01*
X13268703Y-27568866D01*
X13268706Y-27568868D01*
X13463391Y-27632125D01*
X13650813Y-27661810D01*
X13713945Y-27691738D01*
X13750877Y-27751049D01*
X13753886Y-27803680D01*
X13729500Y-27957648D01*
X13729500Y-28162351D01*
X13761522Y-28364534D01*
X13824781Y-28559223D01*
X13888691Y-28684653D01*
X13913044Y-28732447D01*
X13917715Y-28741613D01*
X14038028Y-28907213D01*
X14182786Y-29051971D01*
X14348388Y-29172286D01*
X14354825Y-29175566D01*
X14405621Y-29223539D01*
X14422417Y-29291360D01*
X14399880Y-29357495D01*
X14354826Y-29396536D01*
X14168800Y-29491322D01*
X14003200Y-29611635D01*
X13858442Y-29756393D01*
X13738129Y-29921993D01*
X13645195Y-30104383D01*
X13581936Y-30299072D01*
X13549914Y-30501255D01*
X13549914Y-30705958D01*
X13581936Y-30908141D01*
X13645195Y-31102830D01*
X13709105Y-31228260D01*
X13731620Y-31272447D01*
X13738129Y-31285220D01*
X13858442Y-31450820D01*
X14003200Y-31595578D01*
X14132353Y-31689411D01*
X14168804Y-31715894D01*
X14259235Y-31761971D01*
X14351190Y-31808825D01*
X14351192Y-31808825D01*
X14351195Y-31808827D01*
X14434874Y-31836016D01*
X14545879Y-31872084D01*
X14646971Y-31888095D01*
X14748062Y-31904107D01*
X14748063Y-31904107D01*
X14952764Y-31904107D01*
X14952766Y-31904107D01*
X15069482Y-31885620D01*
X15138775Y-31894574D01*
X15159990Y-31906508D01*
X15168883Y-31912733D01*
X15175396Y-31919246D01*
X15235641Y-31959500D01*
X15236783Y-31960263D01*
X15290121Y-31995903D01*
X15290134Y-31995910D01*
X15392901Y-32038477D01*
X15417611Y-32048712D01*
X15417615Y-32048712D01*
X15417616Y-32048713D01*
X15552943Y-32075632D01*
X15552946Y-32075632D01*
X19393994Y-32075632D01*
X19485038Y-32057521D01*
X19529326Y-32048712D01*
X19593067Y-32022309D01*
X19656805Y-31995909D01*
X19656806Y-31995908D01*
X19656809Y-31995907D01*
X19771541Y-31919246D01*
X19818451Y-31872336D01*
X19879774Y-31838850D01*
X19906133Y-31836016D01*
X33183632Y-31836016D01*
X33250671Y-31855701D01*
X33296426Y-31908505D01*
X33306370Y-31977663D01*
X33277345Y-32041219D01*
X33239927Y-32070501D01*
X33088385Y-32147715D01*
X32922786Y-32268028D01*
X32778034Y-32412780D01*
X32751888Y-32448768D01*
X32672246Y-32558386D01*
X32616918Y-32601051D01*
X32571929Y-32609500D01*
X12811518Y-32609500D01*
X12744479Y-32589815D01*
X12723837Y-32573181D01*
X11246805Y-31096148D01*
X11213320Y-31034825D01*
X11212013Y-30989068D01*
X11230500Y-30872349D01*
X11230500Y-30667648D01*
X11198477Y-30465465D01*
X11169127Y-30375137D01*
X11135220Y-30270781D01*
X11135218Y-30270778D01*
X11135218Y-30270776D01*
X11065278Y-30133513D01*
X11042287Y-30088390D01*
X11034556Y-30077749D01*
X10921971Y-29922786D01*
X10777213Y-29778028D01*
X10611613Y-29657715D01*
X10611612Y-29657714D01*
X10611610Y-29657713D01*
X10521189Y-29611641D01*
X10429223Y-29564781D01*
X10234534Y-29501522D01*
X10059995Y-29473878D01*
X10032352Y-29469500D01*
X9827648Y-29469500D01*
X9803329Y-29473351D01*
X9625465Y-29501522D01*
X9430776Y-29564781D01*
X9248386Y-29657715D01*
X9082786Y-29778028D01*
X8938028Y-29922786D01*
X8817715Y-30088386D01*
X8724781Y-30270776D01*
X8661522Y-30465465D01*
X8629500Y-30667648D01*
X8010336Y-30667648D01*
X7998402Y-30592302D01*
X7998402Y-30592299D01*
X7944873Y-30427555D01*
X7866232Y-30273212D01*
X7764414Y-30133072D01*
X7641928Y-30010586D01*
X7501788Y-29908768D01*
X7347445Y-29830127D01*
X7182701Y-29776598D01*
X7182699Y-29776597D01*
X7182698Y-29776597D01*
X7051271Y-29755781D01*
X7011611Y-29749500D01*
X5238389Y-29749500D01*
X5198728Y-29755781D01*
X5067302Y-29776597D01*
X4902552Y-29830128D01*
X4748211Y-29908768D01*
X4668256Y-29966859D01*
X4608072Y-30010586D01*
X4608070Y-30010588D01*
X4608069Y-30010588D01*
X4485588Y-30133069D01*
X4485588Y-30133070D01*
X4485586Y-30133072D01*
X4453319Y-30177484D01*
X4383768Y-30273211D01*
X4305128Y-30427552D01*
X4251597Y-30592302D01*
X4224500Y-30763389D01*
X400500Y-30763389D01*
X400500Y-28223389D01*
X4224500Y-28223389D01*
X4224500Y-28396610D01*
X4250254Y-28559219D01*
X4251598Y-28567701D01*
X4305127Y-28732445D01*
X4383768Y-28886788D01*
X4485586Y-29026928D01*
X4608072Y-29149414D01*
X4748212Y-29251232D01*
X4902555Y-29329873D01*
X5067299Y-29383402D01*
X5238389Y-29410500D01*
X5238390Y-29410500D01*
X7011610Y-29410500D01*
X7011611Y-29410500D01*
X7182701Y-29383402D01*
X7347445Y-29329873D01*
X7501788Y-29251232D01*
X7641928Y-29149414D01*
X7764414Y-29026928D01*
X7866232Y-28886788D01*
X7944873Y-28732445D01*
X7998402Y-28567701D01*
X8025500Y-28396611D01*
X8025500Y-28223389D01*
X7998402Y-28052299D01*
X7944873Y-27887555D01*
X7866232Y-27733212D01*
X7764414Y-27593072D01*
X7641928Y-27470586D01*
X7501788Y-27368768D01*
X7347445Y-27290127D01*
X7182701Y-27236598D01*
X7182699Y-27236597D01*
X7182698Y-27236597D01*
X7051271Y-27215781D01*
X7011611Y-27209500D01*
X5238389Y-27209500D01*
X5198728Y-27215781D01*
X5067302Y-27236597D01*
X4902552Y-27290128D01*
X4748211Y-27368768D01*
X4668256Y-27426859D01*
X4608072Y-27470586D01*
X4608070Y-27470588D01*
X4608069Y-27470588D01*
X4485588Y-27593069D01*
X4485588Y-27593070D01*
X4485586Y-27593072D01*
X4457213Y-27632124D01*
X4383768Y-27733211D01*
X4305128Y-27887552D01*
X4251597Y-28052302D01*
X4224500Y-28223389D01*
X400500Y-28223389D01*
X400500Y-25683389D01*
X4224500Y-25683389D01*
X4224500Y-25856610D01*
X4239105Y-25948827D01*
X4251598Y-26027701D01*
X4305127Y-26192445D01*
X4383768Y-26346788D01*
X4485586Y-26486928D01*
X4608072Y-26609414D01*
X4748212Y-26711232D01*
X4902555Y-26789873D01*
X5067299Y-26843402D01*
X5238389Y-26870500D01*
X5238390Y-26870500D01*
X7011610Y-26870500D01*
X7011611Y-26870500D01*
X7182701Y-26843402D01*
X7347445Y-26789873D01*
X7501788Y-26711232D01*
X7641928Y-26609414D01*
X7764414Y-26486928D01*
X7866232Y-26346788D01*
X7944873Y-26192445D01*
X7998402Y-26027701D01*
X8025500Y-25856611D01*
X8025500Y-25683389D01*
X7998402Y-25512299D01*
X7944873Y-25347555D01*
X7866232Y-25193212D01*
X7764414Y-25053072D01*
X7641928Y-24930586D01*
X7501788Y-24828768D01*
X7347447Y-24750128D01*
X7347446Y-24750127D01*
X7347445Y-24750127D01*
X7182701Y-24696598D01*
X7182699Y-24696597D01*
X7182698Y-24696597D01*
X7034852Y-24673181D01*
X7011611Y-24669500D01*
X5238389Y-24669500D01*
X5215148Y-24673181D01*
X5067302Y-24696597D01*
X4902552Y-24750128D01*
X4748211Y-24828768D01*
X4668256Y-24886859D01*
X4608072Y-24930586D01*
X4608070Y-24930588D01*
X4608069Y-24930588D01*
X4485588Y-25053069D01*
X4485588Y-25053070D01*
X4485586Y-25053072D01*
X4453148Y-25097719D01*
X4383768Y-25193211D01*
X4305128Y-25347552D01*
X4305127Y-25347554D01*
X4305127Y-25347555D01*
X4297974Y-25369569D01*
X4251597Y-25512302D01*
X4224500Y-25683389D01*
X400500Y-25683389D01*
X400500Y-23143389D01*
X4224500Y-23143389D01*
X4224500Y-23316610D01*
X4250005Y-23477648D01*
X4251598Y-23487701D01*
X4305127Y-23652445D01*
X4383768Y-23806788D01*
X4485586Y-23946928D01*
X4608072Y-24069414D01*
X4748212Y-24171232D01*
X4902555Y-24249873D01*
X5067299Y-24303402D01*
X5238389Y-24330500D01*
X5238390Y-24330500D01*
X7011610Y-24330500D01*
X7011611Y-24330500D01*
X7182701Y-24303402D01*
X7347445Y-24249873D01*
X7501788Y-24171232D01*
X7641928Y-24069414D01*
X7764414Y-23946928D01*
X7866232Y-23806788D01*
X7944873Y-23652445D01*
X7998402Y-23487701D01*
X8025500Y-23316611D01*
X8025500Y-23143389D01*
X7998402Y-22972299D01*
X7944873Y-22807555D01*
X7866232Y-22653212D01*
X7764414Y-22513072D01*
X7641928Y-22390586D01*
X7501788Y-22288768D01*
X7347445Y-22210127D01*
X7182701Y-22156598D01*
X7182699Y-22156597D01*
X7182698Y-22156597D01*
X7051271Y-22135781D01*
X7011611Y-22129500D01*
X5238389Y-22129500D01*
X5198728Y-22135781D01*
X5067302Y-22156597D01*
X4902552Y-22210128D01*
X4748211Y-22288768D01*
X4668256Y-22346859D01*
X4608072Y-22390586D01*
X4608070Y-22390588D01*
X4608069Y-22390588D01*
X4485588Y-22513069D01*
X4485588Y-22513070D01*
X4485586Y-22513072D01*
X4464059Y-22542701D01*
X4383768Y-22653211D01*
X4305128Y-22807552D01*
X4251597Y-22972302D01*
X4224500Y-23143389D01*
X400500Y-23143389D01*
X400500Y-20603389D01*
X4224500Y-20603389D01*
X4224500Y-20776610D01*
X4245881Y-20911610D01*
X4251598Y-20947701D01*
X4305127Y-21112445D01*
X4383768Y-21266788D01*
X4485586Y-21406928D01*
X4608072Y-21529414D01*
X4748212Y-21631232D01*
X4902555Y-21709873D01*
X5067299Y-21763402D01*
X5238389Y-21790500D01*
X5238390Y-21790500D01*
X7011610Y-21790500D01*
X7011611Y-21790500D01*
X7182701Y-21763402D01*
X7347445Y-21709873D01*
X7501788Y-21631232D01*
X7641928Y-21529414D01*
X7764414Y-21406928D01*
X7866232Y-21266788D01*
X7944873Y-21112445D01*
X7998402Y-20947701D01*
X8025500Y-20776611D01*
X8025500Y-20603389D01*
X7998402Y-20432299D01*
X7944873Y-20267555D01*
X7866232Y-20113212D01*
X7764414Y-19973072D01*
X7641928Y-19850586D01*
X7501788Y-19748768D01*
X7347445Y-19670127D01*
X7182701Y-19616598D01*
X7182699Y-19616597D01*
X7182698Y-19616597D01*
X7051271Y-19595781D01*
X7011611Y-19589500D01*
X5238389Y-19589500D01*
X5198728Y-19595781D01*
X5067302Y-19616597D01*
X4902552Y-19670128D01*
X4748211Y-19748768D01*
X4695100Y-19787356D01*
X4608072Y-19850586D01*
X4608070Y-19850588D01*
X4608069Y-19850588D01*
X4485588Y-19973069D01*
X4485588Y-19973070D01*
X4485586Y-19973072D01*
X4441859Y-20033256D01*
X4383768Y-20113211D01*
X4305128Y-20267552D01*
X4251597Y-20432302D01*
X4224500Y-20603389D01*
X400500Y-20603389D01*
X400500Y-14762155D01*
X4025000Y-14762155D01*
X4025000Y-15360000D01*
X5691988Y-15360000D01*
X5659075Y-15417007D01*
X5625000Y-15544174D01*
X5625000Y-15675826D01*
X5659075Y-15802993D01*
X5691988Y-15860000D01*
X4025000Y-15860000D01*
X4025000Y-16457844D01*
X4031401Y-16517372D01*
X4031403Y-16517379D01*
X4081645Y-16652086D01*
X4081649Y-16652093D01*
X4167809Y-16767187D01*
X4167812Y-16767190D01*
X4282906Y-16853350D01*
X4282913Y-16853354D01*
X4417620Y-16903596D01*
X4417627Y-16903598D01*
X4477155Y-16909999D01*
X4477172Y-16910000D01*
X4818080Y-16910000D01*
X4885119Y-16929685D01*
X4930874Y-16982489D01*
X4940818Y-17051647D01*
X4911793Y-17115203D01*
X4874375Y-17144485D01*
X4748211Y-17208768D01*
X4668256Y-17266859D01*
X4608072Y-17310586D01*
X4608070Y-17310588D01*
X4608069Y-17310588D01*
X4485588Y-17433069D01*
X4485588Y-17433070D01*
X4485586Y-17433072D01*
X4465458Y-17460776D01*
X4383768Y-17573211D01*
X4305128Y-17727552D01*
X4251597Y-17892302D01*
X4224500Y-18063389D01*
X4224500Y-18236610D01*
X4247434Y-18381415D01*
X4251598Y-18407701D01*
X4305127Y-18572445D01*
X4383768Y-18726788D01*
X4485586Y-18866928D01*
X4608072Y-18989414D01*
X4748212Y-19091232D01*
X4902555Y-19169873D01*
X5067299Y-19223402D01*
X5238389Y-19250500D01*
X5238390Y-19250500D01*
X7011610Y-19250500D01*
X7011611Y-19250500D01*
X7182701Y-19223402D01*
X7347445Y-19169873D01*
X7501788Y-19091232D01*
X7641928Y-18989414D01*
X7764414Y-18866928D01*
X7866232Y-18726788D01*
X7944873Y-18572445D01*
X7998402Y-18407701D01*
X8025500Y-18236611D01*
X8025500Y-18063389D01*
X7998402Y-17892299D01*
X7944873Y-17727555D01*
X7866232Y-17573212D01*
X7764414Y-17433072D01*
X7641928Y-17310586D01*
X7501788Y-17208768D01*
X7375625Y-17144485D01*
X7324829Y-17096511D01*
X7308034Y-17028690D01*
X7330571Y-16962555D01*
X7385286Y-16919103D01*
X7431920Y-16910000D01*
X7772828Y-16910000D01*
X7772844Y-16909999D01*
X7832372Y-16903598D01*
X7832379Y-16903596D01*
X7967086Y-16853354D01*
X7967093Y-16853350D01*
X8082187Y-16767190D01*
X8082190Y-16767187D01*
X8168350Y-16652093D01*
X8168354Y-16652086D01*
X8218596Y-16517379D01*
X8218598Y-16517372D01*
X8224999Y-16457844D01*
X8225000Y-16457827D01*
X8225000Y-15860000D01*
X6558012Y-15860000D01*
X6590925Y-15802993D01*
X6625000Y-15675826D01*
X6625000Y-15544174D01*
X6590925Y-15417007D01*
X6558012Y-15360000D01*
X8225000Y-15360000D01*
X8225000Y-14762172D01*
X8224999Y-14762155D01*
X8218598Y-14702627D01*
X8218595Y-14702616D01*
X8168354Y-14567913D01*
X8168350Y-14567906D01*
X8082190Y-14452812D01*
X8082187Y-14452809D01*
X7967093Y-14366649D01*
X7967086Y-14366645D01*
X7832379Y-14316403D01*
X7832372Y-14316401D01*
X7772844Y-14310000D01*
X6375000Y-14310000D01*
X6375000Y-15176988D01*
X6317993Y-15144075D01*
X6190826Y-15110000D01*
X6059174Y-15110000D01*
X5932007Y-15144075D01*
X5875000Y-15176988D01*
X5875000Y-14310000D01*
X4477155Y-14310000D01*
X4417627Y-14316401D01*
X4417620Y-14316403D01*
X4282913Y-14366645D01*
X4282906Y-14366649D01*
X4167812Y-14452809D01*
X4167809Y-14452812D01*
X4081649Y-14567906D01*
X4081645Y-14567913D01*
X4031403Y-14702620D01*
X4031401Y-14702627D01*
X4025000Y-14762155D01*
X400500Y-14762155D01*
X400500Y-3385921D01*
X1759500Y-3385921D01*
X1759500Y-3614078D01*
X1789278Y-3840272D01*
X1789279Y-3840277D01*
X1789280Y-3840283D01*
X1789281Y-3840285D01*
X1848331Y-4060666D01*
X1935638Y-4271446D01*
X1935646Y-4271462D01*
X2049717Y-4469037D01*
X2049728Y-4469053D01*
X2188613Y-4650052D01*
X2188619Y-4650059D01*
X2349940Y-4811380D01*
X2349946Y-4811385D01*
X2530955Y-4950278D01*
X2530962Y-4950282D01*
X2728537Y-5064353D01*
X2728553Y-5064361D01*
X2830982Y-5106788D01*
X2939334Y-5151669D01*
X3159717Y-5210720D01*
X3319474Y-5231752D01*
X3385921Y-5240500D01*
X3385922Y-5240500D01*
X3614079Y-5240500D01*
X3665438Y-5233738D01*
X3840283Y-5210720D01*
X4060666Y-5151669D01*
X4226365Y-5083033D01*
X4271446Y-5064361D01*
X4271449Y-5064359D01*
X4271455Y-5064357D01*
X4469045Y-4950278D01*
X4650054Y-4811385D01*
X4811385Y-4650054D01*
X4950278Y-4469045D01*
X5064357Y-4271455D01*
X5151669Y-4060666D01*
X5210720Y-3840283D01*
X5240500Y-3614078D01*
X5240500Y-3385922D01*
X5210720Y-3159717D01*
X5151669Y-2939334D01*
X5111463Y-2842268D01*
X5064361Y-2728553D01*
X5064353Y-2728537D01*
X4950282Y-2530962D01*
X4950278Y-2530955D01*
X4859821Y-2413069D01*
X4816831Y-2357043D01*
X4816829Y-2357041D01*
X4811385Y-2349946D01*
X4811383Y-2349944D01*
X4811380Y-2349940D01*
X4746571Y-2285131D01*
X7269500Y-2285131D01*
X7269500Y-5374856D01*
X7269502Y-5374882D01*
X7272413Y-5399987D01*
X7272415Y-5399991D01*
X7317793Y-5502764D01*
X7317794Y-5502765D01*
X7397235Y-5582206D01*
X7451667Y-5606240D01*
X7505041Y-5651324D01*
X7525569Y-5718110D01*
X7506731Y-5785392D01*
X7501897Y-5792559D01*
X7428768Y-5893211D01*
X7350128Y-6047552D01*
X7296597Y-6212302D01*
X7269500Y-6383389D01*
X7269500Y-7956610D01*
X7295934Y-8123512D01*
X7296598Y-8127701D01*
X7350127Y-8292445D01*
X7428768Y-8446788D01*
X7530586Y-8586928D01*
X7653072Y-8709414D01*
X7793212Y-8811232D01*
X7947555Y-8889873D01*
X8112299Y-8943402D01*
X8283389Y-8970500D01*
X8283390Y-8970500D01*
X8456610Y-8970500D01*
X8456611Y-8970500D01*
X8627701Y-8943402D01*
X8792445Y-8889873D01*
X8946788Y-8811232D01*
X9086928Y-8709414D01*
X9209414Y-8586928D01*
X9311232Y-8446788D01*
X9389873Y-8292445D01*
X9443402Y-8127701D01*
X9470500Y-7956611D01*
X9470500Y-6383389D01*
X9443402Y-6212299D01*
X9389873Y-6047555D01*
X9311232Y-5893212D01*
X9238100Y-5792556D01*
X9214622Y-5726753D01*
X9230447Y-5658699D01*
X9280552Y-5610004D01*
X9288308Y-5606250D01*
X9342765Y-5582206D01*
X9422206Y-5502765D01*
X9467585Y-5399991D01*
X9470500Y-5374865D01*
X9470499Y-3043389D01*
X9809500Y-3043389D01*
X9809500Y-4616611D01*
X9836598Y-4787701D01*
X9890127Y-4952445D01*
X9968768Y-5106788D01*
X10070586Y-5246928D01*
X10070588Y-5246930D01*
X10193072Y-5369414D01*
X10234733Y-5399683D01*
X10277398Y-5455013D01*
X10283376Y-5524627D01*
X10250769Y-5586421D01*
X10234733Y-5600317D01*
X10193072Y-5630585D01*
X10070588Y-5753069D01*
X10070588Y-5753070D01*
X10070586Y-5753072D01*
X10047104Y-5785392D01*
X9968768Y-5893211D01*
X9890128Y-6047552D01*
X9836597Y-6212302D01*
X9809500Y-6383389D01*
X9809500Y-7956610D01*
X9835934Y-8123512D01*
X9836598Y-8127701D01*
X9890127Y-8292445D01*
X9968768Y-8446788D01*
X10070586Y-8586928D01*
X10193072Y-8709414D01*
X10333212Y-8811232D01*
X10487555Y-8889873D01*
X10652299Y-8943402D01*
X10823389Y-8970500D01*
X10823390Y-8970500D01*
X10996610Y-8970500D01*
X10996611Y-8970500D01*
X11167701Y-8943402D01*
X11332445Y-8889873D01*
X11486788Y-8811232D01*
X11626928Y-8709414D01*
X11749414Y-8586928D01*
X11851232Y-8446788D01*
X11929873Y-8292445D01*
X11983402Y-8127701D01*
X12010500Y-7956611D01*
X12010500Y-6383389D01*
X11983402Y-6212299D01*
X11929873Y-6047555D01*
X11851232Y-5893212D01*
X11749414Y-5753072D01*
X11626928Y-5630586D01*
X11585265Y-5600316D01*
X11542602Y-5544988D01*
X11536623Y-5475374D01*
X11569229Y-5413579D01*
X11585266Y-5399683D01*
X11626928Y-5369414D01*
X11749414Y-5246928D01*
X11851232Y-5106788D01*
X11929873Y-4952445D01*
X11983402Y-4787701D01*
X12010500Y-4616611D01*
X12010500Y-3043389D01*
X12349500Y-3043389D01*
X12349500Y-4616611D01*
X12376598Y-4787701D01*
X12430127Y-4952445D01*
X12508768Y-5106788D01*
X12610586Y-5246928D01*
X12610588Y-5246930D01*
X12733072Y-5369414D01*
X12774733Y-5399683D01*
X12817398Y-5455013D01*
X12823376Y-5524627D01*
X12790769Y-5586421D01*
X12774733Y-5600317D01*
X12733072Y-5630585D01*
X12610588Y-5753069D01*
X12610588Y-5753070D01*
X12610586Y-5753072D01*
X12587104Y-5785392D01*
X12508768Y-5893211D01*
X12430128Y-6047552D01*
X12376597Y-6212302D01*
X12349500Y-6383389D01*
X12349500Y-7956610D01*
X12375934Y-8123512D01*
X12376598Y-8127701D01*
X12430127Y-8292445D01*
X12508768Y-8446788D01*
X12610586Y-8586928D01*
X12733072Y-8709414D01*
X12873212Y-8811232D01*
X13027555Y-8889873D01*
X13192299Y-8943402D01*
X13363389Y-8970500D01*
X13363390Y-8970500D01*
X13536610Y-8970500D01*
X13536611Y-8970500D01*
X13707701Y-8943402D01*
X13872445Y-8889873D01*
X14026788Y-8811232D01*
X14166928Y-8709414D01*
X14289414Y-8586928D01*
X14391232Y-8446788D01*
X14469873Y-8292445D01*
X14523402Y-8127701D01*
X14550500Y-7956611D01*
X14550500Y-6383389D01*
X14523402Y-6212299D01*
X14469873Y-6047555D01*
X14391232Y-5893212D01*
X14289414Y-5753072D01*
X14166928Y-5630586D01*
X14125265Y-5600316D01*
X14082602Y-5544988D01*
X14076623Y-5475374D01*
X14109229Y-5413579D01*
X14125266Y-5399683D01*
X14166928Y-5369414D01*
X14289414Y-5246928D01*
X14391232Y-5106788D01*
X14469873Y-4952445D01*
X14523402Y-4787701D01*
X14550500Y-4616611D01*
X14550500Y-3043389D01*
X14889500Y-3043389D01*
X14889500Y-4616611D01*
X14916598Y-4787701D01*
X14970127Y-4952445D01*
X15048768Y-5106788D01*
X15150586Y-5246928D01*
X15150588Y-5246930D01*
X15273072Y-5369414D01*
X15314733Y-5399683D01*
X15357398Y-5455013D01*
X15363376Y-5524627D01*
X15330769Y-5586421D01*
X15314733Y-5600317D01*
X15273072Y-5630585D01*
X15150588Y-5753069D01*
X15150588Y-5753070D01*
X15150586Y-5753072D01*
X15127104Y-5785392D01*
X15048768Y-5893211D01*
X14970128Y-6047552D01*
X14916597Y-6212302D01*
X14889500Y-6383389D01*
X14889500Y-7956610D01*
X14915934Y-8123512D01*
X14916598Y-8127701D01*
X14970127Y-8292445D01*
X15048768Y-8446788D01*
X15150586Y-8586928D01*
X15273072Y-8709414D01*
X15413212Y-8811232D01*
X15567555Y-8889873D01*
X15732299Y-8943402D01*
X15903389Y-8970500D01*
X15903390Y-8970500D01*
X16076610Y-8970500D01*
X16076611Y-8970500D01*
X16247701Y-8943402D01*
X16412445Y-8889873D01*
X16566788Y-8811232D01*
X16706928Y-8709414D01*
X16829414Y-8586928D01*
X16931232Y-8446788D01*
X17009873Y-8292445D01*
X17063402Y-8127701D01*
X17090500Y-7956611D01*
X17090500Y-6383389D01*
X17063402Y-6212299D01*
X17009873Y-6047555D01*
X16931232Y-5893212D01*
X16829414Y-5753072D01*
X16706928Y-5630586D01*
X16665265Y-5600316D01*
X16622602Y-5544988D01*
X16616623Y-5475374D01*
X16649229Y-5413579D01*
X16665266Y-5399683D01*
X16706928Y-5369414D01*
X16829414Y-5246928D01*
X16931232Y-5106788D01*
X17009873Y-4952445D01*
X17063402Y-4787701D01*
X17090500Y-4616611D01*
X17090500Y-3043389D01*
X17429500Y-3043389D01*
X17429500Y-4616611D01*
X17456598Y-4787701D01*
X17510127Y-4952445D01*
X17588768Y-5106788D01*
X17690586Y-5246928D01*
X17690588Y-5246930D01*
X17813072Y-5369414D01*
X17854733Y-5399683D01*
X17897398Y-5455013D01*
X17903376Y-5524627D01*
X17870769Y-5586421D01*
X17854733Y-5600317D01*
X17813072Y-5630585D01*
X17690588Y-5753069D01*
X17690588Y-5753070D01*
X17690586Y-5753072D01*
X17667104Y-5785392D01*
X17588768Y-5893211D01*
X17510128Y-6047552D01*
X17456597Y-6212302D01*
X17429500Y-6383389D01*
X17429500Y-7956610D01*
X17455934Y-8123512D01*
X17456598Y-8127701D01*
X17510127Y-8292445D01*
X17588768Y-8446788D01*
X17690586Y-8586928D01*
X17813072Y-8709414D01*
X17953212Y-8811232D01*
X18107555Y-8889873D01*
X18272299Y-8943402D01*
X18443389Y-8970500D01*
X18443390Y-8970500D01*
X18616610Y-8970500D01*
X18616611Y-8970500D01*
X18787701Y-8943402D01*
X18952445Y-8889873D01*
X19106788Y-8811232D01*
X19246928Y-8709414D01*
X19369414Y-8586928D01*
X19471232Y-8446788D01*
X19549873Y-8292445D01*
X19603402Y-8127701D01*
X19630500Y-7956611D01*
X19630500Y-6383389D01*
X19603402Y-6212299D01*
X19549873Y-6047555D01*
X19471232Y-5893212D01*
X19369414Y-5753072D01*
X19246928Y-5630586D01*
X19205265Y-5600316D01*
X19162602Y-5544988D01*
X19156623Y-5475374D01*
X19189229Y-5413579D01*
X19205266Y-5399683D01*
X19246928Y-5369414D01*
X19369414Y-5246928D01*
X19471232Y-5106788D01*
X19549873Y-4952445D01*
X19603402Y-4787701D01*
X19630500Y-4616611D01*
X19630500Y-3043389D01*
X19969500Y-3043389D01*
X19969500Y-4616611D01*
X19996598Y-4787701D01*
X20050127Y-4952445D01*
X20128768Y-5106788D01*
X20230586Y-5246928D01*
X20230588Y-5246930D01*
X20353072Y-5369414D01*
X20394733Y-5399683D01*
X20437398Y-5455013D01*
X20443376Y-5524627D01*
X20410769Y-5586421D01*
X20394733Y-5600317D01*
X20353072Y-5630585D01*
X20230588Y-5753069D01*
X20230588Y-5753070D01*
X20230586Y-5753072D01*
X20207104Y-5785392D01*
X20128768Y-5893211D01*
X20050128Y-6047552D01*
X19996597Y-6212302D01*
X19969500Y-6383389D01*
X19969500Y-7956610D01*
X19995934Y-8123512D01*
X19996598Y-8127701D01*
X20050127Y-8292445D01*
X20128768Y-8446788D01*
X20230586Y-8586928D01*
X20353072Y-8709414D01*
X20493212Y-8811232D01*
X20647555Y-8889873D01*
X20812299Y-8943402D01*
X20983389Y-8970500D01*
X20983390Y-8970500D01*
X21156610Y-8970500D01*
X21156611Y-8970500D01*
X21327701Y-8943402D01*
X21492445Y-8889873D01*
X21646788Y-8811232D01*
X21786928Y-8709414D01*
X21909414Y-8586928D01*
X22011232Y-8446788D01*
X22089873Y-8292445D01*
X22143402Y-8127701D01*
X22170500Y-7956611D01*
X22170500Y-6383389D01*
X22143402Y-6212299D01*
X22089873Y-6047555D01*
X22011232Y-5893212D01*
X21909414Y-5753072D01*
X21786928Y-5630586D01*
X21745265Y-5600316D01*
X21702602Y-5544988D01*
X21696623Y-5475374D01*
X21729229Y-5413579D01*
X21745266Y-5399683D01*
X21786928Y-5369414D01*
X21909414Y-5246928D01*
X22011232Y-5106788D01*
X22089873Y-4952445D01*
X22143402Y-4787701D01*
X22170500Y-4616611D01*
X22170500Y-3043389D01*
X22509500Y-3043389D01*
X22509500Y-4616611D01*
X22536598Y-4787701D01*
X22590127Y-4952445D01*
X22668768Y-5106788D01*
X22770586Y-5246928D01*
X22770588Y-5246930D01*
X22893072Y-5369414D01*
X22934733Y-5399683D01*
X22977398Y-5455013D01*
X22983376Y-5524627D01*
X22950769Y-5586421D01*
X22934733Y-5600317D01*
X22893072Y-5630585D01*
X22770588Y-5753069D01*
X22770588Y-5753070D01*
X22770586Y-5753072D01*
X22747104Y-5785392D01*
X22668768Y-5893211D01*
X22590128Y-6047552D01*
X22536597Y-6212302D01*
X22509500Y-6383389D01*
X22509500Y-7956610D01*
X22535934Y-8123512D01*
X22536598Y-8127701D01*
X22590127Y-8292445D01*
X22668768Y-8446788D01*
X22770586Y-8586928D01*
X22893072Y-8709414D01*
X23033212Y-8811232D01*
X23187555Y-8889873D01*
X23352299Y-8943402D01*
X23523389Y-8970500D01*
X23523390Y-8970500D01*
X23696610Y-8970500D01*
X23696611Y-8970500D01*
X23867701Y-8943402D01*
X24032445Y-8889873D01*
X24186788Y-8811232D01*
X24326928Y-8709414D01*
X24449414Y-8586928D01*
X24551232Y-8446788D01*
X24629873Y-8292445D01*
X24683402Y-8127701D01*
X24710500Y-7956611D01*
X24710500Y-6383389D01*
X24683402Y-6212299D01*
X24629873Y-6047555D01*
X24551232Y-5893212D01*
X24449414Y-5753072D01*
X24326928Y-5630586D01*
X24285265Y-5600316D01*
X24242602Y-5544988D01*
X24236623Y-5475374D01*
X24269229Y-5413579D01*
X24285266Y-5399683D01*
X24326928Y-5369414D01*
X24449414Y-5246928D01*
X24551232Y-5106788D01*
X24629873Y-4952445D01*
X24683402Y-4787701D01*
X24710500Y-4616611D01*
X24710500Y-3043389D01*
X25049500Y-3043389D01*
X25049500Y-4616611D01*
X25076598Y-4787701D01*
X25130127Y-4952445D01*
X25208768Y-5106788D01*
X25310586Y-5246928D01*
X25310588Y-5246930D01*
X25433072Y-5369414D01*
X25474733Y-5399683D01*
X25517398Y-5455013D01*
X25523376Y-5524627D01*
X25490769Y-5586421D01*
X25474733Y-5600317D01*
X25433072Y-5630585D01*
X25310588Y-5753069D01*
X25310588Y-5753070D01*
X25310586Y-5753072D01*
X25287104Y-5785392D01*
X25208768Y-5893211D01*
X25130128Y-6047552D01*
X25076597Y-6212302D01*
X25049500Y-6383389D01*
X25049500Y-7956610D01*
X25075934Y-8123512D01*
X25076598Y-8127701D01*
X25130127Y-8292445D01*
X25208768Y-8446788D01*
X25310586Y-8586928D01*
X25433072Y-8709414D01*
X25573212Y-8811232D01*
X25727555Y-8889873D01*
X25892299Y-8943402D01*
X26063389Y-8970500D01*
X26063390Y-8970500D01*
X26236610Y-8970500D01*
X26236611Y-8970500D01*
X26407701Y-8943402D01*
X26572445Y-8889873D01*
X26726788Y-8811232D01*
X26866928Y-8709414D01*
X26989414Y-8586928D01*
X27091232Y-8446788D01*
X27169873Y-8292445D01*
X27223402Y-8127701D01*
X27250500Y-7956611D01*
X27250500Y-6383389D01*
X27223402Y-6212299D01*
X27169873Y-6047555D01*
X27091232Y-5893212D01*
X26989414Y-5753072D01*
X26866928Y-5630586D01*
X26825265Y-5600316D01*
X26782602Y-5544988D01*
X26776623Y-5475374D01*
X26809229Y-5413579D01*
X26825266Y-5399683D01*
X26866928Y-5369414D01*
X26989414Y-5246928D01*
X27091232Y-5106788D01*
X27169873Y-4952445D01*
X27223402Y-4787701D01*
X27250500Y-4616611D01*
X27250500Y-3043389D01*
X27589500Y-3043389D01*
X27589500Y-4616611D01*
X27616598Y-4787701D01*
X27670127Y-4952445D01*
X27748768Y-5106788D01*
X27850586Y-5246928D01*
X27850588Y-5246930D01*
X27973072Y-5369414D01*
X28014733Y-5399683D01*
X28057398Y-5455013D01*
X28063376Y-5524627D01*
X28030769Y-5586421D01*
X28014733Y-5600317D01*
X27973072Y-5630585D01*
X27850588Y-5753069D01*
X27850588Y-5753070D01*
X27850586Y-5753072D01*
X27827104Y-5785392D01*
X27748768Y-5893211D01*
X27670128Y-6047552D01*
X27616597Y-6212302D01*
X27589500Y-6383389D01*
X27589500Y-7956610D01*
X27615934Y-8123512D01*
X27616598Y-8127701D01*
X27670127Y-8292445D01*
X27748768Y-8446788D01*
X27850586Y-8586928D01*
X27973072Y-8709414D01*
X28113212Y-8811232D01*
X28267555Y-8889873D01*
X28432299Y-8943402D01*
X28603389Y-8970500D01*
X28603390Y-8970500D01*
X28776610Y-8970500D01*
X28776611Y-8970500D01*
X28947701Y-8943402D01*
X29112445Y-8889873D01*
X29266788Y-8811232D01*
X29406928Y-8709414D01*
X29529414Y-8586928D01*
X29631232Y-8446788D01*
X29709873Y-8292445D01*
X29763402Y-8127701D01*
X29790500Y-7956611D01*
X29790500Y-6383389D01*
X29763402Y-6212299D01*
X29709873Y-6047555D01*
X29631232Y-5893212D01*
X29529414Y-5753072D01*
X29406928Y-5630586D01*
X29365265Y-5600316D01*
X29322602Y-5544988D01*
X29316623Y-5475374D01*
X29349229Y-5413579D01*
X29365266Y-5399683D01*
X29406928Y-5369414D01*
X29529414Y-5246928D01*
X29631232Y-5106788D01*
X29709873Y-4952445D01*
X29763402Y-4787701D01*
X29790500Y-4616611D01*
X29790500Y-3043389D01*
X30129500Y-3043389D01*
X30129500Y-4616611D01*
X30156598Y-4787701D01*
X30210127Y-4952445D01*
X30288768Y-5106788D01*
X30390586Y-5246928D01*
X30390588Y-5246930D01*
X30513072Y-5369414D01*
X30554733Y-5399683D01*
X30597398Y-5455013D01*
X30603376Y-5524627D01*
X30570769Y-5586421D01*
X30554733Y-5600317D01*
X30513072Y-5630585D01*
X30390588Y-5753069D01*
X30390588Y-5753070D01*
X30390586Y-5753072D01*
X30367104Y-5785392D01*
X30288768Y-5893211D01*
X30210128Y-6047552D01*
X30156597Y-6212302D01*
X30129500Y-6383389D01*
X30129500Y-7956610D01*
X30155934Y-8123512D01*
X30156598Y-8127701D01*
X30210127Y-8292445D01*
X30288768Y-8446788D01*
X30390586Y-8586928D01*
X30513072Y-8709414D01*
X30653212Y-8811232D01*
X30807555Y-8889873D01*
X30972299Y-8943402D01*
X31143389Y-8970500D01*
X31143390Y-8970500D01*
X31316610Y-8970500D01*
X31316611Y-8970500D01*
X31487701Y-8943402D01*
X31652445Y-8889873D01*
X31806788Y-8811232D01*
X31946928Y-8709414D01*
X32069414Y-8586928D01*
X32171232Y-8446788D01*
X32249873Y-8292445D01*
X32303402Y-8127701D01*
X32330500Y-7956611D01*
X32330500Y-6383389D01*
X32303402Y-6212299D01*
X32249873Y-6047555D01*
X32171232Y-5893212D01*
X32069414Y-5753072D01*
X31946928Y-5630586D01*
X31905265Y-5600316D01*
X31862602Y-5544988D01*
X31856623Y-5475374D01*
X31889229Y-5413579D01*
X31905266Y-5399683D01*
X31946928Y-5369414D01*
X32069414Y-5246928D01*
X32171232Y-5106788D01*
X32249873Y-4952445D01*
X32303402Y-4787701D01*
X32330500Y-4616611D01*
X32330500Y-3043389D01*
X32669500Y-3043389D01*
X32669500Y-4616611D01*
X32696598Y-4787701D01*
X32750127Y-4952445D01*
X32828768Y-5106788D01*
X32930586Y-5246928D01*
X32930588Y-5246930D01*
X33053072Y-5369414D01*
X33094733Y-5399683D01*
X33137398Y-5455013D01*
X33143376Y-5524627D01*
X33110769Y-5586421D01*
X33094733Y-5600317D01*
X33053072Y-5630585D01*
X32930588Y-5753069D01*
X32930588Y-5753070D01*
X32930586Y-5753072D01*
X32907104Y-5785392D01*
X32828768Y-5893211D01*
X32750128Y-6047552D01*
X32696597Y-6212302D01*
X32669500Y-6383389D01*
X32669500Y-7956610D01*
X32695934Y-8123512D01*
X32696598Y-8127701D01*
X32750127Y-8292445D01*
X32828768Y-8446788D01*
X32930586Y-8586928D01*
X33053072Y-8709414D01*
X33193212Y-8811232D01*
X33347555Y-8889873D01*
X33512299Y-8943402D01*
X33683389Y-8970500D01*
X33683390Y-8970500D01*
X33856610Y-8970500D01*
X33856611Y-8970500D01*
X34027701Y-8943402D01*
X34192445Y-8889873D01*
X34346788Y-8811232D01*
X34486928Y-8709414D01*
X34609414Y-8586928D01*
X34711232Y-8446788D01*
X34789873Y-8292445D01*
X34843402Y-8127701D01*
X34870500Y-7956611D01*
X34870500Y-6383389D01*
X34843402Y-6212299D01*
X34789873Y-6047555D01*
X34711232Y-5893212D01*
X34609414Y-5753072D01*
X34486928Y-5630586D01*
X34445265Y-5600316D01*
X34402602Y-5544988D01*
X34396623Y-5475374D01*
X34429229Y-5413579D01*
X34445266Y-5399683D01*
X34486928Y-5369414D01*
X34609414Y-5246928D01*
X34711232Y-5106788D01*
X34789873Y-4952445D01*
X34843402Y-4787701D01*
X34870500Y-4616611D01*
X34870500Y-3043389D01*
X35209500Y-3043389D01*
X35209500Y-4616611D01*
X35236598Y-4787701D01*
X35290127Y-4952445D01*
X35368768Y-5106788D01*
X35470586Y-5246928D01*
X35470588Y-5246930D01*
X35593072Y-5369414D01*
X35634733Y-5399683D01*
X35677398Y-5455013D01*
X35683376Y-5524627D01*
X35650769Y-5586421D01*
X35634733Y-5600317D01*
X35593072Y-5630585D01*
X35470588Y-5753069D01*
X35470588Y-5753070D01*
X35470586Y-5753072D01*
X35447104Y-5785392D01*
X35368768Y-5893211D01*
X35290128Y-6047552D01*
X35236597Y-6212302D01*
X35209500Y-6383389D01*
X35209500Y-7956610D01*
X35235934Y-8123512D01*
X35236598Y-8127701D01*
X35290127Y-8292445D01*
X35368768Y-8446788D01*
X35470586Y-8586928D01*
X35593072Y-8709414D01*
X35733212Y-8811232D01*
X35887555Y-8889873D01*
X36052299Y-8943402D01*
X36223389Y-8970500D01*
X36223390Y-8970500D01*
X36396610Y-8970500D01*
X36396611Y-8970500D01*
X36567701Y-8943402D01*
X36732445Y-8889873D01*
X36886788Y-8811232D01*
X37026928Y-8709414D01*
X37149414Y-8586928D01*
X37251232Y-8446788D01*
X37329873Y-8292445D01*
X37383402Y-8127701D01*
X37410500Y-7956611D01*
X37410500Y-6383389D01*
X37383402Y-6212299D01*
X37329873Y-6047555D01*
X37251232Y-5893212D01*
X37149414Y-5753072D01*
X37026928Y-5630586D01*
X36985265Y-5600316D01*
X36942602Y-5544988D01*
X36936623Y-5475374D01*
X36969229Y-5413579D01*
X36985266Y-5399683D01*
X37026928Y-5369414D01*
X37149414Y-5246928D01*
X37251232Y-5106788D01*
X37329873Y-4952445D01*
X37383402Y-4787701D01*
X37410500Y-4616611D01*
X37410500Y-3043389D01*
X37749500Y-3043389D01*
X37749500Y-4616611D01*
X37776598Y-4787701D01*
X37830127Y-4952445D01*
X37908768Y-5106788D01*
X38010586Y-5246928D01*
X38010588Y-5246930D01*
X38133072Y-5369414D01*
X38174733Y-5399683D01*
X38217398Y-5455013D01*
X38223376Y-5524627D01*
X38190769Y-5586421D01*
X38174733Y-5600317D01*
X38133072Y-5630585D01*
X38010588Y-5753069D01*
X38010588Y-5753070D01*
X38010586Y-5753072D01*
X37987104Y-5785392D01*
X37908768Y-5893211D01*
X37830128Y-6047552D01*
X37776597Y-6212302D01*
X37749500Y-6383389D01*
X37749500Y-7956610D01*
X37775934Y-8123512D01*
X37776598Y-8127701D01*
X37830127Y-8292445D01*
X37908768Y-8446788D01*
X38010586Y-8586928D01*
X38133072Y-8709414D01*
X38273212Y-8811232D01*
X38427555Y-8889873D01*
X38592299Y-8943402D01*
X38763389Y-8970500D01*
X38763390Y-8970500D01*
X38936610Y-8970500D01*
X38936611Y-8970500D01*
X39107701Y-8943402D01*
X39272445Y-8889873D01*
X39426788Y-8811232D01*
X39566928Y-8709414D01*
X39689414Y-8586928D01*
X39791232Y-8446788D01*
X39869873Y-8292445D01*
X39923402Y-8127701D01*
X39950500Y-7956611D01*
X39950500Y-6383389D01*
X39923402Y-6212299D01*
X39869873Y-6047555D01*
X39791232Y-5893212D01*
X39689414Y-5753072D01*
X39566928Y-5630586D01*
X39525265Y-5600316D01*
X39482602Y-5544988D01*
X39476623Y-5475374D01*
X39509229Y-5413579D01*
X39525266Y-5399683D01*
X39566928Y-5369414D01*
X39689414Y-5246928D01*
X39791232Y-5106788D01*
X39869873Y-4952445D01*
X39923402Y-4787701D01*
X39950500Y-4616611D01*
X39950500Y-3043389D01*
X40289500Y-3043389D01*
X40289500Y-4616611D01*
X40316598Y-4787701D01*
X40370127Y-4952445D01*
X40448768Y-5106788D01*
X40550586Y-5246928D01*
X40550588Y-5246930D01*
X40673072Y-5369414D01*
X40714733Y-5399683D01*
X40757398Y-5455013D01*
X40763376Y-5524627D01*
X40730769Y-5586421D01*
X40714733Y-5600317D01*
X40673072Y-5630585D01*
X40550588Y-5753069D01*
X40550588Y-5753070D01*
X40550586Y-5753072D01*
X40527104Y-5785392D01*
X40448768Y-5893211D01*
X40370128Y-6047552D01*
X40316597Y-6212302D01*
X40289500Y-6383389D01*
X40289500Y-7956610D01*
X40315934Y-8123512D01*
X40316598Y-8127701D01*
X40370127Y-8292445D01*
X40448768Y-8446788D01*
X40550586Y-8586928D01*
X40673072Y-8709414D01*
X40813212Y-8811232D01*
X40967555Y-8889873D01*
X41132299Y-8943402D01*
X41303389Y-8970500D01*
X41303390Y-8970500D01*
X41476610Y-8970500D01*
X41476611Y-8970500D01*
X41647701Y-8943402D01*
X41812445Y-8889873D01*
X41966788Y-8811232D01*
X42106928Y-8709414D01*
X42229414Y-8586928D01*
X42331232Y-8446788D01*
X42409873Y-8292445D01*
X42463402Y-8127701D01*
X42490500Y-7956611D01*
X42490500Y-6383389D01*
X42463402Y-6212299D01*
X42409873Y-6047555D01*
X42331232Y-5893212D01*
X42229414Y-5753072D01*
X42106928Y-5630586D01*
X42065265Y-5600316D01*
X42022602Y-5544988D01*
X42016623Y-5475374D01*
X42049229Y-5413579D01*
X42065266Y-5399683D01*
X42106928Y-5369414D01*
X42229414Y-5246928D01*
X42331232Y-5106788D01*
X42409873Y-4952445D01*
X42463402Y-4787701D01*
X42490500Y-4616611D01*
X42490500Y-3043389D01*
X42829500Y-3043389D01*
X42829500Y-4616611D01*
X42856598Y-4787701D01*
X42910127Y-4952445D01*
X42988768Y-5106788D01*
X43090586Y-5246928D01*
X43090588Y-5246930D01*
X43213072Y-5369414D01*
X43254733Y-5399683D01*
X43297398Y-5455013D01*
X43303376Y-5524627D01*
X43270769Y-5586421D01*
X43254733Y-5600317D01*
X43213072Y-5630585D01*
X43090588Y-5753069D01*
X43090588Y-5753070D01*
X43090586Y-5753072D01*
X43067104Y-5785392D01*
X42988768Y-5893211D01*
X42910128Y-6047552D01*
X42856597Y-6212302D01*
X42829500Y-6383389D01*
X42829500Y-7956610D01*
X42855934Y-8123512D01*
X42856598Y-8127701D01*
X42910127Y-8292445D01*
X42988768Y-8446788D01*
X43090586Y-8586928D01*
X43213072Y-8709414D01*
X43353212Y-8811232D01*
X43507555Y-8889873D01*
X43672299Y-8943402D01*
X43843389Y-8970500D01*
X43843390Y-8970500D01*
X44016610Y-8970500D01*
X44016611Y-8970500D01*
X44187701Y-8943402D01*
X44352445Y-8889873D01*
X44506788Y-8811232D01*
X44646928Y-8709414D01*
X44769414Y-8586928D01*
X44871232Y-8446788D01*
X44949873Y-8292445D01*
X45003402Y-8127701D01*
X45030500Y-7956611D01*
X45030500Y-6383389D01*
X45003402Y-6212299D01*
X44949873Y-6047555D01*
X44871232Y-5893212D01*
X44769414Y-5753072D01*
X44646928Y-5630586D01*
X44605265Y-5600316D01*
X44562602Y-5544988D01*
X44556623Y-5475374D01*
X44589229Y-5413579D01*
X44605266Y-5399683D01*
X44646928Y-5369414D01*
X44769414Y-5246928D01*
X44871232Y-5106788D01*
X44949873Y-4952445D01*
X45003402Y-4787701D01*
X45030500Y-4616611D01*
X45030500Y-3043389D01*
X45369500Y-3043389D01*
X45369500Y-4616611D01*
X45396598Y-4787701D01*
X45450127Y-4952445D01*
X45528768Y-5106788D01*
X45630586Y-5246928D01*
X45630588Y-5246930D01*
X45753072Y-5369414D01*
X45794733Y-5399683D01*
X45837398Y-5455013D01*
X45843376Y-5524627D01*
X45810769Y-5586421D01*
X45794733Y-5600317D01*
X45753072Y-5630585D01*
X45630588Y-5753069D01*
X45630588Y-5753070D01*
X45630586Y-5753072D01*
X45607104Y-5785392D01*
X45528768Y-5893211D01*
X45450128Y-6047552D01*
X45396597Y-6212302D01*
X45369500Y-6383389D01*
X45369500Y-7956610D01*
X45395934Y-8123512D01*
X45396598Y-8127701D01*
X45450127Y-8292445D01*
X45528768Y-8446788D01*
X45630586Y-8586928D01*
X45753072Y-8709414D01*
X45893212Y-8811232D01*
X46047555Y-8889873D01*
X46212299Y-8943402D01*
X46383389Y-8970500D01*
X46383390Y-8970500D01*
X46556610Y-8970500D01*
X46556611Y-8970500D01*
X46727701Y-8943402D01*
X46892445Y-8889873D01*
X47046788Y-8811232D01*
X47186928Y-8709414D01*
X47309414Y-8586928D01*
X47411232Y-8446788D01*
X47489873Y-8292445D01*
X47543402Y-8127701D01*
X47570500Y-7956611D01*
X47570500Y-6383389D01*
X47543402Y-6212299D01*
X47489873Y-6047555D01*
X47411232Y-5893212D01*
X47309414Y-5753072D01*
X47186928Y-5630586D01*
X47145265Y-5600316D01*
X47102602Y-5544988D01*
X47096623Y-5475374D01*
X47129229Y-5413579D01*
X47145266Y-5399683D01*
X47186928Y-5369414D01*
X47309414Y-5246928D01*
X47411232Y-5106788D01*
X47489873Y-4952445D01*
X47543402Y-4787701D01*
X47570500Y-4616611D01*
X47570500Y-3043389D01*
X47909500Y-3043389D01*
X47909500Y-4616611D01*
X47936598Y-4787701D01*
X47990127Y-4952445D01*
X48068768Y-5106788D01*
X48170586Y-5246928D01*
X48170588Y-5246930D01*
X48293072Y-5369414D01*
X48334733Y-5399683D01*
X48377398Y-5455013D01*
X48383376Y-5524627D01*
X48350769Y-5586421D01*
X48334733Y-5600317D01*
X48293072Y-5630585D01*
X48170588Y-5753069D01*
X48170588Y-5753070D01*
X48170586Y-5753072D01*
X48147104Y-5785392D01*
X48068768Y-5893211D01*
X47990128Y-6047552D01*
X47936597Y-6212302D01*
X47909500Y-6383389D01*
X47909500Y-7956610D01*
X47935934Y-8123512D01*
X47936598Y-8127701D01*
X47990127Y-8292445D01*
X48068768Y-8446788D01*
X48170586Y-8586928D01*
X48293072Y-8709414D01*
X48433212Y-8811232D01*
X48587555Y-8889873D01*
X48752299Y-8943402D01*
X48923389Y-8970500D01*
X48923390Y-8970500D01*
X49096610Y-8970500D01*
X49096611Y-8970500D01*
X49267701Y-8943402D01*
X49432445Y-8889873D01*
X49586788Y-8811232D01*
X49726928Y-8709414D01*
X49849414Y-8586928D01*
X49951232Y-8446788D01*
X50029873Y-8292445D01*
X50083402Y-8127701D01*
X50110500Y-7956611D01*
X50110500Y-6383389D01*
X50083402Y-6212299D01*
X50029873Y-6047555D01*
X49951232Y-5893212D01*
X49849414Y-5753072D01*
X49726928Y-5630586D01*
X49685265Y-5600316D01*
X49642602Y-5544988D01*
X49636623Y-5475374D01*
X49669229Y-5413579D01*
X49685266Y-5399683D01*
X49726928Y-5369414D01*
X49849414Y-5246928D01*
X49951232Y-5106788D01*
X50029873Y-4952445D01*
X50083402Y-4787701D01*
X50110500Y-4616611D01*
X50110500Y-3043389D01*
X50449500Y-3043389D01*
X50449500Y-4616611D01*
X50476598Y-4787701D01*
X50530127Y-4952445D01*
X50608768Y-5106788D01*
X50710586Y-5246928D01*
X50710588Y-5246930D01*
X50833072Y-5369414D01*
X50874733Y-5399683D01*
X50917398Y-5455013D01*
X50923376Y-5524627D01*
X50890769Y-5586421D01*
X50874733Y-5600317D01*
X50833072Y-5630585D01*
X50710588Y-5753069D01*
X50710588Y-5753070D01*
X50710586Y-5753072D01*
X50687104Y-5785392D01*
X50608768Y-5893211D01*
X50530128Y-6047552D01*
X50476597Y-6212302D01*
X50449500Y-6383389D01*
X50449500Y-7956610D01*
X50475934Y-8123512D01*
X50476598Y-8127701D01*
X50530127Y-8292445D01*
X50608768Y-8446788D01*
X50710586Y-8586928D01*
X50833072Y-8709414D01*
X50973212Y-8811232D01*
X51127555Y-8889873D01*
X51292299Y-8943402D01*
X51463389Y-8970500D01*
X51463390Y-8970500D01*
X51636610Y-8970500D01*
X51636611Y-8970500D01*
X51807701Y-8943402D01*
X51972445Y-8889873D01*
X52126788Y-8811232D01*
X52266928Y-8709414D01*
X52389414Y-8586928D01*
X52491232Y-8446788D01*
X52569873Y-8292445D01*
X52623402Y-8127701D01*
X52650500Y-7956611D01*
X52650500Y-6383389D01*
X52623402Y-6212299D01*
X52569873Y-6047555D01*
X52491232Y-5893212D01*
X52389414Y-5753072D01*
X52266928Y-5630586D01*
X52225265Y-5600316D01*
X52182602Y-5544988D01*
X52176623Y-5475374D01*
X52209229Y-5413579D01*
X52225266Y-5399683D01*
X52266928Y-5369414D01*
X52389414Y-5246928D01*
X52491232Y-5106788D01*
X52569873Y-4952445D01*
X52623402Y-4787701D01*
X52650500Y-4616611D01*
X52650500Y-3043389D01*
X52989500Y-3043389D01*
X52989500Y-4616611D01*
X53016598Y-4787701D01*
X53070127Y-4952445D01*
X53148768Y-5106788D01*
X53250586Y-5246928D01*
X53250588Y-5246930D01*
X53373072Y-5369414D01*
X53414733Y-5399683D01*
X53457398Y-5455013D01*
X53463376Y-5524627D01*
X53430769Y-5586421D01*
X53414733Y-5600317D01*
X53373072Y-5630585D01*
X53250588Y-5753069D01*
X53250588Y-5753070D01*
X53250586Y-5753072D01*
X53227104Y-5785392D01*
X53148768Y-5893211D01*
X53070128Y-6047552D01*
X53016597Y-6212302D01*
X52989500Y-6383389D01*
X52989500Y-7956610D01*
X53015934Y-8123512D01*
X53016598Y-8127701D01*
X53070127Y-8292445D01*
X53148768Y-8446788D01*
X53250586Y-8586928D01*
X53373072Y-8709414D01*
X53513212Y-8811232D01*
X53667555Y-8889873D01*
X53832299Y-8943402D01*
X54003389Y-8970500D01*
X54003390Y-8970500D01*
X54176610Y-8970500D01*
X54176611Y-8970500D01*
X54347701Y-8943402D01*
X54512445Y-8889873D01*
X54666788Y-8811232D01*
X54806928Y-8709414D01*
X54929414Y-8586928D01*
X55031232Y-8446788D01*
X55109873Y-8292445D01*
X55137186Y-8208384D01*
X55176622Y-8150711D01*
X55240981Y-8123512D01*
X55309827Y-8135427D01*
X55361303Y-8182671D01*
X55373047Y-8208385D01*
X55425244Y-8369031D01*
X55518140Y-8551349D01*
X55638417Y-8716894D01*
X55638417Y-8716895D01*
X55783104Y-8861582D01*
X55948650Y-8981859D01*
X56130968Y-9074754D01*
X56325578Y-9137988D01*
X56380000Y-9146607D01*
X56380000Y-9146606D01*
X56880000Y-9146606D01*
X56934421Y-9137988D01*
X57129031Y-9074754D01*
X57311349Y-8981859D01*
X57476894Y-8861582D01*
X57476895Y-8861582D01*
X57621582Y-8716895D01*
X57621582Y-8716894D01*
X57741859Y-8551349D01*
X57834755Y-8369031D01*
X57897990Y-8174417D01*
X57930000Y-7972317D01*
X57930000Y-7420000D01*
X56880000Y-7420000D01*
X56880000Y-9146606D01*
X56380000Y-9146606D01*
X56380000Y-7294000D01*
X56399685Y-7226961D01*
X56408400Y-7219409D01*
X56437007Y-7235925D01*
X56564174Y-7270000D01*
X56695826Y-7270000D01*
X56822993Y-7235925D01*
X56937007Y-7170099D01*
X57030099Y-7077007D01*
X57095925Y-6962993D01*
X57107445Y-6920000D01*
X57930000Y-6920000D01*
X57930000Y-6367682D01*
X57897990Y-6165582D01*
X57834755Y-5970968D01*
X57741859Y-5788650D01*
X57621582Y-5623105D01*
X57621582Y-5623104D01*
X57586159Y-5587681D01*
X57552674Y-5526358D01*
X57557658Y-5456666D01*
X57586159Y-5412319D01*
X57621584Y-5376893D01*
X57706484Y-5260037D01*
X57706484Y-5260036D01*
X57006777Y-4560329D01*
X57030099Y-4537007D01*
X57095925Y-4422993D01*
X57130000Y-4295826D01*
X57130000Y-4164174D01*
X57095925Y-4037007D01*
X57030099Y-3922993D01*
X56937105Y-3829999D01*
X56983552Y-3829999D01*
X56983552Y-3830000D01*
X57910291Y-4756740D01*
X57910292Y-4756739D01*
X57930000Y-4632311D01*
X57930000Y-3385921D01*
X59759500Y-3385921D01*
X59759500Y-3614078D01*
X59789278Y-3840272D01*
X59789279Y-3840277D01*
X59789280Y-3840283D01*
X59789281Y-3840285D01*
X59848331Y-4060666D01*
X59935638Y-4271446D01*
X59935646Y-4271462D01*
X60049717Y-4469037D01*
X60049728Y-4469053D01*
X60188613Y-4650052D01*
X60188619Y-4650059D01*
X60349940Y-4811380D01*
X60349946Y-4811385D01*
X60530955Y-4950278D01*
X60530962Y-4950282D01*
X60728537Y-5064353D01*
X60728553Y-5064361D01*
X60830982Y-5106788D01*
X60939334Y-5151669D01*
X61159717Y-5210720D01*
X61319474Y-5231752D01*
X61385921Y-5240500D01*
X61385922Y-5240500D01*
X61614079Y-5240500D01*
X61665438Y-5233738D01*
X61840283Y-5210720D01*
X62060666Y-5151669D01*
X62226365Y-5083033D01*
X62271446Y-5064361D01*
X62271449Y-5064359D01*
X62271455Y-5064357D01*
X62469045Y-4950278D01*
X62650054Y-4811385D01*
X62811385Y-4650054D01*
X62950278Y-4469045D01*
X63064357Y-4271455D01*
X63151669Y-4060666D01*
X63210720Y-3840283D01*
X63240500Y-3614078D01*
X63240500Y-3385922D01*
X63210720Y-3159717D01*
X63151669Y-2939334D01*
X63111463Y-2842268D01*
X63064361Y-2728553D01*
X63064353Y-2728537D01*
X62950282Y-2530962D01*
X62950278Y-2530955D01*
X62859821Y-2413069D01*
X62811386Y-2349947D01*
X62811380Y-2349940D01*
X62650059Y-2188619D01*
X62650052Y-2188613D01*
X62469053Y-2049728D01*
X62469051Y-2049726D01*
X62469045Y-2049722D01*
X62469040Y-2049719D01*
X62469037Y-2049717D01*
X62271462Y-1935646D01*
X62271446Y-1935638D01*
X62060666Y-1848331D01*
X61992253Y-1830000D01*
X61840283Y-1789280D01*
X61840277Y-1789279D01*
X61840272Y-1789278D01*
X61614079Y-1759500D01*
X61614078Y-1759500D01*
X61385922Y-1759500D01*
X61385921Y-1759500D01*
X61159727Y-1789278D01*
X61159720Y-1789279D01*
X61159717Y-1789280D01*
X61066567Y-1814239D01*
X60939333Y-1848331D01*
X60728553Y-1935638D01*
X60728537Y-1935646D01*
X60530962Y-2049717D01*
X60530946Y-2049728D01*
X60349947Y-2188613D01*
X60349940Y-2188619D01*
X60188619Y-2349940D01*
X60188613Y-2349947D01*
X60049728Y-2530946D01*
X60049717Y-2530962D01*
X59935646Y-2728537D01*
X59935638Y-2728553D01*
X59848331Y-2939333D01*
X59789281Y-3159714D01*
X59789278Y-3159727D01*
X59759500Y-3385921D01*
X57930000Y-3385921D01*
X57930000Y-3027688D01*
X57910292Y-2903259D01*
X56983552Y-3829999D01*
X56937105Y-3829999D01*
X56937007Y-3829901D01*
X56822993Y-3764075D01*
X56695826Y-3730000D01*
X56564174Y-3730000D01*
X56437007Y-3764075D01*
X56322993Y-3829901D01*
X56229901Y-3922993D01*
X56164075Y-4037007D01*
X56130000Y-4164174D01*
X56130000Y-4295826D01*
X56164075Y-4422993D01*
X56229901Y-4537007D01*
X56253222Y-4560328D01*
X55553513Y-5260036D01*
X55638417Y-5376895D01*
X55673841Y-5412319D01*
X55707326Y-5473642D01*
X55702342Y-5543334D01*
X55673841Y-5587681D01*
X55638417Y-5623104D01*
X55638417Y-5623105D01*
X55518140Y-5788650D01*
X55425244Y-5970968D01*
X55373047Y-6131614D01*
X55333609Y-6189289D01*
X55269250Y-6216487D01*
X55200404Y-6204572D01*
X55148928Y-6157328D01*
X55137186Y-6131615D01*
X55109873Y-6047555D01*
X55031232Y-5893212D01*
X54929414Y-5753072D01*
X54806928Y-5630586D01*
X54765265Y-5600316D01*
X54722602Y-5544988D01*
X54716623Y-5475374D01*
X54749229Y-5413579D01*
X54765266Y-5399683D01*
X54806928Y-5369414D01*
X54929414Y-5246928D01*
X55031232Y-5106788D01*
X55109873Y-4952445D01*
X55151974Y-4822870D01*
X55191410Y-4765198D01*
X55255769Y-4737999D01*
X55308222Y-4743260D01*
X55349707Y-4756739D01*
X56276448Y-3830000D01*
X56276448Y-3829999D01*
X55349707Y-2903258D01*
X55308221Y-2916738D01*
X55238380Y-2918733D01*
X55178547Y-2882653D01*
X55151974Y-2837129D01*
X55109873Y-2707555D01*
X55031232Y-2553212D01*
X54929414Y-2413072D01*
X54916304Y-2399962D01*
X55553513Y-2399962D01*
X55553514Y-2399963D01*
X56630000Y-3476448D01*
X56630001Y-3476448D01*
X57706484Y-2399963D01*
X57706485Y-2399961D01*
X57621587Y-2283110D01*
X57621582Y-2283104D01*
X57476895Y-2138417D01*
X57311349Y-2018140D01*
X57129031Y-1925244D01*
X56934417Y-1862009D01*
X56732317Y-1830000D01*
X56527683Y-1830000D01*
X56325582Y-1862009D01*
X56130968Y-1925244D01*
X55948650Y-2018140D01*
X55783105Y-2138417D01*
X55783104Y-2138417D01*
X55638416Y-2283105D01*
X55553513Y-2399962D01*
X54916304Y-2399962D01*
X54806928Y-2290586D01*
X54666788Y-2188768D01*
X54512445Y-2110127D01*
X54347701Y-2056598D01*
X54347699Y-2056597D01*
X54347698Y-2056597D01*
X54216271Y-2035781D01*
X54176611Y-2029500D01*
X54003389Y-2029500D01*
X53963728Y-2035781D01*
X53832302Y-2056597D01*
X53667552Y-2110128D01*
X53513211Y-2188768D01*
X53433256Y-2246859D01*
X53373072Y-2290586D01*
X53373070Y-2290588D01*
X53373069Y-2290588D01*
X53250588Y-2413069D01*
X53250588Y-2413070D01*
X53250586Y-2413072D01*
X53206859Y-2473256D01*
X53148768Y-2553211D01*
X53070128Y-2707552D01*
X53016597Y-2872302D01*
X52991987Y-3027688D01*
X52989500Y-3043389D01*
X52650500Y-3043389D01*
X52623402Y-2872299D01*
X52569873Y-2707555D01*
X52491232Y-2553212D01*
X52389414Y-2413072D01*
X52266928Y-2290586D01*
X52126788Y-2188768D01*
X51972445Y-2110127D01*
X51807701Y-2056598D01*
X51807699Y-2056597D01*
X51807698Y-2056597D01*
X51676271Y-2035781D01*
X51636611Y-2029500D01*
X51463389Y-2029500D01*
X51423728Y-2035781D01*
X51292302Y-2056597D01*
X51127552Y-2110128D01*
X50973211Y-2188768D01*
X50893256Y-2246859D01*
X50833072Y-2290586D01*
X50833070Y-2290588D01*
X50833069Y-2290588D01*
X50710588Y-2413069D01*
X50710588Y-2413070D01*
X50710586Y-2413072D01*
X50666859Y-2473256D01*
X50608768Y-2553211D01*
X50530128Y-2707552D01*
X50476597Y-2872302D01*
X50451987Y-3027688D01*
X50449500Y-3043389D01*
X50110500Y-3043389D01*
X50083402Y-2872299D01*
X50029873Y-2707555D01*
X49951232Y-2553212D01*
X49849414Y-2413072D01*
X49726928Y-2290586D01*
X49586788Y-2188768D01*
X49432445Y-2110127D01*
X49267701Y-2056598D01*
X49267699Y-2056597D01*
X49267698Y-2056597D01*
X49136271Y-2035781D01*
X49096611Y-2029500D01*
X48923389Y-2029500D01*
X48883728Y-2035781D01*
X48752302Y-2056597D01*
X48587552Y-2110128D01*
X48433211Y-2188768D01*
X48353256Y-2246859D01*
X48293072Y-2290586D01*
X48293070Y-2290588D01*
X48293069Y-2290588D01*
X48170588Y-2413069D01*
X48170588Y-2413070D01*
X48170586Y-2413072D01*
X48126859Y-2473256D01*
X48068768Y-2553211D01*
X47990128Y-2707552D01*
X47936597Y-2872302D01*
X47911987Y-3027688D01*
X47909500Y-3043389D01*
X47570500Y-3043389D01*
X47543402Y-2872299D01*
X47489873Y-2707555D01*
X47411232Y-2553212D01*
X47309414Y-2413072D01*
X47186928Y-2290586D01*
X47046788Y-2188768D01*
X46892445Y-2110127D01*
X46727701Y-2056598D01*
X46727699Y-2056597D01*
X46727698Y-2056597D01*
X46596271Y-2035781D01*
X46556611Y-2029500D01*
X46383389Y-2029500D01*
X46343728Y-2035781D01*
X46212302Y-2056597D01*
X46047552Y-2110128D01*
X45893211Y-2188768D01*
X45813256Y-2246859D01*
X45753072Y-2290586D01*
X45753070Y-2290588D01*
X45753069Y-2290588D01*
X45630588Y-2413069D01*
X45630588Y-2413070D01*
X45630586Y-2413072D01*
X45586859Y-2473256D01*
X45528768Y-2553211D01*
X45450128Y-2707552D01*
X45396597Y-2872302D01*
X45371987Y-3027688D01*
X45369500Y-3043389D01*
X45030500Y-3043389D01*
X45003402Y-2872299D01*
X44949873Y-2707555D01*
X44871232Y-2553212D01*
X44769414Y-2413072D01*
X44646928Y-2290586D01*
X44506788Y-2188768D01*
X44352445Y-2110127D01*
X44187701Y-2056598D01*
X44187699Y-2056597D01*
X44187698Y-2056597D01*
X44056271Y-2035781D01*
X44016611Y-2029500D01*
X43843389Y-2029500D01*
X43803728Y-2035781D01*
X43672302Y-2056597D01*
X43507552Y-2110128D01*
X43353211Y-2188768D01*
X43273256Y-2246859D01*
X43213072Y-2290586D01*
X43213070Y-2290588D01*
X43213069Y-2290588D01*
X43090588Y-2413069D01*
X43090588Y-2413070D01*
X43090586Y-2413072D01*
X43046859Y-2473256D01*
X42988768Y-2553211D01*
X42910128Y-2707552D01*
X42856597Y-2872302D01*
X42831987Y-3027688D01*
X42829500Y-3043389D01*
X42490500Y-3043389D01*
X42463402Y-2872299D01*
X42409873Y-2707555D01*
X42331232Y-2553212D01*
X42229414Y-2413072D01*
X42106928Y-2290586D01*
X41966788Y-2188768D01*
X41812445Y-2110127D01*
X41647701Y-2056598D01*
X41647699Y-2056597D01*
X41647698Y-2056597D01*
X41516271Y-2035781D01*
X41476611Y-2029500D01*
X41303389Y-2029500D01*
X41263728Y-2035781D01*
X41132302Y-2056597D01*
X40967552Y-2110128D01*
X40813211Y-2188768D01*
X40733256Y-2246859D01*
X40673072Y-2290586D01*
X40673070Y-2290588D01*
X40673069Y-2290588D01*
X40550588Y-2413069D01*
X40550588Y-2413070D01*
X40550586Y-2413072D01*
X40506859Y-2473256D01*
X40448768Y-2553211D01*
X40370128Y-2707552D01*
X40316597Y-2872302D01*
X40291987Y-3027688D01*
X40289500Y-3043389D01*
X39950500Y-3043389D01*
X39923402Y-2872299D01*
X39869873Y-2707555D01*
X39791232Y-2553212D01*
X39689414Y-2413072D01*
X39566928Y-2290586D01*
X39426788Y-2188768D01*
X39272445Y-2110127D01*
X39107701Y-2056598D01*
X39107699Y-2056597D01*
X39107698Y-2056597D01*
X38976271Y-2035781D01*
X38936611Y-2029500D01*
X38763389Y-2029500D01*
X38723728Y-2035781D01*
X38592302Y-2056597D01*
X38427552Y-2110128D01*
X38273211Y-2188768D01*
X38193256Y-2246859D01*
X38133072Y-2290586D01*
X38133070Y-2290588D01*
X38133069Y-2290588D01*
X38010588Y-2413069D01*
X38010588Y-2413070D01*
X38010586Y-2413072D01*
X37966859Y-2473256D01*
X37908768Y-2553211D01*
X37830128Y-2707552D01*
X37776597Y-2872302D01*
X37751987Y-3027688D01*
X37749500Y-3043389D01*
X37410500Y-3043389D01*
X37383402Y-2872299D01*
X37329873Y-2707555D01*
X37251232Y-2553212D01*
X37149414Y-2413072D01*
X37026928Y-2290586D01*
X36886788Y-2188768D01*
X36732445Y-2110127D01*
X36567701Y-2056598D01*
X36567699Y-2056597D01*
X36567698Y-2056597D01*
X36436271Y-2035781D01*
X36396611Y-2029500D01*
X36223389Y-2029500D01*
X36183728Y-2035781D01*
X36052302Y-2056597D01*
X35887552Y-2110128D01*
X35733211Y-2188768D01*
X35653256Y-2246859D01*
X35593072Y-2290586D01*
X35593070Y-2290588D01*
X35593069Y-2290588D01*
X35470588Y-2413069D01*
X35470588Y-2413070D01*
X35470586Y-2413072D01*
X35426859Y-2473256D01*
X35368768Y-2553211D01*
X35290128Y-2707552D01*
X35236597Y-2872302D01*
X35211987Y-3027688D01*
X35209500Y-3043389D01*
X34870500Y-3043389D01*
X34843402Y-2872299D01*
X34789873Y-2707555D01*
X34711232Y-2553212D01*
X34609414Y-2413072D01*
X34486928Y-2290586D01*
X34346788Y-2188768D01*
X34192445Y-2110127D01*
X34027701Y-2056598D01*
X34027699Y-2056597D01*
X34027698Y-2056597D01*
X33896271Y-2035781D01*
X33856611Y-2029500D01*
X33683389Y-2029500D01*
X33643728Y-2035781D01*
X33512302Y-2056597D01*
X33347552Y-2110128D01*
X33193211Y-2188768D01*
X33113256Y-2246859D01*
X33053072Y-2290586D01*
X33053070Y-2290588D01*
X33053069Y-2290588D01*
X32930588Y-2413069D01*
X32930588Y-2413070D01*
X32930586Y-2413072D01*
X32886859Y-2473256D01*
X32828768Y-2553211D01*
X32750128Y-2707552D01*
X32696597Y-2872302D01*
X32671987Y-3027688D01*
X32669500Y-3043389D01*
X32330500Y-3043389D01*
X32303402Y-2872299D01*
X32249873Y-2707555D01*
X32171232Y-2553212D01*
X32069414Y-2413072D01*
X31946928Y-2290586D01*
X31806788Y-2188768D01*
X31652445Y-2110127D01*
X31487701Y-2056598D01*
X31487699Y-2056597D01*
X31487698Y-2056597D01*
X31356271Y-2035781D01*
X31316611Y-2029500D01*
X31143389Y-2029500D01*
X31103728Y-2035781D01*
X30972302Y-2056597D01*
X30807552Y-2110128D01*
X30653211Y-2188768D01*
X30573256Y-2246859D01*
X30513072Y-2290586D01*
X30513070Y-2290588D01*
X30513069Y-2290588D01*
X30390588Y-2413069D01*
X30390588Y-2413070D01*
X30390586Y-2413072D01*
X30346859Y-2473256D01*
X30288768Y-2553211D01*
X30210128Y-2707552D01*
X30156597Y-2872302D01*
X30131987Y-3027688D01*
X30129500Y-3043389D01*
X29790500Y-3043389D01*
X29763402Y-2872299D01*
X29709873Y-2707555D01*
X29631232Y-2553212D01*
X29529414Y-2413072D01*
X29406928Y-2290586D01*
X29266788Y-2188768D01*
X29112445Y-2110127D01*
X28947701Y-2056598D01*
X28947699Y-2056597D01*
X28947698Y-2056597D01*
X28816271Y-2035781D01*
X28776611Y-2029500D01*
X28603389Y-2029500D01*
X28563728Y-2035781D01*
X28432302Y-2056597D01*
X28267552Y-2110128D01*
X28113211Y-2188768D01*
X28033256Y-2246859D01*
X27973072Y-2290586D01*
X27973070Y-2290588D01*
X27973069Y-2290588D01*
X27850588Y-2413069D01*
X27850588Y-2413070D01*
X27850586Y-2413072D01*
X27806859Y-2473256D01*
X27748768Y-2553211D01*
X27670128Y-2707552D01*
X27616597Y-2872302D01*
X27591987Y-3027688D01*
X27589500Y-3043389D01*
X27250500Y-3043389D01*
X27223402Y-2872299D01*
X27169873Y-2707555D01*
X27091232Y-2553212D01*
X26989414Y-2413072D01*
X26866928Y-2290586D01*
X26726788Y-2188768D01*
X26572445Y-2110127D01*
X26407701Y-2056598D01*
X26407699Y-2056597D01*
X26407698Y-2056597D01*
X26276271Y-2035781D01*
X26236611Y-2029500D01*
X26063389Y-2029500D01*
X26023728Y-2035781D01*
X25892302Y-2056597D01*
X25727552Y-2110128D01*
X25573211Y-2188768D01*
X25493256Y-2246859D01*
X25433072Y-2290586D01*
X25433070Y-2290588D01*
X25433069Y-2290588D01*
X25310588Y-2413069D01*
X25310588Y-2413070D01*
X25310586Y-2413072D01*
X25266859Y-2473256D01*
X25208768Y-2553211D01*
X25130128Y-2707552D01*
X25076597Y-2872302D01*
X25051987Y-3027688D01*
X25049500Y-3043389D01*
X24710500Y-3043389D01*
X24683402Y-2872299D01*
X24629873Y-2707555D01*
X24551232Y-2553212D01*
X24449414Y-2413072D01*
X24326928Y-2290586D01*
X24186788Y-2188768D01*
X24032445Y-2110127D01*
X23867701Y-2056598D01*
X23867699Y-2056597D01*
X23867698Y-2056597D01*
X23736271Y-2035781D01*
X23696611Y-2029500D01*
X23523389Y-2029500D01*
X23483728Y-2035781D01*
X23352302Y-2056597D01*
X23187552Y-2110128D01*
X23033211Y-2188768D01*
X22953256Y-2246859D01*
X22893072Y-2290586D01*
X22893070Y-2290588D01*
X22893069Y-2290588D01*
X22770588Y-2413069D01*
X22770588Y-2413070D01*
X22770586Y-2413072D01*
X22726859Y-2473256D01*
X22668768Y-2553211D01*
X22590128Y-2707552D01*
X22536597Y-2872302D01*
X22511987Y-3027688D01*
X22509500Y-3043389D01*
X22170500Y-3043389D01*
X22143402Y-2872299D01*
X22089873Y-2707555D01*
X22011232Y-2553212D01*
X21909414Y-2413072D01*
X21786928Y-2290586D01*
X21646788Y-2188768D01*
X21492445Y-2110127D01*
X21327701Y-2056598D01*
X21327699Y-2056597D01*
X21327698Y-2056597D01*
X21196271Y-2035781D01*
X21156611Y-2029500D01*
X20983389Y-2029500D01*
X20943728Y-2035781D01*
X20812302Y-2056597D01*
X20647552Y-2110128D01*
X20493211Y-2188768D01*
X20413256Y-2246859D01*
X20353072Y-2290586D01*
X20353070Y-2290588D01*
X20353069Y-2290588D01*
X20230588Y-2413069D01*
X20230588Y-2413070D01*
X20230586Y-2413072D01*
X20186859Y-2473256D01*
X20128768Y-2553211D01*
X20050128Y-2707552D01*
X19996597Y-2872302D01*
X19971987Y-3027688D01*
X19969500Y-3043389D01*
X19630500Y-3043389D01*
X19603402Y-2872299D01*
X19549873Y-2707555D01*
X19471232Y-2553212D01*
X19369414Y-2413072D01*
X19246928Y-2290586D01*
X19106788Y-2188768D01*
X18952445Y-2110127D01*
X18787701Y-2056598D01*
X18787699Y-2056597D01*
X18787698Y-2056597D01*
X18656271Y-2035781D01*
X18616611Y-2029500D01*
X18443389Y-2029500D01*
X18403728Y-2035781D01*
X18272302Y-2056597D01*
X18107552Y-2110128D01*
X17953211Y-2188768D01*
X17873256Y-2246859D01*
X17813072Y-2290586D01*
X17813070Y-2290588D01*
X17813069Y-2290588D01*
X17690588Y-2413069D01*
X17690588Y-2413070D01*
X17690586Y-2413072D01*
X17646859Y-2473256D01*
X17588768Y-2553211D01*
X17510128Y-2707552D01*
X17456597Y-2872302D01*
X17431987Y-3027688D01*
X17429500Y-3043389D01*
X17090500Y-3043389D01*
X17063402Y-2872299D01*
X17009873Y-2707555D01*
X16931232Y-2553212D01*
X16829414Y-2413072D01*
X16706928Y-2290586D01*
X16566788Y-2188768D01*
X16412445Y-2110127D01*
X16247701Y-2056598D01*
X16247699Y-2056597D01*
X16247698Y-2056597D01*
X16116271Y-2035781D01*
X16076611Y-2029500D01*
X15903389Y-2029500D01*
X15863728Y-2035781D01*
X15732302Y-2056597D01*
X15567552Y-2110128D01*
X15413211Y-2188768D01*
X15333256Y-2246859D01*
X15273072Y-2290586D01*
X15273070Y-2290588D01*
X15273069Y-2290588D01*
X15150588Y-2413069D01*
X15150588Y-2413070D01*
X15150586Y-2413072D01*
X15106859Y-2473256D01*
X15048768Y-2553211D01*
X14970128Y-2707552D01*
X14916597Y-2872302D01*
X14891987Y-3027688D01*
X14889500Y-3043389D01*
X14550500Y-3043389D01*
X14523402Y-2872299D01*
X14469873Y-2707555D01*
X14391232Y-2553212D01*
X14289414Y-2413072D01*
X14166928Y-2290586D01*
X14026788Y-2188768D01*
X13872445Y-2110127D01*
X13707701Y-2056598D01*
X13707699Y-2056597D01*
X13707698Y-2056597D01*
X13576271Y-2035781D01*
X13536611Y-2029500D01*
X13363389Y-2029500D01*
X13323728Y-2035781D01*
X13192302Y-2056597D01*
X13027552Y-2110128D01*
X12873211Y-2188768D01*
X12793256Y-2246859D01*
X12733072Y-2290586D01*
X12733070Y-2290588D01*
X12733069Y-2290588D01*
X12610588Y-2413069D01*
X12610588Y-2413070D01*
X12610586Y-2413072D01*
X12566859Y-2473256D01*
X12508768Y-2553211D01*
X12430128Y-2707552D01*
X12376597Y-2872302D01*
X12351987Y-3027688D01*
X12349500Y-3043389D01*
X12010500Y-3043389D01*
X11983402Y-2872299D01*
X11929873Y-2707555D01*
X11851232Y-2553212D01*
X11749414Y-2413072D01*
X11626928Y-2290586D01*
X11486788Y-2188768D01*
X11332445Y-2110127D01*
X11167701Y-2056598D01*
X11167699Y-2056597D01*
X11167698Y-2056597D01*
X11036271Y-2035781D01*
X10996611Y-2029500D01*
X10823389Y-2029500D01*
X10783728Y-2035781D01*
X10652302Y-2056597D01*
X10487552Y-2110128D01*
X10333211Y-2188768D01*
X10253256Y-2246859D01*
X10193072Y-2290586D01*
X10193070Y-2290588D01*
X10193069Y-2290588D01*
X10070588Y-2413069D01*
X10070588Y-2413070D01*
X10070586Y-2413072D01*
X10026859Y-2473256D01*
X9968768Y-2553211D01*
X9890128Y-2707552D01*
X9836597Y-2872302D01*
X9811987Y-3027688D01*
X9809500Y-3043389D01*
X9470499Y-3043389D01*
X9470499Y-2285136D01*
X9470264Y-2283110D01*
X9467586Y-2260012D01*
X9467585Y-2260010D01*
X9467585Y-2260009D01*
X9422206Y-2157235D01*
X9342765Y-2077794D01*
X9342763Y-2077793D01*
X9239992Y-2032415D01*
X9214865Y-2029500D01*
X7525143Y-2029500D01*
X7525117Y-2029502D01*
X7500012Y-2032413D01*
X7500008Y-2032415D01*
X7397235Y-2077793D01*
X7317794Y-2157234D01*
X7272415Y-2260006D01*
X7272415Y-2260008D01*
X7269500Y-2285131D01*
X4746571Y-2285131D01*
X4650059Y-2188619D01*
X4650052Y-2188613D01*
X4469053Y-2049728D01*
X4469051Y-2049726D01*
X4469045Y-2049722D01*
X4469040Y-2049719D01*
X4469037Y-2049717D01*
X4271462Y-1935646D01*
X4271446Y-1935638D01*
X4060666Y-1848331D01*
X3992253Y-1830000D01*
X3840283Y-1789280D01*
X3840277Y-1789279D01*
X3840272Y-1789278D01*
X3614079Y-1759500D01*
X3614078Y-1759500D01*
X3385922Y-1759500D01*
X3385921Y-1759500D01*
X3159727Y-1789278D01*
X3159720Y-1789279D01*
X3159717Y-1789280D01*
X3066567Y-1814239D01*
X2939333Y-1848331D01*
X2728553Y-1935638D01*
X2728537Y-1935646D01*
X2530962Y-2049717D01*
X2530946Y-2049728D01*
X2349947Y-2188613D01*
X2349940Y-2188619D01*
X2188619Y-2349940D01*
X2188613Y-2349947D01*
X2049728Y-2530946D01*
X2049717Y-2530962D01*
X1935646Y-2728537D01*
X1935638Y-2728553D01*
X1848331Y-2939333D01*
X1789281Y-3159714D01*
X1789278Y-3159727D01*
X1759500Y-3385921D01*
X400500Y-3385921D01*
X400500Y-524500D01*
X420185Y-457461D01*
X472989Y-411706D01*
X524500Y-400500D01*
X64475500Y-400500D01*
X64542539Y-420185D01*
G37*
%TD.AperFunction*%
%TD*%
%TA.AperFunction,NonConductor*%
G36*
X36408342Y-24190185D02*
G01*
X36451788Y-24238206D01*
X36463713Y-24261611D01*
X36584028Y-24427213D01*
X36654634Y-24497819D01*
X36688119Y-24559142D01*
X36683135Y-24628834D01*
X36641263Y-24684767D01*
X36575799Y-24709184D01*
X36566953Y-24709500D01*
X15067663Y-24709500D01*
X15000624Y-24689815D01*
X14979986Y-24673185D01*
X14826335Y-24519534D01*
X14711603Y-24442873D01*
X14711604Y-24442873D01*
X14711599Y-24442870D01*
X14629974Y-24409061D01*
X14575570Y-24365220D01*
X14553505Y-24298926D01*
X14570784Y-24231227D01*
X14621921Y-24183616D01*
X14677426Y-24170500D01*
X36341303Y-24170500D01*
X36408342Y-24190185D01*
G37*
%TD.AperFunction*%
%TA.AperFunction,NonConductor*%
G36*
X49344099Y-22950185D02*
G01*
X49364741Y-22966819D01*
X51543898Y-25145976D01*
X51577383Y-25207299D01*
X51579835Y-25243377D01*
X51579500Y-25247637D01*
X51579500Y-25452351D01*
X51611522Y-25654534D01*
X51674781Y-25849223D01*
X51725533Y-25948827D01*
X51765721Y-26027701D01*
X51767715Y-26031613D01*
X51888028Y-26197213D01*
X52032786Y-26341971D01*
X52164829Y-26437904D01*
X52198390Y-26462287D01*
X52270889Y-26499227D01*
X52380776Y-26555218D01*
X52380778Y-26555218D01*
X52380781Y-26555220D01*
X52575466Y-26618477D01*
X52740900Y-26644679D01*
X52804034Y-26674608D01*
X52840965Y-26733920D01*
X52839967Y-26803782D01*
X52809182Y-26854833D01*
X52590835Y-27073181D01*
X52529512Y-27106666D01*
X52503154Y-27109500D01*
X41459308Y-27109500D01*
X41392269Y-27089815D01*
X41346514Y-27037011D01*
X41336570Y-26967853D01*
X41341377Y-26947181D01*
X41366293Y-26870500D01*
X41384477Y-26814534D01*
X41416500Y-26612352D01*
X41416500Y-26407648D01*
X41384477Y-26205466D01*
X41381797Y-26197219D01*
X41348962Y-26096162D01*
X41321220Y-26010781D01*
X41321218Y-26010778D01*
X41321218Y-26010776D01*
X41287503Y-25944607D01*
X41228287Y-25828390D01*
X41220556Y-25817749D01*
X41107971Y-25662786D01*
X40963213Y-25518028D01*
X40797613Y-25397715D01*
X40797612Y-25397714D01*
X40797610Y-25397713D01*
X40699164Y-25347552D01*
X40615223Y-25304781D01*
X40420534Y-25241522D01*
X40218352Y-25209500D01*
X40216446Y-25209350D01*
X40215765Y-25209090D01*
X40213540Y-25208738D01*
X40213614Y-25208270D01*
X40151160Y-25184461D01*
X40109693Y-25128227D01*
X40102185Y-25085733D01*
X40102185Y-25035574D01*
X40070162Y-24833391D01*
X40025715Y-24696598D01*
X40006905Y-24638707D01*
X40006903Y-24638704D01*
X40006903Y-24638702D01*
X39972899Y-24571966D01*
X39913972Y-24456316D01*
X39892828Y-24427213D01*
X39793656Y-24290712D01*
X39648898Y-24145954D01*
X39483298Y-24025641D01*
X39483297Y-24025640D01*
X39483295Y-24025639D01*
X39426338Y-23996617D01*
X39300908Y-23932707D01*
X39106219Y-23869448D01*
X38975686Y-23848774D01*
X38912551Y-23818845D01*
X38875620Y-23759533D01*
X38872611Y-23706904D01*
X38876500Y-23682352D01*
X38876500Y-23477648D01*
X38844477Y-23275465D01*
X38805916Y-23156788D01*
X38785130Y-23092817D01*
X38783136Y-23022977D01*
X38819216Y-22963144D01*
X38881917Y-22932316D01*
X38903062Y-22930500D01*
X49277060Y-22930500D01*
X49344099Y-22950185D01*
G37*
%TD.AperFunction*%
%TA.AperFunction,NonConductor*%
G36*
X18118373Y-27694477D02*
G01*
X18164128Y-27747281D01*
X18174072Y-27816439D01*
X18169266Y-27837103D01*
X18154963Y-27881123D01*
X18125934Y-27970464D01*
X18093912Y-28172647D01*
X18093912Y-28377350D01*
X18125934Y-28579533D01*
X18189194Y-28774224D01*
X18191829Y-28779395D01*
X18204721Y-28848065D01*
X18178442Y-28912804D01*
X18137639Y-28946167D01*
X18104908Y-28962845D01*
X17939306Y-29083160D01*
X17794548Y-29227918D01*
X17674235Y-29393518D01*
X17581301Y-29575908D01*
X17518042Y-29770597D01*
X17486020Y-29972780D01*
X17486020Y-30177483D01*
X17518042Y-30379666D01*
X17561143Y-30512313D01*
X17563138Y-30582155D01*
X17527058Y-30641988D01*
X17464357Y-30672816D01*
X17443212Y-30674632D01*
X16274914Y-30674632D01*
X16207875Y-30654947D01*
X16162120Y-30602143D01*
X16150914Y-30550632D01*
X16150914Y-30501255D01*
X16118891Y-30299072D01*
X16055632Y-30104383D01*
X15986096Y-29967913D01*
X15962701Y-29921997D01*
X15953090Y-29908768D01*
X15842385Y-29756393D01*
X15697627Y-29611635D01*
X15532025Y-29491320D01*
X15525584Y-29488038D01*
X15474790Y-29440063D01*
X15457996Y-29372241D01*
X15480535Y-29306107D01*
X15525587Y-29267070D01*
X15529215Y-29265221D01*
X15529219Y-29265220D01*
X15711610Y-29172287D01*
X15834284Y-29083160D01*
X15877213Y-29051971D01*
X15877215Y-29051968D01*
X15877219Y-29051966D01*
X16021966Y-28907219D01*
X16021968Y-28907215D01*
X16021971Y-28907213D01*
X16074732Y-28834590D01*
X16142287Y-28741610D01*
X16235220Y-28559219D01*
X16298477Y-28364534D01*
X16313152Y-28271876D01*
X16343081Y-28208742D01*
X16347926Y-28203611D01*
X16840428Y-27711111D01*
X16901751Y-27677626D01*
X16928109Y-27674792D01*
X18051334Y-27674792D01*
X18118373Y-27694477D01*
G37*
%TD.AperFunction*%
M02*
