%TF.GenerationSoftware,KiCad,Pcbnew,9.0.7*%
%TF.CreationDate,2026-05-06T21:08:42+02:00*%
%TF.ProjectId,BarePi_LCD160x80,42617265-5069-45f4-9c43-443136307838,rev?*%
%TF.SameCoordinates,Original*%
%TF.FileFunction,AssemblyDrawing,Top*%
%FSLAX46Y46*%
G04 Gerber Fmt 4.6, Leading zero omitted, Abs format (unit mm)*
G04 Created by KiCad (PCBNEW 9.0.7) date 2026-05-06 21:08:42*
%MOMM*%
%LPD*%
G01*
G04 APERTURE LIST*
%ADD10C,0.200000*%
%ADD11C,0.150000*%
%ADD12C,0.120000*%
%ADD13C,0.100000*%
G04 APERTURE END LIST*
D10*
X16610000Y-10250000D02*
X16610000Y-34250000D01*
X45610000Y-34250000D02*
X16610000Y-34250000D01*
X20610000Y-15250000D02*
X44610000Y-15250000D01*
X20610000Y-29250000D02*
X20610000Y-15250000D01*
X44610000Y-15250000D02*
X44610000Y-29250000D01*
X16610000Y-10250000D02*
X45610000Y-10250000D01*
X44610000Y-29250000D02*
X20610000Y-29250000D01*
X45610000Y-10250000D02*
X45610000Y-34250000D01*
D11*
X3380000Y-39354819D02*
X3570476Y-39354819D01*
X3570476Y-39354819D02*
X3665714Y-39402438D01*
X3665714Y-39402438D02*
X3760952Y-39497676D01*
X3760952Y-39497676D02*
X3808571Y-39688152D01*
X3808571Y-39688152D02*
X3808571Y-40021485D01*
X3808571Y-40021485D02*
X3760952Y-40211961D01*
X3760952Y-40211961D02*
X3665714Y-40307200D01*
X3665714Y-40307200D02*
X3570476Y-40354819D01*
X3570476Y-40354819D02*
X3380000Y-40354819D01*
X3380000Y-40354819D02*
X3284762Y-40307200D01*
X3284762Y-40307200D02*
X3189524Y-40211961D01*
X3189524Y-40211961D02*
X3141905Y-40021485D01*
X3141905Y-40021485D02*
X3141905Y-39688152D01*
X3141905Y-39688152D02*
X3189524Y-39497676D01*
X3189524Y-39497676D02*
X3284762Y-39402438D01*
X3284762Y-39402438D02*
X3380000Y-39354819D01*
X4237143Y-39354819D02*
X4237143Y-40164342D01*
X4237143Y-40164342D02*
X4284762Y-40259580D01*
X4284762Y-40259580D02*
X4332381Y-40307200D01*
X4332381Y-40307200D02*
X4427619Y-40354819D01*
X4427619Y-40354819D02*
X4618095Y-40354819D01*
X4618095Y-40354819D02*
X4713333Y-40307200D01*
X4713333Y-40307200D02*
X4760952Y-40259580D01*
X4760952Y-40259580D02*
X4808571Y-40164342D01*
X4808571Y-40164342D02*
X4808571Y-39354819D01*
X5141905Y-39354819D02*
X5713333Y-39354819D01*
X5427619Y-40354819D02*
X5427619Y-39354819D01*
X5016466Y-37038219D02*
X5016466Y-37752504D01*
X5016466Y-37752504D02*
X4968847Y-37895361D01*
X4968847Y-37895361D02*
X4873609Y-37990600D01*
X4873609Y-37990600D02*
X4730752Y-38038219D01*
X4730752Y-38038219D02*
X4635514Y-38038219D01*
X5445038Y-37133457D02*
X5492657Y-37085838D01*
X5492657Y-37085838D02*
X5587895Y-37038219D01*
X5587895Y-37038219D02*
X5825990Y-37038219D01*
X5825990Y-37038219D02*
X5921228Y-37085838D01*
X5921228Y-37085838D02*
X5968847Y-37133457D01*
X5968847Y-37133457D02*
X6016466Y-37228695D01*
X6016466Y-37228695D02*
X6016466Y-37323933D01*
X6016466Y-37323933D02*
X5968847Y-37466790D01*
X5968847Y-37466790D02*
X5397419Y-38038219D01*
X5397419Y-38038219D02*
X6016466Y-38038219D01*
X17909523Y-13529819D02*
X17433333Y-13529819D01*
X17433333Y-13529819D02*
X17433333Y-12529819D01*
X18814285Y-13434580D02*
X18766666Y-13482200D01*
X18766666Y-13482200D02*
X18623809Y-13529819D01*
X18623809Y-13529819D02*
X18528571Y-13529819D01*
X18528571Y-13529819D02*
X18385714Y-13482200D01*
X18385714Y-13482200D02*
X18290476Y-13386961D01*
X18290476Y-13386961D02*
X18242857Y-13291723D01*
X18242857Y-13291723D02*
X18195238Y-13101247D01*
X18195238Y-13101247D02*
X18195238Y-12958390D01*
X18195238Y-12958390D02*
X18242857Y-12767914D01*
X18242857Y-12767914D02*
X18290476Y-12672676D01*
X18290476Y-12672676D02*
X18385714Y-12577438D01*
X18385714Y-12577438D02*
X18528571Y-12529819D01*
X18528571Y-12529819D02*
X18623809Y-12529819D01*
X18623809Y-12529819D02*
X18766666Y-12577438D01*
X18766666Y-12577438D02*
X18814285Y-12625057D01*
X19242857Y-13529819D02*
X19242857Y-12529819D01*
X19242857Y-12529819D02*
X19480952Y-12529819D01*
X19480952Y-12529819D02*
X19623809Y-12577438D01*
X19623809Y-12577438D02*
X19719047Y-12672676D01*
X19719047Y-12672676D02*
X19766666Y-12767914D01*
X19766666Y-12767914D02*
X19814285Y-12958390D01*
X19814285Y-12958390D02*
X19814285Y-13101247D01*
X19814285Y-13101247D02*
X19766666Y-13291723D01*
X19766666Y-13291723D02*
X19719047Y-13386961D01*
X19719047Y-13386961D02*
X19623809Y-13482200D01*
X19623809Y-13482200D02*
X19480952Y-13529819D01*
X19480952Y-13529819D02*
X19242857Y-13529819D01*
X18591666Y-11029819D02*
X18591666Y-11744104D01*
X18591666Y-11744104D02*
X18544047Y-11886961D01*
X18544047Y-11886961D02*
X18448809Y-11982200D01*
X18448809Y-11982200D02*
X18305952Y-12029819D01*
X18305952Y-12029819D02*
X18210714Y-12029819D01*
X18972619Y-11029819D02*
X19591666Y-11029819D01*
X19591666Y-11029819D02*
X19258333Y-11410771D01*
X19258333Y-11410771D02*
X19401190Y-11410771D01*
X19401190Y-11410771D02*
X19496428Y-11458390D01*
X19496428Y-11458390D02*
X19544047Y-11506009D01*
X19544047Y-11506009D02*
X19591666Y-11601247D01*
X19591666Y-11601247D02*
X19591666Y-11839342D01*
X19591666Y-11839342D02*
X19544047Y-11934580D01*
X19544047Y-11934580D02*
X19496428Y-11982200D01*
X19496428Y-11982200D02*
X19401190Y-12029819D01*
X19401190Y-12029819D02*
X19115476Y-12029819D01*
X19115476Y-12029819D02*
X19020238Y-11982200D01*
X19020238Y-11982200D02*
X18972619Y-11934580D01*
X55601905Y-24714819D02*
X55840000Y-25714819D01*
X55840000Y-25714819D02*
X56030476Y-25000533D01*
X56030476Y-25000533D02*
X56220952Y-25714819D01*
X56220952Y-25714819D02*
X56459048Y-24714819D01*
X57411428Y-25619580D02*
X57363809Y-25667200D01*
X57363809Y-25667200D02*
X57220952Y-25714819D01*
X57220952Y-25714819D02*
X57125714Y-25714819D01*
X57125714Y-25714819D02*
X56982857Y-25667200D01*
X56982857Y-25667200D02*
X56887619Y-25571961D01*
X56887619Y-25571961D02*
X56840000Y-25476723D01*
X56840000Y-25476723D02*
X56792381Y-25286247D01*
X56792381Y-25286247D02*
X56792381Y-25143390D01*
X56792381Y-25143390D02*
X56840000Y-24952914D01*
X56840000Y-24952914D02*
X56887619Y-24857676D01*
X56887619Y-24857676D02*
X56982857Y-24762438D01*
X56982857Y-24762438D02*
X57125714Y-24714819D01*
X57125714Y-24714819D02*
X57220952Y-24714819D01*
X57220952Y-24714819D02*
X57363809Y-24762438D01*
X57363809Y-24762438D02*
X57411428Y-24810057D01*
X57840000Y-25714819D02*
X57840000Y-24714819D01*
X57840000Y-25191009D02*
X58411428Y-25191009D01*
X58411428Y-25714819D02*
X58411428Y-24714819D01*
X58887619Y-25333866D02*
X59649524Y-25333866D01*
X60601904Y-25714819D02*
X60125714Y-25714819D01*
X60125714Y-25714819D02*
X60125714Y-24714819D01*
X60935238Y-25714819D02*
X60935238Y-24714819D01*
X61411428Y-25714819D02*
X61411428Y-24714819D01*
X61411428Y-24714819D02*
X61982856Y-25714819D01*
X61982856Y-25714819D02*
X61982856Y-24714819D01*
X62459047Y-25714819D02*
X62459047Y-24714819D01*
X63030475Y-25714819D02*
X62601904Y-25143390D01*
X63030475Y-24714819D02*
X62459047Y-25286247D01*
X54516666Y-14554819D02*
X54516666Y-15269104D01*
X54516666Y-15269104D02*
X54469047Y-15411961D01*
X54469047Y-15411961D02*
X54373809Y-15507200D01*
X54373809Y-15507200D02*
X54230952Y-15554819D01*
X54230952Y-15554819D02*
X54135714Y-15554819D01*
X55421428Y-14888152D02*
X55421428Y-15554819D01*
X55183333Y-14507200D02*
X54945238Y-15221485D01*
X54945238Y-15221485D02*
X55564285Y-15221485D01*
X3506191Y-8404819D02*
X3506191Y-7404819D01*
X3982381Y-8404819D02*
X3982381Y-7404819D01*
X3982381Y-7404819D02*
X4553809Y-8404819D01*
X4553809Y-8404819D02*
X4553809Y-7404819D01*
X4916666Y-8934819D02*
X4916666Y-9649104D01*
X4916666Y-9649104D02*
X4869047Y-9791961D01*
X4869047Y-9791961D02*
X4773809Y-9887200D01*
X4773809Y-9887200D02*
X4630952Y-9934819D01*
X4630952Y-9934819D02*
X4535714Y-9934819D01*
X5916666Y-9934819D02*
X5345238Y-9934819D01*
X5630952Y-9934819D02*
X5630952Y-8934819D01*
X5630952Y-8934819D02*
X5535714Y-9077676D01*
X5535714Y-9077676D02*
X5440476Y-9172914D01*
X5440476Y-9172914D02*
X5345238Y-9220533D01*
X56069380Y-10938819D02*
X55497952Y-10938819D01*
X55783666Y-10938819D02*
X55783666Y-9938819D01*
X55783666Y-9938819D02*
X55688428Y-10081676D01*
X55688428Y-10081676D02*
X55593190Y-10176914D01*
X55593190Y-10176914D02*
X55497952Y-10224533D01*
X56688428Y-9938819D02*
X56783666Y-9938819D01*
X56783666Y-9938819D02*
X56878904Y-9986438D01*
X56878904Y-9986438D02*
X56926523Y-10034057D01*
X56926523Y-10034057D02*
X56974142Y-10129295D01*
X56974142Y-10129295D02*
X57021761Y-10319771D01*
X57021761Y-10319771D02*
X57021761Y-10557866D01*
X57021761Y-10557866D02*
X56974142Y-10748342D01*
X56974142Y-10748342D02*
X56926523Y-10843580D01*
X56926523Y-10843580D02*
X56878904Y-10891200D01*
X56878904Y-10891200D02*
X56783666Y-10938819D01*
X56783666Y-10938819D02*
X56688428Y-10938819D01*
X56688428Y-10938819D02*
X56593190Y-10891200D01*
X56593190Y-10891200D02*
X56545571Y-10843580D01*
X56545571Y-10843580D02*
X56497952Y-10748342D01*
X56497952Y-10748342D02*
X56450333Y-10557866D01*
X56450333Y-10557866D02*
X56450333Y-10319771D01*
X56450333Y-10319771D02*
X56497952Y-10129295D01*
X56497952Y-10129295D02*
X56545571Y-10034057D01*
X56545571Y-10034057D02*
X56593190Y-9986438D01*
X56593190Y-9986438D02*
X56688428Y-9938819D01*
X57640809Y-9938819D02*
X57736047Y-9938819D01*
X57736047Y-9938819D02*
X57831285Y-9986438D01*
X57831285Y-9986438D02*
X57878904Y-10034057D01*
X57878904Y-10034057D02*
X57926523Y-10129295D01*
X57926523Y-10129295D02*
X57974142Y-10319771D01*
X57974142Y-10319771D02*
X57974142Y-10557866D01*
X57974142Y-10557866D02*
X57926523Y-10748342D01*
X57926523Y-10748342D02*
X57878904Y-10843580D01*
X57878904Y-10843580D02*
X57831285Y-10891200D01*
X57831285Y-10891200D02*
X57736047Y-10938819D01*
X57736047Y-10938819D02*
X57640809Y-10938819D01*
X57640809Y-10938819D02*
X57545571Y-10891200D01*
X57545571Y-10891200D02*
X57497952Y-10843580D01*
X57497952Y-10843580D02*
X57450333Y-10748342D01*
X57450333Y-10748342D02*
X57402714Y-10557866D01*
X57402714Y-10557866D02*
X57402714Y-10319771D01*
X57402714Y-10319771D02*
X57450333Y-10129295D01*
X57450333Y-10129295D02*
X57497952Y-10034057D01*
X57497952Y-10034057D02*
X57545571Y-9986438D01*
X57545571Y-9986438D02*
X57640809Y-9938819D01*
X58402714Y-10272152D02*
X58402714Y-10938819D01*
X58402714Y-10367390D02*
X58450333Y-10319771D01*
X58450333Y-10319771D02*
X58545571Y-10272152D01*
X58545571Y-10272152D02*
X58688428Y-10272152D01*
X58688428Y-10272152D02*
X58783666Y-10319771D01*
X58783666Y-10319771D02*
X58831285Y-10415009D01*
X58831285Y-10415009D02*
X58831285Y-10938819D01*
X59640809Y-10415009D02*
X59307476Y-10415009D01*
X59307476Y-10938819D02*
X59307476Y-9938819D01*
X59307476Y-9938819D02*
X59783666Y-9938819D01*
D12*
X61142333Y-12927140D02*
X61094714Y-12974760D01*
X61094714Y-12974760D02*
X60951857Y-13022379D01*
X60951857Y-13022379D02*
X60856619Y-13022379D01*
X60856619Y-13022379D02*
X60713762Y-12974760D01*
X60713762Y-12974760D02*
X60618524Y-12879521D01*
X60618524Y-12879521D02*
X60570905Y-12784283D01*
X60570905Y-12784283D02*
X60523286Y-12593807D01*
X60523286Y-12593807D02*
X60523286Y-12450950D01*
X60523286Y-12450950D02*
X60570905Y-12260474D01*
X60570905Y-12260474D02*
X60618524Y-12165236D01*
X60618524Y-12165236D02*
X60713762Y-12069998D01*
X60713762Y-12069998D02*
X60856619Y-12022379D01*
X60856619Y-12022379D02*
X60951857Y-12022379D01*
X60951857Y-12022379D02*
X61094714Y-12069998D01*
X61094714Y-12069998D02*
X61142333Y-12117617D01*
X61523286Y-12117617D02*
X61570905Y-12069998D01*
X61570905Y-12069998D02*
X61666143Y-12022379D01*
X61666143Y-12022379D02*
X61904238Y-12022379D01*
X61904238Y-12022379D02*
X61999476Y-12069998D01*
X61999476Y-12069998D02*
X62047095Y-12117617D01*
X62047095Y-12117617D02*
X62094714Y-12212855D01*
X62094714Y-12212855D02*
X62094714Y-12308093D01*
X62094714Y-12308093D02*
X62047095Y-12450950D01*
X62047095Y-12450950D02*
X61475667Y-13022379D01*
X61475667Y-13022379D02*
X62094714Y-13022379D01*
D11*
X61937714Y-41819104D02*
X62413904Y-41819104D01*
X61842476Y-42104819D02*
X62175809Y-41104819D01*
X62175809Y-41104819D02*
X62509142Y-42104819D01*
X62794857Y-41200057D02*
X62842476Y-41152438D01*
X62842476Y-41152438D02*
X62937714Y-41104819D01*
X62937714Y-41104819D02*
X63175809Y-41104819D01*
X63175809Y-41104819D02*
X63271047Y-41152438D01*
X63271047Y-41152438D02*
X63318666Y-41200057D01*
X63318666Y-41200057D02*
X63366285Y-41295295D01*
X63366285Y-41295295D02*
X63366285Y-41390533D01*
X63366285Y-41390533D02*
X63318666Y-41533390D01*
X63318666Y-41533390D02*
X62747238Y-42104819D01*
X62747238Y-42104819D02*
X63366285Y-42104819D01*
X63979580Y-35008571D02*
X64027200Y-35056190D01*
X64027200Y-35056190D02*
X64074819Y-35199047D01*
X64074819Y-35199047D02*
X64074819Y-35294285D01*
X64074819Y-35294285D02*
X64027200Y-35437142D01*
X64027200Y-35437142D02*
X63931961Y-35532380D01*
X63931961Y-35532380D02*
X63836723Y-35579999D01*
X63836723Y-35579999D02*
X63646247Y-35627618D01*
X63646247Y-35627618D02*
X63503390Y-35627618D01*
X63503390Y-35627618D02*
X63312914Y-35579999D01*
X63312914Y-35579999D02*
X63217676Y-35532380D01*
X63217676Y-35532380D02*
X63122438Y-35437142D01*
X63122438Y-35437142D02*
X63074819Y-35294285D01*
X63074819Y-35294285D02*
X63074819Y-35199047D01*
X63074819Y-35199047D02*
X63122438Y-35056190D01*
X63122438Y-35056190D02*
X63170057Y-35008571D01*
X64074819Y-34579999D02*
X63074819Y-34579999D01*
X63551009Y-34579999D02*
X63551009Y-34008571D01*
X64074819Y-34008571D02*
X63074819Y-34008571D01*
X63074819Y-33627618D02*
X63074819Y-33008571D01*
X63074819Y-33008571D02*
X63455771Y-33341904D01*
X63455771Y-33341904D02*
X63455771Y-33199047D01*
X63455771Y-33199047D02*
X63503390Y-33103809D01*
X63503390Y-33103809D02*
X63551009Y-33056190D01*
X63551009Y-33056190D02*
X63646247Y-33008571D01*
X63646247Y-33008571D02*
X63884342Y-33008571D01*
X63884342Y-33008571D02*
X63979580Y-33056190D01*
X63979580Y-33056190D02*
X64027200Y-33103809D01*
X64027200Y-33103809D02*
X64074819Y-33199047D01*
X64074819Y-33199047D02*
X64074819Y-33484761D01*
X64074819Y-33484761D02*
X64027200Y-33579999D01*
X64027200Y-33579999D02*
X63979580Y-33627618D01*
X63170057Y-32627618D02*
X63122438Y-32579999D01*
X63122438Y-32579999D02*
X63074819Y-32484761D01*
X63074819Y-32484761D02*
X63074819Y-32246666D01*
X63074819Y-32246666D02*
X63122438Y-32151428D01*
X63122438Y-32151428D02*
X63170057Y-32103809D01*
X63170057Y-32103809D02*
X63265295Y-32056190D01*
X63265295Y-32056190D02*
X63360533Y-32056190D01*
X63360533Y-32056190D02*
X63503390Y-32103809D01*
X63503390Y-32103809D02*
X64074819Y-32675237D01*
X64074819Y-32675237D02*
X64074819Y-32056190D01*
X63074819Y-31770475D02*
X64074819Y-31437142D01*
X64074819Y-31437142D02*
X63074819Y-31103809D01*
X63074819Y-30579999D02*
X63074819Y-30484761D01*
X63074819Y-30484761D02*
X63122438Y-30389523D01*
X63122438Y-30389523D02*
X63170057Y-30341904D01*
X63170057Y-30341904D02*
X63265295Y-30294285D01*
X63265295Y-30294285D02*
X63455771Y-30246666D01*
X63455771Y-30246666D02*
X63693866Y-30246666D01*
X63693866Y-30246666D02*
X63884342Y-30294285D01*
X63884342Y-30294285D02*
X63979580Y-30341904D01*
X63979580Y-30341904D02*
X64027200Y-30389523D01*
X64027200Y-30389523D02*
X64074819Y-30484761D01*
X64074819Y-30484761D02*
X64074819Y-30579999D01*
X64074819Y-30579999D02*
X64027200Y-30675237D01*
X64027200Y-30675237D02*
X63979580Y-30722856D01*
X63979580Y-30722856D02*
X63884342Y-30770475D01*
X63884342Y-30770475D02*
X63693866Y-30818094D01*
X63693866Y-30818094D02*
X63455771Y-30818094D01*
X63455771Y-30818094D02*
X63265295Y-30770475D01*
X63265295Y-30770475D02*
X63170057Y-30722856D01*
X63170057Y-30722856D02*
X63122438Y-30675237D01*
X63122438Y-30675237D02*
X63074819Y-30579999D01*
X63074819Y-29627618D02*
X63074819Y-29532380D01*
X63074819Y-29532380D02*
X63122438Y-29437142D01*
X63122438Y-29437142D02*
X63170057Y-29389523D01*
X63170057Y-29389523D02*
X63265295Y-29341904D01*
X63265295Y-29341904D02*
X63455771Y-29294285D01*
X63455771Y-29294285D02*
X63693866Y-29294285D01*
X63693866Y-29294285D02*
X63884342Y-29341904D01*
X63884342Y-29341904D02*
X63979580Y-29389523D01*
X63979580Y-29389523D02*
X64027200Y-29437142D01*
X64027200Y-29437142D02*
X64074819Y-29532380D01*
X64074819Y-29532380D02*
X64074819Y-29627618D01*
X64074819Y-29627618D02*
X64027200Y-29722856D01*
X64027200Y-29722856D02*
X63979580Y-29770475D01*
X63979580Y-29770475D02*
X63884342Y-29818094D01*
X63884342Y-29818094D02*
X63693866Y-29865713D01*
X63693866Y-29865713D02*
X63455771Y-29865713D01*
X63455771Y-29865713D02*
X63265295Y-29818094D01*
X63265295Y-29818094D02*
X63170057Y-29770475D01*
X63170057Y-29770475D02*
X63122438Y-29722856D01*
X63122438Y-29722856D02*
X63074819Y-29627618D01*
X63170057Y-28913332D02*
X63122438Y-28865713D01*
X63122438Y-28865713D02*
X63074819Y-28770475D01*
X63074819Y-28770475D02*
X63074819Y-28532380D01*
X63074819Y-28532380D02*
X63122438Y-28437142D01*
X63122438Y-28437142D02*
X63170057Y-28389523D01*
X63170057Y-28389523D02*
X63265295Y-28341904D01*
X63265295Y-28341904D02*
X63360533Y-28341904D01*
X63360533Y-28341904D02*
X63503390Y-28389523D01*
X63503390Y-28389523D02*
X64074819Y-28960951D01*
X64074819Y-28960951D02*
X64074819Y-28341904D01*
X63074819Y-27627618D02*
X63789104Y-27627618D01*
X63789104Y-27627618D02*
X63931961Y-27675237D01*
X63931961Y-27675237D02*
X64027200Y-27770475D01*
X64027200Y-27770475D02*
X64074819Y-27913332D01*
X64074819Y-27913332D02*
X64074819Y-28008570D01*
X63408152Y-26722856D02*
X64074819Y-26722856D01*
X63027200Y-26960951D02*
X63741485Y-27199046D01*
X63741485Y-27199046D02*
X63741485Y-26579999D01*
X64074819Y-26199046D02*
X63074819Y-26199046D01*
X63074819Y-26199046D02*
X63789104Y-25865713D01*
X63789104Y-25865713D02*
X63074819Y-25532380D01*
X63074819Y-25532380D02*
X64074819Y-25532380D01*
X63074819Y-24627618D02*
X63074819Y-24818094D01*
X63074819Y-24818094D02*
X63122438Y-24913332D01*
X63122438Y-24913332D02*
X63170057Y-24960951D01*
X63170057Y-24960951D02*
X63312914Y-25056189D01*
X63312914Y-25056189D02*
X63503390Y-25103808D01*
X63503390Y-25103808D02*
X63884342Y-25103808D01*
X63884342Y-25103808D02*
X63979580Y-25056189D01*
X63979580Y-25056189D02*
X64027200Y-25008570D01*
X64027200Y-25008570D02*
X64074819Y-24913332D01*
X64074819Y-24913332D02*
X64074819Y-24722856D01*
X64074819Y-24722856D02*
X64027200Y-24627618D01*
X64027200Y-24627618D02*
X63979580Y-24579999D01*
X63979580Y-24579999D02*
X63884342Y-24532380D01*
X63884342Y-24532380D02*
X63646247Y-24532380D01*
X63646247Y-24532380D02*
X63551009Y-24579999D01*
X63551009Y-24579999D02*
X63503390Y-24627618D01*
X63503390Y-24627618D02*
X63455771Y-24722856D01*
X63455771Y-24722856D02*
X63455771Y-24913332D01*
X63455771Y-24913332D02*
X63503390Y-25008570D01*
X63503390Y-25008570D02*
X63551009Y-25056189D01*
X63551009Y-25056189D02*
X63646247Y-25103808D01*
X54808095Y-32184819D02*
X54808095Y-32994342D01*
X54808095Y-32994342D02*
X54855714Y-33089580D01*
X54855714Y-33089580D02*
X54903333Y-33137200D01*
X54903333Y-33137200D02*
X54998571Y-33184819D01*
X54998571Y-33184819D02*
X55189047Y-33184819D01*
X55189047Y-33184819D02*
X55284285Y-33137200D01*
X55284285Y-33137200D02*
X55331904Y-33089580D01*
X55331904Y-33089580D02*
X55379523Y-32994342D01*
X55379523Y-32994342D02*
X55379523Y-32184819D01*
X56379523Y-33184819D02*
X55808095Y-33184819D01*
X56093809Y-33184819D02*
X56093809Y-32184819D01*
X56093809Y-32184819D02*
X55998571Y-32327676D01*
X55998571Y-32327676D02*
X55903333Y-32422914D01*
X55903333Y-32422914D02*
X55808095Y-32470533D01*
X46631904Y-26141009D02*
X46774761Y-26188628D01*
X46774761Y-26188628D02*
X46822380Y-26236247D01*
X46822380Y-26236247D02*
X46869999Y-26331485D01*
X46869999Y-26331485D02*
X46869999Y-26474342D01*
X46869999Y-26474342D02*
X46822380Y-26569580D01*
X46822380Y-26569580D02*
X46774761Y-26617200D01*
X46774761Y-26617200D02*
X46679523Y-26664819D01*
X46679523Y-26664819D02*
X46298571Y-26664819D01*
X46298571Y-26664819D02*
X46298571Y-25664819D01*
X46298571Y-25664819D02*
X46631904Y-25664819D01*
X46631904Y-25664819D02*
X46727142Y-25712438D01*
X46727142Y-25712438D02*
X46774761Y-25760057D01*
X46774761Y-25760057D02*
X46822380Y-25855295D01*
X46822380Y-25855295D02*
X46822380Y-25950533D01*
X46822380Y-25950533D02*
X46774761Y-26045771D01*
X46774761Y-26045771D02*
X46727142Y-26093390D01*
X46727142Y-26093390D02*
X46631904Y-26141009D01*
X46631904Y-26141009D02*
X46298571Y-26141009D01*
X47774761Y-26664819D02*
X47298571Y-26664819D01*
X47298571Y-26664819D02*
X47298571Y-25664819D01*
X47870000Y-26760057D02*
X48631904Y-26760057D01*
X49441428Y-26569580D02*
X49393809Y-26617200D01*
X49393809Y-26617200D02*
X49250952Y-26664819D01*
X49250952Y-26664819D02*
X49155714Y-26664819D01*
X49155714Y-26664819D02*
X49012857Y-26617200D01*
X49012857Y-26617200D02*
X48917619Y-26521961D01*
X48917619Y-26521961D02*
X48870000Y-26426723D01*
X48870000Y-26426723D02*
X48822381Y-26236247D01*
X48822381Y-26236247D02*
X48822381Y-26093390D01*
X48822381Y-26093390D02*
X48870000Y-25902914D01*
X48870000Y-25902914D02*
X48917619Y-25807676D01*
X48917619Y-25807676D02*
X49012857Y-25712438D01*
X49012857Y-25712438D02*
X49155714Y-25664819D01*
X49155714Y-25664819D02*
X49250952Y-25664819D01*
X49250952Y-25664819D02*
X49393809Y-25712438D01*
X49393809Y-25712438D02*
X49441428Y-25760057D01*
X49870000Y-26664819D02*
X49870000Y-25664819D01*
X49870000Y-25664819D02*
X50250952Y-25664819D01*
X50250952Y-25664819D02*
X50346190Y-25712438D01*
X50346190Y-25712438D02*
X50393809Y-25760057D01*
X50393809Y-25760057D02*
X50441428Y-25855295D01*
X50441428Y-25855295D02*
X50441428Y-25998152D01*
X50441428Y-25998152D02*
X50393809Y-26093390D01*
X50393809Y-26093390D02*
X50346190Y-26141009D01*
X50346190Y-26141009D02*
X50250952Y-26188628D01*
X50250952Y-26188628D02*
X49870000Y-26188628D01*
X50870000Y-25664819D02*
X50870000Y-26474342D01*
X50870000Y-26474342D02*
X50917619Y-26569580D01*
X50917619Y-26569580D02*
X50965238Y-26617200D01*
X50965238Y-26617200D02*
X51060476Y-26664819D01*
X51060476Y-26664819D02*
X51250952Y-26664819D01*
X51250952Y-26664819D02*
X51346190Y-26617200D01*
X51346190Y-26617200D02*
X51393809Y-26569580D01*
X51393809Y-26569580D02*
X51441428Y-26474342D01*
X51441428Y-26474342D02*
X51441428Y-25664819D01*
X39084523Y-21154819D02*
X38513095Y-21154819D01*
X38798809Y-21154819D02*
X38798809Y-20154819D01*
X38798809Y-20154819D02*
X38703571Y-20297676D01*
X38703571Y-20297676D02*
X38608333Y-20392914D01*
X38608333Y-20392914D02*
X38513095Y-20440533D01*
X39703571Y-20154819D02*
X39798809Y-20154819D01*
X39798809Y-20154819D02*
X39894047Y-20202438D01*
X39894047Y-20202438D02*
X39941666Y-20250057D01*
X39941666Y-20250057D02*
X39989285Y-20345295D01*
X39989285Y-20345295D02*
X40036904Y-20535771D01*
X40036904Y-20535771D02*
X40036904Y-20773866D01*
X40036904Y-20773866D02*
X39989285Y-20964342D01*
X39989285Y-20964342D02*
X39941666Y-21059580D01*
X39941666Y-21059580D02*
X39894047Y-21107200D01*
X39894047Y-21107200D02*
X39798809Y-21154819D01*
X39798809Y-21154819D02*
X39703571Y-21154819D01*
X39703571Y-21154819D02*
X39608333Y-21107200D01*
X39608333Y-21107200D02*
X39560714Y-21059580D01*
X39560714Y-21059580D02*
X39513095Y-20964342D01*
X39513095Y-20964342D02*
X39465476Y-20773866D01*
X39465476Y-20773866D02*
X39465476Y-20535771D01*
X39465476Y-20535771D02*
X39513095Y-20345295D01*
X39513095Y-20345295D02*
X39560714Y-20250057D01*
X39560714Y-20250057D02*
X39608333Y-20202438D01*
X39608333Y-20202438D02*
X39703571Y-20154819D01*
X40465476Y-21154819D02*
X40465476Y-20154819D01*
X41036904Y-21154819D02*
X40608333Y-20583390D01*
X41036904Y-20154819D02*
X40465476Y-20726247D01*
D12*
X39183333Y-23156379D02*
X38850000Y-22680188D01*
X38611905Y-23156379D02*
X38611905Y-22156379D01*
X38611905Y-22156379D02*
X38992857Y-22156379D01*
X38992857Y-22156379D02*
X39088095Y-22203998D01*
X39088095Y-22203998D02*
X39135714Y-22251617D01*
X39135714Y-22251617D02*
X39183333Y-22346855D01*
X39183333Y-22346855D02*
X39183333Y-22489712D01*
X39183333Y-22489712D02*
X39135714Y-22584950D01*
X39135714Y-22584950D02*
X39088095Y-22632569D01*
X39088095Y-22632569D02*
X38992857Y-22680188D01*
X38992857Y-22680188D02*
X38611905Y-22680188D01*
X40135714Y-23156379D02*
X39564286Y-23156379D01*
X39850000Y-23156379D02*
X39850000Y-22156379D01*
X39850000Y-22156379D02*
X39754762Y-22299236D01*
X39754762Y-22299236D02*
X39659524Y-22394474D01*
X39659524Y-22394474D02*
X39564286Y-22442093D01*
D11*
X58995714Y-37159104D02*
X59471904Y-37159104D01*
X58900476Y-37444819D02*
X59233809Y-36444819D01*
X59233809Y-36444819D02*
X59567142Y-37444819D01*
X60424285Y-37444819D02*
X59852857Y-37444819D01*
X60138571Y-37444819D02*
X60138571Y-36444819D01*
X60138571Y-36444819D02*
X60043333Y-36587676D01*
X60043333Y-36587676D02*
X59948095Y-36682914D01*
X59948095Y-36682914D02*
X59852857Y-36730533D01*
X46760714Y-28851009D02*
X46903571Y-28898628D01*
X46903571Y-28898628D02*
X46951190Y-28946247D01*
X46951190Y-28946247D02*
X46998809Y-29041485D01*
X46998809Y-29041485D02*
X46998809Y-29184342D01*
X46998809Y-29184342D02*
X46951190Y-29279580D01*
X46951190Y-29279580D02*
X46903571Y-29327200D01*
X46903571Y-29327200D02*
X46808333Y-29374819D01*
X46808333Y-29374819D02*
X46427381Y-29374819D01*
X46427381Y-29374819D02*
X46427381Y-28374819D01*
X46427381Y-28374819D02*
X46760714Y-28374819D01*
X46760714Y-28374819D02*
X46855952Y-28422438D01*
X46855952Y-28422438D02*
X46903571Y-28470057D01*
X46903571Y-28470057D02*
X46951190Y-28565295D01*
X46951190Y-28565295D02*
X46951190Y-28660533D01*
X46951190Y-28660533D02*
X46903571Y-28755771D01*
X46903571Y-28755771D02*
X46855952Y-28803390D01*
X46855952Y-28803390D02*
X46760714Y-28851009D01*
X46760714Y-28851009D02*
X46427381Y-28851009D01*
X47903571Y-29374819D02*
X47427381Y-29374819D01*
X47427381Y-29374819D02*
X47427381Y-28374819D01*
X47998810Y-29470057D02*
X48760714Y-29470057D01*
X49332143Y-28851009D02*
X49475000Y-28898628D01*
X49475000Y-28898628D02*
X49522619Y-28946247D01*
X49522619Y-28946247D02*
X49570238Y-29041485D01*
X49570238Y-29041485D02*
X49570238Y-29184342D01*
X49570238Y-29184342D02*
X49522619Y-29279580D01*
X49522619Y-29279580D02*
X49475000Y-29327200D01*
X49475000Y-29327200D02*
X49379762Y-29374819D01*
X49379762Y-29374819D02*
X48998810Y-29374819D01*
X48998810Y-29374819D02*
X48998810Y-28374819D01*
X48998810Y-28374819D02*
X49332143Y-28374819D01*
X49332143Y-28374819D02*
X49427381Y-28422438D01*
X49427381Y-28422438D02*
X49475000Y-28470057D01*
X49475000Y-28470057D02*
X49522619Y-28565295D01*
X49522619Y-28565295D02*
X49522619Y-28660533D01*
X49522619Y-28660533D02*
X49475000Y-28755771D01*
X49475000Y-28755771D02*
X49427381Y-28803390D01*
X49427381Y-28803390D02*
X49332143Y-28851009D01*
X49332143Y-28851009D02*
X48998810Y-28851009D01*
X49998810Y-28374819D02*
X49998810Y-29184342D01*
X49998810Y-29184342D02*
X50046429Y-29279580D01*
X50046429Y-29279580D02*
X50094048Y-29327200D01*
X50094048Y-29327200D02*
X50189286Y-29374819D01*
X50189286Y-29374819D02*
X50379762Y-29374819D01*
X50379762Y-29374819D02*
X50475000Y-29327200D01*
X50475000Y-29327200D02*
X50522619Y-29279580D01*
X50522619Y-29279580D02*
X50570238Y-29184342D01*
X50570238Y-29184342D02*
X50570238Y-28374819D01*
X50998810Y-29327200D02*
X51141667Y-29374819D01*
X51141667Y-29374819D02*
X51379762Y-29374819D01*
X51379762Y-29374819D02*
X51475000Y-29327200D01*
X51475000Y-29327200D02*
X51522619Y-29279580D01*
X51522619Y-29279580D02*
X51570238Y-29184342D01*
X51570238Y-29184342D02*
X51570238Y-29089104D01*
X51570238Y-29089104D02*
X51522619Y-28993866D01*
X51522619Y-28993866D02*
X51475000Y-28946247D01*
X51475000Y-28946247D02*
X51379762Y-28898628D01*
X51379762Y-28898628D02*
X51189286Y-28851009D01*
X51189286Y-28851009D02*
X51094048Y-28803390D01*
X51094048Y-28803390D02*
X51046429Y-28755771D01*
X51046429Y-28755771D02*
X50998810Y-28660533D01*
X50998810Y-28660533D02*
X50998810Y-28565295D01*
X50998810Y-28565295D02*
X51046429Y-28470057D01*
X51046429Y-28470057D02*
X51094048Y-28422438D01*
X51094048Y-28422438D02*
X51189286Y-28374819D01*
X51189286Y-28374819D02*
X51427381Y-28374819D01*
X51427381Y-28374819D02*
X51570238Y-28422438D01*
X17658333Y-15238152D02*
X17658333Y-15904819D01*
X17420238Y-14857200D02*
X17182143Y-15571485D01*
X17182143Y-15571485D02*
X17801190Y-15571485D01*
X18086905Y-14904819D02*
X18753571Y-14904819D01*
X18753571Y-14904819D02*
X18325000Y-15904819D01*
X19563095Y-15238152D02*
X19563095Y-15904819D01*
X19134524Y-15238152D02*
X19134524Y-15761961D01*
X19134524Y-15761961D02*
X19182143Y-15857200D01*
X19182143Y-15857200D02*
X19277381Y-15904819D01*
X19277381Y-15904819D02*
X19420238Y-15904819D01*
X19420238Y-15904819D02*
X19515476Y-15857200D01*
X19515476Y-15857200D02*
X19563095Y-15809580D01*
X20372619Y-15381009D02*
X20039286Y-15381009D01*
X20039286Y-15904819D02*
X20039286Y-14904819D01*
X20039286Y-14904819D02*
X20515476Y-14904819D01*
D12*
X21083333Y-17911140D02*
X21035714Y-17958760D01*
X21035714Y-17958760D02*
X20892857Y-18006379D01*
X20892857Y-18006379D02*
X20797619Y-18006379D01*
X20797619Y-18006379D02*
X20654762Y-17958760D01*
X20654762Y-17958760D02*
X20559524Y-17863521D01*
X20559524Y-17863521D02*
X20511905Y-17768283D01*
X20511905Y-17768283D02*
X20464286Y-17577807D01*
X20464286Y-17577807D02*
X20464286Y-17434950D01*
X20464286Y-17434950D02*
X20511905Y-17244474D01*
X20511905Y-17244474D02*
X20559524Y-17149236D01*
X20559524Y-17149236D02*
X20654762Y-17053998D01*
X20654762Y-17053998D02*
X20797619Y-17006379D01*
X20797619Y-17006379D02*
X20892857Y-17006379D01*
X20892857Y-17006379D02*
X21035714Y-17053998D01*
X21035714Y-17053998D02*
X21083333Y-17101617D01*
X22035714Y-18006379D02*
X21464286Y-18006379D01*
X21750000Y-18006379D02*
X21750000Y-17006379D01*
X21750000Y-17006379D02*
X21654762Y-17149236D01*
X21654762Y-17149236D02*
X21559524Y-17244474D01*
X21559524Y-17244474D02*
X21464286Y-17292093D01*
%TO.C,J2*%
X57960000Y-36370000D02*
X56630000Y-36370000D01*
X57960000Y-37480000D02*
X57960000Y-36370000D01*
D13*
X56930000Y-37480000D02*
X56930000Y-41540000D01*
X56330000Y-37480000D02*
X56930000Y-37480000D01*
X54390000Y-37480000D02*
X54390000Y-41540000D01*
X53790000Y-37480000D02*
X54390000Y-37480000D01*
X51850000Y-37480000D02*
X51850000Y-41540000D01*
X51250000Y-37480000D02*
X51850000Y-37480000D01*
X49310000Y-37480000D02*
X49310000Y-41540000D01*
X48710000Y-37480000D02*
X49310000Y-37480000D01*
X46770000Y-37480000D02*
X46770000Y-41540000D01*
X46170000Y-37480000D02*
X46770000Y-37480000D01*
X44230000Y-37480000D02*
X44230000Y-41540000D01*
X43630000Y-37480000D02*
X44230000Y-37480000D01*
X41690000Y-37480000D02*
X41690000Y-41540000D01*
X41090000Y-37480000D02*
X41690000Y-37480000D01*
X39150000Y-37480000D02*
X39150000Y-41540000D01*
X38550000Y-37480000D02*
X39150000Y-37480000D01*
X36610000Y-37480000D02*
X36610000Y-41540000D01*
X36010000Y-37480000D02*
X36610000Y-37480000D01*
X34070000Y-37480000D02*
X34070000Y-41540000D01*
X33470000Y-37480000D02*
X34070000Y-37480000D01*
X31530000Y-37480000D02*
X31530000Y-41540000D01*
X30930000Y-37480000D02*
X31530000Y-37480000D01*
X28990000Y-37480000D02*
X28990000Y-41540000D01*
X28390000Y-37480000D02*
X28990000Y-37480000D01*
X26450000Y-37480000D02*
X26450000Y-41540000D01*
X25850000Y-37480000D02*
X26450000Y-37480000D01*
X23910000Y-37480000D02*
X23910000Y-41540000D01*
X23310000Y-37480000D02*
X23910000Y-37480000D01*
X21370000Y-37480000D02*
X21370000Y-41540000D01*
X20770000Y-37480000D02*
X21370000Y-37480000D01*
X18830000Y-37480000D02*
X18830000Y-41540000D01*
X18230000Y-37480000D02*
X18830000Y-37480000D01*
X16290000Y-37480000D02*
X16290000Y-41540000D01*
X15690000Y-37480000D02*
X16290000Y-37480000D01*
X13750000Y-37480000D02*
X13750000Y-41540000D01*
X13150000Y-37480000D02*
X13750000Y-37480000D01*
X11210000Y-37480000D02*
X11210000Y-41540000D01*
X10610000Y-37480000D02*
X11210000Y-37480000D01*
X8670000Y-37480000D02*
X8670000Y-41540000D01*
X8070000Y-37480000D02*
X8670000Y-37480000D01*
D12*
X56990000Y-38970000D02*
X56990000Y-38590000D01*
X56270000Y-38970000D02*
X56270000Y-38590000D01*
X54450000Y-38970000D02*
X54450000Y-38530000D01*
X53730000Y-38970000D02*
X53730000Y-38530000D01*
X51910000Y-38970000D02*
X51910000Y-38530000D01*
X51190000Y-38970000D02*
X51190000Y-38530000D01*
X49370000Y-38970000D02*
X49370000Y-38530000D01*
X48650000Y-38970000D02*
X48650000Y-38530000D01*
X46830000Y-38970000D02*
X46830000Y-38530000D01*
X46110000Y-38970000D02*
X46110000Y-38530000D01*
X44290000Y-38970000D02*
X44290000Y-38530000D01*
X43570000Y-38970000D02*
X43570000Y-38530000D01*
X41750000Y-38970000D02*
X41750000Y-38530000D01*
X41030000Y-38970000D02*
X41030000Y-38530000D01*
X39210000Y-38970000D02*
X39210000Y-38530000D01*
X38490000Y-38970000D02*
X38490000Y-38530000D01*
X36670000Y-38970000D02*
X36670000Y-38530000D01*
X35950000Y-38970000D02*
X35950000Y-38530000D01*
X34130000Y-38970000D02*
X34130000Y-38530000D01*
X33410000Y-38970000D02*
X33410000Y-38530000D01*
X31590000Y-38970000D02*
X31590000Y-38530000D01*
X30870000Y-38970000D02*
X30870000Y-38530000D01*
X29050000Y-38970000D02*
X29050000Y-38530000D01*
X28330000Y-38970000D02*
X28330000Y-38530000D01*
X26510000Y-38970000D02*
X26510000Y-38530000D01*
X25790000Y-38970000D02*
X25790000Y-38530000D01*
X23970000Y-38970000D02*
X23970000Y-38530000D01*
X23250000Y-38970000D02*
X23250000Y-38530000D01*
X21430000Y-38970000D02*
X21430000Y-38530000D01*
X20710000Y-38970000D02*
X20710000Y-38530000D01*
X18890000Y-38970000D02*
X18890000Y-38530000D01*
X18170000Y-38970000D02*
X18170000Y-38530000D01*
X16350000Y-38970000D02*
X16350000Y-38530000D01*
X15630000Y-38970000D02*
X15630000Y-38530000D01*
X13810000Y-38970000D02*
X13810000Y-38530000D01*
X13090000Y-38970000D02*
X13090000Y-38530000D01*
X11270000Y-38970000D02*
X11270000Y-38530000D01*
X10550000Y-38970000D02*
X10550000Y-38530000D01*
X8730000Y-38970000D02*
X8730000Y-38530000D01*
X8010000Y-38970000D02*
X8010000Y-38530000D01*
X57960000Y-41480000D02*
X7040000Y-41480000D01*
X56990000Y-41480000D02*
X56990000Y-41070000D01*
X56270000Y-41480000D02*
X56270000Y-41070000D01*
X54450000Y-41480000D02*
X54450000Y-41070000D01*
X53730000Y-41480000D02*
X53730000Y-41070000D01*
X51910000Y-41480000D02*
X51910000Y-41070000D01*
X51190000Y-41480000D02*
X51190000Y-41070000D01*
X49370000Y-41480000D02*
X49370000Y-41070000D01*
X48650000Y-41480000D02*
X48650000Y-41070000D01*
X46830000Y-41480000D02*
X46830000Y-41070000D01*
X46110000Y-41480000D02*
X46110000Y-41070000D01*
X44290000Y-41480000D02*
X44290000Y-41070000D01*
X43570000Y-41480000D02*
X43570000Y-41070000D01*
X41750000Y-41480000D02*
X41750000Y-41070000D01*
X41030000Y-41480000D02*
X41030000Y-41070000D01*
X39210000Y-41480000D02*
X39210000Y-41070000D01*
X38490000Y-41480000D02*
X38490000Y-41070000D01*
X36670000Y-41480000D02*
X36670000Y-41070000D01*
X35950000Y-41480000D02*
X35950000Y-41070000D01*
X34130000Y-41480000D02*
X34130000Y-41070000D01*
X33410000Y-41480000D02*
X33410000Y-41070000D01*
X31590000Y-41480000D02*
X31590000Y-41070000D01*
X30870000Y-41480000D02*
X30870000Y-41070000D01*
X29050000Y-41480000D02*
X29050000Y-41070000D01*
X28330000Y-41480000D02*
X28330000Y-41070000D01*
X26510000Y-41480000D02*
X26510000Y-41070000D01*
X25790000Y-41480000D02*
X25790000Y-41070000D01*
X23970000Y-41480000D02*
X23970000Y-41070000D01*
X23250000Y-41480000D02*
X23250000Y-41070000D01*
X21430000Y-41480000D02*
X21430000Y-41070000D01*
X20710000Y-41480000D02*
X20710000Y-41070000D01*
X18890000Y-41480000D02*
X18890000Y-41070000D01*
X18170000Y-41480000D02*
X18170000Y-41070000D01*
X16350000Y-41480000D02*
X16350000Y-41070000D01*
X15630000Y-41480000D02*
X15630000Y-41070000D01*
X13810000Y-41480000D02*
X13810000Y-41070000D01*
X13090000Y-41480000D02*
X13090000Y-41070000D01*
X11270000Y-41480000D02*
X11270000Y-41070000D01*
X10550000Y-41480000D02*
X10550000Y-41070000D01*
X8730000Y-41480000D02*
X8730000Y-41070000D01*
X8010000Y-41480000D02*
X8010000Y-41070000D01*
D13*
X56930000Y-41540000D02*
X7100000Y-41540000D01*
X56330000Y-41540000D02*
X56330000Y-37480000D01*
X53790000Y-41540000D02*
X53790000Y-37480000D01*
X51250000Y-41540000D02*
X51250000Y-37480000D01*
X48710000Y-41540000D02*
X48710000Y-37480000D01*
X46170000Y-41540000D02*
X46170000Y-37480000D01*
X43630000Y-41540000D02*
X43630000Y-37480000D01*
X41090000Y-41540000D02*
X41090000Y-37480000D01*
X38550000Y-41540000D02*
X38550000Y-37480000D01*
X36010000Y-41540000D02*
X36010000Y-37480000D01*
X33470000Y-41540000D02*
X33470000Y-37480000D01*
X30930000Y-41540000D02*
X30930000Y-37480000D01*
X28390000Y-41540000D02*
X28390000Y-37480000D01*
X25850000Y-41540000D02*
X25850000Y-37480000D01*
X23310000Y-41540000D02*
X23310000Y-37480000D01*
X20770000Y-41540000D02*
X20770000Y-37480000D01*
X18230000Y-41540000D02*
X18230000Y-37480000D01*
X15690000Y-41540000D02*
X15690000Y-37480000D01*
X13150000Y-41540000D02*
X13150000Y-37480000D01*
X10610000Y-41540000D02*
X10610000Y-37480000D01*
X8070000Y-41540000D02*
X8070000Y-37480000D01*
D12*
X57960000Y-49050000D02*
X57960000Y-41480000D01*
X57960000Y-49050000D02*
X7040000Y-49050000D01*
X55360000Y-49050000D02*
X55360000Y-41480000D01*
X52820000Y-49050000D02*
X52820000Y-41480000D01*
X50280000Y-49050000D02*
X50280000Y-41480000D01*
X47740000Y-49050000D02*
X47740000Y-41480000D01*
X45200000Y-49050000D02*
X45200000Y-41480000D01*
X42660000Y-49050000D02*
X42660000Y-41480000D01*
X40120000Y-49050000D02*
X40120000Y-41480000D01*
X37580000Y-49050000D02*
X37580000Y-41480000D01*
X35040000Y-49050000D02*
X35040000Y-41480000D01*
X32500000Y-49050000D02*
X32500000Y-41480000D01*
X29960000Y-49050000D02*
X29960000Y-41480000D01*
X27420000Y-49050000D02*
X27420000Y-41480000D01*
X24880000Y-49050000D02*
X24880000Y-41480000D01*
X22340000Y-49050000D02*
X22340000Y-41480000D01*
X19800000Y-49050000D02*
X19800000Y-41480000D01*
X17260000Y-49050000D02*
X17260000Y-41480000D01*
X14720000Y-49050000D02*
X14720000Y-41480000D01*
X12180000Y-49050000D02*
X12180000Y-41480000D01*
X9640000Y-49050000D02*
X9640000Y-41480000D01*
D13*
X7100000Y-49050000D02*
X57900000Y-49050000D01*
D12*
X7040000Y-49050000D02*
X7040000Y-41480000D01*
%TO.C,J3*%
X23380000Y-12830000D02*
X41220000Y-12830000D01*
X23380000Y-12830000D02*
X23380000Y-10170000D01*
X41220000Y-12830000D02*
X41220000Y-10170000D01*
D13*
X20840000Y-12770000D02*
X20840000Y-10865000D01*
X41160000Y-12770000D02*
X20840000Y-12770000D01*
D12*
X20780000Y-11500000D02*
X20780000Y-10170000D01*
D13*
X20840000Y-10865000D02*
X21475000Y-10230000D01*
X21475000Y-10230000D02*
X41160000Y-10230000D01*
X41160000Y-10230000D02*
X41160000Y-12770000D01*
D12*
X20780000Y-10170000D02*
X22110000Y-10170000D01*
X23380000Y-10170000D02*
X41220000Y-10170000D01*
%TO.C,J4*%
X53230000Y-16230000D02*
X54500000Y-16230000D01*
X53230000Y-17500000D02*
X53230000Y-16230000D01*
D13*
X54180000Y-17180000D02*
X54180000Y-17820000D01*
X54180000Y-17180000D02*
X56000000Y-17180000D01*
X54180000Y-17820000D02*
X56000000Y-17820000D01*
X54180000Y-19720000D02*
X54180000Y-20360000D01*
X54180000Y-19720000D02*
X56000000Y-19720000D01*
X54180000Y-20360000D02*
X56000000Y-20360000D01*
X54180000Y-22260000D02*
X54180000Y-22900000D01*
X54180000Y-22260000D02*
X56000000Y-22260000D01*
X54180000Y-22900000D02*
X56000000Y-22900000D01*
D12*
X55577358Y-19610000D02*
X55890000Y-19610000D01*
X55577358Y-20470000D02*
X55890000Y-20470000D01*
X55577358Y-22150000D02*
X55890000Y-22150000D01*
X55577358Y-23010000D02*
X55890000Y-23010000D01*
X55660000Y-17070000D02*
X55890000Y-17070000D01*
X55660000Y-17930000D02*
X55890000Y-17930000D01*
X55890000Y-18770000D02*
X58650000Y-18770000D01*
X55890000Y-21310000D02*
X58650000Y-21310000D01*
D13*
X56000000Y-16865000D02*
X56635000Y-16230000D01*
X56000000Y-23850000D02*
X56000000Y-16865000D01*
X56635000Y-16230000D02*
X58540000Y-16230000D01*
X58540000Y-16230000D02*
X58540000Y-23850000D01*
X58540000Y-17180000D02*
X64540000Y-17180000D01*
X58540000Y-17820000D02*
X64540000Y-17820000D01*
X58540000Y-19720000D02*
X64540000Y-19720000D01*
X58540000Y-20360000D02*
X64540000Y-20360000D01*
X58540000Y-22260000D02*
X64540000Y-22260000D01*
X58540000Y-22900000D02*
X64540000Y-22900000D01*
X58540000Y-23850000D02*
X56000000Y-23850000D01*
D12*
X58650000Y-19610000D02*
X64650000Y-19610000D01*
X58650000Y-22150000D02*
X64650000Y-22150000D01*
D13*
X64540000Y-17180000D02*
X64540000Y-17820000D01*
X64540000Y-19720000D02*
X64540000Y-20360000D01*
X64540000Y-22260000D02*
X64540000Y-22900000D01*
D12*
X64650000Y-19610000D02*
X64650000Y-20470000D01*
X64650000Y-20470000D02*
X58650000Y-20470000D01*
X64650000Y-22150000D02*
X64650000Y-23010000D01*
X64650000Y-23010000D02*
X58650000Y-23010000D01*
X55890000Y-16120000D02*
X58650000Y-16120000D01*
X58650000Y-23960000D01*
X55890000Y-23960000D01*
X55890000Y-16120000D01*
X58650000Y-17070000D02*
X64650000Y-17070000D01*
X64650000Y-17930000D01*
X58650000Y-17930000D01*
X58650000Y-17070000D01*
G36*
X58650000Y-17070000D02*
G01*
X64650000Y-17070000D01*
X64650000Y-17930000D01*
X58650000Y-17930000D01*
X58650000Y-17070000D01*
G37*
%TO.C,J1*%
X57060000Y5920000D02*
X56200000Y5920000D01*
X56200000Y5920000D02*
X56200000Y-80000D01*
X54520000Y5920000D02*
X53660000Y5920000D01*
X53660000Y5920000D02*
X53660000Y-80000D01*
X51980000Y5920000D02*
X51120000Y5920000D01*
X51120000Y5920000D02*
X51120000Y-80000D01*
X49440000Y5920000D02*
X48580000Y5920000D01*
X48580000Y5920000D02*
X48580000Y-80000D01*
X46900000Y5920000D02*
X46040000Y5920000D01*
X46040000Y5920000D02*
X46040000Y-80000D01*
X44360000Y5920000D02*
X43500000Y5920000D01*
X43500000Y5920000D02*
X43500000Y-80000D01*
X41820000Y5920000D02*
X40960000Y5920000D01*
X40960000Y5920000D02*
X40960000Y-80000D01*
X39280000Y5920000D02*
X38420000Y5920000D01*
X38420000Y5920000D02*
X38420000Y-80000D01*
X36740000Y5920000D02*
X35880000Y5920000D01*
X35880000Y5920000D02*
X35880000Y-80000D01*
X34200000Y5920000D02*
X33340000Y5920000D01*
X33340000Y5920000D02*
X33340000Y-80000D01*
X31660000Y5920000D02*
X30800000Y5920000D01*
X30800000Y5920000D02*
X30800000Y-80000D01*
X29120000Y5920000D02*
X28260000Y5920000D01*
X28260000Y5920000D02*
X28260000Y-80000D01*
X26580000Y5920000D02*
X25720000Y5920000D01*
X25720000Y5920000D02*
X25720000Y-80000D01*
X24040000Y5920000D02*
X23180000Y5920000D01*
X23180000Y5920000D02*
X23180000Y-80000D01*
X21500000Y5920000D02*
X20640000Y5920000D01*
X20640000Y5920000D02*
X20640000Y-80000D01*
X18960000Y5920000D02*
X18100000Y5920000D01*
X18100000Y5920000D02*
X18100000Y-80000D01*
X16420000Y5920000D02*
X15560000Y5920000D01*
X15560000Y5920000D02*
X15560000Y-80000D01*
X13880000Y5920000D02*
X13020000Y5920000D01*
X13020000Y5920000D02*
X13020000Y-80000D01*
X11340000Y5920000D02*
X10480000Y5920000D01*
X10480000Y5920000D02*
X10480000Y-80000D01*
X8800000Y5920000D02*
X7940000Y5920000D01*
X7940000Y5920000D02*
X7940000Y-80000D01*
X57060000Y-80000D02*
X57060000Y5920000D01*
X54520000Y-80000D02*
X54520000Y5920000D01*
X51980000Y-80000D02*
X51980000Y5920000D01*
X49440000Y-80000D02*
X49440000Y5920000D01*
X46900000Y-80000D02*
X46900000Y5920000D01*
X44360000Y-80000D02*
X44360000Y5920000D01*
X41820000Y-80000D02*
X41820000Y5920000D01*
X39280000Y-80000D02*
X39280000Y5920000D01*
X36740000Y-80000D02*
X36740000Y5920000D01*
X34200000Y-80000D02*
X34200000Y5920000D01*
X31660000Y-80000D02*
X31660000Y5920000D01*
X29120000Y-80000D02*
X29120000Y5920000D01*
X26580000Y-80000D02*
X26580000Y5920000D01*
X24040000Y-80000D02*
X24040000Y5920000D01*
X21500000Y-80000D02*
X21500000Y5920000D01*
X18960000Y-80000D02*
X18960000Y5920000D01*
X16420000Y-80000D02*
X16420000Y5920000D01*
X13880000Y-80000D02*
X13880000Y5920000D01*
X11340000Y-80000D02*
X11340000Y5920000D01*
X8800000Y-80000D02*
X8800000Y5920000D01*
X55360000Y-2840000D02*
X55360000Y-80000D01*
X52820000Y-2840000D02*
X52820000Y-80000D01*
X50280000Y-2840000D02*
X50280000Y-80000D01*
X47740000Y-2840000D02*
X47740000Y-80000D01*
X45200000Y-2840000D02*
X45200000Y-80000D01*
X42660000Y-2840000D02*
X42660000Y-80000D01*
X40120000Y-2840000D02*
X40120000Y-80000D01*
X37580000Y-2840000D02*
X37580000Y-80000D01*
X35040000Y-2840000D02*
X35040000Y-80000D01*
X32500000Y-2840000D02*
X32500000Y-80000D01*
X29960000Y-2840000D02*
X29960000Y-80000D01*
X27420000Y-2840000D02*
X27420000Y-80000D01*
X24880000Y-2840000D02*
X24880000Y-80000D01*
X22340000Y-2840000D02*
X22340000Y-80000D01*
X19800000Y-2840000D02*
X19800000Y-80000D01*
X17260000Y-2840000D02*
X17260000Y-80000D01*
X14720000Y-2840000D02*
X14720000Y-80000D01*
X12180000Y-2840000D02*
X12180000Y-80000D01*
X9640000Y-2840000D02*
X9640000Y-80000D01*
X57060000Y-3152642D02*
X57060000Y-2840000D01*
X56200000Y-3152642D02*
X56200000Y-2840000D01*
X54520000Y-3152642D02*
X54520000Y-2840000D01*
X53660000Y-3152642D02*
X53660000Y-2840000D01*
X51980000Y-3152642D02*
X51980000Y-2840000D01*
X51120000Y-3152642D02*
X51120000Y-2840000D01*
X49440000Y-3152642D02*
X49440000Y-2840000D01*
X48580000Y-3152642D02*
X48580000Y-2840000D01*
X46900000Y-3152642D02*
X46900000Y-2840000D01*
X46040000Y-3152642D02*
X46040000Y-2840000D01*
X44360000Y-3152642D02*
X44360000Y-2840000D01*
X43500000Y-3152642D02*
X43500000Y-2840000D01*
X41820000Y-3152642D02*
X41820000Y-2840000D01*
X40960000Y-3152642D02*
X40960000Y-2840000D01*
X39280000Y-3152642D02*
X39280000Y-2840000D01*
X38420000Y-3152642D02*
X38420000Y-2840000D01*
X36740000Y-3152642D02*
X36740000Y-2840000D01*
X35880000Y-3152642D02*
X35880000Y-2840000D01*
X34200000Y-3152642D02*
X34200000Y-2840000D01*
X33340000Y-3152642D02*
X33340000Y-2840000D01*
X31660000Y-3152642D02*
X31660000Y-2840000D01*
X30800000Y-3152642D02*
X30800000Y-2840000D01*
X29120000Y-3152642D02*
X29120000Y-2840000D01*
X28260000Y-3152642D02*
X28260000Y-2840000D01*
X26580000Y-3152642D02*
X26580000Y-2840000D01*
X25720000Y-3152642D02*
X25720000Y-2840000D01*
X24040000Y-3152642D02*
X24040000Y-2840000D01*
X23180000Y-3152642D02*
X23180000Y-2840000D01*
X21500000Y-3152642D02*
X21500000Y-2840000D01*
X20640000Y-3152642D02*
X20640000Y-2840000D01*
X18960000Y-3152642D02*
X18960000Y-2840000D01*
X18100000Y-3152642D02*
X18100000Y-2840000D01*
X16420000Y-3152642D02*
X16420000Y-2840000D01*
X15560000Y-3152642D02*
X15560000Y-2840000D01*
X13880000Y-3152642D02*
X13880000Y-2840000D01*
X13020000Y-3152642D02*
X13020000Y-2840000D01*
X11340000Y-3152642D02*
X11340000Y-2840000D01*
X10480000Y-3152642D02*
X10480000Y-2840000D01*
X8800000Y-3152642D02*
X8800000Y-2840000D01*
X7940000Y-3152642D02*
X7940000Y-2840000D01*
X57060000Y-5610000D02*
X57060000Y-5307358D01*
X56200000Y-5610000D02*
X56200000Y-5307358D01*
X54520000Y-5692642D02*
X54520000Y-5307358D01*
X53660000Y-5692642D02*
X53660000Y-5307358D01*
X51980000Y-5692642D02*
X51980000Y-5307358D01*
X51120000Y-5692642D02*
X51120000Y-5307358D01*
X49440000Y-5692642D02*
X49440000Y-5307358D01*
X48580000Y-5692642D02*
X48580000Y-5307358D01*
X46900000Y-5692642D02*
X46900000Y-5307358D01*
X46040000Y-5692642D02*
X46040000Y-5307358D01*
X44360000Y-5692642D02*
X44360000Y-5307358D01*
X43500000Y-5692642D02*
X43500000Y-5307358D01*
X41820000Y-5692642D02*
X41820000Y-5307358D01*
X40960000Y-5692642D02*
X40960000Y-5307358D01*
X39280000Y-5692642D02*
X39280000Y-5307358D01*
X38420000Y-5692642D02*
X38420000Y-5307358D01*
X36740000Y-5692642D02*
X36740000Y-5307358D01*
X35880000Y-5692642D02*
X35880000Y-5307358D01*
X34200000Y-5692642D02*
X34200000Y-5307358D01*
X33340000Y-5692642D02*
X33340000Y-5307358D01*
X31660000Y-5692642D02*
X31660000Y-5307358D01*
X30800000Y-5692642D02*
X30800000Y-5307358D01*
X29120000Y-5692642D02*
X29120000Y-5307358D01*
X28260000Y-5692642D02*
X28260000Y-5307358D01*
X26580000Y-5692642D02*
X26580000Y-5307358D01*
X25720000Y-5692642D02*
X25720000Y-5307358D01*
X24040000Y-5692642D02*
X24040000Y-5307358D01*
X23180000Y-5692642D02*
X23180000Y-5307358D01*
X21500000Y-5692642D02*
X21500000Y-5307358D01*
X20640000Y-5692642D02*
X20640000Y-5307358D01*
X18960000Y-5692642D02*
X18960000Y-5307358D01*
X18100000Y-5692642D02*
X18100000Y-5307358D01*
X16420000Y-5692642D02*
X16420000Y-5307358D01*
X15560000Y-5692642D02*
X15560000Y-5307358D01*
X13880000Y-5692642D02*
X13880000Y-5307358D01*
X13020000Y-5692642D02*
X13020000Y-5307358D01*
X11340000Y-5692642D02*
X11340000Y-5307358D01*
X10480000Y-5692642D02*
X10480000Y-5307358D01*
X8800000Y-5692642D02*
X8800000Y-5307358D01*
X7940000Y-5692642D02*
X7940000Y-5307358D01*
D13*
X56950000Y-7090000D02*
X56950000Y-2730000D01*
X56950000Y-7090000D02*
X56310000Y-7090000D01*
X56310000Y-7090000D02*
X56310000Y-2730000D01*
X54410000Y-7090000D02*
X54410000Y-2730000D01*
X54410000Y-7090000D02*
X53770000Y-7090000D01*
X53770000Y-7090000D02*
X53770000Y-2730000D01*
X51870000Y-7090000D02*
X51870000Y-2730000D01*
X51870000Y-7090000D02*
X51230000Y-7090000D01*
X51230000Y-7090000D02*
X51230000Y-2730000D01*
X49330000Y-7090000D02*
X49330000Y-2730000D01*
X49330000Y-7090000D02*
X48690000Y-7090000D01*
X48690000Y-7090000D02*
X48690000Y-2730000D01*
X46790000Y-7090000D02*
X46790000Y-2730000D01*
X46790000Y-7090000D02*
X46150000Y-7090000D01*
X46150000Y-7090000D02*
X46150000Y-2730000D01*
X44250000Y-7090000D02*
X44250000Y-2730000D01*
X44250000Y-7090000D02*
X43610000Y-7090000D01*
X43610000Y-7090000D02*
X43610000Y-2730000D01*
X41710000Y-7090000D02*
X41710000Y-2730000D01*
X41710000Y-7090000D02*
X41070000Y-7090000D01*
X41070000Y-7090000D02*
X41070000Y-2730000D01*
X39170000Y-7090000D02*
X39170000Y-2730000D01*
X39170000Y-7090000D02*
X38530000Y-7090000D01*
X38530000Y-7090000D02*
X38530000Y-2730000D01*
X36630000Y-7090000D02*
X36630000Y-2730000D01*
X36630000Y-7090000D02*
X35990000Y-7090000D01*
X35990000Y-7090000D02*
X35990000Y-2730000D01*
X34090000Y-7090000D02*
X34090000Y-2730000D01*
X34090000Y-7090000D02*
X33450000Y-7090000D01*
X33450000Y-7090000D02*
X33450000Y-2730000D01*
X31550000Y-7090000D02*
X31550000Y-2730000D01*
X31550000Y-7090000D02*
X30910000Y-7090000D01*
X30910000Y-7090000D02*
X30910000Y-2730000D01*
X29010000Y-7090000D02*
X29010000Y-2730000D01*
X29010000Y-7090000D02*
X28370000Y-7090000D01*
X28370000Y-7090000D02*
X28370000Y-2730000D01*
X26470000Y-7090000D02*
X26470000Y-2730000D01*
X26470000Y-7090000D02*
X25830000Y-7090000D01*
X25830000Y-7090000D02*
X25830000Y-2730000D01*
X23930000Y-7090000D02*
X23930000Y-2730000D01*
X23930000Y-7090000D02*
X23290000Y-7090000D01*
X23290000Y-7090000D02*
X23290000Y-2730000D01*
X21390000Y-7090000D02*
X21390000Y-2730000D01*
X21390000Y-7090000D02*
X20750000Y-7090000D01*
X20750000Y-7090000D02*
X20750000Y-2730000D01*
X18850000Y-7090000D02*
X18850000Y-2730000D01*
X18850000Y-7090000D02*
X18210000Y-7090000D01*
X18210000Y-7090000D02*
X18210000Y-2730000D01*
X16310000Y-7090000D02*
X16310000Y-2730000D01*
X16310000Y-7090000D02*
X15670000Y-7090000D01*
X15670000Y-7090000D02*
X15670000Y-2730000D01*
X13770000Y-7090000D02*
X13770000Y-2730000D01*
X13770000Y-7090000D02*
X13130000Y-7090000D01*
X13130000Y-7090000D02*
X13130000Y-2730000D01*
X11230000Y-7090000D02*
X11230000Y-2730000D01*
X11230000Y-7090000D02*
X10590000Y-7090000D01*
X10590000Y-7090000D02*
X10590000Y-2730000D01*
X8690000Y-7090000D02*
X8690000Y-2730000D01*
X8690000Y-7090000D02*
X8050000Y-7090000D01*
X8050000Y-7090000D02*
X8050000Y-2730000D01*
D12*
X57900000Y-8040000D02*
X57900000Y-6770000D01*
X56630000Y-8040000D02*
X57900000Y-8040000D01*
X58010000Y-80000D02*
X6990000Y-80000D01*
X6990000Y-2840000D01*
X58010000Y-2840000D01*
X58010000Y-80000D01*
%TD*%
M02*
