%TF.GenerationSoftware,KiCad,Pcbnew,9.0.7*%
%TF.CreationDate,2026-05-06T21:08:42+02:00*%
%TF.ProjectId,BarePi_LCD160x80,42617265-5069-45f4-9c43-443136307838,rev?*%
%TF.SameCoordinates,Original*%
%TF.FileFunction,Legend,Bot*%
%TF.FilePolarity,Positive*%
%FSLAX46Y46*%
G04 Gerber Fmt 4.6, Leading zero omitted, Abs format (unit mm)*
G04 Created by KiCad (PCBNEW 9.0.7) date 2026-05-06 21:08:42*
%MOMM*%
%LPD*%
G01*
G04 APERTURE LIST*
%ADD10C,0.150000*%
%ADD11C,0.120000*%
G04 APERTURE END LIST*
D10*
X5783333Y-36974819D02*
X5783333Y-37689104D01*
X5783333Y-37689104D02*
X5830952Y-37831961D01*
X5830952Y-37831961D02*
X5926190Y-37927200D01*
X5926190Y-37927200D02*
X6069047Y-37974819D01*
X6069047Y-37974819D02*
X6164285Y-37974819D01*
X5354761Y-37070057D02*
X5307142Y-37022438D01*
X5307142Y-37022438D02*
X5211904Y-36974819D01*
X5211904Y-36974819D02*
X4973809Y-36974819D01*
X4973809Y-36974819D02*
X4878571Y-37022438D01*
X4878571Y-37022438D02*
X4830952Y-37070057D01*
X4830952Y-37070057D02*
X4783333Y-37165295D01*
X4783333Y-37165295D02*
X4783333Y-37260533D01*
X4783333Y-37260533D02*
X4830952Y-37403390D01*
X4830952Y-37403390D02*
X5402380Y-37974819D01*
X5402380Y-37974819D02*
X4783333Y-37974819D01*
X5269411Y-41899819D02*
X5840839Y-41899819D01*
X5555125Y-41899819D02*
X5555125Y-40899819D01*
X5555125Y-40899819D02*
X5650363Y-41042676D01*
X5650363Y-41042676D02*
X5745601Y-41137914D01*
X5745601Y-41137914D02*
X5840839Y-41185533D01*
X55333333Y-14454819D02*
X55333333Y-15169104D01*
X55333333Y-15169104D02*
X55380952Y-15311961D01*
X55380952Y-15311961D02*
X55476190Y-15407200D01*
X55476190Y-15407200D02*
X55619047Y-15454819D01*
X55619047Y-15454819D02*
X55714285Y-15454819D01*
X54428571Y-14788152D02*
X54428571Y-15454819D01*
X54666666Y-14407200D02*
X54904761Y-15121485D01*
X54904761Y-15121485D02*
X54285714Y-15121485D01*
X5533333Y-8934819D02*
X5533333Y-9649104D01*
X5533333Y-9649104D02*
X5580952Y-9791961D01*
X5580952Y-9791961D02*
X5676190Y-9887200D01*
X5676190Y-9887200D02*
X5819047Y-9934819D01*
X5819047Y-9934819D02*
X5914285Y-9934819D01*
X4533333Y-9934819D02*
X5104761Y-9934819D01*
X4819047Y-9934819D02*
X4819047Y-8934819D01*
X4819047Y-8934819D02*
X4914285Y-9077676D01*
X4914285Y-9077676D02*
X5009523Y-9172914D01*
X5009523Y-9172914D02*
X5104761Y-9220533D01*
X5319411Y-7019819D02*
X5890839Y-7019819D01*
X5605125Y-7019819D02*
X5605125Y-6019819D01*
X5605125Y-6019819D02*
X5700363Y-6162676D01*
X5700363Y-6162676D02*
X5795601Y-6257914D01*
X5795601Y-6257914D02*
X5890839Y-6305533D01*
X61475666Y-12800580D02*
X61523285Y-12848200D01*
X61523285Y-12848200D02*
X61666142Y-12895819D01*
X61666142Y-12895819D02*
X61761380Y-12895819D01*
X61761380Y-12895819D02*
X61904237Y-12848200D01*
X61904237Y-12848200D02*
X61999475Y-12752961D01*
X61999475Y-12752961D02*
X62047094Y-12657723D01*
X62047094Y-12657723D02*
X62094713Y-12467247D01*
X62094713Y-12467247D02*
X62094713Y-12324390D01*
X62094713Y-12324390D02*
X62047094Y-12133914D01*
X62047094Y-12133914D02*
X61999475Y-12038676D01*
X61999475Y-12038676D02*
X61904237Y-11943438D01*
X61904237Y-11943438D02*
X61761380Y-11895819D01*
X61761380Y-11895819D02*
X61666142Y-11895819D01*
X61666142Y-11895819D02*
X61523285Y-11943438D01*
X61523285Y-11943438D02*
X61475666Y-11991057D01*
X61094713Y-11991057D02*
X61047094Y-11943438D01*
X61047094Y-11943438D02*
X60951856Y-11895819D01*
X60951856Y-11895819D02*
X60713761Y-11895819D01*
X60713761Y-11895819D02*
X60618523Y-11943438D01*
X60618523Y-11943438D02*
X60570904Y-11991057D01*
X60570904Y-11991057D02*
X60523285Y-12086295D01*
X60523285Y-12086295D02*
X60523285Y-12181533D01*
X60523285Y-12181533D02*
X60570904Y-12324390D01*
X60570904Y-12324390D02*
X61142332Y-12895819D01*
X61142332Y-12895819D02*
X60523285Y-12895819D01*
X64213333Y-39744819D02*
X64213333Y-40459104D01*
X64213333Y-40459104D02*
X64260952Y-40601961D01*
X64260952Y-40601961D02*
X64356190Y-40697200D01*
X64356190Y-40697200D02*
X64499047Y-40744819D01*
X64499047Y-40744819D02*
X64594285Y-40744819D01*
X63737142Y-40744819D02*
X63737142Y-39744819D01*
X63737142Y-39744819D02*
X63356190Y-39744819D01*
X63356190Y-39744819D02*
X63260952Y-39792438D01*
X63260952Y-39792438D02*
X63213333Y-39840057D01*
X63213333Y-39840057D02*
X63165714Y-39935295D01*
X63165714Y-39935295D02*
X63165714Y-40078152D01*
X63165714Y-40078152D02*
X63213333Y-40173390D01*
X63213333Y-40173390D02*
X63260952Y-40221009D01*
X63260952Y-40221009D02*
X63356190Y-40268628D01*
X63356190Y-40268628D02*
X63737142Y-40268628D01*
X62784761Y-39840057D02*
X62737142Y-39792438D01*
X62737142Y-39792438D02*
X62641904Y-39744819D01*
X62641904Y-39744819D02*
X62403809Y-39744819D01*
X62403809Y-39744819D02*
X62308571Y-39792438D01*
X62308571Y-39792438D02*
X62260952Y-39840057D01*
X62260952Y-39840057D02*
X62213333Y-39935295D01*
X62213333Y-39935295D02*
X62213333Y-40030533D01*
X62213333Y-40030533D02*
X62260952Y-40173390D01*
X62260952Y-40173390D02*
X62832380Y-40744819D01*
X62832380Y-40744819D02*
X62213333Y-40744819D01*
X56181904Y-32109819D02*
X56181904Y-32919342D01*
X56181904Y-32919342D02*
X56134285Y-33014580D01*
X56134285Y-33014580D02*
X56086666Y-33062200D01*
X56086666Y-33062200D02*
X55991428Y-33109819D01*
X55991428Y-33109819D02*
X55800952Y-33109819D01*
X55800952Y-33109819D02*
X55705714Y-33062200D01*
X55705714Y-33062200D02*
X55658095Y-33014580D01*
X55658095Y-33014580D02*
X55610476Y-32919342D01*
X55610476Y-32919342D02*
X55610476Y-32109819D01*
X54610476Y-33109819D02*
X55181904Y-33109819D01*
X54896190Y-33109819D02*
X54896190Y-32109819D01*
X54896190Y-32109819D02*
X54991428Y-32252676D01*
X54991428Y-32252676D02*
X55086666Y-32347914D01*
X55086666Y-32347914D02*
X55181904Y-32395533D01*
X51253333Y-27064819D02*
X51253333Y-27779104D01*
X51253333Y-27779104D02*
X51300952Y-27921961D01*
X51300952Y-27921961D02*
X51396190Y-28017200D01*
X51396190Y-28017200D02*
X51539047Y-28064819D01*
X51539047Y-28064819D02*
X51634285Y-28064819D01*
X50777142Y-28064819D02*
X50777142Y-27064819D01*
X50777142Y-27064819D02*
X50396190Y-27064819D01*
X50396190Y-27064819D02*
X50300952Y-27112438D01*
X50300952Y-27112438D02*
X50253333Y-27160057D01*
X50253333Y-27160057D02*
X50205714Y-27255295D01*
X50205714Y-27255295D02*
X50205714Y-27398152D01*
X50205714Y-27398152D02*
X50253333Y-27493390D01*
X50253333Y-27493390D02*
X50300952Y-27541009D01*
X50300952Y-27541009D02*
X50396190Y-27588628D01*
X50396190Y-27588628D02*
X50777142Y-27588628D01*
X49348571Y-27398152D02*
X49348571Y-28064819D01*
X49586666Y-27017200D02*
X49824761Y-27731485D01*
X49824761Y-27731485D02*
X49205714Y-27731485D01*
X39566666Y-23129819D02*
X39899999Y-22653628D01*
X40138094Y-23129819D02*
X40138094Y-22129819D01*
X40138094Y-22129819D02*
X39757142Y-22129819D01*
X39757142Y-22129819D02*
X39661904Y-22177438D01*
X39661904Y-22177438D02*
X39614285Y-22225057D01*
X39614285Y-22225057D02*
X39566666Y-22320295D01*
X39566666Y-22320295D02*
X39566666Y-22463152D01*
X39566666Y-22463152D02*
X39614285Y-22558390D01*
X39614285Y-22558390D02*
X39661904Y-22606009D01*
X39661904Y-22606009D02*
X39757142Y-22653628D01*
X39757142Y-22653628D02*
X40138094Y-22653628D01*
X38614285Y-23129819D02*
X39185713Y-23129819D01*
X38899999Y-23129819D02*
X38899999Y-22129819D01*
X38899999Y-22129819D02*
X38995237Y-22272676D01*
X38995237Y-22272676D02*
X39090475Y-22367914D01*
X39090475Y-22367914D02*
X39185713Y-22415533D01*
X60203333Y-34644819D02*
X60203333Y-35359104D01*
X60203333Y-35359104D02*
X60250952Y-35501961D01*
X60250952Y-35501961D02*
X60346190Y-35597200D01*
X60346190Y-35597200D02*
X60489047Y-35644819D01*
X60489047Y-35644819D02*
X60584285Y-35644819D01*
X59727142Y-35644819D02*
X59727142Y-34644819D01*
X59727142Y-34644819D02*
X59346190Y-34644819D01*
X59346190Y-34644819D02*
X59250952Y-34692438D01*
X59250952Y-34692438D02*
X59203333Y-34740057D01*
X59203333Y-34740057D02*
X59155714Y-34835295D01*
X59155714Y-34835295D02*
X59155714Y-34978152D01*
X59155714Y-34978152D02*
X59203333Y-35073390D01*
X59203333Y-35073390D02*
X59250952Y-35121009D01*
X59250952Y-35121009D02*
X59346190Y-35168628D01*
X59346190Y-35168628D02*
X59727142Y-35168628D01*
X58203333Y-35644819D02*
X58774761Y-35644819D01*
X58489047Y-35644819D02*
X58489047Y-34644819D01*
X58489047Y-34644819D02*
X58584285Y-34787676D01*
X58584285Y-34787676D02*
X58679523Y-34882914D01*
X58679523Y-34882914D02*
X58774761Y-34930533D01*
X51433333Y-29724819D02*
X51433333Y-30439104D01*
X51433333Y-30439104D02*
X51480952Y-30581961D01*
X51480952Y-30581961D02*
X51576190Y-30677200D01*
X51576190Y-30677200D02*
X51719047Y-30724819D01*
X51719047Y-30724819D02*
X51814285Y-30724819D01*
X50957142Y-30724819D02*
X50957142Y-29724819D01*
X50957142Y-29724819D02*
X50576190Y-29724819D01*
X50576190Y-29724819D02*
X50480952Y-29772438D01*
X50480952Y-29772438D02*
X50433333Y-29820057D01*
X50433333Y-29820057D02*
X50385714Y-29915295D01*
X50385714Y-29915295D02*
X50385714Y-30058152D01*
X50385714Y-30058152D02*
X50433333Y-30153390D01*
X50433333Y-30153390D02*
X50480952Y-30201009D01*
X50480952Y-30201009D02*
X50576190Y-30248628D01*
X50576190Y-30248628D02*
X50957142Y-30248628D01*
X50052380Y-29724819D02*
X49433333Y-29724819D01*
X49433333Y-29724819D02*
X49766666Y-30105771D01*
X49766666Y-30105771D02*
X49623809Y-30105771D01*
X49623809Y-30105771D02*
X49528571Y-30153390D01*
X49528571Y-30153390D02*
X49480952Y-30201009D01*
X49480952Y-30201009D02*
X49433333Y-30296247D01*
X49433333Y-30296247D02*
X49433333Y-30534342D01*
X49433333Y-30534342D02*
X49480952Y-30629580D01*
X49480952Y-30629580D02*
X49528571Y-30677200D01*
X49528571Y-30677200D02*
X49623809Y-30724819D01*
X49623809Y-30724819D02*
X49909523Y-30724819D01*
X49909523Y-30724819D02*
X50004761Y-30677200D01*
X50004761Y-30677200D02*
X50052380Y-30629580D01*
X21241666Y-17834580D02*
X21289285Y-17882200D01*
X21289285Y-17882200D02*
X21432142Y-17929819D01*
X21432142Y-17929819D02*
X21527380Y-17929819D01*
X21527380Y-17929819D02*
X21670237Y-17882200D01*
X21670237Y-17882200D02*
X21765475Y-17786961D01*
X21765475Y-17786961D02*
X21813094Y-17691723D01*
X21813094Y-17691723D02*
X21860713Y-17501247D01*
X21860713Y-17501247D02*
X21860713Y-17358390D01*
X21860713Y-17358390D02*
X21813094Y-17167914D01*
X21813094Y-17167914D02*
X21765475Y-17072676D01*
X21765475Y-17072676D02*
X21670237Y-16977438D01*
X21670237Y-16977438D02*
X21527380Y-16929819D01*
X21527380Y-16929819D02*
X21432142Y-16929819D01*
X21432142Y-16929819D02*
X21289285Y-16977438D01*
X21289285Y-16977438D02*
X21241666Y-17025057D01*
X20289285Y-17929819D02*
X20860713Y-17929819D01*
X20574999Y-17929819D02*
X20574999Y-16929819D01*
X20574999Y-16929819D02*
X20670237Y-17072676D01*
X20670237Y-17072676D02*
X20765475Y-17167914D01*
X20765475Y-17167914D02*
X20860713Y-17215533D01*
D11*
%TO.C,C2*%
X56778748Y-14130000D02*
X58201252Y-14130000D01*
X56778748Y-11410000D02*
X58201252Y-11410000D01*
%TO.C,JP2*%
X61850000Y-40020000D02*
X61850000Y-39420000D01*
X61150000Y-38720000D02*
X59750000Y-38720000D01*
X59750000Y-40720000D02*
X61150000Y-40720000D01*
X59050000Y-39420000D02*
X59050000Y-40020000D01*
X61150000Y-38720000D02*
G75*
G02*
X61850000Y-39420000I1J-699999D01*
G01*
X61850000Y-40020000D02*
G75*
G02*
X61150000Y-40720000I-699999J-1D01*
G01*
X59050000Y-39420000D02*
G75*
G02*
X59750000Y-38720000I700000J0D01*
G01*
X59750000Y-40720000D02*
G75*
G02*
X59050000Y-40020000I0J700000D01*
G01*
%TO.C,U1*%
X62180000Y-31780000D02*
X62180000Y-27660000D01*
X62060000Y-31780000D02*
X62180000Y-31780000D01*
X57060000Y-31780000D02*
X57180000Y-31780000D01*
X62180000Y-27660000D02*
X62060000Y-27660000D01*
X57180000Y-27660000D02*
X57060000Y-27660000D01*
X57060000Y-27660000D02*
X57060000Y-31780000D01*
X62400000Y-32620000D02*
X62070000Y-32380000D01*
X62400000Y-32140000D01*
X62400000Y-32620000D01*
G36*
X62400000Y-32620000D02*
G01*
X62070000Y-32380000D01*
X62400000Y-32140000D01*
X62400000Y-32620000D01*
G37*
%TO.C,JP4*%
X54820000Y-27360000D02*
X54820000Y-26760000D01*
X54120000Y-26060000D02*
X52720000Y-26060000D01*
X52720000Y-28060000D02*
X54120000Y-28060000D01*
X52020000Y-26760000D02*
X52020000Y-27360000D01*
X54120000Y-26060000D02*
G75*
G02*
X54820000Y-26760000I1J-699999D01*
G01*
X54820000Y-27360000D02*
G75*
G02*
X54120000Y-28060000I-699999J-1D01*
G01*
X52020000Y-26760000D02*
G75*
G02*
X52720000Y-26060000I700000J0D01*
G01*
X52720000Y-28060000D02*
G75*
G02*
X52020000Y-27360000I0J700000D01*
G01*
%TO.C,R1*%
X38135000Y-21902064D02*
X38135000Y-20447936D01*
X36315000Y-21902064D02*
X36315000Y-20447936D01*
%TO.C,JP1*%
X63600000Y-36840000D02*
X63600000Y-36240000D01*
X62900000Y-35540000D02*
X61500000Y-35540000D01*
X61500000Y-37540000D02*
X62900000Y-37540000D01*
X60800000Y-36240000D02*
X60800000Y-36840000D01*
X62900000Y-35540000D02*
G75*
G02*
X63600000Y-36240000I1J-699999D01*
G01*
X63600000Y-36840000D02*
G75*
G02*
X62900000Y-37540000I-699999J-1D01*
G01*
X60800000Y-36240000D02*
G75*
G02*
X61500000Y-35540000I700000J0D01*
G01*
X61500000Y-37540000D02*
G75*
G02*
X60800000Y-36840000I0J700000D01*
G01*
%TO.C,JP3*%
X55050000Y-30170000D02*
X55050000Y-29570000D01*
X54350000Y-28870000D02*
X52950000Y-28870000D01*
X52950000Y-30870000D02*
X54350000Y-30870000D01*
X52250000Y-29570000D02*
X52250000Y-30170000D01*
X54350000Y-28870000D02*
G75*
G02*
X55050000Y-29570000I1J-699999D01*
G01*
X55050000Y-30170000D02*
G75*
G02*
X54350000Y-30870000I-699999J-1D01*
G01*
X52250000Y-29570000D02*
G75*
G02*
X52950000Y-28870000I700000J0D01*
G01*
X52950000Y-30870000D02*
G75*
G02*
X52250000Y-30170000I0J700000D01*
G01*
%TO.C,C1*%
X25820000Y-14495000D02*
X25820000Y-16405000D01*
X25820000Y-16405000D02*
X21725000Y-16405000D01*
X21725000Y-14495000D02*
X25820000Y-14495000D01*
%TD*%
M02*
