%TF.GenerationSoftware,KiCad,Pcbnew,9.0.7*%
%TF.CreationDate,2026-05-06T21:08:42+02:00*%
%TF.ProjectId,BarePi_LCD160x80,42617265-5069-45f4-9c43-443136307838,rev?*%
%TF.SameCoordinates,Original*%
%TF.FileFunction,Other,User*%
%FSLAX46Y46*%
G04 Gerber Fmt 4.6, Leading zero omitted, Abs format (unit mm)*
G04 Created by KiCad (PCBNEW 9.0.7) date 2026-05-06 21:08:42*
%MOMM*%
%LPD*%
G01*
G04 APERTURE LIST*
%ADD10C,0.050000*%
G04 APERTURE END LIST*
%TO.C,C2*%
D10*
X55010000Y-14370000D02*
X59970000Y-14370000D01*
X59970000Y-11170000D01*
X55010000Y-11170000D01*
X55010000Y-14370000D01*
%TO.C,JP2*%
X62100000Y-38470000D02*
X62100000Y-40970000D01*
X62100000Y-38470000D02*
X58800000Y-38470000D01*
X58800000Y-40970000D02*
X62100000Y-40970000D01*
X58800000Y-40970000D02*
X58800000Y-38470000D01*
%TO.C,U1*%
X62050000Y-33370000D02*
X62050000Y-31920000D01*
X57190000Y-33370000D02*
X62050000Y-33370000D01*
X62320000Y-31920000D02*
X62320000Y-27520000D01*
X62050000Y-31920000D02*
X62320000Y-31920000D01*
X57190000Y-31920000D02*
X57190000Y-33370000D01*
X56920000Y-31920000D02*
X57190000Y-31920000D01*
X62320000Y-27520000D02*
X62050000Y-27520000D01*
X62050000Y-27520000D02*
X62050000Y-26070000D01*
X57190000Y-27520000D02*
X56920000Y-27520000D01*
X56920000Y-27520000D02*
X56920000Y-31920000D01*
X62050000Y-26070000D02*
X57190000Y-26070000D01*
X57190000Y-26070000D02*
X57190000Y-27520000D01*
%TO.C,JP4*%
X55070000Y-25810000D02*
X55070000Y-28310000D01*
X55070000Y-25810000D02*
X51770000Y-25810000D01*
X51770000Y-28310000D02*
X55070000Y-28310000D01*
X51770000Y-28310000D02*
X51770000Y-25810000D01*
%TO.C,R1*%
X38355000Y-23625000D02*
X36095000Y-23625000D01*
X36095000Y-18725000D01*
X38355000Y-18725000D01*
X38355000Y-23625000D01*
%TO.C,JP1*%
X63850000Y-35290000D02*
X63850000Y-37790000D01*
X63850000Y-35290000D02*
X60550000Y-35290000D01*
X60550000Y-37790000D02*
X63850000Y-37790000D01*
X60550000Y-37790000D02*
X60550000Y-35290000D01*
%TO.C,JP3*%
X55300000Y-28620000D02*
X55300000Y-31120000D01*
X55300000Y-28620000D02*
X52000000Y-28620000D01*
X52000000Y-31120000D02*
X55300000Y-31120000D01*
X52000000Y-31120000D02*
X52000000Y-28620000D01*
%TO.C,C1*%
X25815000Y-14400000D02*
X20835000Y-14400000D01*
X20835000Y-16500000D01*
X25815000Y-16500000D01*
X25815000Y-14400000D01*
%TD*%
M02*
