%TF.GenerationSoftware,KiCad,Pcbnew,9.0.7*%
%TF.CreationDate,2026-05-06T21:08:42+02:00*%
%TF.ProjectId,BarePi_LCD160x80,42617265-5069-45f4-9c43-443136307838,rev?*%
%TF.SameCoordinates,Original*%
%TF.FileFunction,Soldermask,Bot*%
%TF.FilePolarity,Negative*%
%FSLAX46Y46*%
G04 Gerber Fmt 4.6, Leading zero omitted, Abs format (unit mm)*
G04 Created by KiCad (PCBNEW 9.0.7) date 2026-05-06 21:08:42*
%MOMM*%
%LPD*%
G01*
G04 APERTURE LIST*
G04 Aperture macros list*
%AMRoundRect*
0 Rectangle with rounded corners*
0 $1 Rounding radius*
0 $2 $3 $4 $5 $6 $7 $8 $9 X,Y pos of 4 corners*
0 Add a 4 corners polygon primitive as box body*
4,1,4,$2,$3,$4,$5,$6,$7,$8,$9,$2,$3,0*
0 Add four circle primitives for the rounded corners*
1,1,$1+$1,$2,$3*
1,1,$1+$1,$4,$5*
1,1,$1+$1,$6,$7*
1,1,$1+$1,$8,$9*
0 Add four rect primitives between the rounded corners*
20,1,$1+$1,$2,$3,$4,$5,0*
20,1,$1+$1,$4,$5,$6,$7,0*
20,1,$1+$1,$6,$7,$8,$9,0*
20,1,$1+$1,$8,$9,$2,$3,0*%
%AMOutline4P*
0 Free polygon, 4 corners , with rotation*
0 The origin of the aperture is its center*
0 number of corners: always 4*
0 $1 to $8 corner X, Y*
0 $9 Rotation angle, in degrees counterclockwise*
0 create outline with 4 corners*
4,1,4,$1,$2,$3,$4,$5,$6,$7,$8,$1,$2,$9*%
%AMFreePoly0*
4,1,23,0.500000,-0.750000,0.000000,-0.750000,0.000000,-0.745722,-0.065263,-0.745722,-0.191342,-0.711940,-0.304381,-0.646677,-0.396677,-0.554381,-0.461940,-0.441342,-0.495722,-0.315263,-0.495722,-0.250000,-0.500000,-0.250000,-0.500000,0.250000,-0.495722,0.250000,-0.495722,0.315263,-0.461940,0.441342,-0.396677,0.554381,-0.304381,0.646677,-0.191342,0.711940,-0.065263,0.745722,0.000000,0.745722,
0.000000,0.750000,0.500000,0.750000,0.500000,-0.750000,0.500000,-0.750000,$1*%
%AMFreePoly1*
4,1,23,0.000000,0.745722,0.065263,0.745722,0.191342,0.711940,0.304381,0.646677,0.396677,0.554381,0.461940,0.441342,0.495722,0.315263,0.495722,0.250000,0.500000,0.250000,0.500000,-0.250000,0.495722,-0.250000,0.495722,-0.315263,0.461940,-0.441342,0.396677,-0.554381,0.304381,-0.646677,0.191342,-0.711940,0.065263,-0.745722,0.000000,-0.745722,0.000000,-0.750000,-0.500000,-0.750000,
-0.500000,0.750000,0.000000,0.750000,0.000000,0.745722,0.000000,0.745722,$1*%
G04 Aperture macros list end*
%ADD10Outline4P,-1.500000X-0.800000X1.500000X-0.800000X1.500000X0.800000X-1.500000X0.800000X270.000000*%
%ADD11O,1.600000X3.000000*%
%ADD12Outline4P,-1.600000X-0.800000X1.600000X-0.800000X1.600000X0.800000X-1.600000X0.800000X90.000000*%
%ADD13O,1.600000X3.200000*%
%ADD14Outline4P,-1.600000X-0.800000X1.600000X-0.800000X1.600000X0.800000X-1.600000X0.800000X0.000000*%
%ADD15O,3.200000X1.600000*%
%ADD16C,3.000000*%
%ADD17RoundRect,0.250000X-0.412500X-1.100000X0.412500X-1.100000X0.412500X1.100000X-0.412500X1.100000X0*%
%ADD18FreePoly0,180.000000*%
%ADD19FreePoly1,180.000000*%
%ADD20RoundRect,0.137500X0.137500X-0.612500X0.137500X0.612500X-0.137500X0.612500X-0.137500X-0.612500X0*%
%ADD21RoundRect,0.250000X0.625000X-0.400000X0.625000X0.400000X-0.625000X0.400000X-0.625000X-0.400000X0*%
%ADD22RoundRect,0.250000X0.545000X0.445000X-0.545000X0.445000X-0.545000X-0.445000X0.545000X-0.445000X0*%
G04 APERTURE END LIST*
%TO.C,JP2*%
G36*
X60600000Y-38970000D02*
G01*
X60300000Y-38970000D01*
X60300000Y-40470000D01*
X60600000Y-40470000D01*
X60600000Y-38970000D01*
G37*
%TO.C,JP4*%
G36*
X53570000Y-26310000D02*
G01*
X53270000Y-26310000D01*
X53270000Y-27810000D01*
X53570000Y-27810000D01*
X53570000Y-26310000D01*
G37*
%TO.C,JP1*%
G36*
X62350000Y-35790000D02*
G01*
X62050000Y-35790000D01*
X62050000Y-37290000D01*
X62350000Y-37290000D01*
X62350000Y-35790000D01*
G37*
%TO.C,JP3*%
G36*
X53800000Y-29120000D02*
G01*
X53500000Y-29120000D01*
X53500000Y-30620000D01*
X53800000Y-30620000D01*
X53800000Y-29120000D01*
G37*
%TD*%
D10*
%TO.C,J2*%
X8370000Y-40420000D03*
D11*
X8370000Y-37080000D03*
X10910000Y-40420000D03*
X10910000Y-37080000D03*
X13450000Y-40420000D03*
X13450000Y-37080000D03*
X15990000Y-40420000D03*
X15990000Y-37080000D03*
X18530000Y-40420000D03*
X18530000Y-37080000D03*
X21070000Y-40420000D03*
X21070000Y-37080000D03*
X23610000Y-40420000D03*
X23610000Y-37080000D03*
X26150000Y-40420000D03*
X26150000Y-37080000D03*
X28690000Y-40420000D03*
X28690000Y-37080000D03*
X31230000Y-40420000D03*
X31230000Y-37080000D03*
X33770000Y-40420000D03*
X33770000Y-37080000D03*
X36310000Y-40420000D03*
X36310000Y-37080000D03*
X38850000Y-40420000D03*
X38850000Y-37080000D03*
X41390000Y-40420000D03*
X41390000Y-37080000D03*
X43930000Y-40420000D03*
X43930000Y-37080000D03*
X46470000Y-40420000D03*
X46470000Y-37080000D03*
X49010000Y-40420000D03*
X49010000Y-37080000D03*
X51550000Y-40420000D03*
X51550000Y-37080000D03*
X54090000Y-40420000D03*
X54090000Y-37080000D03*
X56630000Y-40420000D03*
X56630000Y-37080000D03*
%TD*%
D12*
%TO.C,J3*%
X22110000Y-11500000D03*
D13*
X24650000Y-11500000D03*
X27190000Y-11500000D03*
X29730000Y-11500000D03*
X32270000Y-11500000D03*
X34810000Y-11500000D03*
X37350000Y-11500000D03*
X39890000Y-11500000D03*
%TD*%
D14*
%TO.C,J4*%
X54500000Y-17500000D03*
D15*
X54500000Y-20040000D03*
X54500000Y-22580000D03*
%TD*%
D16*
%TO.C,REF\u002A\u002A*%
X3500000Y-45500000D03*
%TD*%
D10*
%TO.C,J1*%
X8370000Y-3830000D03*
D11*
X8370000Y-7170000D03*
X10910000Y-3830000D03*
X10910000Y-7170000D03*
X13450000Y-3830000D03*
X13450000Y-7170000D03*
X15990000Y-3830000D03*
X15990000Y-7170000D03*
X18530000Y-3830000D03*
X18530000Y-7170000D03*
X21070000Y-3830000D03*
X21070000Y-7170000D03*
X23610000Y-3830000D03*
X23610000Y-7170000D03*
X26150000Y-3830000D03*
X26150000Y-7170000D03*
X28690000Y-3830000D03*
X28690000Y-7170000D03*
X31230000Y-3830000D03*
X31230000Y-7170000D03*
X33770000Y-3830000D03*
X33770000Y-7170000D03*
X36310000Y-3830000D03*
X36310000Y-7170000D03*
X38850000Y-3830000D03*
X38850000Y-7170000D03*
X41390000Y-3830000D03*
X41390000Y-7170000D03*
X43930000Y-3830000D03*
X43930000Y-7170000D03*
X46470000Y-3830000D03*
X46470000Y-7170000D03*
X49010000Y-3830000D03*
X49010000Y-7170000D03*
X51550000Y-3830000D03*
X51550000Y-7170000D03*
X54090000Y-3830000D03*
X54090000Y-7170000D03*
X56630000Y-3830000D03*
X56630000Y-7170000D03*
%TD*%
D16*
%TO.C,REF\u002A\u002A*%
X3500000Y-3500000D03*
%TD*%
%TO.C,REF\u002A\u002A*%
X61500000Y-3500000D03*
%TD*%
%TO.C,REF\u002A\u002A*%
X61500000Y-45500000D03*
%TD*%
D17*
%TO.C,C2*%
X55927500Y-12770000D03*
X59052500Y-12770000D03*
%TD*%
D18*
%TO.C,JP2*%
X61100000Y-39720000D03*
D19*
X59800000Y-39720000D03*
%TD*%
D20*
%TO.C,U1*%
X61525000Y-32370000D03*
X60255000Y-32370000D03*
X58985000Y-32370000D03*
X57715000Y-32370000D03*
X57715000Y-27070000D03*
X58985000Y-27070000D03*
X60255000Y-27070000D03*
X61525000Y-27070000D03*
%TD*%
D18*
%TO.C,JP4*%
X54070000Y-27060000D03*
D19*
X52770000Y-27060000D03*
%TD*%
D21*
%TO.C,R1*%
X37225000Y-22725000D03*
X37225000Y-19625000D03*
%TD*%
D18*
%TO.C,JP1*%
X62850000Y-36540000D03*
D19*
X61550000Y-36540000D03*
%TD*%
D18*
%TO.C,JP3*%
X54300000Y-29870000D03*
D19*
X53000000Y-29870000D03*
%TD*%
D22*
%TO.C,C1*%
X24765000Y-15450000D03*
X21885000Y-15450000D03*
%TD*%
M02*
