%TF.GenerationSoftware,KiCad,Pcbnew,9.0.7*%
%TF.CreationDate,2026-05-06T21:08:42+02:00*%
%TF.ProjectId,BarePi_LCD160x80,42617265-5069-45f4-9c43-443136307838,rev?*%
%TF.SameCoordinates,Original*%
%TF.FileFunction,Soldermask,Top*%
%TF.FilePolarity,Negative*%
%FSLAX46Y46*%
G04 Gerber Fmt 4.6, Leading zero omitted, Abs format (unit mm)*
G04 Created by KiCad (PCBNEW 9.0.7) date 2026-05-06 21:08:42*
%MOMM*%
%LPD*%
G01*
G04 APERTURE LIST*
G04 Aperture macros list*
%AMOutline4P*
0 Free polygon, 4 corners , with rotation*
0 The origin of the aperture is its center*
0 number of corners: always 4*
0 $1 to $8 corner X, Y*
0 $9 Rotation angle, in degrees counterclockwise*
0 create outline with 4 corners*
4,1,4,$1,$2,$3,$4,$5,$6,$7,$8,$1,$2,$9*%
G04 Aperture macros list end*
%ADD10Outline4P,-1.500000X-0.800000X1.500000X-0.800000X1.500000X0.800000X-1.500000X0.800000X270.000000*%
%ADD11O,1.600000X3.000000*%
%ADD12Outline4P,-1.600000X-0.800000X1.600000X-0.800000X1.600000X0.800000X-1.600000X0.800000X90.000000*%
%ADD13O,1.600000X3.200000*%
%ADD14Outline4P,-1.600000X-0.800000X1.600000X-0.800000X1.600000X0.800000X-1.600000X0.800000X0.000000*%
%ADD15O,3.200000X1.600000*%
%ADD16C,3.000000*%
G04 APERTURE END LIST*
D10*
%TO.C,J2*%
X8370000Y-40420000D03*
D11*
X8370000Y-37080000D03*
X10910000Y-40420000D03*
X10910000Y-37080000D03*
X13450000Y-40420000D03*
X13450000Y-37080000D03*
X15990000Y-40420000D03*
X15990000Y-37080000D03*
X18530000Y-40420000D03*
X18530000Y-37080000D03*
X21070000Y-40420000D03*
X21070000Y-37080000D03*
X23610000Y-40420000D03*
X23610000Y-37080000D03*
X26150000Y-40420000D03*
X26150000Y-37080000D03*
X28690000Y-40420000D03*
X28690000Y-37080000D03*
X31230000Y-40420000D03*
X31230000Y-37080000D03*
X33770000Y-40420000D03*
X33770000Y-37080000D03*
X36310000Y-40420000D03*
X36310000Y-37080000D03*
X38850000Y-40420000D03*
X38850000Y-37080000D03*
X41390000Y-40420000D03*
X41390000Y-37080000D03*
X43930000Y-40420000D03*
X43930000Y-37080000D03*
X46470000Y-40420000D03*
X46470000Y-37080000D03*
X49010000Y-40420000D03*
X49010000Y-37080000D03*
X51550000Y-40420000D03*
X51550000Y-37080000D03*
X54090000Y-40420000D03*
X54090000Y-37080000D03*
X56630000Y-40420000D03*
X56630000Y-37080000D03*
%TD*%
D12*
%TO.C,J3*%
X22110000Y-11500000D03*
D13*
X24650000Y-11500000D03*
X27190000Y-11500000D03*
X29730000Y-11500000D03*
X32270000Y-11500000D03*
X34810000Y-11500000D03*
X37350000Y-11500000D03*
X39890000Y-11500000D03*
%TD*%
D14*
%TO.C,J4*%
X54500000Y-17500000D03*
D15*
X54500000Y-20040000D03*
X54500000Y-22580000D03*
%TD*%
D16*
%TO.C,REF\u002A\u002A*%
X3500000Y-45500000D03*
%TD*%
D10*
%TO.C,J1*%
X8370000Y-3830000D03*
D11*
X8370000Y-7170000D03*
X10910000Y-3830000D03*
X10910000Y-7170000D03*
X13450000Y-3830000D03*
X13450000Y-7170000D03*
X15990000Y-3830000D03*
X15990000Y-7170000D03*
X18530000Y-3830000D03*
X18530000Y-7170000D03*
X21070000Y-3830000D03*
X21070000Y-7170000D03*
X23610000Y-3830000D03*
X23610000Y-7170000D03*
X26150000Y-3830000D03*
X26150000Y-7170000D03*
X28690000Y-3830000D03*
X28690000Y-7170000D03*
X31230000Y-3830000D03*
X31230000Y-7170000D03*
X33770000Y-3830000D03*
X33770000Y-7170000D03*
X36310000Y-3830000D03*
X36310000Y-7170000D03*
X38850000Y-3830000D03*
X38850000Y-7170000D03*
X41390000Y-3830000D03*
X41390000Y-7170000D03*
X43930000Y-3830000D03*
X43930000Y-7170000D03*
X46470000Y-3830000D03*
X46470000Y-7170000D03*
X49010000Y-3830000D03*
X49010000Y-7170000D03*
X51550000Y-3830000D03*
X51550000Y-7170000D03*
X54090000Y-3830000D03*
X54090000Y-7170000D03*
X56630000Y-3830000D03*
X56630000Y-7170000D03*
%TD*%
D16*
%TO.C,REF\u002A\u002A*%
X3500000Y-3500000D03*
%TD*%
%TO.C,REF\u002A\u002A*%
X61500000Y-3500000D03*
%TD*%
%TO.C,REF\u002A\u002A*%
X61500000Y-45500000D03*
%TD*%
M02*
