%TF.GenerationSoftware,KiCad,Pcbnew,9.0.7*%
%TF.CreationDate,2026-07-07T10:04:18+02:00*%
%TF.ProjectId,BarePi_LCD160x80,42617265-5069-45f4-9c43-443136307838,rev?*%
%TF.SameCoordinates,Original*%
%TF.FileFunction,Legend,Top*%
%TF.FilePolarity,Positive*%
%FSLAX46Y46*%
G04 Gerber Fmt 4.6, Leading zero omitted, Abs format (unit mm)*
G04 Created by KiCad (PCBNEW 9.0.7) date 2026-07-07 10:04:18*
%MOMM*%
%LPD*%
G01*
G04 APERTURE LIST*
%ADD10C,0.150000*%
%ADD11C,0.120000*%
G04 APERTURE END LIST*
D10*
X18591666Y-11004819D02*
X18591666Y-11719104D01*
X18591666Y-11719104D02*
X18544047Y-11861961D01*
X18544047Y-11861961D02*
X18448809Y-11957200D01*
X18448809Y-11957200D02*
X18305952Y-12004819D01*
X18305952Y-12004819D02*
X18210714Y-12004819D01*
X18972619Y-11004819D02*
X19591666Y-11004819D01*
X19591666Y-11004819D02*
X19258333Y-11385771D01*
X19258333Y-11385771D02*
X19401190Y-11385771D01*
X19401190Y-11385771D02*
X19496428Y-11433390D01*
X19496428Y-11433390D02*
X19544047Y-11481009D01*
X19544047Y-11481009D02*
X19591666Y-11576247D01*
X19591666Y-11576247D02*
X19591666Y-11814342D01*
X19591666Y-11814342D02*
X19544047Y-11909580D01*
X19544047Y-11909580D02*
X19496428Y-11957200D01*
X19496428Y-11957200D02*
X19401190Y-12004819D01*
X19401190Y-12004819D02*
X19115476Y-12004819D01*
X19115476Y-12004819D02*
X19020238Y-11957200D01*
X19020238Y-11957200D02*
X18972619Y-11909580D01*
X11898333Y-22169819D02*
X11565000Y-21693628D01*
X11326905Y-22169819D02*
X11326905Y-21169819D01*
X11326905Y-21169819D02*
X11707857Y-21169819D01*
X11707857Y-21169819D02*
X11803095Y-21217438D01*
X11803095Y-21217438D02*
X11850714Y-21265057D01*
X11850714Y-21265057D02*
X11898333Y-21360295D01*
X11898333Y-21360295D02*
X11898333Y-21503152D01*
X11898333Y-21503152D02*
X11850714Y-21598390D01*
X11850714Y-21598390D02*
X11803095Y-21646009D01*
X11803095Y-21646009D02*
X11707857Y-21693628D01*
X11707857Y-21693628D02*
X11326905Y-21693628D01*
X12279286Y-21265057D02*
X12326905Y-21217438D01*
X12326905Y-21217438D02*
X12422143Y-21169819D01*
X12422143Y-21169819D02*
X12660238Y-21169819D01*
X12660238Y-21169819D02*
X12755476Y-21217438D01*
X12755476Y-21217438D02*
X12803095Y-21265057D01*
X12803095Y-21265057D02*
X12850714Y-21360295D01*
X12850714Y-21360295D02*
X12850714Y-21455533D01*
X12850714Y-21455533D02*
X12803095Y-21598390D01*
X12803095Y-21598390D02*
X12231667Y-22169819D01*
X12231667Y-22169819D02*
X12850714Y-22169819D01*
D11*
%TO.C,R2*%
X13485000Y-22712064D02*
X13485000Y-21257936D01*
X15305000Y-22712064D02*
X15305000Y-21257936D01*
%TD*%
M02*
