M48
; DRILL file {KiCad 9.0.7} date 2026-05-06T21:08:44+0200
; FORMAT={-:-/ absolute / metric / decimal}
; #@! TF.CreationDate,2026-05-06T21:08:44+02:00
; #@! TF.GenerationSoftware,Kicad,Pcbnew,9.0.7
; #@! TF.FileFunction,Plated,1,2,PTH
FMAT,2
METRIC
; #@! TA.AperFunction,Plated,PTH,ViaDrill
T1C0.600
; #@! TA.AperFunction,Plated,PTH,ComponentDrill
T2C1.000
%
G90
G05
T1
X10.91Y-18.82
X12.184Y-24.93
X13.45Y-27.63
X21.87Y-20.54
X24.616Y-18.704
X26.849Y-17.364
X27.85Y-23.351
X30.079Y-16.623
X30.924Y-20.351
X33.367Y-15.715
X33.829Y-24.11
X36.595Y-30.51
X37.037Y-24.11
X39.48Y-26.33
X39.831Y-22.513
X41.156Y-19.35
X51.451Y-26.33
X51.517Y-20.72
X51.82Y-18.4
X55.88Y-30.44
X55.994Y-27.146
X56.318Y-25.273
T2
X8.37Y-4.23
X8.37Y-6.77
X8.37Y-37.48
X8.37Y-40.02
X10.91Y-4.23
X10.91Y-6.77
X10.91Y-37.48
X10.91Y-40.02
X13.45Y-4.23
X13.45Y-6.77
X13.45Y-37.48
X13.45Y-40.02
X15.99Y-4.23
X15.99Y-6.77
X15.99Y-37.48
X15.99Y-40.02
X18.53Y-4.23
X18.53Y-6.77
X18.53Y-37.48
X18.53Y-40.02
X21.07Y-4.23
X21.07Y-6.77
X21.07Y-37.48
X21.07Y-40.02
X22.11Y-11.5
X23.61Y-4.23
X23.61Y-6.77
X23.61Y-37.48
X23.61Y-40.02
X24.65Y-11.5
X26.15Y-4.23
X26.15Y-6.77
X26.15Y-37.48
X26.15Y-40.02
X27.19Y-11.5
X28.69Y-4.23
X28.69Y-6.77
X28.69Y-37.48
X28.69Y-40.02
X29.73Y-11.5
X31.23Y-4.23
X31.23Y-6.77
X31.23Y-37.48
X31.23Y-40.02
X32.27Y-11.5
X33.77Y-4.23
X33.77Y-6.77
X33.77Y-37.48
X33.77Y-40.02
X34.81Y-11.5
X36.31Y-4.23
X36.31Y-6.77
X36.31Y-37.48
X36.31Y-40.02
X37.35Y-11.5
X38.85Y-4.23
X38.85Y-6.77
X38.85Y-37.48
X38.85Y-40.02
X39.89Y-11.5
X41.39Y-4.23
X41.39Y-6.77
X41.39Y-37.48
X41.39Y-40.02
X43.93Y-4.23
X43.93Y-6.77
X43.93Y-37.48
X43.93Y-40.02
X46.47Y-4.23
X46.47Y-6.77
X46.47Y-37.48
X46.47Y-40.02
X49.01Y-4.23
X49.01Y-6.77
X49.01Y-37.48
X49.01Y-40.02
X51.55Y-4.23
X51.55Y-6.77
X51.55Y-37.48
X51.55Y-40.02
X54.09Y-4.23
X54.09Y-6.77
X54.09Y-37.48
X54.09Y-40.02
X54.5Y-17.5
X54.5Y-20.04
X54.5Y-22.58
X56.63Y-4.23
X56.63Y-6.77
X56.63Y-37.48
X56.63Y-40.02
M30
