%TF.GenerationSoftware,KiCad,Pcbnew,9.0.7*%
%TF.CreationDate,2026-05-06T21:22:44+02:00*%
%TF.ProjectId,BarePi_TweetyBoy,42617265-5069-45f5-9477-65657479426f,rev?*%
%TF.SameCoordinates,Original*%
%TF.FileFunction,Legend,Bot*%
%TF.FilePolarity,Positive*%
%FSLAX46Y46*%
G04 Gerber Fmt 4.6, Leading zero omitted, Abs format (unit mm)*
G04 Created by KiCad (PCBNEW 9.0.7) date 2026-05-06 21:22:44*
%MOMM*%
%LPD*%
G01*
G04 APERTURE LIST*
%ADD10C,0.150000*%
%ADD11C,0.120000*%
G04 APERTURE END LIST*
D10*
X43226189Y-6054819D02*
X43226189Y-5054819D01*
X42178571Y-5959580D02*
X42226190Y-6007200D01*
X42226190Y-6007200D02*
X42369047Y-6054819D01*
X42369047Y-6054819D02*
X42464285Y-6054819D01*
X42464285Y-6054819D02*
X42607142Y-6007200D01*
X42607142Y-6007200D02*
X42702380Y-5911961D01*
X42702380Y-5911961D02*
X42749999Y-5816723D01*
X42749999Y-5816723D02*
X42797618Y-5626247D01*
X42797618Y-5626247D02*
X42797618Y-5483390D01*
X42797618Y-5483390D02*
X42749999Y-5292914D01*
X42749999Y-5292914D02*
X42702380Y-5197676D01*
X42702380Y-5197676D02*
X42607142Y-5102438D01*
X42607142Y-5102438D02*
X42464285Y-5054819D01*
X42464285Y-5054819D02*
X42369047Y-5054819D01*
X42369047Y-5054819D02*
X42226190Y-5102438D01*
X42226190Y-5102438D02*
X42178571Y-5150057D01*
X41226190Y-6054819D02*
X41797618Y-6054819D01*
X41511904Y-6054819D02*
X41511904Y-5054819D01*
X41511904Y-5054819D02*
X41607142Y-5197676D01*
X41607142Y-5197676D02*
X41702380Y-5292914D01*
X41702380Y-5292914D02*
X41797618Y-5340533D01*
X20391666Y-4084580D02*
X20439285Y-4132200D01*
X20439285Y-4132200D02*
X20582142Y-4179819D01*
X20582142Y-4179819D02*
X20677380Y-4179819D01*
X20677380Y-4179819D02*
X20820237Y-4132200D01*
X20820237Y-4132200D02*
X20915475Y-4036961D01*
X20915475Y-4036961D02*
X20963094Y-3941723D01*
X20963094Y-3941723D02*
X21010713Y-3751247D01*
X21010713Y-3751247D02*
X21010713Y-3608390D01*
X21010713Y-3608390D02*
X20963094Y-3417914D01*
X20963094Y-3417914D02*
X20915475Y-3322676D01*
X20915475Y-3322676D02*
X20820237Y-3227438D01*
X20820237Y-3227438D02*
X20677380Y-3179819D01*
X20677380Y-3179819D02*
X20582142Y-3179819D01*
X20582142Y-3179819D02*
X20439285Y-3227438D01*
X20439285Y-3227438D02*
X20391666Y-3275057D01*
X19439285Y-4179819D02*
X20010713Y-4179819D01*
X19724999Y-4179819D02*
X19724999Y-3179819D01*
X19724999Y-3179819D02*
X19820237Y-3322676D01*
X19820237Y-3322676D02*
X19915475Y-3417914D01*
X19915475Y-3417914D02*
X20010713Y-3465533D01*
D11*
%TO.C,IC1*%
X28165000Y-3965000D02*
X28165000Y-8085000D01*
X28637500Y-3965000D02*
X28165000Y-3965000D01*
X38285000Y-3965000D02*
X37812500Y-3965000D01*
X28165000Y-8085000D02*
X28637500Y-8085000D01*
X37812500Y-8085000D02*
X38285000Y-8085000D01*
X38285000Y-8085000D02*
X38285000Y-3965000D01*
X28635000Y-3325000D02*
X28165000Y-3665000D01*
X28165000Y-2985000D01*
X28635000Y-3325000D01*
G36*
X28635000Y-3325000D02*
G01*
X28165000Y-3665000D01*
X28165000Y-2985000D01*
X28635000Y-3325000D01*
G37*
%TO.C,C1*%
X20213748Y-6535000D02*
X21636252Y-6535000D01*
X20213748Y-4715000D02*
X21636252Y-4715000D01*
%TD*%
M02*
