%TF.GenerationSoftware,KiCad,Pcbnew,9.0.7*%
%TF.CreationDate,2026-05-06T21:22:43+02:00*%
%TF.ProjectId,BarePi_TweetyBoy,42617265-5069-45f5-9477-65657479426f,rev?*%
%TF.SameCoordinates,Original*%
%TF.FileFunction,Copper,L2,Bot*%
%TF.FilePolarity,Positive*%
%FSLAX46Y46*%
G04 Gerber Fmt 4.6, Leading zero omitted, Abs format (unit mm)*
G04 Created by KiCad (PCBNEW 9.0.7) date 2026-05-06 21:22:43*
%MOMM*%
%LPD*%
G01*
G04 APERTURE LIST*
G04 Aperture macros list*
%AMRoundRect*
0 Rectangle with rounded corners*
0 $1 Rounding radius*
0 $2 $3 $4 $5 $6 $7 $8 $9 X,Y pos of 4 corners*
0 Add a 4 corners polygon primitive as box body*
4,1,4,$2,$3,$4,$5,$6,$7,$8,$9,$2,$3,0*
0 Add four circle primitives for the rounded corners*
1,1,$1+$1,$2,$3*
1,1,$1+$1,$4,$5*
1,1,$1+$1,$6,$7*
1,1,$1+$1,$8,$9*
0 Add four rect primitives between the rounded corners*
20,1,$1+$1,$2,$3,$4,$5,0*
20,1,$1+$1,$4,$5,$6,$7,0*
20,1,$1+$1,$6,$7,$8,$9,0*
20,1,$1+$1,$8,$9,$2,$3,0*%
%AMOutline4P*
0 Free polygon, 4 corners , with rotation*
0 The origin of the aperture is its center*
0 number of corners: always 4*
0 $1 to $8 corner X, Y*
0 $9 Rotation angle, in degrees counterclockwise*
0 create outline with 4 corners*
4,1,4,$1,$2,$3,$4,$5,$6,$7,$8,$1,$2,$9*%
G04 Aperture macros list end*
%TA.AperFunction,NonConductor*%
%ADD10C,0.700000*%
%TD*%
%ADD11C,0.300000*%
%ADD12C,0.500000*%
%ADD13C,0.200000*%
%TA.AperFunction,NonConductor*%
%ADD14C,0.200000*%
%TD*%
%TA.AperFunction,ComponentPad*%
%ADD15Outline4P,-1.600000X-0.800000X1.600000X-0.800000X1.600000X0.800000X-1.600000X0.800000X90.000000*%
%TD*%
%TA.AperFunction,ComponentPad*%
%ADD16O,1.600000X3.200000*%
%TD*%
%TA.AperFunction,ComponentPad*%
%ADD17Outline4P,-1.500000X-0.800000X1.500000X-0.800000X1.500000X0.800000X-1.500000X0.800000X270.000000*%
%TD*%
%TA.AperFunction,ComponentPad*%
%ADD18O,1.600000X3.000000*%
%TD*%
%TA.AperFunction,SMDPad,CuDef*%
%ADD19RoundRect,0.100000X-0.100000X0.712500X-0.100000X-0.712500X0.100000X-0.712500X0.100000X0.712500X0*%
%TD*%
%TA.AperFunction,SMDPad,CuDef*%
%ADD20RoundRect,0.250000X-0.412500X-0.650000X0.412500X-0.650000X0.412500X0.650000X-0.412500X0.650000X0*%
%TD*%
%TA.AperFunction,ViaPad*%
%ADD21C,1.200000*%
%TD*%
%TA.AperFunction,Conductor*%
%ADD22C,0.330000*%
%TD*%
%TA.AperFunction,Conductor*%
%ADD23C,0.400000*%
%TD*%
%TA.AperFunction,Conductor*%
%ADD24C,0.800000*%
%TD*%
G04 APERTURE END LIST*
D10*
X27525000Y-3125000D02*
G75*
G02*
X27125000Y-3125000I-200000J0D01*
G01*
X27125000Y-3125000D02*
G75*
G02*
X27525000Y-3125000I200000J0D01*
G01*
D11*
G36*
X3396000Y-10331960D02*
G01*
X3392462Y-10543184D01*
X3387793Y-10624612D01*
X3376176Y-10687619D01*
X3356968Y-10741394D01*
X3330640Y-10787351D01*
X3296499Y-10827917D01*
X3255343Y-10862536D01*
X3206369Y-10891472D01*
X3153500Y-10912811D01*
X3100348Y-10925394D01*
X3046341Y-10929574D01*
X2978694Y-10922802D01*
X2918643Y-10903114D01*
X2864551Y-10870516D01*
X2818982Y-10826734D01*
X2782493Y-10771191D01*
X2755082Y-10701695D01*
X2727428Y-10750286D01*
X2692297Y-10791151D01*
X2649129Y-10825087D01*
X2600395Y-10850402D01*
X2548951Y-10865491D01*
X2493864Y-10870589D01*
X2442859Y-10866371D01*
X2396194Y-10854032D01*
X2353034Y-10833660D01*
X2295927Y-10791709D01*
X2252430Y-10741482D01*
X2221287Y-10682917D01*
X2202751Y-10616039D01*
X2194331Y-10536877D01*
X2190808Y-10403328D01*
X2190808Y-10304996D01*
X2392454Y-10304996D01*
X2396558Y-10512358D01*
X2405077Y-10551254D01*
X2419243Y-10581087D01*
X2438616Y-10603729D01*
X2477438Y-10626450D01*
X2528742Y-10634504D01*
X2565899Y-10630297D01*
X2596582Y-10618351D01*
X2622238Y-10598820D01*
X2650054Y-10557927D01*
X2665030Y-10500928D01*
X2668274Y-10361563D01*
X2870780Y-10361563D01*
X2876442Y-10512804D01*
X2888145Y-10576692D01*
X2911072Y-10621067D01*
X2943466Y-10652529D01*
X2984579Y-10671926D01*
X3035863Y-10678761D01*
X3077542Y-10674634D01*
X3111244Y-10663098D01*
X3138665Y-10644689D01*
X3169682Y-10606064D01*
X3186952Y-10556615D01*
X3191887Y-10509661D01*
X3194353Y-10390212D01*
X3194353Y-10165631D01*
X2870780Y-10165631D01*
X2870780Y-10361563D01*
X2668274Y-10361563D01*
X2669133Y-10324633D01*
X2669133Y-10165631D01*
X2392454Y-10165631D01*
X2392454Y-10304996D01*
X2190808Y-10304996D01*
X2190808Y-9922951D01*
X3396000Y-9922951D01*
X3396000Y-10331960D01*
G37*
G36*
X2919711Y-11092319D02*
G01*
X3021223Y-11112556D01*
X3109849Y-11144725D01*
X3187412Y-11188291D01*
X3255316Y-11243401D01*
X3313334Y-11309612D01*
X3358613Y-11383982D01*
X3391662Y-11467665D01*
X3412256Y-11562238D01*
X3419447Y-11669630D01*
X3412262Y-11775523D01*
X3391650Y-11869083D01*
X3358501Y-11952176D01*
X3312977Y-12026325D01*
X3254510Y-12092634D01*
X3186363Y-12147614D01*
X3108242Y-12191163D01*
X3018684Y-12223380D01*
X2915802Y-12243683D01*
X2797360Y-12250830D01*
X2677896Y-12243616D01*
X2574267Y-12223134D01*
X2484192Y-12190651D01*
X2405742Y-12146769D01*
X2337427Y-12091388D01*
X2278781Y-12024579D01*
X2233129Y-11949973D01*
X2199898Y-11866474D01*
X2179245Y-11772569D01*
X2172214Y-11668824D01*
X2378386Y-11668824D01*
X2385176Y-11742124D01*
X2404639Y-11805470D01*
X2436304Y-11860802D01*
X2480895Y-11909452D01*
X2533961Y-11946510D01*
X2601202Y-11974775D01*
X2685799Y-11993268D01*
X2791645Y-12000017D01*
X2898540Y-11993125D01*
X2984434Y-11974191D01*
X3053134Y-11945157D01*
X3107744Y-11906960D01*
X3154048Y-11856903D01*
X3186551Y-11801389D01*
X3206293Y-11739267D01*
X3213110Y-11668824D01*
X3206268Y-11598436D01*
X3186419Y-11536103D01*
X3153671Y-11480147D01*
X3106938Y-11429441D01*
X3051781Y-11390510D01*
X2983385Y-11361130D01*
X2898932Y-11342101D01*
X2794942Y-11335212D01*
X2688790Y-11342031D01*
X2603716Y-11360742D01*
X2535878Y-11389390D01*
X2482140Y-11427023D01*
X2436908Y-11476347D01*
X2404867Y-11532124D01*
X2385223Y-11595651D01*
X2378386Y-11668824D01*
X2172214Y-11668824D01*
X2172050Y-11666406D01*
X2177700Y-11569468D01*
X2193879Y-11483631D01*
X2219750Y-11407386D01*
X2247039Y-11353428D01*
X2283004Y-11301727D01*
X2328414Y-11251974D01*
X2406457Y-11188526D01*
X2493791Y-11140160D01*
X2578948Y-11110865D01*
X2681035Y-11091981D01*
X2803149Y-11085205D01*
X2919711Y-11092319D01*
G37*
G36*
X3396000Y-12710910D02*
G01*
X2392454Y-12710910D01*
X2392454Y-12354291D01*
X2190808Y-12354291D01*
X2190808Y-13309330D01*
X2392454Y-13309330D01*
X2392454Y-12953517D01*
X3396000Y-12953517D01*
X3396000Y-12710910D01*
G37*
G36*
X3396000Y-13736730D02*
G01*
X2392454Y-13736730D01*
X2392454Y-13380111D01*
X2190808Y-13380111D01*
X2190808Y-14335150D01*
X2392454Y-14335150D01*
X2392454Y-13979337D01*
X3396000Y-13979337D01*
X3396000Y-13736730D01*
G37*
G36*
X2919711Y-14419493D02*
G01*
X3021223Y-14439730D01*
X3109849Y-14471899D01*
X3187412Y-14515464D01*
X3255316Y-14570575D01*
X3313334Y-14636786D01*
X3358613Y-14711156D01*
X3391662Y-14794838D01*
X3412256Y-14889412D01*
X3419447Y-14996803D01*
X3412262Y-15102697D01*
X3391650Y-15196257D01*
X3358501Y-15279349D01*
X3312977Y-15353499D01*
X3254510Y-15419808D01*
X3186363Y-15474788D01*
X3108242Y-15518336D01*
X3018684Y-15550554D01*
X2915802Y-15570857D01*
X2797360Y-15578004D01*
X2677896Y-15570790D01*
X2574267Y-15550307D01*
X2484192Y-15517825D01*
X2405742Y-15473943D01*
X2337427Y-15418562D01*
X2278781Y-15351753D01*
X2233129Y-15277147D01*
X2199898Y-15193648D01*
X2179245Y-15099742D01*
X2172214Y-14995997D01*
X2378386Y-14995997D01*
X2385176Y-15069298D01*
X2404639Y-15132644D01*
X2436304Y-15187976D01*
X2480895Y-15236625D01*
X2533961Y-15273684D01*
X2601202Y-15301949D01*
X2685799Y-15320441D01*
X2791645Y-15327191D01*
X2898540Y-15320299D01*
X2984434Y-15301365D01*
X3053134Y-15272331D01*
X3107744Y-15234134D01*
X3154048Y-15184077D01*
X3186551Y-15128563D01*
X3206293Y-15066441D01*
X3213110Y-14995997D01*
X3206268Y-14925609D01*
X3186419Y-14863277D01*
X3153671Y-14807320D01*
X3106938Y-14756615D01*
X3051781Y-14717683D01*
X2983385Y-14688304D01*
X2898932Y-14669275D01*
X2794942Y-14662386D01*
X2688790Y-14669205D01*
X2603716Y-14687915D01*
X2535878Y-14716564D01*
X2482140Y-14754197D01*
X2436908Y-14803520D01*
X2404867Y-14859298D01*
X2385223Y-14922825D01*
X2378386Y-14995997D01*
X2172214Y-14995997D01*
X2172050Y-14993579D01*
X2177700Y-14896641D01*
X2193879Y-14810805D01*
X2219750Y-14734560D01*
X2247039Y-14680602D01*
X2283004Y-14628900D01*
X2328414Y-14579148D01*
X2406457Y-14515700D01*
X2493791Y-14467334D01*
X2578948Y-14438038D01*
X2681035Y-14419155D01*
X2803149Y-14412379D01*
X2919711Y-14419493D01*
G37*
G36*
X3396000Y-15764263D02*
G01*
X2190808Y-15764263D01*
X2190808Y-16127404D01*
X3012929Y-16345464D01*
X2190808Y-16561032D01*
X2190808Y-16925052D01*
X3396000Y-16925052D01*
X3396000Y-16699591D01*
X2447336Y-16699591D01*
X3396000Y-16461088D01*
X3396000Y-16227421D01*
X2447336Y-15989724D01*
X3396000Y-15989724D01*
X3396000Y-15764263D01*
G37*
D12*
G36*
X44395847Y-26660000D02*
G01*
X43714165Y-26660000D01*
X43362125Y-26654103D01*
X43226412Y-26646322D01*
X43121401Y-26626960D01*
X43031775Y-26594947D01*
X42955180Y-26551067D01*
X42887571Y-26494165D01*
X42829872Y-26425571D01*
X42781646Y-26343949D01*
X42746080Y-26255833D01*
X42725108Y-26167247D01*
X42718143Y-26077236D01*
X42719891Y-26059773D01*
X43136164Y-26059773D01*
X43143042Y-26129238D01*
X43162270Y-26185407D01*
X43192951Y-26231109D01*
X43257326Y-26282803D01*
X43339741Y-26311587D01*
X43417998Y-26319813D01*
X43617078Y-26323921D01*
X43991381Y-26323921D01*
X43991381Y-25784633D01*
X43664828Y-25784633D01*
X43412759Y-25794071D01*
X43306279Y-25813576D01*
X43232320Y-25851786D01*
X43179884Y-25905778D01*
X43147556Y-25974299D01*
X43136164Y-26059773D01*
X42719891Y-26059773D01*
X42729429Y-25964491D01*
X42762243Y-25864405D01*
X42816573Y-25774253D01*
X42889542Y-25698303D01*
X42982114Y-25637488D01*
X43097940Y-25591803D01*
X43016955Y-25545713D01*
X42948847Y-25487162D01*
X42892288Y-25415216D01*
X42850096Y-25333992D01*
X42824947Y-25248252D01*
X42821830Y-25214570D01*
X43209926Y-25214570D01*
X43216937Y-25276499D01*
X43236847Y-25327637D01*
X43269399Y-25370397D01*
X43337554Y-25416758D01*
X43432553Y-25441716D01*
X43726377Y-25448555D01*
X43991381Y-25448555D01*
X43991381Y-24987424D01*
X43759106Y-24987424D01*
X43413502Y-24994263D01*
X43348675Y-25008462D01*
X43298953Y-25032072D01*
X43261217Y-25064361D01*
X43223348Y-25129063D01*
X43209926Y-25214570D01*
X42821830Y-25214570D01*
X42816450Y-25156441D01*
X42823480Y-25071431D01*
X42844046Y-24993657D01*
X42878000Y-24921723D01*
X42947918Y-24826546D01*
X43031628Y-24754050D01*
X43129237Y-24702145D01*
X43240700Y-24671252D01*
X43372637Y-24657218D01*
X43595219Y-24651346D01*
X44395847Y-24651346D01*
X44395847Y-26660000D01*
G37*
G36*
X41957573Y-25175003D02*
G01*
X42073747Y-25196367D01*
X42166117Y-25228768D01*
X42238938Y-25270624D01*
X42322383Y-25348690D01*
X42389906Y-25452986D01*
X42441049Y-25589239D01*
X42092637Y-25651765D01*
X42048921Y-25558843D01*
X41999824Y-25505830D01*
X41934986Y-25475625D01*
X41839967Y-25464187D01*
X41738971Y-25471146D01*
X41673734Y-25488542D01*
X41633704Y-25512669D01*
X41605099Y-25548902D01*
X41586168Y-25601107D01*
X41578994Y-25674968D01*
X41578994Y-25714291D01*
X41704234Y-25754803D01*
X41951953Y-25809057D01*
X42138726Y-25854009D01*
X42257256Y-25899061D01*
X42323166Y-25938799D01*
X42377645Y-25987986D01*
X42421876Y-26047316D01*
X42454203Y-26114025D01*
X42473864Y-26187018D01*
X42480616Y-26267745D01*
X42472223Y-26358837D01*
X42447928Y-26439438D01*
X42408046Y-26511621D01*
X42351534Y-26576835D01*
X42283775Y-26628670D01*
X42203999Y-26666648D01*
X42109870Y-26690589D01*
X41998359Y-26699078D01*
X41874439Y-26686748D01*
X41759245Y-26650230D01*
X41652215Y-26590299D01*
X41548830Y-26503684D01*
X41535152Y-26548136D01*
X41498272Y-26660000D01*
X41118474Y-26660000D01*
X41161973Y-26556053D01*
X41187473Y-26464117D01*
X41200434Y-26360026D01*
X41205913Y-26180307D01*
X41204670Y-26041210D01*
X41578994Y-26041210D01*
X41583729Y-26168754D01*
X41594015Y-26229277D01*
X41627251Y-26298089D01*
X41685606Y-26356894D01*
X41751021Y-26395726D01*
X41816607Y-26418140D01*
X41883687Y-26425526D01*
X41943225Y-26418673D01*
X41993535Y-26399014D01*
X42036705Y-26366542D01*
X42070414Y-26324216D01*
X42090121Y-26278043D01*
X42096789Y-26226468D01*
X42088635Y-26175358D01*
X42064368Y-26130751D01*
X42021684Y-26090669D01*
X41957801Y-26061684D01*
X41812612Y-26023381D01*
X41578994Y-25964396D01*
X41578994Y-26041210D01*
X41204670Y-26041210D01*
X41201883Y-25729434D01*
X41209444Y-25559464D01*
X41228160Y-25449952D01*
X41253174Y-25383709D01*
X41293467Y-25326933D01*
X41351265Y-25275203D01*
X41430128Y-25228370D01*
X41516698Y-25197331D01*
X41640543Y-25175561D01*
X41812612Y-25167187D01*
X41957573Y-25175003D01*
G37*
G36*
X40456698Y-26660000D02*
G01*
X40840648Y-26660000D01*
X40840648Y-25206266D01*
X40484053Y-25206266D01*
X40484053Y-25412529D01*
X40389848Y-25282019D01*
X40319434Y-25216769D01*
X40241875Y-25179735D01*
X40153471Y-25167187D01*
X40067934Y-25175062D01*
X39984085Y-25198835D01*
X39900679Y-25239483D01*
X40019503Y-25573852D01*
X40116882Y-25525476D01*
X40199877Y-25511081D01*
X40275345Y-25522618D01*
X40336531Y-25555900D01*
X40383376Y-25613087D01*
X40424580Y-25717711D01*
X40446313Y-25866422D01*
X40456698Y-26208150D01*
X40456698Y-26660000D01*
G37*
G36*
X39322690Y-25180523D02*
G01*
X39446846Y-25219194D01*
X39558330Y-25282894D01*
X39659367Y-25373572D01*
X39738822Y-25481356D01*
X39797470Y-25609532D01*
X39834673Y-25762094D01*
X39847923Y-25944124D01*
X39838093Y-26096626D01*
X39810064Y-26229835D01*
X39765335Y-26346615D01*
X39704430Y-26449340D01*
X39626057Y-26537267D01*
X39533426Y-26605773D01*
X39424500Y-26656079D01*
X39296152Y-26687823D01*
X39144381Y-26699078D01*
X38988419Y-26685673D01*
X38857229Y-26647786D01*
X38746143Y-26587215D01*
X38651378Y-26503406D01*
X38573796Y-26396163D01*
X38513136Y-26261395D01*
X38895620Y-26198869D01*
X38936721Y-26294702D01*
X38988554Y-26353963D01*
X39055787Y-26389601D01*
X39140229Y-26402079D01*
X39224480Y-26391355D01*
X39297284Y-26360127D01*
X39361513Y-26307435D01*
X39409586Y-26239278D01*
X39441125Y-26152666D01*
X39454448Y-26042554D01*
X38492619Y-26042554D01*
X38498546Y-25857266D01*
X38505906Y-25808080D01*
X38873760Y-25808080D01*
X39447609Y-25808080D01*
X39438372Y-25705126D01*
X39410984Y-25622846D01*
X39367009Y-25556755D01*
X39307269Y-25505175D01*
X39238987Y-25474673D01*
X39159280Y-25464187D01*
X39084725Y-25473980D01*
X39019057Y-25502770D01*
X38959856Y-25551870D01*
X38915921Y-25615190D01*
X38886501Y-25698662D01*
X38873760Y-25808080D01*
X38505906Y-25808080D01*
X38521627Y-25703009D01*
X38559209Y-25575098D01*
X38609495Y-25469429D01*
X38671649Y-25382609D01*
X38772293Y-25289424D01*
X38888687Y-25222852D01*
X39023954Y-25181650D01*
X39182605Y-25167187D01*
X39322690Y-25180523D01*
G37*
G36*
X38177790Y-26660000D02*
G01*
X37773446Y-26660000D01*
X37773446Y-25901870D01*
X37509786Y-25901870D01*
X37251359Y-25893492D01*
X37090299Y-25873049D01*
X36986394Y-25838500D01*
X36880494Y-25777916D01*
X36816870Y-25725075D01*
X36760232Y-25659611D01*
X36710379Y-25579958D01*
X36674456Y-25493445D01*
X36651599Y-25390859D01*
X36643873Y-25275265D01*
X37060257Y-25275265D01*
X37071982Y-25361028D01*
X37106053Y-25433778D01*
X37160109Y-25492444D01*
X37232448Y-25533796D01*
X37332784Y-25555604D01*
X37552162Y-25565792D01*
X37773446Y-25565792D01*
X37773446Y-24987424D01*
X37578052Y-24987424D01*
X37377551Y-24991877D01*
X37287037Y-25001346D01*
X37224730Y-25019651D01*
X37171027Y-25049598D01*
X37124493Y-25091716D01*
X37089350Y-25143165D01*
X37067812Y-25203540D01*
X37060257Y-25275265D01*
X36643873Y-25275265D01*
X36643457Y-25269036D01*
X36657494Y-25113107D01*
X36696889Y-24984620D01*
X36759594Y-24878126D01*
X36844657Y-24787768D01*
X36940142Y-24723028D01*
X37047923Y-24681510D01*
X37191537Y-24661162D01*
X37528837Y-24651346D01*
X38177790Y-24651346D01*
X38177790Y-26660000D01*
G37*
G36*
X36314462Y-25003056D02*
G01*
X36314462Y-24651346D01*
X35930634Y-24651346D01*
X35930634Y-25003056D01*
X36314462Y-25003056D01*
G37*
G36*
X36314462Y-26660000D02*
G01*
X36314462Y-25206266D01*
X35930634Y-25206266D01*
X35930634Y-26660000D01*
X36314462Y-26660000D01*
G37*
G36*
X34305564Y-26660000D02*
G01*
X34305564Y-24987424D01*
X34899929Y-24987424D01*
X34899929Y-24651346D01*
X33308198Y-24651346D01*
X33308198Y-24987424D01*
X33901220Y-24987424D01*
X33901220Y-26660000D01*
X34305564Y-26660000D01*
G37*
G36*
X32987996Y-26660000D02*
G01*
X33447051Y-25206266D01*
X33074092Y-25206266D01*
X32802249Y-26158935D01*
X32552145Y-25206266D01*
X32181995Y-25206266D01*
X31940072Y-26158935D01*
X31662734Y-25206266D01*
X31284280Y-25206266D01*
X31750173Y-26660000D01*
X32119102Y-26660000D01*
X32369085Y-25725038D01*
X32615037Y-26660000D01*
X32987996Y-26660000D01*
G37*
G36*
X30668678Y-25180523D02*
G01*
X30792833Y-25219194D01*
X30904318Y-25282894D01*
X31005355Y-25373572D01*
X31084810Y-25481356D01*
X31143457Y-25609532D01*
X31180660Y-25762094D01*
X31193910Y-25944124D01*
X31184080Y-26096626D01*
X31156051Y-26229835D01*
X31111322Y-26346615D01*
X31050418Y-26449340D01*
X30972044Y-26537267D01*
X30879414Y-26605773D01*
X30770488Y-26656079D01*
X30642140Y-26687823D01*
X30490369Y-26699078D01*
X30334406Y-26685673D01*
X30203217Y-26647786D01*
X30092131Y-26587215D01*
X29997365Y-26503406D01*
X29919783Y-26396163D01*
X29859123Y-26261395D01*
X30241607Y-26198869D01*
X30282708Y-26294702D01*
X30334542Y-26353963D01*
X30401775Y-26389601D01*
X30486217Y-26402079D01*
X30570467Y-26391355D01*
X30643272Y-26360127D01*
X30707501Y-26307435D01*
X30755574Y-26239278D01*
X30787113Y-26152666D01*
X30800435Y-26042554D01*
X29838607Y-26042554D01*
X29844533Y-25857266D01*
X29851893Y-25808080D01*
X30219748Y-25808080D01*
X30793596Y-25808080D01*
X30784359Y-25705126D01*
X30756971Y-25622846D01*
X30712996Y-25556755D01*
X30653256Y-25505175D01*
X30584974Y-25474673D01*
X30505268Y-25464187D01*
X30430713Y-25473980D01*
X30365044Y-25502770D01*
X30305843Y-25551870D01*
X30261908Y-25615190D01*
X30232489Y-25698662D01*
X30219748Y-25808080D01*
X29851893Y-25808080D01*
X29867614Y-25703009D01*
X29905196Y-25575098D01*
X29955482Y-25469429D01*
X30017637Y-25382609D01*
X30118281Y-25289424D01*
X30234675Y-25222852D01*
X30369941Y-25181650D01*
X30528593Y-25167187D01*
X30668678Y-25180523D01*
G37*
G36*
X29113339Y-25180523D02*
G01*
X29237495Y-25219194D01*
X29348979Y-25282894D01*
X29450016Y-25373572D01*
X29529471Y-25481356D01*
X29588119Y-25609532D01*
X29625322Y-25762094D01*
X29638572Y-25944124D01*
X29628742Y-26096626D01*
X29600713Y-26229835D01*
X29555984Y-26346615D01*
X29495079Y-26449340D01*
X29416706Y-26537267D01*
X29324075Y-26605773D01*
X29215149Y-26656079D01*
X29086801Y-26687823D01*
X28935030Y-26699078D01*
X28779068Y-26685673D01*
X28647878Y-26647786D01*
X28536792Y-26587215D01*
X28442027Y-26503406D01*
X28364445Y-26396163D01*
X28303785Y-26261395D01*
X28686269Y-26198869D01*
X28727370Y-26294702D01*
X28779203Y-26353963D01*
X28846436Y-26389601D01*
X28930878Y-26402079D01*
X29015129Y-26391355D01*
X29087933Y-26360127D01*
X29152162Y-26307435D01*
X29200235Y-26239278D01*
X29231774Y-26152666D01*
X29245097Y-26042554D01*
X28283268Y-26042554D01*
X28289195Y-25857266D01*
X28296555Y-25808080D01*
X28664409Y-25808080D01*
X29238258Y-25808080D01*
X29229021Y-25705126D01*
X29201633Y-25622846D01*
X29157658Y-25556755D01*
X29097918Y-25505175D01*
X29029636Y-25474673D01*
X28949929Y-25464187D01*
X28875374Y-25473980D01*
X28809706Y-25502770D01*
X28750505Y-25551870D01*
X28706570Y-25615190D01*
X28677150Y-25698662D01*
X28664409Y-25808080D01*
X28296555Y-25808080D01*
X28312276Y-25703009D01*
X28349857Y-25575098D01*
X28400144Y-25469429D01*
X28462298Y-25382609D01*
X28562942Y-25289424D01*
X28679336Y-25222852D01*
X28814603Y-25181650D01*
X28973254Y-25167187D01*
X29113339Y-25180523D01*
G37*
G36*
X27305808Y-25206266D02*
G01*
X27305808Y-25511081D01*
X27568125Y-25511081D01*
X27568125Y-26101416D01*
X27560676Y-26310366D01*
X27548495Y-26337226D01*
X27526482Y-26359337D01*
X27497559Y-26373618D01*
X27461513Y-26378632D01*
X27403286Y-26371027D01*
X27307152Y-26341751D01*
X27274423Y-26641315D01*
X27365341Y-26672801D01*
X27465946Y-26692315D01*
X27577773Y-26699078D01*
X27678064Y-26689985D01*
X27764985Y-26663907D01*
X27839407Y-26621908D01*
X27887228Y-26572927D01*
X27918878Y-26510713D01*
X27941084Y-26422107D01*
X27949467Y-26337512D01*
X27953418Y-26149166D01*
X27953418Y-25511081D01*
X28129639Y-25511081D01*
X28129639Y-25206266D01*
X27953418Y-25206266D01*
X27953418Y-24924898D01*
X27568125Y-24698241D01*
X27568125Y-25206266D01*
X27305808Y-25206266D01*
G37*
G36*
X27220812Y-25206266D02*
G01*
X26812316Y-25206266D01*
X26465369Y-26241001D01*
X26126482Y-25206266D01*
X25728977Y-25206266D01*
X26241276Y-26606144D01*
X26332745Y-26863698D01*
X26385363Y-26982038D01*
X26429099Y-27057383D01*
X26479030Y-27118722D01*
X26534367Y-27165949D01*
X26598592Y-27202091D01*
X26680547Y-27230795D01*
X26770421Y-27247900D01*
X26876552Y-27253998D01*
X26986370Y-27248208D01*
X27093806Y-27230917D01*
X27128000Y-26931231D01*
X27039748Y-26944973D01*
X26965456Y-26949183D01*
X26879794Y-26939347D01*
X26815520Y-26912453D01*
X26767375Y-26869804D01*
X26712045Y-26782520D01*
X26668945Y-26667815D01*
X27220812Y-25206266D01*
G37*
G36*
X25479727Y-26660000D02*
G01*
X24798045Y-26660000D01*
X24446005Y-26654103D01*
X24310292Y-26646322D01*
X24205281Y-26626960D01*
X24115655Y-26594947D01*
X24039060Y-26551067D01*
X23971451Y-26494165D01*
X23913752Y-26425571D01*
X23865526Y-26343949D01*
X23829960Y-26255833D01*
X23808988Y-26167247D01*
X23802023Y-26077236D01*
X23803771Y-26059773D01*
X24220044Y-26059773D01*
X24226922Y-26129238D01*
X24246150Y-26185407D01*
X24276831Y-26231109D01*
X24341206Y-26282803D01*
X24423621Y-26311587D01*
X24501878Y-26319813D01*
X24700958Y-26323921D01*
X25075261Y-26323921D01*
X25075261Y-25784633D01*
X24748708Y-25784633D01*
X24496639Y-25794071D01*
X24390159Y-25813576D01*
X24316200Y-25851786D01*
X24263764Y-25905778D01*
X24231436Y-25974299D01*
X24220044Y-26059773D01*
X23803771Y-26059773D01*
X23813309Y-25964491D01*
X23846123Y-25864405D01*
X23900452Y-25774253D01*
X23973422Y-25698303D01*
X24065994Y-25637488D01*
X24181820Y-25591803D01*
X24100835Y-25545713D01*
X24032727Y-25487162D01*
X23976168Y-25415216D01*
X23933976Y-25333992D01*
X23908827Y-25248252D01*
X23905710Y-25214570D01*
X24293806Y-25214570D01*
X24300817Y-25276499D01*
X24320727Y-25327637D01*
X24353279Y-25370397D01*
X24421434Y-25416758D01*
X24516433Y-25441716D01*
X24810257Y-25448555D01*
X25075261Y-25448555D01*
X25075261Y-24987424D01*
X24842986Y-24987424D01*
X24497382Y-24994263D01*
X24432555Y-25008462D01*
X24382833Y-25032072D01*
X24345097Y-25064361D01*
X24307228Y-25129063D01*
X24293806Y-25214570D01*
X23905710Y-25214570D01*
X23900330Y-25156441D01*
X23907360Y-25071431D01*
X23927926Y-24993657D01*
X23961880Y-24921723D01*
X24031798Y-24826546D01*
X24115508Y-24754050D01*
X24213117Y-24702145D01*
X24324580Y-24671252D01*
X24456517Y-24657218D01*
X24679099Y-24651346D01*
X25479727Y-24651346D01*
X25479727Y-26660000D01*
G37*
G36*
X22944561Y-25178092D02*
G01*
X23072529Y-25209965D01*
X23190927Y-25262442D01*
X23297181Y-25335256D01*
X23385746Y-25426578D01*
X23458007Y-25538436D01*
X23510837Y-25661652D01*
X23541949Y-25785802D01*
X23552284Y-25912372D01*
X23540906Y-26078673D01*
X23508794Y-26220214D01*
X23458007Y-26341018D01*
X23385450Y-26448923D01*
X23294371Y-26537349D01*
X23182745Y-26607976D01*
X23059395Y-26658775D01*
X22933035Y-26688971D01*
X22802215Y-26699078D01*
X22644753Y-26684830D01*
X22505281Y-26643598D01*
X22380297Y-26575984D01*
X22267323Y-26480359D01*
X22174946Y-26364789D01*
X22109152Y-26236242D01*
X22068813Y-26092144D01*
X22054946Y-25930324D01*
X22449650Y-25930324D01*
X22462564Y-26075392D01*
X22497591Y-26185914D01*
X22551499Y-26269699D01*
X22625663Y-26335181D01*
X22708584Y-26373431D01*
X22803558Y-26386448D01*
X22898560Y-26373447D01*
X22981736Y-26335206D01*
X23056349Y-26269699D01*
X23110712Y-26185911D01*
X23145884Y-26076220D01*
X23158809Y-25933133D01*
X23145882Y-25790047D01*
X23110707Y-25680401D01*
X23056349Y-25596688D01*
X22981727Y-25531108D01*
X22898551Y-25492830D01*
X22803558Y-25479818D01*
X22708593Y-25492846D01*
X22625672Y-25531132D01*
X22551499Y-25596688D01*
X22497379Y-25680305D01*
X22462454Y-25789114D01*
X22449650Y-25930324D01*
X22054946Y-25930324D01*
X22054831Y-25928981D01*
X22068693Y-25767166D01*
X22108662Y-25624456D01*
X22173814Y-25497332D01*
X22265247Y-25383220D01*
X22377053Y-25289265D01*
X22502302Y-25222431D01*
X22643671Y-25181428D01*
X22804901Y-25167187D01*
X22944561Y-25178092D01*
G37*
G36*
X21935397Y-25206266D02*
G01*
X21526900Y-25206266D01*
X21179954Y-26241001D01*
X20841067Y-25206266D01*
X20443561Y-25206266D01*
X20955861Y-26606144D01*
X21047330Y-26863698D01*
X21099948Y-26982038D01*
X21143683Y-27057383D01*
X21193614Y-27118722D01*
X21248952Y-27165949D01*
X21313177Y-27202091D01*
X21395131Y-27230795D01*
X21485005Y-27247900D01*
X21591136Y-27253998D01*
X21700955Y-27248208D01*
X21808390Y-27230917D01*
X21842584Y-26931231D01*
X21754333Y-26944973D01*
X21680041Y-26949183D01*
X21594379Y-26939347D01*
X21530105Y-26912453D01*
X21481960Y-26869804D01*
X21426630Y-26782520D01*
X21383530Y-26667815D01*
X21935397Y-25206266D01*
G37*
D13*
D14*
X44295238Y-1483304D02*
X44790476Y-1483304D01*
X44790476Y-1483304D02*
X44523810Y-1178542D01*
X44523810Y-1178542D02*
X44638095Y-1178542D01*
X44638095Y-1178542D02*
X44714286Y-1140447D01*
X44714286Y-1140447D02*
X44752381Y-1102352D01*
X44752381Y-1102352D02*
X44790476Y-1026161D01*
X44790476Y-1026161D02*
X44790476Y-835685D01*
X44790476Y-835685D02*
X44752381Y-759495D01*
X44752381Y-759495D02*
X44714286Y-721400D01*
X44714286Y-721400D02*
X44638095Y-683304D01*
X44638095Y-683304D02*
X44409524Y-683304D01*
X44409524Y-683304D02*
X44333333Y-721400D01*
X44333333Y-721400D02*
X44295238Y-759495D01*
X45019048Y-1483304D02*
X45285715Y-683304D01*
X45285715Y-683304D02*
X45552381Y-1483304D01*
X45742857Y-1483304D02*
X46238095Y-1483304D01*
X46238095Y-1483304D02*
X45971429Y-1178542D01*
X45971429Y-1178542D02*
X46085714Y-1178542D01*
X46085714Y-1178542D02*
X46161905Y-1140447D01*
X46161905Y-1140447D02*
X46200000Y-1102352D01*
X46200000Y-1102352D02*
X46238095Y-1026161D01*
X46238095Y-1026161D02*
X46238095Y-835685D01*
X46238095Y-835685D02*
X46200000Y-759495D01*
X46200000Y-759495D02*
X46161905Y-721400D01*
X46161905Y-721400D02*
X46085714Y-683304D01*
X46085714Y-683304D02*
X45857143Y-683304D01*
X45857143Y-683304D02*
X45780952Y-721400D01*
X45780952Y-721400D02*
X45742857Y-759495D01*
X46580953Y-988066D02*
X47190477Y-988066D01*
X47990476Y-1445209D02*
X47914286Y-1483304D01*
X47914286Y-1483304D02*
X47800000Y-1483304D01*
X47800000Y-1483304D02*
X47685714Y-1445209D01*
X47685714Y-1445209D02*
X47609524Y-1369019D01*
X47609524Y-1369019D02*
X47571429Y-1292828D01*
X47571429Y-1292828D02*
X47533333Y-1140447D01*
X47533333Y-1140447D02*
X47533333Y-1026161D01*
X47533333Y-1026161D02*
X47571429Y-873780D01*
X47571429Y-873780D02*
X47609524Y-797590D01*
X47609524Y-797590D02*
X47685714Y-721400D01*
X47685714Y-721400D02*
X47800000Y-683304D01*
X47800000Y-683304D02*
X47876191Y-683304D01*
X47876191Y-683304D02*
X47990476Y-721400D01*
X47990476Y-721400D02*
X48028572Y-759495D01*
X48028572Y-759495D02*
X48028572Y-1026161D01*
X48028572Y-1026161D02*
X47876191Y-1026161D01*
X48371429Y-683304D02*
X48371429Y-1483304D01*
X48371429Y-1483304D02*
X48828572Y-683304D01*
X48828572Y-683304D02*
X48828572Y-1483304D01*
X49209524Y-683304D02*
X49209524Y-1483304D01*
X49209524Y-1483304D02*
X49400000Y-1483304D01*
X49400000Y-1483304D02*
X49514286Y-1445209D01*
X49514286Y-1445209D02*
X49590476Y-1369019D01*
X49590476Y-1369019D02*
X49628571Y-1292828D01*
X49628571Y-1292828D02*
X49666667Y-1140447D01*
X49666667Y-1140447D02*
X49666667Y-1026161D01*
X49666667Y-1026161D02*
X49628571Y-873780D01*
X49628571Y-873780D02*
X49590476Y-797590D01*
X49590476Y-797590D02*
X49514286Y-721400D01*
X49514286Y-721400D02*
X49400000Y-683304D01*
X49400000Y-683304D02*
X49209524Y-683304D01*
X50009524Y-988066D02*
X50619048Y-988066D01*
X50961904Y-721400D02*
X51076190Y-683304D01*
X51076190Y-683304D02*
X51266666Y-683304D01*
X51266666Y-683304D02*
X51342857Y-721400D01*
X51342857Y-721400D02*
X51380952Y-759495D01*
X51380952Y-759495D02*
X51419047Y-835685D01*
X51419047Y-835685D02*
X51419047Y-911876D01*
X51419047Y-911876D02*
X51380952Y-988066D01*
X51380952Y-988066D02*
X51342857Y-1026161D01*
X51342857Y-1026161D02*
X51266666Y-1064257D01*
X51266666Y-1064257D02*
X51114285Y-1102352D01*
X51114285Y-1102352D02*
X51038095Y-1140447D01*
X51038095Y-1140447D02*
X51000000Y-1178542D01*
X51000000Y-1178542D02*
X50961904Y-1254733D01*
X50961904Y-1254733D02*
X50961904Y-1330923D01*
X50961904Y-1330923D02*
X51000000Y-1407114D01*
X51000000Y-1407114D02*
X51038095Y-1445209D01*
X51038095Y-1445209D02*
X51114285Y-1483304D01*
X51114285Y-1483304D02*
X51304762Y-1483304D01*
X51304762Y-1483304D02*
X51419047Y-1445209D01*
X51685714Y-1483304D02*
X51876190Y-683304D01*
X51876190Y-683304D02*
X52028571Y-1254733D01*
X52028571Y-1254733D02*
X52180952Y-683304D01*
X52180952Y-683304D02*
X52371429Y-1483304D01*
X52676191Y-683304D02*
X52676191Y-1483304D01*
X52676191Y-1483304D02*
X52866667Y-1483304D01*
X52866667Y-1483304D02*
X52980953Y-1445209D01*
X52980953Y-1445209D02*
X53057143Y-1369019D01*
X53057143Y-1369019D02*
X53095238Y-1292828D01*
X53095238Y-1292828D02*
X53133334Y-1140447D01*
X53133334Y-1140447D02*
X53133334Y-1026161D01*
X53133334Y-1026161D02*
X53095238Y-873780D01*
X53095238Y-873780D02*
X53057143Y-797590D01*
X53057143Y-797590D02*
X52980953Y-721400D01*
X52980953Y-721400D02*
X52866667Y-683304D01*
X52866667Y-683304D02*
X52676191Y-683304D01*
X53476191Y-683304D02*
X53476191Y-1483304D01*
X54009524Y-1483304D02*
X54161905Y-1483304D01*
X54161905Y-1483304D02*
X54238095Y-1445209D01*
X54238095Y-1445209D02*
X54314286Y-1369019D01*
X54314286Y-1369019D02*
X54352381Y-1216638D01*
X54352381Y-1216638D02*
X54352381Y-949971D01*
X54352381Y-949971D02*
X54314286Y-797590D01*
X54314286Y-797590D02*
X54238095Y-721400D01*
X54238095Y-721400D02*
X54161905Y-683304D01*
X54161905Y-683304D02*
X54009524Y-683304D01*
X54009524Y-683304D02*
X53933333Y-721400D01*
X53933333Y-721400D02*
X53857143Y-797590D01*
X53857143Y-797590D02*
X53819047Y-949971D01*
X53819047Y-949971D02*
X53819047Y-1216638D01*
X53819047Y-1216638D02*
X53857143Y-1369019D01*
X53857143Y-1369019D02*
X53933333Y-1445209D01*
X53933333Y-1445209D02*
X54009524Y-1483304D01*
X54695238Y-988066D02*
X55304762Y-988066D01*
X55647618Y-721400D02*
X55761904Y-683304D01*
X55761904Y-683304D02*
X55952380Y-683304D01*
X55952380Y-683304D02*
X56028571Y-721400D01*
X56028571Y-721400D02*
X56066666Y-759495D01*
X56066666Y-759495D02*
X56104761Y-835685D01*
X56104761Y-835685D02*
X56104761Y-911876D01*
X56104761Y-911876D02*
X56066666Y-988066D01*
X56066666Y-988066D02*
X56028571Y-1026161D01*
X56028571Y-1026161D02*
X55952380Y-1064257D01*
X55952380Y-1064257D02*
X55799999Y-1102352D01*
X55799999Y-1102352D02*
X55723809Y-1140447D01*
X55723809Y-1140447D02*
X55685714Y-1178542D01*
X55685714Y-1178542D02*
X55647618Y-1254733D01*
X55647618Y-1254733D02*
X55647618Y-1330923D01*
X55647618Y-1330923D02*
X55685714Y-1407114D01*
X55685714Y-1407114D02*
X55723809Y-1445209D01*
X55723809Y-1445209D02*
X55799999Y-1483304D01*
X55799999Y-1483304D02*
X55990476Y-1483304D01*
X55990476Y-1483304D02*
X56104761Y-1445209D01*
X56371428Y-1483304D02*
X56561904Y-683304D01*
X56561904Y-683304D02*
X56714285Y-1254733D01*
X56714285Y-1254733D02*
X56866666Y-683304D01*
X56866666Y-683304D02*
X57057143Y-1483304D01*
X57819048Y-759495D02*
X57780952Y-721400D01*
X57780952Y-721400D02*
X57666667Y-683304D01*
X57666667Y-683304D02*
X57590476Y-683304D01*
X57590476Y-683304D02*
X57476190Y-721400D01*
X57476190Y-721400D02*
X57400000Y-797590D01*
X57400000Y-797590D02*
X57361905Y-873780D01*
X57361905Y-873780D02*
X57323809Y-1026161D01*
X57323809Y-1026161D02*
X57323809Y-1140447D01*
X57323809Y-1140447D02*
X57361905Y-1292828D01*
X57361905Y-1292828D02*
X57400000Y-1369019D01*
X57400000Y-1369019D02*
X57476190Y-1445209D01*
X57476190Y-1445209D02*
X57590476Y-1483304D01*
X57590476Y-1483304D02*
X57666667Y-1483304D01*
X57666667Y-1483304D02*
X57780952Y-1445209D01*
X57780952Y-1445209D02*
X57819048Y-1407114D01*
X58542857Y-683304D02*
X58161905Y-683304D01*
X58161905Y-683304D02*
X58161905Y-1483304D01*
X58809524Y-683304D02*
X58809524Y-1483304D01*
X59266667Y-683304D02*
X58923809Y-1140447D01*
X59266667Y-1483304D02*
X58809524Y-1026161D01*
D15*
%TO.P,J2,1,Pin_1*%
%TO.N,/3V3*%
X48815000Y-10485000D03*
D16*
%TO.P,J2,2,Pin_2*%
%TO.N,/GND*%
X51355000Y-10485000D03*
%TO.P,J2,3,Pin_3*%
%TO.N,/SWDIO*%
X53895000Y-10485000D03*
%TO.P,J2,4,Pin_4*%
%TO.N,/SWCLK*%
X56435000Y-10485000D03*
%TD*%
D17*
%TO.P,J1,1,Pin_1*%
%TO.N,unconnected-(J1-Pin_1-Pad1)*%
X8370000Y-19270000D03*
D18*
%TO.P,J1,2,Pin_2*%
%TO.N,unconnected-(J1-Pin_2-Pad2)*%
X8370000Y-15930000D03*
%TO.P,J1,3,Pin_3*%
%TO.N,/3V3*%
X10910000Y-19270000D03*
%TO.P,J1,4,Pin_4*%
X10910000Y-15930000D03*
%TO.P,J1,5,Pin_5*%
%TO.N,/I2C_SDA*%
X13450000Y-19270000D03*
%TO.P,J1,6,Pin_6*%
%TO.N,/I2C_SCL*%
X13450000Y-15930000D03*
%TO.P,J1,7,Pin_7*%
%TO.N,/I2C_SDA*%
X15990000Y-19270000D03*
%TO.P,J1,8,Pin_8*%
%TO.N,/I2C_SCL*%
X15990000Y-15930000D03*
%TO.P,J1,9,Pin_9*%
%TO.N,/KEY_ALT*%
X18530000Y-19270000D03*
%TO.P,J1,10,Pin_10*%
%TO.N,/KEY_DOWN*%
X18530000Y-15930000D03*
%TO.P,J1,11,Pin_11*%
%TO.N,/KEY_UP*%
X21070000Y-19270000D03*
%TO.P,J1,12,Pin_12*%
%TO.N,/SWCLK*%
X21070000Y-15930000D03*
%TO.P,J1,13,Pin_13*%
%TO.N,/SPI_CS0*%
X23610000Y-19270000D03*
%TO.P,J1,14,Pin_14*%
%TO.N,/SPI_MISO*%
X23610000Y-15930000D03*
%TO.P,J1,15,Pin_15*%
%TO.N,/SPI_MOSI*%
X26150000Y-19270000D03*
%TO.P,J1,16,Pin_16*%
%TO.N,/SPI_SCLK*%
X26150000Y-15930000D03*
%TO.P,J1,17,Pin_17*%
%TO.N,/AUDIO*%
X28690000Y-19270000D03*
%TO.P,J1,18,Pin_18*%
X28690000Y-15930000D03*
%TO.P,J1,19,Pin_19*%
%TO.N,/UART_TX*%
X31230000Y-19270000D03*
%TO.P,J1,20,Pin_20*%
%TO.N,/UART_RX*%
X31230000Y-15930000D03*
%TO.P,J1,21,Pin_21*%
%TO.N,/LCD_DC*%
X33770000Y-19270000D03*
%TO.P,J1,22,Pin_22*%
%TO.N,/LCD_RES*%
X33770000Y-15930000D03*
%TO.P,J1,23,Pin_23*%
%TO.N,/LCD_CS*%
X36310000Y-19270000D03*
%TO.P,J1,24,Pin_24*%
%TO.N,/LCD_BL*%
X36310000Y-15930000D03*
%TO.P,J1,25,Pin_25*%
%TO.N,/LCD_MOSI*%
X38850000Y-19270000D03*
%TO.P,J1,26,Pin_26*%
%TO.N,/LCD_SCK*%
X38850000Y-15930000D03*
%TO.P,J1,27,Pin_27*%
%TO.N,/KEY_A*%
X41390000Y-19270000D03*
%TO.P,J1,28,Pin_28*%
%TO.N,/KEY_B*%
X41390000Y-15930000D03*
%TO.P,J1,29,Pin_29*%
%TO.N,/KEY_X*%
X43930000Y-19270000D03*
%TO.P,J1,30,Pin_30*%
%TO.N,/KEY_RIGHT*%
X43930000Y-15930000D03*
%TO.P,J1,31,Pin_31*%
%TO.N,/KEY_LEFT*%
X46470000Y-19270000D03*
%TO.P,J1,32,Pin_32*%
%TO.N,/KEY_Y*%
X46470000Y-15930000D03*
%TO.P,J1,33,Pin_33*%
%TO.N,/SPI_CS0*%
X49010000Y-19270000D03*
%TO.P,J1,34,Pin_34*%
%TO.N,/SPI_MISO*%
X49010000Y-15930000D03*
%TO.P,J1,35,Pin_35*%
%TO.N,/SPI_MOSI*%
X51550000Y-19270000D03*
%TO.P,J1,36,Pin_36*%
%TO.N,/SPI_SCLK*%
X51550000Y-15930000D03*
%TO.P,J1,37,Pin_37*%
%TO.N,unconnected-(J1-Pin_37-Pad37)*%
X54090000Y-19270000D03*
%TO.P,J1,38,Pin_38*%
%TO.N,unconnected-(J1-Pin_38-Pad38)*%
X54090000Y-15930000D03*
%TO.P,J1,39,Pin_39*%
%TO.N,/GND*%
X56630000Y-19270000D03*
%TO.P,J1,40,Pin_40*%
X56630000Y-15930000D03*
%TD*%
D19*
%TO.P,IC1,1,PD19/SWCLK*%
%TO.N,/SWCLK*%
X29097500Y-3387500D03*
%TO.P,IC1,2,PC16/PC11/USBDM*%
%TO.N,/I2C_SCL*%
X29732500Y-3387500D03*
%TO.P,IC1,3,PC17/PC10/USBDP*%
%TO.N,/I2C_SDA*%
X30367500Y-3387500D03*
%TO.P,IC1,4,PA12/PC14*%
%TO.N,/LCD_RES*%
X31002500Y-3387500D03*
%TO.P,IC1,5,PA13/PC15*%
%TO.N,/LCD_DC*%
X31637500Y-3387500D03*
%TO.P,IC1,6,VDD*%
%TO.N,/3V3*%
X32272500Y-3387500D03*
%TO.P,IC1,7,GND*%
%TO.N,/GND*%
X32907500Y-3387500D03*
%TO.P,IC1,8,PC3/RST/A13*%
%TO.N,/KEY_Y*%
X33542500Y-3387500D03*
%TO.P,IC1,9,PA0/A0*%
%TO.N,/KEY_RIGHT*%
X34177500Y-3387500D03*
%TO.P,IC1,10,PA1/A1*%
%TO.N,/KEY_UP*%
X34812500Y-3387500D03*
%TO.P,IC1,11,PA2/A2*%
%TO.N,/KEY_LEFT*%
X35447500Y-3387500D03*
%TO.P,IC1,12,PA3/A3*%
%TO.N,/KEY_DOWN*%
X36082500Y-3387500D03*
%TO.P,IC1,13,PA6/A6*%
%TO.N,/KEY_A*%
X36717500Y-3387500D03*
%TO.P,IC1,14,PB0/A8*%
%TO.N,/KEY_ALT*%
X37352500Y-3387500D03*
%TO.P,IC1,15,PA4/A4*%
%TO.N,/LCD_CS*%
X37352500Y-8662500D03*
%TO.P,IC1,16,PA5/A5*%
%TO.N,/LCD_SCK*%
X36717500Y-8662500D03*
%TO.P,IC1,17,PA7/A7*%
%TO.N,/LCD_MOSI*%
X36082500Y-8662500D03*
%TO.P,IC1,18,PB3*%
%TO.N,/AUDIO*%
X35447500Y-8662500D03*
%TO.P,IC1,19,PB4*%
%TO.N,/LCD_BL*%
X34812500Y-8662500D03*
%TO.P,IC1,20,PB1/PB5/A9*%
%TO.N,/KEY_B*%
X34177500Y-8662500D03*
%TO.P,IC1,21,PB6*%
%TO.N,/KEY_X*%
X33542500Y-8662500D03*
%TO.P,IC1,22,PB7*%
%TO.N,/SPI_MOSI*%
X32907500Y-8662500D03*
%TO.P,IC1,23,PB8*%
%TO.N,/SPI_MISO*%
X32272500Y-8662500D03*
%TO.P,IC1,24,PB9/MCO*%
%TO.N,/SPI_SCLK*%
X31637500Y-8662500D03*
%TO.P,IC1,25,PB10*%
%TO.N,/UART_TX*%
X31002500Y-8662500D03*
%TO.P,IC1,26,PB11*%
%TO.N,/UART_RX*%
X30367500Y-8662500D03*
%TO.P,IC1,27,PB12*%
%TO.N,/SPI_CS0*%
X29732500Y-8662500D03*
%TO.P,IC1,28,PC18/SWDIO*%
%TO.N,/SWDIO*%
X29097500Y-8662500D03*
%TD*%
D20*
%TO.P,C1,1*%
%TO.N,/3V3*%
X19362500Y-5625000D03*
%TO.P,C1,2*%
%TO.N,/GND*%
X22487500Y-5625000D03*
%TD*%
D21*
%TO.N,/GND*%
X50888121Y-12735000D03*
X25008385Y-8446339D03*
%TO.N,/3V3*%
X13550000Y-12175000D03*
X24064139Y-5642370D03*
X46350000Y-7625000D03*
%TO.N,/KEY_UP*%
X40489489Y-6083777D03*
%TO.N,/SPI_CS0*%
X22990000Y-11000000D03*
X29389835Y-11182645D03*
%TO.N,/SPI_SCLK*%
X31677840Y-12797872D03*
X25869698Y-12844974D03*
X50091205Y-21693203D03*
X27453118Y-22190000D03*
%TO.N,/KEY_X*%
X34436322Y-10930137D03*
X41755290Y-11464989D03*
%TO.N,/SPI_MOSI*%
X51667306Y-21623240D03*
X33805822Y-12291194D03*
X24387990Y-12089041D03*
X25830297Y-22485346D03*
%TO.N,/SPI_MISO*%
X24739500Y-21455700D03*
X47775000Y-21475000D03*
X33010640Y-13642621D03*
X23390000Y-13216952D03*
%TO.N,/KEY_Y*%
X45786002Y-10270398D03*
X24168256Y-9688994D03*
%TO.N,/KEY_DOWN*%
X41377824Y-4041974D03*
X18739000Y-8056000D03*
%TO.N,/LCD_DC*%
X44169377Y-3675682D03*
X31911778Y-1739000D03*
X35625000Y-12075000D03*
X44608575Y-12725907D03*
%TO.N,/KEY_ALT*%
X17864382Y-6673516D03*
X38930035Y-3740000D03*
%TO.N,/I2C_SDA*%
X24196642Y-2736966D03*
X16524089Y-6000000D03*
%TO.N,/I2C_SCL*%
X15027388Y-6093291D03*
X25750000Y-3425000D03*
%TO.N,/SWDIO*%
X55450000Y-13250000D03*
X26991004Y-9428033D03*
%TO.N,/SWCLK*%
X59125000Y-7225000D03*
X28050000Y-1765000D03*
%TO.N,/LCD_RES*%
X34510396Y-13615423D03*
X45882271Y-13518186D03*
X30347170Y-1739000D03*
X45495516Y-4376655D03*
%TO.N,/AUDIO*%
X36875484Y-10313208D03*
X28355298Y-10076120D03*
%TD*%
D22*
%TO.N,/GND*%
X56630000Y-16330000D02*
X56630000Y-15555000D01*
X51355000Y-10662552D02*
X51355000Y-10485000D01*
X30667726Y-6779092D02*
X26675632Y-6779092D01*
X32899000Y-674000D02*
X33050000Y-825000D01*
X33050000Y-825000D02*
X33050000Y-2363278D01*
X56630000Y-15555000D02*
X55391000Y-14316000D01*
X33050000Y-2363278D02*
X32907500Y-2505778D01*
D23*
X56630000Y-19269892D02*
X56630000Y-18870000D01*
D22*
X6125000Y-20137000D02*
X6125000Y-12598586D01*
X51355000Y-10485000D02*
X51355000Y-12268121D01*
X55391000Y-14316000D02*
X55008448Y-14316000D01*
X51355000Y-12268121D02*
X50888121Y-12735000D01*
X26675632Y-6779092D02*
X25008385Y-8446339D01*
X32907500Y-3387500D02*
X32907500Y-4539318D01*
X22487500Y-5625000D02*
X22487500Y-6525000D01*
D23*
X50844654Y-24180346D02*
X51719546Y-24180346D01*
D22*
X10168346Y-24180346D02*
X6125000Y-20137000D01*
X32907500Y-2505778D02*
X32907500Y-3387500D01*
X18049586Y-674000D02*
X32899000Y-674000D01*
X24408839Y-8446339D02*
X25008385Y-8446339D01*
X22487500Y-6525000D02*
X24408839Y-8446339D01*
D23*
X51719546Y-24180346D02*
X56630000Y-19269892D01*
D22*
X55008448Y-14316000D02*
X51355000Y-10662552D01*
X50844654Y-24180346D02*
X10168346Y-24180346D01*
X32907500Y-4539318D02*
X30667726Y-6779092D01*
X6125000Y-12598586D02*
X18049586Y-674000D01*
D24*
X56630000Y-16330000D02*
X56630000Y-18870000D01*
D22*
%TO.N,/3V3*%
X48815000Y-9685000D02*
X46755000Y-7625000D01*
X13550000Y-6064540D02*
X13550000Y-12175000D01*
X10910000Y-16330000D02*
X10910000Y-14815000D01*
D24*
X10910000Y-16330000D02*
X10910000Y-18870000D01*
D22*
X14679540Y-4935000D02*
X13550000Y-6064540D01*
X19362500Y-5625000D02*
X18672500Y-4935000D01*
X24121769Y-5700000D02*
X24064139Y-5642370D01*
X30960864Y-5595000D02*
X30202773Y-5595000D01*
X29931773Y-5866000D02*
X26409091Y-5866000D01*
X30202773Y-5595000D02*
X29931773Y-5866000D01*
X18672500Y-4935000D02*
X14679540Y-4935000D01*
X32272500Y-3387500D02*
X32272500Y-4283364D01*
X48815000Y-10485000D02*
X48815000Y-9685000D01*
X26409091Y-5866000D02*
X26243091Y-5700000D01*
X10910000Y-14815000D02*
X13550000Y-12175000D01*
X32272500Y-4283364D02*
X30960864Y-5595000D01*
X46755000Y-7625000D02*
X46350000Y-7625000D01*
X26243091Y-5700000D02*
X24121769Y-5700000D01*
%TO.N,/LCD_BL*%
X36066138Y-11010000D02*
X36690000Y-11633862D01*
X35601789Y-10501305D02*
X35601789Y-10511863D01*
X35609226Y-10611045D02*
X36008181Y-11010000D01*
X35513324Y-10501000D02*
X35601484Y-10501000D01*
X36310000Y-14405955D02*
X36310000Y-16330000D01*
X34812500Y-9800176D02*
X35513324Y-10501000D01*
X34812500Y-8662500D02*
X34812500Y-9800176D01*
X36008181Y-11010000D02*
X36066138Y-11010000D01*
X36690000Y-14025955D02*
X36310000Y-14405955D01*
X35609226Y-10519301D02*
X35609226Y-10611045D01*
X35601789Y-10511863D02*
X35609226Y-10519301D01*
X35601484Y-10501000D02*
X35601789Y-10501305D01*
X36690000Y-11633862D02*
X36690000Y-14025955D01*
%TO.N,/KEY_UP*%
X38709096Y-4923000D02*
X38710097Y-4924000D01*
X39329712Y-4924000D02*
X40489489Y-6083777D01*
X34812500Y-4283364D02*
X35453136Y-4924000D01*
X35453136Y-4924000D02*
X35994904Y-4924000D01*
X38710097Y-4924000D02*
X39329712Y-4924000D01*
X35995904Y-4923000D02*
X38709096Y-4923000D01*
X34812500Y-3387500D02*
X34812500Y-4283364D01*
X35994904Y-4924000D02*
X35995904Y-4923000D01*
%TO.N,/SPI_CS0*%
X22324000Y-13658504D02*
X22324000Y-11666000D01*
X48840000Y-21033862D02*
X48840000Y-22395166D01*
X29732500Y-10839980D02*
X29389835Y-11182645D01*
X22344000Y-17604000D02*
X22344000Y-13678504D01*
X22344000Y-13678504D02*
X22324000Y-13658504D01*
X48690371Y-19189629D02*
X48690371Y-20884233D01*
X29732500Y-8662500D02*
X29732500Y-10839980D01*
X49010000Y-18870000D02*
X48690371Y-19189629D01*
X23675000Y-18935000D02*
X23610000Y-18870000D01*
X25100346Y-23550346D02*
X23675000Y-22125000D01*
X22324000Y-11666000D02*
X22990000Y-11000000D01*
X48690371Y-20884233D02*
X48840000Y-21033862D01*
X23675000Y-22125000D02*
X23675000Y-18935000D01*
X23610000Y-18870000D02*
X22344000Y-17604000D01*
X48840000Y-22395166D02*
X47684820Y-23550346D01*
X47684820Y-23550346D02*
X25100346Y-23550346D01*
%TO.N,/SPI_SCLK*%
X27416000Y-22152882D02*
X27453118Y-22190000D01*
X26150000Y-16330000D02*
X27416000Y-17596000D01*
X31681498Y-10043451D02*
X31681496Y-10370220D01*
X26150000Y-16330000D02*
X26400000Y-16080000D01*
X27416000Y-17596000D02*
X27416000Y-22152882D01*
X31681496Y-10370220D02*
X31770432Y-10459157D01*
X51550000Y-16330000D02*
X50276000Y-17604000D01*
X26400000Y-13375276D02*
X25869698Y-12844974D01*
X50276000Y-17604000D02*
X50276000Y-21508408D01*
X50276000Y-21508408D02*
X50091205Y-21693203D01*
X31770432Y-12705280D02*
X31677840Y-12797872D01*
X31770432Y-10459157D02*
X31770432Y-12705280D01*
X31637500Y-8662500D02*
X31637500Y-9999452D01*
X31637500Y-9999452D02*
X31681498Y-10043451D01*
X26400000Y-16080000D02*
X26400000Y-13375276D01*
%TO.N,/KEY_X*%
X42656000Y-17154394D02*
X42656000Y-14171955D01*
X33542500Y-9231590D02*
X33571500Y-9260591D01*
X42600000Y-17540000D02*
X42600000Y-17210394D01*
X34510181Y-10856278D02*
X34436322Y-10930137D01*
X43930000Y-18870000D02*
X42600000Y-17540000D01*
X33571500Y-9587364D02*
X34510181Y-10526045D01*
X34510181Y-10526045D02*
X34510181Y-10856278D01*
X33571500Y-9260591D02*
X33571500Y-9587364D01*
X42023976Y-11733675D02*
X41755290Y-11464989D01*
X42023976Y-13539931D02*
X42023976Y-11733675D01*
X42656000Y-14171955D02*
X42023976Y-13539931D01*
X42600000Y-17210394D02*
X42656000Y-17154394D01*
X33542500Y-8662500D02*
X33542500Y-9231590D01*
%TO.N,/KEY_B*%
X39219500Y-7215313D02*
X39219501Y-7216729D01*
X41390000Y-13315000D02*
X41390000Y-16330000D01*
X35760136Y-6184000D02*
X36516813Y-6184000D01*
X34177500Y-7766636D02*
X35760136Y-6184000D01*
X36517813Y-6183000D02*
X38187188Y-6183000D01*
X39219501Y-7216729D02*
X40690290Y-8687518D01*
X36516813Y-6184000D02*
X36517813Y-6183000D01*
X40690290Y-8687518D02*
X40690290Y-12615290D01*
X40690290Y-12615290D02*
X41390000Y-13315000D01*
X38187188Y-6183000D02*
X39219500Y-7215313D01*
X34177500Y-8662500D02*
X34177500Y-7766636D01*
%TO.N,/SPI_MOSI*%
X26150000Y-18870000D02*
X26150000Y-18420394D01*
X24884000Y-17154394D02*
X24884000Y-16559000D01*
X26150000Y-20500000D02*
X25825000Y-20825000D01*
X33030431Y-9937249D02*
X33030431Y-11479479D01*
X24455000Y-12156051D02*
X24387990Y-12089041D01*
X26150000Y-18870000D02*
X26150000Y-20500000D01*
X32907500Y-8662500D02*
X32907500Y-9487544D01*
X25825000Y-20825000D02*
X25825000Y-22825000D01*
X26150000Y-18420394D02*
X24884000Y-17154394D01*
X24875000Y-13357828D02*
X24455000Y-12937828D01*
X25946169Y-20563998D02*
X25946169Y-20406581D01*
X32941500Y-9848318D02*
X33030431Y-9937249D01*
X51150000Y-19270000D02*
X51150000Y-21105934D01*
X51550000Y-18870000D02*
X51150000Y-19270000D01*
X24455000Y-12937828D02*
X24455000Y-12156051D01*
X25946169Y-20406581D02*
X25932660Y-20393072D01*
X33805822Y-12254870D02*
X33805822Y-12291194D01*
X24875000Y-16550000D02*
X24875000Y-13357828D01*
X24884000Y-16559000D02*
X24875000Y-16550000D01*
X32907500Y-9487544D02*
X32941500Y-9521546D01*
X32941500Y-9521546D02*
X32941500Y-9848318D01*
X33030431Y-11479479D02*
X33805822Y-12254870D01*
X51150000Y-21105934D02*
X51667306Y-21623240D01*
X25932660Y-19087340D02*
X26150000Y-18870000D01*
%TO.N,/KEY_RIGHT*%
X35192182Y-5554000D02*
X36255858Y-5554000D01*
X36256859Y-5553000D02*
X38448142Y-5553000D01*
X42764992Y-8980421D02*
X42764992Y-9109941D01*
X39849500Y-6954359D02*
X39849500Y-6955774D01*
X36255858Y-5554000D02*
X36256859Y-5553000D01*
X40186024Y-7292298D02*
X41076869Y-7292298D01*
X42720675Y-13345675D02*
X43930000Y-14555000D01*
X39849500Y-6955774D02*
X40186024Y-7292298D01*
X42830000Y-9174950D02*
X42830000Y-11805395D01*
X42720675Y-11914720D02*
X42720675Y-13345675D01*
X38448142Y-5553000D02*
X39849500Y-6954359D01*
X42764992Y-9109941D02*
X42830000Y-9174950D01*
X41076869Y-7292298D02*
X42764992Y-8980421D01*
X43930000Y-14555000D02*
X43930000Y-16330000D01*
X42830000Y-11805395D02*
X42720675Y-11914720D01*
X34177500Y-3387500D02*
X34177500Y-4539318D01*
X34177500Y-4539318D02*
X35192182Y-5554000D01*
%TO.N,/SPI_MISO*%
X49010000Y-16330000D02*
X49010000Y-16771348D01*
X23610000Y-16779606D02*
X24884000Y-18053606D01*
X47736000Y-18045348D02*
X47736000Y-21436000D01*
X49010000Y-16771348D02*
X47736000Y-18045348D01*
X47736000Y-21436000D02*
X47775000Y-21475000D01*
X32740822Y-12257078D02*
X32740822Y-12732332D01*
X24884000Y-18053606D02*
X24884000Y-21311200D01*
X32400431Y-10198203D02*
X32400431Y-11916687D01*
X23610000Y-16330000D02*
X23610000Y-16779606D01*
X32400431Y-11916687D02*
X32740822Y-12257078D01*
X23390000Y-16110000D02*
X23390000Y-13216952D01*
X32311500Y-9782500D02*
X32311498Y-10109268D01*
X32311498Y-10109268D02*
X32400431Y-10198203D01*
X32272500Y-8662500D02*
X32272500Y-9743498D01*
X32740822Y-12732332D02*
X33010640Y-13002150D01*
X32272500Y-9743498D02*
X32311500Y-9782500D01*
X24884000Y-21311200D02*
X24739500Y-21455700D01*
X23610000Y-16330000D02*
X23390000Y-16110000D01*
X33010640Y-13002150D02*
X33010640Y-13642621D01*
%TO.N,/KEY_LEFT*%
X43225000Y-2550000D02*
X45175000Y-2550000D01*
X36518814Y-907000D02*
X41582000Y-907000D01*
X46650000Y-4025000D02*
X46650000Y-5818862D01*
X41582000Y-907000D02*
X43225000Y-2550000D01*
X35447500Y-1978314D02*
X36518814Y-907000D01*
X47550000Y-12550586D02*
X47744000Y-12744586D01*
X47744000Y-17146394D02*
X46994394Y-17896000D01*
X47500000Y-10282552D02*
X47500000Y-11975000D01*
X46470000Y-18355000D02*
X46470000Y-18870000D01*
X47550000Y-12025000D02*
X47550000Y-12550586D01*
X46994394Y-17896000D02*
X46929000Y-17896000D01*
X46650000Y-5818862D02*
X45284000Y-7184862D01*
X45284000Y-8066552D02*
X47500000Y-10282552D01*
X45175000Y-2550000D02*
X46650000Y-4025000D01*
X46929000Y-17896000D02*
X46470000Y-18355000D01*
X35447500Y-3387500D02*
X35447500Y-1978314D01*
X45284000Y-7184862D02*
X45284000Y-8066552D01*
X47744000Y-12744586D02*
X47744000Y-17146394D01*
X47500000Y-11975000D02*
X47550000Y-12025000D01*
%TO.N,/KEY_Y*%
X46470000Y-16330000D02*
X46947271Y-15852729D01*
X30893772Y-7444000D02*
X27393276Y-7444000D01*
X25271868Y-9688994D02*
X24168256Y-9688994D01*
X33542500Y-4795272D02*
X30893772Y-7444000D01*
X46947271Y-12840226D02*
X46870000Y-12762955D01*
X27393276Y-7444000D02*
X26073385Y-8763891D01*
X26073385Y-8763891D02*
X26073385Y-8887477D01*
X45786002Y-10271400D02*
X45786002Y-10270398D01*
X33542500Y-3387500D02*
X33542500Y-4795272D01*
X46947271Y-15852729D02*
X46947271Y-12840226D01*
X46870000Y-12762955D02*
X46870000Y-11355398D01*
X46870000Y-11355398D02*
X45786002Y-10271400D01*
X26073385Y-8887477D02*
X25271868Y-9688994D01*
%TO.N,/KEY_A*%
X45196000Y-14705606D02*
X45196000Y-20494394D01*
X41044698Y-5106974D02*
X43394000Y-7456276D01*
X40312824Y-4483112D02*
X40936686Y-5106974D01*
X44231369Y-13964000D02*
X44454394Y-13964000D01*
X36717500Y-3387500D02*
X36717500Y-2491636D01*
X37040136Y-2169000D02*
X39805811Y-2169000D01*
X40936686Y-5106974D02*
X41044698Y-5106974D01*
X43393993Y-8849401D02*
X43460000Y-8915410D01*
X43460000Y-8915410D02*
X43460000Y-13192631D01*
X39805811Y-2169000D02*
X40312824Y-2676013D01*
X43394000Y-8199917D02*
X43393993Y-8849401D01*
X40312824Y-2676013D02*
X40312824Y-4483112D01*
X44454394Y-21236000D02*
X43261000Y-21236000D01*
X41390000Y-19365000D02*
X41390000Y-18870000D01*
X36717500Y-2491636D02*
X37040136Y-2169000D01*
X43394000Y-7456276D02*
X43394000Y-8199917D01*
X43460000Y-13192631D02*
X44231369Y-13964000D01*
X45196000Y-20494394D02*
X44454394Y-21236000D01*
X43261000Y-21236000D02*
X41390000Y-19365000D01*
X44454394Y-13964000D02*
X45196000Y-14705606D01*
%TO.N,/KEY_DOWN*%
X41377824Y-2234875D02*
X41377824Y-4041974D01*
X36082500Y-3387500D02*
X36082500Y-2235682D01*
X40680949Y-1538000D02*
X41377824Y-2234875D01*
X18530000Y-16330000D02*
X18530000Y-8265000D01*
X36780182Y-1538000D02*
X40680949Y-1538000D01*
X36082500Y-2235682D02*
X36780182Y-1538000D01*
X18530000Y-8265000D02*
X18739000Y-8056000D01*
%TO.N,/UART_TX*%
X31002500Y-8662500D02*
X31002500Y-10255407D01*
X31140431Y-10720108D02*
X31140431Y-11829143D01*
X31051496Y-10304403D02*
X31051494Y-10631171D01*
X32504803Y-17595197D02*
X31230000Y-18870000D01*
X31002500Y-10255407D02*
X31051496Y-10304403D01*
X30612840Y-13239010D02*
X31236702Y-13862872D01*
X31236702Y-13862872D02*
X31662872Y-13862872D01*
X31140431Y-11829143D02*
X30612840Y-12356734D01*
X31051494Y-10631171D02*
X31140431Y-10720108D01*
X30612840Y-12356734D02*
X30612840Y-13239010D01*
X32504803Y-14704803D02*
X32504803Y-17595197D01*
X31662872Y-13862872D02*
X32504803Y-14704803D01*
%TO.N,/LCD_CS*%
X37584000Y-14705606D02*
X37584000Y-17596000D01*
X37940484Y-9250484D02*
X37940484Y-14349122D01*
X37584000Y-17596000D02*
X36310000Y-18870000D01*
X37352500Y-8662500D02*
X37940484Y-9250484D01*
X37940484Y-14349122D02*
X37584000Y-14705606D01*
%TO.N,/LCD_DC*%
X35044000Y-14587957D02*
X35044000Y-17596000D01*
X31637500Y-2013278D02*
X31911778Y-1739000D01*
X44091000Y-12208332D02*
X44091002Y-9174543D01*
X35625000Y-12075000D02*
X35647716Y-12097716D01*
X44091002Y-9174543D02*
X44091005Y-9174540D01*
X44023997Y-7183443D02*
X44024000Y-6661538D01*
X44024000Y-6661538D02*
X44090000Y-6595538D01*
X44608575Y-12725907D02*
X44091000Y-12208332D01*
X44090000Y-6595538D02*
X44090000Y-3755059D01*
X35647716Y-13984241D02*
X35044000Y-14587957D01*
X31637500Y-3387500D02*
X31637500Y-2013278D01*
X44024000Y-7183446D02*
X44023997Y-7183443D01*
X44023997Y-8588456D02*
X44024000Y-8275311D01*
X35647716Y-12097716D02*
X35647716Y-13984241D01*
X44024000Y-8275311D02*
X44024000Y-7183446D01*
X35044000Y-17596000D02*
X33770000Y-18870000D01*
X44090000Y-3755059D02*
X44169377Y-3675682D01*
X44091005Y-9174540D02*
X44091005Y-8655466D01*
X44091005Y-8655466D02*
X44023997Y-8588456D01*
%TO.N,/LCD_MOSI*%
X40059290Y-14640896D02*
X40124000Y-14705606D01*
X40059290Y-8947472D02*
X40059290Y-14640896D01*
X40124000Y-14705606D02*
X40124000Y-17596000D01*
X37925818Y-6814000D02*
X40059290Y-8947472D01*
X36779182Y-6814000D02*
X37925818Y-6814000D01*
X36082500Y-8662500D02*
X36082500Y-7510682D01*
X36082500Y-7510682D02*
X36779182Y-6814000D01*
X40124000Y-17596000D02*
X38850000Y-18870000D01*
%TO.N,/LCD_SCK*%
X37040136Y-7444000D02*
X37664864Y-7444000D01*
X37958500Y-7737636D02*
X37958500Y-8137500D01*
X36717500Y-7766636D02*
X37040136Y-7444000D01*
X38850000Y-9029000D02*
X38850000Y-16330000D01*
X36717500Y-8662500D02*
X36717500Y-7766636D01*
X37664864Y-7444000D02*
X37958500Y-7737636D01*
X37958500Y-8137500D02*
X38850000Y-9029000D01*
%TO.N,/KEY_ALT*%
X18181866Y-6991000D02*
X17864382Y-6673516D01*
X18530000Y-18870000D02*
X19804000Y-17596000D01*
X37352500Y-3387500D02*
X37705000Y-3740000D01*
X19804000Y-17596000D02*
X19804000Y-7282483D01*
X37705000Y-3740000D02*
X38930035Y-3740000D01*
X19512517Y-6991000D02*
X18181866Y-6991000D01*
X19804000Y-7282483D02*
X19512517Y-6991000D01*
%TO.N,/I2C_SDA*%
X17256000Y-8725079D02*
X16550000Y-8019079D01*
X30367500Y-3387500D02*
X30367500Y-4539319D01*
X26670046Y-5236000D02*
X26464045Y-5030000D01*
X25848862Y-5030000D02*
X24196642Y-3377780D01*
X26464045Y-5030000D02*
X25848862Y-5030000D01*
X30367500Y-4539319D02*
X29670818Y-5236000D01*
D24*
X13450000Y-18870000D02*
X15990000Y-18870000D01*
D22*
X16550000Y-8019079D02*
X16550000Y-6025911D01*
X15990000Y-18870000D02*
X17256000Y-17604000D01*
X24196642Y-3377780D02*
X24196642Y-2736966D01*
X29670818Y-5236000D02*
X26670046Y-5236000D01*
X16550000Y-6025911D02*
X16524089Y-6000000D01*
X17256000Y-17604000D02*
X17256000Y-8725079D01*
D24*
%TO.N,/I2C_SCL*%
X13450000Y-16330000D02*
X15990000Y-16330000D01*
D22*
X29732500Y-3387500D02*
X29732500Y-4283364D01*
X15175000Y-6240903D02*
X15027388Y-6093291D01*
X29732500Y-4283364D02*
X29409864Y-4606000D01*
X26931000Y-4606000D02*
X25750000Y-3425000D01*
X15175000Y-7971376D02*
X15175000Y-6240903D01*
X15990000Y-16330000D02*
X15990000Y-8786376D01*
X29409864Y-4606000D02*
X26931000Y-4606000D01*
X15990000Y-8786376D02*
X15175000Y-7971376D01*
%TO.N,/UART_RX*%
X30510425Y-11568195D02*
X30510426Y-10981057D01*
X30367500Y-14116124D02*
X29905000Y-13653624D01*
X29905000Y-13653624D02*
X29905000Y-12173619D01*
X30367500Y-15467500D02*
X30367500Y-14116124D01*
X30510426Y-10981057D02*
X30421491Y-10892122D01*
X29905000Y-12173619D02*
X30510425Y-11568195D01*
X30421491Y-10565353D02*
X30367500Y-10511362D01*
X30367500Y-10511362D02*
X30367500Y-8662500D01*
X31230000Y-16330000D02*
X30367500Y-15467500D01*
X30421491Y-10892122D02*
X30421491Y-10565353D01*
%TO.N,/SWDIO*%
X53895000Y-11695000D02*
X55450000Y-13250000D01*
X29097500Y-8662500D02*
X27756537Y-8662500D01*
X27756537Y-8662500D02*
X26991004Y-9428033D01*
X53895000Y-10485000D02*
X53895000Y-11695000D01*
%TO.N,/SWCLK*%
X23402488Y-1647512D02*
X21070000Y-3980000D01*
X28050000Y-1765000D02*
X25261642Y-1765000D01*
X59125000Y-8350000D02*
X59125000Y-7225000D01*
X56990000Y-10485000D02*
X56435000Y-10485000D01*
X28287499Y-1765000D02*
X28050000Y-1765000D01*
X25144154Y-1647512D02*
X23402488Y-1647512D01*
X21070000Y-3980000D02*
X21070000Y-16330000D01*
X59125000Y-8350000D02*
X56990000Y-10485000D01*
X29097500Y-3387500D02*
X29097500Y-2575001D01*
X25261642Y-1765000D02*
X25144154Y-1647512D01*
X29097500Y-2575001D02*
X28287499Y-1765000D01*
%TO.N,/LCD_RES*%
X33770000Y-16330000D02*
X34381000Y-15719000D01*
X44720000Y-6856494D02*
X44720000Y-6667967D01*
X31002500Y-3387500D02*
X31002500Y-2394330D01*
X34381000Y-15719000D02*
X34381000Y-13744819D01*
X44654000Y-8327506D02*
X44654000Y-6922493D01*
X44654000Y-6922493D02*
X44720000Y-6856494D01*
X44721001Y-10712537D02*
X44721002Y-9435497D01*
X45585000Y-5802967D02*
X45585000Y-4466139D01*
X44721005Y-9435494D02*
X44721005Y-8394512D01*
X31002500Y-2394330D02*
X30347170Y-1739000D01*
X44721002Y-9435497D02*
X44721005Y-9435494D01*
X45585000Y-4466139D02*
X45495516Y-4376655D01*
X44720000Y-6667967D02*
X45585000Y-5802967D01*
X45882271Y-13518186D02*
X45882271Y-11873807D01*
X45882271Y-11873807D02*
X44721001Y-10712537D01*
X44721005Y-8394512D02*
X44654000Y-8327506D01*
X34381000Y-13744819D02*
X34510396Y-13615423D01*
%TO.N,/AUDIO*%
X35486500Y-9583222D02*
X35774278Y-9871000D01*
X36182486Y-10191047D02*
X36231789Y-10240351D01*
X28332075Y-10099343D02*
X28355298Y-10076120D01*
X28332075Y-10734267D02*
X28332075Y-10099343D01*
X36231789Y-10250909D02*
X36239226Y-10258346D01*
X36239226Y-10258346D02*
X36239226Y-10313208D01*
X35447500Y-9441894D02*
X35486500Y-9480894D01*
X28324835Y-11623783D02*
X28324835Y-10741507D01*
X28324835Y-10741507D02*
X28332075Y-10734267D01*
X28690000Y-11988948D02*
X28324835Y-11623783D01*
D24*
X28690000Y-16330000D02*
X28690000Y-18870000D01*
D22*
X36239226Y-10313208D02*
X36875484Y-10313208D01*
X35486500Y-9480894D02*
X35486500Y-9583222D01*
X35876605Y-9871000D02*
X36182486Y-10176881D01*
X36231789Y-10240351D02*
X36231789Y-10250909D01*
X28690000Y-16330000D02*
X28690000Y-11988948D01*
X36182486Y-10176881D02*
X36182486Y-10191047D01*
X35774278Y-9871000D02*
X35876605Y-9871000D01*
X35447500Y-8662500D02*
X35447500Y-9441894D01*
%TD*%
%TA.AperFunction,Conductor*%
%TO.N,/GND*%
G36*
X30254704Y-420185D02*
G01*
X30300459Y-472989D01*
X30310403Y-542147D01*
X30281378Y-605703D01*
X30222600Y-643477D01*
X30207063Y-646973D01*
X30089472Y-665597D01*
X29924722Y-719128D01*
X29770381Y-797768D01*
X29734596Y-823768D01*
X29630242Y-899586D01*
X29630240Y-899588D01*
X29630239Y-899588D01*
X29507758Y-1022069D01*
X29507758Y-1022070D01*
X29507756Y-1022072D01*
X29481828Y-1057759D01*
X29405938Y-1162211D01*
X29327299Y-1316550D01*
X29327298Y-1316552D01*
X29327297Y-1316555D01*
X29312290Y-1362738D01*
X29272854Y-1420412D01*
X29208495Y-1447610D01*
X29139649Y-1435695D01*
X29088173Y-1388451D01*
X29076432Y-1362741D01*
X29069873Y-1342555D01*
X28991232Y-1188212D01*
X28889414Y-1048072D01*
X28766928Y-925586D01*
X28626788Y-823768D01*
X28472445Y-745127D01*
X28307701Y-691598D01*
X28307699Y-691597D01*
X28307698Y-691597D01*
X28143543Y-665598D01*
X28136611Y-664500D01*
X27963389Y-664500D01*
X27956457Y-665598D01*
X27792302Y-691597D01*
X27627552Y-745128D01*
X27473211Y-823768D01*
X27393256Y-881859D01*
X27333072Y-925586D01*
X27333070Y-925588D01*
X27333069Y-925588D01*
X27210588Y-1048069D01*
X27210583Y-1048075D01*
X27210352Y-1048394D01*
X27210233Y-1048485D01*
X27207422Y-1051777D01*
X27206730Y-1051186D01*
X27155018Y-1091055D01*
X27110040Y-1099500D01*
X25559479Y-1099500D01*
X25492440Y-1079815D01*
X25490617Y-1078621D01*
X25459386Y-1057754D01*
X25459381Y-1057752D01*
X25338273Y-1007587D01*
X25338267Y-1007585D01*
X25209703Y-982012D01*
X25209701Y-982012D01*
X25209700Y-982012D01*
X23468035Y-982012D01*
X23336941Y-982012D01*
X23336940Y-982012D01*
X23326275Y-984133D01*
X23315609Y-986255D01*
X23208376Y-1007584D01*
X23208372Y-1007586D01*
X23208370Y-1007586D01*
X23208369Y-1007587D01*
X23122728Y-1043060D01*
X23122726Y-1043061D01*
X23122725Y-1043060D01*
X23087259Y-1057752D01*
X23087246Y-1057759D01*
X23063691Y-1073499D01*
X23063689Y-1073500D01*
X22998273Y-1117208D01*
X22998274Y-1117209D01*
X22978256Y-1130584D01*
X22978250Y-1130589D01*
X20553076Y-3555762D01*
X20553075Y-3555763D01*
X20480241Y-3664769D01*
X20430075Y-3785880D01*
X20430075Y-3785881D01*
X20417474Y-3849232D01*
X20417474Y-3849233D01*
X20404500Y-3914452D01*
X20404500Y-4259323D01*
X20384815Y-4326362D01*
X20332011Y-4372117D01*
X20262853Y-4382061D01*
X20215404Y-4364862D01*
X20094340Y-4290189D01*
X20094335Y-4290187D01*
X20094334Y-4290186D01*
X19927797Y-4235001D01*
X19927795Y-4235000D01*
X19825010Y-4224500D01*
X18899998Y-4224500D01*
X18899980Y-4224501D01*
X18797203Y-4235000D01*
X18797200Y-4235001D01*
X18712086Y-4263206D01*
X18673082Y-4269500D01*
X14613991Y-4269500D01*
X14485426Y-4295073D01*
X14485420Y-4295075D01*
X14364306Y-4345242D01*
X14255310Y-4418070D01*
X14255303Y-4418076D01*
X13033076Y-5640302D01*
X13033075Y-5640303D01*
X12960241Y-5749309D01*
X12910075Y-5870420D01*
X12910073Y-5870427D01*
X12884869Y-5997141D01*
X12884864Y-5997167D01*
X12884500Y-5998994D01*
X12884500Y-11235040D01*
X12864815Y-11302079D01*
X12836484Y-11332079D01*
X12836777Y-11332422D01*
X12833592Y-11335142D01*
X12833394Y-11335352D01*
X12833075Y-11335583D01*
X12833069Y-11335588D01*
X12710588Y-11458069D01*
X12710588Y-11458070D01*
X12710586Y-11458072D01*
X12693377Y-11481758D01*
X12608768Y-11598211D01*
X12530128Y-11752552D01*
X12476597Y-11917302D01*
X12449500Y-12088389D01*
X12449500Y-12261616D01*
X12449562Y-12262008D01*
X12449542Y-12262158D01*
X12449882Y-12266475D01*
X12448974Y-12266546D01*
X12440598Y-12331300D01*
X12414767Y-12369072D01*
X10636231Y-14147607D01*
X10586870Y-14177856D01*
X10487554Y-14210127D01*
X10333211Y-14288768D01*
X10265647Y-14337857D01*
X10193072Y-14390586D01*
X10193070Y-14390588D01*
X10193069Y-14390588D01*
X10070588Y-14513069D01*
X10070588Y-14513070D01*
X10070586Y-14513072D01*
X10047918Y-14544272D01*
X9968768Y-14653211D01*
X9890128Y-14807552D01*
X9836597Y-14972302D01*
X9809500Y-15143389D01*
X9809500Y-16716610D01*
X9835934Y-16883512D01*
X9836598Y-16887701D01*
X9890127Y-17052445D01*
X9968768Y-17206788D01*
X9985818Y-17230255D01*
X10009298Y-17296058D01*
X10009500Y-17303140D01*
X10009500Y-17896859D01*
X9989815Y-17963898D01*
X9985818Y-17969745D01*
X9968770Y-17993207D01*
X9968769Y-17993210D01*
X9890128Y-18147552D01*
X9836597Y-18312302D01*
X9827459Y-18370000D01*
X9809500Y-18483389D01*
X9809500Y-20056611D01*
X9836598Y-20227701D01*
X9890127Y-20392445D01*
X9968768Y-20546788D01*
X10070586Y-20686928D01*
X10193072Y-20809414D01*
X10333212Y-20911232D01*
X10487555Y-20989873D01*
X10652299Y-21043402D01*
X10823389Y-21070500D01*
X10823390Y-21070500D01*
X10996610Y-21070500D01*
X10996611Y-21070500D01*
X11167701Y-21043402D01*
X11332445Y-20989873D01*
X11486788Y-20911232D01*
X11626928Y-20809414D01*
X11749414Y-20686928D01*
X11851232Y-20546788D01*
X11929873Y-20392445D01*
X11983402Y-20227701D01*
X12010500Y-20056611D01*
X12010500Y-18483389D01*
X11983402Y-18312299D01*
X11929873Y-18147555D01*
X11851232Y-17993212D01*
X11851229Y-17993208D01*
X11851229Y-17993207D01*
X11834182Y-17969745D01*
X11810702Y-17903939D01*
X11810500Y-17896859D01*
X11810500Y-17303140D01*
X11830185Y-17236101D01*
X11834164Y-17230279D01*
X11851232Y-17206788D01*
X11929873Y-17052445D01*
X11983402Y-16887701D01*
X12010500Y-16716611D01*
X12010500Y-15143389D01*
X11983402Y-14972299D01*
X11935875Y-14826030D01*
X11933881Y-14756190D01*
X11966124Y-14700034D01*
X13355928Y-13310229D01*
X13417249Y-13276746D01*
X13458500Y-13275567D01*
X13458536Y-13275118D01*
X13462718Y-13275447D01*
X13463004Y-13275439D01*
X13463389Y-13275500D01*
X13463394Y-13275500D01*
X13636610Y-13275500D01*
X13636611Y-13275500D01*
X13807701Y-13248402D01*
X13972445Y-13194873D01*
X14126788Y-13116232D01*
X14266928Y-13014414D01*
X14389414Y-12891928D01*
X14491232Y-12751788D01*
X14569873Y-12597445D01*
X14623402Y-12432701D01*
X14650500Y-12261611D01*
X14650500Y-12088389D01*
X14623402Y-11917299D01*
X14569873Y-11752555D01*
X14491232Y-11598212D01*
X14389414Y-11458072D01*
X14266928Y-11335586D01*
X14266606Y-11335352D01*
X14266514Y-11335233D01*
X14263223Y-11332422D01*
X14263813Y-11331730D01*
X14223945Y-11280018D01*
X14215500Y-11235040D01*
X14215500Y-7107076D01*
X14218938Y-7095365D01*
X14217818Y-7083210D01*
X14228599Y-7062464D01*
X14235185Y-7040037D01*
X14244408Y-7032044D01*
X14250038Y-7021213D01*
X14270323Y-7009589D01*
X14287989Y-6994282D01*
X14300069Y-6992545D01*
X14310661Y-6986476D01*
X14334009Y-6987664D01*
X14357147Y-6984338D01*
X14369969Y-6989495D01*
X14380440Y-6990029D01*
X14410735Y-7005893D01*
X14411757Y-7006305D01*
X14412091Y-7006545D01*
X14450600Y-7034523D01*
X14452362Y-7035421D01*
X14457757Y-7039289D01*
X14476607Y-7063420D01*
X14497159Y-7086132D01*
X14498323Y-7091221D01*
X14500768Y-7094351D01*
X14501933Y-7106997D01*
X14509500Y-7140060D01*
X14509500Y-7905829D01*
X14509500Y-8036923D01*
X14509500Y-8036925D01*
X14509499Y-8036925D01*
X14535073Y-8165489D01*
X14535075Y-8165495D01*
X14585242Y-8286608D01*
X14620689Y-8339659D01*
X14658075Y-8395612D01*
X14658076Y-8395613D01*
X15288181Y-9025717D01*
X15321666Y-9087040D01*
X15324500Y-9113398D01*
X15324500Y-14290040D01*
X15304815Y-14357079D01*
X15276484Y-14387079D01*
X15276777Y-14387422D01*
X15273592Y-14390142D01*
X15273394Y-14390352D01*
X15273075Y-14390583D01*
X15273069Y-14390588D01*
X15150588Y-14513069D01*
X15150588Y-14513070D01*
X15150586Y-14513072D01*
X15127918Y-14544272D01*
X15048768Y-14653211D01*
X14970128Y-14807552D01*
X14916597Y-14972302D01*
X14889500Y-15143389D01*
X14889500Y-15305500D01*
X14886949Y-15314185D01*
X14888238Y-15323147D01*
X14877259Y-15347187D01*
X14869815Y-15372539D01*
X14862974Y-15378466D01*
X14859213Y-15386703D01*
X14836978Y-15400992D01*
X14817011Y-15418294D01*
X14806496Y-15420581D01*
X14800435Y-15424477D01*
X14765500Y-15429500D01*
X14674500Y-15429500D01*
X14607461Y-15409815D01*
X14561706Y-15357011D01*
X14550500Y-15305500D01*
X14550500Y-15143389D01*
X14523402Y-14972302D01*
X14523402Y-14972299D01*
X14469873Y-14807555D01*
X14391232Y-14653212D01*
X14289414Y-14513072D01*
X14166928Y-14390586D01*
X14026788Y-14288768D01*
X13872445Y-14210127D01*
X13707701Y-14156598D01*
X13707699Y-14156597D01*
X13707698Y-14156597D01*
X13576271Y-14135781D01*
X13536611Y-14129500D01*
X13363389Y-14129500D01*
X13323728Y-14135781D01*
X13192302Y-14156597D01*
X13027552Y-14210128D01*
X12873211Y-14288768D01*
X12805647Y-14337857D01*
X12733072Y-14390586D01*
X12733070Y-14390588D01*
X12733069Y-14390588D01*
X12610588Y-14513069D01*
X12610588Y-14513070D01*
X12610586Y-14513072D01*
X12587918Y-14544272D01*
X12508768Y-14653211D01*
X12430128Y-14807552D01*
X12376597Y-14972302D01*
X12349500Y-15143389D01*
X12349500Y-16716610D01*
X12375934Y-16883512D01*
X12376598Y-16887701D01*
X12430127Y-17052445D01*
X12508768Y-17206788D01*
X12610586Y-17346928D01*
X12610588Y-17346930D01*
X12733072Y-17469414D01*
X12774733Y-17499683D01*
X12817398Y-17555013D01*
X12823376Y-17624627D01*
X12790769Y-17686421D01*
X12774733Y-17700317D01*
X12733072Y-17730585D01*
X12610588Y-17853069D01*
X12610588Y-17853070D01*
X12610586Y-17853072D01*
X12578773Y-17896859D01*
X12508768Y-17993211D01*
X12430128Y-18147552D01*
X12376597Y-18312302D01*
X12367459Y-18370000D01*
X12349500Y-18483389D01*
X12349500Y-20056611D01*
X12376598Y-20227701D01*
X12430127Y-20392445D01*
X12508768Y-20546788D01*
X12610586Y-20686928D01*
X12733072Y-20809414D01*
X12873212Y-20911232D01*
X13027555Y-20989873D01*
X13192299Y-21043402D01*
X13363389Y-21070500D01*
X13363390Y-21070500D01*
X13536610Y-21070500D01*
X13536611Y-21070500D01*
X13707701Y-21043402D01*
X13872445Y-20989873D01*
X14026788Y-20911232D01*
X14166928Y-20809414D01*
X14289414Y-20686928D01*
X14391232Y-20546788D01*
X14469873Y-20392445D01*
X14523402Y-20227701D01*
X14550500Y-20056611D01*
X14550500Y-19894500D01*
X14553050Y-19885814D01*
X14551762Y-19876853D01*
X14562740Y-19852812D01*
X14570185Y-19827461D01*
X14577025Y-19821533D01*
X14580787Y-19813297D01*
X14603021Y-19799007D01*
X14622989Y-19781706D01*
X14633503Y-19779418D01*
X14639565Y-19775523D01*
X14674500Y-19770500D01*
X14765500Y-19770500D01*
X14832539Y-19790185D01*
X14878294Y-19842989D01*
X14889500Y-19894500D01*
X14889500Y-20056611D01*
X14916598Y-20227701D01*
X14970127Y-20392445D01*
X15048768Y-20546788D01*
X15150586Y-20686928D01*
X15273072Y-20809414D01*
X15413212Y-20911232D01*
X15567555Y-20989873D01*
X15732299Y-21043402D01*
X15903389Y-21070500D01*
X15903390Y-21070500D01*
X16076610Y-21070500D01*
X16076611Y-21070500D01*
X16247701Y-21043402D01*
X16412445Y-20989873D01*
X16566788Y-20911232D01*
X16706928Y-20809414D01*
X16829414Y-20686928D01*
X16931232Y-20546788D01*
X17009873Y-20392445D01*
X17063402Y-20227701D01*
X17090500Y-20056611D01*
X17090500Y-18762020D01*
X17099144Y-18732579D01*
X17105668Y-18702593D01*
X17109422Y-18697577D01*
X17110185Y-18694981D01*
X17126815Y-18674343D01*
X17217820Y-18583338D01*
X17279142Y-18549854D01*
X17348834Y-18554838D01*
X17404767Y-18596710D01*
X17429184Y-18662174D01*
X17429500Y-18671020D01*
X17429500Y-20056611D01*
X17456598Y-20227701D01*
X17510127Y-20392445D01*
X17588768Y-20546788D01*
X17690586Y-20686928D01*
X17813072Y-20809414D01*
X17953212Y-20911232D01*
X18107555Y-20989873D01*
X18272299Y-21043402D01*
X18443389Y-21070500D01*
X18443390Y-21070500D01*
X18616610Y-21070500D01*
X18616611Y-21070500D01*
X18787701Y-21043402D01*
X18952445Y-20989873D01*
X19106788Y-20911232D01*
X19246928Y-20809414D01*
X19369414Y-20686928D01*
X19471232Y-20546788D01*
X19549873Y-20392445D01*
X19603402Y-20227701D01*
X19630500Y-20056611D01*
X19630500Y-18762020D01*
X19639144Y-18732580D01*
X19645668Y-18702594D01*
X19649422Y-18697578D01*
X19650185Y-18694982D01*
X19666815Y-18674344D01*
X19757820Y-18583339D01*
X19819142Y-18549855D01*
X19888834Y-18554839D01*
X19944767Y-18596711D01*
X19969184Y-18662175D01*
X19969500Y-18671020D01*
X19969500Y-20056611D01*
X19996598Y-20227701D01*
X20050127Y-20392445D01*
X20128768Y-20546788D01*
X20230586Y-20686928D01*
X20353072Y-20809414D01*
X20493212Y-20911232D01*
X20647555Y-20989873D01*
X20812299Y-21043402D01*
X20983389Y-21070500D01*
X20983390Y-21070500D01*
X21156610Y-21070500D01*
X21156611Y-21070500D01*
X21327701Y-21043402D01*
X21492445Y-20989873D01*
X21646788Y-20911232D01*
X21786928Y-20809414D01*
X21909414Y-20686928D01*
X22011232Y-20546788D01*
X22089873Y-20392445D01*
X22143402Y-20227701D01*
X22170500Y-20056611D01*
X22170500Y-18671020D01*
X22176738Y-18649775D01*
X22178318Y-18627687D01*
X22186390Y-18616903D01*
X22190185Y-18603982D01*
X22206918Y-18589482D01*
X22220190Y-18571754D01*
X22232810Y-18567046D01*
X22242989Y-18558227D01*
X22264906Y-18555075D01*
X22285654Y-18547337D01*
X22298814Y-18550199D01*
X22312147Y-18548283D01*
X22332290Y-18557482D01*
X22353927Y-18562189D01*
X22371652Y-18575457D01*
X22375703Y-18577308D01*
X22382180Y-18583339D01*
X22473181Y-18674340D01*
X22506666Y-18735663D01*
X22509500Y-18762020D01*
X22509500Y-20056611D01*
X22536598Y-20227701D01*
X22590127Y-20392445D01*
X22668768Y-20546788D01*
X22770586Y-20686928D01*
X22893072Y-20809414D01*
X22958388Y-20856868D01*
X23001051Y-20912195D01*
X23009500Y-20957184D01*
X23009500Y-22059453D01*
X23009500Y-22190547D01*
X23009500Y-22190549D01*
X23009499Y-22190549D01*
X23035073Y-22319113D01*
X23035075Y-22319119D01*
X23085242Y-22440232D01*
X23158072Y-22549232D01*
X23158075Y-22549236D01*
X23158076Y-22549237D01*
X24543006Y-23934165D01*
X24576491Y-23995488D01*
X24571507Y-24065179D01*
X24529636Y-24121113D01*
X24464171Y-24145530D01*
X24455325Y-24145846D01*
X19938366Y-24145846D01*
X19938366Y-27475500D01*
X19918681Y-27542539D01*
X19865877Y-27588294D01*
X19814366Y-27599500D01*
X524500Y-27599500D01*
X457461Y-27579815D01*
X411706Y-27527011D01*
X400500Y-27475500D01*
X400500Y-24385921D01*
X1759500Y-24385921D01*
X1759500Y-24614078D01*
X1789278Y-24840272D01*
X1789279Y-24840277D01*
X1789280Y-24840283D01*
X1789281Y-24840285D01*
X1848331Y-25060666D01*
X1935638Y-25271446D01*
X1935646Y-25271462D01*
X2049717Y-25469037D01*
X2049728Y-25469053D01*
X2188613Y-25650052D01*
X2188619Y-25650059D01*
X2349940Y-25811380D01*
X2349946Y-25811385D01*
X2530955Y-25950278D01*
X2530962Y-25950282D01*
X2728537Y-26064353D01*
X2728553Y-26064361D01*
X2842268Y-26111463D01*
X2939334Y-26151669D01*
X3159717Y-26210720D01*
X3319474Y-26231752D01*
X3385921Y-26240500D01*
X3385922Y-26240500D01*
X3614079Y-26240500D01*
X3665438Y-26233738D01*
X3840283Y-26210720D01*
X4060666Y-26151669D01*
X4226365Y-26083033D01*
X4271446Y-26064361D01*
X4271449Y-26064359D01*
X4271455Y-26064357D01*
X4469045Y-25950278D01*
X4650054Y-25811385D01*
X4811385Y-25650054D01*
X4950278Y-25469045D01*
X5064357Y-25271455D01*
X5151669Y-25060666D01*
X5210720Y-24840283D01*
X5240500Y-24614078D01*
X5240500Y-24385922D01*
X5210720Y-24159717D01*
X5151669Y-23939334D01*
X5111463Y-23842268D01*
X5064361Y-23728553D01*
X5064353Y-23728537D01*
X4950282Y-23530962D01*
X4950278Y-23530955D01*
X4811385Y-23349946D01*
X4811380Y-23349940D01*
X4650059Y-23188619D01*
X4650052Y-23188613D01*
X4469053Y-23049728D01*
X4469051Y-23049726D01*
X4469045Y-23049722D01*
X4469040Y-23049719D01*
X4469037Y-23049717D01*
X4271462Y-22935646D01*
X4271446Y-22935638D01*
X4060666Y-22848331D01*
X3840283Y-22789280D01*
X3840277Y-22789279D01*
X3840272Y-22789278D01*
X3614079Y-22759500D01*
X3614078Y-22759500D01*
X3385922Y-22759500D01*
X3385921Y-22759500D01*
X3159727Y-22789278D01*
X3159720Y-22789279D01*
X3159717Y-22789280D01*
X3073592Y-22812357D01*
X2939333Y-22848331D01*
X2728553Y-22935638D01*
X2728537Y-22935646D01*
X2530962Y-23049717D01*
X2530946Y-23049728D01*
X2349947Y-23188613D01*
X2349940Y-23188619D01*
X2188619Y-23349940D01*
X2188613Y-23349947D01*
X2049728Y-23530946D01*
X2049717Y-23530962D01*
X1935646Y-23728537D01*
X1935638Y-23728553D01*
X1850472Y-23934165D01*
X1848331Y-23939334D01*
X1793082Y-24145530D01*
X1789281Y-24159714D01*
X1789278Y-24159727D01*
X1759500Y-24385921D01*
X400500Y-24385921D01*
X400500Y-17430552D01*
X1666558Y-17430552D01*
X3924936Y-17430552D01*
X3924936Y-15143389D01*
X7269500Y-15143389D01*
X7269500Y-16716610D01*
X7295934Y-16883512D01*
X7296598Y-16887701D01*
X7350127Y-17052445D01*
X7428768Y-17206788D01*
X7501897Y-17307442D01*
X7525377Y-17373246D01*
X7509552Y-17441300D01*
X7459446Y-17489995D01*
X7451666Y-17493760D01*
X7397234Y-17517794D01*
X7317794Y-17597234D01*
X7272415Y-17700006D01*
X7272415Y-17700008D01*
X7269500Y-17725131D01*
X7269500Y-20814856D01*
X7269502Y-20814882D01*
X7272413Y-20839987D01*
X7272415Y-20839991D01*
X7317793Y-20942764D01*
X7317794Y-20942765D01*
X7397235Y-21022206D01*
X7500009Y-21067585D01*
X7525135Y-21070500D01*
X9214864Y-21070499D01*
X9214879Y-21070497D01*
X9214882Y-21070497D01*
X9239987Y-21067586D01*
X9239988Y-21067585D01*
X9239991Y-21067585D01*
X9342765Y-21022206D01*
X9422206Y-20942765D01*
X9467585Y-20839991D01*
X9470500Y-20814865D01*
X9470499Y-17725136D01*
X9470264Y-17723110D01*
X9467586Y-17700012D01*
X9467585Y-17700010D01*
X9467585Y-17700009D01*
X9422206Y-17597235D01*
X9342765Y-17517794D01*
X9288333Y-17493760D01*
X9234957Y-17448674D01*
X9214430Y-17381888D01*
X9233268Y-17314606D01*
X9238083Y-17307468D01*
X9311232Y-17206788D01*
X9389873Y-17052445D01*
X9443402Y-16887701D01*
X9470500Y-16716611D01*
X9470500Y-15143389D01*
X9443402Y-14972299D01*
X9389873Y-14807555D01*
X9311232Y-14653212D01*
X9209414Y-14513072D01*
X9086928Y-14390586D01*
X8946788Y-14288768D01*
X8792445Y-14210127D01*
X8627701Y-14156598D01*
X8627699Y-14156597D01*
X8627698Y-14156597D01*
X8496271Y-14135781D01*
X8456611Y-14129500D01*
X8283389Y-14129500D01*
X8243728Y-14135781D01*
X8112302Y-14156597D01*
X7947552Y-14210128D01*
X7793211Y-14288768D01*
X7725647Y-14337857D01*
X7653072Y-14390586D01*
X7653070Y-14390588D01*
X7653069Y-14390588D01*
X7530588Y-14513069D01*
X7530588Y-14513070D01*
X7530586Y-14513072D01*
X7507918Y-14544272D01*
X7428768Y-14653211D01*
X7350128Y-14807552D01*
X7296597Y-14972302D01*
X7269500Y-15143389D01*
X3924936Y-15143389D01*
X3924936Y-9417451D01*
X1666558Y-9417451D01*
X1666558Y-17430552D01*
X400500Y-17430552D01*
X400500Y-3385921D01*
X1759500Y-3385921D01*
X1759500Y-3614078D01*
X1789278Y-3840272D01*
X1789279Y-3840277D01*
X1789280Y-3840283D01*
X1821211Y-3959451D01*
X1848331Y-4060666D01*
X1935638Y-4271446D01*
X1935646Y-4271462D01*
X2049717Y-4469037D01*
X2049728Y-4469053D01*
X2188613Y-4650052D01*
X2188619Y-4650059D01*
X2349940Y-4811380D01*
X2349946Y-4811385D01*
X2530955Y-4950278D01*
X2530962Y-4950282D01*
X2728537Y-5064353D01*
X2728553Y-5064361D01*
X2842268Y-5111463D01*
X2939334Y-5151669D01*
X3159717Y-5210720D01*
X3319474Y-5231752D01*
X3385921Y-5240500D01*
X3385922Y-5240500D01*
X3614079Y-5240500D01*
X3665438Y-5233738D01*
X3840283Y-5210720D01*
X4060666Y-5151669D01*
X4268498Y-5065582D01*
X4271446Y-5064361D01*
X4271449Y-5064359D01*
X4271455Y-5064357D01*
X4272978Y-5063478D01*
X4393687Y-4993786D01*
X4469045Y-4950278D01*
X4650054Y-4811385D01*
X4811385Y-4650054D01*
X4950278Y-4469045D01*
X5064357Y-4271455D01*
X5151669Y-4060666D01*
X5210720Y-3840283D01*
X5240500Y-3614078D01*
X5240500Y-3385922D01*
X5210720Y-3159717D01*
X5151669Y-2939334D01*
X5098480Y-2810925D01*
X5064361Y-2728553D01*
X5064353Y-2728537D01*
X4950282Y-2530962D01*
X4950278Y-2530955D01*
X4844908Y-2393634D01*
X4811386Y-2349947D01*
X4811380Y-2349940D01*
X4650059Y-2188619D01*
X4650052Y-2188613D01*
X4469053Y-2049728D01*
X4469051Y-2049726D01*
X4469045Y-2049722D01*
X4469040Y-2049719D01*
X4469037Y-2049717D01*
X4271462Y-1935646D01*
X4271446Y-1935638D01*
X4060666Y-1848331D01*
X4035930Y-1841703D01*
X3840283Y-1789280D01*
X3840277Y-1789279D01*
X3840272Y-1789278D01*
X3614079Y-1759500D01*
X3614078Y-1759500D01*
X3385922Y-1759500D01*
X3385921Y-1759500D01*
X3159727Y-1789278D01*
X3159720Y-1789279D01*
X3159717Y-1789280D01*
X3111547Y-1802187D01*
X2939333Y-1848331D01*
X2728553Y-1935638D01*
X2728537Y-1935646D01*
X2530962Y-2049717D01*
X2530946Y-2049728D01*
X2349947Y-2188613D01*
X2349940Y-2188619D01*
X2188619Y-2349940D01*
X2188613Y-2349947D01*
X2049728Y-2530946D01*
X2049717Y-2530962D01*
X1935646Y-2728537D01*
X1935638Y-2728553D01*
X1848331Y-2939333D01*
X1833505Y-2994667D01*
X1789362Y-3159413D01*
X1789281Y-3159714D01*
X1789278Y-3159727D01*
X1759500Y-3385921D01*
X400500Y-3385921D01*
X400500Y-524500D01*
X420185Y-457461D01*
X472989Y-411706D01*
X524500Y-400500D01*
X30187665Y-400500D01*
X30254704Y-420185D01*
G37*
%TD.AperFunction*%
%TA.AperFunction,Conductor*%
G36*
X64542539Y-420185D02*
G01*
X64588294Y-472989D01*
X64599500Y-524500D01*
X64599500Y-27475500D01*
X64579815Y-27542539D01*
X64527011Y-27588294D01*
X64475500Y-27599500D01*
X45025347Y-27599500D01*
X44958308Y-27579815D01*
X44912553Y-27527011D01*
X44901347Y-27475500D01*
X44901347Y-24385921D01*
X59759500Y-24385921D01*
X59759500Y-24614078D01*
X59789278Y-24840272D01*
X59789279Y-24840277D01*
X59789280Y-24840283D01*
X59789281Y-24840285D01*
X59848331Y-25060666D01*
X59935638Y-25271446D01*
X59935646Y-25271462D01*
X60049717Y-25469037D01*
X60049728Y-25469053D01*
X60188613Y-25650052D01*
X60188619Y-25650059D01*
X60349940Y-25811380D01*
X60349946Y-25811385D01*
X60530955Y-25950278D01*
X60530962Y-25950282D01*
X60728537Y-26064353D01*
X60728553Y-26064361D01*
X60842268Y-26111463D01*
X60939334Y-26151669D01*
X61159717Y-26210720D01*
X61319474Y-26231752D01*
X61385921Y-26240500D01*
X61385922Y-26240500D01*
X61614079Y-26240500D01*
X61665438Y-26233738D01*
X61840283Y-26210720D01*
X62060666Y-26151669D01*
X62226365Y-26083033D01*
X62271446Y-26064361D01*
X62271449Y-26064359D01*
X62271455Y-26064357D01*
X62469045Y-25950278D01*
X62650054Y-25811385D01*
X62811385Y-25650054D01*
X62950278Y-25469045D01*
X63064357Y-25271455D01*
X63151669Y-25060666D01*
X63210720Y-24840283D01*
X63240500Y-24614078D01*
X63240500Y-24385922D01*
X63210720Y-24159717D01*
X63151669Y-23939334D01*
X63111463Y-23842268D01*
X63064361Y-23728553D01*
X63064353Y-23728537D01*
X62950282Y-23530962D01*
X62950278Y-23530955D01*
X62811385Y-23349946D01*
X62811380Y-23349940D01*
X62650059Y-23188619D01*
X62650052Y-23188613D01*
X62469053Y-23049728D01*
X62469051Y-23049726D01*
X62469045Y-23049722D01*
X62469040Y-23049719D01*
X62469037Y-23049717D01*
X62271462Y-22935646D01*
X62271446Y-22935638D01*
X62060666Y-22848331D01*
X61840283Y-22789280D01*
X61840277Y-22789279D01*
X61840272Y-22789278D01*
X61614079Y-22759500D01*
X61614078Y-22759500D01*
X61385922Y-22759500D01*
X61385921Y-22759500D01*
X61159727Y-22789278D01*
X61159720Y-22789279D01*
X61159717Y-22789280D01*
X61073592Y-22812357D01*
X60939333Y-22848331D01*
X60728553Y-22935638D01*
X60728537Y-22935646D01*
X60530962Y-23049717D01*
X60530946Y-23049728D01*
X60349947Y-23188613D01*
X60349940Y-23188619D01*
X60188619Y-23349940D01*
X60188613Y-23349947D01*
X60049728Y-23530946D01*
X60049717Y-23530962D01*
X59935646Y-23728537D01*
X59935638Y-23728553D01*
X59850472Y-23934165D01*
X59848331Y-23939334D01*
X59793082Y-24145530D01*
X59789281Y-24159714D01*
X59789278Y-24159727D01*
X59759500Y-24385921D01*
X44901347Y-24385921D01*
X44901347Y-24339846D01*
X44921032Y-24272807D01*
X44973836Y-24227052D01*
X45025347Y-24215846D01*
X47750369Y-24215846D01*
X47836864Y-24198640D01*
X47878939Y-24190271D01*
X48000052Y-24140104D01*
X48109052Y-24067274D01*
X49356927Y-22819398D01*
X49423865Y-22719218D01*
X49427908Y-22713168D01*
X49481520Y-22668362D01*
X49550845Y-22659655D01*
X49587305Y-22671573D01*
X49668760Y-22713076D01*
X49833504Y-22766605D01*
X50004594Y-22793703D01*
X50004595Y-22793703D01*
X50177815Y-22793703D01*
X50177816Y-22793703D01*
X50348906Y-22766605D01*
X50513650Y-22713076D01*
X50667993Y-22634435D01*
X50808133Y-22532617D01*
X50833627Y-22507122D01*
X50894946Y-22473639D01*
X50964638Y-22478622D01*
X50994191Y-22494487D01*
X51069549Y-22549237D01*
X51090518Y-22564472D01*
X51244861Y-22643113D01*
X51409605Y-22696642D01*
X51580695Y-22723740D01*
X51580696Y-22723740D01*
X51753916Y-22723740D01*
X51753917Y-22723740D01*
X51925007Y-22696642D01*
X52089751Y-22643113D01*
X52244094Y-22564472D01*
X52384234Y-22462654D01*
X52506720Y-22340168D01*
X52608538Y-22200028D01*
X52687179Y-22045685D01*
X52740708Y-21880941D01*
X52767806Y-21709851D01*
X52767806Y-21536629D01*
X52740708Y-21365539D01*
X52687179Y-21200795D01*
X52608538Y-21046452D01*
X52506720Y-20906312D01*
X52421345Y-20820937D01*
X52387860Y-20759614D01*
X52392844Y-20689922D01*
X52408707Y-20660373D01*
X52491232Y-20546788D01*
X52569873Y-20392445D01*
X52623402Y-20227701D01*
X52650500Y-20056611D01*
X52650500Y-18483389D01*
X52623402Y-18312299D01*
X52569873Y-18147555D01*
X52491232Y-17993212D01*
X52389414Y-17853072D01*
X52266928Y-17730586D01*
X52225265Y-17700316D01*
X52182602Y-17644988D01*
X52176623Y-17575374D01*
X52209229Y-17513579D01*
X52225266Y-17499683D01*
X52266928Y-17469414D01*
X52389414Y-17346928D01*
X52491232Y-17206788D01*
X52569873Y-17052445D01*
X52623402Y-16887701D01*
X52650500Y-16716611D01*
X52650500Y-15143389D01*
X52623402Y-14972299D01*
X52569873Y-14807555D01*
X52491232Y-14653212D01*
X52389414Y-14513072D01*
X52266928Y-14390586D01*
X52126788Y-14288768D01*
X51972445Y-14210127D01*
X51807701Y-14156598D01*
X51807699Y-14156597D01*
X51807698Y-14156597D01*
X51676271Y-14135781D01*
X51636611Y-14129500D01*
X51463389Y-14129500D01*
X51423728Y-14135781D01*
X51292302Y-14156597D01*
X51127552Y-14210128D01*
X50973211Y-14288768D01*
X50905647Y-14337857D01*
X50833072Y-14390586D01*
X50833070Y-14390588D01*
X50833069Y-14390588D01*
X50710588Y-14513069D01*
X50710588Y-14513070D01*
X50710586Y-14513072D01*
X50687918Y-14544272D01*
X50608768Y-14653211D01*
X50530128Y-14807552D01*
X50476597Y-14972302D01*
X50449500Y-15143389D01*
X50449500Y-16437977D01*
X50440855Y-16467417D01*
X50434332Y-16497404D01*
X50430577Y-16502419D01*
X50429815Y-16505016D01*
X50413181Y-16525658D01*
X50322181Y-16616658D01*
X50260858Y-16650143D01*
X50191166Y-16645159D01*
X50135233Y-16603287D01*
X50110816Y-16537823D01*
X50110500Y-16528977D01*
X50110500Y-15143389D01*
X50083402Y-14972302D01*
X50083402Y-14972299D01*
X50029873Y-14807555D01*
X49951232Y-14653212D01*
X49849414Y-14513072D01*
X49726928Y-14390586D01*
X49586788Y-14288768D01*
X49432445Y-14210127D01*
X49267701Y-14156598D01*
X49267699Y-14156597D01*
X49267698Y-14156597D01*
X49136271Y-14135781D01*
X49096611Y-14129500D01*
X48923389Y-14129500D01*
X48883728Y-14135781D01*
X48752302Y-14156597D01*
X48587547Y-14210129D01*
X48583046Y-14211994D01*
X48582378Y-14210383D01*
X48521102Y-14221879D01*
X48456366Y-14195590D01*
X48416120Y-14138475D01*
X48409500Y-14098500D01*
X48409500Y-12679042D01*
X48409499Y-12679032D01*
X48408536Y-12674194D01*
X48408533Y-12674179D01*
X48399187Y-12627194D01*
X48383925Y-12550467D01*
X48383920Y-12550457D01*
X48382417Y-12545497D01*
X48381792Y-12475630D01*
X48419039Y-12416516D01*
X48482333Y-12386924D01*
X48501077Y-12385499D01*
X49659856Y-12385499D01*
X49659864Y-12385499D01*
X49659879Y-12385497D01*
X49659882Y-12385497D01*
X49684987Y-12382586D01*
X49684988Y-12382585D01*
X49684991Y-12382585D01*
X49787765Y-12337206D01*
X49867206Y-12257765D01*
X49912585Y-12154991D01*
X49915500Y-12129865D01*
X49915499Y-11548794D01*
X49935183Y-11481758D01*
X49987987Y-11436003D01*
X50057146Y-11426059D01*
X50059777Y-11426670D01*
X50872037Y-10614410D01*
X50889075Y-10677993D01*
X50954901Y-10792007D01*
X51047993Y-10885099D01*
X51162007Y-10950925D01*
X51225589Y-10967962D01*
X50237760Y-11955790D01*
X50237760Y-11955792D01*
X50243139Y-11966347D01*
X50363417Y-12131894D01*
X50363417Y-12131895D01*
X50508104Y-12276582D01*
X50673650Y-12396859D01*
X50855968Y-12489755D01*
X51050582Y-12552990D01*
X51252683Y-12585000D01*
X51457317Y-12585000D01*
X51659417Y-12552990D01*
X51854031Y-12489755D01*
X52036349Y-12396859D01*
X52201894Y-12276582D01*
X52201895Y-12276582D01*
X52346582Y-12131895D01*
X52346582Y-12131894D01*
X52466858Y-11966351D01*
X52466860Y-11966347D01*
X52472239Y-11955790D01*
X51484410Y-10967962D01*
X51547993Y-10950925D01*
X51662007Y-10885099D01*
X51755099Y-10792007D01*
X51820925Y-10677993D01*
X51837962Y-10614410D01*
X52648964Y-11425412D01*
X52657401Y-11422671D01*
X52727243Y-11420676D01*
X52787076Y-11456756D01*
X52817904Y-11519457D01*
X52818193Y-11521204D01*
X52821598Y-11542701D01*
X52875127Y-11707445D01*
X52953768Y-11861788D01*
X53055586Y-12001928D01*
X53178072Y-12124414D01*
X53318212Y-12226232D01*
X53472555Y-12304873D01*
X53579276Y-12339549D01*
X53628638Y-12369798D01*
X54314767Y-13055927D01*
X54348252Y-13117250D01*
X54349433Y-13158489D01*
X54349882Y-13158525D01*
X54349553Y-13162698D01*
X54349562Y-13162987D01*
X54349500Y-13163375D01*
X54349500Y-13163389D01*
X54349500Y-13336611D01*
X54376598Y-13507701D01*
X54430127Y-13672445D01*
X54508768Y-13826788D01*
X54610586Y-13966928D01*
X54610588Y-13966930D01*
X54654785Y-14011127D01*
X54688270Y-14072450D01*
X54683286Y-14142142D01*
X54641414Y-14198075D01*
X54575950Y-14222492D01*
X54517509Y-14210652D01*
X54516954Y-14211994D01*
X54512452Y-14210129D01*
X54413126Y-14177856D01*
X54347701Y-14156598D01*
X54347699Y-14156597D01*
X54347698Y-14156597D01*
X54216271Y-14135781D01*
X54176611Y-14129500D01*
X54003389Y-14129500D01*
X53963728Y-14135781D01*
X53832302Y-14156597D01*
X53667552Y-14210128D01*
X53513211Y-14288768D01*
X53445647Y-14337857D01*
X53373072Y-14390586D01*
X53373070Y-14390588D01*
X53373069Y-14390588D01*
X53250588Y-14513069D01*
X53250588Y-14513070D01*
X53250586Y-14513072D01*
X53227918Y-14544272D01*
X53148768Y-14653211D01*
X53070128Y-14807552D01*
X53016597Y-14972302D01*
X52989500Y-15143389D01*
X52989500Y-16716610D01*
X53015934Y-16883512D01*
X53016598Y-16887701D01*
X53070127Y-17052445D01*
X53148768Y-17206788D01*
X53250586Y-17346928D01*
X53250588Y-17346930D01*
X53373072Y-17469414D01*
X53414733Y-17499683D01*
X53457398Y-17555013D01*
X53463376Y-17624627D01*
X53430769Y-17686421D01*
X53414733Y-17700317D01*
X53373072Y-17730585D01*
X53250588Y-17853069D01*
X53250588Y-17853070D01*
X53250586Y-17853072D01*
X53218773Y-17896859D01*
X53148768Y-17993211D01*
X53070128Y-18147552D01*
X53016597Y-18312302D01*
X53007459Y-18370000D01*
X52989500Y-18483389D01*
X52989500Y-20056611D01*
X53016598Y-20227701D01*
X53070127Y-20392445D01*
X53148768Y-20546788D01*
X53250586Y-20686928D01*
X53373072Y-20809414D01*
X53513212Y-20911232D01*
X53667555Y-20989873D01*
X53832299Y-21043402D01*
X54003389Y-21070500D01*
X54003390Y-21070500D01*
X54176610Y-21070500D01*
X54176611Y-21070500D01*
X54347701Y-21043402D01*
X54512445Y-20989873D01*
X54666788Y-20911232D01*
X54806928Y-20809414D01*
X54916306Y-20700036D01*
X55553513Y-20700036D01*
X55638417Y-20816895D01*
X55783104Y-20961582D01*
X55948650Y-21081859D01*
X56130968Y-21174755D01*
X56325582Y-21237990D01*
X56527683Y-21270000D01*
X56732317Y-21270000D01*
X56934417Y-21237990D01*
X57129031Y-21174755D01*
X57311349Y-21081859D01*
X57476894Y-20961582D01*
X57476895Y-20961582D01*
X57621584Y-20816893D01*
X57706484Y-20700037D01*
X57706484Y-20700036D01*
X56630000Y-19623552D01*
X55553513Y-20700036D01*
X54916306Y-20700036D01*
X54929414Y-20686928D01*
X55031232Y-20546788D01*
X55109873Y-20392445D01*
X55151974Y-20262870D01*
X55191410Y-20205198D01*
X55255769Y-20177999D01*
X55308222Y-20183260D01*
X55349707Y-20196739D01*
X56276448Y-19270000D01*
X56276448Y-19269999D01*
X55349707Y-18343258D01*
X55308221Y-18356738D01*
X55238380Y-18358733D01*
X55178547Y-18322653D01*
X55151974Y-18277129D01*
X55109873Y-18147555D01*
X55031232Y-17993212D01*
X54929414Y-17853072D01*
X54806928Y-17730586D01*
X54765265Y-17700316D01*
X54722602Y-17644988D01*
X54716623Y-17575374D01*
X54749229Y-17513579D01*
X54765266Y-17499683D01*
X54806928Y-17469414D01*
X54929414Y-17346928D01*
X55031232Y-17206788D01*
X55109873Y-17052445D01*
X55137186Y-16968384D01*
X55176622Y-16910711D01*
X55240981Y-16883512D01*
X55309827Y-16895427D01*
X55361303Y-16942671D01*
X55373047Y-16968385D01*
X55425244Y-17129031D01*
X55518140Y-17311349D01*
X55638417Y-17476894D01*
X55638417Y-17476895D01*
X55673841Y-17512319D01*
X55707326Y-17573642D01*
X55702342Y-17643334D01*
X55673841Y-17687681D01*
X55638417Y-17723104D01*
X55638416Y-17723105D01*
X55553513Y-17839962D01*
X55553514Y-17839963D01*
X56253222Y-18539671D01*
X56229901Y-18562993D01*
X56164075Y-18677007D01*
X56130000Y-18804174D01*
X56130000Y-18935826D01*
X56164075Y-19062993D01*
X56229901Y-19177007D01*
X56322993Y-19270099D01*
X56437007Y-19335925D01*
X56564174Y-19370000D01*
X56695826Y-19370000D01*
X56822993Y-19335925D01*
X56937007Y-19270099D01*
X56937107Y-19269999D01*
X56983552Y-19269999D01*
X56983552Y-19270000D01*
X57910291Y-20196740D01*
X57910292Y-20196739D01*
X57930000Y-20072311D01*
X57930000Y-18467688D01*
X57910292Y-18343259D01*
X56983552Y-19269999D01*
X56937107Y-19269999D01*
X57030099Y-19177007D01*
X57095925Y-19062993D01*
X57130000Y-18935826D01*
X57130000Y-18804174D01*
X57095925Y-18677007D01*
X57030099Y-18562993D01*
X57006777Y-18539671D01*
X57706484Y-17839963D01*
X57706485Y-17839961D01*
X57621587Y-17723110D01*
X57621582Y-17723104D01*
X57586159Y-17687681D01*
X57552674Y-17626358D01*
X57557658Y-17556666D01*
X57586159Y-17512319D01*
X57621582Y-17476895D01*
X57621582Y-17476894D01*
X57741859Y-17311349D01*
X57834755Y-17129031D01*
X57897990Y-16934417D01*
X57930000Y-16732317D01*
X57930000Y-16180000D01*
X57107445Y-16180000D01*
X57095925Y-16137007D01*
X57030099Y-16022993D01*
X56937007Y-15929901D01*
X56822993Y-15864075D01*
X56695826Y-15830000D01*
X56564174Y-15830000D01*
X56437007Y-15864075D01*
X56410269Y-15879511D01*
X56391206Y-15857511D01*
X56380000Y-15806000D01*
X56380000Y-15680000D01*
X56880000Y-15680000D01*
X57930000Y-15680000D01*
X57930000Y-15127682D01*
X57897990Y-14925582D01*
X57834755Y-14730968D01*
X57741859Y-14548650D01*
X57621582Y-14383105D01*
X57621582Y-14383104D01*
X57476895Y-14238417D01*
X57311349Y-14118140D01*
X57129029Y-14025244D01*
X56934413Y-13962009D01*
X56880000Y-13953390D01*
X56880000Y-15680000D01*
X56380000Y-15680000D01*
X56380000Y-13928326D01*
X56378782Y-13926461D01*
X56378285Y-13856593D01*
X56389397Y-13831321D01*
X56389020Y-13831129D01*
X56391232Y-13826788D01*
X56469873Y-13672445D01*
X56523402Y-13507701D01*
X56550500Y-13336611D01*
X56550500Y-13163389D01*
X56523402Y-12992299D01*
X56469873Y-12827555D01*
X56391232Y-12673212D01*
X56325241Y-12582383D01*
X56301762Y-12516580D01*
X56317587Y-12448526D01*
X56367692Y-12399831D01*
X56425560Y-12385500D01*
X56521610Y-12385500D01*
X56521611Y-12385500D01*
X56692701Y-12358402D01*
X56857445Y-12304873D01*
X57011788Y-12226232D01*
X57151928Y-12124414D01*
X57274414Y-12001928D01*
X57376232Y-11861788D01*
X57454873Y-11707445D01*
X57508402Y-11542701D01*
X57535500Y-11371611D01*
X57535500Y-10932022D01*
X57555185Y-10864983D01*
X57571819Y-10844341D01*
X59641924Y-8774236D01*
X59641928Y-8774232D01*
X59714758Y-8665232D01*
X59764925Y-8544119D01*
X59777631Y-8480244D01*
X59790500Y-8415549D01*
X59790500Y-8164959D01*
X59810185Y-8097920D01*
X59838516Y-8067925D01*
X59838221Y-8067580D01*
X59841436Y-8064833D01*
X59841624Y-8064634D01*
X59841928Y-8064414D01*
X59964414Y-7941928D01*
X60066232Y-7801788D01*
X60144873Y-7647445D01*
X60198402Y-7482701D01*
X60225500Y-7311611D01*
X60225500Y-7138389D01*
X60198402Y-6967299D01*
X60144873Y-6802555D01*
X60066232Y-6648212D01*
X59964414Y-6508072D01*
X59841928Y-6385586D01*
X59701788Y-6283768D01*
X59547445Y-6205127D01*
X59382701Y-6151598D01*
X59382699Y-6151597D01*
X59382698Y-6151597D01*
X59251271Y-6130781D01*
X59211611Y-6124500D01*
X59038389Y-6124500D01*
X58998728Y-6130781D01*
X58867302Y-6151597D01*
X58702552Y-6205128D01*
X58548211Y-6283768D01*
X58507574Y-6313293D01*
X58408072Y-6385586D01*
X58408070Y-6385588D01*
X58408069Y-6385588D01*
X58285588Y-6508069D01*
X58285588Y-6508070D01*
X58285586Y-6508072D01*
X58248022Y-6559774D01*
X58183768Y-6648211D01*
X58105128Y-6802552D01*
X58051597Y-6967302D01*
X58024500Y-7138389D01*
X58024500Y-7311611D01*
X58051598Y-7482701D01*
X58104726Y-7646212D01*
X58105128Y-7647447D01*
X58119215Y-7675094D01*
X58183768Y-7801788D01*
X58285586Y-7941928D01*
X58285588Y-7941930D01*
X58351067Y-8007409D01*
X58384552Y-8068732D01*
X58379568Y-8138424D01*
X58351067Y-8182771D01*
X57499679Y-9034159D01*
X57438356Y-9067644D01*
X57368664Y-9062660D01*
X57312731Y-9020788D01*
X57311681Y-9019364D01*
X57277314Y-8972064D01*
X57274414Y-8968072D01*
X57151928Y-8845586D01*
X57011788Y-8743768D01*
X56857445Y-8665127D01*
X56692701Y-8611598D01*
X56692699Y-8611597D01*
X56692698Y-8611597D01*
X56546828Y-8588494D01*
X56521611Y-8584500D01*
X56348389Y-8584500D01*
X56323172Y-8588494D01*
X56177302Y-8611597D01*
X56012552Y-8665128D01*
X55858211Y-8743768D01*
X55778256Y-8801859D01*
X55718072Y-8845586D01*
X55718070Y-8845588D01*
X55718069Y-8845588D01*
X55595588Y-8968069D01*
X55595588Y-8968070D01*
X55595586Y-8968072D01*
X55553704Y-9025717D01*
X55493768Y-9108211D01*
X55415128Y-9262552D01*
X55361597Y-9427302D01*
X55334500Y-9598389D01*
X55334500Y-11371610D01*
X55357916Y-11519457D01*
X55361598Y-11542701D01*
X55415127Y-11707445D01*
X55493768Y-11861788D01*
X55559758Y-11952616D01*
X55563705Y-11963677D01*
X55571519Y-11972449D01*
X55575231Y-11995981D01*
X55583238Y-12018420D01*
X55580577Y-12029861D01*
X55582408Y-12041465D01*
X55572808Y-12063269D01*
X55567413Y-12086474D01*
X55558989Y-12094660D01*
X55554256Y-12105412D01*
X55534392Y-12118565D01*
X55517308Y-12135169D01*
X55504316Y-12138480D01*
X55496000Y-12143988D01*
X55463480Y-12148890D01*
X55461138Y-12149488D01*
X55460262Y-12149500D01*
X55363389Y-12149500D01*
X55354221Y-12150951D01*
X55345306Y-12151074D01*
X55319879Y-12143984D01*
X55293695Y-12140597D01*
X55284035Y-12133991D01*
X55278003Y-12132309D01*
X55272432Y-12126054D01*
X55255927Y-12114767D01*
X54952352Y-11811192D01*
X54918867Y-11749869D01*
X54922101Y-11685197D01*
X54968402Y-11542701D01*
X54995500Y-11371611D01*
X54995500Y-9598389D01*
X54968402Y-9427299D01*
X54914873Y-9262555D01*
X54836232Y-9108212D01*
X54734414Y-8968072D01*
X54611928Y-8845586D01*
X54471788Y-8743768D01*
X54317445Y-8665127D01*
X54152701Y-8611598D01*
X54152699Y-8611597D01*
X54152698Y-8611597D01*
X54006828Y-8588494D01*
X53981611Y-8584500D01*
X53808389Y-8584500D01*
X53783172Y-8588494D01*
X53637302Y-8611597D01*
X53472552Y-8665128D01*
X53318211Y-8743768D01*
X53238256Y-8801859D01*
X53178072Y-8845586D01*
X53178070Y-8845588D01*
X53178069Y-8845588D01*
X53055588Y-8968069D01*
X53055588Y-8968070D01*
X53055586Y-8968072D01*
X53013704Y-9025717D01*
X52953768Y-9108211D01*
X52875128Y-9262552D01*
X52821597Y-9427300D01*
X52818193Y-9448796D01*
X52788263Y-9511930D01*
X52728951Y-9548860D01*
X52659088Y-9547862D01*
X52657403Y-9547327D01*
X52648965Y-9544585D01*
X51837962Y-10355588D01*
X51820925Y-10292007D01*
X51755099Y-10177993D01*
X51662007Y-10084901D01*
X51547993Y-10019075D01*
X51484410Y-10002037D01*
X52472238Y-9014209D01*
X52466858Y-9003649D01*
X52466856Y-9003646D01*
X52346582Y-8838105D01*
X52346582Y-8838104D01*
X52201895Y-8693417D01*
X52036349Y-8573140D01*
X51854031Y-8480244D01*
X51659417Y-8417009D01*
X51457317Y-8385000D01*
X51252683Y-8385000D01*
X51050582Y-8417009D01*
X50855968Y-8480244D01*
X50673650Y-8573140D01*
X50508105Y-8693417D01*
X50508104Y-8693417D01*
X50363417Y-8838104D01*
X50243136Y-9003656D01*
X50237759Y-9014206D01*
X50237760Y-9014208D01*
X51225589Y-10002037D01*
X51162007Y-10019075D01*
X51047993Y-10084901D01*
X50954901Y-10177993D01*
X50889075Y-10292007D01*
X50872037Y-10355588D01*
X50056198Y-9539749D01*
X50007976Y-9541127D01*
X49948143Y-9505046D01*
X49917315Y-9442345D01*
X49915499Y-9421201D01*
X49915499Y-8840143D01*
X49915499Y-8840136D01*
X49915497Y-8840117D01*
X49912586Y-8815012D01*
X49912585Y-8815010D01*
X49912585Y-8815009D01*
X49867206Y-8712235D01*
X49787765Y-8632794D01*
X49768283Y-8624192D01*
X49684992Y-8587415D01*
X49659868Y-8584500D01*
X49659865Y-8584500D01*
X48707021Y-8584500D01*
X48639982Y-8564815D01*
X48619340Y-8548181D01*
X47437205Y-7366046D01*
X47406955Y-7316682D01*
X47369875Y-7202559D01*
X47369873Y-7202555D01*
X47291233Y-7048213D01*
X47266742Y-7014505D01*
X47189414Y-6908072D01*
X47066928Y-6785586D01*
X46970838Y-6715772D01*
X46928096Y-6684718D01*
X46885431Y-6629387D01*
X46879452Y-6559774D01*
X46912058Y-6497979D01*
X46913209Y-6496810D01*
X47166928Y-6243093D01*
X47239758Y-6134094D01*
X47289925Y-6012981D01*
X47298294Y-5970906D01*
X47315500Y-5884410D01*
X47315500Y-3959451D01*
X47314102Y-3952428D01*
X47314101Y-3952423D01*
X47289925Y-3830881D01*
X47239758Y-3709768D01*
X47166928Y-3600768D01*
X47166926Y-3600766D01*
X47166924Y-3600763D01*
X47035705Y-3469544D01*
X46952082Y-3385921D01*
X59759500Y-3385921D01*
X59759500Y-3614078D01*
X59789278Y-3840272D01*
X59789279Y-3840277D01*
X59789280Y-3840283D01*
X59821211Y-3959451D01*
X59848331Y-4060666D01*
X59935638Y-4271446D01*
X59935646Y-4271462D01*
X60049717Y-4469037D01*
X60049728Y-4469053D01*
X60188613Y-4650052D01*
X60188619Y-4650059D01*
X60349940Y-4811380D01*
X60349946Y-4811385D01*
X60530955Y-4950278D01*
X60530962Y-4950282D01*
X60728537Y-5064353D01*
X60728553Y-5064361D01*
X60842268Y-5111463D01*
X60939334Y-5151669D01*
X61159717Y-5210720D01*
X61319474Y-5231752D01*
X61385921Y-5240500D01*
X61385922Y-5240500D01*
X61614079Y-5240500D01*
X61665438Y-5233738D01*
X61840283Y-5210720D01*
X62060666Y-5151669D01*
X62268498Y-5065582D01*
X62271446Y-5064361D01*
X62271449Y-5064359D01*
X62271455Y-5064357D01*
X62272978Y-5063478D01*
X62393687Y-4993786D01*
X62469045Y-4950278D01*
X62650054Y-4811385D01*
X62811385Y-4650054D01*
X62950278Y-4469045D01*
X63064357Y-4271455D01*
X63151669Y-4060666D01*
X63210720Y-3840283D01*
X63240500Y-3614078D01*
X63240500Y-3385922D01*
X63210720Y-3159717D01*
X63151669Y-2939334D01*
X63098480Y-2810925D01*
X63064361Y-2728553D01*
X63064353Y-2728537D01*
X62950282Y-2530962D01*
X62950278Y-2530955D01*
X62844908Y-2393634D01*
X62811386Y-2349947D01*
X62811380Y-2349940D01*
X62650059Y-2188619D01*
X62650052Y-2188613D01*
X62469053Y-2049728D01*
X62469051Y-2049726D01*
X62469045Y-2049722D01*
X62469040Y-2049719D01*
X62469037Y-2049717D01*
X62271462Y-1935646D01*
X62271446Y-1935638D01*
X62060666Y-1848331D01*
X62035930Y-1841703D01*
X61840283Y-1789280D01*
X61840277Y-1789279D01*
X61840272Y-1789278D01*
X61614079Y-1759500D01*
X61614078Y-1759500D01*
X61385922Y-1759500D01*
X61385921Y-1759500D01*
X61159727Y-1789278D01*
X61159720Y-1789279D01*
X61159717Y-1789280D01*
X61111547Y-1802187D01*
X60939333Y-1848331D01*
X60728553Y-1935638D01*
X60728537Y-1935646D01*
X60530962Y-2049717D01*
X60530946Y-2049728D01*
X60349947Y-2188613D01*
X60349940Y-2188619D01*
X60188619Y-2349940D01*
X60188613Y-2349947D01*
X60049728Y-2530946D01*
X60049717Y-2530962D01*
X59935646Y-2728537D01*
X59935638Y-2728553D01*
X59848331Y-2939333D01*
X59833505Y-2994667D01*
X59789362Y-3159413D01*
X59789281Y-3159714D01*
X59789278Y-3159727D01*
X59759500Y-3385921D01*
X46952082Y-3385921D01*
X45868470Y-2302310D01*
X45834985Y-2240987D01*
X45839969Y-2171295D01*
X45881841Y-2115362D01*
X45947305Y-2090945D01*
X45956151Y-2090629D01*
X59873925Y-2090629D01*
X59873925Y-524500D01*
X59893610Y-457461D01*
X59946414Y-411706D01*
X59997925Y-400500D01*
X64475500Y-400500D01*
X64542539Y-420185D01*
G37*
%TD.AperFunction*%
%TA.AperFunction,Conductor*%
G36*
X55022489Y-14269350D02*
G01*
X55023046Y-14268006D01*
X55027547Y-14269870D01*
X55027552Y-14269871D01*
X55027555Y-14269873D01*
X55192299Y-14323402D01*
X55363389Y-14350500D01*
X55363390Y-14350500D01*
X55418741Y-14350500D01*
X55485780Y-14370185D01*
X55531535Y-14422989D01*
X55541479Y-14492147D01*
X55520322Y-14544272D01*
X55520686Y-14544495D01*
X55519343Y-14546686D01*
X55519060Y-14547384D01*
X55518141Y-14548647D01*
X55425244Y-14730968D01*
X55373047Y-14891614D01*
X55333609Y-14949289D01*
X55269250Y-14976487D01*
X55200404Y-14964572D01*
X55148928Y-14917328D01*
X55137186Y-14891615D01*
X55109873Y-14807555D01*
X55031232Y-14653212D01*
X54929414Y-14513072D01*
X54885214Y-14468872D01*
X54851729Y-14407549D01*
X54856713Y-14337857D01*
X54898585Y-14281924D01*
X54964049Y-14257507D01*
X55022489Y-14269350D01*
G37*
%TD.AperFunction*%
%TA.AperFunction,Conductor*%
G36*
X23080089Y-3013582D02*
G01*
X23136022Y-3055454D01*
X23154685Y-3091444D01*
X23176769Y-3159411D01*
X23255410Y-3313754D01*
X23357228Y-3453894D01*
X23479714Y-3576380D01*
X23564228Y-3637783D01*
X23603675Y-3687817D01*
X23604011Y-3687638D01*
X23605016Y-3689519D01*
X23605901Y-3690641D01*
X23606881Y-3693008D01*
X23618080Y-3709768D01*
X23674798Y-3794655D01*
X23679717Y-3802016D01*
X23679718Y-3802017D01*
X24207891Y-4330189D01*
X24241376Y-4391512D01*
X24236392Y-4461203D01*
X24194521Y-4517137D01*
X24129056Y-4541554D01*
X24120210Y-4541870D01*
X23977528Y-4541870D01*
X23945331Y-4546969D01*
X23806440Y-4568967D01*
X23806436Y-4568968D01*
X23669468Y-4613471D01*
X23599627Y-4615466D01*
X23539794Y-4579385D01*
X23525612Y-4560636D01*
X23492317Y-4506656D01*
X23368345Y-4382684D01*
X23219124Y-4290643D01*
X23219119Y-4290641D01*
X23052697Y-4235494D01*
X23052690Y-4235493D01*
X22949986Y-4225000D01*
X22737500Y-4225000D01*
X22737500Y-7024999D01*
X22949972Y-7024999D01*
X22949986Y-7024998D01*
X23052697Y-7014505D01*
X23219119Y-6959358D01*
X23219124Y-6959356D01*
X23368345Y-6867315D01*
X23492316Y-6743344D01*
X23492317Y-6743342D01*
X23507761Y-6718304D01*
X23559707Y-6671578D01*
X23628669Y-6660354D01*
X23651608Y-6665464D01*
X23806438Y-6715772D01*
X23977528Y-6742870D01*
X23977529Y-6742870D01*
X24150749Y-6742870D01*
X24150750Y-6742870D01*
X24321840Y-6715772D01*
X24486584Y-6662243D01*
X24640927Y-6583602D01*
X24781067Y-6481784D01*
X24861032Y-6401819D01*
X24922355Y-6368334D01*
X24948713Y-6365500D01*
X25921162Y-6365500D01*
X25939306Y-6370827D01*
X25958214Y-6371165D01*
X25986434Y-6384666D01*
X25988201Y-6385185D01*
X25990039Y-6386388D01*
X26008927Y-6399009D01*
X26093858Y-6455758D01*
X26144023Y-6476536D01*
X26144024Y-6476537D01*
X26144025Y-6476537D01*
X26214972Y-6505925D01*
X26308354Y-6524500D01*
X26331814Y-6529166D01*
X26343543Y-6531500D01*
X27311482Y-6531500D01*
X27378521Y-6551185D01*
X27424276Y-6603989D01*
X27434220Y-6673147D01*
X27405195Y-6736703D01*
X27346417Y-6774477D01*
X27333634Y-6776960D01*
X27333704Y-6777311D01*
X27199162Y-6804073D01*
X27199156Y-6804075D01*
X27078042Y-6854242D01*
X26969046Y-6927070D01*
X26969039Y-6927076D01*
X25556461Y-8339653D01*
X25556460Y-8339654D01*
X25483625Y-8448660D01*
X25431252Y-8575101D01*
X25404372Y-8615329D01*
X25115334Y-8904368D01*
X25054011Y-8937853D01*
X24984320Y-8932869D01*
X24939972Y-8904368D01*
X24885186Y-8849582D01*
X24885184Y-8849580D01*
X24745044Y-8747762D01*
X24590701Y-8669121D01*
X24425957Y-8615592D01*
X24425955Y-8615591D01*
X24425954Y-8615591D01*
X24294527Y-8594775D01*
X24254867Y-8588494D01*
X24081645Y-8588494D01*
X24041984Y-8594775D01*
X23910558Y-8615591D01*
X23745808Y-8669122D01*
X23591467Y-8747762D01*
X23511512Y-8805853D01*
X23451328Y-8849580D01*
X23451326Y-8849582D01*
X23451325Y-8849582D01*
X23328844Y-8972063D01*
X23328844Y-8972064D01*
X23328842Y-8972066D01*
X23298224Y-9014208D01*
X23227024Y-9112205D01*
X23148384Y-9266546D01*
X23094853Y-9431296D01*
X23067756Y-9602383D01*
X23067756Y-9775500D01*
X23048071Y-9842539D01*
X22995267Y-9888294D01*
X22943756Y-9899500D01*
X22903389Y-9899500D01*
X22863728Y-9905781D01*
X22732302Y-9926597D01*
X22567552Y-9980128D01*
X22413211Y-10058768D01*
X22377243Y-10084901D01*
X22273072Y-10160586D01*
X22273070Y-10160588D01*
X22273069Y-10160588D01*
X22150588Y-10283069D01*
X22150588Y-10283070D01*
X22150586Y-10283072D01*
X22111127Y-10337382D01*
X22048768Y-10423211D01*
X21969985Y-10577833D01*
X21922011Y-10628629D01*
X21854190Y-10645424D01*
X21788055Y-10622887D01*
X21744603Y-10568172D01*
X21735500Y-10521538D01*
X21735500Y-7124325D01*
X21755185Y-7057286D01*
X21807989Y-7011531D01*
X21877147Y-7001587D01*
X21898504Y-7006619D01*
X21922302Y-7014505D01*
X21922309Y-7014506D01*
X22025019Y-7024999D01*
X22237499Y-7024999D01*
X22237500Y-7024998D01*
X22237500Y-4225000D01*
X22065519Y-4225000D01*
X21998480Y-4205315D01*
X21952725Y-4152511D01*
X21942781Y-4083353D01*
X21971806Y-4019797D01*
X21977813Y-4013345D01*
X22949076Y-3042081D01*
X23010397Y-3008598D01*
X23080089Y-3013582D01*
G37*
%TD.AperFunction*%
%TA.AperFunction,Conductor*%
G36*
X30903788Y-6280185D02*
G01*
X30949543Y-6332989D01*
X30959487Y-6402147D01*
X30930462Y-6465703D01*
X30924430Y-6472181D01*
X30654431Y-6742181D01*
X30593108Y-6775666D01*
X30566750Y-6778500D01*
X30013567Y-6778500D01*
X29946528Y-6758815D01*
X29900773Y-6706011D01*
X29890829Y-6636853D01*
X29919854Y-6573297D01*
X29978632Y-6535523D01*
X29991414Y-6533039D01*
X29991345Y-6532689D01*
X30115098Y-6508072D01*
X30125892Y-6505925D01*
X30247005Y-6455758D01*
X30356005Y-6382928D01*
X30442115Y-6296817D01*
X30503436Y-6263334D01*
X30529795Y-6260500D01*
X30836749Y-6260500D01*
X30903788Y-6280185D01*
G37*
%TD.AperFunction*%
%TA.AperFunction,Conductor*%
G36*
X35851832Y-420185D02*
G01*
X35897587Y-472989D01*
X35907531Y-542147D01*
X35878506Y-605703D01*
X35872474Y-612181D01*
X34930576Y-1554076D01*
X34930575Y-1554077D01*
X34857741Y-1663083D01*
X34807575Y-1784194D01*
X34807573Y-1784202D01*
X34782538Y-1910061D01*
X34782538Y-1910064D01*
X34782000Y-1912764D01*
X34782000Y-2221507D01*
X34762315Y-2288546D01*
X34709511Y-2334301D01*
X34696624Y-2339338D01*
X34680876Y-2344500D01*
X34673776Y-2344500D01*
X34625641Y-2350837D01*
X34540678Y-2390455D01*
X34533624Y-2392768D01*
X34505824Y-2393634D01*
X34478328Y-2397811D01*
X34468108Y-2394810D01*
X34463788Y-2394945D01*
X34459200Y-2392194D01*
X34442595Y-2387319D01*
X34364360Y-2350837D01*
X34364359Y-2350836D01*
X34316225Y-2344500D01*
X34316224Y-2344500D01*
X34038776Y-2344500D01*
X34038775Y-2344500D01*
X33990640Y-2350836D01*
X33990639Y-2350837D01*
X33912405Y-2387319D01*
X33843328Y-2397811D01*
X33807595Y-2387319D01*
X33729360Y-2350837D01*
X33729359Y-2350836D01*
X33681225Y-2344500D01*
X33681224Y-2344500D01*
X33571332Y-2344500D01*
X33504293Y-2324815D01*
X33472957Y-2295987D01*
X33435426Y-2247077D01*
X33310086Y-2150899D01*
X33164134Y-2090445D01*
X33164130Y-2090444D01*
X33100489Y-2082065D01*
X33036593Y-2053798D01*
X32998123Y-1995473D01*
X32994203Y-1939730D01*
X33012278Y-1825611D01*
X33012278Y-1652389D01*
X32985180Y-1481299D01*
X32931651Y-1316555D01*
X32853010Y-1162212D01*
X32751192Y-1022072D01*
X32628706Y-899586D01*
X32488566Y-797768D01*
X32334223Y-719127D01*
X32169479Y-665598D01*
X32169477Y-665597D01*
X32169476Y-665597D01*
X32051885Y-646973D01*
X31988751Y-617044D01*
X31951819Y-557733D01*
X31952817Y-487870D01*
X31991427Y-429637D01*
X32055390Y-401523D01*
X32071283Y-400500D01*
X35784793Y-400500D01*
X35851832Y-420185D01*
G37*
%TD.AperFunction*%
%TA.AperFunction,Conductor*%
G36*
X31819312Y-420185D02*
G01*
X31865067Y-472989D01*
X31875011Y-542147D01*
X31845986Y-605703D01*
X31787208Y-643477D01*
X31771671Y-646973D01*
X31654080Y-665597D01*
X31489330Y-719128D01*
X31334989Y-797768D01*
X31202360Y-894130D01*
X31136553Y-917610D01*
X31068499Y-901785D01*
X31056588Y-894130D01*
X30923958Y-797768D01*
X30769617Y-719128D01*
X30769616Y-719127D01*
X30769615Y-719127D01*
X30604871Y-665598D01*
X30604869Y-665597D01*
X30604868Y-665597D01*
X30487277Y-646973D01*
X30424143Y-617044D01*
X30387211Y-557733D01*
X30388209Y-487870D01*
X30426819Y-429637D01*
X30490782Y-401523D01*
X30506675Y-400500D01*
X31752273Y-400500D01*
X31819312Y-420185D01*
G37*
%TD.AperFunction*%
%TD*%
%TA.AperFunction,NonConductor*%
G36*
X43632777Y-420185D02*
G01*
X43678532Y-472989D01*
X43689738Y-524500D01*
X43689738Y-1760500D01*
X43687187Y-1769185D01*
X43688476Y-1778147D01*
X43677497Y-1802187D01*
X43670053Y-1827539D01*
X43663212Y-1833466D01*
X43659451Y-1841703D01*
X43637216Y-1855992D01*
X43617249Y-1873294D01*
X43606734Y-1875581D01*
X43600673Y-1879477D01*
X43565738Y-1884500D01*
X43552021Y-1884500D01*
X43484982Y-1864815D01*
X43464340Y-1848181D01*
X42228341Y-612181D01*
X42194856Y-550858D01*
X42199840Y-481166D01*
X42241712Y-425233D01*
X42307176Y-400816D01*
X42316022Y-400500D01*
X43565738Y-400500D01*
X43632777Y-420185D01*
G37*
%TD.AperFunction*%
%TA.AperFunction,NonConductor*%
G36*
X42248527Y-2515132D02*
G01*
X42255005Y-2521164D01*
X42800763Y-3066923D01*
X42800770Y-3066929D01*
X42909766Y-3139757D01*
X42909767Y-3139757D01*
X42909768Y-3139758D01*
X43030881Y-3189925D01*
X43030883Y-3189925D01*
X43036574Y-3191652D01*
X43095012Y-3229950D01*
X43123468Y-3293762D01*
X43118508Y-3348629D01*
X43095975Y-3417979D01*
X43095974Y-3417983D01*
X43068877Y-3589071D01*
X43068877Y-3762292D01*
X43092976Y-3914452D01*
X43095975Y-3933383D01*
X43149504Y-4098127D01*
X43228145Y-4252470D01*
X43329963Y-4392610D01*
X43329965Y-4392612D01*
X43388181Y-4450828D01*
X43421666Y-4512151D01*
X43424500Y-4538509D01*
X43424500Y-6246254D01*
X43404815Y-6313293D01*
X43352011Y-6359048D01*
X43282853Y-6368992D01*
X43219297Y-6339967D01*
X43212819Y-6333935D01*
X42003685Y-5124801D01*
X41970200Y-5063478D01*
X41975184Y-4993786D01*
X42017056Y-4937853D01*
X42018481Y-4936802D01*
X42094752Y-4881388D01*
X42217238Y-4758902D01*
X42319056Y-4618762D01*
X42397697Y-4464419D01*
X42451226Y-4299675D01*
X42478324Y-4128585D01*
X42478324Y-3955363D01*
X42451226Y-3784273D01*
X42397697Y-3619529D01*
X42319056Y-3465186D01*
X42217238Y-3325046D01*
X42094752Y-3202560D01*
X42094430Y-3202326D01*
X42094338Y-3202207D01*
X42091047Y-3199396D01*
X42091637Y-3198704D01*
X42051769Y-3146992D01*
X42043324Y-3102014D01*
X42043324Y-2608845D01*
X42063009Y-2541806D01*
X42115813Y-2496051D01*
X42184971Y-2486107D01*
X42248527Y-2515132D01*
G37*
%TD.AperFunction*%
%TA.AperFunction,NonConductor*%
G36*
X34031311Y-5350135D02*
G01*
X34075658Y-5378636D01*
X34762317Y-6065295D01*
X34795802Y-6126618D01*
X34790818Y-6196310D01*
X34762317Y-6240657D01*
X33660575Y-7342399D01*
X33587741Y-7451405D01*
X33549821Y-7542953D01*
X33505980Y-7597356D01*
X33466339Y-7615542D01*
X33451051Y-7619500D01*
X33403776Y-7619500D01*
X33355641Y-7625837D01*
X33267093Y-7667127D01*
X33256079Y-7669979D01*
X33232074Y-7669204D01*
X33208328Y-7672811D01*
X33191594Y-7667897D01*
X33186246Y-7667725D01*
X33182712Y-7665289D01*
X33172595Y-7662319D01*
X33094360Y-7625837D01*
X33094359Y-7625836D01*
X33046225Y-7619500D01*
X33046224Y-7619500D01*
X32768776Y-7619500D01*
X32768775Y-7619500D01*
X32720640Y-7625836D01*
X32720639Y-7625837D01*
X32642405Y-7662319D01*
X32573328Y-7672811D01*
X32537595Y-7662319D01*
X32459360Y-7625837D01*
X32459359Y-7625836D01*
X32411225Y-7619500D01*
X32411224Y-7619500D01*
X32133776Y-7619500D01*
X32133775Y-7619500D01*
X32085640Y-7625836D01*
X32085639Y-7625837D01*
X32007405Y-7662319D01*
X32006391Y-7662472D01*
X32005613Y-7663137D01*
X31971932Y-7667706D01*
X31938328Y-7672811D01*
X31937059Y-7672438D01*
X31936378Y-7672531D01*
X31902594Y-7662318D01*
X31868056Y-7646212D01*
X31815617Y-7600039D01*
X31796466Y-7532845D01*
X31816683Y-7465964D01*
X31832776Y-7446155D01*
X33900296Y-5378636D01*
X33961619Y-5345151D01*
X34031311Y-5350135D01*
G37*
%TD.AperFunction*%
%TA.AperFunction,NonConductor*%
G36*
X41560993Y-8718027D02*
G01*
X41567471Y-8724059D01*
X42093347Y-9249935D01*
X42098529Y-9257826D01*
X42103442Y-9261354D01*
X42113191Y-9280150D01*
X42120967Y-9291990D01*
X42124383Y-9300623D01*
X42125067Y-9304060D01*
X42139809Y-9339649D01*
X42155062Y-9376476D01*
X42164500Y-9423925D01*
X42164500Y-10270667D01*
X42144815Y-10337706D01*
X42092011Y-10383461D01*
X42022853Y-10393405D01*
X42015091Y-10391919D01*
X41872049Y-10369264D01*
X41841901Y-10364489D01*
X41668679Y-10364489D01*
X41499187Y-10391333D01*
X41429894Y-10382378D01*
X41376442Y-10337382D01*
X41355803Y-10270630D01*
X41355790Y-10268860D01*
X41355790Y-8811740D01*
X41375475Y-8744701D01*
X41428279Y-8698946D01*
X41497437Y-8689002D01*
X41560993Y-8718027D01*
G37*
%TD.AperFunction*%
%TA.AperFunction,NonConductor*%
G36*
X25997003Y-9989403D02*
G01*
X26013921Y-9990613D01*
X26028887Y-10001816D01*
X26046308Y-10008599D01*
X26068629Y-10031566D01*
X26069855Y-10032484D01*
X26070888Y-10033885D01*
X26151590Y-10144961D01*
X26274076Y-10267447D01*
X26414216Y-10369265D01*
X26568559Y-10447906D01*
X26733303Y-10501435D01*
X26904393Y-10528533D01*
X26904394Y-10528533D01*
X27077614Y-10528533D01*
X27077615Y-10528533D01*
X27241321Y-10502604D01*
X27310612Y-10511558D01*
X27364064Y-10556554D01*
X27371202Y-10568782D01*
X27414066Y-10652908D01*
X27515884Y-10793048D01*
X27515886Y-10793050D01*
X27623016Y-10900180D01*
X27656501Y-10961503D01*
X27659335Y-10987861D01*
X27659335Y-11558236D01*
X27659335Y-11689330D01*
X27659335Y-11689332D01*
X27659334Y-11689332D01*
X27684908Y-11817896D01*
X27684910Y-11817902D01*
X27735077Y-11939015D01*
X27807907Y-12048015D01*
X27988182Y-12228289D01*
X28021666Y-12289610D01*
X28024500Y-12315969D01*
X28024500Y-14290040D01*
X28004815Y-14357079D01*
X27976484Y-14387079D01*
X27976777Y-14387422D01*
X27973592Y-14390142D01*
X27973394Y-14390352D01*
X27973075Y-14390583D01*
X27973069Y-14390588D01*
X27850588Y-14513069D01*
X27850588Y-14513070D01*
X27850586Y-14513072D01*
X27827918Y-14544272D01*
X27748768Y-14653211D01*
X27670128Y-14807552D01*
X27616597Y-14972302D01*
X27589500Y-15143389D01*
X27589500Y-16528978D01*
X27583261Y-16550223D01*
X27581682Y-16572312D01*
X27573609Y-16583095D01*
X27569815Y-16596017D01*
X27553081Y-16610516D01*
X27539810Y-16628245D01*
X27527189Y-16632952D01*
X27517011Y-16641772D01*
X27495093Y-16644923D01*
X27474346Y-16652662D01*
X27461185Y-16649799D01*
X27447853Y-16651716D01*
X27427709Y-16642516D01*
X27406073Y-16637810D01*
X27388347Y-16624541D01*
X27384297Y-16622691D01*
X27377819Y-16616659D01*
X27286819Y-16525659D01*
X27253334Y-16464336D01*
X27250500Y-16437978D01*
X27250500Y-15143389D01*
X27223402Y-14972302D01*
X27223402Y-14972299D01*
X27169873Y-14807555D01*
X27091232Y-14653212D01*
X27091228Y-14653206D01*
X27089180Y-14650386D01*
X27088732Y-14649132D01*
X27088686Y-14649056D01*
X27088701Y-14649046D01*
X27065702Y-14584579D01*
X27065500Y-14577504D01*
X27065500Y-13309727D01*
X27039926Y-13181162D01*
X27039925Y-13181161D01*
X27039925Y-13181157D01*
X26992928Y-13067696D01*
X26989758Y-13060043D01*
X26981174Y-13047197D01*
X26978377Y-13042000D01*
X26972328Y-13013371D01*
X26963583Y-12985444D01*
X26964288Y-12975318D01*
X26963934Y-12973639D01*
X26964511Y-12972117D01*
X26965088Y-12963840D01*
X26970198Y-12931585D01*
X26970198Y-12758363D01*
X26943100Y-12587273D01*
X26889571Y-12422529D01*
X26810930Y-12268186D01*
X26709112Y-12128046D01*
X26586626Y-12005560D01*
X26446486Y-11903742D01*
X26292143Y-11825101D01*
X26127399Y-11771572D01*
X26127397Y-11771571D01*
X26127396Y-11771571D01*
X25985737Y-11749135D01*
X25956309Y-11744474D01*
X25783087Y-11744474D01*
X25739705Y-11751345D01*
X25611995Y-11771572D01*
X25576136Y-11783223D01*
X25506295Y-11785217D01*
X25446463Y-11749135D01*
X25419889Y-11703609D01*
X25415250Y-11689332D01*
X25407863Y-11666596D01*
X25329222Y-11512253D01*
X25227404Y-11372113D01*
X25104918Y-11249627D01*
X24964778Y-11147809D01*
X24810435Y-11069168D01*
X24645691Y-11015639D01*
X24645689Y-11015638D01*
X24645687Y-11015638D01*
X24484119Y-10990048D01*
X24420984Y-10960119D01*
X24384053Y-10900807D01*
X24385051Y-10830945D01*
X24423661Y-10772712D01*
X24465195Y-10749646D01*
X24590701Y-10708867D01*
X24745044Y-10630226D01*
X24885184Y-10528408D01*
X25007670Y-10405922D01*
X25007904Y-10405600D01*
X25008022Y-10405508D01*
X25010834Y-10402217D01*
X25011525Y-10402807D01*
X25063238Y-10362939D01*
X25108216Y-10354494D01*
X25337417Y-10354494D01*
X25423912Y-10337288D01*
X25465987Y-10328919D01*
X25587100Y-10278752D01*
X25696100Y-10205922D01*
X25882909Y-10019112D01*
X25899316Y-10010153D01*
X25912721Y-9997126D01*
X25929341Y-9993758D01*
X25944229Y-9985629D01*
X25962877Y-9986962D01*
X25981199Y-9983250D01*
X25997003Y-9989403D01*
G37*
%TD.AperFunction*%
%TA.AperFunction,NonConductor*%
G36*
X15069854Y-17250185D02*
G01*
X15103131Y-17281612D01*
X15150586Y-17346928D01*
X15150588Y-17346930D01*
X15273072Y-17469414D01*
X15314733Y-17499683D01*
X15357398Y-17555013D01*
X15363376Y-17624627D01*
X15330769Y-17686421D01*
X15314733Y-17700317D01*
X15273072Y-17730585D01*
X15150588Y-17853069D01*
X15150588Y-17853070D01*
X15150586Y-17853072D01*
X15118773Y-17896859D01*
X15103133Y-17918386D01*
X15047803Y-17961051D01*
X15002815Y-17969500D01*
X14437185Y-17969500D01*
X14370146Y-17949815D01*
X14336867Y-17918386D01*
X14289414Y-17853072D01*
X14166928Y-17730586D01*
X14125265Y-17700316D01*
X14082602Y-17644988D01*
X14076623Y-17575374D01*
X14109229Y-17513579D01*
X14125266Y-17499683D01*
X14166928Y-17469414D01*
X14289414Y-17346928D01*
X14336868Y-17281613D01*
X14392197Y-17238949D01*
X14437185Y-17230500D01*
X15002815Y-17230500D01*
X15069854Y-17250185D01*
G37*
%TD.AperFunction*%
%TA.AperFunction,NonConductor*%
G36*
X42618814Y-18550200D02*
G01*
X42632147Y-18548284D01*
X42652290Y-18557483D01*
X42673927Y-18562190D01*
X42691652Y-18575458D01*
X42695703Y-18577309D01*
X42702180Y-18583340D01*
X42793181Y-18674341D01*
X42826666Y-18735664D01*
X42829500Y-18762022D01*
X42829500Y-19563978D01*
X42809815Y-19631017D01*
X42757011Y-19676772D01*
X42687853Y-19686716D01*
X42624297Y-19657691D01*
X42617819Y-19651659D01*
X42526819Y-19560659D01*
X42493334Y-19499336D01*
X42490500Y-19472978D01*
X42490500Y-18671022D01*
X42496738Y-18649776D01*
X42498318Y-18627688D01*
X42506390Y-18616904D01*
X42510185Y-18603983D01*
X42526918Y-18589483D01*
X42540190Y-18571755D01*
X42552810Y-18567047D01*
X42562989Y-18558228D01*
X42584906Y-18555076D01*
X42605654Y-18547338D01*
X42618814Y-18550200D01*
G37*
%TD.AperFunction*%
%TA.AperFunction,NonConductor*%
G36*
X29995703Y-16037308D02*
G01*
X30002181Y-16043340D01*
X30093181Y-16134340D01*
X30126666Y-16195663D01*
X30129500Y-16222021D01*
X30129500Y-16716610D01*
X30155934Y-16883512D01*
X30156598Y-16887701D01*
X30210127Y-17052445D01*
X30288768Y-17206788D01*
X30390586Y-17346928D01*
X30390588Y-17346930D01*
X30513072Y-17469414D01*
X30554733Y-17499683D01*
X30597398Y-17555013D01*
X30603376Y-17624627D01*
X30570769Y-17686421D01*
X30554733Y-17700317D01*
X30513072Y-17730585D01*
X30390588Y-17853069D01*
X30390588Y-17853070D01*
X30390586Y-17853072D01*
X30358773Y-17896859D01*
X30288768Y-17993211D01*
X30210128Y-18147552D01*
X30156597Y-18312302D01*
X30147459Y-18370000D01*
X30129500Y-18483389D01*
X30129500Y-20056611D01*
X30156598Y-20227701D01*
X30210127Y-20392445D01*
X30288768Y-20546788D01*
X30390586Y-20686928D01*
X30513072Y-20809414D01*
X30653212Y-20911232D01*
X30807555Y-20989873D01*
X30972299Y-21043402D01*
X31143389Y-21070500D01*
X31143390Y-21070500D01*
X31316610Y-21070500D01*
X31316611Y-21070500D01*
X31487701Y-21043402D01*
X31652445Y-20989873D01*
X31806788Y-20911232D01*
X31946928Y-20809414D01*
X32069414Y-20686928D01*
X32171232Y-20546788D01*
X32249873Y-20392445D01*
X32303402Y-20227701D01*
X32330500Y-20056611D01*
X32330500Y-18762020D01*
X32339144Y-18732579D01*
X32345668Y-18702593D01*
X32349422Y-18697577D01*
X32350185Y-18694981D01*
X32366815Y-18674343D01*
X32457820Y-18583338D01*
X32519142Y-18549854D01*
X32588834Y-18554838D01*
X32644767Y-18596710D01*
X32669184Y-18662174D01*
X32669500Y-18671020D01*
X32669500Y-20056611D01*
X32696598Y-20227701D01*
X32750127Y-20392445D01*
X32828768Y-20546788D01*
X32930586Y-20686928D01*
X33053072Y-20809414D01*
X33193212Y-20911232D01*
X33347555Y-20989873D01*
X33512299Y-21043402D01*
X33683389Y-21070500D01*
X33683390Y-21070500D01*
X33856610Y-21070500D01*
X33856611Y-21070500D01*
X34027701Y-21043402D01*
X34192445Y-20989873D01*
X34346788Y-20911232D01*
X34486928Y-20809414D01*
X34609414Y-20686928D01*
X34711232Y-20546788D01*
X34789873Y-20392445D01*
X34843402Y-20227701D01*
X34870500Y-20056611D01*
X34870500Y-18762020D01*
X34879144Y-18732580D01*
X34885668Y-18702594D01*
X34889422Y-18697578D01*
X34890185Y-18694982D01*
X34906815Y-18674344D01*
X34997820Y-18583339D01*
X35059142Y-18549855D01*
X35128834Y-18554839D01*
X35184767Y-18596711D01*
X35209184Y-18662175D01*
X35209500Y-18671020D01*
X35209500Y-20056611D01*
X35236598Y-20227701D01*
X35290127Y-20392445D01*
X35368768Y-20546788D01*
X35470586Y-20686928D01*
X35593072Y-20809414D01*
X35733212Y-20911232D01*
X35887555Y-20989873D01*
X36052299Y-21043402D01*
X36223389Y-21070500D01*
X36223390Y-21070500D01*
X36396610Y-21070500D01*
X36396611Y-21070500D01*
X36567701Y-21043402D01*
X36732445Y-20989873D01*
X36886788Y-20911232D01*
X37026928Y-20809414D01*
X37149414Y-20686928D01*
X37251232Y-20546788D01*
X37329873Y-20392445D01*
X37383402Y-20227701D01*
X37410500Y-20056611D01*
X37410500Y-18762020D01*
X37419144Y-18732580D01*
X37425668Y-18702594D01*
X37429422Y-18697578D01*
X37430185Y-18694982D01*
X37446815Y-18674344D01*
X37537820Y-18583339D01*
X37599142Y-18549855D01*
X37668834Y-18554839D01*
X37724767Y-18596711D01*
X37749184Y-18662175D01*
X37749500Y-18671020D01*
X37749500Y-20056611D01*
X37776598Y-20227701D01*
X37830127Y-20392445D01*
X37908768Y-20546788D01*
X38010586Y-20686928D01*
X38133072Y-20809414D01*
X38273212Y-20911232D01*
X38427555Y-20989873D01*
X38592299Y-21043402D01*
X38763389Y-21070500D01*
X38763390Y-21070500D01*
X38936610Y-21070500D01*
X38936611Y-21070500D01*
X39107701Y-21043402D01*
X39272445Y-20989873D01*
X39426788Y-20911232D01*
X39566928Y-20809414D01*
X39689414Y-20686928D01*
X39791232Y-20546788D01*
X39869873Y-20392445D01*
X39923402Y-20227701D01*
X39950500Y-20056611D01*
X39950500Y-18762020D01*
X39959144Y-18732580D01*
X39965668Y-18702594D01*
X39969422Y-18697578D01*
X39970185Y-18694982D01*
X39986815Y-18674344D01*
X40077820Y-18583339D01*
X40139142Y-18549855D01*
X40208834Y-18554839D01*
X40264767Y-18596711D01*
X40289184Y-18662175D01*
X40289500Y-18671020D01*
X40289500Y-20056611D01*
X40316598Y-20227701D01*
X40370127Y-20392445D01*
X40448768Y-20546788D01*
X40550586Y-20686928D01*
X40673072Y-20809414D01*
X40813212Y-20911232D01*
X40967555Y-20989873D01*
X41132299Y-21043402D01*
X41303389Y-21070500D01*
X41303390Y-21070500D01*
X41476610Y-21070500D01*
X41476611Y-21070500D01*
X41647701Y-21043402D01*
X41812445Y-20989873D01*
X41905254Y-20942584D01*
X41973921Y-20929688D01*
X42038662Y-20955964D01*
X42049229Y-20965388D01*
X42836763Y-21752923D01*
X42836770Y-21752929D01*
X42945766Y-21825757D01*
X42945767Y-21825757D01*
X42945768Y-21825758D01*
X43066881Y-21875925D01*
X43066885Y-21875925D01*
X43066886Y-21875926D01*
X43195451Y-21901500D01*
X43195454Y-21901500D01*
X44519943Y-21901500D01*
X44623316Y-21880937D01*
X44648513Y-21875925D01*
X44769626Y-21825758D01*
X44878626Y-21752928D01*
X45291365Y-21340189D01*
X45717235Y-20914319D01*
X45719025Y-20916109D01*
X45767590Y-20882990D01*
X45837434Y-20881081D01*
X45878645Y-20900648D01*
X45893212Y-20911232D01*
X46047555Y-20989873D01*
X46212299Y-21043402D01*
X46383389Y-21070500D01*
X46383390Y-21070500D01*
X46556603Y-21070500D01*
X46556611Y-21070500D01*
X46560665Y-21069857D01*
X46629954Y-21078806D01*
X46683410Y-21123798D01*
X46704056Y-21190547D01*
X46701637Y-21212372D01*
X46702360Y-21212487D01*
X46701598Y-21217299D01*
X46674500Y-21388389D01*
X46674500Y-21561611D01*
X46682673Y-21613211D01*
X46697978Y-21709850D01*
X46701598Y-21732701D01*
X46755127Y-21897445D01*
X46833768Y-22051788D01*
X46935586Y-22191928D01*
X47058072Y-22314414D01*
X47198212Y-22416232D01*
X47352555Y-22494873D01*
X47497169Y-22541861D01*
X47499439Y-22543413D01*
X47502184Y-22543610D01*
X47528115Y-22563021D01*
X47554845Y-22581299D01*
X47555915Y-22583832D01*
X47558118Y-22585481D01*
X47569435Y-22615824D01*
X47582043Y-22645657D01*
X47581573Y-22648367D01*
X47582535Y-22650945D01*
X47575651Y-22682585D01*
X47570128Y-22714504D01*
X47568088Y-22717353D01*
X47567683Y-22719218D01*
X47546533Y-22747473D01*
X47445477Y-22848528D01*
X47384157Y-22882012D01*
X47357798Y-22884846D01*
X28536546Y-22884846D01*
X28469507Y-22865161D01*
X28423752Y-22812357D01*
X28413808Y-22743199D01*
X28426061Y-22704551D01*
X28444500Y-22668362D01*
X28472991Y-22612445D01*
X28526520Y-22447701D01*
X28553618Y-22276611D01*
X28553618Y-22103389D01*
X28526520Y-21932299D01*
X28472991Y-21767555D01*
X28394350Y-21613212D01*
X28292532Y-21473072D01*
X28170046Y-21350586D01*
X28132613Y-21323389D01*
X28129272Y-21319057D01*
X28124297Y-21316785D01*
X28108167Y-21291687D01*
X28089948Y-21268059D01*
X28088695Y-21261386D01*
X28086523Y-21258007D01*
X28081500Y-21223072D01*
X28081500Y-21097423D01*
X28101185Y-21030384D01*
X28153989Y-20984629D01*
X28223147Y-20974685D01*
X28261796Y-20986938D01*
X28267555Y-20989873D01*
X28432299Y-21043402D01*
X28603389Y-21070500D01*
X28603390Y-21070500D01*
X28776610Y-21070500D01*
X28776611Y-21070500D01*
X28947701Y-21043402D01*
X29112445Y-20989873D01*
X29266788Y-20911232D01*
X29406928Y-20809414D01*
X29529414Y-20686928D01*
X29631232Y-20546788D01*
X29709873Y-20392445D01*
X29763402Y-20227701D01*
X29790500Y-20056611D01*
X29790500Y-18483389D01*
X29763402Y-18312299D01*
X29709873Y-18147555D01*
X29631232Y-17993212D01*
X29631229Y-17993208D01*
X29631229Y-17993207D01*
X29614182Y-17969745D01*
X29590702Y-17903939D01*
X29590500Y-17896859D01*
X29590500Y-17303140D01*
X29610185Y-17236101D01*
X29614164Y-17230279D01*
X29631232Y-17206788D01*
X29709873Y-17052445D01*
X29763402Y-16887701D01*
X29790500Y-16716611D01*
X29790500Y-16131021D01*
X29810185Y-16063982D01*
X29862989Y-16018227D01*
X29932147Y-16008283D01*
X29995703Y-16037308D01*
G37*
%TD.AperFunction*%
M02*
