%TF.GenerationSoftware,KiCad,Pcbnew,9.0.7*%
%TF.CreationDate,2026-05-06T21:22:43+02:00*%
%TF.ProjectId,BarePi_TweetyBoy,42617265-5069-45f5-9477-65657479426f,rev?*%
%TF.SameCoordinates,Original*%
%TF.FileFunction,Copper,L1,Top*%
%TF.FilePolarity,Positive*%
%FSLAX46Y46*%
G04 Gerber Fmt 4.6, Leading zero omitted, Abs format (unit mm)*
G04 Created by KiCad (PCBNEW 9.0.7) date 2026-05-06 21:22:43*
%MOMM*%
%LPD*%
G01*
G04 APERTURE LIST*
G04 Aperture macros list*
%AMOutline4P*
0 Free polygon, 4 corners , with rotation*
0 The origin of the aperture is its center*
0 number of corners: always 4*
0 $1 to $8 corner X, Y*
0 $9 Rotation angle, in degrees counterclockwise*
0 create outline with 4 corners*
4,1,4,$1,$2,$3,$4,$5,$6,$7,$8,$1,$2,$9*%
G04 Aperture macros list end*
%ADD10C,0.375000*%
%ADD11C,0.200000*%
%TA.AperFunction,NonConductor*%
%ADD12C,0.200000*%
%TD*%
%ADD13C,0.500000*%
%TA.AperFunction,ComponentPad*%
%ADD14Outline4P,-1.600000X-0.800000X1.600000X-0.800000X1.600000X0.800000X-1.600000X0.800000X90.000000*%
%TD*%
%TA.AperFunction,ComponentPad*%
%ADD15O,1.600000X3.200000*%
%TD*%
%TA.AperFunction,ComponentPad*%
%ADD16Outline4P,-1.500000X-0.800000X1.500000X-0.800000X1.500000X0.800000X-1.500000X0.800000X270.000000*%
%TD*%
%TA.AperFunction,ComponentPad*%
%ADD17O,1.600000X3.000000*%
%TD*%
%TA.AperFunction,ViaPad*%
%ADD18C,1.200000*%
%TD*%
%TA.AperFunction,Conductor*%
%ADD19C,0.330000*%
%TD*%
G04 APERTURE END LIST*
D10*
G36*
X3545000Y-14909163D02*
G01*
X2290568Y-14909163D01*
X2290568Y-15354937D01*
X2038510Y-15354937D01*
X2038510Y-14161139D01*
X2290568Y-14161139D01*
X2290568Y-14605905D01*
X3545000Y-14605905D01*
X3545000Y-14909163D01*
G37*
G36*
X2944752Y-12616504D02*
G01*
X3073355Y-12641883D01*
X3185302Y-12682155D01*
X3282954Y-12736590D01*
X3368137Y-12805316D01*
X3441222Y-12888203D01*
X3498126Y-12980889D01*
X3539562Y-13084755D01*
X3565328Y-13201705D01*
X3574309Y-13334071D01*
X3565320Y-13468311D01*
X3539578Y-13586528D01*
X3498267Y-13691131D01*
X3441667Y-13784093D01*
X3369145Y-13866857D01*
X3284265Y-13935745D01*
X3187311Y-13990202D01*
X3076529Y-14030413D01*
X2949639Y-14055710D01*
X2803936Y-14064602D01*
X2651294Y-14056132D01*
X2523686Y-14032528D01*
X2417239Y-13995908D01*
X2308072Y-13935450D01*
X2210518Y-13856140D01*
X2153755Y-13793950D01*
X2108799Y-13729324D01*
X2074688Y-13661876D01*
X2042349Y-13566570D01*
X2022125Y-13459274D01*
X2015062Y-13338101D01*
X2015267Y-13335079D01*
X2272983Y-13335079D01*
X2281529Y-13426544D01*
X2306083Y-13505954D01*
X2346135Y-13575675D01*
X2402676Y-13637329D01*
X2469847Y-13684371D01*
X2554645Y-13720182D01*
X2660987Y-13743569D01*
X2793678Y-13752093D01*
X2923665Y-13743482D01*
X3029232Y-13719696D01*
X3114726Y-13682971D01*
X3183673Y-13634307D01*
X3242089Y-13570925D01*
X3283023Y-13500980D01*
X3307835Y-13423064D01*
X3316388Y-13335079D01*
X3307866Y-13247025D01*
X3283189Y-13169372D01*
X3242560Y-13099979D01*
X3184680Y-13037408D01*
X3116417Y-12989662D01*
X3030543Y-12953369D01*
X2923175Y-12929702D01*
X2789556Y-12921087D01*
X2657249Y-12929524D01*
X2551503Y-12952640D01*
X2467451Y-12987971D01*
X2401119Y-13034294D01*
X2345380Y-13095106D01*
X2305799Y-13164271D01*
X2281470Y-13243454D01*
X2272983Y-13335079D01*
X2015267Y-13335079D01*
X2024057Y-13205398D01*
X2049873Y-13088016D01*
X2091412Y-12983642D01*
X2148476Y-12890385D01*
X2221783Y-12806873D01*
X2307178Y-12737647D01*
X2405240Y-12682794D01*
X2517834Y-12642191D01*
X2647370Y-12616588D01*
X2796700Y-12607571D01*
X2944752Y-12616504D01*
G37*
G36*
X2593144Y-11225982D02*
G01*
X2670084Y-11243124D01*
X2734968Y-11270067D01*
X2794708Y-11307456D01*
X2843806Y-11349935D01*
X2883437Y-11397653D01*
X2928875Y-11477078D01*
X2954787Y-11555006D01*
X2970119Y-11675802D01*
X2976402Y-11869622D01*
X2976402Y-12067367D01*
X3545000Y-12067367D01*
X3545000Y-12370625D01*
X2038510Y-12370625D01*
X2038510Y-11920821D01*
X2290568Y-11920821D01*
X2290568Y-12067367D01*
X2724344Y-12067367D01*
X2724344Y-11901404D01*
X2716703Y-11736871D01*
X2700347Y-11661618D01*
X2669333Y-11607364D01*
X2625334Y-11566822D01*
X2570771Y-11541269D01*
X2506448Y-11532475D01*
X2452655Y-11538141D01*
X2407374Y-11554295D01*
X2368787Y-11580652D01*
X2337198Y-11615552D01*
X2314738Y-11655830D01*
X2301010Y-11702560D01*
X2293908Y-11770445D01*
X2290568Y-11920821D01*
X2038510Y-11920821D01*
X2038510Y-11883910D01*
X2045872Y-11630935D01*
X2061133Y-11523224D01*
X2092271Y-11442388D01*
X2140826Y-11370775D01*
X2208594Y-11306978D01*
X2288465Y-11259949D01*
X2384830Y-11230403D01*
X2501777Y-11219875D01*
X2593144Y-11225982D01*
G37*
D11*
D12*
X59316666Y-746400D02*
X59202380Y-708304D01*
X59202380Y-708304D02*
X59011904Y-708304D01*
X59011904Y-708304D02*
X58935713Y-746400D01*
X58935713Y-746400D02*
X58897618Y-784495D01*
X58897618Y-784495D02*
X58859523Y-860685D01*
X58859523Y-860685D02*
X58859523Y-936876D01*
X58859523Y-936876D02*
X58897618Y-1013066D01*
X58897618Y-1013066D02*
X58935713Y-1051161D01*
X58935713Y-1051161D02*
X59011904Y-1089257D01*
X59011904Y-1089257D02*
X59164285Y-1127352D01*
X59164285Y-1127352D02*
X59240475Y-1165447D01*
X59240475Y-1165447D02*
X59278570Y-1203542D01*
X59278570Y-1203542D02*
X59316666Y-1279733D01*
X59316666Y-1279733D02*
X59316666Y-1355923D01*
X59316666Y-1355923D02*
X59278570Y-1432114D01*
X59278570Y-1432114D02*
X59240475Y-1470209D01*
X59240475Y-1470209D02*
X59164285Y-1508304D01*
X59164285Y-1508304D02*
X58973808Y-1508304D01*
X58973808Y-1508304D02*
X58859523Y-1470209D01*
X58592856Y-1508304D02*
X58402380Y-708304D01*
X58402380Y-708304D02*
X58249999Y-1279733D01*
X58249999Y-1279733D02*
X58097618Y-708304D01*
X58097618Y-708304D02*
X57907142Y-1508304D01*
X57145236Y-784495D02*
X57183332Y-746400D01*
X57183332Y-746400D02*
X57297617Y-708304D01*
X57297617Y-708304D02*
X57373808Y-708304D01*
X57373808Y-708304D02*
X57488094Y-746400D01*
X57488094Y-746400D02*
X57564284Y-822590D01*
X57564284Y-822590D02*
X57602379Y-898780D01*
X57602379Y-898780D02*
X57640475Y-1051161D01*
X57640475Y-1051161D02*
X57640475Y-1165447D01*
X57640475Y-1165447D02*
X57602379Y-1317828D01*
X57602379Y-1317828D02*
X57564284Y-1394019D01*
X57564284Y-1394019D02*
X57488094Y-1470209D01*
X57488094Y-1470209D02*
X57373808Y-1508304D01*
X57373808Y-1508304D02*
X57297617Y-1508304D01*
X57297617Y-1508304D02*
X57183332Y-1470209D01*
X57183332Y-1470209D02*
X57145236Y-1432114D01*
X56421427Y-708304D02*
X56802379Y-708304D01*
X56802379Y-708304D02*
X56802379Y-1508304D01*
X56154760Y-708304D02*
X56154760Y-1508304D01*
X55697617Y-708304D02*
X56040475Y-1165447D01*
X55697617Y-1508304D02*
X56154760Y-1051161D01*
X55354760Y-1013066D02*
X54745237Y-1013066D01*
X54402380Y-746400D02*
X54288094Y-708304D01*
X54288094Y-708304D02*
X54097618Y-708304D01*
X54097618Y-708304D02*
X54021427Y-746400D01*
X54021427Y-746400D02*
X53983332Y-784495D01*
X53983332Y-784495D02*
X53945237Y-860685D01*
X53945237Y-860685D02*
X53945237Y-936876D01*
X53945237Y-936876D02*
X53983332Y-1013066D01*
X53983332Y-1013066D02*
X54021427Y-1051161D01*
X54021427Y-1051161D02*
X54097618Y-1089257D01*
X54097618Y-1089257D02*
X54249999Y-1127352D01*
X54249999Y-1127352D02*
X54326189Y-1165447D01*
X54326189Y-1165447D02*
X54364284Y-1203542D01*
X54364284Y-1203542D02*
X54402380Y-1279733D01*
X54402380Y-1279733D02*
X54402380Y-1355923D01*
X54402380Y-1355923D02*
X54364284Y-1432114D01*
X54364284Y-1432114D02*
X54326189Y-1470209D01*
X54326189Y-1470209D02*
X54249999Y-1508304D01*
X54249999Y-1508304D02*
X54059522Y-1508304D01*
X54059522Y-1508304D02*
X53945237Y-1470209D01*
X53678570Y-1508304D02*
X53488094Y-708304D01*
X53488094Y-708304D02*
X53335713Y-1279733D01*
X53335713Y-1279733D02*
X53183332Y-708304D01*
X53183332Y-708304D02*
X52992856Y-1508304D01*
X52688093Y-708304D02*
X52688093Y-1508304D01*
X52688093Y-1508304D02*
X52497617Y-1508304D01*
X52497617Y-1508304D02*
X52383331Y-1470209D01*
X52383331Y-1470209D02*
X52307141Y-1394019D01*
X52307141Y-1394019D02*
X52269046Y-1317828D01*
X52269046Y-1317828D02*
X52230950Y-1165447D01*
X52230950Y-1165447D02*
X52230950Y-1051161D01*
X52230950Y-1051161D02*
X52269046Y-898780D01*
X52269046Y-898780D02*
X52307141Y-822590D01*
X52307141Y-822590D02*
X52383331Y-746400D01*
X52383331Y-746400D02*
X52497617Y-708304D01*
X52497617Y-708304D02*
X52688093Y-708304D01*
X51888093Y-708304D02*
X51888093Y-1508304D01*
X51354760Y-1508304D02*
X51202379Y-1508304D01*
X51202379Y-1508304D02*
X51126189Y-1470209D01*
X51126189Y-1470209D02*
X51049998Y-1394019D01*
X51049998Y-1394019D02*
X51011903Y-1241638D01*
X51011903Y-1241638D02*
X51011903Y-974971D01*
X51011903Y-974971D02*
X51049998Y-822590D01*
X51049998Y-822590D02*
X51126189Y-746400D01*
X51126189Y-746400D02*
X51202379Y-708304D01*
X51202379Y-708304D02*
X51354760Y-708304D01*
X51354760Y-708304D02*
X51430951Y-746400D01*
X51430951Y-746400D02*
X51507141Y-822590D01*
X51507141Y-822590D02*
X51545237Y-974971D01*
X51545237Y-974971D02*
X51545237Y-1241638D01*
X51545237Y-1241638D02*
X51507141Y-1394019D01*
X51507141Y-1394019D02*
X51430951Y-1470209D01*
X51430951Y-1470209D02*
X51354760Y-1508304D01*
X50669046Y-1013066D02*
X50059523Y-1013066D01*
X49259523Y-1470209D02*
X49335713Y-1508304D01*
X49335713Y-1508304D02*
X49449999Y-1508304D01*
X49449999Y-1508304D02*
X49564285Y-1470209D01*
X49564285Y-1470209D02*
X49640475Y-1394019D01*
X49640475Y-1394019D02*
X49678570Y-1317828D01*
X49678570Y-1317828D02*
X49716666Y-1165447D01*
X49716666Y-1165447D02*
X49716666Y-1051161D01*
X49716666Y-1051161D02*
X49678570Y-898780D01*
X49678570Y-898780D02*
X49640475Y-822590D01*
X49640475Y-822590D02*
X49564285Y-746400D01*
X49564285Y-746400D02*
X49449999Y-708304D01*
X49449999Y-708304D02*
X49373808Y-708304D01*
X49373808Y-708304D02*
X49259523Y-746400D01*
X49259523Y-746400D02*
X49221427Y-784495D01*
X49221427Y-784495D02*
X49221427Y-1051161D01*
X49221427Y-1051161D02*
X49373808Y-1051161D01*
X48878570Y-708304D02*
X48878570Y-1508304D01*
X48878570Y-1508304D02*
X48421427Y-708304D01*
X48421427Y-708304D02*
X48421427Y-1508304D01*
X48040475Y-708304D02*
X48040475Y-1508304D01*
X48040475Y-1508304D02*
X47849999Y-1508304D01*
X47849999Y-1508304D02*
X47735713Y-1470209D01*
X47735713Y-1470209D02*
X47659523Y-1394019D01*
X47659523Y-1394019D02*
X47621428Y-1317828D01*
X47621428Y-1317828D02*
X47583332Y-1165447D01*
X47583332Y-1165447D02*
X47583332Y-1051161D01*
X47583332Y-1051161D02*
X47621428Y-898780D01*
X47621428Y-898780D02*
X47659523Y-822590D01*
X47659523Y-822590D02*
X47735713Y-746400D01*
X47735713Y-746400D02*
X47849999Y-708304D01*
X47849999Y-708304D02*
X48040475Y-708304D01*
X47240475Y-1013066D02*
X46630952Y-1013066D01*
X46326190Y-1508304D02*
X45830952Y-1508304D01*
X45830952Y-1508304D02*
X46097618Y-1203542D01*
X46097618Y-1203542D02*
X45983333Y-1203542D01*
X45983333Y-1203542D02*
X45907142Y-1165447D01*
X45907142Y-1165447D02*
X45869047Y-1127352D01*
X45869047Y-1127352D02*
X45830952Y-1051161D01*
X45830952Y-1051161D02*
X45830952Y-860685D01*
X45830952Y-860685D02*
X45869047Y-784495D01*
X45869047Y-784495D02*
X45907142Y-746400D01*
X45907142Y-746400D02*
X45983333Y-708304D01*
X45983333Y-708304D02*
X46211904Y-708304D01*
X46211904Y-708304D02*
X46288095Y-746400D01*
X46288095Y-746400D02*
X46326190Y-784495D01*
X45602380Y-1508304D02*
X45335713Y-708304D01*
X45335713Y-708304D02*
X45069047Y-1508304D01*
X44878571Y-1508304D02*
X44383333Y-1508304D01*
X44383333Y-1508304D02*
X44649999Y-1203542D01*
X44649999Y-1203542D02*
X44535714Y-1203542D01*
X44535714Y-1203542D02*
X44459523Y-1165447D01*
X44459523Y-1165447D02*
X44421428Y-1127352D01*
X44421428Y-1127352D02*
X44383333Y-1051161D01*
X44383333Y-1051161D02*
X44383333Y-860685D01*
X44383333Y-860685D02*
X44421428Y-784495D01*
X44421428Y-784495D02*
X44459523Y-746400D01*
X44459523Y-746400D02*
X44535714Y-708304D01*
X44535714Y-708304D02*
X44764285Y-708304D01*
X44764285Y-708304D02*
X44840476Y-746400D01*
X44840476Y-746400D02*
X44878571Y-784495D01*
D13*
G36*
X21627362Y-24657218D02*
G01*
X21759299Y-24671252D01*
X21870762Y-24702145D01*
X21968371Y-24754050D01*
X22052081Y-24826546D01*
X22121999Y-24921723D01*
X22155953Y-24993657D01*
X22176519Y-25071431D01*
X22183549Y-25156441D01*
X22175052Y-25248252D01*
X22149903Y-25333992D01*
X22107711Y-25415216D01*
X22051152Y-25487162D01*
X21983044Y-25545713D01*
X21902059Y-25591803D01*
X22017885Y-25637488D01*
X22110457Y-25698303D01*
X22183426Y-25774253D01*
X22237756Y-25864405D01*
X22270570Y-25964491D01*
X22281856Y-26077236D01*
X22274891Y-26167247D01*
X22253919Y-26255833D01*
X22218353Y-26343949D01*
X22170127Y-26425571D01*
X22112428Y-26494165D01*
X22044819Y-26551067D01*
X21968224Y-26594947D01*
X21878598Y-26626960D01*
X21773587Y-26646322D01*
X21637874Y-26654103D01*
X21285834Y-26660000D01*
X20604152Y-26660000D01*
X20604152Y-26323921D01*
X21008618Y-26323921D01*
X21382921Y-26323921D01*
X21582001Y-26319813D01*
X21660258Y-26311587D01*
X21742673Y-26282803D01*
X21807048Y-26231109D01*
X21837729Y-26185407D01*
X21856957Y-26129238D01*
X21863835Y-26059773D01*
X21852443Y-25974299D01*
X21820115Y-25905778D01*
X21767679Y-25851786D01*
X21693720Y-25813576D01*
X21587240Y-25794071D01*
X21335171Y-25784633D01*
X21008618Y-25784633D01*
X21008618Y-26323921D01*
X20604152Y-26323921D01*
X20604152Y-25448555D01*
X21008618Y-25448555D01*
X21273622Y-25448555D01*
X21567446Y-25441716D01*
X21662445Y-25416758D01*
X21730600Y-25370397D01*
X21763152Y-25327637D01*
X21783062Y-25276499D01*
X21790073Y-25214570D01*
X21776651Y-25129063D01*
X21738782Y-25064361D01*
X21701046Y-25032072D01*
X21651324Y-25008462D01*
X21586497Y-24994263D01*
X21240893Y-24987424D01*
X21008618Y-24987424D01*
X21008618Y-25448555D01*
X20604152Y-25448555D01*
X20604152Y-24651346D01*
X21404780Y-24651346D01*
X21627362Y-24657218D01*
G37*
G36*
X23359456Y-25175561D02*
G01*
X23483301Y-25197331D01*
X23569871Y-25228370D01*
X23648734Y-25275203D01*
X23706532Y-25326933D01*
X23746825Y-25383709D01*
X23771839Y-25449952D01*
X23790555Y-25559464D01*
X23798116Y-25729434D01*
X23794086Y-26180307D01*
X23799565Y-26360026D01*
X23812526Y-26464117D01*
X23838026Y-26556053D01*
X23881525Y-26660000D01*
X23501727Y-26660000D01*
X23464847Y-26548136D01*
X23451169Y-26503684D01*
X23347784Y-26590299D01*
X23240754Y-26650230D01*
X23125560Y-26686748D01*
X23001640Y-26699078D01*
X22890129Y-26690589D01*
X22796000Y-26666648D01*
X22716224Y-26628670D01*
X22648465Y-26576835D01*
X22591953Y-26511621D01*
X22552071Y-26439438D01*
X22527776Y-26358837D01*
X22519383Y-26267745D01*
X22522835Y-26226468D01*
X22903210Y-26226468D01*
X22909878Y-26278043D01*
X22929585Y-26324216D01*
X22963294Y-26366542D01*
X23006464Y-26399014D01*
X23056774Y-26418673D01*
X23116312Y-26425526D01*
X23183392Y-26418140D01*
X23248978Y-26395726D01*
X23314393Y-26356894D01*
X23372748Y-26298089D01*
X23405984Y-26229277D01*
X23416270Y-26168754D01*
X23421005Y-26041210D01*
X23421005Y-25964396D01*
X23187387Y-26023381D01*
X23042198Y-26061684D01*
X22978315Y-26090669D01*
X22935631Y-26130751D01*
X22911364Y-26175358D01*
X22903210Y-26226468D01*
X22522835Y-26226468D01*
X22526135Y-26187018D01*
X22545796Y-26114025D01*
X22578123Y-26047316D01*
X22622354Y-25987986D01*
X22676833Y-25938799D01*
X22742743Y-25899061D01*
X22861273Y-25854009D01*
X23048046Y-25809057D01*
X23295765Y-25754803D01*
X23421005Y-25714291D01*
X23421005Y-25674968D01*
X23413831Y-25601107D01*
X23394900Y-25548902D01*
X23366295Y-25512669D01*
X23326265Y-25488542D01*
X23261028Y-25471146D01*
X23160032Y-25464187D01*
X23065013Y-25475625D01*
X23000175Y-25505830D01*
X22951078Y-25558843D01*
X22907362Y-25651765D01*
X22558950Y-25589239D01*
X22610093Y-25452986D01*
X22677616Y-25348690D01*
X22761061Y-25270624D01*
X22833882Y-25228768D01*
X22926252Y-25196367D01*
X23042426Y-25175003D01*
X23187387Y-25167187D01*
X23359456Y-25175561D01*
G37*
G36*
X24543301Y-26660000D02*
G01*
X24159351Y-26660000D01*
X24159351Y-25206266D01*
X24515946Y-25206266D01*
X24515946Y-25412529D01*
X24610151Y-25282019D01*
X24680565Y-25216769D01*
X24758124Y-25179735D01*
X24846528Y-25167187D01*
X24932065Y-25175062D01*
X25015914Y-25198835D01*
X25099320Y-25239483D01*
X24980496Y-25573852D01*
X24883117Y-25525476D01*
X24800122Y-25511081D01*
X24724654Y-25522618D01*
X24663468Y-25555900D01*
X24616623Y-25613087D01*
X24575419Y-25717711D01*
X24553686Y-25866422D01*
X24543301Y-26208150D01*
X24543301Y-26660000D01*
G37*
G36*
X25976045Y-25181650D02*
G01*
X26111312Y-25222852D01*
X26227706Y-25289424D01*
X26328350Y-25382609D01*
X26390504Y-25469429D01*
X26440790Y-25575098D01*
X26478372Y-25703009D01*
X26501453Y-25857266D01*
X26507380Y-26042554D01*
X25545551Y-26042554D01*
X25558874Y-26152666D01*
X25590413Y-26239278D01*
X25638486Y-26307435D01*
X25702715Y-26360127D01*
X25775519Y-26391355D01*
X25859770Y-26402079D01*
X25944212Y-26389601D01*
X26011445Y-26353963D01*
X26063278Y-26294702D01*
X26104379Y-26198869D01*
X26486863Y-26261395D01*
X26426203Y-26396163D01*
X26348621Y-26503406D01*
X26253856Y-26587215D01*
X26142770Y-26647786D01*
X26011580Y-26685673D01*
X25855618Y-26699078D01*
X25703847Y-26687823D01*
X25575499Y-26656079D01*
X25466573Y-26605773D01*
X25373942Y-26537267D01*
X25295569Y-26449340D01*
X25234664Y-26346615D01*
X25189935Y-26229835D01*
X25161906Y-26096626D01*
X25152076Y-25944124D01*
X25161979Y-25808080D01*
X25552390Y-25808080D01*
X26126239Y-25808080D01*
X26113498Y-25698662D01*
X26084078Y-25615190D01*
X26040143Y-25551870D01*
X25980942Y-25502770D01*
X25915274Y-25473980D01*
X25840719Y-25464187D01*
X25761012Y-25474673D01*
X25692730Y-25505175D01*
X25632990Y-25556755D01*
X25589015Y-25622846D01*
X25561627Y-25705126D01*
X25552390Y-25808080D01*
X25161979Y-25808080D01*
X25165326Y-25762094D01*
X25202529Y-25609532D01*
X25261177Y-25481356D01*
X25340632Y-25373572D01*
X25441669Y-25282894D01*
X25553153Y-25219194D01*
X25677309Y-25180523D01*
X25817394Y-25167187D01*
X25976045Y-25181650D01*
G37*
G36*
X27808462Y-24661162D02*
G01*
X27952076Y-24681510D01*
X28059857Y-24723028D01*
X28155342Y-24787768D01*
X28240405Y-24878126D01*
X28303110Y-24984620D01*
X28342505Y-25113107D01*
X28356542Y-25269036D01*
X28348400Y-25390859D01*
X28325543Y-25493445D01*
X28289620Y-25579958D01*
X28239767Y-25659611D01*
X28183129Y-25725075D01*
X28119505Y-25777916D01*
X28013605Y-25838500D01*
X27909700Y-25873049D01*
X27748640Y-25893492D01*
X27490213Y-25901870D01*
X27226553Y-25901870D01*
X27226553Y-26660000D01*
X26822209Y-26660000D01*
X26822209Y-25565792D01*
X27226553Y-25565792D01*
X27447837Y-25565792D01*
X27667215Y-25555604D01*
X27767551Y-25533796D01*
X27839890Y-25492444D01*
X27893946Y-25433778D01*
X27928017Y-25361028D01*
X27939742Y-25275265D01*
X27932187Y-25203540D01*
X27910649Y-25143165D01*
X27875506Y-25091716D01*
X27828972Y-25049598D01*
X27775269Y-25019651D01*
X27712962Y-25001346D01*
X27622448Y-24991877D01*
X27421947Y-24987424D01*
X27226553Y-24987424D01*
X27226553Y-25565792D01*
X26822209Y-25565792D01*
X26822209Y-24651346D01*
X27471162Y-24651346D01*
X27808462Y-24661162D01*
G37*
G36*
X28685537Y-25003056D02*
G01*
X28685537Y-24651346D01*
X29069365Y-24651346D01*
X29069365Y-25003056D01*
X28685537Y-25003056D01*
G37*
G36*
X28685537Y-26660000D02*
G01*
X28685537Y-25206266D01*
X29069365Y-25206266D01*
X29069365Y-26660000D01*
X28685537Y-26660000D01*
G37*
G36*
X30694435Y-26660000D02*
G01*
X30694435Y-24987424D01*
X30100070Y-24987424D01*
X30100070Y-24651346D01*
X31691801Y-24651346D01*
X31691801Y-24987424D01*
X31098779Y-24987424D01*
X31098779Y-26660000D01*
X30694435Y-26660000D01*
G37*
G36*
X32012003Y-26660000D02*
G01*
X31552948Y-25206266D01*
X31925907Y-25206266D01*
X32197750Y-26158935D01*
X32447854Y-25206266D01*
X32818004Y-25206266D01*
X33059927Y-26158935D01*
X33337265Y-25206266D01*
X33715719Y-25206266D01*
X33249826Y-26660000D01*
X32880897Y-26660000D01*
X32630914Y-25725038D01*
X32384962Y-26660000D01*
X32012003Y-26660000D01*
G37*
G36*
X34630058Y-25181650D02*
G01*
X34765324Y-25222852D01*
X34881718Y-25289424D01*
X34982362Y-25382609D01*
X35044517Y-25469429D01*
X35094803Y-25575098D01*
X35132385Y-25703009D01*
X35155466Y-25857266D01*
X35161392Y-26042554D01*
X34199564Y-26042554D01*
X34212886Y-26152666D01*
X34244425Y-26239278D01*
X34292498Y-26307435D01*
X34356727Y-26360127D01*
X34429532Y-26391355D01*
X34513782Y-26402079D01*
X34598224Y-26389601D01*
X34665457Y-26353963D01*
X34717291Y-26294702D01*
X34758392Y-26198869D01*
X35140876Y-26261395D01*
X35080216Y-26396163D01*
X35002634Y-26503406D01*
X34907868Y-26587215D01*
X34796782Y-26647786D01*
X34665593Y-26685673D01*
X34509630Y-26699078D01*
X34357859Y-26687823D01*
X34229511Y-26656079D01*
X34120585Y-26605773D01*
X34027955Y-26537267D01*
X33949581Y-26449340D01*
X33888677Y-26346615D01*
X33843948Y-26229835D01*
X33815919Y-26096626D01*
X33806089Y-25944124D01*
X33815992Y-25808080D01*
X34206403Y-25808080D01*
X34780251Y-25808080D01*
X34767510Y-25698662D01*
X34738091Y-25615190D01*
X34694156Y-25551870D01*
X34634955Y-25502770D01*
X34569286Y-25473980D01*
X34494731Y-25464187D01*
X34415025Y-25474673D01*
X34346743Y-25505175D01*
X34287003Y-25556755D01*
X34243028Y-25622846D01*
X34215640Y-25705126D01*
X34206403Y-25808080D01*
X33815992Y-25808080D01*
X33819339Y-25762094D01*
X33856542Y-25609532D01*
X33915189Y-25481356D01*
X33994644Y-25373572D01*
X34095681Y-25282894D01*
X34207166Y-25219194D01*
X34331321Y-25180523D01*
X34471406Y-25167187D01*
X34630058Y-25181650D01*
G37*
G36*
X36185396Y-25181650D02*
G01*
X36320663Y-25222852D01*
X36437057Y-25289424D01*
X36537701Y-25382609D01*
X36599855Y-25469429D01*
X36650142Y-25575098D01*
X36687723Y-25703009D01*
X36710804Y-25857266D01*
X36716731Y-26042554D01*
X35754902Y-26042554D01*
X35768225Y-26152666D01*
X35799764Y-26239278D01*
X35847837Y-26307435D01*
X35912066Y-26360127D01*
X35984870Y-26391355D01*
X36069121Y-26402079D01*
X36153563Y-26389601D01*
X36220796Y-26353963D01*
X36272629Y-26294702D01*
X36313730Y-26198869D01*
X36696214Y-26261395D01*
X36635554Y-26396163D01*
X36557972Y-26503406D01*
X36463207Y-26587215D01*
X36352121Y-26647786D01*
X36220931Y-26685673D01*
X36064969Y-26699078D01*
X35913198Y-26687823D01*
X35784850Y-26656079D01*
X35675924Y-26605773D01*
X35583293Y-26537267D01*
X35504920Y-26449340D01*
X35444015Y-26346615D01*
X35399286Y-26229835D01*
X35371257Y-26096626D01*
X35361427Y-25944124D01*
X35371330Y-25808080D01*
X35761741Y-25808080D01*
X36335590Y-25808080D01*
X36322849Y-25698662D01*
X36293429Y-25615190D01*
X36249494Y-25551870D01*
X36190293Y-25502770D01*
X36124625Y-25473980D01*
X36050070Y-25464187D01*
X35970363Y-25474673D01*
X35902081Y-25505175D01*
X35842341Y-25556755D01*
X35798366Y-25622846D01*
X35770978Y-25705126D01*
X35761741Y-25808080D01*
X35371330Y-25808080D01*
X35374677Y-25762094D01*
X35411880Y-25609532D01*
X35470528Y-25481356D01*
X35549983Y-25373572D01*
X35651020Y-25282894D01*
X35762504Y-25219194D01*
X35886660Y-25180523D01*
X36026745Y-25167187D01*
X36185396Y-25181650D01*
G37*
G36*
X37694191Y-25206266D02*
G01*
X37694191Y-25511081D01*
X37431874Y-25511081D01*
X37431874Y-26101416D01*
X37439323Y-26310366D01*
X37451504Y-26337226D01*
X37473517Y-26359337D01*
X37502440Y-26373618D01*
X37538486Y-26378632D01*
X37596713Y-26371027D01*
X37692847Y-26341751D01*
X37725576Y-26641315D01*
X37634658Y-26672801D01*
X37534053Y-26692315D01*
X37422226Y-26699078D01*
X37321935Y-26689985D01*
X37235014Y-26663907D01*
X37160592Y-26621908D01*
X37112771Y-26572927D01*
X37081121Y-26510713D01*
X37058915Y-26422107D01*
X37050532Y-26337512D01*
X37046581Y-26149166D01*
X37046581Y-25511081D01*
X36870360Y-25511081D01*
X36870360Y-25206266D01*
X37046581Y-25206266D01*
X37046581Y-24924898D01*
X37431874Y-24698241D01*
X37431874Y-25206266D01*
X37694191Y-25206266D01*
G37*
G36*
X37779187Y-25206266D02*
G01*
X38187683Y-25206266D01*
X38534630Y-26241001D01*
X38873517Y-25206266D01*
X39271022Y-25206266D01*
X38758723Y-26606144D01*
X38667254Y-26863698D01*
X38614636Y-26982038D01*
X38570900Y-27057383D01*
X38520969Y-27118722D01*
X38465632Y-27165949D01*
X38401407Y-27202091D01*
X38319452Y-27230795D01*
X38229578Y-27247900D01*
X38123447Y-27253998D01*
X38013629Y-27248208D01*
X37906193Y-27230917D01*
X37871999Y-26931231D01*
X37960251Y-26944973D01*
X38034543Y-26949183D01*
X38120205Y-26939347D01*
X38184479Y-26912453D01*
X38232624Y-26869804D01*
X38287954Y-26782520D01*
X38331054Y-26667815D01*
X37779187Y-25206266D01*
G37*
G36*
X40543482Y-24657218D02*
G01*
X40675419Y-24671252D01*
X40786882Y-24702145D01*
X40884491Y-24754050D01*
X40968201Y-24826546D01*
X41038119Y-24921723D01*
X41072073Y-24993657D01*
X41092639Y-25071431D01*
X41099669Y-25156441D01*
X41091172Y-25248252D01*
X41066023Y-25333992D01*
X41023831Y-25415216D01*
X40967272Y-25487162D01*
X40899164Y-25545713D01*
X40818179Y-25591803D01*
X40934005Y-25637488D01*
X41026577Y-25698303D01*
X41099547Y-25774253D01*
X41153876Y-25864405D01*
X41186690Y-25964491D01*
X41197976Y-26077236D01*
X41191011Y-26167247D01*
X41170039Y-26255833D01*
X41134473Y-26343949D01*
X41086247Y-26425571D01*
X41028548Y-26494165D01*
X40960939Y-26551067D01*
X40884344Y-26594947D01*
X40794718Y-26626960D01*
X40689707Y-26646322D01*
X40553994Y-26654103D01*
X40201954Y-26660000D01*
X39520272Y-26660000D01*
X39520272Y-26323921D01*
X39924738Y-26323921D01*
X40299041Y-26323921D01*
X40498121Y-26319813D01*
X40576378Y-26311587D01*
X40658793Y-26282803D01*
X40723168Y-26231109D01*
X40753849Y-26185407D01*
X40773077Y-26129238D01*
X40779955Y-26059773D01*
X40768563Y-25974299D01*
X40736235Y-25905778D01*
X40683799Y-25851786D01*
X40609840Y-25813576D01*
X40503360Y-25794071D01*
X40251291Y-25784633D01*
X39924738Y-25784633D01*
X39924738Y-26323921D01*
X39520272Y-26323921D01*
X39520272Y-25448555D01*
X39924738Y-25448555D01*
X40189742Y-25448555D01*
X40483566Y-25441716D01*
X40578565Y-25416758D01*
X40646720Y-25370397D01*
X40679272Y-25327637D01*
X40699182Y-25276499D01*
X40706193Y-25214570D01*
X40692771Y-25129063D01*
X40654902Y-25064361D01*
X40617166Y-25032072D01*
X40567444Y-25008462D01*
X40502617Y-24994263D01*
X40157013Y-24987424D01*
X39924738Y-24987424D01*
X39924738Y-25448555D01*
X39520272Y-25448555D01*
X39520272Y-24651346D01*
X40320900Y-24651346D01*
X40543482Y-24657218D01*
G37*
G36*
X42356328Y-25181428D02*
G01*
X42497697Y-25222431D01*
X42622946Y-25289265D01*
X42734752Y-25383220D01*
X42826185Y-25497332D01*
X42891337Y-25624456D01*
X42931306Y-25767166D01*
X42945168Y-25928981D01*
X42931186Y-26092144D01*
X42890847Y-26236242D01*
X42825053Y-26364789D01*
X42732676Y-26480359D01*
X42619702Y-26575984D01*
X42494718Y-26643598D01*
X42355246Y-26684830D01*
X42197784Y-26699078D01*
X42066964Y-26688971D01*
X41940604Y-26658775D01*
X41817254Y-26607976D01*
X41705628Y-26537349D01*
X41614549Y-26448923D01*
X41541992Y-26341018D01*
X41491205Y-26220214D01*
X41459093Y-26078673D01*
X41449135Y-25933133D01*
X41841190Y-25933133D01*
X41854115Y-26076220D01*
X41889287Y-26185911D01*
X41943650Y-26269699D01*
X42018263Y-26335206D01*
X42101439Y-26373447D01*
X42196441Y-26386448D01*
X42291415Y-26373431D01*
X42374336Y-26335181D01*
X42448500Y-26269699D01*
X42502408Y-26185914D01*
X42537435Y-26075392D01*
X42550349Y-25930324D01*
X42537545Y-25789114D01*
X42502620Y-25680305D01*
X42448500Y-25596688D01*
X42374327Y-25531132D01*
X42291406Y-25492846D01*
X42196441Y-25479818D01*
X42101448Y-25492830D01*
X42018272Y-25531108D01*
X41943650Y-25596688D01*
X41889292Y-25680401D01*
X41854117Y-25790047D01*
X41841190Y-25933133D01*
X41449135Y-25933133D01*
X41447715Y-25912372D01*
X41458050Y-25785802D01*
X41489162Y-25661652D01*
X41541992Y-25538436D01*
X41614253Y-25426578D01*
X41702818Y-25335256D01*
X41809072Y-25262442D01*
X41927470Y-25209965D01*
X42055438Y-25178092D01*
X42195098Y-25167187D01*
X42356328Y-25181428D01*
G37*
G36*
X43064602Y-25206266D02*
G01*
X43473099Y-25206266D01*
X43820045Y-26241001D01*
X44158932Y-25206266D01*
X44556438Y-25206266D01*
X44044138Y-26606144D01*
X43952669Y-26863698D01*
X43900051Y-26982038D01*
X43856316Y-27057383D01*
X43806385Y-27118722D01*
X43751047Y-27165949D01*
X43686822Y-27202091D01*
X43604868Y-27230795D01*
X43514994Y-27247900D01*
X43408863Y-27253998D01*
X43299044Y-27248208D01*
X43191609Y-27230917D01*
X43157415Y-26931231D01*
X43245666Y-26944973D01*
X43319958Y-26949183D01*
X43405620Y-26939347D01*
X43469894Y-26912453D01*
X43518039Y-26869804D01*
X43573369Y-26782520D01*
X43616469Y-26667815D01*
X43064602Y-25206266D01*
G37*
D14*
%TO.P,J2,1,Pin_1*%
%TO.N,/3V3*%
X48815000Y-10485000D03*
D15*
%TO.P,J2,2,Pin_2*%
%TO.N,/GND*%
X51355000Y-10485000D03*
%TO.P,J2,3,Pin_3*%
%TO.N,/SWDIO*%
X53895000Y-10485000D03*
%TO.P,J2,4,Pin_4*%
%TO.N,/SWCLK*%
X56435000Y-10485000D03*
%TD*%
D16*
%TO.P,J1,1,Pin_1*%
%TO.N,unconnected-(J1-Pin_1-Pad1)*%
X8370000Y-19270000D03*
D17*
%TO.P,J1,2,Pin_2*%
%TO.N,unconnected-(J1-Pin_2-Pad2)*%
X8370000Y-15930000D03*
%TO.P,J1,3,Pin_3*%
%TO.N,/3V3*%
X10910000Y-19270000D03*
%TO.P,J1,4,Pin_4*%
X10910000Y-15930000D03*
%TO.P,J1,5,Pin_5*%
%TO.N,/I2C_SDA*%
X13450000Y-19270000D03*
%TO.P,J1,6,Pin_6*%
%TO.N,/I2C_SCL*%
X13450000Y-15930000D03*
%TO.P,J1,7,Pin_7*%
%TO.N,/I2C_SDA*%
X15990000Y-19270000D03*
%TO.P,J1,8,Pin_8*%
%TO.N,/I2C_SCL*%
X15990000Y-15930000D03*
%TO.P,J1,9,Pin_9*%
%TO.N,/KEY_ALT*%
X18530000Y-19270000D03*
%TO.P,J1,10,Pin_10*%
%TO.N,/KEY_DOWN*%
X18530000Y-15930000D03*
%TO.P,J1,11,Pin_11*%
%TO.N,/KEY_UP*%
X21070000Y-19270000D03*
%TO.P,J1,12,Pin_12*%
%TO.N,/SWCLK*%
X21070000Y-15930000D03*
%TO.P,J1,13,Pin_13*%
%TO.N,/SPI_CS0*%
X23610000Y-19270000D03*
%TO.P,J1,14,Pin_14*%
%TO.N,/SPI_MISO*%
X23610000Y-15930000D03*
%TO.P,J1,15,Pin_15*%
%TO.N,/SPI_MOSI*%
X26150000Y-19270000D03*
%TO.P,J1,16,Pin_16*%
%TO.N,/SPI_SCLK*%
X26150000Y-15930000D03*
%TO.P,J1,17,Pin_17*%
%TO.N,/AUDIO*%
X28690000Y-19270000D03*
%TO.P,J1,18,Pin_18*%
X28690000Y-15930000D03*
%TO.P,J1,19,Pin_19*%
%TO.N,/UART_TX*%
X31230000Y-19270000D03*
%TO.P,J1,20,Pin_20*%
%TO.N,/UART_RX*%
X31230000Y-15930000D03*
%TO.P,J1,21,Pin_21*%
%TO.N,/LCD_DC*%
X33770000Y-19270000D03*
%TO.P,J1,22,Pin_22*%
%TO.N,/LCD_RES*%
X33770000Y-15930000D03*
%TO.P,J1,23,Pin_23*%
%TO.N,/LCD_CS*%
X36310000Y-19270000D03*
%TO.P,J1,24,Pin_24*%
%TO.N,/LCD_BL*%
X36310000Y-15930000D03*
%TO.P,J1,25,Pin_25*%
%TO.N,/LCD_MOSI*%
X38850000Y-19270000D03*
%TO.P,J1,26,Pin_26*%
%TO.N,/LCD_SCK*%
X38850000Y-15930000D03*
%TO.P,J1,27,Pin_27*%
%TO.N,/KEY_A*%
X41390000Y-19270000D03*
%TO.P,J1,28,Pin_28*%
%TO.N,/KEY_B*%
X41390000Y-15930000D03*
%TO.P,J1,29,Pin_29*%
%TO.N,/KEY_X*%
X43930000Y-19270000D03*
%TO.P,J1,30,Pin_30*%
%TO.N,/KEY_RIGHT*%
X43930000Y-15930000D03*
%TO.P,J1,31,Pin_31*%
%TO.N,/KEY_LEFT*%
X46470000Y-19270000D03*
%TO.P,J1,32,Pin_32*%
%TO.N,/KEY_Y*%
X46470000Y-15930000D03*
%TO.P,J1,33,Pin_33*%
%TO.N,/SPI_CS0*%
X49010000Y-19270000D03*
%TO.P,J1,34,Pin_34*%
%TO.N,/SPI_MISO*%
X49010000Y-15930000D03*
%TO.P,J1,35,Pin_35*%
%TO.N,/SPI_MOSI*%
X51550000Y-19270000D03*
%TO.P,J1,36,Pin_36*%
%TO.N,/SPI_SCLK*%
X51550000Y-15930000D03*
%TO.P,J1,37,Pin_37*%
%TO.N,unconnected-(J1-Pin_37-Pad37)*%
X54090000Y-19270000D03*
%TO.P,J1,38,Pin_38*%
%TO.N,unconnected-(J1-Pin_38-Pad38)*%
X54090000Y-15930000D03*
%TO.P,J1,39,Pin_39*%
%TO.N,/GND*%
X56630000Y-19270000D03*
%TO.P,J1,40,Pin_40*%
X56630000Y-15930000D03*
%TD*%
D18*
%TO.N,/GND*%
X50888121Y-12735000D03*
X25008385Y-8446339D03*
%TO.N,/3V3*%
X13550000Y-12175000D03*
X24064139Y-5642370D03*
X46350000Y-7625000D03*
%TO.N,/KEY_UP*%
X40489489Y-6083777D03*
%TO.N,/SPI_CS0*%
X22990000Y-11000000D03*
X29389835Y-11182645D03*
%TO.N,/SPI_SCLK*%
X31677840Y-12797872D03*
X25869698Y-12844974D03*
X50091205Y-21693203D03*
X27453118Y-22190000D03*
%TO.N,/KEY_X*%
X34436322Y-10930137D03*
X41755290Y-11464989D03*
%TO.N,/SPI_MOSI*%
X51667306Y-21623240D03*
X33805822Y-12291194D03*
X24387990Y-12089041D03*
X25830297Y-22485346D03*
%TO.N,/SPI_MISO*%
X24739500Y-21455700D03*
X47775000Y-21475000D03*
X33010640Y-13642621D03*
X23390000Y-13216952D03*
%TO.N,/KEY_Y*%
X45786002Y-10270398D03*
X24168256Y-9688994D03*
%TO.N,/KEY_DOWN*%
X41377824Y-4041974D03*
X18739000Y-8056000D03*
%TO.N,/LCD_DC*%
X44169377Y-3675682D03*
X31911778Y-1739000D03*
X35625000Y-12075000D03*
X44608575Y-12725907D03*
%TO.N,/KEY_ALT*%
X17864382Y-6673516D03*
X38930035Y-3740000D03*
%TO.N,/I2C_SDA*%
X24196642Y-2736966D03*
X16524089Y-6000000D03*
%TO.N,/I2C_SCL*%
X15027388Y-6093291D03*
X25750000Y-3425000D03*
%TO.N,/SWDIO*%
X55450000Y-13250000D03*
X26991004Y-9428033D03*
%TO.N,/SWCLK*%
X59125000Y-7225000D03*
X28050000Y-1765000D03*
%TO.N,/LCD_RES*%
X34510396Y-13615423D03*
X45882271Y-13518186D03*
X30347170Y-1739000D03*
X45495516Y-4376655D03*
%TO.N,/AUDIO*%
X36875484Y-10313208D03*
X28355298Y-10076120D03*
%TD*%
D19*
%TO.N,/GND*%
X47853000Y-12735000D02*
X50888121Y-12735000D01*
X47450000Y-10309745D02*
X47450000Y-12332000D01*
X25008385Y-8446339D02*
X26179724Y-7275000D01*
X26179724Y-7275000D02*
X42393092Y-7275000D01*
X43603091Y-8485000D02*
X45625255Y-8485000D01*
X42393092Y-7275000D02*
X43603091Y-8485000D01*
X45625255Y-8485000D02*
X47450000Y-10309745D01*
X47450000Y-12332000D02*
X47853000Y-12735000D01*
%TO.N,/3V3*%
X24171769Y-5750000D02*
X26713047Y-5750000D01*
X40899539Y-4993536D02*
X41117865Y-5211863D01*
X39561622Y-5505505D02*
X40073591Y-4993536D01*
X24064139Y-5642370D02*
X24171769Y-5750000D01*
X40073591Y-4993536D02*
X40899539Y-4993536D01*
X41117865Y-5211863D02*
X41220909Y-5211863D01*
X41220909Y-5211863D02*
X43634046Y-7625000D01*
X24064139Y-5642370D02*
X17531509Y-12175000D01*
X17531509Y-12175000D02*
X13550000Y-12175000D01*
X26713047Y-5750000D02*
X26957543Y-5505505D01*
X43634046Y-7625000D02*
X46350000Y-7625000D01*
X26957543Y-5505505D02*
X39561622Y-5505505D01*
%TO.N,/KEY_UP*%
X25304586Y-6644000D02*
X39929266Y-6644000D01*
X22336000Y-17604000D02*
X22336000Y-14705606D01*
X21925000Y-14294606D02*
X21925000Y-10023586D01*
X22336000Y-14705606D02*
X21925000Y-14294606D01*
X21925000Y-10023586D02*
X25304586Y-6644000D01*
X21070000Y-18870000D02*
X22336000Y-17604000D01*
X39929266Y-6644000D02*
X40489489Y-6083777D01*
%TO.N,/SPI_CS0*%
X27977038Y-11192555D02*
X29379925Y-11192555D01*
X22990000Y-11000000D02*
X27784483Y-11000000D01*
X27784483Y-11000000D02*
X27977038Y-11192555D01*
X29379925Y-11192555D02*
X29389835Y-11182645D01*
%TO.N,/SPI_SCLK*%
X25974535Y-12949811D02*
X31525901Y-12949811D01*
X47065550Y-22271688D02*
X27534806Y-22271688D01*
X27534806Y-22271688D02*
X27453118Y-22190000D01*
X47333862Y-22540000D02*
X47065550Y-22271688D01*
X48484450Y-22271688D02*
X48216138Y-22540000D01*
X25869698Y-12844974D02*
X25974535Y-12949811D01*
X48216138Y-22540000D02*
X47333862Y-22540000D01*
X31525901Y-12949811D02*
X31677840Y-12797872D01*
X50091205Y-21693203D02*
X49512720Y-22271688D01*
X49512720Y-22271688D02*
X48484450Y-22271688D01*
%TO.N,/KEY_X*%
X34487486Y-10979695D02*
X34485880Y-10979695D01*
X41755290Y-11464989D02*
X41728748Y-11491531D01*
X34517791Y-11010000D02*
X34487486Y-10979695D01*
X41728748Y-11491531D02*
X36547669Y-11491531D01*
X36547669Y-11491531D02*
X36066138Y-11010000D01*
X36066138Y-11010000D02*
X34517791Y-11010000D01*
X34485880Y-10979695D02*
X34436322Y-10930137D01*
%TO.N,/SPI_MOSI*%
X30519928Y-11600000D02*
X33150952Y-11600000D01*
X29845879Y-12274049D02*
X30519928Y-11600000D01*
X27308095Y-12274049D02*
X29845879Y-12274049D01*
X33150952Y-11600000D02*
X33805822Y-12254870D01*
X24387990Y-12089041D02*
X24773332Y-11703699D01*
X33805822Y-12254870D02*
X33805822Y-12291194D01*
X26737745Y-11703699D02*
X27308095Y-12274049D01*
X51667306Y-21623240D02*
X50035546Y-23255000D01*
X50035546Y-23255000D02*
X26599951Y-23255000D01*
X26599951Y-23255000D02*
X25830297Y-22485346D01*
X24773332Y-11703699D02*
X26737745Y-11703699D01*
%TO.N,/SPI_MISO*%
X24739500Y-21455700D02*
X24959200Y-21236000D01*
X28174073Y-21236000D02*
X47536000Y-21236000D01*
X26732163Y-21236000D02*
X26843163Y-21125000D01*
X26843163Y-21125000D02*
X28063073Y-21125000D01*
X24151404Y-14014811D02*
X25574795Y-14014811D01*
X28063073Y-21125000D02*
X28174073Y-21236000D01*
X32689261Y-13964000D02*
X33010640Y-13642621D01*
X23390000Y-13253407D02*
X24151404Y-14014811D01*
X25574795Y-14014811D02*
X25625606Y-13964000D01*
X23390000Y-13216952D02*
X23390000Y-13253407D01*
X25625606Y-13964000D02*
X32689261Y-13964000D01*
X24959200Y-21236000D02*
X26732163Y-21236000D01*
X47536000Y-21236000D02*
X47775000Y-21475000D01*
%TO.N,/KEY_Y*%
X43342137Y-9115000D02*
X44629602Y-9115000D01*
X24168256Y-9688994D02*
X25271868Y-9688994D01*
X26887276Y-7950000D02*
X42177138Y-7950000D01*
X44629602Y-9115000D02*
X45785000Y-10270398D01*
X26073385Y-8763891D02*
X26887276Y-7950000D01*
X45785000Y-10270398D02*
X45786002Y-10270398D01*
X25271868Y-9688994D02*
X26073385Y-8887477D01*
X42177138Y-7950000D02*
X43342137Y-9115000D01*
X26073385Y-8887477D02*
X26073385Y-8763891D01*
%TO.N,/KEY_DOWN*%
X23575000Y-4525000D02*
X22149096Y-5950904D01*
X26696588Y-4875505D02*
X26452093Y-5120000D01*
X26452093Y-5120000D02*
X25047908Y-5120000D01*
X22149096Y-5950904D02*
X21683142Y-5950904D01*
X40134199Y-4041974D02*
X39300668Y-4875505D01*
X21683142Y-5950904D02*
X19578045Y-8056000D01*
X19578045Y-8056000D02*
X18739000Y-8056000D01*
X24452908Y-4525000D02*
X23575000Y-4525000D01*
X39300668Y-4875505D02*
X26696588Y-4875505D01*
X41377824Y-4041974D02*
X40134199Y-4041974D01*
X25047908Y-5120000D02*
X24452908Y-4525000D01*
%TO.N,/LCD_DC*%
X31911778Y-1739000D02*
X32019778Y-1631000D01*
X44100682Y-3675682D02*
X44169377Y-3675682D01*
X36276480Y-12726480D02*
X44608002Y-12726480D01*
X44608002Y-12726480D02*
X44608575Y-12725907D01*
X43135954Y-2710954D02*
X44100682Y-3675682D01*
X42131000Y-1631000D02*
X43135954Y-2635954D01*
X43135954Y-2635954D02*
X43135954Y-2710954D01*
X32019778Y-1631000D02*
X42131000Y-1631000D01*
X35625000Y-12075000D02*
X36276480Y-12726480D01*
%TO.N,/KEY_ALT*%
X24713862Y-3895000D02*
X22079675Y-3895000D01*
X38424530Y-4245505D02*
X26435633Y-4245505D01*
X38930035Y-3740000D02*
X38424530Y-4245505D01*
X17887359Y-6650539D02*
X17864382Y-6673516D01*
X26191138Y-4490000D02*
X25308862Y-4490000D01*
X22079675Y-3895000D02*
X19324136Y-6650539D01*
X25308862Y-4490000D02*
X24713862Y-3895000D01*
X19324136Y-6650539D02*
X17887359Y-6650539D01*
X26435633Y-4245505D02*
X26191138Y-4490000D01*
%TO.N,/I2C_SDA*%
X21638537Y-2830000D02*
X24103608Y-2830000D01*
X16524089Y-6000000D02*
X16938550Y-5585539D01*
X18882998Y-5585539D02*
X21638537Y-2830000D01*
X24103608Y-2830000D02*
X24196642Y-2736966D01*
X16938550Y-5585539D02*
X18882998Y-5585539D01*
%TO.N,/I2C_SCL*%
X25144154Y-1647512D02*
X25750000Y-2253358D01*
X22477488Y-1647512D02*
X25144154Y-1647512D01*
X21381376Y-1765000D02*
X22360000Y-1765000D01*
X15027388Y-6093291D02*
X15027388Y-5903296D01*
X15027388Y-5903296D02*
X15996086Y-4934598D01*
X25750000Y-2253358D02*
X25750000Y-3425000D01*
X15996086Y-4934598D02*
X18211778Y-4934598D01*
X18211778Y-4934598D02*
X21381376Y-1765000D01*
X22360000Y-1765000D02*
X22477488Y-1647512D01*
%TO.N,/SWDIO*%
X43081182Y-9745000D02*
X43753464Y-9745000D01*
X54900000Y-13800000D02*
X55450000Y-13250000D01*
X42347302Y-9011120D02*
X43081182Y-9745000D01*
X26991004Y-9428033D02*
X27407917Y-9011120D01*
X47808464Y-13800000D02*
X54900000Y-13800000D01*
X27407917Y-9011120D02*
X42347302Y-9011120D01*
X43753464Y-9745000D02*
X47808464Y-13800000D01*
%TO.N,/SWCLK*%
X45403402Y-6560000D02*
X41518402Y-2675000D01*
X59125000Y-7225000D02*
X47456138Y-7225000D01*
X46791138Y-6560000D02*
X45403402Y-6560000D01*
X41518402Y-2675000D02*
X32481916Y-2675000D01*
X47456138Y-7225000D02*
X46791138Y-6560000D01*
X32352916Y-2804000D02*
X29089000Y-2804000D01*
X32481916Y-2675000D02*
X32352916Y-2804000D01*
X29089000Y-2804000D02*
X28050000Y-1765000D01*
%TO.N,/LCD_RES*%
X43121126Y-13665000D02*
X34559973Y-13665000D01*
X45585000Y-3110000D02*
X45585000Y-4287171D01*
X45882271Y-13518186D02*
X45469994Y-13930463D01*
X31520170Y-566000D02*
X42041000Y-566000D01*
X42041000Y-566000D02*
X43850000Y-2375000D01*
X45469994Y-13930463D02*
X43386589Y-13930463D01*
X34559973Y-13665000D02*
X34510396Y-13615423D01*
X44850000Y-2375000D02*
X45585000Y-3110000D01*
X30347170Y-1739000D02*
X31520170Y-566000D01*
X45585000Y-4287171D02*
X45495516Y-4376655D01*
X43850000Y-2375000D02*
X44850000Y-2375000D01*
X43386589Y-13930463D02*
X43121126Y-13665000D01*
%TO.N,/AUDIO*%
X36515787Y-9953511D02*
X35068162Y-9953511D01*
X36875484Y-10313208D02*
X36515787Y-9953511D01*
X35068162Y-9953511D02*
X34928624Y-9813973D01*
X33906810Y-9953511D02*
X28477907Y-9953511D01*
X34928624Y-9813973D02*
X34046348Y-9813973D01*
X28477907Y-9953511D02*
X28355298Y-10076120D01*
X34046348Y-9813973D02*
X33906810Y-9953511D01*
%TD*%
%TA.AperFunction,Conductor*%
%TO.N,/GND*%
G36*
X64542539Y-420185D02*
G01*
X64588294Y-472989D01*
X64599500Y-524500D01*
X64599500Y-27475500D01*
X64579815Y-27542539D01*
X64527011Y-27588294D01*
X64475500Y-27599500D01*
X45185938Y-27599500D01*
X45118899Y-27579815D01*
X45073144Y-27527011D01*
X45061938Y-27475500D01*
X45061938Y-24385921D01*
X59759500Y-24385921D01*
X59759500Y-24614078D01*
X59789278Y-24840272D01*
X59789279Y-24840277D01*
X59789280Y-24840283D01*
X59789281Y-24840285D01*
X59848331Y-25060666D01*
X59935638Y-25271446D01*
X59935646Y-25271462D01*
X60049717Y-25469037D01*
X60049728Y-25469053D01*
X60188613Y-25650052D01*
X60188619Y-25650059D01*
X60349940Y-25811380D01*
X60349946Y-25811385D01*
X60530955Y-25950278D01*
X60530962Y-25950282D01*
X60728537Y-26064353D01*
X60728553Y-26064361D01*
X60842268Y-26111463D01*
X60939334Y-26151669D01*
X61159717Y-26210720D01*
X61319474Y-26231752D01*
X61385921Y-26240500D01*
X61385922Y-26240500D01*
X61614079Y-26240500D01*
X61665438Y-26233738D01*
X61840283Y-26210720D01*
X62060666Y-26151669D01*
X62226365Y-26083033D01*
X62271446Y-26064361D01*
X62271449Y-26064359D01*
X62271455Y-26064357D01*
X62469045Y-25950278D01*
X62650054Y-25811385D01*
X62811385Y-25650054D01*
X62950278Y-25469045D01*
X63064357Y-25271455D01*
X63151669Y-25060666D01*
X63210720Y-24840283D01*
X63240500Y-24614078D01*
X63240500Y-24385922D01*
X63210720Y-24159717D01*
X63151669Y-23939334D01*
X63082327Y-23771928D01*
X63064361Y-23728553D01*
X63064353Y-23728537D01*
X62950282Y-23530962D01*
X62950278Y-23530955D01*
X62811385Y-23349946D01*
X62811380Y-23349940D01*
X62650059Y-23188619D01*
X62650052Y-23188613D01*
X62469053Y-23049728D01*
X62469051Y-23049726D01*
X62469045Y-23049722D01*
X62469040Y-23049719D01*
X62469037Y-23049717D01*
X62271462Y-22935646D01*
X62271446Y-22935638D01*
X62060666Y-22848331D01*
X61840283Y-22789280D01*
X61840277Y-22789279D01*
X61840272Y-22789278D01*
X61614079Y-22759500D01*
X61614078Y-22759500D01*
X61385922Y-22759500D01*
X61385921Y-22759500D01*
X61159727Y-22789278D01*
X61159720Y-22789279D01*
X61159717Y-22789280D01*
X61066567Y-22814239D01*
X60939333Y-22848331D01*
X60728553Y-22935638D01*
X60728537Y-22935646D01*
X60530962Y-23049717D01*
X60530946Y-23049728D01*
X60349947Y-23188613D01*
X60349940Y-23188619D01*
X60188619Y-23349940D01*
X60188613Y-23349947D01*
X60049728Y-23530946D01*
X60049717Y-23530962D01*
X59935646Y-23728537D01*
X59935638Y-23728553D01*
X59848331Y-23939333D01*
X59833863Y-23993328D01*
X59799096Y-24123085D01*
X59789281Y-24159714D01*
X59789278Y-24159727D01*
X59759500Y-24385921D01*
X45061938Y-24385921D01*
X45061938Y-24145846D01*
X45048273Y-24132181D01*
X45014788Y-24070858D01*
X45019772Y-24001166D01*
X45061644Y-23945233D01*
X45127108Y-23920816D01*
X45135954Y-23920500D01*
X50101095Y-23920500D01*
X50187590Y-23903294D01*
X50229665Y-23894925D01*
X50350778Y-23844758D01*
X50459778Y-23771928D01*
X51473234Y-22758469D01*
X51534555Y-22724986D01*
X51575806Y-22723807D01*
X51575842Y-22723358D01*
X51580024Y-22723687D01*
X51580310Y-22723679D01*
X51580695Y-22723740D01*
X51580700Y-22723740D01*
X51753916Y-22723740D01*
X51753917Y-22723740D01*
X51925007Y-22696642D01*
X52089751Y-22643113D01*
X52244094Y-22564472D01*
X52384234Y-22462654D01*
X52506720Y-22340168D01*
X52608538Y-22200028D01*
X52687179Y-22045685D01*
X52740708Y-21880941D01*
X52767806Y-21709851D01*
X52767806Y-21536629D01*
X52740708Y-21365539D01*
X52687179Y-21200795D01*
X52608538Y-21046452D01*
X52506720Y-20906312D01*
X52421345Y-20820937D01*
X52387860Y-20759614D01*
X52392844Y-20689922D01*
X52408707Y-20660373D01*
X52491232Y-20546788D01*
X52569873Y-20392445D01*
X52623402Y-20227701D01*
X52650500Y-20056611D01*
X52650500Y-18483389D01*
X52623402Y-18312299D01*
X52569873Y-18147555D01*
X52491232Y-17993212D01*
X52389414Y-17853072D01*
X52266928Y-17730586D01*
X52225265Y-17700316D01*
X52182602Y-17644988D01*
X52176623Y-17575374D01*
X52209229Y-17513579D01*
X52225266Y-17499683D01*
X52266928Y-17469414D01*
X52389414Y-17346928D01*
X52491232Y-17206788D01*
X52569873Y-17052445D01*
X52623402Y-16887701D01*
X52650500Y-16716611D01*
X52650500Y-15143389D01*
X52623402Y-14972299D01*
X52569873Y-14807555D01*
X52491232Y-14653212D01*
X52491231Y-14653210D01*
X52489020Y-14648871D01*
X52490256Y-14648240D01*
X52473648Y-14586845D01*
X52494764Y-14520242D01*
X52548536Y-14475629D01*
X52597620Y-14465500D01*
X53042380Y-14465500D01*
X53109419Y-14485185D01*
X53155174Y-14537989D01*
X53165118Y-14607147D01*
X53150204Y-14648476D01*
X53150980Y-14648871D01*
X53148769Y-14653210D01*
X53148768Y-14653212D01*
X53134090Y-14682019D01*
X53070128Y-14807552D01*
X53070127Y-14807554D01*
X53070127Y-14807555D01*
X53065447Y-14821958D01*
X53016597Y-14972302D01*
X52989500Y-15143389D01*
X52989500Y-16716610D01*
X53015934Y-16883512D01*
X53016598Y-16887701D01*
X53070127Y-17052445D01*
X53148768Y-17206788D01*
X53250586Y-17346928D01*
X53250588Y-17346930D01*
X53373072Y-17469414D01*
X53414733Y-17499683D01*
X53457398Y-17555013D01*
X53463376Y-17624627D01*
X53430769Y-17686421D01*
X53414733Y-17700317D01*
X53373072Y-17730585D01*
X53250588Y-17853069D01*
X53250588Y-17853070D01*
X53250586Y-17853072D01*
X53206859Y-17913256D01*
X53148768Y-17993211D01*
X53070128Y-18147552D01*
X53016597Y-18312302D01*
X52989500Y-18483389D01*
X52989500Y-20056610D01*
X53016597Y-20227697D01*
X53016597Y-20227699D01*
X53016598Y-20227701D01*
X53070127Y-20392445D01*
X53148768Y-20546788D01*
X53250586Y-20686928D01*
X53373072Y-20809414D01*
X53513212Y-20911232D01*
X53667555Y-20989873D01*
X53832299Y-21043402D01*
X54003389Y-21070500D01*
X54003390Y-21070500D01*
X54176610Y-21070500D01*
X54176611Y-21070500D01*
X54347701Y-21043402D01*
X54512445Y-20989873D01*
X54666788Y-20911232D01*
X54806928Y-20809414D01*
X54916306Y-20700036D01*
X55553513Y-20700036D01*
X55638417Y-20816895D01*
X55783104Y-20961582D01*
X55948650Y-21081859D01*
X56130968Y-21174755D01*
X56325582Y-21237990D01*
X56527683Y-21270000D01*
X56732317Y-21270000D01*
X56934417Y-21237990D01*
X57129031Y-21174755D01*
X57311349Y-21081859D01*
X57476894Y-20961582D01*
X57476895Y-20961582D01*
X57621584Y-20816893D01*
X57706484Y-20700037D01*
X57706484Y-20700036D01*
X56630000Y-19623552D01*
X55553513Y-20700036D01*
X54916306Y-20700036D01*
X54929414Y-20686928D01*
X55031232Y-20546788D01*
X55109873Y-20392445D01*
X55151974Y-20262870D01*
X55191410Y-20205198D01*
X55255769Y-20177999D01*
X55308222Y-20183260D01*
X55349707Y-20196739D01*
X56276448Y-19270000D01*
X56276448Y-19269999D01*
X55349707Y-18343258D01*
X55308221Y-18356738D01*
X55238380Y-18358733D01*
X55178547Y-18322653D01*
X55151974Y-18277129D01*
X55109873Y-18147555D01*
X55031232Y-17993212D01*
X54929414Y-17853072D01*
X54806928Y-17730586D01*
X54765265Y-17700316D01*
X54722602Y-17644988D01*
X54716623Y-17575374D01*
X54749229Y-17513579D01*
X54765266Y-17499683D01*
X54806928Y-17469414D01*
X54929414Y-17346928D01*
X55031232Y-17206788D01*
X55109873Y-17052445D01*
X55137186Y-16968384D01*
X55176622Y-16910711D01*
X55240981Y-16883512D01*
X55309827Y-16895427D01*
X55361303Y-16942671D01*
X55373047Y-16968385D01*
X55425244Y-17129031D01*
X55518140Y-17311349D01*
X55638417Y-17476894D01*
X55638417Y-17476895D01*
X55673841Y-17512319D01*
X55707326Y-17573642D01*
X55702342Y-17643334D01*
X55673841Y-17687681D01*
X55638417Y-17723104D01*
X55638416Y-17723105D01*
X55553513Y-17839962D01*
X55553514Y-17839963D01*
X56253222Y-18539671D01*
X56229901Y-18562993D01*
X56164075Y-18677007D01*
X56130000Y-18804174D01*
X56130000Y-18935826D01*
X56164075Y-19062993D01*
X56229901Y-19177007D01*
X56322993Y-19270099D01*
X56437007Y-19335925D01*
X56564174Y-19370000D01*
X56695826Y-19370000D01*
X56822993Y-19335925D01*
X56937007Y-19270099D01*
X56937107Y-19269999D01*
X56983552Y-19269999D01*
X56983552Y-19270000D01*
X57910291Y-20196740D01*
X57910292Y-20196739D01*
X57930000Y-20072311D01*
X57930000Y-18467688D01*
X57910292Y-18343259D01*
X56983552Y-19269999D01*
X56937107Y-19269999D01*
X57030099Y-19177007D01*
X57095925Y-19062993D01*
X57130000Y-18935826D01*
X57130000Y-18804174D01*
X57095925Y-18677007D01*
X57030099Y-18562993D01*
X57006777Y-18539671D01*
X57706484Y-17839963D01*
X57706485Y-17839961D01*
X57621587Y-17723110D01*
X57621582Y-17723104D01*
X57586159Y-17687681D01*
X57552674Y-17626358D01*
X57557658Y-17556666D01*
X57586159Y-17512319D01*
X57621582Y-17476895D01*
X57621582Y-17476894D01*
X57741859Y-17311349D01*
X57834755Y-17129031D01*
X57897990Y-16934417D01*
X57930000Y-16732317D01*
X57930000Y-16180000D01*
X57107445Y-16180000D01*
X57095925Y-16137007D01*
X57030099Y-16022993D01*
X56937007Y-15929901D01*
X56822993Y-15864075D01*
X56695826Y-15830000D01*
X56564174Y-15830000D01*
X56437007Y-15864075D01*
X56410269Y-15879511D01*
X56391206Y-15857511D01*
X56380000Y-15806000D01*
X56380000Y-15680000D01*
X56880000Y-15680000D01*
X57930000Y-15680000D01*
X57930000Y-15127682D01*
X57897990Y-14925582D01*
X57834755Y-14730968D01*
X57741859Y-14548650D01*
X57621582Y-14383105D01*
X57621582Y-14383104D01*
X57476895Y-14238417D01*
X57311349Y-14118140D01*
X57129029Y-14025244D01*
X56934413Y-13962009D01*
X56880000Y-13953390D01*
X56880000Y-15680000D01*
X56380000Y-15680000D01*
X56380000Y-13928326D01*
X56378782Y-13926461D01*
X56378285Y-13856593D01*
X56389397Y-13831321D01*
X56389020Y-13831129D01*
X56391232Y-13826788D01*
X56469873Y-13672445D01*
X56523402Y-13507701D01*
X56550500Y-13336611D01*
X56550500Y-13163389D01*
X56523402Y-12992299D01*
X56469873Y-12827555D01*
X56391232Y-12673212D01*
X56325241Y-12582383D01*
X56301762Y-12516580D01*
X56317587Y-12448526D01*
X56367692Y-12399831D01*
X56425560Y-12385500D01*
X56521610Y-12385500D01*
X56521611Y-12385500D01*
X56692701Y-12358402D01*
X56857445Y-12304873D01*
X57011788Y-12226232D01*
X57151928Y-12124414D01*
X57274414Y-12001928D01*
X57376232Y-11861788D01*
X57454873Y-11707445D01*
X57508402Y-11542701D01*
X57535500Y-11371611D01*
X57535500Y-9598389D01*
X57508402Y-9427299D01*
X57454873Y-9262555D01*
X57376232Y-9108212D01*
X57274414Y-8968072D01*
X57151928Y-8845586D01*
X57011788Y-8743768D01*
X56857445Y-8665127D01*
X56692701Y-8611598D01*
X56692699Y-8611597D01*
X56692698Y-8611597D01*
X56558433Y-8590332D01*
X56521611Y-8584500D01*
X56348389Y-8584500D01*
X56311567Y-8590332D01*
X56177302Y-8611597D01*
X56012552Y-8665128D01*
X55858211Y-8743768D01*
X55818075Y-8772929D01*
X55718072Y-8845586D01*
X55718070Y-8845588D01*
X55718069Y-8845588D01*
X55595588Y-8968069D01*
X55595588Y-8968070D01*
X55595586Y-8968072D01*
X55551859Y-9028256D01*
X55493768Y-9108211D01*
X55415128Y-9262552D01*
X55361597Y-9427302D01*
X55334500Y-9598389D01*
X55334500Y-11371610D01*
X55357916Y-11519457D01*
X55361598Y-11542701D01*
X55415127Y-11707445D01*
X55493768Y-11861788D01*
X55559758Y-11952616D01*
X55583238Y-12018420D01*
X55567413Y-12086474D01*
X55517308Y-12135169D01*
X55459440Y-12149500D01*
X55363389Y-12149500D01*
X55328720Y-12154991D01*
X55192302Y-12176597D01*
X55192299Y-12176598D01*
X55039543Y-12226232D01*
X55027552Y-12230128D01*
X54873211Y-12308768D01*
X54804897Y-12358402D01*
X54733072Y-12410586D01*
X54733070Y-12410588D01*
X54733069Y-12410588D01*
X54610588Y-12533069D01*
X54610588Y-12533070D01*
X54610586Y-12533072D01*
X54596115Y-12552990D01*
X54508768Y-12673211D01*
X54430128Y-12827550D01*
X54376597Y-12992298D01*
X54370643Y-13029897D01*
X54340714Y-13093032D01*
X54281403Y-13129964D01*
X54248170Y-13134500D01*
X48135486Y-13134500D01*
X48068447Y-13114815D01*
X48047805Y-13098181D01*
X46348723Y-11399099D01*
X46315238Y-11337776D01*
X46320222Y-11268084D01*
X46362094Y-11212151D01*
X46363519Y-11211100D01*
X46368766Y-11207288D01*
X46502930Y-11109812D01*
X46625416Y-10987326D01*
X46727234Y-10847186D01*
X46805875Y-10692843D01*
X46859404Y-10528099D01*
X46886502Y-10357009D01*
X46886502Y-10183787D01*
X46859404Y-10012697D01*
X46805875Y-9847953D01*
X46727234Y-9693610D01*
X46625416Y-9553470D01*
X46502930Y-9430984D01*
X46362790Y-9329166D01*
X46208447Y-9250525D01*
X46043703Y-9196996D01*
X46043701Y-9196995D01*
X46043700Y-9196995D01*
X45912273Y-9176179D01*
X45872613Y-9169898D01*
X45699391Y-9169898D01*
X45699377Y-9169898D01*
X45698124Y-9170097D01*
X45697644Y-9170034D01*
X45694529Y-9170280D01*
X45694477Y-9169625D01*
X45628832Y-9161132D01*
X45591064Y-9135302D01*
X45295894Y-8840131D01*
X47714500Y-8840131D01*
X47714500Y-12129856D01*
X47714502Y-12129882D01*
X47717413Y-12154987D01*
X47717415Y-12154991D01*
X47762793Y-12257764D01*
X47762794Y-12257765D01*
X47842235Y-12337206D01*
X47945009Y-12382585D01*
X47970135Y-12385500D01*
X49659864Y-12385499D01*
X49659879Y-12385497D01*
X49659882Y-12385497D01*
X49684987Y-12382586D01*
X49684988Y-12382585D01*
X49684991Y-12382585D01*
X49787765Y-12337206D01*
X49867206Y-12257765D01*
X49912585Y-12154991D01*
X49915500Y-12129865D01*
X49915499Y-11548794D01*
X49935183Y-11481758D01*
X49987987Y-11436003D01*
X50057146Y-11426059D01*
X50059777Y-11426670D01*
X50872037Y-10614410D01*
X50889075Y-10677993D01*
X50954901Y-10792007D01*
X51047993Y-10885099D01*
X51162007Y-10950925D01*
X51225589Y-10967962D01*
X50237760Y-11955790D01*
X50237760Y-11955792D01*
X50243139Y-11966347D01*
X50363417Y-12131894D01*
X50363417Y-12131895D01*
X50508104Y-12276582D01*
X50673650Y-12396859D01*
X50855968Y-12489755D01*
X51050582Y-12552990D01*
X51252683Y-12585000D01*
X51457317Y-12585000D01*
X51659417Y-12552990D01*
X51854031Y-12489755D01*
X52036349Y-12396859D01*
X52201894Y-12276582D01*
X52201895Y-12276582D01*
X52346582Y-12131895D01*
X52346582Y-12131894D01*
X52466858Y-11966351D01*
X52466860Y-11966347D01*
X52472239Y-11955790D01*
X51484410Y-10967962D01*
X51547993Y-10950925D01*
X51662007Y-10885099D01*
X51755099Y-10792007D01*
X51820925Y-10677993D01*
X51837962Y-10614410D01*
X52648964Y-11425412D01*
X52657401Y-11422671D01*
X52727243Y-11420676D01*
X52787076Y-11456756D01*
X52817904Y-11519457D01*
X52818193Y-11521204D01*
X52821598Y-11542701D01*
X52875127Y-11707445D01*
X52953768Y-11861788D01*
X53055586Y-12001928D01*
X53178072Y-12124414D01*
X53318212Y-12226232D01*
X53472555Y-12304873D01*
X53637299Y-12358402D01*
X53808389Y-12385500D01*
X53808390Y-12385500D01*
X53981610Y-12385500D01*
X53981611Y-12385500D01*
X54152701Y-12358402D01*
X54317445Y-12304873D01*
X54471788Y-12226232D01*
X54611928Y-12124414D01*
X54734414Y-12001928D01*
X54836232Y-11861788D01*
X54914873Y-11707445D01*
X54968402Y-11542701D01*
X54995500Y-11371611D01*
X54995500Y-9598389D01*
X54968402Y-9427299D01*
X54914873Y-9262555D01*
X54836232Y-9108212D01*
X54734414Y-8968072D01*
X54611928Y-8845586D01*
X54471788Y-8743768D01*
X54317445Y-8665127D01*
X54152701Y-8611598D01*
X54152699Y-8611597D01*
X54152698Y-8611597D01*
X54018433Y-8590332D01*
X53981611Y-8584500D01*
X53808389Y-8584500D01*
X53771567Y-8590332D01*
X53637302Y-8611597D01*
X53472552Y-8665128D01*
X53318211Y-8743768D01*
X53278075Y-8772929D01*
X53178072Y-8845586D01*
X53178070Y-8845588D01*
X53178069Y-8845588D01*
X53055588Y-8968069D01*
X53055588Y-8968070D01*
X53055586Y-8968072D01*
X53011859Y-9028256D01*
X52953768Y-9108211D01*
X52875128Y-9262552D01*
X52821597Y-9427300D01*
X52818193Y-9448796D01*
X52788263Y-9511930D01*
X52728951Y-9548860D01*
X52659088Y-9547862D01*
X52657403Y-9547327D01*
X52648965Y-9544585D01*
X51837962Y-10355588D01*
X51820925Y-10292007D01*
X51755099Y-10177993D01*
X51662007Y-10084901D01*
X51547993Y-10019075D01*
X51484410Y-10002037D01*
X52472238Y-9014209D01*
X52466858Y-9003649D01*
X52466856Y-9003646D01*
X52346582Y-8838105D01*
X52346582Y-8838104D01*
X52201895Y-8693417D01*
X52036349Y-8573140D01*
X51854031Y-8480244D01*
X51659417Y-8417009D01*
X51457317Y-8385000D01*
X51252683Y-8385000D01*
X51050582Y-8417009D01*
X50855968Y-8480244D01*
X50673650Y-8573140D01*
X50508105Y-8693417D01*
X50508104Y-8693417D01*
X50363417Y-8838104D01*
X50243136Y-9003656D01*
X50237759Y-9014206D01*
X50237760Y-9014208D01*
X51225589Y-10002037D01*
X51162007Y-10019075D01*
X51047993Y-10084901D01*
X50954901Y-10177993D01*
X50889075Y-10292007D01*
X50872037Y-10355588D01*
X50056198Y-9539749D01*
X50007976Y-9541127D01*
X49948143Y-9505046D01*
X49917315Y-9442345D01*
X49915499Y-9421201D01*
X49915499Y-8840143D01*
X49915499Y-8840136D01*
X49915497Y-8840117D01*
X49912586Y-8815012D01*
X49912585Y-8815010D01*
X49912585Y-8815009D01*
X49867206Y-8712235D01*
X49787765Y-8632794D01*
X49748806Y-8615592D01*
X49684992Y-8587415D01*
X49659865Y-8584500D01*
X47970143Y-8584500D01*
X47970117Y-8584502D01*
X47945012Y-8587413D01*
X47945008Y-8587415D01*
X47842235Y-8632793D01*
X47762794Y-8712234D01*
X47717415Y-8815006D01*
X47717415Y-8815008D01*
X47714500Y-8840131D01*
X45295894Y-8840131D01*
X45053839Y-8598076D01*
X45053838Y-8598075D01*
X45048990Y-8594836D01*
X45006180Y-8566231D01*
X44944832Y-8525240D01*
X44942243Y-8523857D01*
X44941141Y-8522775D01*
X44939769Y-8521858D01*
X44939943Y-8521597D01*
X44892400Y-8474893D01*
X44876941Y-8406755D01*
X44900775Y-8341076D01*
X44956334Y-8298708D01*
X45000699Y-8290500D01*
X45410040Y-8290500D01*
X45477079Y-8310185D01*
X45507079Y-8338515D01*
X45507422Y-8338223D01*
X45510142Y-8341407D01*
X45510352Y-8341606D01*
X45510586Y-8341928D01*
X45633072Y-8464414D01*
X45773212Y-8566232D01*
X45927555Y-8644873D01*
X46092299Y-8698402D01*
X46263389Y-8725500D01*
X46263390Y-8725500D01*
X46436610Y-8725500D01*
X46436611Y-8725500D01*
X46607701Y-8698402D01*
X46772445Y-8644873D01*
X46926788Y-8566232D01*
X47066928Y-8464414D01*
X47189414Y-8341928D01*
X47291232Y-8201788D01*
X47369873Y-8047445D01*
X47393028Y-7976180D01*
X47432466Y-7918506D01*
X47496825Y-7891308D01*
X47510959Y-7890500D01*
X58185040Y-7890500D01*
X58252079Y-7910185D01*
X58282079Y-7938515D01*
X58282422Y-7938223D01*
X58285142Y-7941407D01*
X58285352Y-7941606D01*
X58285586Y-7941928D01*
X58408072Y-8064414D01*
X58548212Y-8166232D01*
X58702555Y-8244873D01*
X58867299Y-8298402D01*
X59038389Y-8325500D01*
X59038390Y-8325500D01*
X59211610Y-8325500D01*
X59211611Y-8325500D01*
X59382701Y-8298402D01*
X59547445Y-8244873D01*
X59701788Y-8166232D01*
X59841928Y-8064414D01*
X59964414Y-7941928D01*
X60066232Y-7801788D01*
X60144873Y-7647445D01*
X60198402Y-7482701D01*
X60225500Y-7311611D01*
X60225500Y-7138389D01*
X60198402Y-6967299D01*
X60144873Y-6802555D01*
X60066232Y-6648212D01*
X59964414Y-6508072D01*
X59841928Y-6385586D01*
X59701788Y-6283768D01*
X59547445Y-6205127D01*
X59382701Y-6151598D01*
X59382699Y-6151597D01*
X59382698Y-6151597D01*
X59251271Y-6130781D01*
X59211611Y-6124500D01*
X59038389Y-6124500D01*
X58998728Y-6130781D01*
X58867302Y-6151597D01*
X58702552Y-6205128D01*
X58548211Y-6283768D01*
X58468256Y-6341859D01*
X58408072Y-6385586D01*
X58408070Y-6385588D01*
X58408069Y-6385588D01*
X58285588Y-6508069D01*
X58285583Y-6508075D01*
X58285352Y-6508394D01*
X58285233Y-6508485D01*
X58282422Y-6511777D01*
X58281730Y-6511186D01*
X58230018Y-6551055D01*
X58185040Y-6559500D01*
X47783160Y-6559500D01*
X47716121Y-6539815D01*
X47695479Y-6523181D01*
X47215375Y-6043076D01*
X47215374Y-6043075D01*
X47160904Y-6006680D01*
X47106370Y-5970242D01*
X46985257Y-5920075D01*
X46985251Y-5920073D01*
X46856687Y-5894500D01*
X46856685Y-5894500D01*
X46856684Y-5894500D01*
X45730423Y-5894500D01*
X45700982Y-5885855D01*
X45670996Y-5879332D01*
X45665980Y-5875577D01*
X45663384Y-5874815D01*
X45642742Y-5858181D01*
X45473397Y-5688836D01*
X45439912Y-5627513D01*
X45444896Y-5557821D01*
X45486768Y-5501888D01*
X45552232Y-5477471D01*
X45561078Y-5477155D01*
X45582126Y-5477155D01*
X45582127Y-5477155D01*
X45753217Y-5450057D01*
X45917961Y-5396528D01*
X46072304Y-5317887D01*
X46212444Y-5216069D01*
X46334930Y-5093583D01*
X46436748Y-4953443D01*
X46515389Y-4799100D01*
X46568918Y-4634356D01*
X46596016Y-4463266D01*
X46596016Y-4290044D01*
X46568918Y-4118954D01*
X46515389Y-3954210D01*
X46436748Y-3799867D01*
X46334930Y-3659727D01*
X46286819Y-3611616D01*
X46272115Y-3584688D01*
X46255523Y-3558870D01*
X46254631Y-3552669D01*
X46253334Y-3550293D01*
X46250500Y-3523935D01*
X46250500Y-3385921D01*
X59759500Y-3385921D01*
X59759500Y-3614078D01*
X59789278Y-3840272D01*
X59789279Y-3840277D01*
X59789280Y-3840283D01*
X59848331Y-4060666D01*
X59935638Y-4271446D01*
X59935646Y-4271462D01*
X60049717Y-4469037D01*
X60049728Y-4469053D01*
X60188613Y-4650052D01*
X60188619Y-4650059D01*
X60349940Y-4811380D01*
X60349947Y-4811386D01*
X60441176Y-4881388D01*
X60530955Y-4950278D01*
X60530962Y-4950282D01*
X60728537Y-5064353D01*
X60728553Y-5064361D01*
X60842268Y-5111463D01*
X60939334Y-5151669D01*
X61159717Y-5210720D01*
X61319474Y-5231752D01*
X61385921Y-5240500D01*
X61385922Y-5240500D01*
X61614079Y-5240500D01*
X61665438Y-5233738D01*
X61840283Y-5210720D01*
X62060666Y-5151669D01*
X62226365Y-5083033D01*
X62271446Y-5064361D01*
X62271449Y-5064359D01*
X62271455Y-5064357D01*
X62469045Y-4950278D01*
X62650054Y-4811385D01*
X62811385Y-4650054D01*
X62950278Y-4469045D01*
X63064357Y-4271455D01*
X63065334Y-4269098D01*
X63083033Y-4226365D01*
X63151669Y-4060666D01*
X63210720Y-3840283D01*
X63240500Y-3614078D01*
X63240500Y-3385922D01*
X63210720Y-3159717D01*
X63151669Y-2939334D01*
X63087688Y-2784871D01*
X63064361Y-2728553D01*
X63064353Y-2728537D01*
X62950282Y-2530962D01*
X62950278Y-2530955D01*
X62811385Y-2349946D01*
X62811380Y-2349940D01*
X62650059Y-2188619D01*
X62650052Y-2188613D01*
X62469053Y-2049728D01*
X62469051Y-2049726D01*
X62469045Y-2049722D01*
X62469040Y-2049719D01*
X62469037Y-2049717D01*
X62271462Y-1935646D01*
X62271446Y-1935638D01*
X62060666Y-1848331D01*
X61840283Y-1789280D01*
X61840277Y-1789279D01*
X61840272Y-1789278D01*
X61614079Y-1759500D01*
X61614078Y-1759500D01*
X61385922Y-1759500D01*
X61385921Y-1759500D01*
X61159727Y-1789278D01*
X61159720Y-1789279D01*
X61159717Y-1789280D01*
X61066567Y-1814239D01*
X60939333Y-1848331D01*
X60728553Y-1935638D01*
X60728537Y-1935646D01*
X60530962Y-2049717D01*
X60530946Y-2049728D01*
X60349947Y-2188613D01*
X60349940Y-2188619D01*
X60188619Y-2349940D01*
X60188613Y-2349947D01*
X60049728Y-2530946D01*
X60049717Y-2530962D01*
X59935646Y-2728537D01*
X59935638Y-2728553D01*
X59848331Y-2939333D01*
X59789281Y-3159714D01*
X59789278Y-3159727D01*
X59759500Y-3385921D01*
X46250500Y-3385921D01*
X46250500Y-3044457D01*
X46250500Y-3044454D01*
X46249713Y-3040500D01*
X46224925Y-2915881D01*
X46174758Y-2794768D01*
X46101928Y-2685768D01*
X46101926Y-2685766D01*
X46101924Y-2685763D01*
X46101923Y-2685762D01*
X45743470Y-2327310D01*
X45709985Y-2265987D01*
X45714969Y-2196296D01*
X45756840Y-2140362D01*
X45822305Y-2115945D01*
X45831151Y-2115629D01*
X59923311Y-2115629D01*
X59923311Y-524500D01*
X59942996Y-457461D01*
X59995800Y-411706D01*
X60047311Y-400500D01*
X64475500Y-400500D01*
X64542539Y-420185D01*
G37*
%TD.AperFunction*%
%TA.AperFunction,Conductor*%
G36*
X26354293Y-7329185D02*
G01*
X26400048Y-7381989D01*
X26409992Y-7451147D01*
X26380967Y-7514703D01*
X26374935Y-7521181D01*
X25556461Y-8339653D01*
X25556460Y-8339654D01*
X25483625Y-8448660D01*
X25431252Y-8575101D01*
X25404372Y-8615329D01*
X25115334Y-8904368D01*
X25054011Y-8937853D01*
X24984320Y-8932869D01*
X24939972Y-8904368D01*
X24885186Y-8849582D01*
X24885184Y-8849580D01*
X24745044Y-8747762D01*
X24737205Y-8743768D01*
X24590705Y-8669122D01*
X24503825Y-8640893D01*
X24446150Y-8601455D01*
X24418952Y-8537096D01*
X24430867Y-8468250D01*
X24454460Y-8435284D01*
X25543926Y-7345819D01*
X25605249Y-7312334D01*
X25631607Y-7309500D01*
X26287254Y-7309500D01*
X26354293Y-7329185D01*
G37*
%TD.AperFunction*%
%TA.AperFunction,Conductor*%
G36*
X41635662Y-6570344D02*
G01*
X41651899Y-6584013D01*
X42140705Y-7072819D01*
X42174190Y-7134142D01*
X42169206Y-7203834D01*
X42127334Y-7259767D01*
X42061870Y-7284184D01*
X42053024Y-7284500D01*
X41073494Y-7284500D01*
X41006455Y-7264815D01*
X40960700Y-7212011D01*
X40950756Y-7142853D01*
X40979781Y-7079297D01*
X41017200Y-7050015D01*
X41066275Y-7025010D01*
X41066274Y-7025010D01*
X41066277Y-7025009D01*
X41206417Y-6923191D01*
X41328903Y-6800705D01*
X41430721Y-6660565D01*
X41453734Y-6615398D01*
X41501706Y-6564604D01*
X41569526Y-6547808D01*
X41635662Y-6570344D01*
G37*
%TD.AperFunction*%
%TD*%
%TA.AperFunction,NonConductor*%
G36*
X43719727Y-420185D02*
G01*
X43765482Y-472989D01*
X43776688Y-524500D01*
X43776688Y-1061166D01*
X43757003Y-1128205D01*
X43704199Y-1173960D01*
X43635041Y-1183904D01*
X43571485Y-1154879D01*
X43565007Y-1148847D01*
X43028341Y-612181D01*
X42994856Y-550858D01*
X42999840Y-481166D01*
X43041712Y-425233D01*
X43107176Y-400816D01*
X43116022Y-400500D01*
X43652688Y-400500D01*
X43719727Y-420185D01*
G37*
%TD.AperFunction*%
%TA.AperFunction,NonConductor*%
G36*
X42505438Y-4603213D02*
G01*
X42506699Y-4604456D01*
X44650062Y-6747819D01*
X44683547Y-6809142D01*
X44678563Y-6878834D01*
X44636691Y-6934767D01*
X44571227Y-6959184D01*
X44562381Y-6959500D01*
X43961068Y-6959500D01*
X43894029Y-6939815D01*
X43873387Y-6923181D01*
X42044994Y-5094788D01*
X42011509Y-5033465D01*
X42016493Y-4963773D01*
X42058365Y-4907840D01*
X42059665Y-4906880D01*
X42094752Y-4881388D01*
X42217238Y-4758902D01*
X42318701Y-4619249D01*
X42374030Y-4576586D01*
X42443643Y-4570607D01*
X42505438Y-4603213D01*
G37*
%TD.AperFunction*%
%TA.AperFunction,NonConductor*%
G36*
X33293236Y-10638696D02*
G01*
X33338991Y-10691500D01*
X33348935Y-10760658D01*
X33348677Y-10762362D01*
X33337980Y-10829899D01*
X33308052Y-10893032D01*
X33248741Y-10929964D01*
X33215508Y-10934500D01*
X30556433Y-10934500D01*
X30532721Y-10927537D01*
X30508164Y-10924720D01*
X30499780Y-10917864D01*
X30489394Y-10914815D01*
X30473212Y-10896140D01*
X30454075Y-10880492D01*
X30446758Y-10865610D01*
X30443639Y-10862011D01*
X30438502Y-10848819D01*
X30416572Y-10781327D01*
X30414578Y-10711489D01*
X30450658Y-10651656D01*
X30513358Y-10620827D01*
X30534504Y-10619011D01*
X33226197Y-10619011D01*
X33293236Y-10638696D01*
G37*
%TD.AperFunction*%
%TA.AperFunction,NonConductor*%
G36*
X42087319Y-9696305D02*
G01*
X42107961Y-9712939D01*
X42656944Y-10261923D01*
X42656945Y-10261924D01*
X42656948Y-10261926D01*
X42656950Y-10261928D01*
X42765950Y-10334758D01*
X42887063Y-10384925D01*
X42887067Y-10384925D01*
X42887068Y-10384926D01*
X43015632Y-10410500D01*
X43015635Y-10410500D01*
X43015636Y-10410500D01*
X43426442Y-10410500D01*
X43493481Y-10430185D01*
X43514123Y-10446819D01*
X44497281Y-11429977D01*
X44530766Y-11491300D01*
X44525782Y-11560992D01*
X44483910Y-11616925D01*
X44428998Y-11640131D01*
X44350877Y-11652504D01*
X44186127Y-11706035D01*
X44031786Y-11784675D01*
X43951831Y-11842766D01*
X43891647Y-11886493D01*
X43891645Y-11886495D01*
X43891644Y-11886495D01*
X43769163Y-12008976D01*
X43769163Y-12008977D01*
X43769161Y-12008979D01*
X43768513Y-12009870D01*
X43768181Y-12010125D01*
X43765997Y-12012684D01*
X43765459Y-12012224D01*
X43713183Y-12052533D01*
X43668199Y-12060980D01*
X42888857Y-12060980D01*
X42821818Y-12041295D01*
X42776063Y-11988491D01*
X42766119Y-11919333D01*
X42774294Y-11889532D01*
X42775156Y-11887446D01*
X42775163Y-11887434D01*
X42828692Y-11722690D01*
X42855790Y-11551600D01*
X42855790Y-11378378D01*
X42828692Y-11207288D01*
X42775163Y-11042544D01*
X42696522Y-10888201D01*
X42594704Y-10748061D01*
X42472218Y-10625575D01*
X42332078Y-10523757D01*
X42177735Y-10445116D01*
X42012991Y-10391587D01*
X42012989Y-10391586D01*
X42012988Y-10391586D01*
X41881561Y-10370770D01*
X41841901Y-10364489D01*
X41668679Y-10364489D01*
X41629018Y-10370770D01*
X41497592Y-10391586D01*
X41332842Y-10445117D01*
X41178501Y-10523757D01*
X41113607Y-10570906D01*
X41038362Y-10625575D01*
X41038360Y-10625577D01*
X41038359Y-10625577D01*
X40915875Y-10748061D01*
X40896363Y-10774918D01*
X40841033Y-10817583D01*
X40796046Y-10826031D01*
X38036663Y-10826031D01*
X37969624Y-10806346D01*
X37923869Y-10753542D01*
X37913925Y-10684384D01*
X37918732Y-10663713D01*
X37931123Y-10625577D01*
X37948886Y-10570909D01*
X37975984Y-10399819D01*
X37975984Y-10226597D01*
X37948886Y-10055507D01*
X37895357Y-9890763D01*
X37895354Y-9890757D01*
X37878111Y-9856914D01*
X37865215Y-9788245D01*
X37891492Y-9723505D01*
X37948598Y-9683248D01*
X37988596Y-9676620D01*
X42020280Y-9676620D01*
X42087319Y-9696305D01*
G37*
%TD.AperFunction*%
%TA.AperFunction,NonConductor*%
G36*
X55323474Y-14345558D02*
G01*
X55326379Y-14345301D01*
X55332749Y-14345647D01*
X55363389Y-14350500D01*
X55422097Y-14350500D01*
X55425466Y-14350683D01*
X55455357Y-14361251D01*
X55485780Y-14370185D01*
X55488057Y-14372813D01*
X55491339Y-14373974D01*
X55510776Y-14399031D01*
X55531535Y-14422989D01*
X55532030Y-14426432D01*
X55534163Y-14429182D01*
X55536966Y-14460763D01*
X55541479Y-14492147D01*
X55540033Y-14495312D01*
X55540341Y-14498778D01*
X55520401Y-14544320D01*
X55520686Y-14544495D01*
X55519421Y-14546559D01*
X55519060Y-14547384D01*
X55518141Y-14548647D01*
X55425244Y-14730968D01*
X55373047Y-14891614D01*
X55333609Y-14949289D01*
X55269250Y-14976487D01*
X55200404Y-14964572D01*
X55148928Y-14917328D01*
X55137186Y-14891615D01*
X55109873Y-14807555D01*
X55031232Y-14653212D01*
X55017635Y-14634498D01*
X54994156Y-14568693D01*
X55009981Y-14500639D01*
X55060087Y-14451944D01*
X55088354Y-14441915D01*
X55088287Y-14441694D01*
X55093050Y-14440248D01*
X55093764Y-14439995D01*
X55094119Y-14439925D01*
X55215232Y-14389758D01*
X55250764Y-14366016D01*
X55271932Y-14359387D01*
X55291223Y-14348421D01*
X55313176Y-14346472D01*
X55317439Y-14345138D01*
X55323474Y-14345558D01*
G37*
%TD.AperFunction*%
%TA.AperFunction,NonConductor*%
G36*
X25067839Y-14699996D02*
G01*
X25113594Y-14752800D01*
X25123538Y-14821958D01*
X25118731Y-14842625D01*
X25094459Y-14917328D01*
X25076597Y-14972302D01*
X25049500Y-15143389D01*
X25049500Y-16716610D01*
X25075934Y-16883512D01*
X25076598Y-16887701D01*
X25130127Y-17052445D01*
X25208768Y-17206788D01*
X25310586Y-17346928D01*
X25310588Y-17346930D01*
X25433072Y-17469414D01*
X25474733Y-17499683D01*
X25517398Y-17555013D01*
X25523376Y-17624627D01*
X25490769Y-17686421D01*
X25474733Y-17700317D01*
X25433072Y-17730585D01*
X25310588Y-17853069D01*
X25310588Y-17853070D01*
X25310586Y-17853072D01*
X25266859Y-17913256D01*
X25208768Y-17993211D01*
X25130128Y-18147552D01*
X25076597Y-18312302D01*
X25049500Y-18483389D01*
X25049500Y-20056611D01*
X25049499Y-20056611D01*
X25077057Y-20230605D01*
X25073675Y-20256773D01*
X25074068Y-20283162D01*
X25069267Y-20290882D01*
X25068102Y-20299898D01*
X25051108Y-20320084D01*
X25037173Y-20342496D01*
X25028960Y-20346395D01*
X25023106Y-20353350D01*
X24997896Y-20361144D01*
X24974056Y-20372464D01*
X24961273Y-20372467D01*
X24956354Y-20373989D01*
X24938766Y-20372989D01*
X24936958Y-20372756D01*
X24826111Y-20355200D01*
X24800451Y-20355200D01*
X24792575Y-20354187D01*
X24767558Y-20343209D01*
X24741354Y-20335515D01*
X24736035Y-20329376D01*
X24728595Y-20326112D01*
X24713484Y-20303351D01*
X24695599Y-20282711D01*
X24694442Y-20274670D01*
X24689949Y-20267902D01*
X24689542Y-20240588D01*
X24685655Y-20213553D01*
X24685920Y-20211802D01*
X24710500Y-20056610D01*
X24710500Y-18483389D01*
X24689473Y-18350632D01*
X24683402Y-18312299D01*
X24629873Y-18147555D01*
X24551232Y-17993212D01*
X24449414Y-17853072D01*
X24326928Y-17730586D01*
X24285265Y-17700316D01*
X24242602Y-17644988D01*
X24236623Y-17575374D01*
X24269229Y-17513579D01*
X24285266Y-17499683D01*
X24326928Y-17469414D01*
X24449414Y-17346928D01*
X24551232Y-17206788D01*
X24629873Y-17052445D01*
X24683402Y-16887701D01*
X24710500Y-16716611D01*
X24710500Y-15143389D01*
X24683402Y-14972299D01*
X24641268Y-14842627D01*
X24640465Y-14814509D01*
X24636462Y-14786664D01*
X24639481Y-14780052D01*
X24639274Y-14772788D01*
X24653800Y-14748698D01*
X24665487Y-14723108D01*
X24671600Y-14719178D01*
X24675354Y-14712955D01*
X24700600Y-14700542D01*
X24724265Y-14685334D01*
X24734535Y-14683857D01*
X24738055Y-14682127D01*
X24759200Y-14680311D01*
X25000800Y-14680311D01*
X25067839Y-14699996D01*
G37*
%TD.AperFunction*%
%TA.AperFunction,NonConductor*%
G36*
X47473206Y-14387445D02*
G01*
X47474123Y-14387280D01*
X47508320Y-14396007D01*
X47614345Y-14439925D01*
X47614349Y-14439925D01*
X47614350Y-14439926D01*
X47742914Y-14465500D01*
X47742917Y-14465500D01*
X47742918Y-14465500D01*
X47962380Y-14465500D01*
X48029419Y-14485185D01*
X48075174Y-14537989D01*
X48085118Y-14607147D01*
X48070204Y-14648476D01*
X48070980Y-14648871D01*
X48068769Y-14653210D01*
X48068768Y-14653212D01*
X48054090Y-14682019D01*
X47990128Y-14807552D01*
X47990127Y-14807554D01*
X47990127Y-14807555D01*
X47985447Y-14821958D01*
X47936597Y-14972302D01*
X47909500Y-15143389D01*
X47909500Y-16716610D01*
X47935934Y-16883512D01*
X47936598Y-16887701D01*
X47990127Y-17052445D01*
X48068768Y-17206788D01*
X48170586Y-17346928D01*
X48170588Y-17346930D01*
X48293072Y-17469414D01*
X48334733Y-17499683D01*
X48377398Y-17555013D01*
X48383376Y-17624627D01*
X48350769Y-17686421D01*
X48334733Y-17700317D01*
X48293072Y-17730585D01*
X48170588Y-17853069D01*
X48170588Y-17853070D01*
X48170586Y-17853072D01*
X48126859Y-17913256D01*
X48068768Y-17993211D01*
X47990128Y-18147552D01*
X47936597Y-18312302D01*
X47927459Y-18370000D01*
X47909500Y-18483389D01*
X47909500Y-20056611D01*
X47936597Y-20227697D01*
X47937137Y-20231102D01*
X47934853Y-20248768D01*
X47937645Y-20266367D01*
X47930468Y-20282704D01*
X47928182Y-20300395D01*
X47916710Y-20314022D01*
X47909544Y-20330336D01*
X47894674Y-20340199D01*
X47883186Y-20353847D01*
X47866159Y-20359113D01*
X47851319Y-20368958D01*
X47818096Y-20373980D01*
X47816461Y-20374487D01*
X47815564Y-20374500D01*
X47688389Y-20374500D01*
X47675580Y-20376528D01*
X47666727Y-20376657D01*
X47641253Y-20369576D01*
X47615030Y-20366187D01*
X47608115Y-20360366D01*
X47599409Y-20357946D01*
X47581805Y-20338215D01*
X47561580Y-20321188D01*
X47558911Y-20312555D01*
X47552894Y-20305811D01*
X47548751Y-20279693D01*
X47540943Y-20254436D01*
X47542513Y-20240363D01*
X47541949Y-20236803D01*
X47543238Y-20233867D01*
X47543376Y-20232629D01*
X47542640Y-20232513D01*
X47570500Y-20056610D01*
X47570500Y-18483389D01*
X47549473Y-18350632D01*
X47543402Y-18312299D01*
X47489873Y-18147555D01*
X47411232Y-17993212D01*
X47309414Y-17853072D01*
X47186928Y-17730586D01*
X47145265Y-17700316D01*
X47102602Y-17644988D01*
X47096623Y-17575374D01*
X47129229Y-17513579D01*
X47145266Y-17499683D01*
X47186928Y-17469414D01*
X47309414Y-17346928D01*
X47411232Y-17206788D01*
X47489873Y-17052445D01*
X47543402Y-16887701D01*
X47570500Y-16716611D01*
X47570500Y-15143389D01*
X47543402Y-14972299D01*
X47489873Y-14807555D01*
X47411232Y-14653212D01*
X47360549Y-14583453D01*
X47360085Y-14582154D01*
X47359012Y-14581289D01*
X47348387Y-14549368D01*
X47337070Y-14517649D01*
X47337382Y-14516304D01*
X47336947Y-14514995D01*
X47345271Y-14482379D01*
X47352895Y-14449595D01*
X47353884Y-14448633D01*
X47354226Y-14447295D01*
X47378876Y-14424344D01*
X47403001Y-14400900D01*
X47404353Y-14400625D01*
X47405364Y-14399685D01*
X47438492Y-14393708D01*
X47471479Y-14387024D01*
X47473206Y-14387445D01*
G37*
%TD.AperFunction*%
%TA.AperFunction,NonConductor*%
G36*
X27625540Y-14649185D02*
G01*
X27671295Y-14701989D01*
X27681239Y-14771147D01*
X27671223Y-14802726D01*
X27671994Y-14803046D01*
X27670129Y-14807547D01*
X27616597Y-14972302D01*
X27589500Y-15143389D01*
X27589500Y-16716610D01*
X27615934Y-16883512D01*
X27616598Y-16887701D01*
X27670127Y-17052445D01*
X27748768Y-17206788D01*
X27850586Y-17346928D01*
X27850588Y-17346930D01*
X27973072Y-17469414D01*
X28014733Y-17499683D01*
X28057398Y-17555013D01*
X28063376Y-17624627D01*
X28030769Y-17686421D01*
X28014733Y-17700317D01*
X27973072Y-17730585D01*
X27850588Y-17853069D01*
X27850588Y-17853070D01*
X27850586Y-17853072D01*
X27806859Y-17913256D01*
X27748768Y-17993211D01*
X27670128Y-18147552D01*
X27616597Y-18312302D01*
X27589500Y-18483389D01*
X27589500Y-20056610D01*
X27616597Y-20227698D01*
X27639174Y-20297182D01*
X27639977Y-20325301D01*
X27643981Y-20353147D01*
X27640961Y-20359758D01*
X27641169Y-20367023D01*
X27626642Y-20391112D01*
X27614956Y-20416703D01*
X27608842Y-20420632D01*
X27605089Y-20426856D01*
X27579842Y-20439268D01*
X27556178Y-20454477D01*
X27545907Y-20455953D01*
X27542388Y-20457684D01*
X27521243Y-20459500D01*
X27318757Y-20459500D01*
X27251718Y-20439815D01*
X27205963Y-20387011D01*
X27196019Y-20317853D01*
X27200826Y-20297182D01*
X27205530Y-20282704D01*
X27223402Y-20227701D01*
X27250500Y-20056611D01*
X27250500Y-18483389D01*
X27223402Y-18312299D01*
X27169873Y-18147555D01*
X27091232Y-17993212D01*
X26989414Y-17853072D01*
X26866928Y-17730586D01*
X26825265Y-17700316D01*
X26782602Y-17644988D01*
X26776623Y-17575374D01*
X26809229Y-17513579D01*
X26825266Y-17499683D01*
X26866928Y-17469414D01*
X26989414Y-17346928D01*
X27091232Y-17206788D01*
X27169873Y-17052445D01*
X27223402Y-16887701D01*
X27250500Y-16716611D01*
X27250500Y-15143389D01*
X27223402Y-14972299D01*
X27169873Y-14807555D01*
X27169871Y-14807552D01*
X27169870Y-14807547D01*
X27168006Y-14803046D01*
X27169626Y-14802374D01*
X27158116Y-14741148D01*
X27184380Y-14676403D01*
X27241479Y-14636136D01*
X27281499Y-14629500D01*
X27558501Y-14629500D01*
X27625540Y-14649185D01*
G37*
%TD.AperFunction*%
%TA.AperFunction,NonConductor*%
G36*
X45422627Y-14615648D02*
G01*
X45468382Y-14668452D01*
X45478326Y-14737610D01*
X45466073Y-14776257D01*
X45450129Y-14807549D01*
X45450127Y-14807554D01*
X45450127Y-14807555D01*
X45445447Y-14821958D01*
X45396597Y-14972302D01*
X45369500Y-15143389D01*
X45369500Y-16716610D01*
X45395934Y-16883512D01*
X45396598Y-16887701D01*
X45450127Y-17052445D01*
X45528768Y-17206788D01*
X45630586Y-17346928D01*
X45630588Y-17346930D01*
X45753072Y-17469414D01*
X45794733Y-17499683D01*
X45837398Y-17555013D01*
X45843376Y-17624627D01*
X45810769Y-17686421D01*
X45794733Y-17700317D01*
X45753072Y-17730585D01*
X45630588Y-17853069D01*
X45630588Y-17853070D01*
X45630586Y-17853072D01*
X45586859Y-17913256D01*
X45528768Y-17993211D01*
X45450128Y-18147552D01*
X45396597Y-18312302D01*
X45369500Y-18483389D01*
X45369500Y-20056610D01*
X45396597Y-20227697D01*
X45396597Y-20227699D01*
X45396598Y-20227701D01*
X45409660Y-20267902D01*
X45450129Y-20392452D01*
X45451994Y-20396954D01*
X45450373Y-20397625D01*
X45461884Y-20458852D01*
X45435620Y-20523597D01*
X45378521Y-20563864D01*
X45338501Y-20570500D01*
X45061499Y-20570500D01*
X44994460Y-20550815D01*
X44948705Y-20498011D01*
X44938761Y-20428853D01*
X44948776Y-20397273D01*
X44948006Y-20396954D01*
X44949870Y-20392452D01*
X44949872Y-20392447D01*
X44949873Y-20392445D01*
X45003402Y-20227701D01*
X45030500Y-20056611D01*
X45030500Y-18483389D01*
X45003402Y-18312299D01*
X44949873Y-18147555D01*
X44871232Y-17993212D01*
X44769414Y-17853072D01*
X44646928Y-17730586D01*
X44605265Y-17700316D01*
X44562602Y-17644988D01*
X44556623Y-17575374D01*
X44589229Y-17513579D01*
X44605266Y-17499683D01*
X44646928Y-17469414D01*
X44769414Y-17346928D01*
X44871232Y-17206788D01*
X44949873Y-17052445D01*
X45003402Y-16887701D01*
X45030500Y-16716611D01*
X45030500Y-15143389D01*
X45003402Y-14972299D01*
X44949873Y-14807555D01*
X44939229Y-14786664D01*
X44933927Y-14776257D01*
X44921031Y-14707587D01*
X44947308Y-14642847D01*
X45004415Y-14602591D01*
X45044412Y-14595963D01*
X45355588Y-14595963D01*
X45422627Y-14615648D01*
G37*
%TD.AperFunction*%
%TA.AperFunction,NonConductor*%
G36*
X42821652Y-14338588D02*
G01*
X42849897Y-14343760D01*
X42857615Y-14349149D01*
X42861144Y-14350185D01*
X42874403Y-14360869D01*
X42878836Y-14363964D01*
X42880317Y-14365350D01*
X42962357Y-14447390D01*
X42982006Y-14460519D01*
X42989412Y-14467450D01*
X43024908Y-14527631D01*
X43022234Y-14597450D01*
X43004999Y-14630871D01*
X42988775Y-14653201D01*
X42988769Y-14653210D01*
X42910128Y-14807552D01*
X42910127Y-14807554D01*
X42910127Y-14807555D01*
X42905447Y-14821958D01*
X42856597Y-14972302D01*
X42829500Y-15143389D01*
X42829500Y-16716610D01*
X42855934Y-16883512D01*
X42856598Y-16887701D01*
X42910127Y-17052445D01*
X42988768Y-17206788D01*
X43090586Y-17346928D01*
X43090588Y-17346930D01*
X43213072Y-17469414D01*
X43254733Y-17499683D01*
X43297398Y-17555013D01*
X43303376Y-17624627D01*
X43270769Y-17686421D01*
X43254733Y-17700317D01*
X43213072Y-17730585D01*
X43090588Y-17853069D01*
X43090588Y-17853070D01*
X43090586Y-17853072D01*
X43046859Y-17913256D01*
X42988768Y-17993211D01*
X42910128Y-18147552D01*
X42856597Y-18312302D01*
X42829500Y-18483389D01*
X42829500Y-20056610D01*
X42856597Y-20227697D01*
X42856597Y-20227699D01*
X42856598Y-20227701D01*
X42869660Y-20267902D01*
X42910129Y-20392452D01*
X42911994Y-20396954D01*
X42910373Y-20397625D01*
X42921884Y-20458852D01*
X42895620Y-20523597D01*
X42838521Y-20563864D01*
X42798501Y-20570500D01*
X42521499Y-20570500D01*
X42454460Y-20550815D01*
X42408705Y-20498011D01*
X42398761Y-20428853D01*
X42408776Y-20397273D01*
X42408006Y-20396954D01*
X42409870Y-20392452D01*
X42409872Y-20392447D01*
X42409873Y-20392445D01*
X42463402Y-20227701D01*
X42490500Y-20056611D01*
X42490500Y-18483389D01*
X42463402Y-18312299D01*
X42409873Y-18147555D01*
X42331232Y-17993212D01*
X42229414Y-17853072D01*
X42106928Y-17730586D01*
X42065265Y-17700316D01*
X42022602Y-17644988D01*
X42016623Y-17575374D01*
X42049229Y-17513579D01*
X42065266Y-17499683D01*
X42106928Y-17469414D01*
X42229414Y-17346928D01*
X42331232Y-17206788D01*
X42409873Y-17052445D01*
X42463402Y-16887701D01*
X42490500Y-16716611D01*
X42490500Y-15143389D01*
X42463402Y-14972299D01*
X42409873Y-14807555D01*
X42331232Y-14653212D01*
X42239812Y-14527383D01*
X42216333Y-14461580D01*
X42232158Y-14393526D01*
X42282264Y-14344831D01*
X42340131Y-14330500D01*
X42794105Y-14330500D01*
X42821652Y-14338588D01*
G37*
%TD.AperFunction*%
%TA.AperFunction,NonConductor*%
G36*
X40451950Y-14334047D02*
G01*
X40464495Y-14332970D01*
X40484840Y-14343705D01*
X40506908Y-14350185D01*
X40515151Y-14359699D01*
X40526290Y-14365576D01*
X40537602Y-14385608D01*
X40552663Y-14402989D01*
X40554454Y-14415449D01*
X40560647Y-14426415D01*
X40559333Y-14449380D01*
X40562607Y-14472147D01*
X40557280Y-14485270D01*
X40556657Y-14496171D01*
X40540189Y-14527382D01*
X40518922Y-14556654D01*
X40448768Y-14653211D01*
X40370128Y-14807552D01*
X40370127Y-14807554D01*
X40370127Y-14807555D01*
X40365447Y-14821958D01*
X40316597Y-14972302D01*
X40289500Y-15143389D01*
X40289500Y-16716610D01*
X40315934Y-16883512D01*
X40316598Y-16887701D01*
X40370127Y-17052445D01*
X40448768Y-17206788D01*
X40550586Y-17346928D01*
X40550588Y-17346930D01*
X40673072Y-17469414D01*
X40714733Y-17499683D01*
X40757398Y-17555013D01*
X40763376Y-17624627D01*
X40730769Y-17686421D01*
X40714733Y-17700317D01*
X40673072Y-17730585D01*
X40550588Y-17853069D01*
X40550588Y-17853070D01*
X40550586Y-17853072D01*
X40506859Y-17913256D01*
X40448768Y-17993211D01*
X40370128Y-18147552D01*
X40316597Y-18312302D01*
X40289500Y-18483389D01*
X40289500Y-20056610D01*
X40316597Y-20227697D01*
X40316597Y-20227699D01*
X40316598Y-20227701D01*
X40329660Y-20267902D01*
X40370129Y-20392452D01*
X40371994Y-20396954D01*
X40370373Y-20397625D01*
X40381884Y-20458852D01*
X40355620Y-20523597D01*
X40298521Y-20563864D01*
X40258501Y-20570500D01*
X39981499Y-20570500D01*
X39914460Y-20550815D01*
X39868705Y-20498011D01*
X39858761Y-20428853D01*
X39868776Y-20397273D01*
X39868006Y-20396954D01*
X39869870Y-20392452D01*
X39869872Y-20392447D01*
X39869873Y-20392445D01*
X39923402Y-20227701D01*
X39950500Y-20056611D01*
X39950500Y-18483389D01*
X39923402Y-18312299D01*
X39869873Y-18147555D01*
X39791232Y-17993212D01*
X39689414Y-17853072D01*
X39566928Y-17730586D01*
X39525265Y-17700316D01*
X39482602Y-17644988D01*
X39476623Y-17575374D01*
X39509229Y-17513579D01*
X39525266Y-17499683D01*
X39566928Y-17469414D01*
X39689414Y-17346928D01*
X39791232Y-17206788D01*
X39869873Y-17052445D01*
X39923402Y-16887701D01*
X39950500Y-16716611D01*
X39950500Y-15143389D01*
X39923402Y-14972299D01*
X39869873Y-14807555D01*
X39791232Y-14653212D01*
X39699812Y-14527383D01*
X39676333Y-14461580D01*
X39692158Y-14393526D01*
X39742264Y-14344831D01*
X39800131Y-14330500D01*
X40439869Y-14330500D01*
X40451950Y-14334047D01*
G37*
%TD.AperFunction*%
%TA.AperFunction,NonConductor*%
G36*
X37966908Y-14350185D02*
G01*
X38012663Y-14402989D01*
X38022607Y-14472147D01*
X38000187Y-14527383D01*
X37978922Y-14556654D01*
X37908768Y-14653211D01*
X37830128Y-14807552D01*
X37830127Y-14807554D01*
X37830127Y-14807555D01*
X37825447Y-14821958D01*
X37776597Y-14972302D01*
X37749500Y-15143389D01*
X37749500Y-16716610D01*
X37775934Y-16883512D01*
X37776598Y-16887701D01*
X37830127Y-17052445D01*
X37908768Y-17206788D01*
X38010586Y-17346928D01*
X38010588Y-17346930D01*
X38133072Y-17469414D01*
X38174733Y-17499683D01*
X38217398Y-17555013D01*
X38223376Y-17624627D01*
X38190769Y-17686421D01*
X38174733Y-17700317D01*
X38133072Y-17730585D01*
X38010588Y-17853069D01*
X38010588Y-17853070D01*
X38010586Y-17853072D01*
X37966859Y-17913256D01*
X37908768Y-17993211D01*
X37830128Y-18147552D01*
X37776597Y-18312302D01*
X37749500Y-18483389D01*
X37749500Y-20056610D01*
X37776597Y-20227697D01*
X37776597Y-20227699D01*
X37776598Y-20227701D01*
X37789660Y-20267902D01*
X37830129Y-20392452D01*
X37831994Y-20396954D01*
X37830373Y-20397625D01*
X37841884Y-20458852D01*
X37815620Y-20523597D01*
X37758521Y-20563864D01*
X37718501Y-20570500D01*
X37441499Y-20570500D01*
X37374460Y-20550815D01*
X37328705Y-20498011D01*
X37318761Y-20428853D01*
X37328776Y-20397273D01*
X37328006Y-20396954D01*
X37329870Y-20392452D01*
X37329872Y-20392447D01*
X37329873Y-20392445D01*
X37383402Y-20227701D01*
X37410500Y-20056611D01*
X37410500Y-18483389D01*
X37383402Y-18312299D01*
X37329873Y-18147555D01*
X37251232Y-17993212D01*
X37149414Y-17853072D01*
X37026928Y-17730586D01*
X36985265Y-17700316D01*
X36942602Y-17644988D01*
X36936623Y-17575374D01*
X36969229Y-17513579D01*
X36985266Y-17499683D01*
X37026928Y-17469414D01*
X37149414Y-17346928D01*
X37251232Y-17206788D01*
X37329873Y-17052445D01*
X37383402Y-16887701D01*
X37410500Y-16716611D01*
X37410500Y-15143389D01*
X37383402Y-14972299D01*
X37329873Y-14807555D01*
X37251232Y-14653212D01*
X37159812Y-14527383D01*
X37136333Y-14461580D01*
X37152158Y-14393526D01*
X37202264Y-14344831D01*
X37260131Y-14330500D01*
X37899869Y-14330500D01*
X37966908Y-14350185D01*
G37*
%TD.AperFunction*%
%TA.AperFunction,NonConductor*%
G36*
X35332650Y-14467912D02*
G01*
X35381345Y-14518017D01*
X35395221Y-14586495D01*
X35371998Y-14648766D01*
X35368768Y-14653211D01*
X35290128Y-14807552D01*
X35290127Y-14807554D01*
X35290127Y-14807555D01*
X35285447Y-14821958D01*
X35236597Y-14972302D01*
X35209500Y-15143389D01*
X35209500Y-16716610D01*
X35235934Y-16883512D01*
X35236598Y-16887701D01*
X35290127Y-17052445D01*
X35368768Y-17206788D01*
X35470586Y-17346928D01*
X35470588Y-17346930D01*
X35593072Y-17469414D01*
X35634733Y-17499683D01*
X35677398Y-17555013D01*
X35683376Y-17624627D01*
X35650769Y-17686421D01*
X35634733Y-17700317D01*
X35593072Y-17730585D01*
X35470588Y-17853069D01*
X35470588Y-17853070D01*
X35470586Y-17853072D01*
X35426859Y-17913256D01*
X35368768Y-17993211D01*
X35290128Y-18147552D01*
X35236597Y-18312302D01*
X35209500Y-18483389D01*
X35209500Y-20056610D01*
X35236597Y-20227697D01*
X35236597Y-20227699D01*
X35236598Y-20227701D01*
X35249660Y-20267902D01*
X35290129Y-20392452D01*
X35291994Y-20396954D01*
X35290373Y-20397625D01*
X35301884Y-20458852D01*
X35275620Y-20523597D01*
X35218521Y-20563864D01*
X35178501Y-20570500D01*
X34901499Y-20570500D01*
X34834460Y-20550815D01*
X34788705Y-20498011D01*
X34778761Y-20428853D01*
X34788776Y-20397273D01*
X34788006Y-20396954D01*
X34789870Y-20392452D01*
X34789872Y-20392447D01*
X34789873Y-20392445D01*
X34843402Y-20227701D01*
X34870500Y-20056611D01*
X34870500Y-18483389D01*
X34843402Y-18312299D01*
X34789873Y-18147555D01*
X34711232Y-17993212D01*
X34609414Y-17853072D01*
X34486928Y-17730586D01*
X34445265Y-17700316D01*
X34402602Y-17644988D01*
X34396623Y-17575374D01*
X34429229Y-17513579D01*
X34445266Y-17499683D01*
X34486928Y-17469414D01*
X34609414Y-17346928D01*
X34711232Y-17206788D01*
X34789873Y-17052445D01*
X34843402Y-16887701D01*
X34870500Y-16716611D01*
X34870500Y-15143389D01*
X34843402Y-14972299D01*
X34791216Y-14811691D01*
X34789222Y-14741852D01*
X34825302Y-14682019D01*
X34870827Y-14655445D01*
X34932841Y-14635296D01*
X35087184Y-14556655D01*
X35198793Y-14475565D01*
X35264596Y-14452087D01*
X35332650Y-14467912D01*
G37*
%TD.AperFunction*%
%TA.AperFunction,NonConductor*%
G36*
X32506674Y-14632622D02*
G01*
X32516557Y-14631631D01*
X32549964Y-14643014D01*
X32588195Y-14662494D01*
X32659365Y-14685618D01*
X32717040Y-14725056D01*
X32744238Y-14789414D01*
X32738977Y-14841866D01*
X32696598Y-14972297D01*
X32696597Y-14972301D01*
X32669500Y-15143389D01*
X32669500Y-16716610D01*
X32695934Y-16883512D01*
X32696598Y-16887701D01*
X32750127Y-17052445D01*
X32828768Y-17206788D01*
X32930586Y-17346928D01*
X32930588Y-17346930D01*
X33053072Y-17469414D01*
X33094733Y-17499683D01*
X33137398Y-17555013D01*
X33143376Y-17624627D01*
X33110769Y-17686421D01*
X33094733Y-17700317D01*
X33053072Y-17730585D01*
X32930588Y-17853069D01*
X32930588Y-17853070D01*
X32930586Y-17853072D01*
X32886859Y-17913256D01*
X32828768Y-17993211D01*
X32750128Y-18147552D01*
X32696597Y-18312302D01*
X32669500Y-18483389D01*
X32669500Y-20056610D01*
X32696597Y-20227697D01*
X32696597Y-20227699D01*
X32696598Y-20227701D01*
X32709660Y-20267902D01*
X32750129Y-20392452D01*
X32751994Y-20396954D01*
X32750373Y-20397625D01*
X32761884Y-20458852D01*
X32735620Y-20523597D01*
X32678521Y-20563864D01*
X32638501Y-20570500D01*
X32361499Y-20570500D01*
X32294460Y-20550815D01*
X32248705Y-20498011D01*
X32238761Y-20428853D01*
X32248776Y-20397273D01*
X32248006Y-20396954D01*
X32249870Y-20392452D01*
X32249872Y-20392447D01*
X32249873Y-20392445D01*
X32303402Y-20227701D01*
X32330500Y-20056611D01*
X32330500Y-18483389D01*
X32303402Y-18312299D01*
X32249873Y-18147555D01*
X32171232Y-17993212D01*
X32069414Y-17853072D01*
X31946928Y-17730586D01*
X31905265Y-17700316D01*
X31862602Y-17644988D01*
X31856623Y-17575374D01*
X31889229Y-17513579D01*
X31905266Y-17499683D01*
X31946928Y-17469414D01*
X32069414Y-17346928D01*
X32171232Y-17206788D01*
X32249873Y-17052445D01*
X32303402Y-16887701D01*
X32330500Y-16716611D01*
X32330500Y-15143389D01*
X32303402Y-14972299D01*
X32249873Y-14807555D01*
X32249871Y-14807552D01*
X32249870Y-14807547D01*
X32248006Y-14803046D01*
X32249626Y-14802374D01*
X32238116Y-14741148D01*
X32264380Y-14676403D01*
X32321479Y-14636136D01*
X32361499Y-14629500D01*
X32493670Y-14629500D01*
X32506674Y-14632622D01*
G37*
%TD.AperFunction*%
%TA.AperFunction,NonConductor*%
G36*
X30165540Y-14649185D02*
G01*
X30211295Y-14701989D01*
X30221239Y-14771147D01*
X30211223Y-14802726D01*
X30211994Y-14803046D01*
X30210129Y-14807547D01*
X30156597Y-14972302D01*
X30129500Y-15143389D01*
X30129500Y-16716610D01*
X30155934Y-16883512D01*
X30156598Y-16887701D01*
X30210127Y-17052445D01*
X30288768Y-17206788D01*
X30390586Y-17346928D01*
X30390588Y-17346930D01*
X30513072Y-17469414D01*
X30554733Y-17499683D01*
X30597398Y-17555013D01*
X30603376Y-17624627D01*
X30570769Y-17686421D01*
X30554733Y-17700317D01*
X30513072Y-17730585D01*
X30390588Y-17853069D01*
X30390588Y-17853070D01*
X30390586Y-17853072D01*
X30346859Y-17913256D01*
X30288768Y-17993211D01*
X30210128Y-18147552D01*
X30156597Y-18312302D01*
X30129500Y-18483389D01*
X30129500Y-20056610D01*
X30156597Y-20227697D01*
X30156597Y-20227699D01*
X30156598Y-20227701D01*
X30169660Y-20267902D01*
X30210129Y-20392452D01*
X30211994Y-20396954D01*
X30210373Y-20397625D01*
X30221884Y-20458852D01*
X30195620Y-20523597D01*
X30138521Y-20563864D01*
X30098501Y-20570500D01*
X29821499Y-20570500D01*
X29754460Y-20550815D01*
X29708705Y-20498011D01*
X29698761Y-20428853D01*
X29708776Y-20397273D01*
X29708006Y-20396954D01*
X29709870Y-20392452D01*
X29709872Y-20392447D01*
X29709873Y-20392445D01*
X29763402Y-20227701D01*
X29790500Y-20056611D01*
X29790500Y-18483389D01*
X29763402Y-18312299D01*
X29709873Y-18147555D01*
X29631232Y-17993212D01*
X29529414Y-17853072D01*
X29406928Y-17730586D01*
X29365265Y-17700316D01*
X29322602Y-17644988D01*
X29316623Y-17575374D01*
X29349229Y-17513579D01*
X29365266Y-17499683D01*
X29406928Y-17469414D01*
X29529414Y-17346928D01*
X29631232Y-17206788D01*
X29709873Y-17052445D01*
X29763402Y-16887701D01*
X29790500Y-16716611D01*
X29790500Y-15143389D01*
X29763402Y-14972299D01*
X29709873Y-14807555D01*
X29709871Y-14807552D01*
X29709870Y-14807547D01*
X29708006Y-14803046D01*
X29709626Y-14802374D01*
X29698116Y-14741148D01*
X29724380Y-14676403D01*
X29781479Y-14636136D01*
X29821499Y-14629500D01*
X30098501Y-14629500D01*
X30165540Y-14649185D01*
G37*
%TD.AperFunction*%
%TA.AperFunction,NonConductor*%
G36*
X50569419Y-14485185D02*
G01*
X50615174Y-14537989D01*
X50625118Y-14607147D01*
X50610204Y-14648476D01*
X50610980Y-14648871D01*
X50608769Y-14653210D01*
X50608768Y-14653212D01*
X50594090Y-14682019D01*
X50530128Y-14807552D01*
X50530127Y-14807554D01*
X50530127Y-14807555D01*
X50525447Y-14821958D01*
X50476597Y-14972302D01*
X50449500Y-15143389D01*
X50449500Y-16716610D01*
X50475934Y-16883512D01*
X50476598Y-16887701D01*
X50530127Y-17052445D01*
X50608768Y-17206788D01*
X50710586Y-17346928D01*
X50710588Y-17346930D01*
X50833072Y-17469414D01*
X50874733Y-17499683D01*
X50917398Y-17555013D01*
X50923376Y-17624627D01*
X50890769Y-17686421D01*
X50874733Y-17700317D01*
X50833072Y-17730585D01*
X50710588Y-17853069D01*
X50710588Y-17853070D01*
X50710586Y-17853072D01*
X50666859Y-17913256D01*
X50608768Y-17993211D01*
X50530128Y-18147552D01*
X50476597Y-18312302D01*
X50449500Y-18483389D01*
X50449500Y-20056610D01*
X50476597Y-20227697D01*
X50476597Y-20227699D01*
X50476598Y-20227701D01*
X50528361Y-20387011D01*
X50530129Y-20392450D01*
X50569000Y-20468740D01*
X50581896Y-20537409D01*
X50555619Y-20602149D01*
X50498513Y-20642406D01*
X50428707Y-20645398D01*
X50420197Y-20642965D01*
X50348903Y-20619800D01*
X50217476Y-20598984D01*
X50177816Y-20592703D01*
X50130187Y-20592703D01*
X50063148Y-20573018D01*
X50017393Y-20520214D01*
X50007449Y-20451056D01*
X50019701Y-20412410D01*
X50025340Y-20401340D01*
X50029873Y-20392445D01*
X50083402Y-20227701D01*
X50110500Y-20056611D01*
X50110500Y-18483389D01*
X50083402Y-18312299D01*
X50029873Y-18147555D01*
X49951232Y-17993212D01*
X49849414Y-17853072D01*
X49726928Y-17730586D01*
X49685265Y-17700316D01*
X49642602Y-17644988D01*
X49636623Y-17575374D01*
X49669229Y-17513579D01*
X49685266Y-17499683D01*
X49726928Y-17469414D01*
X49849414Y-17346928D01*
X49951232Y-17206788D01*
X50029873Y-17052445D01*
X50083402Y-16887701D01*
X50110500Y-16716611D01*
X50110500Y-15143389D01*
X50083402Y-14972299D01*
X50029873Y-14807555D01*
X49951232Y-14653212D01*
X49951231Y-14653210D01*
X49949020Y-14648871D01*
X49950256Y-14648240D01*
X49933648Y-14586845D01*
X49954764Y-14520242D01*
X50008536Y-14475629D01*
X50057620Y-14465500D01*
X50502380Y-14465500D01*
X50569419Y-14485185D01*
G37*
%TD.AperFunction*%
%TA.AperFunction,NonConductor*%
G36*
X30254704Y-420185D02*
G01*
X30300459Y-472989D01*
X30310403Y-542147D01*
X30281378Y-605703D01*
X30222600Y-643477D01*
X30207063Y-646973D01*
X30089472Y-665597D01*
X29924722Y-719128D01*
X29770381Y-797768D01*
X29734596Y-823768D01*
X29630242Y-899586D01*
X29630240Y-899588D01*
X29630239Y-899588D01*
X29507758Y-1022069D01*
X29507758Y-1022070D01*
X29507756Y-1022072D01*
X29466684Y-1078602D01*
X29405938Y-1162211D01*
X29327299Y-1316550D01*
X29327298Y-1316552D01*
X29327297Y-1316555D01*
X29312290Y-1362738D01*
X29272854Y-1420412D01*
X29208495Y-1447610D01*
X29139649Y-1435695D01*
X29088173Y-1388451D01*
X29076432Y-1362741D01*
X29069873Y-1342555D01*
X28991232Y-1188212D01*
X28889414Y-1048072D01*
X28766928Y-925586D01*
X28626788Y-823768D01*
X28472445Y-745127D01*
X28307701Y-691598D01*
X28307699Y-691597D01*
X28307698Y-691597D01*
X28143543Y-665598D01*
X28136611Y-664500D01*
X27963389Y-664500D01*
X27956457Y-665598D01*
X27792302Y-691597D01*
X27627552Y-745128D01*
X27473211Y-823768D01*
X27393256Y-881859D01*
X27333072Y-925586D01*
X27333070Y-925588D01*
X27333069Y-925588D01*
X27210588Y-1048069D01*
X27210588Y-1048070D01*
X27210586Y-1048072D01*
X27203552Y-1057754D01*
X27108768Y-1188211D01*
X27030128Y-1342552D01*
X26976597Y-1507302D01*
X26949500Y-1678389D01*
X26949500Y-1851610D01*
X26962808Y-1935638D01*
X26976598Y-2022701D01*
X27030127Y-2187445D01*
X27108768Y-2341788D01*
X27210586Y-2481928D01*
X27333072Y-2604414D01*
X27473212Y-2706232D01*
X27627555Y-2784873D01*
X27792299Y-2838402D01*
X27963389Y-2865500D01*
X27963390Y-2865500D01*
X28136609Y-2865500D01*
X28136611Y-2865500D01*
X28136982Y-2865441D01*
X28137125Y-2865459D01*
X28141464Y-2865118D01*
X28141535Y-2866029D01*
X28206276Y-2874389D01*
X28244072Y-2900231D01*
X28664763Y-3320923D01*
X28664764Y-3320924D01*
X28664767Y-3320926D01*
X28664769Y-3320928D01*
X28712624Y-3352903D01*
X28757429Y-3406514D01*
X28766136Y-3475839D01*
X28735982Y-3538867D01*
X28676539Y-3575587D01*
X28643733Y-3580005D01*
X26974500Y-3580005D01*
X26907461Y-3560320D01*
X26861706Y-3507516D01*
X26850500Y-3456005D01*
X26850500Y-3338389D01*
X26823402Y-3167302D01*
X26823402Y-3167299D01*
X26769873Y-3002555D01*
X26691232Y-2848212D01*
X26589414Y-2708072D01*
X26466928Y-2585586D01*
X26466606Y-2585352D01*
X26466514Y-2585233D01*
X26463223Y-2582422D01*
X26463813Y-2581730D01*
X26423945Y-2530018D01*
X26415500Y-2485040D01*
X26415500Y-2187809D01*
X26389926Y-2059244D01*
X26389925Y-2059243D01*
X26389925Y-2059239D01*
X26339758Y-1938126D01*
X26323902Y-1914396D01*
X26266929Y-1829128D01*
X26266928Y-1829127D01*
X26227079Y-1789278D01*
X26174231Y-1736430D01*
X26090190Y-1652389D01*
X25568391Y-1130588D01*
X25568390Y-1130587D01*
X25568386Y-1130584D01*
X25459386Y-1057754D01*
X25373235Y-1022069D01*
X25338273Y-1007587D01*
X25338267Y-1007585D01*
X25209703Y-982012D01*
X25209701Y-982012D01*
X25209700Y-982012D01*
X22543035Y-982012D01*
X22411941Y-982012D01*
X22411940Y-982012D01*
X22396004Y-985181D01*
X22395994Y-985183D01*
X22390609Y-986255D01*
X22283369Y-1007587D01*
X22202119Y-1041242D01*
X22195950Y-1043797D01*
X22195944Y-1043799D01*
X22162259Y-1057751D01*
X22162252Y-1057755D01*
X22131053Y-1078602D01*
X22064376Y-1099480D01*
X22062163Y-1099500D01*
X21315828Y-1099500D01*
X21303041Y-1102043D01*
X21290254Y-1104587D01*
X21187264Y-1125073D01*
X21187252Y-1125076D01*
X21116309Y-1154461D01*
X21116310Y-1154462D01*
X21066145Y-1175240D01*
X21066136Y-1175245D01*
X20957144Y-1248072D01*
X20957140Y-1248075D01*
X17972437Y-4232779D01*
X17911114Y-4266264D01*
X17884756Y-4269098D01*
X15930537Y-4269098D01*
X15801972Y-4294671D01*
X15801966Y-4294673D01*
X15680852Y-4344840D01*
X15571856Y-4417668D01*
X15571849Y-4417674D01*
X15033052Y-4956472D01*
X14971729Y-4989957D01*
X14945371Y-4992791D01*
X14940777Y-4992791D01*
X14901116Y-4999072D01*
X14769690Y-5019888D01*
X14604940Y-5073419D01*
X14450599Y-5152059D01*
X14370644Y-5210150D01*
X14310460Y-5253877D01*
X14310458Y-5253879D01*
X14310457Y-5253879D01*
X14187976Y-5376360D01*
X14187976Y-5376361D01*
X14187974Y-5376363D01*
X14144247Y-5436547D01*
X14086156Y-5516502D01*
X14007516Y-5670843D01*
X13953985Y-5835593D01*
X13940605Y-5920073D01*
X13926888Y-6006680D01*
X13926888Y-6179902D01*
X13953986Y-6350992D01*
X14007515Y-6515736D01*
X14086156Y-6670079D01*
X14187974Y-6810219D01*
X14310460Y-6932705D01*
X14450600Y-7034523D01*
X14604943Y-7113164D01*
X14769687Y-7166693D01*
X14940777Y-7193791D01*
X14940778Y-7193791D01*
X15113998Y-7193791D01*
X15113999Y-7193791D01*
X15285089Y-7166693D01*
X15449833Y-7113164D01*
X15604176Y-7034523D01*
X15744316Y-6932705D01*
X15749903Y-6927118D01*
X15811224Y-6893629D01*
X15880916Y-6898610D01*
X15910475Y-6914476D01*
X15947301Y-6941232D01*
X16101644Y-7019873D01*
X16266388Y-7073402D01*
X16437478Y-7100500D01*
X16437479Y-7100500D01*
X16610699Y-7100500D01*
X16610700Y-7100500D01*
X16740206Y-7079988D01*
X16809499Y-7088943D01*
X16862951Y-7133939D01*
X16870089Y-7146166D01*
X16903639Y-7212011D01*
X16923150Y-7250304D01*
X17024968Y-7390444D01*
X17147454Y-7512930D01*
X17287594Y-7614748D01*
X17441937Y-7693389D01*
X17569733Y-7734912D01*
X17627407Y-7774350D01*
X17654605Y-7838709D01*
X17653887Y-7872239D01*
X17638500Y-7969389D01*
X17638500Y-7969394D01*
X17638500Y-8142610D01*
X17657872Y-8264925D01*
X17665598Y-8313701D01*
X17715814Y-8468250D01*
X17719128Y-8478447D01*
X17776136Y-8590332D01*
X17797768Y-8632788D01*
X17899586Y-8772928D01*
X18022072Y-8895414D01*
X18162212Y-8997232D01*
X18316555Y-9075873D01*
X18481299Y-9129402D01*
X18652389Y-9156500D01*
X18652390Y-9156500D01*
X18825610Y-9156500D01*
X18825611Y-9156500D01*
X18996701Y-9129402D01*
X19161445Y-9075873D01*
X19315788Y-8997232D01*
X19455928Y-8895414D01*
X19578414Y-8772928D01*
X19582552Y-8767231D01*
X19637882Y-8724565D01*
X19658679Y-8718499D01*
X19680889Y-8714081D01*
X19742316Y-8701862D01*
X19811906Y-8708089D01*
X19867084Y-8750951D01*
X19890329Y-8816841D01*
X19874262Y-8884838D01*
X19854188Y-8911160D01*
X17292168Y-11473181D01*
X17230845Y-11506666D01*
X17204487Y-11509500D01*
X14489960Y-11509500D01*
X14422921Y-11489815D01*
X14392920Y-11461484D01*
X14392578Y-11461777D01*
X14389857Y-11458592D01*
X14389648Y-11458394D01*
X14389416Y-11458075D01*
X14389411Y-11458069D01*
X14266930Y-11335588D01*
X14266928Y-11335586D01*
X14126788Y-11233768D01*
X13972445Y-11155127D01*
X13807701Y-11101598D01*
X13807699Y-11101597D01*
X13807698Y-11101597D01*
X13676271Y-11080781D01*
X13636611Y-11074500D01*
X13463389Y-11074500D01*
X13423728Y-11080781D01*
X13292302Y-11101597D01*
X13127552Y-11155128D01*
X12973211Y-11233768D01*
X12925980Y-11268084D01*
X12833072Y-11335586D01*
X12833070Y-11335588D01*
X12833069Y-11335588D01*
X12710588Y-11458069D01*
X12710588Y-11458070D01*
X12710586Y-11458072D01*
X12675280Y-11506666D01*
X12608768Y-11598211D01*
X12530128Y-11752552D01*
X12530127Y-11752554D01*
X12530127Y-11752555D01*
X12503362Y-11834927D01*
X12476597Y-11917302D01*
X12449500Y-12088389D01*
X12449500Y-12261610D01*
X12473095Y-12410588D01*
X12476598Y-12432701D01*
X12530127Y-12597445D01*
X12608768Y-12751788D01*
X12710586Y-12891928D01*
X12833072Y-13014414D01*
X12973212Y-13116232D01*
X13127555Y-13194873D01*
X13292299Y-13248402D01*
X13463389Y-13275500D01*
X13463390Y-13275500D01*
X13636610Y-13275500D01*
X13636611Y-13275500D01*
X13807701Y-13248402D01*
X13972445Y-13194873D01*
X14126788Y-13116232D01*
X14266928Y-13014414D01*
X14389414Y-12891928D01*
X14389648Y-12891606D01*
X14389766Y-12891514D01*
X14392578Y-12888223D01*
X14393269Y-12888813D01*
X14444982Y-12848945D01*
X14489960Y-12840500D01*
X17597058Y-12840500D01*
X17683553Y-12823294D01*
X17725628Y-12814925D01*
X17846741Y-12764758D01*
X17955741Y-12691928D01*
X23870068Y-6777599D01*
X23873350Y-6775807D01*
X23875332Y-6772634D01*
X23903779Y-6759192D01*
X23931389Y-6744116D01*
X23936106Y-6743916D01*
X23938504Y-6742784D01*
X23962544Y-6742800D01*
X23973796Y-6742325D01*
X23975451Y-6742541D01*
X23977528Y-6742870D01*
X23977972Y-6742870D01*
X23981787Y-6743368D01*
X24010969Y-6756238D01*
X24040751Y-6767588D01*
X24042703Y-6770234D01*
X24045715Y-6771563D01*
X24063308Y-6798170D01*
X24082224Y-6823817D01*
X24082435Y-6827098D01*
X24084251Y-6829845D01*
X24084665Y-6861738D01*
X24086714Y-6893542D01*
X24085117Y-6896441D01*
X24085160Y-6899709D01*
X24069571Y-6924672D01*
X24053419Y-6954006D01*
X21408076Y-9599348D01*
X21408075Y-9599349D01*
X21335241Y-9708355D01*
X21285075Y-9829466D01*
X21285073Y-9829474D01*
X21260074Y-9955153D01*
X21260073Y-9955159D01*
X21259500Y-9958034D01*
X21259500Y-14005500D01*
X21239815Y-14072539D01*
X21187011Y-14118294D01*
X21135500Y-14129500D01*
X20983389Y-14129500D01*
X20943728Y-14135781D01*
X20812302Y-14156597D01*
X20647552Y-14210128D01*
X20493211Y-14288768D01*
X20435773Y-14330500D01*
X20353072Y-14390586D01*
X20353070Y-14390588D01*
X20353069Y-14390588D01*
X20230588Y-14513069D01*
X20230588Y-14513070D01*
X20230586Y-14513072D01*
X20198922Y-14556654D01*
X20128768Y-14653211D01*
X20050128Y-14807552D01*
X20050127Y-14807554D01*
X20050127Y-14807555D01*
X20045447Y-14821958D01*
X19996597Y-14972302D01*
X19969500Y-15143389D01*
X19969500Y-16716610D01*
X19995934Y-16883512D01*
X19996598Y-16887701D01*
X20050127Y-17052445D01*
X20128768Y-17206788D01*
X20230586Y-17346928D01*
X20230588Y-17346930D01*
X20353072Y-17469414D01*
X20394733Y-17499683D01*
X20437398Y-17555013D01*
X20443376Y-17624627D01*
X20410769Y-17686421D01*
X20394733Y-17700317D01*
X20353072Y-17730585D01*
X20230588Y-17853069D01*
X20230588Y-17853070D01*
X20230586Y-17853072D01*
X20186859Y-17913256D01*
X20128768Y-17993211D01*
X20050128Y-18147552D01*
X19996597Y-18312302D01*
X19969500Y-18483389D01*
X19969500Y-20056610D01*
X19996597Y-20227697D01*
X19996597Y-20227699D01*
X19996598Y-20227701D01*
X20050127Y-20392445D01*
X20128768Y-20546788D01*
X20230586Y-20686928D01*
X20353072Y-20809414D01*
X20493212Y-20911232D01*
X20647555Y-20989873D01*
X20812299Y-21043402D01*
X20983389Y-21070500D01*
X20983390Y-21070500D01*
X21156610Y-21070500D01*
X21156611Y-21070500D01*
X21327701Y-21043402D01*
X21492445Y-20989873D01*
X21646788Y-20911232D01*
X21786928Y-20809414D01*
X21909414Y-20686928D01*
X22011232Y-20546788D01*
X22089873Y-20392445D01*
X22143402Y-20227701D01*
X22170500Y-20056611D01*
X22170500Y-18762020D01*
X22179144Y-18732579D01*
X22185668Y-18702593D01*
X22189422Y-18697577D01*
X22190185Y-18694981D01*
X22206815Y-18674343D01*
X22297820Y-18583338D01*
X22359142Y-18549854D01*
X22428834Y-18554838D01*
X22484767Y-18596710D01*
X22509184Y-18662174D01*
X22509500Y-18671020D01*
X22509500Y-20056610D01*
X22536597Y-20227697D01*
X22536597Y-20227699D01*
X22536598Y-20227701D01*
X22590127Y-20392445D01*
X22668768Y-20546788D01*
X22770586Y-20686928D01*
X22893072Y-20809414D01*
X23033212Y-20911232D01*
X23187555Y-20989873D01*
X23352299Y-21043402D01*
X23523389Y-21070500D01*
X23523390Y-21070500D01*
X23541107Y-21070500D01*
X23608146Y-21090185D01*
X23653901Y-21142989D01*
X23663845Y-21212147D01*
X23663580Y-21213898D01*
X23639000Y-21369089D01*
X23639000Y-21542310D01*
X23665535Y-21709851D01*
X23666098Y-21713401D01*
X23719627Y-21878145D01*
X23798268Y-22032488D01*
X23900086Y-22172628D01*
X24022572Y-22295114D01*
X24162712Y-22396932D01*
X24317055Y-22475573D01*
X24481799Y-22529102D01*
X24481802Y-22529102D01*
X24481803Y-22529103D01*
X24549904Y-22539888D01*
X24640234Y-22554195D01*
X24703368Y-22584124D01*
X24740300Y-22643435D01*
X24743309Y-22657270D01*
X24753847Y-22723807D01*
X24756895Y-22743047D01*
X24810424Y-22907791D01*
X24889065Y-23062134D01*
X24990883Y-23202274D01*
X25113369Y-23324760D01*
X25253509Y-23426578D01*
X25407852Y-23505219D01*
X25572596Y-23558748D01*
X25743686Y-23585846D01*
X25743687Y-23585846D01*
X25916906Y-23585846D01*
X25916908Y-23585846D01*
X25917279Y-23585787D01*
X25917422Y-23585805D01*
X25921761Y-23585464D01*
X25921832Y-23586375D01*
X25986573Y-23594735D01*
X26024366Y-23620574D01*
X26175719Y-23771927D01*
X26284718Y-23844758D01*
X26320191Y-23859451D01*
X26405832Y-23894925D01*
X26441197Y-23901959D01*
X26449565Y-23904912D01*
X26470994Y-23920366D01*
X26494406Y-23932613D01*
X26498887Y-23940482D01*
X26506234Y-23945781D01*
X26515906Y-23970368D01*
X26528981Y-23993328D01*
X26528496Y-24002372D01*
X26531812Y-24010801D01*
X26526655Y-24036714D01*
X26525242Y-24063098D01*
X26519944Y-24070444D01*
X26518177Y-24079327D01*
X26499828Y-24098340D01*
X26484376Y-24119770D01*
X26475949Y-24123085D01*
X26469659Y-24129604D01*
X26443940Y-24135679D01*
X26419358Y-24145352D01*
X26408305Y-24145846D01*
X20098652Y-24145846D01*
X20098652Y-27475500D01*
X20078967Y-27542539D01*
X20026163Y-27588294D01*
X19974652Y-27599500D01*
X524500Y-27599500D01*
X457461Y-27579815D01*
X411706Y-27527011D01*
X400500Y-27475500D01*
X400500Y-24385921D01*
X1759500Y-24385921D01*
X1759500Y-24614078D01*
X1789278Y-24840272D01*
X1789279Y-24840277D01*
X1789280Y-24840283D01*
X1789281Y-24840285D01*
X1848331Y-25060666D01*
X1935638Y-25271446D01*
X1935646Y-25271462D01*
X2049717Y-25469037D01*
X2049728Y-25469053D01*
X2188613Y-25650052D01*
X2188619Y-25650059D01*
X2349940Y-25811380D01*
X2349946Y-25811385D01*
X2530955Y-25950278D01*
X2530962Y-25950282D01*
X2728537Y-26064353D01*
X2728553Y-26064361D01*
X2842268Y-26111463D01*
X2939334Y-26151669D01*
X3159717Y-26210720D01*
X3319474Y-26231752D01*
X3385921Y-26240500D01*
X3385922Y-26240500D01*
X3614079Y-26240500D01*
X3665438Y-26233738D01*
X3840283Y-26210720D01*
X4060666Y-26151669D01*
X4226365Y-26083033D01*
X4271446Y-26064361D01*
X4271449Y-26064359D01*
X4271455Y-26064357D01*
X4469045Y-25950278D01*
X4650054Y-25811385D01*
X4811385Y-25650054D01*
X4950278Y-25469045D01*
X5064357Y-25271455D01*
X5151669Y-25060666D01*
X5210720Y-24840283D01*
X5240500Y-24614078D01*
X5240500Y-24385922D01*
X5210720Y-24159717D01*
X5151669Y-23939334D01*
X5082327Y-23771928D01*
X5064361Y-23728553D01*
X5064353Y-23728537D01*
X4950282Y-23530962D01*
X4950278Y-23530955D01*
X4811385Y-23349946D01*
X4811380Y-23349940D01*
X4650059Y-23188619D01*
X4650052Y-23188613D01*
X4469053Y-23049728D01*
X4469051Y-23049726D01*
X4469045Y-23049722D01*
X4469040Y-23049719D01*
X4469037Y-23049717D01*
X4271462Y-22935646D01*
X4271446Y-22935638D01*
X4060666Y-22848331D01*
X3840283Y-22789280D01*
X3840277Y-22789279D01*
X3840272Y-22789278D01*
X3614079Y-22759500D01*
X3614078Y-22759500D01*
X3385922Y-22759500D01*
X3385921Y-22759500D01*
X3159727Y-22789278D01*
X3159720Y-22789279D01*
X3159717Y-22789280D01*
X3066567Y-22814239D01*
X2939333Y-22848331D01*
X2728553Y-22935638D01*
X2728537Y-22935646D01*
X2530962Y-23049717D01*
X2530946Y-23049728D01*
X2349947Y-23188613D01*
X2349940Y-23188619D01*
X2188619Y-23349940D01*
X2188613Y-23349947D01*
X2049728Y-23530946D01*
X2049717Y-23530962D01*
X1935646Y-23728537D01*
X1935638Y-23728553D01*
X1848331Y-23939333D01*
X1833863Y-23993328D01*
X1799096Y-24123085D01*
X1789281Y-24159714D01*
X1789278Y-24159727D01*
X1759500Y-24385921D01*
X400500Y-24385921D01*
X400500Y-15860437D01*
X1509570Y-15860437D01*
X4079798Y-15860437D01*
X4079798Y-15143389D01*
X7269500Y-15143389D01*
X7269500Y-16716610D01*
X7295934Y-16883512D01*
X7296598Y-16887701D01*
X7350127Y-17052445D01*
X7428768Y-17206788D01*
X7501897Y-17307442D01*
X7525377Y-17373246D01*
X7509552Y-17441300D01*
X7459446Y-17489995D01*
X7451666Y-17493760D01*
X7397234Y-17517794D01*
X7317794Y-17597234D01*
X7272415Y-17700006D01*
X7272415Y-17700008D01*
X7269500Y-17725131D01*
X7269500Y-20814856D01*
X7269502Y-20814882D01*
X7272413Y-20839987D01*
X7272415Y-20839991D01*
X7317793Y-20942764D01*
X7317794Y-20942765D01*
X7397235Y-21022206D01*
X7500009Y-21067585D01*
X7525135Y-21070500D01*
X9214864Y-21070499D01*
X9214879Y-21070497D01*
X9214882Y-21070497D01*
X9239987Y-21067586D01*
X9239988Y-21067585D01*
X9239991Y-21067585D01*
X9342765Y-21022206D01*
X9422206Y-20942765D01*
X9467585Y-20839991D01*
X9470500Y-20814865D01*
X9470499Y-17725136D01*
X9470264Y-17723110D01*
X9467586Y-17700012D01*
X9467585Y-17700010D01*
X9467585Y-17700009D01*
X9422206Y-17597235D01*
X9342765Y-17517794D01*
X9288333Y-17493760D01*
X9234957Y-17448674D01*
X9214430Y-17381888D01*
X9233268Y-17314606D01*
X9238083Y-17307468D01*
X9311232Y-17206788D01*
X9389873Y-17052445D01*
X9443402Y-16887701D01*
X9470500Y-16716611D01*
X9470500Y-15143389D01*
X9809500Y-15143389D01*
X9809500Y-16716610D01*
X9835934Y-16883512D01*
X9836598Y-16887701D01*
X9890127Y-17052445D01*
X9968768Y-17206788D01*
X10070586Y-17346928D01*
X10070588Y-17346930D01*
X10193072Y-17469414D01*
X10234733Y-17499683D01*
X10277398Y-17555013D01*
X10283376Y-17624627D01*
X10250769Y-17686421D01*
X10234733Y-17700317D01*
X10193072Y-17730585D01*
X10070588Y-17853069D01*
X10070588Y-17853070D01*
X10070586Y-17853072D01*
X10026859Y-17913256D01*
X9968768Y-17993211D01*
X9890128Y-18147552D01*
X9836597Y-18312302D01*
X9809500Y-18483389D01*
X9809500Y-20056610D01*
X9836597Y-20227697D01*
X9836597Y-20227699D01*
X9836598Y-20227701D01*
X9890127Y-20392445D01*
X9968768Y-20546788D01*
X10070586Y-20686928D01*
X10193072Y-20809414D01*
X10333212Y-20911232D01*
X10487555Y-20989873D01*
X10652299Y-21043402D01*
X10823389Y-21070500D01*
X10823390Y-21070500D01*
X10996610Y-21070500D01*
X10996611Y-21070500D01*
X11167701Y-21043402D01*
X11332445Y-20989873D01*
X11486788Y-20911232D01*
X11626928Y-20809414D01*
X11749414Y-20686928D01*
X11851232Y-20546788D01*
X11929873Y-20392445D01*
X11983402Y-20227701D01*
X12010500Y-20056611D01*
X12010500Y-18483389D01*
X11983402Y-18312299D01*
X11929873Y-18147555D01*
X11851232Y-17993212D01*
X11749414Y-17853072D01*
X11626928Y-17730586D01*
X11585265Y-17700316D01*
X11542602Y-17644988D01*
X11536623Y-17575374D01*
X11569229Y-17513579D01*
X11585266Y-17499683D01*
X11626928Y-17469414D01*
X11749414Y-17346928D01*
X11851232Y-17206788D01*
X11929873Y-17052445D01*
X11983402Y-16887701D01*
X12010500Y-16716611D01*
X12010500Y-15143389D01*
X12349500Y-15143389D01*
X12349500Y-16716610D01*
X12375934Y-16883512D01*
X12376598Y-16887701D01*
X12430127Y-17052445D01*
X12508768Y-17206788D01*
X12610586Y-17346928D01*
X12610588Y-17346930D01*
X12733072Y-17469414D01*
X12774733Y-17499683D01*
X12817398Y-17555013D01*
X12823376Y-17624627D01*
X12790769Y-17686421D01*
X12774733Y-17700317D01*
X12733072Y-17730585D01*
X12610588Y-17853069D01*
X12610588Y-17853070D01*
X12610586Y-17853072D01*
X12566859Y-17913256D01*
X12508768Y-17993211D01*
X12430128Y-18147552D01*
X12376597Y-18312302D01*
X12349500Y-18483389D01*
X12349500Y-20056610D01*
X12376597Y-20227697D01*
X12376597Y-20227699D01*
X12376598Y-20227701D01*
X12430127Y-20392445D01*
X12508768Y-20546788D01*
X12610586Y-20686928D01*
X12733072Y-20809414D01*
X12873212Y-20911232D01*
X13027555Y-20989873D01*
X13192299Y-21043402D01*
X13363389Y-21070500D01*
X13363390Y-21070500D01*
X13536610Y-21070500D01*
X13536611Y-21070500D01*
X13707701Y-21043402D01*
X13872445Y-20989873D01*
X14026788Y-20911232D01*
X14166928Y-20809414D01*
X14289414Y-20686928D01*
X14391232Y-20546788D01*
X14469873Y-20392445D01*
X14523402Y-20227701D01*
X14550500Y-20056611D01*
X14550500Y-18483389D01*
X14523402Y-18312299D01*
X14469873Y-18147555D01*
X14391232Y-17993212D01*
X14289414Y-17853072D01*
X14166928Y-17730586D01*
X14125265Y-17700316D01*
X14082602Y-17644988D01*
X14076623Y-17575374D01*
X14109229Y-17513579D01*
X14125266Y-17499683D01*
X14166928Y-17469414D01*
X14289414Y-17346928D01*
X14391232Y-17206788D01*
X14469873Y-17052445D01*
X14523402Y-16887701D01*
X14550500Y-16716611D01*
X14550500Y-15143389D01*
X14889500Y-15143389D01*
X14889500Y-16716610D01*
X14915934Y-16883512D01*
X14916598Y-16887701D01*
X14970127Y-17052445D01*
X15048768Y-17206788D01*
X15150586Y-17346928D01*
X15150588Y-17346930D01*
X15273072Y-17469414D01*
X15314733Y-17499683D01*
X15357398Y-17555013D01*
X15363376Y-17624627D01*
X15330769Y-17686421D01*
X15314733Y-17700317D01*
X15273072Y-17730585D01*
X15150588Y-17853069D01*
X15150588Y-17853070D01*
X15150586Y-17853072D01*
X15106859Y-17913256D01*
X15048768Y-17993211D01*
X14970128Y-18147552D01*
X14916597Y-18312302D01*
X14889500Y-18483389D01*
X14889500Y-20056610D01*
X14916597Y-20227697D01*
X14916597Y-20227699D01*
X14916598Y-20227701D01*
X14970127Y-20392445D01*
X15048768Y-20546788D01*
X15150586Y-20686928D01*
X15273072Y-20809414D01*
X15413212Y-20911232D01*
X15567555Y-20989873D01*
X15732299Y-21043402D01*
X15903389Y-21070500D01*
X15903390Y-21070500D01*
X16076610Y-21070500D01*
X16076611Y-21070500D01*
X16247701Y-21043402D01*
X16412445Y-20989873D01*
X16566788Y-20911232D01*
X16706928Y-20809414D01*
X16829414Y-20686928D01*
X16931232Y-20546788D01*
X17009873Y-20392445D01*
X17063402Y-20227701D01*
X17090500Y-20056611D01*
X17090500Y-18483389D01*
X17063402Y-18312299D01*
X17009873Y-18147555D01*
X16931232Y-17993212D01*
X16829414Y-17853072D01*
X16706928Y-17730586D01*
X16665265Y-17700316D01*
X16622602Y-17644988D01*
X16616623Y-17575374D01*
X16649229Y-17513579D01*
X16665266Y-17499683D01*
X16706928Y-17469414D01*
X16829414Y-17346928D01*
X16931232Y-17206788D01*
X17009873Y-17052445D01*
X17063402Y-16887701D01*
X17090500Y-16716611D01*
X17090500Y-15143389D01*
X17429500Y-15143389D01*
X17429500Y-16716610D01*
X17455934Y-16883512D01*
X17456598Y-16887701D01*
X17510127Y-17052445D01*
X17588768Y-17206788D01*
X17690586Y-17346928D01*
X17690588Y-17346930D01*
X17813072Y-17469414D01*
X17854733Y-17499683D01*
X17897398Y-17555013D01*
X17903376Y-17624627D01*
X17870769Y-17686421D01*
X17854733Y-17700317D01*
X17813072Y-17730585D01*
X17690588Y-17853069D01*
X17690588Y-17853070D01*
X17690586Y-17853072D01*
X17646859Y-17913256D01*
X17588768Y-17993211D01*
X17510128Y-18147552D01*
X17456597Y-18312302D01*
X17429500Y-18483389D01*
X17429500Y-20056610D01*
X17456597Y-20227697D01*
X17456597Y-20227699D01*
X17456598Y-20227701D01*
X17510127Y-20392445D01*
X17588768Y-20546788D01*
X17690586Y-20686928D01*
X17813072Y-20809414D01*
X17953212Y-20911232D01*
X18107555Y-20989873D01*
X18272299Y-21043402D01*
X18443389Y-21070500D01*
X18443390Y-21070500D01*
X18616610Y-21070500D01*
X18616611Y-21070500D01*
X18787701Y-21043402D01*
X18952445Y-20989873D01*
X19106788Y-20911232D01*
X19246928Y-20809414D01*
X19369414Y-20686928D01*
X19471232Y-20546788D01*
X19549873Y-20392445D01*
X19603402Y-20227701D01*
X19630500Y-20056611D01*
X19630500Y-18483389D01*
X19603402Y-18312299D01*
X19549873Y-18147555D01*
X19471232Y-17993212D01*
X19369414Y-17853072D01*
X19246928Y-17730586D01*
X19205265Y-17700316D01*
X19162602Y-17644988D01*
X19156623Y-17575374D01*
X19189229Y-17513579D01*
X19205266Y-17499683D01*
X19246928Y-17469414D01*
X19369414Y-17346928D01*
X19471232Y-17206788D01*
X19549873Y-17052445D01*
X19603402Y-16887701D01*
X19630500Y-16716611D01*
X19630500Y-15143389D01*
X19603402Y-14972299D01*
X19549873Y-14807555D01*
X19471232Y-14653212D01*
X19369414Y-14513072D01*
X19246928Y-14390586D01*
X19106788Y-14288768D01*
X18952445Y-14210127D01*
X18787701Y-14156598D01*
X18787699Y-14156597D01*
X18787698Y-14156597D01*
X18656271Y-14135781D01*
X18616611Y-14129500D01*
X18443389Y-14129500D01*
X18403728Y-14135781D01*
X18272302Y-14156597D01*
X18107552Y-14210128D01*
X17953211Y-14288768D01*
X17895773Y-14330500D01*
X17813072Y-14390586D01*
X17813070Y-14390588D01*
X17813069Y-14390588D01*
X17690588Y-14513069D01*
X17690588Y-14513070D01*
X17690586Y-14513072D01*
X17658922Y-14556654D01*
X17588768Y-14653211D01*
X17510128Y-14807552D01*
X17510127Y-14807554D01*
X17510127Y-14807555D01*
X17505447Y-14821958D01*
X17456597Y-14972302D01*
X17429500Y-15143389D01*
X17090500Y-15143389D01*
X17063402Y-14972299D01*
X17009873Y-14807555D01*
X16931232Y-14653212D01*
X16829414Y-14513072D01*
X16706928Y-14390586D01*
X16566788Y-14288768D01*
X16412445Y-14210127D01*
X16247701Y-14156598D01*
X16247699Y-14156597D01*
X16247698Y-14156597D01*
X16116271Y-14135781D01*
X16076611Y-14129500D01*
X15903389Y-14129500D01*
X15863728Y-14135781D01*
X15732302Y-14156597D01*
X15567552Y-14210128D01*
X15413211Y-14288768D01*
X15355773Y-14330500D01*
X15273072Y-14390586D01*
X15273070Y-14390588D01*
X15273069Y-14390588D01*
X15150588Y-14513069D01*
X15150588Y-14513070D01*
X15150586Y-14513072D01*
X15118922Y-14556654D01*
X15048768Y-14653211D01*
X14970128Y-14807552D01*
X14970127Y-14807554D01*
X14970127Y-14807555D01*
X14965447Y-14821958D01*
X14916597Y-14972302D01*
X14889500Y-15143389D01*
X14550500Y-15143389D01*
X14523402Y-14972299D01*
X14469873Y-14807555D01*
X14391232Y-14653212D01*
X14289414Y-14513072D01*
X14166928Y-14390586D01*
X14026788Y-14288768D01*
X13872445Y-14210127D01*
X13707701Y-14156598D01*
X13707699Y-14156597D01*
X13707698Y-14156597D01*
X13576271Y-14135781D01*
X13536611Y-14129500D01*
X13363389Y-14129500D01*
X13323728Y-14135781D01*
X13192302Y-14156597D01*
X13027552Y-14210128D01*
X12873211Y-14288768D01*
X12815773Y-14330500D01*
X12733072Y-14390586D01*
X12733070Y-14390588D01*
X12733069Y-14390588D01*
X12610588Y-14513069D01*
X12610588Y-14513070D01*
X12610586Y-14513072D01*
X12578922Y-14556654D01*
X12508768Y-14653211D01*
X12430128Y-14807552D01*
X12430127Y-14807554D01*
X12430127Y-14807555D01*
X12425447Y-14821958D01*
X12376597Y-14972302D01*
X12349500Y-15143389D01*
X12010500Y-15143389D01*
X11983402Y-14972299D01*
X11929873Y-14807555D01*
X11851232Y-14653212D01*
X11749414Y-14513072D01*
X11626928Y-14390586D01*
X11486788Y-14288768D01*
X11332445Y-14210127D01*
X11167701Y-14156598D01*
X11167699Y-14156597D01*
X11167698Y-14156597D01*
X11036271Y-14135781D01*
X10996611Y-14129500D01*
X10823389Y-14129500D01*
X10783728Y-14135781D01*
X10652302Y-14156597D01*
X10487552Y-14210128D01*
X10333211Y-14288768D01*
X10275773Y-14330500D01*
X10193072Y-14390586D01*
X10193070Y-14390588D01*
X10193069Y-14390588D01*
X10070588Y-14513069D01*
X10070588Y-14513070D01*
X10070586Y-14513072D01*
X10038922Y-14556654D01*
X9968768Y-14653211D01*
X9890128Y-14807552D01*
X9890127Y-14807554D01*
X9890127Y-14807555D01*
X9885447Y-14821958D01*
X9836597Y-14972302D01*
X9809500Y-15143389D01*
X9470500Y-15143389D01*
X9443402Y-14972299D01*
X9389873Y-14807555D01*
X9311232Y-14653212D01*
X9209414Y-14513072D01*
X9086928Y-14390586D01*
X8946788Y-14288768D01*
X8792445Y-14210127D01*
X8627701Y-14156598D01*
X8627699Y-14156597D01*
X8627698Y-14156597D01*
X8496271Y-14135781D01*
X8456611Y-14129500D01*
X8283389Y-14129500D01*
X8243728Y-14135781D01*
X8112302Y-14156597D01*
X7947552Y-14210128D01*
X7793211Y-14288768D01*
X7735773Y-14330500D01*
X7653072Y-14390586D01*
X7653070Y-14390588D01*
X7653069Y-14390588D01*
X7530588Y-14513069D01*
X7530588Y-14513070D01*
X7530586Y-14513072D01*
X7498922Y-14556654D01*
X7428768Y-14653211D01*
X7350128Y-14807552D01*
X7350127Y-14807554D01*
X7350127Y-14807555D01*
X7345447Y-14821958D01*
X7296597Y-14972302D01*
X7269500Y-15143389D01*
X4079798Y-15143389D01*
X4079798Y-10714386D01*
X1509570Y-10714386D01*
X1509570Y-15860437D01*
X400500Y-15860437D01*
X400500Y-3385921D01*
X1759500Y-3385921D01*
X1759500Y-3614078D01*
X1789278Y-3840272D01*
X1789279Y-3840277D01*
X1789280Y-3840283D01*
X1848331Y-4060666D01*
X1935638Y-4271446D01*
X1935646Y-4271462D01*
X2049717Y-4469037D01*
X2049728Y-4469053D01*
X2188613Y-4650052D01*
X2188619Y-4650059D01*
X2349940Y-4811380D01*
X2349947Y-4811386D01*
X2441176Y-4881388D01*
X2530955Y-4950278D01*
X2530962Y-4950282D01*
X2728537Y-5064353D01*
X2728553Y-5064361D01*
X2842268Y-5111463D01*
X2939334Y-5151669D01*
X3159717Y-5210720D01*
X3319474Y-5231752D01*
X3385921Y-5240500D01*
X3385922Y-5240500D01*
X3614079Y-5240500D01*
X3665438Y-5233738D01*
X3840283Y-5210720D01*
X4060666Y-5151669D01*
X4226365Y-5083033D01*
X4271446Y-5064361D01*
X4271449Y-5064359D01*
X4271455Y-5064357D01*
X4469045Y-4950278D01*
X4650054Y-4811385D01*
X4811385Y-4650054D01*
X4950278Y-4469045D01*
X5064357Y-4271455D01*
X5065334Y-4269098D01*
X5083033Y-4226365D01*
X5151669Y-4060666D01*
X5210720Y-3840283D01*
X5240500Y-3614078D01*
X5240500Y-3385922D01*
X5210720Y-3159717D01*
X5151669Y-2939334D01*
X5087688Y-2784871D01*
X5064361Y-2728553D01*
X5064353Y-2728537D01*
X4950282Y-2530962D01*
X4950278Y-2530955D01*
X4811385Y-2349946D01*
X4811380Y-2349940D01*
X4650059Y-2188619D01*
X4650052Y-2188613D01*
X4469053Y-2049728D01*
X4469051Y-2049726D01*
X4469045Y-2049722D01*
X4469040Y-2049719D01*
X4469037Y-2049717D01*
X4271462Y-1935646D01*
X4271446Y-1935638D01*
X4060666Y-1848331D01*
X3840283Y-1789280D01*
X3840277Y-1789279D01*
X3840272Y-1789278D01*
X3614079Y-1759500D01*
X3614078Y-1759500D01*
X3385922Y-1759500D01*
X3385921Y-1759500D01*
X3159727Y-1789278D01*
X3159720Y-1789279D01*
X3159717Y-1789280D01*
X3066567Y-1814239D01*
X2939333Y-1848331D01*
X2728553Y-1935638D01*
X2728537Y-1935646D01*
X2530962Y-2049717D01*
X2530946Y-2049728D01*
X2349947Y-2188613D01*
X2349940Y-2188619D01*
X2188619Y-2349940D01*
X2188613Y-2349947D01*
X2049728Y-2530946D01*
X2049717Y-2530962D01*
X1935646Y-2728537D01*
X1935638Y-2728553D01*
X1848331Y-2939333D01*
X1789281Y-3159714D01*
X1789278Y-3159727D01*
X1759500Y-3385921D01*
X400500Y-3385921D01*
X400500Y-524500D01*
X420185Y-457461D01*
X472989Y-411706D01*
X524500Y-400500D01*
X30187665Y-400500D01*
X30254704Y-420185D01*
G37*
%TD.AperFunction*%
M02*
