%TF.GenerationSoftware,KiCad,Pcbnew,9.0.7*%
%TF.CreationDate,2026-05-06T21:22:44+02:00*%
%TF.ProjectId,BarePi_TweetyBoy,42617265-5069-45f5-9477-65657479426f,rev?*%
%TF.SameCoordinates,Original*%
%TF.FileFunction,Soldermask,Bot*%
%TF.FilePolarity,Negative*%
%FSLAX46Y46*%
G04 Gerber Fmt 4.6, Leading zero omitted, Abs format (unit mm)*
G04 Created by KiCad (PCBNEW 9.0.7) date 2026-05-06 21:22:44*
%MOMM*%
%LPD*%
G01*
G04 APERTURE LIST*
G04 Aperture macros list*
%AMRoundRect*
0 Rectangle with rounded corners*
0 $1 Rounding radius*
0 $2 $3 $4 $5 $6 $7 $8 $9 X,Y pos of 4 corners*
0 Add a 4 corners polygon primitive as box body*
4,1,4,$2,$3,$4,$5,$6,$7,$8,$9,$2,$3,0*
0 Add four circle primitives for the rounded corners*
1,1,$1+$1,$2,$3*
1,1,$1+$1,$4,$5*
1,1,$1+$1,$6,$7*
1,1,$1+$1,$8,$9*
0 Add four rect primitives between the rounded corners*
20,1,$1+$1,$2,$3,$4,$5,0*
20,1,$1+$1,$4,$5,$6,$7,0*
20,1,$1+$1,$6,$7,$8,$9,0*
20,1,$1+$1,$8,$9,$2,$3,0*%
%AMOutline4P*
0 Free polygon, 4 corners , with rotation*
0 The origin of the aperture is its center*
0 number of corners: always 4*
0 $1 to $8 corner X, Y*
0 $9 Rotation angle, in degrees counterclockwise*
0 create outline with 4 corners*
4,1,4,$1,$2,$3,$4,$5,$6,$7,$8,$1,$2,$9*%
G04 Aperture macros list end*
%ADD10C,3.000000*%
%ADD11Outline4P,-1.600000X-0.800000X1.600000X-0.800000X1.600000X0.800000X-1.600000X0.800000X90.000000*%
%ADD12O,1.600000X3.200000*%
%ADD13Outline4P,-1.500000X-0.800000X1.500000X-0.800000X1.500000X0.800000X-1.500000X0.800000X270.000000*%
%ADD14O,1.600000X3.000000*%
%ADD15RoundRect,0.100000X-0.100000X0.712500X-0.100000X-0.712500X0.100000X-0.712500X0.100000X0.712500X0*%
%ADD16RoundRect,0.250000X-0.412500X-0.650000X0.412500X-0.650000X0.412500X0.650000X-0.412500X0.650000X0*%
G04 APERTURE END LIST*
D10*
%TO.C,REF\u002A\u002A*%
X61500000Y-3500000D03*
%TD*%
%TO.C,REF\u002A\u002A*%
X3500000Y-24500000D03*
%TD*%
D11*
%TO.C,J2*%
X48815000Y-10485000D03*
D12*
X51355000Y-10485000D03*
X53895000Y-10485000D03*
X56435000Y-10485000D03*
%TD*%
D13*
%TO.C,J1*%
X8370000Y-19270000D03*
D14*
X8370000Y-15930000D03*
X10910000Y-19270000D03*
X10910000Y-15930000D03*
X13450000Y-19270000D03*
X13450000Y-15930000D03*
X15990000Y-19270000D03*
X15990000Y-15930000D03*
X18530000Y-19270000D03*
X18530000Y-15930000D03*
X21070000Y-19270000D03*
X21070000Y-15930000D03*
X23610000Y-19270000D03*
X23610000Y-15930000D03*
X26150000Y-19270000D03*
X26150000Y-15930000D03*
X28690000Y-19270000D03*
X28690000Y-15930000D03*
X31230000Y-19270000D03*
X31230000Y-15930000D03*
X33770000Y-19270000D03*
X33770000Y-15930000D03*
X36310000Y-19270000D03*
X36310000Y-15930000D03*
X38850000Y-19270000D03*
X38850000Y-15930000D03*
X41390000Y-19270000D03*
X41390000Y-15930000D03*
X43930000Y-19270000D03*
X43930000Y-15930000D03*
X46470000Y-19270000D03*
X46470000Y-15930000D03*
X49010000Y-19270000D03*
X49010000Y-15930000D03*
X51550000Y-19270000D03*
X51550000Y-15930000D03*
X54090000Y-19270000D03*
X54090000Y-15930000D03*
X56630000Y-19270000D03*
X56630000Y-15930000D03*
%TD*%
D10*
%TO.C,REF\u002A\u002A*%
X61500000Y-24500000D03*
%TD*%
%TO.C,REF\u002A\u002A*%
X3500000Y-3500000D03*
%TD*%
D15*
%TO.C,IC1*%
X29097500Y-3387500D03*
X29732500Y-3387500D03*
X30367500Y-3387500D03*
X31002500Y-3387500D03*
X31637500Y-3387500D03*
X32272500Y-3387500D03*
X32907500Y-3387500D03*
X33542500Y-3387500D03*
X34177500Y-3387500D03*
X34812500Y-3387500D03*
X35447500Y-3387500D03*
X36082500Y-3387500D03*
X36717500Y-3387500D03*
X37352500Y-3387500D03*
X37352500Y-8662500D03*
X36717500Y-8662500D03*
X36082500Y-8662500D03*
X35447500Y-8662500D03*
X34812500Y-8662500D03*
X34177500Y-8662500D03*
X33542500Y-8662500D03*
X32907500Y-8662500D03*
X32272500Y-8662500D03*
X31637500Y-8662500D03*
X31002500Y-8662500D03*
X30367500Y-8662500D03*
X29732500Y-8662500D03*
X29097500Y-8662500D03*
%TD*%
D16*
%TO.C,C1*%
X19362500Y-5625000D03*
X22487500Y-5625000D03*
%TD*%
M02*
