M48
; DRILL file {KiCad 9.0.7} date 2026-05-06T21:22:46+0200
; FORMAT={-:-/ absolute / metric / decimal}
; #@! TF.CreationDate,2026-05-06T21:22:46+02:00
; #@! TF.GenerationSoftware,Kicad,Pcbnew,9.0.7
; #@! TF.FileFunction,Plated,1,2,PTH
FMAT,2
METRIC
; #@! TA.AperFunction,Plated,PTH,ViaDrill
T1C0.600
; #@! TA.AperFunction,Plated,PTH,ComponentDrill
T2C1.000
%
G90
G05
T1
X13.55Y-12.175
X15.027Y-6.093
X16.524Y-6.0
X17.864Y-6.674
X18.739Y-8.056
X22.99Y-11.0
X23.39Y-13.217
X24.064Y-5.642
X24.168Y-9.689
X24.197Y-2.737
X24.388Y-12.089
X24.739Y-21.456
X25.008Y-8.446
X25.75Y-3.425
X25.83Y-22.485
X25.87Y-12.845
X26.991Y-9.428
X27.453Y-22.19
X28.05Y-1.765
X28.355Y-10.076
X29.39Y-11.183
X30.347Y-1.739
X31.678Y-12.798
X31.912Y-1.739
X33.011Y-13.643
X33.806Y-12.291
X34.436Y-10.93
X34.51Y-13.615
X35.625Y-12.075
X36.875Y-10.313
X38.93Y-3.74
X40.489Y-6.084
X41.378Y-4.042
X41.755Y-11.465
X44.169Y-3.676
X44.609Y-12.726
X45.496Y-4.377
X45.786Y-10.27
X45.882Y-13.518
X46.35Y-7.625
X47.775Y-21.475
X50.091Y-21.693
X50.888Y-12.735
X51.667Y-21.623
X55.45Y-13.25
X59.125Y-7.225
T2
X8.37Y-16.33
X8.37Y-18.87
X10.91Y-16.33
X10.91Y-18.87
X13.45Y-16.33
X13.45Y-18.87
X15.99Y-16.33
X15.99Y-18.87
X18.53Y-16.33
X18.53Y-18.87
X21.07Y-16.33
X21.07Y-18.87
X23.61Y-16.33
X23.61Y-18.87
X26.15Y-16.33
X26.15Y-18.87
X28.69Y-16.33
X28.69Y-18.87
X31.23Y-16.33
X31.23Y-18.87
X33.77Y-16.33
X33.77Y-18.87
X36.31Y-16.33
X36.31Y-18.87
X38.85Y-16.33
X38.85Y-18.87
X41.39Y-16.33
X41.39Y-18.87
X43.93Y-16.33
X43.93Y-18.87
X46.47Y-16.33
X46.47Y-18.87
X48.815Y-10.485
X49.01Y-16.33
X49.01Y-18.87
X51.355Y-10.485
X51.55Y-16.33
X51.55Y-18.87
X53.895Y-10.485
X54.09Y-16.33
X54.09Y-18.87
X56.435Y-10.485
X56.63Y-16.33
X56.63Y-18.87
M30
