M48
; DRILL file {KiCad 9.0.7} date 2026-05-23T17:59:54+0200
; FORMAT={-:-/ absolute / metric / decimal}
; #@! TF.CreationDate,2026-05-23T17:59:54+02:00
; #@! TF.GenerationSoftware,Kicad,Pcbnew,9.0.7
; #@! TF.FileFunction,Plated,1,2,PTH
FMAT,2
METRIC
; #@! TA.AperFunction,Plated,PTH,ViaDrill
T1C0.600
; #@! TA.AperFunction,Plated,PTH,ComponentDrill
T2C0.800
; #@! TA.AperFunction,Plated,PTH,ComponentDrill
T3C1.000
%
G90
G05
T1
X12.184Y-28.6
X18.953Y-17.148
X19.81Y-30.12
X22.06Y-19.3
X22.633Y-17.914
X22.66Y-30.8
X24.136Y-28.326
X26.14Y-20.56
X28.832Y-20.049
X31.43Y-18.08
X33.942Y-19.618
X34.4Y-9.9
X34.532Y-16.933
X34.73Y-5.32
X34.763Y-3.42
X35.006Y-8.375
X35.036Y-31.236
X35.161Y-12.67
X35.9Y-20.64
X36.103Y-18.376
X36.161Y-10.555
X36.403Y-15.699
X36.665Y-11.968
X37.672Y-28.345
X38.33Y-20.052
X41.16Y-19.385
X45.278Y-19.5
X46.001Y-12.654
X46.843Y-17.801
X46.976Y-19.295
X47.14Y-13.63
X47.659Y-4.981
X47.674Y-7.94
X47.71Y-9.44
X47.947Y-2.31
X48.961Y-18.817
X48.972Y-17.316
X49.74Y-15.854
X50.08Y-28.345
X51.097Y-19.063
X51.345Y-13.676
X52.303Y-20.87
X52.755Y-29.055
X52.842Y-17.575
X53.609Y-15.445
X55.28Y-14.89
T2
X38.535Y-6.725
X43.415Y-6.725
T3
X8.37Y-23.48
X8.37Y-26.02
X9.34Y-10.06
X9.34Y-12.6
X10.91Y-23.48
X10.91Y-26.02
X11.88Y-10.06
X11.88Y-12.6
X13.45Y-23.48
X13.45Y-26.02
X14.42Y-10.06
X14.42Y-12.6
X15.99Y-23.48
X15.99Y-26.02
X16.96Y-10.06
X16.96Y-12.6
X18.53Y-23.48
X18.53Y-26.02
X19.5Y-10.06
X19.5Y-12.6
X21.07Y-23.48
X21.07Y-26.02
X22.04Y-10.06
X22.04Y-12.6
X23.61Y-23.48
X23.61Y-26.02
X24.58Y-10.06
X24.58Y-12.6
X26.15Y-23.48
X26.15Y-26.02
X27.12Y-10.06
X27.12Y-12.6
X28.69Y-23.48
X28.69Y-26.02
X29.66Y-10.06
X29.66Y-12.6
X31.23Y-23.48
X31.23Y-26.02
X32.2Y-10.06
X32.2Y-12.6
X33.77Y-23.48
X33.77Y-26.02
X36.31Y-23.48
X36.31Y-26.02
X38.85Y-23.48
X38.85Y-26.02
X41.39Y-23.48
X41.39Y-26.02
X43.93Y-23.48
X43.93Y-26.02
X46.47Y-23.48
X46.47Y-26.02
X49.01Y-23.48
X49.01Y-26.02
X50.485Y-11.025
X51.55Y-23.48
X51.55Y-26.02
X53.025Y-11.025
X54.09Y-23.48
X54.09Y-26.02
X55.565Y-11.025
X56.63Y-23.48
X56.63Y-26.02
M30
