%TF.GenerationSoftware,KiCad,Pcbnew,9.0.7*%
%TF.CreationDate,2026-05-23T17:59:52+02:00*%
%TF.ProjectId,BarePi_PidiPad,42617265-5069-45f5-9069-64695061642e,rev?*%
%TF.SameCoordinates,Original*%
%TF.FileFunction,AssemblyDrawing,Bot*%
%FSLAX46Y46*%
G04 Gerber Fmt 4.6, Leading zero omitted, Abs format (unit mm)*
G04 Created by KiCad (PCBNEW 9.0.7) date 2026-05-23 17:59:52*
%MOMM*%
%LPD*%
G01*
G04 APERTURE LIST*
%ADD10C,0.100000*%
%ADD11C,0.120000*%
G04 APERTURE END LIST*
%TO.C,C3*%
D10*
X53685000Y-20135000D02*
X56885000Y-20135000D01*
X56885000Y-18535000D01*
X53685000Y-18535000D01*
X53685000Y-20135000D01*
%TO.C,C1*%
X37510000Y-3480000D02*
X40710000Y-3480000D01*
X40710000Y-1880000D01*
X37510000Y-1880000D01*
X37510000Y-3480000D01*
%TO.C,R2*%
X27750000Y-18450000D02*
X26500000Y-18450000D01*
X26500000Y-16450000D01*
X27750000Y-16450000D01*
X27750000Y-18450000D01*
D11*
%TO.C,U2*%
X37155000Y-11455000D02*
X37575000Y-11455000D01*
X37155000Y-15595000D02*
X37155000Y-11455000D01*
X37155000Y-15595000D02*
X37575000Y-15595000D01*
D10*
X37275000Y-11575000D02*
X37275000Y-15475000D01*
X37275000Y-15475000D02*
X44975000Y-15475000D01*
X44975000Y-15475000D02*
X45975000Y-14475000D01*
X45975000Y-11575000D02*
X37275000Y-11575000D01*
X45975000Y-14475000D02*
X45975000Y-11575000D01*
D11*
X46095000Y-11455000D02*
X45675000Y-11455000D01*
X46095000Y-15595000D02*
X45675000Y-15595000D01*
X46095000Y-15595000D02*
X46095000Y-11455000D01*
X45905000Y-16265000D02*
X45575000Y-16025000D01*
X45905000Y-15785000D01*
X45905000Y-16265000D01*
G36*
X45905000Y-16265000D02*
G01*
X45575000Y-16025000D01*
X45905000Y-15785000D01*
X45905000Y-16265000D01*
G37*
%TO.C,C2*%
D10*
X46150000Y-1830000D02*
X42950000Y-1830000D01*
X42950000Y-3430000D01*
X46150000Y-3430000D01*
X46150000Y-1830000D01*
%TO.C,R1*%
X30275000Y-18400000D02*
X29025000Y-18400000D01*
X29025000Y-16400000D01*
X30275000Y-16400000D01*
X30275000Y-18400000D01*
%TO.C,R3*%
X25250000Y-18450000D02*
X24000000Y-18450000D01*
X24000000Y-16450000D01*
X25250000Y-16450000D01*
X25250000Y-18450000D01*
%TD*%
M02*
