%TF.GenerationSoftware,KiCad,Pcbnew,9.0.7*%
%TF.CreationDate,2026-05-23T17:59:52+02:00*%
%TF.ProjectId,BarePi_PidiPad,42617265-5069-45f5-9069-64695061642e,rev?*%
%TF.SameCoordinates,Original*%
%TF.FileFunction,Legend,Bot*%
%TF.FilePolarity,Positive*%
%FSLAX46Y46*%
G04 Gerber Fmt 4.6, Leading zero omitted, Abs format (unit mm)*
G04 Created by KiCad (PCBNEW 9.0.7) date 2026-05-23 17:59:52*
%MOMM*%
%LPD*%
G01*
G04 APERTURE LIST*
%ADD10C,0.120000*%
G04 APERTURE END LIST*
D10*
X58730000Y-20034295D02*
X58765714Y-20070010D01*
X58765714Y-20070010D02*
X58872857Y-20105724D01*
X58872857Y-20105724D02*
X58944285Y-20105724D01*
X58944285Y-20105724D02*
X59051428Y-20070010D01*
X59051428Y-20070010D02*
X59122857Y-19998581D01*
X59122857Y-19998581D02*
X59158571Y-19927152D01*
X59158571Y-19927152D02*
X59194285Y-19784295D01*
X59194285Y-19784295D02*
X59194285Y-19677152D01*
X59194285Y-19677152D02*
X59158571Y-19534295D01*
X59158571Y-19534295D02*
X59122857Y-19462867D01*
X59122857Y-19462867D02*
X59051428Y-19391438D01*
X59051428Y-19391438D02*
X58944285Y-19355724D01*
X58944285Y-19355724D02*
X58872857Y-19355724D01*
X58872857Y-19355724D02*
X58765714Y-19391438D01*
X58765714Y-19391438D02*
X58730000Y-19427152D01*
X58480000Y-19355724D02*
X58015714Y-19355724D01*
X58015714Y-19355724D02*
X58265714Y-19641438D01*
X58265714Y-19641438D02*
X58158571Y-19641438D01*
X58158571Y-19641438D02*
X58087143Y-19677152D01*
X58087143Y-19677152D02*
X58051428Y-19712867D01*
X58051428Y-19712867D02*
X58015714Y-19784295D01*
X58015714Y-19784295D02*
X58015714Y-19962867D01*
X58015714Y-19962867D02*
X58051428Y-20034295D01*
X58051428Y-20034295D02*
X58087143Y-20070010D01*
X58087143Y-20070010D02*
X58158571Y-20105724D01*
X58158571Y-20105724D02*
X58372857Y-20105724D01*
X58372857Y-20105724D02*
X58444285Y-20070010D01*
X58444285Y-20070010D02*
X58480000Y-20034295D01*
X35505000Y-2289295D02*
X35540714Y-2325010D01*
X35540714Y-2325010D02*
X35647857Y-2360724D01*
X35647857Y-2360724D02*
X35719285Y-2360724D01*
X35719285Y-2360724D02*
X35826428Y-2325010D01*
X35826428Y-2325010D02*
X35897857Y-2253581D01*
X35897857Y-2253581D02*
X35933571Y-2182152D01*
X35933571Y-2182152D02*
X35969285Y-2039295D01*
X35969285Y-2039295D02*
X35969285Y-1932152D01*
X35969285Y-1932152D02*
X35933571Y-1789295D01*
X35933571Y-1789295D02*
X35897857Y-1717867D01*
X35897857Y-1717867D02*
X35826428Y-1646438D01*
X35826428Y-1646438D02*
X35719285Y-1610724D01*
X35719285Y-1610724D02*
X35647857Y-1610724D01*
X35647857Y-1610724D02*
X35540714Y-1646438D01*
X35540714Y-1646438D02*
X35505000Y-1682152D01*
X34790714Y-2360724D02*
X35219285Y-2360724D01*
X35005000Y-2360724D02*
X35005000Y-1610724D01*
X35005000Y-1610724D02*
X35076428Y-1717867D01*
X35076428Y-1717867D02*
X35147857Y-1789295D01*
X35147857Y-1789295D02*
X35219285Y-1825010D01*
X27425000Y-20480724D02*
X27675000Y-20123581D01*
X27853571Y-20480724D02*
X27853571Y-19730724D01*
X27853571Y-19730724D02*
X27567857Y-19730724D01*
X27567857Y-19730724D02*
X27496428Y-19766438D01*
X27496428Y-19766438D02*
X27460714Y-19802152D01*
X27460714Y-19802152D02*
X27425000Y-19873581D01*
X27425000Y-19873581D02*
X27425000Y-19980724D01*
X27425000Y-19980724D02*
X27460714Y-20052152D01*
X27460714Y-20052152D02*
X27496428Y-20087867D01*
X27496428Y-20087867D02*
X27567857Y-20123581D01*
X27567857Y-20123581D02*
X27853571Y-20123581D01*
X27139285Y-19802152D02*
X27103571Y-19766438D01*
X27103571Y-19766438D02*
X27032143Y-19730724D01*
X27032143Y-19730724D02*
X26853571Y-19730724D01*
X26853571Y-19730724D02*
X26782143Y-19766438D01*
X26782143Y-19766438D02*
X26746428Y-19802152D01*
X26746428Y-19802152D02*
X26710714Y-19873581D01*
X26710714Y-19873581D02*
X26710714Y-19945010D01*
X26710714Y-19945010D02*
X26746428Y-20052152D01*
X26746428Y-20052152D02*
X27175000Y-20480724D01*
X27175000Y-20480724D02*
X26710714Y-20480724D01*
X49461428Y-13410724D02*
X49461428Y-14017867D01*
X49461428Y-14017867D02*
X49425714Y-14089295D01*
X49425714Y-14089295D02*
X49390000Y-14125010D01*
X49390000Y-14125010D02*
X49318571Y-14160724D01*
X49318571Y-14160724D02*
X49175714Y-14160724D01*
X49175714Y-14160724D02*
X49104285Y-14125010D01*
X49104285Y-14125010D02*
X49068571Y-14089295D01*
X49068571Y-14089295D02*
X49032857Y-14017867D01*
X49032857Y-14017867D02*
X49032857Y-13410724D01*
X48711428Y-13482152D02*
X48675714Y-13446438D01*
X48675714Y-13446438D02*
X48604286Y-13410724D01*
X48604286Y-13410724D02*
X48425714Y-13410724D01*
X48425714Y-13410724D02*
X48354286Y-13446438D01*
X48354286Y-13446438D02*
X48318571Y-13482152D01*
X48318571Y-13482152D02*
X48282857Y-13553581D01*
X48282857Y-13553581D02*
X48282857Y-13625010D01*
X48282857Y-13625010D02*
X48318571Y-13732152D01*
X48318571Y-13732152D02*
X48747143Y-14160724D01*
X48747143Y-14160724D02*
X48282857Y-14160724D01*
X48005000Y-3739295D02*
X48040714Y-3775010D01*
X48040714Y-3775010D02*
X48147857Y-3810724D01*
X48147857Y-3810724D02*
X48219285Y-3810724D01*
X48219285Y-3810724D02*
X48326428Y-3775010D01*
X48326428Y-3775010D02*
X48397857Y-3703581D01*
X48397857Y-3703581D02*
X48433571Y-3632152D01*
X48433571Y-3632152D02*
X48469285Y-3489295D01*
X48469285Y-3489295D02*
X48469285Y-3382152D01*
X48469285Y-3382152D02*
X48433571Y-3239295D01*
X48433571Y-3239295D02*
X48397857Y-3167867D01*
X48397857Y-3167867D02*
X48326428Y-3096438D01*
X48326428Y-3096438D02*
X48219285Y-3060724D01*
X48219285Y-3060724D02*
X48147857Y-3060724D01*
X48147857Y-3060724D02*
X48040714Y-3096438D01*
X48040714Y-3096438D02*
X48005000Y-3132152D01*
X47719285Y-3132152D02*
X47683571Y-3096438D01*
X47683571Y-3096438D02*
X47612143Y-3060724D01*
X47612143Y-3060724D02*
X47433571Y-3060724D01*
X47433571Y-3060724D02*
X47362143Y-3096438D01*
X47362143Y-3096438D02*
X47326428Y-3132152D01*
X47326428Y-3132152D02*
X47290714Y-3203581D01*
X47290714Y-3203581D02*
X47290714Y-3275010D01*
X47290714Y-3275010D02*
X47326428Y-3382152D01*
X47326428Y-3382152D02*
X47755000Y-3810724D01*
X47755000Y-3810724D02*
X47290714Y-3810724D01*
X30245000Y-20280724D02*
X30495000Y-19923581D01*
X30673571Y-20280724D02*
X30673571Y-19530724D01*
X30673571Y-19530724D02*
X30387857Y-19530724D01*
X30387857Y-19530724D02*
X30316428Y-19566438D01*
X30316428Y-19566438D02*
X30280714Y-19602152D01*
X30280714Y-19602152D02*
X30245000Y-19673581D01*
X30245000Y-19673581D02*
X30245000Y-19780724D01*
X30245000Y-19780724D02*
X30280714Y-19852152D01*
X30280714Y-19852152D02*
X30316428Y-19887867D01*
X30316428Y-19887867D02*
X30387857Y-19923581D01*
X30387857Y-19923581D02*
X30673571Y-19923581D01*
X29530714Y-20280724D02*
X29959285Y-20280724D01*
X29745000Y-20280724D02*
X29745000Y-19530724D01*
X29745000Y-19530724D02*
X29816428Y-19637867D01*
X29816428Y-19637867D02*
X29887857Y-19709295D01*
X29887857Y-19709295D02*
X29959285Y-19745010D01*
X24775000Y-20500724D02*
X25025000Y-20143581D01*
X25203571Y-20500724D02*
X25203571Y-19750724D01*
X25203571Y-19750724D02*
X24917857Y-19750724D01*
X24917857Y-19750724D02*
X24846428Y-19786438D01*
X24846428Y-19786438D02*
X24810714Y-19822152D01*
X24810714Y-19822152D02*
X24775000Y-19893581D01*
X24775000Y-19893581D02*
X24775000Y-20000724D01*
X24775000Y-20000724D02*
X24810714Y-20072152D01*
X24810714Y-20072152D02*
X24846428Y-20107867D01*
X24846428Y-20107867D02*
X24917857Y-20143581D01*
X24917857Y-20143581D02*
X25203571Y-20143581D01*
X24525000Y-19750724D02*
X24060714Y-19750724D01*
X24060714Y-19750724D02*
X24310714Y-20036438D01*
X24310714Y-20036438D02*
X24203571Y-20036438D01*
X24203571Y-20036438D02*
X24132143Y-20072152D01*
X24132143Y-20072152D02*
X24096428Y-20107867D01*
X24096428Y-20107867D02*
X24060714Y-20179295D01*
X24060714Y-20179295D02*
X24060714Y-20357867D01*
X24060714Y-20357867D02*
X24096428Y-20429295D01*
X24096428Y-20429295D02*
X24132143Y-20465010D01*
X24132143Y-20465010D02*
X24203571Y-20500724D01*
X24203571Y-20500724D02*
X24417857Y-20500724D01*
X24417857Y-20500724D02*
X24489285Y-20465010D01*
X24489285Y-20465010D02*
X24525000Y-20429295D01*
%TO.C,C3*%
X54573748Y-20245000D02*
X55996252Y-20245000D01*
X54573748Y-18425000D02*
X55996252Y-18425000D01*
%TO.C,C1*%
X38398748Y-1770000D02*
X39821252Y-1770000D01*
X38398748Y-3590000D02*
X39821252Y-3590000D01*
%TO.C,R2*%
X26390000Y-17677064D02*
X26390000Y-17222936D01*
X27860000Y-17677064D02*
X27860000Y-17222936D01*
%TO.C,C2*%
X45261252Y-1720000D02*
X43838748Y-1720000D01*
X45261252Y-3540000D02*
X43838748Y-3540000D01*
%TO.C,R1*%
X28915000Y-17627064D02*
X28915000Y-17172936D01*
X30385000Y-17627064D02*
X30385000Y-17172936D01*
%TO.C,R3*%
X23890000Y-17677064D02*
X23890000Y-17222936D01*
X25360000Y-17677064D02*
X25360000Y-17222936D01*
%TD*%
M02*
