%TF.GenerationSoftware,KiCad,Pcbnew,9.0.7*%
%TF.CreationDate,2026-05-23T17:59:52+02:00*%
%TF.ProjectId,BarePi_PidiPad,42617265-5069-45f5-9069-64695061642e,rev?*%
%TF.SameCoordinates,Original*%
%TF.FileFunction,Copper,L1,Top*%
%TF.FilePolarity,Positive*%
%FSLAX46Y46*%
G04 Gerber Fmt 4.6, Leading zero omitted, Abs format (unit mm)*
G04 Created by KiCad (PCBNEW 9.0.7) date 2026-05-23 17:59:52*
%MOMM*%
%LPD*%
G01*
G04 APERTURE LIST*
G04 Aperture macros list*
%AMOutline4P*
0 Free polygon, 4 corners , with rotation*
0 The origin of the aperture is its center*
0 number of corners: always 4*
0 $1 to $8 corner X, Y*
0 $9 Rotation angle, in degrees counterclockwise*
0 create outline with 4 corners*
4,1,4,$1,$2,$3,$4,$5,$6,$7,$8,$1,$2,$9*%
G04 Aperture macros list end*
%ADD10C,0.375000*%
%ADD11C,0.150000*%
%TA.AperFunction,NonConductor*%
%ADD12C,0.150000*%
%TD*%
%ADD13C,0.500000*%
%TA.AperFunction,ComponentPad*%
%ADD14Outline4P,-1.600000X-0.800000X1.600000X-0.800000X1.600000X0.800000X-1.600000X0.800000X90.000000*%
%TD*%
%TA.AperFunction,ComponentPad*%
%ADD15O,1.600000X3.200000*%
%TD*%
%TA.AperFunction,ComponentPad*%
%ADD16Outline4P,-1.500000X-0.800000X1.500000X-0.800000X1.500000X0.800000X-1.500000X0.800000X270.000000*%
%TD*%
%TA.AperFunction,ComponentPad*%
%ADD17O,1.600000X3.000000*%
%TD*%
%TA.AperFunction,ComponentPad*%
%ADD18C,2.000000*%
%TD*%
%TA.AperFunction,ViaPad*%
%ADD19C,1.200000*%
%TD*%
%TA.AperFunction,Conductor*%
%ADD20C,0.330000*%
%TD*%
G04 APERTURE END LIST*
D10*
G36*
X2825000Y-16699163D02*
G01*
X1570568Y-16699163D01*
X1570568Y-17144937D01*
X1318510Y-17144937D01*
X1318510Y-15951139D01*
X1570568Y-15951139D01*
X1570568Y-16395905D01*
X2825000Y-16395905D01*
X2825000Y-16699163D01*
G37*
G36*
X2224752Y-14406504D02*
G01*
X2353355Y-14431883D01*
X2465302Y-14472155D01*
X2562954Y-14526590D01*
X2648137Y-14595316D01*
X2721222Y-14678203D01*
X2778126Y-14770889D01*
X2819562Y-14874755D01*
X2845328Y-14991705D01*
X2854309Y-15124071D01*
X2845320Y-15258311D01*
X2819578Y-15376528D01*
X2778267Y-15481131D01*
X2721667Y-15574093D01*
X2649145Y-15656857D01*
X2564265Y-15725745D01*
X2467311Y-15780202D01*
X2356529Y-15820413D01*
X2229639Y-15845710D01*
X2083936Y-15854602D01*
X1931294Y-15846132D01*
X1803686Y-15822528D01*
X1697239Y-15785908D01*
X1588072Y-15725450D01*
X1490518Y-15646140D01*
X1433755Y-15583950D01*
X1388799Y-15519324D01*
X1354688Y-15451876D01*
X1322349Y-15356570D01*
X1302125Y-15249274D01*
X1295062Y-15128101D01*
X1295267Y-15125079D01*
X1552983Y-15125079D01*
X1561529Y-15216544D01*
X1586083Y-15295954D01*
X1626135Y-15365675D01*
X1682676Y-15427329D01*
X1749847Y-15474371D01*
X1834645Y-15510182D01*
X1940987Y-15533569D01*
X2073678Y-15542093D01*
X2203665Y-15533482D01*
X2309232Y-15509696D01*
X2394726Y-15472971D01*
X2463673Y-15424307D01*
X2522089Y-15360925D01*
X2563023Y-15290980D01*
X2587835Y-15213064D01*
X2596388Y-15125079D01*
X2587866Y-15037025D01*
X2563189Y-14959372D01*
X2522560Y-14889979D01*
X2464680Y-14827408D01*
X2396417Y-14779662D01*
X2310543Y-14743369D01*
X2203175Y-14719702D01*
X2069556Y-14711087D01*
X1937249Y-14719524D01*
X1831503Y-14742640D01*
X1747451Y-14777971D01*
X1681119Y-14824294D01*
X1625380Y-14885106D01*
X1585799Y-14954271D01*
X1561470Y-15033454D01*
X1552983Y-15125079D01*
X1295267Y-15125079D01*
X1304057Y-14995398D01*
X1329873Y-14878016D01*
X1371412Y-14773642D01*
X1428476Y-14680385D01*
X1501783Y-14596873D01*
X1587178Y-14527647D01*
X1685240Y-14472794D01*
X1797834Y-14432191D01*
X1927370Y-14406588D01*
X2076700Y-14397571D01*
X2224752Y-14406504D01*
G37*
G36*
X1873144Y-13015982D02*
G01*
X1950084Y-13033124D01*
X2014968Y-13060067D01*
X2074708Y-13097456D01*
X2123806Y-13139935D01*
X2163437Y-13187653D01*
X2208875Y-13267078D01*
X2234787Y-13345006D01*
X2250119Y-13465802D01*
X2256402Y-13659622D01*
X2256402Y-13857367D01*
X2825000Y-13857367D01*
X2825000Y-14160625D01*
X1318510Y-14160625D01*
X1318510Y-13710821D01*
X1570568Y-13710821D01*
X1570568Y-13857367D01*
X2004344Y-13857367D01*
X2004344Y-13691404D01*
X1996703Y-13526871D01*
X1980347Y-13451618D01*
X1949333Y-13397364D01*
X1905334Y-13356822D01*
X1850771Y-13331269D01*
X1786448Y-13322475D01*
X1732655Y-13328141D01*
X1687374Y-13344295D01*
X1648787Y-13370652D01*
X1617198Y-13405552D01*
X1594738Y-13445830D01*
X1581010Y-13492560D01*
X1573908Y-13560445D01*
X1570568Y-13710821D01*
X1318510Y-13710821D01*
X1318510Y-13673910D01*
X1325872Y-13420935D01*
X1341133Y-13313224D01*
X1372271Y-13232388D01*
X1420826Y-13160775D01*
X1488594Y-13096978D01*
X1568465Y-13049949D01*
X1664830Y-13020403D01*
X1781777Y-13009875D01*
X1873144Y-13015982D01*
G37*
D11*
D12*
X58021427Y-2285300D02*
X57914285Y-2249585D01*
X57914285Y-2249585D02*
X57735713Y-2249585D01*
X57735713Y-2249585D02*
X57664285Y-2285300D01*
X57664285Y-2285300D02*
X57628570Y-2321014D01*
X57628570Y-2321014D02*
X57592856Y-2392442D01*
X57592856Y-2392442D02*
X57592856Y-2463871D01*
X57592856Y-2463871D02*
X57628570Y-2535300D01*
X57628570Y-2535300D02*
X57664285Y-2571014D01*
X57664285Y-2571014D02*
X57735713Y-2606728D01*
X57735713Y-2606728D02*
X57878570Y-2642442D01*
X57878570Y-2642442D02*
X57949999Y-2678157D01*
X57949999Y-2678157D02*
X57985713Y-2713871D01*
X57985713Y-2713871D02*
X58021427Y-2785300D01*
X58021427Y-2785300D02*
X58021427Y-2856728D01*
X58021427Y-2856728D02*
X57985713Y-2928157D01*
X57985713Y-2928157D02*
X57949999Y-2963871D01*
X57949999Y-2963871D02*
X57878570Y-2999585D01*
X57878570Y-2999585D02*
X57699999Y-2999585D01*
X57699999Y-2999585D02*
X57592856Y-2963871D01*
X57342856Y-2999585D02*
X57164284Y-2249585D01*
X57164284Y-2249585D02*
X57021427Y-2785300D01*
X57021427Y-2785300D02*
X56878570Y-2249585D01*
X56878570Y-2249585D02*
X56699999Y-2999585D01*
X56414284Y-2249585D02*
X56414284Y-2999585D01*
X55914284Y-2999585D02*
X55771427Y-2999585D01*
X55771427Y-2999585D02*
X55699998Y-2963871D01*
X55699998Y-2963871D02*
X55628570Y-2892442D01*
X55628570Y-2892442D02*
X55592855Y-2749585D01*
X55592855Y-2749585D02*
X55592855Y-2499585D01*
X55592855Y-2499585D02*
X55628570Y-2356728D01*
X55628570Y-2356728D02*
X55699998Y-2285300D01*
X55699998Y-2285300D02*
X55771427Y-2249585D01*
X55771427Y-2249585D02*
X55914284Y-2249585D01*
X55914284Y-2249585D02*
X55985713Y-2285300D01*
X55985713Y-2285300D02*
X56057141Y-2356728D01*
X56057141Y-2356728D02*
X56092855Y-2499585D01*
X56092855Y-2499585D02*
X56092855Y-2749585D01*
X56092855Y-2749585D02*
X56057141Y-2892442D01*
X56057141Y-2892442D02*
X55985713Y-2963871D01*
X55985713Y-2963871D02*
X55914284Y-2999585D01*
X55271427Y-2535300D02*
X54699999Y-2535300D01*
X53949999Y-2963871D02*
X54021428Y-2999585D01*
X54021428Y-2999585D02*
X54128570Y-2999585D01*
X54128570Y-2999585D02*
X54235713Y-2963871D01*
X54235713Y-2963871D02*
X54307142Y-2892442D01*
X54307142Y-2892442D02*
X54342856Y-2821014D01*
X54342856Y-2821014D02*
X54378570Y-2678157D01*
X54378570Y-2678157D02*
X54378570Y-2571014D01*
X54378570Y-2571014D02*
X54342856Y-2428157D01*
X54342856Y-2428157D02*
X54307142Y-2356728D01*
X54307142Y-2356728D02*
X54235713Y-2285300D01*
X54235713Y-2285300D02*
X54128570Y-2249585D01*
X54128570Y-2249585D02*
X54057142Y-2249585D01*
X54057142Y-2249585D02*
X53949999Y-2285300D01*
X53949999Y-2285300D02*
X53914285Y-2321014D01*
X53914285Y-2321014D02*
X53914285Y-2571014D01*
X53914285Y-2571014D02*
X54057142Y-2571014D01*
X53592856Y-2249585D02*
X53592856Y-2999585D01*
X53592856Y-2999585D02*
X53164285Y-2249585D01*
X53164285Y-2249585D02*
X53164285Y-2999585D01*
X52807142Y-2249585D02*
X52807142Y-2999585D01*
X52807142Y-2999585D02*
X52628571Y-2999585D01*
X52628571Y-2999585D02*
X52521428Y-2963871D01*
X52521428Y-2963871D02*
X52449999Y-2892442D01*
X52449999Y-2892442D02*
X52414285Y-2821014D01*
X52414285Y-2821014D02*
X52378571Y-2678157D01*
X52378571Y-2678157D02*
X52378571Y-2571014D01*
X52378571Y-2571014D02*
X52414285Y-2428157D01*
X52414285Y-2428157D02*
X52449999Y-2356728D01*
X52449999Y-2356728D02*
X52521428Y-2285300D01*
X52521428Y-2285300D02*
X52628571Y-2249585D01*
X52628571Y-2249585D02*
X52807142Y-2249585D01*
X52057142Y-2535300D02*
X51485714Y-2535300D01*
X51200000Y-2999585D02*
X50735714Y-2999585D01*
X50735714Y-2999585D02*
X50985714Y-2713871D01*
X50985714Y-2713871D02*
X50878571Y-2713871D01*
X50878571Y-2713871D02*
X50807143Y-2678157D01*
X50807143Y-2678157D02*
X50771428Y-2642442D01*
X50771428Y-2642442D02*
X50735714Y-2571014D01*
X50735714Y-2571014D02*
X50735714Y-2392442D01*
X50735714Y-2392442D02*
X50771428Y-2321014D01*
X50771428Y-2321014D02*
X50807143Y-2285300D01*
X50807143Y-2285300D02*
X50878571Y-2249585D01*
X50878571Y-2249585D02*
X51092857Y-2249585D01*
X51092857Y-2249585D02*
X51164285Y-2285300D01*
X51164285Y-2285300D02*
X51200000Y-2321014D01*
X50521428Y-2999585D02*
X50271428Y-2249585D01*
X50271428Y-2249585D02*
X50021428Y-2999585D01*
X49842857Y-2999585D02*
X49378571Y-2999585D01*
X49378571Y-2999585D02*
X49628571Y-2713871D01*
X49628571Y-2713871D02*
X49521428Y-2713871D01*
X49521428Y-2713871D02*
X49450000Y-2678157D01*
X49450000Y-2678157D02*
X49414285Y-2642442D01*
X49414285Y-2642442D02*
X49378571Y-2571014D01*
X49378571Y-2571014D02*
X49378571Y-2392442D01*
X49378571Y-2392442D02*
X49414285Y-2321014D01*
X49414285Y-2321014D02*
X49450000Y-2285300D01*
X49450000Y-2285300D02*
X49521428Y-2249585D01*
X49521428Y-2249585D02*
X49735714Y-2249585D01*
X49735714Y-2249585D02*
X49807142Y-2285300D01*
X49807142Y-2285300D02*
X49842857Y-2321014D01*
D13*
G36*
X23876699Y-32407218D02*
G01*
X24008636Y-32421252D01*
X24120099Y-32452145D01*
X24217708Y-32504050D01*
X24301418Y-32576546D01*
X24371336Y-32671723D01*
X24405290Y-32743657D01*
X24425856Y-32821431D01*
X24432886Y-32906441D01*
X24424389Y-32998252D01*
X24399240Y-33083992D01*
X24357048Y-33165216D01*
X24300489Y-33237162D01*
X24232381Y-33295713D01*
X24151396Y-33341803D01*
X24267222Y-33387488D01*
X24359794Y-33448303D01*
X24432763Y-33524253D01*
X24487093Y-33614405D01*
X24519907Y-33714491D01*
X24531193Y-33827236D01*
X24524228Y-33917247D01*
X24503256Y-34005833D01*
X24467690Y-34093949D01*
X24419464Y-34175571D01*
X24361765Y-34244165D01*
X24294156Y-34301067D01*
X24217561Y-34344947D01*
X24127935Y-34376960D01*
X24022924Y-34396322D01*
X23887211Y-34404103D01*
X23535171Y-34410000D01*
X22853489Y-34410000D01*
X22853489Y-34073921D01*
X23257955Y-34073921D01*
X23632258Y-34073921D01*
X23831338Y-34069813D01*
X23909595Y-34061587D01*
X23992010Y-34032803D01*
X24056385Y-33981109D01*
X24087066Y-33935407D01*
X24106294Y-33879238D01*
X24113172Y-33809773D01*
X24101780Y-33724299D01*
X24069452Y-33655778D01*
X24017016Y-33601786D01*
X23943057Y-33563576D01*
X23836577Y-33544071D01*
X23584508Y-33534633D01*
X23257955Y-33534633D01*
X23257955Y-34073921D01*
X22853489Y-34073921D01*
X22853489Y-33198555D01*
X23257955Y-33198555D01*
X23522959Y-33198555D01*
X23816783Y-33191716D01*
X23911782Y-33166758D01*
X23979937Y-33120397D01*
X24012489Y-33077637D01*
X24032399Y-33026499D01*
X24039410Y-32964570D01*
X24025988Y-32879063D01*
X23988119Y-32814361D01*
X23950383Y-32782072D01*
X23900661Y-32758462D01*
X23835834Y-32744263D01*
X23490230Y-32737424D01*
X23257955Y-32737424D01*
X23257955Y-33198555D01*
X22853489Y-33198555D01*
X22853489Y-32401346D01*
X23654117Y-32401346D01*
X23876699Y-32407218D01*
G37*
G36*
X25608793Y-32925561D02*
G01*
X25732638Y-32947331D01*
X25819208Y-32978370D01*
X25898071Y-33025203D01*
X25955869Y-33076933D01*
X25996162Y-33133709D01*
X26021176Y-33199952D01*
X26039892Y-33309464D01*
X26047453Y-33479434D01*
X26043423Y-33930307D01*
X26048902Y-34110026D01*
X26061863Y-34214117D01*
X26087363Y-34306053D01*
X26130862Y-34410000D01*
X25751064Y-34410000D01*
X25714184Y-34298136D01*
X25700506Y-34253684D01*
X25597121Y-34340299D01*
X25490091Y-34400230D01*
X25374897Y-34436748D01*
X25250977Y-34449078D01*
X25139466Y-34440589D01*
X25045337Y-34416648D01*
X24965561Y-34378670D01*
X24897802Y-34326835D01*
X24841290Y-34261621D01*
X24801408Y-34189438D01*
X24777113Y-34108837D01*
X24768720Y-34017745D01*
X24772172Y-33976468D01*
X25152547Y-33976468D01*
X25159215Y-34028043D01*
X25178922Y-34074216D01*
X25212631Y-34116542D01*
X25255801Y-34149014D01*
X25306111Y-34168673D01*
X25365649Y-34175526D01*
X25432729Y-34168140D01*
X25498315Y-34145726D01*
X25563730Y-34106894D01*
X25622085Y-34048089D01*
X25655321Y-33979277D01*
X25665607Y-33918754D01*
X25670342Y-33791210D01*
X25670342Y-33714396D01*
X25436724Y-33773381D01*
X25291535Y-33811684D01*
X25227652Y-33840669D01*
X25184968Y-33880751D01*
X25160701Y-33925358D01*
X25152547Y-33976468D01*
X24772172Y-33976468D01*
X24775472Y-33937018D01*
X24795133Y-33864025D01*
X24827460Y-33797316D01*
X24871691Y-33737986D01*
X24926170Y-33688799D01*
X24992080Y-33649061D01*
X25110610Y-33604009D01*
X25297383Y-33559057D01*
X25545102Y-33504803D01*
X25670342Y-33464291D01*
X25670342Y-33424968D01*
X25663168Y-33351107D01*
X25644237Y-33298902D01*
X25615632Y-33262669D01*
X25575602Y-33238542D01*
X25510365Y-33221146D01*
X25409369Y-33214187D01*
X25314350Y-33225625D01*
X25249512Y-33255830D01*
X25200415Y-33308843D01*
X25156699Y-33401765D01*
X24808287Y-33339239D01*
X24859430Y-33202986D01*
X24926953Y-33098690D01*
X25010398Y-33020624D01*
X25083219Y-32978768D01*
X25175589Y-32946367D01*
X25291763Y-32925003D01*
X25436724Y-32917187D01*
X25608793Y-32925561D01*
G37*
G36*
X26792638Y-34410000D02*
G01*
X26408688Y-34410000D01*
X26408688Y-32956266D01*
X26765283Y-32956266D01*
X26765283Y-33162529D01*
X26859488Y-33032019D01*
X26929902Y-32966769D01*
X27007461Y-32929735D01*
X27095865Y-32917187D01*
X27181402Y-32925062D01*
X27265251Y-32948835D01*
X27348657Y-32989483D01*
X27229833Y-33323852D01*
X27132454Y-33275476D01*
X27049459Y-33261081D01*
X26973991Y-33272618D01*
X26912805Y-33305900D01*
X26865960Y-33363087D01*
X26824756Y-33467711D01*
X26803023Y-33616422D01*
X26792638Y-33958150D01*
X26792638Y-34410000D01*
G37*
G36*
X28225382Y-32931650D02*
G01*
X28360649Y-32972852D01*
X28477043Y-33039424D01*
X28577687Y-33132609D01*
X28639841Y-33219429D01*
X28690127Y-33325098D01*
X28727709Y-33453009D01*
X28750790Y-33607266D01*
X28756717Y-33792554D01*
X27794888Y-33792554D01*
X27808211Y-33902666D01*
X27839750Y-33989278D01*
X27887823Y-34057435D01*
X27952052Y-34110127D01*
X28024856Y-34141355D01*
X28109107Y-34152079D01*
X28193549Y-34139601D01*
X28260782Y-34103963D01*
X28312615Y-34044702D01*
X28353716Y-33948869D01*
X28736200Y-34011395D01*
X28675540Y-34146163D01*
X28597958Y-34253406D01*
X28503193Y-34337215D01*
X28392107Y-34397786D01*
X28260917Y-34435673D01*
X28104955Y-34449078D01*
X27953184Y-34437823D01*
X27824836Y-34406079D01*
X27715910Y-34355773D01*
X27623279Y-34287267D01*
X27544906Y-34199340D01*
X27484001Y-34096615D01*
X27439272Y-33979835D01*
X27411243Y-33846626D01*
X27401413Y-33694124D01*
X27411316Y-33558080D01*
X27801727Y-33558080D01*
X28375576Y-33558080D01*
X28362835Y-33448662D01*
X28333415Y-33365190D01*
X28289480Y-33301870D01*
X28230279Y-33252770D01*
X28164611Y-33223980D01*
X28090056Y-33214187D01*
X28010349Y-33224673D01*
X27942067Y-33255175D01*
X27882327Y-33306755D01*
X27838352Y-33372846D01*
X27810964Y-33455126D01*
X27801727Y-33558080D01*
X27411316Y-33558080D01*
X27414663Y-33512094D01*
X27451866Y-33359532D01*
X27510514Y-33231356D01*
X27589969Y-33123572D01*
X27691006Y-33032894D01*
X27802490Y-32969194D01*
X27926646Y-32930523D01*
X28066731Y-32917187D01*
X28225382Y-32931650D01*
G37*
G36*
X30057799Y-32411162D02*
G01*
X30201413Y-32431510D01*
X30309194Y-32473028D01*
X30404679Y-32537768D01*
X30489742Y-32628126D01*
X30552447Y-32734620D01*
X30591842Y-32863107D01*
X30605879Y-33019036D01*
X30597737Y-33140859D01*
X30574880Y-33243445D01*
X30538957Y-33329958D01*
X30489104Y-33409611D01*
X30432466Y-33475075D01*
X30368842Y-33527916D01*
X30262942Y-33588500D01*
X30159037Y-33623049D01*
X29997977Y-33643492D01*
X29739550Y-33651870D01*
X29475890Y-33651870D01*
X29475890Y-34410000D01*
X29071546Y-34410000D01*
X29071546Y-33315792D01*
X29475890Y-33315792D01*
X29697174Y-33315792D01*
X29916552Y-33305604D01*
X30016888Y-33283796D01*
X30089227Y-33242444D01*
X30143283Y-33183778D01*
X30177354Y-33111028D01*
X30189079Y-33025265D01*
X30181524Y-32953540D01*
X30159986Y-32893165D01*
X30124843Y-32841716D01*
X30078309Y-32799598D01*
X30024606Y-32769651D01*
X29962299Y-32751346D01*
X29871785Y-32741877D01*
X29671284Y-32737424D01*
X29475890Y-32737424D01*
X29475890Y-33315792D01*
X29071546Y-33315792D01*
X29071546Y-32401346D01*
X29720499Y-32401346D01*
X30057799Y-32411162D01*
G37*
G36*
X30934874Y-32753056D02*
G01*
X30934874Y-32401346D01*
X31318702Y-32401346D01*
X31318702Y-32753056D01*
X30934874Y-32753056D01*
G37*
G36*
X30934874Y-34410000D02*
G01*
X30934874Y-32956266D01*
X31318702Y-32956266D01*
X31318702Y-34410000D01*
X30934874Y-34410000D01*
G37*
G36*
X33479153Y-32411162D02*
G01*
X33622767Y-32431510D01*
X33730548Y-32473028D01*
X33826033Y-32537768D01*
X33911096Y-32628126D01*
X33973801Y-32734620D01*
X34013196Y-32863107D01*
X34027233Y-33019036D01*
X34019091Y-33140859D01*
X33996234Y-33243445D01*
X33960311Y-33329958D01*
X33910458Y-33409611D01*
X33853820Y-33475075D01*
X33790195Y-33527916D01*
X33684296Y-33588500D01*
X33580391Y-33623049D01*
X33419330Y-33643492D01*
X33160904Y-33651870D01*
X32897244Y-33651870D01*
X32897244Y-34410000D01*
X32492900Y-34410000D01*
X32492900Y-33315792D01*
X32897244Y-33315792D01*
X33118528Y-33315792D01*
X33337905Y-33305604D01*
X33438242Y-33283796D01*
X33510581Y-33242444D01*
X33564637Y-33183778D01*
X33598708Y-33111028D01*
X33610433Y-33025265D01*
X33602878Y-32953540D01*
X33581339Y-32893165D01*
X33546197Y-32841716D01*
X33499663Y-32799598D01*
X33445959Y-32769651D01*
X33383653Y-32751346D01*
X33293139Y-32741877D01*
X33092638Y-32737424D01*
X32897244Y-32737424D01*
X32897244Y-33315792D01*
X32492900Y-33315792D01*
X32492900Y-32401346D01*
X33141853Y-32401346D01*
X33479153Y-32411162D01*
G37*
G36*
X34356228Y-32753056D02*
G01*
X34356228Y-32401346D01*
X34740056Y-32401346D01*
X34740056Y-32753056D01*
X34356228Y-32753056D01*
G37*
G36*
X34356228Y-34410000D02*
G01*
X34356228Y-32956266D01*
X34740056Y-32956266D01*
X34740056Y-34410000D01*
X34356228Y-34410000D01*
G37*
G36*
X36464533Y-34410000D02*
G01*
X36107938Y-34410000D01*
X36107938Y-34196898D01*
X36043844Y-34274471D01*
X35974096Y-34336751D01*
X35898255Y-34385209D01*
X35775238Y-34433527D01*
X35654379Y-34449078D01*
X35534328Y-34436455D01*
X35424546Y-34399237D01*
X35322377Y-34336616D01*
X35226099Y-34245502D01*
X35151428Y-34139672D01*
X35095902Y-34012704D01*
X35060471Y-33860427D01*
X35047802Y-33677637D01*
X35049262Y-33655900D01*
X35439934Y-33655900D01*
X35448858Y-33814321D01*
X35471778Y-33924621D01*
X35504170Y-33998817D01*
X35557027Y-34067700D01*
X35616817Y-34114528D01*
X35684821Y-34142456D01*
X35763678Y-34152079D01*
X35846763Y-34139600D01*
X35920938Y-34102350D01*
X35989114Y-34037163D01*
X36037713Y-33955144D01*
X36069977Y-33843596D01*
X36082048Y-33693635D01*
X36069767Y-33524875D01*
X36037930Y-33406806D01*
X35991800Y-33326416D01*
X35925272Y-33263490D01*
X35849457Y-33226745D01*
X35760991Y-33214187D01*
X35674993Y-33226444D01*
X35599726Y-33262603D01*
X35532135Y-33324951D01*
X35483826Y-33404151D01*
X35451870Y-33511621D01*
X35439934Y-33655900D01*
X35049262Y-33655900D01*
X35060434Y-33489588D01*
X35095386Y-33336416D01*
X35149473Y-33211925D01*
X35221336Y-33111116D01*
X35314572Y-33025717D01*
X35417219Y-32965900D01*
X35531311Y-32929667D01*
X35659874Y-32917187D01*
X35776468Y-32929620D01*
X35883925Y-32966415D01*
X35984787Y-33028590D01*
X36080705Y-33119420D01*
X36080705Y-32401346D01*
X36464533Y-32401346D01*
X36464533Y-34410000D01*
G37*
G36*
X36843597Y-32753056D02*
G01*
X36843597Y-32401346D01*
X37227425Y-32401346D01*
X37227425Y-32753056D01*
X36843597Y-32753056D01*
G37*
G36*
X36843597Y-34410000D02*
G01*
X36843597Y-32956266D01*
X37227425Y-32956266D01*
X37227425Y-34410000D01*
X36843597Y-34410000D01*
G37*
G36*
X38610207Y-32411162D02*
G01*
X38753821Y-32431510D01*
X38861602Y-32473028D01*
X38957087Y-32537768D01*
X39042149Y-32628126D01*
X39104855Y-32734620D01*
X39144249Y-32863107D01*
X39158287Y-33019036D01*
X39150145Y-33140859D01*
X39127287Y-33243445D01*
X39091364Y-33329958D01*
X39041512Y-33409611D01*
X38984874Y-33475075D01*
X38921249Y-33527916D01*
X38815350Y-33588500D01*
X38711445Y-33623049D01*
X38550384Y-33643492D01*
X38291957Y-33651870D01*
X38028297Y-33651870D01*
X38028297Y-34410000D01*
X37623953Y-34410000D01*
X37623953Y-33315792D01*
X38028297Y-33315792D01*
X38249581Y-33315792D01*
X38468959Y-33305604D01*
X38569295Y-33283796D01*
X38641635Y-33242444D01*
X38695691Y-33183778D01*
X38729761Y-33111028D01*
X38741486Y-33025265D01*
X38733932Y-32953540D01*
X38712393Y-32893165D01*
X38677251Y-32841716D01*
X38630717Y-32799598D01*
X38577013Y-32769651D01*
X38514707Y-32751346D01*
X38424193Y-32741877D01*
X38223692Y-32737424D01*
X38028297Y-32737424D01*
X38028297Y-33315792D01*
X37623953Y-33315792D01*
X37623953Y-32401346D01*
X38272907Y-32401346D01*
X38610207Y-32411162D01*
G37*
G36*
X40226239Y-32925561D02*
G01*
X40350084Y-32947331D01*
X40436654Y-32978370D01*
X40515517Y-33025203D01*
X40573315Y-33076933D01*
X40613608Y-33133709D01*
X40638622Y-33199952D01*
X40657338Y-33309464D01*
X40664899Y-33479434D01*
X40660869Y-33930307D01*
X40666348Y-34110026D01*
X40679309Y-34214117D01*
X40704809Y-34306053D01*
X40748308Y-34410000D01*
X40368510Y-34410000D01*
X40331630Y-34298136D01*
X40317952Y-34253684D01*
X40214567Y-34340299D01*
X40107537Y-34400230D01*
X39992343Y-34436748D01*
X39868423Y-34449078D01*
X39756912Y-34440589D01*
X39662783Y-34416648D01*
X39583007Y-34378670D01*
X39515248Y-34326835D01*
X39458736Y-34261621D01*
X39418854Y-34189438D01*
X39394559Y-34108837D01*
X39386165Y-34017745D01*
X39389618Y-33976468D01*
X39769993Y-33976468D01*
X39776661Y-34028043D01*
X39796368Y-34074216D01*
X39830077Y-34116542D01*
X39873247Y-34149014D01*
X39923557Y-34168673D01*
X39983095Y-34175526D01*
X40050175Y-34168140D01*
X40115760Y-34145726D01*
X40181176Y-34106894D01*
X40239531Y-34048089D01*
X40272767Y-33979277D01*
X40283053Y-33918754D01*
X40287788Y-33791210D01*
X40287788Y-33714396D01*
X40054170Y-33773381D01*
X39908981Y-33811684D01*
X39845098Y-33840669D01*
X39802414Y-33880751D01*
X39778146Y-33925358D01*
X39769993Y-33976468D01*
X39389618Y-33976468D01*
X39392918Y-33937018D01*
X39412579Y-33864025D01*
X39444906Y-33797316D01*
X39489137Y-33737986D01*
X39543616Y-33688799D01*
X39609526Y-33649061D01*
X39728055Y-33604009D01*
X39914829Y-33559057D01*
X40162547Y-33504803D01*
X40287788Y-33464291D01*
X40287788Y-33424968D01*
X40280614Y-33351107D01*
X40261683Y-33298902D01*
X40233078Y-33262669D01*
X40193048Y-33238542D01*
X40127811Y-33221146D01*
X40026814Y-33214187D01*
X39931796Y-33225625D01*
X39866957Y-33255830D01*
X39817861Y-33308843D01*
X39774145Y-33401765D01*
X39425733Y-33339239D01*
X39476876Y-33202986D01*
X39544399Y-33098690D01*
X39627844Y-33020624D01*
X39700665Y-32978768D01*
X39793035Y-32946367D01*
X39909209Y-32925003D01*
X40054170Y-32917187D01*
X40226239Y-32925561D01*
G37*
G36*
X42373255Y-34410000D02*
G01*
X42016661Y-34410000D01*
X42016661Y-34196898D01*
X41952567Y-34274471D01*
X41882819Y-34336751D01*
X41806978Y-34385209D01*
X41683961Y-34433527D01*
X41563102Y-34449078D01*
X41443051Y-34436455D01*
X41333269Y-34399237D01*
X41231100Y-34336616D01*
X41134822Y-34245502D01*
X41060151Y-34139672D01*
X41004625Y-34012704D01*
X40969194Y-33860427D01*
X40956525Y-33677637D01*
X40957985Y-33655900D01*
X41348657Y-33655900D01*
X41357581Y-33814321D01*
X41380501Y-33924621D01*
X41412893Y-33998817D01*
X41465750Y-34067700D01*
X41525540Y-34114528D01*
X41593544Y-34142456D01*
X41672401Y-34152079D01*
X41755485Y-34139600D01*
X41829661Y-34102350D01*
X41897837Y-34037163D01*
X41946436Y-33955144D01*
X41978700Y-33843596D01*
X41990771Y-33693635D01*
X41978490Y-33524875D01*
X41946653Y-33406806D01*
X41900523Y-33326416D01*
X41833995Y-33263490D01*
X41758180Y-33226745D01*
X41669714Y-33214187D01*
X41583716Y-33226444D01*
X41508449Y-33262603D01*
X41440858Y-33324951D01*
X41392549Y-33404151D01*
X41360593Y-33511621D01*
X41348657Y-33655900D01*
X40957985Y-33655900D01*
X40969157Y-33489588D01*
X41004109Y-33336416D01*
X41058196Y-33211925D01*
X41130059Y-33111116D01*
X41223295Y-33025717D01*
X41325942Y-32965900D01*
X41440034Y-32929667D01*
X41568597Y-32917187D01*
X41685191Y-32929620D01*
X41792648Y-32966415D01*
X41893510Y-33028590D01*
X41989428Y-33119420D01*
X41989428Y-32401346D01*
X42373255Y-32401346D01*
X42373255Y-34410000D01*
G37*
D14*
%TO.P,J2,1,Pin_1*%
%TO.N,/3V3*%
X50485000Y-11025000D03*
D15*
%TO.P,J2,2,Pin_2*%
%TO.N,/GND*%
X53025000Y-11025000D03*
%TO.P,J2,3,Pin_3*%
%TO.N,/SWIO*%
X55565000Y-11025000D03*
%TD*%
D16*
%TO.P,J3,1,Pin_1*%
%TO.N,/HSYNC*%
X32200000Y-9660000D03*
D17*
%TO.P,J3,2,Pin_2*%
%TO.N,/VSYNC*%
X32200000Y-13000000D03*
%TO.P,J3,3,Pin_3*%
%TO.N,/GND*%
X29660000Y-9660000D03*
%TO.P,J3,4,Pin_4*%
%TO.N,/BLUE*%
X29660000Y-13000000D03*
%TO.P,J3,5,Pin_5*%
%TO.N,unconnected-(J3-Pin_5-Pad5)*%
X27120000Y-9660000D03*
%TO.P,J3,6,Pin_6*%
%TO.N,/GREEN*%
X27120000Y-13000000D03*
%TO.P,J3,7,Pin_7*%
%TO.N,/3V3*%
X24580000Y-9660000D03*
%TO.P,J3,8,Pin_8*%
%TO.N,/RED*%
X24580000Y-13000000D03*
%TO.P,J3,9,Pin_9*%
%TO.N,unconnected-(J3-Pin_9-Pad9)*%
X22040000Y-9660000D03*
%TO.P,J3,10,Pin_10*%
%TO.N,/5V*%
X22040000Y-13000000D03*
%TO.P,J3,11,Pin_11*%
%TO.N,unconnected-(J3-Pin_11-Pad11)*%
X19500000Y-9660000D03*
%TO.P,J3,12,Pin_12*%
%TO.N,unconnected-(J3-Pin_12-Pad12)*%
X19500000Y-13000000D03*
%TO.P,J3,13,Pin_13*%
%TO.N,unconnected-(J3-Pin_13-Pad13)*%
X16960000Y-9660000D03*
%TO.P,J3,14,Pin_14*%
%TO.N,unconnected-(J3-Pin_14-Pad14)*%
X16960000Y-13000000D03*
%TO.P,J3,15,Pin_15*%
%TO.N,unconnected-(J3-Pin_15-Pad15)*%
X14420000Y-9660000D03*
%TO.P,J3,16,Pin_16*%
%TO.N,unconnected-(J3-Pin_16-Pad16)*%
X14420000Y-13000000D03*
%TO.P,J3,17,Pin_17*%
%TO.N,unconnected-(J3-Pin_17-Pad17)*%
X11880000Y-9660000D03*
%TO.P,J3,18,Pin_18*%
%TO.N,unconnected-(J3-Pin_18-Pad18)*%
X11880000Y-13000000D03*
%TO.P,J3,19,Pin_19*%
%TO.N,unconnected-(J3-Pin_19-Pad19)*%
X9340000Y-9660000D03*
%TO.P,J3,20,Pin_20*%
%TO.N,unconnected-(J3-Pin_20-Pad20)*%
X9340000Y-13000000D03*
%TD*%
D16*
%TO.P,J1,1,Pin_1*%
%TO.N,/5V*%
X8370000Y-26420000D03*
D17*
%TO.P,J1,2,Pin_2*%
X8370000Y-23080000D03*
%TO.P,J1,3,Pin_3*%
%TO.N,/3V3*%
X10910000Y-26420000D03*
%TO.P,J1,4,Pin_4*%
X10910000Y-23080000D03*
%TO.P,J1,5,Pin_5*%
%TO.N,unconnected-(J1-Pin_5-Pad5)*%
X13450000Y-26420000D03*
%TO.P,J1,6,Pin_6*%
%TO.N,unconnected-(J1-Pin_6-Pad6)*%
X13450000Y-23080000D03*
%TO.P,J1,7,Pin_7*%
%TO.N,unconnected-(J1-Pin_7-Pad7)*%
X15990000Y-26420000D03*
%TO.P,J1,8,Pin_8*%
%TO.N,unconnected-(J1-Pin_8-Pad8)*%
X15990000Y-23080000D03*
%TO.P,J1,9,Pin_9*%
%TO.N,unconnected-(J1-Pin_9-Pad9)*%
X18530000Y-26420000D03*
%TO.P,J1,10,Pin_10*%
%TO.N,/KEY_DOWN*%
X18530000Y-23080000D03*
%TO.P,J1,11,Pin_11*%
%TO.N,/KEY_UP*%
X21070000Y-26420000D03*
%TO.P,J1,12,Pin_12*%
%TO.N,/SWIO*%
X21070000Y-23080000D03*
%TO.P,J1,13,Pin_13*%
%TO.N,/SPI_CS0*%
X23610000Y-26420000D03*
%TO.P,J1,14,Pin_14*%
%TO.N,/SPI_MISO*%
X23610000Y-23080000D03*
%TO.P,J1,15,Pin_15*%
%TO.N,/SPI_MOSI*%
X26150000Y-26420000D03*
%TO.P,J1,16,Pin_16*%
%TO.N,/SPI_SCLK*%
X26150000Y-23080000D03*
%TO.P,J1,17,Pin_17*%
%TO.N,/AUDIO*%
X28690000Y-26420000D03*
%TO.P,J1,18,Pin_18*%
X28690000Y-23080000D03*
%TO.P,J1,19,Pin_19*%
%TO.N,unconnected-(J1-Pin_19-Pad19)*%
X31230000Y-26420000D03*
%TO.P,J1,20,Pin_20*%
%TO.N,unconnected-(J1-Pin_20-Pad20)*%
X31230000Y-23080000D03*
%TO.P,J1,21,Pin_21*%
%TO.N,unconnected-(J1-Pin_21-Pad21)*%
X33770000Y-26420000D03*
%TO.P,J1,22,Pin_22*%
%TO.N,unconnected-(J1-Pin_22-Pad22)*%
X33770000Y-23080000D03*
%TO.P,J1,23,Pin_23*%
%TO.N,unconnected-(J1-Pin_23-Pad23)*%
X36310000Y-26420000D03*
%TO.P,J1,24,Pin_24*%
%TO.N,unconnected-(J1-Pin_24-Pad24)*%
X36310000Y-23080000D03*
%TO.P,J1,25,Pin_25*%
%TO.N,unconnected-(J1-Pin_25-Pad25)*%
X38850000Y-26420000D03*
%TO.P,J1,26,Pin_26*%
%TO.N,unconnected-(J1-Pin_26-Pad26)*%
X38850000Y-23080000D03*
%TO.P,J1,27,Pin_27*%
%TO.N,/KEY_A*%
X41390000Y-26420000D03*
%TO.P,J1,28,Pin_28*%
%TO.N,/KEY_B*%
X41390000Y-23080000D03*
%TO.P,J1,29,Pin_29*%
%TO.N,/KEY_X*%
X43930000Y-26420000D03*
%TO.P,J1,30,Pin_30*%
%TO.N,/KEY_RIGHT*%
X43930000Y-23080000D03*
%TO.P,J1,31,Pin_31*%
%TO.N,/KEY_LEFT*%
X46470000Y-26420000D03*
%TO.P,J1,32,Pin_32*%
%TO.N,/KEY_Y*%
X46470000Y-23080000D03*
%TO.P,J1,33,Pin_33*%
%TO.N,/SPI_CS0*%
X49010000Y-26420000D03*
%TO.P,J1,34,Pin_34*%
%TO.N,/SPI_MISO*%
X49010000Y-23080000D03*
%TO.P,J1,35,Pin_35*%
%TO.N,/SPI_MOSI*%
X51550000Y-26420000D03*
%TO.P,J1,36,Pin_36*%
%TO.N,/SPI_SCLK*%
X51550000Y-23080000D03*
%TO.P,J1,37,Pin_37*%
%TO.N,unconnected-(J1-Pin_37-Pad37)*%
X54090000Y-26420000D03*
%TO.P,J1,38,Pin_38*%
%TO.N,unconnected-(J1-Pin_38-Pad38)*%
X54090000Y-23080000D03*
%TO.P,J1,39,Pin_39*%
%TO.N,/GND*%
X56630000Y-26420000D03*
%TO.P,J1,40,Pin_40*%
X56630000Y-23080000D03*
%TD*%
D18*
%TO.P,Q1,1,1*%
%TO.N,/XI*%
X38535000Y-6725000D03*
%TO.P,Q1,2,2*%
%TO.N,/XO*%
X43415000Y-6725000D03*
%TD*%
D19*
%TO.N,/GND*%
X53608571Y-15445000D03*
X49739970Y-15853523D03*
%TO.N,/3V3*%
X48960771Y-18816547D03*
X52842101Y-17575000D03*
X12184000Y-28600000D03*
X52755270Y-29055000D03*
%TO.N,/SWIO*%
X19810000Y-30120000D03*
X48971935Y-17316337D03*
X55280000Y-14890000D03*
%TO.N,/KEY_UP*%
X22060000Y-19300000D03*
X34532442Y-16933499D03*
%TO.N,/SPI_CS0*%
X50079637Y-28345000D03*
X24136380Y-28326123D03*
X37671968Y-28345000D03*
%TO.N,/SPI_SCLK*%
X26140000Y-20560000D03*
X52303315Y-20870152D03*
X35900000Y-20640000D03*
%TO.N,/SPI_MOSI*%
X51345218Y-13676057D03*
X36665429Y-11967578D03*
X22632711Y-17913635D03*
%TO.N,/KEY_RIGHT*%
X36403347Y-15699243D03*
X41160332Y-19384822D03*
%TO.N,/SPI_MISO*%
X51096573Y-19063449D03*
X22660000Y-30800000D03*
X36102537Y-18375683D03*
X35036000Y-31236000D03*
%TO.N,/KEY_A*%
X38329679Y-20051771D03*
X33942255Y-19618145D03*
%TO.N,/KEY_DOWN*%
X36160821Y-10555000D03*
X18953320Y-17148500D03*
%TO.N,/HSYNC*%
X34400000Y-9900000D03*
X45278385Y-19499534D03*
X47140000Y-13630000D03*
X47710000Y-9440000D03*
%TO.N,/VSYNC*%
X35161000Y-12670000D03*
X46976113Y-19295066D03*
%TO.N,/AUDIO*%
X46000903Y-12654056D03*
X28831786Y-20049000D03*
%TO.N,/BLUE*%
X47658866Y-4981133D03*
X35006101Y-8375000D03*
%TO.N,/RED*%
X47947381Y-2310000D03*
X34762943Y-3420284D03*
%TO.N,/GREEN*%
X34730000Y-5320000D03*
X47674285Y-7940066D03*
%TO.N,/VIDEO*%
X31430000Y-18080000D03*
X46842824Y-17801000D03*
%TD*%
D20*
%TO.N,/GND*%
X49628543Y-15517596D02*
X49628543Y-15742096D01*
X49701139Y-15445000D02*
X49628543Y-15517596D01*
X53608571Y-15445000D02*
X49701139Y-15445000D01*
X49628543Y-15742096D02*
X49739970Y-15853523D01*
%TO.N,/3V3*%
X23382093Y-29125000D02*
X22857093Y-28600000D01*
X23432092Y-29125000D02*
X23382093Y-29125000D01*
X50616062Y-17575000D02*
X49374515Y-18816547D01*
X23717093Y-29410000D02*
X23432092Y-29125000D01*
X52842101Y-17575000D02*
X50616062Y-17575000D01*
X52755270Y-29055000D02*
X52400270Y-29410000D01*
X52400270Y-29410000D02*
X23717093Y-29410000D01*
X22857093Y-28600000D02*
X12184000Y-28600000D01*
X49374515Y-18816547D02*
X48960771Y-18816547D01*
%TO.N,/SWIO*%
X55364000Y-29056000D02*
X55364000Y-16400000D01*
X49983770Y-17316337D02*
X48971935Y-17316337D01*
X21833862Y-30120000D02*
X22218862Y-29735000D01*
X55364000Y-14974000D02*
X55280000Y-14890000D01*
X55364000Y-16400000D02*
X55254000Y-16510000D01*
X23536138Y-30120000D02*
X54300000Y-30120000D01*
X55254000Y-16510000D02*
X50790107Y-16510000D01*
X19810000Y-30120000D02*
X21833862Y-30120000D01*
X50790107Y-16510000D02*
X49983770Y-17316337D01*
X54300000Y-30120000D02*
X55364000Y-29056000D01*
X23151138Y-29735000D02*
X23536138Y-30120000D01*
X22218862Y-29735000D02*
X23151138Y-29735000D01*
X55364000Y-11226000D02*
X55565000Y-11025000D01*
X55364000Y-16400000D02*
X55364000Y-14974000D01*
%TO.N,/KEY_UP*%
X28390234Y-18983000D02*
X30636862Y-18983000D01*
X30798862Y-19145000D02*
X31991817Y-19145000D01*
X34203318Y-16933499D02*
X34532442Y-16933499D01*
X30636862Y-18983000D02*
X30798862Y-19145000D01*
X31991817Y-19145000D02*
X34203318Y-16933499D01*
X22060000Y-19300000D02*
X28073234Y-19300000D01*
X28073234Y-19300000D02*
X28390234Y-18983000D01*
%TO.N,/SPI_CS0*%
X37854124Y-28503852D02*
X50070386Y-28503852D01*
X37779391Y-28444078D02*
X37781177Y-28444078D01*
X37708078Y-28379488D02*
X37707239Y-28378649D01*
X37706487Y-28377996D02*
X37705981Y-28377490D01*
X37672603Y-28346270D02*
X37673773Y-28347440D01*
X24577616Y-28767359D02*
X24136380Y-28326123D01*
X37707184Y-28378649D02*
X37707239Y-28378649D01*
X37887077Y-28532860D02*
X37887077Y-28535713D01*
X37709225Y-28380563D02*
X37709320Y-28380563D01*
X37792629Y-28455530D02*
X37794730Y-28455530D01*
X37726282Y-28396412D02*
X37726738Y-28396412D01*
X37706487Y-28377996D02*
X37706531Y-28377996D01*
X37655431Y-28767359D02*
X24577616Y-28767359D01*
X37712563Y-28383684D02*
X37712724Y-28383684D01*
X37806729Y-28467529D02*
X37794730Y-28455530D01*
X37712563Y-28383684D02*
X37710817Y-28381938D01*
X37705949Y-28377490D02*
X37705981Y-28377490D01*
X37726282Y-28396412D02*
X37726738Y-28396412D01*
X37705949Y-28377490D02*
X37705556Y-28377097D01*
X37712563Y-28383684D02*
X37712724Y-28383684D01*
X37710695Y-28381938D02*
X37709320Y-28380563D01*
X37738788Y-28407874D02*
X37732536Y-28401622D01*
X37731948Y-28401622D02*
X37726738Y-28396412D01*
X37680623Y-28353921D02*
X37688580Y-28361878D01*
X37707184Y-28378649D02*
X37706531Y-28377996D01*
X37704855Y-28376441D02*
X37703640Y-28376441D01*
X37767264Y-28433431D02*
X37757616Y-28423783D01*
X37714934Y-28385894D02*
X37715142Y-28385894D01*
X37709225Y-28380563D02*
X37708150Y-28379488D01*
X37856521Y-28506249D02*
X37868988Y-28506249D01*
X37806729Y-28467529D02*
X37794730Y-28455530D01*
X37746923Y-28415252D02*
X37747881Y-28415252D01*
X37821388Y-28479779D02*
X37824072Y-28479779D01*
X37710695Y-28381938D02*
X37710817Y-28381938D01*
X37708078Y-28379488D02*
X37708150Y-28379488D01*
X37836270Y-28491977D02*
X37839181Y-28491977D01*
X37767264Y-28433431D02*
X37768744Y-28433431D01*
X37709225Y-28380563D02*
X37709320Y-28380563D01*
X37705226Y-28376792D02*
X37705206Y-28376792D01*
X37854124Y-28503852D02*
X37856521Y-28506249D01*
X37704855Y-28376441D02*
X37705206Y-28376792D01*
X37707184Y-28378649D02*
X37707239Y-28378649D01*
X37708078Y-28379488D02*
X37708150Y-28379488D01*
X37676160Y-28349675D02*
X37680406Y-28353921D01*
X37672578Y-28346270D02*
X37671968Y-28345660D01*
X37680623Y-28353921D02*
X37680406Y-28353921D01*
X37714934Y-28385894D02*
X37712724Y-28383684D01*
X37851056Y-28503852D02*
X37839181Y-28491977D01*
X37704855Y-28376441D02*
X37705206Y-28376792D01*
X37671968Y-28345660D02*
X37671968Y-28345000D01*
X37746923Y-28415252D02*
X37747881Y-28415252D01*
X37673822Y-28347440D02*
X37676057Y-28349675D01*
X37680623Y-28353921D02*
X37688580Y-28361878D01*
X37767264Y-28433431D02*
X37768744Y-28433431D01*
X37705949Y-28377490D02*
X37705556Y-28377097D01*
X37792629Y-28455530D02*
X37781177Y-28444078D01*
X37821388Y-28479779D02*
X37824072Y-28479779D01*
X37821388Y-28479779D02*
X37809138Y-28467529D01*
X37721656Y-28392138D02*
X37718192Y-28388674D01*
X37767264Y-28433431D02*
X37757616Y-28423783D01*
X37738788Y-28407874D02*
X37732536Y-28401622D01*
X37672603Y-28346270D02*
X37672578Y-28346270D01*
X37705531Y-28377097D02*
X37705226Y-28376792D01*
X50070386Y-28503852D02*
X50079637Y-28494601D01*
X37792629Y-28455530D02*
X37794730Y-28455530D01*
X37707184Y-28378649D02*
X37706531Y-28377996D01*
X37836270Y-28491977D02*
X37824072Y-28479779D01*
X37721656Y-28392138D02*
X37722008Y-28392138D01*
X37885566Y-28522827D02*
X37885566Y-28531349D01*
X37676160Y-28349675D02*
X37676057Y-28349675D01*
X37779391Y-28444078D02*
X37768744Y-28433431D01*
X37721656Y-28392138D02*
X37718192Y-28388674D01*
X37689077Y-28361878D02*
X37703640Y-28376441D01*
X37689077Y-28361878D02*
X37688580Y-28361878D01*
X37705531Y-28377097D02*
X37705226Y-28376792D01*
X37705226Y-28376792D02*
X37705206Y-28376792D01*
X37756412Y-28423783D02*
X37747881Y-28415252D01*
X37731948Y-28401622D02*
X37732536Y-28401622D01*
X37708078Y-28379488D02*
X37707239Y-28378649D01*
X37779391Y-28444078D02*
X37781177Y-28444078D01*
X37756412Y-28423783D02*
X37757616Y-28423783D01*
X37779391Y-28444078D02*
X37768744Y-28433431D01*
X37705949Y-28377490D02*
X37705981Y-28377490D01*
X37746923Y-28415252D02*
X37739545Y-28407874D01*
X37710695Y-28381938D02*
X37710817Y-28381938D01*
X37704855Y-28376441D02*
X37703640Y-28376441D01*
X37821388Y-28479779D02*
X37809138Y-28467529D01*
X37806729Y-28467529D02*
X37809138Y-28467529D01*
X37717922Y-28388674D02*
X37718192Y-28388674D01*
X37836270Y-28491977D02*
X37839181Y-28491977D01*
X37731948Y-28401622D02*
X37726738Y-28396412D01*
X37851056Y-28503852D02*
X37854124Y-28503852D01*
X37709225Y-28380563D02*
X37708150Y-28379488D01*
X37806729Y-28467529D02*
X37809138Y-28467529D01*
X37721656Y-28392138D02*
X37722008Y-28392138D01*
X37705531Y-28377097D02*
X37705556Y-28377097D01*
X37710695Y-28381938D02*
X37709320Y-28380563D01*
X37714934Y-28385894D02*
X37715142Y-28385894D01*
X37717922Y-28388674D02*
X37715142Y-28385894D01*
X37673822Y-28347440D02*
X37673773Y-28347440D01*
X37726282Y-28396412D02*
X37722008Y-28392138D01*
X37706487Y-28377996D02*
X37706531Y-28377996D01*
X37738788Y-28407874D02*
X37739545Y-28407874D01*
X37673822Y-28347440D02*
X37676057Y-28349675D01*
X37756412Y-28423783D02*
X37747881Y-28415252D01*
X37676160Y-28349675D02*
X37676057Y-28349675D01*
X37680623Y-28353921D02*
X37680406Y-28353921D01*
X50079637Y-28494601D02*
X50079637Y-28345000D01*
X37756412Y-28423783D02*
X37757616Y-28423783D01*
X37887077Y-28535713D02*
X37655431Y-28767359D01*
X37836270Y-28491977D02*
X37824072Y-28479779D01*
X37705531Y-28377097D02*
X37705556Y-28377097D01*
X37672578Y-28346270D02*
X37671968Y-28345660D01*
X37731948Y-28401622D02*
X37732536Y-28401622D01*
X37706487Y-28377996D02*
X37705981Y-28377490D01*
X37746923Y-28415252D02*
X37739545Y-28407874D01*
X37851056Y-28503852D02*
X37854124Y-28503852D01*
X37689077Y-28361878D02*
X37703640Y-28376441D01*
X37851056Y-28503852D02*
X37839181Y-28491977D01*
X37712563Y-28383684D02*
X37710817Y-28381938D01*
X37689077Y-28361878D02*
X37688580Y-28361878D01*
X37868988Y-28506249D02*
X37885566Y-28522827D01*
X37672603Y-28346270D02*
X37673773Y-28347440D01*
X37738788Y-28407874D02*
X37739545Y-28407874D01*
X37676160Y-28349675D02*
X37680406Y-28353921D01*
X37885566Y-28531349D02*
X37887077Y-28532860D01*
X37726282Y-28396412D02*
X37722008Y-28392138D01*
X37792629Y-28455530D02*
X37781177Y-28444078D01*
X37672603Y-28346270D02*
X37672578Y-28346270D01*
X37714934Y-28385894D02*
X37712724Y-28383684D01*
X37673822Y-28347440D02*
X37673773Y-28347440D01*
X37717922Y-28388674D02*
X37718192Y-28388674D01*
X37671968Y-28345660D02*
X37671968Y-28345000D01*
X37717922Y-28388674D02*
X37715142Y-28385894D01*
%TO.N,/SPI_SCLK*%
X44805394Y-21465000D02*
X44454394Y-21114000D01*
X45945606Y-21114000D02*
X45594606Y-21465000D01*
X38773588Y-21114000D02*
X38770817Y-21116771D01*
X35485000Y-21055000D02*
X35900000Y-20640000D01*
X46994394Y-21114000D02*
X45945606Y-21114000D01*
X26694000Y-21114000D02*
X29549019Y-21114000D01*
X29549019Y-21114000D02*
X29608019Y-21055000D01*
X45594606Y-21465000D02*
X44805394Y-21465000D01*
X48378617Y-21220989D02*
X47101383Y-21220989D01*
X52059468Y-21114000D02*
X48485606Y-21114000D01*
X38770817Y-21116771D02*
X36376771Y-21116771D01*
X29608019Y-21055000D02*
X35485000Y-21055000D01*
X26140000Y-20560000D02*
X26694000Y-21114000D01*
X44454394Y-21114000D02*
X38773588Y-21114000D01*
X47101383Y-21220989D02*
X46994394Y-21114000D01*
X48485606Y-21114000D02*
X48378617Y-21220989D01*
X52303315Y-20870152D02*
X52059468Y-21114000D01*
X36376771Y-21116771D02*
X35900000Y-20640000D01*
%TO.N,/SPI_MOSI*%
X34718862Y-11605000D02*
X35709465Y-11605000D01*
X48775000Y-9165955D02*
X48775000Y-9881138D01*
X35709465Y-11605000D02*
X36072043Y-11967578D01*
X38513007Y-10120000D02*
X36665429Y-11967578D01*
X51751000Y-8959000D02*
X48981955Y-8959000D01*
X34096000Y-12227862D02*
X34718862Y-11605000D01*
X29498922Y-17913635D02*
X31329057Y-16083500D01*
X48981955Y-8959000D02*
X48775000Y-9165955D01*
X36072043Y-11967578D02*
X36665429Y-11967578D01*
X51751000Y-13270275D02*
X51751000Y-8959000D01*
X46833862Y-10120000D02*
X38513007Y-10120000D01*
X32985348Y-16083500D02*
X34096000Y-14972848D01*
X34096000Y-14972848D02*
X34096000Y-12227862D01*
X48151138Y-10505000D02*
X47218862Y-10505000D01*
X47218862Y-10505000D02*
X46833862Y-10120000D01*
X22632711Y-17913635D02*
X29498922Y-17913635D01*
X51345218Y-13676057D02*
X51751000Y-13270275D01*
X48775000Y-9881138D02*
X48151138Y-10505000D01*
X31329057Y-16083500D02*
X32985348Y-16083500D01*
%TO.N,/KEY_RIGHT*%
X36403347Y-15699243D02*
X37906344Y-15699243D01*
X37906344Y-15699243D02*
X41160332Y-18953231D01*
X41160332Y-18953231D02*
X41160332Y-19384822D01*
%TO.N,/SPI_MISO*%
X45066348Y-20835000D02*
X44681170Y-20449822D01*
X40095332Y-19732538D02*
X38738477Y-18375683D01*
X40095332Y-19825960D02*
X40095332Y-19732538D01*
X22660000Y-30800000D02*
X23190000Y-31330000D01*
X34942000Y-31330000D02*
X35036000Y-31236000D01*
X51096573Y-19063449D02*
X49676022Y-20484000D01*
X45333651Y-20835000D02*
X45066348Y-20835000D01*
X45684652Y-20484000D02*
X45333651Y-20835000D01*
X44681170Y-20449822D02*
X40719194Y-20449822D01*
X40719194Y-20449822D02*
X40095332Y-19825960D01*
X38738477Y-18375683D02*
X36102537Y-18375683D01*
X49676022Y-20484000D02*
X45684652Y-20484000D01*
X23190000Y-31330000D02*
X34942000Y-31330000D01*
%TO.N,/KEY_A*%
X34029700Y-19530700D02*
X37808608Y-19530700D01*
X33942255Y-19618145D02*
X34029700Y-19530700D01*
X37808608Y-19530700D02*
X38329679Y-20051771D01*
%TO.N,/KEY_DOWN*%
X33465000Y-11967907D02*
X34467908Y-10965000D01*
X29672968Y-16848635D02*
X31068103Y-15453500D01*
X22191573Y-16848635D02*
X29672968Y-16848635D01*
X19081820Y-17020000D02*
X22020208Y-17020000D01*
X35750821Y-10965000D02*
X36160821Y-10555000D01*
X31068103Y-15453500D02*
X32724394Y-15453500D01*
X18953320Y-17148500D02*
X19081820Y-17020000D01*
X22020208Y-17020000D02*
X22191573Y-16848635D01*
X32724394Y-15453500D02*
X33465000Y-14712894D01*
X33465000Y-14712894D02*
X33465000Y-11967907D01*
X34467908Y-10965000D02*
X35750821Y-10965000D01*
%TO.N,/HSYNC*%
X34400000Y-9900000D02*
X34860000Y-9440000D01*
X45107919Y-19670000D02*
X45278385Y-19499534D01*
X44509623Y-19129623D02*
X45050000Y-19670000D01*
X45050000Y-19670000D02*
X45107919Y-19670000D01*
X44509623Y-16260377D02*
X44509623Y-19129623D01*
X47140000Y-13630000D02*
X44509623Y-16260377D01*
X34860000Y-9440000D02*
X47710000Y-9440000D01*
%TO.N,/VSYNC*%
X43517284Y-13032578D02*
X35523578Y-13032578D01*
X45298811Y-10959056D02*
X44305903Y-11951964D01*
X47901573Y-17353611D02*
X47901573Y-15265519D01*
X44305903Y-12243959D02*
X43517284Y-13032578D01*
X47901573Y-15265519D02*
X48835000Y-14332092D01*
X46729240Y-10959056D02*
X45298811Y-10959056D01*
X35523578Y-13032578D02*
X35161000Y-12670000D01*
X47907824Y-17359862D02*
X47901573Y-17353611D01*
X46976113Y-19295066D02*
X46979066Y-19292113D01*
X46979066Y-19292113D02*
X46979066Y-19243277D01*
X48835000Y-14332092D02*
X48835000Y-12927908D01*
X44305903Y-11951964D02*
X44305903Y-12243959D01*
X47705184Y-11935000D02*
X46729240Y-10959056D01*
X47842092Y-11935000D02*
X47705184Y-11935000D01*
X47907824Y-18314519D02*
X47907824Y-17359862D01*
X46979066Y-19243277D02*
X47907824Y-18314519D01*
X48835000Y-12927908D02*
X47842092Y-11935000D01*
%TO.N,/AUDIO*%
X35358000Y-15160955D02*
X35888955Y-14630000D01*
X34055763Y-17998499D02*
X34973580Y-17998499D01*
X44024959Y-14630000D02*
X46000903Y-12654056D01*
X35358000Y-15495586D02*
X35358000Y-15160955D01*
X35597442Y-17374637D02*
X35597442Y-16492361D01*
X35308580Y-16203499D02*
X35308580Y-15545006D01*
X35888955Y-14630000D02*
X44024959Y-14630000D01*
X28831786Y-20049000D02*
X32005262Y-20049000D01*
X32005262Y-20049000D02*
X34055763Y-17998499D01*
X34973580Y-17998499D02*
X35597442Y-17374637D01*
X35308580Y-15545006D02*
X35358000Y-15495586D01*
X35597442Y-16492361D02*
X35308580Y-16203499D01*
%TO.N,/BLUE*%
X47278867Y-4981133D02*
X43520000Y-8740000D01*
X47658866Y-4981133D02*
X47278867Y-4981133D01*
X35371101Y-8740000D02*
X35006101Y-8375000D01*
X43520000Y-8740000D02*
X35371101Y-8740000D01*
%TO.N,/RED*%
X47437381Y-1800000D02*
X47947381Y-2310000D01*
X36383227Y-1800000D02*
X47437381Y-1800000D01*
X34762943Y-3420284D02*
X36383227Y-1800000D01*
%TO.N,/GREEN*%
X49134767Y-6925233D02*
X48119934Y-7940066D01*
X48119934Y-7940066D02*
X47674285Y-7940066D01*
X36333489Y-3716511D02*
X48185492Y-3716511D01*
X48185492Y-3716511D02*
X49134767Y-4665786D01*
X49134767Y-4665786D02*
X49134767Y-6925233D01*
X34730000Y-5320000D02*
X36333489Y-3716511D01*
%TO.N,/VIDEO*%
X47581138Y-12565000D02*
X48205000Y-13188862D01*
X48205000Y-14071138D02*
X46837944Y-15438194D01*
X47444230Y-12565000D02*
X47581138Y-12565000D01*
X34728000Y-15231803D02*
X34728000Y-14492000D01*
X48205000Y-13188862D02*
X48205000Y-14071138D01*
X43489029Y-14000000D02*
X44935903Y-12553126D01*
X45559765Y-11589056D02*
X46468286Y-11589056D01*
X31430000Y-18080000D02*
X31879803Y-18080000D01*
X44935903Y-12553126D02*
X44935903Y-12212918D01*
X46837944Y-15438194D02*
X46837944Y-17796120D01*
X46468286Y-11589056D02*
X47444230Y-12565000D01*
X35220000Y-14000000D02*
X43489029Y-14000000D01*
X46837944Y-17796120D02*
X46842824Y-17801000D01*
X44935903Y-12212918D02*
X45559765Y-11589056D01*
X31879803Y-18080000D02*
X34728000Y-15231803D01*
X34728000Y-14492000D02*
X35220000Y-14000000D01*
%TD*%
%TA.AperFunction,Conductor*%
%TO.N,/GND*%
G36*
X64542539Y-420185D02*
G01*
X64588294Y-472989D01*
X64599500Y-524500D01*
X64599500Y-34475500D01*
X64579815Y-34542539D01*
X64527011Y-34588294D01*
X64475500Y-34599500D01*
X43002755Y-34599500D01*
X42935716Y-34579815D01*
X42889961Y-34527011D01*
X42878755Y-34475500D01*
X42878755Y-31895846D01*
X36137261Y-31895846D01*
X36070222Y-31876161D01*
X36024467Y-31823357D01*
X36014523Y-31754199D01*
X36026776Y-31715551D01*
X36055873Y-31658445D01*
X36109402Y-31493701D01*
X36126473Y-31385921D01*
X59759500Y-31385921D01*
X59759500Y-31614078D01*
X59789278Y-31840272D01*
X59789279Y-31840277D01*
X59789280Y-31840283D01*
X59848331Y-32060666D01*
X59935638Y-32271446D01*
X59935646Y-32271462D01*
X60049717Y-32469037D01*
X60049728Y-32469053D01*
X60188613Y-32650052D01*
X60188619Y-32650059D01*
X60349940Y-32811380D01*
X60349946Y-32811385D01*
X60530955Y-32950278D01*
X60530962Y-32950282D01*
X60728537Y-33064353D01*
X60728553Y-33064361D01*
X60842268Y-33111463D01*
X60939334Y-33151669D01*
X61159717Y-33210720D01*
X61319474Y-33231752D01*
X61385921Y-33240500D01*
X61385922Y-33240500D01*
X61614079Y-33240500D01*
X61665438Y-33233738D01*
X61840283Y-33210720D01*
X62060666Y-33151669D01*
X62226365Y-33083033D01*
X62271446Y-33064361D01*
X62271449Y-33064359D01*
X62271455Y-33064357D01*
X62469045Y-32950278D01*
X62650054Y-32811385D01*
X62811385Y-32650054D01*
X62950278Y-32469045D01*
X63064357Y-32271455D01*
X63151669Y-32060666D01*
X63210720Y-31840283D01*
X63240500Y-31614078D01*
X63240500Y-31385922D01*
X63210720Y-31159717D01*
X63151669Y-30939334D01*
X63101470Y-30818144D01*
X63064361Y-30728553D01*
X63064353Y-30728537D01*
X62950282Y-30530962D01*
X62950278Y-30530955D01*
X62811385Y-30349946D01*
X62811380Y-30349940D01*
X62650059Y-30188619D01*
X62650052Y-30188613D01*
X62469053Y-30049728D01*
X62469051Y-30049726D01*
X62469045Y-30049722D01*
X62469040Y-30049719D01*
X62469037Y-30049717D01*
X62271462Y-29935646D01*
X62271446Y-29935638D01*
X62060666Y-29848331D01*
X61840283Y-29789280D01*
X61840277Y-29789279D01*
X61840272Y-29789278D01*
X61614079Y-29759500D01*
X61614078Y-29759500D01*
X61385922Y-29759500D01*
X61385921Y-29759500D01*
X61159727Y-29789278D01*
X61159720Y-29789279D01*
X61159717Y-29789280D01*
X61066567Y-29814239D01*
X60939333Y-29848331D01*
X60728553Y-29935638D01*
X60728537Y-29935646D01*
X60530962Y-30049717D01*
X60530946Y-30049728D01*
X60349947Y-30188613D01*
X60349940Y-30188619D01*
X60188619Y-30349940D01*
X60188613Y-30349947D01*
X60049728Y-30530946D01*
X60049717Y-30530962D01*
X59935646Y-30728537D01*
X59935638Y-30728553D01*
X59848331Y-30939333D01*
X59837891Y-30978297D01*
X59792048Y-31149389D01*
X59789281Y-31159714D01*
X59789278Y-31159727D01*
X59759500Y-31385921D01*
X36126473Y-31385921D01*
X36136500Y-31322611D01*
X36136500Y-31149389D01*
X36109402Y-30978299D01*
X36099498Y-30947817D01*
X36097503Y-30877976D01*
X36133584Y-30818144D01*
X36196285Y-30787316D01*
X36217429Y-30785500D01*
X54365549Y-30785500D01*
X54452044Y-30768294D01*
X54494119Y-30759925D01*
X54615232Y-30709758D01*
X54724232Y-30636928D01*
X55880927Y-29480232D01*
X55882790Y-29477445D01*
X55892852Y-29462386D01*
X55917993Y-29424760D01*
X55917995Y-29424756D01*
X55921328Y-29419768D01*
X55953758Y-29371233D01*
X55975186Y-29319500D01*
X56003925Y-29250119D01*
X56029500Y-29121546D01*
X56029500Y-28462457D01*
X56049185Y-28395418D01*
X56101989Y-28349663D01*
X56171147Y-28339719D01*
X56191819Y-28344526D01*
X56325582Y-28387990D01*
X56527683Y-28420000D01*
X56732317Y-28420000D01*
X56934417Y-28387990D01*
X57129031Y-28324755D01*
X57311349Y-28231859D01*
X57476894Y-28111582D01*
X57476895Y-28111582D01*
X57621584Y-27966893D01*
X57706484Y-27850037D01*
X57706484Y-27850036D01*
X56540905Y-26684457D01*
X56507420Y-26623134D01*
X56512404Y-26553442D01*
X56538344Y-26513078D01*
X56564174Y-26520000D01*
X56695826Y-26520000D01*
X56822993Y-26485925D01*
X56937007Y-26420099D01*
X56937107Y-26419999D01*
X56983552Y-26419999D01*
X56983552Y-26420000D01*
X57910291Y-27346740D01*
X57910292Y-27346739D01*
X57930000Y-27222308D01*
X57930000Y-25617688D01*
X57910292Y-25493259D01*
X56983552Y-26419999D01*
X56937107Y-26419999D01*
X57030099Y-26327007D01*
X57095925Y-26212993D01*
X57130000Y-26085826D01*
X57130000Y-25954174D01*
X57095925Y-25827007D01*
X57030099Y-25712993D01*
X57006777Y-25689671D01*
X57706485Y-24989963D01*
X57706485Y-24989961D01*
X57621587Y-24873110D01*
X57621582Y-24873104D01*
X57586159Y-24837681D01*
X57552674Y-24776358D01*
X57557658Y-24706666D01*
X57586159Y-24662319D01*
X57621582Y-24626895D01*
X57621582Y-24626894D01*
X57741859Y-24461349D01*
X57834755Y-24279031D01*
X57897990Y-24084417D01*
X57930000Y-23882317D01*
X57930000Y-23330000D01*
X57107445Y-23330000D01*
X57095925Y-23287007D01*
X57030099Y-23172993D01*
X56937007Y-23079901D01*
X56822993Y-23014075D01*
X56695826Y-22980000D01*
X56564174Y-22980000D01*
X56437007Y-23014075D01*
X56410269Y-23029511D01*
X56391206Y-23007511D01*
X56380000Y-22956000D01*
X56380000Y-22830000D01*
X56880000Y-22830000D01*
X57930000Y-22830000D01*
X57930000Y-22277682D01*
X57897990Y-22075582D01*
X57834755Y-21880968D01*
X57741859Y-21698650D01*
X57621582Y-21533105D01*
X57621582Y-21533104D01*
X57476895Y-21388417D01*
X57311349Y-21268140D01*
X57129029Y-21175244D01*
X56934413Y-21112009D01*
X56880000Y-21103390D01*
X56880000Y-22830000D01*
X56380000Y-22830000D01*
X56380000Y-21103390D01*
X56325586Y-21112009D01*
X56325581Y-21112010D01*
X56191817Y-21155472D01*
X56121976Y-21157467D01*
X56062143Y-21121386D01*
X56031316Y-21058685D01*
X56029500Y-21037541D01*
X56029500Y-15748204D01*
X56049185Y-15681165D01*
X56065819Y-15660523D01*
X56119414Y-15606928D01*
X56221232Y-15466788D01*
X56299873Y-15312445D01*
X56353402Y-15147701D01*
X56380500Y-14976611D01*
X56380500Y-14803389D01*
X56353402Y-14632299D01*
X56299873Y-14467555D01*
X56221232Y-14313212D01*
X56119414Y-14173072D01*
X55996928Y-14050586D01*
X55856788Y-13948768D01*
X55702445Y-13870127D01*
X55537701Y-13816598D01*
X55537699Y-13816597D01*
X55537698Y-13816597D01*
X55406271Y-13795781D01*
X55366611Y-13789500D01*
X55193389Y-13789500D01*
X55153728Y-13795781D01*
X55022302Y-13816597D01*
X54857552Y-13870128D01*
X54703211Y-13948768D01*
X54623256Y-14006859D01*
X54563072Y-14050586D01*
X54563070Y-14050588D01*
X54563069Y-14050588D01*
X54440588Y-14173069D01*
X54440588Y-14173070D01*
X54440586Y-14173072D01*
X54396859Y-14233256D01*
X54338768Y-14313211D01*
X54260128Y-14467552D01*
X54206597Y-14632302D01*
X54179500Y-14803389D01*
X54179500Y-14976610D01*
X54206475Y-15146928D01*
X54206598Y-15147701D01*
X54260127Y-15312445D01*
X54338768Y-15466788D01*
X54440586Y-15606928D01*
X54440588Y-15606930D01*
X54466477Y-15632819D01*
X54499962Y-15694142D01*
X54494978Y-15763834D01*
X54453106Y-15819767D01*
X54387642Y-15844184D01*
X54378796Y-15844500D01*
X50724559Y-15844500D01*
X50595993Y-15870073D01*
X50595987Y-15870075D01*
X50474873Y-15920242D01*
X50365877Y-15993070D01*
X50365870Y-15993076D01*
X49873124Y-16485822D01*
X49811801Y-16519307D01*
X49742109Y-16514323D01*
X49697762Y-16485822D01*
X49688865Y-16476925D01*
X49688863Y-16476923D01*
X49548723Y-16375105D01*
X49394380Y-16296464D01*
X49229636Y-16242935D01*
X49229634Y-16242934D01*
X49229633Y-16242934D01*
X49098206Y-16222118D01*
X49058546Y-16215837D01*
X48885324Y-16215837D01*
X48710470Y-16243530D01*
X48641177Y-16234575D01*
X48587725Y-16189579D01*
X48567086Y-16122827D01*
X48567073Y-16121057D01*
X48567073Y-15592540D01*
X48586758Y-15525501D01*
X48603392Y-15504859D01*
X49351927Y-14756324D01*
X49397162Y-14688625D01*
X49424758Y-14647325D01*
X49439451Y-14611851D01*
X49474925Y-14526211D01*
X49496663Y-14416928D01*
X49500500Y-14397639D01*
X49500500Y-14266545D01*
X49500500Y-13048518D01*
X49520185Y-12981479D01*
X49572989Y-12935724D01*
X49636529Y-12925702D01*
X49636553Y-12925293D01*
X49638434Y-12925401D01*
X49638794Y-12925345D01*
X49639668Y-12925445D01*
X49640135Y-12925500D01*
X50290176Y-12925499D01*
X50357215Y-12945183D01*
X50402970Y-12997987D01*
X50412914Y-13067146D01*
X50400661Y-13105793D01*
X50325347Y-13253606D01*
X50271815Y-13418359D01*
X50271815Y-13418360D01*
X50244718Y-13589446D01*
X50244718Y-13762668D01*
X50271816Y-13933758D01*
X50325345Y-14098502D01*
X50403986Y-14252845D01*
X50505804Y-14392985D01*
X50628290Y-14515471D01*
X50768430Y-14617289D01*
X50922773Y-14695930D01*
X51087517Y-14749459D01*
X51258607Y-14776557D01*
X51258608Y-14776557D01*
X51431828Y-14776557D01*
X51431829Y-14776557D01*
X51602919Y-14749459D01*
X51767663Y-14695930D01*
X51922006Y-14617289D01*
X52062146Y-14515471D01*
X52184632Y-14392985D01*
X52286450Y-14252845D01*
X52365091Y-14098502D01*
X52418620Y-13933758D01*
X52445718Y-13762668D01*
X52445718Y-13589446D01*
X52418620Y-13418356D01*
X52417122Y-13413747D01*
X52411092Y-13372216D01*
X52411365Y-13361629D01*
X52416500Y-13335821D01*
X52416500Y-13163234D01*
X52416541Y-13161650D01*
X52426781Y-13129842D01*
X52436185Y-13097819D01*
X52437443Y-13096728D01*
X52437954Y-13095142D01*
X52463765Y-13073920D01*
X52488989Y-13052064D01*
X52490637Y-13051827D01*
X52491924Y-13050769D01*
X52525087Y-13046873D01*
X52558147Y-13042120D01*
X52560633Y-13042698D01*
X52561316Y-13042618D01*
X52562250Y-13043074D01*
X52578819Y-13046927D01*
X52720582Y-13092990D01*
X52922683Y-13125000D01*
X53127317Y-13125000D01*
X53329417Y-13092990D01*
X53524031Y-13029755D01*
X53706349Y-12936859D01*
X53871894Y-12816582D01*
X53871895Y-12816582D01*
X54016582Y-12671895D01*
X54016582Y-12671894D01*
X54136858Y-12506351D01*
X54136860Y-12506347D01*
X54142239Y-12495790D01*
X53154411Y-11507962D01*
X53217993Y-11490925D01*
X53332007Y-11425099D01*
X53425099Y-11332007D01*
X53490925Y-11217993D01*
X53507962Y-11154410D01*
X54318964Y-11965412D01*
X54327401Y-11962671D01*
X54397243Y-11960676D01*
X54457076Y-11996756D01*
X54487904Y-12059457D01*
X54488193Y-12061204D01*
X54491598Y-12082701D01*
X54545127Y-12247445D01*
X54623768Y-12401788D01*
X54725586Y-12541928D01*
X54848072Y-12664414D01*
X54988212Y-12766232D01*
X55142555Y-12844873D01*
X55307299Y-12898402D01*
X55478389Y-12925500D01*
X55478390Y-12925500D01*
X55651610Y-12925500D01*
X55651611Y-12925500D01*
X55822701Y-12898402D01*
X55987445Y-12844873D01*
X56141788Y-12766232D01*
X56281928Y-12664414D01*
X56404414Y-12541928D01*
X56506232Y-12401788D01*
X56584873Y-12247445D01*
X56638402Y-12082701D01*
X56665500Y-11911611D01*
X56665500Y-10138389D01*
X56638402Y-9967299D01*
X56584873Y-9802555D01*
X56506232Y-9648212D01*
X56404414Y-9508072D01*
X56281928Y-9385586D01*
X56141788Y-9283768D01*
X55987445Y-9205127D01*
X55822701Y-9151598D01*
X55822699Y-9151597D01*
X55822698Y-9151597D01*
X55691271Y-9130781D01*
X55651611Y-9124500D01*
X55478389Y-9124500D01*
X55438728Y-9130781D01*
X55307302Y-9151597D01*
X55142552Y-9205128D01*
X54988211Y-9283768D01*
X54933922Y-9323212D01*
X54848072Y-9385586D01*
X54848070Y-9385588D01*
X54848069Y-9385588D01*
X54725588Y-9508069D01*
X54725588Y-9508070D01*
X54725586Y-9508072D01*
X54687858Y-9560000D01*
X54623768Y-9648211D01*
X54545128Y-9802552D01*
X54491597Y-9967300D01*
X54488193Y-9988796D01*
X54458263Y-10051930D01*
X54398951Y-10088860D01*
X54329088Y-10087862D01*
X54327403Y-10087327D01*
X54318965Y-10084585D01*
X53507962Y-10895588D01*
X53490925Y-10832007D01*
X53425099Y-10717993D01*
X53332007Y-10624901D01*
X53217993Y-10559075D01*
X53154410Y-10542037D01*
X54142238Y-9554209D01*
X54136858Y-9543649D01*
X54136856Y-9543646D01*
X54016582Y-9378105D01*
X54016582Y-9378104D01*
X53871895Y-9233417D01*
X53706349Y-9113140D01*
X53524031Y-9020244D01*
X53329417Y-8957009D01*
X53127317Y-8925000D01*
X52922683Y-8925000D01*
X52720581Y-8957010D01*
X52720578Y-8957010D01*
X52578606Y-9003140D01*
X52508765Y-9005135D01*
X52448932Y-8969054D01*
X52418104Y-8906353D01*
X52416885Y-8897361D01*
X52416500Y-8893451D01*
X52390926Y-8764886D01*
X52390925Y-8764885D01*
X52390925Y-8764881D01*
X52340758Y-8643768D01*
X52333363Y-8632701D01*
X52267929Y-8534770D01*
X52267923Y-8534763D01*
X52175236Y-8442076D01*
X52175229Y-8442070D01*
X52066233Y-8369242D01*
X51945119Y-8319075D01*
X51945113Y-8319073D01*
X51816548Y-8293500D01*
X51816546Y-8293500D01*
X49047502Y-8293500D01*
X49007021Y-8293500D01*
X48939982Y-8273815D01*
X48894227Y-8221011D01*
X48884283Y-8151853D01*
X48913308Y-8088297D01*
X48919340Y-8081819D01*
X49651690Y-7349469D01*
X49651695Y-7349464D01*
X49724525Y-7240465D01*
X49774692Y-7119352D01*
X49800267Y-6990779D01*
X49800267Y-6859686D01*
X49800267Y-4600240D01*
X49800267Y-4600237D01*
X49774693Y-4471672D01*
X49774692Y-4471671D01*
X49774692Y-4471667D01*
X49724525Y-4350554D01*
X49671673Y-4271455D01*
X49651696Y-4241556D01*
X49651695Y-4241555D01*
X49558998Y-4148858D01*
X49203260Y-3793119D01*
X49169775Y-3731796D01*
X49174759Y-3662104D01*
X49216631Y-3606171D01*
X49282095Y-3581754D01*
X49290941Y-3581438D01*
X58602783Y-3581438D01*
X58602783Y-3385921D01*
X59759500Y-3385921D01*
X59759500Y-3614078D01*
X59789278Y-3840272D01*
X59789279Y-3840277D01*
X59789280Y-3840283D01*
X59789936Y-3842731D01*
X59848331Y-4060666D01*
X59935638Y-4271446D01*
X59935646Y-4271462D01*
X60049717Y-4469037D01*
X60049728Y-4469053D01*
X60188613Y-4650052D01*
X60188619Y-4650059D01*
X60349940Y-4811380D01*
X60349946Y-4811385D01*
X60530955Y-4950278D01*
X60530962Y-4950282D01*
X60728537Y-5064353D01*
X60728553Y-5064361D01*
X60842268Y-5111463D01*
X60939334Y-5151669D01*
X61159717Y-5210720D01*
X61294498Y-5228464D01*
X61385921Y-5240500D01*
X61385922Y-5240500D01*
X61614079Y-5240500D01*
X61672126Y-5232858D01*
X61840283Y-5210720D01*
X62060666Y-5151669D01*
X62226365Y-5083033D01*
X62271446Y-5064361D01*
X62271449Y-5064359D01*
X62271455Y-5064357D01*
X62469045Y-4950278D01*
X62650054Y-4811385D01*
X62811385Y-4650054D01*
X62950278Y-4469045D01*
X63064357Y-4271455D01*
X63067917Y-4262862D01*
X63115138Y-4148859D01*
X63151669Y-4060666D01*
X63210720Y-3840283D01*
X63240500Y-3614078D01*
X63240500Y-3385922D01*
X63210720Y-3159717D01*
X63151669Y-2939334D01*
X63110246Y-2839330D01*
X63064361Y-2728553D01*
X63064353Y-2728537D01*
X62950282Y-2530962D01*
X62950278Y-2530955D01*
X62811385Y-2349946D01*
X62811380Y-2349940D01*
X62650059Y-2188619D01*
X62650052Y-2188613D01*
X62469053Y-2049728D01*
X62469051Y-2049726D01*
X62469045Y-2049722D01*
X62469040Y-2049719D01*
X62469037Y-2049717D01*
X62271462Y-1935646D01*
X62271446Y-1935638D01*
X62060666Y-1848331D01*
X61840283Y-1789280D01*
X61840277Y-1789279D01*
X61840272Y-1789278D01*
X61614079Y-1759500D01*
X61614078Y-1759500D01*
X61385922Y-1759500D01*
X61385921Y-1759500D01*
X61159727Y-1789278D01*
X61159720Y-1789279D01*
X61159717Y-1789280D01*
X61066567Y-1814239D01*
X60939333Y-1848331D01*
X60728553Y-1935638D01*
X60728537Y-1935646D01*
X60530962Y-2049717D01*
X60530946Y-2049728D01*
X60349947Y-2188613D01*
X60349940Y-2188619D01*
X60188619Y-2349940D01*
X60188613Y-2349947D01*
X60049728Y-2530946D01*
X60049717Y-2530962D01*
X59935646Y-2728537D01*
X59935638Y-2728553D01*
X59848331Y-2939333D01*
X59789281Y-3159714D01*
X59789278Y-3159727D01*
X59759500Y-3385921D01*
X58602783Y-3385921D01*
X58602783Y-1667732D01*
X48904220Y-1667732D01*
X48837181Y-1648047D01*
X48803903Y-1616619D01*
X48786795Y-1593072D01*
X48664311Y-1470588D01*
X48664309Y-1470586D01*
X48524169Y-1368768D01*
X48369826Y-1290127D01*
X48205082Y-1236598D01*
X48205080Y-1236597D01*
X48205079Y-1236597D01*
X48073652Y-1215781D01*
X48033992Y-1209500D01*
X47860770Y-1209500D01*
X47860769Y-1209500D01*
X47815773Y-1216626D01*
X47748925Y-1208713D01*
X47631504Y-1160076D01*
X47631494Y-1160073D01*
X47502930Y-1134500D01*
X47502928Y-1134500D01*
X47502927Y-1134500D01*
X36448774Y-1134500D01*
X36317681Y-1134500D01*
X36317679Y-1134500D01*
X36189113Y-1160073D01*
X36189107Y-1160075D01*
X36067993Y-1210242D01*
X35958997Y-1283070D01*
X35958990Y-1283076D01*
X34957015Y-2285051D01*
X34895692Y-2318536D01*
X34854453Y-2319717D01*
X34854418Y-2320166D01*
X34850242Y-2319837D01*
X34849951Y-2319846D01*
X34849559Y-2319784D01*
X34849554Y-2319784D01*
X34676332Y-2319784D01*
X34636671Y-2326065D01*
X34505245Y-2346881D01*
X34340495Y-2400412D01*
X34186154Y-2479052D01*
X34114729Y-2530946D01*
X34046015Y-2580870D01*
X34046013Y-2580872D01*
X34046012Y-2580872D01*
X33923531Y-2703353D01*
X33923531Y-2703354D01*
X33923529Y-2703356D01*
X33902395Y-2732445D01*
X33821711Y-2843495D01*
X33743071Y-2997836D01*
X33689540Y-3162586D01*
X33662443Y-3333673D01*
X33662443Y-3506894D01*
X33687025Y-3662104D01*
X33689541Y-3677985D01*
X33743070Y-3842729D01*
X33821711Y-3997072D01*
X33923529Y-4137212D01*
X34046015Y-4259698D01*
X34046018Y-4259700D01*
X34049720Y-4262862D01*
X34048467Y-4264328D01*
X34086141Y-4313173D01*
X34092128Y-4382785D01*
X34059529Y-4444584D01*
X34043483Y-4458490D01*
X34013075Y-4480583D01*
X34013069Y-4480588D01*
X33890588Y-4603069D01*
X33890588Y-4603070D01*
X33890586Y-4603072D01*
X33856448Y-4650059D01*
X33788768Y-4743211D01*
X33710128Y-4897552D01*
X33656597Y-5062302D01*
X33629500Y-5233389D01*
X33629500Y-5406610D01*
X33656597Y-5577697D01*
X33710128Y-5742447D01*
X33712698Y-5747490D01*
X33788768Y-5896788D01*
X33890586Y-6036928D01*
X34013072Y-6159414D01*
X34153212Y-6261232D01*
X34307555Y-6339873D01*
X34472299Y-6393402D01*
X34643389Y-6420500D01*
X34643390Y-6420500D01*
X34816610Y-6420500D01*
X34816611Y-6420500D01*
X34987701Y-6393402D01*
X35152445Y-6339873D01*
X35306788Y-6261232D01*
X35446928Y-6159414D01*
X35569414Y-6036928D01*
X35671232Y-5896788D01*
X35749873Y-5742445D01*
X35803402Y-5577701D01*
X35830500Y-5406611D01*
X35830500Y-5233389D01*
X35830439Y-5233006D01*
X35830458Y-5232858D01*
X35830118Y-5228536D01*
X35831026Y-5228464D01*
X35839392Y-5163716D01*
X35865228Y-5125929D01*
X36572829Y-4418330D01*
X36634152Y-4384845D01*
X36660510Y-4382011D01*
X46526664Y-4382011D01*
X46593703Y-4401696D01*
X46639458Y-4454500D01*
X46649402Y-4523658D01*
X46644398Y-4544932D01*
X46641434Y-4553895D01*
X46638993Y-4558688D01*
X46589767Y-4710188D01*
X46589680Y-4710452D01*
X46588165Y-4712642D01*
X46559627Y-4759212D01*
X45037981Y-6280857D01*
X44976658Y-6314342D01*
X44906966Y-6309358D01*
X44851033Y-6267486D01*
X44832369Y-6231494D01*
X44805568Y-6149008D01*
X44698343Y-5938567D01*
X44559517Y-5747490D01*
X44392510Y-5580483D01*
X44201433Y-5441657D01*
X43990996Y-5334433D01*
X43766368Y-5261446D01*
X43533097Y-5224500D01*
X43533092Y-5224500D01*
X43296908Y-5224500D01*
X43296903Y-5224500D01*
X43063631Y-5261446D01*
X42839003Y-5334433D01*
X42628566Y-5441657D01*
X42519550Y-5520862D01*
X42437490Y-5580483D01*
X42437488Y-5580485D01*
X42437487Y-5580485D01*
X42270485Y-5747487D01*
X42270485Y-5747488D01*
X42270483Y-5747490D01*
X42217404Y-5820547D01*
X42131657Y-5938566D01*
X42024433Y-6149003D01*
X41951446Y-6373631D01*
X41914500Y-6606902D01*
X41914500Y-6843097D01*
X41951446Y-7076368D01*
X42024433Y-7300996D01*
X42131657Y-7511433D01*
X42270483Y-7702510D01*
X42270485Y-7702512D01*
X42430792Y-7862819D01*
X42464277Y-7924142D01*
X42459293Y-7993834D01*
X42417421Y-8049767D01*
X42351957Y-8074184D01*
X42343111Y-8074500D01*
X39606889Y-8074500D01*
X39539850Y-8054815D01*
X39494095Y-8002011D01*
X39484151Y-7932853D01*
X39513176Y-7869297D01*
X39519208Y-7862819D01*
X39583816Y-7798211D01*
X39679517Y-7702510D01*
X39818343Y-7511433D01*
X39925568Y-7300992D01*
X39998553Y-7076368D01*
X40017840Y-6954594D01*
X40035500Y-6843097D01*
X40035500Y-6606902D01*
X39998553Y-6373631D01*
X39925566Y-6149003D01*
X39850156Y-6001004D01*
X39818343Y-5938567D01*
X39679517Y-5747490D01*
X39512510Y-5580483D01*
X39321433Y-5441657D01*
X39110996Y-5334433D01*
X38886368Y-5261446D01*
X38653097Y-5224500D01*
X38653092Y-5224500D01*
X38416908Y-5224500D01*
X38416903Y-5224500D01*
X38183631Y-5261446D01*
X37959003Y-5334433D01*
X37748566Y-5441657D01*
X37639550Y-5520862D01*
X37557490Y-5580483D01*
X37557488Y-5580485D01*
X37557487Y-5580485D01*
X37390485Y-5747487D01*
X37390485Y-5747488D01*
X37390483Y-5747490D01*
X37337404Y-5820547D01*
X37251657Y-5938566D01*
X37144433Y-6149003D01*
X37071446Y-6373631D01*
X37034500Y-6606902D01*
X37034500Y-6843097D01*
X37071446Y-7076368D01*
X37144433Y-7300996D01*
X37251657Y-7511433D01*
X37390483Y-7702510D01*
X37390485Y-7702512D01*
X37550792Y-7862819D01*
X37584277Y-7924142D01*
X37579293Y-7993834D01*
X37537421Y-8049767D01*
X37471957Y-8074184D01*
X37463111Y-8074500D01*
X36155688Y-8074500D01*
X36088649Y-8054815D01*
X36042894Y-8002011D01*
X36037758Y-7988820D01*
X36025974Y-7952554D01*
X35980045Y-7862413D01*
X35947333Y-7798212D01*
X35845515Y-7658072D01*
X35723029Y-7535586D01*
X35582889Y-7433768D01*
X35428546Y-7355127D01*
X35263802Y-7301598D01*
X35263800Y-7301597D01*
X35263799Y-7301597D01*
X35132372Y-7280781D01*
X35092712Y-7274500D01*
X34919490Y-7274500D01*
X34879829Y-7280781D01*
X34748403Y-7301597D01*
X34583653Y-7355128D01*
X34429312Y-7433768D01*
X34349357Y-7491859D01*
X34289173Y-7535586D01*
X34289171Y-7535588D01*
X34289170Y-7535588D01*
X34166689Y-7658069D01*
X34166689Y-7658070D01*
X34166687Y-7658072D01*
X34149037Y-7682365D01*
X34064869Y-7798211D01*
X33986229Y-7952552D01*
X33932698Y-8117302D01*
X33905601Y-8288389D01*
X33905601Y-8461610D01*
X33932698Y-8632698D01*
X33975318Y-8763868D01*
X33977313Y-8833709D01*
X33941233Y-8893542D01*
X33913682Y-8912671D01*
X33823211Y-8958768D01*
X33743256Y-9016859D01*
X33683072Y-9060586D01*
X33683070Y-9060588D01*
X33683069Y-9060588D01*
X33560587Y-9183070D01*
X33524817Y-9232304D01*
X33469486Y-9274969D01*
X33399873Y-9280948D01*
X33338078Y-9248342D01*
X33303721Y-9187503D01*
X33300499Y-9159418D01*
X33300499Y-8115143D01*
X33300499Y-8115136D01*
X33300264Y-8113110D01*
X33297586Y-8090012D01*
X33297585Y-8090010D01*
X33297585Y-8090009D01*
X33252206Y-7987235D01*
X33172765Y-7907794D01*
X33172763Y-7907793D01*
X33069992Y-7862415D01*
X33044865Y-7859500D01*
X31355143Y-7859500D01*
X31355117Y-7859502D01*
X31330012Y-7862413D01*
X31330008Y-7862415D01*
X31227235Y-7907793D01*
X31147794Y-7987234D01*
X31102415Y-8090006D01*
X31102415Y-8090008D01*
X31099500Y-8115131D01*
X31099500Y-8614317D01*
X31079815Y-8681356D01*
X31027011Y-8727111D01*
X30957853Y-8737055D01*
X30940525Y-8733025D01*
X30013552Y-9659999D01*
X30013552Y-9660000D01*
X30941187Y-10587635D01*
X31007023Y-10585755D01*
X31066856Y-10621835D01*
X31097684Y-10684536D01*
X31099500Y-10705681D01*
X31099500Y-11204856D01*
X31099502Y-11204882D01*
X31102413Y-11229987D01*
X31102415Y-11229991D01*
X31147793Y-11332764D01*
X31147794Y-11332765D01*
X31227235Y-11412206D01*
X31281667Y-11436240D01*
X31335041Y-11481324D01*
X31355569Y-11548110D01*
X31336731Y-11615392D01*
X31331897Y-11622559D01*
X31258768Y-11723211D01*
X31180128Y-11877552D01*
X31126597Y-12042302D01*
X31120199Y-12082701D01*
X31099500Y-12213389D01*
X31099500Y-13786611D01*
X31126598Y-13957701D01*
X31172347Y-14098502D01*
X31180128Y-14122447D01*
X31205923Y-14173072D01*
X31258768Y-14276788D01*
X31360586Y-14416928D01*
X31483072Y-14539414D01*
X31483075Y-14539416D01*
X31516474Y-14563682D01*
X31559140Y-14619012D01*
X31565119Y-14688625D01*
X31532513Y-14750420D01*
X31471675Y-14784777D01*
X31443589Y-14788000D01*
X31002554Y-14788000D01*
X30873989Y-14813573D01*
X30873983Y-14813575D01*
X30752869Y-14863742D01*
X30643873Y-14936570D01*
X30643866Y-14936576D01*
X29433627Y-16146816D01*
X29372304Y-16180301D01*
X29345946Y-16183135D01*
X22126025Y-16183135D01*
X21997459Y-16208708D01*
X21997453Y-16208710D01*
X21876342Y-16258876D01*
X21876341Y-16258877D01*
X21767342Y-16331707D01*
X21767340Y-16331708D01*
X21764505Y-16333603D01*
X21697828Y-16354480D01*
X21695615Y-16354500D01*
X19767024Y-16354500D01*
X19699985Y-16334815D01*
X19679343Y-16318181D01*
X19670250Y-16309088D01*
X19670248Y-16309086D01*
X19530108Y-16207268D01*
X19375765Y-16128627D01*
X19211021Y-16075098D01*
X19211019Y-16075097D01*
X19211018Y-16075097D01*
X19079591Y-16054281D01*
X19039931Y-16048000D01*
X18866709Y-16048000D01*
X18827048Y-16054281D01*
X18695622Y-16075097D01*
X18530872Y-16128628D01*
X18376531Y-16207268D01*
X18296576Y-16265359D01*
X18236392Y-16309086D01*
X18236390Y-16309088D01*
X18236389Y-16309088D01*
X18113908Y-16431569D01*
X18113908Y-16431570D01*
X18113906Y-16431572D01*
X18080955Y-16476925D01*
X18012088Y-16571711D01*
X17933448Y-16726052D01*
X17879917Y-16890802D01*
X17852820Y-17061889D01*
X17852820Y-17235110D01*
X17866090Y-17318898D01*
X17879918Y-17406201D01*
X17933447Y-17570945D01*
X18012088Y-17725288D01*
X18113906Y-17865428D01*
X18236392Y-17987914D01*
X18376532Y-18089732D01*
X18530875Y-18168373D01*
X18695619Y-18221902D01*
X18866709Y-18249000D01*
X18866710Y-18249000D01*
X19039930Y-18249000D01*
X19039931Y-18249000D01*
X19211021Y-18221902D01*
X19375765Y-18168373D01*
X19530108Y-18089732D01*
X19670248Y-17987914D01*
X19792734Y-17865428D01*
X19886323Y-17736613D01*
X19941653Y-17693949D01*
X19986641Y-17685500D01*
X21409440Y-17685500D01*
X21476479Y-17705185D01*
X21522234Y-17757989D01*
X21531447Y-17822069D01*
X21532593Y-17822160D01*
X21532211Y-17827017D01*
X21532211Y-17827024D01*
X21532211Y-18000246D01*
X21541469Y-18058697D01*
X21559309Y-18171337D01*
X21568023Y-18198156D01*
X21570018Y-18267997D01*
X21533938Y-18327830D01*
X21506390Y-18346957D01*
X21483214Y-18358766D01*
X21450992Y-18382177D01*
X21343072Y-18460586D01*
X21343070Y-18460588D01*
X21343069Y-18460588D01*
X21220588Y-18583069D01*
X21220588Y-18583070D01*
X21220586Y-18583072D01*
X21212012Y-18594873D01*
X21118768Y-18723211D01*
X21040128Y-18877552D01*
X20986597Y-19042302D01*
X20959500Y-19213387D01*
X20959500Y-19386610D01*
X20985988Y-19553855D01*
X20986598Y-19557701D01*
X21040127Y-19722445D01*
X21118768Y-19876788D01*
X21220586Y-20016928D01*
X21343072Y-20139414D01*
X21483212Y-20241232D01*
X21637555Y-20319873D01*
X21802299Y-20373402D01*
X21973389Y-20400500D01*
X21973390Y-20400500D01*
X22146610Y-20400500D01*
X22146611Y-20400500D01*
X22317701Y-20373402D01*
X22482445Y-20319873D01*
X22636788Y-20241232D01*
X22776928Y-20139414D01*
X22899414Y-20016928D01*
X22899648Y-20016606D01*
X22899766Y-20016514D01*
X22902578Y-20013223D01*
X22903269Y-20013813D01*
X22954982Y-19973945D01*
X22999960Y-19965500D01*
X25005815Y-19965500D01*
X25072854Y-19985185D01*
X25118609Y-20037989D01*
X25128553Y-20107147D01*
X25121496Y-20132876D01*
X25121633Y-20132921D01*
X25120677Y-20135862D01*
X25120382Y-20136939D01*
X25120128Y-20137550D01*
X25066597Y-20302302D01*
X25039500Y-20473389D01*
X25039500Y-20646610D01*
X25061187Y-20783541D01*
X25066598Y-20817701D01*
X25120127Y-20982445D01*
X25198768Y-21136788D01*
X25300586Y-21276928D01*
X25300588Y-21276930D01*
X25410977Y-21387319D01*
X25444462Y-21448642D01*
X25439478Y-21518334D01*
X25410977Y-21562681D01*
X25310588Y-21663069D01*
X25310588Y-21663070D01*
X25310586Y-21663072D01*
X25284737Y-21698650D01*
X25208768Y-21803211D01*
X25130128Y-21957552D01*
X25076597Y-22122302D01*
X25058177Y-22238606D01*
X25049500Y-22293389D01*
X25049500Y-23866611D01*
X25076598Y-24037701D01*
X25130127Y-24202445D01*
X25208768Y-24356788D01*
X25310586Y-24496928D01*
X25310588Y-24496930D01*
X25433072Y-24619414D01*
X25474733Y-24649683D01*
X25517398Y-24705013D01*
X25523376Y-24774627D01*
X25490769Y-24836421D01*
X25474733Y-24850317D01*
X25433072Y-24880585D01*
X25310588Y-25003069D01*
X25310588Y-25003070D01*
X25310586Y-25003072D01*
X25266859Y-25063256D01*
X25208768Y-25143211D01*
X25130128Y-25297552D01*
X25076597Y-25462302D01*
X25071694Y-25493259D01*
X25049500Y-25633389D01*
X25049500Y-27206611D01*
X25076598Y-27377701D01*
X25076930Y-27378722D01*
X25076941Y-27379132D01*
X25077735Y-27382436D01*
X25077040Y-27382602D01*
X25077883Y-27412126D01*
X25079698Y-27445453D01*
X25078876Y-27446898D01*
X25078924Y-27448562D01*
X25061672Y-27477169D01*
X25045175Y-27506197D01*
X25043701Y-27506969D01*
X25042842Y-27508395D01*
X25012866Y-27523131D01*
X24983291Y-27538634D01*
X24981632Y-27538487D01*
X24980140Y-27539221D01*
X24946976Y-27535415D01*
X24913694Y-27532465D01*
X24912084Y-27531410D01*
X24910726Y-27531255D01*
X24883009Y-27515025D01*
X24876840Y-27510241D01*
X24853308Y-27486709D01*
X24745360Y-27408280D01*
X24743823Y-27407088D01*
X24724462Y-27380286D01*
X24704261Y-27354088D01*
X24704037Y-27352011D01*
X24702910Y-27350450D01*
X24701925Y-27332361D01*
X24697339Y-27289701D01*
X24699444Y-27276414D01*
X24710500Y-27206611D01*
X24710500Y-25633389D01*
X24683402Y-25462299D01*
X24629873Y-25297555D01*
X24551232Y-25143212D01*
X24449414Y-25003072D01*
X24326928Y-24880586D01*
X24285265Y-24850316D01*
X24242602Y-24794988D01*
X24236623Y-24725374D01*
X24269229Y-24663579D01*
X24285266Y-24649683D01*
X24326928Y-24619414D01*
X24449414Y-24496928D01*
X24551232Y-24356788D01*
X24629873Y-24202445D01*
X24683402Y-24037701D01*
X24710500Y-23866611D01*
X24710500Y-22293389D01*
X24683402Y-22122299D01*
X24629873Y-21957555D01*
X24551232Y-21803212D01*
X24449414Y-21663072D01*
X24326928Y-21540586D01*
X24186788Y-21438768D01*
X24032445Y-21360127D01*
X23867701Y-21306598D01*
X23867699Y-21306597D01*
X23867698Y-21306597D01*
X23736271Y-21285781D01*
X23696611Y-21279500D01*
X23523389Y-21279500D01*
X23483728Y-21285781D01*
X23352302Y-21306597D01*
X23187552Y-21360128D01*
X23033211Y-21438768D01*
X22985226Y-21473632D01*
X22893072Y-21540586D01*
X22893070Y-21540588D01*
X22893069Y-21540588D01*
X22770588Y-21663069D01*
X22770588Y-21663070D01*
X22770586Y-21663072D01*
X22744737Y-21698650D01*
X22668768Y-21803211D01*
X22590128Y-21957552D01*
X22536597Y-22122302D01*
X22518177Y-22238606D01*
X22509500Y-22293389D01*
X22509500Y-23866611D01*
X22536598Y-24037701D01*
X22590127Y-24202445D01*
X22668768Y-24356788D01*
X22770586Y-24496928D01*
X22770588Y-24496930D01*
X22893072Y-24619414D01*
X22934733Y-24649683D01*
X22977398Y-24705013D01*
X22983376Y-24774627D01*
X22950769Y-24836421D01*
X22934733Y-24850317D01*
X22893072Y-24880585D01*
X22770588Y-25003069D01*
X22770588Y-25003070D01*
X22770586Y-25003072D01*
X22726859Y-25063256D01*
X22668768Y-25143211D01*
X22590128Y-25297552D01*
X22536597Y-25462302D01*
X22531694Y-25493259D01*
X22509500Y-25633389D01*
X22509500Y-27206611D01*
X22536598Y-27377701D01*
X22589079Y-27539221D01*
X22590128Y-27542447D01*
X22668768Y-27696788D01*
X22698430Y-27737614D01*
X22721910Y-27803421D01*
X22706085Y-27871475D01*
X22655979Y-27920170D01*
X22598112Y-27934500D01*
X22081888Y-27934500D01*
X22014849Y-27914815D01*
X21969094Y-27862011D01*
X21959150Y-27792853D01*
X21981570Y-27737614D01*
X22011232Y-27696788D01*
X22089873Y-27542445D01*
X22143402Y-27377701D01*
X22170500Y-27206611D01*
X22170500Y-25633389D01*
X22143402Y-25462299D01*
X22089873Y-25297555D01*
X22011232Y-25143212D01*
X21909414Y-25003072D01*
X21786928Y-24880586D01*
X21745265Y-24850316D01*
X21702602Y-24794988D01*
X21696623Y-24725374D01*
X21729229Y-24663579D01*
X21745266Y-24649683D01*
X21786928Y-24619414D01*
X21909414Y-24496928D01*
X22011232Y-24356788D01*
X22089873Y-24202445D01*
X22143402Y-24037701D01*
X22170500Y-23866611D01*
X22170500Y-22293389D01*
X22143402Y-22122299D01*
X22089873Y-21957555D01*
X22011232Y-21803212D01*
X21909414Y-21663072D01*
X21786928Y-21540586D01*
X21646788Y-21438768D01*
X21492445Y-21360127D01*
X21327701Y-21306598D01*
X21327699Y-21306597D01*
X21327698Y-21306597D01*
X21196271Y-21285781D01*
X21156611Y-21279500D01*
X20983389Y-21279500D01*
X20943728Y-21285781D01*
X20812302Y-21306597D01*
X20647552Y-21360128D01*
X20493211Y-21438768D01*
X20445226Y-21473632D01*
X20353072Y-21540586D01*
X20353070Y-21540588D01*
X20353069Y-21540588D01*
X20230588Y-21663069D01*
X20230588Y-21663070D01*
X20230586Y-21663072D01*
X20204737Y-21698650D01*
X20128768Y-21803211D01*
X20050128Y-21957552D01*
X19996597Y-22122302D01*
X19978177Y-22238606D01*
X19969500Y-22293389D01*
X19969500Y-23866611D01*
X19996598Y-24037701D01*
X20050127Y-24202445D01*
X20128768Y-24356788D01*
X20230586Y-24496928D01*
X20230588Y-24496930D01*
X20353072Y-24619414D01*
X20394733Y-24649683D01*
X20437398Y-24705013D01*
X20443376Y-24774627D01*
X20410769Y-24836421D01*
X20394733Y-24850317D01*
X20353072Y-24880585D01*
X20230588Y-25003069D01*
X20230588Y-25003070D01*
X20230586Y-25003072D01*
X20186859Y-25063256D01*
X20128768Y-25143211D01*
X20050128Y-25297552D01*
X19996597Y-25462302D01*
X19991694Y-25493259D01*
X19969500Y-25633389D01*
X19969500Y-27206611D01*
X19996598Y-27377701D01*
X20049079Y-27539221D01*
X20050128Y-27542447D01*
X20128768Y-27696788D01*
X20158430Y-27737614D01*
X20181910Y-27803421D01*
X20166085Y-27871475D01*
X20115979Y-27920170D01*
X20058112Y-27934500D01*
X19541888Y-27934500D01*
X19474849Y-27914815D01*
X19429094Y-27862011D01*
X19419150Y-27792853D01*
X19441570Y-27737614D01*
X19471232Y-27696788D01*
X19549873Y-27542445D01*
X19603402Y-27377701D01*
X19630500Y-27206611D01*
X19630500Y-25633389D01*
X19603402Y-25462299D01*
X19549873Y-25297555D01*
X19471232Y-25143212D01*
X19369414Y-25003072D01*
X19246928Y-24880586D01*
X19205265Y-24850316D01*
X19162602Y-24794988D01*
X19156623Y-24725374D01*
X19189229Y-24663579D01*
X19205266Y-24649683D01*
X19246928Y-24619414D01*
X19369414Y-24496928D01*
X19471232Y-24356788D01*
X19549873Y-24202445D01*
X19603402Y-24037701D01*
X19630500Y-23866611D01*
X19630500Y-22293389D01*
X19603402Y-22122299D01*
X19549873Y-21957555D01*
X19471232Y-21803212D01*
X19369414Y-21663072D01*
X19246928Y-21540586D01*
X19106788Y-21438768D01*
X18952445Y-21360127D01*
X18787701Y-21306598D01*
X18787699Y-21306597D01*
X18787698Y-21306597D01*
X18656271Y-21285781D01*
X18616611Y-21279500D01*
X18443389Y-21279500D01*
X18403728Y-21285781D01*
X18272302Y-21306597D01*
X18107552Y-21360128D01*
X17953211Y-21438768D01*
X17905226Y-21473632D01*
X17813072Y-21540586D01*
X17813070Y-21540588D01*
X17813069Y-21540588D01*
X17690588Y-21663069D01*
X17690588Y-21663070D01*
X17690586Y-21663072D01*
X17664737Y-21698650D01*
X17588768Y-21803211D01*
X17510128Y-21957552D01*
X17456597Y-22122302D01*
X17438177Y-22238606D01*
X17429500Y-22293389D01*
X17429500Y-23866611D01*
X17456598Y-24037701D01*
X17510127Y-24202445D01*
X17588768Y-24356788D01*
X17690586Y-24496928D01*
X17690588Y-24496930D01*
X17813072Y-24619414D01*
X17854733Y-24649683D01*
X17897398Y-24705013D01*
X17903376Y-24774627D01*
X17870769Y-24836421D01*
X17854733Y-24850317D01*
X17813072Y-24880585D01*
X17690588Y-25003069D01*
X17690588Y-25003070D01*
X17690586Y-25003072D01*
X17646859Y-25063256D01*
X17588768Y-25143211D01*
X17510128Y-25297552D01*
X17456597Y-25462302D01*
X17451694Y-25493259D01*
X17429500Y-25633389D01*
X17429500Y-27206611D01*
X17456598Y-27377701D01*
X17509079Y-27539221D01*
X17510128Y-27542447D01*
X17588768Y-27696788D01*
X17618430Y-27737614D01*
X17641910Y-27803421D01*
X17626085Y-27871475D01*
X17575979Y-27920170D01*
X17518112Y-27934500D01*
X17001888Y-27934500D01*
X16934849Y-27914815D01*
X16889094Y-27862011D01*
X16879150Y-27792853D01*
X16901570Y-27737614D01*
X16931232Y-27696788D01*
X17009873Y-27542445D01*
X17063402Y-27377701D01*
X17090500Y-27206611D01*
X17090500Y-25633389D01*
X17063402Y-25462299D01*
X17009873Y-25297555D01*
X16931232Y-25143212D01*
X16829414Y-25003072D01*
X16706928Y-24880586D01*
X16665265Y-24850316D01*
X16622602Y-24794988D01*
X16616623Y-24725374D01*
X16649229Y-24663579D01*
X16665266Y-24649683D01*
X16706928Y-24619414D01*
X16829414Y-24496928D01*
X16931232Y-24356788D01*
X17009873Y-24202445D01*
X17063402Y-24037701D01*
X17090500Y-23866611D01*
X17090500Y-22293389D01*
X17063402Y-22122299D01*
X17009873Y-21957555D01*
X16931232Y-21803212D01*
X16829414Y-21663072D01*
X16706928Y-21540586D01*
X16566788Y-21438768D01*
X16412445Y-21360127D01*
X16247701Y-21306598D01*
X16247699Y-21306597D01*
X16247698Y-21306597D01*
X16116271Y-21285781D01*
X16076611Y-21279500D01*
X15903389Y-21279500D01*
X15863728Y-21285781D01*
X15732302Y-21306597D01*
X15567552Y-21360128D01*
X15413211Y-21438768D01*
X15365226Y-21473632D01*
X15273072Y-21540586D01*
X15273070Y-21540588D01*
X15273069Y-21540588D01*
X15150588Y-21663069D01*
X15150588Y-21663070D01*
X15150586Y-21663072D01*
X15124737Y-21698650D01*
X15048768Y-21803211D01*
X14970128Y-21957552D01*
X14916597Y-22122302D01*
X14898177Y-22238606D01*
X14889500Y-22293389D01*
X14889500Y-23866611D01*
X14916598Y-24037701D01*
X14970127Y-24202445D01*
X15048768Y-24356788D01*
X15150586Y-24496928D01*
X15150588Y-24496930D01*
X15273072Y-24619414D01*
X15314733Y-24649683D01*
X15357398Y-24705013D01*
X15363376Y-24774627D01*
X15330769Y-24836421D01*
X15314733Y-24850317D01*
X15273072Y-24880585D01*
X15150588Y-25003069D01*
X15150588Y-25003070D01*
X15150586Y-25003072D01*
X15106859Y-25063256D01*
X15048768Y-25143211D01*
X14970128Y-25297552D01*
X14916597Y-25462302D01*
X14911694Y-25493259D01*
X14889500Y-25633389D01*
X14889500Y-27206611D01*
X14916598Y-27377701D01*
X14969079Y-27539221D01*
X14970128Y-27542447D01*
X15048768Y-27696788D01*
X15078430Y-27737614D01*
X15101910Y-27803421D01*
X15086085Y-27871475D01*
X15035979Y-27920170D01*
X14978112Y-27934500D01*
X14461888Y-27934500D01*
X14394849Y-27914815D01*
X14349094Y-27862011D01*
X14339150Y-27792853D01*
X14361570Y-27737614D01*
X14391232Y-27696788D01*
X14469873Y-27542445D01*
X14523402Y-27377701D01*
X14550500Y-27206611D01*
X14550500Y-25633389D01*
X14523402Y-25462299D01*
X14469873Y-25297555D01*
X14391232Y-25143212D01*
X14289414Y-25003072D01*
X14166928Y-24880586D01*
X14125265Y-24850316D01*
X14082602Y-24794988D01*
X14076623Y-24725374D01*
X14109229Y-24663579D01*
X14125266Y-24649683D01*
X14166928Y-24619414D01*
X14289414Y-24496928D01*
X14391232Y-24356788D01*
X14469873Y-24202445D01*
X14523402Y-24037701D01*
X14550500Y-23866611D01*
X14550500Y-22293389D01*
X14523402Y-22122299D01*
X14469873Y-21957555D01*
X14391232Y-21803212D01*
X14289414Y-21663072D01*
X14166928Y-21540586D01*
X14026788Y-21438768D01*
X13872445Y-21360127D01*
X13707701Y-21306598D01*
X13707699Y-21306597D01*
X13707698Y-21306597D01*
X13576271Y-21285781D01*
X13536611Y-21279500D01*
X13363389Y-21279500D01*
X13323728Y-21285781D01*
X13192302Y-21306597D01*
X13027552Y-21360128D01*
X12873211Y-21438768D01*
X12825226Y-21473632D01*
X12733072Y-21540586D01*
X12733070Y-21540588D01*
X12733069Y-21540588D01*
X12610588Y-21663069D01*
X12610588Y-21663070D01*
X12610586Y-21663072D01*
X12584737Y-21698650D01*
X12508768Y-21803211D01*
X12430128Y-21957552D01*
X12376597Y-22122302D01*
X12358177Y-22238606D01*
X12349500Y-22293389D01*
X12349500Y-23866611D01*
X12376598Y-24037701D01*
X12430127Y-24202445D01*
X12508768Y-24356788D01*
X12610586Y-24496928D01*
X12610588Y-24496930D01*
X12733072Y-24619414D01*
X12774733Y-24649683D01*
X12817398Y-24705013D01*
X12823376Y-24774627D01*
X12790769Y-24836421D01*
X12774733Y-24850317D01*
X12733072Y-24880585D01*
X12610588Y-25003069D01*
X12610588Y-25003070D01*
X12610586Y-25003072D01*
X12566859Y-25063256D01*
X12508768Y-25143211D01*
X12430128Y-25297552D01*
X12376597Y-25462302D01*
X12371694Y-25493259D01*
X12349500Y-25633389D01*
X12349500Y-27206611D01*
X12357476Y-27256971D01*
X12373177Y-27356102D01*
X12370781Y-27374641D01*
X12373442Y-27393147D01*
X12366395Y-27408576D01*
X12364222Y-27425396D01*
X12352183Y-27439697D01*
X12344417Y-27456703D01*
X12330148Y-27465872D01*
X12319226Y-27478848D01*
X12301365Y-27484370D01*
X12285639Y-27494477D01*
X12253935Y-27499035D01*
X12252475Y-27499487D01*
X12250704Y-27499500D01*
X12109296Y-27499500D01*
X12042257Y-27479815D01*
X11996502Y-27427011D01*
X11986558Y-27357853D01*
X11986823Y-27356102D01*
X12002524Y-27256971D01*
X12010500Y-27206611D01*
X12010500Y-25633389D01*
X11983402Y-25462299D01*
X11929873Y-25297555D01*
X11851232Y-25143212D01*
X11749414Y-25003072D01*
X11626928Y-24880586D01*
X11585265Y-24850316D01*
X11542602Y-24794988D01*
X11536623Y-24725374D01*
X11569229Y-24663579D01*
X11585266Y-24649683D01*
X11626928Y-24619414D01*
X11749414Y-24496928D01*
X11851232Y-24356788D01*
X11929873Y-24202445D01*
X11983402Y-24037701D01*
X12010500Y-23866611D01*
X12010500Y-22293389D01*
X11983402Y-22122299D01*
X11929873Y-21957555D01*
X11851232Y-21803212D01*
X11749414Y-21663072D01*
X11626928Y-21540586D01*
X11486788Y-21438768D01*
X11332445Y-21360127D01*
X11167701Y-21306598D01*
X11167699Y-21306597D01*
X11167698Y-21306597D01*
X11036271Y-21285781D01*
X10996611Y-21279500D01*
X10823389Y-21279500D01*
X10783728Y-21285781D01*
X10652302Y-21306597D01*
X10487552Y-21360128D01*
X10333211Y-21438768D01*
X10285226Y-21473632D01*
X10193072Y-21540586D01*
X10193070Y-21540588D01*
X10193069Y-21540588D01*
X10070588Y-21663069D01*
X10070588Y-21663070D01*
X10070586Y-21663072D01*
X10044737Y-21698650D01*
X9968768Y-21803211D01*
X9890128Y-21957552D01*
X9836597Y-22122302D01*
X9818177Y-22238606D01*
X9809500Y-22293389D01*
X9809500Y-23866611D01*
X9836598Y-24037701D01*
X9890127Y-24202445D01*
X9968768Y-24356788D01*
X10070586Y-24496928D01*
X10070588Y-24496930D01*
X10193072Y-24619414D01*
X10234733Y-24649683D01*
X10277398Y-24705013D01*
X10283376Y-24774627D01*
X10250769Y-24836421D01*
X10234733Y-24850317D01*
X10193072Y-24880585D01*
X10070588Y-25003069D01*
X10070588Y-25003070D01*
X10070586Y-25003072D01*
X10026859Y-25063256D01*
X9968768Y-25143211D01*
X9890128Y-25297552D01*
X9836597Y-25462302D01*
X9831694Y-25493259D01*
X9809500Y-25633389D01*
X9809500Y-27206611D01*
X9836598Y-27377701D01*
X9890127Y-27542445D01*
X9968768Y-27696788D01*
X10070586Y-27836928D01*
X10193072Y-27959414D01*
X10333212Y-28061232D01*
X10487555Y-28139873D01*
X10652299Y-28193402D01*
X10823389Y-28220500D01*
X10823390Y-28220500D01*
X10984704Y-28220500D01*
X11051743Y-28240185D01*
X11097498Y-28292989D01*
X11107442Y-28362147D01*
X11107177Y-28363898D01*
X11083500Y-28513389D01*
X11083500Y-28686610D01*
X11104097Y-28816659D01*
X11110598Y-28857701D01*
X11164127Y-29022445D01*
X11242768Y-29176788D01*
X11344586Y-29316928D01*
X11467072Y-29439414D01*
X11607212Y-29541232D01*
X11761555Y-29619873D01*
X11926299Y-29673402D01*
X12097389Y-29700500D01*
X12097390Y-29700500D01*
X12270610Y-29700500D01*
X12270611Y-29700500D01*
X12441701Y-29673402D01*
X12606445Y-29619873D01*
X12760788Y-29541232D01*
X12900928Y-29439414D01*
X13023414Y-29316928D01*
X13023648Y-29316606D01*
X13023766Y-29316514D01*
X13026578Y-29313223D01*
X13027269Y-29313813D01*
X13078982Y-29273945D01*
X13123960Y-29265500D01*
X18827174Y-29265500D01*
X18894213Y-29285185D01*
X18939968Y-29337989D01*
X18949912Y-29407147D01*
X18927492Y-29462386D01*
X18868768Y-29543211D01*
X18790128Y-29697552D01*
X18736597Y-29862302D01*
X18724982Y-29935638D01*
X18709500Y-30033389D01*
X18709500Y-30206611D01*
X18736598Y-30377701D01*
X18790127Y-30542445D01*
X18868768Y-30696788D01*
X18970586Y-30836928D01*
X19093072Y-30959414D01*
X19233212Y-31061232D01*
X19387555Y-31139873D01*
X19552299Y-31193402D01*
X19723389Y-31220500D01*
X19723390Y-31220500D01*
X19896610Y-31220500D01*
X19896611Y-31220500D01*
X20067701Y-31193402D01*
X20232445Y-31139873D01*
X20386788Y-31061232D01*
X20526928Y-30959414D01*
X20649414Y-30836928D01*
X20649648Y-30836606D01*
X20649766Y-30836514D01*
X20652578Y-30833223D01*
X20653269Y-30833813D01*
X20704982Y-30793945D01*
X20749960Y-30785500D01*
X21437580Y-30785500D01*
X21504619Y-30805185D01*
X21550374Y-30857989D01*
X21560053Y-30890102D01*
X21574021Y-30978297D01*
X21586598Y-31057701D01*
X21640127Y-31222445D01*
X21718768Y-31376788D01*
X21820586Y-31516928D01*
X21943072Y-31639414D01*
X22083212Y-31741232D01*
X22237555Y-31819873D01*
X22262308Y-31827915D01*
X22319982Y-31867352D01*
X22347181Y-31931711D01*
X22347989Y-31945846D01*
X22347989Y-34475500D01*
X22328304Y-34542539D01*
X22275500Y-34588294D01*
X22223989Y-34599500D01*
X524500Y-34599500D01*
X457461Y-34579815D01*
X411706Y-34527011D01*
X400500Y-34475500D01*
X400500Y-31385921D01*
X1759500Y-31385921D01*
X1759500Y-31614078D01*
X1789278Y-31840272D01*
X1789279Y-31840277D01*
X1789280Y-31840283D01*
X1848331Y-32060666D01*
X1935638Y-32271446D01*
X1935646Y-32271462D01*
X2049717Y-32469037D01*
X2049728Y-32469053D01*
X2188613Y-32650052D01*
X2188619Y-32650059D01*
X2349940Y-32811380D01*
X2349946Y-32811385D01*
X2530955Y-32950278D01*
X2530962Y-32950282D01*
X2728537Y-33064353D01*
X2728553Y-33064361D01*
X2842268Y-33111463D01*
X2939334Y-33151669D01*
X3159717Y-33210720D01*
X3319474Y-33231752D01*
X3385921Y-33240500D01*
X3385922Y-33240500D01*
X3614079Y-33240500D01*
X3665438Y-33233738D01*
X3840283Y-33210720D01*
X4060666Y-33151669D01*
X4226365Y-33083033D01*
X4271446Y-33064361D01*
X4271449Y-33064359D01*
X4271455Y-33064357D01*
X4469045Y-32950278D01*
X4650054Y-32811385D01*
X4811385Y-32650054D01*
X4950278Y-32469045D01*
X5064357Y-32271455D01*
X5151669Y-32060666D01*
X5210720Y-31840283D01*
X5240500Y-31614078D01*
X5240500Y-31385922D01*
X5210720Y-31159717D01*
X5151669Y-30939334D01*
X5101470Y-30818144D01*
X5064361Y-30728553D01*
X5064353Y-30728537D01*
X4950282Y-30530962D01*
X4950278Y-30530955D01*
X4811385Y-30349946D01*
X4811380Y-30349940D01*
X4650059Y-30188619D01*
X4650052Y-30188613D01*
X4469053Y-30049728D01*
X4469051Y-30049726D01*
X4469045Y-30049722D01*
X4469040Y-30049719D01*
X4469037Y-30049717D01*
X4271462Y-29935646D01*
X4271446Y-29935638D01*
X4060666Y-29848331D01*
X3840283Y-29789280D01*
X3840277Y-29789279D01*
X3840272Y-29789278D01*
X3614079Y-29759500D01*
X3614078Y-29759500D01*
X3385922Y-29759500D01*
X3385921Y-29759500D01*
X3159727Y-29789278D01*
X3159720Y-29789279D01*
X3159717Y-29789280D01*
X3066567Y-29814239D01*
X2939333Y-29848331D01*
X2728553Y-29935638D01*
X2728537Y-29935646D01*
X2530962Y-30049717D01*
X2530946Y-30049728D01*
X2349947Y-30188613D01*
X2349940Y-30188619D01*
X2188619Y-30349940D01*
X2188613Y-30349947D01*
X2049728Y-30530946D01*
X2049717Y-30530962D01*
X1935646Y-30728537D01*
X1935638Y-30728553D01*
X1848331Y-30939333D01*
X1837891Y-30978297D01*
X1792048Y-31149389D01*
X1789281Y-31159714D01*
X1789278Y-31159727D01*
X1759500Y-31385921D01*
X400500Y-31385921D01*
X400500Y-22293389D01*
X7269500Y-22293389D01*
X7269500Y-23866611D01*
X7296598Y-24037701D01*
X7350127Y-24202445D01*
X7428768Y-24356788D01*
X7501897Y-24457442D01*
X7525377Y-24523246D01*
X7509552Y-24591300D01*
X7459446Y-24639995D01*
X7451666Y-24643760D01*
X7397234Y-24667794D01*
X7317794Y-24747234D01*
X7272415Y-24850006D01*
X7272415Y-24850008D01*
X7269500Y-24875131D01*
X7269500Y-27964856D01*
X7269502Y-27964882D01*
X7272413Y-27989987D01*
X7272415Y-27989991D01*
X7317793Y-28092764D01*
X7317794Y-28092765D01*
X7397235Y-28172206D01*
X7500009Y-28217585D01*
X7525135Y-28220500D01*
X9214864Y-28220499D01*
X9214879Y-28220497D01*
X9214882Y-28220497D01*
X9239987Y-28217586D01*
X9239988Y-28217585D01*
X9239991Y-28217585D01*
X9342765Y-28172206D01*
X9422206Y-28092765D01*
X9467585Y-27989991D01*
X9470500Y-27964865D01*
X9470499Y-24875136D01*
X9470264Y-24873110D01*
X9467586Y-24850012D01*
X9467585Y-24850010D01*
X9467585Y-24850009D01*
X9422206Y-24747235D01*
X9342765Y-24667794D01*
X9288333Y-24643760D01*
X9234957Y-24598674D01*
X9214430Y-24531888D01*
X9233268Y-24464606D01*
X9238083Y-24457468D01*
X9311232Y-24356788D01*
X9389873Y-24202445D01*
X9443402Y-24037701D01*
X9470500Y-23866611D01*
X9470500Y-22293389D01*
X9443402Y-22122299D01*
X9389873Y-21957555D01*
X9311232Y-21803212D01*
X9209414Y-21663072D01*
X9086928Y-21540586D01*
X8946788Y-21438768D01*
X8792445Y-21360127D01*
X8627701Y-21306598D01*
X8627699Y-21306597D01*
X8627698Y-21306597D01*
X8496271Y-21285781D01*
X8456611Y-21279500D01*
X8283389Y-21279500D01*
X8243728Y-21285781D01*
X8112302Y-21306597D01*
X7947552Y-21360128D01*
X7793211Y-21438768D01*
X7745226Y-21473632D01*
X7653072Y-21540586D01*
X7653070Y-21540588D01*
X7653069Y-21540588D01*
X7530588Y-21663069D01*
X7530588Y-21663070D01*
X7530586Y-21663072D01*
X7504737Y-21698650D01*
X7428768Y-21803211D01*
X7350128Y-21957552D01*
X7296597Y-22122302D01*
X7278177Y-22238606D01*
X7269500Y-22293389D01*
X400500Y-22293389D01*
X400500Y-17650437D01*
X789570Y-17650437D01*
X3359798Y-17650437D01*
X3359798Y-12504386D01*
X789570Y-12504386D01*
X789570Y-17650437D01*
X400500Y-17650437D01*
X400500Y-8873389D01*
X8239500Y-8873389D01*
X8239500Y-10446610D01*
X8266475Y-10616928D01*
X8266598Y-10617701D01*
X8315615Y-10768560D01*
X8320128Y-10782447D01*
X8337926Y-10817378D01*
X8398768Y-10936788D01*
X8500586Y-11076928D01*
X8500588Y-11076930D01*
X8623072Y-11199414D01*
X8664733Y-11229683D01*
X8707398Y-11285013D01*
X8713376Y-11354627D01*
X8680769Y-11416421D01*
X8664733Y-11430317D01*
X8623072Y-11460585D01*
X8500588Y-11583069D01*
X8500588Y-11583070D01*
X8500586Y-11583072D01*
X8477104Y-11615392D01*
X8398768Y-11723211D01*
X8320128Y-11877552D01*
X8266597Y-12042302D01*
X8260199Y-12082701D01*
X8239500Y-12213389D01*
X8239500Y-13786611D01*
X8266598Y-13957701D01*
X8312347Y-14098502D01*
X8320128Y-14122447D01*
X8345923Y-14173072D01*
X8398768Y-14276788D01*
X8500586Y-14416928D01*
X8623072Y-14539414D01*
X8763212Y-14641232D01*
X8917555Y-14719873D01*
X9082299Y-14773402D01*
X9253389Y-14800500D01*
X9253390Y-14800500D01*
X9426610Y-14800500D01*
X9426611Y-14800500D01*
X9597701Y-14773402D01*
X9762445Y-14719873D01*
X9916788Y-14641232D01*
X10056928Y-14539414D01*
X10179414Y-14416928D01*
X10281232Y-14276788D01*
X10359873Y-14122445D01*
X10413402Y-13957701D01*
X10440500Y-13786611D01*
X10440500Y-12213389D01*
X10413402Y-12042299D01*
X10359873Y-11877555D01*
X10281232Y-11723212D01*
X10179414Y-11583072D01*
X10056928Y-11460586D01*
X10015265Y-11430316D01*
X9972602Y-11374988D01*
X9966623Y-11305374D01*
X9999229Y-11243579D01*
X10015266Y-11229683D01*
X10056928Y-11199414D01*
X10179414Y-11076928D01*
X10281232Y-10936788D01*
X10359873Y-10782445D01*
X10413402Y-10617701D01*
X10440500Y-10446611D01*
X10440500Y-8873389D01*
X10779500Y-8873389D01*
X10779500Y-10446610D01*
X10806475Y-10616928D01*
X10806598Y-10617701D01*
X10855615Y-10768560D01*
X10860128Y-10782447D01*
X10877926Y-10817378D01*
X10938768Y-10936788D01*
X11040586Y-11076928D01*
X11040588Y-11076930D01*
X11163072Y-11199414D01*
X11204733Y-11229683D01*
X11247398Y-11285013D01*
X11253376Y-11354627D01*
X11220769Y-11416421D01*
X11204733Y-11430317D01*
X11163072Y-11460585D01*
X11040588Y-11583069D01*
X11040588Y-11583070D01*
X11040586Y-11583072D01*
X11017104Y-11615392D01*
X10938768Y-11723211D01*
X10860128Y-11877552D01*
X10806597Y-12042302D01*
X10800199Y-12082701D01*
X10779500Y-12213389D01*
X10779500Y-13786611D01*
X10806598Y-13957701D01*
X10852347Y-14098502D01*
X10860128Y-14122447D01*
X10885923Y-14173072D01*
X10938768Y-14276788D01*
X11040586Y-14416928D01*
X11163072Y-14539414D01*
X11303212Y-14641232D01*
X11457555Y-14719873D01*
X11622299Y-14773402D01*
X11793389Y-14800500D01*
X11793390Y-14800500D01*
X11966610Y-14800500D01*
X11966611Y-14800500D01*
X12137701Y-14773402D01*
X12302445Y-14719873D01*
X12456788Y-14641232D01*
X12596928Y-14539414D01*
X12719414Y-14416928D01*
X12821232Y-14276788D01*
X12899873Y-14122445D01*
X12953402Y-13957701D01*
X12980500Y-13786611D01*
X12980500Y-12213389D01*
X12953402Y-12042299D01*
X12899873Y-11877555D01*
X12821232Y-11723212D01*
X12719414Y-11583072D01*
X12596928Y-11460586D01*
X12555265Y-11430316D01*
X12512602Y-11374988D01*
X12506623Y-11305374D01*
X12539229Y-11243579D01*
X12555266Y-11229683D01*
X12596928Y-11199414D01*
X12719414Y-11076928D01*
X12821232Y-10936788D01*
X12899873Y-10782445D01*
X12953402Y-10617701D01*
X12980500Y-10446611D01*
X12980500Y-8873389D01*
X13319500Y-8873389D01*
X13319500Y-10446610D01*
X13346475Y-10616928D01*
X13346598Y-10617701D01*
X13395615Y-10768560D01*
X13400128Y-10782447D01*
X13417926Y-10817378D01*
X13478768Y-10936788D01*
X13580586Y-11076928D01*
X13580588Y-11076930D01*
X13703072Y-11199414D01*
X13744733Y-11229683D01*
X13787398Y-11285013D01*
X13793376Y-11354627D01*
X13760769Y-11416421D01*
X13744733Y-11430317D01*
X13703072Y-11460585D01*
X13580588Y-11583069D01*
X13580588Y-11583070D01*
X13580586Y-11583072D01*
X13557104Y-11615392D01*
X13478768Y-11723211D01*
X13400128Y-11877552D01*
X13346597Y-12042302D01*
X13340199Y-12082701D01*
X13319500Y-12213389D01*
X13319500Y-13786611D01*
X13346598Y-13957701D01*
X13392347Y-14098502D01*
X13400128Y-14122447D01*
X13425923Y-14173072D01*
X13478768Y-14276788D01*
X13580586Y-14416928D01*
X13703072Y-14539414D01*
X13843212Y-14641232D01*
X13997555Y-14719873D01*
X14162299Y-14773402D01*
X14333389Y-14800500D01*
X14333390Y-14800500D01*
X14506610Y-14800500D01*
X14506611Y-14800500D01*
X14677701Y-14773402D01*
X14842445Y-14719873D01*
X14996788Y-14641232D01*
X15136928Y-14539414D01*
X15259414Y-14416928D01*
X15361232Y-14276788D01*
X15439873Y-14122445D01*
X15493402Y-13957701D01*
X15520500Y-13786611D01*
X15520500Y-12213389D01*
X15493402Y-12042299D01*
X15439873Y-11877555D01*
X15361232Y-11723212D01*
X15259414Y-11583072D01*
X15136928Y-11460586D01*
X15095265Y-11430316D01*
X15052602Y-11374988D01*
X15046623Y-11305374D01*
X15079229Y-11243579D01*
X15095266Y-11229683D01*
X15136928Y-11199414D01*
X15259414Y-11076928D01*
X15361232Y-10936788D01*
X15439873Y-10782445D01*
X15493402Y-10617701D01*
X15520500Y-10446611D01*
X15520500Y-8873389D01*
X15859500Y-8873389D01*
X15859500Y-10446610D01*
X15886475Y-10616928D01*
X15886598Y-10617701D01*
X15935615Y-10768560D01*
X15940128Y-10782447D01*
X15957926Y-10817378D01*
X16018768Y-10936788D01*
X16120586Y-11076928D01*
X16120588Y-11076930D01*
X16243072Y-11199414D01*
X16284733Y-11229683D01*
X16327398Y-11285013D01*
X16333376Y-11354627D01*
X16300769Y-11416421D01*
X16284733Y-11430317D01*
X16243072Y-11460585D01*
X16120588Y-11583069D01*
X16120588Y-11583070D01*
X16120586Y-11583072D01*
X16097104Y-11615392D01*
X16018768Y-11723211D01*
X15940128Y-11877552D01*
X15886597Y-12042302D01*
X15880199Y-12082701D01*
X15859500Y-12213389D01*
X15859500Y-13786611D01*
X15886598Y-13957701D01*
X15932347Y-14098502D01*
X15940128Y-14122447D01*
X15965923Y-14173072D01*
X16018768Y-14276788D01*
X16120586Y-14416928D01*
X16243072Y-14539414D01*
X16383212Y-14641232D01*
X16537555Y-14719873D01*
X16702299Y-14773402D01*
X16873389Y-14800500D01*
X16873390Y-14800500D01*
X17046610Y-14800500D01*
X17046611Y-14800500D01*
X17217701Y-14773402D01*
X17382445Y-14719873D01*
X17536788Y-14641232D01*
X17676928Y-14539414D01*
X17799414Y-14416928D01*
X17901232Y-14276788D01*
X17979873Y-14122445D01*
X18033402Y-13957701D01*
X18060500Y-13786611D01*
X18060500Y-12213389D01*
X18033402Y-12042299D01*
X17979873Y-11877555D01*
X17901232Y-11723212D01*
X17799414Y-11583072D01*
X17676928Y-11460586D01*
X17635265Y-11430316D01*
X17592602Y-11374988D01*
X17586623Y-11305374D01*
X17619229Y-11243579D01*
X17635266Y-11229683D01*
X17676928Y-11199414D01*
X17799414Y-11076928D01*
X17901232Y-10936788D01*
X17979873Y-10782445D01*
X18033402Y-10617701D01*
X18060500Y-10446611D01*
X18060500Y-8873389D01*
X18399500Y-8873389D01*
X18399500Y-10446610D01*
X18426475Y-10616928D01*
X18426598Y-10617701D01*
X18475615Y-10768560D01*
X18480128Y-10782447D01*
X18497926Y-10817378D01*
X18558768Y-10936788D01*
X18660586Y-11076928D01*
X18660588Y-11076930D01*
X18783072Y-11199414D01*
X18824733Y-11229683D01*
X18867398Y-11285013D01*
X18873376Y-11354627D01*
X18840769Y-11416421D01*
X18824733Y-11430317D01*
X18783072Y-11460585D01*
X18660588Y-11583069D01*
X18660588Y-11583070D01*
X18660586Y-11583072D01*
X18637104Y-11615392D01*
X18558768Y-11723211D01*
X18480128Y-11877552D01*
X18426597Y-12042302D01*
X18420199Y-12082701D01*
X18399500Y-12213389D01*
X18399500Y-13786611D01*
X18426598Y-13957701D01*
X18472347Y-14098502D01*
X18480128Y-14122447D01*
X18505923Y-14173072D01*
X18558768Y-14276788D01*
X18660586Y-14416928D01*
X18783072Y-14539414D01*
X18923212Y-14641232D01*
X19077555Y-14719873D01*
X19242299Y-14773402D01*
X19413389Y-14800500D01*
X19413390Y-14800500D01*
X19586610Y-14800500D01*
X19586611Y-14800500D01*
X19757701Y-14773402D01*
X19922445Y-14719873D01*
X20076788Y-14641232D01*
X20216928Y-14539414D01*
X20339414Y-14416928D01*
X20441232Y-14276788D01*
X20519873Y-14122445D01*
X20573402Y-13957701D01*
X20600500Y-13786611D01*
X20600500Y-12213389D01*
X20573402Y-12042299D01*
X20519873Y-11877555D01*
X20441232Y-11723212D01*
X20339414Y-11583072D01*
X20216928Y-11460586D01*
X20175265Y-11430316D01*
X20132602Y-11374988D01*
X20126623Y-11305374D01*
X20159229Y-11243579D01*
X20175266Y-11229683D01*
X20216928Y-11199414D01*
X20339414Y-11076928D01*
X20441232Y-10936788D01*
X20519873Y-10782445D01*
X20573402Y-10617701D01*
X20600500Y-10446611D01*
X20600500Y-8873389D01*
X20939500Y-8873389D01*
X20939500Y-10446610D01*
X20966475Y-10616928D01*
X20966598Y-10617701D01*
X21015615Y-10768560D01*
X21020128Y-10782447D01*
X21037926Y-10817378D01*
X21098768Y-10936788D01*
X21200586Y-11076928D01*
X21200588Y-11076930D01*
X21323072Y-11199414D01*
X21364733Y-11229683D01*
X21407398Y-11285013D01*
X21413376Y-11354627D01*
X21380769Y-11416421D01*
X21364733Y-11430317D01*
X21323072Y-11460585D01*
X21200588Y-11583069D01*
X21200588Y-11583070D01*
X21200586Y-11583072D01*
X21177104Y-11615392D01*
X21098768Y-11723211D01*
X21020128Y-11877552D01*
X20966597Y-12042302D01*
X20960199Y-12082701D01*
X20939500Y-12213389D01*
X20939500Y-13786611D01*
X20966598Y-13957701D01*
X21012347Y-14098502D01*
X21020128Y-14122447D01*
X21045923Y-14173072D01*
X21098768Y-14276788D01*
X21200586Y-14416928D01*
X21323072Y-14539414D01*
X21463212Y-14641232D01*
X21617555Y-14719873D01*
X21782299Y-14773402D01*
X21953389Y-14800500D01*
X21953390Y-14800500D01*
X22126610Y-14800500D01*
X22126611Y-14800500D01*
X22297701Y-14773402D01*
X22462445Y-14719873D01*
X22616788Y-14641232D01*
X22756928Y-14539414D01*
X22879414Y-14416928D01*
X22981232Y-14276788D01*
X23059873Y-14122445D01*
X23113402Y-13957701D01*
X23140500Y-13786611D01*
X23140500Y-12213389D01*
X23113402Y-12042299D01*
X23059873Y-11877555D01*
X22981232Y-11723212D01*
X22879414Y-11583072D01*
X22756928Y-11460586D01*
X22715265Y-11430316D01*
X22672602Y-11374988D01*
X22666623Y-11305374D01*
X22699229Y-11243579D01*
X22715266Y-11229683D01*
X22756928Y-11199414D01*
X22879414Y-11076928D01*
X22981232Y-10936788D01*
X23059873Y-10782445D01*
X23113402Y-10617701D01*
X23140500Y-10446611D01*
X23140500Y-8873389D01*
X23479500Y-8873389D01*
X23479500Y-10446610D01*
X23506475Y-10616928D01*
X23506598Y-10617701D01*
X23555615Y-10768560D01*
X23560128Y-10782447D01*
X23577926Y-10817378D01*
X23638768Y-10936788D01*
X23740586Y-11076928D01*
X23740588Y-11076930D01*
X23863072Y-11199414D01*
X23904733Y-11229683D01*
X23947398Y-11285013D01*
X23953376Y-11354627D01*
X23920769Y-11416421D01*
X23904733Y-11430317D01*
X23863072Y-11460585D01*
X23740588Y-11583069D01*
X23740588Y-11583070D01*
X23740586Y-11583072D01*
X23717104Y-11615392D01*
X23638768Y-11723211D01*
X23560128Y-11877552D01*
X23506597Y-12042302D01*
X23500199Y-12082701D01*
X23479500Y-12213389D01*
X23479500Y-13786611D01*
X23506598Y-13957701D01*
X23552347Y-14098502D01*
X23560128Y-14122447D01*
X23585923Y-14173072D01*
X23638768Y-14276788D01*
X23740586Y-14416928D01*
X23863072Y-14539414D01*
X24003212Y-14641232D01*
X24157555Y-14719873D01*
X24322299Y-14773402D01*
X24493389Y-14800500D01*
X24493390Y-14800500D01*
X24666610Y-14800500D01*
X24666611Y-14800500D01*
X24837701Y-14773402D01*
X25002445Y-14719873D01*
X25156788Y-14641232D01*
X25296928Y-14539414D01*
X25419414Y-14416928D01*
X25521232Y-14276788D01*
X25599873Y-14122445D01*
X25653402Y-13957701D01*
X25680500Y-13786611D01*
X25680500Y-12213389D01*
X25653402Y-12042299D01*
X25599873Y-11877555D01*
X25521232Y-11723212D01*
X25419414Y-11583072D01*
X25296928Y-11460586D01*
X25255265Y-11430316D01*
X25212602Y-11374988D01*
X25206623Y-11305374D01*
X25239229Y-11243579D01*
X25255266Y-11229683D01*
X25296928Y-11199414D01*
X25419414Y-11076928D01*
X25521232Y-10936788D01*
X25599873Y-10782445D01*
X25653402Y-10617701D01*
X25680500Y-10446611D01*
X25680500Y-8873389D01*
X26019500Y-8873389D01*
X26019500Y-10446610D01*
X26046475Y-10616928D01*
X26046598Y-10617701D01*
X26095615Y-10768560D01*
X26100128Y-10782447D01*
X26117926Y-10817378D01*
X26178768Y-10936788D01*
X26280586Y-11076928D01*
X26280588Y-11076930D01*
X26403072Y-11199414D01*
X26444733Y-11229683D01*
X26487398Y-11285013D01*
X26493376Y-11354627D01*
X26460769Y-11416421D01*
X26444733Y-11430317D01*
X26403072Y-11460585D01*
X26280588Y-11583069D01*
X26280588Y-11583070D01*
X26280586Y-11583072D01*
X26257104Y-11615392D01*
X26178768Y-11723211D01*
X26100128Y-11877552D01*
X26046597Y-12042302D01*
X26040199Y-12082701D01*
X26019500Y-12213389D01*
X26019500Y-13786611D01*
X26046598Y-13957701D01*
X26092347Y-14098502D01*
X26100128Y-14122447D01*
X26125923Y-14173072D01*
X26178768Y-14276788D01*
X26280586Y-14416928D01*
X26403072Y-14539414D01*
X26543212Y-14641232D01*
X26697555Y-14719873D01*
X26862299Y-14773402D01*
X27033389Y-14800500D01*
X27033390Y-14800500D01*
X27206610Y-14800500D01*
X27206611Y-14800500D01*
X27377701Y-14773402D01*
X27542445Y-14719873D01*
X27696788Y-14641232D01*
X27836928Y-14539414D01*
X27959414Y-14416928D01*
X28061232Y-14276788D01*
X28139873Y-14122445D01*
X28193402Y-13957701D01*
X28220500Y-13786611D01*
X28220500Y-12213389D01*
X28559500Y-12213389D01*
X28559500Y-13786611D01*
X28586598Y-13957701D01*
X28632347Y-14098502D01*
X28640128Y-14122447D01*
X28665923Y-14173072D01*
X28718768Y-14276788D01*
X28820586Y-14416928D01*
X28943072Y-14539414D01*
X29083212Y-14641232D01*
X29237555Y-14719873D01*
X29402299Y-14773402D01*
X29573389Y-14800500D01*
X29573390Y-14800500D01*
X29746610Y-14800500D01*
X29746611Y-14800500D01*
X29917701Y-14773402D01*
X30082445Y-14719873D01*
X30236788Y-14641232D01*
X30376928Y-14539414D01*
X30499414Y-14416928D01*
X30601232Y-14276788D01*
X30679873Y-14122445D01*
X30733402Y-13957701D01*
X30760500Y-13786611D01*
X30760500Y-12213389D01*
X30733402Y-12042299D01*
X30679873Y-11877555D01*
X30601232Y-11723212D01*
X30499414Y-11583072D01*
X30471146Y-11554804D01*
X30437662Y-11493482D01*
X30442646Y-11423790D01*
X30484518Y-11367857D01*
X30485943Y-11366806D01*
X30506889Y-11351587D01*
X30506895Y-11351582D01*
X30651584Y-11206893D01*
X30736484Y-11090037D01*
X30736484Y-11090036D01*
X30036777Y-10390329D01*
X30060099Y-10367007D01*
X30125925Y-10252993D01*
X30160000Y-10125826D01*
X30160000Y-9994174D01*
X30125925Y-9867007D01*
X30060099Y-9752993D01*
X29967007Y-9659901D01*
X29852993Y-9594075D01*
X29725826Y-9560000D01*
X29594174Y-9560000D01*
X29467007Y-9594075D01*
X29352993Y-9659901D01*
X29259901Y-9752993D01*
X29194075Y-9867007D01*
X29160000Y-9994174D01*
X29160000Y-10125826D01*
X29194075Y-10252993D01*
X29259901Y-10367007D01*
X29283222Y-10390328D01*
X28583513Y-11090036D01*
X28668417Y-11206895D01*
X28813107Y-11351585D01*
X28834058Y-11366807D01*
X28876723Y-11422138D01*
X28882701Y-11491751D01*
X28850094Y-11553546D01*
X28848854Y-11554804D01*
X28820586Y-11583072D01*
X28718768Y-11723211D01*
X28640128Y-11877552D01*
X28586597Y-12042302D01*
X28580199Y-12082701D01*
X28559500Y-12213389D01*
X28220500Y-12213389D01*
X28193402Y-12042299D01*
X28139873Y-11877555D01*
X28061232Y-11723212D01*
X27959414Y-11583072D01*
X27836928Y-11460586D01*
X27795265Y-11430316D01*
X27752602Y-11374988D01*
X27746623Y-11305374D01*
X27779229Y-11243579D01*
X27795266Y-11229683D01*
X27836928Y-11199414D01*
X27959414Y-11076928D01*
X28061232Y-10936788D01*
X28139873Y-10782445D01*
X28181974Y-10652870D01*
X28221410Y-10595198D01*
X28285769Y-10567999D01*
X28338222Y-10573260D01*
X28379707Y-10586739D01*
X29306448Y-9660000D01*
X29306448Y-9659999D01*
X28379707Y-8733258D01*
X28338221Y-8746738D01*
X28268380Y-8748733D01*
X28208547Y-8712653D01*
X28181974Y-8667129D01*
X28139873Y-8537555D01*
X28061232Y-8383212D01*
X27959414Y-8243072D01*
X27946304Y-8229962D01*
X28583513Y-8229962D01*
X28583514Y-8229963D01*
X29660000Y-9306448D01*
X29660001Y-9306448D01*
X30736484Y-8229963D01*
X30736485Y-8229961D01*
X30651587Y-8113110D01*
X30651582Y-8113104D01*
X30506895Y-7968417D01*
X30341349Y-7848140D01*
X30159031Y-7755244D01*
X29964417Y-7692009D01*
X29762317Y-7660000D01*
X29557683Y-7660000D01*
X29355582Y-7692009D01*
X29160968Y-7755244D01*
X28978650Y-7848140D01*
X28813105Y-7968417D01*
X28813104Y-7968417D01*
X28668416Y-8113105D01*
X28583513Y-8229962D01*
X27946304Y-8229962D01*
X27836928Y-8120586D01*
X27696788Y-8018768D01*
X27542445Y-7940127D01*
X27377701Y-7886598D01*
X27377699Y-7886597D01*
X27377698Y-7886597D01*
X27227566Y-7862819D01*
X27206611Y-7859500D01*
X27033389Y-7859500D01*
X27012434Y-7862819D01*
X26862302Y-7886597D01*
X26697552Y-7940128D01*
X26543211Y-8018768D01*
X26466939Y-8074184D01*
X26403072Y-8120586D01*
X26403070Y-8120588D01*
X26403069Y-8120588D01*
X26280588Y-8243069D01*
X26280588Y-8243070D01*
X26280586Y-8243072D01*
X26258250Y-8273815D01*
X26178768Y-8383211D01*
X26100128Y-8537552D01*
X26046597Y-8702302D01*
X26019500Y-8873389D01*
X25680500Y-8873389D01*
X25653402Y-8702299D01*
X25599873Y-8537555D01*
X25521232Y-8383212D01*
X25419414Y-8243072D01*
X25296928Y-8120586D01*
X25156788Y-8018768D01*
X25002445Y-7940127D01*
X24837701Y-7886598D01*
X24837699Y-7886597D01*
X24837698Y-7886597D01*
X24687566Y-7862819D01*
X24666611Y-7859500D01*
X24493389Y-7859500D01*
X24472434Y-7862819D01*
X24322302Y-7886597D01*
X24157552Y-7940128D01*
X24003211Y-8018768D01*
X23926939Y-8074184D01*
X23863072Y-8120586D01*
X23863070Y-8120588D01*
X23863069Y-8120588D01*
X23740588Y-8243069D01*
X23740588Y-8243070D01*
X23740586Y-8243072D01*
X23718250Y-8273815D01*
X23638768Y-8383211D01*
X23560128Y-8537552D01*
X23506597Y-8702302D01*
X23479500Y-8873389D01*
X23140500Y-8873389D01*
X23113402Y-8702299D01*
X23059873Y-8537555D01*
X22981232Y-8383212D01*
X22879414Y-8243072D01*
X22756928Y-8120586D01*
X22616788Y-8018768D01*
X22462445Y-7940127D01*
X22297701Y-7886598D01*
X22297699Y-7886597D01*
X22297698Y-7886597D01*
X22147566Y-7862819D01*
X22126611Y-7859500D01*
X21953389Y-7859500D01*
X21932434Y-7862819D01*
X21782302Y-7886597D01*
X21617552Y-7940128D01*
X21463211Y-8018768D01*
X21386939Y-8074184D01*
X21323072Y-8120586D01*
X21323070Y-8120588D01*
X21323069Y-8120588D01*
X21200588Y-8243069D01*
X21200588Y-8243070D01*
X21200586Y-8243072D01*
X21178250Y-8273815D01*
X21098768Y-8383211D01*
X21020128Y-8537552D01*
X20966597Y-8702302D01*
X20939500Y-8873389D01*
X20600500Y-8873389D01*
X20573402Y-8702299D01*
X20519873Y-8537555D01*
X20441232Y-8383212D01*
X20339414Y-8243072D01*
X20216928Y-8120586D01*
X20076788Y-8018768D01*
X19922445Y-7940127D01*
X19757701Y-7886598D01*
X19757699Y-7886597D01*
X19757698Y-7886597D01*
X19607566Y-7862819D01*
X19586611Y-7859500D01*
X19413389Y-7859500D01*
X19392434Y-7862819D01*
X19242302Y-7886597D01*
X19077552Y-7940128D01*
X18923211Y-8018768D01*
X18846939Y-8074184D01*
X18783072Y-8120586D01*
X18783070Y-8120588D01*
X18783069Y-8120588D01*
X18660588Y-8243069D01*
X18660588Y-8243070D01*
X18660586Y-8243072D01*
X18638250Y-8273815D01*
X18558768Y-8383211D01*
X18480128Y-8537552D01*
X18426597Y-8702302D01*
X18399500Y-8873389D01*
X18060500Y-8873389D01*
X18033402Y-8702299D01*
X17979873Y-8537555D01*
X17901232Y-8383212D01*
X17799414Y-8243072D01*
X17676928Y-8120586D01*
X17536788Y-8018768D01*
X17382445Y-7940127D01*
X17217701Y-7886598D01*
X17217699Y-7886597D01*
X17217698Y-7886597D01*
X17067566Y-7862819D01*
X17046611Y-7859500D01*
X16873389Y-7859500D01*
X16852434Y-7862819D01*
X16702302Y-7886597D01*
X16537552Y-7940128D01*
X16383211Y-8018768D01*
X16306939Y-8074184D01*
X16243072Y-8120586D01*
X16243070Y-8120588D01*
X16243069Y-8120588D01*
X16120588Y-8243069D01*
X16120588Y-8243070D01*
X16120586Y-8243072D01*
X16098250Y-8273815D01*
X16018768Y-8383211D01*
X15940128Y-8537552D01*
X15886597Y-8702302D01*
X15859500Y-8873389D01*
X15520500Y-8873389D01*
X15493402Y-8702299D01*
X15439873Y-8537555D01*
X15361232Y-8383212D01*
X15259414Y-8243072D01*
X15136928Y-8120586D01*
X14996788Y-8018768D01*
X14842445Y-7940127D01*
X14677701Y-7886598D01*
X14677699Y-7886597D01*
X14677698Y-7886597D01*
X14527566Y-7862819D01*
X14506611Y-7859500D01*
X14333389Y-7859500D01*
X14312434Y-7862819D01*
X14162302Y-7886597D01*
X13997552Y-7940128D01*
X13843211Y-8018768D01*
X13766939Y-8074184D01*
X13703072Y-8120586D01*
X13703070Y-8120588D01*
X13703069Y-8120588D01*
X13580588Y-8243069D01*
X13580588Y-8243070D01*
X13580586Y-8243072D01*
X13558250Y-8273815D01*
X13478768Y-8383211D01*
X13400128Y-8537552D01*
X13346597Y-8702302D01*
X13319500Y-8873389D01*
X12980500Y-8873389D01*
X12953402Y-8702299D01*
X12899873Y-8537555D01*
X12821232Y-8383212D01*
X12719414Y-8243072D01*
X12596928Y-8120586D01*
X12456788Y-8018768D01*
X12302445Y-7940127D01*
X12137701Y-7886598D01*
X12137699Y-7886597D01*
X12137698Y-7886597D01*
X11987566Y-7862819D01*
X11966611Y-7859500D01*
X11793389Y-7859500D01*
X11772434Y-7862819D01*
X11622302Y-7886597D01*
X11457552Y-7940128D01*
X11303211Y-8018768D01*
X11226939Y-8074184D01*
X11163072Y-8120586D01*
X11163070Y-8120588D01*
X11163069Y-8120588D01*
X11040588Y-8243069D01*
X11040588Y-8243070D01*
X11040586Y-8243072D01*
X11018250Y-8273815D01*
X10938768Y-8383211D01*
X10860128Y-8537552D01*
X10806597Y-8702302D01*
X10779500Y-8873389D01*
X10440500Y-8873389D01*
X10413402Y-8702299D01*
X10359873Y-8537555D01*
X10281232Y-8383212D01*
X10179414Y-8243072D01*
X10056928Y-8120586D01*
X9916788Y-8018768D01*
X9762445Y-7940127D01*
X9597701Y-7886598D01*
X9597699Y-7886597D01*
X9597698Y-7886597D01*
X9447566Y-7862819D01*
X9426611Y-7859500D01*
X9253389Y-7859500D01*
X9232434Y-7862819D01*
X9082302Y-7886597D01*
X8917552Y-7940128D01*
X8763211Y-8018768D01*
X8686939Y-8074184D01*
X8623072Y-8120586D01*
X8623070Y-8120588D01*
X8623069Y-8120588D01*
X8500588Y-8243069D01*
X8500588Y-8243070D01*
X8500586Y-8243072D01*
X8478250Y-8273815D01*
X8398768Y-8383211D01*
X8320128Y-8537552D01*
X8266597Y-8702302D01*
X8239500Y-8873389D01*
X400500Y-8873389D01*
X400500Y-3385921D01*
X1759500Y-3385921D01*
X1759500Y-3614078D01*
X1789278Y-3840272D01*
X1789279Y-3840277D01*
X1789280Y-3840283D01*
X1789936Y-3842731D01*
X1848331Y-4060666D01*
X1935638Y-4271446D01*
X1935646Y-4271462D01*
X2049717Y-4469037D01*
X2049728Y-4469053D01*
X2188613Y-4650052D01*
X2188619Y-4650059D01*
X2349940Y-4811380D01*
X2349946Y-4811385D01*
X2530955Y-4950278D01*
X2530962Y-4950282D01*
X2728537Y-5064353D01*
X2728553Y-5064361D01*
X2842268Y-5111463D01*
X2939334Y-5151669D01*
X3159717Y-5210720D01*
X3294498Y-5228464D01*
X3385921Y-5240500D01*
X3385922Y-5240500D01*
X3614079Y-5240500D01*
X3672126Y-5232858D01*
X3840283Y-5210720D01*
X4060666Y-5151669D01*
X4226365Y-5083033D01*
X4271446Y-5064361D01*
X4271449Y-5064359D01*
X4271455Y-5064357D01*
X4469045Y-4950278D01*
X4650054Y-4811385D01*
X4811385Y-4650054D01*
X4950278Y-4469045D01*
X5064357Y-4271455D01*
X5067917Y-4262862D01*
X5115138Y-4148859D01*
X5151669Y-4060666D01*
X5210720Y-3840283D01*
X5240500Y-3614078D01*
X5240500Y-3385922D01*
X5210720Y-3159717D01*
X5151669Y-2939334D01*
X5110246Y-2839330D01*
X5064361Y-2728553D01*
X5064353Y-2728537D01*
X4950282Y-2530962D01*
X4950278Y-2530955D01*
X4811385Y-2349946D01*
X4811380Y-2349940D01*
X4650059Y-2188619D01*
X4650052Y-2188613D01*
X4469053Y-2049728D01*
X4469051Y-2049726D01*
X4469045Y-2049722D01*
X4469040Y-2049719D01*
X4469037Y-2049717D01*
X4271462Y-1935646D01*
X4271446Y-1935638D01*
X4060666Y-1848331D01*
X3840283Y-1789280D01*
X3840277Y-1789279D01*
X3840272Y-1789278D01*
X3614079Y-1759500D01*
X3614078Y-1759500D01*
X3385922Y-1759500D01*
X3385921Y-1759500D01*
X3159727Y-1789278D01*
X3159720Y-1789279D01*
X3159717Y-1789280D01*
X3066567Y-1814239D01*
X2939333Y-1848331D01*
X2728553Y-1935638D01*
X2728537Y-1935646D01*
X2530962Y-2049717D01*
X2530946Y-2049728D01*
X2349947Y-2188613D01*
X2349940Y-2188619D01*
X2188619Y-2349940D01*
X2188613Y-2349947D01*
X2049728Y-2530946D01*
X2049717Y-2530962D01*
X1935646Y-2728537D01*
X1935638Y-2728553D01*
X1848331Y-2939333D01*
X1789281Y-3159714D01*
X1789278Y-3159727D01*
X1759500Y-3385921D01*
X400500Y-3385921D01*
X400500Y-524500D01*
X420185Y-457461D01*
X472989Y-411706D01*
X524500Y-400500D01*
X64475500Y-400500D01*
X64542539Y-420185D01*
G37*
%TD.AperFunction*%
%TD*%
%TA.AperFunction,NonConductor*%
G36*
X46818925Y-2485185D02*
G01*
X46864680Y-2537989D01*
X46872250Y-2563102D01*
X46872841Y-2562961D01*
X46873978Y-2567697D01*
X46873979Y-2567701D01*
X46926243Y-2728553D01*
X46927509Y-2732447D01*
X46997960Y-2870716D01*
X47010856Y-2939386D01*
X46984579Y-3004126D01*
X46927473Y-3044383D01*
X46887475Y-3051011D01*
X36372737Y-3051011D01*
X36305698Y-3031326D01*
X36259943Y-2978522D01*
X36249999Y-2909364D01*
X36279024Y-2845808D01*
X36285056Y-2839330D01*
X36622567Y-2501819D01*
X36683890Y-2468334D01*
X36710248Y-2465500D01*
X46751886Y-2465500D01*
X46818925Y-2485185D01*
G37*
%TD.AperFunction*%
%TA.AperFunction,NonConductor*%
G36*
X48406240Y-5888024D02*
G01*
X48454936Y-5938129D01*
X48469267Y-5995998D01*
X48469267Y-6598211D01*
X48449582Y-6665250D01*
X48432948Y-6685892D01*
X48227382Y-6891457D01*
X48166059Y-6924942D01*
X48101803Y-6920346D01*
X48101364Y-6921699D01*
X48096731Y-6920193D01*
X48096730Y-6920193D01*
X47931986Y-6866664D01*
X47931984Y-6866663D01*
X47931983Y-6866663D01*
X47800556Y-6845847D01*
X47760896Y-6839566D01*
X47587674Y-6839566D01*
X47548013Y-6845847D01*
X47416587Y-6866663D01*
X47251837Y-6920194D01*
X47097496Y-6998834D01*
X47017541Y-7056925D01*
X46957357Y-7100652D01*
X46957355Y-7100654D01*
X46957354Y-7100654D01*
X46834873Y-7223135D01*
X46834873Y-7223136D01*
X46834871Y-7223138D01*
X46797554Y-7274500D01*
X46733053Y-7363277D01*
X46654413Y-7517618D01*
X46600882Y-7682368D01*
X46573785Y-7853455D01*
X46573785Y-8026676D01*
X46588138Y-8117302D01*
X46600883Y-8197767D01*
X46652672Y-8357157D01*
X46654413Y-8362513D01*
X46733053Y-8516854D01*
X46777198Y-8577614D01*
X46800678Y-8643421D01*
X46784853Y-8711475D01*
X46734747Y-8760170D01*
X46676880Y-8774500D01*
X44726022Y-8774500D01*
X44658983Y-8754815D01*
X44613228Y-8702011D01*
X44603284Y-8632853D01*
X44632309Y-8569297D01*
X44638341Y-8562819D01*
X45049307Y-8151853D01*
X47155317Y-6045840D01*
X47216638Y-6012357D01*
X47281311Y-6015591D01*
X47401165Y-6054535D01*
X47572255Y-6081633D01*
X47572256Y-6081633D01*
X47745476Y-6081633D01*
X47745477Y-6081633D01*
X47916567Y-6054535D01*
X48081311Y-6001006D01*
X48235654Y-5922365D01*
X48272382Y-5895680D01*
X48338186Y-5872200D01*
X48406240Y-5888024D01*
G37*
%TD.AperFunction*%
%TA.AperFunction,NonConductor*%
G36*
X33432611Y-10519213D02*
G01*
X33442146Y-10517843D01*
X33465677Y-10528589D01*
X33490564Y-10535646D01*
X33501509Y-10544953D01*
X33505702Y-10546868D01*
X33512599Y-10554383D01*
X33517451Y-10558509D01*
X33521351Y-10562926D01*
X33560586Y-10616928D01*
X33632742Y-10689084D01*
X33635292Y-10691972D01*
X33648534Y-10720267D01*
X33663506Y-10747686D01*
X33663222Y-10751652D01*
X33664908Y-10755254D01*
X33660750Y-10786211D01*
X33658522Y-10817378D01*
X33656138Y-10820562D01*
X33655609Y-10824502D01*
X33630022Y-10861725D01*
X33512178Y-10979568D01*
X33450858Y-11013052D01*
X33381166Y-11008068D01*
X33325232Y-10966197D01*
X33300815Y-10900733D01*
X33300499Y-10891886D01*
X33300499Y-10640581D01*
X33307787Y-10615759D01*
X33311230Y-10590123D01*
X33317470Y-10582784D01*
X33320184Y-10573542D01*
X33339733Y-10556602D01*
X33356491Y-10536895D01*
X33365708Y-10534094D01*
X33372988Y-10527787D01*
X33398590Y-10524105D01*
X33423344Y-10516586D01*
X33432611Y-10519213D01*
G37*
%TD.AperFunction*%
%TA.AperFunction,NonConductor*%
G36*
X49303834Y-10395979D02*
G01*
X49359767Y-10437851D01*
X49384184Y-10503315D01*
X49384500Y-10512161D01*
X49384500Y-12236885D01*
X49364815Y-12303924D01*
X49312011Y-12349679D01*
X49242853Y-12359623D01*
X49179297Y-12330598D01*
X49172819Y-12324566D01*
X48266326Y-11418073D01*
X48218326Y-11386001D01*
X48173521Y-11332389D01*
X48164814Y-11263064D01*
X48194968Y-11200036D01*
X48254412Y-11163317D01*
X48263026Y-11161282D01*
X48345257Y-11144925D01*
X48466370Y-11094758D01*
X48575370Y-11021928D01*
X48857884Y-10739414D01*
X49172819Y-10424480D01*
X49234142Y-10390995D01*
X49303834Y-10395979D01*
G37*
%TD.AperFunction*%
%TA.AperFunction,NonConductor*%
G36*
X44298884Y-10805185D02*
G01*
X44344639Y-10857989D01*
X44354583Y-10927147D01*
X44325558Y-10990703D01*
X44319526Y-10997181D01*
X43788979Y-11527726D01*
X43788978Y-11527727D01*
X43716144Y-11636733D01*
X43665978Y-11757844D01*
X43665976Y-11757852D01*
X43642607Y-11875334D01*
X43642606Y-11875342D01*
X43640821Y-11884319D01*
X43640403Y-11886418D01*
X43640403Y-11919991D01*
X43640252Y-11923051D01*
X43629732Y-11953277D01*
X43620718Y-11983976D01*
X43617778Y-11987623D01*
X43617286Y-11989039D01*
X43615527Y-11990416D01*
X43604084Y-12004618D01*
X43277943Y-12330759D01*
X43216620Y-12364244D01*
X43190262Y-12367078D01*
X37861557Y-12367078D01*
X37794518Y-12347393D01*
X37748763Y-12294589D01*
X37738819Y-12225431D01*
X37739084Y-12223680D01*
X37765095Y-12059457D01*
X37765929Y-12054189D01*
X37765929Y-11880967D01*
X37765868Y-11880584D01*
X37765887Y-11880436D01*
X37765547Y-11876114D01*
X37766455Y-11876042D01*
X37774821Y-11811294D01*
X37800657Y-11773507D01*
X38752347Y-10821819D01*
X38813670Y-10788334D01*
X38840028Y-10785500D01*
X44231845Y-10785500D01*
X44298884Y-10805185D01*
G37*
%TD.AperFunction*%
%TA.AperFunction,NonConductor*%
G36*
X32037320Y-16768685D02*
G01*
X32083075Y-16821489D01*
X32093019Y-16890647D01*
X32063994Y-16954203D01*
X32057975Y-16960667D01*
X32020543Y-16998100D01*
X31986035Y-17032608D01*
X31924711Y-17066092D01*
X31857199Y-17061262D01*
X31857079Y-17061633D01*
X31855584Y-17061147D01*
X31855020Y-17061107D01*
X31852928Y-17060284D01*
X31852445Y-17060127D01*
X31687701Y-17006598D01*
X31687699Y-17006597D01*
X31634051Y-16998100D01*
X31622665Y-16992702D01*
X31610094Y-16991801D01*
X31591689Y-16978017D01*
X31570916Y-16968170D01*
X31564255Y-16957472D01*
X31554169Y-16949919D01*
X31546137Y-16928374D01*
X31533986Y-16908858D01*
X31534165Y-16896258D01*
X31529764Y-16884450D01*
X31534655Y-16861984D01*
X31534984Y-16838995D01*
X31542303Y-16826859D01*
X31544629Y-16816179D01*
X31565779Y-16787936D01*
X31568415Y-16785300D01*
X31629743Y-16751829D01*
X31656078Y-16749000D01*
X31970281Y-16749000D01*
X32037320Y-16768685D01*
G37*
%TD.AperFunction*%
%TA.AperFunction,NonConductor*%
G36*
X37646361Y-16384428D02*
G01*
X37667003Y-16401062D01*
X38764443Y-17498502D01*
X38797928Y-17559825D01*
X38792944Y-17629517D01*
X38751072Y-17685450D01*
X38685608Y-17709867D01*
X38676762Y-17710183D01*
X37042497Y-17710183D01*
X36975458Y-17690498D01*
X36945457Y-17662167D01*
X36945115Y-17662460D01*
X36942394Y-17659275D01*
X36942185Y-17659077D01*
X36941953Y-17658758D01*
X36941948Y-17658752D01*
X36819467Y-17536271D01*
X36819465Y-17536269D01*
X36679325Y-17434451D01*
X36524982Y-17355810D01*
X36360238Y-17302281D01*
X36360232Y-17302279D01*
X36357978Y-17301738D01*
X36357212Y-17301298D01*
X36355605Y-17300776D01*
X36355714Y-17300438D01*
X36297391Y-17266939D01*
X36265236Y-17204908D01*
X36262942Y-17181168D01*
X36262942Y-16923743D01*
X36282627Y-16856704D01*
X36335431Y-16810949D01*
X36386942Y-16799743D01*
X36489957Y-16799743D01*
X36489958Y-16799743D01*
X36661048Y-16772645D01*
X36825792Y-16719116D01*
X36980135Y-16640475D01*
X37120275Y-16538657D01*
X37242761Y-16416171D01*
X37242995Y-16415849D01*
X37243113Y-16415757D01*
X37245925Y-16412466D01*
X37246616Y-16413056D01*
X37247323Y-16412511D01*
X37249594Y-16407540D01*
X37274698Y-16391406D01*
X37298329Y-16373188D01*
X37304994Y-16371936D01*
X37308372Y-16369766D01*
X37343307Y-16364743D01*
X37579322Y-16364743D01*
X37646361Y-16384428D01*
G37*
%TD.AperFunction*%
%TA.AperFunction,NonConductor*%
G36*
X46091778Y-15721895D02*
G01*
X46147711Y-15763767D01*
X46172128Y-15829231D01*
X46172444Y-15838077D01*
X46172444Y-16864664D01*
X46152759Y-16931703D01*
X46128984Y-16958947D01*
X46125903Y-16961578D01*
X46003409Y-17084073D01*
X45901592Y-17224211D01*
X45822952Y-17378552D01*
X45822951Y-17378554D01*
X45822951Y-17378555D01*
X45813968Y-17406201D01*
X45769421Y-17543302D01*
X45742324Y-17714389D01*
X45742324Y-17887610D01*
X45760163Y-18000246D01*
X45769422Y-18058701D01*
X45805056Y-18168371D01*
X45822953Y-18223450D01*
X45868839Y-18313508D01*
X45881735Y-18382177D01*
X45855458Y-18446917D01*
X45798351Y-18487174D01*
X45728546Y-18490166D01*
X45705345Y-18481512D01*
X45705339Y-18481528D01*
X45704902Y-18481347D01*
X45702060Y-18480287D01*
X45700835Y-18479663D01*
X45700832Y-18479662D01*
X45700830Y-18479661D01*
X45536086Y-18426132D01*
X45536084Y-18426131D01*
X45536083Y-18426131D01*
X45381645Y-18401671D01*
X45364996Y-18399034D01*
X45299123Y-18399034D01*
X45232084Y-18379349D01*
X45186329Y-18326545D01*
X45175123Y-18275034D01*
X45175123Y-16587398D01*
X45194808Y-16520359D01*
X45211442Y-16499717D01*
X45960763Y-15750396D01*
X46022086Y-15716911D01*
X46091778Y-15721895D01*
G37*
%TD.AperFunction*%
%TA.AperFunction,NonConductor*%
G36*
X44355226Y-15291990D02*
G01*
X44390879Y-15352079D01*
X44388386Y-15421904D01*
X44358412Y-15470427D01*
X43992699Y-15836139D01*
X43992698Y-15836140D01*
X43919864Y-15945146D01*
X43869698Y-16066257D01*
X43869696Y-16066265D01*
X43844219Y-16194348D01*
X43844124Y-16194814D01*
X43844123Y-16194830D01*
X43844123Y-16194831D01*
X43844123Y-19064076D01*
X43844123Y-19195170D01*
X43844123Y-19195172D01*
X43844122Y-19195172D01*
X43869696Y-19323736D01*
X43869698Y-19323742D01*
X43919865Y-19444855D01*
X43947286Y-19485894D01*
X43992698Y-19553859D01*
X44011480Y-19572641D01*
X44044965Y-19633964D01*
X44039981Y-19703656D01*
X43998109Y-19759589D01*
X43932645Y-19784006D01*
X43923799Y-19784322D01*
X42356460Y-19784322D01*
X42289421Y-19764637D01*
X42243666Y-19711833D01*
X42233722Y-19642675D01*
X42233987Y-19640924D01*
X42235090Y-19633964D01*
X42260832Y-19471433D01*
X42260832Y-19298211D01*
X42233734Y-19127121D01*
X42180205Y-18962377D01*
X42101564Y-18808034D01*
X41999746Y-18667894D01*
X41877260Y-18545408D01*
X41737120Y-18443590D01*
X41582782Y-18364951D01*
X41582779Y-18364950D01*
X41582777Y-18364949D01*
X41508034Y-18340663D01*
X41458675Y-18310414D01*
X38655442Y-15507181D01*
X38621957Y-15445858D01*
X38626941Y-15376166D01*
X38668813Y-15320233D01*
X38734277Y-15295816D01*
X38743123Y-15295500D01*
X44090508Y-15295500D01*
X44177003Y-15278294D01*
X44219078Y-15269925D01*
X44223279Y-15268184D01*
X44292746Y-15260716D01*
X44355226Y-15291990D01*
G37*
%TD.AperFunction*%
%TA.AperFunction,NonConductor*%
G36*
X51278441Y-20168790D02*
G01*
X51331894Y-20213785D01*
X51352534Y-20280537D01*
X51339033Y-20338601D01*
X51324737Y-20366659D01*
X51318678Y-20378553D01*
X51317537Y-20380792D01*
X51269564Y-20431589D01*
X51207051Y-20448500D01*
X50952044Y-20448500D01*
X50885005Y-20428815D01*
X50839250Y-20376011D01*
X50829306Y-20306853D01*
X50858331Y-20243297D01*
X50864360Y-20236821D01*
X50887395Y-20213785D01*
X50902499Y-20198680D01*
X50963820Y-20165195D01*
X51005073Y-20164017D01*
X51005109Y-20163567D01*
X51009301Y-20163897D01*
X51009583Y-20163889D01*
X51009962Y-20163949D01*
X51009966Y-20163949D01*
X51183182Y-20163949D01*
X51183184Y-20163949D01*
X51209150Y-20159836D01*
X51278441Y-20168790D01*
G37*
%TD.AperFunction*%
%TA.AperFunction,NonConductor*%
G36*
X27608685Y-19965911D02*
G01*
X27610094Y-19965532D01*
X27642098Y-19975722D01*
X27674325Y-19985185D01*
X27675279Y-19986287D01*
X27676671Y-19986730D01*
X27698103Y-20012626D01*
X27720080Y-20037989D01*
X27720431Y-20039606D01*
X27721218Y-20040556D01*
X27730392Y-20074637D01*
X27731286Y-20082041D01*
X27731286Y-20135611D01*
X27758384Y-20306701D01*
X27758424Y-20306826D01*
X27758764Y-20309637D01*
X27753370Y-20341941D01*
X27749176Y-20374395D01*
X27747648Y-20376209D01*
X27747257Y-20378553D01*
X27725248Y-20402818D01*
X27704180Y-20427847D01*
X27701913Y-20428547D01*
X27700318Y-20430307D01*
X27654857Y-20443097D01*
X27637429Y-20448487D01*
X27636561Y-20448245D01*
X27635658Y-20448500D01*
X27342464Y-20448500D01*
X27275425Y-20428815D01*
X27229670Y-20376011D01*
X27219991Y-20343898D01*
X27213402Y-20302302D01*
X27213402Y-20302299D01*
X27159873Y-20137555D01*
X27159871Y-20137552D01*
X27159871Y-20137550D01*
X27159618Y-20136939D01*
X27159591Y-20136688D01*
X27158367Y-20132921D01*
X27159158Y-20132663D01*
X27152158Y-20067468D01*
X27183440Y-20004993D01*
X27243534Y-19969348D01*
X27274185Y-19965500D01*
X27607286Y-19965500D01*
X27608685Y-19965911D01*
G37*
%TD.AperFunction*%
%TA.AperFunction,NonConductor*%
G36*
X54641539Y-17195185D02*
G01*
X54687294Y-17247989D01*
X54698500Y-17299500D01*
X54698500Y-21252576D01*
X54678815Y-21319615D01*
X54626011Y-21365370D01*
X54556853Y-21375314D01*
X54518211Y-21363064D01*
X54512449Y-21360128D01*
X54419155Y-21329815D01*
X54347701Y-21306598D01*
X54347699Y-21306597D01*
X54347698Y-21306597D01*
X54216271Y-21285781D01*
X54176611Y-21279500D01*
X54003389Y-21279500D01*
X53963728Y-21285781D01*
X53832302Y-21306597D01*
X53667552Y-21360128D01*
X53513204Y-21438772D01*
X53510462Y-21440764D01*
X53509245Y-21441197D01*
X53509056Y-21441314D01*
X53509031Y-21441274D01*
X53444654Y-21464237D01*
X53376601Y-21448405D01*
X53327911Y-21398295D01*
X53314043Y-21329815D01*
X53321969Y-21297324D01*
X53321682Y-21297231D01*
X53322925Y-21293402D01*
X53323030Y-21292976D01*
X53323181Y-21292610D01*
X53323188Y-21292597D01*
X53376717Y-21127853D01*
X53403815Y-20956763D01*
X53403815Y-20783541D01*
X53376717Y-20612451D01*
X53323188Y-20447707D01*
X53244547Y-20293364D01*
X53142729Y-20153224D01*
X53020243Y-20030738D01*
X52880103Y-19928920D01*
X52725760Y-19850279D01*
X52561016Y-19796750D01*
X52561014Y-19796749D01*
X52561013Y-19796749D01*
X52415894Y-19773765D01*
X52389926Y-19769652D01*
X52216704Y-19769652D01*
X52194733Y-19773131D01*
X52190735Y-19773765D01*
X52121442Y-19764808D01*
X52067991Y-19719811D01*
X52047353Y-19653059D01*
X52060855Y-19594997D01*
X52116446Y-19485894D01*
X52169975Y-19321150D01*
X52197073Y-19150060D01*
X52197073Y-18976838D01*
X52169975Y-18805748D01*
X52130833Y-18685285D01*
X52128839Y-18615445D01*
X52164919Y-18555612D01*
X52227620Y-18524784D01*
X52297034Y-18532749D01*
X52305038Y-18536473D01*
X52419656Y-18594873D01*
X52584400Y-18648402D01*
X52755490Y-18675500D01*
X52755491Y-18675500D01*
X52928711Y-18675500D01*
X52928712Y-18675500D01*
X53099802Y-18648402D01*
X53264546Y-18594873D01*
X53418889Y-18516232D01*
X53559029Y-18414414D01*
X53681515Y-18291928D01*
X53783333Y-18151788D01*
X53861974Y-17997445D01*
X53915503Y-17832701D01*
X53942601Y-17661611D01*
X53942601Y-17488389D01*
X53915756Y-17318897D01*
X53924711Y-17249605D01*
X53969707Y-17196153D01*
X54036458Y-17175513D01*
X54038229Y-17175500D01*
X54574500Y-17175500D01*
X54641539Y-17195185D01*
G37*
%TD.AperFunction*%
%TA.AperFunction,NonConductor*%
G36*
X37784192Y-21801956D02*
G01*
X37829947Y-21854760D01*
X37839891Y-21923918D01*
X37831715Y-21953721D01*
X37830128Y-21957551D01*
X37776597Y-22122302D01*
X37758177Y-22238606D01*
X37749500Y-22293389D01*
X37749500Y-23866611D01*
X37776598Y-24037701D01*
X37830127Y-24202445D01*
X37908768Y-24356788D01*
X38010586Y-24496928D01*
X38010588Y-24496930D01*
X38133072Y-24619414D01*
X38174733Y-24649683D01*
X38217398Y-24705013D01*
X38223376Y-24774627D01*
X38190769Y-24836421D01*
X38174733Y-24850317D01*
X38133072Y-24880585D01*
X38010588Y-25003069D01*
X38010588Y-25003070D01*
X38010586Y-25003072D01*
X37966859Y-25063256D01*
X37908768Y-25143211D01*
X37830128Y-25297552D01*
X37776597Y-25462302D01*
X37749500Y-25633389D01*
X37749500Y-27120500D01*
X37748213Y-27124882D01*
X37749184Y-27129345D01*
X37738458Y-27158101D01*
X37729815Y-27187539D01*
X37726364Y-27190528D01*
X37724768Y-27194810D01*
X37700192Y-27213207D01*
X37677011Y-27233294D01*
X37671470Y-27234708D01*
X37668834Y-27236682D01*
X37651452Y-27239817D01*
X37634347Y-27244184D01*
X37629929Y-27244500D01*
X37585357Y-27244500D01*
X37548651Y-27250313D01*
X37543347Y-27250693D01*
X37514189Y-27244350D01*
X37484602Y-27240526D01*
X37480419Y-27237004D01*
X37475074Y-27235842D01*
X37453972Y-27214741D01*
X37431151Y-27195529D01*
X37429535Y-27190304D01*
X37425668Y-27186437D01*
X37419324Y-27157278D01*
X37410513Y-27128777D01*
X37410500Y-27127009D01*
X37410500Y-25633389D01*
X37392541Y-25520000D01*
X37383402Y-25462299D01*
X37329873Y-25297555D01*
X37251232Y-25143212D01*
X37149414Y-25003072D01*
X37026928Y-24880586D01*
X36985265Y-24850316D01*
X36942602Y-24794988D01*
X36936623Y-24725374D01*
X36969229Y-24663579D01*
X36985266Y-24649683D01*
X37026928Y-24619414D01*
X37149414Y-24496928D01*
X37251232Y-24356788D01*
X37329873Y-24202445D01*
X37383402Y-24037701D01*
X37410500Y-23866611D01*
X37410500Y-22293389D01*
X37383402Y-22122299D01*
X37329873Y-21957555D01*
X37329871Y-21957551D01*
X37328285Y-21953721D01*
X37320818Y-21884252D01*
X37352094Y-21821773D01*
X37412184Y-21786122D01*
X37442847Y-21782271D01*
X37717153Y-21782271D01*
X37784192Y-21801956D01*
G37*
%TD.AperFunction*%
%TA.AperFunction,NonConductor*%
G36*
X50485540Y-21799185D02*
G01*
X50531295Y-21851989D01*
X50541239Y-21921147D01*
X50531223Y-21952726D01*
X50531994Y-21953046D01*
X50530129Y-21957547D01*
X50476597Y-22122302D01*
X50458177Y-22238606D01*
X50449500Y-22293389D01*
X50449500Y-23866611D01*
X50476598Y-24037701D01*
X50530127Y-24202445D01*
X50608768Y-24356788D01*
X50710586Y-24496928D01*
X50710588Y-24496930D01*
X50833072Y-24619414D01*
X50874733Y-24649683D01*
X50917398Y-24705013D01*
X50923376Y-24774627D01*
X50890769Y-24836421D01*
X50874733Y-24850317D01*
X50833072Y-24880585D01*
X50710588Y-25003069D01*
X50710588Y-25003070D01*
X50710586Y-25003072D01*
X50666859Y-25063256D01*
X50608768Y-25143211D01*
X50530128Y-25297552D01*
X50476597Y-25462302D01*
X50449500Y-25633389D01*
X50449500Y-27144177D01*
X50444233Y-27162114D01*
X50443966Y-27180807D01*
X50434593Y-27194943D01*
X50429815Y-27211216D01*
X50415687Y-27223457D01*
X50405356Y-27239040D01*
X50389827Y-27245865D01*
X50377011Y-27256971D01*
X50358507Y-27259631D01*
X50341393Y-27267154D01*
X50309371Y-27266696D01*
X50307853Y-27266915D01*
X50306102Y-27266650D01*
X50215102Y-27252237D01*
X50151967Y-27222308D01*
X50115036Y-27162996D01*
X50110500Y-27129764D01*
X50110500Y-25633389D01*
X50092541Y-25520000D01*
X50083402Y-25462299D01*
X50029873Y-25297555D01*
X49951232Y-25143212D01*
X49849414Y-25003072D01*
X49726928Y-24880586D01*
X49685265Y-24850316D01*
X49642602Y-24794988D01*
X49636623Y-24725374D01*
X49669229Y-24663579D01*
X49685266Y-24649683D01*
X49726928Y-24619414D01*
X49849414Y-24496928D01*
X49951232Y-24356788D01*
X50029873Y-24202445D01*
X50083402Y-24037701D01*
X50110500Y-23866611D01*
X50110500Y-22293389D01*
X50083402Y-22122299D01*
X50029873Y-21957555D01*
X50029871Y-21957552D01*
X50029870Y-21957547D01*
X50028006Y-21953046D01*
X50029626Y-21952374D01*
X50018116Y-21891148D01*
X50044380Y-21826403D01*
X50101479Y-21786136D01*
X50141499Y-21779500D01*
X50418501Y-21779500D01*
X50485540Y-21799185D01*
G37*
%TD.AperFunction*%
%TA.AperFunction,NonConductor*%
G36*
X47909586Y-21906174D02*
G01*
X47955341Y-21958978D01*
X47965285Y-22028136D01*
X47960480Y-22048795D01*
X47936598Y-22122299D01*
X47936597Y-22122302D01*
X47936597Y-22122304D01*
X47918177Y-22238606D01*
X47909500Y-22293389D01*
X47909500Y-23866611D01*
X47936598Y-24037701D01*
X47990127Y-24202445D01*
X48068768Y-24356788D01*
X48170586Y-24496928D01*
X48170588Y-24496930D01*
X48293072Y-24619414D01*
X48334733Y-24649683D01*
X48377398Y-24705013D01*
X48383376Y-24774627D01*
X48350769Y-24836421D01*
X48334733Y-24850317D01*
X48293072Y-24880585D01*
X48170588Y-25003069D01*
X48170588Y-25003070D01*
X48170586Y-25003072D01*
X48126859Y-25063256D01*
X48068768Y-25143211D01*
X47990128Y-25297552D01*
X47936597Y-25462302D01*
X47931694Y-25493259D01*
X47909500Y-25633389D01*
X47909500Y-27206611D01*
X47936598Y-27377701D01*
X47989079Y-27539221D01*
X47990128Y-27542447D01*
X48049034Y-27658057D01*
X48061930Y-27726726D01*
X48035654Y-27791467D01*
X47978547Y-27831724D01*
X47938549Y-27838352D01*
X47541451Y-27838352D01*
X47474412Y-27818667D01*
X47428657Y-27765863D01*
X47418713Y-27696705D01*
X47430966Y-27658057D01*
X47455862Y-27609195D01*
X47489873Y-27542445D01*
X47543402Y-27377701D01*
X47570500Y-27206611D01*
X47570500Y-25633389D01*
X47543402Y-25462299D01*
X47489873Y-25297555D01*
X47411232Y-25143212D01*
X47309414Y-25003072D01*
X47186928Y-24880586D01*
X47145265Y-24850316D01*
X47102602Y-24794988D01*
X47096623Y-24725374D01*
X47129229Y-24663579D01*
X47145266Y-24649683D01*
X47186928Y-24619414D01*
X47309414Y-24496928D01*
X47411232Y-24356788D01*
X47489873Y-24202445D01*
X47543402Y-24037701D01*
X47570500Y-23866611D01*
X47570500Y-22293389D01*
X47543402Y-22122299D01*
X47519521Y-22048804D01*
X47518718Y-22020686D01*
X47514715Y-21992842D01*
X47517734Y-21986230D01*
X47517527Y-21978967D01*
X47532051Y-21954880D01*
X47543740Y-21929286D01*
X47549854Y-21925356D01*
X47553607Y-21919134D01*
X47578850Y-21906721D01*
X47602518Y-21891512D01*
X47612787Y-21890035D01*
X47616307Y-21888305D01*
X47637453Y-21886489D01*
X47842547Y-21886489D01*
X47909586Y-21906174D01*
G37*
%TD.AperFunction*%
%TA.AperFunction,NonConductor*%
G36*
X45268050Y-22135766D02*
G01*
X45286742Y-22136034D01*
X45300878Y-22145406D01*
X45317152Y-22150185D01*
X45329393Y-22164312D01*
X45344975Y-22174643D01*
X45351800Y-22190171D01*
X45362907Y-22202989D01*
X45365567Y-22221491D01*
X45373090Y-22238606D01*
X45372633Y-22270634D01*
X45372851Y-22272147D01*
X45372587Y-22273897D01*
X45369500Y-22293389D01*
X45369500Y-23866611D01*
X45396598Y-24037701D01*
X45450127Y-24202445D01*
X45528768Y-24356788D01*
X45630586Y-24496928D01*
X45630588Y-24496930D01*
X45753072Y-24619414D01*
X45794733Y-24649683D01*
X45837398Y-24705013D01*
X45843376Y-24774627D01*
X45810769Y-24836421D01*
X45794733Y-24850317D01*
X45753072Y-24880585D01*
X45630588Y-25003069D01*
X45630588Y-25003070D01*
X45630586Y-25003072D01*
X45586859Y-25063256D01*
X45528768Y-25143211D01*
X45450128Y-25297552D01*
X45396597Y-25462302D01*
X45391694Y-25493259D01*
X45369500Y-25633389D01*
X45369500Y-27206611D01*
X45396598Y-27377701D01*
X45449079Y-27539221D01*
X45450128Y-27542447D01*
X45509034Y-27658057D01*
X45521930Y-27726726D01*
X45495654Y-27791467D01*
X45438547Y-27831724D01*
X45398549Y-27838352D01*
X45001451Y-27838352D01*
X44934412Y-27818667D01*
X44888657Y-27765863D01*
X44878713Y-27696705D01*
X44890966Y-27658057D01*
X44915862Y-27609195D01*
X44949873Y-27542445D01*
X45003402Y-27377701D01*
X45030500Y-27206611D01*
X45030500Y-25633389D01*
X45003402Y-25462299D01*
X44949873Y-25297555D01*
X44871232Y-25143212D01*
X44769414Y-25003072D01*
X44646928Y-24880586D01*
X44605265Y-24850316D01*
X44562602Y-24794988D01*
X44556623Y-24725374D01*
X44589229Y-24663579D01*
X44605266Y-24649683D01*
X44646928Y-24619414D01*
X44769414Y-24496928D01*
X44871232Y-24356788D01*
X44949873Y-24202445D01*
X45003402Y-24037701D01*
X45030500Y-23866611D01*
X45030500Y-22293389D01*
X45027413Y-22273897D01*
X45036369Y-22204603D01*
X45081366Y-22151152D01*
X45148117Y-22130513D01*
X45149887Y-22130500D01*
X45250113Y-22130500D01*
X45268050Y-22135766D01*
G37*
%TD.AperFunction*%
%TA.AperFunction,NonConductor*%
G36*
X42865540Y-21799185D02*
G01*
X42911295Y-21851989D01*
X42921239Y-21921147D01*
X42911223Y-21952726D01*
X42911994Y-21953046D01*
X42910129Y-21957547D01*
X42856597Y-22122302D01*
X42838177Y-22238606D01*
X42829500Y-22293389D01*
X42829500Y-23866611D01*
X42856598Y-24037701D01*
X42910127Y-24202445D01*
X42988768Y-24356788D01*
X43090586Y-24496928D01*
X43090588Y-24496930D01*
X43213072Y-24619414D01*
X43254733Y-24649683D01*
X43297398Y-24705013D01*
X43303376Y-24774627D01*
X43270769Y-24836421D01*
X43254733Y-24850317D01*
X43213072Y-24880585D01*
X43090588Y-25003069D01*
X43090588Y-25003070D01*
X43090586Y-25003072D01*
X43046859Y-25063256D01*
X42988768Y-25143211D01*
X42910128Y-25297552D01*
X42856597Y-25462302D01*
X42851694Y-25493259D01*
X42829500Y-25633389D01*
X42829500Y-27206611D01*
X42856598Y-27377701D01*
X42909079Y-27539221D01*
X42910128Y-27542447D01*
X42969034Y-27658057D01*
X42981930Y-27726726D01*
X42955654Y-27791467D01*
X42898547Y-27831724D01*
X42858549Y-27838352D01*
X42461451Y-27838352D01*
X42394412Y-27818667D01*
X42348657Y-27765863D01*
X42338713Y-27696705D01*
X42350966Y-27658057D01*
X42375862Y-27609195D01*
X42409873Y-27542445D01*
X42463402Y-27377701D01*
X42490500Y-27206611D01*
X42490500Y-25633389D01*
X42463402Y-25462299D01*
X42409873Y-25297555D01*
X42331232Y-25143212D01*
X42229414Y-25003072D01*
X42106928Y-24880586D01*
X42065265Y-24850316D01*
X42022602Y-24794988D01*
X42016623Y-24725374D01*
X42049229Y-24663579D01*
X42065266Y-24649683D01*
X42106928Y-24619414D01*
X42229414Y-24496928D01*
X42331232Y-24356788D01*
X42409873Y-24202445D01*
X42463402Y-24037701D01*
X42490500Y-23866611D01*
X42490500Y-22293389D01*
X42463402Y-22122299D01*
X42409873Y-21957555D01*
X42409871Y-21957552D01*
X42409870Y-21957547D01*
X42408006Y-21953046D01*
X42409626Y-21952374D01*
X42398116Y-21891148D01*
X42424380Y-21826403D01*
X42481479Y-21786136D01*
X42521499Y-21779500D01*
X42798501Y-21779500D01*
X42865540Y-21799185D01*
G37*
%TD.AperFunction*%
%TA.AperFunction,NonConductor*%
G36*
X40325540Y-21799185D02*
G01*
X40371295Y-21851989D01*
X40381239Y-21921147D01*
X40371223Y-21952726D01*
X40371994Y-21953046D01*
X40370129Y-21957547D01*
X40316597Y-22122302D01*
X40298177Y-22238606D01*
X40289500Y-22293389D01*
X40289500Y-23866611D01*
X40316598Y-24037701D01*
X40370127Y-24202445D01*
X40448768Y-24356788D01*
X40550586Y-24496928D01*
X40550588Y-24496930D01*
X40673072Y-24619414D01*
X40714733Y-24649683D01*
X40757398Y-24705013D01*
X40763376Y-24774627D01*
X40730769Y-24836421D01*
X40714733Y-24850317D01*
X40673072Y-24880585D01*
X40550588Y-25003069D01*
X40550588Y-25003070D01*
X40550586Y-25003072D01*
X40506859Y-25063256D01*
X40448768Y-25143211D01*
X40370128Y-25297552D01*
X40316597Y-25462302D01*
X40311694Y-25493259D01*
X40289500Y-25633389D01*
X40289500Y-27206611D01*
X40316598Y-27377701D01*
X40369079Y-27539221D01*
X40370128Y-27542447D01*
X40429034Y-27658057D01*
X40441930Y-27726726D01*
X40415654Y-27791467D01*
X40358547Y-27831724D01*
X40318549Y-27838352D01*
X39921451Y-27838352D01*
X39854412Y-27818667D01*
X39808657Y-27765863D01*
X39798713Y-27696705D01*
X39810966Y-27658057D01*
X39835862Y-27609195D01*
X39869873Y-27542445D01*
X39923402Y-27377701D01*
X39950500Y-27206611D01*
X39950500Y-25633389D01*
X39923402Y-25462299D01*
X39869873Y-25297555D01*
X39791232Y-25143212D01*
X39689414Y-25003072D01*
X39566928Y-24880586D01*
X39525265Y-24850316D01*
X39482602Y-24794988D01*
X39476623Y-24725374D01*
X39509229Y-24663579D01*
X39525266Y-24649683D01*
X39566928Y-24619414D01*
X39689414Y-24496928D01*
X39791232Y-24356788D01*
X39869873Y-24202445D01*
X39923402Y-24037701D01*
X39950500Y-23866611D01*
X39950500Y-22293389D01*
X39923402Y-22122299D01*
X39869873Y-21957555D01*
X39869871Y-21957552D01*
X39869870Y-21957547D01*
X39868006Y-21953046D01*
X39869626Y-21952374D01*
X39858116Y-21891148D01*
X39884380Y-21826403D01*
X39941479Y-21786136D01*
X39981499Y-21779500D01*
X40258501Y-21779500D01*
X40325540Y-21799185D01*
G37*
%TD.AperFunction*%
%TA.AperFunction,NonConductor*%
G36*
X53016695Y-21801735D02*
G01*
X53065393Y-21851838D01*
X53079273Y-21920315D01*
X53071348Y-21952828D01*
X53071633Y-21952921D01*
X53070403Y-21956705D01*
X53070296Y-21957146D01*
X53070129Y-21957547D01*
X53016597Y-22122302D01*
X52998177Y-22238606D01*
X52989500Y-22293389D01*
X52989500Y-23866611D01*
X53016598Y-24037701D01*
X53070127Y-24202445D01*
X53148768Y-24356788D01*
X53250586Y-24496928D01*
X53250588Y-24496930D01*
X53373072Y-24619414D01*
X53414733Y-24649683D01*
X53457398Y-24705013D01*
X53463376Y-24774627D01*
X53430769Y-24836421D01*
X53414733Y-24850317D01*
X53373072Y-24880585D01*
X53250588Y-25003069D01*
X53250588Y-25003070D01*
X53250586Y-25003072D01*
X53206859Y-25063256D01*
X53148768Y-25143211D01*
X53070128Y-25297552D01*
X53016597Y-25462302D01*
X53011694Y-25493259D01*
X52989500Y-25633389D01*
X52989500Y-27206611D01*
X53016598Y-27377701D01*
X53070127Y-27542445D01*
X53148768Y-27696788D01*
X53237285Y-27818621D01*
X53260765Y-27884426D01*
X53244940Y-27952480D01*
X53194834Y-28001175D01*
X53126356Y-28015051D01*
X53098651Y-28009437D01*
X53012971Y-27981598D01*
X53012969Y-27981597D01*
X53012968Y-27981597D01*
X52872888Y-27959411D01*
X52841881Y-27954500D01*
X52668659Y-27954500D01*
X52552248Y-27972937D01*
X52482955Y-27963982D01*
X52429503Y-27918986D01*
X52408864Y-27852234D01*
X52427589Y-27784920D01*
X52432519Y-27777598D01*
X52491232Y-27696788D01*
X52569873Y-27542445D01*
X52623402Y-27377701D01*
X52650500Y-27206611D01*
X52650500Y-25633389D01*
X52623402Y-25462299D01*
X52569873Y-25297555D01*
X52491232Y-25143212D01*
X52389414Y-25003072D01*
X52266928Y-24880586D01*
X52225265Y-24850316D01*
X52182602Y-24794988D01*
X52176623Y-24725374D01*
X52209229Y-24663579D01*
X52225266Y-24649683D01*
X52266928Y-24619414D01*
X52389414Y-24496928D01*
X52491232Y-24356788D01*
X52569873Y-24202445D01*
X52623402Y-24037701D01*
X52650500Y-23866611D01*
X52650500Y-22293389D01*
X52623402Y-22122299D01*
X52603229Y-22060216D01*
X52601235Y-21990377D01*
X52637315Y-21930544D01*
X52682841Y-21903969D01*
X52725760Y-21890025D01*
X52880103Y-21811384D01*
X52882835Y-21809398D01*
X52884052Y-21808964D01*
X52884259Y-21808838D01*
X52884285Y-21808881D01*
X52948640Y-21785915D01*
X53016695Y-21801735D01*
G37*
%TD.AperFunction*%
%TA.AperFunction,NonConductor*%
G36*
X35275601Y-21740185D02*
G01*
X35321356Y-21792989D01*
X35331300Y-21862147D01*
X35319047Y-21900794D01*
X35290129Y-21957549D01*
X35290127Y-21957554D01*
X35290127Y-21957555D01*
X35269614Y-22020686D01*
X35236597Y-22122302D01*
X35218177Y-22238606D01*
X35209500Y-22293389D01*
X35209500Y-23866611D01*
X35236598Y-24037701D01*
X35290127Y-24202445D01*
X35368768Y-24356788D01*
X35470586Y-24496928D01*
X35470588Y-24496930D01*
X35593072Y-24619414D01*
X35634733Y-24649683D01*
X35677398Y-24705013D01*
X35683376Y-24774627D01*
X35650769Y-24836421D01*
X35634733Y-24850317D01*
X35593072Y-24880585D01*
X35470588Y-25003069D01*
X35470588Y-25003070D01*
X35470586Y-25003072D01*
X35426859Y-25063256D01*
X35368768Y-25143211D01*
X35290128Y-25297552D01*
X35236597Y-25462302D01*
X35231694Y-25493259D01*
X35209500Y-25633389D01*
X35209500Y-27206611D01*
X35236598Y-27377701D01*
X35290127Y-27542445D01*
X35368768Y-27696788D01*
X35470586Y-27836928D01*
X35470588Y-27836930D01*
X35523836Y-27890178D01*
X35557321Y-27951501D01*
X35552337Y-28021193D01*
X35510465Y-28077126D01*
X35445001Y-28101543D01*
X35436155Y-28101859D01*
X34643845Y-28101859D01*
X34576806Y-28082174D01*
X34531051Y-28029370D01*
X34521107Y-27960212D01*
X34550132Y-27896656D01*
X34556164Y-27890178D01*
X34574867Y-27871475D01*
X34609414Y-27836928D01*
X34711232Y-27696788D01*
X34789873Y-27542445D01*
X34843402Y-27377701D01*
X34870500Y-27206611D01*
X34870500Y-25633389D01*
X34843402Y-25462299D01*
X34789873Y-25297555D01*
X34711232Y-25143212D01*
X34609414Y-25003072D01*
X34486928Y-24880586D01*
X34445265Y-24850316D01*
X34402602Y-24794988D01*
X34396623Y-24725374D01*
X34429229Y-24663579D01*
X34445266Y-24649683D01*
X34486928Y-24619414D01*
X34609414Y-24496928D01*
X34711232Y-24356788D01*
X34789873Y-24202445D01*
X34843402Y-24037701D01*
X34870500Y-23866611D01*
X34870500Y-22293389D01*
X34843402Y-22122299D01*
X34789873Y-21957555D01*
X34788510Y-21954880D01*
X34760953Y-21900794D01*
X34748057Y-21832125D01*
X34774334Y-21767385D01*
X34831441Y-21727128D01*
X34871438Y-21720500D01*
X35208562Y-21720500D01*
X35275601Y-21740185D01*
G37*
%TD.AperFunction*%
%TA.AperFunction,NonConductor*%
G36*
X32735601Y-21740185D02*
G01*
X32781356Y-21792989D01*
X32791300Y-21862147D01*
X32779047Y-21900794D01*
X32750129Y-21957549D01*
X32750127Y-21957554D01*
X32750127Y-21957555D01*
X32729614Y-22020686D01*
X32696597Y-22122302D01*
X32678177Y-22238606D01*
X32669500Y-22293389D01*
X32669500Y-23866611D01*
X32696598Y-24037701D01*
X32750127Y-24202445D01*
X32828768Y-24356788D01*
X32930586Y-24496928D01*
X32930588Y-24496930D01*
X33053072Y-24619414D01*
X33094733Y-24649683D01*
X33137398Y-24705013D01*
X33143376Y-24774627D01*
X33110769Y-24836421D01*
X33094733Y-24850317D01*
X33053072Y-24880585D01*
X32930588Y-25003069D01*
X32930588Y-25003070D01*
X32930586Y-25003072D01*
X32886859Y-25063256D01*
X32828768Y-25143211D01*
X32750128Y-25297552D01*
X32696597Y-25462302D01*
X32691694Y-25493259D01*
X32669500Y-25633389D01*
X32669500Y-27206611D01*
X32696598Y-27377701D01*
X32750127Y-27542445D01*
X32828768Y-27696788D01*
X32930586Y-27836928D01*
X32930588Y-27836930D01*
X32983836Y-27890178D01*
X33017321Y-27951501D01*
X33012337Y-28021193D01*
X32970465Y-28077126D01*
X32905001Y-28101543D01*
X32896155Y-28101859D01*
X32103845Y-28101859D01*
X32036806Y-28082174D01*
X31991051Y-28029370D01*
X31981107Y-27960212D01*
X32010132Y-27896656D01*
X32016164Y-27890178D01*
X32034867Y-27871475D01*
X32069414Y-27836928D01*
X32171232Y-27696788D01*
X32249873Y-27542445D01*
X32303402Y-27377701D01*
X32330500Y-27206611D01*
X32330500Y-25633389D01*
X32303402Y-25462299D01*
X32249873Y-25297555D01*
X32171232Y-25143212D01*
X32069414Y-25003072D01*
X31946928Y-24880586D01*
X31905265Y-24850316D01*
X31862602Y-24794988D01*
X31856623Y-24725374D01*
X31889229Y-24663579D01*
X31905266Y-24649683D01*
X31946928Y-24619414D01*
X32069414Y-24496928D01*
X32171232Y-24356788D01*
X32249873Y-24202445D01*
X32303402Y-24037701D01*
X32330500Y-23866611D01*
X32330500Y-22293389D01*
X32303402Y-22122299D01*
X32249873Y-21957555D01*
X32248510Y-21954880D01*
X32220953Y-21900794D01*
X32208057Y-21832125D01*
X32234334Y-21767385D01*
X32291441Y-21727128D01*
X32331438Y-21720500D01*
X32668562Y-21720500D01*
X32735601Y-21740185D01*
G37*
%TD.AperFunction*%
%TA.AperFunction,NonConductor*%
G36*
X30195601Y-21740185D02*
G01*
X30241356Y-21792989D01*
X30251300Y-21862147D01*
X30239047Y-21900794D01*
X30210129Y-21957549D01*
X30210127Y-21957554D01*
X30210127Y-21957555D01*
X30189614Y-22020686D01*
X30156597Y-22122302D01*
X30138177Y-22238606D01*
X30129500Y-22293389D01*
X30129500Y-23866611D01*
X30156598Y-24037701D01*
X30210127Y-24202445D01*
X30288768Y-24356788D01*
X30390586Y-24496928D01*
X30390588Y-24496930D01*
X30513072Y-24619414D01*
X30554733Y-24649683D01*
X30597398Y-24705013D01*
X30603376Y-24774627D01*
X30570769Y-24836421D01*
X30554733Y-24850317D01*
X30513072Y-24880585D01*
X30390588Y-25003069D01*
X30390588Y-25003070D01*
X30390586Y-25003072D01*
X30346859Y-25063256D01*
X30288768Y-25143211D01*
X30210128Y-25297552D01*
X30156597Y-25462302D01*
X30151694Y-25493259D01*
X30129500Y-25633389D01*
X30129500Y-27206611D01*
X30156598Y-27377701D01*
X30210127Y-27542445D01*
X30288768Y-27696788D01*
X30390586Y-27836928D01*
X30390588Y-27836930D01*
X30443836Y-27890178D01*
X30477321Y-27951501D01*
X30472337Y-28021193D01*
X30430465Y-28077126D01*
X30365001Y-28101543D01*
X30356155Y-28101859D01*
X29563845Y-28101859D01*
X29496806Y-28082174D01*
X29451051Y-28029370D01*
X29441107Y-27960212D01*
X29470132Y-27896656D01*
X29476164Y-27890178D01*
X29494867Y-27871475D01*
X29529414Y-27836928D01*
X29631232Y-27696788D01*
X29709873Y-27542445D01*
X29763402Y-27377701D01*
X29790500Y-27206611D01*
X29790500Y-25633389D01*
X29763402Y-25462299D01*
X29709873Y-25297555D01*
X29631232Y-25143212D01*
X29529414Y-25003072D01*
X29406928Y-24880586D01*
X29365265Y-24850316D01*
X29322602Y-24794988D01*
X29316623Y-24725374D01*
X29349229Y-24663579D01*
X29365266Y-24649683D01*
X29406928Y-24619414D01*
X29529414Y-24496928D01*
X29631232Y-24356788D01*
X29709873Y-24202445D01*
X29763402Y-24037701D01*
X29790500Y-23866611D01*
X29790500Y-22293389D01*
X29763402Y-22122299D01*
X29709873Y-21957555D01*
X29709871Y-21957552D01*
X29709871Y-21957550D01*
X29690897Y-21920312D01*
X29688329Y-21906644D01*
X29681232Y-21894681D01*
X29682007Y-21872980D01*
X29678000Y-21851643D01*
X29683230Y-21838756D01*
X29683727Y-21824856D01*
X29696110Y-21807020D01*
X29704276Y-21786902D01*
X29716459Y-21777713D01*
X29723576Y-21767464D01*
X29753927Y-21749455D01*
X29776309Y-21740185D01*
X29801046Y-21729939D01*
X29848498Y-21720500D01*
X30128562Y-21720500D01*
X30195601Y-21740185D01*
G37*
%TD.AperFunction*%
%TA.AperFunction,NonConductor*%
G36*
X27625540Y-21799185D02*
G01*
X27671295Y-21851989D01*
X27681239Y-21921147D01*
X27671223Y-21952726D01*
X27671994Y-21953046D01*
X27670129Y-21957547D01*
X27616597Y-22122302D01*
X27598177Y-22238606D01*
X27589500Y-22293389D01*
X27589500Y-23866611D01*
X27616598Y-24037701D01*
X27670127Y-24202445D01*
X27748768Y-24356788D01*
X27850586Y-24496928D01*
X27850588Y-24496930D01*
X27973072Y-24619414D01*
X28014733Y-24649683D01*
X28057398Y-24705013D01*
X28063376Y-24774627D01*
X28030769Y-24836421D01*
X28014733Y-24850317D01*
X27973072Y-24880585D01*
X27850588Y-25003069D01*
X27850588Y-25003070D01*
X27850586Y-25003072D01*
X27806859Y-25063256D01*
X27748768Y-25143211D01*
X27670128Y-25297552D01*
X27616597Y-25462302D01*
X27611694Y-25493259D01*
X27589500Y-25633389D01*
X27589500Y-27206611D01*
X27616598Y-27377701D01*
X27670127Y-27542445D01*
X27748768Y-27696788D01*
X27850586Y-27836928D01*
X27850588Y-27836930D01*
X27903836Y-27890178D01*
X27937321Y-27951501D01*
X27932337Y-28021193D01*
X27890465Y-28077126D01*
X27825001Y-28101543D01*
X27816155Y-28101859D01*
X27023845Y-28101859D01*
X26956806Y-28082174D01*
X26911051Y-28029370D01*
X26901107Y-27960212D01*
X26930132Y-27896656D01*
X26936164Y-27890178D01*
X26954867Y-27871475D01*
X26989414Y-27836928D01*
X27091232Y-27696788D01*
X27169873Y-27542445D01*
X27223402Y-27377701D01*
X27250500Y-27206611D01*
X27250500Y-25633389D01*
X27223402Y-25462299D01*
X27169873Y-25297555D01*
X27091232Y-25143212D01*
X26989414Y-25003072D01*
X26866928Y-24880586D01*
X26825265Y-24850316D01*
X26782602Y-24794988D01*
X26776623Y-24725374D01*
X26809229Y-24663579D01*
X26825266Y-24649683D01*
X26866928Y-24619414D01*
X26989414Y-24496928D01*
X27091232Y-24356788D01*
X27169873Y-24202445D01*
X27223402Y-24037701D01*
X27250500Y-23866611D01*
X27250500Y-22293389D01*
X27223402Y-22122299D01*
X27169873Y-21957555D01*
X27169871Y-21957552D01*
X27169870Y-21957547D01*
X27168006Y-21953046D01*
X27169626Y-21952374D01*
X27158116Y-21891148D01*
X27184380Y-21826403D01*
X27241479Y-21786136D01*
X27281499Y-21779500D01*
X27558501Y-21779500D01*
X27625540Y-21799185D01*
G37*
%TD.AperFunction*%
%TA.AperFunction,NonConductor*%
G36*
X51323492Y-28198342D02*
G01*
X51463389Y-28220500D01*
X51463390Y-28220500D01*
X51636610Y-28220500D01*
X51636611Y-28220500D01*
X51753022Y-28202062D01*
X51822313Y-28211016D01*
X51875765Y-28256012D01*
X51896405Y-28322764D01*
X51877680Y-28390078D01*
X51872736Y-28397420D01*
X51814040Y-28478208D01*
X51735397Y-28632554D01*
X51726863Y-28658819D01*
X51687425Y-28716494D01*
X51623066Y-28743692D01*
X51608932Y-28744500D01*
X51275765Y-28744500D01*
X51208726Y-28724815D01*
X51162971Y-28672011D01*
X51153027Y-28602853D01*
X51153292Y-28601102D01*
X51167185Y-28513389D01*
X51180137Y-28431611D01*
X51180137Y-28320822D01*
X51199822Y-28253783D01*
X51252626Y-28208028D01*
X51321784Y-28198084D01*
X51323492Y-28198342D01*
G37*
%TD.AperFunction*%
%TA.AperFunction,NonConductor*%
G36*
X54651613Y-28150317D02*
G01*
X54691871Y-28207422D01*
X54698500Y-28247423D01*
X54698500Y-28728978D01*
X54678815Y-28796017D01*
X54662181Y-28816659D01*
X54060659Y-29418181D01*
X54033731Y-29432884D01*
X54007913Y-29449477D01*
X54001712Y-29450368D01*
X53999336Y-29451666D01*
X53972978Y-29454500D01*
X53951398Y-29454500D01*
X53884359Y-29434815D01*
X53838604Y-29382011D01*
X53828660Y-29312853D01*
X53828925Y-29311102D01*
X53833759Y-29280586D01*
X53855770Y-29141611D01*
X53855770Y-28968389D01*
X53828672Y-28797299D01*
X53775143Y-28632555D01*
X53696502Y-28478212D01*
X53607983Y-28356376D01*
X53584504Y-28290573D01*
X53600329Y-28222519D01*
X53650435Y-28173824D01*
X53718913Y-28159948D01*
X53746610Y-28165559D01*
X53832299Y-28193402D01*
X54003389Y-28220500D01*
X54003390Y-28220500D01*
X54176610Y-28220500D01*
X54176611Y-28220500D01*
X54347701Y-28193402D01*
X54512445Y-28139873D01*
X54518203Y-28136938D01*
X54586872Y-28124042D01*
X54651613Y-28150317D01*
G37*
%TD.AperFunction*%
M02*
