%TF.GenerationSoftware,KiCad,Pcbnew,9.0.7*%
%TF.CreationDate,2026-05-23T17:59:52+02:00*%
%TF.ProjectId,BarePi_PidiPad,42617265-5069-45f5-9069-64695061642e,rev?*%
%TF.SameCoordinates,Original*%
%TF.FileFunction,Other,User*%
%FSLAX46Y46*%
G04 Gerber Fmt 4.6, Leading zero omitted, Abs format (unit mm)*
G04 Created by KiCad (PCBNEW 9.0.7) date 2026-05-23 17:59:52*
%MOMM*%
%LPD*%
G01*
G04 APERTURE LIST*
%ADD10C,0.050000*%
G04 APERTURE END LIST*
D10*
%TO.C,REF\u002A\u002A*%
X64000000Y-3500000D02*
G75*
G02*
X59000000Y-3500000I-2500000J0D01*
G01*
X59000000Y-3500000D02*
G75*
G02*
X64000000Y-3500000I2500000J0D01*
G01*
X6000000Y-31500000D02*
G75*
G02*
X1000000Y-31500000I-2500000J0D01*
G01*
X1000000Y-31500000D02*
G75*
G02*
X6000000Y-31500000I2500000J0D01*
G01*
%TO.C,J2*%
X48715000Y-12795000D02*
X57335000Y-12795000D01*
X57335000Y-485000D01*
X48715000Y-485000D01*
X48715000Y-12795000D01*
%TO.C,J3*%
X7550000Y450000D02*
X7550000Y-14400000D01*
X7550000Y-14400000D02*
X33950000Y-14400000D01*
X33950000Y450000D02*
X7550000Y450000D01*
X33950000Y-14400000D02*
X33950000Y450000D01*
%TO.C,J1*%
X6580000Y-21680000D02*
X58380000Y-21680000D01*
X6580000Y-35050000D02*
X6580000Y-21680000D01*
X58380000Y-21680000D02*
X58380000Y-35050000D01*
X58380000Y-35050000D02*
X6580000Y-35050000D01*
%TO.C,REF\u002A\u002A*%
X64000000Y-31500000D02*
G75*
G02*
X59000000Y-31500000I-2500000J0D01*
G01*
X59000000Y-31500000D02*
G75*
G02*
X64000000Y-31500000I2500000J0D01*
G01*
%TO.C,Q1*%
X37775000Y-3895000D02*
X44175000Y-3895000D01*
X44175000Y-9555000D02*
X37775000Y-9555000D01*
X37775000Y-9555000D02*
G75*
G02*
X37775000Y-3895000I0J2830000D01*
G01*
X44175000Y-3895000D02*
G75*
G02*
X44175000Y-9555000I0J-2830000D01*
G01*
%TO.C,REF\u002A\u002A*%
X6000000Y-3500000D02*
G75*
G02*
X1000000Y-3500000I-2500000J0D01*
G01*
X1000000Y-3500000D02*
G75*
G02*
X6000000Y-3500000I2500000J0D01*
G01*
%TD*%
M02*
