M48
; DRILL file {KiCad 9.0.7} date 2026-05-06T21:19:17+0200
; FORMAT={-:-/ absolute / metric / decimal}
; #@! TF.CreationDate,2026-05-06T21:19:17+02:00
; #@! TF.GenerationSoftware,Kicad,Pcbnew,9.0.7
; #@! TF.FileFunction,Plated,1,2,PTH
FMAT,2
METRIC
; #@! TA.AperFunction,Plated,PTH,ViaDrill
T1C0.600
; #@! TA.AperFunction,Plated,PTH,ComponentDrill
T2C1.000
%
G90
G05
T1
X5.375Y-19.2
X18.324Y-5.108
X19.016Y-3.338
X20.547Y-19.797
X20.685Y-11.475
X21.511Y-6.335
X21.585Y-8.233
X22.532Y-20.64
X23.401Y-6.139
X24.595Y-3.801
X25.692Y-20.203
X27.562Y-19.424
X30.524Y-9.439
X33.315Y-2.033
X34.723Y-6.45
X34.975Y-20.385
X35.984Y-5.028
X35.991Y-8.809
X37.801Y-3.268
X40.3Y-8.6
X42.05Y-9.927
X42.294Y-3.051
X42.622Y-8.103
X44.424Y-11.326
X44.661Y-9.44
X48.45Y-3.55
X49.95Y-6.433
X50.649Y-20.61
X59.15Y-14.35
T2
X8.37Y-14.33
X8.37Y-16.87
X10.91Y-14.33
X10.91Y-16.87
X13.45Y-14.33
X13.45Y-16.87
X15.99Y-14.33
X15.99Y-16.87
X18.53Y-14.33
X18.53Y-16.87
X21.07Y-14.33
X21.07Y-16.87
X23.61Y-14.33
X23.61Y-16.87
X26.15Y-14.33
X26.15Y-16.87
X28.69Y-14.33
X28.69Y-16.87
X31.23Y-14.33
X31.23Y-16.87
X33.77Y-14.33
X33.77Y-16.87
X36.31Y-14.33
X36.31Y-16.87
X38.85Y-14.33
X38.85Y-16.87
X41.39Y-14.33
X41.39Y-16.87
X43.93Y-14.33
X43.93Y-16.87
X46.47Y-14.33
X46.47Y-16.87
X49.01Y-14.33
X49.01Y-16.87
X50.96Y-10.01
X51.55Y-14.33
X51.55Y-16.87
X53.5Y-10.01
X54.09Y-14.33
X54.09Y-16.87
X56.04Y-10.01
X56.63Y-14.33
X56.63Y-16.87
M30
