%TF.GenerationSoftware,KiCad,Pcbnew,9.0.7*%
%TF.CreationDate,2026-05-06T21:19:14+02:00*%
%TF.ProjectId,BarePi_PidiBoy,42617265-5069-45f5-9069-6469426f792e,rev?*%
%TF.SameCoordinates,Original*%
%TF.FileFunction,Soldermask,Top*%
%TF.FilePolarity,Negative*%
%FSLAX46Y46*%
G04 Gerber Fmt 4.6, Leading zero omitted, Abs format (unit mm)*
G04 Created by KiCad (PCBNEW 9.0.7) date 2026-05-06 21:19:14*
%MOMM*%
%LPD*%
G01*
G04 APERTURE LIST*
G04 Aperture macros list*
%AMRoundRect*
0 Rectangle with rounded corners*
0 $1 Rounding radius*
0 $2 $3 $4 $5 $6 $7 $8 $9 X,Y pos of 4 corners*
0 Add a 4 corners polygon primitive as box body*
4,1,4,$2,$3,$4,$5,$6,$7,$8,$9,$2,$3,0*
0 Add four circle primitives for the rounded corners*
1,1,$1+$1,$2,$3*
1,1,$1+$1,$4,$5*
1,1,$1+$1,$6,$7*
1,1,$1+$1,$8,$9*
0 Add four rect primitives between the rounded corners*
20,1,$1+$1,$2,$3,$4,$5,0*
20,1,$1+$1,$4,$5,$6,$7,0*
20,1,$1+$1,$6,$7,$8,$9,0*
20,1,$1+$1,$8,$9,$2,$3,0*%
%AMOutline4P*
0 Free polygon, 4 corners , with rotation*
0 The origin of the aperture is its center*
0 number of corners: always 4*
0 $1 to $8 corner X, Y*
0 $9 Rotation angle, in degrees counterclockwise*
0 create outline with 4 corners*
4,1,4,$1,$2,$3,$4,$5,$6,$7,$8,$1,$2,$9*%
G04 Aperture macros list end*
%ADD10Outline4P,-1.600000X-0.800000X1.600000X-0.800000X1.600000X0.800000X-1.600000X0.800000X90.000000*%
%ADD11O,1.600000X3.200000*%
%ADD12C,3.000000*%
%ADD13RoundRect,0.250000X-0.650000X0.412500X-0.650000X-0.412500X0.650000X-0.412500X0.650000X0.412500X0*%
%ADD14RoundRect,0.100000X0.637500X0.100000X-0.637500X0.100000X-0.637500X-0.100000X0.637500X-0.100000X0*%
%ADD15Outline4P,-1.500000X-0.800000X1.500000X-0.800000X1.500000X0.800000X-1.500000X0.800000X270.000000*%
%ADD16O,1.600000X3.000000*%
G04 APERTURE END LIST*
D10*
%TO.C,J2*%
X50960000Y-10010000D03*
D11*
X53500000Y-10010000D03*
X56040000Y-10010000D03*
%TD*%
D12*
%TO.C,REF\u002A\u002A*%
X61500000Y-3500000D03*
%TD*%
%TO.C,REF\u002A\u002A*%
X3500000Y-22500000D03*
%TD*%
D13*
%TO.C,C1*%
X39925000Y-2212500D03*
X39925000Y-5337500D03*
%TD*%
D14*
%TO.C,IC1*%
X32287500Y-8800000D03*
X32287500Y-8150000D03*
X32287500Y-7500000D03*
X32287500Y-6850000D03*
X32287500Y-6200000D03*
X32287500Y-5550000D03*
X32287500Y-4900000D03*
X32287500Y-4250000D03*
X32287500Y-3600000D03*
X32287500Y-2950000D03*
X26562500Y-2950000D03*
X26562500Y-3600000D03*
X26562500Y-4250000D03*
X26562500Y-4900000D03*
X26562500Y-5550000D03*
X26562500Y-6200000D03*
X26562500Y-6850000D03*
X26562500Y-7500000D03*
X26562500Y-8150000D03*
X26562500Y-8800000D03*
%TD*%
D15*
%TO.C,J1*%
X8370000Y-17270000D03*
D16*
X8370000Y-13930000D03*
X10910000Y-17270000D03*
X10910000Y-13930000D03*
X13450000Y-17270000D03*
X13450000Y-13930000D03*
X15990000Y-17270000D03*
X15990000Y-13930000D03*
X18530000Y-17270000D03*
X18530000Y-13930000D03*
X21070000Y-17270000D03*
X21070000Y-13930000D03*
X23610000Y-17270000D03*
X23610000Y-13930000D03*
X26150000Y-17270000D03*
X26150000Y-13930000D03*
X28690000Y-17270000D03*
X28690000Y-13930000D03*
X31230000Y-17270000D03*
X31230000Y-13930000D03*
X33770000Y-17270000D03*
X33770000Y-13930000D03*
X36310000Y-17270000D03*
X36310000Y-13930000D03*
X38850000Y-17270000D03*
X38850000Y-13930000D03*
X41390000Y-17270000D03*
X41390000Y-13930000D03*
X43930000Y-17270000D03*
X43930000Y-13930000D03*
X46470000Y-17270000D03*
X46470000Y-13930000D03*
X49010000Y-17270000D03*
X49010000Y-13930000D03*
X51550000Y-17270000D03*
X51550000Y-13930000D03*
X54090000Y-17270000D03*
X54090000Y-13930000D03*
X56630000Y-17270000D03*
X56630000Y-13930000D03*
%TD*%
D12*
%TO.C,REF\u002A\u002A*%
X61500000Y-22500000D03*
%TD*%
%TO.C,REF\u002A\u002A*%
X3500000Y-3500000D03*
%TD*%
M02*
