%TF.GenerationSoftware,KiCad,Pcbnew,9.0.7*%
%TF.CreationDate,2026-05-06T21:19:14+02:00*%
%TF.ProjectId,BarePi_PidiBoy,42617265-5069-45f5-9069-6469426f792e,rev?*%
%TF.SameCoordinates,Original*%
%TF.FileFunction,Copper,L2,Bot*%
%TF.FilePolarity,Positive*%
%FSLAX46Y46*%
G04 Gerber Fmt 4.6, Leading zero omitted, Abs format (unit mm)*
G04 Created by KiCad (PCBNEW 9.0.7) date 2026-05-06 21:19:14*
%MOMM*%
%LPD*%
G01*
G04 APERTURE LIST*
G04 Aperture macros list*
%AMOutline4P*
0 Free polygon, 4 corners , with rotation*
0 The origin of the aperture is its center*
0 number of corners: always 4*
0 $1 to $8 corner X, Y*
0 $9 Rotation angle, in degrees counterclockwise*
0 create outline with 4 corners*
4,1,4,$1,$2,$3,$4,$5,$6,$7,$8,$1,$2,$9*%
G04 Aperture macros list end*
%ADD10C,0.300000*%
%ADD11C,0.500000*%
%ADD12C,0.200000*%
%TA.AperFunction,NonConductor*%
%ADD13C,0.200000*%
%TD*%
%TA.AperFunction,ComponentPad*%
%ADD14Outline4P,-1.600000X-0.800000X1.600000X-0.800000X1.600000X0.800000X-1.600000X0.800000X90.000000*%
%TD*%
%TA.AperFunction,ComponentPad*%
%ADD15O,1.600000X3.200000*%
%TD*%
%TA.AperFunction,ComponentPad*%
%ADD16Outline4P,-1.500000X-0.800000X1.500000X-0.800000X1.500000X0.800000X-1.500000X0.800000X270.000000*%
%TD*%
%TA.AperFunction,ComponentPad*%
%ADD17O,1.600000X3.000000*%
%TD*%
%TA.AperFunction,ViaPad*%
%ADD18C,1.600000*%
%TD*%
%TA.AperFunction,ViaPad*%
%ADD19C,1.400000*%
%TD*%
%TA.AperFunction,Conductor*%
%ADD20C,0.800000*%
%TD*%
%TA.AperFunction,Conductor*%
%ADD21C,0.330000*%
%TD*%
G04 APERTURE END LIST*
D10*
G36*
X2521000Y-9081960D02*
G01*
X2517462Y-9293184D01*
X2512793Y-9374612D01*
X2501176Y-9437619D01*
X2481968Y-9491394D01*
X2455640Y-9537351D01*
X2421499Y-9577917D01*
X2380343Y-9612536D01*
X2331369Y-9641472D01*
X2278500Y-9662811D01*
X2225348Y-9675394D01*
X2171341Y-9679574D01*
X2103694Y-9672802D01*
X2043643Y-9653114D01*
X1989551Y-9620516D01*
X1943982Y-9576734D01*
X1907493Y-9521191D01*
X1880082Y-9451695D01*
X1852428Y-9500286D01*
X1817297Y-9541151D01*
X1774129Y-9575087D01*
X1725395Y-9600402D01*
X1673951Y-9615491D01*
X1618864Y-9620589D01*
X1567859Y-9616371D01*
X1521194Y-9604032D01*
X1478034Y-9583660D01*
X1420927Y-9541709D01*
X1377430Y-9491482D01*
X1346287Y-9432917D01*
X1327751Y-9366039D01*
X1319331Y-9286877D01*
X1315808Y-9153328D01*
X1315808Y-9054996D01*
X1517454Y-9054996D01*
X1521558Y-9262358D01*
X1530077Y-9301254D01*
X1544243Y-9331087D01*
X1563616Y-9353729D01*
X1602438Y-9376450D01*
X1653742Y-9384504D01*
X1690899Y-9380297D01*
X1721582Y-9368351D01*
X1747238Y-9348820D01*
X1775054Y-9307927D01*
X1790030Y-9250928D01*
X1793274Y-9111563D01*
X1995780Y-9111563D01*
X2001442Y-9262804D01*
X2013145Y-9326692D01*
X2036072Y-9371067D01*
X2068466Y-9402529D01*
X2109579Y-9421926D01*
X2160863Y-9428761D01*
X2202542Y-9424634D01*
X2236244Y-9413098D01*
X2263665Y-9394689D01*
X2294682Y-9356064D01*
X2311952Y-9306615D01*
X2316887Y-9259661D01*
X2319353Y-9140212D01*
X2319353Y-8915631D01*
X1995780Y-8915631D01*
X1995780Y-9111563D01*
X1793274Y-9111563D01*
X1794133Y-9074633D01*
X1794133Y-8915631D01*
X1517454Y-8915631D01*
X1517454Y-9054996D01*
X1315808Y-9054996D01*
X1315808Y-8672951D01*
X2521000Y-8672951D01*
X2521000Y-9081960D01*
G37*
G36*
X2044711Y-9842319D02*
G01*
X2146223Y-9862556D01*
X2234849Y-9894725D01*
X2312412Y-9938291D01*
X2380316Y-9993401D01*
X2438334Y-10059612D01*
X2483613Y-10133982D01*
X2516662Y-10217665D01*
X2537256Y-10312238D01*
X2544447Y-10419630D01*
X2537262Y-10525523D01*
X2516650Y-10619083D01*
X2483501Y-10702176D01*
X2437977Y-10776325D01*
X2379510Y-10842634D01*
X2311363Y-10897614D01*
X2233242Y-10941163D01*
X2143684Y-10973380D01*
X2040802Y-10993683D01*
X1922360Y-11000830D01*
X1802896Y-10993616D01*
X1699267Y-10973134D01*
X1609192Y-10940651D01*
X1530742Y-10896769D01*
X1462427Y-10841388D01*
X1403781Y-10774579D01*
X1358129Y-10699973D01*
X1324898Y-10616474D01*
X1304245Y-10522569D01*
X1297214Y-10418824D01*
X1503386Y-10418824D01*
X1510176Y-10492124D01*
X1529639Y-10555470D01*
X1561304Y-10610802D01*
X1605895Y-10659452D01*
X1658961Y-10696510D01*
X1726202Y-10724775D01*
X1810799Y-10743268D01*
X1916645Y-10750017D01*
X2023540Y-10743125D01*
X2109434Y-10724191D01*
X2178134Y-10695157D01*
X2232744Y-10656960D01*
X2279048Y-10606903D01*
X2311551Y-10551389D01*
X2331293Y-10489267D01*
X2338110Y-10418824D01*
X2331268Y-10348436D01*
X2311419Y-10286103D01*
X2278671Y-10230147D01*
X2231938Y-10179441D01*
X2176781Y-10140510D01*
X2108385Y-10111130D01*
X2023932Y-10092101D01*
X1919942Y-10085212D01*
X1813790Y-10092031D01*
X1728716Y-10110742D01*
X1660878Y-10139390D01*
X1607140Y-10177023D01*
X1561908Y-10226347D01*
X1529867Y-10282124D01*
X1510223Y-10345651D01*
X1503386Y-10418824D01*
X1297214Y-10418824D01*
X1297050Y-10416406D01*
X1302700Y-10319468D01*
X1318879Y-10233631D01*
X1344750Y-10157386D01*
X1372039Y-10103428D01*
X1408004Y-10051727D01*
X1453414Y-10001974D01*
X1531457Y-9938526D01*
X1618791Y-9890160D01*
X1703948Y-9860865D01*
X1806035Y-9841981D01*
X1928149Y-9835205D01*
X2044711Y-9842319D01*
G37*
G36*
X2521000Y-11460910D02*
G01*
X1517454Y-11460910D01*
X1517454Y-11104291D01*
X1315808Y-11104291D01*
X1315808Y-12059330D01*
X1517454Y-12059330D01*
X1517454Y-11703517D01*
X2521000Y-11703517D01*
X2521000Y-11460910D01*
G37*
G36*
X2521000Y-12486730D02*
G01*
X1517454Y-12486730D01*
X1517454Y-12130111D01*
X1315808Y-12130111D01*
X1315808Y-13085150D01*
X1517454Y-13085150D01*
X1517454Y-12729337D01*
X2521000Y-12729337D01*
X2521000Y-12486730D01*
G37*
G36*
X2044711Y-13169493D02*
G01*
X2146223Y-13189730D01*
X2234849Y-13221899D01*
X2312412Y-13265464D01*
X2380316Y-13320575D01*
X2438334Y-13386786D01*
X2483613Y-13461156D01*
X2516662Y-13544838D01*
X2537256Y-13639412D01*
X2544447Y-13746803D01*
X2537262Y-13852697D01*
X2516650Y-13946257D01*
X2483501Y-14029349D01*
X2437977Y-14103499D01*
X2379510Y-14169808D01*
X2311363Y-14224788D01*
X2233242Y-14268336D01*
X2143684Y-14300554D01*
X2040802Y-14320857D01*
X1922360Y-14328004D01*
X1802896Y-14320790D01*
X1699267Y-14300307D01*
X1609192Y-14267825D01*
X1530742Y-14223943D01*
X1462427Y-14168562D01*
X1403781Y-14101753D01*
X1358129Y-14027147D01*
X1324898Y-13943648D01*
X1304245Y-13849742D01*
X1297214Y-13745997D01*
X1503386Y-13745997D01*
X1510176Y-13819298D01*
X1529639Y-13882644D01*
X1561304Y-13937976D01*
X1605895Y-13986625D01*
X1658961Y-14023684D01*
X1726202Y-14051949D01*
X1810799Y-14070441D01*
X1916645Y-14077191D01*
X2023540Y-14070299D01*
X2109434Y-14051365D01*
X2178134Y-14022331D01*
X2232744Y-13984134D01*
X2279048Y-13934077D01*
X2311551Y-13878563D01*
X2331293Y-13816441D01*
X2338110Y-13745997D01*
X2331268Y-13675609D01*
X2311419Y-13613277D01*
X2278671Y-13557320D01*
X2231938Y-13506615D01*
X2176781Y-13467683D01*
X2108385Y-13438304D01*
X2023932Y-13419275D01*
X1919942Y-13412386D01*
X1813790Y-13419205D01*
X1728716Y-13437915D01*
X1660878Y-13466564D01*
X1607140Y-13504197D01*
X1561908Y-13553520D01*
X1529867Y-13609298D01*
X1510223Y-13672825D01*
X1503386Y-13745997D01*
X1297214Y-13745997D01*
X1297050Y-13743579D01*
X1302700Y-13646641D01*
X1318879Y-13560805D01*
X1344750Y-13484560D01*
X1372039Y-13430602D01*
X1408004Y-13378900D01*
X1453414Y-13329148D01*
X1531457Y-13265700D01*
X1618791Y-13217334D01*
X1703948Y-13188038D01*
X1806035Y-13169155D01*
X1928149Y-13162379D01*
X2044711Y-13169493D01*
G37*
G36*
X2521000Y-14514263D02*
G01*
X1315808Y-14514263D01*
X1315808Y-14877404D01*
X2137929Y-15095464D01*
X1315808Y-15311032D01*
X1315808Y-15675052D01*
X2521000Y-15675052D01*
X2521000Y-15449591D01*
X1572336Y-15449591D01*
X2521000Y-15211088D01*
X2521000Y-14977421D01*
X1572336Y-14739724D01*
X2521000Y-14739724D01*
X2521000Y-14514263D01*
G37*
D11*
G36*
X42323691Y-24660000D02*
G01*
X41642009Y-24660000D01*
X41289969Y-24654103D01*
X41154256Y-24646322D01*
X41049245Y-24626960D01*
X40959619Y-24594947D01*
X40883024Y-24551067D01*
X40815415Y-24494165D01*
X40757716Y-24425571D01*
X40709490Y-24343949D01*
X40673924Y-24255833D01*
X40652952Y-24167247D01*
X40645987Y-24077236D01*
X40647735Y-24059773D01*
X41064008Y-24059773D01*
X41070886Y-24129238D01*
X41090114Y-24185407D01*
X41120795Y-24231109D01*
X41185170Y-24282803D01*
X41267585Y-24311587D01*
X41345842Y-24319813D01*
X41544922Y-24323921D01*
X41919225Y-24323921D01*
X41919225Y-23784633D01*
X41592672Y-23784633D01*
X41340603Y-23794071D01*
X41234123Y-23813576D01*
X41160164Y-23851786D01*
X41107728Y-23905778D01*
X41075400Y-23974299D01*
X41064008Y-24059773D01*
X40647735Y-24059773D01*
X40657273Y-23964491D01*
X40690087Y-23864405D01*
X40744417Y-23774253D01*
X40817386Y-23698303D01*
X40909958Y-23637488D01*
X41025784Y-23591803D01*
X40944799Y-23545713D01*
X40876691Y-23487162D01*
X40820132Y-23415216D01*
X40777940Y-23333992D01*
X40752791Y-23248252D01*
X40749674Y-23214570D01*
X41137770Y-23214570D01*
X41144781Y-23276499D01*
X41164691Y-23327637D01*
X41197243Y-23370397D01*
X41265398Y-23416758D01*
X41360397Y-23441716D01*
X41654221Y-23448555D01*
X41919225Y-23448555D01*
X41919225Y-22987424D01*
X41686950Y-22987424D01*
X41341346Y-22994263D01*
X41276519Y-23008462D01*
X41226797Y-23032072D01*
X41189061Y-23064361D01*
X41151192Y-23129063D01*
X41137770Y-23214570D01*
X40749674Y-23214570D01*
X40744294Y-23156441D01*
X40751324Y-23071431D01*
X40771890Y-22993657D01*
X40805844Y-22921723D01*
X40875762Y-22826546D01*
X40959472Y-22754050D01*
X41057081Y-22702145D01*
X41168544Y-22671252D01*
X41300481Y-22657218D01*
X41523063Y-22651346D01*
X42323691Y-22651346D01*
X42323691Y-24660000D01*
G37*
G36*
X39885417Y-23175003D02*
G01*
X40001591Y-23196367D01*
X40093961Y-23228768D01*
X40166782Y-23270624D01*
X40250227Y-23348690D01*
X40317750Y-23452986D01*
X40368893Y-23589239D01*
X40020481Y-23651765D01*
X39976765Y-23558843D01*
X39927668Y-23505830D01*
X39862830Y-23475625D01*
X39767811Y-23464187D01*
X39666815Y-23471146D01*
X39601578Y-23488542D01*
X39561548Y-23512669D01*
X39532943Y-23548902D01*
X39514012Y-23601107D01*
X39506838Y-23674968D01*
X39506838Y-23714291D01*
X39632078Y-23754803D01*
X39879797Y-23809057D01*
X40066570Y-23854009D01*
X40185100Y-23899061D01*
X40251010Y-23938799D01*
X40305489Y-23987986D01*
X40349720Y-24047316D01*
X40382047Y-24114025D01*
X40401708Y-24187018D01*
X40408460Y-24267745D01*
X40400067Y-24358837D01*
X40375772Y-24439438D01*
X40335890Y-24511621D01*
X40279378Y-24576835D01*
X40211619Y-24628670D01*
X40131843Y-24666648D01*
X40037714Y-24690589D01*
X39926203Y-24699078D01*
X39802283Y-24686748D01*
X39687089Y-24650230D01*
X39580059Y-24590299D01*
X39476674Y-24503684D01*
X39462996Y-24548136D01*
X39426116Y-24660000D01*
X39046318Y-24660000D01*
X39089817Y-24556053D01*
X39115317Y-24464117D01*
X39128278Y-24360026D01*
X39133757Y-24180307D01*
X39132514Y-24041210D01*
X39506838Y-24041210D01*
X39511573Y-24168754D01*
X39521859Y-24229277D01*
X39555095Y-24298089D01*
X39613450Y-24356894D01*
X39678865Y-24395726D01*
X39744451Y-24418140D01*
X39811531Y-24425526D01*
X39871069Y-24418673D01*
X39921379Y-24399014D01*
X39964549Y-24366542D01*
X39998258Y-24324216D01*
X40017965Y-24278043D01*
X40024633Y-24226468D01*
X40016479Y-24175358D01*
X39992212Y-24130751D01*
X39949528Y-24090669D01*
X39885645Y-24061684D01*
X39740456Y-24023381D01*
X39506838Y-23964396D01*
X39506838Y-24041210D01*
X39132514Y-24041210D01*
X39129727Y-23729434D01*
X39137288Y-23559464D01*
X39156004Y-23449952D01*
X39181018Y-23383709D01*
X39221311Y-23326933D01*
X39279109Y-23275203D01*
X39357972Y-23228370D01*
X39444542Y-23197331D01*
X39568387Y-23175561D01*
X39740456Y-23167187D01*
X39885417Y-23175003D01*
G37*
G36*
X38384542Y-24660000D02*
G01*
X38768492Y-24660000D01*
X38768492Y-23206266D01*
X38411897Y-23206266D01*
X38411897Y-23412529D01*
X38317692Y-23282019D01*
X38247278Y-23216769D01*
X38169719Y-23179735D01*
X38081315Y-23167187D01*
X37995778Y-23175062D01*
X37911929Y-23198835D01*
X37828523Y-23239483D01*
X37947347Y-23573852D01*
X38044726Y-23525476D01*
X38127721Y-23511081D01*
X38203189Y-23522618D01*
X38264375Y-23555900D01*
X38311220Y-23613087D01*
X38352424Y-23717711D01*
X38374157Y-23866422D01*
X38384542Y-24208150D01*
X38384542Y-24660000D01*
G37*
G36*
X37250534Y-23180523D02*
G01*
X37374690Y-23219194D01*
X37486174Y-23282894D01*
X37587211Y-23373572D01*
X37666666Y-23481356D01*
X37725314Y-23609532D01*
X37762517Y-23762094D01*
X37775767Y-23944124D01*
X37765937Y-24096626D01*
X37737908Y-24229835D01*
X37693179Y-24346615D01*
X37632274Y-24449340D01*
X37553901Y-24537267D01*
X37461270Y-24605773D01*
X37352344Y-24656079D01*
X37223996Y-24687823D01*
X37072225Y-24699078D01*
X36916263Y-24685673D01*
X36785073Y-24647786D01*
X36673987Y-24587215D01*
X36579222Y-24503406D01*
X36501640Y-24396163D01*
X36440980Y-24261395D01*
X36823464Y-24198869D01*
X36864565Y-24294702D01*
X36916398Y-24353963D01*
X36983631Y-24389601D01*
X37068073Y-24402079D01*
X37152324Y-24391355D01*
X37225128Y-24360127D01*
X37289357Y-24307435D01*
X37337430Y-24239278D01*
X37368969Y-24152666D01*
X37382292Y-24042554D01*
X36420463Y-24042554D01*
X36426390Y-23857266D01*
X36433750Y-23808080D01*
X36801604Y-23808080D01*
X37375453Y-23808080D01*
X37366216Y-23705126D01*
X37338828Y-23622846D01*
X37294853Y-23556755D01*
X37235113Y-23505175D01*
X37166831Y-23474673D01*
X37087124Y-23464187D01*
X37012569Y-23473980D01*
X36946901Y-23502770D01*
X36887700Y-23551870D01*
X36843765Y-23615190D01*
X36814345Y-23698662D01*
X36801604Y-23808080D01*
X36433750Y-23808080D01*
X36449471Y-23703009D01*
X36487053Y-23575098D01*
X36537339Y-23469429D01*
X36599493Y-23382609D01*
X36700137Y-23289424D01*
X36816531Y-23222852D01*
X36951798Y-23181650D01*
X37110449Y-23167187D01*
X37250534Y-23180523D01*
G37*
G36*
X36105634Y-24660000D02*
G01*
X35701290Y-24660000D01*
X35701290Y-23901870D01*
X35437630Y-23901870D01*
X35179203Y-23893492D01*
X35018143Y-23873049D01*
X34914238Y-23838500D01*
X34808338Y-23777916D01*
X34744714Y-23725075D01*
X34688076Y-23659611D01*
X34638223Y-23579958D01*
X34602300Y-23493445D01*
X34579443Y-23390859D01*
X34571717Y-23275265D01*
X34988101Y-23275265D01*
X34999826Y-23361028D01*
X35033897Y-23433778D01*
X35087953Y-23492444D01*
X35160292Y-23533796D01*
X35260628Y-23555604D01*
X35480006Y-23565792D01*
X35701290Y-23565792D01*
X35701290Y-22987424D01*
X35505896Y-22987424D01*
X35305395Y-22991877D01*
X35214881Y-23001346D01*
X35152574Y-23019651D01*
X35098871Y-23049598D01*
X35052337Y-23091716D01*
X35017194Y-23143165D01*
X34995656Y-23203540D01*
X34988101Y-23275265D01*
X34571717Y-23275265D01*
X34571301Y-23269036D01*
X34585338Y-23113107D01*
X34624733Y-22984620D01*
X34687438Y-22878126D01*
X34772501Y-22787768D01*
X34867986Y-22723028D01*
X34975767Y-22681510D01*
X35119381Y-22661162D01*
X35456681Y-22651346D01*
X36105634Y-22651346D01*
X36105634Y-24660000D01*
G37*
G36*
X34242306Y-23003056D02*
G01*
X34242306Y-22651346D01*
X33858478Y-22651346D01*
X33858478Y-23003056D01*
X34242306Y-23003056D01*
G37*
G36*
X34242306Y-24660000D02*
G01*
X34242306Y-23206266D01*
X33858478Y-23206266D01*
X33858478Y-24660000D01*
X34242306Y-24660000D01*
G37*
G36*
X32684280Y-24660000D02*
G01*
X32279936Y-24660000D01*
X32279936Y-23901870D01*
X32016276Y-23901870D01*
X31757850Y-23893492D01*
X31596789Y-23873049D01*
X31492884Y-23838500D01*
X31386985Y-23777916D01*
X31323360Y-23725075D01*
X31266722Y-23659611D01*
X31216869Y-23579958D01*
X31180946Y-23493445D01*
X31158089Y-23390859D01*
X31150363Y-23275265D01*
X31566747Y-23275265D01*
X31578472Y-23361028D01*
X31612543Y-23433778D01*
X31666599Y-23492444D01*
X31738938Y-23533796D01*
X31839275Y-23555604D01*
X32058652Y-23565792D01*
X32279936Y-23565792D01*
X32279936Y-22987424D01*
X32084542Y-22987424D01*
X31884041Y-22991877D01*
X31793527Y-23001346D01*
X31731221Y-23019651D01*
X31677517Y-23049598D01*
X31630983Y-23091716D01*
X31595841Y-23143165D01*
X31574302Y-23203540D01*
X31566747Y-23275265D01*
X31150363Y-23275265D01*
X31149947Y-23269036D01*
X31163984Y-23113107D01*
X31203379Y-22984620D01*
X31266084Y-22878126D01*
X31351147Y-22787768D01*
X31446632Y-22723028D01*
X31554413Y-22681510D01*
X31698027Y-22661162D01*
X32035327Y-22651346D01*
X32684280Y-22651346D01*
X32684280Y-24660000D01*
G37*
G36*
X30820952Y-23003056D02*
G01*
X30820952Y-22651346D01*
X30437124Y-22651346D01*
X30437124Y-23003056D01*
X30820952Y-23003056D01*
G37*
G36*
X30820952Y-24660000D02*
G01*
X30820952Y-23206266D01*
X30437124Y-23206266D01*
X30437124Y-24660000D01*
X30820952Y-24660000D01*
G37*
G36*
X29096475Y-23369420D02*
G01*
X29192393Y-23278590D01*
X29293255Y-23216415D01*
X29400712Y-23179620D01*
X29517306Y-23167187D01*
X29645869Y-23179667D01*
X29759961Y-23215900D01*
X29862608Y-23275717D01*
X29955844Y-23361116D01*
X30027707Y-23461925D01*
X30081794Y-23586416D01*
X30116746Y-23739588D01*
X30129378Y-23927637D01*
X30116709Y-24110427D01*
X30081278Y-24262704D01*
X30025752Y-24389672D01*
X29951081Y-24495502D01*
X29854803Y-24586616D01*
X29752634Y-24649237D01*
X29642852Y-24686455D01*
X29522801Y-24699078D01*
X29401942Y-24683527D01*
X29278925Y-24635209D01*
X29203084Y-24586751D01*
X29133336Y-24524471D01*
X29069242Y-24446898D01*
X29069242Y-24660000D01*
X28712647Y-24660000D01*
X28712647Y-23943635D01*
X29095132Y-23943635D01*
X29107203Y-24093596D01*
X29139467Y-24205144D01*
X29188066Y-24287163D01*
X29256242Y-24352350D01*
X29330417Y-24389600D01*
X29413502Y-24402079D01*
X29492359Y-24392456D01*
X29560363Y-24364528D01*
X29620153Y-24317700D01*
X29673010Y-24248817D01*
X29705402Y-24174621D01*
X29728322Y-24064321D01*
X29737246Y-23905900D01*
X29725310Y-23761621D01*
X29693354Y-23654151D01*
X29645045Y-23574951D01*
X29577454Y-23512603D01*
X29502187Y-23476444D01*
X29416189Y-23464187D01*
X29327723Y-23476745D01*
X29251908Y-23513490D01*
X29185380Y-23576416D01*
X29139250Y-23656806D01*
X29107413Y-23774875D01*
X29095132Y-23943635D01*
X28712647Y-23943635D01*
X28712647Y-22651346D01*
X29096475Y-22651346D01*
X29096475Y-23369420D01*
G37*
G36*
X28333583Y-23003056D02*
G01*
X28333583Y-22651346D01*
X27949755Y-22651346D01*
X27949755Y-23003056D01*
X28333583Y-23003056D01*
G37*
G36*
X28333583Y-24660000D02*
G01*
X28333583Y-23206266D01*
X27949755Y-23206266D01*
X27949755Y-24660000D01*
X28333583Y-24660000D01*
G37*
G36*
X27551883Y-24660000D02*
G01*
X26870202Y-24660000D01*
X26518162Y-24654103D01*
X26382449Y-24646322D01*
X26277437Y-24626960D01*
X26187812Y-24594947D01*
X26111217Y-24551067D01*
X26043608Y-24494165D01*
X25985909Y-24425571D01*
X25937682Y-24343949D01*
X25902117Y-24255833D01*
X25881145Y-24167247D01*
X25874179Y-24077236D01*
X25875927Y-24059773D01*
X26292201Y-24059773D01*
X26299079Y-24129238D01*
X26318306Y-24185407D01*
X26348987Y-24231109D01*
X26413362Y-24282803D01*
X26495777Y-24311587D01*
X26574035Y-24319813D01*
X26773115Y-24323921D01*
X27147417Y-24323921D01*
X27147417Y-23784633D01*
X26820865Y-23784633D01*
X26568795Y-23794071D01*
X26462316Y-23813576D01*
X26388357Y-23851786D01*
X26335920Y-23905778D01*
X26303593Y-23974299D01*
X26292201Y-24059773D01*
X25875927Y-24059773D01*
X25885466Y-23964491D01*
X25918280Y-23864405D01*
X25972609Y-23774253D01*
X26045578Y-23698303D01*
X26138151Y-23637488D01*
X26253977Y-23591803D01*
X26172992Y-23545713D01*
X26104883Y-23487162D01*
X26048324Y-23415216D01*
X26006133Y-23333992D01*
X25980984Y-23248252D01*
X25977867Y-23214570D01*
X26365962Y-23214570D01*
X26372974Y-23276499D01*
X26392883Y-23327637D01*
X26425435Y-23370397D01*
X26493591Y-23416758D01*
X26588590Y-23441716D01*
X26882414Y-23448555D01*
X27147417Y-23448555D01*
X27147417Y-22987424D01*
X26915142Y-22987424D01*
X26569539Y-22994263D01*
X26504712Y-23008462D01*
X26454990Y-23032072D01*
X26417253Y-23064361D01*
X26379385Y-23129063D01*
X26365962Y-23214570D01*
X25977867Y-23214570D01*
X25972487Y-23156441D01*
X25979517Y-23071431D01*
X26000082Y-22993657D01*
X26034036Y-22921723D01*
X26103955Y-22826546D01*
X26187665Y-22754050D01*
X26285274Y-22702145D01*
X26396737Y-22671252D01*
X26528673Y-22657218D01*
X26751255Y-22651346D01*
X27551883Y-22651346D01*
X27551883Y-24660000D01*
G37*
G36*
X25016718Y-23178092D02*
G01*
X25144686Y-23209965D01*
X25263084Y-23262442D01*
X25369338Y-23335256D01*
X25457902Y-23426578D01*
X25530163Y-23538436D01*
X25582993Y-23661652D01*
X25614105Y-23785802D01*
X25624441Y-23912372D01*
X25613062Y-24078673D01*
X25580951Y-24220214D01*
X25530163Y-24341018D01*
X25457607Y-24448923D01*
X25366528Y-24537349D01*
X25254901Y-24607976D01*
X25131552Y-24658775D01*
X25005192Y-24688971D01*
X24874371Y-24699078D01*
X24716910Y-24684830D01*
X24577438Y-24643598D01*
X24452453Y-24575984D01*
X24339479Y-24480359D01*
X24247103Y-24364789D01*
X24181309Y-24236242D01*
X24140969Y-24092144D01*
X24127103Y-23930324D01*
X24521807Y-23930324D01*
X24534721Y-24075392D01*
X24569748Y-24185914D01*
X24623656Y-24269699D01*
X24697820Y-24335181D01*
X24780741Y-24373431D01*
X24875714Y-24386448D01*
X24970716Y-24373447D01*
X25053893Y-24335206D01*
X25128506Y-24269699D01*
X25182869Y-24185911D01*
X25218041Y-24076220D01*
X25230966Y-23933133D01*
X25218038Y-23790047D01*
X25182864Y-23680401D01*
X25128506Y-23596688D01*
X25053884Y-23531108D01*
X24970708Y-23492830D01*
X24875714Y-23479818D01*
X24780749Y-23492846D01*
X24697829Y-23531132D01*
X24623656Y-23596688D01*
X24569536Y-23680305D01*
X24534610Y-23789114D01*
X24521807Y-23930324D01*
X24127103Y-23930324D01*
X24126988Y-23928981D01*
X24140849Y-23767166D01*
X24180819Y-23624456D01*
X24245971Y-23497332D01*
X24337403Y-23383220D01*
X24449210Y-23289265D01*
X24574458Y-23222431D01*
X24715827Y-23181428D01*
X24877058Y-23167187D01*
X25016718Y-23178092D01*
G37*
G36*
X24007553Y-23206266D02*
G01*
X23599057Y-23206266D01*
X23252110Y-24241001D01*
X22913223Y-23206266D01*
X22515718Y-23206266D01*
X23028017Y-24606144D01*
X23119486Y-24863698D01*
X23172104Y-24982038D01*
X23215840Y-25057383D01*
X23265771Y-25118722D01*
X23321109Y-25165949D01*
X23385334Y-25202091D01*
X23467288Y-25230795D01*
X23557162Y-25247900D01*
X23663293Y-25253998D01*
X23773112Y-25248208D01*
X23880547Y-25230917D01*
X23914741Y-24931231D01*
X23826489Y-24944973D01*
X23752197Y-24949183D01*
X23666535Y-24939347D01*
X23602261Y-24912453D01*
X23554116Y-24869804D01*
X23498786Y-24782520D01*
X23455687Y-24667815D01*
X24007553Y-23206266D01*
G37*
D12*
D13*
X48302381Y-1983304D02*
X48797619Y-1983304D01*
X48797619Y-1983304D02*
X48530953Y-1678542D01*
X48530953Y-1678542D02*
X48645238Y-1678542D01*
X48645238Y-1678542D02*
X48721429Y-1640447D01*
X48721429Y-1640447D02*
X48759524Y-1602352D01*
X48759524Y-1602352D02*
X48797619Y-1526161D01*
X48797619Y-1526161D02*
X48797619Y-1335685D01*
X48797619Y-1335685D02*
X48759524Y-1259495D01*
X48759524Y-1259495D02*
X48721429Y-1221400D01*
X48721429Y-1221400D02*
X48645238Y-1183304D01*
X48645238Y-1183304D02*
X48416667Y-1183304D01*
X48416667Y-1183304D02*
X48340476Y-1221400D01*
X48340476Y-1221400D02*
X48302381Y-1259495D01*
X49026191Y-1983304D02*
X49292858Y-1183304D01*
X49292858Y-1183304D02*
X49559524Y-1983304D01*
X49750000Y-1983304D02*
X50245238Y-1983304D01*
X50245238Y-1983304D02*
X49978572Y-1678542D01*
X49978572Y-1678542D02*
X50092857Y-1678542D01*
X50092857Y-1678542D02*
X50169048Y-1640447D01*
X50169048Y-1640447D02*
X50207143Y-1602352D01*
X50207143Y-1602352D02*
X50245238Y-1526161D01*
X50245238Y-1526161D02*
X50245238Y-1335685D01*
X50245238Y-1335685D02*
X50207143Y-1259495D01*
X50207143Y-1259495D02*
X50169048Y-1221400D01*
X50169048Y-1221400D02*
X50092857Y-1183304D01*
X50092857Y-1183304D02*
X49864286Y-1183304D01*
X49864286Y-1183304D02*
X49788095Y-1221400D01*
X49788095Y-1221400D02*
X49750000Y-1259495D01*
X50588096Y-1488066D02*
X51197620Y-1488066D01*
X51997619Y-1945209D02*
X51921429Y-1983304D01*
X51921429Y-1983304D02*
X51807143Y-1983304D01*
X51807143Y-1983304D02*
X51692857Y-1945209D01*
X51692857Y-1945209D02*
X51616667Y-1869019D01*
X51616667Y-1869019D02*
X51578572Y-1792828D01*
X51578572Y-1792828D02*
X51540476Y-1640447D01*
X51540476Y-1640447D02*
X51540476Y-1526161D01*
X51540476Y-1526161D02*
X51578572Y-1373780D01*
X51578572Y-1373780D02*
X51616667Y-1297590D01*
X51616667Y-1297590D02*
X51692857Y-1221400D01*
X51692857Y-1221400D02*
X51807143Y-1183304D01*
X51807143Y-1183304D02*
X51883334Y-1183304D01*
X51883334Y-1183304D02*
X51997619Y-1221400D01*
X51997619Y-1221400D02*
X52035715Y-1259495D01*
X52035715Y-1259495D02*
X52035715Y-1526161D01*
X52035715Y-1526161D02*
X51883334Y-1526161D01*
X52378572Y-1183304D02*
X52378572Y-1983304D01*
X52378572Y-1983304D02*
X52835715Y-1183304D01*
X52835715Y-1183304D02*
X52835715Y-1983304D01*
X53216667Y-1183304D02*
X53216667Y-1983304D01*
X53216667Y-1983304D02*
X53407143Y-1983304D01*
X53407143Y-1983304D02*
X53521429Y-1945209D01*
X53521429Y-1945209D02*
X53597619Y-1869019D01*
X53597619Y-1869019D02*
X53635714Y-1792828D01*
X53635714Y-1792828D02*
X53673810Y-1640447D01*
X53673810Y-1640447D02*
X53673810Y-1526161D01*
X53673810Y-1526161D02*
X53635714Y-1373780D01*
X53635714Y-1373780D02*
X53597619Y-1297590D01*
X53597619Y-1297590D02*
X53521429Y-1221400D01*
X53521429Y-1221400D02*
X53407143Y-1183304D01*
X53407143Y-1183304D02*
X53216667Y-1183304D01*
X54016667Y-1488066D02*
X54626191Y-1488066D01*
X54969047Y-1221400D02*
X55083333Y-1183304D01*
X55083333Y-1183304D02*
X55273809Y-1183304D01*
X55273809Y-1183304D02*
X55350000Y-1221400D01*
X55350000Y-1221400D02*
X55388095Y-1259495D01*
X55388095Y-1259495D02*
X55426190Y-1335685D01*
X55426190Y-1335685D02*
X55426190Y-1411876D01*
X55426190Y-1411876D02*
X55388095Y-1488066D01*
X55388095Y-1488066D02*
X55350000Y-1526161D01*
X55350000Y-1526161D02*
X55273809Y-1564257D01*
X55273809Y-1564257D02*
X55121428Y-1602352D01*
X55121428Y-1602352D02*
X55045238Y-1640447D01*
X55045238Y-1640447D02*
X55007143Y-1678542D01*
X55007143Y-1678542D02*
X54969047Y-1754733D01*
X54969047Y-1754733D02*
X54969047Y-1830923D01*
X54969047Y-1830923D02*
X55007143Y-1907114D01*
X55007143Y-1907114D02*
X55045238Y-1945209D01*
X55045238Y-1945209D02*
X55121428Y-1983304D01*
X55121428Y-1983304D02*
X55311905Y-1983304D01*
X55311905Y-1983304D02*
X55426190Y-1945209D01*
X55692857Y-1983304D02*
X55883333Y-1183304D01*
X55883333Y-1183304D02*
X56035714Y-1754733D01*
X56035714Y-1754733D02*
X56188095Y-1183304D01*
X56188095Y-1183304D02*
X56378572Y-1983304D01*
X56683334Y-1183304D02*
X56683334Y-1983304D01*
X57216667Y-1983304D02*
X57369048Y-1983304D01*
X57369048Y-1983304D02*
X57445238Y-1945209D01*
X57445238Y-1945209D02*
X57521429Y-1869019D01*
X57521429Y-1869019D02*
X57559524Y-1716638D01*
X57559524Y-1716638D02*
X57559524Y-1449971D01*
X57559524Y-1449971D02*
X57521429Y-1297590D01*
X57521429Y-1297590D02*
X57445238Y-1221400D01*
X57445238Y-1221400D02*
X57369048Y-1183304D01*
X57369048Y-1183304D02*
X57216667Y-1183304D01*
X57216667Y-1183304D02*
X57140476Y-1221400D01*
X57140476Y-1221400D02*
X57064286Y-1297590D01*
X57064286Y-1297590D02*
X57026190Y-1449971D01*
X57026190Y-1449971D02*
X57026190Y-1716638D01*
X57026190Y-1716638D02*
X57064286Y-1869019D01*
X57064286Y-1869019D02*
X57140476Y-1945209D01*
X57140476Y-1945209D02*
X57216667Y-1983304D01*
D14*
%TO.P,J2,1,Pin_1*%
%TO.N,/3V3*%
X50960000Y-10010000D03*
D15*
%TO.P,J2,2,Pin_2*%
%TO.N,/GND*%
X53500000Y-10010000D03*
%TO.P,J2,3,Pin_3*%
%TO.N,/SWIO*%
X56040000Y-10010000D03*
%TD*%
D16*
%TO.P,J1,1,Pin_1*%
%TO.N,unconnected-(J1-Pin_1-Pad1)*%
X8370000Y-17270000D03*
D17*
%TO.P,J1,2,Pin_2*%
%TO.N,unconnected-(J1-Pin_2-Pad2)*%
X8370000Y-13930000D03*
%TO.P,J1,3,Pin_3*%
%TO.N,/3V3*%
X10910000Y-17270000D03*
%TO.P,J1,4,Pin_4*%
X10910000Y-13930000D03*
%TO.P,J1,5,Pin_5*%
%TO.N,/I2C_SDA*%
X13450000Y-17270000D03*
%TO.P,J1,6,Pin_6*%
%TO.N,/I2C_SCL*%
X13450000Y-13930000D03*
%TO.P,J1,7,Pin_7*%
%TO.N,/I2C_SDA*%
X15990000Y-17270000D03*
%TO.P,J1,8,Pin_8*%
%TO.N,/I2C_SCL*%
X15990000Y-13930000D03*
%TO.P,J1,9,Pin_9*%
%TO.N,unconnected-(J1-Pin_9-Pad9)*%
X18530000Y-17270000D03*
%TO.P,J1,10,Pin_10*%
%TO.N,/KEY_DOWN*%
X18530000Y-13930000D03*
%TO.P,J1,11,Pin_11*%
%TO.N,/KEY_UP*%
X21070000Y-17270000D03*
%TO.P,J1,12,Pin_12*%
%TO.N,/SWIO*%
X21070000Y-13930000D03*
%TO.P,J1,13,Pin_13*%
%TO.N,/SPI_CS0*%
X23610000Y-17270000D03*
%TO.P,J1,14,Pin_14*%
%TO.N,/SPI_MISO*%
X23610000Y-13930000D03*
%TO.P,J1,15,Pin_15*%
%TO.N,/SPI_MOSI*%
X26150000Y-17270000D03*
%TO.P,J1,16,Pin_16*%
%TO.N,/SPI_SCLK*%
X26150000Y-13930000D03*
%TO.P,J1,17,Pin_17*%
%TO.N,/AUDIO*%
X28690000Y-17270000D03*
%TO.P,J1,18,Pin_18*%
X28690000Y-13930000D03*
%TO.P,J1,19,Pin_19*%
%TO.N,/UART_TX*%
X31230000Y-17270000D03*
%TO.P,J1,20,Pin_20*%
%TO.N,/UART_RX*%
X31230000Y-13930000D03*
%TO.P,J1,21,Pin_21*%
%TO.N,unconnected-(J1-Pin_21-Pad21)*%
X33770000Y-17270000D03*
%TO.P,J1,22,Pin_22*%
%TO.N,unconnected-(J1-Pin_22-Pad22)*%
X33770000Y-13930000D03*
%TO.P,J1,23,Pin_23*%
%TO.N,unconnected-(J1-Pin_23-Pad23)*%
X36310000Y-17270000D03*
%TO.P,J1,24,Pin_24*%
%TO.N,unconnected-(J1-Pin_24-Pad24)*%
X36310000Y-13930000D03*
%TO.P,J1,25,Pin_25*%
%TO.N,unconnected-(J1-Pin_25-Pad25)*%
X38850000Y-17270000D03*
%TO.P,J1,26,Pin_26*%
%TO.N,unconnected-(J1-Pin_26-Pad26)*%
X38850000Y-13930000D03*
%TO.P,J1,27,Pin_27*%
%TO.N,/KEY_A*%
X41390000Y-17270000D03*
%TO.P,J1,28,Pin_28*%
%TO.N,/KEY_B*%
X41390000Y-13930000D03*
%TO.P,J1,29,Pin_29*%
%TO.N,/KEY_X*%
X43930000Y-17270000D03*
%TO.P,J1,30,Pin_30*%
%TO.N,/KEY_RIGHT*%
X43930000Y-13930000D03*
%TO.P,J1,31,Pin_31*%
%TO.N,/KEY_LEFT*%
X46470000Y-17270000D03*
%TO.P,J1,32,Pin_32*%
%TO.N,/KEY_Y*%
X46470000Y-13930000D03*
%TO.P,J1,33,Pin_33*%
%TO.N,/SPI_CS0*%
X49010000Y-17270000D03*
%TO.P,J1,34,Pin_34*%
%TO.N,/SPI_MISO*%
X49010000Y-13930000D03*
%TO.P,J1,35,Pin_35*%
%TO.N,/SPI_MOSI*%
X51550000Y-17270000D03*
%TO.P,J1,36,Pin_36*%
%TO.N,/SPI_SCLK*%
X51550000Y-13930000D03*
%TO.P,J1,37,Pin_37*%
%TO.N,unconnected-(J1-Pin_37-Pad37)*%
X54090000Y-17270000D03*
%TO.P,J1,38,Pin_38*%
%TO.N,unconnected-(J1-Pin_38-Pad38)*%
X54090000Y-13930000D03*
%TO.P,J1,39,Pin_39*%
%TO.N,/GND*%
X56630000Y-17270000D03*
%TO.P,J1,40,Pin_40*%
X56630000Y-13930000D03*
%TD*%
D18*
%TO.N,/GND*%
X49950000Y-6433310D03*
X5375000Y-19200000D03*
X59150000Y-14350000D03*
%TO.N,/3V3*%
X48450000Y-3550000D03*
%TO.N,/SWIO*%
X20685000Y-11475264D03*
D19*
%TO.N,/KEY_UP*%
X34975000Y-20385346D03*
D18*
X22532408Y-20639812D03*
X35991414Y-8808999D03*
%TO.N,/SPI_CS0*%
X33314679Y-2033000D03*
%TO.N,/SPI_SCLK*%
X21511358Y-6334941D03*
X42293802Y-3051142D03*
%TO.N,/KEY_X*%
X42050396Y-9926678D03*
%TO.N,/KEY_B*%
X40300000Y-8600000D03*
%TO.N,/SPI_MOSI*%
X23401219Y-6138900D03*
X50649163Y-20610000D03*
D19*
X27562141Y-19423800D03*
D18*
%TO.N,/KEY_RIGHT*%
X44424293Y-11325707D03*
%TO.N,/SPI_MISO*%
X21585241Y-8233411D03*
%TO.N,/KEY_LEFT*%
X44660666Y-9439669D03*
%TO.N,/KEY_Y*%
X42622468Y-8102532D03*
%TO.N,/KEY_A*%
X37801322Y-3267888D03*
%TO.N,/KEY_DOWN*%
X30524424Y-9439000D03*
X20547254Y-19796674D03*
X25692408Y-20202791D03*
%TO.N,/UART_TX*%
X35983618Y-5028146D03*
%TO.N,/I2C_SDA*%
X19015883Y-3338432D03*
%TO.N,/I2C_SCL*%
X18323566Y-5107812D03*
%TO.N,/UART_RX*%
X34723125Y-6449825D03*
%TO.N,/AUDIO*%
X24594982Y-3800721D03*
%TD*%
D20*
%TO.N,/GND*%
X53500000Y-8868000D02*
X51065310Y-6433310D01*
X51065310Y-6433310D02*
X49950000Y-6433310D01*
X56630000Y-14330000D02*
X56630000Y-16870000D01*
D21*
X56630000Y-13305000D02*
X56630000Y-14330000D01*
X53500000Y-10175000D02*
X56630000Y-13305000D01*
D20*
X59130000Y-14330000D02*
X59150000Y-14350000D01*
D21*
X53500000Y-10010000D02*
X53500000Y-10175000D01*
D20*
X53500000Y-10010000D02*
X53500000Y-8868000D01*
X56630000Y-14330000D02*
X59130000Y-14330000D01*
%TO.N,/3V3*%
X10910000Y-16870000D02*
X10910000Y-14330000D01*
X44600000Y-3500000D02*
X48400000Y-3500000D01*
X42794491Y-1430509D02*
X44600000Y-3236018D01*
X32019000Y-1200000D02*
X32150000Y-1069000D01*
X34775000Y-1069000D02*
X42432982Y-1069000D01*
D21*
X34307981Y-1069000D02*
X33846535Y-607554D01*
D20*
X10910000Y-14330000D02*
X10910000Y-9135148D01*
X18785074Y-1260074D02*
X18845148Y-1200000D01*
D21*
X32798573Y-607554D02*
X32337127Y-1069000D01*
D20*
X48450000Y-7500000D02*
X48450000Y-3550000D01*
D21*
X33846535Y-607554D02*
X32798573Y-607554D01*
X34775000Y-1069000D02*
X34307981Y-1069000D01*
D20*
X42432982Y-1069000D02*
X42794491Y-1430509D01*
X18845148Y-1200000D02*
X32019000Y-1200000D01*
X10910000Y-9135148D02*
X18785074Y-1260074D01*
X48400000Y-3500000D02*
X48450000Y-3550000D01*
X50960000Y-10010000D02*
X48450000Y-7500000D01*
X44600000Y-3236018D02*
X44600000Y-3500000D01*
D21*
%TO.N,/SWIO*%
X60415000Y-18785000D02*
X60415000Y-13585000D01*
X21070000Y-14845000D02*
X21529000Y-15304000D01*
X22336000Y-18511000D02*
X23797408Y-19972408D01*
X57019654Y-22180346D02*
X60415000Y-18785000D01*
X21070000Y-14330000D02*
X21070000Y-14864458D01*
X23797408Y-19972408D02*
X23797408Y-21028353D01*
X21051713Y-11475264D02*
X20685000Y-11475264D01*
X21070000Y-14330000D02*
X21070000Y-14845000D01*
X21070000Y-11493551D02*
X21051713Y-11475264D01*
X60415000Y-13585000D02*
X56840000Y-10010000D01*
X21070000Y-14330000D02*
X21070000Y-11493551D01*
X23797408Y-21028353D02*
X24949401Y-22180346D01*
X24949401Y-22180346D02*
X57019654Y-22180346D01*
X56840000Y-10010000D02*
X56040000Y-10010000D01*
X21594394Y-15304000D02*
X22336000Y-16045606D01*
X22336000Y-16045606D02*
X22336000Y-18511000D01*
X21529000Y-15304000D02*
X21594394Y-15304000D01*
%TO.N,/KEY_UP*%
X22404000Y-20508625D02*
X22404000Y-19679000D01*
X22532408Y-20637033D02*
X22404000Y-20508625D01*
X21070000Y-18345000D02*
X21070000Y-16870000D01*
X35044000Y-20316346D02*
X34975000Y-20385346D01*
X22404000Y-19679000D02*
X21070000Y-18345000D01*
X35991414Y-8808999D02*
X35044000Y-9756413D01*
X35044000Y-9756413D02*
X35044000Y-20316346D01*
X22532408Y-20639812D02*
X22532408Y-20637033D01*
%TO.N,/SPI_CS0*%
X43145449Y-6836532D02*
X39066322Y-2757405D01*
X47736000Y-12705606D02*
X47716000Y-12685606D01*
X47775000Y-15193394D02*
X47736000Y-15154394D01*
X46556666Y-8654319D02*
X45446015Y-7543669D01*
X21425000Y-9875000D02*
X21400000Y-9875000D01*
X23610000Y-16419046D02*
X22344000Y-15153046D01*
X33413679Y-1934000D02*
X33314679Y-2033000D01*
X39066322Y-2743907D02*
X38325303Y-2002888D01*
X38325303Y-2002888D02*
X38311805Y-2002888D01*
X23610000Y-16870000D02*
X23610000Y-16419046D01*
X39066322Y-2757405D02*
X39066322Y-2743907D01*
X46556666Y-9884363D02*
X46556666Y-8654319D01*
X49010000Y-16870000D02*
X47775000Y-15635000D01*
X20253143Y-6204097D02*
X20253143Y-5387276D01*
X45446015Y-7543669D02*
X43854000Y-7543669D01*
X47736000Y-15154394D02*
X47736000Y-12705606D01*
X20148450Y-8623450D02*
X20148450Y-6308790D01*
X21400000Y-9875000D02*
X20148450Y-8623450D01*
X22344000Y-10794000D02*
X21425000Y-9875000D01*
X43146863Y-6836532D02*
X43145449Y-6836532D01*
X38311805Y-2002888D02*
X38242917Y-1934000D01*
X47716000Y-11043697D02*
X46556666Y-9884363D01*
X43854000Y-7543669D02*
X43146863Y-6836532D01*
X47716000Y-12685606D02*
X47716000Y-11043697D01*
X38242917Y-1934000D02*
X33413679Y-1934000D01*
X33132679Y-2215000D02*
X33314679Y-2033000D01*
X20148450Y-6308790D02*
X20253143Y-6204097D01*
X22344000Y-15153046D02*
X22344000Y-10794000D01*
X47775000Y-15635000D02*
X47775000Y-15193394D01*
X20253143Y-5387276D02*
X23425419Y-2215000D01*
X23425419Y-2215000D02*
X33132679Y-2215000D01*
%TO.N,/SPI_SCLK*%
X44651669Y-6913669D02*
X42405364Y-4667364D01*
X47186666Y-9448666D02*
X47186666Y-8393365D01*
X26150000Y-14330000D02*
X26150000Y-12140954D01*
X42405364Y-3162704D02*
X42293802Y-3051142D01*
X51550000Y-14330000D02*
X51550000Y-13812000D01*
X45706969Y-6913669D02*
X44651669Y-6913669D01*
X47186666Y-8393365D02*
X45706969Y-6913669D01*
X26150000Y-12140954D02*
X23810000Y-9800954D01*
X23810000Y-8633583D02*
X21511358Y-6334941D01*
X23810000Y-9800954D02*
X23810000Y-8633583D01*
X51550000Y-13812000D02*
X47186666Y-9448666D01*
X42405364Y-4667364D02*
X42405364Y-3162704D01*
%TO.N,/KEY_X*%
X42664000Y-10823999D02*
X42050396Y-10210395D01*
X42050396Y-10210395D02*
X42050396Y-9926678D01*
X42664000Y-15604000D02*
X42664000Y-10823999D01*
X43930000Y-16870000D02*
X42664000Y-15604000D01*
%TO.N,/KEY_B*%
X41390000Y-11055263D02*
X41390000Y-14330000D01*
X40300000Y-9965263D02*
X41390000Y-11055263D01*
X40300000Y-8600000D02*
X40300000Y-9965263D01*
%TO.N,/SPI_MOSI*%
X27424000Y-12715020D02*
X27415000Y-12706019D01*
X27415000Y-9797470D02*
X23756430Y-6138900D01*
X27415000Y-12706019D02*
X27415000Y-9797470D01*
X23756430Y-6138900D02*
X23401219Y-6138900D01*
X50815000Y-20610000D02*
X50649163Y-20610000D01*
X51550000Y-16870000D02*
X51550000Y-19875000D01*
X27424000Y-15596000D02*
X27424000Y-12715020D01*
X27176672Y-17896672D02*
X27176672Y-19038331D01*
X51550000Y-19875000D02*
X50815000Y-20610000D01*
X27176672Y-19038331D02*
X27562141Y-19423800D01*
X26150000Y-16870000D02*
X27424000Y-15596000D01*
X26150000Y-16870000D02*
X27176672Y-17896672D01*
%TO.N,/KEY_RIGHT*%
X43930000Y-11820000D02*
X44424293Y-11325707D01*
X43930000Y-14330000D02*
X43930000Y-11820000D01*
%TO.N,/SPI_MISO*%
X24876000Y-15596000D02*
X23610000Y-14330000D01*
X50284000Y-18591000D02*
X47324654Y-21550346D01*
X23610000Y-10644045D02*
X22906000Y-9940045D01*
X49010000Y-14410000D02*
X50284000Y-15684000D01*
X49010000Y-14330000D02*
X49010000Y-14410000D01*
X25228838Y-21550346D02*
X24427408Y-20748916D01*
X24427408Y-20748916D02*
X24427408Y-19678810D01*
X23610000Y-14330000D02*
X23610000Y-10644045D01*
X22906000Y-9940045D02*
X22906000Y-9483676D01*
X24876000Y-19230218D02*
X24876000Y-15596000D01*
X24427408Y-19678810D02*
X24876000Y-19230218D01*
X50284000Y-15684000D02*
X50284000Y-18591000D01*
X21655735Y-8233411D02*
X21585241Y-8233411D01*
X22906000Y-9483676D02*
X21655735Y-8233411D01*
X47324654Y-21550346D02*
X25228838Y-21550346D01*
%TO.N,/KEY_LEFT*%
X44660666Y-9771685D02*
X44660666Y-9439669D01*
X45204000Y-12336395D02*
X45690293Y-11850102D01*
X45690293Y-10801312D02*
X44660666Y-9771685D01*
X46470000Y-16870000D02*
X45204000Y-15604000D01*
X45204000Y-15604000D02*
X45204000Y-12336395D01*
X45690293Y-11850102D02*
X45690293Y-10801312D01*
%TO.N,/KEY_Y*%
X45925666Y-10145731D02*
X45925666Y-8915688D01*
X45184647Y-8174669D02*
X42694605Y-8174669D01*
X45925666Y-8915688D02*
X45184647Y-8174669D01*
X46470000Y-10690065D02*
X45925666Y-10145731D01*
X42694605Y-8174669D02*
X42622468Y-8102532D01*
X46470000Y-14330000D02*
X46470000Y-10690065D01*
%TO.N,/KEY_A*%
X40116000Y-15154394D02*
X40116000Y-12705606D01*
X40096000Y-15174394D02*
X40116000Y-15154394D01*
X40116000Y-12705606D02*
X39374394Y-11964000D01*
X39374394Y-11964000D02*
X39346110Y-11964000D01*
X39346110Y-11964000D02*
X37776276Y-10394166D01*
X37776276Y-3292934D02*
X37801322Y-3267888D01*
X37776276Y-10394166D02*
X37776276Y-3292934D01*
X41390000Y-16870000D02*
X40096000Y-15576000D01*
X40096000Y-15576000D02*
X40096000Y-15174394D01*
%TO.N,/KEY_DOWN*%
X28272845Y-20588800D02*
X29950000Y-18911645D01*
X29956000Y-18494394D02*
X29956000Y-10007424D01*
X19796000Y-15596000D02*
X19796000Y-19045420D01*
X27079582Y-20588800D02*
X28272845Y-20588800D01*
X29950000Y-18500394D02*
X29956000Y-18494394D01*
X26777221Y-20286439D02*
X27079582Y-20588800D01*
X25776056Y-20286439D02*
X26777221Y-20286439D01*
X29950000Y-18911645D02*
X29950000Y-18500394D01*
X18530000Y-14330000D02*
X19796000Y-15596000D01*
X19796000Y-19045420D02*
X20547254Y-19796674D01*
X25692408Y-20202791D02*
X25776056Y-20286439D01*
X29956000Y-10007424D02*
X30524424Y-9439000D01*
%TO.N,/UART_TX*%
X35527433Y-7543999D02*
X36355395Y-6716037D01*
X35467433Y-7543999D02*
X35527433Y-7543999D01*
X34726414Y-8345018D02*
X34726414Y-8285018D01*
X35983618Y-5042258D02*
X35983618Y-5028146D01*
X32565000Y-12644606D02*
X32565000Y-10506432D01*
X32504000Y-15596000D02*
X32504000Y-12705606D01*
X36355395Y-6716037D02*
X36355395Y-5414035D01*
X34726414Y-8285018D02*
X35467433Y-7543999D01*
X31230000Y-16870000D02*
X32504000Y-15596000D01*
X32565000Y-10506432D02*
X34726414Y-8345018D01*
X36355395Y-5414035D02*
X35983618Y-5042258D01*
X32504000Y-12705606D02*
X32565000Y-12644606D01*
%TO.N,/I2C_SDA*%
X15990000Y-16870000D02*
X17256000Y-15604000D01*
D20*
X13450000Y-16870000D02*
X15990000Y-16870000D01*
D21*
X17256000Y-15604000D02*
X17256000Y-8310286D01*
X19623143Y-3945692D02*
X19015883Y-3338432D01*
X17256000Y-8310286D02*
X19623143Y-5943143D01*
X19623143Y-5943143D02*
X19623143Y-3945692D01*
%TO.N,/I2C_SCL*%
X16550000Y-6881378D02*
X18323566Y-5107812D01*
X15990000Y-14330000D02*
X16550000Y-13770000D01*
X16550000Y-13770000D02*
X16550000Y-6881378D01*
D20*
X13450000Y-14330000D02*
X15990000Y-14330000D01*
D21*
%TO.N,/UART_RX*%
X31230000Y-13088651D02*
X31934000Y-12384651D01*
X31934000Y-12384651D02*
X31934000Y-8977019D01*
X31230000Y-14330000D02*
X31230000Y-13088651D01*
X31934000Y-8977019D02*
X34453967Y-6457052D01*
X34715898Y-6457052D02*
X34723125Y-6449825D01*
X34453967Y-6457052D02*
X34715898Y-6457052D01*
%TO.N,/AUDIO*%
X28625000Y-14265000D02*
X28690000Y-14330000D01*
X28046000Y-12444651D02*
X28046000Y-9537516D01*
X28690000Y-14330000D02*
X28690000Y-13088651D01*
X28046000Y-9537516D02*
X24666141Y-6157657D01*
X28690000Y-13088651D02*
X28046000Y-12444651D01*
X28690000Y-14330000D02*
X28690000Y-16870000D01*
X24666141Y-3871880D02*
X24594982Y-3800721D01*
X24666141Y-6157657D02*
X24666141Y-3871880D01*
%TD*%
%TA.AperFunction,Conductor*%
%TO.N,/GND*%
G36*
X18138825Y-420185D02*
G01*
X18184580Y-472989D01*
X18194524Y-542147D01*
X18165499Y-605703D01*
X18159467Y-612181D01*
X18085608Y-686040D01*
X10210538Y-8561108D01*
X10210537Y-8561109D01*
X10186090Y-8597697D01*
X10186085Y-8597704D01*
X10183382Y-8601751D01*
X10111987Y-8708601D01*
X10080697Y-8784142D01*
X10077900Y-8790894D01*
X10077898Y-8790898D01*
X10044105Y-8872481D01*
X10044103Y-8872489D01*
X10010288Y-9042488D01*
X10010289Y-9042489D01*
X10009500Y-9046455D01*
X10009500Y-12556859D01*
X9989815Y-12623898D01*
X9985818Y-12629745D01*
X9968770Y-12653207D01*
X9968769Y-12653210D01*
X9890128Y-12807552D01*
X9836597Y-12972302D01*
X9811988Y-13127682D01*
X9809500Y-13143389D01*
X9809500Y-14716611D01*
X9811988Y-14732317D01*
X9835934Y-14883512D01*
X9836598Y-14887701D01*
X9890127Y-15052445D01*
X9968768Y-15206788D01*
X9985818Y-15230255D01*
X10009298Y-15296058D01*
X10009500Y-15303140D01*
X10009500Y-15896859D01*
X9989815Y-15963898D01*
X9985818Y-15969745D01*
X9968770Y-15993207D01*
X9968769Y-15993210D01*
X9890128Y-16147552D01*
X9836597Y-16312302D01*
X9827459Y-16370000D01*
X9809500Y-16483389D01*
X9809500Y-18056611D01*
X9836598Y-18227701D01*
X9890127Y-18392445D01*
X9968768Y-18546788D01*
X10070586Y-18686928D01*
X10193072Y-18809414D01*
X10333212Y-18911232D01*
X10487555Y-18989873D01*
X10652299Y-19043402D01*
X10823389Y-19070500D01*
X10823390Y-19070500D01*
X10996610Y-19070500D01*
X10996611Y-19070500D01*
X11167701Y-19043402D01*
X11332445Y-18989873D01*
X11486788Y-18911232D01*
X11626928Y-18809414D01*
X11749414Y-18686928D01*
X11851232Y-18546788D01*
X11929873Y-18392445D01*
X11983402Y-18227701D01*
X12010500Y-18056611D01*
X12010500Y-16483389D01*
X11983402Y-16312299D01*
X11929873Y-16147555D01*
X11851232Y-15993212D01*
X11851229Y-15993208D01*
X11851229Y-15993207D01*
X11834182Y-15969745D01*
X11810702Y-15903939D01*
X11810500Y-15896859D01*
X11810500Y-15303140D01*
X11830185Y-15236101D01*
X11834164Y-15230279D01*
X11851232Y-15206788D01*
X11929873Y-15052445D01*
X11983402Y-14887701D01*
X12010500Y-14716611D01*
X12010500Y-13143389D01*
X11983402Y-12972299D01*
X11929873Y-12807555D01*
X11851232Y-12653212D01*
X11851229Y-12653208D01*
X11851229Y-12653207D01*
X11834182Y-12629745D01*
X11810702Y-12563939D01*
X11810500Y-12556859D01*
X11810500Y-9559509D01*
X11830185Y-9492470D01*
X11846819Y-9471828D01*
X14408491Y-6910156D01*
X16988901Y-4329745D01*
X17050222Y-4296262D01*
X17119914Y-4301246D01*
X17175847Y-4343118D01*
X17200264Y-4408582D01*
X17187065Y-4473722D01*
X17118348Y-4608585D01*
X17055088Y-4803277D01*
X17023066Y-5005460D01*
X17023066Y-5210163D01*
X17048320Y-5369609D01*
X17039365Y-5438902D01*
X17013528Y-5476688D01*
X16033074Y-6457143D01*
X16033073Y-6457144D01*
X15960241Y-6566147D01*
X15910075Y-6687258D01*
X15910073Y-6687266D01*
X15887543Y-6800530D01*
X15887543Y-6800536D01*
X15884500Y-6815832D01*
X15884500Y-6815835D01*
X15884500Y-12026585D01*
X15864815Y-12093624D01*
X15812011Y-12139379D01*
X15779900Y-12149058D01*
X15732300Y-12156597D01*
X15567552Y-12210128D01*
X15413211Y-12288768D01*
X15333256Y-12346859D01*
X15273072Y-12390586D01*
X15273070Y-12390588D01*
X15273069Y-12390588D01*
X15150588Y-12513069D01*
X15150588Y-12513070D01*
X15150586Y-12513072D01*
X15124737Y-12548650D01*
X15048768Y-12653211D01*
X14970128Y-12807552D01*
X14916597Y-12972302D01*
X14889500Y-13143389D01*
X14889500Y-13305500D01*
X14886949Y-13314185D01*
X14888238Y-13323147D01*
X14877259Y-13347187D01*
X14869815Y-13372539D01*
X14862974Y-13378466D01*
X14859213Y-13386703D01*
X14836978Y-13400992D01*
X14817011Y-13418294D01*
X14806496Y-13420581D01*
X14800435Y-13424477D01*
X14765500Y-13429500D01*
X14674500Y-13429500D01*
X14607461Y-13409815D01*
X14561706Y-13357011D01*
X14550500Y-13305500D01*
X14550500Y-13143389D01*
X14523402Y-12972302D01*
X14523402Y-12972299D01*
X14469873Y-12807555D01*
X14391232Y-12653212D01*
X14289414Y-12513072D01*
X14166928Y-12390586D01*
X14026788Y-12288768D01*
X13872445Y-12210127D01*
X13707701Y-12156598D01*
X13707699Y-12156597D01*
X13707698Y-12156597D01*
X13555495Y-12132491D01*
X13536611Y-12129500D01*
X13363389Y-12129500D01*
X13344505Y-12132491D01*
X13192302Y-12156597D01*
X13027552Y-12210128D01*
X12873211Y-12288768D01*
X12793256Y-12346859D01*
X12733072Y-12390586D01*
X12733070Y-12390588D01*
X12733069Y-12390588D01*
X12610588Y-12513069D01*
X12610588Y-12513070D01*
X12610586Y-12513072D01*
X12584737Y-12548650D01*
X12508768Y-12653211D01*
X12430128Y-12807552D01*
X12376597Y-12972302D01*
X12351988Y-13127682D01*
X12349500Y-13143389D01*
X12349500Y-14716611D01*
X12351988Y-14732317D01*
X12375934Y-14883512D01*
X12376598Y-14887701D01*
X12430127Y-15052445D01*
X12508768Y-15206788D01*
X12610586Y-15346928D01*
X12610588Y-15346930D01*
X12733072Y-15469414D01*
X12774733Y-15499683D01*
X12817398Y-15555013D01*
X12823376Y-15624627D01*
X12790769Y-15686421D01*
X12774733Y-15700317D01*
X12733072Y-15730585D01*
X12610588Y-15853069D01*
X12610588Y-15853070D01*
X12610586Y-15853072D01*
X12578773Y-15896859D01*
X12508768Y-15993211D01*
X12430128Y-16147552D01*
X12376597Y-16312302D01*
X12367459Y-16370000D01*
X12349500Y-16483389D01*
X12349500Y-18056611D01*
X12376598Y-18227701D01*
X12430127Y-18392445D01*
X12508768Y-18546788D01*
X12610586Y-18686928D01*
X12733072Y-18809414D01*
X12873212Y-18911232D01*
X13027555Y-18989873D01*
X13192299Y-19043402D01*
X13363389Y-19070500D01*
X13363390Y-19070500D01*
X13536610Y-19070500D01*
X13536611Y-19070500D01*
X13707701Y-19043402D01*
X13872445Y-18989873D01*
X14026788Y-18911232D01*
X14166928Y-18809414D01*
X14289414Y-18686928D01*
X14391232Y-18546788D01*
X14469873Y-18392445D01*
X14523402Y-18227701D01*
X14550500Y-18056611D01*
X14550500Y-17894500D01*
X14553050Y-17885814D01*
X14551762Y-17876853D01*
X14562740Y-17852812D01*
X14570185Y-17827461D01*
X14577025Y-17821533D01*
X14580787Y-17813297D01*
X14603021Y-17799007D01*
X14622989Y-17781706D01*
X14633503Y-17779418D01*
X14639565Y-17775523D01*
X14674500Y-17770500D01*
X14765500Y-17770500D01*
X14832539Y-17790185D01*
X14878294Y-17842989D01*
X14889500Y-17894500D01*
X14889500Y-18056611D01*
X14916598Y-18227701D01*
X14970127Y-18392445D01*
X15048768Y-18546788D01*
X15150586Y-18686928D01*
X15273072Y-18809414D01*
X15413212Y-18911232D01*
X15567555Y-18989873D01*
X15732299Y-19043402D01*
X15903389Y-19070500D01*
X15903390Y-19070500D01*
X16076610Y-19070500D01*
X16076611Y-19070500D01*
X16247701Y-19043402D01*
X16412445Y-18989873D01*
X16566788Y-18911232D01*
X16706928Y-18809414D01*
X16829414Y-18686928D01*
X16931232Y-18546788D01*
X17009873Y-18392445D01*
X17063402Y-18227701D01*
X17090500Y-18056611D01*
X17090500Y-16762020D01*
X17099144Y-16732579D01*
X17105668Y-16702593D01*
X17109422Y-16697577D01*
X17110185Y-16694981D01*
X17126815Y-16674343D01*
X17217820Y-16583338D01*
X17279142Y-16549854D01*
X17348834Y-16554838D01*
X17404767Y-16596710D01*
X17429184Y-16662174D01*
X17429500Y-16671020D01*
X17429500Y-18056611D01*
X17456598Y-18227701D01*
X17510127Y-18392445D01*
X17588768Y-18546788D01*
X17690586Y-18686928D01*
X17813072Y-18809414D01*
X17953212Y-18911232D01*
X18107555Y-18989873D01*
X18272299Y-19043402D01*
X18443389Y-19070500D01*
X18443390Y-19070500D01*
X18616610Y-19070500D01*
X18616611Y-19070500D01*
X18787701Y-19043402D01*
X18952445Y-18989873D01*
X18952448Y-18989870D01*
X18952452Y-18989870D01*
X18956954Y-18988006D01*
X18957625Y-18989626D01*
X19018852Y-18978116D01*
X19083597Y-19004380D01*
X19123864Y-19061479D01*
X19130500Y-19101499D01*
X19130500Y-19110967D01*
X19130500Y-19110969D01*
X19130499Y-19110969D01*
X19156073Y-19239533D01*
X19156075Y-19239539D01*
X19206242Y-19360652D01*
X19254750Y-19433251D01*
X19275627Y-19499928D01*
X19274120Y-19521538D01*
X19246754Y-19694322D01*
X19246754Y-19899025D01*
X19278776Y-20101208D01*
X19342035Y-20295897D01*
X19387071Y-20384283D01*
X19425620Y-20459940D01*
X19434969Y-20478287D01*
X19555282Y-20643887D01*
X19700040Y-20788645D01*
X19832452Y-20884846D01*
X19865644Y-20908961D01*
X19949473Y-20951674D01*
X20048030Y-21001892D01*
X20048032Y-21001892D01*
X20048035Y-21001894D01*
X20150097Y-21035056D01*
X20242719Y-21065151D01*
X20343811Y-21081162D01*
X20444902Y-21097174D01*
X20444903Y-21097174D01*
X20649605Y-21097174D01*
X20649606Y-21097174D01*
X20851788Y-21065151D01*
X21046473Y-21001894D01*
X21119725Y-20964569D01*
X21188394Y-20951674D01*
X21253134Y-20977950D01*
X21293392Y-21035056D01*
X21293936Y-21036692D01*
X21327188Y-21139031D01*
X21418358Y-21317962D01*
X21420123Y-21321425D01*
X21540436Y-21487025D01*
X21685194Y-21631783D01*
X21818367Y-21728537D01*
X21850798Y-21752099D01*
X21967015Y-21811315D01*
X22033184Y-21845030D01*
X22033186Y-21845030D01*
X22033189Y-21845032D01*
X22121550Y-21873742D01*
X22214411Y-21903915D01*
X22272086Y-21943353D01*
X22299284Y-22007712D01*
X22287369Y-22076558D01*
X22240125Y-22128034D01*
X22176092Y-22145846D01*
X22010523Y-22145846D01*
X22010523Y-25475500D01*
X21990838Y-25542539D01*
X21938034Y-25588294D01*
X21886523Y-25599500D01*
X524500Y-25599500D01*
X457461Y-25579815D01*
X411706Y-25527011D01*
X400500Y-25475500D01*
X400500Y-22385921D01*
X1759500Y-22385921D01*
X1759500Y-22614078D01*
X1789278Y-22840272D01*
X1789279Y-22840277D01*
X1789280Y-22840283D01*
X1806033Y-22902807D01*
X1848331Y-23060666D01*
X1935638Y-23271446D01*
X1935646Y-23271462D01*
X2049717Y-23469037D01*
X2049728Y-23469053D01*
X2188613Y-23650052D01*
X2188619Y-23650059D01*
X2349940Y-23811380D01*
X2349946Y-23811385D01*
X2530955Y-23950278D01*
X2530962Y-23950282D01*
X2728537Y-24064353D01*
X2728553Y-24064361D01*
X2842268Y-24111463D01*
X2939334Y-24151669D01*
X3159717Y-24210720D01*
X3319474Y-24231752D01*
X3385921Y-24240500D01*
X3385922Y-24240500D01*
X3614079Y-24240500D01*
X3665438Y-24233738D01*
X3840283Y-24210720D01*
X4060666Y-24151669D01*
X4226365Y-24083033D01*
X4271446Y-24064361D01*
X4271449Y-24064359D01*
X4271455Y-24064357D01*
X4469045Y-23950278D01*
X4650054Y-23811385D01*
X4811385Y-23650054D01*
X4950278Y-23469045D01*
X5064357Y-23271455D01*
X5151669Y-23060666D01*
X5210720Y-22840283D01*
X5240500Y-22614078D01*
X5240500Y-22385922D01*
X5210720Y-22159717D01*
X5151669Y-21939334D01*
X5111463Y-21842268D01*
X5064361Y-21728553D01*
X5064353Y-21728537D01*
X4950282Y-21530962D01*
X4950278Y-21530955D01*
X4811385Y-21349946D01*
X4811380Y-21349940D01*
X4650059Y-21188619D01*
X4650052Y-21188613D01*
X4469053Y-21049728D01*
X4469051Y-21049726D01*
X4469045Y-21049722D01*
X4469040Y-21049719D01*
X4469037Y-21049717D01*
X4271462Y-20935646D01*
X4271446Y-20935638D01*
X4060666Y-20848331D01*
X4052631Y-20846178D01*
X3840283Y-20789280D01*
X3840277Y-20789279D01*
X3840272Y-20789278D01*
X3614079Y-20759500D01*
X3614078Y-20759500D01*
X3385922Y-20759500D01*
X3385921Y-20759500D01*
X3159727Y-20789278D01*
X3159720Y-20789279D01*
X3159717Y-20789280D01*
X3073592Y-20812357D01*
X2939333Y-20848331D01*
X2728553Y-20935638D01*
X2728537Y-20935646D01*
X2530962Y-21049717D01*
X2530946Y-21049728D01*
X2349947Y-21188613D01*
X2349940Y-21188619D01*
X2188619Y-21349940D01*
X2188613Y-21349947D01*
X2049728Y-21530946D01*
X2049717Y-21530962D01*
X1935646Y-21728537D01*
X1935638Y-21728553D01*
X1848331Y-21939333D01*
X1830009Y-22007712D01*
X1793082Y-22145530D01*
X1789281Y-22159714D01*
X1789278Y-22159727D01*
X1759500Y-22385921D01*
X400500Y-22385921D01*
X400500Y-16180552D01*
X791558Y-16180552D01*
X3049936Y-16180552D01*
X3049936Y-13143389D01*
X7269500Y-13143389D01*
X7269500Y-14716611D01*
X7271988Y-14732317D01*
X7295934Y-14883512D01*
X7296598Y-14887701D01*
X7350127Y-15052445D01*
X7428768Y-15206788D01*
X7501897Y-15307442D01*
X7525377Y-15373246D01*
X7509552Y-15441300D01*
X7459446Y-15489995D01*
X7451666Y-15493760D01*
X7397234Y-15517794D01*
X7317794Y-15597234D01*
X7272415Y-15700006D01*
X7272415Y-15700008D01*
X7269500Y-15725131D01*
X7269500Y-18814856D01*
X7269502Y-18814882D01*
X7272413Y-18839987D01*
X7272415Y-18839991D01*
X7317793Y-18942764D01*
X7317794Y-18942765D01*
X7397235Y-19022206D01*
X7500009Y-19067585D01*
X7525135Y-19070500D01*
X9214864Y-19070499D01*
X9214879Y-19070497D01*
X9214882Y-19070497D01*
X9239987Y-19067586D01*
X9239988Y-19067585D01*
X9239991Y-19067585D01*
X9342765Y-19022206D01*
X9422206Y-18942765D01*
X9467585Y-18839991D01*
X9470500Y-18814865D01*
X9470499Y-15725136D01*
X9470264Y-15723110D01*
X9467586Y-15700012D01*
X9467585Y-15700010D01*
X9467585Y-15700009D01*
X9422206Y-15597235D01*
X9342765Y-15517794D01*
X9288333Y-15493760D01*
X9234957Y-15448674D01*
X9214430Y-15381888D01*
X9233268Y-15314606D01*
X9238083Y-15307468D01*
X9311232Y-15206788D01*
X9389873Y-15052445D01*
X9443402Y-14887701D01*
X9470500Y-14716611D01*
X9470500Y-13143389D01*
X9443402Y-12972299D01*
X9389873Y-12807555D01*
X9311232Y-12653212D01*
X9209414Y-12513072D01*
X9086928Y-12390586D01*
X8946788Y-12288768D01*
X8792445Y-12210127D01*
X8627701Y-12156598D01*
X8627699Y-12156597D01*
X8627698Y-12156597D01*
X8475495Y-12132491D01*
X8456611Y-12129500D01*
X8283389Y-12129500D01*
X8264505Y-12132491D01*
X8112302Y-12156597D01*
X7947552Y-12210128D01*
X7793211Y-12288768D01*
X7713256Y-12346859D01*
X7653072Y-12390586D01*
X7653070Y-12390588D01*
X7653069Y-12390588D01*
X7530588Y-12513069D01*
X7530588Y-12513070D01*
X7530586Y-12513072D01*
X7504737Y-12548650D01*
X7428768Y-12653211D01*
X7350128Y-12807552D01*
X7296597Y-12972302D01*
X7271988Y-13127682D01*
X7269500Y-13143389D01*
X3049936Y-13143389D01*
X3049936Y-8167451D01*
X791558Y-8167451D01*
X791558Y-16180552D01*
X400500Y-16180552D01*
X400500Y-3385921D01*
X1759500Y-3385921D01*
X1759500Y-3614078D01*
X1789278Y-3840272D01*
X1789279Y-3840277D01*
X1789280Y-3840283D01*
X1812394Y-3926547D01*
X1848331Y-4060666D01*
X1935638Y-4271446D01*
X1935646Y-4271462D01*
X2049717Y-4469037D01*
X2049728Y-4469053D01*
X2188613Y-4650052D01*
X2188619Y-4650059D01*
X2349940Y-4811380D01*
X2349947Y-4811386D01*
X2426886Y-4870423D01*
X2530955Y-4950278D01*
X2530962Y-4950282D01*
X2728537Y-5064353D01*
X2728553Y-5064361D01*
X2816004Y-5100584D01*
X2939334Y-5151669D01*
X3159717Y-5210720D01*
X3319474Y-5231752D01*
X3385921Y-5240500D01*
X3385922Y-5240500D01*
X3614079Y-5240500D01*
X3665438Y-5233738D01*
X3840283Y-5210720D01*
X4060666Y-5151669D01*
X4226365Y-5083033D01*
X4271446Y-5064361D01*
X4271449Y-5064359D01*
X4271455Y-5064357D01*
X4469045Y-4950278D01*
X4650054Y-4811385D01*
X4811385Y-4650054D01*
X4950278Y-4469045D01*
X5064357Y-4271455D01*
X5069163Y-4259854D01*
X5111658Y-4157260D01*
X5151669Y-4060666D01*
X5210720Y-3840283D01*
X5240500Y-3614078D01*
X5240500Y-3385922D01*
X5238435Y-3370240D01*
X5210721Y-3159727D01*
X5210720Y-3159717D01*
X5151669Y-2939334D01*
X5078990Y-2763871D01*
X5064361Y-2728553D01*
X5064353Y-2728537D01*
X4950282Y-2530962D01*
X4950278Y-2530955D01*
X4811385Y-2349946D01*
X4811380Y-2349940D01*
X4650059Y-2188619D01*
X4650052Y-2188613D01*
X4469053Y-2049728D01*
X4469051Y-2049726D01*
X4469045Y-2049722D01*
X4469040Y-2049719D01*
X4469037Y-2049717D01*
X4271462Y-1935646D01*
X4271446Y-1935638D01*
X4060666Y-1848331D01*
X3840283Y-1789280D01*
X3840277Y-1789279D01*
X3840272Y-1789278D01*
X3614079Y-1759500D01*
X3614078Y-1759500D01*
X3385922Y-1759500D01*
X3385921Y-1759500D01*
X3159727Y-1789278D01*
X3159720Y-1789279D01*
X3159717Y-1789280D01*
X3066567Y-1814239D01*
X2939333Y-1848331D01*
X2728553Y-1935638D01*
X2728537Y-1935646D01*
X2530962Y-2049717D01*
X2530946Y-2049728D01*
X2349947Y-2188613D01*
X2349940Y-2188619D01*
X2188619Y-2349940D01*
X2188613Y-2349947D01*
X2049728Y-2530946D01*
X2049717Y-2530962D01*
X1935646Y-2728537D01*
X1935638Y-2728553D01*
X1848331Y-2939333D01*
X1841895Y-2963353D01*
X1790948Y-3153494D01*
X1789281Y-3159714D01*
X1789278Y-3159727D01*
X1759500Y-3385921D01*
X400500Y-3385921D01*
X400500Y-524500D01*
X420185Y-457461D01*
X472989Y-411706D01*
X524500Y-400500D01*
X18071786Y-400500D01*
X18138825Y-420185D01*
G37*
%TD.AperFunction*%
%TA.AperFunction,Conductor*%
G36*
X64542539Y-420185D02*
G01*
X64588294Y-472989D01*
X64599500Y-524500D01*
X64599500Y-25475500D01*
X64579815Y-25542539D01*
X64527011Y-25588294D01*
X64475500Y-25599500D01*
X42953191Y-25599500D01*
X42886152Y-25579815D01*
X42840397Y-25527011D01*
X42829191Y-25475500D01*
X42829191Y-22969846D01*
X42848876Y-22902807D01*
X42901680Y-22857052D01*
X42953191Y-22845846D01*
X57085203Y-22845846D01*
X57171698Y-22828640D01*
X57213773Y-22820271D01*
X57334886Y-22770104D01*
X57443886Y-22697274D01*
X57527082Y-22614078D01*
X57755240Y-22385921D01*
X59759500Y-22385921D01*
X59759500Y-22614078D01*
X59789278Y-22840272D01*
X59789279Y-22840277D01*
X59789280Y-22840283D01*
X59806033Y-22902807D01*
X59848331Y-23060666D01*
X59935638Y-23271446D01*
X59935646Y-23271462D01*
X60049717Y-23469037D01*
X60049728Y-23469053D01*
X60188613Y-23650052D01*
X60188619Y-23650059D01*
X60349940Y-23811380D01*
X60349946Y-23811385D01*
X60530955Y-23950278D01*
X60530962Y-23950282D01*
X60728537Y-24064353D01*
X60728553Y-24064361D01*
X60842268Y-24111463D01*
X60939334Y-24151669D01*
X61159717Y-24210720D01*
X61319474Y-24231752D01*
X61385921Y-24240500D01*
X61385922Y-24240500D01*
X61614079Y-24240500D01*
X61665438Y-24233738D01*
X61840283Y-24210720D01*
X62060666Y-24151669D01*
X62226365Y-24083033D01*
X62271446Y-24064361D01*
X62271449Y-24064359D01*
X62271455Y-24064357D01*
X62469045Y-23950278D01*
X62650054Y-23811385D01*
X62811385Y-23650054D01*
X62950278Y-23469045D01*
X63064357Y-23271455D01*
X63151669Y-23060666D01*
X63210720Y-22840283D01*
X63240500Y-22614078D01*
X63240500Y-22385922D01*
X63210720Y-22159717D01*
X63151669Y-21939334D01*
X63111463Y-21842268D01*
X63064361Y-21728553D01*
X63064353Y-21728537D01*
X62950282Y-21530962D01*
X62950278Y-21530955D01*
X62811385Y-21349946D01*
X62811380Y-21349940D01*
X62650059Y-21188619D01*
X62650052Y-21188613D01*
X62469053Y-21049728D01*
X62469051Y-21049726D01*
X62469045Y-21049722D01*
X62469040Y-21049719D01*
X62469037Y-21049717D01*
X62271462Y-20935646D01*
X62271446Y-20935638D01*
X62060666Y-20848331D01*
X62052631Y-20846178D01*
X61840283Y-20789280D01*
X61840277Y-20789279D01*
X61840272Y-20789278D01*
X61614079Y-20759500D01*
X61614078Y-20759500D01*
X61385922Y-20759500D01*
X61385921Y-20759500D01*
X61159727Y-20789278D01*
X61159720Y-20789279D01*
X61159717Y-20789280D01*
X61073592Y-20812357D01*
X60939333Y-20848331D01*
X60728553Y-20935638D01*
X60728537Y-20935646D01*
X60530962Y-21049717D01*
X60530946Y-21049728D01*
X60349947Y-21188613D01*
X60349940Y-21188619D01*
X60188619Y-21349940D01*
X60188613Y-21349947D01*
X60049728Y-21530946D01*
X60049717Y-21530962D01*
X59935646Y-21728537D01*
X59935638Y-21728553D01*
X59848331Y-21939333D01*
X59830009Y-22007712D01*
X59793082Y-22145530D01*
X59789281Y-22159714D01*
X59789278Y-22159727D01*
X59759500Y-22385921D01*
X57755240Y-22385921D01*
X57846979Y-22294182D01*
X60931924Y-19209235D01*
X60931923Y-19209235D01*
X60931927Y-19209232D01*
X61004758Y-19100233D01*
X61018282Y-19067584D01*
X61031323Y-19036100D01*
X61031323Y-19036099D01*
X61032002Y-19034460D01*
X61054925Y-18979119D01*
X61080500Y-18850546D01*
X61080500Y-13519454D01*
X61080500Y-13519451D01*
X61054926Y-13390886D01*
X61054925Y-13390885D01*
X61054925Y-13390881D01*
X61054923Y-13390876D01*
X61019253Y-13304760D01*
X61004761Y-13269773D01*
X61004754Y-13269760D01*
X60931927Y-13160768D01*
X60931924Y-13160764D01*
X57264237Y-9493076D01*
X57264234Y-9493073D01*
X57195609Y-9447220D01*
X57150804Y-9393608D01*
X57140500Y-9344118D01*
X57140500Y-9123389D01*
X57132497Y-9072862D01*
X57113402Y-8952299D01*
X57059873Y-8787555D01*
X56981232Y-8633212D01*
X56879414Y-8493072D01*
X56756928Y-8370586D01*
X56616788Y-8268768D01*
X56517968Y-8218417D01*
X56462447Y-8190128D01*
X56462446Y-8190127D01*
X56462445Y-8190127D01*
X56297701Y-8136598D01*
X56297699Y-8136597D01*
X56297698Y-8136597D01*
X56163439Y-8115333D01*
X56126611Y-8109500D01*
X55953389Y-8109500D01*
X55916561Y-8115333D01*
X55782302Y-8136597D01*
X55617552Y-8190128D01*
X55463211Y-8268768D01*
X55426465Y-8295466D01*
X55323072Y-8370586D01*
X55323070Y-8370588D01*
X55323069Y-8370588D01*
X55200588Y-8493069D01*
X55200588Y-8493070D01*
X55200586Y-8493072D01*
X55159497Y-8549626D01*
X55098768Y-8633211D01*
X55020128Y-8787552D01*
X54966597Y-8952300D01*
X54963193Y-8973796D01*
X54933263Y-9036930D01*
X54873951Y-9073860D01*
X54804088Y-9072862D01*
X54802403Y-9072327D01*
X54793965Y-9069585D01*
X53982962Y-9880588D01*
X53965925Y-9817007D01*
X53900099Y-9702993D01*
X53807007Y-9609901D01*
X53692993Y-9544075D01*
X53629410Y-9527037D01*
X54617238Y-8539209D01*
X54611858Y-8528649D01*
X54611856Y-8528646D01*
X54491582Y-8363105D01*
X54491582Y-8363104D01*
X54346895Y-8218417D01*
X54181349Y-8098140D01*
X53999031Y-8005244D01*
X53804417Y-7942009D01*
X53602317Y-7910000D01*
X53397683Y-7910000D01*
X53195582Y-7942009D01*
X53000968Y-8005244D01*
X52818650Y-8098140D01*
X52653105Y-8218417D01*
X52653104Y-8218417D01*
X52508417Y-8363104D01*
X52388136Y-8528656D01*
X52382759Y-8539206D01*
X52382760Y-8539208D01*
X53370589Y-9527037D01*
X53307007Y-9544075D01*
X53192993Y-9609901D01*
X53099901Y-9702993D01*
X53034075Y-9817007D01*
X53017037Y-9880588D01*
X52201198Y-9064749D01*
X52152976Y-9066127D01*
X52093143Y-9030046D01*
X52062315Y-8967345D01*
X52060499Y-8946201D01*
X52060499Y-8365143D01*
X52060499Y-8365136D01*
X52060497Y-8365117D01*
X52057586Y-8340012D01*
X52057585Y-8340010D01*
X52057585Y-8340009D01*
X52012206Y-8237235D01*
X51932765Y-8157794D01*
X51895351Y-8141274D01*
X51829992Y-8112415D01*
X51804868Y-8109500D01*
X51804865Y-8109500D01*
X50384362Y-8109500D01*
X50317323Y-8089815D01*
X50296681Y-8073181D01*
X49386819Y-7163319D01*
X49353334Y-7101996D01*
X49350500Y-7075638D01*
X49350500Y-4540047D01*
X49370185Y-4473008D01*
X49386819Y-4452366D01*
X49412983Y-4426202D01*
X49441966Y-4397219D01*
X49441968Y-4397215D01*
X49441971Y-4397213D01*
X49512643Y-4299940D01*
X49562287Y-4231610D01*
X49655220Y-4049219D01*
X49718477Y-3854534D01*
X49750500Y-3652352D01*
X49750500Y-3447648D01*
X49743153Y-3401261D01*
X49740723Y-3385921D01*
X59759500Y-3385921D01*
X59759500Y-3614078D01*
X59789278Y-3840272D01*
X59789279Y-3840277D01*
X59789280Y-3840283D01*
X59812394Y-3926547D01*
X59848331Y-4060666D01*
X59935638Y-4271446D01*
X59935646Y-4271462D01*
X60049717Y-4469037D01*
X60049728Y-4469053D01*
X60188613Y-4650052D01*
X60188619Y-4650059D01*
X60349940Y-4811380D01*
X60349947Y-4811386D01*
X60426886Y-4870423D01*
X60530955Y-4950278D01*
X60530962Y-4950282D01*
X60728537Y-5064353D01*
X60728553Y-5064361D01*
X60816004Y-5100584D01*
X60939334Y-5151669D01*
X61159717Y-5210720D01*
X61319474Y-5231752D01*
X61385921Y-5240500D01*
X61385922Y-5240500D01*
X61614079Y-5240500D01*
X61665438Y-5233738D01*
X61840283Y-5210720D01*
X62060666Y-5151669D01*
X62226365Y-5083033D01*
X62271446Y-5064361D01*
X62271449Y-5064359D01*
X62271455Y-5064357D01*
X62469045Y-4950278D01*
X62650054Y-4811385D01*
X62811385Y-4650054D01*
X62950278Y-4469045D01*
X63064357Y-4271455D01*
X63069163Y-4259854D01*
X63111658Y-4157260D01*
X63151669Y-4060666D01*
X63210720Y-3840283D01*
X63240500Y-3614078D01*
X63240500Y-3385922D01*
X63238435Y-3370240D01*
X63210721Y-3159727D01*
X63210720Y-3159717D01*
X63151669Y-2939334D01*
X63078990Y-2763871D01*
X63064361Y-2728553D01*
X63064353Y-2728537D01*
X62950282Y-2530962D01*
X62950278Y-2530955D01*
X62811385Y-2349946D01*
X62811380Y-2349940D01*
X62650059Y-2188619D01*
X62650052Y-2188613D01*
X62469053Y-2049728D01*
X62469051Y-2049726D01*
X62469045Y-2049722D01*
X62469040Y-2049719D01*
X62469037Y-2049717D01*
X62271462Y-1935646D01*
X62271446Y-1935638D01*
X62060666Y-1848331D01*
X61840283Y-1789280D01*
X61840277Y-1789279D01*
X61840272Y-1789278D01*
X61614079Y-1759500D01*
X61614078Y-1759500D01*
X61385922Y-1759500D01*
X61385921Y-1759500D01*
X61159727Y-1789278D01*
X61159720Y-1789279D01*
X61159717Y-1789280D01*
X61066567Y-1814239D01*
X60939333Y-1848331D01*
X60728553Y-1935638D01*
X60728537Y-1935646D01*
X60530962Y-2049717D01*
X60530946Y-2049728D01*
X60349947Y-2188613D01*
X60349940Y-2188619D01*
X60188619Y-2349940D01*
X60188613Y-2349947D01*
X60049728Y-2530946D01*
X60049717Y-2530962D01*
X59935646Y-2728537D01*
X59935638Y-2728553D01*
X59848331Y-2939333D01*
X59841895Y-2963353D01*
X59790948Y-3153494D01*
X59789281Y-3159714D01*
X59789278Y-3159727D01*
X59759500Y-3385921D01*
X49740723Y-3385921D01*
X49718477Y-3245465D01*
X49655218Y-3050776D01*
X49621503Y-2984607D01*
X49562287Y-2868390D01*
X49503528Y-2787514D01*
X49480048Y-2721708D01*
X49495874Y-2653654D01*
X49545979Y-2604959D01*
X49603846Y-2590629D01*
X58166809Y-2590629D01*
X58166809Y-524617D01*
X58171403Y-524617D01*
X58174510Y-481166D01*
X58216382Y-425233D01*
X58281846Y-400816D01*
X58290692Y-400500D01*
X64475500Y-400500D01*
X64542539Y-420185D01*
G37*
%TD.AperFunction*%
%TA.AperFunction,Conductor*%
G36*
X53034075Y-10202993D02*
G01*
X53099901Y-10317007D01*
X53192993Y-10410099D01*
X53307007Y-10475925D01*
X53370589Y-10492962D01*
X52382760Y-11480790D01*
X52382760Y-11480792D01*
X52388139Y-11491347D01*
X52508417Y-11656894D01*
X52508417Y-11656895D01*
X52653104Y-11801582D01*
X52818650Y-11921859D01*
X53000968Y-12014755D01*
X53195582Y-12077990D01*
X53398872Y-12110188D01*
X53462007Y-12140117D01*
X53498938Y-12199429D01*
X53497940Y-12269291D01*
X53459330Y-12327524D01*
X53452361Y-12332978D01*
X53373072Y-12390585D01*
X53250588Y-12513069D01*
X53250588Y-12513070D01*
X53250586Y-12513072D01*
X53224737Y-12548650D01*
X53148768Y-12653211D01*
X53070128Y-12807552D01*
X53016597Y-12972302D01*
X52991988Y-13127682D01*
X52989500Y-13143389D01*
X52989500Y-14716611D01*
X52991988Y-14732317D01*
X53015934Y-14883512D01*
X53016598Y-14887701D01*
X53070127Y-15052445D01*
X53148768Y-15206788D01*
X53250586Y-15346928D01*
X53250588Y-15346930D01*
X53373072Y-15469414D01*
X53414733Y-15499683D01*
X53457398Y-15555013D01*
X53463376Y-15624627D01*
X53430769Y-15686421D01*
X53414733Y-15700317D01*
X53373072Y-15730585D01*
X53250588Y-15853069D01*
X53250588Y-15853070D01*
X53250586Y-15853072D01*
X53218773Y-15896859D01*
X53148768Y-15993211D01*
X53070128Y-16147552D01*
X53016597Y-16312302D01*
X53007459Y-16370000D01*
X52989500Y-16483389D01*
X52989500Y-18056611D01*
X53016598Y-18227701D01*
X53070127Y-18392445D01*
X53148768Y-18546788D01*
X53250586Y-18686928D01*
X53373072Y-18809414D01*
X53513212Y-18911232D01*
X53667555Y-18989873D01*
X53832299Y-19043402D01*
X54003389Y-19070500D01*
X54003390Y-19070500D01*
X54176610Y-19070500D01*
X54176611Y-19070500D01*
X54347701Y-19043402D01*
X54512445Y-18989873D01*
X54666788Y-18911232D01*
X54806928Y-18809414D01*
X54916306Y-18700036D01*
X55553513Y-18700036D01*
X55638417Y-18816895D01*
X55783104Y-18961582D01*
X55948650Y-19081859D01*
X56130968Y-19174755D01*
X56325582Y-19237990D01*
X56527683Y-19270000D01*
X56732317Y-19270000D01*
X56934417Y-19237990D01*
X57129031Y-19174755D01*
X57311349Y-19081859D01*
X57476894Y-18961582D01*
X57476895Y-18961582D01*
X57621584Y-18816893D01*
X57706484Y-18700037D01*
X57706484Y-18700036D01*
X56630000Y-17623552D01*
X55553513Y-18700036D01*
X54916306Y-18700036D01*
X54929414Y-18686928D01*
X55031232Y-18546788D01*
X55109873Y-18392445D01*
X55151974Y-18262870D01*
X55191410Y-18205198D01*
X55255769Y-18177999D01*
X55308222Y-18183260D01*
X55349707Y-18196739D01*
X56276448Y-17270000D01*
X56276448Y-17269999D01*
X55349707Y-16343258D01*
X55308221Y-16356738D01*
X55238380Y-16358733D01*
X55178547Y-16322653D01*
X55151974Y-16277129D01*
X55109873Y-16147555D01*
X55031232Y-15993212D01*
X54929414Y-15853072D01*
X54806928Y-15730586D01*
X54765265Y-15700316D01*
X54722602Y-15644988D01*
X54716623Y-15575374D01*
X54749229Y-15513579D01*
X54765266Y-15499683D01*
X54806928Y-15469414D01*
X54929414Y-15346928D01*
X55031232Y-15206788D01*
X55109873Y-15052445D01*
X55137186Y-14968384D01*
X55176622Y-14910711D01*
X55240981Y-14883512D01*
X55309827Y-14895427D01*
X55361303Y-14942671D01*
X55373047Y-14968385D01*
X55425244Y-15129031D01*
X55518140Y-15311349D01*
X55638417Y-15476894D01*
X55638417Y-15476895D01*
X55673841Y-15512319D01*
X55707326Y-15573642D01*
X55702342Y-15643334D01*
X55673841Y-15687681D01*
X55638417Y-15723104D01*
X55638416Y-15723105D01*
X55553513Y-15839962D01*
X55553514Y-15839963D01*
X56253222Y-16539671D01*
X56229901Y-16562993D01*
X56164075Y-16677007D01*
X56130000Y-16804174D01*
X56130000Y-16935826D01*
X56164075Y-17062993D01*
X56229901Y-17177007D01*
X56322993Y-17270099D01*
X56437007Y-17335925D01*
X56564174Y-17370000D01*
X56695826Y-17370000D01*
X56822993Y-17335925D01*
X56937007Y-17270099D01*
X56937107Y-17269999D01*
X56983552Y-17269999D01*
X56983552Y-17270000D01*
X57910291Y-18196740D01*
X57910292Y-18196739D01*
X57930000Y-18072311D01*
X57930000Y-16467688D01*
X57910292Y-16343259D01*
X56983552Y-17269999D01*
X56937107Y-17269999D01*
X57030099Y-17177007D01*
X57095925Y-17062993D01*
X57130000Y-16935826D01*
X57130000Y-16804174D01*
X57095925Y-16677007D01*
X57030099Y-16562993D01*
X57006777Y-16539671D01*
X57706484Y-15839963D01*
X57706485Y-15839961D01*
X57621587Y-15723110D01*
X57621582Y-15723104D01*
X57586159Y-15687681D01*
X57552674Y-15626358D01*
X57557658Y-15556666D01*
X57586159Y-15512319D01*
X57621582Y-15476895D01*
X57621582Y-15476894D01*
X57741859Y-15311349D01*
X57834755Y-15129031D01*
X57897990Y-14934417D01*
X57930000Y-14732317D01*
X57930000Y-14180000D01*
X57107445Y-14180000D01*
X57095925Y-14137007D01*
X57030099Y-14022993D01*
X56937007Y-13929901D01*
X56822993Y-13864075D01*
X56695826Y-13830000D01*
X56564174Y-13830000D01*
X56437007Y-13864075D01*
X56410269Y-13879511D01*
X56391206Y-13857511D01*
X56380000Y-13806000D01*
X56380000Y-13680000D01*
X56880000Y-13680000D01*
X57930000Y-13680000D01*
X57930000Y-13127682D01*
X57897990Y-12925582D01*
X57834755Y-12730968D01*
X57741859Y-12548650D01*
X57621582Y-12383105D01*
X57621582Y-12383104D01*
X57476895Y-12238417D01*
X57311349Y-12118140D01*
X57129029Y-12025244D01*
X56934413Y-11962009D01*
X56880000Y-11953390D01*
X56880000Y-13680000D01*
X56380000Y-13680000D01*
X56380000Y-11946751D01*
X56399685Y-11879712D01*
X56448679Y-11835775D01*
X56456912Y-11831670D01*
X56462445Y-11829873D01*
X56616788Y-11751232D01*
X56756928Y-11649414D01*
X56879414Y-11526928D01*
X56981232Y-11386788D01*
X57003119Y-11343832D01*
X57051093Y-11293036D01*
X57118913Y-11276240D01*
X57185049Y-11298777D01*
X57201285Y-11312445D01*
X59713181Y-13824340D01*
X59746666Y-13885663D01*
X59749500Y-13912021D01*
X59749500Y-18457978D01*
X59729815Y-18525017D01*
X59713181Y-18545659D01*
X56780313Y-21478527D01*
X56718990Y-21512012D01*
X56692632Y-21514846D01*
X51842624Y-21514846D01*
X51775585Y-21495161D01*
X51729830Y-21442357D01*
X51719886Y-21373199D01*
X51742305Y-21317962D01*
X51753055Y-21303165D01*
X51761450Y-21291610D01*
X51854383Y-21109219D01*
X51917640Y-20914534D01*
X51949663Y-20712352D01*
X51949663Y-20507648D01*
X51947083Y-20491363D01*
X51956036Y-20422073D01*
X51981876Y-20384283D01*
X52066928Y-20299232D01*
X52139758Y-20190232D01*
X52189925Y-20069119D01*
X52215500Y-19940547D01*
X52215500Y-19809453D01*
X52215500Y-18909959D01*
X52235185Y-18842920D01*
X52263516Y-18812925D01*
X52263221Y-18812580D01*
X52266436Y-18809833D01*
X52266624Y-18809634D01*
X52266928Y-18809414D01*
X52389414Y-18686928D01*
X52491232Y-18546788D01*
X52569873Y-18392445D01*
X52623402Y-18227701D01*
X52650500Y-18056611D01*
X52650500Y-16483389D01*
X52623402Y-16312299D01*
X52569873Y-16147555D01*
X52491232Y-15993212D01*
X52389414Y-15853072D01*
X52266928Y-15730586D01*
X52225265Y-15700316D01*
X52182602Y-15644988D01*
X52176623Y-15575374D01*
X52209229Y-15513579D01*
X52225266Y-15499683D01*
X52266928Y-15469414D01*
X52389414Y-15346928D01*
X52491232Y-15206788D01*
X52569873Y-15052445D01*
X52623402Y-14887701D01*
X52650500Y-14716611D01*
X52650500Y-13143389D01*
X52623402Y-12972299D01*
X52569873Y-12807555D01*
X52491232Y-12653212D01*
X52389414Y-12513072D01*
X52266928Y-12390586D01*
X52126788Y-12288768D01*
X51972445Y-12210127D01*
X51807701Y-12156598D01*
X51807699Y-12156597D01*
X51807698Y-12156597D01*
X51802695Y-12155805D01*
X51739561Y-12125876D01*
X51702629Y-12066565D01*
X51703627Y-11996702D01*
X51742237Y-11938469D01*
X51806200Y-11910355D01*
X51807743Y-11910165D01*
X51829991Y-11907585D01*
X51932765Y-11862206D01*
X52012206Y-11782765D01*
X52057585Y-11679991D01*
X52060500Y-11654865D01*
X52060499Y-11073794D01*
X52080183Y-11006758D01*
X52132987Y-10961003D01*
X52202146Y-10951059D01*
X52204777Y-10951670D01*
X53017037Y-10139410D01*
X53034075Y-10202993D01*
G37*
%TD.AperFunction*%
%TA.AperFunction,Conductor*%
G36*
X54793964Y-10950412D02*
G01*
X54802401Y-10947671D01*
X54872243Y-10945676D01*
X54932076Y-10981756D01*
X54962904Y-11044457D01*
X54963193Y-11046204D01*
X54966598Y-11067701D01*
X55020127Y-11232445D01*
X55098768Y-11386788D01*
X55200586Y-11526928D01*
X55323072Y-11649414D01*
X55463212Y-11751232D01*
X55617555Y-11829873D01*
X55782299Y-11883402D01*
X55888466Y-11900217D01*
X55951597Y-11930145D01*
X55988529Y-11989456D01*
X55987531Y-12059318D01*
X55948922Y-12117551D01*
X55941951Y-12123007D01*
X55783105Y-12238416D01*
X55638417Y-12383104D01*
X55638417Y-12383105D01*
X55518140Y-12548650D01*
X55425244Y-12730968D01*
X55373047Y-12891614D01*
X55333609Y-12949289D01*
X55269250Y-12976487D01*
X55200404Y-12964572D01*
X55148928Y-12917328D01*
X55137186Y-12891615D01*
X55109873Y-12807555D01*
X55031232Y-12653212D01*
X54929414Y-12513072D01*
X54806928Y-12390586D01*
X54666788Y-12288768D01*
X54512445Y-12210127D01*
X54347701Y-12156598D01*
X54347699Y-12156597D01*
X54347698Y-12156597D01*
X54241536Y-12139783D01*
X54178401Y-12109854D01*
X54141470Y-12050542D01*
X54142468Y-11980680D01*
X54181078Y-11922447D01*
X54188049Y-11916992D01*
X54346889Y-11801587D01*
X54346895Y-11801582D01*
X54491582Y-11656895D01*
X54491582Y-11656894D01*
X54611858Y-11491351D01*
X54611860Y-11491347D01*
X54617239Y-11480790D01*
X53629410Y-10492962D01*
X53692993Y-10475925D01*
X53807007Y-10410099D01*
X53900099Y-10317007D01*
X53965925Y-10202993D01*
X53982962Y-10139410D01*
X54793964Y-10950412D01*
G37*
%TD.AperFunction*%
%TD*%
%TA.AperFunction,NonConductor*%
G36*
X47640037Y-420185D02*
G01*
X47685792Y-472989D01*
X47693215Y-524617D01*
X47696881Y-524617D01*
X47696881Y-2426485D01*
X47677196Y-2493524D01*
X47645767Y-2526801D01*
X47632346Y-2536554D01*
X47602779Y-2558035D01*
X47602778Y-2558036D01*
X47597634Y-2563181D01*
X47536311Y-2596666D01*
X47509953Y-2599500D01*
X45288343Y-2599500D01*
X45258902Y-2590855D01*
X45228916Y-2584332D01*
X45223900Y-2580577D01*
X45221304Y-2579815D01*
X45200662Y-2563181D01*
X45174035Y-2536554D01*
X43368527Y-731045D01*
X43249663Y-612181D01*
X43216178Y-550858D01*
X43221162Y-481166D01*
X43263034Y-425233D01*
X43328498Y-400816D01*
X43337344Y-400500D01*
X47572998Y-400500D01*
X47640037Y-420185D01*
G37*
%TD.AperFunction*%
%TA.AperFunction,NonConductor*%
G36*
X41258142Y-1975738D02*
G01*
X41280231Y-1977318D01*
X41291014Y-1985390D01*
X41303936Y-1989185D01*
X41318435Y-2005918D01*
X41336164Y-2019190D01*
X41340871Y-2031810D01*
X41349691Y-2041989D01*
X41352842Y-2063906D01*
X41360581Y-2084654D01*
X41357718Y-2097814D01*
X41359635Y-2111147D01*
X41350435Y-2131290D01*
X41345729Y-2152927D01*
X41332460Y-2170652D01*
X41330610Y-2174703D01*
X41324578Y-2181181D01*
X41301834Y-2203924D01*
X41301830Y-2203928D01*
X41181517Y-2369528D01*
X41088583Y-2551918D01*
X41025324Y-2746607D01*
X40993302Y-2948790D01*
X40993302Y-3153493D01*
X41025324Y-3355676D01*
X41056314Y-3451050D01*
X41065574Y-3479551D01*
X41067661Y-3485972D01*
X41069656Y-3555814D01*
X41033576Y-3615647D01*
X40970875Y-3646475D01*
X40901461Y-3638511D01*
X40862049Y-3611972D01*
X39619063Y-2368986D01*
X39603640Y-2350193D01*
X39583252Y-2319678D01*
X39444755Y-2181181D01*
X39411270Y-2119858D01*
X39416254Y-2050166D01*
X39458126Y-1994233D01*
X39523590Y-1969816D01*
X39532436Y-1969500D01*
X41236897Y-1969500D01*
X41258142Y-1975738D01*
G37*
%TD.AperFunction*%
%TA.AperFunction,NonConductor*%
G36*
X22366437Y-2120185D02*
G01*
X22412192Y-2172989D01*
X22422136Y-2242147D01*
X22393111Y-2305703D01*
X22387079Y-2312181D01*
X20500324Y-4198935D01*
X20439001Y-4232420D01*
X20369309Y-4227436D01*
X20313376Y-4185564D01*
X20288959Y-4120100D01*
X20288643Y-4111254D01*
X20288643Y-3880144D01*
X20285885Y-3866280D01*
X20285883Y-3866274D01*
X20285882Y-3866268D01*
X20275220Y-3812666D01*
X20264065Y-3756585D01*
X20267752Y-3694079D01*
X20275493Y-3670254D01*
X20284360Y-3642966D01*
X20316383Y-3440784D01*
X20316383Y-3236080D01*
X20304288Y-3159714D01*
X20284360Y-3033897D01*
X20234518Y-2880500D01*
X20221103Y-2839213D01*
X20221101Y-2839210D01*
X20221101Y-2839208D01*
X20171136Y-2741147D01*
X20128170Y-2656822D01*
X20120439Y-2646181D01*
X20007854Y-2491218D01*
X19863102Y-2346466D01*
X19833307Y-2324819D01*
X19790641Y-2269489D01*
X19784662Y-2199876D01*
X19817267Y-2138080D01*
X19878106Y-2103723D01*
X19906192Y-2100500D01*
X22299398Y-2100500D01*
X22366437Y-2120185D01*
G37*
%TD.AperFunction*%
%TA.AperFunction,NonConductor*%
G36*
X23233039Y-3451050D02*
G01*
X23288973Y-3492921D01*
X23313390Y-3558386D01*
X23312179Y-3586629D01*
X23301770Y-3652352D01*
X23294482Y-3698369D01*
X23294482Y-3903073D01*
X23297725Y-3923549D01*
X23326504Y-4105255D01*
X23389763Y-4299944D01*
X23443914Y-4406219D01*
X23478308Y-4473722D01*
X23482697Y-4482334D01*
X23598347Y-4641515D01*
X23621827Y-4707322D01*
X23606001Y-4775375D01*
X23555895Y-4824070D01*
X23498029Y-4838400D01*
X23298867Y-4838400D01*
X23274548Y-4842251D01*
X23096684Y-4870422D01*
X22901995Y-4933681D01*
X22719605Y-5026615D01*
X22554007Y-5146927D01*
X22433105Y-5267829D01*
X22371782Y-5301313D01*
X22302090Y-5296329D01*
X22272539Y-5280465D01*
X22192971Y-5222656D01*
X22192970Y-5222655D01*
X22192968Y-5222654D01*
X22111899Y-5181347D01*
X22010581Y-5129722D01*
X21815893Y-5066464D01*
X21796605Y-5063409D01*
X21733470Y-5033479D01*
X21696540Y-4974167D01*
X21697538Y-4904305D01*
X21728321Y-4853257D01*
X23102028Y-3479549D01*
X23163348Y-3446066D01*
X23233039Y-3451050D01*
G37*
%TD.AperFunction*%
%TA.AperFunction,NonConductor*%
G36*
X43651339Y-3563424D02*
G01*
X43667575Y-3577092D01*
X43677949Y-3587466D01*
X43711434Y-3648789D01*
X43711885Y-3650956D01*
X43734103Y-3762658D01*
X43734106Y-3762667D01*
X43801983Y-3926540D01*
X43801990Y-3926553D01*
X43900535Y-4074034D01*
X43900538Y-4074038D01*
X44025961Y-4199461D01*
X44025965Y-4199464D01*
X44173446Y-4298009D01*
X44173459Y-4298016D01*
X44250066Y-4329747D01*
X44337334Y-4365894D01*
X44337336Y-4365894D01*
X44337341Y-4365896D01*
X44511304Y-4400499D01*
X44511307Y-4400500D01*
X44511309Y-4400500D01*
X44688691Y-4400500D01*
X47409953Y-4400500D01*
X47439393Y-4409144D01*
X47469380Y-4415668D01*
X47474395Y-4419422D01*
X47476992Y-4420185D01*
X47497634Y-4436819D01*
X47513181Y-4452366D01*
X47546666Y-4513689D01*
X47549500Y-4540047D01*
X47549500Y-7515677D01*
X47529815Y-7582716D01*
X47477011Y-7628471D01*
X47407853Y-7638415D01*
X47344297Y-7609390D01*
X47337819Y-7603358D01*
X46131205Y-6396745D01*
X46131198Y-6396739D01*
X46022202Y-6323911D01*
X45901088Y-6273744D01*
X45901082Y-6273742D01*
X45772517Y-6248169D01*
X45772515Y-6248169D01*
X44978691Y-6248169D01*
X44911652Y-6228484D01*
X44891010Y-6211850D01*
X43107183Y-4428023D01*
X43092479Y-4401095D01*
X43075887Y-4375277D01*
X43074995Y-4369076D01*
X43073698Y-4366700D01*
X43070864Y-4340342D01*
X43070864Y-4157260D01*
X43090549Y-4090221D01*
X43121982Y-4056940D01*
X43141017Y-4043111D01*
X43141017Y-4043110D01*
X43141021Y-4043108D01*
X43285768Y-3898361D01*
X43285770Y-3898357D01*
X43285773Y-3898355D01*
X43386533Y-3759669D01*
X43406089Y-3732752D01*
X43469409Y-3608478D01*
X43517383Y-3557682D01*
X43585204Y-3540887D01*
X43651339Y-3563424D01*
G37*
%TD.AperFunction*%
%TA.AperFunction,NonConductor*%
G36*
X37069637Y-7099921D02*
G01*
X37106357Y-7159364D01*
X37110776Y-7192171D01*
X37110776Y-7789814D01*
X37091091Y-7856853D01*
X37038287Y-7902608D01*
X36969129Y-7912552D01*
X36905573Y-7883527D01*
X36899095Y-7877495D01*
X36838627Y-7817027D01*
X36673028Y-7696714D01*
X36660289Y-7690223D01*
X36588497Y-7653643D01*
X36537702Y-7605669D01*
X36520907Y-7537848D01*
X36543444Y-7471714D01*
X36557099Y-7455491D01*
X36872323Y-7140269D01*
X36883675Y-7123279D01*
X36937285Y-7078476D01*
X37006610Y-7069767D01*
X37069637Y-7099921D01*
G37*
%TD.AperFunction*%
%TA.AperFunction,NonConductor*%
G36*
X48057369Y-8381315D02*
G01*
X48063847Y-8387347D01*
X49823181Y-10146681D01*
X49856666Y-10208004D01*
X49859500Y-10234362D01*
X49859500Y-10880978D01*
X49839815Y-10948017D01*
X49787011Y-10993772D01*
X49717853Y-11003716D01*
X49654297Y-10974691D01*
X49647819Y-10968659D01*
X47888485Y-9209325D01*
X47855000Y-9148002D01*
X47852166Y-9121644D01*
X47852166Y-8475028D01*
X47871851Y-8407989D01*
X47924655Y-8362234D01*
X47993813Y-8352290D01*
X48057369Y-8381315D01*
G37*
%TD.AperFunction*%
%TA.AperFunction,NonConductor*%
G36*
X23977068Y-7335141D02*
G01*
X23986493Y-7334792D01*
X24008926Y-7348061D01*
X24033078Y-7357856D01*
X24043671Y-7367301D01*
X26713181Y-10036810D01*
X26746666Y-10098133D01*
X26749500Y-10124491D01*
X26749500Y-11499932D01*
X26729815Y-11566971D01*
X26677011Y-11612726D01*
X26607853Y-11622670D01*
X26544297Y-11593645D01*
X26537819Y-11587613D01*
X24511819Y-9561613D01*
X24478334Y-9500290D01*
X24475500Y-9473932D01*
X24475500Y-8568034D01*
X24449926Y-8439469D01*
X24449925Y-8439468D01*
X24449925Y-8439464D01*
X24399758Y-8318351D01*
X24384466Y-8295465D01*
X24326929Y-8209353D01*
X24326928Y-8209352D01*
X24285027Y-8167451D01*
X24234231Y-8116655D01*
X23974429Y-7856853D01*
X23712375Y-7594798D01*
X23711317Y-7592860D01*
X23709416Y-7591736D01*
X23694649Y-7562336D01*
X23678890Y-7533475D01*
X23679047Y-7531273D01*
X23678056Y-7529299D01*
X23681527Y-7496594D01*
X23683874Y-7463783D01*
X23685198Y-7462014D01*
X23685431Y-7459820D01*
X23706028Y-7434188D01*
X23725746Y-7407850D01*
X23728248Y-7406538D01*
X23729198Y-7405357D01*
X23754536Y-7392764D01*
X23760737Y-7389516D01*
X23761202Y-7389360D01*
X23900438Y-7344120D01*
X23907924Y-7340305D01*
X23916671Y-7337381D01*
X23942719Y-7336415D01*
X23968331Y-7331598D01*
X23977068Y-7335141D01*
G37*
%TD.AperFunction*%
%TA.AperFunction,NonConductor*%
G36*
X39154302Y-3789113D02*
G01*
X39170538Y-3802781D01*
X42096516Y-6728758D01*
X42130001Y-6790081D01*
X42125017Y-6859773D01*
X42083145Y-6915706D01*
X42065131Y-6926923D01*
X41940856Y-6990245D01*
X41775254Y-7110560D01*
X41630496Y-7255318D01*
X41510183Y-7420918D01*
X41417247Y-7603313D01*
X41412396Y-7618243D01*
X41372957Y-7675917D01*
X41308597Y-7703112D01*
X41239751Y-7691195D01*
X41206786Y-7667601D01*
X41147213Y-7608028D01*
X40981613Y-7487715D01*
X40981612Y-7487714D01*
X40981610Y-7487713D01*
X40918343Y-7455477D01*
X40799223Y-7394781D01*
X40604534Y-7331522D01*
X40428219Y-7303597D01*
X40402352Y-7299500D01*
X40197648Y-7299500D01*
X40173329Y-7303351D01*
X39995465Y-7331522D01*
X39800776Y-7394781D01*
X39618386Y-7487715D01*
X39452786Y-7608028D01*
X39308028Y-7752786D01*
X39187715Y-7918386D01*
X39094781Y-8100776D01*
X39031522Y-8295465D01*
X38999500Y-8497648D01*
X38999500Y-8702351D01*
X39031522Y-8904534D01*
X39094781Y-9099223D01*
X39119636Y-9148002D01*
X39186000Y-9278249D01*
X39187715Y-9281613D01*
X39308028Y-9447213D01*
X39452784Y-9591969D01*
X39516554Y-9638299D01*
X39583385Y-9686854D01*
X39626051Y-9742183D01*
X39634500Y-9787172D01*
X39634500Y-9899716D01*
X39634500Y-10030810D01*
X39634500Y-10030812D01*
X39634499Y-10030812D01*
X39660073Y-10159376D01*
X39660075Y-10159382D01*
X39710241Y-10280493D01*
X39783075Y-10389499D01*
X39783076Y-10389500D01*
X40688181Y-11294603D01*
X40721666Y-11355926D01*
X40724500Y-11382284D01*
X40724500Y-12073584D01*
X40704815Y-12140623D01*
X40652011Y-12186378D01*
X40582853Y-12196322D01*
X40519297Y-12167297D01*
X40512819Y-12161265D01*
X39798631Y-11447076D01*
X39798628Y-11447073D01*
X39723539Y-11396901D01*
X39704749Y-11381480D01*
X38478095Y-10154825D01*
X38444610Y-10093502D01*
X38441776Y-10067144D01*
X38441776Y-4473258D01*
X38461461Y-4406219D01*
X38492889Y-4372940D01*
X38648541Y-4259854D01*
X38793288Y-4115107D01*
X38793290Y-4115103D01*
X38793293Y-4115101D01*
X38913608Y-3949499D01*
X38925303Y-3926547D01*
X38972373Y-3834166D01*
X39020346Y-3783372D01*
X39088167Y-3766576D01*
X39154302Y-3789113D01*
G37*
%TD.AperFunction*%
%TA.AperFunction,NonConductor*%
G36*
X36547634Y-2619185D02*
G01*
X36593389Y-2671989D01*
X36603333Y-2741147D01*
X36597100Y-2763871D01*
X36597608Y-2764036D01*
X36596103Y-2768665D01*
X36596102Y-2768669D01*
X36589979Y-2787514D01*
X36532844Y-2963353D01*
X36500822Y-3165536D01*
X36500822Y-3370239D01*
X36532845Y-3572423D01*
X36532845Y-3572426D01*
X36554544Y-3639207D01*
X36556539Y-3709048D01*
X36520459Y-3768881D01*
X36457758Y-3799709D01*
X36398295Y-3795456D01*
X36288154Y-3759669D01*
X36153364Y-3738320D01*
X36085970Y-3727646D01*
X35881266Y-3727646D01*
X35856947Y-3731497D01*
X35679083Y-3759668D01*
X35484394Y-3822927D01*
X35302004Y-3915861D01*
X35136404Y-4036174D01*
X34991646Y-4180932D01*
X34871333Y-4346532D01*
X34778399Y-4528922D01*
X34715140Y-4723611D01*
X34683118Y-4925794D01*
X34683118Y-5033545D01*
X34663433Y-5100584D01*
X34610629Y-5146339D01*
X34578516Y-5156018D01*
X34418590Y-5181347D01*
X34223901Y-5244606D01*
X34041511Y-5337540D01*
X33875911Y-5457853D01*
X33731153Y-5602611D01*
X33610840Y-5768211D01*
X33517906Y-5950601D01*
X33454647Y-6145290D01*
X33422625Y-6347473D01*
X33422625Y-6495872D01*
X33402940Y-6562911D01*
X33386306Y-6583553D01*
X31534093Y-8435765D01*
X31472770Y-8469250D01*
X31403078Y-8464266D01*
X31373527Y-8448402D01*
X31206037Y-8326715D01*
X31206036Y-8326714D01*
X31206034Y-8326713D01*
X31144708Y-8295466D01*
X31023647Y-8233781D01*
X30828958Y-8170522D01*
X30644290Y-8141274D01*
X30626776Y-8138500D01*
X30422072Y-8138500D01*
X30404558Y-8141274D01*
X30219889Y-8170522D01*
X30025200Y-8233781D01*
X29842810Y-8326715D01*
X29677210Y-8447028D01*
X29532452Y-8591786D01*
X29412139Y-8757386D01*
X29319205Y-8939776D01*
X29255946Y-9134465D01*
X29223924Y-9336648D01*
X29223924Y-9541351D01*
X29255946Y-9743534D01*
X29274607Y-9800965D01*
X29283451Y-9828184D01*
X29291852Y-9854037D01*
X29292760Y-9869435D01*
X29297426Y-9881288D01*
X29295541Y-9916532D01*
X29294595Y-9921291D01*
X29294592Y-9921310D01*
X29290500Y-9941878D01*
X29290500Y-12098500D01*
X29270815Y-12165539D01*
X29218011Y-12211294D01*
X29148853Y-12221238D01*
X29117271Y-12211228D01*
X29116954Y-12211994D01*
X29112452Y-12210129D01*
X29033694Y-12184539D01*
X28947701Y-12156598D01*
X28947699Y-12156597D01*
X28947697Y-12156597D01*
X28816102Y-12135754D01*
X28752967Y-12105824D01*
X28716036Y-12046513D01*
X28711500Y-12013281D01*
X28711500Y-9471973D01*
X28711500Y-9471970D01*
X28708413Y-9456453D01*
X28701782Y-9423117D01*
X28685925Y-9343397D01*
X28642883Y-9239485D01*
X28635758Y-9222283D01*
X28577741Y-9135454D01*
X28562928Y-9113285D01*
X28470231Y-9020588D01*
X26921357Y-7471714D01*
X25367960Y-5918316D01*
X25334475Y-5856993D01*
X25331641Y-5830635D01*
X25331641Y-4936193D01*
X25351326Y-4869154D01*
X25382754Y-4835876D01*
X25442201Y-4792687D01*
X25586948Y-4647940D01*
X25586950Y-4647936D01*
X25586953Y-4647934D01*
X25684486Y-4513689D01*
X25707269Y-4482331D01*
X25800202Y-4299940D01*
X25863459Y-4105255D01*
X25895482Y-3903073D01*
X25895482Y-3698369D01*
X25875534Y-3572422D01*
X25863459Y-3496186D01*
X25800200Y-3301497D01*
X25766485Y-3235328D01*
X25707269Y-3119111D01*
X25676954Y-3077385D01*
X25653474Y-3011579D01*
X25669300Y-2943525D01*
X25719405Y-2894830D01*
X25777272Y-2880500D01*
X32271632Y-2880500D01*
X32338671Y-2900185D01*
X32359313Y-2916819D01*
X32467465Y-3024971D01*
X32622428Y-3137556D01*
X32633069Y-3145287D01*
X32749286Y-3204503D01*
X32815455Y-3238218D01*
X32815457Y-3238218D01*
X32815460Y-3238220D01*
X32919816Y-3272127D01*
X33010144Y-3301477D01*
X33111236Y-3317488D01*
X33212327Y-3333500D01*
X33212328Y-3333500D01*
X33417030Y-3333500D01*
X33417031Y-3333500D01*
X33619213Y-3301477D01*
X33813898Y-3238220D01*
X33996289Y-3145287D01*
X34089749Y-3077385D01*
X34161892Y-3024971D01*
X34161894Y-3024968D01*
X34161898Y-3024966D01*
X34306645Y-2880219D01*
X34306647Y-2880215D01*
X34306650Y-2880213D01*
X34359411Y-2807590D01*
X34426966Y-2714610D01*
X34451120Y-2667204D01*
X34499095Y-2616409D01*
X34561605Y-2599500D01*
X36480595Y-2599500D01*
X36547634Y-2619185D01*
G37*
%TD.AperFunction*%
%TA.AperFunction,NonConductor*%
G36*
X34297834Y-9817271D02*
G01*
X34353767Y-9859143D01*
X34378184Y-9924607D01*
X34378500Y-9933453D01*
X34378500Y-12102576D01*
X34358815Y-12169615D01*
X34306011Y-12215370D01*
X34236853Y-12225314D01*
X34198211Y-12213064D01*
X34192449Y-12210128D01*
X34110073Y-12183362D01*
X34027701Y-12156598D01*
X34027699Y-12156597D01*
X34027698Y-12156597D01*
X33875495Y-12132491D01*
X33856611Y-12129500D01*
X33683389Y-12129500D01*
X33664505Y-12132491D01*
X33512301Y-12156597D01*
X33512297Y-12156598D01*
X33392817Y-12195419D01*
X33322976Y-12197414D01*
X33263143Y-12161333D01*
X33232316Y-12098632D01*
X33230500Y-12077488D01*
X33230500Y-10833453D01*
X33250185Y-10766414D01*
X33266814Y-10745776D01*
X34166819Y-9845771D01*
X34228142Y-9812287D01*
X34297834Y-9817271D01*
G37*
%TD.AperFunction*%
%TA.AperFunction,NonConductor*%
G36*
X31221615Y-10624704D02*
G01*
X31261872Y-10681811D01*
X31268500Y-10721809D01*
X31268500Y-12005500D01*
X31248815Y-12072539D01*
X31196011Y-12118294D01*
X31148218Y-12128691D01*
X31148252Y-12129117D01*
X31145130Y-12129362D01*
X31144500Y-12129500D01*
X31143389Y-12129500D01*
X31124505Y-12132491D01*
X30972302Y-12156597D01*
X30807550Y-12210128D01*
X30801789Y-12213064D01*
X30733119Y-12225956D01*
X30668380Y-12199676D01*
X30628126Y-12142568D01*
X30621500Y-12102576D01*
X30621500Y-10846241D01*
X30641185Y-10779202D01*
X30693989Y-10733447D01*
X30726102Y-10723768D01*
X30738471Y-10721809D01*
X30828958Y-10707477D01*
X31023643Y-10644220D01*
X31088205Y-10611324D01*
X31156874Y-10598428D01*
X31221615Y-10624704D01*
G37*
%TD.AperFunction*%
%TA.AperFunction,NonConductor*%
G36*
X51295071Y-11917702D02*
G01*
X51320436Y-11920981D01*
X51328041Y-11927383D01*
X51337578Y-11930184D01*
X51354321Y-11949507D01*
X51373888Y-11965979D01*
X51376824Y-11975476D01*
X51383333Y-11982988D01*
X51386972Y-12008298D01*
X51394526Y-12032730D01*
X51391862Y-12042305D01*
X51393277Y-12052146D01*
X51382653Y-12075408D01*
X51375800Y-12100044D01*
X51368381Y-12106659D01*
X51364252Y-12115702D01*
X51342738Y-12129527D01*
X51323654Y-12146547D01*
X51309395Y-12150955D01*
X51305474Y-12153476D01*
X51297019Y-12155378D01*
X51297039Y-12155460D01*
X51292302Y-12156597D01*
X51127549Y-12210129D01*
X51049982Y-12249651D01*
X50981313Y-12262547D01*
X50916572Y-12236270D01*
X50906007Y-12226847D01*
X50801340Y-12122180D01*
X50767855Y-12060857D01*
X50772839Y-11991165D01*
X50814711Y-11935232D01*
X50880175Y-11910815D01*
X50889021Y-11910499D01*
X51270539Y-11910499D01*
X51295071Y-11917702D01*
G37*
%TD.AperFunction*%
%TA.AperFunction,NonConductor*%
G36*
X24480703Y-11413262D02*
G01*
X24487178Y-11419291D01*
X25358092Y-12290206D01*
X25391576Y-12351527D01*
X25386592Y-12421219D01*
X25358092Y-12465565D01*
X25310589Y-12513068D01*
X25310588Y-12513070D01*
X25310586Y-12513072D01*
X25284737Y-12548650D01*
X25208768Y-12653211D01*
X25130128Y-12807552D01*
X25076597Y-12972302D01*
X25049500Y-13143389D01*
X25049500Y-14528978D01*
X25043261Y-14550223D01*
X25041682Y-14572312D01*
X25033609Y-14583095D01*
X25029815Y-14596017D01*
X25013081Y-14610516D01*
X24999810Y-14628245D01*
X24987189Y-14632952D01*
X24977011Y-14641772D01*
X24955093Y-14644923D01*
X24934346Y-14652662D01*
X24921185Y-14649799D01*
X24907853Y-14651716D01*
X24887709Y-14642516D01*
X24866073Y-14637810D01*
X24848347Y-14624541D01*
X24844297Y-14622691D01*
X24837819Y-14616659D01*
X24746819Y-14525659D01*
X24713334Y-14464336D01*
X24710500Y-14437978D01*
X24710500Y-13143389D01*
X24683402Y-12972302D01*
X24683402Y-12972299D01*
X24629873Y-12807555D01*
X24551232Y-12653212D01*
X24449414Y-12513072D01*
X24326928Y-12390586D01*
X24326606Y-12390352D01*
X24326514Y-12390233D01*
X24323223Y-12387422D01*
X24323813Y-12386730D01*
X24283945Y-12335018D01*
X24275500Y-12290040D01*
X24275500Y-11506975D01*
X24295185Y-11439936D01*
X24347989Y-11394181D01*
X24417147Y-11384237D01*
X24480703Y-11413262D01*
G37*
%TD.AperFunction*%
%TA.AperFunction,NonConductor*%
G36*
X19402284Y-7207675D02*
G01*
X19458217Y-7249547D01*
X19482634Y-7315011D01*
X19482950Y-7323857D01*
X19482950Y-8557903D01*
X19482950Y-8688997D01*
X19482950Y-8688999D01*
X19482949Y-8688999D01*
X19508523Y-8817563D01*
X19508525Y-8817569D01*
X19558692Y-8938682D01*
X19631522Y-9047682D01*
X19631525Y-9047686D01*
X19631526Y-9047687D01*
X20562462Y-9978622D01*
X20595947Y-10039945D01*
X20590963Y-10109636D01*
X20549091Y-10165570D01*
X20494179Y-10188776D01*
X20380465Y-10206786D01*
X20185776Y-10270045D01*
X20003386Y-10362979D01*
X19837786Y-10483292D01*
X19693028Y-10628050D01*
X19572715Y-10793650D01*
X19479781Y-10976040D01*
X19416522Y-11170729D01*
X19384500Y-11372912D01*
X19384500Y-11577615D01*
X19416522Y-11779798D01*
X19479781Y-11974487D01*
X19540485Y-12093624D01*
X19572572Y-12156598D01*
X19572715Y-12156877D01*
X19693028Y-12322477D01*
X19837786Y-12467235D01*
X20003387Y-12587550D01*
X20018999Y-12595504D01*
X20069796Y-12643477D01*
X20086593Y-12711298D01*
X20073193Y-12762283D01*
X20050128Y-12807551D01*
X19996597Y-12972302D01*
X19969500Y-13143389D01*
X19969500Y-14528978D01*
X19963261Y-14550223D01*
X19961682Y-14572312D01*
X19953609Y-14583095D01*
X19949815Y-14596017D01*
X19933081Y-14610516D01*
X19919810Y-14628245D01*
X19907189Y-14632952D01*
X19897011Y-14641772D01*
X19875093Y-14644923D01*
X19854346Y-14652662D01*
X19841185Y-14649799D01*
X19827853Y-14651716D01*
X19807709Y-14642516D01*
X19786073Y-14637810D01*
X19768347Y-14624541D01*
X19764297Y-14622691D01*
X19757819Y-14616659D01*
X19666819Y-14525659D01*
X19633334Y-14464336D01*
X19630500Y-14437978D01*
X19630500Y-13143389D01*
X19603402Y-12972302D01*
X19603402Y-12972299D01*
X19549873Y-12807555D01*
X19471232Y-12653212D01*
X19369414Y-12513072D01*
X19246928Y-12390586D01*
X19106788Y-12288768D01*
X18952445Y-12210127D01*
X18787701Y-12156598D01*
X18787699Y-12156597D01*
X18787698Y-12156597D01*
X18635495Y-12132491D01*
X18616611Y-12129500D01*
X18443389Y-12129500D01*
X18424505Y-12132491D01*
X18272302Y-12156597D01*
X18107550Y-12210128D01*
X18101789Y-12213064D01*
X18033119Y-12225956D01*
X17968380Y-12199676D01*
X17928126Y-12142568D01*
X17921500Y-12102576D01*
X17921500Y-8637307D01*
X17941185Y-8570268D01*
X17957819Y-8549626D01*
X19271269Y-7236176D01*
X19332592Y-7202691D01*
X19402284Y-7207675D01*
G37*
%TD.AperFunction*%
%TA.AperFunction,NonConductor*%
G36*
X50315703Y-13519308D02*
G01*
X50322181Y-13525340D01*
X50413181Y-13616340D01*
X50446666Y-13677663D01*
X50449500Y-13704021D01*
X50449500Y-14608978D01*
X50443261Y-14630223D01*
X50441682Y-14652312D01*
X50433609Y-14663095D01*
X50429815Y-14676017D01*
X50413081Y-14690516D01*
X50399810Y-14708245D01*
X50387189Y-14712952D01*
X50377011Y-14721772D01*
X50355093Y-14724923D01*
X50334346Y-14732662D01*
X50321185Y-14729799D01*
X50307853Y-14731716D01*
X50287709Y-14722516D01*
X50266073Y-14717810D01*
X50248347Y-14704541D01*
X50244297Y-14702691D01*
X50237819Y-14696659D01*
X50146819Y-14605659D01*
X50113334Y-14544336D01*
X50110500Y-14517978D01*
X50110500Y-13613021D01*
X50130185Y-13545982D01*
X50182989Y-13500227D01*
X50252147Y-13490283D01*
X50315703Y-13519308D01*
G37*
%TD.AperFunction*%
%TA.AperFunction,NonConductor*%
G36*
X15069854Y-15250185D02*
G01*
X15103131Y-15281612D01*
X15150586Y-15346928D01*
X15150588Y-15346930D01*
X15273072Y-15469414D01*
X15314733Y-15499683D01*
X15357398Y-15555013D01*
X15363376Y-15624627D01*
X15330769Y-15686421D01*
X15314733Y-15700317D01*
X15273072Y-15730585D01*
X15150588Y-15853069D01*
X15150588Y-15853070D01*
X15150586Y-15853072D01*
X15118773Y-15896859D01*
X15103133Y-15918386D01*
X15047803Y-15961051D01*
X15002815Y-15969500D01*
X14437185Y-15969500D01*
X14370146Y-15949815D01*
X14336867Y-15918386D01*
X14289414Y-15853072D01*
X14166928Y-15730586D01*
X14125265Y-15700316D01*
X14082602Y-15644988D01*
X14076623Y-15575374D01*
X14109229Y-15513579D01*
X14125266Y-15499683D01*
X14166928Y-15469414D01*
X14289414Y-15346928D01*
X14336868Y-15281613D01*
X14392197Y-15238949D01*
X14437185Y-15230500D01*
X15002815Y-15230500D01*
X15069854Y-15250185D01*
G37*
%TD.AperFunction*%
%TA.AperFunction,NonConductor*%
G36*
X27508834Y-16554839D02*
G01*
X27564767Y-16596711D01*
X27589184Y-16662175D01*
X27589500Y-16671021D01*
X27589500Y-17068978D01*
X27583261Y-17090223D01*
X27581682Y-17112312D01*
X27573609Y-17123095D01*
X27569815Y-17136017D01*
X27553081Y-17150516D01*
X27539810Y-17168245D01*
X27527189Y-17172952D01*
X27517011Y-17181772D01*
X27495093Y-17184923D01*
X27474346Y-17192662D01*
X27461185Y-17189799D01*
X27447853Y-17191716D01*
X27427709Y-17182516D01*
X27406073Y-17177810D01*
X27388347Y-17164541D01*
X27384297Y-17162691D01*
X27377819Y-17156659D01*
X27286819Y-17065659D01*
X27253334Y-17004336D01*
X27250500Y-16977978D01*
X27250500Y-16762021D01*
X27270185Y-16694982D01*
X27286815Y-16674344D01*
X27377820Y-16583339D01*
X27439142Y-16549855D01*
X27508834Y-16554839D01*
G37*
%TD.AperFunction*%
%TA.AperFunction,NonConductor*%
G36*
X37030110Y-9712002D02*
G01*
X37086043Y-9753874D01*
X37110460Y-9819338D01*
X37110776Y-9828184D01*
X37110776Y-10328619D01*
X37110776Y-10459713D01*
X37110776Y-10459715D01*
X37110775Y-10459715D01*
X37136349Y-10588279D01*
X37136351Y-10588285D01*
X37186518Y-10709398D01*
X37242815Y-10793654D01*
X37259351Y-10818402D01*
X37259352Y-10818403D01*
X38454946Y-12013995D01*
X38488431Y-12075318D01*
X38483447Y-12145009D01*
X38441576Y-12200943D01*
X38423560Y-12212161D01*
X38273211Y-12288768D01*
X38193256Y-12346859D01*
X38133072Y-12390586D01*
X38133070Y-12390588D01*
X38133069Y-12390588D01*
X38010588Y-12513069D01*
X38010588Y-12513070D01*
X38010586Y-12513072D01*
X37984737Y-12548650D01*
X37908768Y-12653211D01*
X37830128Y-12807552D01*
X37776597Y-12972302D01*
X37751988Y-13127682D01*
X37749500Y-13143389D01*
X37749500Y-14716611D01*
X37751988Y-14732317D01*
X37775934Y-14883512D01*
X37776598Y-14887701D01*
X37830127Y-15052445D01*
X37908768Y-15206788D01*
X38010586Y-15346928D01*
X38010588Y-15346930D01*
X38133072Y-15469414D01*
X38174733Y-15499683D01*
X38217398Y-15555013D01*
X38223376Y-15624627D01*
X38190769Y-15686421D01*
X38174733Y-15700317D01*
X38133072Y-15730585D01*
X38010588Y-15853069D01*
X38010588Y-15853070D01*
X38010586Y-15853072D01*
X37978773Y-15896859D01*
X37908768Y-15993211D01*
X37830128Y-16147552D01*
X37776597Y-16312302D01*
X37767459Y-16370000D01*
X37749500Y-16483389D01*
X37749500Y-18056611D01*
X37776598Y-18227701D01*
X37830127Y-18392445D01*
X37908768Y-18546788D01*
X38010586Y-18686928D01*
X38133072Y-18809414D01*
X38273212Y-18911232D01*
X38427555Y-18989873D01*
X38592299Y-19043402D01*
X38763389Y-19070500D01*
X38763390Y-19070500D01*
X38936610Y-19070500D01*
X38936611Y-19070500D01*
X39107701Y-19043402D01*
X39272445Y-18989873D01*
X39426788Y-18911232D01*
X39566928Y-18809414D01*
X39689414Y-18686928D01*
X39791232Y-18546788D01*
X39869873Y-18392445D01*
X39923402Y-18227701D01*
X39950500Y-18056611D01*
X39950500Y-16671020D01*
X39956738Y-16649775D01*
X39958318Y-16627687D01*
X39966390Y-16616903D01*
X39970185Y-16603982D01*
X39986918Y-16589482D01*
X40000190Y-16571754D01*
X40012810Y-16567046D01*
X40022989Y-16558227D01*
X40044906Y-16555075D01*
X40065654Y-16547337D01*
X40078814Y-16550199D01*
X40092147Y-16548283D01*
X40112290Y-16557482D01*
X40133927Y-16562189D01*
X40151652Y-16575457D01*
X40155703Y-16577308D01*
X40162180Y-16583339D01*
X40253181Y-16674340D01*
X40286666Y-16735663D01*
X40289500Y-16762020D01*
X40289500Y-18056611D01*
X40316598Y-18227701D01*
X40370127Y-18392445D01*
X40448768Y-18546788D01*
X40550586Y-18686928D01*
X40673072Y-18809414D01*
X40813212Y-18911232D01*
X40967555Y-18989873D01*
X41132299Y-19043402D01*
X41303389Y-19070500D01*
X41303390Y-19070500D01*
X41476610Y-19070500D01*
X41476611Y-19070500D01*
X41647701Y-19043402D01*
X41812445Y-18989873D01*
X41966788Y-18911232D01*
X42106928Y-18809414D01*
X42229414Y-18686928D01*
X42331232Y-18546788D01*
X42409873Y-18392445D01*
X42463402Y-18227701D01*
X42490500Y-18056611D01*
X42490500Y-16671020D01*
X42496738Y-16649775D01*
X42498318Y-16627687D01*
X42506390Y-16616903D01*
X42510185Y-16603982D01*
X42526918Y-16589482D01*
X42540190Y-16571754D01*
X42552810Y-16567046D01*
X42562989Y-16558227D01*
X42584906Y-16555075D01*
X42605654Y-16547337D01*
X42618814Y-16550199D01*
X42632147Y-16548283D01*
X42652290Y-16557482D01*
X42673927Y-16562189D01*
X42691652Y-16575457D01*
X42695703Y-16577308D01*
X42702180Y-16583339D01*
X42793181Y-16674340D01*
X42826666Y-16735663D01*
X42829500Y-16762020D01*
X42829500Y-18056611D01*
X42856598Y-18227701D01*
X42910127Y-18392445D01*
X42988768Y-18546788D01*
X43090586Y-18686928D01*
X43213072Y-18809414D01*
X43353212Y-18911232D01*
X43507555Y-18989873D01*
X43672299Y-19043402D01*
X43843389Y-19070500D01*
X43843390Y-19070500D01*
X44016610Y-19070500D01*
X44016611Y-19070500D01*
X44187701Y-19043402D01*
X44352445Y-18989873D01*
X44506788Y-18911232D01*
X44646928Y-18809414D01*
X44769414Y-18686928D01*
X44871232Y-18546788D01*
X44949873Y-18392445D01*
X45003402Y-18227701D01*
X45030500Y-18056611D01*
X45030500Y-16671020D01*
X45036738Y-16649775D01*
X45038318Y-16627687D01*
X45046390Y-16616903D01*
X45050185Y-16603982D01*
X45066918Y-16589482D01*
X45080190Y-16571754D01*
X45092810Y-16567046D01*
X45102989Y-16558227D01*
X45124906Y-16555075D01*
X45145654Y-16547337D01*
X45158814Y-16550199D01*
X45172147Y-16548283D01*
X45192290Y-16557482D01*
X45213927Y-16562189D01*
X45231652Y-16575457D01*
X45235703Y-16577308D01*
X45242180Y-16583339D01*
X45333181Y-16674340D01*
X45366666Y-16735663D01*
X45369500Y-16762020D01*
X45369500Y-18056611D01*
X45396598Y-18227701D01*
X45450127Y-18392445D01*
X45528768Y-18546788D01*
X45630586Y-18686928D01*
X45753072Y-18809414D01*
X45893212Y-18911232D01*
X46047555Y-18989873D01*
X46212299Y-19043402D01*
X46383389Y-19070500D01*
X46383390Y-19070500D01*
X46556610Y-19070500D01*
X46556611Y-19070500D01*
X46727701Y-19043402D01*
X46892445Y-18989873D01*
X47046788Y-18911232D01*
X47186928Y-18809414D01*
X47309414Y-18686928D01*
X47411232Y-18546788D01*
X47489873Y-18392445D01*
X47543402Y-18227701D01*
X47570500Y-18056611D01*
X47570500Y-16671020D01*
X47576738Y-16649775D01*
X47578318Y-16627687D01*
X47586390Y-16616903D01*
X47590185Y-16603982D01*
X47606918Y-16589482D01*
X47620190Y-16571754D01*
X47632810Y-16567046D01*
X47642989Y-16558227D01*
X47664906Y-16555075D01*
X47685654Y-16547337D01*
X47698814Y-16550199D01*
X47712147Y-16548283D01*
X47732290Y-16557482D01*
X47753927Y-16562189D01*
X47771652Y-16575457D01*
X47775703Y-16577308D01*
X47782180Y-16583339D01*
X47873181Y-16674340D01*
X47906666Y-16735663D01*
X47909500Y-16762020D01*
X47909500Y-18056611D01*
X47936598Y-18227701D01*
X47990127Y-18392445D01*
X48068768Y-18546788D01*
X48170586Y-18686928D01*
X48293072Y-18809414D01*
X48433212Y-18911232D01*
X48479385Y-18934758D01*
X48587550Y-18989871D01*
X48587552Y-18989871D01*
X48587555Y-18989873D01*
X48664117Y-19014749D01*
X48721791Y-19054187D01*
X48748989Y-19118546D01*
X48737074Y-19187392D01*
X48713478Y-19220361D01*
X47085313Y-20848527D01*
X47023990Y-20882012D01*
X46997632Y-20884846D01*
X36245655Y-20884846D01*
X36178616Y-20865161D01*
X36132861Y-20812357D01*
X36122917Y-20743199D01*
X36127724Y-20722527D01*
X36145940Y-20666464D01*
X36175500Y-20479832D01*
X36175500Y-20290859D01*
X36145940Y-20104227D01*
X36087545Y-19924509D01*
X36001759Y-19756146D01*
X35956841Y-19694322D01*
X35890690Y-19603273D01*
X35757073Y-19469656D01*
X35757070Y-19469654D01*
X35753368Y-19466492D01*
X35754841Y-19464767D01*
X35717921Y-19416827D01*
X35709500Y-19371911D01*
X35709500Y-19101499D01*
X35729185Y-19034460D01*
X35781989Y-18988705D01*
X35851147Y-18978761D01*
X35882726Y-18988776D01*
X35883046Y-18988006D01*
X35887547Y-18989870D01*
X35887552Y-18989871D01*
X35887555Y-18989873D01*
X36052299Y-19043402D01*
X36223389Y-19070500D01*
X36223390Y-19070500D01*
X36396610Y-19070500D01*
X36396611Y-19070500D01*
X36567701Y-19043402D01*
X36732445Y-18989873D01*
X36886788Y-18911232D01*
X37026928Y-18809414D01*
X37149414Y-18686928D01*
X37251232Y-18546788D01*
X37329873Y-18392445D01*
X37383402Y-18227701D01*
X37410500Y-18056611D01*
X37410500Y-16483389D01*
X37383402Y-16312299D01*
X37329873Y-16147555D01*
X37251232Y-15993212D01*
X37149414Y-15853072D01*
X37026928Y-15730586D01*
X36985265Y-15700316D01*
X36942602Y-15644988D01*
X36936623Y-15575374D01*
X36969229Y-15513579D01*
X36985266Y-15499683D01*
X37026928Y-15469414D01*
X37149414Y-15346928D01*
X37251232Y-15206788D01*
X37329873Y-15052445D01*
X37383402Y-14887701D01*
X37410500Y-14716611D01*
X37410500Y-13143389D01*
X37383402Y-12972299D01*
X37329873Y-12807555D01*
X37251232Y-12653212D01*
X37149414Y-12513072D01*
X37026928Y-12390586D01*
X36886788Y-12288768D01*
X36732445Y-12210127D01*
X36567701Y-12156598D01*
X36567699Y-12156597D01*
X36567698Y-12156597D01*
X36415495Y-12132491D01*
X36396611Y-12129500D01*
X36223389Y-12129500D01*
X36204505Y-12132491D01*
X36052302Y-12156597D01*
X35887547Y-12210129D01*
X35883046Y-12211994D01*
X35882378Y-12210383D01*
X35821102Y-12221879D01*
X35756366Y-12195590D01*
X35716120Y-12138475D01*
X35709500Y-12098500D01*
X35709500Y-10226243D01*
X35729185Y-10159204D01*
X35781989Y-10113449D01*
X35851147Y-10103505D01*
X35852706Y-10103740D01*
X35889062Y-10109499D01*
X35889067Y-10109499D01*
X36093765Y-10109499D01*
X36093766Y-10109499D01*
X36295948Y-10077476D01*
X36490633Y-10014219D01*
X36673024Y-9921286D01*
X36801169Y-9828184D01*
X36838627Y-9800970D01*
X36838629Y-9800967D01*
X36838633Y-9800965D01*
X36899095Y-9740503D01*
X36960418Y-9707018D01*
X37030110Y-9712002D01*
G37*
%TD.AperFunction*%
%TA.AperFunction,NonConductor*%
G36*
X32588834Y-16554839D02*
G01*
X32644767Y-16596711D01*
X32669184Y-16662175D01*
X32669500Y-16671020D01*
X32669500Y-18056611D01*
X32696598Y-18227701D01*
X32750127Y-18392445D01*
X32828768Y-18546788D01*
X32930586Y-18686928D01*
X33053072Y-18809414D01*
X33193212Y-18911232D01*
X33347555Y-18989873D01*
X33512299Y-19043402D01*
X33683389Y-19070500D01*
X33683390Y-19070500D01*
X33856610Y-19070500D01*
X33856611Y-19070500D01*
X34027701Y-19043402D01*
X34192445Y-18989873D01*
X34198203Y-18986938D01*
X34200909Y-18986430D01*
X34202989Y-18984629D01*
X34235040Y-18980020D01*
X34266872Y-18974042D01*
X34269421Y-18975076D01*
X34272147Y-18974685D01*
X34301611Y-18988140D01*
X34331613Y-19000317D01*
X34333198Y-19002566D01*
X34335703Y-19003710D01*
X34353211Y-19030953D01*
X34371871Y-19057422D01*
X34372444Y-19060880D01*
X34373477Y-19062488D01*
X34378500Y-19097423D01*
X34378500Y-19271647D01*
X34358815Y-19338686D01*
X34327386Y-19371965D01*
X34192925Y-19469657D01*
X34059312Y-19603270D01*
X34059312Y-19603271D01*
X34059310Y-19603273D01*
X34011610Y-19668925D01*
X33948240Y-19756146D01*
X33862454Y-19924509D01*
X33804059Y-20104227D01*
X33774500Y-20290859D01*
X33774500Y-20479832D01*
X33804059Y-20666464D01*
X33822276Y-20722527D01*
X33824271Y-20792368D01*
X33788191Y-20852201D01*
X33725490Y-20883030D01*
X33704345Y-20884846D01*
X29217321Y-20884846D01*
X29150282Y-20865161D01*
X29104527Y-20812357D01*
X29094583Y-20743199D01*
X29123608Y-20679643D01*
X29129640Y-20673165D01*
X30466924Y-19335880D01*
X30466923Y-19335880D01*
X30466927Y-19335877D01*
X30539758Y-19226878D01*
X30565018Y-19165894D01*
X30589925Y-19105764D01*
X30600281Y-19053700D01*
X30602389Y-19047082D01*
X30618210Y-19023650D01*
X30631311Y-18998605D01*
X30637500Y-18995080D01*
X30641487Y-18989176D01*
X30667464Y-18978017D01*
X30692026Y-18964031D01*
X30699138Y-18964412D01*
X30705685Y-18961600D01*
X30733570Y-18966257D01*
X30761796Y-18967770D01*
X30774019Y-18973013D01*
X30774600Y-18973110D01*
X30774918Y-18973398D01*
X30776837Y-18974221D01*
X30807555Y-18989873D01*
X30972299Y-19043402D01*
X31143389Y-19070500D01*
X31143390Y-19070500D01*
X31316610Y-19070500D01*
X31316611Y-19070500D01*
X31487701Y-19043402D01*
X31652445Y-18989873D01*
X31806788Y-18911232D01*
X31946928Y-18809414D01*
X32069414Y-18686928D01*
X32171232Y-18546788D01*
X32249873Y-18392445D01*
X32303402Y-18227701D01*
X32330500Y-18056611D01*
X32330500Y-16762020D01*
X32339144Y-16732580D01*
X32345668Y-16702594D01*
X32349422Y-16697578D01*
X32350185Y-16694982D01*
X32366815Y-16674344D01*
X32457820Y-16583339D01*
X32519142Y-16549855D01*
X32588834Y-16554839D01*
G37*
%TD.AperFunction*%
%TA.AperFunction,NonConductor*%
G36*
X49251169Y-20642916D02*
G01*
X49274114Y-20644557D01*
X49284194Y-20652102D01*
X49296324Y-20655477D01*
X49311632Y-20672642D01*
X49330048Y-20686428D01*
X49335560Y-20699473D01*
X49342828Y-20707622D01*
X49353254Y-20741341D01*
X49380685Y-20914534D01*
X49443944Y-21109223D01*
X49536877Y-21291612D01*
X49556021Y-21317962D01*
X49579500Y-21383768D01*
X49563674Y-21451822D01*
X49513568Y-21500516D01*
X49455702Y-21514846D01*
X48600676Y-21514846D01*
X48533637Y-21495161D01*
X48487882Y-21442357D01*
X48477938Y-21373199D01*
X48506963Y-21309643D01*
X48512995Y-21303165D01*
X48627547Y-21188613D01*
X49143102Y-20673056D01*
X49154149Y-20667024D01*
X49162258Y-20657392D01*
X49184234Y-20650596D01*
X49204423Y-20639573D01*
X49216981Y-20640471D01*
X49229010Y-20636752D01*
X49251169Y-20642916D01*
G37*
%TD.AperFunction*%
%TA.AperFunction,NonConductor*%
G36*
X23474170Y-21652688D02*
G01*
X23500876Y-21672980D01*
X23762061Y-21934165D01*
X23795546Y-21995488D01*
X23790562Y-22065180D01*
X23748690Y-22121113D01*
X23683226Y-22145530D01*
X23674380Y-22145846D01*
X22888724Y-22145846D01*
X22821685Y-22126161D01*
X22775930Y-22073357D01*
X22765986Y-22004199D01*
X22795011Y-21940643D01*
X22850405Y-21903915D01*
X22915705Y-21882697D01*
X23031627Y-21845032D01*
X23214018Y-21752099D01*
X23340310Y-21660342D01*
X23406116Y-21636863D01*
X23474170Y-21652688D01*
G37*
%TD.AperFunction*%
M02*
