%TF.GenerationSoftware,KiCad,Pcbnew,9.0.7*%
%TF.CreationDate,2026-05-06T21:23:28+02:00*%
%TF.ProjectId,BarePi_Zero,42617265-5069-45f5-9a65-726f2e6b6963,rev?*%
%TF.SameCoordinates,Original*%
%TF.FileFunction,Copper,L2,Bot*%
%TF.FilePolarity,Positive*%
%FSLAX46Y46*%
G04 Gerber Fmt 4.6, Leading zero omitted, Abs format (unit mm)*
G04 Created by KiCad (PCBNEW 9.0.7) date 2026-05-06 21:23:28*
%MOMM*%
%LPD*%
G01*
G04 APERTURE LIST*
G04 Aperture macros list*
%AMOutline4P*
0 Free polygon, 4 corners , with rotation*
0 The origin of the aperture is its center*
0 number of corners: always 4*
0 $1 to $8 corner X, Y*
0 $9 Rotation angle, in degrees counterclockwise*
0 create outline with 4 corners*
4,1,4,$1,$2,$3,$4,$5,$6,$7,$8,$1,$2,$9*%
G04 Aperture macros list end*
%ADD10C,0.500000*%
%ADD11C,0.300000*%
%TA.AperFunction,ComponentPad*%
%ADD12Outline4P,-1.500000X-0.800000X1.500000X-0.800000X1.500000X0.800000X-1.500000X0.800000X270.000000*%
%TD*%
%TA.AperFunction,ComponentPad*%
%ADD13O,1.600000X3.000000*%
%TD*%
%TA.AperFunction,ViaPad*%
%ADD14C,1.200000*%
%TD*%
%TA.AperFunction,Conductor*%
%ADD15C,0.330000*%
%TD*%
%TA.AperFunction,Conductor*%
%ADD16C,0.800000*%
%TD*%
G04 APERTURE END LIST*
D10*
G36*
X40146999Y-7660000D02*
G01*
X39465317Y-7660000D01*
X39113277Y-7654103D01*
X38977564Y-7646322D01*
X38872553Y-7626960D01*
X38782927Y-7594947D01*
X38706332Y-7551067D01*
X38638723Y-7494165D01*
X38581024Y-7425571D01*
X38532798Y-7343949D01*
X38497232Y-7255833D01*
X38476260Y-7167247D01*
X38469295Y-7077236D01*
X38471043Y-7059773D01*
X38887316Y-7059773D01*
X38894194Y-7129238D01*
X38913422Y-7185407D01*
X38944103Y-7231109D01*
X39008478Y-7282803D01*
X39090893Y-7311587D01*
X39169150Y-7319813D01*
X39368230Y-7323921D01*
X39742533Y-7323921D01*
X39742533Y-6784633D01*
X39415980Y-6784633D01*
X39163911Y-6794071D01*
X39057431Y-6813576D01*
X38983472Y-6851786D01*
X38931036Y-6905778D01*
X38898708Y-6974299D01*
X38887316Y-7059773D01*
X38471043Y-7059773D01*
X38480581Y-6964491D01*
X38513395Y-6864405D01*
X38567725Y-6774253D01*
X38640694Y-6698303D01*
X38733266Y-6637488D01*
X38849092Y-6591803D01*
X38768107Y-6545713D01*
X38699999Y-6487162D01*
X38643440Y-6415216D01*
X38601248Y-6333992D01*
X38576099Y-6248252D01*
X38572982Y-6214570D01*
X38961078Y-6214570D01*
X38968089Y-6276499D01*
X38987999Y-6327637D01*
X39020551Y-6370397D01*
X39088706Y-6416758D01*
X39183705Y-6441716D01*
X39477529Y-6448555D01*
X39742533Y-6448555D01*
X39742533Y-5987424D01*
X39510258Y-5987424D01*
X39164654Y-5994263D01*
X39099827Y-6008462D01*
X39050105Y-6032072D01*
X39012369Y-6064361D01*
X38974500Y-6129063D01*
X38961078Y-6214570D01*
X38572982Y-6214570D01*
X38567602Y-6156441D01*
X38574632Y-6071431D01*
X38595198Y-5993657D01*
X38629152Y-5921723D01*
X38699070Y-5826546D01*
X38782780Y-5754050D01*
X38880389Y-5702145D01*
X38991852Y-5671252D01*
X39123789Y-5657218D01*
X39346371Y-5651346D01*
X40146999Y-5651346D01*
X40146999Y-7660000D01*
G37*
G36*
X37708725Y-6175003D02*
G01*
X37824899Y-6196367D01*
X37917269Y-6228768D01*
X37990090Y-6270624D01*
X38073535Y-6348690D01*
X38141058Y-6452986D01*
X38192201Y-6589239D01*
X37843789Y-6651765D01*
X37800073Y-6558843D01*
X37750976Y-6505830D01*
X37686138Y-6475625D01*
X37591119Y-6464187D01*
X37490123Y-6471146D01*
X37424886Y-6488542D01*
X37384856Y-6512669D01*
X37356251Y-6548902D01*
X37337320Y-6601107D01*
X37330146Y-6674968D01*
X37330146Y-6714291D01*
X37455386Y-6754803D01*
X37703105Y-6809057D01*
X37889878Y-6854009D01*
X38008408Y-6899061D01*
X38074318Y-6938799D01*
X38128797Y-6987986D01*
X38173028Y-7047316D01*
X38205355Y-7114025D01*
X38225016Y-7187018D01*
X38231768Y-7267745D01*
X38223375Y-7358837D01*
X38199080Y-7439438D01*
X38159198Y-7511621D01*
X38102686Y-7576835D01*
X38034927Y-7628670D01*
X37955151Y-7666648D01*
X37861022Y-7690589D01*
X37749511Y-7699078D01*
X37625591Y-7686748D01*
X37510397Y-7650230D01*
X37403367Y-7590299D01*
X37299982Y-7503684D01*
X37286304Y-7548136D01*
X37249424Y-7660000D01*
X36869626Y-7660000D01*
X36913125Y-7556053D01*
X36938625Y-7464117D01*
X36951586Y-7360026D01*
X36957065Y-7180307D01*
X36955822Y-7041210D01*
X37330146Y-7041210D01*
X37334881Y-7168754D01*
X37345167Y-7229277D01*
X37378403Y-7298089D01*
X37436758Y-7356894D01*
X37502173Y-7395726D01*
X37567759Y-7418140D01*
X37634839Y-7425526D01*
X37694377Y-7418673D01*
X37744687Y-7399014D01*
X37787857Y-7366542D01*
X37821566Y-7324216D01*
X37841273Y-7278043D01*
X37847941Y-7226468D01*
X37839787Y-7175358D01*
X37815520Y-7130751D01*
X37772836Y-7090669D01*
X37708953Y-7061684D01*
X37563764Y-7023381D01*
X37330146Y-6964396D01*
X37330146Y-7041210D01*
X36955822Y-7041210D01*
X36953035Y-6729434D01*
X36960596Y-6559464D01*
X36979312Y-6449952D01*
X37004326Y-6383709D01*
X37044619Y-6326933D01*
X37102417Y-6275203D01*
X37181280Y-6228370D01*
X37267850Y-6197331D01*
X37391695Y-6175561D01*
X37563764Y-6167187D01*
X37708725Y-6175003D01*
G37*
G36*
X36207850Y-7660000D02*
G01*
X36591800Y-7660000D01*
X36591800Y-6206266D01*
X36235205Y-6206266D01*
X36235205Y-6412529D01*
X36141000Y-6282019D01*
X36070586Y-6216769D01*
X35993027Y-6179735D01*
X35904623Y-6167187D01*
X35819086Y-6175062D01*
X35735237Y-6198835D01*
X35651831Y-6239483D01*
X35770655Y-6573852D01*
X35868034Y-6525476D01*
X35951029Y-6511081D01*
X36026497Y-6522618D01*
X36087683Y-6555900D01*
X36134528Y-6613087D01*
X36175732Y-6717711D01*
X36197465Y-6866422D01*
X36207850Y-7208150D01*
X36207850Y-7660000D01*
G37*
G36*
X35073842Y-6180523D02*
G01*
X35197998Y-6219194D01*
X35309482Y-6282894D01*
X35410519Y-6373572D01*
X35489974Y-6481356D01*
X35548622Y-6609532D01*
X35585825Y-6762094D01*
X35599075Y-6944124D01*
X35589245Y-7096626D01*
X35561216Y-7229835D01*
X35516487Y-7346615D01*
X35455582Y-7449340D01*
X35377209Y-7537267D01*
X35284578Y-7605773D01*
X35175652Y-7656079D01*
X35047304Y-7687823D01*
X34895533Y-7699078D01*
X34739571Y-7685673D01*
X34608381Y-7647786D01*
X34497295Y-7587215D01*
X34402530Y-7503406D01*
X34324948Y-7396163D01*
X34264288Y-7261395D01*
X34646772Y-7198869D01*
X34687873Y-7294702D01*
X34739706Y-7353963D01*
X34806939Y-7389601D01*
X34891381Y-7402079D01*
X34975632Y-7391355D01*
X35048436Y-7360127D01*
X35112665Y-7307435D01*
X35160738Y-7239278D01*
X35192277Y-7152666D01*
X35205600Y-7042554D01*
X34243771Y-7042554D01*
X34249698Y-6857266D01*
X34257058Y-6808080D01*
X34624912Y-6808080D01*
X35198761Y-6808080D01*
X35189524Y-6705126D01*
X35162136Y-6622846D01*
X35118161Y-6556755D01*
X35058421Y-6505175D01*
X34990139Y-6474673D01*
X34910432Y-6464187D01*
X34835877Y-6473980D01*
X34770209Y-6502770D01*
X34711008Y-6551870D01*
X34667073Y-6615190D01*
X34637653Y-6698662D01*
X34624912Y-6808080D01*
X34257058Y-6808080D01*
X34272779Y-6703009D01*
X34310361Y-6575098D01*
X34360647Y-6469429D01*
X34422801Y-6382609D01*
X34523445Y-6289424D01*
X34639839Y-6222852D01*
X34775106Y-6181650D01*
X34933757Y-6167187D01*
X35073842Y-6180523D01*
G37*
G36*
X33928942Y-7660000D02*
G01*
X33524598Y-7660000D01*
X33524598Y-6901870D01*
X33260938Y-6901870D01*
X33002511Y-6893492D01*
X32841451Y-6873049D01*
X32737546Y-6838500D01*
X32631646Y-6777916D01*
X32568022Y-6725075D01*
X32511384Y-6659611D01*
X32461531Y-6579958D01*
X32425608Y-6493445D01*
X32402751Y-6390859D01*
X32395025Y-6275265D01*
X32811409Y-6275265D01*
X32823134Y-6361028D01*
X32857205Y-6433778D01*
X32911261Y-6492444D01*
X32983600Y-6533796D01*
X33083936Y-6555604D01*
X33303314Y-6565792D01*
X33524598Y-6565792D01*
X33524598Y-5987424D01*
X33329204Y-5987424D01*
X33128703Y-5991877D01*
X33038189Y-6001346D01*
X32975882Y-6019651D01*
X32922179Y-6049598D01*
X32875645Y-6091716D01*
X32840502Y-6143165D01*
X32818964Y-6203540D01*
X32811409Y-6275265D01*
X32395025Y-6275265D01*
X32394609Y-6269036D01*
X32408646Y-6113107D01*
X32448041Y-5984620D01*
X32510746Y-5878126D01*
X32595809Y-5787768D01*
X32691294Y-5723028D01*
X32799075Y-5681510D01*
X32942689Y-5661162D01*
X33279989Y-5651346D01*
X33928942Y-5651346D01*
X33928942Y-7660000D01*
G37*
G36*
X32065614Y-6003056D02*
G01*
X32065614Y-5651346D01*
X31681786Y-5651346D01*
X31681786Y-6003056D01*
X32065614Y-6003056D01*
G37*
G36*
X32065614Y-7660000D02*
G01*
X32065614Y-6206266D01*
X31681786Y-6206266D01*
X31681786Y-7660000D01*
X32065614Y-7660000D01*
G37*
G36*
X30681123Y-7660000D02*
G01*
X30681123Y-7284842D01*
X29629047Y-5987424D01*
X30562299Y-5987424D01*
X30562299Y-5651346D01*
X29096231Y-5651346D01*
X29096231Y-5963977D01*
X30193370Y-7323921D01*
X29053977Y-7323921D01*
X29053977Y-7660000D01*
X30681123Y-7660000D01*
G37*
G36*
X28387450Y-6180523D02*
G01*
X28511606Y-6219194D01*
X28623090Y-6282894D01*
X28724127Y-6373572D01*
X28803582Y-6481356D01*
X28862230Y-6609532D01*
X28899433Y-6762094D01*
X28912683Y-6944124D01*
X28902853Y-7096626D01*
X28874824Y-7229835D01*
X28830095Y-7346615D01*
X28769190Y-7449340D01*
X28690817Y-7537267D01*
X28598186Y-7605773D01*
X28489260Y-7656079D01*
X28360912Y-7687823D01*
X28209141Y-7699078D01*
X28053179Y-7685673D01*
X27921989Y-7647786D01*
X27810903Y-7587215D01*
X27716138Y-7503406D01*
X27638556Y-7396163D01*
X27577895Y-7261395D01*
X27960380Y-7198869D01*
X28001480Y-7294702D01*
X28053314Y-7353963D01*
X28120547Y-7389601D01*
X28204989Y-7402079D01*
X28289240Y-7391355D01*
X28362044Y-7360127D01*
X28426273Y-7307435D01*
X28474346Y-7239278D01*
X28505885Y-7152666D01*
X28519207Y-7042554D01*
X27557379Y-7042554D01*
X27563306Y-6857266D01*
X27570666Y-6808080D01*
X27938520Y-6808080D01*
X28512369Y-6808080D01*
X28503132Y-6705126D01*
X28475744Y-6622846D01*
X28431768Y-6556755D01*
X28372028Y-6505175D01*
X28303746Y-6474673D01*
X28224040Y-6464187D01*
X28149485Y-6473980D01*
X28083817Y-6502770D01*
X28024616Y-6551870D01*
X27980681Y-6615190D01*
X27951261Y-6698662D01*
X27938520Y-6808080D01*
X27570666Y-6808080D01*
X27586387Y-6703009D01*
X27623968Y-6575098D01*
X27674255Y-6469429D01*
X27736409Y-6382609D01*
X27837053Y-6289424D01*
X27953447Y-6222852D01*
X28088713Y-6181650D01*
X28247365Y-6167187D01*
X28387450Y-6180523D01*
G37*
G36*
X26877773Y-7660000D02*
G01*
X27261723Y-7660000D01*
X27261723Y-6206266D01*
X26905129Y-6206266D01*
X26905129Y-6412529D01*
X26810924Y-6282019D01*
X26740509Y-6216769D01*
X26662950Y-6179735D01*
X26574546Y-6167187D01*
X26489010Y-6175062D01*
X26405160Y-6198835D01*
X26321755Y-6239483D01*
X26440579Y-6573852D01*
X26537957Y-6525476D01*
X26620952Y-6511081D01*
X26696420Y-6522618D01*
X26757606Y-6555900D01*
X26804451Y-6613087D01*
X26845655Y-6717711D01*
X26867388Y-6866422D01*
X26877773Y-7208150D01*
X26877773Y-7660000D01*
G37*
G36*
X25638072Y-6178092D02*
G01*
X25766040Y-6209965D01*
X25884438Y-6262442D01*
X25990692Y-6335256D01*
X26079256Y-6426578D01*
X26151517Y-6538436D01*
X26204347Y-6661652D01*
X26235459Y-6785802D01*
X26245795Y-6912372D01*
X26234417Y-7078673D01*
X26202305Y-7220214D01*
X26151517Y-7341018D01*
X26078961Y-7448923D01*
X25987882Y-7537349D01*
X25876256Y-7607976D01*
X25752906Y-7658775D01*
X25626546Y-7688971D01*
X25495725Y-7699078D01*
X25338264Y-7684830D01*
X25198792Y-7643598D01*
X25073807Y-7575984D01*
X24960833Y-7480359D01*
X24868457Y-7364789D01*
X24802663Y-7236242D01*
X24762323Y-7092144D01*
X24748457Y-6930324D01*
X25143161Y-6930324D01*
X25156075Y-7075392D01*
X25191102Y-7185914D01*
X25245010Y-7269699D01*
X25319174Y-7335181D01*
X25402095Y-7373431D01*
X25497069Y-7386448D01*
X25592070Y-7373447D01*
X25675247Y-7335206D01*
X25749860Y-7269699D01*
X25804223Y-7185911D01*
X25839395Y-7076220D01*
X25852320Y-6933133D01*
X25839392Y-6790047D01*
X25804218Y-6680401D01*
X25749860Y-6596688D01*
X25675238Y-6531108D01*
X25592062Y-6492830D01*
X25497069Y-6479818D01*
X25402103Y-6492846D01*
X25319183Y-6531132D01*
X25245010Y-6596688D01*
X25190890Y-6680305D01*
X25155964Y-6789114D01*
X25143161Y-6930324D01*
X24748457Y-6930324D01*
X24748342Y-6928981D01*
X24762203Y-6767166D01*
X24802173Y-6624456D01*
X24867325Y-6497332D01*
X24958757Y-6383220D01*
X25070564Y-6289265D01*
X25195813Y-6222431D01*
X25337181Y-6181428D01*
X25498412Y-6167187D01*
X25638072Y-6178092D01*
G37*
D11*
G36*
X2271000Y-32831960D02*
G01*
X2267462Y-33043184D01*
X2262793Y-33124612D01*
X2251176Y-33187619D01*
X2231968Y-33241394D01*
X2205640Y-33287351D01*
X2171499Y-33327917D01*
X2130343Y-33362536D01*
X2081369Y-33391472D01*
X2028500Y-33412811D01*
X1975348Y-33425394D01*
X1921341Y-33429574D01*
X1853694Y-33422802D01*
X1793643Y-33403114D01*
X1739551Y-33370516D01*
X1693982Y-33326734D01*
X1657493Y-33271191D01*
X1630082Y-33201695D01*
X1602428Y-33250286D01*
X1567297Y-33291151D01*
X1524129Y-33325087D01*
X1475395Y-33350402D01*
X1423951Y-33365491D01*
X1368864Y-33370589D01*
X1317859Y-33366371D01*
X1271194Y-33354032D01*
X1228034Y-33333660D01*
X1170927Y-33291709D01*
X1127430Y-33241482D01*
X1096287Y-33182917D01*
X1077751Y-33116039D01*
X1069331Y-33036877D01*
X1065808Y-32903328D01*
X1065808Y-32804996D01*
X1267454Y-32804996D01*
X1271558Y-33012358D01*
X1280077Y-33051254D01*
X1294243Y-33081087D01*
X1313616Y-33103729D01*
X1352438Y-33126450D01*
X1403742Y-33134504D01*
X1440899Y-33130297D01*
X1471582Y-33118351D01*
X1497238Y-33098820D01*
X1525054Y-33057927D01*
X1540030Y-33000928D01*
X1543274Y-32861563D01*
X1745780Y-32861563D01*
X1751442Y-33012804D01*
X1763145Y-33076692D01*
X1786072Y-33121067D01*
X1818466Y-33152529D01*
X1859579Y-33171926D01*
X1910863Y-33178761D01*
X1952542Y-33174634D01*
X1986244Y-33163098D01*
X2013665Y-33144689D01*
X2044682Y-33106064D01*
X2061952Y-33056615D01*
X2066887Y-33009661D01*
X2069353Y-32890212D01*
X2069353Y-32665631D01*
X1745780Y-32665631D01*
X1745780Y-32861563D01*
X1543274Y-32861563D01*
X1544133Y-32824633D01*
X1544133Y-32665631D01*
X1267454Y-32665631D01*
X1267454Y-32804996D01*
X1065808Y-32804996D01*
X1065808Y-32422951D01*
X2271000Y-32422951D01*
X2271000Y-32831960D01*
G37*
G36*
X1794711Y-33592319D02*
G01*
X1896223Y-33612556D01*
X1984849Y-33644725D01*
X2062412Y-33688291D01*
X2130316Y-33743401D01*
X2188334Y-33809612D01*
X2233613Y-33883982D01*
X2266662Y-33967665D01*
X2287256Y-34062238D01*
X2294447Y-34169630D01*
X2287262Y-34275523D01*
X2266650Y-34369083D01*
X2233501Y-34452176D01*
X2187977Y-34526325D01*
X2129510Y-34592634D01*
X2061363Y-34647614D01*
X1983242Y-34691163D01*
X1893684Y-34723380D01*
X1790802Y-34743683D01*
X1672360Y-34750830D01*
X1552896Y-34743616D01*
X1449267Y-34723134D01*
X1359192Y-34690651D01*
X1280742Y-34646769D01*
X1212427Y-34591388D01*
X1153781Y-34524579D01*
X1108129Y-34449973D01*
X1074898Y-34366474D01*
X1054245Y-34272569D01*
X1047214Y-34168824D01*
X1253386Y-34168824D01*
X1260176Y-34242124D01*
X1279639Y-34305470D01*
X1311304Y-34360802D01*
X1355895Y-34409452D01*
X1408961Y-34446510D01*
X1476202Y-34474775D01*
X1560799Y-34493268D01*
X1666645Y-34500017D01*
X1773540Y-34493125D01*
X1859434Y-34474191D01*
X1928134Y-34445157D01*
X1982744Y-34406960D01*
X2029048Y-34356903D01*
X2061551Y-34301389D01*
X2081293Y-34239267D01*
X2088110Y-34168824D01*
X2081268Y-34098436D01*
X2061419Y-34036103D01*
X2028671Y-33980147D01*
X1981938Y-33929441D01*
X1926781Y-33890510D01*
X1858385Y-33861130D01*
X1773932Y-33842101D01*
X1669942Y-33835212D01*
X1563790Y-33842031D01*
X1478716Y-33860742D01*
X1410878Y-33889390D01*
X1357140Y-33927023D01*
X1311908Y-33976347D01*
X1279867Y-34032124D01*
X1260223Y-34095651D01*
X1253386Y-34168824D01*
X1047214Y-34168824D01*
X1047050Y-34166406D01*
X1052700Y-34069468D01*
X1068879Y-33983631D01*
X1094750Y-33907386D01*
X1122039Y-33853428D01*
X1158004Y-33801727D01*
X1203414Y-33751974D01*
X1281457Y-33688526D01*
X1368791Y-33640160D01*
X1453948Y-33610865D01*
X1556035Y-33591981D01*
X1678149Y-33585205D01*
X1794711Y-33592319D01*
G37*
G36*
X2271000Y-35210910D02*
G01*
X1267454Y-35210910D01*
X1267454Y-34854291D01*
X1065808Y-34854291D01*
X1065808Y-35809330D01*
X1267454Y-35809330D01*
X1267454Y-35453517D01*
X2271000Y-35453517D01*
X2271000Y-35210910D01*
G37*
G36*
X2271000Y-36236730D02*
G01*
X1267454Y-36236730D01*
X1267454Y-35880111D01*
X1065808Y-35880111D01*
X1065808Y-36835150D01*
X1267454Y-36835150D01*
X1267454Y-36479337D01*
X2271000Y-36479337D01*
X2271000Y-36236730D01*
G37*
G36*
X1794711Y-36919493D02*
G01*
X1896223Y-36939730D01*
X1984849Y-36971899D01*
X2062412Y-37015464D01*
X2130316Y-37070575D01*
X2188334Y-37136786D01*
X2233613Y-37211156D01*
X2266662Y-37294838D01*
X2287256Y-37389412D01*
X2294447Y-37496803D01*
X2287262Y-37602697D01*
X2266650Y-37696257D01*
X2233501Y-37779349D01*
X2187977Y-37853499D01*
X2129510Y-37919808D01*
X2061363Y-37974788D01*
X1983242Y-38018336D01*
X1893684Y-38050554D01*
X1790802Y-38070857D01*
X1672360Y-38078004D01*
X1552896Y-38070790D01*
X1449267Y-38050307D01*
X1359192Y-38017825D01*
X1280742Y-37973943D01*
X1212427Y-37918562D01*
X1153781Y-37851753D01*
X1108129Y-37777147D01*
X1074898Y-37693648D01*
X1054245Y-37599742D01*
X1047214Y-37495997D01*
X1253386Y-37495997D01*
X1260176Y-37569298D01*
X1279639Y-37632644D01*
X1311304Y-37687976D01*
X1355895Y-37736625D01*
X1408961Y-37773684D01*
X1476202Y-37801949D01*
X1560799Y-37820441D01*
X1666645Y-37827191D01*
X1773540Y-37820299D01*
X1859434Y-37801365D01*
X1928134Y-37772331D01*
X1982744Y-37734134D01*
X2029048Y-37684077D01*
X2061551Y-37628563D01*
X2081293Y-37566441D01*
X2088110Y-37495997D01*
X2081268Y-37425609D01*
X2061419Y-37363277D01*
X2028671Y-37307320D01*
X1981938Y-37256615D01*
X1926781Y-37217683D01*
X1858385Y-37188304D01*
X1773932Y-37169275D01*
X1669942Y-37162386D01*
X1563790Y-37169205D01*
X1478716Y-37187915D01*
X1410878Y-37216564D01*
X1357140Y-37254197D01*
X1311908Y-37303520D01*
X1279867Y-37359298D01*
X1260223Y-37422825D01*
X1253386Y-37495997D01*
X1047214Y-37495997D01*
X1047050Y-37493579D01*
X1052700Y-37396641D01*
X1068879Y-37310805D01*
X1094750Y-37234560D01*
X1122039Y-37180602D01*
X1158004Y-37128900D01*
X1203414Y-37079148D01*
X1281457Y-37015700D01*
X1368791Y-36967334D01*
X1453948Y-36938038D01*
X1556035Y-36919155D01*
X1678149Y-36912379D01*
X1794711Y-36919493D01*
G37*
G36*
X2271000Y-38264263D02*
G01*
X1065808Y-38264263D01*
X1065808Y-38627404D01*
X1887929Y-38845464D01*
X1065808Y-39061032D01*
X1065808Y-39425052D01*
X2271000Y-39425052D01*
X2271000Y-39199591D01*
X1322336Y-39199591D01*
X2271000Y-38961088D01*
X2271000Y-38727421D01*
X1322336Y-38489724D01*
X2271000Y-38489724D01*
X2271000Y-38264263D01*
G37*
D12*
%TO.P,J2,1,Pin_1*%
%TO.N,/5V*%
X8370000Y-39270000D03*
D13*
%TO.P,J2,2,Pin_2*%
X8370000Y-35930000D03*
%TO.P,J2,3,Pin_3*%
%TO.N,/3V3*%
X10910000Y-39270000D03*
%TO.P,J2,4,Pin_4*%
X10910000Y-35930000D03*
%TO.P,J2,5,Pin_5*%
%TO.N,/BUS_SDA*%
X13450000Y-39270000D03*
%TO.P,J2,6,Pin_6*%
%TO.N,/BUS_SCL*%
X13450000Y-35930000D03*
%TO.P,J2,7,Pin_7*%
%TO.N,/I2C_SDA*%
X15990000Y-39270000D03*
%TO.P,J2,8,Pin_8*%
%TO.N,/I2C_SCL*%
X15990000Y-35930000D03*
%TO.P,J2,9,Pin_9*%
%TO.N,/KEY_ALT*%
X18530000Y-39270000D03*
%TO.P,J2,10,Pin_10*%
%TO.N,/KEY_DOWN*%
X18530000Y-35930000D03*
%TO.P,J2,11,Pin_11*%
%TO.N,/KEY_UP*%
X21070000Y-39270000D03*
%TO.P,J2,12,Pin_12*%
%TO.N,/SPI_CS1*%
X21070000Y-35930000D03*
%TO.P,J2,13,Pin_13*%
%TO.N,/SPI_CS0*%
X23610000Y-39270000D03*
%TO.P,J2,14,Pin_14*%
%TO.N,/SPI_MISO*%
X23610000Y-35930000D03*
%TO.P,J2,15,Pin_15*%
%TO.N,/SPI_MOSI*%
X26150000Y-39270000D03*
%TO.P,J2,16,Pin_16*%
%TO.N,/SPI_SCLK*%
X26150000Y-35930000D03*
%TO.P,J2,17,Pin_17*%
%TO.N,/PWM_L*%
X28690000Y-39270000D03*
%TO.P,J2,18,Pin_18*%
%TO.N,/PWM_R*%
X28690000Y-35930000D03*
%TO.P,J2,19,Pin_19*%
%TO.N,/UART_TX*%
X31230000Y-39270000D03*
%TO.P,J2,20,Pin_20*%
%TO.N,/UART_RX*%
X31230000Y-35930000D03*
%TO.P,J2,21,Pin_21*%
%TO.N,/LCD_DC*%
X33770000Y-39270000D03*
%TO.P,J2,22,Pin_22*%
%TO.N,/LCD_RES*%
X33770000Y-35930000D03*
%TO.P,J2,23,Pin_23*%
%TO.N,/LCD_CS*%
X36310000Y-39270000D03*
%TO.P,J2,24,Pin_24*%
%TO.N,/LCD_BL*%
X36310000Y-35930000D03*
%TO.P,J2,25,Pin_25*%
%TO.N,/LCD_MOSI*%
X38850000Y-39270000D03*
%TO.P,J2,26,Pin_26*%
%TO.N,/LCD_SCK*%
X38850000Y-35930000D03*
%TO.P,J2,27,Pin_27*%
%TO.N,/KEY_A*%
X41390000Y-39270000D03*
%TO.P,J2,28,Pin_28*%
%TO.N,/KEY_B*%
X41390000Y-35930000D03*
%TO.P,J2,29,Pin_29*%
%TO.N,/KEY_X*%
X43930000Y-39270000D03*
%TO.P,J2,30,Pin_30*%
%TO.N,/KEY_RIGHT*%
X43930000Y-35930000D03*
%TO.P,J2,31,Pin_31*%
%TO.N,/KEY_LEFT*%
X46470000Y-39270000D03*
%TO.P,J2,32,Pin_32*%
%TO.N,/KEY_Y*%
X46470000Y-35930000D03*
%TO.P,J2,33,Pin_33*%
%TO.N,unconnected-(J2-Pin_33-Pad33)*%
X49010000Y-39270000D03*
%TO.P,J2,34,Pin_34*%
%TO.N,unconnected-(J2-Pin_34-Pad34)*%
X49010000Y-35930000D03*
%TO.P,J2,35,Pin_35*%
%TO.N,unconnected-(J2-Pin_35-Pad35)*%
X51550000Y-39270000D03*
%TO.P,J2,36,Pin_36*%
%TO.N,unconnected-(J2-Pin_36-Pad36)*%
X51550000Y-35930000D03*
%TO.P,J2,37,Pin_37*%
%TO.N,unconnected-(J2-Pin_37-Pad37)*%
X54090000Y-39270000D03*
%TO.P,J2,38,Pin_38*%
%TO.N,unconnected-(J2-Pin_38-Pad38)*%
X54090000Y-35930000D03*
%TO.P,J2,39,Pin_39*%
%TO.N,/GND*%
X56630000Y-39270000D03*
%TO.P,J2,40,Pin_40*%
X56630000Y-35930000D03*
%TD*%
%TO.P,J1,1,3V3*%
%TO.N,/3V3*%
X8370000Y-24830000D03*
%TO.P,J1,2,5V*%
%TO.N,/5V*%
X8370000Y-28170000D03*
%TO.P,J1,3,GPIO2/I2C1_SDA*%
%TO.N,/I2C_SDA*%
X10910000Y-24830000D03*
%TO.P,J1,4,5V*%
%TO.N,/5V*%
X10910000Y-28170000D03*
%TO.P,J1,5,GPIO3/I2C1_SCL*%
%TO.N,/I2C_SCL*%
X13450000Y-24830000D03*
%TO.P,J1,6,GND*%
%TO.N,/GND*%
X13450000Y-28170000D03*
%TO.P,J1,7,GPIO4/GCLK0*%
%TO.N,/KEY_ALT*%
X15990000Y-24830000D03*
%TO.P,J1,8,GPIO14/UART_TX*%
%TO.N,/UART_TX*%
X15990000Y-28170000D03*
%TO.P,J1,9,GND*%
%TO.N,/GND*%
X18530000Y-24830000D03*
%TO.P,J1,10,GPIO15/UART_RX*%
%TO.N,/UART_RX*%
X18530000Y-28170000D03*
%TO.P,J1,11,GPIO17//~{SPI1_CE1}*%
%TO.N,/LCD_RES*%
X21070000Y-24830000D03*
%TO.P,J1,12,GPIO18//~{SPI1_CE0}*%
%TO.N,/LCD_CS*%
X21070000Y-28170000D03*
%TO.P,J1,13,GPIO27*%
%TO.N,/KEY_Y*%
X23610000Y-24830000D03*
%TO.P,J1,14,GND*%
%TO.N,/GND*%
X23610000Y-28170000D03*
%TO.P,J1,15,GPIO22*%
%TO.N,/KEY_A*%
X26150000Y-24830000D03*
%TO.P,J1,16,GPIO23*%
%TO.N,/KEY_B*%
X26150000Y-28170000D03*
%TO.P,J1,17,3V3*%
%TO.N,/3V3*%
X28690000Y-24830000D03*
%TO.P,J1,18,GPIO24*%
%TO.N,/KEY_X*%
X28690000Y-28170000D03*
%TO.P,J1,19,GPIO10/SPI0_MOSI*%
%TO.N,/SPI_MOSI*%
X31230000Y-24830000D03*
%TO.P,J1,20,GND*%
%TO.N,/GND*%
X31230000Y-28170000D03*
%TO.P,J1,21,GPIO9/SPI0_MISO*%
%TO.N,/SPI_MISO*%
X33770000Y-24830000D03*
%TO.P,J1,22,GPIO25*%
%TO.N,/KEY_RIGHT*%
X33770000Y-28170000D03*
%TO.P,J1,23,GPIO11/SPI0_SCLK*%
%TO.N,/SPI_SCLK*%
X36310000Y-24830000D03*
%TO.P,J1,24,GPIO8/~{SPI0_CE0}*%
%TO.N,/SPI_CS0*%
X36310000Y-28170000D03*
%TO.P,J1,25,GND*%
%TO.N,/GND*%
X38850000Y-24830000D03*
%TO.P,J1,26,GPIO7/~{SPI0_CE1}*%
%TO.N,/SPI_CS1*%
X38850000Y-28170000D03*
%TO.P,J1,27,GPIO0/I2C0_SDA*%
%TO.N,/BUS_SDA*%
X41390000Y-24830000D03*
%TO.P,J1,28,GPIO1/I2C0_SCL*%
%TO.N,/BUS_SCL*%
X41390000Y-28170000D03*
%TO.P,J1,29,GPIO5/GCLK1*%
%TO.N,/KEY_DOWN*%
X43930000Y-24830000D03*
%TO.P,J1,30,GND*%
%TO.N,/GND*%
X43930000Y-28170000D03*
%TO.P,J1,31,GPIO6/GCLK2*%
%TO.N,/KEY_UP*%
X46470000Y-24830000D03*
%TO.P,J1,32,GPIO12/PWM0*%
%TO.N,/PWM_L*%
X46470000Y-28170000D03*
%TO.P,J1,33,GPIO13/PWM1*%
%TO.N,/PWM_R*%
X49010000Y-24830000D03*
%TO.P,J1,34,GND*%
%TO.N,/GND*%
X49010000Y-28170000D03*
%TO.P,J1,35,GPIO19/SPI1_MISO*%
%TO.N,/LCD_BL*%
X51550000Y-24830000D03*
%TO.P,J1,36,GPIO16/~{SPI1_CE2}*%
%TO.N,/LCD_DC*%
X51550000Y-28170000D03*
%TO.P,J1,37,GPIO26*%
%TO.N,/KEY_LEFT*%
X54090000Y-24830000D03*
%TO.P,J1,38,GPIO20/SPI1_MOSI*%
%TO.N,/LCD_MOSI*%
X54090000Y-28170000D03*
%TO.P,J1,39,GND*%
%TO.N,/GND*%
X56630000Y-24830000D03*
%TO.P,J1,40,GPIO21/SPI1_SCLK*%
%TO.N,/LCD_SCK*%
X56630000Y-28170000D03*
%TD*%
D14*
%TO.N,/KEY_RIGHT*%
X43700000Y-31175000D03*
X34775000Y-31350000D03*
%TO.N,/GND*%
X24350000Y-41675000D03*
X23897233Y-33295280D03*
%TO.N,/LCD_BL*%
X38099215Y-18829303D03*
X50725000Y-20650000D03*
%TO.N,/LCD_DC*%
X50400000Y-43200000D03*
X32896711Y-44226495D03*
%TO.N,/PWM_L*%
X46470000Y-33000000D03*
X28148933Y-43561000D03*
%TO.N,/SPI_CS1*%
X38867111Y-32425000D03*
X20226868Y-33486026D03*
%TO.N,/3V3*%
X8400000Y-21050000D03*
X24975000Y-17225000D03*
%TO.N,/LCD_RES*%
X31290001Y-20963605D03*
X20936469Y-21002156D03*
%TO.N,/SPI_MOSI*%
X30221757Y-17664041D03*
X26384691Y-18855870D03*
%TO.N,/KEY_Y*%
X45167465Y-21661473D03*
X23086469Y-20595794D03*
%TO.N,/UART_RX*%
X31923000Y-31838200D03*
X17300000Y-31700000D03*
%TO.N,/KEY_A*%
X40225000Y-21035717D03*
X25538363Y-20113663D03*
%TO.N,/SPI_MISO*%
X24167053Y-19505783D03*
X33375832Y-18140635D03*
%TO.N,/KEY_X*%
X43889099Y-41501320D03*
X29525000Y-33400000D03*
%TO.N,/KEY_LEFT*%
X53405761Y-22344239D03*
X47475000Y-22375000D03*
%TO.N,/LCD_MOSI*%
X52550000Y-41725000D03*
X38764443Y-43114443D03*
%TO.N,/SPI_CS0*%
X23009222Y-42347551D03*
X34872764Y-42242748D03*
%TO.N,/KEY_B*%
X26028696Y-44873977D03*
X42355395Y-44800000D03*
%TO.N,/KEY_DOWN*%
X43789000Y-22252947D03*
X18772292Y-31032279D03*
%TO.N,/I2C_SDA*%
X10850000Y-22450000D03*
X16943450Y-22002822D03*
%TO.N,/KEY_UP*%
X21261307Y-17377171D03*
X46475000Y-17150000D03*
%TO.N,/UART_TX*%
X15787107Y-33227667D03*
X30627080Y-44211000D03*
%TO.N,/SPI_SCLK*%
X35393190Y-21921552D03*
X27248174Y-30724707D03*
%TO.N,/PWM_R*%
X48025000Y-20875000D03*
X28857424Y-16982142D03*
%TO.N,/LCD_CS*%
X21726862Y-33491253D03*
X36474486Y-42362493D03*
%TO.N,/KEY_ALT*%
X15700231Y-21163529D03*
X19437373Y-20950000D03*
%TO.N,/LCD_SCK*%
X55775000Y-30675000D03*
X40197776Y-33117344D03*
%TO.N,/BUS_SCL*%
X12375000Y-32584789D03*
X41900000Y-31775000D03*
%TO.N,/BUS_SDA*%
X41300000Y-17825000D03*
X13250000Y-19675000D03*
%TD*%
D15*
%TO.N,/KEY_RIGHT*%
X43930000Y-31405000D02*
X43700000Y-31175000D01*
X33770000Y-29495000D02*
X34775000Y-30500000D01*
X34775000Y-30500000D02*
X34775000Y-31350000D01*
X33770000Y-27770000D02*
X33770000Y-29495000D01*
X43930000Y-36330000D02*
X43930000Y-31405000D01*
%TO.N,/GND*%
X56630000Y-38870000D02*
X56630000Y-36330000D01*
D16*
X42814000Y-15850000D02*
X47450000Y-15850000D01*
X18137373Y-21348895D02*
X18137373Y-21488478D01*
D15*
X32500000Y-43065640D02*
X31880000Y-43685640D01*
D16*
X38925000Y-17816610D02*
X38925000Y-16000000D01*
D15*
X42656000Y-26496000D02*
X42656000Y-16008000D01*
D16*
X47450000Y-15850000D02*
X48375000Y-16775000D01*
D15*
X13450000Y-33330078D02*
X14724000Y-34604078D01*
X31230000Y-30028586D02*
X31964614Y-30763200D01*
D16*
X38925000Y-15900000D02*
X38700000Y-15675000D01*
X50675000Y-17775000D02*
X49375000Y-17775000D01*
D15*
X38925000Y-16000000D02*
X38975000Y-15950000D01*
X50284000Y-26496000D02*
X50284000Y-21747457D01*
D16*
X26567174Y-46173977D02*
X24019989Y-46173977D01*
X58575000Y-25075000D02*
X56785000Y-25075000D01*
X49375000Y-17775000D02*
X48375000Y-16775000D01*
X58575000Y-30750000D02*
X58575000Y-25075000D01*
D15*
X13450000Y-27770000D02*
X13450000Y-33330078D01*
D16*
X18530000Y-21881105D02*
X18530000Y-25230000D01*
X17801677Y-21013199D02*
X18137373Y-21348895D01*
D15*
X38850000Y-25230000D02*
X38925000Y-25155000D01*
D16*
X17801677Y-18948323D02*
X17801677Y-21013199D01*
D15*
X49010000Y-27770000D02*
X50284000Y-26496000D01*
X14724000Y-34604078D02*
X14724000Y-38037606D01*
X23610000Y-27770000D02*
X23610000Y-33152492D01*
X42714000Y-15950000D02*
X42814000Y-15850000D01*
X31725000Y-45811715D02*
X31436715Y-46100000D01*
X56610000Y-38850000D02*
X56630000Y-38870000D01*
X31880000Y-43685640D02*
X31880000Y-43877318D01*
X31964614Y-30763200D02*
X32368280Y-30763200D01*
X24350000Y-41675000D02*
X24350000Y-45822012D01*
X32998000Y-32283480D02*
X32500000Y-32781480D01*
D16*
X38700000Y-15675000D02*
X21075000Y-15675000D01*
X21075000Y-15675000D02*
X17801677Y-18948323D01*
D15*
X49375000Y-20838457D02*
X49375000Y-17775000D01*
X31436715Y-46100000D02*
X31373715Y-46163000D01*
D16*
X38975000Y-15950000D02*
X42714000Y-15950000D01*
X19045002Y-46163000D02*
X24009012Y-46163000D01*
D15*
X26578151Y-46163000D02*
X26567174Y-46173977D01*
X56785000Y-25075000D02*
X56630000Y-25230000D01*
D16*
X56630000Y-36330000D02*
X56630000Y-32695000D01*
X38925000Y-19841996D02*
X39399215Y-19367781D01*
D15*
X31725000Y-44032319D02*
X31725000Y-45811715D01*
D16*
X31373715Y-46163000D02*
X26578151Y-46163000D01*
D15*
X32500000Y-32781480D02*
X32500000Y-43065640D01*
X56630000Y-25230000D02*
X56630000Y-23730000D01*
X23610000Y-33152492D02*
X23752788Y-33295280D01*
X50284000Y-21747457D02*
X49375000Y-20838457D01*
X43930000Y-27770000D02*
X42656000Y-26496000D01*
D16*
X39399215Y-19367781D02*
X39399215Y-18290825D01*
X39399215Y-18290825D02*
X38925000Y-17816610D01*
D15*
X32998000Y-31392920D02*
X32998000Y-32283480D01*
D16*
X56630000Y-32695000D02*
X58575000Y-30750000D01*
X56630000Y-23730000D02*
X50675000Y-17775000D01*
D15*
X31880000Y-43877318D02*
X31725000Y-44032319D01*
X31230000Y-27770000D02*
X31230000Y-30028586D01*
D16*
X56630000Y-40395000D02*
X50925000Y-46100000D01*
D15*
X14716000Y-38045606D02*
X14716000Y-41833998D01*
X32368280Y-30763200D02*
X32998000Y-31392920D01*
D16*
X18137373Y-21488478D02*
X18530000Y-21881105D01*
D15*
X24350000Y-45822012D02*
X24009012Y-46163000D01*
X24019989Y-46173977D02*
X24009012Y-46163000D01*
D16*
X50925000Y-46100000D02*
X31436715Y-46100000D01*
D15*
X14724000Y-38037606D02*
X14716000Y-38045606D01*
D16*
X42656000Y-16008000D02*
X42714000Y-15950000D01*
X38925000Y-25155000D02*
X38925000Y-19841996D01*
X14716000Y-41833998D02*
X19045002Y-46163000D01*
D15*
X56630000Y-38870000D02*
X56630000Y-40395000D01*
X23752788Y-33295280D02*
X23897233Y-33295280D01*
%TO.N,/LCD_BL*%
X37576000Y-33199000D02*
X37576000Y-19352518D01*
X51550000Y-25230000D02*
X51550000Y-21475000D01*
X36310000Y-34465000D02*
X37576000Y-33199000D01*
X37576000Y-19352518D02*
X38099215Y-18829303D01*
X51550000Y-21475000D02*
X50725000Y-20650000D01*
X36310000Y-36330000D02*
X36310000Y-34465000D01*
%TO.N,/LCD_DC*%
X51550000Y-31525000D02*
X50275000Y-32800000D01*
X50275000Y-43075000D02*
X50400000Y-43200000D01*
X51550000Y-27770000D02*
X51550000Y-31525000D01*
X50275000Y-32800000D02*
X50275000Y-43075000D01*
X33770000Y-38870000D02*
X33770000Y-43353206D01*
X33770000Y-43353206D02*
X32896711Y-44226495D01*
%TO.N,/PWM_L*%
X28690000Y-43019933D02*
X28148933Y-43561000D01*
X28690000Y-38870000D02*
X28690000Y-43019933D01*
X46470000Y-27770000D02*
X46470000Y-33000000D01*
%TO.N,/SPI_CS1*%
X21070000Y-36330000D02*
X21070000Y-34340529D01*
X21070000Y-34340529D02*
X20226868Y-33497397D01*
X38850000Y-27770000D02*
X38850000Y-32407889D01*
X20226868Y-33497397D02*
X20226868Y-33486026D01*
X38850000Y-32407889D02*
X38867111Y-32425000D01*
D16*
%TO.N,/3V3*%
X8370000Y-25230000D02*
X6869000Y-26731000D01*
X6869000Y-26731000D02*
X6869000Y-29491735D01*
X6875000Y-29497735D02*
X6875000Y-34602265D01*
X28690000Y-25230000D02*
X28690000Y-18890000D01*
X6869000Y-34608265D02*
X6869000Y-41519000D01*
X6869000Y-29491735D02*
X6875000Y-29497735D01*
X6875000Y-34602265D02*
X6869000Y-34608265D01*
X6869000Y-41519000D02*
X7600000Y-42250000D01*
X28690000Y-18890000D02*
X27025000Y-17225000D01*
D15*
X8400000Y-25200000D02*
X8370000Y-25230000D01*
D16*
X9650000Y-42250000D02*
X10910000Y-40990000D01*
X10910000Y-40990000D02*
X10910000Y-38870000D01*
X27025000Y-17225000D02*
X24975000Y-17225000D01*
X8400000Y-21050000D02*
X8400000Y-25200000D01*
X10910000Y-36330000D02*
X10910000Y-38870000D01*
X7600000Y-42250000D02*
X9650000Y-42250000D01*
D15*
%TO.N,/I2C_SCL*%
X14724000Y-32783222D02*
X14721107Y-32786115D01*
X14721107Y-33681947D02*
X15990000Y-34950840D01*
X14724000Y-26504000D02*
X14724000Y-32783222D01*
X15990000Y-34950840D02*
X15990000Y-36330000D01*
X13450000Y-25230000D02*
X14724000Y-26504000D01*
X14721107Y-32786115D02*
X14721107Y-33681947D01*
%TO.N,/LCD_RES*%
X33648000Y-30728762D02*
X32496000Y-29576762D01*
X21070000Y-25230000D02*
X21070000Y-21135687D01*
X33770000Y-36330000D02*
X33629720Y-36189720D01*
X33648000Y-32552718D02*
X33648000Y-30728762D01*
X21070000Y-21135687D02*
X20936469Y-21002156D01*
X33629720Y-32570999D02*
X33648000Y-32552718D01*
X33629720Y-36189720D02*
X33629720Y-32570999D01*
X32496000Y-22169604D02*
X31290001Y-20963605D01*
X32496000Y-29576762D02*
X32496000Y-22169604D01*
%TO.N,/SPI_MOSI*%
X28346574Y-33783032D02*
X28346574Y-30316968D01*
X27416000Y-29386394D02*
X27416000Y-19887179D01*
X27424000Y-34705606D02*
X28346574Y-33783032D01*
X27416000Y-19887179D02*
X26384691Y-18855870D01*
X30215001Y-22008325D02*
X30215001Y-17670797D01*
X27425000Y-37595000D02*
X27425000Y-37155394D01*
X31230000Y-23023324D02*
X30215001Y-22008325D01*
X27424000Y-37154394D02*
X27424000Y-34705606D01*
X26150000Y-38870000D02*
X27425000Y-37595000D01*
X31230000Y-25230000D02*
X31230000Y-23023324D01*
X27425000Y-37155394D02*
X27424000Y-37154394D01*
X30215001Y-17670797D02*
X30221757Y-17664041D01*
X28346574Y-30316968D02*
X27416000Y-29386394D01*
%TO.N,/KEY_Y*%
X23610000Y-25230000D02*
X23610000Y-21119325D01*
X46470000Y-36330000D02*
X46470000Y-34920000D01*
X46470000Y-34920000D02*
X45204000Y-33654000D01*
X45204000Y-21698008D02*
X45167465Y-21661473D01*
X45204000Y-33654000D02*
X45204000Y-21698008D01*
X23610000Y-21119325D02*
X23086469Y-20595794D01*
%TO.N,/UART_RX*%
X31250000Y-34114518D02*
X31250000Y-32511200D01*
X31250000Y-32511200D02*
X31923000Y-31838200D01*
X18530000Y-29353434D02*
X17300000Y-30583434D01*
X31230000Y-36330000D02*
X31230000Y-34134518D01*
X17300000Y-30583434D02*
X17300000Y-31700000D01*
X18530000Y-27770000D02*
X18530000Y-29353434D01*
X31230000Y-34134518D02*
X31250000Y-34114518D01*
%TO.N,/KEY_A*%
X26150000Y-25230000D02*
X26150000Y-20415854D01*
X41390000Y-38870000D02*
X40124000Y-37604000D01*
X40124000Y-37604000D02*
X40124000Y-34705606D01*
X26150000Y-20415854D02*
X25847809Y-20113663D01*
X40116000Y-31515288D02*
X40116000Y-21144717D01*
X41272776Y-33556830D02*
X41272776Y-32672064D01*
X40116000Y-21144717D02*
X40225000Y-21035717D01*
X41272776Y-32672064D02*
X40116000Y-31515288D01*
X40124000Y-34705606D02*
X41272776Y-33556830D01*
X25847809Y-20113663D02*
X25538363Y-20113663D01*
D16*
%TO.N,/5V*%
X8370000Y-27770000D02*
X10910000Y-27770000D01*
X8370000Y-36330000D02*
X8370000Y-38870000D01*
X8370000Y-27770000D02*
X8370000Y-36330000D01*
D15*
%TO.N,/SPI_MISO*%
X23610000Y-35088652D02*
X24977440Y-33721212D01*
X33770000Y-18534803D02*
X33375832Y-18140635D01*
X24876000Y-32767908D02*
X24876000Y-20971580D01*
X33770000Y-25230000D02*
X33770000Y-18534803D01*
X24977440Y-32869348D02*
X24876000Y-32767908D01*
X23610000Y-36330000D02*
X23610000Y-35088652D01*
X24876000Y-20971580D02*
X24167053Y-20262633D01*
X24167053Y-20262633D02*
X24167053Y-19505783D01*
X24977440Y-33721212D02*
X24977440Y-32869348D01*
%TO.N,/KEY_X*%
X28690000Y-27770000D02*
X28996574Y-28076574D01*
X28996574Y-28076574D02*
X28996574Y-32871574D01*
X43930000Y-41460419D02*
X43889099Y-41501320D01*
X28996574Y-32871574D02*
X29525000Y-33400000D01*
X43930000Y-38870000D02*
X43930000Y-41460419D01*
%TO.N,/KEY_LEFT*%
X54090000Y-22427436D02*
X54006803Y-22344239D01*
X54006803Y-22344239D02*
X53405761Y-22344239D01*
X54090000Y-25230000D02*
X54090000Y-22427436D01*
X47744000Y-22644000D02*
X47475000Y-22375000D01*
X47744000Y-37596000D02*
X47744000Y-22644000D01*
X46470000Y-38870000D02*
X47744000Y-37596000D01*
%TO.N,/LCD_MOSI*%
X54090000Y-27770000D02*
X54125000Y-27805000D01*
X52825000Y-32400000D02*
X52825000Y-41450000D01*
X54125000Y-31100000D02*
X52825000Y-32400000D01*
X38850000Y-38870000D02*
X38850000Y-43028886D01*
X38850000Y-43028886D02*
X38764443Y-43114443D01*
X52825000Y-41450000D02*
X52550000Y-41725000D01*
X54125000Y-27805000D02*
X54125000Y-31100000D01*
%TO.N,/SPI_CS0*%
X23610000Y-38870000D02*
X23859000Y-39119000D01*
X35025000Y-38026606D02*
X35044000Y-38045606D01*
X35044000Y-42071512D02*
X34872764Y-42242748D01*
X23009222Y-41255761D02*
X23009222Y-42347551D01*
X35036000Y-32714000D02*
X35036000Y-37154394D01*
X23859000Y-39119000D02*
X23859000Y-40405983D01*
X35025000Y-37165394D02*
X35025000Y-38026606D01*
X23859000Y-40405983D02*
X23009222Y-41255761D01*
X35044000Y-38045606D02*
X35044000Y-42071512D01*
X36310000Y-31440000D02*
X35036000Y-32714000D01*
X35036000Y-37154394D02*
X35025000Y-37165394D01*
X36310000Y-27770000D02*
X36310000Y-31440000D01*
%TO.N,/KEY_B*%
X26150000Y-27770000D02*
X26150000Y-33439606D01*
X26169178Y-44733495D02*
X26028696Y-44873977D01*
X41390000Y-36330000D02*
X42664000Y-37604000D01*
X24875000Y-34714606D02*
X24875000Y-40485394D01*
X24875000Y-40485394D02*
X26169178Y-41779572D01*
X42664000Y-44491395D02*
X42355395Y-44800000D01*
X42664000Y-37604000D02*
X42664000Y-44491395D01*
X26169178Y-41779572D02*
X26169178Y-44733495D01*
X26150000Y-33439606D02*
X24875000Y-34714606D01*
%TO.N,/KEY_DOWN*%
X18530000Y-36330000D02*
X18550000Y-36310000D01*
X43575839Y-22466108D02*
X43789000Y-22252947D01*
X18328788Y-33971446D02*
X18328788Y-32542410D01*
X43930000Y-25230000D02*
X43575839Y-24875839D01*
X18550000Y-34192659D02*
X18328788Y-33971446D01*
X18772292Y-32098906D02*
X18772292Y-31032279D01*
X43575839Y-24875839D02*
X43575839Y-22466108D01*
X18328788Y-32542410D02*
X18772292Y-32098906D01*
X18550000Y-36310000D02*
X18550000Y-34192659D01*
D16*
%TO.N,/I2C_SDA*%
X10910000Y-25230000D02*
X10910000Y-22510000D01*
D15*
X16225000Y-32145280D02*
X16225000Y-31254720D01*
X17264000Y-22323372D02*
X16943450Y-22002822D01*
X10910000Y-22510000D02*
X10850000Y-22450000D01*
X17256000Y-37604000D02*
X17256000Y-33176280D01*
X16225000Y-31254720D02*
X16601948Y-30877772D01*
X16601948Y-30877772D02*
X16601948Y-30048446D01*
X15990000Y-38870000D02*
X17256000Y-37604000D01*
X16601948Y-30048446D02*
X17264000Y-29386394D01*
X17256000Y-33176280D02*
X16225000Y-32145280D01*
X17264000Y-29386394D02*
X17264000Y-22323372D01*
%TO.N,/KEY_UP*%
X22344000Y-34705606D02*
X22791862Y-34257744D01*
X22000000Y-18115864D02*
X21261307Y-17377171D01*
X21070000Y-38870000D02*
X22344000Y-37596000D01*
X22011469Y-21447436D02*
X22011469Y-20556876D01*
X46470000Y-20734720D02*
X46470000Y-17155000D01*
X46470000Y-17155000D02*
X46475000Y-17150000D01*
X22011469Y-20556876D02*
X22000000Y-20545407D01*
X22344000Y-32388238D02*
X22344000Y-21779967D01*
X22344000Y-37596000D02*
X22344000Y-34705606D01*
X22791862Y-32836100D02*
X22344000Y-32388238D01*
X46242465Y-20962255D02*
X46470000Y-20734720D01*
X22791862Y-34257744D02*
X22791862Y-32836100D01*
X46470000Y-25230000D02*
X46242465Y-25002465D01*
X46242465Y-25002465D02*
X46242465Y-20962255D01*
X22000000Y-20545407D02*
X22000000Y-18115864D01*
X22344000Y-21779967D02*
X22011469Y-21447436D01*
%TO.N,/UART_TX*%
X31230000Y-38870000D02*
X31230000Y-43608080D01*
X15990000Y-27770000D02*
X15942484Y-27817516D01*
X15942484Y-27817516D02*
X15942484Y-30617997D01*
X15575000Y-30985482D02*
X15575000Y-33015560D01*
X31230000Y-43608080D02*
X30627080Y-44211000D01*
X15942484Y-30617997D02*
X15575000Y-30985482D01*
X15575000Y-33015560D02*
X15787107Y-33227667D01*
%TO.N,/SPI_SCLK*%
X26800000Y-34204955D02*
X26800000Y-31172881D01*
X26150000Y-34854955D02*
X26800000Y-34204955D01*
X26800000Y-31172881D02*
X27248174Y-30724707D01*
X36310000Y-22838362D02*
X35393190Y-21921552D01*
X26150000Y-36330000D02*
X26150000Y-34854955D01*
X36310000Y-25230000D02*
X36310000Y-22838362D01*
%TO.N,/PWM_R*%
X49010000Y-25230000D02*
X49010000Y-21394111D01*
X29964000Y-32318720D02*
X29964000Y-22676563D01*
X29565000Y-22277563D02*
X29565000Y-18527564D01*
X29964000Y-22676563D02*
X29565000Y-22277563D01*
X28857424Y-17819988D02*
X28857424Y-16982142D01*
X30600000Y-33845280D02*
X30600000Y-32954720D01*
X30600000Y-32954720D02*
X29964000Y-32318720D01*
X28690000Y-35755280D02*
X30600000Y-33845280D01*
X49010000Y-21394111D02*
X48490889Y-20875000D01*
X28690000Y-36330000D02*
X28690000Y-35755280D01*
X29565000Y-18527564D02*
X28857424Y-17819988D01*
X48490889Y-20875000D02*
X48025000Y-20875000D01*
%TO.N,/LCD_CS*%
X21425000Y-28125000D02*
X21425000Y-33189391D01*
X21425000Y-33189391D02*
X21726862Y-33491253D01*
X36310000Y-38870000D02*
X36310000Y-42198007D01*
X21070000Y-27770000D02*
X21425000Y-28125000D01*
X36310000Y-42198007D02*
X36474486Y-42362493D01*
%TO.N,/KEY_ALT*%
X19804000Y-26054394D02*
X19804000Y-21316627D01*
X15700231Y-22270511D02*
X15700231Y-21163529D01*
X19161868Y-33927164D02*
X19161868Y-32628568D01*
X18530000Y-38870000D02*
X19800000Y-37600000D01*
X19825000Y-26850000D02*
X19825000Y-26075394D01*
X19800000Y-37158394D02*
X19796000Y-37154394D01*
X19161868Y-32628568D02*
X20342862Y-31447574D01*
X19825000Y-26075394D02*
X19804000Y-26054394D01*
X20342862Y-30317862D02*
X19804000Y-29779000D01*
X15990000Y-25230000D02*
X15990000Y-22560280D01*
X19800000Y-37600000D02*
X19800000Y-37158394D01*
X20342862Y-31447574D02*
X20342862Y-30317862D01*
X19804000Y-21316627D02*
X19437373Y-20950000D01*
X19804000Y-29779000D02*
X19804000Y-26871000D01*
X19796000Y-37154394D02*
X19796000Y-34561296D01*
X19804000Y-26871000D02*
X19825000Y-26850000D01*
X19796000Y-34561296D02*
X19161868Y-33927164D01*
X15990000Y-22560280D02*
X15700231Y-22270511D01*
%TO.N,/LCD_SCK*%
X40096966Y-33117344D02*
X40197776Y-33117344D01*
X38850000Y-36330000D02*
X38850000Y-34364310D01*
X56630000Y-29595000D02*
X55775000Y-30450000D01*
X56630000Y-27770000D02*
X56630000Y-29595000D01*
X55775000Y-30450000D02*
X55775000Y-30675000D01*
X38850000Y-34364310D02*
X40096966Y-33117344D01*
%TO.N,/BUS_SCL*%
X41390000Y-31265000D02*
X41900000Y-31775000D01*
X13450000Y-34221032D02*
X12375000Y-33146032D01*
X41390000Y-27770000D02*
X41390000Y-31265000D01*
X12375000Y-33146032D02*
X12375000Y-32584789D01*
X13450000Y-36330000D02*
X13450000Y-34221032D01*
%TO.N,/BUS_SDA*%
X41390000Y-17915000D02*
X41300000Y-17825000D01*
X12995000Y-38870000D02*
X12184000Y-38059000D01*
X12176000Y-30149000D02*
X12176000Y-20749000D01*
X11300000Y-31025000D02*
X12176000Y-30149000D01*
X13450000Y-38870000D02*
X12995000Y-38870000D01*
X41390000Y-25230000D02*
X41390000Y-17915000D01*
X11300000Y-33030069D02*
X11300000Y-31025000D01*
X12184000Y-38059000D02*
X12184000Y-33914069D01*
X12184000Y-33914069D02*
X11300000Y-33030069D01*
X12176000Y-20749000D02*
X13250000Y-19675000D01*
%TO.N,unconnected-(J2-Pin_37-Pad37)*%
X54090000Y-38870000D02*
X54110000Y-38850000D01*
%TD*%
%TA.AperFunction,Conductor*%
%TO.N,/GND*%
G36*
X32883554Y-32536502D02*
G01*
X32939487Y-32578374D01*
X32963904Y-32643838D01*
X32964220Y-32652684D01*
X32964220Y-34428076D01*
X32944535Y-34495115D01*
X32933335Y-34509013D01*
X32933750Y-34509368D01*
X32930589Y-34513069D01*
X32930586Y-34513072D01*
X32904737Y-34548650D01*
X32828768Y-34653211D01*
X32750128Y-34807552D01*
X32696597Y-34972302D01*
X32669500Y-35143389D01*
X32669500Y-36716610D01*
X32695934Y-36883512D01*
X32696598Y-36887701D01*
X32750127Y-37052445D01*
X32828768Y-37206788D01*
X32930586Y-37346928D01*
X32930588Y-37346930D01*
X33053072Y-37469414D01*
X33094733Y-37499683D01*
X33137398Y-37555013D01*
X33143376Y-37624627D01*
X33110769Y-37686421D01*
X33094733Y-37700317D01*
X33053072Y-37730585D01*
X32930588Y-37853069D01*
X32930588Y-37853070D01*
X32930586Y-37853072D01*
X32898773Y-37896859D01*
X32828768Y-37993211D01*
X32750128Y-38147552D01*
X32696597Y-38312302D01*
X32687459Y-38370000D01*
X32669500Y-38483389D01*
X32669500Y-40056611D01*
X32696598Y-40227701D01*
X32750127Y-40392445D01*
X32828768Y-40546788D01*
X32930586Y-40686928D01*
X33053072Y-40809414D01*
X33053374Y-40809633D01*
X33053461Y-40809746D01*
X33056779Y-40812580D01*
X33056184Y-40813276D01*
X33096046Y-40864958D01*
X33104500Y-40909959D01*
X33104500Y-43001995D01*
X33084815Y-43069034D01*
X33032011Y-43114789D01*
X32980500Y-43125995D01*
X32810100Y-43125995D01*
X32770439Y-43132276D01*
X32639013Y-43153092D01*
X32639010Y-43153093D01*
X32491406Y-43201053D01*
X32474263Y-43206623D01*
X32319922Y-43285263D01*
X32240114Y-43343248D01*
X32179783Y-43387081D01*
X32179781Y-43387083D01*
X32179780Y-43387083D01*
X32107181Y-43459683D01*
X32045858Y-43493168D01*
X31976166Y-43488184D01*
X31920233Y-43446312D01*
X31895816Y-43380848D01*
X31895500Y-43372002D01*
X31895500Y-40909959D01*
X31915185Y-40842920D01*
X31943516Y-40812925D01*
X31943221Y-40812580D01*
X31946436Y-40809833D01*
X31946624Y-40809634D01*
X31946928Y-40809414D01*
X32069414Y-40686928D01*
X32171232Y-40546788D01*
X32249873Y-40392445D01*
X32303402Y-40227701D01*
X32330500Y-40056611D01*
X32330500Y-38483389D01*
X32303402Y-38312299D01*
X32249873Y-38147555D01*
X32171232Y-37993212D01*
X32069414Y-37853072D01*
X31946928Y-37730586D01*
X31905265Y-37700316D01*
X31862602Y-37644988D01*
X31856623Y-37575374D01*
X31889229Y-37513579D01*
X31905266Y-37499683D01*
X31946928Y-37469414D01*
X32069414Y-37346928D01*
X32171232Y-37206788D01*
X32249873Y-37052445D01*
X32303402Y-36887701D01*
X32330500Y-36716611D01*
X32330500Y-35143389D01*
X32303402Y-34972299D01*
X32249873Y-34807555D01*
X32171232Y-34653212D01*
X32069414Y-34513072D01*
X31946928Y-34390586D01*
X31946924Y-34390583D01*
X31943223Y-34387422D01*
X31943925Y-34386599D01*
X31936337Y-34376757D01*
X31922057Y-34366460D01*
X31915448Y-34349664D01*
X31904428Y-34335370D01*
X31902881Y-34317722D01*
X31896476Y-34301442D01*
X31898366Y-34266199D01*
X31899104Y-34262493D01*
X31912180Y-34196755D01*
X31915500Y-34180065D01*
X31915500Y-34048972D01*
X31915500Y-33059511D01*
X31935185Y-32992472D01*
X31987989Y-32946717D01*
X32020101Y-32937038D01*
X32114912Y-32922022D01*
X32180696Y-32911603D01*
X32180696Y-32911602D01*
X32180701Y-32911602D01*
X32345445Y-32858073D01*
X32499788Y-32779432D01*
X32639928Y-32677614D01*
X32752539Y-32565003D01*
X32813862Y-32531518D01*
X32883554Y-32536502D01*
G37*
%TD.AperFunction*%
%TA.AperFunction,Conductor*%
G36*
X48817007Y-28235925D02*
G01*
X48944174Y-28270000D01*
X49075826Y-28270000D01*
X49202993Y-28235925D01*
X49229730Y-28220488D01*
X49248794Y-28242489D01*
X49260000Y-28294000D01*
X49260000Y-30146606D01*
X49314421Y-30137988D01*
X49509031Y-30074754D01*
X49691349Y-29981859D01*
X49856894Y-29861582D01*
X49856895Y-29861582D01*
X50001582Y-29716895D01*
X50001582Y-29716894D01*
X50121859Y-29551349D01*
X50214755Y-29369029D01*
X50266952Y-29208386D01*
X50306389Y-29150710D01*
X50370748Y-29123512D01*
X50439594Y-29135427D01*
X50491070Y-29182671D01*
X50502814Y-29208385D01*
X50530128Y-29292449D01*
X50569148Y-29369029D01*
X50608768Y-29446788D01*
X50710586Y-29586928D01*
X50833072Y-29709414D01*
X50833374Y-29709633D01*
X50833461Y-29709746D01*
X50836779Y-29712580D01*
X50836184Y-29713276D01*
X50876046Y-29764958D01*
X50884500Y-29809959D01*
X50884500Y-31197977D01*
X50864815Y-31265016D01*
X50848181Y-31285658D01*
X49758076Y-32375762D01*
X49758075Y-32375763D01*
X49685241Y-32484769D01*
X49635075Y-32605880D01*
X49635073Y-32605888D01*
X49612074Y-32721512D01*
X49609500Y-32734452D01*
X49609500Y-34097990D01*
X49589815Y-34165029D01*
X49537011Y-34210784D01*
X49467853Y-34220728D01*
X49437338Y-34211065D01*
X49436954Y-34211994D01*
X49432452Y-34210129D01*
X49309557Y-34170198D01*
X49267701Y-34156598D01*
X49267699Y-34156597D01*
X49267698Y-34156597D01*
X49136271Y-34135781D01*
X49096611Y-34129500D01*
X48923389Y-34129500D01*
X48883728Y-34135781D01*
X48752302Y-34156597D01*
X48587547Y-34210129D01*
X48583046Y-34211994D01*
X48582378Y-34210383D01*
X48521102Y-34221879D01*
X48456366Y-34195590D01*
X48416120Y-34138475D01*
X48409500Y-34098500D01*
X48409500Y-30212457D01*
X48429185Y-30145418D01*
X48481989Y-30099663D01*
X48551147Y-30089719D01*
X48571819Y-30094526D01*
X48705578Y-30137988D01*
X48760000Y-30146607D01*
X48760000Y-28294000D01*
X48779685Y-28226961D01*
X48788400Y-28219409D01*
X48817007Y-28235925D01*
G37*
%TD.AperFunction*%
%TA.AperFunction,Conductor*%
G36*
X23417007Y-28235925D02*
G01*
X23544174Y-28270000D01*
X23675826Y-28270000D01*
X23802993Y-28235925D01*
X23829730Y-28220488D01*
X23848794Y-28242489D01*
X23860000Y-28294000D01*
X23860000Y-30146606D01*
X23914421Y-30137988D01*
X24048181Y-30094526D01*
X24118022Y-30092530D01*
X24177855Y-30128610D01*
X24208684Y-30191311D01*
X24210500Y-30212457D01*
X24210500Y-32702361D01*
X24210500Y-32833455D01*
X24210500Y-32833457D01*
X24210499Y-32833457D01*
X24236073Y-32962021D01*
X24236075Y-32962027D01*
X24276649Y-33059982D01*
X24286242Y-33083140D01*
X24291040Y-33090321D01*
X24296691Y-33108368D01*
X24306917Y-33124279D01*
X24311367Y-33155233D01*
X24311920Y-33156997D01*
X24311940Y-33159214D01*
X24311940Y-33394190D01*
X24292255Y-33461229D01*
X24275621Y-33481871D01*
X23669043Y-34088449D01*
X23607720Y-34121934D01*
X23538028Y-34116950D01*
X23482095Y-34075078D01*
X23457678Y-34009614D01*
X23457362Y-34000768D01*
X23457362Y-32770551D01*
X23433916Y-32652684D01*
X23431787Y-32641981D01*
X23431786Y-32641979D01*
X23431785Y-32641974D01*
X23421957Y-32618248D01*
X23421956Y-32618246D01*
X23381624Y-32520874D01*
X23381617Y-32520861D01*
X23308790Y-32411869D01*
X23308787Y-32411865D01*
X23045819Y-32148897D01*
X23012334Y-32087574D01*
X23009500Y-32061216D01*
X23009500Y-30212457D01*
X23029185Y-30145418D01*
X23081989Y-30099663D01*
X23151147Y-30089719D01*
X23171819Y-30094526D01*
X23305578Y-30137988D01*
X23360000Y-30146607D01*
X23360000Y-28294000D01*
X23379685Y-28226961D01*
X23388400Y-28219409D01*
X23417007Y-28235925D01*
G37*
%TD.AperFunction*%
%TA.AperFunction,Conductor*%
G36*
X13257007Y-28235925D02*
G01*
X13384174Y-28270000D01*
X13515826Y-28270000D01*
X13642993Y-28235925D01*
X13669730Y-28220488D01*
X13688794Y-28242489D01*
X13700000Y-28294000D01*
X13700000Y-30146606D01*
X13754421Y-30137988D01*
X13896181Y-30091927D01*
X13966022Y-30089932D01*
X14025855Y-30126012D01*
X14056684Y-30188712D01*
X14058500Y-30209858D01*
X14058500Y-32693811D01*
X14056117Y-32718006D01*
X14055607Y-32720565D01*
X14055607Y-33586118D01*
X14035922Y-33653157D01*
X13983118Y-33698912D01*
X13913960Y-33708856D01*
X13850404Y-33679831D01*
X13843926Y-33673799D01*
X13385158Y-33215031D01*
X13351673Y-33153708D01*
X13356657Y-33084016D01*
X13362355Y-33071054D01*
X13367997Y-33059982D01*
X13394873Y-33007234D01*
X13448402Y-32842490D01*
X13475500Y-32671400D01*
X13475500Y-32498178D01*
X13448402Y-32327088D01*
X13394873Y-32162344D01*
X13316232Y-32008001D01*
X13214414Y-31867861D01*
X13091928Y-31745375D01*
X12951788Y-31643557D01*
X12797445Y-31564916D01*
X12632701Y-31511387D01*
X12632699Y-31511386D01*
X12632698Y-31511386D01*
X12501271Y-31490570D01*
X12461611Y-31484289D01*
X12288389Y-31484289D01*
X12196889Y-31498781D01*
X12112487Y-31512149D01*
X12112274Y-31510807D01*
X12095034Y-31509941D01*
X12071853Y-31513275D01*
X12060789Y-31508222D01*
X12048645Y-31507613D01*
X12029602Y-31493980D01*
X12008297Y-31484250D01*
X12001722Y-31474019D01*
X11991834Y-31466940D01*
X11983184Y-31445174D01*
X11970523Y-31425472D01*
X11967783Y-31406415D01*
X11966032Y-31402009D01*
X11965500Y-31390537D01*
X11965500Y-31352022D01*
X11985185Y-31284983D01*
X12001819Y-31264341D01*
X12692923Y-30573237D01*
X12692928Y-30573232D01*
X12765758Y-30464233D01*
X12815925Y-30343119D01*
X12841500Y-30214547D01*
X12841500Y-30209858D01*
X12861185Y-30142819D01*
X12913989Y-30097064D01*
X12983147Y-30087120D01*
X13003819Y-30091927D01*
X13145578Y-30137988D01*
X13200000Y-30146607D01*
X13200000Y-28294000D01*
X13219685Y-28226961D01*
X13228400Y-28219409D01*
X13257007Y-28235925D01*
G37*
%TD.AperFunction*%
%TA.AperFunction,Conductor*%
G36*
X31037007Y-28235925D02*
G01*
X31164174Y-28270000D01*
X31295826Y-28270000D01*
X31422993Y-28235925D01*
X31449730Y-28220488D01*
X31468794Y-28242489D01*
X31480000Y-28294000D01*
X31480000Y-30146606D01*
X31534421Y-30137988D01*
X31729036Y-30074753D01*
X31863264Y-30006360D01*
X31931933Y-29993463D01*
X31996673Y-30019739D01*
X32007240Y-30029163D01*
X32757966Y-30779888D01*
X32791451Y-30841211D01*
X32786467Y-30910902D01*
X32744595Y-30966836D01*
X32679131Y-30991253D01*
X32610858Y-30976401D01*
X32597399Y-30967887D01*
X32595952Y-30966836D01*
X32499788Y-30896968D01*
X32345445Y-30818327D01*
X32180701Y-30764798D01*
X32180699Y-30764797D01*
X32180698Y-30764797D01*
X32049271Y-30743981D01*
X32009611Y-30737700D01*
X31836389Y-30737700D01*
X31796728Y-30743981D01*
X31665302Y-30764797D01*
X31500552Y-30818328D01*
X31346211Y-30896968D01*
X31297035Y-30932697D01*
X31206072Y-30998786D01*
X31206070Y-30998788D01*
X31206069Y-30998788D01*
X31083588Y-31121269D01*
X31083588Y-31121270D01*
X31083586Y-31121272D01*
X31050728Y-31166497D01*
X30981768Y-31261411D01*
X30903129Y-31415750D01*
X30903128Y-31415752D01*
X30903127Y-31415755D01*
X30871807Y-31512149D01*
X30871431Y-31513306D01*
X30831993Y-31570981D01*
X30767634Y-31598179D01*
X30698788Y-31586264D01*
X30647312Y-31539020D01*
X30629500Y-31474987D01*
X30629500Y-30212457D01*
X30649185Y-30145418D01*
X30701989Y-30099663D01*
X30771147Y-30089719D01*
X30791819Y-30094526D01*
X30925578Y-30137988D01*
X30980000Y-30146607D01*
X30980000Y-28294000D01*
X30999685Y-28226961D01*
X31008400Y-28219409D01*
X31037007Y-28235925D01*
G37*
%TD.AperFunction*%
%TA.AperFunction,Conductor*%
G36*
X49880703Y-21362491D02*
G01*
X49887181Y-21368523D01*
X50008072Y-21489414D01*
X50148212Y-21591232D01*
X50302555Y-21669873D01*
X50467299Y-21723402D01*
X50638389Y-21750500D01*
X50638390Y-21750500D01*
X50760500Y-21750500D01*
X50827539Y-21770185D01*
X50873294Y-21822989D01*
X50884500Y-21874500D01*
X50884500Y-23190040D01*
X50864815Y-23257079D01*
X50836484Y-23287079D01*
X50836777Y-23287422D01*
X50833592Y-23290142D01*
X50833394Y-23290352D01*
X50833075Y-23290583D01*
X50833069Y-23290588D01*
X50710588Y-23413069D01*
X50710588Y-23413070D01*
X50710586Y-23413072D01*
X50697077Y-23431666D01*
X50608768Y-23553211D01*
X50530128Y-23707552D01*
X50476597Y-23872302D01*
X50449500Y-24043389D01*
X50449500Y-25616610D01*
X50475934Y-25783512D01*
X50476598Y-25787701D01*
X50530127Y-25952445D01*
X50608768Y-26106788D01*
X50710586Y-26246928D01*
X50833072Y-26369414D01*
X50843367Y-26376894D01*
X50874733Y-26399683D01*
X50917398Y-26455013D01*
X50923376Y-26524627D01*
X50890769Y-26586421D01*
X50874733Y-26600317D01*
X50833072Y-26630585D01*
X50710588Y-26753069D01*
X50710588Y-26753070D01*
X50710586Y-26753072D01*
X50691269Y-26779660D01*
X50608768Y-26893211D01*
X50530129Y-27047549D01*
X50502814Y-27131615D01*
X50463375Y-27189290D01*
X50399016Y-27216487D01*
X50330170Y-27204572D01*
X50278695Y-27157327D01*
X50266952Y-27131613D01*
X50214755Y-26970970D01*
X50121859Y-26788650D01*
X50001582Y-26623105D01*
X50001582Y-26623104D01*
X49856895Y-26478417D01*
X49856889Y-26478412D01*
X49835940Y-26463191D01*
X49793276Y-26407860D01*
X49787298Y-26338247D01*
X49819906Y-26276453D01*
X49821017Y-26275324D01*
X49849414Y-26246928D01*
X49951232Y-26106788D01*
X50029873Y-25952445D01*
X50083402Y-25787701D01*
X50110500Y-25616611D01*
X50110500Y-24043389D01*
X50083402Y-23872299D01*
X50029873Y-23707555D01*
X49951232Y-23553212D01*
X49849414Y-23413072D01*
X49726928Y-23290586D01*
X49726606Y-23290352D01*
X49726514Y-23290233D01*
X49723223Y-23287422D01*
X49723813Y-23286730D01*
X49683945Y-23235018D01*
X49675500Y-23190040D01*
X49675500Y-21456204D01*
X49695185Y-21389165D01*
X49747989Y-21343410D01*
X49817147Y-21333466D01*
X49880703Y-21362491D01*
G37*
%TD.AperFunction*%
%TA.AperFunction,Conductor*%
G36*
X64542539Y-420185D02*
G01*
X64588294Y-472989D01*
X64599500Y-524500D01*
X64599500Y-47475500D01*
X64579815Y-47542539D01*
X64527011Y-47588294D01*
X64475500Y-47599500D01*
X524500Y-47599500D01*
X457461Y-47579815D01*
X411706Y-47527011D01*
X400500Y-47475500D01*
X400500Y-44385921D01*
X1759500Y-44385921D01*
X1759500Y-44614078D01*
X1789278Y-44840272D01*
X1789279Y-44840277D01*
X1789280Y-44840283D01*
X1845583Y-45050411D01*
X1848331Y-45060666D01*
X1935638Y-45271446D01*
X1935646Y-45271462D01*
X2049717Y-45469037D01*
X2049728Y-45469053D01*
X2188613Y-45650052D01*
X2188619Y-45650059D01*
X2349940Y-45811380D01*
X2349947Y-45811386D01*
X2361005Y-45819871D01*
X2530955Y-45950278D01*
X2530962Y-45950282D01*
X2728537Y-46064353D01*
X2728553Y-46064361D01*
X2842268Y-46111463D01*
X2939334Y-46151669D01*
X3159717Y-46210720D01*
X3319474Y-46231752D01*
X3385921Y-46240500D01*
X3385922Y-46240500D01*
X3614079Y-46240500D01*
X3665438Y-46233738D01*
X3840283Y-46210720D01*
X4060666Y-46151669D01*
X4226365Y-46083033D01*
X4271446Y-46064361D01*
X4271449Y-46064359D01*
X4271455Y-46064357D01*
X4469045Y-45950278D01*
X4650054Y-45811385D01*
X4811385Y-45650054D01*
X4950278Y-45469045D01*
X5064357Y-45271455D01*
X5074749Y-45246368D01*
X5084658Y-45222445D01*
X5151669Y-45060666D01*
X5210720Y-44840283D01*
X5240500Y-44614078D01*
X5240500Y-44385922D01*
X5239398Y-44377555D01*
X5226283Y-44277929D01*
X5210720Y-44159717D01*
X5151669Y-43939334D01*
X5101699Y-43818697D01*
X5064361Y-43728553D01*
X5064353Y-43728537D01*
X4950282Y-43530962D01*
X4950278Y-43530955D01*
X4864182Y-43418752D01*
X4811386Y-43349947D01*
X4811380Y-43349940D01*
X4650059Y-43188619D01*
X4650052Y-43188613D01*
X4469053Y-43049728D01*
X4469051Y-43049726D01*
X4469045Y-43049722D01*
X4469040Y-43049719D01*
X4469037Y-43049717D01*
X4271462Y-42935646D01*
X4271446Y-42935638D01*
X4060666Y-42848331D01*
X4044771Y-42844072D01*
X3840283Y-42789280D01*
X3840277Y-42789279D01*
X3840272Y-42789278D01*
X3614079Y-42759500D01*
X3614078Y-42759500D01*
X3385922Y-42759500D01*
X3385921Y-42759500D01*
X3159727Y-42789278D01*
X3159720Y-42789279D01*
X3159717Y-42789280D01*
X3125673Y-42798402D01*
X2939333Y-42848331D01*
X2728553Y-42935638D01*
X2728537Y-42935646D01*
X2530962Y-43049717D01*
X2530946Y-43049728D01*
X2349947Y-43188613D01*
X2349940Y-43188619D01*
X2188619Y-43349940D01*
X2188613Y-43349947D01*
X2049728Y-43530946D01*
X2049717Y-43530962D01*
X1935646Y-43728537D01*
X1935638Y-43728553D01*
X1848331Y-43939333D01*
X1836511Y-43983447D01*
X1789996Y-44157047D01*
X1789281Y-44159714D01*
X1789278Y-44159727D01*
X1759500Y-44385921D01*
X400500Y-44385921D01*
X400500Y-40054552D01*
X420185Y-39987513D01*
X472989Y-39941758D01*
X524500Y-39930552D01*
X2799936Y-39930552D01*
X2799936Y-31917451D01*
X541558Y-31917451D01*
X524500Y-31917451D01*
X457461Y-31897766D01*
X411706Y-31844962D01*
X400500Y-31793451D01*
X400500Y-26390188D01*
X1824500Y-26390188D01*
X1824500Y-26609811D01*
X1824501Y-26609828D01*
X1853167Y-26827573D01*
X1910014Y-27039729D01*
X1983230Y-27216487D01*
X1994065Y-27242645D01*
X2103884Y-27432855D01*
X2103889Y-27432861D01*
X2103890Y-27432863D01*
X2237588Y-27607102D01*
X2237594Y-27607109D01*
X2392890Y-27762405D01*
X2392897Y-27762411D01*
X2516977Y-27857621D01*
X2567145Y-27896116D01*
X2757355Y-28005935D01*
X2858814Y-28047960D01*
X2960270Y-28089985D01*
X2960271Y-28089985D01*
X2960273Y-28089986D01*
X3172425Y-28146832D01*
X3390182Y-28175500D01*
X3390189Y-28175500D01*
X3609811Y-28175500D01*
X3609818Y-28175500D01*
X3827575Y-28146832D01*
X4039727Y-28089986D01*
X4242645Y-28005935D01*
X4432855Y-27896116D01*
X4607104Y-27762410D01*
X4762410Y-27607104D01*
X4896116Y-27432855D01*
X5005935Y-27242645D01*
X5089986Y-27039727D01*
X5146832Y-26827575D01*
X5171223Y-26642309D01*
X5171224Y-26642304D01*
X5968500Y-26642304D01*
X5968500Y-26642309D01*
X5968500Y-29403043D01*
X5968500Y-29580427D01*
X5969793Y-29586929D01*
X5972117Y-29598609D01*
X5974500Y-29622803D01*
X5974500Y-34477193D01*
X5972118Y-34501382D01*
X5968500Y-34519572D01*
X5968500Y-41607696D01*
X6003103Y-41781658D01*
X6003105Y-41781666D01*
X6024291Y-41832814D01*
X6024293Y-41832819D01*
X6026134Y-41837262D01*
X6070987Y-41945547D01*
X6111358Y-42005966D01*
X6144276Y-42055232D01*
X6169537Y-42093038D01*
X7025958Y-42949459D01*
X7025962Y-42949462D01*
X7025964Y-42949464D01*
X7045795Y-42962714D01*
X7055712Y-42969341D01*
X7173447Y-43048009D01*
X7173453Y-43048013D01*
X7255393Y-43081953D01*
X7255394Y-43081953D01*
X7255395Y-43081954D01*
X7263905Y-43085479D01*
X7337334Y-43115895D01*
X7511303Y-43150499D01*
X7511307Y-43150500D01*
X7511308Y-43150500D01*
X9738693Y-43150500D01*
X9738694Y-43150499D01*
X9912666Y-43115895D01*
X9994606Y-43081953D01*
X10076547Y-43048013D01*
X10194289Y-42969340D01*
X10224036Y-42949464D01*
X11609464Y-41564036D01*
X11646813Y-41508139D01*
X11664443Y-41481755D01*
X11664443Y-41481754D01*
X11671781Y-41470772D01*
X11708013Y-41416547D01*
X11736959Y-41346666D01*
X11755970Y-41300769D01*
X11761805Y-41286679D01*
X11775895Y-41252666D01*
X11810500Y-41078692D01*
X11810500Y-40901308D01*
X11810500Y-40643140D01*
X11830185Y-40576101D01*
X11834164Y-40570279D01*
X11851232Y-40546788D01*
X11929873Y-40392445D01*
X11983402Y-40227701D01*
X12010500Y-40056611D01*
X12010500Y-39126021D01*
X12016738Y-39104775D01*
X12018318Y-39082687D01*
X12026390Y-39071903D01*
X12030185Y-39058982D01*
X12046918Y-39044482D01*
X12060190Y-39026754D01*
X12072810Y-39022046D01*
X12082989Y-39013227D01*
X12104906Y-39010075D01*
X12125654Y-39002337D01*
X12138814Y-39005199D01*
X12152147Y-39003283D01*
X12172290Y-39012482D01*
X12193927Y-39017189D01*
X12211652Y-39030457D01*
X12215703Y-39032308D01*
X12222181Y-39038340D01*
X12313181Y-39129340D01*
X12346666Y-39190663D01*
X12349500Y-39217021D01*
X12349500Y-40056611D01*
X12376598Y-40227701D01*
X12430127Y-40392445D01*
X12508768Y-40546788D01*
X12610586Y-40686928D01*
X12733072Y-40809414D01*
X12873212Y-40911232D01*
X13027555Y-40989873D01*
X13192299Y-41043402D01*
X13363389Y-41070500D01*
X13363390Y-41070500D01*
X13536610Y-41070500D01*
X13536611Y-41070500D01*
X13707701Y-41043402D01*
X13872445Y-40989873D01*
X14026788Y-40911232D01*
X14166928Y-40809414D01*
X14289414Y-40686928D01*
X14391232Y-40546788D01*
X14469873Y-40392445D01*
X14523402Y-40227701D01*
X14550500Y-40056611D01*
X14550500Y-38483389D01*
X14523402Y-38312299D01*
X14469873Y-38147555D01*
X14391232Y-37993212D01*
X14289414Y-37853072D01*
X14166928Y-37730586D01*
X14125265Y-37700316D01*
X14082602Y-37644988D01*
X14076623Y-37575374D01*
X14109229Y-37513579D01*
X14125266Y-37499683D01*
X14166928Y-37469414D01*
X14289414Y-37346928D01*
X14391232Y-37206788D01*
X14469873Y-37052445D01*
X14523402Y-36887701D01*
X14550500Y-36716611D01*
X14550500Y-35143389D01*
X14523402Y-34972299D01*
X14469873Y-34807555D01*
X14391232Y-34653212D01*
X14391231Y-34653210D01*
X14360907Y-34611474D01*
X14337426Y-34545667D01*
X14353251Y-34477613D01*
X14403356Y-34428918D01*
X14471834Y-34415042D01*
X14536943Y-34440390D01*
X14548905Y-34450906D01*
X14900559Y-34802559D01*
X14934044Y-34863882D01*
X14930810Y-34928556D01*
X14916597Y-34972299D01*
X14889500Y-35143389D01*
X14889500Y-36716610D01*
X14915934Y-36883512D01*
X14916598Y-36887701D01*
X14970127Y-37052445D01*
X15048768Y-37206788D01*
X15150586Y-37346928D01*
X15150588Y-37346930D01*
X15273072Y-37469414D01*
X15314733Y-37499683D01*
X15357398Y-37555013D01*
X15363376Y-37624627D01*
X15330769Y-37686421D01*
X15314733Y-37700317D01*
X15273072Y-37730585D01*
X15150588Y-37853069D01*
X15150588Y-37853070D01*
X15150586Y-37853072D01*
X15118773Y-37896859D01*
X15048768Y-37993211D01*
X14970128Y-38147552D01*
X14916597Y-38312302D01*
X14907459Y-38370000D01*
X14889500Y-38483389D01*
X14889500Y-40056611D01*
X14916598Y-40227701D01*
X14970127Y-40392445D01*
X15048768Y-40546788D01*
X15150586Y-40686928D01*
X15273072Y-40809414D01*
X15413212Y-40911232D01*
X15567555Y-40989873D01*
X15732299Y-41043402D01*
X15903389Y-41070500D01*
X15903390Y-41070500D01*
X16076610Y-41070500D01*
X16076611Y-41070500D01*
X16247701Y-41043402D01*
X16412445Y-40989873D01*
X16566788Y-40911232D01*
X16706928Y-40809414D01*
X16829414Y-40686928D01*
X16931232Y-40546788D01*
X17009873Y-40392445D01*
X17063402Y-40227701D01*
X17090500Y-40056611D01*
X17090500Y-38762020D01*
X17099144Y-38732579D01*
X17105668Y-38702593D01*
X17109422Y-38697577D01*
X17110185Y-38694981D01*
X17126815Y-38674343D01*
X17217820Y-38583338D01*
X17279142Y-38549854D01*
X17348834Y-38554838D01*
X17404767Y-38596710D01*
X17429184Y-38662174D01*
X17429500Y-38671020D01*
X17429500Y-40056611D01*
X17456598Y-40227701D01*
X17510127Y-40392445D01*
X17588768Y-40546788D01*
X17690586Y-40686928D01*
X17813072Y-40809414D01*
X17953212Y-40911232D01*
X18107555Y-40989873D01*
X18272299Y-41043402D01*
X18443389Y-41070500D01*
X18443390Y-41070500D01*
X18616610Y-41070500D01*
X18616611Y-41070500D01*
X18787701Y-41043402D01*
X18952445Y-40989873D01*
X19106788Y-40911232D01*
X19246928Y-40809414D01*
X19369414Y-40686928D01*
X19471232Y-40546788D01*
X19549873Y-40392445D01*
X19603402Y-40227701D01*
X19630500Y-40056611D01*
X19630500Y-38762020D01*
X19639144Y-38732579D01*
X19645668Y-38702593D01*
X19649422Y-38697577D01*
X19650185Y-38694981D01*
X19666815Y-38674343D01*
X19757820Y-38583338D01*
X19819142Y-38549854D01*
X19888834Y-38554838D01*
X19944767Y-38596710D01*
X19969184Y-38662174D01*
X19969500Y-38671020D01*
X19969500Y-40056611D01*
X19996598Y-40227701D01*
X20050127Y-40392445D01*
X20128768Y-40546788D01*
X20230586Y-40686928D01*
X20353072Y-40809414D01*
X20493212Y-40911232D01*
X20647555Y-40989873D01*
X20812299Y-41043402D01*
X20983389Y-41070500D01*
X20983390Y-41070500D01*
X21156610Y-41070500D01*
X21156611Y-41070500D01*
X21327701Y-41043402D01*
X21492445Y-40989873D01*
X21646788Y-40911232D01*
X21786928Y-40809414D01*
X21909414Y-40686928D01*
X22011232Y-40546788D01*
X22089873Y-40392445D01*
X22143402Y-40227701D01*
X22170500Y-40056611D01*
X22170500Y-38762020D01*
X22179144Y-38732580D01*
X22185668Y-38702594D01*
X22189422Y-38697578D01*
X22190185Y-38694982D01*
X22206815Y-38674344D01*
X22297820Y-38583339D01*
X22359142Y-38549855D01*
X22428834Y-38554839D01*
X22484767Y-38596711D01*
X22509184Y-38662175D01*
X22509500Y-38671021D01*
X22509500Y-40056610D01*
X22536597Y-40227697D01*
X22590128Y-40392447D01*
X22664412Y-40538238D01*
X22677308Y-40606907D01*
X22651032Y-40671648D01*
X22641614Y-40682207D01*
X22567713Y-40756110D01*
X22492294Y-40831529D01*
X22419463Y-40940530D01*
X22369297Y-41061641D01*
X22369295Y-41061649D01*
X22352517Y-41146000D01*
X22351544Y-41150894D01*
X22347633Y-41170554D01*
X22343722Y-41190214D01*
X22343722Y-41407591D01*
X22324037Y-41474630D01*
X22295706Y-41504630D01*
X22295999Y-41504973D01*
X22292814Y-41507693D01*
X22292616Y-41507903D01*
X22292297Y-41508134D01*
X22292291Y-41508139D01*
X22169810Y-41630620D01*
X22169810Y-41630621D01*
X22169808Y-41630623D01*
X22133149Y-41681080D01*
X22067990Y-41770762D01*
X21989350Y-41925103D01*
X21935819Y-42089853D01*
X21908722Y-42260940D01*
X21908722Y-42434161D01*
X21932918Y-42586934D01*
X21935820Y-42605252D01*
X21989349Y-42769996D01*
X22067990Y-42924339D01*
X22169808Y-43064479D01*
X22292294Y-43186965D01*
X22432434Y-43288783D01*
X22586777Y-43367424D01*
X22751521Y-43420953D01*
X22922611Y-43448051D01*
X22922612Y-43448051D01*
X23095832Y-43448051D01*
X23095833Y-43448051D01*
X23266923Y-43420953D01*
X23431667Y-43367424D01*
X23586010Y-43288783D01*
X23726150Y-43186965D01*
X23848636Y-43064479D01*
X23950454Y-42924339D01*
X24029095Y-42769996D01*
X24082624Y-42605252D01*
X24109722Y-42434162D01*
X24109722Y-42260940D01*
X24082624Y-42089850D01*
X24029095Y-41925106D01*
X23950454Y-41770763D01*
X23848636Y-41630623D01*
X23799758Y-41581745D01*
X23766273Y-41520422D01*
X23771257Y-41450730D01*
X23799756Y-41406385D01*
X24239612Y-40966528D01*
X24300935Y-40933044D01*
X24370627Y-40938028D01*
X24414974Y-40966529D01*
X25467359Y-42018913D01*
X25500844Y-42080236D01*
X25503678Y-42106594D01*
X25503678Y-43831950D01*
X25483993Y-43898989D01*
X25452564Y-43932268D01*
X25311766Y-44034564D01*
X25189284Y-44157046D01*
X25189284Y-44157047D01*
X25189282Y-44157049D01*
X25147219Y-44214943D01*
X25087464Y-44297188D01*
X25008824Y-44451529D01*
X24955293Y-44616279D01*
X24928196Y-44787366D01*
X24928196Y-44960587D01*
X24943576Y-45057697D01*
X24955294Y-45131678D01*
X25008823Y-45296422D01*
X25087464Y-45450765D01*
X25189282Y-45590905D01*
X25311768Y-45713391D01*
X25451908Y-45815209D01*
X25606251Y-45893850D01*
X25770995Y-45947379D01*
X25942085Y-45974477D01*
X25942086Y-45974477D01*
X26115306Y-45974477D01*
X26115307Y-45974477D01*
X26286397Y-45947379D01*
X26451141Y-45893850D01*
X26605484Y-45815209D01*
X26745624Y-45713391D01*
X26868110Y-45590905D01*
X26969928Y-45450765D01*
X27048569Y-45296422D01*
X27102098Y-45131678D01*
X27129196Y-44960588D01*
X27129196Y-44787366D01*
X27102098Y-44616276D01*
X27048569Y-44451532D01*
X26969928Y-44297189D01*
X26868110Y-44157049D01*
X26868101Y-44157040D01*
X26864946Y-44153345D01*
X26866618Y-44151916D01*
X26856293Y-44133008D01*
X26839701Y-44107190D01*
X26838809Y-44100989D01*
X26837512Y-44098613D01*
X26834678Y-44072255D01*
X26834678Y-43860335D01*
X26854363Y-43793296D01*
X26907167Y-43747541D01*
X26976325Y-43737597D01*
X27039881Y-43766622D01*
X27076607Y-43822015D01*
X27129060Y-43983445D01*
X27207701Y-44137788D01*
X27309519Y-44277928D01*
X27432005Y-44400414D01*
X27572145Y-44502232D01*
X27726488Y-44580873D01*
X27891232Y-44634402D01*
X28062322Y-44661500D01*
X28062323Y-44661500D01*
X28235543Y-44661500D01*
X28235544Y-44661500D01*
X28406634Y-44634402D01*
X28571378Y-44580873D01*
X28725721Y-44502232D01*
X28865861Y-44400414D01*
X28988347Y-44277928D01*
X29090165Y-44137788D01*
X29168806Y-43983445D01*
X29222335Y-43818701D01*
X29249433Y-43647611D01*
X29249433Y-43474389D01*
X29245010Y-43446465D01*
X29247665Y-43425918D01*
X29245405Y-43405322D01*
X29252654Y-43387312D01*
X29253964Y-43377175D01*
X29256477Y-43371809D01*
X29259991Y-43364748D01*
X29279758Y-43335166D01*
X29303088Y-43278842D01*
X29329925Y-43214052D01*
X29342567Y-43150499D01*
X29355500Y-43085481D01*
X29355500Y-40909959D01*
X29375185Y-40842920D01*
X29403516Y-40812925D01*
X29403221Y-40812580D01*
X29406436Y-40809833D01*
X29406624Y-40809634D01*
X29406928Y-40809414D01*
X29529414Y-40686928D01*
X29631232Y-40546788D01*
X29709873Y-40392445D01*
X29763402Y-40227701D01*
X29790500Y-40056611D01*
X29790500Y-38483389D01*
X29763402Y-38312299D01*
X29709873Y-38147555D01*
X29631232Y-37993212D01*
X29529414Y-37853072D01*
X29406928Y-37730586D01*
X29365265Y-37700316D01*
X29322602Y-37644988D01*
X29316623Y-37575374D01*
X29349229Y-37513579D01*
X29365266Y-37499683D01*
X29406928Y-37469414D01*
X29529414Y-37346928D01*
X29631232Y-37206788D01*
X29709873Y-37052445D01*
X29763402Y-36887701D01*
X29790500Y-36716611D01*
X29790500Y-35647301D01*
X29799144Y-35617860D01*
X29805668Y-35587874D01*
X29809422Y-35582858D01*
X29810185Y-35580262D01*
X29826819Y-35559620D01*
X29917819Y-35468620D01*
X29979142Y-35435135D01*
X30048834Y-35440119D01*
X30104767Y-35481991D01*
X30129184Y-35547455D01*
X30129500Y-35556301D01*
X30129500Y-36716610D01*
X30155934Y-36883512D01*
X30156598Y-36887701D01*
X30210127Y-37052445D01*
X30288768Y-37206788D01*
X30390586Y-37346928D01*
X30390588Y-37346930D01*
X30513072Y-37469414D01*
X30554733Y-37499683D01*
X30597398Y-37555013D01*
X30603376Y-37624627D01*
X30570769Y-37686421D01*
X30554733Y-37700317D01*
X30513072Y-37730585D01*
X30390588Y-37853069D01*
X30390588Y-37853070D01*
X30390586Y-37853072D01*
X30358773Y-37896859D01*
X30288768Y-37993211D01*
X30210128Y-38147552D01*
X30156597Y-38312302D01*
X30147459Y-38370000D01*
X30129500Y-38483389D01*
X30129500Y-40056611D01*
X30156598Y-40227701D01*
X30210127Y-40392445D01*
X30288768Y-40546788D01*
X30390586Y-40686928D01*
X30513072Y-40809414D01*
X30513374Y-40809633D01*
X30513461Y-40809746D01*
X30516779Y-40812580D01*
X30516184Y-40813276D01*
X30556046Y-40864958D01*
X30564500Y-40909959D01*
X30564500Y-43000788D01*
X30544815Y-43067827D01*
X30492011Y-43113582D01*
X30459898Y-43123261D01*
X30369382Y-43137597D01*
X30369379Y-43137598D01*
X30217454Y-43186962D01*
X30204632Y-43191128D01*
X30050291Y-43269768D01*
X30003554Y-43303725D01*
X29910152Y-43371586D01*
X29910150Y-43371588D01*
X29910149Y-43371588D01*
X29787668Y-43494069D01*
X29787668Y-43494070D01*
X29787666Y-43494072D01*
X29760869Y-43530955D01*
X29685848Y-43634211D01*
X29607208Y-43788552D01*
X29553677Y-43953302D01*
X29526580Y-44124389D01*
X29526580Y-44297610D01*
X29550958Y-44451532D01*
X29553678Y-44468701D01*
X29601629Y-44616279D01*
X29607208Y-44633447D01*
X29614972Y-44648685D01*
X29685848Y-44787788D01*
X29787666Y-44927928D01*
X29910152Y-45050414D01*
X30050292Y-45152232D01*
X30204635Y-45230873D01*
X30369379Y-45284402D01*
X30540469Y-45311500D01*
X30540470Y-45311500D01*
X30713690Y-45311500D01*
X30713691Y-45311500D01*
X30884781Y-45284402D01*
X31049525Y-45230873D01*
X31203868Y-45152232D01*
X31344008Y-45050414D01*
X31466494Y-44927928D01*
X31568312Y-44787788D01*
X31646953Y-44633445D01*
X31646953Y-44633442D01*
X31648342Y-44630718D01*
X31696316Y-44579922D01*
X31764137Y-44563126D01*
X31830272Y-44585663D01*
X31873724Y-44640378D01*
X31876755Y-44648685D01*
X31876837Y-44648940D01*
X31909676Y-44713389D01*
X31955479Y-44803283D01*
X32057297Y-44943423D01*
X32179783Y-45065909D01*
X32319923Y-45167727D01*
X32474266Y-45246368D01*
X32639010Y-45299897D01*
X32810100Y-45326995D01*
X32810101Y-45326995D01*
X32983321Y-45326995D01*
X32983322Y-45326995D01*
X33154412Y-45299897D01*
X33319156Y-45246368D01*
X33473499Y-45167727D01*
X33613639Y-45065909D01*
X33736125Y-44943423D01*
X33837943Y-44803283D01*
X33916584Y-44648940D01*
X33970113Y-44484196D01*
X33997211Y-44313106D01*
X33997211Y-44139884D01*
X33997150Y-44139501D01*
X33997169Y-44139353D01*
X33996829Y-44135031D01*
X33997737Y-44134959D01*
X34006103Y-44070211D01*
X34031937Y-44032426D01*
X34286927Y-43777438D01*
X34286929Y-43777434D01*
X34286932Y-43777432D01*
X34287336Y-43776828D01*
X34301618Y-43755451D01*
X34320897Y-43726598D01*
X34359758Y-43668439D01*
X34386157Y-43604706D01*
X34409925Y-43547325D01*
X34435500Y-43418752D01*
X34435500Y-43418740D01*
X34435749Y-43416217D01*
X34436253Y-43414968D01*
X34436689Y-43412777D01*
X34437104Y-43412859D01*
X34461906Y-43351428D01*
X34518938Y-43311066D01*
X34588738Y-43307945D01*
X34597450Y-43310427D01*
X34615063Y-43316150D01*
X34786153Y-43343248D01*
X34786154Y-43343248D01*
X34959374Y-43343248D01*
X34959375Y-43343248D01*
X35130465Y-43316150D01*
X35295209Y-43262621D01*
X35449552Y-43183980D01*
X35531885Y-43124161D01*
X35597689Y-43100682D01*
X35665743Y-43116507D01*
X35692450Y-43136799D01*
X35757558Y-43201907D01*
X35897698Y-43303725D01*
X36052041Y-43382366D01*
X36216785Y-43435895D01*
X36387875Y-43462993D01*
X36387876Y-43462993D01*
X36561096Y-43462993D01*
X36561097Y-43462993D01*
X36732187Y-43435895D01*
X36896931Y-43382366D01*
X37051274Y-43303725D01*
X37191414Y-43201907D01*
X37313900Y-43079421D01*
X37415718Y-42939281D01*
X37440826Y-42890002D01*
X37488799Y-42839207D01*
X37556620Y-42822411D01*
X37622755Y-42844948D01*
X37666207Y-42899662D01*
X37673784Y-42965692D01*
X37663943Y-43027832D01*
X37663943Y-43027837D01*
X37663943Y-43201053D01*
X37691018Y-43372002D01*
X37691041Y-43372144D01*
X37744570Y-43536888D01*
X37823211Y-43691231D01*
X37925029Y-43831371D01*
X38047515Y-43953857D01*
X38187655Y-44055675D01*
X38341998Y-44134316D01*
X38506742Y-44187845D01*
X38677832Y-44214943D01*
X38677833Y-44214943D01*
X38851053Y-44214943D01*
X38851054Y-44214943D01*
X39022144Y-44187845D01*
X39186888Y-44134316D01*
X39341231Y-44055675D01*
X39481371Y-43953857D01*
X39603857Y-43831371D01*
X39705675Y-43691231D01*
X39784316Y-43536888D01*
X39837845Y-43372144D01*
X39864943Y-43201054D01*
X39864943Y-43027832D01*
X39837845Y-42856742D01*
X39784316Y-42691998D01*
X39705675Y-42537655D01*
X39603857Y-42397515D01*
X39551819Y-42345477D01*
X39518334Y-42284154D01*
X39515500Y-42257796D01*
X39515500Y-40909959D01*
X39535185Y-40842920D01*
X39563516Y-40812925D01*
X39563221Y-40812580D01*
X39566436Y-40809833D01*
X39566624Y-40809634D01*
X39566928Y-40809414D01*
X39689414Y-40686928D01*
X39791232Y-40546788D01*
X39869873Y-40392445D01*
X39923402Y-40227701D01*
X39950500Y-40056611D01*
X39950500Y-38671020D01*
X39956738Y-38649775D01*
X39958318Y-38627687D01*
X39966390Y-38616903D01*
X39970185Y-38603982D01*
X39986918Y-38589482D01*
X40000190Y-38571754D01*
X40012810Y-38567046D01*
X40022989Y-38558227D01*
X40044906Y-38555075D01*
X40065654Y-38547337D01*
X40078814Y-38550199D01*
X40092147Y-38548283D01*
X40112290Y-38557482D01*
X40133927Y-38562189D01*
X40151652Y-38575457D01*
X40155703Y-38577308D01*
X40162180Y-38583339D01*
X40253181Y-38674340D01*
X40286666Y-38735663D01*
X40289500Y-38762020D01*
X40289500Y-40056611D01*
X40316598Y-40227701D01*
X40370127Y-40392445D01*
X40448768Y-40546788D01*
X40550586Y-40686928D01*
X40673072Y-40809414D01*
X40813212Y-40911232D01*
X40967555Y-40989873D01*
X41132299Y-41043402D01*
X41303389Y-41070500D01*
X41303390Y-41070500D01*
X41476610Y-41070500D01*
X41476611Y-41070500D01*
X41647701Y-41043402D01*
X41812445Y-40989873D01*
X41818203Y-40986938D01*
X41886872Y-40974042D01*
X41951613Y-41000317D01*
X41991871Y-41057422D01*
X41998500Y-41097423D01*
X41998500Y-43670739D01*
X41978815Y-43737778D01*
X41930795Y-43781224D01*
X41778606Y-43858768D01*
X41713093Y-43906367D01*
X41638467Y-43960586D01*
X41638465Y-43960588D01*
X41638464Y-43960588D01*
X41515983Y-44083069D01*
X41515983Y-44083070D01*
X41515981Y-44083072D01*
X41476227Y-44137788D01*
X41414163Y-44223211D01*
X41335523Y-44377552D01*
X41281992Y-44542302D01*
X41267405Y-44634402D01*
X41254895Y-44713389D01*
X41254895Y-44886611D01*
X41281993Y-45057701D01*
X41335522Y-45222445D01*
X41414163Y-45376788D01*
X41515981Y-45516928D01*
X41638467Y-45639414D01*
X41778607Y-45741232D01*
X41932950Y-45819873D01*
X42097694Y-45873402D01*
X42268784Y-45900500D01*
X42268785Y-45900500D01*
X42442005Y-45900500D01*
X42442006Y-45900500D01*
X42613096Y-45873402D01*
X42777840Y-45819873D01*
X42932183Y-45741232D01*
X43072323Y-45639414D01*
X43194809Y-45516928D01*
X43296627Y-45376788D01*
X43375268Y-45222445D01*
X43428797Y-45057701D01*
X43455895Y-44886611D01*
X43455895Y-44713389D01*
X43428797Y-44542299D01*
X43377986Y-44385921D01*
X59759500Y-44385921D01*
X59759500Y-44614078D01*
X59789278Y-44840272D01*
X59789279Y-44840277D01*
X59789280Y-44840283D01*
X59845583Y-45050411D01*
X59848331Y-45060666D01*
X59935638Y-45271446D01*
X59935646Y-45271462D01*
X60049717Y-45469037D01*
X60049728Y-45469053D01*
X60188613Y-45650052D01*
X60188619Y-45650059D01*
X60349940Y-45811380D01*
X60349947Y-45811386D01*
X60361005Y-45819871D01*
X60530955Y-45950278D01*
X60530962Y-45950282D01*
X60728537Y-46064353D01*
X60728553Y-46064361D01*
X60842268Y-46111463D01*
X60939334Y-46151669D01*
X61159717Y-46210720D01*
X61319474Y-46231752D01*
X61385921Y-46240500D01*
X61385922Y-46240500D01*
X61614079Y-46240500D01*
X61665438Y-46233738D01*
X61840283Y-46210720D01*
X62060666Y-46151669D01*
X62226365Y-46083033D01*
X62271446Y-46064361D01*
X62271449Y-46064359D01*
X62271455Y-46064357D01*
X62469045Y-45950278D01*
X62650054Y-45811385D01*
X62811385Y-45650054D01*
X62950278Y-45469045D01*
X63064357Y-45271455D01*
X63074749Y-45246368D01*
X63084658Y-45222445D01*
X63151669Y-45060666D01*
X63210720Y-44840283D01*
X63240500Y-44614078D01*
X63240500Y-44385922D01*
X63239398Y-44377555D01*
X63226283Y-44277929D01*
X63210720Y-44159717D01*
X63151669Y-43939334D01*
X63101699Y-43818697D01*
X63064361Y-43728553D01*
X63064353Y-43728537D01*
X62950282Y-43530962D01*
X62950278Y-43530955D01*
X62864182Y-43418752D01*
X62811386Y-43349947D01*
X62811380Y-43349940D01*
X62650059Y-43188619D01*
X62650052Y-43188613D01*
X62469053Y-43049728D01*
X62469051Y-43049726D01*
X62469045Y-43049722D01*
X62469040Y-43049719D01*
X62469037Y-43049717D01*
X62271462Y-42935646D01*
X62271446Y-42935638D01*
X62060666Y-42848331D01*
X62044771Y-42844072D01*
X61840283Y-42789280D01*
X61840277Y-42789279D01*
X61840272Y-42789278D01*
X61614079Y-42759500D01*
X61614078Y-42759500D01*
X61385922Y-42759500D01*
X61385921Y-42759500D01*
X61159727Y-42789278D01*
X61159720Y-42789279D01*
X61159717Y-42789280D01*
X61125673Y-42798402D01*
X60939333Y-42848331D01*
X60728553Y-42935638D01*
X60728537Y-42935646D01*
X60530962Y-43049717D01*
X60530946Y-43049728D01*
X60349947Y-43188613D01*
X60349940Y-43188619D01*
X60188619Y-43349940D01*
X60188613Y-43349947D01*
X60049728Y-43530946D01*
X60049717Y-43530962D01*
X59935646Y-43728537D01*
X59935638Y-43728553D01*
X59848331Y-43939333D01*
X59836511Y-43983447D01*
X59789996Y-44157047D01*
X59789281Y-44159714D01*
X59789278Y-44159727D01*
X59759500Y-44385921D01*
X43377986Y-44385921D01*
X43375268Y-44377555D01*
X43375264Y-44377547D01*
X43343015Y-44314253D01*
X43329500Y-44257959D01*
X43329500Y-42647300D01*
X43349185Y-42580261D01*
X43401989Y-42534506D01*
X43471147Y-42524562D01*
X43491814Y-42529368D01*
X43631398Y-42574722D01*
X43802488Y-42601820D01*
X43802489Y-42601820D01*
X43975709Y-42601820D01*
X43975710Y-42601820D01*
X44146800Y-42574722D01*
X44311544Y-42521193D01*
X44465887Y-42442552D01*
X44606027Y-42340734D01*
X44728513Y-42218248D01*
X44830331Y-42078108D01*
X44908972Y-41923765D01*
X44962501Y-41759021D01*
X44989599Y-41587931D01*
X44989599Y-41414709D01*
X44962501Y-41243619D01*
X44908972Y-41078875D01*
X44830331Y-40924532D01*
X44830329Y-40924529D01*
X44830328Y-40924527D01*
X44766509Y-40836689D01*
X44743028Y-40770883D01*
X44758853Y-40702829D01*
X44767062Y-40691241D01*
X44766550Y-40690869D01*
X44769413Y-40686929D01*
X44769414Y-40686928D01*
X44871232Y-40546788D01*
X44949873Y-40392445D01*
X45003402Y-40227701D01*
X45030500Y-40056611D01*
X45030500Y-38483389D01*
X45003402Y-38312299D01*
X44949873Y-38147555D01*
X44871232Y-37993212D01*
X44769414Y-37853072D01*
X44646928Y-37730586D01*
X44605265Y-37700316D01*
X44562602Y-37644988D01*
X44556623Y-37575374D01*
X44589229Y-37513579D01*
X44605266Y-37499683D01*
X44646928Y-37469414D01*
X44769414Y-37346928D01*
X44871232Y-37206788D01*
X44949873Y-37052445D01*
X45003402Y-36887701D01*
X45030500Y-36716611D01*
X45030500Y-35143389D01*
X45003402Y-34972299D01*
X44949873Y-34807555D01*
X44871232Y-34653212D01*
X44769414Y-34513072D01*
X44646928Y-34390586D01*
X44646606Y-34390352D01*
X44646514Y-34390233D01*
X44643223Y-34387422D01*
X44643813Y-34386730D01*
X44603945Y-34335018D01*
X44595500Y-34290040D01*
X44595500Y-34286022D01*
X44615185Y-34218983D01*
X44667989Y-34173228D01*
X44737147Y-34163284D01*
X44800703Y-34192309D01*
X44807181Y-34198341D01*
X45388122Y-34779282D01*
X45421607Y-34840605D01*
X45418373Y-34905279D01*
X45396597Y-34972299D01*
X45369500Y-35143389D01*
X45369500Y-36716610D01*
X45395934Y-36883512D01*
X45396598Y-36887701D01*
X45450127Y-37052445D01*
X45528768Y-37206788D01*
X45630586Y-37346928D01*
X45630588Y-37346930D01*
X45753072Y-37469414D01*
X45794733Y-37499683D01*
X45837398Y-37555013D01*
X45843376Y-37624627D01*
X45810769Y-37686421D01*
X45794733Y-37700317D01*
X45753072Y-37730585D01*
X45630588Y-37853069D01*
X45630588Y-37853070D01*
X45630586Y-37853072D01*
X45598773Y-37896859D01*
X45528768Y-37993211D01*
X45450128Y-38147552D01*
X45396597Y-38312302D01*
X45387459Y-38370000D01*
X45369500Y-38483389D01*
X45369500Y-40056611D01*
X45396598Y-40227701D01*
X45450127Y-40392445D01*
X45528768Y-40546788D01*
X45630586Y-40686928D01*
X45753072Y-40809414D01*
X45893212Y-40911232D01*
X46047555Y-40989873D01*
X46212299Y-41043402D01*
X46383389Y-41070500D01*
X46383390Y-41070500D01*
X46556610Y-41070500D01*
X46556611Y-41070500D01*
X46727701Y-41043402D01*
X46892445Y-40989873D01*
X47046788Y-40911232D01*
X47186928Y-40809414D01*
X47309414Y-40686928D01*
X47411232Y-40546788D01*
X47489873Y-40392445D01*
X47543402Y-40227701D01*
X47570500Y-40056611D01*
X47570500Y-38762020D01*
X47579144Y-38732580D01*
X47585668Y-38702594D01*
X47589422Y-38697578D01*
X47590185Y-38694982D01*
X47606815Y-38674344D01*
X47697820Y-38583339D01*
X47759142Y-38549855D01*
X47828834Y-38554839D01*
X47884767Y-38596711D01*
X47909184Y-38662175D01*
X47909500Y-38671020D01*
X47909500Y-40056611D01*
X47936598Y-40227701D01*
X47990127Y-40392445D01*
X48068768Y-40546788D01*
X48170586Y-40686928D01*
X48293072Y-40809414D01*
X48433212Y-40911232D01*
X48587555Y-40989873D01*
X48752299Y-41043402D01*
X48923389Y-41070500D01*
X48923390Y-41070500D01*
X49096610Y-41070500D01*
X49096611Y-41070500D01*
X49267701Y-41043402D01*
X49432445Y-40989873D01*
X49432448Y-40989870D01*
X49432452Y-40989870D01*
X49436954Y-40988006D01*
X49437746Y-40989920D01*
X49497873Y-40978628D01*
X49562614Y-41004904D01*
X49602871Y-41062010D01*
X49609500Y-41102009D01*
X49609500Y-42382796D01*
X49589815Y-42449835D01*
X49573181Y-42470477D01*
X49560588Y-42483069D01*
X49560588Y-42483070D01*
X49560586Y-42483072D01*
X49530442Y-42524562D01*
X49458768Y-42623211D01*
X49380128Y-42777552D01*
X49326597Y-42942302D01*
X49303920Y-43085481D01*
X49299500Y-43113389D01*
X49299500Y-43286611D01*
X49302211Y-43303725D01*
X49325069Y-43448051D01*
X49326598Y-43457701D01*
X49380127Y-43622445D01*
X49458768Y-43776788D01*
X49560586Y-43916928D01*
X49683072Y-44039414D01*
X49823212Y-44141232D01*
X49977555Y-44219873D01*
X50142299Y-44273402D01*
X50313389Y-44300500D01*
X50313390Y-44300500D01*
X50486610Y-44300500D01*
X50486611Y-44300500D01*
X50657701Y-44273402D01*
X50822445Y-44219873D01*
X50976788Y-44141232D01*
X51116928Y-44039414D01*
X51239414Y-43916928D01*
X51341232Y-43776788D01*
X51419873Y-43622445D01*
X51473402Y-43457701D01*
X51500500Y-43286611D01*
X51500500Y-43113389D01*
X51473402Y-42942299D01*
X51419873Y-42777555D01*
X51341232Y-42623212D01*
X51239414Y-42483072D01*
X51116928Y-42360586D01*
X51111077Y-42356335D01*
X50991614Y-42269538D01*
X50948948Y-42214208D01*
X50940500Y-42169221D01*
X50940500Y-41096913D01*
X50960185Y-41029874D01*
X51012989Y-40984119D01*
X51082147Y-40974175D01*
X51120797Y-40986429D01*
X51127555Y-40989873D01*
X51292299Y-41043402D01*
X51292302Y-41043402D01*
X51292303Y-41043403D01*
X51378236Y-41057013D01*
X51463389Y-41070500D01*
X51463391Y-41070500D01*
X51465980Y-41070910D01*
X51529115Y-41100839D01*
X51566047Y-41160150D01*
X51565049Y-41230013D01*
X51557069Y-41249676D01*
X51530128Y-41302551D01*
X51476597Y-41467302D01*
X51457885Y-41585448D01*
X51449500Y-41638389D01*
X51449500Y-41811611D01*
X51476598Y-41982701D01*
X51530127Y-42147445D01*
X51608768Y-42301788D01*
X51710586Y-42441928D01*
X51833072Y-42564414D01*
X51973212Y-42666232D01*
X52127555Y-42744873D01*
X52292299Y-42798402D01*
X52463389Y-42825500D01*
X52463390Y-42825500D01*
X52636610Y-42825500D01*
X52636611Y-42825500D01*
X52807701Y-42798402D01*
X52972445Y-42744873D01*
X53126788Y-42666232D01*
X53266928Y-42564414D01*
X53389414Y-42441928D01*
X53491232Y-42301788D01*
X53569873Y-42147445D01*
X53623402Y-41982701D01*
X53650500Y-41811611D01*
X53650500Y-41638389D01*
X53623402Y-41467299D01*
X53569873Y-41302555D01*
X53504014Y-41173299D01*
X53500893Y-41160297D01*
X53495523Y-41151941D01*
X53490500Y-41117006D01*
X53490500Y-41102009D01*
X53510185Y-41034970D01*
X53562989Y-40989215D01*
X53632147Y-40979271D01*
X53662657Y-40988944D01*
X53663046Y-40988006D01*
X53667547Y-40989870D01*
X53667552Y-40989871D01*
X53667555Y-40989873D01*
X53832299Y-41043402D01*
X54003389Y-41070500D01*
X54003390Y-41070500D01*
X54176610Y-41070500D01*
X54176611Y-41070500D01*
X54347701Y-41043402D01*
X54512445Y-40989873D01*
X54666788Y-40911232D01*
X54806928Y-40809414D01*
X54916306Y-40700036D01*
X55553513Y-40700036D01*
X55638417Y-40816895D01*
X55783104Y-40961582D01*
X55948650Y-41081859D01*
X56130968Y-41174755D01*
X56325582Y-41237990D01*
X56527683Y-41270000D01*
X56732317Y-41270000D01*
X56934417Y-41237990D01*
X57129031Y-41174755D01*
X57311349Y-41081859D01*
X57476894Y-40961582D01*
X57476895Y-40961582D01*
X57621584Y-40816893D01*
X57706484Y-40700037D01*
X57706484Y-40700036D01*
X56630000Y-39623552D01*
X55553513Y-40700036D01*
X54916306Y-40700036D01*
X54929414Y-40686928D01*
X55031232Y-40546788D01*
X55109873Y-40392445D01*
X55151974Y-40262870D01*
X55191410Y-40205198D01*
X55255769Y-40177999D01*
X55308222Y-40183260D01*
X55349707Y-40196739D01*
X56276448Y-39270000D01*
X56276448Y-39269999D01*
X55349707Y-38343258D01*
X55308221Y-38356738D01*
X55238380Y-38358733D01*
X55178547Y-38322653D01*
X55151974Y-38277129D01*
X55109873Y-38147555D01*
X55031232Y-37993212D01*
X54929414Y-37853072D01*
X54806928Y-37730586D01*
X54765265Y-37700316D01*
X54722602Y-37644988D01*
X54716623Y-37575374D01*
X54749229Y-37513579D01*
X54765266Y-37499683D01*
X54806928Y-37469414D01*
X54929414Y-37346928D01*
X55031232Y-37206788D01*
X55109873Y-37052445D01*
X55137186Y-36968384D01*
X55176622Y-36910711D01*
X55240981Y-36883512D01*
X55309827Y-36895427D01*
X55361303Y-36942671D01*
X55373047Y-36968385D01*
X55425244Y-37129031D01*
X55518140Y-37311349D01*
X55638417Y-37476894D01*
X55638417Y-37476895D01*
X55673841Y-37512319D01*
X55707326Y-37573642D01*
X55702342Y-37643334D01*
X55673841Y-37687681D01*
X55638417Y-37723104D01*
X55638416Y-37723105D01*
X55553513Y-37839962D01*
X55553514Y-37839963D01*
X56253222Y-38539671D01*
X56229901Y-38562993D01*
X56164075Y-38677007D01*
X56130000Y-38804174D01*
X56130000Y-38935826D01*
X56164075Y-39062993D01*
X56229901Y-39177007D01*
X56322993Y-39270099D01*
X56437007Y-39335925D01*
X56564174Y-39370000D01*
X56695826Y-39370000D01*
X56822993Y-39335925D01*
X56937007Y-39270099D01*
X56937107Y-39269999D01*
X56983552Y-39269999D01*
X56983552Y-39270000D01*
X57910292Y-40196740D01*
X57910292Y-40196739D01*
X57930000Y-40072311D01*
X57930000Y-38467688D01*
X57910292Y-38343259D01*
X56983552Y-39269999D01*
X56937107Y-39269999D01*
X57030099Y-39177007D01*
X57095925Y-39062993D01*
X57130000Y-38935826D01*
X57130000Y-38804174D01*
X57095925Y-38677007D01*
X57030099Y-38562993D01*
X57006777Y-38539671D01*
X57706484Y-37839963D01*
X57706485Y-37839961D01*
X57621587Y-37723110D01*
X57621582Y-37723104D01*
X57586159Y-37687681D01*
X57552674Y-37626358D01*
X57557658Y-37556666D01*
X57586159Y-37512319D01*
X57621582Y-37476895D01*
X57621582Y-37476894D01*
X57741859Y-37311349D01*
X57834755Y-37129031D01*
X57897990Y-36934417D01*
X57930000Y-36732317D01*
X57930000Y-36180000D01*
X57107445Y-36180000D01*
X57095925Y-36137007D01*
X57030099Y-36022993D01*
X56937007Y-35929901D01*
X56822993Y-35864075D01*
X56695826Y-35830000D01*
X56564174Y-35830000D01*
X56437007Y-35864075D01*
X56410269Y-35879511D01*
X56391206Y-35857511D01*
X56380000Y-35806000D01*
X56380000Y-35680000D01*
X56880000Y-35680000D01*
X57930000Y-35680000D01*
X57930000Y-35127682D01*
X57897990Y-34925582D01*
X57834755Y-34730968D01*
X57741859Y-34548650D01*
X57621582Y-34383105D01*
X57621582Y-34383104D01*
X57476895Y-34238417D01*
X57311349Y-34118140D01*
X57129029Y-34025244D01*
X56934413Y-33962009D01*
X56880000Y-33953390D01*
X56880000Y-35680000D01*
X56380000Y-35680000D01*
X56380000Y-33953390D01*
X56325586Y-33962009D01*
X56130970Y-34025244D01*
X55948650Y-34118140D01*
X55783105Y-34238417D01*
X55783104Y-34238417D01*
X55638417Y-34383104D01*
X55638417Y-34383105D01*
X55518140Y-34548650D01*
X55425244Y-34730968D01*
X55373047Y-34891614D01*
X55333609Y-34949289D01*
X55269250Y-34976487D01*
X55200404Y-34964572D01*
X55148928Y-34917328D01*
X55137186Y-34891615D01*
X55109873Y-34807555D01*
X55031232Y-34653212D01*
X54929414Y-34513072D01*
X54806928Y-34390586D01*
X54666788Y-34288768D01*
X54512445Y-34210127D01*
X54347701Y-34156598D01*
X54347699Y-34156597D01*
X54347698Y-34156597D01*
X54216271Y-34135781D01*
X54176611Y-34129500D01*
X54003389Y-34129500D01*
X53963728Y-34135781D01*
X53832302Y-34156597D01*
X53667547Y-34210129D01*
X53663046Y-34211994D01*
X53662260Y-34210096D01*
X53602038Y-34221362D01*
X53537316Y-34195040D01*
X53497100Y-34137905D01*
X53490500Y-34097990D01*
X53490500Y-32727021D01*
X53510185Y-32659982D01*
X53526819Y-32639340D01*
X54641923Y-31524236D01*
X54641928Y-31524231D01*
X54714758Y-31415232D01*
X54716353Y-31411379D01*
X54760187Y-31356976D01*
X54826479Y-31334904D01*
X54894180Y-31352177D01*
X54931233Y-31385937D01*
X54935586Y-31391928D01*
X55058072Y-31514414D01*
X55198212Y-31616232D01*
X55352555Y-31694873D01*
X55517299Y-31748402D01*
X55688389Y-31775500D01*
X55688390Y-31775500D01*
X55861610Y-31775500D01*
X55861611Y-31775500D01*
X56032701Y-31748402D01*
X56197445Y-31694873D01*
X56351788Y-31616232D01*
X56491928Y-31514414D01*
X56614414Y-31391928D01*
X56716232Y-31251788D01*
X56794873Y-31097445D01*
X56848402Y-30932701D01*
X56875500Y-30761611D01*
X56875500Y-30588389D01*
X56848402Y-30417299D01*
X56847470Y-30414433D01*
X56847438Y-30413284D01*
X56847265Y-30412564D01*
X56847416Y-30412527D01*
X56845475Y-30344595D01*
X56877718Y-30288440D01*
X57146928Y-30019231D01*
X57219758Y-29910232D01*
X57269925Y-29789119D01*
X57269925Y-29789114D01*
X57270619Y-29787441D01*
X57312296Y-29734574D01*
X57346928Y-29709414D01*
X57469414Y-29586928D01*
X57571232Y-29446788D01*
X57649873Y-29292445D01*
X57703402Y-29127701D01*
X57730500Y-28956611D01*
X57730500Y-27383389D01*
X57703402Y-27212299D01*
X57649873Y-27047555D01*
X57571232Y-26893212D01*
X57469414Y-26753072D01*
X57441146Y-26724804D01*
X57407662Y-26663482D01*
X57412646Y-26593790D01*
X57454518Y-26537857D01*
X57455943Y-26536806D01*
X57476889Y-26521587D01*
X57476895Y-26521582D01*
X57608289Y-26390188D01*
X59824500Y-26390188D01*
X59824500Y-26609811D01*
X59824501Y-26609828D01*
X59853167Y-26827573D01*
X59910014Y-27039729D01*
X59983230Y-27216487D01*
X59994065Y-27242645D01*
X60103884Y-27432855D01*
X60103889Y-27432861D01*
X60103890Y-27432863D01*
X60237588Y-27607102D01*
X60237594Y-27607109D01*
X60392890Y-27762405D01*
X60392897Y-27762411D01*
X60516977Y-27857621D01*
X60567145Y-27896116D01*
X60757355Y-28005935D01*
X60858814Y-28047960D01*
X60960270Y-28089985D01*
X60960271Y-28089985D01*
X60960273Y-28089986D01*
X61172425Y-28146832D01*
X61390182Y-28175500D01*
X61390189Y-28175500D01*
X61609811Y-28175500D01*
X61609818Y-28175500D01*
X61827575Y-28146832D01*
X62039727Y-28089986D01*
X62242645Y-28005935D01*
X62432855Y-27896116D01*
X62607104Y-27762410D01*
X62762410Y-27607104D01*
X62896116Y-27432855D01*
X63005935Y-27242645D01*
X63089986Y-27039727D01*
X63146832Y-26827575D01*
X63175500Y-26609818D01*
X63175500Y-26390182D01*
X63146832Y-26172425D01*
X63089986Y-25960273D01*
X63086744Y-25952447D01*
X63018996Y-25788888D01*
X63005935Y-25757355D01*
X62896116Y-25567145D01*
X62762410Y-25392896D01*
X62762405Y-25392890D01*
X62607109Y-25237594D01*
X62607102Y-25237588D01*
X62432863Y-25103890D01*
X62432861Y-25103889D01*
X62432855Y-25103884D01*
X62242645Y-24994065D01*
X62242641Y-24994063D01*
X62039729Y-24910014D01*
X61827573Y-24853167D01*
X61609828Y-24824501D01*
X61609823Y-24824500D01*
X61609818Y-24824500D01*
X61390182Y-24824500D01*
X61390176Y-24824500D01*
X61390171Y-24824501D01*
X61172426Y-24853167D01*
X60960270Y-24910014D01*
X60757358Y-24994063D01*
X60757354Y-24994065D01*
X60567145Y-25103884D01*
X60567136Y-25103890D01*
X60392897Y-25237588D01*
X60392890Y-25237594D01*
X60237594Y-25392890D01*
X60237588Y-25392897D01*
X60103890Y-25567136D01*
X60103884Y-25567145D01*
X59994065Y-25757354D01*
X59994063Y-25757358D01*
X59910014Y-25960270D01*
X59853167Y-26172426D01*
X59824501Y-26390171D01*
X59824500Y-26390188D01*
X57608289Y-26390188D01*
X57621582Y-26376895D01*
X57621587Y-26376889D01*
X57667833Y-26313238D01*
X57667833Y-26313237D01*
X57741859Y-26211349D01*
X57834755Y-26029031D01*
X57897990Y-25834417D01*
X57930000Y-25632317D01*
X57930000Y-25080000D01*
X57107445Y-25080000D01*
X57095925Y-25037007D01*
X57030099Y-24922993D01*
X56937007Y-24829901D01*
X56822993Y-24764075D01*
X56695826Y-24730000D01*
X56564174Y-24730000D01*
X56437007Y-24764075D01*
X56410269Y-24779511D01*
X56391206Y-24757511D01*
X56380000Y-24706000D01*
X56380000Y-24580000D01*
X56880000Y-24580000D01*
X57930000Y-24580000D01*
X57930000Y-24027682D01*
X57897990Y-23825582D01*
X57834755Y-23630968D01*
X57741859Y-23448650D01*
X57621582Y-23283105D01*
X57621582Y-23283104D01*
X57476895Y-23138417D01*
X57311349Y-23018140D01*
X57129029Y-22925244D01*
X56934413Y-22862009D01*
X56880000Y-22853390D01*
X56880000Y-24580000D01*
X56380000Y-24580000D01*
X56380000Y-22853390D01*
X56325586Y-22862009D01*
X56130970Y-22925244D01*
X55948650Y-23018140D01*
X55783105Y-23138417D01*
X55783104Y-23138417D01*
X55638417Y-23283104D01*
X55638417Y-23283105D01*
X55518140Y-23448650D01*
X55425244Y-23630968D01*
X55373047Y-23791614D01*
X55333609Y-23849289D01*
X55269250Y-23876487D01*
X55200404Y-23864572D01*
X55148928Y-23817328D01*
X55137186Y-23791615D01*
X55109873Y-23707555D01*
X55031232Y-23553212D01*
X54929414Y-23413072D01*
X54806928Y-23290586D01*
X54806606Y-23290352D01*
X54806514Y-23290233D01*
X54803223Y-23287422D01*
X54803813Y-23286730D01*
X54763945Y-23235018D01*
X54755500Y-23190040D01*
X54755500Y-22361887D01*
X54729926Y-22233322D01*
X54729925Y-22233321D01*
X54729925Y-22233317D01*
X54689635Y-22136048D01*
X54679758Y-22112203D01*
X54620423Y-22023402D01*
X54606928Y-22003205D01*
X54519934Y-21916211D01*
X54431035Y-21827311D01*
X54431034Y-21827310D01*
X54431033Y-21827309D01*
X54370638Y-21786955D01*
X54339210Y-21756739D01*
X54336237Y-21752647D01*
X54245175Y-21627311D01*
X54122689Y-21504825D01*
X53982549Y-21403007D01*
X53828206Y-21324366D01*
X53663462Y-21270837D01*
X53663460Y-21270836D01*
X53663459Y-21270836D01*
X53532032Y-21250020D01*
X53492372Y-21243739D01*
X53319150Y-21243739D01*
X53279489Y-21250020D01*
X53148063Y-21270836D01*
X53148060Y-21270837D01*
X53022252Y-21311715D01*
X52983313Y-21324367D01*
X52828972Y-21403007D01*
X52791644Y-21430128D01*
X52688833Y-21504825D01*
X52688831Y-21504827D01*
X52688830Y-21504827D01*
X52566349Y-21627308D01*
X52566349Y-21627309D01*
X52566347Y-21627311D01*
X52537563Y-21666929D01*
X52464527Y-21767452D01*
X52449984Y-21795996D01*
X52402010Y-21846791D01*
X52334189Y-21863586D01*
X52268054Y-21841048D01*
X52224603Y-21786333D01*
X52215500Y-21739700D01*
X52215500Y-21409451D01*
X52189926Y-21280886D01*
X52189925Y-21280885D01*
X52189925Y-21280881D01*
X52158337Y-21204621D01*
X52153832Y-21193745D01*
X52153831Y-21193743D01*
X52150347Y-21185332D01*
X52139758Y-21159767D01*
X52081411Y-21072445D01*
X52074158Y-21061590D01*
X52066930Y-21050771D01*
X51860231Y-20844072D01*
X51826746Y-20782749D01*
X51825569Y-20741499D01*
X51825118Y-20741464D01*
X51825448Y-20737260D01*
X51825441Y-20736981D01*
X51825500Y-20736608D01*
X51825500Y-20563389D01*
X51811736Y-20476486D01*
X51798402Y-20392299D01*
X51744873Y-20227555D01*
X51666232Y-20073212D01*
X51564414Y-19933072D01*
X51441928Y-19810586D01*
X51301788Y-19708768D01*
X51147445Y-19630127D01*
X50982701Y-19576598D01*
X50982699Y-19576597D01*
X50982698Y-19576597D01*
X50851271Y-19555781D01*
X50811611Y-19549500D01*
X50638389Y-19549500D01*
X50598728Y-19555781D01*
X50467302Y-19576597D01*
X50302552Y-19630128D01*
X50148211Y-19708768D01*
X50075481Y-19761610D01*
X50008072Y-19810586D01*
X50008070Y-19810588D01*
X50008069Y-19810588D01*
X49885588Y-19933069D01*
X49885588Y-19933070D01*
X49885586Y-19933072D01*
X49849832Y-19982283D01*
X49783768Y-20073211D01*
X49705128Y-20227552D01*
X49705127Y-20227554D01*
X49705127Y-20227555D01*
X49698914Y-20246677D01*
X49651597Y-20392302D01*
X49628518Y-20538023D01*
X49624500Y-20563389D01*
X49624500Y-20736611D01*
X49625269Y-20741464D01*
X49627061Y-20752782D01*
X49618104Y-20822076D01*
X49573106Y-20875526D01*
X49506353Y-20896163D01*
X49439040Y-20877436D01*
X49416906Y-20859857D01*
X49082899Y-20525850D01*
X49052649Y-20476486D01*
X49044875Y-20452560D01*
X49044872Y-20452554D01*
X49041838Y-20446598D01*
X48966232Y-20298212D01*
X48864414Y-20158072D01*
X48741928Y-20035586D01*
X48601788Y-19933768D01*
X48447445Y-19855127D01*
X48282701Y-19801598D01*
X48282699Y-19801597D01*
X48282698Y-19801597D01*
X48151271Y-19780781D01*
X48111611Y-19774500D01*
X47938389Y-19774500D01*
X47898728Y-19780781D01*
X47767302Y-19801597D01*
X47602552Y-19855128D01*
X47448211Y-19933768D01*
X47366759Y-19992947D01*
X47335245Y-20015844D01*
X47332386Y-20017921D01*
X47266579Y-20041401D01*
X47198525Y-20025576D01*
X47149830Y-19975470D01*
X47135500Y-19917603D01*
X47135500Y-18093592D01*
X47155185Y-18026553D01*
X47186623Y-17993268D01*
X47191274Y-17989889D01*
X47191928Y-17989414D01*
X47314414Y-17866928D01*
X47416232Y-17726788D01*
X47494873Y-17572445D01*
X47548402Y-17407701D01*
X47575500Y-17236611D01*
X47575500Y-17063389D01*
X47548402Y-16892299D01*
X47494873Y-16727555D01*
X47416232Y-16573212D01*
X47314414Y-16433072D01*
X47191928Y-16310586D01*
X47051788Y-16208768D01*
X46897445Y-16130127D01*
X46732701Y-16076598D01*
X46732699Y-16076597D01*
X46732698Y-16076597D01*
X46601271Y-16055781D01*
X46561611Y-16049500D01*
X46388389Y-16049500D01*
X46348728Y-16055781D01*
X46217302Y-16076597D01*
X46052552Y-16130128D01*
X45898211Y-16208768D01*
X45820525Y-16265211D01*
X45758072Y-16310586D01*
X45758070Y-16310588D01*
X45758069Y-16310588D01*
X45635588Y-16433069D01*
X45635588Y-16433070D01*
X45635586Y-16433072D01*
X45591859Y-16493256D01*
X45533768Y-16573211D01*
X45455128Y-16727552D01*
X45401597Y-16892302D01*
X45386823Y-16985586D01*
X45374500Y-17063389D01*
X45374500Y-17236611D01*
X45382677Y-17288239D01*
X45384733Y-17301223D01*
X45401598Y-17407701D01*
X45455127Y-17572445D01*
X45533768Y-17726788D01*
X45635586Y-17866928D01*
X45758072Y-17989414D01*
X45758076Y-17989417D01*
X45761027Y-17991937D01*
X45799223Y-18050441D01*
X45804500Y-18086231D01*
X45804500Y-20407697D01*
X45797406Y-20431855D01*
X45794342Y-20456850D01*
X45786809Y-20467943D01*
X45784815Y-20474736D01*
X45775883Y-20486932D01*
X45772227Y-20491332D01*
X45725537Y-20538023D01*
X45693042Y-20586655D01*
X45688911Y-20591629D01*
X45665064Y-20607664D01*
X45643017Y-20626090D01*
X45636436Y-20626916D01*
X45630932Y-20630618D01*
X45602204Y-20631215D01*
X45573692Y-20634797D01*
X45562322Y-20632046D01*
X45561077Y-20632072D01*
X45560196Y-20631531D01*
X45555210Y-20630325D01*
X45425163Y-20588070D01*
X45293736Y-20567254D01*
X45254076Y-20560973D01*
X45080854Y-20560973D01*
X45041193Y-20567254D01*
X44909767Y-20588070D01*
X44909764Y-20588071D01*
X44776982Y-20631215D01*
X44745017Y-20641601D01*
X44590676Y-20720241D01*
X44512905Y-20776746D01*
X44450537Y-20822059D01*
X44450535Y-20822061D01*
X44450534Y-20822061D01*
X44328053Y-20944542D01*
X44328053Y-20944543D01*
X44328051Y-20944545D01*
X44318223Y-20958072D01*
X44226233Y-21084684D01*
X44207343Y-21121757D01*
X44159367Y-21172552D01*
X44091546Y-21189346D01*
X44058543Y-21183392D01*
X44046702Y-21179545D01*
X43961156Y-21165996D01*
X43875611Y-21152447D01*
X43702389Y-21152447D01*
X43669368Y-21157677D01*
X43531302Y-21179544D01*
X43366552Y-21233075D01*
X43212211Y-21311715D01*
X43142419Y-21362423D01*
X43072072Y-21413533D01*
X43072070Y-21413535D01*
X43072069Y-21413535D01*
X42949588Y-21536016D01*
X42949588Y-21536017D01*
X42949586Y-21536019D01*
X42913290Y-21585976D01*
X42847768Y-21676158D01*
X42769128Y-21830499D01*
X42715597Y-21995249D01*
X42703608Y-22070948D01*
X42688500Y-22166336D01*
X42688500Y-22339558D01*
X42696677Y-22391186D01*
X42714924Y-22506396D01*
X42715598Y-22510648D01*
X42757133Y-22638480D01*
X42769128Y-22675394D01*
X42847770Y-22829739D01*
X42886656Y-22883260D01*
X42910137Y-22949066D01*
X42910339Y-22956146D01*
X42910339Y-23687263D01*
X42904270Y-23725581D01*
X42856597Y-23872301D01*
X42829500Y-24043389D01*
X42829500Y-25616610D01*
X42855934Y-25783512D01*
X42856598Y-25787701D01*
X42910127Y-25952445D01*
X42988768Y-26106788D01*
X43090586Y-26246928D01*
X43090588Y-26246930D01*
X43118852Y-26275194D01*
X43152337Y-26336517D01*
X43147353Y-26406209D01*
X43105481Y-26462142D01*
X43104061Y-26463190D01*
X43083107Y-26478414D01*
X42938417Y-26623104D01*
X42938417Y-26623105D01*
X42818140Y-26788650D01*
X42725244Y-26970968D01*
X42673047Y-27131614D01*
X42633609Y-27189289D01*
X42569250Y-27216487D01*
X42500404Y-27204572D01*
X42448928Y-27157328D01*
X42437186Y-27131615D01*
X42409873Y-27047555D01*
X42331232Y-26893212D01*
X42229414Y-26753072D01*
X42106928Y-26630586D01*
X42065265Y-26600316D01*
X42022602Y-26544988D01*
X42016623Y-26475374D01*
X42049229Y-26413579D01*
X42065266Y-26399683D01*
X42106928Y-26369414D01*
X42229414Y-26246928D01*
X42331232Y-26106788D01*
X42409873Y-25952445D01*
X42463402Y-25787701D01*
X42490500Y-25616611D01*
X42490500Y-24043389D01*
X42463402Y-23872299D01*
X42409873Y-23707555D01*
X42331232Y-23553212D01*
X42229414Y-23413072D01*
X42106928Y-23290586D01*
X42106606Y-23290352D01*
X42106514Y-23290233D01*
X42103223Y-23287422D01*
X42103813Y-23286730D01*
X42063945Y-23235018D01*
X42055500Y-23190040D01*
X42055500Y-18677204D01*
X42075185Y-18610165D01*
X42091819Y-18589523D01*
X42109740Y-18571602D01*
X42139414Y-18541928D01*
X42241232Y-18401788D01*
X42319873Y-18247445D01*
X42373402Y-18082701D01*
X42400500Y-17911611D01*
X42400500Y-17738389D01*
X42373402Y-17567299D01*
X42319873Y-17402555D01*
X42241232Y-17248212D01*
X42139414Y-17108072D01*
X42016928Y-16985586D01*
X41876788Y-16883768D01*
X41722445Y-16805127D01*
X41557701Y-16751598D01*
X41557699Y-16751597D01*
X41557698Y-16751597D01*
X41426271Y-16730781D01*
X41386611Y-16724500D01*
X41213389Y-16724500D01*
X41173728Y-16730781D01*
X41042302Y-16751597D01*
X41042299Y-16751598D01*
X40892159Y-16800382D01*
X40877552Y-16805128D01*
X40723211Y-16883768D01*
X40643256Y-16941859D01*
X40583072Y-16985586D01*
X40583070Y-16985588D01*
X40583069Y-16985588D01*
X40460588Y-17108069D01*
X40460588Y-17108070D01*
X40460586Y-17108072D01*
X40416859Y-17168256D01*
X40358768Y-17248211D01*
X40280128Y-17402552D01*
X40226597Y-17567302D01*
X40199500Y-17738389D01*
X40199500Y-17911610D01*
X40223701Y-18064414D01*
X40226598Y-18082701D01*
X40280127Y-18247445D01*
X40358768Y-18401788D01*
X40460586Y-18541928D01*
X40583072Y-18664414D01*
X40673385Y-18730031D01*
X40716051Y-18785360D01*
X40724500Y-18830348D01*
X40724500Y-19870209D01*
X40704815Y-19937248D01*
X40652011Y-19983003D01*
X40582853Y-19992947D01*
X40562182Y-19988140D01*
X40482698Y-19962314D01*
X40351271Y-19941498D01*
X40311611Y-19935217D01*
X40138389Y-19935217D01*
X40098728Y-19941498D01*
X39967302Y-19962314D01*
X39802552Y-20015845D01*
X39648211Y-20094485D01*
X39598106Y-20130889D01*
X39508072Y-20196303D01*
X39508070Y-20196305D01*
X39508069Y-20196305D01*
X39385588Y-20318786D01*
X39385588Y-20318787D01*
X39385586Y-20318789D01*
X39375209Y-20333072D01*
X39283768Y-20458928D01*
X39205128Y-20613269D01*
X39151597Y-20778019D01*
X39124500Y-20949106D01*
X39124500Y-21122327D01*
X39150405Y-21285891D01*
X39151598Y-21293418D01*
X39182708Y-21389165D01*
X39205128Y-21458164D01*
X39221049Y-21489411D01*
X39283768Y-21612505D01*
X39385586Y-21752645D01*
X39385588Y-21752647D01*
X39414181Y-21781240D01*
X39447666Y-21842563D01*
X39450500Y-21868921D01*
X39450500Y-22787541D01*
X39430815Y-22854580D01*
X39378011Y-22900335D01*
X39308853Y-22910279D01*
X39288183Y-22905472D01*
X39154418Y-22862010D01*
X39154413Y-22862009D01*
X39100000Y-22853390D01*
X39100000Y-24706000D01*
X39080315Y-24773039D01*
X39071599Y-24780590D01*
X39042993Y-24764075D01*
X38915826Y-24730000D01*
X38784174Y-24730000D01*
X38657007Y-24764075D01*
X38630269Y-24779511D01*
X38611206Y-24757511D01*
X38600000Y-24706000D01*
X38600000Y-22853390D01*
X38545586Y-22862009D01*
X38545585Y-22862009D01*
X38403818Y-22908072D01*
X38333976Y-22910067D01*
X38274144Y-22873986D01*
X38243316Y-22811285D01*
X38241500Y-22790141D01*
X38241500Y-20026890D01*
X38261185Y-19959851D01*
X38313989Y-19914096D01*
X38346104Y-19904417D01*
X38356916Y-19902705D01*
X38521660Y-19849176D01*
X38676003Y-19770535D01*
X38816143Y-19668717D01*
X38938629Y-19546231D01*
X39040447Y-19406091D01*
X39119088Y-19251748D01*
X39172617Y-19087004D01*
X39199715Y-18915914D01*
X39199715Y-18742692D01*
X39172617Y-18571602D01*
X39119088Y-18406858D01*
X39040447Y-18252515D01*
X38938629Y-18112375D01*
X38816143Y-17989889D01*
X38676003Y-17888071D01*
X38521660Y-17809430D01*
X38356916Y-17755901D01*
X38356914Y-17755900D01*
X38356913Y-17755900D01*
X38225486Y-17735084D01*
X38185826Y-17728803D01*
X38012604Y-17728803D01*
X37972943Y-17735084D01*
X37841517Y-17755900D01*
X37841514Y-17755901D01*
X37700290Y-17801788D01*
X37676767Y-17809431D01*
X37522426Y-17888071D01*
X37476072Y-17921750D01*
X37382287Y-17989889D01*
X37382285Y-17989891D01*
X37382284Y-17989891D01*
X37259803Y-18112372D01*
X37259803Y-18112373D01*
X37259801Y-18112375D01*
X37216074Y-18172559D01*
X37157983Y-18252514D01*
X37079343Y-18406855D01*
X37025812Y-18571605D01*
X36998715Y-18742692D01*
X36998715Y-18915915D01*
X37004272Y-18951006D01*
X36995315Y-19020299D01*
X36988988Y-19031840D01*
X36989116Y-19031909D01*
X36986241Y-19037287D01*
X36936075Y-19158398D01*
X36936073Y-19158406D01*
X36911868Y-19280094D01*
X36911867Y-19280101D01*
X36910501Y-19286966D01*
X36910500Y-19286976D01*
X36910500Y-22198340D01*
X36890815Y-22265379D01*
X36838011Y-22311134D01*
X36768853Y-22321078D01*
X36705297Y-22292053D01*
X36698819Y-22286021D01*
X36528421Y-22115624D01*
X36494936Y-22054301D01*
X36493759Y-22013051D01*
X36493308Y-22013016D01*
X36493638Y-22008812D01*
X36493631Y-22008533D01*
X36493690Y-22008160D01*
X36493690Y-21834941D01*
X36485991Y-21786333D01*
X36466592Y-21663851D01*
X36413063Y-21499107D01*
X36334422Y-21344764D01*
X36232604Y-21204624D01*
X36110118Y-21082138D01*
X35969978Y-20980320D01*
X35815635Y-20901679D01*
X35650891Y-20848150D01*
X35650889Y-20848149D01*
X35650888Y-20848149D01*
X35519461Y-20827333D01*
X35479801Y-20821052D01*
X35306579Y-20821052D01*
X35266918Y-20827333D01*
X35135492Y-20848149D01*
X34970742Y-20901680D01*
X34816401Y-20980320D01*
X34755375Y-21024659D01*
X34676262Y-21082138D01*
X34676260Y-21082140D01*
X34676259Y-21082140D01*
X34647181Y-21111219D01*
X34585858Y-21144704D01*
X34516166Y-21139720D01*
X34460233Y-21097848D01*
X34435816Y-21032384D01*
X34435500Y-21023538D01*
X34435500Y-18463164D01*
X34436952Y-18463164D01*
X34441349Y-18422601D01*
X34449234Y-18398336D01*
X34476332Y-18227246D01*
X34476332Y-18054024D01*
X34449234Y-17882934D01*
X34395705Y-17718190D01*
X34317064Y-17563847D01*
X34215246Y-17423707D01*
X34092760Y-17301221D01*
X33952620Y-17199403D01*
X33798277Y-17120762D01*
X33633533Y-17067233D01*
X33633531Y-17067232D01*
X33633530Y-17067232D01*
X33502103Y-17046416D01*
X33462443Y-17040135D01*
X33289221Y-17040135D01*
X33249560Y-17046416D01*
X33118134Y-17067232D01*
X33118131Y-17067233D01*
X32992443Y-17108072D01*
X32953384Y-17120763D01*
X32799043Y-17199403D01*
X32731866Y-17248211D01*
X32658904Y-17301221D01*
X32658902Y-17301223D01*
X32658901Y-17301223D01*
X32536420Y-17423704D01*
X32536420Y-17423705D01*
X32536418Y-17423707D01*
X32493559Y-17482697D01*
X32434600Y-17563846D01*
X32355960Y-17718187D01*
X32302429Y-17882937D01*
X32275332Y-18054024D01*
X32275332Y-18227245D01*
X32299679Y-18380971D01*
X32302430Y-18398336D01*
X32349086Y-18541928D01*
X32355960Y-18563082D01*
X32360301Y-18571602D01*
X32434600Y-18717423D01*
X32536418Y-18857563D01*
X32658904Y-18980049D01*
X32764009Y-19056412D01*
X32799045Y-19081868D01*
X32953385Y-19160507D01*
X32953387Y-19160508D01*
X33018818Y-19181767D01*
X33076492Y-19221203D01*
X33103692Y-19285561D01*
X33104500Y-19299698D01*
X33104500Y-21537583D01*
X33084815Y-21604622D01*
X33032011Y-21650377D01*
X32962853Y-21660321D01*
X32899297Y-21631296D01*
X32892819Y-21625264D01*
X32425232Y-21157677D01*
X32391747Y-21096354D01*
X32390570Y-21055104D01*
X32390119Y-21055069D01*
X32390449Y-21050865D01*
X32390442Y-21050586D01*
X32390501Y-21050213D01*
X32390501Y-20876994D01*
X32387787Y-20859857D01*
X32363403Y-20705904D01*
X32309874Y-20541160D01*
X32231233Y-20386817D01*
X32129415Y-20246677D01*
X32006929Y-20124191D01*
X31866789Y-20022373D01*
X31712446Y-19943732D01*
X31547702Y-19890203D01*
X31547700Y-19890202D01*
X31547699Y-19890202D01*
X31414286Y-19869072D01*
X31376612Y-19863105D01*
X31203390Y-19863105D01*
X31141970Y-19872833D01*
X31027488Y-19890965D01*
X31027275Y-19889623D01*
X30963646Y-19886429D01*
X30906835Y-19845756D01*
X30881033Y-19780825D01*
X30880501Y-19769353D01*
X30880501Y-18608909D01*
X30900186Y-18541870D01*
X30931621Y-18508587D01*
X30938685Y-18503455D01*
X31061171Y-18380969D01*
X31162989Y-18240829D01*
X31241630Y-18086486D01*
X31295159Y-17921742D01*
X31322257Y-17750652D01*
X31322257Y-17577430D01*
X31295159Y-17406340D01*
X31241630Y-17241596D01*
X31162989Y-17087253D01*
X31061171Y-16947113D01*
X30938685Y-16824627D01*
X30798545Y-16722809D01*
X30644202Y-16644168D01*
X30479458Y-16590639D01*
X30479456Y-16590638D01*
X30479455Y-16590638D01*
X30348028Y-16569822D01*
X30308368Y-16563541D01*
X30135146Y-16563541D01*
X30074175Y-16573197D01*
X29987346Y-16586950D01*
X29918052Y-16577995D01*
X29864600Y-16532999D01*
X29857463Y-16520771D01*
X29798657Y-16405355D01*
X29765054Y-16359105D01*
X29696838Y-16265214D01*
X29574352Y-16142728D01*
X29434212Y-16040910D01*
X29279869Y-15962269D01*
X29115125Y-15908740D01*
X29115123Y-15908739D01*
X29115122Y-15908739D01*
X28983695Y-15887923D01*
X28944035Y-15881642D01*
X28770813Y-15881642D01*
X28731152Y-15887923D01*
X28599726Y-15908739D01*
X28434976Y-15962270D01*
X28280635Y-16040910D01*
X28200680Y-16099001D01*
X28140496Y-16142728D01*
X28140494Y-16142730D01*
X28140493Y-16142730D01*
X28018012Y-16265211D01*
X28018012Y-16265212D01*
X28018010Y-16265214D01*
X27992142Y-16300818D01*
X27916192Y-16405353D01*
X27846056Y-16543003D01*
X27831573Y-16558337D01*
X27820999Y-16576586D01*
X27808064Y-16583228D01*
X27798081Y-16593799D01*
X27777608Y-16598868D01*
X27758846Y-16608504D01*
X27744373Y-16607099D01*
X27730260Y-16610594D01*
X27710297Y-16603791D01*
X27689304Y-16601753D01*
X27673313Y-16591187D01*
X27664125Y-16588056D01*
X27658766Y-16584058D01*
X27653041Y-16579541D01*
X27599036Y-16525536D01*
X27508757Y-16465214D01*
X27504681Y-16462491D01*
X27504678Y-16462488D01*
X27451544Y-16426985D01*
X27451542Y-16426984D01*
X27368008Y-16392384D01*
X27287666Y-16359105D01*
X27287658Y-16359103D01*
X27113696Y-16324500D01*
X27113692Y-16324500D01*
X27113691Y-16324500D01*
X25648141Y-16324500D01*
X25581102Y-16304815D01*
X25575255Y-16300818D01*
X25551792Y-16283770D01*
X25551789Y-16283769D01*
X25551790Y-16283769D01*
X25551788Y-16283768D01*
X25397445Y-16205127D01*
X25232701Y-16151598D01*
X25232699Y-16151597D01*
X25232698Y-16151597D01*
X25097138Y-16130127D01*
X25061611Y-16124500D01*
X24888389Y-16124500D01*
X24852862Y-16130127D01*
X24717302Y-16151597D01*
X24552552Y-16205128D01*
X24398211Y-16283768D01*
X24342149Y-16324500D01*
X24258072Y-16385586D01*
X24258070Y-16385588D01*
X24258069Y-16385588D01*
X24135588Y-16508069D01*
X24135588Y-16508070D01*
X24135586Y-16508072D01*
X24114019Y-16537757D01*
X24033768Y-16648211D01*
X23955128Y-16802552D01*
X23901597Y-16967302D01*
X23874500Y-17138389D01*
X23874500Y-17311610D01*
X23899375Y-17468670D01*
X23901598Y-17482701D01*
X23955127Y-17647445D01*
X24033768Y-17801788D01*
X24135586Y-17941928D01*
X24258072Y-18064414D01*
X24398212Y-18166232D01*
X24446622Y-18190897D01*
X24497417Y-18238870D01*
X24514213Y-18306691D01*
X24491677Y-18372826D01*
X24436962Y-18416278D01*
X24370930Y-18423856D01*
X24355246Y-18421372D01*
X24253664Y-18405283D01*
X24080442Y-18405283D01*
X24040781Y-18411564D01*
X23909355Y-18432380D01*
X23744605Y-18485911D01*
X23590264Y-18564551D01*
X23527483Y-18610165D01*
X23450125Y-18666369D01*
X23450123Y-18666371D01*
X23450122Y-18666371D01*
X23327641Y-18788852D01*
X23327641Y-18788853D01*
X23327639Y-18788855D01*
X23283912Y-18849039D01*
X23225821Y-18928994D01*
X23147181Y-19083335D01*
X23093650Y-19248085D01*
X23069995Y-19397435D01*
X23059677Y-19419200D01*
X23053466Y-19442471D01*
X23044982Y-19450197D01*
X23040066Y-19460570D01*
X23019615Y-19473303D01*
X23001812Y-19489520D01*
X22985136Y-19494772D01*
X22980754Y-19497501D01*
X22968205Y-19500300D01*
X22967523Y-19500415D01*
X22828768Y-19522392D01*
X22819162Y-19525512D01*
X22810183Y-19527032D01*
X22784164Y-19523946D01*
X22757976Y-19524695D01*
X22750022Y-19519898D01*
X22740799Y-19518805D01*
X22720578Y-19502142D01*
X22698144Y-19488614D01*
X22694046Y-19480279D01*
X22686878Y-19474373D01*
X22678875Y-19449424D01*
X22667316Y-19425913D01*
X22665846Y-19408802D01*
X22665538Y-19407841D01*
X22665708Y-19407200D01*
X22665500Y-19404769D01*
X22665500Y-18050315D01*
X22639926Y-17921750D01*
X22639925Y-17921749D01*
X22639925Y-17921745D01*
X22589758Y-17800632D01*
X22589080Y-17799618D01*
X22516929Y-17691634D01*
X22516928Y-17691633D01*
X22472740Y-17647445D01*
X22424231Y-17598936D01*
X22396538Y-17571243D01*
X22363053Y-17509920D01*
X22361876Y-17468670D01*
X22361425Y-17468635D01*
X22361755Y-17464431D01*
X22361748Y-17464152D01*
X22361807Y-17463779D01*
X22361807Y-17290560D01*
X22355100Y-17248212D01*
X22334709Y-17119470D01*
X22281180Y-16954726D01*
X22202539Y-16800383D01*
X22100721Y-16660243D01*
X21978235Y-16537757D01*
X21838095Y-16435939D01*
X21739271Y-16385586D01*
X21683754Y-16357299D01*
X21683753Y-16357298D01*
X21683752Y-16357298D01*
X21519008Y-16303769D01*
X21519006Y-16303768D01*
X21519005Y-16303768D01*
X21387578Y-16282952D01*
X21347918Y-16276671D01*
X21174696Y-16276671D01*
X21135035Y-16282952D01*
X21003609Y-16303768D01*
X20838859Y-16357299D01*
X20684518Y-16435939D01*
X20604563Y-16494030D01*
X20544379Y-16537757D01*
X20544377Y-16537759D01*
X20544376Y-16537759D01*
X20421895Y-16660240D01*
X20421895Y-16660241D01*
X20421893Y-16660243D01*
X20382883Y-16713935D01*
X20320075Y-16800382D01*
X20241435Y-16954723D01*
X20187904Y-17119473D01*
X20168562Y-17241596D01*
X20160807Y-17290560D01*
X20160807Y-17463782D01*
X20168115Y-17509920D01*
X20178017Y-17572445D01*
X20187905Y-17634872D01*
X20241434Y-17799616D01*
X20320075Y-17953959D01*
X20421893Y-18094099D01*
X20544379Y-18216585D01*
X20684519Y-18318403D01*
X20838862Y-18397044D01*
X21003606Y-18450573D01*
X21174696Y-18477671D01*
X21210500Y-18477671D01*
X21277539Y-18497356D01*
X21323294Y-18550160D01*
X21334500Y-18601671D01*
X21334500Y-19805794D01*
X21314815Y-19872833D01*
X21262011Y-19918588D01*
X21192853Y-19928532D01*
X21191103Y-19928267D01*
X21023080Y-19901656D01*
X20849858Y-19901656D01*
X20810197Y-19907937D01*
X20678771Y-19928753D01*
X20632671Y-19943732D01*
X20531521Y-19976598D01*
X20514021Y-19982284D01*
X20359681Y-20060923D01*
X20295698Y-20107410D01*
X20229891Y-20130889D01*
X20161837Y-20115063D01*
X20149937Y-20107415D01*
X20014161Y-20008768D01*
X19859818Y-19930127D01*
X19695074Y-19876598D01*
X19695072Y-19876597D01*
X19695071Y-19876597D01*
X19559511Y-19855127D01*
X19523984Y-19849500D01*
X19350762Y-19849500D01*
X19315235Y-19855127D01*
X19179675Y-19876597D01*
X19137800Y-19890203D01*
X19020653Y-19928267D01*
X19014925Y-19930128D01*
X18860584Y-20008768D01*
X18796808Y-20055105D01*
X18720445Y-20110586D01*
X18720443Y-20110588D01*
X18720442Y-20110588D01*
X18597961Y-20233069D01*
X18597961Y-20233070D01*
X18597959Y-20233072D01*
X18584361Y-20251788D01*
X18496141Y-20373211D01*
X18417501Y-20527552D01*
X18417500Y-20527554D01*
X18417500Y-20527555D01*
X18408621Y-20554881D01*
X18363970Y-20692302D01*
X18339287Y-20848149D01*
X18336873Y-20863389D01*
X18336873Y-21036611D01*
X18339802Y-21055104D01*
X18363483Y-21204624D01*
X18363971Y-21207701D01*
X18417500Y-21372445D01*
X18496141Y-21526788D01*
X18597959Y-21666928D01*
X18720445Y-21789414D01*
X18860585Y-21891232D01*
X19014928Y-21969873D01*
X19052817Y-21982184D01*
X19110492Y-22021620D01*
X19137691Y-22085978D01*
X19138500Y-22100115D01*
X19138500Y-22790141D01*
X19118815Y-22857180D01*
X19066011Y-22902935D01*
X18996853Y-22912879D01*
X18976182Y-22908072D01*
X18834413Y-22862009D01*
X18780000Y-22853390D01*
X18780000Y-24706000D01*
X18760315Y-24773039D01*
X18751599Y-24780590D01*
X18722993Y-24764075D01*
X18595826Y-24730000D01*
X18464174Y-24730000D01*
X18337007Y-24764075D01*
X18310269Y-24779511D01*
X18291206Y-24757511D01*
X18280000Y-24706000D01*
X18280000Y-22853390D01*
X18225586Y-22862009D01*
X18225581Y-22862010D01*
X18091817Y-22905472D01*
X18021976Y-22907467D01*
X17962143Y-22871386D01*
X17931316Y-22808685D01*
X17929500Y-22787541D01*
X17929500Y-22521418D01*
X17943016Y-22465122D01*
X17963321Y-22425271D01*
X17963321Y-22425270D01*
X17963323Y-22425267D01*
X18016852Y-22260523D01*
X18043950Y-22089433D01*
X18043950Y-21916211D01*
X18016852Y-21745121D01*
X17963323Y-21580377D01*
X17884682Y-21426034D01*
X17782864Y-21285894D01*
X17660378Y-21163408D01*
X17520238Y-21061590D01*
X17471212Y-21036610D01*
X17365897Y-20982950D01*
X17365896Y-20982949D01*
X17365895Y-20982949D01*
X17201151Y-20929420D01*
X17201149Y-20929419D01*
X17201148Y-20929419D01*
X17052197Y-20905828D01*
X17030061Y-20902322D01*
X16862585Y-20902322D01*
X16795546Y-20882637D01*
X16749791Y-20829833D01*
X16744654Y-20816641D01*
X16731308Y-20775567D01*
X16720104Y-20741084D01*
X16720102Y-20741081D01*
X16720102Y-20741079D01*
X16669415Y-20641600D01*
X16641463Y-20586741D01*
X16539645Y-20446601D01*
X16417159Y-20324115D01*
X16277019Y-20222297D01*
X16122676Y-20143656D01*
X15957932Y-20090127D01*
X15957930Y-20090126D01*
X15957929Y-20090126D01*
X15826502Y-20069310D01*
X15786842Y-20063029D01*
X15613620Y-20063029D01*
X15573959Y-20069310D01*
X15442533Y-20090126D01*
X15389342Y-20107409D01*
X15317079Y-20130889D01*
X15277783Y-20143657D01*
X15123442Y-20222297D01*
X15082852Y-20251788D01*
X14983303Y-20324115D01*
X14983301Y-20324117D01*
X14983300Y-20324117D01*
X14860819Y-20446598D01*
X14860819Y-20446599D01*
X14860817Y-20446601D01*
X14851765Y-20459060D01*
X14758999Y-20586740D01*
X14680359Y-20741081D01*
X14626828Y-20905831D01*
X14599731Y-21076918D01*
X14599731Y-21250139D01*
X14623942Y-21403007D01*
X14626829Y-21421230D01*
X14678539Y-21580377D01*
X14680359Y-21585976D01*
X14713109Y-21650252D01*
X14758999Y-21740317D01*
X14860817Y-21880457D01*
X14983303Y-22002943D01*
X14983605Y-22003162D01*
X14983692Y-22003275D01*
X14987010Y-22006109D01*
X14986415Y-22006805D01*
X15026277Y-22058487D01*
X15034731Y-22103488D01*
X15034731Y-22204964D01*
X15034731Y-22336058D01*
X15034731Y-22336060D01*
X15034730Y-22336060D01*
X15060304Y-22464624D01*
X15060306Y-22464630D01*
X15095279Y-22549063D01*
X15110473Y-22585743D01*
X15183303Y-22694743D01*
X15249526Y-22760966D01*
X15288181Y-22799620D01*
X15321666Y-22860943D01*
X15324500Y-22887302D01*
X15324500Y-23190040D01*
X15304815Y-23257079D01*
X15276484Y-23287079D01*
X15276777Y-23287422D01*
X15273592Y-23290142D01*
X15273394Y-23290352D01*
X15273075Y-23290583D01*
X15273069Y-23290588D01*
X15150588Y-23413069D01*
X15150588Y-23413070D01*
X15150586Y-23413072D01*
X15137077Y-23431666D01*
X15048768Y-23553211D01*
X14970128Y-23707552D01*
X14916597Y-23872302D01*
X14889500Y-24043389D01*
X14889500Y-25428978D01*
X14883261Y-25450223D01*
X14881682Y-25472312D01*
X14873609Y-25483095D01*
X14869815Y-25496017D01*
X14853081Y-25510516D01*
X14839810Y-25528245D01*
X14827189Y-25532952D01*
X14817011Y-25541772D01*
X14795093Y-25544923D01*
X14774346Y-25552662D01*
X14761185Y-25549799D01*
X14747853Y-25551716D01*
X14727709Y-25542516D01*
X14706073Y-25537810D01*
X14688347Y-25524541D01*
X14684297Y-25522691D01*
X14677819Y-25516659D01*
X14586819Y-25425659D01*
X14553334Y-25364336D01*
X14550500Y-25337978D01*
X14550500Y-24043389D01*
X14523402Y-23872302D01*
X14523402Y-23872301D01*
X14523402Y-23872299D01*
X14469873Y-23707555D01*
X14391232Y-23553212D01*
X14289414Y-23413072D01*
X14166928Y-23290586D01*
X14026788Y-23188768D01*
X13903511Y-23125956D01*
X13872447Y-23110128D01*
X13872446Y-23110127D01*
X13872445Y-23110127D01*
X13707701Y-23056598D01*
X13707699Y-23056597D01*
X13707698Y-23056597D01*
X13569922Y-23034776D01*
X13536611Y-23029500D01*
X13363389Y-23029500D01*
X13330078Y-23034776D01*
X13192302Y-23056597D01*
X13027550Y-23110128D01*
X13021789Y-23113064D01*
X12953119Y-23125956D01*
X12888380Y-23099676D01*
X12848126Y-23042568D01*
X12841500Y-23002576D01*
X12841500Y-21076020D01*
X12861185Y-21008981D01*
X12877815Y-20988343D01*
X13055928Y-20810229D01*
X13117249Y-20776746D01*
X13158500Y-20775567D01*
X13158536Y-20775118D01*
X13162718Y-20775447D01*
X13163004Y-20775439D01*
X13163389Y-20775500D01*
X13163394Y-20775500D01*
X13336610Y-20775500D01*
X13336611Y-20775500D01*
X13507701Y-20748402D01*
X13672445Y-20694873D01*
X13826788Y-20616232D01*
X13966928Y-20514414D01*
X14089414Y-20391928D01*
X14191232Y-20251788D01*
X14269873Y-20097445D01*
X14323402Y-19932701D01*
X14350500Y-19761611D01*
X14350500Y-19588389D01*
X14323402Y-19417299D01*
X14269873Y-19252555D01*
X14191232Y-19098212D01*
X14089414Y-18958072D01*
X13966928Y-18835586D01*
X13826788Y-18733768D01*
X13672445Y-18655127D01*
X13507701Y-18601598D01*
X13507699Y-18601597D01*
X13507698Y-18601597D01*
X13376271Y-18580781D01*
X13336611Y-18574500D01*
X13163389Y-18574500D01*
X13123728Y-18580781D01*
X12992302Y-18601597D01*
X12827552Y-18655128D01*
X12673211Y-18733768D01*
X12628529Y-18766232D01*
X12533072Y-18835586D01*
X12533070Y-18835588D01*
X12533069Y-18835588D01*
X12410588Y-18958069D01*
X12410588Y-18958070D01*
X12410586Y-18958072D01*
X12366859Y-19018256D01*
X12308768Y-19098211D01*
X12230128Y-19252552D01*
X12176597Y-19417302D01*
X12149500Y-19588389D01*
X12149500Y-19761616D01*
X12149562Y-19762008D01*
X12149542Y-19762158D01*
X12149882Y-19766475D01*
X12148974Y-19766546D01*
X12140598Y-19831300D01*
X12114767Y-19869072D01*
X11659076Y-20324762D01*
X11659075Y-20324763D01*
X11586241Y-20433769D01*
X11536075Y-20554880D01*
X11536073Y-20554888D01*
X11510716Y-20682367D01*
X11510710Y-20682401D01*
X11510500Y-20683455D01*
X11510500Y-21349072D01*
X11490815Y-21416111D01*
X11438011Y-21461866D01*
X11368853Y-21471810D01*
X11330205Y-21459557D01*
X11272447Y-21430128D01*
X11272446Y-21430127D01*
X11272445Y-21430127D01*
X11107701Y-21376598D01*
X11107699Y-21376597D01*
X11107698Y-21376597D01*
X10976271Y-21355781D01*
X10936611Y-21349500D01*
X10763389Y-21349500D01*
X10723728Y-21355781D01*
X10592302Y-21376597D01*
X10592299Y-21376598D01*
X10470692Y-21416111D01*
X10427552Y-21430128D01*
X10273211Y-21508768D01*
X10193256Y-21566859D01*
X10133072Y-21610586D01*
X10133070Y-21610588D01*
X10133069Y-21610588D01*
X10010588Y-21733069D01*
X10010588Y-21733070D01*
X10010586Y-21733072D01*
X9971438Y-21786955D01*
X9908768Y-21873211D01*
X9830128Y-22027552D01*
X9776597Y-22192302D01*
X9749500Y-22363389D01*
X9749500Y-22536610D01*
X9776450Y-22706772D01*
X9776598Y-22707701D01*
X9830127Y-22872445D01*
X9908768Y-23026788D01*
X9985818Y-23132838D01*
X10009298Y-23198643D01*
X10009500Y-23205723D01*
X10009500Y-23456859D01*
X9989815Y-23523898D01*
X9985818Y-23529745D01*
X9968770Y-23553207D01*
X9968769Y-23553210D01*
X9890128Y-23707552D01*
X9836597Y-23872302D01*
X9809500Y-24043389D01*
X9809500Y-25616610D01*
X9835934Y-25783512D01*
X9836598Y-25787701D01*
X9890127Y-25952445D01*
X9968768Y-26106788D01*
X10070586Y-26246928D01*
X10193072Y-26369414D01*
X10203367Y-26376894D01*
X10234733Y-26399683D01*
X10277398Y-26455013D01*
X10283376Y-26524627D01*
X10250769Y-26586421D01*
X10234733Y-26600317D01*
X10193072Y-26630585D01*
X10070588Y-26753069D01*
X10070588Y-26753070D01*
X10070586Y-26753072D01*
X10023133Y-26818386D01*
X9967803Y-26861051D01*
X9922815Y-26869500D01*
X9357185Y-26869500D01*
X9290146Y-26849815D01*
X9256867Y-26818386D01*
X9209414Y-26753072D01*
X9086928Y-26630586D01*
X9045265Y-26600316D01*
X9002602Y-26544988D01*
X8996623Y-26475374D01*
X9029229Y-26413579D01*
X9045266Y-26399683D01*
X9086928Y-26369414D01*
X9209414Y-26246928D01*
X9311232Y-26106788D01*
X9389873Y-25952445D01*
X9443402Y-25787701D01*
X9470500Y-25616611D01*
X9470500Y-24043389D01*
X9443402Y-23872299D01*
X9389873Y-23707555D01*
X9314014Y-23558673D01*
X9300500Y-23502380D01*
X9300500Y-21723140D01*
X9320185Y-21656101D01*
X9324164Y-21650279D01*
X9341232Y-21626788D01*
X9419873Y-21472445D01*
X9473402Y-21307701D01*
X9500500Y-21136611D01*
X9500500Y-20963389D01*
X9473402Y-20792299D01*
X9419873Y-20627555D01*
X9341232Y-20473212D01*
X9239414Y-20333072D01*
X9116928Y-20210586D01*
X8976788Y-20108768D01*
X8822445Y-20030127D01*
X8657701Y-19976598D01*
X8657699Y-19976597D01*
X8657698Y-19976597D01*
X8526271Y-19955781D01*
X8486611Y-19949500D01*
X8313389Y-19949500D01*
X8273728Y-19955781D01*
X8142302Y-19976597D01*
X7977552Y-20030128D01*
X7823211Y-20108768D01*
X7755355Y-20158069D01*
X7683072Y-20210586D01*
X7683070Y-20210588D01*
X7683069Y-20210588D01*
X7560588Y-20333069D01*
X7560588Y-20333070D01*
X7560586Y-20333072D01*
X7521539Y-20386816D01*
X7458768Y-20473211D01*
X7380128Y-20627552D01*
X7326597Y-20792302D01*
X7309274Y-20901679D01*
X7299500Y-20963389D01*
X7299500Y-21136611D01*
X7306242Y-21179179D01*
X7324973Y-21297445D01*
X7326598Y-21307701D01*
X7380127Y-21472445D01*
X7458768Y-21626788D01*
X7475818Y-21650255D01*
X7499298Y-21716058D01*
X7499500Y-21723140D01*
X7499500Y-23415568D01*
X7479815Y-23482607D01*
X7475825Y-23488443D01*
X7465700Y-23502380D01*
X7428768Y-23553211D01*
X7350128Y-23707552D01*
X7296597Y-23872302D01*
X7269500Y-24043389D01*
X7269500Y-25005637D01*
X7249815Y-25072676D01*
X7233181Y-25093318D01*
X6169540Y-26156958D01*
X6169539Y-26156959D01*
X6159205Y-26172426D01*
X6137106Y-26205500D01*
X6070987Y-26304453D01*
X6044080Y-26369414D01*
X6041220Y-26376317D01*
X6041215Y-26376327D01*
X6003106Y-26468331D01*
X6003103Y-26468341D01*
X5985713Y-26555769D01*
X5968500Y-26642304D01*
X5171224Y-26642304D01*
X5174156Y-26620031D01*
X5174880Y-26614521D01*
X5175500Y-26609818D01*
X5175500Y-26390182D01*
X5146832Y-26172425D01*
X5089986Y-25960273D01*
X5086744Y-25952447D01*
X5018996Y-25788888D01*
X5005935Y-25757355D01*
X4896116Y-25567145D01*
X4762410Y-25392896D01*
X4762405Y-25392890D01*
X4607109Y-25237594D01*
X4607102Y-25237588D01*
X4432863Y-25103890D01*
X4432861Y-25103889D01*
X4432855Y-25103884D01*
X4242645Y-24994065D01*
X4242641Y-24994063D01*
X4039729Y-24910014D01*
X3827573Y-24853167D01*
X3609828Y-24824501D01*
X3609823Y-24824500D01*
X3609818Y-24824500D01*
X3390182Y-24824500D01*
X3390176Y-24824500D01*
X3390171Y-24824501D01*
X3172426Y-24853167D01*
X2960270Y-24910014D01*
X2757358Y-24994063D01*
X2757354Y-24994065D01*
X2567145Y-25103884D01*
X2567136Y-25103890D01*
X2392897Y-25237588D01*
X2392890Y-25237594D01*
X2237594Y-25392890D01*
X2237588Y-25392897D01*
X2103890Y-25567136D01*
X2103884Y-25567145D01*
X1994065Y-25757354D01*
X1994063Y-25757358D01*
X1910014Y-25960270D01*
X1853167Y-26172426D01*
X1824501Y-26390171D01*
X1824500Y-26390188D01*
X400500Y-26390188D01*
X400500Y-8204564D01*
X24242860Y-8204564D01*
X40652499Y-8204564D01*
X40652499Y-5145846D01*
X24242860Y-5145846D01*
X24242860Y-8204564D01*
X400500Y-8204564D01*
X400500Y-3390188D01*
X1824500Y-3390188D01*
X1824500Y-3609811D01*
X1824501Y-3609828D01*
X1853167Y-3827573D01*
X1910014Y-4039729D01*
X1994063Y-4242641D01*
X1994065Y-4242645D01*
X2103884Y-4432855D01*
X2103889Y-4432861D01*
X2103890Y-4432863D01*
X2237588Y-4607102D01*
X2237594Y-4607109D01*
X2392890Y-4762405D01*
X2392896Y-4762410D01*
X2567145Y-4896116D01*
X2757355Y-5005935D01*
X2858814Y-5047960D01*
X2960270Y-5089985D01*
X2960271Y-5089985D01*
X2960273Y-5089986D01*
X3172425Y-5146832D01*
X3390182Y-5175500D01*
X3390189Y-5175500D01*
X3609811Y-5175500D01*
X3609818Y-5175500D01*
X3827575Y-5146832D01*
X4039727Y-5089986D01*
X4242645Y-5005935D01*
X4432855Y-4896116D01*
X4607104Y-4762410D01*
X4762410Y-4607104D01*
X4896116Y-4432855D01*
X5005935Y-4242645D01*
X5089986Y-4039727D01*
X5146832Y-3827575D01*
X5175500Y-3609818D01*
X5175500Y-3390188D01*
X59824500Y-3390188D01*
X59824500Y-3609811D01*
X59824501Y-3609828D01*
X59853167Y-3827573D01*
X59910014Y-4039729D01*
X59994063Y-4242641D01*
X59994065Y-4242645D01*
X60103884Y-4432855D01*
X60103889Y-4432861D01*
X60103890Y-4432863D01*
X60237588Y-4607102D01*
X60237594Y-4607109D01*
X60392890Y-4762405D01*
X60392896Y-4762410D01*
X60567145Y-4896116D01*
X60757355Y-5005935D01*
X60858814Y-5047960D01*
X60960270Y-5089985D01*
X60960271Y-5089985D01*
X60960273Y-5089986D01*
X61172425Y-5146832D01*
X61390182Y-5175500D01*
X61390189Y-5175500D01*
X61609811Y-5175500D01*
X61609818Y-5175500D01*
X61827575Y-5146832D01*
X62039727Y-5089986D01*
X62242645Y-5005935D01*
X62432855Y-4896116D01*
X62607104Y-4762410D01*
X62762410Y-4607104D01*
X62896116Y-4432855D01*
X63005935Y-4242645D01*
X63089986Y-4039727D01*
X63146832Y-3827575D01*
X63175500Y-3609818D01*
X63175500Y-3390182D01*
X63146832Y-3172425D01*
X63089986Y-2960273D01*
X63005935Y-2757355D01*
X62896116Y-2567145D01*
X62762410Y-2392896D01*
X62762405Y-2392890D01*
X62607109Y-2237594D01*
X62607102Y-2237588D01*
X62432863Y-2103890D01*
X62432861Y-2103889D01*
X62432855Y-2103884D01*
X62242645Y-1994065D01*
X62242641Y-1994063D01*
X62039729Y-1910014D01*
X61827573Y-1853167D01*
X61609828Y-1824501D01*
X61609823Y-1824500D01*
X61609818Y-1824500D01*
X61390182Y-1824500D01*
X61390176Y-1824500D01*
X61390171Y-1824501D01*
X61172426Y-1853167D01*
X60960270Y-1910014D01*
X60757358Y-1994063D01*
X60757354Y-1994065D01*
X60567145Y-2103884D01*
X60567136Y-2103890D01*
X60392897Y-2237588D01*
X60392890Y-2237594D01*
X60237594Y-2392890D01*
X60237588Y-2392897D01*
X60103890Y-2567136D01*
X60103884Y-2567145D01*
X59994065Y-2757354D01*
X59994063Y-2757358D01*
X59910014Y-2960270D01*
X59853167Y-3172426D01*
X59824501Y-3390171D01*
X59824500Y-3390188D01*
X5175500Y-3390188D01*
X5175500Y-3390182D01*
X5146832Y-3172425D01*
X5089986Y-2960273D01*
X5005935Y-2757355D01*
X4896116Y-2567145D01*
X4762410Y-2392896D01*
X4762405Y-2392890D01*
X4607109Y-2237594D01*
X4607102Y-2237588D01*
X4432863Y-2103890D01*
X4432861Y-2103889D01*
X4432855Y-2103884D01*
X4242645Y-1994065D01*
X4242641Y-1994063D01*
X4039729Y-1910014D01*
X3827573Y-1853167D01*
X3609828Y-1824501D01*
X3609823Y-1824500D01*
X3609818Y-1824500D01*
X3390182Y-1824500D01*
X3390176Y-1824500D01*
X3390171Y-1824501D01*
X3172426Y-1853167D01*
X2960270Y-1910014D01*
X2757358Y-1994063D01*
X2757354Y-1994065D01*
X2567145Y-2103884D01*
X2567136Y-2103890D01*
X2392897Y-2237588D01*
X2392890Y-2237594D01*
X2237594Y-2392890D01*
X2237588Y-2392897D01*
X2103890Y-2567136D01*
X2103884Y-2567145D01*
X1994065Y-2757354D01*
X1994063Y-2757358D01*
X1910014Y-2960270D01*
X1853167Y-3172426D01*
X1824501Y-3390171D01*
X1824500Y-3390188D01*
X400500Y-3390188D01*
X400500Y-524500D01*
X420185Y-457461D01*
X472989Y-411706D01*
X524500Y-400500D01*
X64475500Y-400500D01*
X64542539Y-420185D01*
G37*
%TD.AperFunction*%
%TD*%
%TA.AperFunction,NonConductor*%
G36*
X25287672Y-18309625D02*
G01*
X25341124Y-18354621D01*
X25361764Y-18421372D01*
X25355708Y-18461461D01*
X25311288Y-18598171D01*
X25284191Y-18769259D01*
X25284191Y-18789476D01*
X25264506Y-18856515D01*
X25211702Y-18902270D01*
X25142544Y-18912214D01*
X25078988Y-18883189D01*
X25059873Y-18862362D01*
X25055625Y-18856515D01*
X25006467Y-18788855D01*
X24883981Y-18666369D01*
X24757535Y-18574500D01*
X24743839Y-18564549D01*
X24695431Y-18539885D01*
X24644635Y-18491911D01*
X24627839Y-18424090D01*
X24650376Y-18357955D01*
X24705091Y-18314503D01*
X24771123Y-18306927D01*
X24788158Y-18309625D01*
X24888389Y-18325500D01*
X24888390Y-18325500D01*
X25061610Y-18325500D01*
X25061611Y-18325500D01*
X25218380Y-18300670D01*
X25287672Y-18309625D01*
G37*
%TD.AperFunction*%
%TA.AperFunction,NonConductor*%
G36*
X55272047Y-25788888D02*
G01*
X55303385Y-25792484D01*
X55306220Y-25794802D01*
X55309827Y-25795427D01*
X55333055Y-25816745D01*
X55357474Y-25836713D01*
X55359663Y-25841166D01*
X55361303Y-25842671D01*
X55373047Y-25868385D01*
X55425244Y-26029031D01*
X55518140Y-26211349D01*
X55638417Y-26376894D01*
X55638417Y-26376895D01*
X55783107Y-26521585D01*
X55804058Y-26536807D01*
X55846723Y-26592138D01*
X55852701Y-26661751D01*
X55820094Y-26723546D01*
X55818854Y-26724804D01*
X55790586Y-26753072D01*
X55688768Y-26893211D01*
X55610128Y-27047552D01*
X55556597Y-27212302D01*
X55529500Y-27383389D01*
X55529500Y-28956610D01*
X55555934Y-29123512D01*
X55556598Y-29127701D01*
X55582814Y-29208386D01*
X55610128Y-29292447D01*
X55671470Y-29412838D01*
X55684366Y-29481507D01*
X55658090Y-29546248D01*
X55600983Y-29586505D01*
X55580383Y-29591606D01*
X55517302Y-29601597D01*
X55352552Y-29655128D01*
X55198211Y-29733768D01*
X55128559Y-29784374D01*
X55058072Y-29835586D01*
X55058070Y-29835588D01*
X55058069Y-29835588D01*
X55002181Y-29891477D01*
X54982744Y-29902089D01*
X54966011Y-29916590D01*
X54952679Y-29918506D01*
X54940858Y-29924962D01*
X54918771Y-29923382D01*
X54896853Y-29926534D01*
X54884601Y-29920938D01*
X54871166Y-29919978D01*
X54853439Y-29906707D01*
X54833297Y-29897509D01*
X54826014Y-29886177D01*
X54815233Y-29878106D01*
X54807495Y-29857360D01*
X54795523Y-29838731D01*
X54792371Y-29816812D01*
X54790816Y-29812642D01*
X54790500Y-29803796D01*
X54790500Y-29777204D01*
X54810185Y-29710165D01*
X54826819Y-29689523D01*
X54874033Y-29642309D01*
X54929414Y-29586928D01*
X55031232Y-29446788D01*
X55109873Y-29292445D01*
X55163402Y-29127701D01*
X55190500Y-28956611D01*
X55190500Y-27383389D01*
X55163402Y-27212299D01*
X55109873Y-27047555D01*
X55031232Y-26893212D01*
X54929414Y-26753072D01*
X54806928Y-26630586D01*
X54765265Y-26600316D01*
X54722602Y-26544988D01*
X54716623Y-26475374D01*
X54749229Y-26413579D01*
X54765266Y-26399683D01*
X54806928Y-26369414D01*
X54929414Y-26246928D01*
X55031232Y-26106788D01*
X55109873Y-25952445D01*
X55137186Y-25868384D01*
X55154989Y-25842347D01*
X55171270Y-25815349D01*
X55174555Y-25813733D01*
X55176622Y-25810711D01*
X55205672Y-25798433D01*
X55233971Y-25784520D01*
X55237608Y-25784937D01*
X55240981Y-25783512D01*
X55272047Y-25788888D01*
G37*
%TD.AperFunction*%
%TA.AperFunction,NonConductor*%
G36*
X34640703Y-22725853D02*
G01*
X34647181Y-22731885D01*
X34676262Y-22760966D01*
X34816402Y-22862784D01*
X34970745Y-22941425D01*
X35135489Y-22994954D01*
X35306579Y-23022052D01*
X35306580Y-23022052D01*
X35479799Y-23022052D01*
X35479801Y-23022052D01*
X35480172Y-23021993D01*
X35480315Y-23022011D01*
X35484654Y-23021670D01*
X35484725Y-23022581D01*
X35485602Y-23022694D01*
X35490735Y-23020780D01*
X35519884Y-23027121D01*
X35549466Y-23030941D01*
X35555075Y-23034776D01*
X35559008Y-23035632D01*
X35587262Y-23056783D01*
X35608181Y-23077702D01*
X35641666Y-23139025D01*
X35644500Y-23165383D01*
X35644500Y-23190040D01*
X35624815Y-23257079D01*
X35596484Y-23287079D01*
X35596777Y-23287422D01*
X35593592Y-23290142D01*
X35593394Y-23290352D01*
X35593075Y-23290583D01*
X35593069Y-23290588D01*
X35470588Y-23413069D01*
X35470588Y-23413070D01*
X35470586Y-23413072D01*
X35457077Y-23431666D01*
X35368768Y-23553211D01*
X35290128Y-23707552D01*
X35236597Y-23872302D01*
X35209500Y-24043389D01*
X35209500Y-25616610D01*
X35235934Y-25783512D01*
X35236598Y-25787701D01*
X35290127Y-25952445D01*
X35368768Y-26106788D01*
X35470586Y-26246928D01*
X35593072Y-26369414D01*
X35603367Y-26376894D01*
X35634733Y-26399683D01*
X35677398Y-26455013D01*
X35683376Y-26524627D01*
X35650769Y-26586421D01*
X35634733Y-26600317D01*
X35593072Y-26630585D01*
X35470588Y-26753069D01*
X35470588Y-26753070D01*
X35470586Y-26753072D01*
X35451269Y-26779660D01*
X35368768Y-26893211D01*
X35290128Y-27047552D01*
X35236597Y-27212302D01*
X35209500Y-27383389D01*
X35209500Y-28956610D01*
X35235934Y-29123512D01*
X35236598Y-29127701D01*
X35290127Y-29292445D01*
X35368768Y-29446788D01*
X35470586Y-29586928D01*
X35593072Y-29709414D01*
X35593374Y-29709633D01*
X35593461Y-29709746D01*
X35596779Y-29712580D01*
X35596184Y-29713276D01*
X35599690Y-29717822D01*
X35608738Y-29722838D01*
X35620666Y-29745018D01*
X35636046Y-29764958D01*
X35636932Y-29775263D01*
X35641832Y-29784374D01*
X35644500Y-29809959D01*
X35644500Y-30236734D01*
X35624815Y-30303773D01*
X35572011Y-30349528D01*
X35502853Y-30359472D01*
X35439297Y-30330447D01*
X35405939Y-30284187D01*
X35364757Y-30184766D01*
X35291929Y-30075770D01*
X35291928Y-30075769D01*
X35288636Y-30072477D01*
X35199231Y-29983072D01*
X34981117Y-29764958D01*
X34758638Y-29542478D01*
X34725153Y-29481155D01*
X34730137Y-29411463D01*
X34735829Y-29398512D01*
X34789873Y-29292445D01*
X34843402Y-29127701D01*
X34870500Y-28956611D01*
X34870500Y-27383389D01*
X34843402Y-27212299D01*
X34789873Y-27047555D01*
X34711232Y-26893212D01*
X34609414Y-26753072D01*
X34486928Y-26630586D01*
X34445265Y-26600316D01*
X34402602Y-26544988D01*
X34396623Y-26475374D01*
X34429229Y-26413579D01*
X34445266Y-26399683D01*
X34486928Y-26369414D01*
X34609414Y-26246928D01*
X34711232Y-26106788D01*
X34789873Y-25952445D01*
X34843402Y-25787701D01*
X34870500Y-25616611D01*
X34870500Y-24043389D01*
X34843402Y-23872299D01*
X34789873Y-23707555D01*
X34711232Y-23553212D01*
X34609414Y-23413072D01*
X34486928Y-23290586D01*
X34486606Y-23290352D01*
X34486514Y-23290233D01*
X34483223Y-23287422D01*
X34483813Y-23286730D01*
X34443945Y-23235018D01*
X34435500Y-23190040D01*
X34435500Y-22819566D01*
X34455185Y-22752527D01*
X34507989Y-22706772D01*
X34577147Y-22696828D01*
X34640703Y-22725853D01*
G37*
%TD.AperFunction*%
%TA.AperFunction,NonConductor*%
G36*
X42572047Y-29128888D02*
G01*
X42603385Y-29132484D01*
X42606220Y-29134802D01*
X42609827Y-29135427D01*
X42633055Y-29156745D01*
X42657474Y-29176713D01*
X42659663Y-29181166D01*
X42661303Y-29182671D01*
X42673047Y-29208385D01*
X42725244Y-29369031D01*
X42818140Y-29551349D01*
X42938417Y-29716894D01*
X42938417Y-29716895D01*
X43083104Y-29861582D01*
X43237037Y-29973422D01*
X43279702Y-30028752D01*
X43285681Y-30098366D01*
X43253075Y-30160161D01*
X43220446Y-30184225D01*
X43123211Y-30233768D01*
X43053816Y-30284187D01*
X42983072Y-30335586D01*
X42983070Y-30335588D01*
X42983069Y-30335588D01*
X42860588Y-30458069D01*
X42860588Y-30458070D01*
X42860586Y-30458072D01*
X42849580Y-30473221D01*
X42758768Y-30598211D01*
X42680129Y-30752549D01*
X42680127Y-30752554D01*
X42680127Y-30752555D01*
X42672683Y-30775462D01*
X42633246Y-30833135D01*
X42568887Y-30860333D01*
X42500041Y-30848418D01*
X42481868Y-30837458D01*
X42476792Y-30833770D01*
X42322447Y-30755128D01*
X42322446Y-30755127D01*
X42322445Y-30755127D01*
X42182849Y-30709769D01*
X42157693Y-30701595D01*
X42152959Y-30700459D01*
X42153359Y-30698792D01*
X42096931Y-30672015D01*
X42060023Y-30612689D01*
X42055500Y-30579504D01*
X42055500Y-29809959D01*
X42075185Y-29742920D01*
X42103516Y-29712925D01*
X42103221Y-29712580D01*
X42106436Y-29709833D01*
X42106624Y-29709634D01*
X42106928Y-29709414D01*
X42229414Y-29586928D01*
X42331232Y-29446788D01*
X42409873Y-29292445D01*
X42437186Y-29208384D01*
X42454989Y-29182347D01*
X42471270Y-29155349D01*
X42474555Y-29153733D01*
X42476622Y-29150711D01*
X42505672Y-29138433D01*
X42533971Y-29124520D01*
X42537608Y-29124937D01*
X42540981Y-29123512D01*
X42572047Y-29128888D01*
G37*
%TD.AperFunction*%
%TA.AperFunction,NonConductor*%
G36*
X52362942Y-22828685D02*
G01*
X52369308Y-22828413D01*
X52394337Y-22843023D01*
X52420703Y-22855064D01*
X52425528Y-22861229D01*
X52429650Y-22863636D01*
X52449985Y-22892483D01*
X52464527Y-22921025D01*
X52495118Y-22963129D01*
X52566347Y-23061167D01*
X52688833Y-23183653D01*
X52828973Y-23285471D01*
X52983316Y-23364112D01*
X53069855Y-23392230D01*
X53127528Y-23431666D01*
X53154727Y-23496025D01*
X53142813Y-23564871D01*
X53142020Y-23566454D01*
X53070129Y-23707549D01*
X53016597Y-23872302D01*
X52989500Y-24043389D01*
X52989500Y-25616610D01*
X53015934Y-25783512D01*
X53016598Y-25787701D01*
X53070127Y-25952445D01*
X53148768Y-26106788D01*
X53250586Y-26246928D01*
X53373072Y-26369414D01*
X53383367Y-26376894D01*
X53414733Y-26399683D01*
X53457398Y-26455013D01*
X53463376Y-26524627D01*
X53430769Y-26586421D01*
X53414733Y-26600317D01*
X53373072Y-26630585D01*
X53250588Y-26753069D01*
X53250588Y-26753070D01*
X53250586Y-26753072D01*
X53231269Y-26779660D01*
X53148768Y-26893211D01*
X53070128Y-27047552D01*
X53016597Y-27212302D01*
X52989500Y-27383389D01*
X52989500Y-28956610D01*
X53015934Y-29123512D01*
X53016598Y-29127701D01*
X53070127Y-29292445D01*
X53148768Y-29446788D01*
X53250586Y-29586928D01*
X53250588Y-29586930D01*
X53373073Y-29709415D01*
X53383086Y-29716689D01*
X53408384Y-29735069D01*
X53451050Y-29790397D01*
X53459500Y-29835388D01*
X53459500Y-30772977D01*
X53439815Y-30840016D01*
X53423181Y-30860658D01*
X52365707Y-31918131D01*
X52304384Y-31951616D01*
X52234692Y-31946632D01*
X52178759Y-31904760D01*
X52154342Y-31839296D01*
X52163464Y-31783000D01*
X52189925Y-31719119D01*
X52198294Y-31677044D01*
X52215500Y-31590548D01*
X52215500Y-29809959D01*
X52235185Y-29742920D01*
X52263516Y-29712925D01*
X52263221Y-29712580D01*
X52266436Y-29709833D01*
X52266624Y-29709634D01*
X52266928Y-29709414D01*
X52389414Y-29586928D01*
X52491232Y-29446788D01*
X52569873Y-29292445D01*
X52623402Y-29127701D01*
X52650500Y-28956611D01*
X52650500Y-27383389D01*
X52623402Y-27212299D01*
X52569873Y-27047555D01*
X52491232Y-26893212D01*
X52389414Y-26753072D01*
X52266928Y-26630586D01*
X52225265Y-26600316D01*
X52182602Y-26544988D01*
X52176623Y-26475374D01*
X52209229Y-26413579D01*
X52225266Y-26399683D01*
X52266928Y-26369414D01*
X52389414Y-26246928D01*
X52491232Y-26106788D01*
X52569873Y-25952445D01*
X52623402Y-25787701D01*
X52650500Y-25616611D01*
X52650500Y-24043389D01*
X52623402Y-23872299D01*
X52569873Y-23707555D01*
X52491232Y-23553212D01*
X52389414Y-23413072D01*
X52266928Y-23290586D01*
X52266606Y-23290352D01*
X52266514Y-23290233D01*
X52263223Y-23287422D01*
X52263813Y-23286730D01*
X52223945Y-23235018D01*
X52215500Y-23190040D01*
X52215500Y-22948777D01*
X52217294Y-22942663D01*
X52216119Y-22936402D01*
X52227019Y-22909544D01*
X52235185Y-22881738D01*
X52239999Y-22877566D01*
X52242396Y-22871662D01*
X52266086Y-22854961D01*
X52287989Y-22835983D01*
X52294295Y-22835076D01*
X52299503Y-22831405D01*
X52328459Y-22830163D01*
X52357147Y-22826039D01*
X52362942Y-22828685D01*
G37*
%TD.AperFunction*%
%TA.AperFunction,NonConductor*%
G36*
X36829834Y-31963840D02*
G01*
X36885767Y-32005712D01*
X36910184Y-32071176D01*
X36910500Y-32080022D01*
X36910500Y-32871977D01*
X36890815Y-32939016D01*
X36874181Y-32959658D01*
X35913181Y-33920658D01*
X35851858Y-33954143D01*
X35782166Y-33949159D01*
X35726233Y-33907287D01*
X35701816Y-33841823D01*
X35701500Y-33832977D01*
X35701500Y-33041022D01*
X35721185Y-32973983D01*
X35737819Y-32953341D01*
X36698819Y-31992341D01*
X36760142Y-31958856D01*
X36829834Y-31963840D01*
G37*
%TD.AperFunction*%
%TA.AperFunction,NonConductor*%
G36*
X52108775Y-31976109D02*
G01*
X52140308Y-31978365D01*
X52143172Y-31980509D01*
X52146720Y-31980963D01*
X52170930Y-32001289D01*
X52196241Y-32020237D01*
X52197491Y-32023588D01*
X52200231Y-32025889D01*
X52209609Y-32056078D01*
X52220658Y-32085701D01*
X52220024Y-32089607D01*
X52220959Y-32092614D01*
X52216481Y-32127622D01*
X52214446Y-32134971D01*
X52185075Y-32205881D01*
X52161063Y-32326598D01*
X52160174Y-32331064D01*
X52160172Y-32331073D01*
X52159500Y-32334454D01*
X52159500Y-34103086D01*
X52139815Y-34170125D01*
X52087011Y-34215880D01*
X52017853Y-34225824D01*
X51979207Y-34213572D01*
X51972448Y-34210128D01*
X51941859Y-34200189D01*
X51807701Y-34156598D01*
X51807699Y-34156597D01*
X51807698Y-34156597D01*
X51676271Y-34135781D01*
X51636611Y-34129500D01*
X51463389Y-34129500D01*
X51423728Y-34135781D01*
X51292302Y-34156597D01*
X51127551Y-34210128D01*
X51120793Y-34213572D01*
X51052123Y-34226467D01*
X50987384Y-34200189D01*
X50947127Y-34143082D01*
X50940500Y-34103086D01*
X50940500Y-33127021D01*
X50960185Y-33059982D01*
X50976819Y-33039340D01*
X52009293Y-32006866D01*
X52012433Y-32005151D01*
X52014320Y-32002112D01*
X52042872Y-31988530D01*
X52070616Y-31973381D01*
X52074183Y-31973636D01*
X52077415Y-31972099D01*
X52108775Y-31976109D01*
G37*
%TD.AperFunction*%
%TA.AperFunction,NonConductor*%
G36*
X43050910Y-32093093D02*
G01*
X43070951Y-32091552D01*
X43096791Y-32101032D01*
X43099953Y-32101579D01*
X43102547Y-32103143D01*
X43104086Y-32103708D01*
X43111404Y-32107653D01*
X43123212Y-32116232D01*
X43198096Y-32154387D01*
X43199341Y-32155058D01*
X43223201Y-32178663D01*
X43247590Y-32201697D01*
X43247948Y-32203146D01*
X43249011Y-32204197D01*
X43264500Y-32264208D01*
X43264500Y-34290040D01*
X43244815Y-34357079D01*
X43216484Y-34387079D01*
X43216777Y-34387422D01*
X43213592Y-34390142D01*
X43213394Y-34390352D01*
X43213075Y-34390583D01*
X43213069Y-34390588D01*
X43090588Y-34513069D01*
X43090588Y-34513070D01*
X43090586Y-34513072D01*
X43064737Y-34548650D01*
X42988768Y-34653211D01*
X42910128Y-34807552D01*
X42856597Y-34972302D01*
X42829500Y-35143389D01*
X42829500Y-36528978D01*
X42823261Y-36550223D01*
X42821682Y-36572312D01*
X42813609Y-36583095D01*
X42809815Y-36596017D01*
X42793081Y-36610516D01*
X42779810Y-36628245D01*
X42767189Y-36632952D01*
X42757011Y-36641772D01*
X42735093Y-36644923D01*
X42714346Y-36652662D01*
X42701185Y-36649799D01*
X42687853Y-36651716D01*
X42667709Y-36642516D01*
X42646073Y-36637810D01*
X42628347Y-36624541D01*
X42624297Y-36622691D01*
X42617819Y-36616659D01*
X42526819Y-36525659D01*
X42493334Y-36464336D01*
X42490500Y-36437978D01*
X42490500Y-35143389D01*
X42463402Y-34972302D01*
X42463402Y-34972299D01*
X42409873Y-34807555D01*
X42331232Y-34653212D01*
X42229414Y-34513072D01*
X42106928Y-34390586D01*
X41966788Y-34288768D01*
X41812445Y-34210127D01*
X41812444Y-34210126D01*
X41812443Y-34210126D01*
X41807952Y-34208266D01*
X41808618Y-34206655D01*
X41757154Y-34171459D01*
X41729961Y-34107098D01*
X41741881Y-34038252D01*
X41765471Y-34005293D01*
X41789704Y-33981061D01*
X41862534Y-33872062D01*
X41912701Y-33750949D01*
X41926410Y-33682031D01*
X41938276Y-33622378D01*
X41938276Y-32989061D01*
X41957961Y-32922022D01*
X42010765Y-32876267D01*
X42042876Y-32866588D01*
X42157701Y-32848402D01*
X42322445Y-32794873D01*
X42476788Y-32716232D01*
X42616928Y-32614414D01*
X42739414Y-32491928D01*
X42841232Y-32351788D01*
X42919873Y-32197445D01*
X42927314Y-32174541D01*
X42938657Y-32157951D01*
X42945580Y-32139083D01*
X42957973Y-32129701D01*
X42966748Y-32116867D01*
X42985262Y-32109042D01*
X43001287Y-32096911D01*
X43016787Y-32095718D01*
X43031106Y-32089667D01*
X43050910Y-32093093D01*
G37*
%TD.AperFunction*%
%TA.AperFunction,NonConductor*%
G36*
X9694185Y-28673050D02*
G01*
X9703147Y-28671762D01*
X9727187Y-28682740D01*
X9752539Y-28690185D01*
X9758466Y-28697025D01*
X9766703Y-28700787D01*
X9780992Y-28723021D01*
X9798294Y-28742989D01*
X9800581Y-28753503D01*
X9804477Y-28759565D01*
X9809500Y-28794500D01*
X9809500Y-28956610D01*
X9835934Y-29123512D01*
X9836598Y-29127701D01*
X9890127Y-29292445D01*
X9968768Y-29446788D01*
X10070586Y-29586928D01*
X10193072Y-29709414D01*
X10333212Y-29811232D01*
X10487555Y-29889873D01*
X10652299Y-29943402D01*
X10823389Y-29970500D01*
X10823390Y-29970500D01*
X10996609Y-29970500D01*
X10996611Y-29970500D01*
X11114832Y-29951775D01*
X11184123Y-29960729D01*
X11237575Y-30005725D01*
X11258215Y-30072477D01*
X11239491Y-30139790D01*
X11221909Y-30161929D01*
X10783075Y-30600763D01*
X10710241Y-30709769D01*
X10660075Y-30830880D01*
X10660073Y-30830888D01*
X10634755Y-30958170D01*
X10634751Y-30958191D01*
X10634501Y-30959445D01*
X10634500Y-30959451D01*
X10634500Y-30959454D01*
X10634500Y-32964522D01*
X10634500Y-33095616D01*
X10634500Y-33095618D01*
X10634499Y-33095618D01*
X10660073Y-33224182D01*
X10660075Y-33224188D01*
X10710242Y-33345301D01*
X10778791Y-33447894D01*
X10783075Y-33454305D01*
X10783076Y-33454306D01*
X11275297Y-33946525D01*
X11308782Y-34007848D01*
X11303798Y-34077539D01*
X11261927Y-34133473D01*
X11196462Y-34157890D01*
X11168219Y-34156679D01*
X10996611Y-34129500D01*
X10823389Y-34129500D01*
X10783728Y-34135781D01*
X10652302Y-34156597D01*
X10487552Y-34210128D01*
X10333211Y-34288768D01*
X10269070Y-34335370D01*
X10193072Y-34390586D01*
X10193070Y-34390588D01*
X10193069Y-34390588D01*
X10070588Y-34513069D01*
X10070588Y-34513070D01*
X10070586Y-34513072D01*
X10044737Y-34548650D01*
X9968768Y-34653211D01*
X9890128Y-34807552D01*
X9836597Y-34972302D01*
X9809500Y-35143389D01*
X9809500Y-36716610D01*
X9835934Y-36883512D01*
X9836598Y-36887701D01*
X9890127Y-37052445D01*
X9968768Y-37206788D01*
X9985818Y-37230255D01*
X10009298Y-37296058D01*
X10009500Y-37303140D01*
X10009500Y-37896859D01*
X9989815Y-37963898D01*
X9985818Y-37969745D01*
X9968770Y-37993207D01*
X9968769Y-37993210D01*
X9890128Y-38147552D01*
X9836597Y-38312302D01*
X9809500Y-38483389D01*
X9809500Y-40056610D01*
X9836597Y-40227697D01*
X9890129Y-40392450D01*
X9965315Y-40540013D01*
X9978211Y-40608682D01*
X9951934Y-40673422D01*
X9942511Y-40683988D01*
X9677639Y-40948860D01*
X9616316Y-40982345D01*
X9546624Y-40977361D01*
X9490691Y-40935489D01*
X9466274Y-40870025D01*
X9466785Y-40846886D01*
X9470264Y-40816895D01*
X9470500Y-40814865D01*
X9470499Y-37725136D01*
X9470264Y-37723110D01*
X9467586Y-37700012D01*
X9467585Y-37700010D01*
X9467585Y-37700009D01*
X9422206Y-37597235D01*
X9342765Y-37517794D01*
X9342764Y-37517793D01*
X9342763Y-37517792D01*
X9333287Y-37511301D01*
X9334231Y-37509922D01*
X9330205Y-37506521D01*
X9313297Y-37498800D01*
X9304070Y-37484443D01*
X9291034Y-37473430D01*
X9285573Y-37455661D01*
X9275523Y-37440022D01*
X9270911Y-37407948D01*
X9270510Y-37406642D01*
X9270500Y-37405087D01*
X9270500Y-37303140D01*
X9290185Y-37236101D01*
X9294164Y-37230279D01*
X9311232Y-37206788D01*
X9389873Y-37052445D01*
X9443402Y-36887701D01*
X9470500Y-36716611D01*
X9470500Y-35143389D01*
X9443402Y-34972299D01*
X9389873Y-34807555D01*
X9311232Y-34653212D01*
X9311229Y-34653208D01*
X9311229Y-34653207D01*
X9294182Y-34629745D01*
X9270702Y-34563939D01*
X9270500Y-34556859D01*
X9270500Y-29543140D01*
X9290185Y-29476101D01*
X9294164Y-29470279D01*
X9311232Y-29446788D01*
X9389873Y-29292445D01*
X9443402Y-29127701D01*
X9470500Y-28956611D01*
X9470500Y-28794500D01*
X9490185Y-28727461D01*
X9542989Y-28681706D01*
X9594500Y-28670500D01*
X9685500Y-28670500D01*
X9694185Y-28673050D01*
G37*
%TD.AperFunction*%
%TA.AperFunction,NonConductor*%
G36*
X9315754Y-41078615D02*
G01*
X9367287Y-41125797D01*
X9385132Y-41193349D01*
X9363622Y-41259825D01*
X9348860Y-41277639D01*
X9313320Y-41313180D01*
X9251998Y-41346666D01*
X9225638Y-41349500D01*
X8024362Y-41349500D01*
X7957323Y-41329815D01*
X7936681Y-41313181D01*
X7905680Y-41282180D01*
X7872195Y-41220857D01*
X7877179Y-41151165D01*
X7919051Y-41095232D01*
X7984515Y-41070815D01*
X7993361Y-41070499D01*
X9214856Y-41070499D01*
X9214864Y-41070499D01*
X9226938Y-41069098D01*
X9246893Y-41066785D01*
X9315754Y-41078615D01*
G37*
%TD.AperFunction*%
%TA.AperFunction,NonConductor*%
G36*
X38306282Y-33389162D02*
G01*
X38314374Y-33387690D01*
X38348585Y-33396364D01*
X38353178Y-33398258D01*
X38444666Y-33444873D01*
X38546303Y-33477897D01*
X38550709Y-33479714D01*
X38574375Y-33498724D01*
X38599431Y-33515857D01*
X38601346Y-33520388D01*
X38605182Y-33523470D01*
X38614812Y-33552254D01*
X38626629Y-33580215D01*
X38625789Y-33585063D01*
X38627351Y-33589729D01*
X38619890Y-33619152D01*
X38614714Y-33649062D01*
X38611387Y-33652686D01*
X38610178Y-33657456D01*
X38591118Y-33682031D01*
X38333073Y-33940076D01*
X38260241Y-34049079D01*
X38210075Y-34170190D01*
X38210073Y-34170198D01*
X38186007Y-34291185D01*
X38186003Y-34291206D01*
X38185463Y-34293925D01*
X38184500Y-34298764D01*
X38184500Y-34301061D01*
X38183358Y-34308546D01*
X38169911Y-34337328D01*
X38158010Y-34366791D01*
X38154631Y-34370033D01*
X38153784Y-34371848D01*
X38150745Y-34373763D01*
X38136659Y-34387284D01*
X38136777Y-34387422D01*
X38134404Y-34389448D01*
X38133686Y-34390138D01*
X38133088Y-34390572D01*
X38133069Y-34390588D01*
X38010588Y-34513069D01*
X38010588Y-34513070D01*
X38010586Y-34513072D01*
X37984737Y-34548650D01*
X37908768Y-34653211D01*
X37830128Y-34807552D01*
X37776597Y-34972302D01*
X37749500Y-35143389D01*
X37749500Y-36716610D01*
X37775934Y-36883512D01*
X37776598Y-36887701D01*
X37830127Y-37052445D01*
X37908768Y-37206788D01*
X38010586Y-37346928D01*
X38010588Y-37346930D01*
X38133072Y-37469414D01*
X38174733Y-37499683D01*
X38217398Y-37555013D01*
X38223376Y-37624627D01*
X38190769Y-37686421D01*
X38174733Y-37700317D01*
X38133072Y-37730585D01*
X38010588Y-37853069D01*
X38010588Y-37853070D01*
X38010586Y-37853072D01*
X37978773Y-37896859D01*
X37908768Y-37993211D01*
X37830128Y-38147552D01*
X37776597Y-38312302D01*
X37767459Y-38370000D01*
X37749500Y-38483389D01*
X37749500Y-40056611D01*
X37776598Y-40227701D01*
X37830127Y-40392445D01*
X37908768Y-40546788D01*
X38010586Y-40686928D01*
X38133072Y-40809414D01*
X38133374Y-40809633D01*
X38133461Y-40809746D01*
X38136779Y-40812580D01*
X38136184Y-40813276D01*
X38176046Y-40864958D01*
X38184500Y-40909959D01*
X38184500Y-42112321D01*
X38164815Y-42179360D01*
X38133387Y-42212638D01*
X38047515Y-42275028D01*
X37925031Y-42397512D01*
X37925031Y-42397513D01*
X37925029Y-42397515D01*
X37887547Y-42449104D01*
X37823209Y-42537657D01*
X37798101Y-42586934D01*
X37750126Y-42637730D01*
X37682305Y-42654524D01*
X37616170Y-42631986D01*
X37572720Y-42577270D01*
X37565144Y-42511241D01*
X37574986Y-42449104D01*
X37574986Y-42275882D01*
X37547888Y-42104792D01*
X37494359Y-41940048D01*
X37415718Y-41785705D01*
X37313900Y-41645565D01*
X37191414Y-41523079D01*
X37110563Y-41464337D01*
X37051271Y-41421258D01*
X37043200Y-41417146D01*
X36992406Y-41369169D01*
X36975500Y-41306664D01*
X36975500Y-40909959D01*
X36995185Y-40842920D01*
X37023516Y-40812925D01*
X37023221Y-40812580D01*
X37026436Y-40809833D01*
X37026624Y-40809634D01*
X37026928Y-40809414D01*
X37149414Y-40686928D01*
X37251232Y-40546788D01*
X37329873Y-40392445D01*
X37383402Y-40227701D01*
X37410500Y-40056611D01*
X37410500Y-38483389D01*
X37383402Y-38312299D01*
X37329873Y-38147555D01*
X37251232Y-37993212D01*
X37149414Y-37853072D01*
X37026928Y-37730586D01*
X36985265Y-37700316D01*
X36942602Y-37644988D01*
X36936623Y-37575374D01*
X36969229Y-37513579D01*
X36985266Y-37499683D01*
X37026928Y-37469414D01*
X37149414Y-37346928D01*
X37251232Y-37206788D01*
X37329873Y-37052445D01*
X37383402Y-36887701D01*
X37410500Y-36716611D01*
X37410500Y-35143389D01*
X37383402Y-34972299D01*
X37329873Y-34807555D01*
X37251232Y-34653212D01*
X37234249Y-34629837D01*
X37210770Y-34564030D01*
X37226596Y-34495977D01*
X37246883Y-34469275D01*
X38092927Y-33623232D01*
X38093892Y-33621789D01*
X38123960Y-33576788D01*
X38165758Y-33514233D01*
X38185924Y-33465547D01*
X38186744Y-33463566D01*
X38192368Y-33456584D01*
X38194572Y-33447894D01*
X38213943Y-33429801D01*
X38230574Y-33409157D01*
X38239081Y-33406323D01*
X38245634Y-33400204D01*
X38271713Y-33395456D01*
X38296865Y-33387080D01*
X38306282Y-33389162D01*
G37*
%TD.AperFunction*%
%TA.AperFunction,NonConductor*%
G36*
X27508834Y-38554838D02*
G01*
X27564767Y-38596710D01*
X27589184Y-38662174D01*
X27589500Y-38671020D01*
X27589500Y-40056611D01*
X27616598Y-40227701D01*
X27670127Y-40392445D01*
X27748768Y-40546788D01*
X27850586Y-40686928D01*
X27973072Y-40809414D01*
X27973374Y-40809633D01*
X27973461Y-40809746D01*
X27976779Y-40812580D01*
X27976184Y-40813276D01*
X28016046Y-40864958D01*
X28024500Y-40909959D01*
X28024500Y-42360584D01*
X28004815Y-42427623D01*
X27952011Y-42473378D01*
X27919900Y-42483057D01*
X27891233Y-42487597D01*
X27726485Y-42541128D01*
X27572144Y-42619768D01*
X27508194Y-42666231D01*
X27432005Y-42721586D01*
X27432003Y-42721588D01*
X27432002Y-42721588D01*
X27309521Y-42844069D01*
X27309521Y-42844070D01*
X27309519Y-42844072D01*
X27276148Y-42890003D01*
X27207701Y-42984211D01*
X27129061Y-43138552D01*
X27129060Y-43138554D01*
X27129060Y-43138555D01*
X27080954Y-43286611D01*
X27076609Y-43299982D01*
X27037171Y-43357658D01*
X26972813Y-43384856D01*
X26903966Y-43372941D01*
X26852491Y-43325697D01*
X26834678Y-43261664D01*
X26834678Y-41714025D01*
X26828124Y-41681080D01*
X26828124Y-41681077D01*
X26813527Y-41607696D01*
X26809103Y-41585453D01*
X26783267Y-41523079D01*
X26758937Y-41464340D01*
X26758935Y-41464337D01*
X26686107Y-41355341D01*
X26686106Y-41355340D01*
X26608405Y-41277639D01*
X26525471Y-41194705D01*
X26491988Y-41133384D01*
X26496972Y-41063693D01*
X26538843Y-41007759D01*
X26568271Y-40992505D01*
X26567952Y-40991734D01*
X26572435Y-40989876D01*
X26572445Y-40989873D01*
X26726788Y-40911232D01*
X26866928Y-40809414D01*
X26989414Y-40686928D01*
X27091232Y-40546788D01*
X27169873Y-40392445D01*
X27223402Y-40227701D01*
X27250500Y-40056611D01*
X27250500Y-38762020D01*
X27259144Y-38732579D01*
X27265668Y-38702593D01*
X27269422Y-38697577D01*
X27270185Y-38694981D01*
X27286815Y-38674343D01*
X27377820Y-38583338D01*
X27439142Y-38549854D01*
X27508834Y-38554838D01*
G37*
%TD.AperFunction*%
M02*
