M48
; DRILL file {KiCad 9.0.7} date 2026-05-06T21:23:31+0200
; FORMAT={-:-/ absolute / metric / decimal}
; #@! TF.CreationDate,2026-05-06T21:23:31+02:00
; #@! TF.GenerationSoftware,Kicad,Pcbnew,9.0.7
; #@! TF.FileFunction,Plated,1,2,PTH
FMAT,2
METRIC
; #@! TA.AperFunction,Plated,PTH,ViaDrill
T1C0.600
; #@! TA.AperFunction,Plated,PTH,ComponentDrill
T2C1.000
%
G90
G05
T1
X8.4Y-21.05
X10.85Y-22.45
X12.375Y-32.585
X13.25Y-19.675
X15.7Y-21.164
X15.787Y-33.228
X16.943Y-22.003
X17.3Y-31.7
X18.772Y-31.032
X19.437Y-20.95
X20.227Y-33.486
X20.936Y-21.002
X21.261Y-17.377
X21.727Y-33.491
X23.009Y-42.348
X23.086Y-20.596
X23.897Y-33.295
X24.167Y-19.506
X24.35Y-41.675
X24.975Y-17.225
X25.538Y-20.114
X26.029Y-44.874
X26.385Y-18.856
X27.248Y-30.725
X28.149Y-43.561
X28.857Y-16.982
X29.525Y-33.4
X30.222Y-17.664
X30.627Y-44.211
X31.29Y-20.964
X31.923Y-31.838
X32.897Y-44.226
X33.376Y-18.141
X34.775Y-31.35
X34.873Y-42.243
X35.393Y-21.922
X36.474Y-42.362
X38.099Y-18.829
X38.764Y-43.114
X38.867Y-32.425
X40.198Y-33.117
X40.225Y-21.036
X41.3Y-17.825
X41.9Y-31.775
X42.355Y-44.8
X43.7Y-31.175
X43.789Y-22.253
X43.889Y-41.501
X45.167Y-21.661
X46.47Y-33.0
X46.475Y-17.15
X47.475Y-22.375
X48.025Y-20.875
X50.4Y-43.2
X50.725Y-20.65
X52.55Y-41.725
X53.406Y-22.344
X55.775Y-30.675
T2
X8.37Y-25.23
X8.37Y-27.77
X8.37Y-36.33
X8.37Y-38.87
X10.91Y-25.23
X10.91Y-27.77
X10.91Y-36.33
X10.91Y-38.87
X13.45Y-25.23
X13.45Y-27.77
X13.45Y-36.33
X13.45Y-38.87
X15.99Y-25.23
X15.99Y-27.77
X15.99Y-36.33
X15.99Y-38.87
X18.53Y-25.23
X18.53Y-27.77
X18.53Y-36.33
X18.53Y-38.87
X21.07Y-25.23
X21.07Y-27.77
X21.07Y-36.33
X21.07Y-38.87
X23.61Y-25.23
X23.61Y-27.77
X23.61Y-36.33
X23.61Y-38.87
X26.15Y-25.23
X26.15Y-27.77
X26.15Y-36.33
X26.15Y-38.87
X28.69Y-25.23
X28.69Y-27.77
X28.69Y-36.33
X28.69Y-38.87
X31.23Y-25.23
X31.23Y-27.77
X31.23Y-36.33
X31.23Y-38.87
X33.77Y-25.23
X33.77Y-27.77
X33.77Y-36.33
X33.77Y-38.87
X36.31Y-25.23
X36.31Y-27.77
X36.31Y-36.33
X36.31Y-38.87
X38.85Y-25.23
X38.85Y-27.77
X38.85Y-36.33
X38.85Y-38.87
X41.39Y-25.23
X41.39Y-27.77
X41.39Y-36.33
X41.39Y-38.87
X43.93Y-25.23
X43.93Y-27.77
X43.93Y-36.33
X43.93Y-38.87
X46.47Y-25.23
X46.47Y-27.77
X46.47Y-36.33
X46.47Y-38.87
X49.01Y-25.23
X49.01Y-27.77
X49.01Y-36.33
X49.01Y-38.87
X51.55Y-25.23
X51.55Y-27.77
X51.55Y-36.33
X51.55Y-38.87
X54.09Y-25.23
X54.09Y-27.77
X54.09Y-36.33
X54.09Y-38.87
X56.63Y-25.23
X56.63Y-27.77
X56.63Y-36.33
X56.63Y-38.87
M30
