%TF.GenerationSoftware,KiCad,Pcbnew,9.0.7*%
%TF.CreationDate,2026-07-08T09:43:54+02:00*%
%TF.ProjectId,BarePi_Zero,42617265-5069-45f5-9a65-726f2e6b6963,rev?*%
%TF.SameCoordinates,Original*%
%TF.FileFunction,Legend,Bot*%
%TF.FilePolarity,Positive*%
%FSLAX46Y46*%
G04 Gerber Fmt 4.6, Leading zero omitted, Abs format (unit mm)*
G04 Created by KiCad (PCBNEW 9.0.7) date 2026-07-08 09:43:54*
%MOMM*%
%LPD*%
G01*
G04 APERTURE LIST*
%ADD10C,0.150000*%
%ADD11C,0.120000*%
G04 APERTURE END LIST*
D10*
X15911666Y-16669819D02*
X16244999Y-16193628D01*
X16483094Y-16669819D02*
X16483094Y-15669819D01*
X16483094Y-15669819D02*
X16102142Y-15669819D01*
X16102142Y-15669819D02*
X16006904Y-15717438D01*
X16006904Y-15717438D02*
X15959285Y-15765057D01*
X15959285Y-15765057D02*
X15911666Y-15860295D01*
X15911666Y-15860295D02*
X15911666Y-16003152D01*
X15911666Y-16003152D02*
X15959285Y-16098390D01*
X15959285Y-16098390D02*
X16006904Y-16146009D01*
X16006904Y-16146009D02*
X16102142Y-16193628D01*
X16102142Y-16193628D02*
X16483094Y-16193628D01*
X15054523Y-16003152D02*
X15054523Y-16669819D01*
X15292618Y-15622200D02*
X15530713Y-16336485D01*
X15530713Y-16336485D02*
X14911666Y-16336485D01*
X9114999Y-16649819D02*
X9448332Y-16173628D01*
X9686427Y-16649819D02*
X9686427Y-15649819D01*
X9686427Y-15649819D02*
X9305475Y-15649819D01*
X9305475Y-15649819D02*
X9210237Y-15697438D01*
X9210237Y-15697438D02*
X9162618Y-15745057D01*
X9162618Y-15745057D02*
X9114999Y-15840295D01*
X9114999Y-15840295D02*
X9114999Y-15983152D01*
X9114999Y-15983152D02*
X9162618Y-16078390D01*
X9162618Y-16078390D02*
X9210237Y-16126009D01*
X9210237Y-16126009D02*
X9305475Y-16173628D01*
X9305475Y-16173628D02*
X9686427Y-16173628D01*
X8781665Y-15649819D02*
X8162618Y-15649819D01*
X8162618Y-15649819D02*
X8495951Y-16030771D01*
X8495951Y-16030771D02*
X8353094Y-16030771D01*
X8353094Y-16030771D02*
X8257856Y-16078390D01*
X8257856Y-16078390D02*
X8210237Y-16126009D01*
X8210237Y-16126009D02*
X8162618Y-16221247D01*
X8162618Y-16221247D02*
X8162618Y-16459342D01*
X8162618Y-16459342D02*
X8210237Y-16554580D01*
X8210237Y-16554580D02*
X8257856Y-16602200D01*
X8257856Y-16602200D02*
X8353094Y-16649819D01*
X8353094Y-16649819D02*
X8638808Y-16649819D01*
X8638808Y-16649819D02*
X8734046Y-16602200D01*
X8734046Y-16602200D02*
X8781665Y-16554580D01*
X5521666Y-16519819D02*
X5854999Y-16043628D01*
X6093094Y-16519819D02*
X6093094Y-15519819D01*
X6093094Y-15519819D02*
X5712142Y-15519819D01*
X5712142Y-15519819D02*
X5616904Y-15567438D01*
X5616904Y-15567438D02*
X5569285Y-15615057D01*
X5569285Y-15615057D02*
X5521666Y-15710295D01*
X5521666Y-15710295D02*
X5521666Y-15853152D01*
X5521666Y-15853152D02*
X5569285Y-15948390D01*
X5569285Y-15948390D02*
X5616904Y-15996009D01*
X5616904Y-15996009D02*
X5712142Y-16043628D01*
X5712142Y-16043628D02*
X6093094Y-16043628D01*
X5140713Y-15615057D02*
X5093094Y-15567438D01*
X5093094Y-15567438D02*
X4997856Y-15519819D01*
X4997856Y-15519819D02*
X4759761Y-15519819D01*
X4759761Y-15519819D02*
X4664523Y-15567438D01*
X4664523Y-15567438D02*
X4616904Y-15615057D01*
X4616904Y-15615057D02*
X4569285Y-15710295D01*
X4569285Y-15710295D02*
X4569285Y-15805533D01*
X4569285Y-15805533D02*
X4616904Y-15948390D01*
X4616904Y-15948390D02*
X5188332Y-16519819D01*
X5188332Y-16519819D02*
X4569285Y-16519819D01*
X12408333Y-16699819D02*
X12741666Y-16223628D01*
X12979761Y-16699819D02*
X12979761Y-15699819D01*
X12979761Y-15699819D02*
X12598809Y-15699819D01*
X12598809Y-15699819D02*
X12503571Y-15747438D01*
X12503571Y-15747438D02*
X12455952Y-15795057D01*
X12455952Y-15795057D02*
X12408333Y-15890295D01*
X12408333Y-15890295D02*
X12408333Y-16033152D01*
X12408333Y-16033152D02*
X12455952Y-16128390D01*
X12455952Y-16128390D02*
X12503571Y-16176009D01*
X12503571Y-16176009D02*
X12598809Y-16223628D01*
X12598809Y-16223628D02*
X12979761Y-16223628D01*
X11455952Y-16699819D02*
X12027380Y-16699819D01*
X11741666Y-16699819D02*
X11741666Y-15699819D01*
X11741666Y-15699819D02*
X11836904Y-15842676D01*
X11836904Y-15842676D02*
X11932142Y-15937914D01*
X11932142Y-15937914D02*
X12027380Y-15985533D01*
D11*
%TO.C,R4*%
X14975000Y-12047936D02*
X14975000Y-13502064D01*
X16795000Y-12047936D02*
X16795000Y-13502064D01*
%TO.C,R3*%
X7968333Y-12047936D02*
X7968333Y-13502064D01*
X9788333Y-12047936D02*
X9788333Y-13502064D01*
%TO.C,R2*%
X4465000Y-12047936D02*
X4465000Y-13502064D01*
X6285000Y-12047936D02*
X6285000Y-13502064D01*
%TO.C,R1*%
X11471667Y-12047936D02*
X11471667Y-13502064D01*
X13291667Y-12047936D02*
X13291667Y-13502064D01*
%TD*%
M02*
